<?xml version="1.0" encoding="utf-8"?>
<!-- Generator: Adobe Illustrator 26.2.1, SVG Export Plug-In . SVG Version: 6.00 Build 0)  -->
<svg version="1.1" id="Capa_1" xmlns="http://www.w3.org/2000/svg" xmlns:xlink="http://www.w3.org/1999/xlink" x="0px" y="0px"
	 viewBox="0 0 50 50" style="enable-background:new 0 0 50 50;" xml:space="preserve">
<style type="text/css">
	.st0{fill:#EAC81F;}
	.st1{fill:#FFFFFF;}
</style>
<g>
	<circle class="st0" cx="25" cy="25.38" r="18.96"/>
	<path d="M5.99,25.38c-0.03-4.98,1.89-9.97,5.38-13.63c1.73-1.84,3.88-3.29,6.21-4.29C19.91,6.45,22.47,6,25,6
		c2.54,0.04,5.05,0.59,7.36,1.6c2.31,1.01,4.4,2.47,6.17,4.24c3.52,3.57,5.63,8.48,5.71,13.53c0.12,5.04-1.9,10.13-5.49,13.74
		c-1.79,1.81-3.93,3.27-6.28,4.26c-2.35,1-4.91,1.48-7.46,1.48c-5.11,0.02-10.18-2.14-13.64-5.84C7.88,35.35,5.95,30.36,5.99,25.38z
		 M6.09,25.38c0.04,2.47,0.53,4.95,1.52,7.2c1,2.25,2.44,4.3,4.21,5.97c3.54,3.36,8.34,5.28,13.18,5.27
		c4.83-0.02,9.63-1.95,13.08-5.37c3.46-3.4,5.53-8.17,5.61-13.08c0.1-4.89-1.86-9.85-5.4-13.29C34.79,8.6,29.85,6.75,25,6.83
		c-4.86,0.04-9.65,1.99-13.19,5.36c-1.77,1.68-3.21,3.73-4.21,5.98C6.61,20.43,6.12,22.9,6.09,25.38z"/>
</g>
<g>
	<path d="M20.41,12.83v14.13h-1.11V23.8h-1.11v-1.11h-2.23v2.11h1.11v1.11h-1.11V24.8h-1.11v-3.23h3.34v1.11h1.11v-9.86H20.41
		c0-1.11,0-1.11,0-1.11h2.25v1.11h1.11v4.32h2.23v1.11h-2.23v4.38h-1.11v-9.81H20.41L20.41,12.83z M31.47,20.48h1.11v1.11h-1.11
		V20.48L31.47,20.48z M33.67,21.57v7.61h-1.11v-7.61H33.67L33.67,21.57z M30.38,20.48v3.27h-1.11v-4.38h-2.18v3.27h-1.11v-4.38h3.29
		v1.11h2.18v1.11H30.38L30.38,20.48z M21.52,34.46h8.81v-2.07h1.11v-3.2h1.11v3.18h-1.11v3.18H20.41v-3.18h-1.11v-2.16h1.11v2.16
		h1.11V34.46L21.52,34.46z M18.2,25.93v2.14h1.11v2.16H18.2v-2.16h-1.11v-2.16h1.11V25.93z"/>
	<polygon class="st1" points="21.52,34.46 30.33,34.46 30.33,32.39 31.45,32.39 31.45,29.18 32.56,29.18 32.56,21.61 31.47,21.61 
		31.47,20.48 30.38,20.48 30.38,23.75 29.26,23.75 29.26,19.37 27.08,19.37 27.08,22.64 25.97,22.64 25.97,18.34 23.77,18.34 
		23.77,22.64 22.65,22.64 22.65,12.83 20.41,12.83 20.41,26.96 19.29,26.96 19.29,23.8 18.18,23.8 18.18,22.79 15.96,22.79 
		15.96,24.8 17.07,24.8 17.07,25.91 18.2,25.91 18.2,28.07 19.32,28.07 19.32,30.23 20.41,30.23 20.41,32.37 21.52,32.37 	"/>
</g>
</svg>
