<?xml version="1.0" encoding="utf-8"?>
<!-- Generator: Adobe Illustrator 26.2.1, SVG Export Plug-In . SVG Version: 6.00 Build 0)  -->
<svg version="1.1" id="Capa_1" xmlns="http://www.w3.org/2000/svg" xmlns:xlink="http://www.w3.org/1999/xlink" x="0px" y="0px"
	 viewBox="0 0 50 50" style="enable-background:new 0 0 50 50;" xml:space="preserve">
<style type="text/css">
	.st0{fill:#F2F2F2;}
	.st1{fill:#002F6C;}
</style>
<g>
	<polygon class="st0" points="22.2,25.46 26.77,30.03 42.91,30.03 42.91,20.88 26.77,20.88 	"/>
	
		<rect x="17.57" y="28.07" transform="matrix(0.7071 -0.7071 0.7071 0.7071 -17.7168 25.6828)" class="st0" width="9.15" height="12.32"/>
	<path class="st1" d="M4.9,25.47c0,0.22,0.09,0.43,0.24,0.59l17.53,17.53c0.33,0.33,0.85,0.33,1.18,0l7.65-7.65
		c0.16-0.16,0.24-0.37,0.24-0.59c0-0.22-0.09-0.43-0.24-0.59l-3.06-3.06h15.3c0.46,0,0.84-0.37,0.84-0.84V20.05
		c0-0.46-0.37-0.84-0.84-0.84h-15.3l3.06-3.06c0.16-0.16,0.24-0.37,0.24-0.59c0-0.22-0.09-0.43-0.24-0.59l-7.65-7.65
		c-0.16-0.16-0.38-0.24-0.59-0.24c-0.21,0-0.43,0.08-0.59,0.24L18.4,11.6c-0.33,0.33-0.33,0.85,0,1.18l0,0
		c0.33,0.33,0.85,0.33,1.18,0l3.69-3.69l6.47,6.47L13.39,31.91l-6.47-6.47l8.43-8.43c0.33-0.33,0.33-0.85,0-1.18l0,0
		c-0.33-0.33-0.85-0.33-1.18,0l-9.02,9.02c-0.16,0.16-0.24,0.37-0.24,0.59c0,0.01,0,0.01,0,0.02C4.91,25.46,4.9,25.47,4.9,25.47z
		 M42.91,30.03H26.77l-4.57-4.57l4.57-4.57h16.14V30.03z M29.73,35.35l-6.47,6.47l-8.71-8.71l6.47-6.47L29.73,35.35z"/>
	<path class="st0" d="M15.35,17.02l-8.43,8.43l6.47,6.47l16.34-16.34L23.27,9.1l-3.69,3.69c-0.33,0.33-0.85,0.33-1.18,0l-3.05,3.05
		l0,0C15.67,16.16,15.67,16.69,15.35,17.02z"/>
</g>
</svg>
