<?xml version="1.0" encoding="utf-8"?>
<!-- Generator: Adobe Illustrator 26.2.1, SVG Export Plug-In . SVG Version: 6.00 Build 0)  -->
<svg version="1.1" id="Capa_1" xmlns="http://www.w3.org/2000/svg" xmlns:xlink="http://www.w3.org/1999/xlink" x="0px" y="0px"
	 viewBox="0 0 80.59 83" style="enable-background:new 0 0 80.59 83;" xml:space="preserve">
<style type="text/css">
	.st0{fill:#3F67AE;}
	.st1{fill:#FFFFFF;}
	.st2{fill:#002F6C;}
</style>
<g>
	<g>
		<circle class="st0" cx="39.9" cy="39.08" r="34.75"/>
		<path class="st1" d="M5,39.08C4.94,13.58,29.54-4.53,53.52,6.2c28.5,13.17,29.79,53.58,0.28,66.42C29.68,82.67,4.86,64.69,5,39.08
			L5,39.08z M5.3,39.08c0.31,29.5,37.36,44.02,58.17,23.57c13.2-12.65,14.07-34.94,0.66-47.8C43.29-5.42,5.35,9.71,5.3,39.08
			L5.3,39.08z"/>
	</g>
	<g>
		<g>
			<rect x="24.21" y="33.51" class="st1" width="31.21" height="20.07"/>
			<path class="st2" d="M55.45,53.61c-10.24,0.3-20.9,0.55-31.24,0.26l-0.31-0.01l0.01-0.29c0.19-6.69,0.18-13.38,0.02-20.07
				l-0.01-0.27l0.28-0.01c5.2-0.12,10.4-0.18,15.6-0.22c5.37-0.07,10.74-0.01,16.1,0C55.88,39.1,55.61,47.47,55.45,53.61
				L55.45,53.61z M55.38,53.54c-0.2-5.87-0.37-14.27-0.46-20.04l0.49,0.49c-5.2,0.02-10.4,0.06-15.6,0
				c-5.2-0.03-10.4-0.09-15.6-0.22l0.27-0.27c-0.15,6.69-0.16,13.38,0.02,20.07l-0.3-0.3C34.67,52.99,44.82,53.25,55.38,53.54
				L55.38,53.54z"/>
		</g>
		<g>
			<rect x="26.67" y="36.96" class="st0" width="8.47" height="4.08"/>
			<path class="st2" d="M35.14,36.96c-2.9,0.18-5.64,0.38-8.47,0.45l0.45-0.45c0.04,1.36,0.03,2.72,0.05,4.08l-0.5-0.5
				c2.83,0,5.65,0.07,8.47,0.21l-0.29,0.29C34.91,39.75,35.06,38.41,35.14,36.96L35.14,36.96z M35.14,36.96
				c0.09,1.33,0.25,2.86,0.3,4.35c-2.92,0.15-5.84,0.22-8.77,0.22h-0.51l0.01-0.5c0.01-1.51,0.01-3.02,0.06-4.53
				C29.19,36.54,32.26,36.75,35.14,36.96L35.14,36.96z"/>
		</g>
		<g>
			<rect x="44.66" y="36.96" class="st0" width="8.47" height="4.08"/>
			<path class="st2" d="M53.13,36.96c-2.9,0.18-5.64,0.38-8.47,0.45l0.45-0.45c0.04,1.36,0.03,2.72,0.05,4.08l-0.5-0.5
				c2.83,0,5.65,0.07,8.47,0.21l-0.29,0.29C52.9,39.75,53.05,38.41,53.13,36.96L53.13,36.96z M53.13,36.96
				c0.09,1.33,0.25,2.86,0.3,4.35c-2.92,0.15-5.84,0.22-8.77,0.22h-0.51l0.01-0.5c0.01-1.51,0.01-3.02,0.06-4.53
				C47.19,36.54,50.25,36.75,53.13,36.96L53.13,36.96z"/>
		</g>
		<g>
			<polygon class="st2" points="48.59,16.93 31.22,16.93 39.9,12.64 			"/>
			<path class="st2" d="M48.63,16.94c-2.58,0.09-5.87,0.3-8.46,0.33c-3.32-0.06-6.58-0.32-9.88-0.07l0.83-0.46
				c2.88-1.65,5.8-3.22,8.78-4.69C42.89,13.47,45.76,15.39,48.63,16.94L48.63,16.94z M48.54,16.92c-2.88-1.35-6.06-2.4-8.87-3.8
				h0.47c-2.9,1.43-5.84,2.75-8.82,4.01l-0.1-0.42c2.81,0.19,5.64-0.07,8.41-0.12C42.57,16.64,45.49,16.85,48.54,16.92L48.54,16.92z
				"/>
		</g>
		<g>
			<rect x="34.16" y="16.93" class="st1" width="11.49" height="9.66"/>
			<path class="st2" d="M34.12,16.9c3.92-0.29,7.95-0.55,11.91-0.31c-0.21,3.34-0.32,6.67-0.11,10.01l0.01,0.26l-0.28,0.02
				c-4,0.2-8,0.31-12.01,0.23C33.63,24.02,33.92,19.99,34.12,16.9L34.12,16.9z M34.19,16.97c0.19,2.79,0.45,6.89,0.48,9.63
				l-0.52-0.52c3.83-0.05,7.66,0.05,11.49,0.25l-0.27,0.27c0.2-3.22,0.12-6.44-0.1-9.66l0.37,0.37
				C41.82,17.51,38.04,17.21,34.19,16.97L34.19,16.97z"/>
		</g>
		<path class="st0" d="M42.98,23.41c0,0-1.13-1.22-1.13-3.09s-1.94-1.94-1.94-1.94s-1.94,0.07-1.94,1.94s-1.13,3.09-1.13,3.09h2.69
			c-0.21,0.31-0.43,0.68-0.43,0.92c0,0.45,0.36,0.81,0.81,0.81s0.81-0.36,0.81-0.81c0-0.23-0.22-0.61-0.43-0.92H42.98z"/>
		<g>
			<polygon class="st2" points="49.27,52.21 49.27,50.85 48.15,50.85 48.15,44.55 32.08,44.55 32.08,50.85 30.54,50.85 30.54,52.21 
				28.72,52.21 28.72,53.58 51.09,53.58 51.09,52.21 			"/>
			<path class="st2" d="M49.27,52.21l-0.05-1.36l0.05,0.05l-1.12,0.04c-0.13,0.01-0.08,0-0.09-0.09l-0.17-6.3l0.26,0.26
				c-4.74,0.11-11.4,0.19-16.07,0.2l0.46-0.46l0.04,6.3v0.5h-0.5h-1.54l0.49-0.49c0,0.35-0.01,1.52-0.01,1.85
				c-0.37,0-1.92-0.01-2.31-0.01l0.47-0.47l-0.01,1.36l-0.47-0.47c3.73,0.03,7.46,0.02,11.19,0.11c3.73,0.06,7.46,0.13,11.19,0.25
				l-0.11,0.11l0.04-1.36l0.07,0.07L49.27,52.21L49.27,52.21z M49.27,52.21l1.82-0.07h0.07v0.07l0.04,1.36v0.11
				c-3.77,0.13-7.53,0.19-11.3,0.25c-3.88,0.09-7.77,0.08-11.65,0.11c0-0.3-0.01-1.51-0.01-1.83v-0.47c0.27,0,1.99-0.01,2.3-0.01
				l-0.49,0.49c0-0.36-0.01-1.52-0.01-1.85h0.5h1.54l-0.5,0.5l0.04-6.3V44.1h0.46c4.76-0.01,11.52,0.12,16.34,0.2l-0.01,0.26
				l-0.17,6.3l-0.09-0.09l1.12,0.04h0.05v0.05L49.27,52.21L49.27,52.21z"/>
		</g>
		<g>
			<polygon class="st2" points="59.77,33.51 45.65,26.59 45.65,26.6 34.16,26.6 34.16,26.59 20.03,33.51 31.87,33.51 31.87,35.59 
				47.94,35.59 47.94,33.51 			"/>
			<path class="st2" d="M59.73,33.49c-4.85-2.29-9.54-4.21-14.27-6.51c0,0,0.63-0.4,0.62-0.39v0.43l-0.44,0.01
				c-3.83,0.05-7.66-0.05-11.49-0.16l-0.28-0.01l0.01-0.27c0-0.01,0.4,0.25,0.4,0.25c-1.19,0.55-2.39,1.08-3.57,1.65
				c-3.44,1.63-7.21,3.49-10.56,5.25l-0.12-0.5c3.94-0.1,7.89-0.19,11.83-0.21h0.47v0.48l0.02,2.08l-0.49-0.49
				c5.36-0.06,10.71-0.04,16.07,0.05l-0.44,0.44c0.02-0.31,0.03-2.24,0.04-2.5C51.6,33.13,55.59,33.46,59.73,33.49L59.73,33.49z
				 M59.82,33.52c-3.89,0.05-7.92,0.36-11.88,0.4l0.41-0.41c0.01,0.3,0.04,2.26,0.04,2.52c-5.51,0.1-11.01,0.12-16.52,0.06
				l-0.5-0.01v-0.49l0.02-2.08l0.47,0.47c-3.94-0.03-7.89-0.11-11.83-0.21l-1.15-0.03l1.03-0.47c4.83-2.2,9.81-4.65,14.51-7.12
				l0.01,0.45l-0.28-0.28c1.91-0.05,3.83-0.11,5.74-0.14c1.91-0.01,3.83-0.05,5.74-0.02l-0.43,0.43l0.01-0.7
				C50.12,28.29,55.06,31.07,59.82,33.52L59.82,33.52z"/>
		</g>
	</g>
	<g>
		<path d="M58.4,43.29V63.3h-1.57v-4.48h-1.57v-1.57H52.1v2.99h1.57v1.57H52.1v-1.57h-1.57v-4.57h4.73v1.57h1.57V43.27h1.57
			c0-1.57,0-1.57,0-1.57h3.19v1.57h1.57v6.12h3.16v1.57h-3.16v6.2h-1.57V43.27H58.4V43.29z M74.06,54.12h1.57v1.57h-1.57V54.12
			L74.06,54.12z M77.18,55.66v10.78h-1.57V55.66H77.18L77.18,55.66z M72.52,54.12v4.63h-1.57v-6.2h-3.09v4.63h-1.57v-6.2h4.66v1.57
			h3.09v1.57H72.52L72.52,54.12z M59.97,73.92h12.48v-2.93h1.57v-4.54h1.57v4.5h-1.57v4.5H58.4v-4.5h-1.57v-3.06h1.57v3.06h1.57
			V73.92L59.97,73.92z M55.27,61.84v3.03h1.57v3.06h-1.57v-3.06H53.7v-3.06h1.57V61.84z"/>
		<polygon class="st1" points="59.97,73.92 72.45,73.92 72.45,70.99 74.03,70.99 74.03,66.44 75.6,66.44 75.6,55.72 74.06,55.72 
			74.06,54.12 72.52,54.12 72.52,58.75 70.93,58.75 70.93,52.55 67.84,52.55 67.84,57.18 66.27,57.18 66.27,51.09 63.16,51.09 
			63.16,57.18 61.57,57.18 61.57,43.29 58.4,43.29 58.4,63.3 56.81,63.3 56.81,58.82 55.24,58.82 55.24,57.39 52.1,57.39 
			52.1,60.24 53.67,60.24 53.67,61.81 55.27,61.81 55.27,64.87 56.85,64.87 56.85,67.93 58.4,67.93 58.4,70.96 59.97,70.96 		"/>
	</g>
</g>
</svg>
