<?xml version="1.0" encoding="utf-8"?>
<!-- Generator: Adobe Illustrator 26.2.1, SVG Export Plug-In . SVG Version: 6.00 Build 0)  -->
<svg version="1.1" id="Capa_1" xmlns="http://www.w3.org/2000/svg" xmlns:xlink="http://www.w3.org/1999/xlink" x="0px" y="0px"
	 viewBox="0 0 80.6 83" style="enable-background:new 0 0 80.6 83;" xml:space="preserve">
<style type="text/css">
	.st0{fill:#3F67AE;}
	.st1{fill:#FFFFFF;}
	.st2{fill:#002F6C;}
	.st3{fill:#EAC81F;}
</style>
<g>
	<g>
		<circle class="st0" cx="39.9" cy="39.1" r="34.8"/>
		<path class="st1" d="M5,39.1C4.9,13.6,29.5-4.5,53.5,6.2C82,19.4,83.3,59.8,53.8,72.6C29.7,82.7,4.9,64.7,5,39.1L5,39.1z
			 M5.3,39.1c0.3,29.5,37.4,44,58.2,23.6C76.7,50,77.5,27.7,64.1,14.9C43.3-5.4,5.3,9.7,5.3,39.1L5.3,39.1z"/>
	</g>
	<g>
		<g>
			<rect x="24.2" y="33.5" class="st1" width="31.2" height="20.1"/>
			<path class="st2" d="M55.5,53.6c-10.2,0.3-20.9,0.5-31.2,0.3l-0.3,0l0-0.3c0.2-6.7,0.2-13.4,0-20.1l0-0.3l0.3,0
				c5.2-0.1,10.4-0.2,15.6-0.2c5.4-0.1,10.7,0,16.1,0C55.9,39.1,55.6,47.5,55.5,53.6L55.5,53.6z M55.4,53.5
				c-0.2-5.9-0.4-14.3-0.5-20l0.5,0.5c-5.2,0-10.4,0.1-15.6,0c-5.2,0-10.4-0.1-15.6-0.2l0.3-0.3c-0.1,6.7-0.2,13.4,0,20.1l-0.3-0.3
				C34.7,53,44.8,53.2,55.4,53.5L55.4,53.5z"/>
		</g>
		<g>
			<rect x="26.7" y="37" class="st0" width="8.5" height="4.1"/>
			<path class="st2" d="M35.1,37c-2.9,0.2-5.6,0.4-8.5,0.5l0.5-0.5c0,1.4,0,2.7,0,4.1l-0.5-0.5c2.8,0,5.7,0.1,8.5,0.2L34.8,41
				C34.9,39.8,35.1,38.4,35.1,37L35.1,37z M35.1,37c0.1,1.3,0.2,2.9,0.3,4.3c-2.9,0.2-5.8,0.2-8.8,0.2h-0.5l0-0.5c0-1.5,0-3,0.1-4.5
				C29.2,36.5,32.3,36.8,35.1,37L35.1,37z"/>
		</g>
		<g>
			<rect x="44.7" y="37" class="st0" width="8.5" height="4.1"/>
			<path class="st2" d="M53.1,37c-2.9,0.2-5.6,0.4-8.5,0.5l0.5-0.5c0,1.4,0,2.7,0,4.1l-0.5-0.5c2.8,0,5.7,0.1,8.5,0.2L52.8,41
				C52.9,39.8,53,38.4,53.1,37L53.1,37z M53.1,37c0.1,1.3,0.2,2.9,0.3,4.3c-2.9,0.2-5.8,0.2-8.8,0.2h-0.5l0-0.5c0-1.5,0-3,0.1-4.5
				C47.2,36.5,50.2,36.8,53.1,37L53.1,37z"/>
		</g>
		<g>
			<polygon class="st2" points="48.6,16.9 31.2,16.9 39.9,12.6 			"/>
			<path class="st2" d="M48.6,16.9c-2.6,0.1-5.9,0.3-8.5,0.3c-3.3-0.1-6.6-0.3-9.9-0.1l0.8-0.5c2.9-1.6,5.8-3.2,8.8-4.7
				C42.9,13.5,45.8,15.4,48.6,16.9L48.6,16.9z M48.5,16.9c-2.9-1.4-6.1-2.4-8.9-3.8h0.5c-2.9,1.4-5.8,2.8-8.8,4l-0.1-0.4
				c2.8,0.2,5.6-0.1,8.4-0.1C42.6,16.6,45.5,16.9,48.5,16.9L48.5,16.9z"/>
		</g>
		<g>
			<rect x="34.2" y="16.9" class="st1" width="11.5" height="9.7"/>
			<path class="st2" d="M34.1,16.9c3.9-0.3,8-0.5,11.9-0.3c-0.2,3.3-0.3,6.7-0.1,10l0,0.3l-0.3,0c-4,0.2-8,0.3-12,0.2
				C33.6,24,33.9,20,34.1,16.9L34.1,16.9z M34.2,17c0.2,2.8,0.5,6.9,0.5,9.6l-0.5-0.5c3.8,0,7.7,0,11.5,0.2l-0.3,0.3
				c0.2-3.2,0.1-6.4-0.1-9.7l0.4,0.4C41.8,17.5,38,17.2,34.2,17L34.2,17z"/>
		</g>
		<path class="st0" d="M43,23.4c0,0-1.1-1.2-1.1-3.1s-1.9-1.9-1.9-1.9S38,18.4,38,20.3s-1.1,3.1-1.1,3.1h2.7
			c-0.2,0.3-0.4,0.7-0.4,0.9c0,0.5,0.4,0.8,0.8,0.8s0.8-0.4,0.8-0.8c0-0.2-0.2-0.6-0.4-0.9H43z"/>
		<g>
			<polygon class="st2" points="49.3,52.2 49.3,50.8 48.2,50.8 48.2,44.5 32.1,44.5 32.1,50.8 30.5,50.8 30.5,52.2 28.7,52.2 
				28.7,53.6 51.1,53.6 51.1,52.2 			"/>
			<path class="st2" d="M49.3,52.2l0-1.4l0,0l-1.1,0c-0.1,0-0.1,0-0.1-0.1l-0.2-6.3l0.3,0.3C43.4,44.9,36.8,45,32.1,45l0.5-0.5
				l0,6.3v0.5h-0.5h-1.5l0.5-0.5c0,0.3,0,1.5,0,1.8c-0.4,0-1.9,0-2.3,0l0.5-0.5l0,1.4l-0.5-0.5c3.7,0,7.5,0,11.2,0.1
				c3.7,0.1,7.5,0.1,11.2,0.2L51,53.6l0-1.4l0.1,0.1L49.3,52.2L49.3,52.2z M49.3,52.2l1.8-0.1h0.1v0.1l0,1.4v0.1
				c-3.8,0.1-7.5,0.2-11.3,0.2C36,54,32.1,54,28.3,54c0-0.3,0-1.5,0-1.8v-0.5c0.3,0,2,0,2.3,0l-0.5,0.5c0-0.4,0-1.5,0-1.8h0.5h1.5
				l-0.5,0.5l0-6.3v-0.5h0.5c4.8,0,11.5,0.1,16.3,0.2l0,0.3l-0.2,6.3l-0.1-0.1l1.1,0h0v0L49.3,52.2L49.3,52.2z"/>
		</g>
		<g>
			<polygon class="st2" points="59.8,33.5 45.7,26.6 45.7,26.6 34.2,26.6 34.2,26.6 20,33.5 31.9,33.5 31.9,35.6 47.9,35.6 
				47.9,33.5 			"/>
			<path class="st2" d="M59.7,33.5c-4.8-2.3-9.5-4.2-14.3-6.5c0,0,0.6-0.4,0.6-0.4V27l-0.4,0c-3.8,0-7.7,0-11.5-0.2l-0.3,0l0-0.3
				c0,0,0.4,0.2,0.4,0.2c-1.2,0.5-2.4,1.1-3.6,1.6c-3.4,1.6-7.2,3.5-10.6,5.2L20,33.2c3.9-0.1,7.9-0.2,11.8-0.2h0.5v0.5l0,2.1
				l-0.5-0.5c5.4-0.1,10.7,0,16.1,0l-0.4,0.4c0-0.3,0-2.2,0-2.5C51.6,33.1,55.6,33.5,59.7,33.5L59.7,33.5z M59.8,33.5
				c-3.9,0-7.9,0.4-11.9,0.4l0.4-0.4c0,0.3,0,2.3,0,2.5c-5.5,0.1-11,0.1-16.5,0.1l-0.5,0v-0.5l0-2.1l0.5,0.5
				c-3.9,0-7.9-0.1-11.8-0.2l-1.1,0l1-0.5c4.8-2.2,9.8-4.6,14.5-7.1l0,0.5l-0.3-0.3c1.9,0,3.8-0.1,5.7-0.1c1.9,0,3.8,0,5.7,0
				l-0.4,0.4l0-0.7C50.1,28.3,55.1,31.1,59.8,33.5L59.8,33.5z"/>
		</g>
	</g>
	<g>
		<circle class="st3" cx="40.3" cy="65.8" r="14.2"/>
		<path class="st1" d="M26.1,65.8c-0.1-10.2,10.2-17.7,19.8-13.4C55,56.4,57.9,69,50.7,76.2C41.4,85.5,26,78.9,26.1,65.8L26.1,65.8z
			 M26.2,65.8C26.2,77.9,41.5,84,50,75.5c8.8-8.7,2.9-23.7-9.7-23.5C32.9,52,26,58.3,26.2,65.8L26.2,65.8z"/>
	</g>
</g>
<g>
	<path d="M44.5,66c0.3,0.5,0.4,1,0.4,1.6c0,0.9-0.2,1.6-0.6,2.3c-0.4,0.7-1,1.2-1.8,1.6c-0.8,0.4-1.8,0.6-2.8,0.6
		c-1.5,0-2.8-0.3-3.8-1c-1-0.6-1.5-1.6-1.5-2.9c0-0.4,0-0.8,0.1-1.2c0.1-0.3,0.2-0.6,0.4-0.8c0.2-0.2,0.5-0.3,0.8-0.3
		c0.3,0,0.6,0.1,0.7,0.2c0.1,0.2,0.2,0.4,0.2,0.6c0,0.1,0,0.3-0.1,0.5s0,0.4,0,0.5c0,1.8,1,2.6,3.1,2.6c1,0,1.8-0.2,2.4-0.7
		c0.7-0.5,1-1.2,1-2.1c0-0.6-0.2-1.1-0.6-1.4c-0.4-0.3-1.1-0.5-2-0.5c-0.5,0-0.7-0.2-0.7-0.6c0-0.3,0.1-0.6,0.2-0.8
		c0.2-0.2,0.4-0.3,0.7-0.3c0.9,0,1.7-0.2,2.2-0.6s0.8-1,0.8-1.8c0-0.5-0.2-0.9-0.5-1.3c-0.3-0.3-0.8-0.5-1.4-0.5
		c-0.7,0-1.3,0.2-1.9,0.7c-0.6,0.4-0.9,1-1,1.6c0,0.2,0,0.4,0,0.7c0,0.2-0.1,0.4-0.3,0.6c-0.2,0.2-0.5,0.2-0.8,0.2
		c-0.2,0-0.4,0-0.5-0.1c-0.1-0.1-0.3-0.2-0.3-0.4c0-0.1,0-0.2,0-0.3c0-0.1,0-0.2,0-0.3c0-0.8,0.2-1.5,0.7-2.2
		c0.4-0.7,1.1-1.2,1.8-1.6c0.8-0.4,1.6-0.6,2.5-0.6c0.7,0,1.4,0.1,2,0.4c0.6,0.3,1.1,0.6,1.5,1.1c0.4,0.5,0.5,1.1,0.5,1.7
		c0,0.8-0.2,1.4-0.6,2.1s-1,1.1-1.7,1.4C43.8,65.2,44.2,65.5,44.5,66z"/>
</g>
</svg>
