<?xml version="1.0" encoding="utf-8"?>
<!-- Generator: Adobe Illustrator 26.2.1, SVG Export Plug-In . SVG Version: 6.00 Build 0)  -->
<svg version="1.1" id="Capa_1" xmlns="http://www.w3.org/2000/svg" xmlns:xlink="http://www.w3.org/1999/xlink" x="0px" y="0px"
	 viewBox="0 0 500.64 546.27" style="enable-background:new 0 0 500.64 546.27;" xml:space="preserve">
<style type="text/css">
	.st0{fill:#C0D5E5;}
	.st1{fill:none;stroke:#6F95BC;stroke-miterlimit:10;}
	.st2{fill:#6F95BC;}
	.st3{fill:url(#SVGID_1_);}
	.st4{fill:#41455F;}
	.st5{fill:url(#SVGID_00000150082330687593037080000018334959439183941043_);}
	.st6{fill:url(#SVGID_00000027579438214873768720000009569809780622630330_);}
	.st7{fill:url(#SVGID_00000165229276863349733840000013711946285487763636_);}
	.st8{fill:url(#SVGID_00000026877772121598430840000002732757465596167600_);}
	.st9{fill:#575D6E;}
	.st10{fill:#FFFFF2;}
	.st11{fill:url(#SVGID_00000032647541069506690430000014939039625971338401_);}
	.st12{fill:url(#SVGID_00000138532944314806871080000004295742911320490404_);}
	.st13{fill:url(#SVGID_00000180325615430828521690000011024798888659884421_);}
	.st14{fill:#EA8BC2;}
	.st15{fill:url(#SVGID_00000069361185304707140660000013102575622990588339_);}
	.st16{fill:url(#SVGID_00000105397311303427054040000017070501421291357079_);}
	.st17{fill:#006837;}
	.st18{fill:url(#SVGID_00000065769071962021138920000007085655459651677872_);}
	.st19{fill:url(#SVGID_00000148650668979833163630000010892063370655143329_);}
	.st20{fill:url(#SVGID_00000168110529816590441780000009067000970301320356_);}
	.st21{fill:url(#SVGID_00000145775029194605442760000008313311071606339465_);}
	.st22{fill:url(#SVGID_00000146475634185497796760000017218930589842007959_);}
	.st23{opacity:0.5;fill:url(#SVGID_00000104672107450396414630000015226971425647021464_);enable-background:new    ;}
	.st24{opacity:0.5;fill:url(#SVGID_00000090296032100357349560000006688336747741893266_);enable-background:new    ;}
	.st25{fill:#1B1464;}
	.st26{fill:url(#SVGID_00000026154062814815550830000016810177608656838784_);}
	.st27{fill:#700A20;}
	.st28{fill:none;stroke:#1B1464;stroke-miterlimit:10;}
	.st29{fill:url(#SVGID_00000168075441728818449980000008572608697684030898_);}
	.st30{fill:url(#SVGID_00000140001364277899798980000018332081157108939917_);}
	.st31{fill:url(#SVGID_00000152985063820991655590000015427583656990311864_);}
	.st32{fill:url(#SVGID_00000029035119287819777960000007207929487495536809_);}
	.st33{fill:url(#SVGID_00000096047531375044206140000007553717074556763058_);}
	.st34{fill:url(#SVGID_00000030481433623904794680000013395781594949756307_);}
	.st35{fill:#840F20;}
</style>
<path d="M156.65,87.33c0.05,0.63,0.1,1.25,0.16,1.86c-0.57,0.43-1.28,1.14-1.8,2.54c-1.02,2.72,1.41,3.09,2.71,3.92
	c0.09,0.48,0.2,0.95,0.3,1.42c-0.96,0.57-3.23,0.83-2.25,2.67c0.33,0.63,0.88,1.09,1.5,1.42c-0.02,0.08-0.05,0.16-0.07,0.24
	c-0.43,1.8,1.17,2.38,2.76,2.73c0.4,1.15,0.83,2.25,1.29,3.32c-0.19,0.44-0.35,0.98-0.45,1.65c-0.35,2.46,1.4,2.69,2.81,3.04
	c0.34,0.58,0.71,1.14,1.07,1.7c-0.92,0.71-2.67,1.45-1.42,2.92c0.87,1.01,2.35,1.3,3.59,1.29c-0.18,0.69,0.22,1.79,2.05,1.9
	c2.3,0.15,0.79,1.88,0.48,2.4c-0.2,0.33,0.96-0.1,1.85-0.96c0.07,0.06,0.14,0.13,0.22,0.2c-0.3,0.61-0.19,1.61,1.26,2.35
	c2.05,1.05-0.02,2.04-0.52,2.39c-0.49,0.35,2.78,0.33,3.65-1.41c0.01-0.01,0.01-0.02,0.01-0.03c0.81,0.52,1.64,1.01,2.48,1.47
	c-0.19,0.12-0.35,0.23-0.44,0.31c-0.52,0.49-0.48,2.2,1.82,2.34c2.3,0.15,0.79,1.88,0.48,2.4c-0.31,0.52,2.68-0.81,2.79-2.75
	c0-0.03,0-0.06,0-0.09c1.36,0.56,2.77,1.06,4.21,1.51c-0.28,0.62-0.15,1.6,1.27,2.33c2.05,1.05-0.02,2.04-0.52,2.39
	c-0.49,0.35,2.78,0.33,3.65-1.41c0.03-0.06,0.05-0.12,0.07-0.18c0.02,0.17,0.07,0.35,0.17,0.57c1.14,2.3,5.44,2.36,4.8,1.89
	c-0.64-0.46-3.37-1.79-0.66-3.16c0.16-0.08,0.31-0.17,0.45-0.26c6.52,1.08,13.64,1.44,21.21,1.27c16.07-0.36,31.11-2.79,41.98-11.58
	c1.44,1,3.29,1.27,2.91,0.87c-0.36-0.38-1.5-1.27-1.48-2.09c0.4-0.36,0.79-0.72,1.18-1.1c0.08-0.03,0.16-0.06,0.25-0.09
	c1.99-0.57,2.45-1.76,2.29-2.63c0.79-0.94,1.56-1.93,2.28-2.97c0.88,1.12-1.1,2.1-1.65,2.48c-0.66,0.47,3.71,0.44,4.88-1.89
	c0.84-1.68-1.14-1.9-2.07-2.38c0.37-0.6,0.74-1.23,1.09-1.86c1.09-0.56,2.21-1.22,1.54-3.05c0.44-0.95,0.85-1.93,1.24-2.95
	c1.03-0.25,2.11-0.76,2.65-1.71c0.75-1.32-0.38-1.78-1.33-2.19c0.21-0.69,0.4-1.39,0.59-2.11c1.13-0.51,2.3-1.13,1.64-3.07
	c-0.19-0.55-0.41-0.98-0.64-1.33c0.21-1.08,0.4-2.19,0.57-3.33c1.37-0.6,2.69-1.4,1.99-2.95c-0.37-0.82-0.9-1.33-1.44-1.69
	c0.08-0.82,0.14-1.65,0.2-2.49c0.47-0.34,0.88-0.78,1.1-1.32c0.46-1.09-0.17-1.53-0.93-1.81c0.03-0.85,0.06-1.73,0.07-2.61
	c0.92-0.6,1.67-1.38,0.88-3.01c-0.29-0.6-0.6-1.04-0.92-1.39c-0.04-0.98-0.1-1.97-0.18-2.97c1.42-0.8,3.08-1.81,2.1-3.43
	c-0.77-1.27-1.87-1.64-2.71-1.94c-0.17-1.15-0.37-2.3-0.58-3.46c0.27-0.4,0.46-0.84,0.52-1.32c0.13-1.03-0.41-1.35-1.09-1.45
	c-0.21-0.96-0.44-1.92-0.69-2.88c0.56-0.75,0.83-1.63-0.22-2.82c-0.26-0.29-0.51-0.52-0.75-0.72c-0.35-1.19-0.72-2.37-1.12-3.55
	c1.03-1.08,1.96-2.33,0.71-3.49c-0.8-0.74-1.63-0.97-2.37-1.06c-0.2-0.52-0.41-1.03-0.61-1.54c0.43-0.6,0.74-1.3,0.71-2.05
	c-0.06-1.37-1.12-1.22-2.05-1.08c-0.26-0.59-0.53-1.17-0.81-1.75c0.67-1.02,1.48-2.15-0.12-3.44c-0.85-0.68-1.58-0.94-2.16-1.04
	c-0.3-0.55-0.6-1.09-0.9-1.62c0.9-1.32,2.49-3.17,0.77-4.3c-1.5-0.99-2.86-0.48-3.73-0.5c-0.4-0.6-0.81-1.2-1.23-1.78
	c-0.22-0.86-0.45-1.55-1.17-1.6c-0.16-0.22-0.33-0.44-0.5-0.65c0.16-0.65,0.19-1.33-0.06-1.96c-0.44-1.1-1.21-0.88-1.95-0.52
	c-0.51-0.6-1.03-1.18-1.55-1.74c0.23-1.03,0.28-2.09-1.37-2.68c-0.64-0.23-1.18-0.31-1.63-0.32c-0.65-0.6-1.32-1.17-1.99-1.72
	c0.42-1.49,0.94-3.34-0.83-3.78c-1.62-0.4-2.69,0.36-3.5,0.69c-0.6-0.37-1.21-0.7-1.82-1.03c-0.57-0.85-1.03-1.59-1.85-1.28
	c-0.84,0.31-1.17-1.01-2.9-0.73c-5.26-1.68-10.83-1.67-16.56,0.59c-12.32-5.74-26.5-2.52-38.56,7.17c-0.11-0.2-0.23-0.41-0.38-0.64
	c0,0-6.79,2.04-6.31,6.94c-0.9,0.98-1.79,2.01-2.65,3.07c-0.4-0.29-0.67-0.51-0.67-0.51s-3.08-0.04-2.27,4.4
	c-0.81,1.15-1.59,2.34-2.35,3.56c-0.31-0.15-0.58-0.29-0.76-0.34c-0.96-0.29-2.95,0.93-1.68,3.73c-0.68,0.55-1.63,1.42-2.36,2.52
	c-0.07,0-0.13-0.01-0.18-0.01c-0.17,0-0.15,0.11,0.01,0.28c-0.76,1.27-1.18,2.8-0.55,4.43c-0.5,1.15-0.97,2.33-1.42,3.53
	c-0.52-0.18-0.91-0.35-0.91-0.35s-2.97,0.81-0.69,4.97c-0.08,0.27-0.17,0.53-0.25,0.8c-1.29,0.99-0.91,2.01-1.24,2.58
	c-0.3-0.06-0.56-0.1-0.72-0.11c-0.96-0.01-2.5,1.66-0.43,3.94c0.23,0.26,0.39,0.49,0.51,0.7c-0.69,0.59-2.44,0.67-3.42,2.53
	c-0.89,1.7,0.91,2.59,2.38,3.31c-0.17,1.1-0.32,2.22-0.45,3.35c-0.17,0.27-0.33,0.58-0.48,0.95c-0.43,1.06-0.26,1.73,0.16,2.22
	c-0.25,3-0.37,6.08-0.34,9.22c0,0.07,0,0.13,0.01,0.2c-0.9,0.47-2.36,0.86-3.2,2.58C152.09,85.64,154.99,86.52,156.65,87.33z
	 M189.88,130.87c1.13,0.3,2.28,0.58,3.46,0.83c-0.64,0.23-1.37,0.48-1.61,1.01c-0.2-0.96-2.37-0.85-1.97-1.66
	C189.8,130.98,189.84,130.92,189.88,130.87z M180.39,127.42c0.17,0.08,0.34,0.15,0.51,0.23
	C180.65,127.64,180.46,127.59,180.39,127.42z"/>
<g>
	<g>
		<ellipse class="st0" cx="456.78" cy="347.5" rx="19.42" ry="19.42"/>
		<ellipse class="st0" cx="39.65" cy="235.67" rx="12.55" ry="12.55"/>
		
			<ellipse transform="matrix(0.9924 -0.1233 0.1233 0.9924 -19.8434 49.5528)" class="st0" cx="390.45" cy="185.1" rx="38.92" ry="38.92"/>
		<path class="st0" d="M63.64,542.5h354.69c15.98-10.66,38.7-22.93,47.21-47.79c20.15-58.86-27.3-79.8-53.14-108.97
			c-25.84-29.17,27.63-41.25,20.48-104.06c-3.68-32.31-46.86-61.84-91.02-46.31s-50.57-2.95-71.04-40.62
			c-23.8-43.79-125.45-67.54-184.37,11.16c-58.93,78.69-2.08,138.32-8.75,166.46c-6.66,28.14-54.15,42.65-57.53,96.81
			C18.2,500.56,29.8,528.65,63.64,542.5z"/>
	</g>
	<g>
		<g>
			<path class="st1" d="M107.4,539.88c6.88-4.91,7.56-36.03-20.65-42.33c-14.41-3.22-12.1-10.43-15.01-19.7
				c-2.91-9.28-6.56-9.96-14.81-11.22s-2.05-12.5-11.84-19.01s-22.93-7.01-27.82,7.22c-4.14,12.04,7.59,17.35,9.99,22.95
				c2.39,5.6-4.57,13.16,3.92,21.61c8.49,8.45,17.58,2.09,17.69,11.03c0.11,8.94,4.09,25.24,12.71,28.6
				C72.25,543.18,101.97,543.76,107.4,539.88z"/>
			<g>
				<g>
					<path class="st2" d="M98.87,542.37c-3.76-4.48-7.66-8.85-11.43-13.33c-9.37-11.14-18.53-22.46-27.47-33.95
						c-6.64-8.53-13.16-17.15-19.54-25.88c-0.56-0.77-1.87-0.02-1.3,0.76c10.6,14.49,21.57,28.7,32.84,42.66
						c7.14,8.84,14.41,17.59,21.83,26.2c1.32,1.53,2.69,3.04,3.99,4.59C98.43,544.17,99.49,543.1,98.87,542.37L98.87,542.37z"/>
				</g>
			</g>
		</g>
		<g>
			<path class="st1" d="M76.8,489.71c0.75-6.14,1.72-12.15,2.27-17.74c2.25-22.73-35.84-16.27-48.32-45.44s29.57-28.42,10.46-48.28
				c-18.08-18.78-18.04-53.24,1.9-63.11c27.73-13.72,52.57,9.5,55.9,32.03c2.57,17.38-9.08,29.51,21.24,42.25
				s25.64,28.56,19.41,58.81c-6.23,30.26,14.26,19.16,30.19,44.7c12.62,20.24-5.12,40.88-13.02,48.58l-61.38,1.05"/>
			<g>
				<g>
					<g>
						<path class="st2" d="M145.73,540.69c-0.67-1.54-1.33-3.07-2-4.6c-1.82-4.2-3.65-8.4-5.48-12.59
							c-2.74-6.3-5.49-12.59-8.24-18.88c-3.44-7.87-6.89-15.73-10.35-23.59c-3.87-8.8-7.75-17.6-11.63-26.39
							c-4.09-9.24-8.19-18.48-12.31-27.71c-4.03-9.03-8.08-18.06-12.15-27.07c-3.77-8.33-7.55-16.66-11.38-24.97
							c-3.22-7-6.47-13.98-9.79-20.93c-2.46-5.16-4.94-10.3-7.56-15.38c-0.46-0.9-0.93-1.8-1.41-2.69c-0.46-0.85-1.75-0.09-1.3,0.76
							c2.42,4.52,4.67,9.13,6.9,13.74c3.16,6.54,6.24,13.13,9.3,19.72c3.71,8,7.37,16.02,11.01,24.05
							c4.05,8.92,8.07,17.86,12.07,26.8c4.11,9.2,8.21,18.4,12.29,27.61c3.98,8.98,7.95,17.97,11.91,26.96
							c3.57,8.12,7.14,16.24,10.69,24.36c2.96,6.75,5.91,13.51,8.86,20.27c2.08,4.76,4.15,9.52,6.22,14.29
							c0.97,2.23,1.84,4.54,2.92,6.72c0.05,0.09,0.08,0.19,0.12,0.29C144.82,542.33,146.11,541.57,145.73,540.69L145.73,540.69z"/>
					</g>
				</g>
				<g>
					<g>
						<g>
							<path class="st2" d="M88.4,412.1c-11.99-0.66-23.98-1.33-35.98-1.99c-1.72-0.1-3.45-0.19-5.17-0.29
								c-0.96-0.05-0.96,1.45,0,1.5c11.99,0.66,23.98,1.33,35.98,1.99c1.72,0.1,3.45,0.19,5.17,0.29
								C89.37,413.65,89.36,412.15,88.4,412.1L88.4,412.1z"/>
						</g>
					</g>
					<g>
						<g>
							<path class="st2" d="M129.95,505.82c-9.48-1.07-18.97-2.13-28.45-3.2c-1.33-0.15-2.67-0.3-4-0.45c-0.96-0.11-0.95,1.39,0,1.5
								c9.48,1.07,18.97,2.13,28.45,3.2c1.33,0.15,2.67,0.3,4,0.45C130.91,507.43,130.9,505.93,129.95,505.82L129.95,505.82z"/>
						</g>
					</g>
				</g>
				<g>
					<g>
						<path class="st2" d="M132.4,403.72c-2.73,6.13-5.46,12.26-8.19,18.38c-4.33,9.72-8.66,19.45-12.99,29.17
							c-1,2.24-2,4.48-2.99,6.72c-0.39,0.87,0.9,1.64,1.3,0.76c2.73-6.13,5.46-12.26,8.19-18.38c4.33-9.72,8.66-19.45,12.99-29.17
							c1-2.24,2-4.48,2.99-6.72C134.09,403.6,132.79,402.84,132.4,403.72L132.4,403.72z"/>
					</g>
				</g>
			</g>
			<path class="st1" d="M74.43,342.19c2.01,2.96,5.52,4.08,7.83,2.51c2.31-1.57,2.55-5.24,0.54-8.2c-2.01-2.96-5.52-4.08-7.83-2.51
				C72.66,335.56,72.42,339.23,74.43,342.19z"/>
			<path class="st1" d="M72.96,358.17c0,1.56,1.27,2.83,2.83,2.83c1.56,0,2.83-1.27,2.83-2.83s-1.27-2.83-2.83-2.83
				C74.22,355.34,72.96,356.61,72.96,358.17z"/>
		</g>
		<g>
			<path class="st1" d="M403.13,521.71c1.33-2.96-7.36-15.94,2.9-20.77C416.3,496.1,417.1,484,417.1,484
				c0.5-4.62,0.81-9.19,1.36-13.38c2.22-17.03,29.01-5.82,43.12-25.05c14.1-19.24-16.82-25.84,0.56-37.14
				c16.43-10.68,22.27-35.92,9.35-46.54c-17.97-14.77-40.12-1.99-46.39,13.94c-4.84,12.29,1.63,23.16-22.75,27.33
				c-24.37,4.17-23.64,16.55-24.22,39.77c-0.59,23.22-13.71,11.61-29.72,27.6c-12.69,12.67-3.21,30.81,1.27,37.79
				c0,0,2.45,6.69-3.09,13.4s-17.05,7.51-13.41,21.36"/>
			<g>
				<g>
					<g>
						<path class="st2" d="M353.27,542.88c2.98-4.86,5.98-9.71,8.98-14.56c7.37-11.93,14.78-23.84,22.22-35.73
							c9.35-14.95,18.76-29.86,28.25-44.72c9.06-14.17,18.18-28.3,27.54-42.27c6.26-9.34,12.46-18.87,19.58-27.6
							c0.49-0.6,0.98-1.19,1.49-1.76c0.63-0.72-0.42-1.79-1.06-1.06c-2.73,3.11-5.17,6.47-7.6,9.82
							c-3.65,5.04-7.17,10.17-10.65,15.32c-9.18,13.56-18.09,27.31-26.93,41.09c-9.64,15.03-19.18,30.12-28.67,45.25
							c-7.82,12.47-15.6,24.96-23.34,37.47c-2.48,4.01-4.96,8.02-7.44,12.04c-1.16,1.89-2.46,3.75-3.51,5.71
							c-0.04,0.08-0.1,0.16-0.15,0.24C351.47,542.95,352.76,543.7,353.27,542.88L353.27,542.88z"/>
					</g>
				</g>
				<g>
					<g>
						<g>
							<path class="st2" d="M421,435.76c8.91,1.56,17.82,3.11,26.73,4.67c1.27,0.22,2.53,0.44,3.8,0.66
								c0.94,0.17,1.35-1.28,0.4-1.45c-8.91-1.56-17.82-3.11-26.73-4.67c-1.27-0.22-2.53-0.44-3.8-0.66
								C420.46,434.15,420.05,435.6,421,435.76L421,435.76z"/>
						</g>
					</g>
					<g>
						<g>
							<path class="st2" d="M384.73,491.33c7.12,0.83,14.24,1.66,21.36,2.5c1.01,0.12,2.02,0.24,3.03,0.35
								c0.96,0.11,0.95-1.39,0-1.5c-7.12-0.83-14.24-1.66-21.36-2.5c-1.01-0.12-2.02-0.24-3.03-0.35
								C383.78,489.72,383.78,491.22,384.73,491.33L384.73,491.33z"/>
						</g>
					</g>
				</g>
				<g>
					<g>
						<path class="st2" d="M391.39,422.03c0.95,4.94,1.91,9.89,2.86,14.83c1.52,7.88,3.04,15.75,4.56,23.63
							c0.35,1.8,0.7,3.6,1.04,5.4c0.18,0.95,1.63,0.55,1.45-0.4c-0.95-4.94-1.91-9.89-2.86-14.83c-1.52-7.88-3.04-15.75-4.56-23.63
							c-0.35-1.8-0.7-3.6-1.04-5.4C392.65,420.69,391.2,421.09,391.39,422.03L391.39,422.03z"/>
					</g>
				</g>
			</g>
			<path class="st1" d="M443.93,376.37c-1.98,1.82-4.73,2.05-6.16,0.5c-1.42-1.54-0.98-4.27,1-6.1c1.98-1.82,4.73-2.05,6.16-0.5
				C446.36,371.81,445.91,374.54,443.93,376.37z"/>
			<path class="st1" d="M442.29,388.32c-0.27,1.14-1.41,1.86-2.55,1.59c-1.14-0.27-1.86-1.41-1.59-2.55
				c0.27-1.14,1.41-1.86,2.55-1.59C441.85,386.04,442.56,387.18,442.29,388.32z"/>
		</g>
		<g>
			<g>
				<path class="st1" d="M448.84,541.73c0.83-5.14,0.25-10.7,0.34-15.49c0.21-10.35,15.91-3.59,24.17-15.8
					c8.27-12.21-7-19.11,1.22-23.57c8.22-4.46,12.29-21.14,2.33-27.71c-12.32-8.13-27.45-0.16-30.55,9.71
					c-2.39,7.61,2.94,13.88-13.62,17.46s-15.08,11.01-13.67,25.01c1.41,14.01-9,2.5-18.84,12.84c-5.58,5.86-2.02,13.9,1.19,18.9"/>
			</g>
			<g>
				<g>
					<g>
						<path class="st2" d="M417.87,543.46c6.93-10.08,13.88-20.14,20.88-30.17c7.84-11.25,15.71-22.49,23.79-33.56
							c2.95-4.04,5.89-8.1,9.08-11.96c0.61-0.74-0.45-1.81-1.06-1.06c-6.73,8.15-12.74,16.94-18.85,25.54
							c-8.26,11.64-16.41,23.35-24.53,35.09c-3.54,5.12-7.07,10.24-10.6,15.37C416.02,543.5,417.32,544.25,417.87,543.46
							L417.87,543.46z"/>
					</g>
				</g>
				<g>
					<g>
						<g>
							<path class="st2" d="M447.9,499.82c6.28,0.55,12.57,1.09,18.85,1.64c0.9,0.08,1.81,0.16,2.71,0.24c0.96,0.08,0.96-1.42,0-1.5
								c-6.28-0.55-12.57-1.09-18.85-1.64c-0.9-0.08-1.81-0.16-2.71-0.24C446.94,498.24,446.95,499.74,447.9,499.82L447.9,499.82z"
								/>
						</g>
					</g>
				</g>
				<g>
					<g>
						<path class="st2" d="M424.46,492.2c2.72,7.61,5.44,15.21,8.15,22.82c0.38,1.07,0.77,2.15,1.15,3.22
							c0.32,0.9,1.77,0.51,1.45-0.4c-2.72-7.61-5.44-15.21-8.15-22.82c-0.38-1.07-0.77-2.15-1.15-3.22
							C425.58,490.9,424.13,491.29,424.46,492.2L424.46,492.2z"/>
					</g>
				</g>
			</g>
			<path class="st1" d="M459.46,468.36c-1.23,1.18-3.12,1.44-4.23,0.57c-1.11-0.87-1.01-2.53,0.22-3.72
				c1.23-1.18,3.12-1.44,4.23-0.57C460.78,465.51,460.68,467.18,459.46,468.36z"/>
			<path class="st1" d="M465.52,509.8c-0.18,1.36-1.61,2.29-3.2,2.08c-1.58-0.21-2.71-1.49-2.53-2.85c0.18-1.36,1.61-2.29,3.2-2.08
				S465.71,508.44,465.52,509.8z"/>
		</g>
	</g>
</g>
<radialGradient id="SVGID_1_" cx="4370.6001" cy="-2310.0142" r="11.2053" gradientTransform="matrix(-1 0 0 -1 4629.7002 -1810.5044)" gradientUnits="userSpaceOnUse">
	<stop  offset="0" style="stop-color:#9C493C"/>
	<stop  offset="0.9823" style="stop-color:#CC6633"/>
</radialGradient>
<path class="st3" d="M267.03,485.79h-15.37c0.54,7.97-0.49,21.06-0.49,21.06s3.63,5.93,5.13,6.36c1.5,0.43,10.68-6.36,10.68-6.36
	C266.22,501.2,266.46,493.29,267.03,485.79z"/>
<path class="st4" d="M292.41,344.98c-0.86-32.89-4.94-70.25-4.94-70.25l-21.93-10.08l-18.48,12.51l-5.61,3.8
	c0,0,1.84,21.27,0.17,33.18c-1.22,8.68,4.31,45.81,7.15,67.24c0,0,0,0,0,0.02c1.05,7.97,1.72,13.75,1.56,15.1
	c-0.63,4.97-7.85,19.7-8.64,31.88s5.7,36.34,5.7,36.34l0,0c0.78,3.03,3.13,12.43,4.02,18.47c0.11,0.77,0.35,6.07,0.42,7.01
	l14.93,0.06c0.88-11.49,2.82-26.52,2.82-26.52l-0.01,0.01l0.01-0.01c0,0,3.37-32.64,7.22-41.6c3.84-8.98,8-14.75,9.93-19.7
	c0.17-0.42,0.34-0.95,0.54-1.57c0.07-0.25,0.15-0.47,0.22-0.71c0.22-0.78,0.46-1.66,0.71-2.67c0.03-0.1,0.03-0.19,0.05-0.22v-0.02
	C290.35,388.48,293.07,370.84,292.41,344.98z"/>
<g>
	
		<radialGradient id="SVGID_00000081633111793023111990000006570435023643948218_" cx="217.27" cy="47.235" r="6.9726" gradientTransform="matrix(1 0 0 -1 0 546)" gradientUnits="userSpaceOnUse">
		<stop  offset="0" style="stop-color:#9C493C"/>
		<stop  offset="0.9823" style="stop-color:#CC6633"/>
	</radialGradient>
	<path style="fill:url(#SVGID_00000081633111793023111990000006570435023643948218_);" d="M225.55,504.12l-13.88-2.97
		c0,0-0.65,2.94-2.68-7.74h16.38C225.32,500.3,225.21,497.34,225.55,504.12z"/>
	
		<radialGradient id="SVGID_00000145750778666625013940000006705970781797136050_" cx="203.8528" cy="84.6637" r="0.0412" gradientTransform="matrix(1 0 0 -1 0 546)" gradientUnits="userSpaceOnUse">
		<stop  offset="0" style="stop-color:#9C493C"/>
		<stop  offset="0.9823" style="stop-color:#CC6633"/>
	</radialGradient>
	<path style="fill:url(#SVGID_00000145750778666625013940000006705970781797136050_);" d="M203.91,461.36
		c-0.05-0.02-0.09-0.04-0.11-0.04c0.01,0,0.03,0.01,0.05,0.01C203.86,461.35,203.89,461.36,203.91,461.36z"/>
	
		<radialGradient id="SVGID_00000145745183995786634790000014764808929858383523_" cx="204.1018" cy="83.48" r="0.9016" gradientTransform="matrix(1 0 0 -1 0 546)" gradientUnits="userSpaceOnUse">
		<stop  offset="0" style="stop-color:#9C493C"/>
		<stop  offset="0.9823" style="stop-color:#CC6633"/>
	</radialGradient>
	<path style="fill:url(#SVGID_00000145745183995786634790000014764808929858383523_);" d="M204.45,463.75
		c-0.23-0.82-0.45-1.63-0.69-2.46c0,0,0,0,0.01,0v0.01L204.45,463.75z"/>
</g>
<path class="st4" d="M232.82,401.16c-7.92,8.77-15.18,5.11-18.17-0.96c-2.85-5.8-6.82-25.66-7.2-27.49
	c1.53,11.27,2.54,20.12,2.18,23.51c-1.29,11.67-9.41,22.89-11.5,35.38c-2.12,12.5,5.63,29.69,5.63,29.69s0,0,0.01,0.01
	c-0.01,0-0.01,0-0.01,0l0.68,2.45c1.83,6.67,3.44,23.95,4.54,29.66c0,0,7.52,1.14,11.62,0.72c4.1-0.42,4.76-0.72,4.76-0.72
	c0.05-10.48,0.18-29.66,0.18-29.66s7.32-47.37,10.51-56.35c3.22-8.95,10-17.42,12.69-25.98
	C248.26,382.08,240.47,392.67,232.82,401.16z M203.8,461.31c0.01,0,0.03,0.01,0.05,0.01c0.01,0.02,0.03,0.03,0.05,0.03
	C203.85,461.34,203.82,461.31,203.8,461.31z"/>
<g>
	
		<linearGradient id="SVGID_00000067194385214690007320000011276159115058449832_" gradientUnits="userSpaceOnUse" x1="5442.7275" y1="-1120.2377" x2="5451.2651" y2="-1037.7104" gradientTransform="matrix(-0.0744 -0.9972 0.9972 -0.0744 1816.7667 5648.1396)">
		<stop  offset="5.586590e-03" style="stop-color:#9C0A00"/>
		<stop  offset="1" style="stop-color:#D10F20"/>
	</linearGradient>
	<polygon style="fill:url(#SVGID_00000067194385214690007320000011276159115058449832_);" points="309.79,324.44 372.62,317.24 
		373.43,314.32 359.58,265.14 297.47,282.59 296.88,284.68 	"/>
	<polygon class="st9" points="359.7,265.13 358.66,268.07 372.62,317.24 373.43,314.32 	"/>
	<polygon class="st10" points="371.87,315.42 372.42,312.99 359.86,265.12 373.81,313.56 372.63,317.18 313.06,324.19 	"/>
</g>
<radialGradient id="SVGID_00000150795619695460986450000005183622666928520354_" cx="230.9371" cy="384.4834" r="60.3418" gradientTransform="matrix(1 0 0 -1 0 546)" gradientUnits="userSpaceOnUse">
	<stop  offset="0" style="stop-color:#9C493C"/>
	<stop  offset="0.9823" style="stop-color:#CC6633"/>
</radialGradient>
<path style="fill:url(#SVGID_00000150795619695460986450000005183622666928520354_);" d="M206.32,104.51c0,0,4.06,14.25,5.23,21.3
	c0,0,5.98,10.79,11.54,16.02c5.55,5.23,26.49,15.81,26.49,15.81s-1.71-16.34-6.62-22.43c0,0-3.81-1.96-8.61-6.13
	c-4.81-4.17-6.39-19.1-6.39-19.1S208.99,105.54,206.32,104.51z"/>
<radialGradient id="SVGID_00000158721447462694513310000014510711853184938660_" cx="323.414" cy="264.2635" r="60.3933" gradientTransform="matrix(1 0 0 -1 0 546)" gradientUnits="userSpaceOnUse">
	<stop  offset="0" style="stop-color:#9C493C"/>
	<stop  offset="0.9823" style="stop-color:#CC6633"/>
</radialGradient>
<path style="fill:url(#SVGID_00000158721447462694513310000014510711853184938660_);" d="M265.54,222.36c0,0,0.81,4.18,7.22,13.46
	c6.41,9.3,27.48,25.32,29.15,30.44c1.67,5.12-1.61,16.1-1.05,17.62c0.57,1.52,5.07,2.44,7.56,6.51c2.49,4.09,2.38,12.72,3.67,12.4
	c1.27-0.32,3.37-5.21,2.79-8.96c-0.51-3.48-1.98-3.75-2.64-5.83c0,0,0-0.02-0.02-0.03c-0.05-0.17-0.1-0.36-0.14-0.54
	c-0.57-2.66,0.47-8.57,0.88-8.98c0.39-0.41,1.91,0,1.91,0l18.75-5.77c0,0-13.93-7.85-20.19-13.93
	c-6.24-6.09-24.18-47.91-24.18-47.91C282.54,211.64,265.54,222.36,265.54,222.36z"/>
<radialGradient id="SVGID_00000087380849942059963230000005430475391038161292_" cx="150.0198" cy="240.4837" r="90.0075" gradientTransform="matrix(1 0 0 -1 0 546)" gradientUnits="userSpaceOnUse">
	<stop  offset="0" style="stop-color:#9C493C"/>
	<stop  offset="0.9823" style="stop-color:#CC6633"/>
</radialGradient>
<path style="fill:url(#SVGID_00000087380849942059963230000005430475391038161292_);" d="M126.83,280.45v0.03
	c0.07,4.16,2.54,12.46,4.4,12.9c2.01,0.49,3.69,2.33,4.41,2.66c0.73,0.32,1.98,0.98,3.26,2.03c1.27,1.03,3.28,1.12,4.63,1.35
	c1.37,0.24,3.92,2.08,3.92,2.08c2.64,0.12,5.8-2.08,7.24-3.2c0.49-0.39,4.86-5.99,1.57-7.79c4.55,1.14,4.83-4.38,4.83-4.38
	s0.27-0.73,0.64-1.83c0.9-2.55,2.35-7.05,2.23-8.74c-0.15-2.42-4.65-12.35-4.65-12.35s3.69-12.82,11.23-22.42
	c7.53-9.62,13.29-17.3,13.29-17.3c-11.38-17.94-23.24-19.23-23.24-19.23s-3.2,7.05-4.48,15.22c-1.29,8.17-4.48,30.44-8.54,38.02
	c-4.06,7.59-20.41,18.37-20.73,22.12C126.83,279.87,126.82,280.16,126.83,280.45z"/>
<path class="st14" d="M291.03,214.89c0,0-10.01,16.08-12.64,27.48l-7.03-8.15L270.27,217l18.98-6.17L291.03,214.89z"/>
<linearGradient id="SVGID_00000026131517303118404460000013495452814616863902_" gradientUnits="userSpaceOnUse" x1="305.8981" y1="263.7023" x2="230.1301" y2="446.6169" gradientTransform="matrix(1 0 0 -1 0 546)">
	<stop  offset="0" style="stop-color:#39B54A"/>
	<stop  offset="1" style="stop-color:#009245"/>
</linearGradient>
<path style="fill:url(#SVGID_00000026131517303118404460000013495452814616863902_);" d="M271.69,150.59
	c3.47,1.92,11.96,38.93,13.4,41.01s3.2,4.83,3.68,5.95c0.48,1.12,1.29,5.66,1.29,7.85s2.25,3.51,2.41,4.31s-1.92,4.07-1.92,4.07
	l-1.28-2.95c0,0-15.83,6.57-20.81,11.86s-13.8-13.46-13.8-13.46L271.69,150.59z"/>
<path class="st4" d="M293.48,270.21c0,0-12.38,19.44-19.92,24.57c-7.53,5.13-72.46-35.89-72.46-35.89l41.85-2.08l22.59-2.57
	L293.48,270.21z"/>
<path class="st4" d="M203.85,461.33c0.01,0.02,0.03,0.03,0.05,0.03c-0.05-0.02-0.09-0.04-0.11-0.04
	C203.81,461.31,203.83,461.33,203.85,461.33z"/>
<path class="st4" d="M257.5,347.57c0,0-0.03,0.17-0.1,0.51c-3.16,15.81-7.17,28.59-8.64,33.31c0,0,0,0,0,0.02l-0.02,0.01
	c-0.49,0.66-8.28,11.25-15.92,19.74c-7.92,8.77-15.18,5.11-18.17-0.96c-2.85-5.8-6.82-25.66-7.2-27.49c0-0.03-0.01-0.05-0.01-0.08
	s-0.01-0.03-0.01-0.05c0-0.01,0-0.01,0-0.01c-3.81-27.5-10.85-69.13-9.02-80.01c2.58-15.37,9.01-34.8,9.01-34.8
	s26.73,7.33,39.63,19.42c7.77,7.31,14.12,16.88,14.5,28.8C261.98,320.04,260.03,334.76,257.5,347.57z"/>
<linearGradient id="SVGID_00000055687757420659711510000017255959762224642432_" gradientUnits="userSpaceOnUse" x1="153.4612" y1="132.5866" x2="254.3991" y2="359.6969" gradientTransform="matrix(1 0 0 -1 0 546)">
	<stop  offset="0" style="stop-color:#39B54A"/>
	<stop  offset="1" style="stop-color:#009245"/>
</linearGradient>
<path style="fill:url(#SVGID_00000055687757420659711510000017255959762224642432_);" d="M242.96,135.21c0,0,13.14,8.44,18.05,10.47
	s10.68,4.91,10.68,4.91s-1.17,10.89-0.69,13.46c0.48,2.56,10.52,10.25,12.87,13.88s-1.31,38.34,6.02,59.82
	c0,0,6.44,32.01,10.92,45.47c0,0-8.34,11.44-26.55,6.65l-8.7-25.21c0,0,0.08,22.44-2.91,30.13c0,0-26.37,1.54-40.04-4.86
	s-28.93-3.18-28.93-3.18s3.14-38.22,7.98-49.11l0.32-4.85l1.29-4.1c0,0,2.09-5.68,1.73-24.11c0,0-1.06,4.8-5.4,4.45
	c0,0-0.1,1.37-0.21,2.54s-3.91,3.37-4.02,4.23c-0.11,0.85-1.25,2.12-1.68,3.19s-6.69,7.86-7.44,7.97s-4.31-0.94-4.31-0.94l1.91-2.53
	c0,0-8.49-14.58-23.23-19.23l-1.02,2.51c0,0-0.89-4.41-1.21-5.48c-0.32-1.07,3.63-3.39,4.16-3.82c0.53-0.43,1.82-3.52,2.67-3.52
	c0.85,0,3.79-0.79,3.79-1.51c0-0.73,0.7-3.19,1.66-3.72s2.48-2.14,3.93-6.15c1.44-4.01,6.38-18.36,10.23-27.5
	c3.85-9.13,14.02-15.38,16.3-17.62c2.28-2.24,9.7-15.49,9.7-15.49l0.76,3.85c0,0,9.93,14.21,20.83,19.97s15.7,6.89,15.7,6.89
	S247.92,143.22,242.96,135.21z"/>
<polygon class="st17" points="263.48,156.57 252.24,152.72 255.88,139.15 259.3,139.69 "/>
<path class="st17" d="M232.88,127.44c0,0,6.24,2.92,7.41,3.64c1.17,0.71,4.72,11.68,4.72,11.68s-1.23-4.27-5.32-6.66
	C235.88,133.88,234.56,130.04,232.88,127.44z"/>
<linearGradient id="SVGID_00000159459927375199623890000014120528109713980560_" gradientUnits="userSpaceOnUse" x1="307.7053" y1="264.4508" x2="231.9374" y2="447.3654" gradientTransform="matrix(1 0 0 -1 0 546)">
	<stop  offset="0" style="stop-color:#39B54A"/>
	<stop  offset="1" style="stop-color:#009245"/>
</linearGradient>
<path style="fill:url(#SVGID_00000159459927375199623890000014120528109713980560_);" d="M250.97,159.4c0,0,2.56-13.46,8.49-18.9
	l4.02,16.08l-3.22-17.42c0,0-15.54-9.39-18.42-10.19s-10.6-4.17-10.6-4.17s1.13,2.07,1.8,2.84c0.67,0.77,4.24,1.89,6.8,3.81
	s6.49,13.94,8.25,21.23L250.97,159.4z"/>
<path class="st4" d="M271.17,504.12c0,0,2.64-7.39-0.19-11.27c-3.02-4.15-8.49-2.83-10.57,0c-1.65,2.25,1.19,11.27,1.19,11.27
	l-5.81-3.26c-3.48,0.12-6.3,2.87-6.53,6.34c-0.15,2.35-0.33,4.73-0.52,5.84c-0.43,2.56-3.76,17.89-3.76,19.17
	c0,0,41.65,3.31,72.42,3.31c0,0-4.91-12.48-27.36-14.56C287.6,515.68,274.83,504.89,271.17,504.12z"/>
<path class="st4" d="M225.38,500.06l0.41,0.84c0.89,1.81,1.33,3.79,1.27,5.8c-0.07,2.44-0.06,6.23,0.3,10.66
	c0.64,7.8,0.85,15.59,0.85,15.59s-6.09,5.18-8.65,4.65c-2.56-0.53-20.29-14.26-29.27-2.83c0,0,0.89-10.12,10.48-11.42
	c-0.73-4.96,6.13-18.02,8.47-19.23c0-3.04,0.21-9.42,5.02-9.95c3.35-0.37,6.39,2.04,5.61,5.37c2.44-2.03,4.01,1.25,4.47,1.87
	C225.85,503.43,225.38,500.06,225.38,500.06z"/>
<linearGradient id="SVGID_00000070799021039045515830000004244350141949276579_" gradientUnits="userSpaceOnUse" x1="4311.7603" y1="-2346.3145" x2="4385.8408" y2="-2346.3145" gradientTransform="matrix(-1 0 0 -1 4629.7002 -1810.5044)">
	<stop  offset="0" style="stop-color:#FFC4BA"/>
	<stop  offset="1" style="stop-color:#FFE7E5"/>
</linearGradient>
<path style="fill:url(#SVGID_00000070799021039045515830000004244350141949276579_);" d="M314.71,531.23c0,0,3.23,3.12,3.23,5.67
	c0,1.13-0.11,2.37-0.22,3.41c-0.15,1.31-1.11,3.6-2.43,3.61h-68.83c-1.46,0-2.63-1.2-2.6-2.66c0.07-3.96,0.37-11.2,1.59-13.56
	c0,0,1.91,2.64,4.35,3.19c1.9,0.42,12.66,0.53,17.26,0.55c1.32,0.01,2.55,0.63,3.33,1.69l0.34,0.46c0,0,9.56,0.93,26.42,1.09
	S314.71,531.23,314.71,531.23z"/>
<linearGradient id="SVGID_00000161607679314748354370000006670216256371905186_" gradientUnits="userSpaceOnUse" x1="4399.98" y1="-2346.5698" x2="4441.5303" y2="-2346.5698" gradientTransform="matrix(-1 0 0 -1 4629.7002 -1810.5044)">
	<stop  offset="0" style="stop-color:#FFC4BA"/>
	<stop  offset="1" style="stop-color:#FFE7E5"/>
</linearGradient>
<path style="fill:url(#SVGID_00000161607679314748354370000006670216256371905186_);" d="M228.22,532.96l1.5,10.04h-41.55
	c0,0,0.98-7.69,2.14-8.96s7.26-5.35,13.46-4.87c6.19,0.48,12.76,5.29,17.09,5.77C225.18,535.41,228.22,532.96,228.22,532.96z"/>
<linearGradient id="SVGID_00000170976854924505702390000006380751422949293444_" gradientUnits="userSpaceOnUse" x1="4308.9502" y1="-2088.9443" x2="4308.9502" y2="-2084.0222" gradientTransform="matrix(-1 0 0 -1 4629.7002 -1810.5044)">
	<stop  offset="0" style="stop-color:#933B23"/>
	<stop  offset="0.9784" style="stop-color:#8B2A24"/>
</linearGradient>
<path style="fill:url(#SVGID_00000170976854924505702390000006380751422949293444_);" d="M312.97,278.44c0,0,3.6-3.36,7.69-4.49
	c4.09-1.12,7.87,0.29,7.87,0.29l-13.63,4.19L312.97,278.44L312.97,278.44z"/>
<linearGradient id="SVGID_00000012466147224549282490000010213456497898382747_" gradientUnits="userSpaceOnUse" x1="206.71" y1="113.5932" x2="229.22" y2="113.5932">
	<stop  offset="0" style="stop-color:#600E19"/>
	<stop  offset="0.984" style="stop-color:#741B17"/>
</linearGradient>
<path style="fill:url(#SVGID_00000012466147224549282490000010213456497898382747_);" d="M229.22,117.43c0,0-10.35,9.2-19.68-0.82
	l-2.83-10.71c0,0,10.26,4.08,21.34,4.7L229.22,117.43z"/>
<linearGradient id="SVGID_00000071517421655581818340000006624977810882743688_" gradientUnits="userSpaceOnUse" x1="4457.0801" y1="-2037.4644" x2="4457.0801" y2="-2015.0859" gradientTransform="matrix(-1 0 0 -1 4629.7002 -1810.5044)">
	<stop  offset="0" style="stop-color:#FFFFFF"/>
	<stop  offset="1" style="stop-color:#885286"/>
</linearGradient>
<path style="opacity:0.5;fill:url(#SVGID_00000071517421655581818340000006624977810882743688_);enable-background:new    ;" d="
	M169.81,208.79c11.21,7.8,16.43,18.17,16.43,18.17l-4.31-0.94c0,0-2.66-5.25-6.98-9.74c-4.33-4.49-15.95-7.9-15.95-7.9l0.41-1.95
	C159.41,206.42,158.61,200.99,169.81,208.79z"/>
<linearGradient id="SVGID_00000178892702886518245340000005687988373844321207_" gradientUnits="userSpaceOnUse" x1="203.845" y1="84.642" x2="203.845" y2="84.6854" gradientTransform="matrix(1 0 0 -1 0 546)">
	<stop  offset="0" style="stop-color:#9F3D59"/>
	<stop  offset="1" style="stop-color:#FFFFFF"/>
</linearGradient>
<path style="opacity:0.5;fill:url(#SVGID_00000178892702886518245340000005687988373844321207_);enable-background:new    ;" d="
	M203.85,461.33c0.01,0.02,0.03,0.03,0.05,0.03c-0.05-0.02-0.09-0.04-0.11-0.04C203.81,461.31,203.83,461.33,203.85,461.33z"/>
<path class="st14" d="M203.77,461.29c0,0,0,0,0.01,0.01c-0.01,0-0.01,0-0.01,0V461.29z"/>
<path class="st14" d="M203.85,461.33c0.01,0.02,0.03,0.03,0.05,0.03c-0.05-0.02-0.09-0.04-0.11-0.04
	C203.81,461.31,203.83,461.33,203.85,461.33z"/>
<path class="st25" d="M317.92,537.35c0,0-5.89,0.92-15.04,1.32c-9.16,0.4-58.73-2.61-58.73-2.61l-0.27,2.32
	c0,0,50.5,3.43,59.06,2.73s15.03-1.23,15.03-1.23L317.92,537.35z"/>
<path class="st25" d="M229.22,539.69c0,0-14.78-0.71-23.54-1.05c-8.76-0.34-16.91,0.52-16.91,0.52l-0.35,2.05
	c0,0,31.04-0.78,34.14-0.57c3.1,0.21,6.66-0.21,6.66-0.21L229.22,539.69L229.22,539.69z"/>
<path class="st14" d="M300.87,283.88c0.57,1.52,5.07,2.44,7.56,6.51c2.49,4.09,2.38,12.72,3.67,12.4c1.27-0.32,3.37-5.21,2.79-8.96
	c-0.51-3.48-1.98-3.75-2.64-5.83c0,0,0-0.02-0.02-0.03c-0.2-0.29-1.93-2.67-4.13-4.08C305.75,282.39,300.87,283.88,300.87,283.88z"
	/>
<path class="st17" d="M212.03,147.33l2.99,17.36c0,0,17.73-14.19,32.07-8.82l-1.04-1.13L222,142.1L212.03,147.33z"/>
<linearGradient id="SVGID_00000039124665975139178890000001785601470001058463_" gradientUnits="userSpaceOnUse" x1="283.2257" y1="254.3108" x2="207.4578" y2="437.2254" gradientTransform="matrix(1 0 0 -1 0 546)">
	<stop  offset="0" style="stop-color:#39B54A"/>
	<stop  offset="1" style="stop-color:#009245"/>
</linearGradient>
<path style="fill:url(#SVGID_00000039124665975139178890000001785601470001058463_);" d="M210.71,121.54c0,0-7.37,11.75-11.75,19.65
	c0,0,3.19,16.13,16.07,23.5c0,0,5.51-20.19,7.19-21.15c1.68-0.96,10.41,4.73,16.82,7.85c6.41,3.12,11.34,6.62,11.34,6.62l-2.29-5.34
	c0,0-14.34-6.63-23.87-13.52C214.68,132.26,210.71,121.54,210.71,121.54z"/>
<g>
	<path class="st17" d="M250.97,159.4c3.41,3.12,6.6,6.46,9.69,9.91c3.13,3.82,6.8,7.69,8.01,12.62c0.43,4.36,0.28,8.73,0.28,13.09
		c-0.34,23.06-1.45,46.1-3.41,69.09c0.01-21.28,0.95-47.75,1.52-69.12c0.09-4.27,0.27-8.57,0.04-12.83
		c-1.05-4.55-4.42-8.49-7.19-12.23C257.09,166.3,254.05,162.83,250.97,159.4L250.97,159.4z"/>
</g>
<g>
	<path class="st17" d="M187.32,150.54c6.61,2.45,12.19,7.06,16.68,12.41c4.47,5.43,6.72,12.62,6.67,19.61h-0.1
		c-1.45-7.99-3.88-16.22-9.44-22.32C197.08,156.38,191.68,153.79,187.32,150.54L187.32,150.54z"/>
</g>
<g>
	<path class="st17" d="M270.92,163.43c-0.51-4.28-0.51-8.71,0.77-12.84C271.79,154.9,271.78,159.18,270.92,163.43L270.92,163.43z"/>
</g>
<g>
	<path class="st27" d="M132.96,287.48c0.89,2.46,1.01,4.8,1.63,7.32C132.73,292.96,132.45,289.93,132.96,287.48L132.96,287.48z"/>
</g>
<g>
	<path class="st27" d="M137.9,287.48c0.97,3.32,0.94,6.84,1.76,10.17C137.55,294.89,137.49,290.8,137.9,287.48L137.9,287.48z"/>
</g>
<g>
	<path class="st27" d="M143.51,287.88c1.04,3.78,1.13,7.59,1.76,11.43C143.31,295.91,143.17,291.71,143.51,287.88L143.51,287.88z"/>
</g>
<g>
	<path class="st27" d="M153.68,286.74c0.02,1.13-0.57,2.38-1.8,2.69l0.3-0.69c1.43,2.34,1.72,5.46,0.18,7.81
		c0.48-2.44,0.19-5.05-0.96-7.34l-0.29-0.61l0.6-0.07C152.6,288.42,153.21,287.52,153.68,286.74L153.68,286.74z"/>
</g>
<path class="st28" d="M262.32,505.08c0,0,14.93,8.75,18.87,16.78c0,0,1.66-3.32,8.85-0.89"/>
<path class="st28" d="M218.91,500.92c0,0-2.19,1.06-2.28,3.66c0,0-6.3,6.12-7.38,17.28c0,0-3.92-2-8.47,1.49"/>
<g>
	<path class="st17" d="M171.2,189.28c2.36-1.03,4.63,0.37,6.65,1.49c2.81,1.09,5.24,3.13,6.59,5.84c0.02,0.05-0.03,0.1-0.08,0.06
		c-0.56-0.38-1.06-0.8-1.55-1.23c-2.05-1.53-3.67-3.69-5.99-4.83c-1.86-0.54-3.66-0.91-5.61-1.23
		C171.17,189.38,171.14,189.3,171.2,189.28L171.2,189.28z"/>
</g>
<g>
	<path class="st17" d="M166.03,194.47c2.77-0.05,5.37,1,7.71,2.38c4.17,1.71,8.4,3.95,10.69,8.03c0.03,0.05-0.03,0.1-0.08,0.06
		c-3.49-2.77-6.74-5.84-10.75-7.8c-2.56-0.83-5.08-1.52-7.6-2.57C165.97,194.55,165.98,194.47,166.03,194.47L166.03,194.47z"/>
</g>
<g>
	<path class="st17" d="M198.92,211.16c-1.13-0.96-1.75-2.13-2.35-3.41c-1.52-1.76-3.53-2.99-4.57-5.19
		c-0.02-0.04,0.02-0.09,0.07-0.07c0.89,0.4,1.64,0.98,2.32,1.63c1.04,0.97,1.57,2.33,2.44,3.43c1.08,0.94,2.03,2.04,2.18,3.56
		C199.01,211.16,198.95,211.19,198.92,211.16L198.92,211.16z"/>
</g>
<g>
	
		<radialGradient id="SVGID_00000077290083604043858380000017755700229518377097_" cx="1500.1771" cy="1264.5963" r="69.9203" gradientTransform="matrix(0.9546 0.2978 0.2978 -0.9546 -1610.902 873.0399)" gradientUnits="userSpaceOnUse">
		<stop  offset="0" style="stop-color:#9C493C"/>
		<stop  offset="0.9823" style="stop-color:#CC6633"/>
	</radialGradient>
	<path style="fill:url(#SVGID_00000077290083604043858380000017755700229518377097_);" d="M235.77,38.68
		c0,0,10.22,10.78,17.27,14.81c2.04,9.63-0.02,25.79,0.94,30.2c0.97,4.48,1.69,8.76-1.13,14.36c-4.22,8.4-8.69,9.68-14.08,14.93
		c-3.09,3.01-6.89,6.02-12.87,4.5c-5.31-1.35-20.02-7.61-28.05-17.2c-8.04-9.58-7.13-28.45-8.17-40.74
		c5.68-2.37,36.95-9.79,45.08-20.85C235.15,38.18,235.23,38.5,235.77,38.68z"/>
	<g>
		
			<linearGradient id="SVGID_00000120555335057903073450000013670588824514425787_" gradientUnits="userSpaceOnUse" x1="1816.9862" y1="717.1906" x2="1816.9862" y2="728.4691" gradientTransform="matrix(0.9933 0.1414 0.1573 -1.1051 -1702.0713 606.3715)">
			<stop  offset="0" style="stop-color:#600E19"/>
			<stop  offset="0.984" style="stop-color:#741B17"/>
		</linearGradient>
		<path style="fill:url(#SVGID_00000120555335057903073450000013670588824514425787_);" d="M227.41,59.8c0,0-0.95,2.31-2.45,4.21
			c1.11-2,1.78-4.47,1.78-4.47c-5.53,2.32-14.37-0.46-16.28,1.04c-2.57,2.03-5.05,8.64-5.05,8.64s2.86-2.19,5.73-2.96
			s12.73-0.67,12.73-0.67C223.93,65.52,227.35,63.97,227.41,59.8z"/>
		
			<linearGradient id="SVGID_00000014609389767325247230000007349014074593175974_" gradientUnits="userSpaceOnUse" x1="-4020.9607" y1="309.2211" x2="-4020.9607" y2="316.7267" gradientTransform="matrix(-0.9984 0.0568 -0.0568 -0.9984 -3748.8413 604.8384)">
			<stop  offset="0" style="stop-color:#600E19"/>
			<stop  offset="0.984" style="stop-color:#741B17"/>
		</linearGradient>
		<path style="fill:url(#SVGID_00000014609389767325247230000007349014074593175974_);" d="M240.38,60.58c0,0,0.73,2.13,2.05,3.94
			c-0.92-1.86-1.36-4.12-1.36-4.12c5.37,1.83,10.65-0.6,13.06,1.43c2.37,1.99,0.91,6.57-1.6,5.09c-3.22-1.9-9.14-0.91-9.14-0.91
			C243.32,65.93,240.06,64.3,240.38,60.58z"/>
		<path d="M213.3,72.14c-1.31,2.88,1.88,5.39,4.42,3.34c0.16-0.13,0.3-0.3,0.4-0.49c1.48-2.9-1.64-5.49-4.2-3.62
			C213.65,71.57,213.44,71.84,213.3,72.14z"/>
		<path d="M242.67,74.19c-1.31,2.88,1.88,5.39,4.42,3.34c0.16-0.13,0.3-0.3,0.4-0.49c1.48-2.9-1.64-5.49-4.2-3.62
			C243.02,73.62,242.81,73.89,242.67,74.19z"/>
		
			<radialGradient id="SVGID_00000074439497665731018470000000172178929918537365_" cx="2268.4661" cy="267.847" r="85.7433" gradientTransform="matrix(0.9974 -0.0719 -0.0719 -0.9974 -2011.3762 485.9471)" gradientUnits="userSpaceOnUse">
			<stop  offset="0" style="stop-color:#9C493C"/>
			<stop  offset="0.9823" style="stop-color:#CC6633"/>
		</radialGradient>
		<path style="fill:url(#SVGID_00000074439497665731018470000000172178929918537365_);" d="M193.51,74.53c0,0-9.61-6.13-17.19-2.33
			c0,0-1.58,5.57-0.93,8.68c0.64,3.1,7.43,9.86,12,10.68c4.57,0.83,9.59-2.37,9.85-4.7C197.49,84.54,193.51,74.53,193.51,74.53z"/>
		<g>
			
				<linearGradient id="SVGID_00000065033120432106298660000003875102042024390841_" gradientUnits="userSpaceOnUse" x1="179.3118" y1="467.562" x2="190.9649" y2="468.402" gradientTransform="matrix(1 0 0 -1 0 546)">
				<stop  offset="0" style="stop-color:#600E19"/>
				<stop  offset="0.984" style="stop-color:#741B17"/>
			</linearGradient>
			<path style="fill:url(#SVGID_00000065033120432106298660000003875102042024390841_);" d="M180.09,80.96
				c-0.49-1.13-0.66-2.52,0.03-3.77c0.37-0.59,0.96-1.08,1.61-1.3c0.32-0.12,0.65-0.24,0.98-0.25c0.33-0.02,0.67-0.1,0.99-0.08
				c0.64,0.05,1.3,0.07,1.9,0.25c0.62,0.14,1.23,0.28,1.81,0.53c1.19,0.39,2.28,1,3.34,1.63c-1.22-0.24-2.38-0.64-3.56-0.88
				l-0.88-0.21l-0.88-0.14c-0.58-0.14-1.16-0.14-1.74-0.18c-1.13-0.01-2.27,0.22-2.92,1.06C180.14,78.48,180,79.74,180.09,80.96z"/>
		</g>
		<g>
			
				<linearGradient id="SVGID_00000043454715596873393380000007328170204904207760_" gradientUnits="userSpaceOnUse" x1="234.3205" y1="460.0955" x2="240.977" y2="459.952" gradientTransform="matrix(1 0 0 -1 0 546)">
				<stop  offset="0" style="stop-color:#600E19"/>
				<stop  offset="0.984" style="stop-color:#741B17"/>
			</linearGradient>
			<path style="fill:url(#SVGID_00000043454715596873393380000007328170204904207760_);" d="M235.47,79.15
				c1.76,1.81,3.07,3.8,4.3,5.85c0.74,1.13,1.24,2.55,1.06,4.03c-0.1,0.73-0.37,1.51-0.89,2.08c-0.5,0.58-1.14,0.95-1.79,1.17
				l-0.04,0.02c-0.84,0.18-1.69,0.34-2.57,0.41c0.69-0.55,1.42-1.01,2.16-1.45l-0.04,0.02c0.88-0.67,1.32-1.46,1.31-2.39
				c-0.01-0.94-0.33-1.93-0.86-2.84C237.02,83.85,236.02,81.6,235.47,79.15z"/>
		</g>
		<g>
			<g>
				<path class="st35" d="M241.91,101.11c-1.39,2.21-4.18,5.05-6.99,3.24c-0.11-0.05-0.36-0.2-0.47-0.24
					c0.07,0.07,0.34,0.04,0.39,0.01c0.12-0.08-0.02,0.04-0.11,0.15c-0.35,0.46-1.11,0.76-1.66,0.65c-0.98-0.17-1.65-0.34-2.55-0.77
					l0.81,0.01c-5.06,2.9-10.6-0.64-14.76-3.59l0.64-0.64c0.93,0.9,1.92,1.75,2.92,2.57c2.11,1.65,4.25,3.82,6.82,4.51
					c0.8,0.07,1.74-0.03,2.49-0.15c0.55-0.1,0.94-0.32,1.76-0.6c1.15-0.37,2.54-0.12,3.48,0.58c0.49,0.38,0.83,0.41,1.36,0.21
					c2.67-0.93,4.44-3.47,5.67-6.05c0.04-0.12,0.23-0.05,0.19,0.07c-1.03,3.14-3.12,6.6-6.63,7.33c-0.8,0.07-1.41-0.4-2.05-0.5
					c-1.28-0.19-1.93,0.64-3.29,0.98c-0.92,0.25-1.78,0.29-2.68,0.29c-2.08-0.07-3.83-1.63-5.29-2.8c-2.07-1.73-3.77-3.77-5.43-5.83
					c-0.19-0.19-0.19-0.51,0.03-0.69c0.19-0.15,0.45-0.13,0.61,0.04c2.5,2.67,6.37,4.23,10.02,3.73c1.13-0.19,2.33-0.59,3.4-1.05
					c0.25-0.11,0.53-0.08,0.76,0.04c0.52,0.28,1.35,0.68,1.92,0.86c0.15,0.03,0.2,0.02,0.29-0.01c0.27-0.14,0.52-0.61,1.04-0.62
					c0.81,0.07,1.37,1,2.14,1.06c1.89,0.19,3.7-1.61,4.98-2.93C241.82,100.9,241.98,101.01,241.91,101.11L241.91,101.11z"/>
			</g>
			<g>
				<path class="st27" d="M216.89,100.25c1.52,0.27,2.99,0.61,4.41,0.7c2.16,0.22,4.04-0.63,5.91-1.6c0.79-0.37,1.26-0.71,2.18-1.06
					c2.07-0.41,3.57,0.48,5.03,1.73l-1.28,0.04c0.88-1.12,2.92-1.63,4.01-0.49c0.75,0.82,1.32,1.42,2.5,1.52
					c0.69,0.08,1.43,0.03,2.18-0.05c-0.67,0.33-1.39,0.6-2.17,0.71c-0.77,0.11-1.69,0-2.43-0.48c-0.58-0.32-0.95-0.87-1.55-0.86
					c-0.45,0.01-0.92,0.31-1.22,0.72c-0.31,0.44-0.93,0.43-1.28,0.04c-0.8-0.69-2.46-1.36-3.22-1.06c-0.1,0.02-0.52,0.26-0.83,0.44
					C224.77,103.27,221.06,103.32,216.89,100.25L216.89,100.25z"/>
			</g>
		</g>
		<path d="M204.11,51.18c0,0,0.04,6.47-5.73,7.29C192.6,59.29,198.9,62,198.9,62s1.53,2.91-3.6,3.99c-5.13,1.08-1.14,3.04-0.48,3.74
			s0.48,2.97-2.6,3s-1.2,2.46-0.82,3.17c0.38,0.71-3.52-1.27-3.52-3.88s3.6-0.26,3.61-1.71s-3.19-2.99-0.76-5.14
			c2.43-2.15,4.06-0.74,3.73-2.01s-3.91-3.91-1.64-5.56s4.38,0.12,4.86-1.36s0.36-3.09,1.6-3.12
			C200.54,53.07,199.82,50.65,204.11,51.18z"/>
		<path d="M200.81,54.89c4.44,3,6.39,1.61,6.48-0.38c-0.29-1.59-0.31-3.2,0.56-4.69c1.54-2.62,3.77,1.87,4.64,0.42
			s-1.43-4.89,2.28-5.61c3.72-0.72,4.51,1.66,4.93,0.19c0.42-1.46-1.61-6.24,1.65-6.55c3.26-0.31,5.1,4.52,6.46,3.32
			s1.41-4.7,2.68-3.99c1.27,0.7,0.94-3.76,4.94-0.69c0,0-1.99,9.94-8.27,7.34c-6.28-2.59-2.95,0.95-3,2.39s0.49,3.48-5.3,1.53
			c-5.79-1.95-2.95,2.37-2.69,3.47c0.25,1.09-1.27,3.26-4.38,1.46c-2.1-1.21-3.11,0.68-3.25,1.84c-0.13,1.16-0.08,0.64-0.08,0.64
			C208.01,62.5,198.01,53,200.81,54.89z"/>
		<path d="M193.63,58.56c0,0,2.85,5.7-1.89,8.94c-4.75,3.24,2.01,2.89,2.01,2.89s2.62,1.9-1.44,5.09c-4.06,3.19,0.32,3.18,1.21,3.51
			s1.72,2.41-0.99,3.78c-2.71,1.37,0.01,2.69,0.66,3.16c0.64,0.46-3.66,0.41-4.8-1.89s3.07-1.8,2.45-3.09
			c-0.62-1.29-4.12-1.25-2.91-4.21c1.21-2.96,3.26-2.42,2.42-3.4c-0.84-0.97-5.16-1.75-3.87-4.2s3.92-1.8,3.7-3.32
			s-1.03-2.88,0.06-3.46C191.3,61.79,189.61,59.96,193.63,58.56z"/>
		<path d="M238.26,40.18c0,0,1.08,6.38,6.91,6.18s0.09,3.57,0.09,3.57s-1,3.13,4.24,3.3s1.65,2.8,1.12,3.6s0.04,3,3.08,2.5
			c3.04-0.51,1.61,2.21,1.36,2.98s3.24-1.86,2.79-4.43c-0.45-2.57-3.59,0.37-3.85-1.06s2.62-3.5-0.15-5.19s-4.12-0.03-4.02-1.33
			c0.1-1.3,3.18-4.53,0.65-5.76c-2.53-1.23-4.29,0.88-5.02-0.5s-0.89-2.98-2.12-2.8C242.1,41.43,242.4,38.92,238.26,40.18z"/>
		<path d="M172.7,58.98c0,0-2.73,5.86,2.18,9.02c4.91,3.15-1.95,2.99-1.95,2.99s-2.6,2.01,1.61,5.13c4.21,3.12-0.23,3.24-1.12,3.6
			s-1.67,2.5,1.12,3.81s0.06,2.73-0.58,3.22s3.73,0.31,4.82-2.06c1.09-2.37-3.17-1.74-2.57-3.06c0.6-1.32,4.15-1.39,2.83-4.36
			s-3.38-2.37-2.55-3.38s5.19-1.92,3.81-4.37c-1.38-2.45-4.03-1.72-3.85-3.26c0.18-1.55,0.96-2.95-0.16-3.51
			C175.15,62.18,176.82,60.29,172.7,58.98z"/>
	</g>
</g>
</svg>
