<?xml version="1.0" encoding="utf-8"?>
<!-- Generator: Adobe Illustrator 26.1.0, SVG Export Plug-In . SVG Version: 6.00 Build 0)  -->
<svg version="1.1" id="Capa_1" xmlns="http://www.w3.org/2000/svg" xmlns:xlink="http://www.w3.org/1999/xlink" x="0px" y="0px"
	 viewBox="0 0 314.24 103.69" style="enable-background:new 0 0 314.24 103.69;" xml:space="preserve">
<style type="text/css">
	.st0{fill:#002F6C;}
	.st1{fill:#3CB037;}
	.st2{font-family:'SourceSansPro-SemiBold';}
	.st3{font-size:15.52px;}
</style>
<g>
	<path class="st0" d="M94.42,63.03l-7.71-15.39C86.52,29.44,71.6,14.82,53.39,15.02c-0.5,0.01-0.99,0.02-1.49,0.06
		C34.55,16.22,20.99,30.5,20.72,47.89c0,11.63,6.08,22.42,16.04,28.42c1.61,0.97,2.47,2.83,2.17,4.69l-0.91,6.07
		c-0.12,0.86,0.46,1.66,1.32,1.78c0.08,0.01,0.16,0.02,0.24,0.02h26.71c0.87,0,1.58-0.71,1.58-1.58v-0.5
		c0.01-2.44,1.88-4.48,4.31-4.7l7.33-0.62c4.06-0.35,7.18-3.74,7.2-7.82v-8.36H93c0.87,0,1.58-0.7,1.59-1.57
		C94.59,63.49,94.53,63.25,94.42,63.03z M34.85,46.63c9.98,0.75,17.9,8.67,18.65,18.65C43.53,64.52,35.61,56.6,34.85,46.63z
		 M49.07,49.92c-0.85-8,1.26-16.04,5.93-22.6c4.67,6.56,6.78,14.6,5.93,22.6c-2.64,2.46-4.68,5.51-5.93,8.9
		C53.75,55.43,51.72,52.38,49.07,49.92z M56.51,65.29c0.75-9.98,8.67-17.9,18.65-18.65C74.39,56.6,66.47,64.52,56.51,65.29z"/>
</g>
<g>
	<path class="st0" d="M108.63,70.67V20.68h30.19v7.49H117.5v14.14h18.19v7.49H117.5v20.87H108.63z"/>
	<path class="st0" d="M147.61,70.67V20.68h15.75c3.72,0,7.03,0.48,9.94,1.45c2.9,0.97,5.2,2.57,6.88,4.82
		c1.68,2.24,2.52,5.3,2.52,9.17c0,3.67-0.84,6.7-2.52,9.1c-1.68,2.4-3.95,4.18-6.8,5.35c-2.85,1.17-6.09,1.76-9.71,1.76h-7.18v18.34
		H147.61z M156.48,45.22h6.5c7.34,0,11.01-3.03,11.01-9.1c0-3.16-0.96-5.34-2.87-6.53c-1.91-1.2-4.73-1.8-8.45-1.8h-6.19V45.22z"/>
	<path class="st0" d="M213.03,71.59c-4.48,0-8.51-0.99-12.08-2.98c-3.57-1.99-6.37-4.9-8.41-8.75c-2.04-3.85-3.06-8.52-3.06-14.03
		c0-5.45,1.04-10.13,3.13-14.03c2.09-3.9,4.92-6.88,8.48-8.94c3.57-2.06,7.57-3.1,12-3.1c3.57,0,6.59,0.65,9.06,1.95
		c2.47,1.3,4.5,2.77,6.08,4.4l-4.74,5.73c-1.27-1.22-2.69-2.25-4.24-3.1c-1.56-0.84-3.5-1.26-5.85-1.26
		c-4.43,0-8.01,1.62-10.74,4.85c-2.73,3.24-4.09,7.66-4.09,13.26c0,5.71,1.3,10.18,3.9,13.41c2.6,3.24,6.39,4.85,11.39,4.85
		c1.43,0,2.78-0.19,4.05-0.57c1.27-0.38,2.32-0.93,3.13-1.64V50.87h-9.48v-7.26h17.43v22.01c-1.68,1.68-3.91,3.1-6.69,4.24
		C219.54,71.01,216.45,71.59,213.03,71.59z"/>
	<path class="st0" d="M240.09,65.18v-39c0-3.03,2.46-5.49,5.49-5.49h17.13c4.14,0,7.49,3.35,7.49,7.49v0h-21.25v12.76h14.22
		c2.07,0,3.75,1.68,3.75,3.75v0c0,2.07-1.68,3.75-3.75,3.75h-14.22v14.75h22.01v0c0,4.14-3.35,7.49-7.49,7.49h-17.9
		C242.55,70.67,240.09,68.21,240.09,65.18z"/>
</g>
<text transform="matrix(1 0 0 1 107.3414 86.1162)" class="st1 st2 st3">DIRECTIVOS DOCENTES </text>
</svg>
