<?xml version="1.0" encoding="utf-8"?>
<!-- Generator: Adobe Illustrator 26.2.1, SVG Export Plug-In . SVG Version: 6.00 Build 0)  -->
<svg version="1.1" id="Layer_1" xmlns="http://www.w3.org/2000/svg" xmlns:xlink="http://www.w3.org/1999/xlink" x="0px" y="0px"
	 viewBox="0 0 50 50" style="enable-background:new 0 0 50 50;" xml:space="preserve">
<style type="text/css">
	.st0{fill:none;}
	.st1{fill:#EAC81F;}
	.st2{fill:#002F6C;}
	.st3{fill:#A7C6ED;}
	.st4{fill:url(#Nueva_muestra_de_motivo_7);stroke:url(#Nueva_muestra_de_motivo_6);stroke-linecap:round;stroke-miterlimit:10;}
	.st5{fill:url(#Nueva_muestra_de_motivo_5);stroke:url(#Nueva_muestra_de_motivo_6);stroke-linecap:round;stroke-miterlimit:10;}
	.st6{fill:#0067B9;stroke:url(#Nueva_muestra_de_motivo_6);stroke-linecap:round;stroke-miterlimit:10;}
	.st7{fill:#00833E;stroke:url(#Nueva_muestra_de_motivo_6);stroke-linecap:round;stroke-miterlimit:10;}
	.st8{fill:#BA0C2F;stroke:url(#Nueva_muestra_de_motivo_6);stroke-linecap:round;stroke-miterlimit:10;}
	.st9{fill:none;stroke:#1E247E;stroke-linecap:round;stroke-miterlimit:10;}
	.st10{fill:#FFFFFF;stroke:#1E247E;stroke-linecap:round;stroke-miterlimit:10;}
</style>
<pattern  x="-231" y="281" width="4.02" height="4.02" patternUnits="userSpaceOnUse" id="Nueva_muestra_de_motivo_5" viewBox="0 -4.02 4.02 4.02" style="overflow:visible;">
	<g>
		<rect x="0" y="-4.02" class="st0" width="4.02" height="4.02"/>
		<rect x="0" y="-4.02" class="st1" width="4.02" height="4.02"/>
	</g>
</pattern>
<pattern  x="-231" y="281" width="4.02" height="4.02" patternUnits="userSpaceOnUse" id="Nueva_muestra_de_motivo_6" viewBox="0 -4.02 4.02 4.02" style="overflow:visible;">
	<g>
		<rect x="0" y="-4.02" class="st0" width="4.02" height="4.02"/>
		<rect x="0" y="-4.02" class="st2" width="4.02" height="4.02"/>
	</g>
</pattern>
<pattern  x="-231" y="281" width="4.02" height="4.02" patternUnits="userSpaceOnUse" id="Nueva_muestra_de_motivo_7" viewBox="0 -4.02 4.02 4.02" style="overflow:visible;">
	<g>
		<rect x="0" y="-4.02" class="st0" width="4.02" height="4.02"/>
		<rect x="0" y="-4.02" class="st3" width="4.02" height="4.02"/>
	</g>
</pattern>
<path id="Shape_70_" class="st4" d="M21.24,36.94l6.37-11.04c0.28-0.47,0.11-1.08-0.36-1.36l-15.64-9.03
	c-0.47-0.28-1.08-0.11-1.36,0.36L3.89,26.92C3.61,27.39,3.78,28,4.25,28.28l15.64,9.03C20.36,37.58,20.96,37.42,21.24,36.94z"/>
<path id="Shape_69_" class="st5" d="M19.9,32.22l10-7.92c0.43-0.34,0.5-0.96,0.16-1.39L18.85,8.76c-0.34-0.43-0.96-0.5-1.39-0.16
	l-10,7.92c-0.43,0.34-0.5,0.96-0.16,1.39l11.21,14.16C18.85,32.5,19.48,32.57,19.9,32.22z"/>
<path id="Shape_68_" class="st6" d="M30.76,28.3H18.01c-0.55,0-0.99-0.44-0.99-0.99V9.25c0-0.55,0.44-0.99,0.99-0.99h12.76
	c0.55,0,0.99,0.44,0.99,0.99v18.06C31.75,27.86,31.3,28.3,30.76,28.3z"/>
<path id="Shape_67_" class="st7" d="M30.19,32.33l-9.78-8.19c-0.42-0.35-0.47-0.97-0.12-1.4L31.9,8.91c0.35-0.42,0.97-0.47,1.4-0.12
	l9.78,8.19c0.42,0.35,0.47,0.97,0.12,1.4l-11.6,13.84C31.24,32.63,30.62,32.69,30.19,32.33z"/>
<path id="Shape_66_" class="st8" d="M27.4,36.06l-5.41-11.55c-0.24-0.49-0.02-1.08,0.47-1.32l16.35-7.66
	c0.49-0.24,1.08-0.02,1.32,0.47l5.41,11.55c0.24,0.49,0.02,1.08-0.47,1.32l-16.35,7.66C28.23,36.77,27.64,36.55,27.4,36.06z"/>
<g id="Bottom_line_13_">
	<line id="Right_42_" class="st9" x1="40.62" y1="38.58" x2="45.81" y2="38.58"/>
	<line id="Middle_52_" class="st9" x1="7.56" y1="38.58" x2="38.94" y2="38.58"/>
	<line id="Left_43_" class="st9" x1="3.39" y1="38.58" x2="5.96" y2="38.58"/>
</g>
<path id="Shape_65_" class="st10" d="M38.72,22.42v13.12c0,1.68-1.37,3.05-3.05,3.05H13.92c-1.68,0-3.05-1.37-3.05-3.05V19.09
	c0-2.09,1.7-3.8,3.8-3.8h8.81c1.16,0,2.25,0.53,2.97,1.44l1.19,1.49c0.31,0.39,0.8,0.63,1.31,0.63h6.22
	C37.13,18.86,38.72,20.45,38.72,22.42z"/>
</svg>
