<?xml version="1.0" encoding="utf-8"?>
<!-- Generator: Adobe Illustrator 26.1.0, SVG Export Plug-In . SVG Version: 6.00 Build 0)  -->
<svg version="1.1" id="Capa_1" xmlns="http://www.w3.org/2000/svg" xmlns:xlink="http://www.w3.org/1999/xlink" x="0px" y="0px"
	 viewBox="0 0 949.49 362.36" style="enable-background:new 0 0 949.49 362.36;" xml:space="preserve">
<style type="text/css">
	.st0{fill:#002F6C;}
	.st1{fill:#3CB037;}
	.st2{fill:#299123;}
</style>
<path class="st0" d="M384.51,219.02V49.44h58.26c12.48,0,23.8,1.69,33.94,5.07c10.14,3.38,18.24,9.06,24.32,17.03
	c6.07,7.98,9.1,18.81,9.1,32.51c0,13.18-3.03,24.02-9.1,32.51c-6.07,8.5-14.13,14.78-24.19,18.86s-21.07,6.11-33.03,6.11h-21.07
	v57.48h-38.23V219.02z M422.74,131.11h18.73c20.81,0,31.21-9.01,31.21-27.05c0-8.84-2.78-15.09-8.32-18.73
	c-5.55-3.64-13.52-5.46-23.93-5.46h-17.69V131.11z"/>
<path class="st1" d="M626.92,222.14c-15.44,0-29.44-3.29-42-9.88c-12.57-6.59-22.54-16.34-29.91-29.26s-11.05-28.82-11.05-47.72
	c0-18.73,3.77-34.72,11.31-47.99s17.55-23.41,30.04-30.43c12.48-7.02,26.27-10.53,41.35-10.53c12.31,0,22.89,2.26,31.73,6.76
	c8.84,4.51,16.04,9.62,21.59,15.35l-20.03,24.45c-4.34-3.81-8.93-7.02-13.78-9.62c-4.86-2.6-10.92-3.9-18.21-3.9
	c-13.18,0-23.93,4.86-32.25,14.56c-8.32,9.71-12.48,23.06-12.48,40.05c0,17.34,3.99,30.87,11.96,40.57
	c7.97,9.71,19.85,14.56,35.63,14.56c3.47,0,6.85-0.43,10.15-1.3c3.29-0.86,5.98-2.17,8.06-3.9v-29.13h-28.09v-31.21h61.9v78.03
	c-5.9,5.72-13.74,10.58-23.54,14.56C649.51,220.14,638.71,222.14,626.92,222.14z"/>
<path class="st0" d="M744.53,219.02V49.44h106.12v32.25h-67.88v34.07h57.74v31.99h-57.74v39.01h70.48v32.25H744.53V219.02z"/>
<path class="st0" d="M320.38,220.06l-27.55-55.04C292.14,99.91,238.8,47.66,173.64,48.33c-1.78,0.04-3.55,0.08-5.32,0.21
	C106.26,52.65,57.75,103.7,56.8,165.91c0,41.58,21.76,80.18,57.37,101.66c5.76,3.46,8.82,10.12,7.78,16.76l-3.27,21.72
	c-0.45,3.06,1.66,5.92,4.72,6.37c0.28,0.04,0.57,0.08,0.85,0.08h95.54c3.1,0,5.64-2.54,5.64-5.64v-1.78
	c0.04-8.75,6.73-16.03,15.43-16.8l26.24-2.21c14.51-1.25,25.67-13.37,25.75-27.97v-29.9h22.48c3.1,0,5.64-2.49,5.68-5.6
	C320.99,221.71,320.78,220.82,320.38,220.06z M113.11,162.76c33.16,2.49,59.48,28.81,61.97,61.97
	C141.96,222.19,115.66,195.88,113.11,162.76z M160.38,173.68c-2.82-26.6,4.19-53.31,19.7-75.1c15.51,21.79,22.52,48.51,19.7,75.1
	c-8.79,8.18-15.55,18.3-19.7,29.58C175.93,191.97,169.17,181.86,160.38,173.68z M185.08,224.73c2.49-33.16,28.81-59.48,61.97-61.97
	C244.51,195.88,218.2,222.19,185.08,224.73z"/>
<rect x="381.97" y="233.94" class="st0" width="473.84" height="6.85"/>
<g>
	<path class="st2" d="M385.83,271.84v-19.76h11.39v2.11h-8.89v6.69h7.53v2.11h-7.53v8.86L385.83,271.84L385.83,271.84z"/>
	<path class="st2" d="M405.75,272.2c-1.19,0-2.29-0.3-3.33-0.9c-1.03-0.6-1.87-1.48-2.5-2.62c-0.63-1.15-0.95-2.52-0.95-4.13
		c0-1.65,0.32-3.04,0.95-4.19c0.63-1.14,1.47-2.02,2.5-2.62s2.14-0.9,3.33-0.9c1.21,0,2.32,0.3,3.34,0.9s1.85,1.48,2.49,2.62
		c0.63,1.14,0.95,2.54,0.95,4.19c0,1.61-0.32,2.98-0.95,4.13c-0.63,1.14-1.46,2.02-2.49,2.62
		C408.07,271.9,406.95,272.2,405.75,272.2z M405.75,270.15c1.27,0,2.28-0.52,3.06-1.55c0.77-1.03,1.16-2.38,1.16-4.05
		c0-1.69-0.39-3.05-1.16-4.1c-0.77-1.04-1.79-1.57-3.06-1.57c-1.25,0-2.26,0.52-3.04,1.57s-1.17,2.41-1.17,4.1
		c0,1.67,0.39,3.02,1.17,4.05S404.5,270.15,405.75,270.15z"/>
	<path class="st2" d="M416.38,271.84v-14.65h2.05l0.21,2.65h0.09c0.5-0.92,1.11-1.66,1.84-2.2c0.72-0.54,1.5-0.81,2.32-0.81
		c0.58,0,1.1,0.1,1.57,0.3l-0.48,2.17c-0.24-0.08-0.46-0.14-0.66-0.18c-0.2-0.04-0.45-0.06-0.75-0.06c-0.62,0-1.27,0.25-1.94,0.75
		s-1.26,1.38-1.76,2.62v9.4h-2.49V271.84z"/>
	<path class="st2" d="M426.83,271.84v-14.65h2.05l0.21,2.11h0.09c0.64-0.7,1.35-1.29,2.11-1.76c0.76-0.47,1.58-0.71,2.44-0.71
		c1.12,0,2,0.25,2.64,0.74c0.63,0.49,1.1,1.18,1.4,2.06c0.76-0.82,1.54-1.5,2.32-2.02s1.62-0.78,2.5-0.78
		c1.51,0,2.63,0.49,3.36,1.46c0.73,0.97,1.1,2.4,1.1,4.26v9.28h-2.47v-8.95c0-1.37-0.22-2.36-0.66-2.98
		c-0.44-0.62-1.12-0.93-2.05-0.93c-1.08,0-2.31,0.75-3.68,2.26v10.6h-2.47v-8.95c0-1.37-0.22-2.36-0.66-2.98
		c-0.44-0.62-1.13-0.93-2.08-0.93c-1.08,0-2.31,0.75-3.68,2.26v10.6h-2.47V271.84z"/>
	<path class="st2" d="M455.18,272.2c-1.23,0-2.24-0.37-3.06-1.1c-0.81-0.73-1.22-1.75-1.22-3.06c0-1.61,0.72-2.84,2.15-3.69
		c1.44-0.85,3.71-1.45,6.82-1.79c0-0.62-0.08-1.21-0.26-1.78c-0.17-0.56-0.47-1.02-0.9-1.37s-1.05-0.53-1.85-0.53
		c-0.84,0-1.64,0.16-2.38,0.48s-1.41,0.68-1.99,1.08l-0.96-1.72c0.68-0.44,1.52-0.87,2.52-1.28c0.99-0.41,2.07-0.62,3.24-0.62
		c1.79,0,3.08,0.55,3.89,1.64c0.8,1.09,1.21,2.56,1.21,4.38v8.98h-2.05l-0.21-1.75h-0.09c-0.68,0.56-1.43,1.05-2.25,1.48
		S456.11,272.2,455.18,272.2z M455.91,270.21c0.7,0,1.37-0.17,1.99-0.51s1.29-0.82,1.99-1.45v-4.07c-2.43,0.3-4.13,0.75-5.11,1.36
		c-0.97,0.6-1.46,1.38-1.46,2.32c0,0.82,0.25,1.42,0.75,1.79C454.57,270.02,455.18,270.21,455.91,270.21z"/>
	<path class="st2" d="M472.78,272.2c-1.29,0-2.45-0.3-3.5-0.9s-1.87-1.48-2.47-2.62c-0.6-1.15-0.9-2.52-0.9-4.13
		c0-1.65,0.33-3.04,0.98-4.19c0.65-1.14,1.52-2.02,2.59-2.62s2.23-0.9,3.48-0.9c0.96,0,1.79,0.17,2.48,0.51s1.29,0.74,1.79,1.21
		l-1.27,1.63c-0.42-0.38-0.87-0.69-1.34-0.93s-1-0.36-1.58-0.36c-0.88,0-1.67,0.24-2.37,0.71c-0.69,0.47-1.24,1.13-1.63,1.99
		s-0.59,1.84-0.59,2.97c0,1.67,0.42,3.02,1.25,4.05s1.92,1.55,3.27,1.55c0.68,0,1.31-0.15,1.9-0.44c0.58-0.29,1.09-0.64,1.54-1.04
		l1.08,1.66c-0.66,0.58-1.4,1.04-2.2,1.37C474.5,272.03,473.66,272.2,472.78,272.2z"/>
	<path class="st2" d="M481.99,254.18c-0.48,0-0.88-0.15-1.19-0.44c-0.31-0.29-0.47-0.69-0.47-1.19c0-0.48,0.16-0.87,0.47-1.17
		s0.71-0.45,1.19-0.45s0.88,0.15,1.19,0.45s0.47,0.69,0.47,1.17c0,0.5-0.16,0.9-0.47,1.19S482.48,254.18,481.99,254.18z
		 M480.73,271.84v-14.65h2.47v14.64h-2.47V271.84z"/>
	<path class="st2" d="M493.83,272.2c-1.18,0-2.29-0.3-3.33-0.9s-1.87-1.48-2.5-2.62c-0.63-1.15-0.95-2.52-0.95-4.13
		c0-1.65,0.32-3.04,0.95-4.19s1.47-2.02,2.5-2.62s2.14-0.9,3.33-0.9c1.21,0,2.32,0.3,3.34,0.9s1.85,1.48,2.49,2.62
		s0.95,2.54,0.95,4.19c0,1.61-0.32,2.98-0.95,4.13c-0.63,1.14-1.46,2.02-2.49,2.62S495.04,272.2,493.83,272.2z M493.83,270.15
		c1.27,0,2.29-0.52,3.06-1.55s1.16-2.38,1.16-4.05c0-1.69-0.39-3.05-1.16-4.1c-0.77-1.04-1.79-1.57-3.06-1.57
		c-1.25,0-2.26,0.52-3.04,1.57c-0.78,1.04-1.17,2.41-1.17,4.1c0,1.67,0.39,3.02,1.17,4.05
		C491.57,269.63,492.59,270.15,493.83,270.15z M493.41,254.57l-1.26-1.24l4.25-5.03l1.75,1.66L493.41,254.57z"/>
	<path class="st2" d="M504.47,271.84v-14.65h2.05l0.21,2.11h0.09c0.7-0.7,1.45-1.29,2.23-1.76s1.68-0.71,2.68-0.71
		c1.55,0,2.68,0.49,3.39,1.46s1.07,2.4,1.07,4.26v9.28h-2.47v-8.95c0-1.37-0.22-2.36-0.66-2.98c-0.44-0.62-1.14-0.93-2.11-0.93
		c-0.74,0-1.41,0.19-2,0.57s-1.26,0.94-2,1.69v10.6h-2.48V271.84z"/>
	<path class="st2" d="M541.24,272.2c-1.31,0-2.49-0.31-3.55-0.92c-1.07-0.61-1.91-1.49-2.53-2.64c-0.62-1.14-0.93-2.51-0.93-4.1
		c0-1.61,0.32-2.98,0.95-4.13s1.45-2.03,2.46-2.65c1-0.62,2.06-0.93,3.16-0.93c1.87,0,3.31,0.62,4.32,1.87s1.52,2.91,1.52,5
		c0,0.26,0,0.52-0.01,0.77s-0.04,0.47-0.08,0.65h-9.88c0.1,1.55,0.59,2.78,1.46,3.71c0.87,0.92,2.01,1.39,3.42,1.39
		c0.7,0,1.35-0.11,1.94-0.32c0.59-0.21,1.16-0.49,1.7-0.83l0.87,1.63c-0.62,0.4-1.33,0.75-2.12,1.05
		C543.14,272.05,542.24,272.2,541.24,272.2z M536.63,263.34h7.83c0-1.49-0.32-2.62-0.95-3.39s-1.52-1.16-2.67-1.16
		c-1.02,0-1.94,0.4-2.76,1.19C537.28,260.77,536.79,261.89,536.63,263.34z"/>
	<path class="st2" d="M550.25,271.84v-14.65h2.05l0.21,2.11h0.09c0.7-0.7,1.45-1.29,2.23-1.76s1.68-0.71,2.68-0.71
		c1.55,0,2.68,0.49,3.39,1.46s1.07,2.4,1.07,4.26v9.28h-2.47v-8.95c0-1.37-0.22-2.36-0.66-2.98c-0.44-0.62-1.14-0.93-2.11-0.93
		c-0.74,0-1.41,0.19-2,0.57s-1.26,0.94-2,1.69v10.6h-2.48V271.84z"/>
	<path class="st2" d="M581.08,278.01v-20.82h2.05l0.21,1.69h0.09c0.66-0.56,1.39-1.04,2.18-1.45c0.79-0.4,1.62-0.6,2.49-0.6
		c1.89,0,3.32,0.68,4.31,2.03s1.48,3.17,1.48,5.44c0,1.65-0.3,3.06-0.89,4.25s-1.37,2.09-2.32,2.71s-1.99,0.93-3.12,0.93
		c-0.68,0-1.36-0.15-2.03-0.45c-0.67-0.3-1.35-0.71-2.03-1.23l0.06,2.56v4.94L581.08,278.01L581.08,278.01z M587.14,270.12
		c1.21,0,2.2-0.52,3-1.55c0.79-1.03,1.19-2.46,1.19-4.26c0-1.61-0.3-2.91-0.89-3.9s-1.58-1.49-2.97-1.49
		c-0.62,0-1.25,0.17-1.88,0.51s-1.31,0.83-2.03,1.48v7.68c0.66,0.56,1.31,0.96,1.93,1.19C586.1,270,586.65,270.12,587.14,270.12z"/>
	<path class="st2" d="M600.42,272.2c-0.92,0-1.59-0.29-2-0.86c-0.41-0.57-0.62-1.39-0.62-2.46v-18.49h2.47v18.68
		c0,0.38,0.07,0.66,0.21,0.83c0.14,0.17,0.3,0.26,0.48,0.26c0.08,0,0.16,0,0.23-0.01s0.18-0.03,0.32-0.04l0.33,1.87
		c-0.16,0.08-0.35,0.14-0.57,0.18C601.04,272.18,600.76,272.2,600.42,272.2z"/>
	<path class="st2" d="M608.86,272.2c-1.23,0-2.24-0.37-3.06-1.1c-0.81-0.73-1.22-1.75-1.22-3.06c0-1.61,0.72-2.84,2.15-3.69
		c1.44-0.85,3.71-1.45,6.82-1.79c0-0.62-0.08-1.21-0.26-1.78c-0.17-0.56-0.47-1.02-0.9-1.37c-0.43-0.35-1.05-0.53-1.85-0.53
		c-0.84,0-1.64,0.16-2.38,0.48s-1.41,0.68-1.99,1.08l-0.96-1.72c0.68-0.44,1.52-0.87,2.52-1.28c0.99-0.41,2.07-0.62,3.24-0.62
		c1.79,0,3.08,0.55,3.89,1.64c0.8,1.09,1.21,2.56,1.21,4.38v8.98h-2.05l-0.21-1.75h-0.09c-0.68,0.56-1.43,1.05-2.25,1.48
		S609.78,272.2,608.86,272.2z M609.58,270.21c0.7,0,1.37-0.17,1.99-0.51s1.29-0.82,1.99-1.45v-4.07c-2.43,0.3-4.13,0.75-5.11,1.36
		c-0.97,0.6-1.46,1.38-1.46,2.32c0,0.82,0.25,1.42,0.75,1.79C608.24,270.02,608.86,270.21,609.58,270.21z"/>
	<path class="st2" d="M620.67,271.84v-14.65h2.05l0.21,2.11h0.09c0.7-0.7,1.45-1.29,2.23-1.76s1.68-0.71,2.68-0.71
		c1.55,0,2.68,0.49,3.39,1.46s1.07,2.4,1.07,4.26v9.28h-2.47v-8.95c0-1.37-0.22-2.36-0.66-2.98c-0.44-0.62-1.14-0.93-2.11-0.93
		c-0.74,0-1.41,0.19-2,0.57s-1.26,0.94-2,1.69v10.6h-2.48V271.84z"/>
	<path class="st2" d="M643.08,272.2c-1.31,0-2.49-0.31-3.55-0.92c-1.07-0.61-1.91-1.49-2.53-2.64c-0.62-1.14-0.93-2.51-0.93-4.1
		c0-1.61,0.32-2.98,0.95-4.13s1.45-2.03,2.46-2.65c1-0.62,2.06-0.93,3.16-0.93c1.87,0,3.31,0.62,4.32,1.87s1.52,2.91,1.52,5
		c0,0.26,0,0.52-0.01,0.77s-0.04,0.47-0.08,0.65h-9.88c0.1,1.55,0.59,2.78,1.46,3.71c0.87,0.92,2.01,1.39,3.42,1.39
		c0.7,0,1.35-0.11,1.94-0.32c0.59-0.21,1.16-0.49,1.7-0.83l0.87,1.63c-0.62,0.4-1.33,0.75-2.12,1.05
		C644.98,272.05,644.08,272.2,643.08,272.2z M638.47,263.34h7.83c0-1.49-0.32-2.62-0.95-3.39s-1.52-1.16-2.67-1.16
		c-1.02,0-1.94,0.4-2.76,1.19C639.12,260.77,638.63,261.89,638.47,263.34z"/>
	<path class="st2" d="M655.04,272.2c-1.23,0-2.24-0.37-3.06-1.1c-0.81-0.73-1.22-1.75-1.22-3.06c0-1.61,0.72-2.84,2.15-3.69
		c1.44-0.85,3.71-1.45,6.82-1.79c0-0.62-0.08-1.21-0.26-1.78c-0.17-0.56-0.47-1.02-0.9-1.37c-0.43-0.35-1.05-0.53-1.85-0.53
		c-0.84,0-1.64,0.16-2.38,0.48s-1.41,0.68-1.99,1.08l-0.96-1.72c0.68-0.44,1.52-0.87,2.52-1.28c0.99-0.41,2.07-0.62,3.24-0.62
		c1.79,0,3.08,0.55,3.89,1.64c0.8,1.09,1.21,2.56,1.21,4.38v8.98h-2.05l-0.21-1.75h-0.09c-0.68,0.56-1.43,1.05-2.25,1.48
		S655.97,272.2,655.04,272.2z M655.76,270.21c0.7,0,1.37-0.17,1.99-0.51s1.29-0.82,1.99-1.45v-4.07c-2.43,0.3-4.13,0.75-5.11,1.36
		c-0.97,0.6-1.46,1.38-1.46,2.32c0,0.82,0.25,1.42,0.75,1.79C654.43,270.02,655.04,270.21,655.76,270.21z"/>
	<path class="st2" d="M672.63,272.2c-1.29,0-2.45-0.3-3.5-0.9s-1.87-1.48-2.47-2.62c-0.6-1.15-0.9-2.52-0.9-4.13
		c0-1.65,0.33-3.04,0.98-4.19c0.65-1.14,1.52-2.02,2.59-2.62s2.23-0.9,3.48-0.9c0.96,0,1.79,0.17,2.49,0.51
		c0.69,0.34,1.29,0.74,1.79,1.21l-1.27,1.63c-0.42-0.38-0.87-0.69-1.34-0.93s-1-0.36-1.58-0.36c-0.88,0-1.67,0.24-2.37,0.71
		c-0.69,0.47-1.24,1.13-1.63,1.99s-0.59,1.84-0.59,2.97c0,1.67,0.42,3.02,1.25,4.05s1.92,1.55,3.27,1.55c0.68,0,1.32-0.15,1.9-0.44
		s1.09-0.64,1.54-1.04l1.08,1.66c-0.66,0.58-1.4,1.04-2.2,1.37C674.36,272.03,673.52,272.2,672.63,272.2z"/>
	<path class="st2" d="M681.85,254.18c-0.48,0-0.88-0.15-1.19-0.44c-0.31-0.29-0.47-0.69-0.47-1.19c0-0.48,0.16-0.87,0.47-1.17
		s0.71-0.45,1.19-0.45s0.88,0.15,1.19,0.45s0.47,0.69,0.47,1.17c0,0.5-0.16,0.9-0.47,1.19S682.34,254.18,681.85,254.18z
		 M680.59,271.84v-14.65h2.47v14.64h-2.47V271.84z"/>
	<path class="st2" d="M693.69,272.2c-1.18,0-2.29-0.3-3.33-0.9s-1.87-1.48-2.5-2.62c-0.63-1.15-0.95-2.52-0.95-4.13
		c0-1.65,0.32-3.04,0.95-4.19s1.47-2.02,2.5-2.62s2.14-0.9,3.33-0.9c1.21,0,2.32,0.3,3.34,0.9s1.85,1.48,2.49,2.62
		s0.95,2.54,0.95,4.19c0,1.61-0.32,2.98-0.95,4.13c-0.63,1.14-1.46,2.02-2.49,2.62S694.9,272.2,693.69,272.2z M693.69,270.15
		c1.27,0,2.29-0.52,3.06-1.55s1.16-2.38,1.16-4.05c0-1.69-0.39-3.05-1.16-4.1c-0.77-1.04-1.79-1.57-3.06-1.57
		c-1.25,0-2.26,0.52-3.04,1.57c-0.78,1.04-1.17,2.41-1.17,4.1c0,1.67,0.39,3.02,1.17,4.05
		C691.43,269.63,692.45,270.15,693.69,270.15z M693.27,254.57l-1.26-1.24l4.25-5.03l1.75,1.66L693.27,254.57z"/>
	<path class="st2" d="M704.33,271.84v-14.65h2.05l0.21,2.11h0.09c0.7-0.7,1.45-1.29,2.23-1.76s1.68-0.71,2.68-0.71
		c1.55,0,2.68,0.49,3.39,1.46s1.07,2.4,1.07,4.26v9.28h-2.47v-8.95c0-1.37-0.22-2.36-0.66-2.98c-0.44-0.62-1.14-0.93-2.11-0.93
		c-0.74,0-1.41,0.19-2,0.57s-1.26,0.94-2,1.69v10.6h-2.48V271.84z"/>
	<path class="st2" d="M735.4,278.13c-0.32,0-0.63-0.03-0.92-0.09s-0.56-0.13-0.8-0.21l0.48-1.96c0.16,0.04,0.34,0.08,0.54,0.14
		c0.2,0.05,0.39,0.08,0.57,0.08c0.82,0,1.51-0.3,2.05-0.89c0.54-0.59,0.96-1.34,1.27-2.25l0.33-1.08l-5.88-14.67h2.56l2.98,8.1
		c0.22,0.62,0.46,1.29,0.71,2.02c0.25,0.72,0.49,1.43,0.71,2.11h0.12c0.22-0.66,0.43-1.36,0.63-2.08s0.4-1.41,0.6-2.05l2.62-8.1
		h2.41l-5.51,15.85c-0.34,0.96-0.75,1.83-1.22,2.59s-1.05,1.37-1.75,1.82C737.23,277.91,736.39,278.13,735.4,278.13z"/>
	<path class="st2" d="M768.53,278.58c-1.79,0-3.24-0.34-4.37-1.02c-1.12-0.68-1.69-1.66-1.69-2.92c0-0.62,0.19-1.22,0.57-1.79
		s0.9-1.08,1.57-1.52v-0.12c-0.36-0.22-0.67-0.53-0.92-0.93s-0.38-0.88-0.38-1.45c0-0.62,0.17-1.17,0.51-1.63s0.7-0.82,1.08-1.08
		V266c-0.48-0.4-0.92-0.94-1.31-1.63c-0.39-0.68-0.59-1.46-0.59-2.32c0-1.06,0.25-1.99,0.75-2.77s1.17-1.39,2.02-1.81
		c0.84-0.42,1.76-0.63,2.74-0.63c0.4,0,0.78,0.04,1.14,0.11c0.36,0.07,0.67,0.16,0.93,0.26h5.09v1.9h-3.01
		c0.34,0.32,0.63,0.75,0.86,1.28s0.35,1.11,0.35,1.73c0,1.04-0.24,1.95-0.72,2.71c-0.48,0.76-1.12,1.35-1.93,1.76
		c-0.8,0.41-1.71,0.62-2.71,0.62c-0.78,0-1.52-0.17-2.2-0.51c-0.26,0.22-0.48,0.47-0.66,0.74s-0.27,0.61-0.27,1.01
		c0,0.46,0.19,0.84,0.56,1.14c0.37,0.3,1.05,0.45,2.03,0.45h2.83c1.71,0,2.99,0.28,3.84,0.83c0.85,0.55,1.28,1.44,1.28,2.67
		c0,0.9-0.3,1.74-0.9,2.5s-1.46,1.38-2.56,1.85S770.05,278.58,768.53,278.58z M768.89,276.87c1.41,0,2.53-0.31,3.37-0.92
		c0.84-0.61,1.27-1.3,1.27-2.06c0-0.68-0.26-1.16-0.77-1.42s-1.24-0.39-2.18-0.39h-2.53c-0.28,0-0.59-0.02-0.92-0.06
		c-0.33-0.04-0.66-0.1-0.98-0.18c-0.52,0.38-0.9,0.78-1.14,1.21c-0.24,0.42-0.36,0.84-0.36,1.27c0,0.78,0.38,1.41,1.13,1.87
		C766.53,276.64,767.56,276.87,768.89,276.87z M768.53,265.54c0.84,0,1.57-0.32,2.18-0.95s0.92-1.48,0.92-2.55s-0.3-1.9-0.9-2.5
		s-1.34-0.9-2.2-0.9s-1.6,0.3-2.2,0.9s-0.9,1.44-0.9,2.5s0.31,1.91,0.92,2.55C766.96,265.22,767.68,265.54,768.53,265.54z"/>
	<path class="st2" d="M784.28,272.2c-1.31,0-2.49-0.31-3.55-0.92c-1.07-0.61-1.91-1.49-2.53-2.64c-0.62-1.14-0.93-2.51-0.93-4.1
		c0-1.61,0.32-2.98,0.95-4.13s1.45-2.03,2.46-2.65c1-0.62,2.06-0.93,3.16-0.93c1.87,0,3.31,0.62,4.32,1.87s1.52,2.91,1.52,5
		c0,0.26,0,0.52-0.01,0.77s-0.04,0.47-0.08,0.65h-9.88c0.1,1.55,0.59,2.78,1.46,3.71c0.87,0.92,2.01,1.39,3.42,1.39
		c0.7,0,1.35-0.11,1.94-0.32c0.59-0.21,1.16-0.49,1.7-0.83l0.87,1.63c-0.62,0.4-1.33,0.75-2.12,1.05
		C786.19,272.05,785.29,272.2,784.28,272.2z M779.68,263.34h7.83c0-1.49-0.32-2.62-0.95-3.39s-1.52-1.16-2.67-1.16
		c-1.02,0-1.94,0.4-2.76,1.19C780.32,260.77,779.84,261.89,779.68,263.34z"/>
	<path class="st2" d="M797.12,272.2c-1.04,0-2.04-0.2-2.98-0.59c-0.94-0.39-1.77-0.87-2.47-1.43l1.24-1.66
		c0.64,0.5,1.3,0.92,1.99,1.25c0.68,0.33,1.46,0.5,2.32,0.5c0.96,0,1.69-0.23,2.17-0.68c0.48-0.45,0.72-0.99,0.72-1.61
		c0-0.5-0.17-0.92-0.5-1.26s-0.75-0.63-1.27-0.86c-0.51-0.23-1.04-0.45-1.58-0.65c-0.68-0.26-1.36-0.56-2.02-0.89
		c-0.66-0.33-1.21-0.76-1.63-1.3c-0.42-0.53-0.63-1.21-0.63-2.03c0-1.18,0.45-2.17,1.34-2.97c0.89-0.79,2.13-1.19,3.72-1.19
		c0.9,0,1.75,0.16,2.53,0.48s1.46,0.71,2.02,1.17l-1.21,1.57c-0.5-0.38-1.02-0.69-1.57-0.93c-0.54-0.24-1.13-0.36-1.78-0.36
		c-0.92,0-1.6,0.21-2.03,0.63s-0.65,0.91-0.65,1.48c0,0.46,0.15,0.84,0.45,1.13s0.69,0.54,1.17,0.75s0.99,0.43,1.54,0.65
		c0.7,0.26,1.4,0.56,2.08,0.89c0.68,0.33,1.25,0.77,1.7,1.33c0.45,0.55,0.68,1.29,0.68,2.21c0,0.78-0.21,1.51-0.62,2.17
		s-1.01,1.2-1.81,1.6C799.26,272,798.28,272.2,797.12,272.2z"/>
	<path class="st2" d="M809.92,272.2c-1.57,0-2.66-0.45-3.27-1.36c-0.61-0.9-0.92-2.08-0.92-3.52v-8.1h-2.17v-1.87l2.29-0.15l0.3-4.1
		h2.08v4.1h3.95v2.02h-3.95v8.13c0,0.9,0.17,1.6,0.5,2.09s0.92,0.74,1.76,0.74c0.26,0,0.54-0.04,0.84-0.14
		c0.3-0.09,0.57-0.17,0.81-0.26l0.48,1.87c-0.4,0.14-0.84,0.27-1.31,0.38C810.85,272.14,810.38,272.2,809.92,272.2z"/>
	<path class="st2" d="M816.76,254.18c-0.48,0-0.88-0.15-1.19-0.44c-0.31-0.29-0.47-0.69-0.47-1.19c0-0.48,0.16-0.87,0.47-1.17
		s0.71-0.45,1.19-0.45s0.88,0.15,1.19,0.45s0.47,0.69,0.47,1.17c0,0.5-0.16,0.9-0.47,1.19S817.24,254.18,816.76,254.18z
		 M815.5,271.84v-14.65h2.47v14.64h-2.47V271.84z"/>
	<path class="st2" d="M828.6,272.2c-1.18,0-2.29-0.3-3.33-0.9s-1.87-1.48-2.5-2.62c-0.63-1.15-0.95-2.52-0.95-4.13
		c0-1.65,0.32-3.04,0.95-4.19s1.47-2.02,2.5-2.62s2.14-0.9,3.33-0.9c1.21,0,2.32,0.3,3.34,0.9s1.85,1.48,2.49,2.62
		s0.95,2.54,0.95,4.19c0,1.61-0.32,2.98-0.95,4.13c-0.63,1.14-1.46,2.02-2.49,2.62S829.8,272.2,828.6,272.2z M828.6,270.15
		c1.27,0,2.29-0.52,3.06-1.55s1.16-2.38,1.16-4.05c0-1.69-0.39-3.05-1.16-4.1c-0.77-1.04-1.79-1.57-3.06-1.57
		c-1.25,0-2.26,0.52-3.04,1.57c-0.78,1.04-1.17,2.41-1.17,4.1c0,1.67,0.39,3.02,1.17,4.05C826.34,269.63,827.35,270.15,828.6,270.15
		z M828.18,254.57l-1.26-1.24l4.25-5.03l1.75,1.66L828.18,254.57z"/>
	<path class="st2" d="M839.23,271.84v-14.65h2.05l0.21,2.11h0.09c0.7-0.7,1.45-1.29,2.23-1.76s1.68-0.71,2.68-0.71
		c1.55,0,2.68,0.49,3.39,1.46s1.07,2.4,1.07,4.26v9.28h-2.47v-8.95c0-1.37-0.22-2.36-0.66-2.98c-0.44-0.62-1.14-0.93-2.11-0.93
		c-0.74,0-1.41,0.19-2,0.57s-1.26,0.94-2,1.69v10.6h-2.48V271.84z"/>
	<path class="st2" d="M391.53,308.35c-1.31,0-2.49-0.31-3.55-0.92c-1.06-0.61-1.91-1.49-2.53-2.64c-0.62-1.14-0.93-2.51-0.93-4.1
		c0-1.61,0.32-2.98,0.95-4.13c0.63-1.14,1.45-2.03,2.46-2.65c1-0.62,2.06-0.93,3.16-0.93c1.87,0,3.31,0.62,4.32,1.87
		s1.52,2.91,1.52,5c0,0.26-0.01,0.52-0.02,0.77c-0.01,0.25-0.04,0.47-0.08,0.65h-9.88c0.1,1.55,0.59,2.78,1.46,3.71
		c0.87,0.92,2.01,1.39,3.42,1.39c0.7,0,1.35-0.11,1.94-0.32c0.59-0.21,1.16-0.49,1.7-0.83l0.87,1.63c-0.62,0.4-1.33,0.75-2.12,1.05
		C393.43,308.2,392.53,308.35,391.53,308.35z M386.92,299.49h7.83c0-1.49-0.32-2.62-0.95-3.39c-0.63-0.77-1.52-1.16-2.67-1.16
		c-1.02,0-1.94,0.4-2.76,1.19C387.56,296.93,387.08,298.05,386.92,299.49z"/>
	<path class="st2" d="M404.36,308.35c-1.04,0-2.04-0.2-2.98-0.59c-0.94-0.39-1.77-0.87-2.47-1.43l1.23-1.66
		c0.64,0.5,1.31,0.92,1.99,1.25s1.46,0.5,2.32,0.5c0.96,0,1.69-0.23,2.17-0.68c0.48-0.45,0.72-0.99,0.72-1.61
		c0-0.5-0.17-0.92-0.5-1.26s-0.75-0.63-1.27-0.86c-0.51-0.23-1.04-0.45-1.58-0.65c-0.68-0.26-1.36-0.56-2.02-0.89
		s-1.21-0.76-1.63-1.3c-0.42-0.53-0.63-1.21-0.63-2.03c0-1.18,0.45-2.17,1.34-2.97c0.89-0.79,2.13-1.19,3.72-1.19
		c0.9,0,1.75,0.16,2.53,0.48s1.46,0.71,2.02,1.17l-1.21,1.57c-0.5-0.38-1.02-0.69-1.57-0.93c-0.54-0.24-1.13-0.36-1.78-0.36
		c-0.92,0-1.6,0.21-2.03,0.63s-0.65,0.91-0.65,1.48c0,0.46,0.15,0.84,0.45,1.13s0.69,0.54,1.18,0.75c0.48,0.21,0.99,0.43,1.54,0.65
		c0.7,0.26,1.4,0.56,2.08,0.89c0.68,0.33,1.25,0.77,1.7,1.33c0.45,0.55,0.68,1.29,0.68,2.21c0,0.78-0.21,1.51-0.62,2.17
		s-1.01,1.2-1.81,1.6C406.5,308.15,405.52,308.35,404.36,308.35z"/>
	<path class="st2" d="M417.16,308.35c-1.57,0-2.66-0.45-3.27-1.36c-0.61-0.9-0.92-2.08-0.92-3.52v-8.1h-2.17v-1.87l2.29-0.15
		l0.3-4.1h2.08v4.1h3.95v2.02h-3.95v8.13c0,0.9,0.17,1.6,0.5,2.09s0.92,0.74,1.76,0.74c0.26,0,0.54-0.04,0.84-0.14
		c0.3-0.09,0.57-0.17,0.81-0.26l0.48,1.87c-0.4,0.14-0.84,0.27-1.31,0.38C418.09,308.29,417.62,308.35,417.16,308.35z"/>
	<path class="st2" d="M422.74,307.99v-14.64h2.05L425,296h0.09c0.5-0.92,1.11-1.66,1.84-2.2c0.72-0.54,1.5-0.81,2.32-0.81
		c0.58,0,1.1,0.1,1.57,0.3l-0.48,2.17c-0.24-0.08-0.46-0.14-0.66-0.18c-0.2-0.04-0.45-0.06-0.75-0.06c-0.62,0-1.27,0.25-1.94,0.75
		s-1.26,1.38-1.76,2.62v9.4L422.74,307.99L422.74,307.99z"/>
	<path class="st2" d="M435.84,308.35c-1.23,0-2.24-0.37-3.06-1.1c-0.81-0.73-1.22-1.75-1.22-3.06c0-1.61,0.72-2.84,2.15-3.69
		c1.44-0.85,3.71-1.45,6.82-1.79c0-0.62-0.09-1.21-0.26-1.78c-0.17-0.56-0.47-1.02-0.9-1.37s-1.05-0.53-1.85-0.53
		c-0.84,0-1.64,0.16-2.38,0.48s-1.41,0.68-1.99,1.08l-0.96-1.72c0.68-0.44,1.52-0.87,2.52-1.28c0.99-0.41,2.07-0.62,3.24-0.62
		c1.79,0,3.08,0.55,3.89,1.64c0.8,1.09,1.21,2.56,1.21,4.38v8.98H441l-0.21-1.75h-0.09c-0.68,0.56-1.43,1.05-2.24,1.48
		S436.76,308.35,435.84,308.35z M436.56,306.36c0.7,0,1.37-0.17,1.99-0.51s1.29-0.82,1.99-1.45v-4.07c-2.43,0.3-4.13,0.75-5.11,1.36
		c-0.97,0.6-1.46,1.38-1.46,2.32c0,0.82,0.25,1.42,0.75,1.79C435.23,306.18,435.84,306.36,436.56,306.36z"/>
	<path class="st2" d="M451.84,308.35c-1.57,0-2.66-0.45-3.27-1.36c-0.61-0.9-0.92-2.08-0.92-3.52v-8.1h-2.17v-1.87l2.29-0.15
		l0.3-4.1h2.08v4.1h3.95v2.02h-3.95v8.13c0,0.9,0.17,1.6,0.5,2.09s0.92,0.74,1.76,0.74c0.26,0,0.54-0.04,0.84-0.14
		c0.3-0.09,0.57-0.17,0.81-0.26l0.48,1.87c-0.4,0.14-0.84,0.27-1.31,0.38C452.77,308.29,452.3,308.35,451.84,308.35z"/>
	<path class="st2" d="M462.93,308.35c-1.31,0-2.49-0.31-3.55-0.92c-1.07-0.61-1.91-1.49-2.53-2.64c-0.62-1.14-0.93-2.51-0.93-4.1
		c0-1.61,0.32-2.98,0.95-4.13s1.45-2.03,2.46-2.65c1-0.62,2.06-0.93,3.16-0.93c1.87,0,3.31,0.62,4.32,1.87s1.52,2.91,1.52,5
		c0,0.26,0,0.52-0.01,0.77s-0.04,0.47-0.08,0.65h-9.88c0.1,1.55,0.59,2.78,1.46,3.71c0.87,0.92,2.01,1.39,3.42,1.39
		c0.7,0,1.35-0.11,1.94-0.32c0.59-0.21,1.16-0.49,1.7-0.83l0.87,1.63c-0.62,0.4-1.33,0.75-2.12,1.05
		C464.83,308.2,463.93,308.35,462.93,308.35z M458.32,299.49h7.83c0-1.49-0.32-2.62-0.95-3.39s-1.52-1.16-2.67-1.16
		c-1.02,0-1.94,0.4-2.76,1.19C458.96,296.93,458.48,298.05,458.32,299.49z M462.05,290.73l-1.26-1.24l4.25-5.03l1.75,1.66
		L462.05,290.73z"/>
	<path class="st2" d="M476.57,314.74c-1.79,0-3.24-0.34-4.37-1.02c-1.12-0.68-1.69-1.66-1.69-2.92c0-0.62,0.19-1.22,0.57-1.79
		s0.9-1.08,1.57-1.52v-0.12c-0.36-0.22-0.67-0.53-0.92-0.93s-0.38-0.88-0.38-1.45c0-0.62,0.17-1.17,0.51-1.63s0.7-0.82,1.08-1.08
		v-0.12c-0.48-0.4-0.92-0.94-1.31-1.63c-0.39-0.68-0.59-1.46-0.59-2.32c0-1.06,0.25-1.99,0.75-2.77s1.17-1.39,2.02-1.81
		c0.84-0.42,1.76-0.63,2.74-0.63c0.4,0,0.78,0.04,1.14,0.11c0.36,0.07,0.67,0.16,0.93,0.26h5.09v1.9h-3.01
		c0.34,0.32,0.63,0.75,0.86,1.28c0.23,0.53,0.35,1.11,0.35,1.73c0,1.04-0.24,1.95-0.72,2.71c-0.48,0.76-1.12,1.35-1.93,1.76
		c-0.8,0.41-1.71,0.62-2.71,0.62c-0.78,0-1.52-0.17-2.2-0.51c-0.26,0.22-0.48,0.47-0.66,0.74s-0.27,0.61-0.27,1.01
		c0,0.46,0.19,0.84,0.56,1.14c0.37,0.3,1.05,0.45,2.03,0.45h2.83c1.71,0,2.99,0.28,3.84,0.83s1.28,1.44,1.28,2.67
		c0,0.9-0.3,1.74-0.9,2.5s-1.46,1.38-2.56,1.85S478.1,314.74,476.57,314.74z M476.93,313.02c1.41,0,2.53-0.31,3.37-0.92
		c0.84-0.61,1.27-1.3,1.27-2.06c0-0.68-0.26-1.16-0.77-1.42c-0.51-0.26-1.24-0.39-2.18-0.39h-2.53c-0.28,0-0.59-0.02-0.92-0.06
		c-0.33-0.04-0.66-0.1-0.98-0.18c-0.52,0.38-0.9,0.78-1.14,1.21c-0.24,0.42-0.36,0.84-0.36,1.27c0,0.78,0.38,1.41,1.13,1.87
		C474.57,312.79,475.61,313.02,476.93,313.02z M476.57,301.69c0.84,0,1.57-0.32,2.18-0.95s0.92-1.48,0.92-2.55s-0.3-1.9-0.9-2.5
		s-1.34-0.9-2.2-0.9s-1.6,0.3-2.2,0.9s-0.9,1.44-0.9,2.5s0.31,1.91,0.92,2.55C475,301.37,475.73,301.69,476.57,301.69z"/>
	<path class="st2" d="M488.08,290.33c-0.48,0-0.88-0.15-1.19-0.44s-0.47-0.69-0.47-1.19c0-0.48,0.16-0.87,0.47-1.17
		c0.31-0.3,0.71-0.45,1.19-0.45s0.88,0.15,1.19,0.45c0.31,0.3,0.47,0.69,0.47,1.17c0,0.5-0.16,0.9-0.47,1.19
		S488.56,290.33,488.08,290.33z M486.82,307.99v-14.64h2.47v14.64H486.82z"/>
	<path class="st2" d="M500.01,308.35c-1.29,0-2.45-0.3-3.5-0.9s-1.87-1.48-2.47-2.62c-0.6-1.15-0.9-2.52-0.9-4.13
		c0-1.65,0.33-3.04,0.98-4.19c0.65-1.14,1.52-2.02,2.59-2.62s2.23-0.9,3.48-0.9c0.96,0,1.79,0.17,2.49,0.51
		c0.69,0.34,1.29,0.74,1.79,1.21l-1.27,1.63c-0.42-0.38-0.87-0.69-1.34-0.93s-1-0.36-1.58-0.36c-0.88,0-1.67,0.24-2.37,0.71
		c-0.69,0.47-1.24,1.13-1.63,1.99s-0.59,1.84-0.59,2.97c0,1.67,0.42,3.02,1.25,4.05s1.92,1.55,3.27,1.55c0.68,0,1.32-0.15,1.9-0.44
		s1.09-0.64,1.54-1.04l1.08,1.66c-0.66,0.58-1.4,1.04-2.2,1.37C501.74,308.18,500.89,308.35,500.01,308.35z"/>
	<path class="st2" d="M511.04,308.35c-1.23,0-2.24-0.37-3.06-1.1c-0.81-0.73-1.22-1.75-1.22-3.06c0-1.61,0.72-2.84,2.15-3.69
		c1.44-0.85,3.71-1.45,6.82-1.79c0-0.62-0.08-1.21-0.26-1.78c-0.17-0.56-0.47-1.02-0.9-1.37c-0.43-0.35-1.05-0.53-1.85-0.53
		c-0.84,0-1.64,0.16-2.38,0.48s-1.41,0.68-1.99,1.08l-0.96-1.72c0.68-0.44,1.52-0.87,2.52-1.28c0.99-0.41,2.07-0.62,3.24-0.62
		c1.79,0,3.08,0.55,3.89,1.64c0.8,1.09,1.21,2.56,1.21,4.38v8.98h-2.05l-0.21-1.75h-0.09c-0.68,0.56-1.43,1.05-2.25,1.48
		S511.96,308.35,511.04,308.35z M511.76,306.36c0.7,0,1.37-0.17,1.99-0.51s1.29-0.82,1.99-1.45v-4.07c-2.43,0.3-4.13,0.75-5.11,1.36
		c-0.97,0.6-1.46,1.38-1.46,2.32c0,0.82,0.25,1.42,0.75,1.79C510.42,306.18,511.04,306.36,511.76,306.36z"/>
	<path class="st2" d="M535.65,314.16v-20.82h2.05l0.21,1.69H538c0.66-0.56,1.39-1.04,2.18-1.45c0.79-0.4,1.62-0.6,2.49-0.6
		c1.89,0,3.32,0.68,4.31,2.03s1.48,3.17,1.48,5.44c0,1.65-0.3,3.06-0.89,4.25s-1.37,2.09-2.32,2.71s-1.99,0.93-3.12,0.93
		c-0.68,0-1.36-0.15-2.03-0.45c-0.67-0.3-1.35-0.71-2.03-1.23l0.06,2.56v4.94L535.65,314.16L535.65,314.16z M541.71,306.27
		c1.21,0,2.2-0.52,3-1.55c0.79-1.03,1.19-2.46,1.19-4.26c0-1.61-0.3-2.91-0.89-3.9s-1.58-1.49-2.97-1.49
		c-0.62,0-1.25,0.17-1.88,0.51s-1.31,0.83-2.03,1.48v7.68c0.66,0.56,1.31,0.96,1.93,1.19C540.67,306.16,541.22,306.27,541.71,306.27
		z"/>
	<path class="st2" d="M555.32,308.35c-1.23,0-2.24-0.37-3.06-1.1c-0.81-0.73-1.22-1.75-1.22-3.06c0-1.61,0.72-2.84,2.15-3.69
		c1.44-0.85,3.71-1.45,6.82-1.79c0-0.62-0.08-1.21-0.26-1.78c-0.17-0.56-0.47-1.02-0.9-1.37c-0.43-0.35-1.05-0.53-1.85-0.53
		c-0.84,0-1.64,0.16-2.38,0.48s-1.41,0.68-1.99,1.08l-0.96-1.72c0.68-0.44,1.52-0.87,2.52-1.28c0.99-0.41,2.07-0.62,3.24-0.62
		c1.79,0,3.08,0.55,3.89,1.64c0.8,1.09,1.21,2.56,1.21,4.38v8.98h-2.05l-0.21-1.75h-0.09c-0.68,0.56-1.43,1.05-2.25,1.48
		S556.25,308.35,555.32,308.35z M556.05,306.36c0.7,0,1.37-0.17,1.99-0.51s1.29-0.82,1.99-1.45v-4.07c-2.43,0.3-4.13,0.75-5.11,1.36
		c-0.97,0.6-1.46,1.38-1.46,2.32c0,0.82,0.25,1.42,0.75,1.79C554.71,306.18,555.32,306.36,556.05,306.36z"/>
	<path class="st2" d="M567.13,307.99v-14.64h2.05l0.21,2.65h0.09c0.5-0.92,1.11-1.66,1.84-2.2c0.72-0.54,1.5-0.81,2.32-0.81
		c0.58,0,1.1,0.1,1.57,0.3l-0.48,2.17c-0.24-0.08-0.46-0.14-0.66-0.18c-0.2-0.04-0.45-0.06-0.75-0.06c-0.62,0-1.27,0.25-1.94,0.75
		s-1.26,1.38-1.76,2.62v9.4L567.13,307.99L567.13,307.99z"/>
	<path class="st2" d="M580.24,308.35c-1.23,0-2.24-0.37-3.06-1.1c-0.81-0.73-1.22-1.75-1.22-3.06c0-1.61,0.72-2.84,2.15-3.69
		c1.44-0.85,3.71-1.45,6.82-1.79c0-0.62-0.08-1.21-0.26-1.78c-0.17-0.56-0.47-1.02-0.9-1.37c-0.43-0.35-1.05-0.53-1.85-0.53
		c-0.84,0-1.64,0.16-2.38,0.48s-1.41,0.68-1.99,1.08l-0.96-1.72c0.68-0.44,1.52-0.87,2.52-1.28c0.99-0.41,2.07-0.62,3.24-0.62
		c1.79,0,3.08,0.55,3.89,1.64c0.8,1.09,1.21,2.56,1.21,4.38v8.98h-2.06l-0.21-1.75h-0.09c-0.68,0.56-1.43,1.05-2.25,1.48
		S581.16,308.35,580.24,308.35z M580.96,306.36c0.7,0,1.37-0.17,1.99-0.51s1.29-0.82,1.99-1.45v-4.07c-2.43,0.3-4.13,0.75-5.11,1.36
		c-0.97,0.6-1.46,1.38-1.46,2.32c0,0.82,0.25,1.42,0.75,1.79C579.62,306.18,580.24,306.36,580.96,306.36z"/>
	<path class="st2" d="M609.85,308.35c-1.83,0-3.29-0.67-4.4-2c-1.11-1.34-1.66-3.22-1.66-5.65c0-1.59,0.3-2.96,0.89-4.11
		s1.38-2.04,2.35-2.67c0.97-0.62,2.01-0.93,3.12-0.93c0.84,0,1.58,0.15,2.2,0.45c0.62,0.3,1.25,0.71,1.9,1.24l-0.12-2.5v-5.63h2.5
		V308h-2.05l-0.21-1.72h-0.09c-0.56,0.56-1.23,1.05-1.99,1.46C611.53,308.14,610.72,308.35,609.85,308.35z M610.39,306.27
		c1.29,0,2.53-0.67,3.74-2.02v-7.65c-0.62-0.56-1.22-0.96-1.79-1.19s-1.16-0.35-1.76-0.35c-0.78,0-1.49,0.24-2.12,0.71
		s-1.14,1.12-1.52,1.96c-0.38,0.83-0.57,1.81-0.57,2.94c0,1.75,0.35,3.12,1.05,4.11C608.11,305.77,609.11,306.27,610.39,306.27z"/>
	<path class="st2" d="M622.84,290.33c-0.48,0-0.88-0.15-1.19-0.44s-0.47-0.69-0.47-1.19c0-0.48,0.16-0.87,0.47-1.17
		c0.31-0.3,0.71-0.45,1.19-0.45s0.88,0.15,1.19,0.45c0.31,0.3,0.47,0.69,0.47,1.17c0,0.5-0.16,0.9-0.47,1.19
		S623.32,290.33,622.84,290.33z M621.57,307.99v-14.64h2.47v14.64H621.57z"/>
	<path class="st2" d="M628.98,307.99v-14.64h2.05l0.21,2.65h0.09c0.5-0.92,1.11-1.66,1.84-2.2c0.72-0.54,1.5-0.81,2.32-0.81
		c0.58,0,1.1,0.1,1.57,0.3l-0.48,2.17c-0.24-0.08-0.46-0.14-0.66-0.18c-0.2-0.04-0.45-0.06-0.75-0.06c-0.62,0-1.27,0.25-1.94,0.75
		s-1.26,1.38-1.76,2.62v9.4L628.98,307.99L628.98,307.99z"/>
	<path class="st2" d="M645.07,308.35c-1.31,0-2.49-0.31-3.55-0.92c-1.07-0.61-1.91-1.49-2.53-2.64c-0.62-1.14-0.93-2.51-0.93-4.1
		c0-1.61,0.32-2.98,0.95-4.13s1.45-2.03,2.46-2.65c1-0.62,2.06-0.93,3.16-0.93c1.87,0,3.31,0.62,4.32,1.87s1.52,2.91,1.52,5
		c0,0.26,0,0.52-0.01,0.77s-0.04,0.47-0.08,0.65h-9.88c0.1,1.55,0.59,2.78,1.46,3.71c0.87,0.92,2.01,1.39,3.42,1.39
		c0.7,0,1.35-0.11,1.94-0.32c0.59-0.21,1.16-0.49,1.7-0.83l0.87,1.63c-0.62,0.4-1.33,0.75-2.12,1.05
		C646.97,308.2,646.07,308.35,645.07,308.35z M640.46,299.49h7.83c0-1.49-0.32-2.62-0.95-3.39s-1.52-1.16-2.67-1.16
		c-1.02,0-1.94,0.4-2.76,1.19C641.11,296.93,640.62,298.05,640.46,299.49z"/>
	<path class="st2" d="M659.86,308.35c-1.29,0-2.45-0.3-3.5-0.9s-1.87-1.48-2.47-2.62c-0.6-1.15-0.9-2.52-0.9-4.13
		c0-1.65,0.33-3.04,0.98-4.19c0.65-1.14,1.52-2.02,2.59-2.62s2.23-0.9,3.48-0.9c0.96,0,1.79,0.17,2.49,0.51
		c0.69,0.34,1.29,0.74,1.79,1.21l-1.27,1.63c-0.42-0.38-0.87-0.69-1.34-0.93s-1-0.36-1.58-0.36c-0.88,0-1.67,0.24-2.37,0.71
		c-0.69,0.47-1.24,1.13-1.63,1.99s-0.59,1.84-0.59,2.97c0,1.67,0.42,3.02,1.25,4.05s1.92,1.55,3.27,1.55c0.68,0,1.32-0.15,1.9-0.44
		s1.09-0.64,1.54-1.04l1.08,1.66c-0.66,0.58-1.4,1.04-2.2,1.37C661.59,308.18,660.74,308.35,659.86,308.35z"/>
	<path class="st2" d="M672.12,308.35c-1.57,0-2.66-0.45-3.27-1.36c-0.61-0.9-0.92-2.08-0.92-3.52v-8.1h-2.17v-1.87l2.29-0.15
		l0.3-4.1h2.08v4.1h3.95v2.02h-3.95v8.13c0,0.9,0.17,1.6,0.5,2.09s0.92,0.74,1.76,0.74c0.26,0,0.54-0.04,0.84-0.14
		c0.3-0.09,0.57-0.17,0.81-0.26l0.48,1.87c-0.4,0.14-0.84,0.27-1.31,0.38C673.05,308.29,672.58,308.35,672.12,308.35z"/>
	<path class="st2" d="M678.96,290.33c-0.48,0-0.88-0.15-1.19-0.44s-0.47-0.69-0.47-1.19c0-0.48,0.16-0.87,0.47-1.17
		c0.31-0.3,0.71-0.45,1.19-0.45s0.88,0.15,1.19,0.45c0.31,0.3,0.47,0.69,0.47,1.17c0,0.5-0.16,0.9-0.47,1.19
		S679.44,290.33,678.96,290.33z M677.69,307.99v-14.64h2.47v14.64H677.69z"/>
	<path class="st2" d="M688.27,307.99L683,293.35h2.56l2.77,8.32c0.22,0.72,0.45,1.45,0.68,2.17s0.46,1.44,0.68,2.14h0.12
		c0.22-0.7,0.45-1.42,0.68-2.14s0.45-1.45,0.65-2.17l2.77-8.32h2.44l-5.18,14.64H688.27z"/>
	<path class="st2" d="M704.75,308.35c-1.18,0-2.29-0.3-3.33-0.9s-1.87-1.48-2.5-2.62c-0.63-1.15-0.95-2.52-0.95-4.13
		c0-1.65,0.32-3.04,0.95-4.19s1.47-2.02,2.5-2.62s2.14-0.9,3.33-0.9c1.21,0,2.32,0.3,3.34,0.9s1.85,1.48,2.49,2.62
		s0.95,2.54,0.95,4.19c0,1.61-0.32,2.98-0.95,4.13c-0.63,1.14-1.46,2.02-2.49,2.62S705.95,308.35,704.75,308.35z M704.75,306.3
		c1.27,0,2.29-0.52,3.06-1.55s1.16-2.38,1.16-4.05c0-1.69-0.39-3.05-1.16-4.1c-0.77-1.04-1.79-1.57-3.06-1.57
		c-1.25,0-2.26,0.52-3.04,1.57c-0.78,1.04-1.17,2.41-1.17,4.1c0,1.67,0.39,3.02,1.17,4.05S703.5,306.3,704.75,306.3z"/>
	<path class="st2" d="M719.21,308.35c-1.04,0-2.04-0.2-2.98-0.59c-0.94-0.39-1.77-0.87-2.47-1.43l1.24-1.66
		c0.64,0.5,1.3,0.92,1.99,1.25c0.68,0.33,1.46,0.5,2.32,0.5c0.96,0,1.69-0.23,2.17-0.68c0.48-0.45,0.72-0.99,0.72-1.61
		c0-0.5-0.17-0.92-0.5-1.26s-0.75-0.63-1.27-0.86c-0.51-0.23-1.04-0.45-1.58-0.65c-0.68-0.26-1.36-0.56-2.02-0.89
		c-0.66-0.33-1.21-0.76-1.63-1.3c-0.42-0.53-0.63-1.21-0.63-2.03c0-1.18,0.45-2.17,1.34-2.97c0.89-0.79,2.13-1.19,3.72-1.19
		c0.9,0,1.75,0.16,2.53,0.48s1.46,0.71,2.02,1.17l-1.21,1.57c-0.5-0.38-1.02-0.69-1.57-0.93c-0.54-0.24-1.13-0.36-1.78-0.36
		c-0.92,0-1.6,0.21-2.03,0.63s-0.65,0.91-0.65,1.48c0,0.46,0.15,0.84,0.45,1.13s0.69,0.54,1.17,0.75s0.99,0.43,1.54,0.65
		c0.7,0.26,1.4,0.56,2.08,0.89c0.68,0.33,1.25,0.77,1.7,1.33c0.45,0.55,0.68,1.29,0.68,2.21c0,0.78-0.21,1.51-0.62,2.17
		s-1.01,1.2-1.81,1.6C721.35,308.15,720.37,308.35,719.21,308.35z"/>
	<path class="st2" d="M745.81,308.35c-1.83,0-3.29-0.67-4.4-2c-1.11-1.34-1.66-3.22-1.66-5.65c0-1.59,0.3-2.96,0.89-4.11
		s1.38-2.04,2.35-2.67c0.97-0.62,2.01-0.93,3.12-0.93c0.84,0,1.58,0.15,2.2,0.45c0.62,0.3,1.25,0.71,1.9,1.24l-0.12-2.5v-5.63h2.5
		V308h-2.05l-0.21-1.72h-0.09c-0.56,0.56-1.23,1.05-1.99,1.46C747.49,308.14,746.68,308.35,745.81,308.35z M746.35,306.27
		c1.29,0,2.53-0.67,3.74-2.02v-7.65c-0.62-0.56-1.22-0.96-1.79-1.19s-1.16-0.35-1.76-0.35c-0.78,0-1.49,0.24-2.12,0.71
		s-1.14,1.12-1.52,1.96c-0.38,0.83-0.57,1.81-0.57,2.94c0,1.75,0.35,3.12,1.05,4.11C744.07,305.77,745.07,306.27,746.35,306.27z"/>
	<path class="st2" d="M763.22,308.35c-1.18,0-2.29-0.3-3.33-0.9s-1.87-1.48-2.5-2.62c-0.63-1.15-0.95-2.52-0.95-4.13
		c0-1.65,0.32-3.04,0.95-4.19s1.47-2.02,2.5-2.62s2.14-0.9,3.33-0.9c1.21,0,2.32,0.3,3.34,0.9s1.85,1.48,2.49,2.62
		s0.95,2.54,0.95,4.19c0,1.61-0.32,2.98-0.95,4.13c-0.63,1.14-1.46,2.02-2.49,2.62S764.43,308.35,763.22,308.35z M763.22,306.3
		c1.27,0,2.29-0.52,3.06-1.55s1.16-2.38,1.16-4.05c0-1.69-0.39-3.05-1.16-4.1c-0.77-1.04-1.79-1.57-3.06-1.57
		c-1.25,0-2.26,0.52-3.04,1.57c-0.78,1.04-1.17,2.41-1.17,4.1c0,1.67,0.39,3.02,1.17,4.05C760.97,305.78,761.98,306.3,763.22,306.3z
		"/>
	<path class="st2" d="M779.64,308.35c-1.29,0-2.45-0.3-3.5-0.9s-1.87-1.48-2.47-2.62c-0.6-1.15-0.9-2.52-0.9-4.13
		c0-1.65,0.33-3.04,0.98-4.19c0.65-1.14,1.52-2.02,2.59-2.62s2.23-0.9,3.48-0.9c0.96,0,1.79,0.17,2.49,0.51
		c0.69,0.34,1.29,0.74,1.79,1.21l-1.27,1.63c-0.42-0.38-0.87-0.69-1.34-0.93s-1-0.36-1.58-0.36c-0.88,0-1.67,0.24-2.37,0.71
		c-0.69,0.47-1.24,1.13-1.63,1.99s-0.59,1.84-0.59,2.97c0,1.67,0.42,3.02,1.25,4.05s1.92,1.55,3.27,1.55c0.68,0,1.32-0.15,1.9-0.44
		s1.09-0.64,1.54-1.04l1.08,1.66c-0.66,0.58-1.4,1.04-2.2,1.37C781.37,308.18,780.53,308.35,779.64,308.35z"/>
	<path class="st2" d="M792.9,308.35c-1.31,0-2.49-0.31-3.55-0.92c-1.07-0.61-1.91-1.49-2.53-2.64c-0.62-1.14-0.93-2.51-0.93-4.1
		c0-1.61,0.32-2.98,0.95-4.13s1.45-2.03,2.46-2.65c1-0.62,2.06-0.93,3.16-0.93c1.87,0,3.31,0.62,4.32,1.87s1.52,2.91,1.52,5
		c0,0.26,0,0.52-0.01,0.77s-0.04,0.47-0.08,0.65h-9.88c0.1,1.55,0.59,2.78,1.46,3.71c0.87,0.92,2.01,1.39,3.42,1.39
		c0.7,0,1.35-0.11,1.94-0.32c0.59-0.21,1.16-0.49,1.7-0.83l0.87,1.63c-0.62,0.4-1.33,0.75-2.12,1.05
		C794.8,308.2,793.9,308.35,792.9,308.35z M788.29,299.49h7.83c0-1.49-0.32-2.62-0.95-3.39s-1.52-1.16-2.67-1.16
		c-1.02,0-1.94,0.4-2.76,1.19C788.94,296.93,788.45,298.05,788.29,299.49z"/>
	<path class="st2" d="M801.91,307.99v-14.64h2.05l0.21,2.11h0.09c0.7-0.7,1.45-1.29,2.23-1.76s1.68-0.71,2.68-0.71
		c1.55,0,2.68,0.49,3.39,1.46s1.07,2.4,1.07,4.26v9.28h-2.47v-8.95c0-1.37-0.22-2.36-0.66-2.98c-0.44-0.62-1.14-0.93-2.11-0.93
		c-0.74,0-1.41,0.19-2,0.57s-1.26,0.94-2,1.69v10.6L801.91,307.99L801.91,307.99z"/>
	<path class="st2" d="M822.99,308.35c-1.57,0-2.66-0.45-3.27-1.36c-0.61-0.9-0.92-2.08-0.92-3.52v-8.1h-2.17v-1.87l2.29-0.15
		l0.3-4.1h2.08v4.1h3.95v2.02h-3.95v8.13c0,0.9,0.17,1.6,0.5,2.09s0.92,0.74,1.76,0.74c0.26,0,0.54-0.04,0.84-0.14
		c0.3-0.09,0.57-0.17,0.81-0.26l0.48,1.87c-0.4,0.14-0.84,0.27-1.31,0.38C823.92,308.29,823.46,308.35,822.99,308.35z"/>
	<path class="st2" d="M834.08,308.35c-1.31,0-2.49-0.31-3.55-0.92c-1.07-0.61-1.91-1.49-2.53-2.64c-0.62-1.14-0.93-2.51-0.93-4.1
		c0-1.61,0.32-2.98,0.95-4.13s1.45-2.03,2.46-2.65c1-0.62,2.06-0.93,3.16-0.93c1.87,0,3.31,0.62,4.32,1.87s1.52,2.91,1.52,5
		c0,0.26,0,0.52-0.01,0.77s-0.04,0.47-0.08,0.65h-9.88c0.1,1.55,0.59,2.78,1.46,3.71c0.87,0.92,2.01,1.39,3.42,1.39
		c0.7,0,1.35-0.11,1.94-0.32c0.59-0.21,1.16-0.49,1.7-0.83l0.87,1.63c-0.62,0.4-1.33,0.75-2.12,1.05
		C835.98,308.2,835.08,308.35,834.08,308.35z M829.47,299.49h7.83c0-1.49-0.32-2.62-0.95-3.39s-1.52-1.16-2.67-1.16
		c-1.02,0-1.94,0.4-2.76,1.19C830.12,296.93,829.63,298.05,829.47,299.49z"/>
	<path class="st2" d="M846.91,308.35c-1.04,0-2.04-0.2-2.98-0.59c-0.94-0.39-1.77-0.87-2.47-1.43l1.24-1.66
		c0.64,0.5,1.3,0.92,1.99,1.25c0.68,0.33,1.46,0.5,2.32,0.5c0.96,0,1.69-0.23,2.17-0.68c0.48-0.45,0.72-0.99,0.72-1.61
		c0-0.5-0.17-0.92-0.5-1.26s-0.75-0.63-1.27-0.86c-0.51-0.23-1.04-0.45-1.58-0.65c-0.68-0.26-1.36-0.56-2.02-0.89
		c-0.66-0.33-1.21-0.76-1.63-1.3c-0.42-0.53-0.63-1.21-0.63-2.03c0-1.18,0.45-2.17,1.34-2.97c0.89-0.79,2.13-1.19,3.72-1.19
		c0.9,0,1.75,0.16,2.53,0.48s1.46,0.71,2.02,1.17l-1.21,1.57c-0.5-0.38-1.02-0.69-1.57-0.93c-0.54-0.24-1.13-0.36-1.78-0.36
		c-0.92,0-1.6,0.21-2.03,0.63s-0.65,0.91-0.65,1.48c0,0.46,0.15,0.84,0.45,1.13s0.69,0.54,1.17,0.75s0.99,0.43,1.54,0.65
		c0.7,0.26,1.4,0.56,2.08,0.89c0.68,0.33,1.25,0.77,1.7,1.33c0.45,0.55,0.68,1.29,0.68,2.21c0,0.78-0.21,1.51-0.62,2.17
		s-1.01,1.2-1.81,1.6C849.06,308.15,848.08,308.35,846.91,308.35z"/>
</g>
</svg>
