<?xml version="1.0" encoding="utf-8"?>
<!-- Generator: Adobe Illustrator 26.2.1, SVG Export Plug-In . SVG Version: 6.00 Build 0)  -->
<svg version="1.1" id="Capa_1" xmlns="http://www.w3.org/2000/svg" xmlns:xlink="http://www.w3.org/1999/xlink" x="0px" y="0px"
	 viewBox="0 0 50 50" style="enable-background:new 0 0 50 50;" xml:space="preserve">
<style type="text/css">
	.st0{fill:#FFFFFF;}
</style>
<g>
	<path d="M18.81,8.34v20.01h-1.57v-4.48h-1.57V22.3h-3.16v2.99h1.57v1.57h-1.57v-1.57h-1.57v-4.57h4.73v1.57h1.57V8.32h1.57
		c0-1.57,0-1.57,0-1.57h3.19v1.57h1.57v6.12h3.16v1.57h-3.16v6.2h-1.57V8.32h-3.19V8.34z M34.47,19.17h1.57v1.57h-1.57L34.47,19.17
		L34.47,19.17z M37.59,20.71v10.78h-1.57V20.71H37.59L37.59,20.71z M32.93,19.17v4.63h-1.57v-6.2h-3.09v4.63H26.7v-6.2h4.66v1.57
		h3.09v1.57H32.93L32.93,19.17z M20.38,38.97h12.48v-2.93h1.57V31.5H36v4.5h-1.57v4.5H18.81v-4.5h-1.57v-3.06h1.57v3.06h1.57V38.97
		L20.38,38.97z M15.68,26.89v3.03h1.57v3.06h-1.57v-3.06h-1.57v-3.06h1.57V26.89z"/>
	<polygon class="st0" points="20.38,38.97 32.86,38.97 32.86,36.04 34.44,36.04 34.44,31.49 36.01,31.49 36.01,20.77 34.47,20.77 
		34.47,19.17 32.93,19.17 32.93,23.8 31.34,23.8 31.34,17.6 28.25,17.6 28.25,22.23 26.68,22.23 26.68,16.14 23.57,16.14 
		23.57,22.23 21.98,22.23 21.98,8.34 18.81,8.34 18.81,28.35 17.22,28.35 17.22,23.87 15.65,23.87 15.65,22.44 12.51,22.44 
		12.51,25.29 14.08,25.29 14.08,26.86 15.68,26.86 15.68,29.92 17.26,29.92 17.26,32.98 18.81,32.98 18.81,36.01 20.38,36.01 	"/>
</g>
</svg>
