<?xml version="1.0" encoding="utf-8"?>
<!-- Generator: Adobe Illustrator 26.2.1, SVG Export Plug-In . SVG Version: 6.00 Build 0)  -->
<svg version="1.1" id="Capa_1" xmlns="http://www.w3.org/2000/svg" xmlns:xlink="http://www.w3.org/1999/xlink" x="0px" y="0px"
	 viewBox="0 0 50 50" style="enable-background:new 0 0 50 50;" xml:space="preserve">
<style type="text/css">
	.st0{fill:#3CB037;}
	.st1{fill:#00833E;}
	.st2{fill:#FFFFFF;}
</style>
<g>
	<g>
		<circle class="st0" cx="24.74" cy="25.29" r="21.95"/>
		<path class="st1" d="M2.75,25.29C2.6,9.53,18.61-1.68,33.25,4.76c17.98,7.87,18.4,33.52,0.09,41.29
			C18.63,52.24,2.58,41.1,2.75,25.29L2.75,25.29z M2.85,25.29c0.17,19.05,23.59,28.5,37.08,15.19c8.38-7.99,8.71-22.5,0.21-30.58
			C26.64-3.38,2.94,6.28,2.85,25.29L2.85,25.29z"/>
	</g>
	<g>
		<g>
			<path class="st2" d="M17.66,36.44h14.78c2.16,0,3.91-1.75,3.91-3.91V21.67h-22.6v10.86C13.75,34.69,15.5,36.44,17.66,36.44z"/>
			<path class="st1" d="M17.66,36.39c4.62,0.03,9.28-0.38,13.9-0.4c0,0,0.98,0,0.98,0c1.81,0,3.41-1.59,3.48-3.4
				c0.02-0.62,0.08-2.33,0.1-2.97c0.07-2.65,0.09-5.3,0.05-7.94l0.18,0.18l-5.65,0.15c-5.65,0.15-11.3,0.22-16.95,0.2
				c0,0,0.53-0.53,0.53-0.53c-0.02,2.83-0.08,5.67-0.22,8.5l-0.09,2.13C13.72,34.42,15.5,36.41,17.66,36.39L17.66,36.39z
				 M17.66,36.49c-2.22,0.06-4.2-1.97-4.13-4.19c0,0-0.09-2.13-0.09-2.13c-0.15-3.01-0.2-6.01-0.22-9.02
				c7.6-0.06,15.51,0.13,23.13,0.34c0,0,0.18,0,0.18,0l0,0.18c-0.04,2.65-0.03,5.3,0.05,7.94c0.02,0.66,0.08,2.35,0.09,2.98
				c0.08,2.24-1.86,4.25-4.1,4.28C27.6,36.93,22.62,36.45,17.66,36.49L17.66,36.49z"/>
		</g>
		<g>
			<path class="st1" d="M23.54,32.89c-0.95,0-1.72-0.77-1.72-1.72h-0.78c0,1.38,1.12,2.5,2.5,2.5c1.38,0,2.5-1.12,2.5-2.5
				c0-0.89-0.47-1.67-1.17-2.11c0.7-0.44,1.17-1.23,1.17-2.11c0-1.38-1.12-2.5-2.5-2.5c-1.38,0-2.5,1.12-2.5,2.5h0.78
				c0-0.95,0.77-1.72,1.72-1.72s1.72,0.77,1.72,1.72c0,0.95-0.77,1.72-1.72,1.72h-0.6v0.78h0.6v0.01c0.95,0,1.72,0.77,1.72,1.72
				C25.26,32.12,24.49,32.89,23.54,32.89z"/>
			<polygon class="st1" points="28.28,33.67 29.05,33.67 29.05,24.43 27.45,24.43 27.45,25.21 28.28,25.21 			"/>
		</g>
		<rect x="13.75" y="20.06" class="st1" width="22.6" height="1.61"/>
		<g>
			<path class="st2" d="M36.35,20.06h-22.6v-1.94c0-1.95,1.58-3.53,3.53-3.53h15.54c1.95,0,3.53,1.58,3.53,3.53V20.06z"/>
			<path class="st1" d="M36.38,20.09c-7.44,0.61-15.21,0.21-22.63,0.13c0,0-0.16,0.01-0.16,0.01c-0.02-0.69-0.01-1.39-0.04-2.08
				c-0.12-2.11,1.74-4.04,3.87-3.97c2.54-0.07,5.08-0.1,7.63-0.13c2.54-0.02,5.08,0.04,7.63,0.11c1.38-0.03,2.79,0.78,3.42,2.02
				C36.81,17.41,36.42,18.89,36.38,20.09L36.38,20.09z M36.31,20.02c-0.13-1.04-0.02-2.68-0.69-3.55c-0.65-1-1.8-1.54-2.95-1.47
				c-2.54,0.07-5.08,0.14-7.63,0.11c-2.54-0.03-5.08-0.05-7.63-0.13c-1.15-0.07-2.31,0.47-2.95,1.47c-0.71,1.04-0.5,2.39-0.55,3.59
				c0,0-0.17-0.17-0.17-0.17C21.38,19.79,28.68,19.44,36.31,20.02L36.31,20.02z"/>
		</g>
		<path class="st1" d="M19.72,17.99h-0.35c-0.8,0-1.44-0.64-1.44-1.44v-3.94c0-0.8,0.64-1.44,1.44-1.44h0.35
			c0.8,0,1.44,0.64,1.44,1.44v3.94C21.16,17.35,20.52,17.99,19.72,17.99z"/>
		<path class="st1" d="M30.84,17.99h-0.35c-0.8,0-1.44-0.64-1.44-1.44v-3.94c0-0.8,0.64-1.44,1.44-1.44h0.35
			c0.8,0,1.44,0.64,1.44,1.44v3.94C32.28,17.35,31.64,17.99,30.84,17.99z"/>
		<g>
			<circle class="st2" cx="14.31" cy="22.17" r="4.81"/>
			<path class="st1" d="M9.46,22.17c-0.09-4.7,5.1-7.05,8.37-3.51c3.21,3.22,1.18,8.85-3.51,8.85C11.45,27.57,9.34,24.83,9.46,22.17
				L9.46,22.17z M9.56,22.17c0.39,5.61,8.81,5.7,9.29,0C19.15,16.1,9.76,16.6,9.56,22.17L9.56,22.17z"/>
		</g>
		<path class="st1" d="M14.31,22.02c0-1.02,0-1.65,0-3.94c2.18,0,3.94,1.76,3.94,3.94C17.24,22.02,15.5,22.02,14.31,22.02z"/>
	</g>
</g>
</svg>
