<?xml version="1.0" encoding="utf-8"?>
<!-- Generator: Adobe Illustrator 26.2.1, SVG Export Plug-In . SVG Version: 6.00 Build 0)  -->
<svg version="1.1" id="Capa_1" xmlns="http://www.w3.org/2000/svg" xmlns:xlink="http://www.w3.org/1999/xlink" x="0px" y="0px"
	 viewBox="0 0 50 50" style="enable-background:new 0 0 50 50;" xml:space="preserve">
<style type="text/css">
	.st0{fill:#3CB037;}
	.st1{fill:#00833E;}
	.st2{fill:#FFFFFF;}
	.st3{fill:#EAC81F;}
</style>
<g>
	<circle class="st0" cx="24.55" cy="25.49" r="22.06"/>
	<g>
		<path class="st1" d="M2.43,25.49C2.29,9.65,18.38-1.62,33.09,4.85c18.08,7.91,18.5,33.69,0.09,41.5
			C18.4,52.58,2.27,41.38,2.43,25.49L2.43,25.49z M2.53,25.49c0.17,19.15,23.71,28.66,37.28,15.27c8.43-8.03,8.75-22.62,0.21-30.74
			C26.45-3.33,2.63,6.38,2.53,25.49L2.53,25.49z"/>
	</g>
</g>
<g>
	<polygon class="st2" points="29.49,42.46 24.55,39.54 19.6,42.46 19.6,25.62 29.49,25.62 	"/>
	<path class="st1" d="M29.52,42.51c-1.4-0.71-3.71-1.89-5.15-2.66c0,0,0.36,0,0.36,0c-1.84,1.15-3.7,2.3-5.57,3.4
		c0.04-5.88,0.52-11.75,0.14-17.63c0,0-0.01-0.29-0.01-0.29s0.32-0.01,0.32-0.01c3.47-0.15,6.94-0.18,10.42-0.23
		C30.12,30.28,29.72,37.28,29.52,42.51L29.52,42.51z M29.47,42.42c-0.19-4.89-0.57-12.01-0.5-16.8c0,0,0.53,0.53,0.53,0.53
		c-3.3-0.05-6.6-0.08-9.89-0.22c0,0,0.3-0.3,0.3-0.3c-0.35,5.62,0.04,11.23,0.14,16.85c0,0-0.68-0.39-0.68-0.39
		c1.72-1,3.45-1.99,5.19-2.94C26.08,40.12,27.94,41.42,29.47,42.42L29.47,42.42z"/>
</g>
<g>
	<circle class="st3" cx="24.55" cy="21.01" r="10.67"/>
	<path class="st1" d="M13.82,21.01c-0.04-9.94,11.38-14.84,18.39-7.67c4.14,4.09,4.46,11.37,0.21,15.55
		C25.39,36.02,13.71,30.91,13.82,21.01L13.82,21.01z M13.92,21.01C13.95,30,25.5,34.47,31.76,28.23c4.01-3.75,4.34-10.8,0.21-14.64
		C25.76,7.36,13.83,12.11,13.92,21.01L13.92,21.01z"/>
</g>
<g>
	<circle class="st2" cx="24.55" cy="21.01" r="5.23"/>
	<path class="st1" d="M19.26,21.01c-0.09-5.08,5.56-7.62,9.1-3.82c3.48,3.48,1.25,9.58-3.82,9.58
		C21.45,26.85,19.14,23.91,19.26,21.01L19.26,21.01z M19.36,21.01c0.42,6.18,9.65,6.26,10.15,0C29.8,14.38,19.58,14.88,19.36,21.01
		L19.36,21.01z"/>
</g>
</svg>
