<?xml version="1.0" encoding="utf-8"?>
<!-- Generator: Adobe Illustrator 26.2.1, SVG Export Plug-In . SVG Version: 6.00 Build 0)  -->
<svg version="1.1" id="Capa_1" xmlns="http://www.w3.org/2000/svg" xmlns:xlink="http://www.w3.org/1999/xlink" x="0px" y="0px"
	 viewBox="0 0 43.55 66.66" style="enable-background:new 0 0 43.55 66.66;" xml:space="preserve">
<style type="text/css">
	.st0{fill:#EAF5FF;}
	.st1{fill:#C1272D;}
	.st2{fill:#FF0000;}
	.st3{fill:#808080;}
	.st4{fill:#C9D4FF;}
	.st5{fill:#FFFFFF;}
</style>
<g>
	<g>
		<polygon class="st0" points="33.82,37.93 33.82,41.98 11.21,41.98 9.27,41.98 8.2,39.73 11.3,36.95 33.82,36.95 		"/>
		<path class="st1" d="M11.35,35.81l-4.12,3.92V9.51C7.25,7.15,8.84,5,11.35,4.73V35.81z"/>
		<path class="st1" d="M11.27,43.88c-2.23,0-4.03-1.81-4.03-4.04c0-0.04,0-0.08,0-0.11c0.06-2.2,1.76-3.92,4.12-3.92h24.97v1.11
			c0,0.55-0.45,1-1,1h0H11.33c-2.71,0.08-2.78,3.93-0.06,4.05h24.05c0.55,0,1,0.45,1,1c0,0,0,0,0,0v0.9L11.27,43.88z"/>
		<path class="st2" d="M11.35,35.81V4.73h22.2c1.53,0,2.77,1.24,2.77,2.77l0,0v28.31L11.35,35.81z"/>
		<path class="st3" d="M33.78,39.42H11.9c-0.24,0.01-0.42,0.21-0.4,0.45c0.01,0.22,0.19,0.39,0.4,0.4h21.88V39.42z"/>
		<rect x="12.57" y="39.42" class="st4" width="4.07" height="2.56"/>
		<polygon class="st5" points="13.81,39.42 13.81,46.3 16.65,44.98 19.48,46.3 19.48,39.42 		"/>
		<path d="M34.28,42.5c-0.19,0-0.36-0.1-0.45-0.26c-1.26-2.13-0.06-4.46-0.01-4.56c0.33-0.6,1.24-0.13,0.93,0.49
			c-0.01,0.02-0.97,1.92-0.01,3.54c0.15,0.25,0.06,0.58-0.2,0.72C34.46,42.48,34.37,42.5,34.28,42.5z"/>
		<path d="M7.24,40.26c-0.29,0-0.52-0.24-0.52-0.52V9.51C6.7,7.94,7.37,6.43,8.56,5.39C9.32,4.71,10.28,4.3,11.3,4.2
			c0.29-0.03,0.55,0.18,0.57,0.47c0,0.02,0,0.03,0,0.05v28.57c-0.01,0.68-1.04,0.7-1.05,0V5.35C9,5.81,7.74,7.61,7.76,9.51v30.22
			C7.76,40.02,7.52,40.25,7.24,40.26z"/>
		<path d="M13.81,44.4c-2.12-0.04-4.17,0.36-5.81-1.38c-0.86-0.88-1.33-2.08-1.29-3.31c0.07-2.44,2.15-4.43,4.64-4.43h24.97
			c0.29,0,0.52,0.24,0.52,0.52v1.11c0,0.84-0.68,1.53-1.53,1.53H11.33c-1.33-0.01-2.07,1.58-1.14,2.54c0.28,0.3,0.68,0.47,1.09,0.46
			h2.54c0.69,0.01,0.69,1.04,0,1.05h-2.54c-0.7,0-1.37-0.28-1.85-0.79c-1.56-1.6-0.35-4.34,1.9-4.31h23.99
			c0.26,0,0.48-0.21,0.48-0.48v-0.59H11.35c-3.12-0.01-4.78,3.74-2.6,5.96c0.66,0.68,1.57,1.07,2.52,1.06h2.54
			C14.5,43.36,14.5,44.39,13.81,44.4z"/>
		<path d="M36.32,44.4H21.6c-0.29,0-0.52-0.24-0.52-0.52s0.24-0.52,0.52-0.52h14.2v-0.37c0-0.26-0.21-0.48-0.48-0.48H21.6
			c-0.68-0.01-0.7-1.04,0-1.05h13.72c0.84,0,1.53,0.68,1.53,1.53v0.9C36.85,44.17,36.61,44.4,36.32,44.4z"/>
		<path d="M19.48,47.25c-0.02,0.1-2.75-1.25-2.83-1.26l-2.61,1.21c-0.26,0.12-0.58,0.01-0.7-0.26c-0.03-0.07-0.05-0.14-0.05-0.22
			v-6.88c0-0.29,0.24-0.52,0.52-0.52h5.67c0.29,0,0.52,0.24,0.52,0.52v6.88C20,47.01,19.77,47.25,19.48,47.25z M16.65,44.88
			c0.07-0.07,2.2,0.99,2.31,1.02v-5.53h-4.62v5.53C14.46,45.87,16.56,44.81,16.65,44.88L16.65,44.88z"/>
		<path d="M36.32,36.33c-0.29,0-0.52-0.24-0.52-0.52V7.49c0-1.24-1.01-2.24-2.24-2.24h-22.2c-0.29,0-0.52-0.24-0.52-0.52
			c0-0.29,0.24-0.52,0.52-0.52h22.2c1.82,0,3.29,1.48,3.29,3.29v28.31C36.85,36.1,36.61,36.33,36.32,36.33
			C36.32,36.33,36.32,36.33,36.32,36.33z"/>
	</g>
	<g>
		<path d="M9.09,61.2v-7.3h1.8l1.18,3.25c0.07,0.21,0.15,0.43,0.21,0.66c0.07,0.23,0.14,0.46,0.21,0.68h0.04
			c0.07-0.22,0.14-0.45,0.21-0.68c0.06-0.23,0.13-0.45,0.21-0.66l1.15-3.25h1.79v7.3h-1.5v-2.68c0-0.24,0.01-0.51,0.04-0.8
			s0.06-0.59,0.09-0.89c0.03-0.3,0.06-0.56,0.08-0.8h-0.04l-0.59,1.74l-1.04,2.79h-0.91l-1.04-2.79l-0.58-1.74h-0.04
			c0.03,0.23,0.06,0.5,0.09,0.8c0.03,0.3,0.06,0.6,0.08,0.89s0.04,0.56,0.04,0.8v2.68H9.09z"/>
		<path d="M19.97,61.33c-0.53,0-1.01-0.12-1.43-0.35c-0.43-0.23-0.76-0.56-1.01-1c-0.25-0.43-0.37-0.96-0.37-1.57
			c0-0.61,0.12-1.12,0.38-1.56s0.58-0.77,0.98-1c0.4-0.24,0.83-0.35,1.27-0.35c0.53,0,0.97,0.12,1.32,0.35
			c0.35,0.23,0.61,0.55,0.78,0.95c0.18,0.4,0.26,0.85,0.26,1.36c0,0.14-0.01,0.28-0.02,0.42s-0.03,0.24-0.04,0.31h-3.33
			c0.07,0.4,0.24,0.7,0.5,0.89c0.26,0.19,0.57,0.29,0.94,0.29c0.4,0,0.8-0.12,1.2-0.37l0.55,1c-0.28,0.19-0.6,0.35-0.95,0.46
			C20.64,61.27,20.3,61.33,19.97,61.33z M18.74,57.81h2c0-0.3-0.07-0.56-0.22-0.76c-0.15-0.2-0.38-0.3-0.71-0.3
			c-0.25,0-0.48,0.09-0.68,0.26C18.93,57.2,18.8,57.46,18.74,57.81z"/>
		<path d="M23.29,61.2v-5.55h1.34l0.11,0.71h0.04c0.24-0.22,0.5-0.42,0.79-0.59s0.62-0.25,0.99-0.25c0.61,0,1.04,0.2,1.32,0.6
			c0.27,0.4,0.41,0.95,0.41,1.64v3.45h-1.65v-3.24c0-0.4-0.05-0.68-0.16-0.83c-0.11-0.15-0.28-0.22-0.52-0.22
			c-0.21,0-0.39,0.05-0.54,0.14c-0.15,0.09-0.31,0.23-0.49,0.4v3.75H23.29z"/>
		<path d="M31.37,61.33c-0.61,0-1.04-0.2-1.32-0.6c-0.27-0.4-0.41-0.95-0.41-1.64v-3.45h1.65v3.24c0,0.4,0.06,0.67,0.17,0.82
			c0.11,0.15,0.29,0.23,0.53,0.23c0.21,0,0.38-0.05,0.53-0.14c0.14-0.1,0.29-0.25,0.46-0.47v-3.67h1.65v5.55h-1.35l-0.12-0.77h-0.03
			c-0.23,0.28-0.48,0.5-0.76,0.66C32.08,61.25,31.75,61.33,31.37,61.33z M32.27,54.79l-0.81-0.81l1.72-2.04l1.11,1.09L32.27,54.79z"
			/>
	</g>
</g>
</svg>
