<?xml version="1.0" encoding="utf-8"?>
<!-- Generator: Adobe Illustrator 26.2.1, SVG Export Plug-In . SVG Version: 6.00 Build 0)  -->
<svg version="1.1" id="Capa_1" xmlns="http://www.w3.org/2000/svg" xmlns:xlink="http://www.w3.org/1999/xlink" x="0px" y="0px"
	 viewBox="0 0 50 50" style="enable-background:new 0 0 50 50;" xml:space="preserve">
<style type="text/css">
	.st0{fill:#BA0C2F;}
	.st1{fill:#661D32;}
	.st2{fill:#FFFFFF;}
</style>
<g>
	<circle class="st0" cx="24.5" cy="25.5" r="22.1"/>
	<g>
		<path class="st1" d="M2.4,25.5C2.3,9.6,18.4-1.6,33.1,4.8c18.1,7.9,18.5,33.7,0.1,41.5C18.4,52.6,2.3,41.4,2.4,25.5L2.4,25.5z
			 M2.5,25.5c0.2,19.1,23.7,28.7,37.3,15.3c8.4-8,8.8-22.6,0.2-30.7C26.5-3.3,2.6,6.4,2.5,25.5L2.5,25.5z"/>
	</g>
</g>
<g>
	<rect x="28.6" y="31.9" class="st0" width="1" height="2.8"/>
	<path class="st2" d="M29.6,34.7c-0.2,0.2-0.9,0.4-1.4,0.4c0-0.4-0.1-0.8-0.1-1.1c0.1-0.7,0.5-1.4,0.2-2.1l0-0.2
		c0.6-0.2,1.2-0.3,1.8-0.3C30.2,32.4,30.1,33.8,29.6,34.7L29.6,34.7z M29.6,34.6c-0.3-1.1-0.6-1.8-0.5-2.8l0.5,0.5
		c-0.3,0-0.7-0.1-1-0.2l0.3-0.3c-0.3,0.7,0,1.4,0.2,2.1c0,0.2,0,0.5,0,0.7l-0.4-0.4C28.8,34.3,29.1,34.5,29.6,34.6L29.6,34.6z"/>
</g>
<g>
	<path class="st2" d="M23.9,37.1c0.6-2,1.7-3.6,3-5.2l0.1,0c1.7,0.1,3.4-0.3,5.1-0.3l0.2,0.3c1,1.6,1.8,3.4,2.3,5.2l-0.1,0
		c-0.6-0.7-1.2-1.5-1.7-2.3c-0.5-0.8-1-1.6-1.4-2.5l0.4,0.3c-1.6,0-3.2-0.5-4.8-0.3l0.1-0.1C26.4,34.1,25.4,35.8,23.9,37.1
		C24,37.2,23.9,37.1,23.9,37.1L23.9,37.1z"/>
</g>
<g>
	<rect x="19.5" y="16.4" class="st0" width="20.1" height="2.3"/>
	<path class="st1" d="M39.7,18.7C32.9,19,25.9,19.2,19,19.2c0-0.3,0-2.5,0-2.8v-0.5h0.5c6.7,0,13.4,0.1,20.1,0.4l0.1,0l0,0.1
		L39.7,18.7L39.7,18.7z M39.7,18.7l-0.1-2.3l0.1,0.1c-6.7,0.3-13.4,0.4-20.1,0.4l0.5-0.5l0,2.3l-0.5-0.5
		C26.3,18.2,32.8,18.5,39.7,18.7L39.7,18.7z"/>
</g>
<g>
	<rect x="19.5" y="18.7" class="st2" width="20.1" height="13.2"/>
	<path class="st1" d="M39.7,31.9c-6.2,0.1-14.5,0.4-20.6,0.4v-0.4L19,18.7v-0.5h0.5c6.1,0,14.5,0,20.5,0.2
		C40,22.4,39.8,27.8,39.7,31.9L39.7,31.9z M39.7,31.9c-0.1-3.9-0.3-9.4-0.3-13.2l0.3,0.3c-5.8,0.1-14.2,0.1-20.1,0.2l0.5-0.5
		L20,31.9l-0.4-0.4C25.3,31.5,33.8,31.7,39.7,31.9L39.7,31.9z"/>
</g>
<g>
	<circle class="st2" cx="14.9" cy="16.1" r="2.7"/>
	<path class="st1" d="M12.1,16.1c0-4.4,5.2-3.9,5.8,0C18.1,20.3,11.9,20.6,12.1,16.1L12.1,16.1z M12.2,16.1c0,1.4,1.5,2.2,2.7,2.2
		c1.2,0,2.3-1,2.5-2.2C17.7,12.8,12.3,13.2,12.2,16.1L12.2,16.1z"/>
</g>
<g>
	<path class="st2" d="M25.2,21.1c0-0.5-0.4-0.9-0.9-0.9h-7.2h-3.8h-0.2l0,0c-1.3,0-2.3,1-2.3,2.3v6.1c0,1.3,1,2.3,2.3,2.3h0v6.6h4.1
		V22h7.2C24.8,22,25.2,21.6,25.2,21.1L25.2,21.1z"/>
	<path class="st1" d="M25.2,21.1c0-0.5-0.5-0.9-1.1-0.8l-1.6,0l-3.3,0.1c-1.9,0.1-4.6,0.2-6.5,0.2c-0.9,0.1-1.6,0.9-1.7,1.8L11,25.8
		c0.1,1.5-0.6,3.4,0.7,4.5c0.4,0.4,1,0.5,1.6,0.5V31c0,2.2,0.1,4.4,0.2,6.6l-0.4-0.3l4.1-0.1l-0.5,0.5c-0.1-5.2-0.2-10.4,0.1-15.6
		l0-0.4l0.4,0l4.3,0.2c0.7,0,1.4,0.1,2.2,0.1C24.3,22,25.2,22,25.2,21.1L25.2,21.1z M25.3,21.1c0,1-1,1-1.7,1c-0.7,0-1.4,0-2.2,0.1
		l-4.3,0.2l0.4-0.4c0.2,5.2,0.1,10.4,0.1,15.6v0.5l-0.5,0L13,38l-0.4,0c0.1-2.3,0.2-4.7,0.2-7l0.2,0.2c-1.2,0-2.3-0.9-2.4-2.1
		c-0.1-1.1-0.1-2.2-0.1-3.3l-0.1-3.3c-0.1-1.7,1.6-3,3.2-2.7c2.8,0,6.1,0.2,9,0.3l1.6,0C24.7,20.1,25.3,20.5,25.3,21.1L25.3,21.1z"
		/>
</g>
</svg>
