<?xml version="1.0" encoding="utf-8"?>
<!-- Generator: Adobe Illustrator 26.2.1, SVG Export Plug-In . SVG Version: 6.00 Build 0)  -->
<svg version="1.1" id="Capa_1" xmlns="http://www.w3.org/2000/svg" xmlns:xlink="http://www.w3.org/1999/xlink" x="0px" y="0px"
	 viewBox="0 0 125.5 62.32" style="enable-background:new 0 0 125.5 62.32;" xml:space="preserve">
<style type="text/css">
	.st0{fill:#0067B9;}
	.st1{fill:#F2F2F2;}
	.st2{fill:#002F6C;}
</style>
<path class="st0" d="M9.87,3.32h43.48c3.31,0,6,2.69,6,6V52.8c0,3.31-2.69,6-6,6H9.87c-3.31,0-6-2.69-6-6V9.32
	C3.87,6.01,6.56,3.32,9.87,3.32z"/>
<path class="st0" d="M72.81,3.32h43.48c3.31,0,6,2.69,6,6V52.8c0,3.31-2.69,6-6,6H72.81c-3.31,0-6-2.69-6-6V9.32
	C66.81,6.01,69.49,3.32,72.81,3.32z"/>
<g>
	<polygon class="st1" points="99.11,29.96 94.53,25.38 78.39,25.38 78.39,34.53 94.53,34.53 	"/>
	
		<rect x="94.59" y="15.03" transform="matrix(0.7071 -0.7071 0.7071 0.7071 14.0634 76.3261)" class="st1" width="9.15" height="12.32"/>
	<path class="st2" d="M116.4,29.94c0-0.22-0.09-0.43-0.24-0.59L98.63,11.83c-0.32-0.33-0.85-0.33-1.18,0l-7.65,7.65
		c-0.16,0.16-0.24,0.37-0.24,0.59c0,0.22,0.09,0.43,0.24,0.59l3.06,3.06h-15.3c-0.46,0-0.84,0.37-0.84,0.84v10.82
		c0,0.46,0.37,0.84,0.84,0.84h15.3l-3.06,3.06c-0.16,0.16-0.24,0.37-0.24,0.59s0.09,0.43,0.24,0.59l7.65,7.65
		c0.16,0.16,0.38,0.24,0.59,0.24s0.43-0.08,0.59-0.24l4.28-4.28c0.33-0.33,0.33-0.85,0-1.18l0,0c-0.33-0.33-0.85-0.33-1.18,0
		l-3.69,3.69l-6.47-6.47l16.35-16.36l6.47,6.47l-8.43,8.43c-0.33,0.33-0.33,0.85,0,1.18l0,0c0.33,0.33,0.85,0.33,1.18,0l9.02-9.02
		c0.16-0.16,0.24-0.37,0.24-0.59c0-0.01,0-0.01,0-0.02C116.4,29.95,116.4,29.95,116.4,29.94z M78.39,25.38h16.14l4.57,4.57
		l-4.57,4.57H78.39V25.38z M91.57,20.06l6.47-6.47l8.71,8.71l-6.47,6.47L91.57,20.06z"/>
	<path class="st1" d="M105.96,38.4l8.43-8.43l-6.47-6.47L91.57,39.85l6.47,6.47l3.69-3.69c0.33-0.33,0.85-0.33,1.18,0l3.05-3.05l0,0
		C105.63,39.25,105.63,38.73,105.96,38.4z"/>
</g>
<g>
	<polygon class="st1" points="29.07,29.88 33.64,34.45 49.78,34.45 49.78,25.3 33.64,25.3 	"/>
	
		<rect x="24.44" y="32.49" transform="matrix(0.7071 -0.7071 0.7071 0.7071 -18.8314 31.8408)" class="st1" width="9.15" height="12.32"/>
	<path class="st2" d="M11.77,29.89c0,0.22,0.09,0.43,0.24,0.59l17.53,17.53c0.33,0.33,0.85,0.33,1.18,0l7.65-7.65
		c0.16-0.16,0.24-0.37,0.24-0.59s-0.09-0.43-0.24-0.59l-3.06-3.06h15.3c0.46,0,0.84-0.37,0.84-0.84V24.47
		c0-0.46-0.37-0.84-0.84-0.84h-15.3l3.06-3.06c0.16-0.16,0.24-0.37,0.24-0.59c0-0.22-0.09-0.43-0.24-0.59l-7.65-7.65
		c-0.16-0.16-0.38-0.24-0.59-0.24c-0.21,0-0.43,0.08-0.59,0.24l-4.27,4.28c-0.33,0.33-0.33,0.85,0,1.18l0,0
		c0.33,0.33,0.85,0.33,1.18,0l3.69-3.69l6.47,6.47L20.26,36.33l-6.47-6.47l8.43-8.43c0.33-0.33,0.33-0.85,0-1.18l0,0
		c-0.33-0.33-0.85-0.33-1.18,0l-9.02,9.02c-0.16,0.16-0.24,0.37-0.24,0.59C11.78,29.87,11.78,29.87,11.77,29.89
		C11.78,29.88,11.77,29.89,11.77,29.89z M49.78,34.45H33.64l-4.57-4.57l4.57-4.57h16.14V34.45z M36.6,39.77l-6.47,6.47l-8.71-8.71
		l6.47-6.47L36.6,39.77z"/>
	<path class="st1" d="M22.22,21.44l-8.43,8.43l6.47,6.47L36.6,20l-6.46-6.48l-3.69,3.69c-0.33,0.33-0.85,0.33-1.18,0l-3.05,3.05l0,0
		C22.54,20.58,22.54,21.11,22.22,21.44z"/>
</g>
</svg>
