<?xml version="1.0" encoding="utf-8"?>
<!-- Generator: Adobe Illustrator 26.2.1, SVG Export Plug-In . SVG Version: 6.00 Build 0)  -->
<svg version="1.1" id="Capa_1" xmlns="http://www.w3.org/2000/svg" xmlns:xlink="http://www.w3.org/1999/xlink" x="0px" y="0px"
	 viewBox="0 0 50 50" style="enable-background:new 0 0 50 50;" xml:space="preserve">
<style type="text/css">
	.st0{fill:#A7C6ED;stroke:#002F6C;stroke-miterlimit:10;}
	.st1{fill:#BA0C2F;}
	.st2{fill:#FFFFFF;}
	.st3{fill:#002F6C;}
	.st4{fill:none;stroke:#303030;stroke-width:0.7;stroke-linecap:round;stroke-linejoin:round;stroke-miterlimit:10;}
	.st5{fill:#EAC81F;stroke:#002F6C;stroke-width:0.7;stroke-linecap:round;stroke-linejoin:round;stroke-miterlimit:10;}
</style>
<circle class="st0" cx="25.4" cy="25" r="22.5"/>
<g>
	<path class="st1" d="M34.6,24.7H25c-1.2,0-2.2-1-2.2-2.2v-9.6c0-1.2,1-2.2,2.2-2.2h9.6c1.2,0,2.2,1,2.2,2.2v9.6
		C36.8,23.7,35.8,24.7,34.6,24.7z"/>
	<path class="st1" d="M34.6,24.7c-3.3,0-6.5,0.4-9.8,0.4c-1.3-0.1-2.4-1.3-2.4-2.6c0.1-3.3,0.3-6.5,0.3-9.8c0.1-1.2,1.1-2.2,2.4-2.3
		c3.3-0.1,6.5-0.2,9.8-0.2c1.4,0.1,2.5,1.3,2.5,2.7c0,2.2-0.1,4.3-0.2,6.5c0,0-0.2,3.3-0.2,3.3C36.8,23.8,35.7,24.7,34.6,24.7
		L34.6,24.7z M34.6,24.6c1.1,0,2-0.9,2-2c0-1.1-0.1-2.2-0.2-3.2c-0.2-2.2-0.2-4.3-0.2-6.5c0-0.8-0.7-1.6-1.5-1.7l-3.2-0.1
		c-2.2,0-4.3-0.1-6.5-0.2c-1-0.1-1.9,0.7-2,1.8c-0.1,3.2,0.1,6.5,0.2,9.8c0,0.9,0.8,1.7,1.6,1.7C28,24.3,31.4,24.6,34.6,24.6
		L34.6,24.6z"/>
</g>
<g>
	<path class="st2" d="M31.8,32.4l-0.1,0l-14.8,5.7l-0.1,0c-0.8,0.3-1.8,0-2.2-0.7c-0.3-0.5-0.3-1-0.1-1.4c0.3-0.8,0.4-1.6,0.4-2.4
		c0-0.7-0.1-1.3-0.4-1.9l-1.3-3.4c-1.3-3.5-0.1-7.3,2.8-9.3l-0.1-0.3c-0.4-1.2,0.3-2.5,1.6-2.6c0.9-0.1,1.7,0.5,2,1.3l0.1,0.2l0,0
		c0.2,0,0.9,0,1.4,0v5.1c0,1.9,1.5,3.4,3.4,3.4h4.9c0.6,1,1.7,2.3,2.5,2.9l0,0c0.3,0.1,0.5,0.2,0.7,0.4c0.2,0.2,0.4,0.5,0.5,0.9
		C33.1,31.2,32.6,32.1,31.8,32.4z"/>
	<path class="st3" d="M31.8,32.4c-4.9,1.9-9.6,4.2-14.5,6c-0.3,0.1-0.8,0.3-1.3,0.3c-1,0-1.9-0.8-2-1.8c-0.1-1,0.4-1.6,0.5-2.4
		c0.3-2.4-1.1-4.5-1.8-6.8c-0.9-3.2,0.3-6.8,3-8.9c0,0-0.1,0.4-0.1,0.4c-1.3-2.6,2.1-4.9,4-2.5c0.3,0.4,0.7,1,0.3,1.4
		c0,0-0.4-0.8-0.4-0.8c0,0,1.5-0.1,1.5-0.1c0.3,0,0.5,0.2,0.5,0.5c0,0,0,3.9,0,3.9c0,1.2-0.1,2.4,0.8,3.3c0.8,0.9,2,1,3.2,1
		c1.3,0,2.6,0.1,3.9,0.1c0.1,0,0.2,0.1,0.3,0.1c0.6,1.1,1.4,2.1,2.3,2.9C33.3,29.4,33.6,31.8,31.8,32.4L31.8,32.4z M31.8,32.3
		c1.5-0.6,1.4-2.7,0-3.1c-1.1-0.7-1.9-1.8-2.8-2.9c0,0,0.3,0.1,0.3,0.1c-2,0-3.9,0.3-5.9,0.1c-1.4-0.3-2.6-1.6-2.9-3
		c-0.1-0.8,0-1.4-0.1-2l0-3.9c0,0,0.5,0.5,0.5,0.5s-1.3,0-1.3,0c-0.3,0-0.6-0.2-0.6-0.5c0-0.1,0.1-0.3,0.2-0.4c0,0-0.1,0.5-0.1,0.5
		c-0.2-0.9-1.1-1.5-2-1.2c-0.9,0.3-1.2,1.4-0.8,2.2c0.1,0.2,0,0.3-0.1,0.4c-1.3,0.9-2.3,2.1-2.9,3.6c-1.4,3.1,0.3,6.2,1.4,9.1
		c0.4,1.2,0.4,2.5,0.1,3.7c-0.5,1,0.1,2.1,1.2,2.1c0.3,0,0.6-0.1,1-0.3C21.9,35.6,26.9,34.2,31.8,32.3L31.8,32.3z"/>
</g>
<path class="st2" d="M30.8,16.7V15h-0.7l-1.3,0.7l0.2,0.6l1-0.6h0v1v1.9V21h0.1h0.6v-0.4v-2.4C30.8,18.1,30.8,16.7,30.8,16.7z"/>
<g>
	<path class="st3" d="M15.5,26.1c0.4,0.2,0.3,0.2,0.1,0.4c0,0,0,0.1,0.1,0.1c0.3,0.2,0.3,0.3-0.1,0.6c0,0,0,0-0.1,0
		c-0.5-0.1-0.4-0.3-0.2-0.6c0.1-0.1,0.1-0.1,0.1-0.2c0,0-0.1-0.1-0.2-0.1C15.1,26.3,15.3,26.1,15.5,26.1L15.5,26.1z"/>
</g>
<g>
	<path class="st3" d="M18.3,20.5c-0.2,0.7-0.7,0.9-1.2,1.2c-0.6,0.8-0.5,1.7-1.4,2.5c0,0-0.1,0-0.1,0c-0.3-1.2,0.5-1.9,1.3-2.6
		C17.1,21,17.5,20.5,18.3,20.5C18.3,20.5,18.3,20.5,18.3,20.5L18.3,20.5z"/>
</g>
<path class="st4" d="M24,35.6c0.5,1.2-0.2,2.6-1.4,3.1l-0.3,0.1c-1.2,0.5-2.7-0.1-3.1-1.4"/>
<path class="st5" d="M24,35.6c0.5,1.2-0.2,2.6-1.4,3.1l-0.3,0.1c-1.2,0.5-2.7-0.1-3.1-1.4"/>
</svg>
