<?xml version="1.0" encoding="utf-8"?>
<!-- Generator: Adobe Illustrator 26.2.1, SVG Export Plug-In . SVG Version: 6.00 Build 0)  -->
<svg version="1.1" id="Capa_1" xmlns="http://www.w3.org/2000/svg" xmlns:xlink="http://www.w3.org/1999/xlink" x="0px" y="0px"
	 viewBox="0 0 215.5 83.82" style="enable-background:new 0 0 215.5 83.82;" xml:space="preserve">
<style type="text/css">
	.st0{fill:#002F6C;}
	.st1{fill:#3CB037;}
</style>
<g>
	<path class="st0" d="M22.39,66.41V18.16h16.58c3.55,0,6.77,0.48,9.66,1.44c2.89,0.96,5.19,2.58,6.92,4.85
		c1.73,2.27,2.59,5.35,2.59,9.25c0,3.75-0.86,6.83-2.59,9.25c-1.73,2.42-4.02,4.21-6.88,5.37c-2.86,1.16-5.99,1.74-9.4,1.74h-5.99
		v16.35H22.39z M33.27,41.4h5.33c5.92,0,8.88-2.56,8.88-7.7c0-2.52-0.79-4.29-2.37-5.33c-1.58-1.04-3.85-1.55-6.81-1.55h-5.03V41.4z
		"/>
	<path class="st1" d="M87.81,67.3c-4.39,0-8.37-0.94-11.95-2.81c-3.58-1.87-6.41-4.65-8.51-8.33c-2.1-3.67-3.15-8.2-3.15-13.58
		c0-5.33,1.07-9.88,3.22-13.65c2.15-3.77,5-6.66,8.55-8.66c3.55-2,7.47-3,11.77-3c3.5,0,6.51,0.64,9.03,1.92
		c2.52,1.28,4.56,2.74,6.14,4.37l-5.7,6.96c-1.23-1.08-2.54-2-3.92-2.74c-1.38-0.74-3.11-1.11-5.18-1.11
		c-3.75,0-6.81,1.38-9.18,4.14c-2.37,2.76-3.55,6.56-3.55,11.4c0,4.93,1.13,8.78,3.4,11.54c2.27,2.76,5.65,4.14,10.14,4.14
		c0.99,0,1.95-0.12,2.89-0.37c0.94-0.25,1.7-0.62,2.29-1.11v-8.29h-7.99v-8.88h17.61v22.2c-1.68,1.63-3.91,3.01-6.7,4.14
		C94.24,66.73,91.16,67.3,87.81,67.3z"/>
	<path class="st1" d="M113.71,64.07V20.5c0-1.29,1.05-2.34,2.34-2.34h27.85v9.18h-19.31v9.69h16.43v9.1h-16.43v11.1h20.05v9.18
		h-28.59C114.76,66.41,113.71,65.36,113.71,64.07z"/>
	<g>
		<path class="st0" d="M181.64,47.09c2.61-1.13,4.7-2.85,6.25-5.14c1.55-2.29,2.33-5.22,2.33-8.77c0-3.85-0.84-6.86-2.52-9.03
			c-1.68-2.17-3.92-3.71-6.73-4.62c-2.81-0.91-5.92-1.37-9.32-1.37H156.9c-1.46,0-2.64,1.18-2.64,2.64v42.97
			c0,1.46,1.18,2.64,2.64,2.64h8.24V49.02h5.99l9.25,17.39h12.21L181.64,47.09z M162.29,32.94c5.09,0.38,9.13,4.42,9.51,9.51
			C166.72,42.06,162.68,38.03,162.29,32.94z M169.54,34.62c-0.43-4.08,0.64-8.18,3.02-11.53c2.38,3.34,3.46,7.44,3.02,11.53
			c-1.35,1.26-2.39,2.81-3.02,4.54C171.93,37.43,170.89,35.88,169.54,34.62z M173.33,42.45c0.38-5.09,4.42-9.13,9.51-9.51
			C182.45,38.03,178.42,42.06,173.33,42.45z"/>
	</g>
</g>
</svg>
