<?xml version="1.0" encoding="utf-8"?>
<!-- Generator: Adobe Illustrator 26.2.1, SVG Export Plug-In . SVG Version: 6.00 Build 0)  -->
<svg version="1.1" id="Capa_1" xmlns="http://www.w3.org/2000/svg" xmlns:xlink="http://www.w3.org/1999/xlink" x="0px" y="0px"
	 viewBox="0 0 50 50" style="enable-background:new 0 0 50 50;" xml:space="preserve">
<style type="text/css">
	.st0{fill:#FFFFFF;}
	.st1{fill:#BA0C2F;}
	.st2{fill:#E6E6E6;stroke:#FFFFFF;stroke-miterlimit:10;}
	.st3{fill:#CFCDC9;}
	.st4{fill:#002F6C;}
</style>
<g>
	<circle class="st0" cx="25.2" cy="25.6" r="20"/>
	<path class="st1" d="M5.1,25.6C5,11.2,19.5,1,32.9,6.9c16.4,7.2,16.8,30.6,0.1,37.7C19.6,50.2,4.9,40,5.1,25.6L5.1,25.6z M5.2,25.6
		C5.4,42.9,26.7,51.5,39,39.4c7.6-7.3,8-20.5,0.2-27.8C26.9-0.5,5.3,8.4,5.2,25.6L5.2,25.6z"/>
</g>
<g>
	<circle class="st2" cx="25.2" cy="25.7" r="14.5"/>
	<g>
		<path class="st1" d="M25.2,42.9c-9.5,0-17.2-7.7-17.2-17.2S15.8,8.6,25.2,8.6s17.2,7.7,17.2,17.2S34.7,42.9,25.2,42.9z M25.2,12.2
			c-7.5,0-13.6,6.1-13.6,13.6s6.1,13.5,13.6,13.5s13.6-6.1,13.6-13.6S32.7,12.2,25.2,12.2z"/>
		<g>
			<path class="st1" d="M25.2,42.9C12.9,43.1,4,30.5,9.1,19.1C15.4,5,35.4,4.6,41.5,19C46.4,30.5,37.6,43.1,25.2,42.9L25.2,42.9z
				 M25.2,42.8C40,42.7,47.4,24.4,37,13.9c-6.2-6.5-17.5-6.9-23.8-0.2C2.9,24.2,10.5,42.8,25.2,42.8L25.2,42.8z"/>
			<path class="st1" d="M25.2,12.2c-11.5,0-17.5,14.9-9.5,23c4.9,5.2,13.9,4.9,18.7-0.2C42.6,26.9,36.8,12.3,25.2,12.2L25.2,12.2z
				 M25.2,12.1C37.7,12,44,26.8,35.1,35.6c-6.9,6.9-18.9,4.2-22.7-4.6C8.3,21.9,15.4,12,25.2,12.1L25.2,12.1z"/>
		</g>
	</g>
	<path class="st1" d="M25.2,36.6c-6,0-10.8-4.9-10.8-10.8s4.9-10.8,10.8-10.8s10.8,4.9,10.8,10.8S31.2,36.6,25.2,36.6z M25.2,18.5
		c-4,0-7.2,3.2-7.2,7.2s3.2,7.2,7.2,7.2s7.2-3.2,7.2-7.2S29.2,18.5,25.2,18.5z"/>
	<circle class="st1" cx="25.2" cy="25.7" r="3.6"/>
	<path class="st3" d="M39.1,16.3c0-0.2-0.2-0.3-0.3-0.4L35.9,15L35,12.2c-0.1-0.2-0.2-0.3-0.4-0.3c-0.2,0-0.3,0-0.5,0.1l-3.1,3.1
		c-0.1,0.1-0.2,0.3-0.1,0.5l1,3.1c0,0.1,0.2,0.3,0.3,0.3l3.1,1c0,0,0.1,0,0.2,0c0.1,0,0.3,0,0.4-0.1l3.1-3.1
		C39.1,16.7,39.1,16.5,39.1,16.3z"/>
	<path class="st4" d="M24.8,26.6c-0.1,0-0.3,0-0.4-0.1c-0.2-0.2-0.2-0.5,0-0.7L37.2,13c0.2-0.2,0.5-0.2,0.7,0c0.2,0.2,0.2,0.5,0,0.7
		L25.2,26.5C25.1,26.6,25,26.6,24.8,26.6z"/>
</g>
</svg>
