<?xml version="1.0" encoding="utf-8"?>
<!-- Generator: Adobe Illustrator 26.2.1, SVG Export Plug-In . SVG Version: 6.00 Build 0)  -->
<svg version="1.1" id="Layer_1" xmlns="http://www.w3.org/2000/svg" xmlns:xlink="http://www.w3.org/1999/xlink" x="0px" y="0px"
	 viewBox="0 0 50 50" style="enable-background:new 0 0 50 50;" xml:space="preserve">
<style type="text/css">
	.st0{fill:none;}
	.st1{fill:#002F6C;}
	.st2{fill:#EAC81F;}
	.st3{fill:#A7C6ED;}
	.st4{fill:#3F67AE;}
	.st5{fill:url(#Nueva_muestra_de_motivo_2);}
	.st6{fill:url(#SVGID_1_);}
	.st7{fill:#FFFFFF;}
	.st8{fill:url(#SVGID_00000059293317360331782730000011860920601777724291_);}
	.st9{fill:#0067B9;}
	.st10{fill:#00833E;}
	.st11{fill:#BA0C2F;}
	.st12{fill:#1E247E;}
	.st13{fill:url(#Nueva_muestra_de_motivo_7);}
</style>
<pattern  y="50" width="36.8" height="36.8" patternUnits="userSpaceOnUse" id="Nueva_muestra_de_motivo_2" viewBox="0 -36.8 36.8 36.8" style="overflow:visible;">
	<g>
		<rect y="-36.8" class="st0" width="36.8" height="36.8"/>
		<g>
			<rect y="-36.8" class="st0" width="36.8" height="36.8"/>
			<rect y="-36.8" class="st1" width="36.8" height="36.8"/>
		</g>
	</g>
</pattern>
<pattern  y="50" width="4" height="4" patternUnits="userSpaceOnUse" id="Nueva_muestra_de_motivo_5" viewBox="0 -4 4 4" style="overflow:visible;">
	<g>
		<rect y="-4" class="st0" width="4" height="4"/>
		<g>
			<rect y="-4" class="st0" width="4" height="4"/>
			<rect y="-4" class="st2" width="4" height="4"/>
		</g>
	</g>
</pattern>
<pattern  y="50" width="4" height="4" patternUnits="userSpaceOnUse" id="Nueva_muestra_de_motivo_7" viewBox="0 -4 4 4" style="overflow:visible;">
	<g>
		<rect y="-4" class="st0" width="4" height="4"/>
		<g>
			<rect y="-4" class="st0" width="4" height="4"/>
			<rect y="-4" class="st3" width="4" height="4"/>
		</g>
	</g>
</pattern>
<g>
	<circle class="st4" cx="25" cy="25" r="20"/>
	<path class="st5" d="M4.9,25C4.8,10.7,19.4,0.4,32.8,6.3c16.4,7.2,16.8,30.6,0.1,37.7C19.4,49.7,4.8,39.5,4.9,25L4.9,25z M5.1,25
		c0.2,17.3,21.5,25.9,33.8,13.8c7.6-7.3,8-20.5,0.2-27.8C26.8-1,5.1,7.8,5.1,25L5.1,25z"/>
</g>
<g id="Shape_70_">
	<pattern  id="SVGID_1_" xlink:href="#Nueva_muestra_de_motivo_7" patternTransform="matrix(1 0 0 -1 -227.72 -15389.2402)">
	</pattern>
	<path class="st6" d="M22.5,31.8l4-6.8c0.2-0.3,0.1-0.7-0.2-0.8l-9.7-5.6c-0.3-0.2-0.7-0.1-0.8,0.2l-3.9,6.9
		c-0.2,0.3-0.1,0.7,0.2,0.8l9.7,5.6C22,32.2,22.3,32.1,22.5,31.8z"/>
	<path class="st7" d="M22.5,31.8c1.3-2.3,2.3-4.7,3.6-7c0.1-0.1,0-0.2-0.1-0.2c-3.1-1.9-6-4-9.3-5.6c-0.3-0.1-0.6-0.4-0.8,0
		c-0.8,1.6-1.6,3.1-2.5,4.7l-1.3,2.3c0,0.1,0,0.1,0,0.1c0.2,0.1,1.2,0.7,1.4,0.8c2.2,1.3,4.5,2.8,6.6,4.3c0.4,0.3,0.7,0.5,1.1,0.7
		C21.7,32.1,22.2,32.2,22.5,31.8L22.5,31.8z M22.6,31.8c-0.6,0.9-1.7-0.3-2.4-0.5c-2.7-1.3-5.6-2.7-8.2-4.3
		c-0.7-0.3-1.1-1.1-0.7-1.7c0,0,1.4-2.3,1.4-2.3c0.9-1.5,1.8-3,2.8-4.5c0.4-0.6,1-0.5,1.5-0.1c3,2,6.4,3.5,9.5,5.2
		c0.5,0.3,0.7,1,0.4,1.5C25.5,27.5,23.9,29.5,22.6,31.8L22.6,31.8z"/>
</g>
<g id="Shape_69_">
	
		<pattern  id="SVGID_00000035493574062605776180000015812552832954149254_" xlink:href="#Nueva_muestra_de_motivo_5" patternTransform="matrix(1 0 0 -1 -227.72 -15389.2402)">
	</pattern>
	<path style="fill:url(#SVGID_00000035493574062605776180000015812552832954149254_);" d="M21.7,28.9l6.2-4.9
		c0.3-0.2,0.3-0.6,0.1-0.9l-7-8.8c-0.2-0.3-0.6-0.3-0.9-0.1L14,19.1c-0.3,0.2-0.3,0.6-0.1,0.9l7,8.8C21,29.1,21.4,29.1,21.7,28.9z"
		/>
	<path class="st7" d="M21.7,28.8c2.1-1.6,3.9-3.5,5.9-5.2c0.1-0.1,0.1-0.2,0-0.3c-2.2-2.9-4.1-5.9-6.6-8.6c-0.2-0.2-0.4-0.6-0.7-0.3
		c-1.3,1.2-2.6,2.3-4,3.4l-2,1.7c-0.1,0.1,0,0.1,0,0.1c0.1,0.1,0.9,1.1,1,1.3c1.6,2,3.2,4.3,4.6,6.4c0.2,0.4,0.5,0.7,0.8,1.1
		C20.9,28.8,21.3,29.1,21.7,28.8L21.7,28.8z M21.7,28.9c-0.9,0.6-1.5-0.9-2-1.4c-2.1-2.2-4.2-4.6-6-7c-0.5-0.5-0.6-1.4,0-1.9
		c2-1.5,4.3-3.3,6.3-4.7c0.5-0.4,1.1-0.1,1.4,0.5c2.1,3,4.6,5.6,6.9,8.4c0.4,0.4,0.3,1.2-0.2,1.5C26.1,25.9,23.8,27.3,21.7,28.9
		L21.7,28.9z"/>
</g>
<g id="Shape_68_">
	<path class="st9" d="M28.4,26.4h-7.9c-0.3,0-0.6-0.3-0.6-0.6V14.6c0-0.3,0.3-0.6,0.6-0.6h7.9c0.3,0,0.6,0.3,0.6,0.6v11.2
		C29,26.2,28.8,26.4,28.4,26.4z"/>
	<path class="st7" d="M28.4,26.5c-2.6,0-5.3,0.4-7.9,0.4c-0.6,0-1.1-0.5-1.1-1.1c0-3.6,0.5-7.2,0.2-10.8c-0.1-0.6,0.2-1.2,0.8-1.2
		c2.5-0.2,5.3-0.2,7.9-0.2c0.8,0,1.3,0.7,1.2,1.5c0,3-0.2,6.2-0.4,9.2C29,24.9,29.5,26.4,28.4,26.5L28.4,26.5z M28.4,26.4
		c0.9-0.1,0.4-1.6,0.5-2.2c-0.2-2.5-0.4-5.4-0.4-7.9c0-0.2,0-1.4,0-1.6c0-0.1,0-0.1-0.1-0.1c0,0-2.6-0.1-2.6-0.1
		c-1.8,0-3.5-0.1-5.3-0.2c-0.4,0-0.4,0.4-0.4,0.7c-0.2,3.6,0.2,7.2,0.2,10.8c0,0.1,0.1,0.2,0.2,0.2C23.2,26,25.8,26.4,28.4,26.4
		L28.4,26.4z"/>
</g>
<g id="Shape_67_">
	<path class="st10" d="M28.1,28.9L22,23.9c-0.3-0.2-0.3-0.6-0.1-0.9l7.2-8.6c0.2-0.3,0.6-0.3,0.9-0.1l6.1,5.1
		c0.3,0.2,0.3,0.6,0.1,0.9l-7.2,8.6C28.7,29.1,28.3,29.2,28.1,28.9z"/>
	<path class="st7" d="M28,29c-2-1.7-4.3-3.1-6.3-4.8c-0.5-0.3-0.5-1.1-0.2-1.5c2.4-2.7,5-5.2,7.2-8.2c0.3-0.5,0.9-0.8,1.4-0.4
		c2,1.5,4.2,3.3,6.2,4.9c0.6,0.5,0.5,1.4-0.1,1.9c-1.9,2.3-4.1,4.7-6.2,6.8C29.5,28.1,28.9,29.6,28,29L28,29z M28.1,28.9
		c0.8,0.6,1.3-0.9,1.8-1.4c1.5-2.1,3.1-4.4,4.8-6.3c0.1-0.2,0.9-1.1,1.1-1.3c0-0.1,0-0.1,0-0.1c0,0-2-1.7-2-1.7
		c-1.3-1.1-2.6-2.3-3.9-3.5c-0.3-0.3-0.6,0-0.8,0.3c-2.5,2.6-4.5,5.7-6.8,8.5c-0.1,0.1-0.1,0.2,0,0.3C24.3,25.3,26.1,27.2,28.1,28.9
		L28.1,28.9z"/>
</g>
<g id="Shape_66_">
	<path class="st11" d="M26.3,31.3L23,24.1c-0.1-0.3,0-0.7,0.3-0.8l10.1-4.8c0.3-0.1,0.7,0,0.8,0.3l3.4,7.2c0.1,0.3,0,0.7-0.3,0.8
		l-10.1,4.8C26.9,31.7,26.5,31.6,26.3,31.3z"/>
	<path class="st7" d="M26.3,31.3c-1.1-2.4-2.5-4.6-3.7-7c-0.3-0.5,0-1.2,0.5-1.4c3.3-1.5,6.7-2.7,9.9-4.4c0.5-0.3,1.1-0.4,1.5,0.2
		c0.8,1.5,1.6,3.1,2.4,4.7l1.2,2.4c0.4,0.7-0.1,1.5-0.8,1.7c-2.7,1.3-5.7,2.5-8.5,3.5C28,31.1,26.8,32.2,26.3,31.3L26.3,31.3z
		 M26.4,31.2c0.2,0.4,0.7,0.3,1.1,0.1c0.4-0.2,0.8-0.4,1.2-0.6c2.2-1.3,4.7-2.6,7-3.7c0.2-0.1,1.3-0.6,1.5-0.7c0,0,0.1-0.1,0-0.1
		c0,0-1.1-2.4-1.1-2.4c-0.7-1.6-1.4-3.2-2.1-4.8c-0.2-0.4-0.5-0.2-0.8-0.1c-3.4,1.3-6.5,3.2-9.7,4.8c-0.1,0.1-0.1,0.1-0.1,0.2
		C24.5,26.3,25.2,28.9,26.4,31.2L26.4,31.2z"/>
</g>
<g id="Bottom_line_13_">
	<g id="Right_42_">
		<path class="st12" d="M34.5,32.8c0.5-0.6,0.7-0.4,1.2-0.1c0.4,0,0.7-0.4,1.2-0.4c0.1,0,0.8,0.3,0.8,0.6c-0.3,0.3-0.5,0.4-0.8,0.5
			c-0.5,0.1-0.8-0.4-1.2-0.4c-0.1,0-0.3,0.2-0.4,0.3C35.1,33.4,34.5,33,34.5,32.8L34.5,32.8z"/>
	</g>
	<g id="Middle_52_">
		<path class="st12" d="M14,32.8c2.4-0.6,4.9-0.4,7.3-0.1c4-0.1,8.3-0.9,12.2,0.2c-4,1-8.1,0.3-12.2,0.2
			C18.9,33.3,16.5,33.4,14,32.8C14,32.9,14,32.8,14,32.8L14,32.8z"/>
	</g>
	<g id="Left_43_">
		<path class="st12" d="M11.4,32.8c0.3-0.7,0.4-0.3,0.6-0.1c0.1,0,0.1,0,0.2-0.1c0.1-0.2,0.3-0.3,0.4-0.3c0.1,0,0.4,0.3,0.4,0.6
			c-0.1,0.3-0.3,0.4-0.4,0.5c-0.1,0-0.3-0.1-0.4-0.3C12.2,33,12.1,32.9,12,33c-0.1,0-0.1,0.2-0.2,0.3C11.7,33.4,11.4,33.1,11.4,32.8
			L11.4,32.8z"/>
	</g>
</g>
<g id="Shape_65_">
	<path class="st13" d="M33.4,22.8v8.1c0,1-0.8,1.9-1.9,1.9H18c-1,0-1.9-0.8-1.9-1.9V20.7c0-1.3,1.1-2.4,2.4-2.4h5.5
		c0.7,0,1.4,0.3,1.8,0.9l0.7,0.9c0.2,0.2,0.5,0.4,0.8,0.4h3.9C32.4,20.6,33.4,21.6,33.4,22.8z"/>
	<path class="st12" d="M33.4,22.8c0,2.7,0.2,5.5,0.3,8.2c-0.1,3-3.8,2.1-5.8,2.2c-3-0.1-6.1-0.3-9.1-0.3c0,0-0.9,0-0.9,0
		c-1,0-1.9-0.9-2-1.9c0,0-0.1-1.8-0.1-1.8c-0.1-2.4-0.2-4.9-0.2-7.3c0,0,0-0.9,0-0.9c-0.1-1,0.4-2.2,1.4-2.8c0.6-0.4,1.4-0.4,2-0.4
		c0.9,0,2.7,0,3.7,0c0.6,0,1.3-0.1,1.9,0.1c0.7,0.2,1.3,0.7,1.7,1.3c0.3,0.3,0.6,1,1,1c0,0,3.7,0.2,3.7,0.2
		C32.3,20.4,33.5,21.5,33.4,22.8L33.4,22.8z M33.3,22.8c0-1.2-1.1-2.2-2.3-2.1c0,0-3.7,0.2-3.7,0.2c-0.7,0.1-1.3-0.7-1.7-1.2
		c-0.8-1.1-1.7-0.9-2.9-0.9c0,0-1.8,0-1.8,0l-1.8,0c-1.1-0.1-2,0.3-2.4,1.3c-0.2,3.5-0.2,7.3-0.3,10.8c0.1,1.3,1.3,1.7,2.5,1.6
		c4.2,0,8.5-0.4,12.8-0.3c0.7,0,1.4-0.6,1.4-1.4C33.1,28.3,33.3,25.5,33.3,22.8L33.3,22.8z"/>
</g>
</svg>
