<?xml version="1.0" encoding="utf-8"?>
<!-- Generator: Adobe Illustrator 26.2.1, SVG Export Plug-In . SVG Version: 6.00 Build 0)  -->
<svg version="1.1" id="Layer_1" xmlns="http://www.w3.org/2000/svg" xmlns:xlink="http://www.w3.org/1999/xlink" x="0px" y="0px"
	 viewBox="0 0 50 50" style="enable-background:new 0 0 50 50;" xml:space="preserve">
<style type="text/css">
	.st0{fill:#A7C6ED;}
	.st1{fill:#002F6C;}
	.st2{fill:#EFEFEF;}
	.st3{fill:#69CBEF;}
	.st4{fill:#EF584F;}
	.st5{fill:#231F20;}
	.st6{fill:#3CB037;}
	.st7{fill:#2B8E25;}
	.st8{fill:#1B6D14;}
	.st9{fill:#BA0C2F;}
	.st10{fill:#3F67AE;}
	.st11{fill:#E73164;}
	.st12{fill:#212721;}
	.st13{fill:#0067B9;}
	.st14{fill:#205493;}
	.st15{fill:#661D32;}
	.st16{fill:#6C6463;}
	.st17{fill:#8C8985;}
	.st18{fill:#CFCDC9;}
	.st19{fill:#EAC81F;}
	.st20{fill:#A7C6ED;stroke:#002F6C;stroke-miterlimit:10;}
	.st21{fill:#FFFFFF;}
</style>
<g>
	<circle class="st0" cx="25" cy="25" r="22.9"/>
	<path class="st1" d="M2.1,25C1.9,8.6,18.6-3.1,33.9,3.6c18.8,8.2,19.2,34.9,0.1,43C18.6,53.1,1.9,41.5,2.1,25L2.1,25z M2.2,25
		c0.2,19.9,24.6,29.7,38.7,15.8c8.7-8.3,9.1-23.5,0.2-31.9C27-4.9,2.3,5.2,2.2,25L2.2,25z"/>
</g>
<path class="st2" d="M-611.5-343.3c0,0-2.5,15.2-8.5,39.2h-194.4v-39.2H-611.5z"/>
<path class="st3" d="M-810.4-17c0,0,64.2,88.9,78.9,141.8l-82.9,0.3v-429.3H-620C-638.7-230.3-691.3-73-810.4-17z"/>
<path class="st2" d="M-403.2-343.3v39.2h-194.5c-6.1-24-8.5-39.2-8.5-39.2S-403.2-343.3-403.2-343.3z"/>
<path class="st3" d="M-403.2-304.1v429.3l-83-0.3C-471.5,72-407.3-17-407.3-17C-526.4-73-579-230.3-597.7-304.1H-403.2L-403.2-304.1
	z"/>
<path class="st4" d="M-580.6-366.8c-14.6,0-26.6,10.9-28.2,25.1c-1.7-14.1-13.7-25.1-28.2-25.1c-15.7,0-28.4,12.7-28.4,28.4
	c0,29.9,56.7,63.2,56.7,63.2h0c0,0,56.7-33.3,56.7-63.2C-552.1-354.1-564.9-366.8-580.6-366.8z"/>
<g>
	<rect x="-814.4" y="-30.1" class="st2" width="40.1" height="45.1"/>
	<rect x="-443.4" y="-30.1" class="st2" width="40.1" height="45.1"/>
</g>
<g>
	<path class="st5" d="M-436.4-97.5c-26.3-24.9-50-58.9-70.3-101c-2.4-5-8.4-7.1-13.4-4.7c-5,2.4-7.1,8.4-4.7,13.4
		c21.4,44.3,46.5,80.3,74.6,106.9c1.9,1.8,4.4,2.7,6.9,2.7c2.7,0,5.3-1.1,7.3-3.1C-432.2-87.4-432.4-93.7-436.4-97.5z"/>
	<path class="st5" d="M-528.5-250.1c-1.9-5.2-7.7-7.9-12.9-6c-5.2,1.9-7.9,7.7-6,12.9l0.5,1.3c1.5,4.1,5.3,6.6,9.4,6.6
		c1.2,0,2.3-0.2,3.5-0.6c5.2-1.9,7.9-7.7,6-12.9L-528.5-250.1z"/>
	<path class="st5" d="M-676.3-256c-5.2-1.9-11,0.8-12.9,6c-24.4,66.5-55.3,117.8-92,152.5c-4,3.8-4.2,10.2-0.4,14.2
		c2,2.1,4.6,3.1,7.3,3.1c2.5,0,5-0.9,6.9-2.7c38.9-36.9,71.6-90.7,97-160.1C-668.4-248.4-671.1-254.1-676.3-256z"/>
	<path class="st5" d="M-403.2-353.3h-141.9c-5.9-13.8-19.5-23.5-35.4-23.5c-11.1,0-21.2,4.7-28.2,12.3c-7.1-7.6-17.2-12.3-28.2-12.3
		c-15.9,0-29.6,9.7-35.4,23.5h-141.9c-5.5,0-10,4.5-10,10v468.4c0,2.7,1.1,5.2,3,7.1c1.9,1.9,4.4,2.9,7.1,2.9c0,0,0,0,0,0l82.9-0.3
		c3.1,0,6.1-1.5,8-4c1.9-2.5,2.5-5.7,1.7-8.7c-8.1-29-29.9-67.6-48.8-97.7c3.7-1.5,6.4-5.1,6.4-9.4v-45.1c0-1-0.1-1.9-0.4-2.8
		c36.4-27.2,68.5-66,95.9-116.1c23-42.1,38.9-85.3,49.6-120.7c2.5,1.6,4.4,2.7,5.2,3.2c1.5,0.9,3.3,1.4,5.1,1.4s3.5-0.5,5.1-1.4
		c0.9-0.5,2.7-1.6,5.2-3.2c10.7,35.3,26.6,78.6,49.6,120.6c27.4,50.1,59.5,89,95.9,116.1c-0.3,0.9-0.4,1.8-0.4,2.8V15
		c0,4.3,2.7,7.9,6.4,9.4c-18.9,30.1-40.8,68.7-48.8,97.7c-0.8,3-0.2,6.3,1.7,8.7c1.9,2.5,4.8,4,8,4l83,0.3c0,0,0,0,0,0
		c2.7,0,5.2-1.1,7.1-2.9c1.9-1.9,3-4.4,3-7.1v-468.4C-393.1-348.8-397.6-353.3-403.2-353.3z M-433.3,5v-25.1h20V5H-433.3z
		 M-413.2-314.2h-136.9c3.9-6.1,6.6-12.6,7.6-19.1h129.3L-413.2-314.2L-413.2-314.2z M-804.4-333.3h129.3c1,6.5,3.8,12.9,7.6,19.1
		h-136.9V-333.3z M-784.3,5h-20v-25.1h20V5z M-804.4,115v-90h10.3c16.8,26,37.9,61.4,48.7,89.7L-804.4,115z M-789.4-40.1h-14.9v-254
		h153.8c4.7,4.5,9.5,8.5,14.1,12.1C-656.5-213.4-702-96.9-789.4-40.1z M-608.8-287c-19.9-12.7-46.6-35.3-46.6-51.4
		c0-10.1,8.3-18.4,18.4-18.4c9.3,0,17.2,7,18.3,16.2c0.6,5.1,4.9,8.9,10,8.9c5.1,0,9.4-3.8,10-8.9c1.1-9.2,8.9-16.2,18.3-16.2
		c10.1,0,18.4,8.3,18.4,18.4C-562.2-322.2-588.9-299.6-608.8-287z M-581.2-281.9c4.6-3.6,9.5-7.7,14.2-12.2h153.8v254h-15
		C-515.7-96.9-561.1-213.3-581.2-281.9z M-472.3,114.8c10.8-28.3,31.9-63.7,48.7-89.7h10.4v90L-472.3,114.8z"/>
</g>
<rect x="503.7" y="65.9" class="st6" width="22.4" height="22.4"/>
<rect x="503.7" y="36.9" class="st7" width="22.4" height="22.4"/>
<rect x="503.7" y="1.1" class="st8" width="22.4" height="22.4"/>
<rect x="465.5" y="101.1" class="st1" width="22.4" height="22.4"/>
<rect x="465.5" y="126.4" class="st9" width="22.4" height="22.4"/>
<rect x="503.7" y="101.1" class="st10" width="22.4" height="22.4"/>
<rect x="503.7" y="126.4" class="st11" width="22.4" height="22.4"/>
<rect x="465.5" y="177.2" class="st12" width="22.4" height="22.4"/>
<rect x="503.7" y="177.1" class="st12" width="22.4" height="22.4"/>
<rect x="465.5" y="202.5" class="st13" width="22.4" height="22.4"/>
<rect x="503.7" y="202.6" class="st13" width="22.4" height="22.4"/>
<rect x="465.5" y="227.8" class="st0" width="22.4" height="22.4"/>
<rect x="465.5" y="253.1" class="st14" width="22.4" height="22.4"/>
<rect x="465.5" y="278.3" class="st15" width="22.4" height="22.4"/>
<rect x="499.5" y="278.2" class="st15" width="22.4" height="22.4"/>
<rect x="465.5" y="303.6" class="st16" width="22.4" height="22.4"/>
<rect x="499.5" y="303.6" class="st16" width="22.4" height="22.4"/>
<rect x="465.5" y="329.1" class="st17" width="22.4" height="22.4"/>
<rect x="465.5" y="355.7" class="st18" width="22.4" height="22.4"/>
<rect x="465.5" y="67.4" class="st19" width="22.4" height="22.4"/>
<rect x="-812.7" y="-30.8" class="st20" width="37.8" height="51"/>
<g>
	<g>
		<rect x="12.5" y="10.6" class="st1" width="24.9" height="2.5"/>
		<path class="st1" d="M37.5,13.2c-8.2,0.7-16.7,0.1-25,0.2c0,0-0.2,0-0.2,0s0-0.2,0-0.2l-0.1-2.5l0-0.3c0,0,0.3,0,0.3,0
			c8.4-0.3,16.8-0.4,25.1,0.1c0,0,0,0.2,0,0.2L37.5,13.2L37.5,13.2z M37.4,13.1c0,0-0.2-2.5-0.2-2.5l0.2,0.2
			c-8.3,0.4-16.6,0.4-24.9,0.1c0,0,0.3-0.3,0.3-0.3s-0.1,2.5-0.1,2.5L12.5,13C20.9,13,29.1,12.5,37.4,13.1L37.4,13.1z"/>
	</g>
	<g>
		<path class="st21" d="M25.8,13.6h11.6v25.7h-5c0,0,0.9-5.1,4.7-8.5C37.2,30.8,28.2,26.4,25.8,13.6z"/>
		<path class="st1" d="M25.8,13.6c3.7-0.1,8.5-0.4,12.1-0.4c0,2.3,0,4.6,0,6.8c-0.2,6.2-0.4,13.1-0.1,19.3c0,0,0,0.3,0,0.3
			s-0.3,0-0.3,0c-1.8,0.1-3.6,0.1-5.5,0.1c0,0,0.1-0.5,0.1-0.5c0.6-3.3,2.3-6.5,4.8-8.8c0,0,0.1,0.9,0.1,0.9
			C30.6,27.7,26.7,20.7,25.8,13.6L25.8,13.6z M25.9,13.6c1.7,6.9,5.8,13.7,12.3,17.1c-2.6,2.2-4.5,5.3-5.2,8.7c0,0-0.4-0.5-0.4-0.5
			c1.7,0,3.3,0.1,5,0.1l-0.3,0.3c0.1-2.1,0.1-4.3,0.1-6.4c0.1-6.2-0.4-13.1-0.2-19.3c0,0,0.4,0.4,0.4,0.4
			C34.2,14,29.2,13.8,25.9,13.6L25.9,13.6z"/>
	</g>
	<g>
		<path class="st21" d="M24.2,13.7H12.5v25.7h5c0,0-0.9-5.1-4.7-8.5C12.8,30.9,21.8,26.4,24.2,13.7z"/>
		<path class="st1" d="M24.1,13.7c-3.4,0.2-8.3,0.4-11.6,0.4c0,0,0.4-0.4,0.4-0.4c0,2.1,0,4.3,0,6.4c-0.1,3.8-0.3,9.1-0.3,12.9
			c0,2.1,0.1,4.3,0.1,6.4c0,0-0.3-0.3-0.3-0.3c1.7-0.1,3.3-0.1,5-0.1l-0.4,0.5c-0.4-1.5-1-3.1-1.7-4.5c-0.9-1.6-2.1-3-3.5-4.2
			C18.3,27.4,22.4,20.6,24.1,13.7L24.1,13.7z M24.2,13.6c-0.9,7.1-4.8,14.1-11.2,17.7c0,0,0.1-0.9,0.1-0.9c2.5,2.3,4.1,5.5,4.8,8.8
			c0,0,0.1,0.5,0.1,0.5c-1.8,0-3.6-0.1-5.5-0.1c0,0-0.3,0-0.3,0c0.1-2.2,0.1-4.5,0.1-6.7c0.1-6.2-0.4-13.1-0.2-19.3c0,0,0-0.4,0-0.4
			s0.4,0,0.4,0C16,13.2,20.8,13.5,24.2,13.6L24.2,13.6z"/>
	</g>
	<g>
		<rect x="12.5" y="29.4" class="st9" width="2.3" height="3.1"/>
		<path class="st9" d="M14.8,32.5c-0.6,0.3-1.8,0.5-2.7,0.4c-0.1-1.2,0.5-2.3,0.2-3.5c0,0,0-0.2,0-0.2l0.3-0.1
			c0.9-0.2,1.9-0.3,2.8-0.3C15.4,30.1,15.2,31.7,14.8,32.5L14.8,32.5z M14.8,32.5c-0.3-1.3-0.5-2.1-0.5-3l0.5,0.5
			c-0.8,0-1.5-0.1-2.3-0.3c0,0,0.3-0.3,0.3-0.3c-0.1,0.5-0.2,1-0.1,1.5c0.1,0.5,0.3,1,0.3,1.5L12.5,32C13.2,32,13.8,32.2,14.8,32.5
			L14.8,32.5z"/>
	</g>
	<g>
		<rect x="35.2" y="29.4" class="st9" width="2.3" height="3.1"/>
		<path class="st9" d="M37.5,32.5c-0.6,0.3-1.8,0.5-2.7,0.4c-0.1-1.2,0.5-2.3,0.2-3.5c0,0,0-0.2,0-0.2l0.3-0.1
			c0.9-0.2,1.9-0.3,2.8-0.3C38.1,30.1,37.8,31.7,37.5,32.5L37.5,32.5z M37.4,32.5c-0.3-1.3-0.5-2.1-0.5-3l0.5,0.5
			c-0.8,0-1.5-0.1-2.3-0.3c0,0,0.3-0.3,0.3-0.3c-0.1,0.5-0.2,1-0.1,1.5c0.1,0.5,0.3,1,0.3,1.5L35.2,32C35.8,32,36.5,32.2,37.4,32.5
			L37.4,32.5z"/>
	</g>
	<g>
		<path class="st1" d="M22,15.9c-0.8,4.8-3.4,9.9-7.8,12.3C17.6,24.7,19.8,20.3,22,15.9L22,15.9z"/>
	</g>
	<g>
		<path class="st1" d="M28.1,15.9c2,4.6,4.4,8.7,7.5,12.6C31.5,25.6,28.7,20.8,28.1,15.9L28.1,15.9z"/>
	</g>
</g>
</svg>
