<?xml version="1.0" encoding="utf-8"?>
<!-- Generator: Adobe Illustrator 26.2.1, SVG Export Plug-In . SVG Version: 6.00 Build 0)  -->
<svg version="1.1" id="Capa_1" xmlns="http://www.w3.org/2000/svg" xmlns:xlink="http://www.w3.org/1999/xlink" x="0px" y="0px"
	 viewBox="0 0 171.6 249.4" style="enable-background:new 0 0 171.6 249.4;" xml:space="preserve">
<style type="text/css">
	.st0{fill:#BA0C2F;}
	.st1{fill:#FFFFFF;}
	.st2{fill:#3F67AE;}
</style>
<g>
	<g>
		<g>
			<path class="st0" d="M162.9,159.4c-0.2-0.9-0.7-1.8-0.9-2.7c-0.1-0.4-0.2-0.9-0.4-1.4c-0.2-0.4-0.6-0.7-0.8-1.1
				c-0.5-0.9-0.1-2.1-0.5-2.9c-0.2-0.4-0.8-0.5-1-1c-0.1-0.3,0-0.9,0-1.3c0-1.7-1.5-2.5-2.6-3.7c-0.6-0.7-1.5-1.1-1.9-1.7
				c-0.2-0.4-0.4-1.5-0.9-1.6c-0.5-0.1-0.6,0.4-1.1,0.4c-0.1-0.1-1.1-0.5-1.1-0.4c-0.2-0.3,0.2-0.6,0.5-0.9c0.5-0.6,1.2-1.2,1.8-1.8
				c1-1.1,2.3-1.9,3.3-3.1c0.5-0.7,1.4-1.2,0.7-2.1c-0.5-0.6-1.2-0.7-1.5-1.5c-0.3-0.8-0.2-1.5-0.5-2.3c-0.7-1.6-0.9,0.1-1.8-0.3
				c-0.7-0.4-0.7-2.5-1.2-3.3c0,0,0.1-0.1,0.1-0.1c-0.3-0.7-0.4-1.4-0.8-2.1c-0.2-0.4-0.4-0.8-0.4-1.2c0-0.4,0.2-0.6,0.3-1
				c0.2-0.9-0.4-1.1-0.7-1.8c-0.3-0.6-0.2-1.8-0.1-2.4c0.1-0.6,0.7-2.5,0-2.8c0-1.4,0.1-2.8,0-4.2c0-0.4-0.1-0.8,0-1.2
				c0-0.5,0.3-0.6,0.7-0.8c0.5-0.3,1.2-0.5,1.7-0.9c0.8-0.8,0.3-1.5,0.4-2.4c0.1-0.6,0.1-1,0.3-1.6c0.2-0.5,0.1-1.2,0.6-1.5
				c0.4-0.3,1-0.3,1.3-0.7c0.3-0.5,0.5-1.1,0-1.6c-0.4-0.5-0.5-0.8-0.6-1.4c-0.1-0.7-0.4-1.4-1.2-1.7c-0.2-0.1-0.6,0-0.9,0
				c-0.2,0-0.5-0.2-0.7-0.3c-0.5-0.1-0.9,0.2-1.4,0.2c-0.8-0.1-1.3-0.1-1.7,0.6c-0.4,0.5-0.9,0.6-1.5,0.5c-0.6,0-1.6-0.1-2.2,0
				c-0.6,0.1-1,0.7-1.7,0.6c-0.7-0.1-1.3-0.3-2.1-0.3c-0.7,0-1,0.7-1.7,0.8c-0.8,0.1-1.7-0.5-2.4-0.7c-0.6-0.2-1.2,0.2-1.7,0
				c-0.2-0.1-0.2-0.2-0.4-0.2c-0.1,0-0.3,0-0.4,0c-0.3-0.1-0.7-0.2-1-0.1c-0.2,0.1-0.5,0.3-0.6,0.6c-0.2,0.3-0.4,0.5-0.7,0.8
				c-0.3,0.3-0.3,0.7-0.8,0.5c-0.4-0.2-0.4-0.7-0.7-0.8c-0.3-0.2-0.6,0.1-0.9,0.1c-0.2,0-0.3,0-0.5,0L121.6,89c-1.2,0-2,0.5-3.1,0.1
				c-0.6-0.2-1.1-0.5-1.7-0.7c-0.4-0.1-0.6-0.4-1-0.6c-0.7-0.3-1.9-0.4-2.7-0.3c-0.8,0.1-1.4,0.6-2.1,0.9c-0.5,0.2-0.7,0.5-1.2,0.6
				c-0.1,0-0.6,0.1-0.7,0c-0.2-0.1-0.1-0.4-0.3-0.5c-0.5-0.4-1.5-0.1-2.1-0.1c-0.8,0-1.7,0-2.5,0c-0.3,0-0.6,0.1-0.8,0.1
				c-0.2-0.1-0.5-0.3-0.7-0.3c-0.4-0.1-0.7,0.3-1.1,0.2c-0.4,0-0.5-0.5-1-0.5c-0.6,0-0.3,0.3-0.6,0.6c-0.4,0.4-1.4,0.1-2,0.4
				c0,0,0,0,0,0c-0.1,0-0.4,0-0.6-0.1c-0.3-0.2-0.3-0.5-0.6-0.5c-0.1-0.2-0.3-0.5-0.5-0.7c-0.4-0.6-0.7-1.1-0.9-1.8
				c-0.1-0.4-0.3-1.3-0.6-1.6c-0.3-0.3-0.5,0-0.7,0c-0.3,0-0.6,0-0.9,0c-0.6-0.1-1.1-0.2-1.5-0.7c-0.3-0.5-0.1-1.3-0.3-1.9
				c-0.2-0.6-0.1-1.3-0.1-1.9c0-0.7,0.4-1.1,0.4-1.8c0-0.3,0-0.5,0.3-0.7c0.4-0.4,0.5-0.4,0.6-1.1c0.1-0.3,0-0.7,0-1
				c0-0.3,0.1-0.7,0.1-1c-0.1-0.3-0.3-0.4-0.4-0.7c-0.1-0.2,0.1-0.6,0.1-0.9c0-1-1.4-1.6-2.1-2.3c-0.9-0.9-1.3-1.7-1.7-2.9
				c-0.3-1.1-0.6-2.2-0.9-3.3c-0.1-0.5-0.1-1-0.2-1.5c-0.2-0.5-0.8-0.5-1.3-0.4c-0.5,0.1-1,0.6-1.3-0.1c-0.2-0.3-0.1-0.9-0.1-1.3
				c-0.2-0.1-0.4-0.1-0.4-0.3c0,0,0,0,0,0c-0.3-0.8-1.4,0.2-1.8,0.6c-0.4,0.4-0.6,0.5-1.2,0.5c-0.3,0-0.7,0-1-0.2
				c0.4-1.4,1.1-2.5,2.1-3.6c0.6-0.7,1.3-1.6,1.7-2.5c0.2-0.5,0.5-0.9,0.8-1.4c0.3-0.5,0.1-1,0-1.5s0-1.2,0.2-1.7
				c0.2-0.6,0.7-1,0.7-1.7c0-0.5-0.3-1-0.1-1.5c0.3-0.6,0.9-1,1.1-1.7c0.1,0,0.2,0.1,0.3,0c0.2-0.2,0.4-0.6,0.5-0.9
				c0.2-0.4,0.4-0.8,0.6-1.3c0.3-0.7,2.1-5.9,4.6-6.9c0.4-0.2,0.9-0.3,1.4-0.3l3.3-6.6l7.1-2.2c0.1,0,0.3-0.1,0.4-0.2
				c0.2-0.2,0.5-0.6,0.5-0.9c0.1-0.4,0.2-0.4,0.6-0.5c0.3-0.1,0.4-0.4,0.6-0.5c0.3-0.2,0.6-0.2,0.9-0.3c0.8-0.3,0.7-1,0.3-1.5
				c-0.2-0.3-0.4-0.5-0.6-0.8c-0.2-0.3-0.3-0.7-0.4-1c-0.2-0.5-0.6-1.4-1.2-1.4c-0.2,0-0.2-0.1-0.4-0.1c-0.1-0.1-0.2-0.1-0.4-0.1
				c-0.3,0-0.6,0.1-0.9-0.1c-0.3-0.2-0.5-0.4-0.8-0.6c-0.3-0.2-0.7-0.4-1.1-0.4c-0.2,0-0.6-0.1-0.8,0c-0.3,0.1-0.2,0.5-0.2,0.7
				c0,0.3-0.2,0.6-0.4,0.4c-0.2-0.2-0.4-0.4-0.5-0.1c-0.1,0.2-0.1,0.4-0.2,0.6c-0.2,0.3-0.5,0.1-0.8,0.1c-0.2,0-0.2-0.4-0.1-0.6
				c-0.2,0-0.3,0.1-0.3,0.2c-0.2,0.5-0.5,0.8-1,1c0.3,0.2,0.8,0.2,0.9,0.7c0.1,0.3-0.1,0.3-0.2,0.3c-0.2,0.1-0.3,0.2-0.4,0.4
				c-0.3,0.3-0.9,0.2-0.8-0.3c0-0.1,0.5-0.9,0-0.8h-0.1c0,0.1-0.4,0.3-0.5,0.3c-0.2,0.1-0.4,0-0.6,0c-0.2,0-0.8-0.2-1,0.1
				c-0.1,0.2,0.1,0.3,0.2,0.4c0.1,0.2,0.1,0.4,0.1,0.6c0,0.3,0,0.6,0,0.9c0,0.3-0.2,0.5-0.3,0.7c-0.2,0.3-0.3,0.6-0.5,1
				c-0.1,0.2-1,1.2-1.2,1.3c-0.3,0.2-0.6,0.3-0.9,0.5c-0.7,0.3-1.4,0.5-2.1,0.6c-0.5,0.1-1,0.1-1.5,0.2c-0.5,0.1-1,0.3-1.5,0.5
				c-0.2,0.1-0.4,0.2-0.5,0.3c-0.2,0.2-0.3,0.4-0.4,0.6c-0.3,0.3-0.8,0.7-1.2,0.9c-0.5,0.2-0.9,0.7-1.3,1c-0.4,0.4-0.8,0.7-1.1,1.1
				c-0.3,0.3-0.5,0.7-0.9,0.9c-0.2,0.2-0.3,0.2-0.6,0.3C81.3,33.8,81,34,80.7,34c-0.5,0.2-1.1,0.4-1.7,0.4h-1c-0.3,0-0.7-0.1-1-0.1
				c0,0,0,0,0,0.1c-0.6-0.1-1.4,0-2,0c-1,0-1.5-0.3-2.3-0.7c0,0-0.2-0.1-0.2-0.1c-0.2-0.1-0.6-0.5-0.8-0.4c-0.3,0-0.4,0.4-0.7,0.3
				c-0.2,0-0.3-0.1-0.5-0.1c-0.3,0-0.3,0.1-0.5,0.3c-0.3,0.3-0.6,0.4-0.7,0.9c-0.3,0.8-0.1,1.5-0.2,2.4c-0.2,0.8-1.2,1.3-2,1.4
				c-0.4,0-0.8-0.2-1.2-0.3c-0.4-0.2-0.9-0.4-1.3-0.5c-1-0.3-2-0.9-3.1-0.8c0,0,0,0,0,0c-0.1,0-0.3,0-0.4,0c-0.3,0-0.4,0.1-0.5,0.3
				c-0.3,0.4-0.5,0.9-1,1.1c-0.3,0.1-0.3,0.3-0.5,0.5c-0.1,0.2-0.2,0.4-0.4,0.6c-0.2,0.1-0.4,0.2-0.6,0.3c-0.3,0.1-0.4,0.3-0.7,0.5
				c-0.2,0.1-0.4,0.4-0.7,0.4c-0.3,0-0.8-0.1-0.8,0.2c0,0.2,0,0.5,0.1,0.8l-0.1,0c-0.4,0-0.5,0.4-0.8,0.5c-0.4,0.2-0.6,0-0.9,0.3
				c-0.3,0.3-2.1,1.2-0.9,1.7c0.2,0.1,0,0.6,0,0.8c-0.1,0.6-0.8,1-1.2,1.4c-0.1,0.1-0.1,0.2-0.1,0.4c0.2,0,0.3,0,0.5-0.1
				c0.1-0.1,0.2-0.2,0.3-0.2c0.4,0,0.2,0.7,0,0.8c-0.2,0.2-0.5,0.1-0.8,0.3c-0.3,0.2-0.3,0.4-0.5,0.8c-0.2,0.4-0.7,0.5-0.8,0.8
				c0.5,0,0.8-0.2,1.1-0.5c0.3-0.2,0.5-0.5,0.8-0.7c0.2,0.1,0,0.4,0.1,0.6c0,0.1,0.1,0.1,0.2,0.1c0.1,0.2-0.1,0.2-0.2,0.3
				c-0.4,0.2-0.7,0.3-0.8,0.8c0,0.3,0.2,0.8,0.5,1c0.1,0.1,0.4,0.1,0.5-0.1c0.1-0.1,0.1-0.6,0.4-0.4c0.1,0.1,0.2,0.3,0.2,0.4
				c-0.3,0.1-0.7,0.2-1,0.3c-0.1,0-0.3,0.1-0.4,0.2c-0.1,0.1,0,0.3,0,0.5c0,0.4-0.5,0.5-0.5,0.9c-0.1,0.4-0.1,0.8-0.3,1.2
				c-0.1,0.2-0.2,0.3-0.3,0.5c-0.1,0.2-0.4,0.1-0.4,0.4c0.2,0.1,0.4,0,0.6,0.1c0.2,0.1,0.2,0.5,0.3,0.7c0.1,0.3,0.1,0.6,0.3,0.9
				c0.5,0.6,0,1.1-0.3,1.7c-0.1,0.3-0.2,0.6-0.6,0.6c-0.3-0.2-0.8-0.2-1-0.1c-0.2,0.1-0.4,0.4-0.7,0.4c-0.2-0.1-0.3-0.3-0.1-0.5
				c-0.2-0.2-0.9-0.1-1.1-0.1c-0.5,0.1-0.4,0.3-0.8,0.6c-0.5,0.5-1.9,0.1-2,0.9c0,0.2,0.1,0.4,0,0.5c-0.1,0.3-0.3,0.2-0.5,0.3
				c-0.5,0.2-0.2,0.5-0.3,1c0,0.5-0.3,0.8-0.7,1c-0.3,0.2-0.7,0.4-0.7,0.8c0,0.3,0.3,0.4,0,0.7c-0.2,0.1-0.3,0.1-0.5,0.1
				c-0.6,0.1-0.3,0.4-0.6,0.8c-0.1,0.2-0.5,0.1-0.5,0.2c0,0,0,0.1,0,0.1c-0.4-0.3-0.9,0.5-1.1,0.7c-0.4,0.4-1,0.5-1.6,0.8
				c-0.3,0.2-0.5,0.3-0.6,0.6c-0.1,0.3,0,0.3-0.3,0.5c-0.5,0.3-1.1,0.3-1.7,0.4c-0.2,0-0.3,0-0.5,0.2c-0.2,0.2-0.1,0.2-0.2,0.3
				c-0.1,0.1-0.1,0.2-0.2,0.3c-0.1,0.1-0.3,0.1-0.4,0.1c-0.1,0.3,1,0.5,1.3,0.7c0.4,0.3,0.7,0.6,0.7,1.1c0,0.6-0.1,1.3,0,1.9
				c0.1,0.7,0.5,0.9,0.5,1.6c0,0.2-0.1,0.6,0,0.8c0.1,0.3,0.4,0.3,0.1,0.8C37.1,76.1,37,76,37,76.4c0,0.2,0,0.4-0.2,0.6
				c-0.4,0.6-1,0.3-1.6,0.1c-0.3-0.1-0.5-0.1-0.6-0.5c0-0.2,0.1-0.6,0.1-0.7c0.1-0.3-0.1-0.2,0.3-0.3c0.2-0.1,0.4,0.1,0.5-0.2
				c0.2-0.2,0.1-0.7,0.1-1c0-0.5-0.1-0.7-0.5-0.3c-0.2,0.2-0.3,0.4-0.6,0.4c-0.2-0.1-0.3-0.3-0.3-0.5c0-0.4,0.3-0.5-0.2-0.7
				c-0.1-0.3,0.2-0.5,0-0.7c-0.2-0.1-0.6,0.1-0.8-0.1c-0.4-0.3-0.7-1.1-1-1.5c-0.3-0.5-0.7-0.6-1.1-0.8c-0.5-0.3-0.6-0.9-0.9-1.4
				c-0.2-0.3-0.5-0.2-0.8-0.5c-0.2-0.2-0.3-0.7-0.6-0.7c0,0.4-0.2,0.8-0.5,1.1c-0.4,0.4-0.6,0.5-0.3,0.9c0.2,0.3,0.4,0.5,0.6,0.8
				c0.2,0.3,0.3,0.6,0.4,0.9c0.4,0.9,0.9,1.6,1.3,2.5c0.3,0.7,0.9,1.6,0.9,2.4c0,0.3-0.2,1-0.4,1.3c-0.2,0.2-0.4,0.1-0.6,0.2
				c-0.3,0.1-0.5,0.2-0.7,0.3c-0.7,0.5-1.1,1.6-1.6,2.3c-0.4,0.5-1.2,1.9-2.1,1.3c-0.5-0.3-0.4-0.9-0.7-1.3
				c-0.2-0.2-0.4-0.2-0.7-0.2c-0.4,0-0.3,0-0.5,0.3c-0.2,0.3-0.3,0.6-0.3,0.9c0,0.3,0.2,0.5,0.3,0.8c0,0.2,0,0.5-0.1,0.7
				c-0.2,0.2-0.4,0.1-0.6,0.2c-0.3,0.1-0.2,0.2-0.3,0.5c0,0.3-0.1,0.5-0.2,0.7c-0.2,0.5-0.4,1-0.6,1.5c1.1,0.9,1.7,2.6,3.1,3.1
				c0,0.3,0,0.5-0.2,0.7c-0.2,0.2-0.5,0.2-0.6,0.6c-0.1,0.2,0,0.7,0.1,0.8c0.4,0.4,0.4-0.2,0.7-0.4c0.7,0.3,1.1,1.2,1.2,1.8
				c0,0.3,0,0.9,0.5,0.9c0.7,0.1,0.1-1.1,0.9-0.8c0.3,0.1,0.5,0.6,0.6,0.9c0.1,0.2,0.1,0.4,0.2,0.6c0.1,0.1,0.3,0.3,0.4,0.4
				c0.1,0.4-0.1,1-0.2,1.4c0,0.2,0.1,0.6,0,0.8c-0.1,0.3-0.4-0.1-0.3,0.4c0,0.3,0.5,1.1,0.2,1.5c-0.4,0.4-0.7-0.6-0.9-0.8
				c-0.1,0.3-0.1,0.7-0.2,1c0,0.2,0,0.6,0,0.8c0.1,0.8,0.7,0.9,1.2,1.4c0.5,0.5,0.2,1.1,0.2,1.7c0.1,0.8,0.9,1.1,1.1,1.8
				c0.2,0.6-0.6,1.5-1,2c-0.4,0.5-1.1,0.3-1.7,0.5c-0.2,0.1-0.6,0.1-0.8,0.2c-0.5,0.3-0.1,0.9,0,1.3c0.2,0,0.8-0.2,0.9-0.1l0.5,0.5
				c0.2,0.4-0.1,0.2-0.2,0.6c-0.2,0.4,0.1,0.5,0.3,0.8c0.1,0.2,0.2,0.5,0.2,0.7c0,0.3-0.2,0.3-0.3,0.6c-0.1,0.5,0.8,0.7,1.1,0.9
				c-0.2,0.3-0.6,0.1-0.8,0.4c-0.2,0.3,0.1,0.7,0.1,0.9c0.1,0.5,0.2,1,0.2,1.4c0,0.3-0.2,0.5-0.2,0.8c0,0.3,0.2,0.5,0.4,0.7
				c0.4,0.5,0.6,1,0.9,1.5c-0.5,0.1-0.8-0.5-0.8,0.3c0,0.4,0,0.8-0.1,1.2c0,0.4,0,0.7,0,1.1c0,0.4-0.2,1.2,0.1,1.6
				c-0.2,0.2-0.4,0.3-0.6,0.5c-0.2,0.2-0.2,0.4-0.4,0.6c-0.3,0.3-0.6,1-1.1,0.6c-0.4,0.8-0.6,1.6-0.1,2.4c0.2,0.3,0.5,0.6,0.9,0.6
				c0,0.1,0.1,0.3,0.2,0.4c0.1,0.2,0.4,0.2,0.5,0.4c0.1,0.1,0.1,0.3,0.2,0.4c0.3,0.4,0.4,0,0.6-0.3c0.2-0.5,0.5-1.3,1.2-1
				c0,0,0.3,0.2,0.3,0.2c0.2,0.2,0.2,0.1,0.1,0.4c-0.2,0.8-0.6,0.4-1.1,0.6c-0.5,0.2-0.2,0.7,0.1,1c0.2,0.2,0.7,0.2,1,0.3
				c0.3,0,0.7,0.2,1,0c0.3-0.2,0.1-0.7,0.4-0.8c0.2-0.1,0.6,0.1,0.7,0.2c0.4,0.3,0.3,0.4-0.1,0.5c-0.4,0.1-0.3,0.2-0.3,0.6
				c0,0.3,0.1,0.4,0.3,0.7c0.2,0.2,0.3,0.4,0,0.5c-0.2,0.1-1,0-0.8-0.4c0.1-0.1,0.3,0,0.3-0.2c0-0.1-0.1-0.2-0.1-0.3
				c-0.1-0.1-0.6-0.4-0.7-0.1c-0.1,0.2,0.3,0.3,0.2,0.5c-0.1,0.2-0.2,0-0.4,0.1c-0.2,0.1-0.1,0.6-0.1,0.8c0.1,0.2,0.4,0.4,0.4,0.6
				c0,0.2-0.2,0.2-0.2,0.3c-0.2,0.2-0.2,0.5-0.5,0.6c-0.4,0.1-0.7-0.1-1,0.2c-0.2,0.2-0.5,0.4-0.7,0.7c-0.3,0.4,0.1,0.5,0.2,0.8
				c0.1,0.3-0.2,0.6-0.4,0.8c-0.3,0.2-0.6,0.3-0.9,0.4c-0.1,0.1-0.3,0.1-0.4,0.2c-0.1,0.2-0.1,0.2,0,0.2c-0.5,0.2-1.1,0.7-0.9,1
				c0.1,0.2,0.7,0.2,0.6,0.4c0,0.2-0.6,0.2-0.7,0.3c-0.6,0.3-0.8,0.8-1.2,1.2c-0.1,0.1-0.1,0.2-0.2,0.3c-0.1,0.1-0.3-0.1-0.4,0
				c-0.1,0.1-0.2,0.4-0.3,0.5c-0.1,0.1-0.4,0.5-0.2,0.7c0.1,0.2,0.4-0.1,0.7,0.1c0,0.2-0.1,0.3-0.1,0.5c-0.5,0.1-0.6,0.2-0.6,0.7
				c0,0.4-0.3,0.6-0.3,1c-0.4-0.1-0.6,0-0.6,0.5c-1,0.1-0.3,0.3-0.4,1c-0.5,0.1-0.6-0.6-1.1-0.5c-0.4,0.1-0.3,0.7-0.5,0.9l-0.2-0.1
				c-0.1-0.1-0.1-0.2-0.3-0.2c0,0,0,0.1,0,0.1h0c-0.3,0.4-0.4,0.9-0.9,1.2c-0.8,0.5-0.6,0-0.9-0.5c-0.2-0.4-1.1-0.7-1.5-0.3
				c-0.1,0.1,0,0.5-0.1,0.6c-0.1,0.3-0.5,0.4-0.7,0.6c-0.3-1.1-0.7,0.7-0.9,0.8c-0.1-0.2-0.3-1.1-0.6-1.1c-0.2,0-0.6,0.7-0.8,0.9
				c-0.3,0.3-1,0.2-1.3,0.6c-0.3,0.3,0.1,0.9-0.5,0.9c-0.1,0.8-0.2,1.2,0.1,2.1c0.7,0,0.6,1,0.4,1.4c-0.1,0.3-0.3,0.6-0.6,0.7
				c-0.3,0.2-0.5,0-0.8,0.2c-0.9,0.4,0.6,0.8,0.9,1.1c0.1,0.1,0,0.3,0,0.4c0.1,0.2,0.4,0.1,0.5,0.3c0.1,0.2,0.2,0.6,0,0.8
				c-0.3,0.7-0.8,0.3-1.4,0.3c-0.6,0-1.2,0.1-1.8,0c-0.3,0-0.6-0.2-0.8-0.1c-0.2,0.1-0.6,0.8-0.8,1c-0.4,0.4-1,0.7-1.1,1.3
				c-0.2,0.7,0.4,1.3,0.9,1.4c0.4,0.1,0.6-0.1,0.9,0.3c0.2,0.2,0.2,0.7,0.4,1c0.2,0.2,0.6,0.3,0.8,0.6c0.2,0.2,0.4,0.5,0.6,0.7
				c0.5,0.5,0.9,0.9,1.5,1.3c1.1,0.8,2.6,0.6,3.4,1.9c0.3,0.5,0.3,0.6,0.8,0.7c0.4,0.1,0.8,0,1.1,0.3c0.5,0.3,0.9,0.8,1.4,1.1
				c0.2,0.1,0.8,0.3,1,0.5c0.2,0.3-0.2,0.4,0.4,0.7c0.6,0.3,1.7,0.6,2.4,0.5c0.4-0.1,1.7-0.8,2-0.4c0.4,0.6-0.3,1,0.4,1.6
				c0.5,0.4,1.7,0.6,1.7,1.1c0,0.3-0.5,0.4-0.2,0.9c0.2,0.3,0.5,0.5,0.6,0.8c0.2,0.4,0.4,1.1,0.8,1.3c0.4,0.2,0.6-0.1,1-0.1
				c0.6,0,1.1,0.7,1.6,0.6c0.5-0.1,0.7-0.7,1.4-0.2c0,0,0-0.1,0-0.1c0.2,0.2,0.4,0.3,0.6,0.4c0.4,0.2,0.6,0.1,1,0.4
				c0.1,0.1,0.7,0.4,0.8,0.5c0.1-0.1,0.6,0.1,0.6-0.1c0.3,0,0.6,0.1,0.8,0.2c0,0,0.3,0,0.4,0c-0.1-1.3,1.9,0.1,2.2,0.2
				c0.6,0.1,2.3-0.4,1.6-1.3c-0.7-1,0.5-0.8,1-0.9c0.5-0.1,1.2-0.9,1.7-0.1c0.2,0.3,0.7,0.6,1.1,0.6c0,0,0.2,0,0.2,0.1
				c-0.1,0.7,0.8,0.5,1.3,0.5c0.1,0.1,0.3,0.3,0.3,0.4c0.6,0.5,0.9,1.1,1.2,1.8c0.3,0.5,0.7,0.9,1.3,0.9c0.6,0,1.2,0,1.8,0.1
				c0.7,0.1,1.1,0.5,1.7,0.9c0.9,0.6,2.7,1.8,3.8,1.1c0.5-0.3,0.9-0.7,1.4-0.6c0.3,0.1,0.5,0.3,0.7,0.5c0.3,0.3,0.7,0.5,1.1,0.8
				c0.3,0.2,0.5,0.4,0.8,0.6c0.3,0.3,0.5,0.4,0.9,0.2c0.4-0.2,0.9-0.3,1.2,0.1c0.2,0.3,0.2,0.8,0.3,1.1c0.1,0.3,0.3,0.9,0.7,0.9
				c0.4,0,0.6-0.2,1,0c0.3,0.2,0.6,0.5,0.9,0.8c0.3,0.3,0.6,0.4,0.9,0.6c0.4,0.2,0.5,0.6,0.8,1l0.3-0.1c-0.1,0.2,0,0.6,0,0.8
				c0.1,0.3,0.3,0.6,0.4,0.8c0,0.3-0.2,0.4-0.2,0.6c0,0.3,1.8,2,0.8,2c-0.1,0.4,0.4,0.5,0.6,0.7c0.2,0.2,0.1,0.6,0.3,0.9
				c0.3,0.3,0.9,0.2,1.3,0.3c0.5,0.1,0.8,0.4,1.3,0.5c0,0,0-0.1,0.1-0.2c0.3,0.2,0.1,0.4,0.4,0.7c0.2,0.2,0.6,0.1,0.8,0.2
				c0.5,0.2,0.9,0.7,1.3,1.1c0.5,0.5,0.7,0.3,1.4,0.3c0.6,0,0.9,0.3,1.4,0.6c0.4,0.3,0.7,0.6,0.7,1.2c0,0.6-0.2,0.8,0.2,1.3
				c0.3,0.4,0.6,0.6,0.7,1.1c0.1,0.5-0.2,1.1-0.1,1.6c0.2,1,1.8,1.9,2.8,1.6c0.5-0.1,1-0.5,1.4-0.1c0.2,0.2,0.6,1,0.8,1.3
				c0.2,0.5,0.1,1,0.2,1.5c0.1,0.4,0.5,0.8,0.4,1.3c-0.1,0.2-0.3,0.2-0.4,0.4c-0.2,0.3-0.2,0.4-0.3,0.7c-0.3,0.7-0.2,1.1,0.4,1.6
				c0.7,0.7,1.3,0,1.9,0.6c0.5,0.6,0.4,1,1.3,0.6c0.3-0.1,0.7-0.5,1-0.5c0.4,0,0.4,0.3,0.7,0.6c0.5,0.4,1.2,0.1,1.1-0.6
				c0.2,0,0.3-0.1,0.4-0.1c0.4,0,0.9,0.2,1.4,0.3c0.4,0,0.9,0.1,1.2,0.2c0.4,0.2,0.5,0.6,1,0.5c0.3,0,0.7-0.4,1-0.5
				c0.5-0.1,1.2,0.2,1.6,0c0.4-0.2,0.4-0.9,0.9-1.1c0.5-0.1,0.8,0.1,1.2,0c0.4-0.2,0.7-0.5,0.9-0.9c0.4-0.5,1.2-1.6,2-1.4
				c-0.2,0.9,1.2,0.5,1.7,0.6c1,0.1,0.7,0.6,1.2,1.2c0.2-0.1,0.3-0.2,0.3-0.5c0.7,0.1,0.5,0.8,0.9,1.2c0.4,0.4,1,0.1,1.5,0
				c0.3-0.1,0.6-0.2,0.9-0.2c0.2,0,0.4,0.1,0.6,0.1c0.6-0.1,0.4-0.3,0.9-0.7c0.4-0.3,0.9-0.1,1.3-0.3c0.2-0.1,0.2-0.7,0.6-0.8
				c0.2-0.1,0.3-0.1,0.5-0.1c0.4,0,0.8,0.1,1.1,0.3c0.2,0.2,0.2,0.3,0.3,0.5c0.2,0.4,0,0.2,0.4,0.4c0.5,0.3,0.6,0.3,0.9,0.9
				c0.1,0.2,0.2,0.5,0.4,0.6c0.2,0.1,0.5-0.1,0.6,0c0.3,0.2,0.4,0.5,0.4,0.8c0.5,0.1,0.2-0.4,0.5-0.5c0.5-0.1,0.7,0.5,1,0.7
				c0.5,0.4,1.1,0.3,1.7,0.3c0,0.2,0,0.4,0,0.6c0.1,0,0.3-0.1,0.4-0.1c0.3-0.2,0.8-0.2,1,0c0.1,0.1,0.1,0.5,0.1,0.6
				c0.1,0.2,0.5,0.2,0.5,0.6c0.4,0,0.6,0.3,0.6,0.6c0.6-0.7,0.7-0.1,0.7,0.6l-8.2,13.5c0.5,0,1.3-0.1,1.8,0.1
				c0.3,0.1,0.5,0.3,0.8,0.4c0.3,0.1,0.6,0.2,0.9,0.2c0.3-0.1,0.6-0.5,1-0.6c0.5-0.2,1.3-0.4,1.7,0c0.5,0.6,0.6,1.4,1,2.1
				c0.2,0.3,0.4,0.3,0.7,0.5c0.3,0.3,0.5,0.8,0.7,1.2c0.2,0.3,0.3,0.7,0.5,1c0.2,0.3,0.6,0.5,0.9,0.6l6.9-36.7
				c-0.1-0.5,0.1-1.1-0.1-1.5c-0.1-0.4-0.1-0.4,0-0.9c0.3-1-0.2-1.2-0.8-1.8c0.2,0,0.5,0,0.6,0c0.1-0.4-0.3-0.7-0.6-0.9
				c-0.2-0.2-0.4-0.3-0.5-0.6c-0.1-0.2-0.1-0.4-0.2-0.7c-0.2-0.3-0.4-0.6-0.7-0.8c-0.1-0.1-0.4-0.3-0.5-0.4c-0.1-0.3,0.2-1,0.4-1.2
				c0,0,0.1-0.2,0.1-0.2c0,0,0.1-0.1,0.1-0.1c0-0.4-0.3-0.6-0.3-1c0.1-0.5,0.2-0.7-0.3-1c-0.6-0.4-1.3-0.6-1.8-1.1
				c-0.2-0.2-0.5-0.5-0.8-0.6c-0.3-0.1-0.6,0-0.9-0.1c-0.3-0.1-0.3-0.4-0.5-0.6c-0.2-0.3-0.6-0.4-0.8-0.7c-0.2-0.2-0.2-0.5-0.2-0.8
				c-0.1-0.2-0.4-0.5-0.3-0.7v-8.1c0.1-0.2,0.3-0.2,0.5-0.3c0.4-0.1,0.7-0.1,1.1-0.2c0.4-0.1,0.8-0.1,1.2-0.1c0.3,0,0.8-0.1,1.1-0.3
				c0.3-0.3,0.2-0.8,0.8-0.7c0.5,0,0.6,0.5,1.1,0.2c0.4-0.2,0.7-0.5,1-0.8c0.9-0.6,1.2,1.1,1.9,1.3c0.5,0.1,0.3-0.7,0.8-0.2
				c0.2,0.2,0.2,0.2,0.5,0.2c0.4,0,0.4-0.1,0.7-0.3c0.2-0.2,0.3-0.1,0.6-0.1c0.2,0,0.4,0,0.6-0.1c0.3-0.3-0.1-0.7-0.3-0.9
				c-0.1-0.1-0.4-0.3-0.4-0.4c-0.1-0.2,0.1-0.3,0.2-0.5c0.3-0.4-0.5-0.5,0-0.9c0.1-0.1,0.3-0.1,0.3-0.3c0-0.2-0.1-0.2-0.3-0.3
				c-0.2-0.1-0.3-0.2-0.3-0.4c-0.1-0.3,0.1-0.3-0.2-0.6c-0.2-0.1-0.3,0-0.3-0.2c-0.1-0.1,0-0.3,0-0.4c-0.1-0.3-0.4-0.5-0.6-0.6
				c-0.4-0.3-0.7-0.3-1.2-0.3c-0.2,0-0.3,0-0.5,0c-0.3,0.1-0.2,0.4-0.4,0.5c-0.2-0.3-0.5-0.6-0.8-0.6c-0.3,0-0.3,0.2-0.5,0.4
				c-0.3,0.2-0.2,0.1-0.4-0.1c-0.1-0.1-0.3-0.5-0.6-0.5c-0.2,0-0.1,0.3-0.3,0.3c-0.3,0.1-0.9-0.2-1-0.4c-0.1-0.3-0.6-0.4-0.9-0.2
				c-0.2,0.2-0.4,0.5-0.8,0.5c-0.1-0.4,0-1,0-1.4c0-1.1,0.2-2.3,0.2-3.4c0-0.7,0-1.4,0-2.1c0-0.4,0-1,0-1.4c0.5,0.3,0.3,0.2,1,0.2
				c0.5,0,0.9,0.1,1.4,0c0.3,0,0.5,0,0.8-0.1c0.3-0.2,0-0.5,0.3-0.7c0.5-0.3,1.3,0.4,1.7,0.7l15.5,0.3c0.3-0.6-1.8-2.8,0-3
				c1-0.1,2,1.7,2.6,2.2c1,0.8,1.5,0.4,1.8-0.6c0.2-0.5,0.2-1,0.7-1.3c0.5-0.3,1.2-0.4,1.8-0.8c0.8-0.6,1.7-1.6,2.6-1.8
				c1.2-0.3,1.3,0.9,1.4,1.7c0.2,1.1,0.6,1.9,1.3,2.7c0.8,0.8,1.1,1.2,1.4,2.2c0.2,0.9,0.6,1.9,0.6,2.9c0,1-0.2,2.1,0,3.2
				c1.1-0.2,2.6-0.3,2.8-1.4C163.7,161.5,163.1,160.4,162.9,159.4z"/>
			<g>
				<path class="st1" d="M162.8,159.4c-0.2-0.9-0.6-1.7-0.9-2.5c-0.1-0.4-0.2-0.9-0.4-1.3c-0.2-0.4-0.5-0.7-0.8-1.1
					c-0.9-1.1,0.2-2.9-1.3-3.6c-0.9-0.6-0.1-1.8-0.5-2.6c-0.5-1.3-1.7-2-2.6-3c-0.6-0.6-1.6-1-1.9-2c-0.1-0.4-0.3-0.9-0.6-1.1
					c-0.4-0.2-0.7,0.5-1.2,0.3c0,0-0.1,0-0.1,0c-0.1-0.1-0.4-0.2-0.5-0.2c0,0-0.3-0.1-0.3-0.1c-0.1,0-0.2-0.1-0.2-0.1
					c0,0,0.1,0,0.1-0.1l-0.2,0c-0.2-0.3,0-0.6,0.2-0.7c1.6-1.8,3.5-3.3,5.2-5c1-1.1,1.9-1.7,0-2.9c-1.2-0.8-0.6-2.6-1.4-3.6
					c-0.2-0.4-0.5,0.2-1,0.3c-0.6,0.1-0.8-0.5-1-1c-0.3-0.9-0.3-1.8-0.8-2.6c0,0,0.1-0.1,0.1-0.1s0.1-0.1,0.1-0.1s0,0.2,0,0.2
					c-0.3-1-0.7-1.8-1.1-2.8c-0.2-0.5,0-1.1,0.2-1.5c0.3-1-1-1.6-0.9-2.7c-0.1-1,0.2-2,0.4-3c0.1-0.4,0.1-1-0.2-1.2c0,0-0.1,0-0.1,0
					l0-0.1c0,0,0.1-3,0.1-3c0-0.8-0.1-1.5-0.1-2.2c0-0.2,0-0.6,0.3-0.8c0.8-0.7,2-0.7,2.4-1.6c0.2-0.4,0.1-0.9,0.1-1.4
					c0-0.8,0-1.6,0.3-2.3c0.2-0.5,0.1-1.1,0.5-1.5c0.6-0.6,1.4-0.3,1.6-1.3c0.1-0.5,0-0.8-0.4-1.2c-0.3-0.5-0.4-1-0.5-1.5
					c-0.2-0.8-0.7-1.5-1.6-1.3c-0.4,0-0.8-0.3-1.1-0.3c-0.2,0-0.4,0.1-0.7,0.1c-0.5,0.1-1-0.1-1.5,0.1c-0.5,0.1-0.6,0.7-1.1,0.9
					c-0.5,0.3-1.1,0.2-1.6,0.2c-0.7,0-1.5-0.1-2.1,0.1c-0.4,0.2-0.9,0.6-1.5,0.5c-0.7-0.1-1.5-0.4-2.1-0.3c-0.4,0.1-0.7,0.5-1.3,0.7
					c-1.1,0.4-2-0.5-2.9-0.7c-0.4-0.1-0.9,0.2-1.5,0c-0.2-0.1-0.3-0.2-0.3-0.2c0,0-0.1,0-0.3,0c-0.5,0-0.9-0.3-1.2,0
					c-0.2,0.2-0.7,0.8-1,1.1c-0.2,0.2-0.2,0.3-0.5,0.6c-0.3,0.3-0.8,0.1-1-0.2c-0.2-0.3-0.3-0.5-0.3-0.5c-0.1-0.1-0.2,0-0.5,0.1
					c-0.3,0.1-0.6,0.1-1,0.1c0,0-0.1-0.1-0.1-0.1s-8.8-10.8-8.8-10.8l0.2,0.1c-1,0-2.2,0.5-3.2,0.1c0,0-1.5-0.6-1.5-0.6
					c-0.5-0.1-0.9-0.6-1.4-0.7c-0.9-0.2-2-0.4-2.9-0.1c-0.4,0.2-0.9,0.5-1.4,0.7c-0.5,0.2-0.9,0.7-1.5,0.6c-0.2,0-0.6,0.1-0.8-0.1
					c-0.2-0.2-0.2-0.3-0.2-0.5c0,0,0.1,0.1,0,0c-0.1,0-0.2-0.1-0.3-0.1c-0.4-0.1-0.9,0-1.5,0.1c-0.6,0-1.8,0-2.4,0
					c-0.4,0-0.8,0.2-1.3,0c-0.3-0.1-0.4-0.3-0.6-0.3c-0.4,0-0.6,0.4-1.2,0.2c-0.4-0.2-0.6-0.4-0.7-0.4c0,0-0.1,0-0.2,0
					c0,0-0.1,0,0,0c0.1-0.1,0-0.1,0,0c-0.1,1.2-1.8,0.7-2.4,1c0,0-0.2,0-0.2,0c0,0-0.3-0.1-0.3-0.1c-0.4,0-0.6-0.4-0.8-0.6
					c0,0-0.3-0.2-0.3-0.2s-0.6-0.9-0.6-0.9c-0.7-0.8-0.8-2.3-1.2-3.1c-0.1-0.1-0.1-0.1-0.1-0.1c0,0-0.1,0-0.2,0.1
					c-0.1,0.1-0.3,0-0.4,0.1c-1.3,0-2.9-0.4-2.8-1.9c-0.1-1.6-0.5-2.9,0.2-4.4c0.1-0.4,0-0.9,0.3-1.2c0.3-0.3,0.5-0.3,0.5-0.7
					c0.1-0.3,0-0.7,0.1-1c0-0.3,0.1-0.8,0.1-1c0-0.2,0-0.1-0.1-0.3c-0.1-0.1-0.3-0.5-0.3-0.8c0.3-1.2-0.4-1.5-1.4-2.2
					c-1.3-0.9-2.1-2.4-2.4-3.9c-0.3-1-1-3.2-1-4.3c0-0.3-0.6-0.3-1.3,0c-0.2,0.1-0.6,0.2-0.9,0c-0.7-0.4-0.5-1.4-0.5-1.9
					c0,0,0.3,0.4,0.3,0.4c-0.3,0-0.7-0.4-0.7-0.7c0,0,0,0.1,0,0.1c-0.1,0,0.1,0,0,0c-0.5,0.2-1,0.7-1.5,1.1
					c-0.8,0.5-1.8,0.4-2.7-0.1c0.5-2.5,2.4-4,3.6-6c0.3-0.6,0.7-1.3,1.1-1.9c0.1-0.2,0.1-0.4,0.1-0.8c-0.1-0.8-0.1-1.6,0.1-2.4
					c0.2-0.7,0.8-1.2,0.7-1.8c0-0.3-0.2-0.7-0.1-1.2c0.3-1.1,1.1-1.3,1.2-2.3c0,0,0.4,0.1,0.4,0.1c0,0,0.1,0,0,0c0,0-0.1,0-0.2,0.1
					c0,0,0,0,0,0c1.5-2.6,2.1-5.7,4.3-8c0.8-0.8,1.9-1.4,3.1-1.4c0,0-0.4,0.2-0.4,0.2s3.3-6.6,3.3-6.6s0.1-0.1,0.1-0.1l0.2,0
					c0,0,6.4-1.9,6.4-1.9s0.8-0.2,0.8-0.2c0.1,0,0.3-0.1,0.3-0.1c0.3-0.2,0.4-0.6,0.5-0.9c0.1-0.2,0.4-0.4,0.5-0.4c0,0,0.2,0,0.2,0
					c0,0,0,0,0,0c0.1,0,0.1-0.2,0.3-0.3c0.2-0.1,0.3-0.2,0.5-0.3c0.3-0.1,0.6-0.2,0.8-0.2c0.2-0.1,0.2-0.2,0.2-0.3
					c-0.1-0.7-0.9-1.3-1.1-2.1c-0.3-0.7-0.5-1.5-1.1-1.7c-0.1,0-0.2,0-0.3-0.1c-0.1-0.1-0.2-0.1-0.2-0.1c-0.1,0,0,0,0,0
					c0,0-0.1,0-0.2,0c-0.2,0-0.7,0.1-1-0.1c-0.7-0.5-1.2-1-2.1-1.1c-0.1,0-0.2,0-0.3,0c0,0,0,0,0,0c0,0.3,0.1,0.6-0.1,0.9
					c-0.1,0.1-0.1,0.2-0.4,0.3c-0.2,0.1-0.4,0-0.5-0.1c-0.2-0.1-0.3-0.2-0.2-0.2c0.1,0,0.2,0,0.2,0c0,0,0,0,0,0.1
					c0,0-0.1,0.4-0.1,0.4c0,0.1-0.1,0.2-0.2,0.3c-0.2,0.3-0.7,0.2-0.9,0.1c0,0-0.1,0-0.1,0c0,0-0.1,0-0.2,0c-0.5-0.1-0.4-0.7-0.4-1
					c0,0,0.3,0.4,0.3,0.4c0.1,0,0.1-0.1,0,0.1c-0.2,0.6-0.7,1-1.2,1.1c0,0,0.1-0.6,0.1-0.6c0.2,0.1,0.8,0.2,1.1,0.8
					c0,0.2,0.1,0.2,0.1,0.5c0,0.2-0.3,0.3-0.4,0.3c-0.1,0-0.1,0.1-0.3,0.3c-0.2,0.2-0.5,0.3-0.8,0.3c-0.4,0-0.8-0.5-0.6-0.9
					c0,0,0.1-0.2,0.1-0.2s0.1-0.2,0.1-0.2c0-0.1,0-0.2,0-0.1c0,0,0,0.1,0.1,0.1c0.1,0,0.1,0,0.1,0c0,0,0,0,0,0s-0.1,0-0.1,0
					s0.3-0.2,0.3-0.2c-0.7,1-1.5,0.5-2.2,0.6c0,0,0,0,0-0.1c0-0.1,0-0.2,0-0.1c0,0,0.2,0.2,0.2,0.4c0.1,0.3,0.1,0.6,0.1,0.8
					c0,0.5,0,1.2-0.3,1.5c-0.2,0.3-0.4,0.7-0.5,1c-0.4,0.5-0.8,1-1.3,1.4c-1.1,0.6-2.3,1-3.5,1.2c-1,0-1.8,0.4-2.7,0.7
					c-0.4,0.2-0.5,0.7-0.9,1c-0.3,0.3-0.9,0.6-1.2,0.8c-1.2,0.8-2,1.9-3,3c-0.2,0.2-0.5,0.3-0.7,0.4c-0.2,0.1-0.4,0.3-0.9,0.3
					c0,0,0.2,0,0.2,0c-0.6,0.2-1.3,0.4-1.9,0.4c-0.5,0-1.4,0-1.9-0.1c0,0,0.2-0.5,0.2-0.5c0.1,0.1,0.1,0.2,0.1,0.3c0,0,0,0.4,0,0.4
					S77,34.6,77,34.6c-0.7-0.2-1.5,0.1-2.4,0c-1-0.2-2-0.6-2.8-1.2c-0.1,0-0.1,0-0.3,0.2c-0.3,0.3-0.7,0.1-1,0.1c-0.1,0-0.1,0-0.1,0
					c-0.1,0.1-0.3,0.3-0.4,0.4c-0.9,0.6-0.5,1.7-0.6,2.7c-0.1,1.2-1.5,1.9-2.6,1.7c-0.2,0-0.4-0.1-0.6-0.2c0,0-2.3-0.9-2.3-0.9
					c-0.7-0.3-1.5-0.6-2.3-0.5l0.2-0.3c0-0.1,0-0.1-0.1-0.2c0,0-0.3,0.4-0.3,0.4c-0.2,0-0.5-0.1-0.6,0.2c-0.3,0.4-0.6,0.9-1.1,1.2
					c-0.2,0.1-0.2,0.1-0.3,0.2c-0.1,0.2-0.2,0.7-0.6,0.9c-0.4,0.2-0.7,0.2-0.9,0.4c-0.2,0.2-0.5,0.4-0.8,0.7c-0.2,0.2-0.8,0.1-1,0.1
					c0,0.2,0,0.5,0.1,0.7c0,0,0.1,0.4,0.1,0.4s-0.4-0.1-0.4-0.1s-0.1,0-0.1,0s0,0,0,0c-0.2,0-0.3,0.2-0.7,0.5
					c-0.3,0.2-0.6,0.1-0.8,0.2c-0.3,0.4-1.1,0.7-1.3,1.1c0,0.1,0.2,0.2,0.3,0.2c0.2,0.2,0.2,0.3,0.2,0.4c-0.1,0.3-0.1,0.7-0.3,1
					c-0.3,0.5-0.9,0.8-1.1,1.3c0,0-0.2-0.2-0.2-0.2c0.2,0,0.3,0,0.4-0.1c0.6-0.7,1.2,0.2,0.7,0.9c-0.2,0.3-0.5,0.3-0.7,0.3
					c-0.4,0.1-0.5,0.4-0.6,0.7c-0.2,0.5-0.8,0.6-0.8,0.9c0,0-0.2-0.3-0.2-0.3c0.8,0,1.3-0.7,1.8-1.2c0,0,0.1,0,0.1,0
					c0.2,0.1,0.3,0.3,0.2,0.5c0,0.1,0,0.3-0.1,0.1c-0.1,0,0.2,0,0.2,0.2c0,0.1,0,0.3-0.1,0.4c-0.2,0.1-0.2,0.1-0.4,0.2
					c-0.6,0.2-0.7,0.8-0.3,1.3c0.1,0.1,0.2,0.2,0.4,0.1c0.1,0,0,0,0.1-0.1c0.1-0.1,0-0.2,0.3-0.4c0.5-0.2,0.6,0.4,0.7,0.8
					c-0.4,0.2-1,0.3-1.4,0.5c0,0,0,0,0,0c0,0,0,0,0,0.1c0,0.1,0,0.2,0,0.4c-0.1,0.5-0.4,0.5-0.5,0.8c-0.1,0.6-0.2,1.6-0.9,1.9
					c-0.1,0.1-0.1,0-0.1,0.1c0,0-0.1-0.2-0.1-0.2c0,0,0.1,0,0.2,0c0.1,0,0.3,0,0.4,0.2c0.2,0.2,0.2,0.5,0.3,0.7
					c0.1,0.5,0.2,0.7,0.5,1.1c0.2,0.5-0.1,1-0.3,1.4c-0.3,0.3-0.3,1-0.9,1c0,0-0.1,0-0.1,0c-0.2-0.1-0.4-0.1-0.6-0.2
					c-0.2,0-0.3-0.1-0.4,0.1c-0.1,0.1-0.2,0.1-0.3,0.2c-0.3,0.2-0.7,0-0.8-0.3c0-0.2,0.1-0.4,0.2-0.5c0,0,0,0.3,0,0.3
					c-0.2-0.2-0.9-0.1-1.2,0.1c-0.1,0.1-0.3,0.4-0.5,0.6c-0.3,0.2-0.5,0.2-0.8,0.3c-0.5,0.1-1.1,0.2-1,0.5c0.1,0.3,0.1,0.7-0.2,0.9
					c-0.2,0.1-0.3,0-0.4,0.1c-0.1,0-0.2,0.1-0.2,0.2c0,0.1,0.1,0.4,0,0.7c0,0.3-0.1,0.6-0.4,0.8c-0.5,0.5-1.3,0.5-1.1,1.1
					c0,0.1,0.1,0.1,0.1,0.3c0,0.1-0.1,0.2-0.1,0.3c-0.2,0.3-0.8,0.1-0.9,0.4c0,0.1,0,0.3-0.1,0.4c0,0.1-0.1,0.1-0.1,0.2
					c-0.1,0.1-0.2,0.1-0.2,0.1c-0.1,0-0.3,0.1-0.3,0.1c0,0,0,0,0,0c0,0,0,0,0,0c0,0-0.2,0.2-0.2,0.2c-0.2-0.2-0.4,0.1-0.7,0.4
					c-0.6,1-2.2,0.7-2.5,1.9c-0.3,0.6-1.2,0.6-1.8,0.7c0,0-0.5,0.1-0.5,0.1c-0.1,0-0.2,0.1-0.3,0.2c0,0,0,0.2-0.1,0.2
					c0,0.1-0.2,0.4-0.4,0.4c-0.1,0-0.2,0-0.2,0.1l0.1-0.1c0.5,0.3,1.2,0.5,1.6,1c0.7,0.9,0.1,2.1,0.4,3.1c0.1,0.3,0.3,0.6,0.4,1
					c0.2,0.7-0.3,0.9,0.2,1.4c0.2,0.4-0.1,0.6-0.3,0.9c-0.1,0.2-0.1,0.4-0.2,0.7c-0.2,1-1.3,0.8-2,0.5c-0.1-0.1-0.3-0.1-0.5-0.3
					c-0.2-0.4-0.1-0.8,0-1.1c0,0,0,0,0-0.1c0,0,0.1-0.1,0.1-0.1l0.1,0c0,0,0.1,0,0.1,0c0.1,0,0.2-0.1,0.3-0.1c0.2,0,0.2,0,0.3-0.1
					c0.1-0.2,0-0.7,0-0.9c0-0.1,0-0.2,0-0.2c0,0,0,0,0,0c0,0,0.1,0,0,0c-0.3,0.1-0.5,0.6-0.9,0.6c0,0-0.1,0-0.1,0
					c-0.2-0.1-0.3-0.2-0.3-0.4c0-0.2,0-0.3,0-0.5c0-0.1,0.1-0.3,0.1-0.3c0,0-0.1-0.1-0.2-0.1c0,0-0.1,0-0.1,0s0-0.1,0-0.1
					c0-0.2,0.1-0.5,0.1-0.5c0,0-0.1-0.1-0.2,0c-1.2,0.3-1.3-1.8-2.2-2.1c-0.3-0.2-0.6-0.3-0.9-0.6c-0.4-0.4-0.4-1-0.8-1.2
					c-0.1-0.1-0.3-0.1-0.5-0.3c-0.2-0.2-0.2-0.4-0.3-0.5C29.1,68,29,67.9,29,68l0.2-0.2c0,0.6-0.4,1.2-0.8,1.6
					c-0.1,0.1-0.1,0.1-0.1,0.2c1,1.3,1.5,2.6,2.2,4c0.5,1,1.3,2.1,1,3.3c-0.1,0.3-0.1,0.6-0.3,0.9c-0.2,0.3-0.6,0.2-0.9,0.3
					c-1.1,0.4-1.4,1.5-2,2.5c-0.6,0.9-1.9,2.7-2.8,1c-0.2-0.6-0.3-1.1-0.8-1c0,0-0.2,0-0.2,0c-0.1,0,0,0,0,0c-0.2,0.3-0.3,0.7-0.3,1
					c0.1,0.3,0.4,0.9,0.2,1.3c-0.1,0.2-0.3,0.4-0.5,0.4c-0.2,0-0.2,0-0.3,0c0,0,0,0,0,0c0,0,0,0.1,0,0.1c0,0.3-0.1,0.6-0.2,0.9
					c0,0-0.6,1.6-0.6,1.6s-0.1-0.3-0.1-0.3c1.2,0.9,1.7,2.6,3.2,3.1c0,0.2,0,0.4,0,0.6c-0.1,0.2-0.2,0.3-0.3,0.5
					c-0.3,0.2-0.4,0.2-0.4,0.5c0,0.2,0,0.5,0.2,0.5c0,0,0,0,0,0c0,0,0,0,0-0.1c0.1-0.1,0.1-0.3,0.3-0.4c0,0,0.1-0.1,0.1-0.1
					c0.7,0.3,1.1,0.9,1.4,1.6c0.1,0.3,0.1,0.7,0.2,0.9c0.1,0.3,0.1,0.3,0.3,0.3c0,0,0,0,0.1-0.2c0-0.1,0-0.3,0.2-0.6
					c0.3-0.2,0.5-0.1,0.7,0c0.5,0.4,0.6,1.1,0.9,1.6c0.2,0.2,0.2,0.1,0.4,0.4c0.1,0.3,0,0.6,0,0.9c-0.1,0.2-0.1,0.5-0.2,0.7
					c0,0.2,0.1,0.4,0,0.8c0,0.1-0.1,0.2-0.3,0.3c-0.1,0-0.3,0.1-0.1,0c0.1-0.2,0-0.1,0.1,0c0.1,0.6,0.6,1.1,0.2,1.7
					c-0.1,0.2-0.5,0.3-0.6,0.2c-0.2-0.1-0.3-0.2-0.3-0.4c-0.1-0.2-0.3-0.5-0.3-0.6l0.4-0.1c-0.1,0.5-0.2,1.1-0.2,1.6
					c0.1,0.6,0.5,0.7,1,1.1c0.2,0.2,0.5,0.5,0.5,0.9c0,0.4,0,0.6,0,0.9c-0.1,0.8,1.1,1.3,1.1,2.2c0,0.7-0.4,1.2-0.8,1.7
					c-0.2,0.2-0.4,0.6-0.8,0.7c-0.3,0.1-0.6,0.1-0.9,0.1c-0.3,0-0.6,0.2-0.8,0.2c-0.3,0-0.3,0.1-0.3,0.2c0,0.2,0.1,0.4,0.2,0.8
					l-0.3-0.2c0.1,0,0.2,0,0.4-0.1l0.2,0c0.1,0,0.1,0,0.4,0c0,0,0.1,0,0.1,0s0.1,0.1,0.1,0.1s0.5,0.5,0.5,0.5s0.1,0.1,0.1,0.1
					c0,0.1,0.2,0.2,0,0.5c-0.2,0.2-0.2,0.1-0.2,0.2c0,0-0.1,0.1-0.1,0.1c0,0,0,0,0,0.1c0.4,0.4,0.8,1.3,0.2,1.8c0,0.1-0.1,0.1,0,0.1
					c0.2,0.2,0.5,0.3,0.9,0.5l0.3,0.1l-0.2,0.3c-0.2,0.3-0.6,0.3-0.8,0.3c0,0,0,0.3,0.1,0.5c0.1,0.6,0.2,1.1,0.2,1.7
					c0,0.4-0.2,0.6-0.2,0.8c0,0.1,0.2,0.3,0.4,0.5c0,0,0.9,1.4,0.9,1.4l0.2,0.3c0,0-0.4,0.1-0.4,0.1c-0.3,0.1-0.7-0.1-0.7-0.1
					c0,0,0.1,0,0.1-0.1c-0.1,0.6-0.1,2-0.2,2.8c0,0.6-0.1,0.9,0.2,1.2c0,0-0.2,0.2-0.2,0.2c-0.2,0.3-0.5,0.4-0.5,0.5
					c-0.3,0.4-0.7,1.3-1.4,1.5c-0.2,0-0.4-0.1-0.6-0.2c0,0,0.5-0.1,0.5-0.1c-0.2,0.5-0.4,1.1-0.3,1.5c0,0.4,0.5,1.1,1,0.9
					c0,0,0.2,0.3,0.2,0.3c0.1,0.1,0.1,0.2,0.1,0.3c0.2,0.2,0.6,0.4,0.7,0.8c0,0,0.1,0.1,0.1,0.1c0,0,0,0,0,0c0,0-0.1,0-0.1,0
					c-0.1,0,0,0,0,0c0.3-0.7,0.7-1.9,1.7-1.5c0.3,0.1,0.8,0.5,0.7,0.8c-0.1,0.2-0.1,0.4-0.2,0.6c-0.1,0.2-0.4,0.4-0.6,0.4
					c-0.2,0-0.3,0-0.4,0c-0.1,0-0.2,0.1-0.2,0.1c0,0,0,0.1,0.1,0.3c0.2,0.3,1,0.2,1.3,0.3c0.2,0,0.3,0,0.3-0.1
					c0.1-0.3,0.2-0.9,0.7-0.9c0.5,0.1,0.7,0.2,1,0.5c0.1,0.1,0.1,0.1,0.2,0.3c0,0.1,0,0.3-0.1,0.4c-0.2,0.2-0.5,0.3-0.7,0.3
					c-0.1,0,0,0,0.1-0.1c0-0.1,0-0.1,0,0l0.1,0.4c0,0.2,0.4,0.5,0.4,0.9c-0.1,0.9-2.1,0.6-1.6-0.4c0,0,0-0.1,0.2-0.2
					c0.1-0.1,0.2-0.1,0.3-0.1c0.1,0,0.1,0,0,0c-0.1,0-0.1,0.1-0.1,0.1c0,0,0,0,0,0c0,0.1,0,0,0,0c-0.1-0.1,0-0.1-0.1-0.1
					c-0.1,0-0.2-0.1-0.1-0.1c0.1,0,0.1-0.1,0.1-0.2c0-0.1,0-0.1,0-0.1c0.2,0.1,0.3,0.5,0.1,0.8c0,0.1-0.3,0.2-0.4,0.2
					c-0.1,0-0.2,0-0.2,0c0,0,0,0,0.1,0c0.1,0,0.1-0.1,0.1-0.1c0-0.1,0,0.4,0,0.4c0.2,0.3,0.6,0.7,0.3,1.1c-0.3,0.3-0.1,0.1-0.2,0.2
					c-0.1,0.1-0.1,0.3-0.3,0.4c-0.4,0.3-0.8,0.2-1,0.2c-0.1,0-0.1,0-0.1,0.1c-0.1,0.1-0.2,0.2-0.3,0.3c-0.2,0.2-0.4,0.4-0.4,0.4
					c0,0,0,0,0.1,0.2c0.6,0.9-0.5,1.7-1.2,1.9c0,0-0.2,0.1-0.2,0.1c-0.1,0-0.1,0-0.1,0c0,0,0,0,0,0l0,0c0,0,0.1,0,0-0.2
					c-0.2-0.2-0.2-0.1-0.1-0.1l3.1-1c0,0-3.1,1.7-3.1,1.7c-0.3,0.1-0.5,0.3-0.7,0.5c-0.1,0.1,0,0.1-0.1,0c-0.1-0.1-0.1-0.1,0,0
					c0.3,0.1,0.9,0.3,0.6,0.8c-0.5,0.6-0.9,0.1-1.4,0.8c-0.2,0.2-0.4,0.5-0.6,0.8c0,0,0,0-0.1,0.2c-0.1,0.1-0.1,0.1-0.2,0.2
					c-0.1,0.1-0.2,0.1-0.3,0c0,0-0.2,0-0.2,0c0,0,0.1,0,0.1,0c0,0,0,0,0,0c-0.1,0.1-0.1,0.2-0.2,0.4c-0.1,0.2-0.2,0.3-0.2,0.3
					c0,0,0,0,0-0.1c0-0.1-0.2-0.1-0.1-0.1c0.1,0,0.3-0.1,0.7,0c0,0,0.3,0.1,0.3,0.1c0,0.3-0.1,0.8-0.2,1.1c0,0-0.2,0-0.2,0
					c-0.2,0-0.3,0.1-0.3,0.1c0,0,0,0.1-0.1,0.3c0,0.2-0.1,0.5-0.2,0.6c-0.1,0.2-0.1,0.3-0.2,0.4c0,0-0.1,0.4-0.1,0.4
					s-0.4-0.1-0.4-0.1c-0.1,0-0.3,0-0.2,0c0.1,0,0.1-0.1,0,0c0,0,0,0.1,0,0.1c0,0,0,0.4,0,0.4s-0.4,0-0.4,0c-0.1,0-0.2,0-0.3,0
					c0,0,0,0,0.1-0.1c0.1-0.1,0.1-0.1,0.1-0.2c0,0,0,0,0,0c0,0.1,0.1,0.2,0.1,0.4c0,0.2,0,0.5,0,0.7c0,0-0.3,0.1-0.3,0.1
					c-0.2,0.1-0.4,0-0.6-0.1c-0.2-0.1-0.2-0.2-0.3-0.2c-0.2-0.2-0.3-0.2-0.2-0.2c0,0,0-0.1,0,0.1l0,0.3c0,0.1,0,0.3-0.2,0.5
					l-0.1,0.2c0,0-0.2-0.1-0.2-0.1l-0.2-0.1c0,0-0.1,0-0.1,0s-0.1-0.1-0.1-0.1c0-0.1,0,0,0,0l0.5-0.3c0,0,0,0.2,0,0.2
					s-0.1,0.3-0.1,0.3c0,0-0.3,0-0.3,0c0,0,0.3-0.2,0.3-0.2c-0.2,0.4-0.5,1.1-1,1.4c-0.2,0.1-0.6,0.4-1,0.2
					c-0.2-0.1-0.2-0.3-0.3-0.3l-0.1-0.4c0-0.1,0-0.1-0.1-0.1c-0.1-0.2-0.5-0.4-0.8-0.3c0,0,0,0,0,0c0,0,0-0.1,0-0.1
					c0-0.1,0,0.1,0,0.2c0,0.1,0,0.2-0.1,0.4c-0.2,0.4-0.7,0.6-0.8,0.8c0,0-0.4,0.5-0.4,0.5s-0.3-0.7-0.3-0.7c0,0,0-0.1-0.1-0.1
					c0,0-0.1,0,0.2,0.1c0.3,0,0.2-0.1,0.2,0c0,0-0.1,0.1-0.1,0.1c0,0-0.2,0.4-0.2,0.4s-0.1,0.2-0.1,0.2c0,0,0,0.1-0.1,0.1
					c-0.1,0.1-0.2,0.2-0.3,0.2c0,0-0.4,0.2-0.4,0.2c-0.1-0.4-0.3-0.9-0.5-1.3c0-0.1-0.1-0.1,0,0c0.1,0,0.2,0,0.2,0c0,0,0,0,0,0
					c0,0.1-0.1,0.1-0.2,0.2c0,0-0.2,0.3-0.2,0.3c-0.1,0.1-0.1,0.2-0.3,0.3c-0.3,0.2-0.5,0.2-0.7,0.3c-0.2,0.1-0.4,0.1-0.4,0.2
					c0,0,0,0,0,0c0,0,0,0.1,0,0.2c0,0.1,0,0.3-0.2,0.6c-0.2,0.2-0.4,0.3-0.6,0.3l0.4-0.4c-0.1,0.7-0.2,1.2,0.1,1.9
					c0,0-0.4-0.3-0.4-0.3c0.2,0,0.5,0.1,0.7,0.3c0.8,1,0.1,2.8-1.1,2.9c-0.2,0-0.3,0-0.3,0c0,0-0.1,0.1-0.1,0.1c0.1,0,0.1-0.2,0-0.2
					c0-0.1,0-0.1,0-0.1c0,0,0.1,0.1,0.2,0.2c0.2,0.2,0.6,0.3,0.9,0.6c0.2,0.2,0.1,0.5,0.1,0.6c0,0,0,0,0,0c0,0,0-0.1,0-0.1
					c0,0,0,0,0,0c0,0,0,0,0,0c0,0,0.1,0,0.3,0.1c0.8,0.6,0.4,2.2-0.6,2.2c-0.5,0-0.7-0.1-1.1-0.1c-0.5,0-1,0.1-1.6,0
					c0,0-0.4-0.1-0.4-0.1c-0.1,0-0.2,0-0.1,0c0.1,0,0,0-0.1,0.1c0,0-0.2,0.3-0.2,0.3s-0.2,0.3-0.2,0.3c0,0.1-0.1,0.1-0.2,0.2
					c0,0-0.2,0.1-0.2,0.1C8.4,157,7.8,157.5,8,158c0.1,0.3,0.5,0.5,0.9,0.5c0.2,0,0.7,0.1,0.8,0.4c0.2,0.2,0.3,0.9,0.4,1
					c0,0,0.2,0.2,0.4,0.3c0.7,0.4,1.1,1.2,1.7,1.7c0.8,0.7,1.6,1,2.6,1.3c0.7,0.2,1.5,1,1.8,1.7c0.3,0.3,0.7,0.1,1.2,0.3
					c0.7,0.2,1.3,1.1,1.9,1.3c0.2,0.1,0.5,0.1,0.8,0.3c0.3,0.1,0.5,0.6,0.4,0.8c0,0,0-0.1,0-0.1c0,0,0.3,0.2,0.5,0.2
					c0.5,0.2,1.4,0.4,1.9,0.2c0.6-0.2,1.3-0.7,2.1-0.3c0.1,0.1,0.2,0.2,0.2,0.3c0.2,0.3,0.1,1.1,0.1,1.2c0.2,0.4,1.3,0.6,1.8,1.1
					c0.1,0.1,0.3,0.4,0.3,0.7c0,0.4-0.2,0.5-0.3,0.6c0,0.1,0,0,0,0c0,0,0,0.1,0.1,0.2c0.1,0.1,0.3,0.3,0.5,0.6
					c0.3,0.5,0.3,1,0.8,1.3c0.2,0,0.4-0.1,0.7-0.2c0.6-0.1,1.5,0.7,1.7,0.6c0.1,0,0.2-0.2,0.6-0.3c0.4-0.2,0.9,0,1.2,0.2
					c0,0-0.7,0.3-0.7,0.3s0-0.1,0-0.1s0-1,0-1s0.7,0.7,0.7,0.7c0.4,0.5,1.3,0.5,1.8,0.9c0,0,0.6,0.3,0.6,0.3l-0.5,0.1
					c0.2-0.2,0.3-0.1,0.4-0.1l0.1,0c0,0,0.2,0,0.2,0c0,0,0,0-0.1,0.1c-0.1,0.1-0.2,0.2-0.1,0.3c0,0,0.4-0.5,0.4-0.5
					c0.5,0,0.8,0.2,1.1,0.3c0,0-0.4,0-0.4,0c0.2-0.1,0.3,0,0.5-0.1c0,0,0.1,0,0,0l-0.4,0.5c0,0,0-0.3,0-0.3c0.1-1,1.2-0.8,1.8-0.5
					c0.3,0.2,0.7,0.3,1,0.5c-0.1,0,0.1,0,0.2,0c0.4,0,0.9-0.2,1-0.4c0-0.1,0.1,0-0.1-0.2c-0.7-1.1,0.1-1.6,1-1.6
					c0.6,0,0.8-0.4,1.4-0.5c0.2,0,0.5,0,0.7,0.1c0.4,0.3,0.4,0.6,0.8,0.7c0.2,0.1,0.2,0,0.5,0.1c0.2,0,0.4,0.3,0.4,0.5c0,0,0,0,0,0
					c0,0,0-0.1,0-0.1c0.3,0.1,0.6,0,0.9,0c0,0,0.2,0,0.2,0c0.1,0.1,0.2,0.2,0.3,0.3c0.1,0.1,0.2,0.1,0.2,0.4c0,0-0.1-0.2-0.1-0.2
					c0.8,0.6,1.2,1.9,1.9,2.5c0.8,0.2,2.3,0,3.1,0.6c1.3,0.8,2.5,2,4,1.8c0.3,0,0.7-0.6,1.5-0.7c0.4-0.1,0.9,0.1,1.1,0.3
					c0.7,0.5,1.3,1,2,1.5c0,0,0.4,0.4,0.4,0.4c0.2-0.1,1.2-0.5,1.7-0.1c0.6,0.4,0.6,0.9,0.7,1.4c0,0,0,0.1,0,0.1
					c0,0,0.1,0.2,0.1,0.2c0.1,0.2,0.2,0.5,0.2,0.5c0,0,0,0-0.1,0c0,0,0.1,0,0.1,0c0.3-0.1,0.8-0.1,1.1,0.1c0.4,0.2,0.7,0.6,1,0.9
					c0.4,0.4,0.9,0.5,1.3,1c0.2,0.3,0.3,0.5,0.5,0.6c0,0-0.5-0.2-0.5-0.2s0.3-0.1,0.3-0.1s0.8-0.2,0.8-0.2s-0.3,0.8-0.3,0.8
					c0,0.1,0,0.4,0,0.6c0.1,0.2,0.2,0.4,0.3,0.6c0.1,0.1,0.1,0.4,0.1,0.6c-0.1,0.2-0.2,0.4-0.2,0.4c0,0,0,0.1,0,0c0-0.1,0-0.2,0-0.2
					c0.5,0.7,2.1,2.3,0.3,2.6c0,0,0.4-0.4,0.4-0.4c0,0,0,0,0,0c0,0,0,0,0.1,0.1c0.1,0.1,0.2,0.1,0.3,0.2c0.1,0.1,0.2,0.3,0.3,0.4
					c0.1,0.3,0.1,0.5,0.1,0.5c0.3,0.2,0.8,0,1.4,0.2c0.5,0.2,0.8,0.4,1,0.5c0,0-0.5,0.2-0.5,0.2s0-0.1,0-0.1s0.1-0.6,0.1-0.6
					l0.6,0.4c0.1,0.1,0.3,0.3,0.3,0.4c0,0,0.1,0.2,0.1,0.2c0,0,0,0,0.1,0.1c0.1,0,0.2,0,0.5,0.1c0.3,0.1,0.4,0.2,0.6,0.3
					c0.3,0.2,0.6,0.5,0.8,0.7c0.2,0.3,0.4,0.4,0.5,0.4c1.3-0.3,2.2,0.3,3,1.3c0.4,0.6,0.2,1.2,0.2,1.7c0.1,0.4,0.5,0.5,0.8,1
					c0.2,0.4,0.2,0.9,0.2,1.3c-0.1,0.4-0.1,0.7-0.1,0.8c0.2,0.7,1.4,1.4,2.2,1.2c0,0,0.5-0.2,0.5-0.2c0.4-0.2,1.1-0.2,1.4,0.2
					c0.5,0.6,0.6,0.9,0.9,1.5c0.2,0.5,0.1,1.2,0.2,1.5c0,0.2,0.3,0.5,0.4,1c0,0.3,0,0.5-0.2,0.9c-0.1,0.1-0.2,0.2-0.3,0.3
					c-0.1,0,0,0-0.1,0.1c-0.1,0.2-0.2,0.6-0.3,0.8c-0.1,0.4,0.1,0.6,0.4,0.9c0.4,0.4,0.5,0.1,1.2,0.2c0.5,0.1,0.8,0.5,1.1,0.8
					c0.1,0.1,0.2,0.3,0.2,0.3c-0.1,0,0,0,0.1,0c0.1,0,0.1,0,0.2-0.1c0.5-0.3,1.2-0.9,1.8-0.3c0.1,0.1,0.2,0.2,0.2,0.3
					c0.1,0.2,0.3,0.2,0.4,0.2c0.1,0,0.1-0.1,0.1-0.3l0.5-0.5c-0.1,0,0,0,0.3-0.1c0.3,0,0.4,0,0.6,0c0.3,0.1,0.6,0.1,0.8,0.2
					c0.5,0.1,1.1,0,1.8,0.5c0.1,0.1,0.2,0.2,0.3,0.3c0.1,0,0.1,0,0.1,0c0,0,0.3-0.1,0.6-0.3c0.1-0.1,0.4-0.2,0.6-0.2
					c0.4,0,1,0.1,1.3,0.1c0.1,0,0,0,0.1,0c0,0,0.1-0.1,0.1-0.3c0.1-0.3,0.5-0.7,0.9-0.8c0.4-0.1,0.8,0,1,0c0.7-0.1,0.9-0.9,1.5-1.4
					c0.5-0.5,1-1,1.9-0.9c0,0,0.4,0.1,0.4,0.1l0,0.5c0,0.1,0,0-0.1,0c0.4,0.1,1.3-0.1,1.8,0.1c0.2,0.1,0.5,0.2,0.7,0.5
					c0.2,0.5,0.2,0.7,0.4,0.9c0,0-0.7-0.1-0.7-0.1c0.1-0.1,0.1-0.1,0.1-0.1s0,0,0,0c0,0,0.1-0.5,0.1-0.5s0.5,0,0.5,0
					c0.2,0,0.5,0.1,0.7,0.3c0.2,0.2,0.3,0.4,0.3,0.6c0.1,0.3,0.2,0.4,0.2,0.4c0.2,0.1,0.9-0.2,1.5-0.3c0.2,0,0.4-0.1,0.7-0.1
					c0.2,0.1,0.4,0.1,0.4,0.1c-0.1,0,0.1,0,0.1,0c0,0,0,0,0,0c0,0,0.1-0.1,0.2-0.3c0.2-0.3,0.8-0.6,1.1-0.6c0.4,0,0.5-0.1,0.4,0
					c0-0.1,0.1-0.2,0.2-0.4c0.2-0.3,0.6-0.6,0.9-0.6c0.7-0.1,1.5,0,1.9,0.7c0.1,0.3,0.1,0.3,0.2,0.4c0,0,0.1,0.1,0.1,0.1
					c0,0,0.1,0.1,0,0c-0.1-0.1,0,0,0,0c0.4,0.2,0.7,0.4,1,0.7c0.1,0.2,0.2,0.3,0.3,0.4c0.1,0.2,0.2,0.3,0.2,0.4c0,0,0,0,0,0
					c0,0-0.1,0-0.1,0c0,0,0,0,0,0c0,0,0.2,0,0.2,0c0.1,0,0.3-0.1,0.5,0.1c0.5,0.4,0.6,0.9,0.6,1.2c0,0-0.4-0.5-0.4-0.5
					c0,0,0.1,0-0.1,0c-0.2,0.1-0.2,0.3-0.2,0.2c0-0.1,0-0.3,0.2-0.5c0.2-0.2,0.4-0.2,0.6-0.2c0.6,0,0.8,0.4,1.1,0.7
					c0.3,0.3,0.9,0.2,1.5,0.2c0,0,0.5,0,0.5,0s0,0.4,0,0.4s0,0.7,0,0.7s-0.5-0.6-0.5-0.6c0,0,0.1,0,0.1,0c0,0,0.1-0.1,0.2-0.1
					c0.1,0,0.2-0.1,0.3-0.1c0.4-0.1,1-0.1,1.3,0.4c0.1,0.1,0.1,0.2,0.1,0.2l0,0.2c0,0.1,0.1,0.3,0,0.1c0,0,0,0,0.2,0.1
					c0.2,0.1,0.4,0.5,0.4,0.7c0,0-0.5-0.5-0.5-0.5c0.5-0.1,1.2,0.6,1.1,1.2c0,0-0.9-0.3-0.9-0.3c0.1-0.1,0.2-0.2,0.4-0.4
					c0.1-0.1,0.4-0.1,0.6,0c0.3,0.1,0.3,0.3,0.4,0.4c0.2,0.4,0.1,0.7,0.2,1.1c0,0-0.1,0.1-0.1,0.1s-8.2,13.5-8.2,13.5
					s-0.4-0.7-0.4-0.7c0.5,0,1.1-0.1,1.8,0c0.4,0.1,0.7,0.3,0.8,0.4c0,0,0.1,0,0.1,0.1c0,0,0.2,0.1,0.2,0.1c0.1,0,0.2,0.1,0.3,0.1
					c0.1,0,0.1,0,0.2,0c0,0,0.1-0.1,0.2-0.2c0.7-0.6,2.2-1.1,2.9-0.3c0.5,0.6,0.6,1.2,0.8,1.7c0.1,0.2,0.2,0.5,0.2,0.5
					c0,0,0.2,0.1,0.4,0.2c0.7,0.5,0.9,1.3,1.2,2c0.2,0.5,0.5,0.7,0.9,0.9c0,0-0.6,0.3-0.6,0.3l7-36.6c0,0,0,0.1,0,0.1
					c-0.1-0.7,0.1-1.1-0.1-1.7c-0.2-0.5,0.3-1.2,0.1-1.6c-0.2-0.3-0.8-0.9-1.1-1.3c0,0,0.6-0.1,0.6-0.1c0.1,0,0.3,0,0.4,0
					c0,0,0.3,0,0.3,0s-0.3,0.3-0.3,0.3c0.1-0.2-0.3-0.5-0.7-0.9c-0.5-0.3-0.3-1-0.7-1.4c-0.2-0.3-0.5-0.5-0.8-0.7
					c-0.7-0.6,0.2-1.6,0.3-2.1c0,0,0,0.1,0,0.1c0-0.1,0-0.2-0.1-0.4c-0.1-0.2-0.2-0.6-0.1-0.8c0-0.2,0-0.4,0-0.4
					c0-0.1-0.2-0.2-0.4-0.3c-0.7-0.3-1.6-0.8-2.1-1.4c-0.3-0.3-0.5-0.2-1-0.2c-0.6,0-0.7-0.6-1-0.9c-0.1-0.1-0.3-0.2-0.5-0.4
					c-0.4-0.2-0.4-0.9-0.5-1.2c0,0-0.2-0.3-0.2-0.3c0-0.1-0.2-0.2-0.1-0.5c0,0,0,0.1,0,0.1s0-8.1,0-8.1s0-0.1,0-0.1
					c0.4-0.6,1.2-0.5,1.6-0.6c0.2,0,0.5-0.2,0.7-0.2c0,0,0.7,0,0.7,0c0.4,0,1-0.1,1.1-0.4c0.1-0.2,0.3-0.6,0.6-0.6
					c0.3-0.1,0.7,0.1,0.8,0.2c0.2,0.2,0.6-0.3,1-0.5c0.2-0.1,0.3-0.3,0.7-0.4c0.9-0.1,1.2,1.2,1.7,1.4c0.2,0,0,0.1,0.4-0.3
					c0.3-0.1,0.4,0.1,0.4,0.1c0.1,0.1,0.1,0.1,0.1,0.2c0.1,0.1,0.1,0.1,0.1,0.1c0.1,0,0.2,0,0.3,0c0.1,0,0.1,0,0.2-0.1l0.3-0.2
					c0.1-0.1,0.4-0.1,0.5-0.1c0.3,0,0.6,0,0.6-0.1c-0.2-0.3-0.4-0.4-0.6-0.7c-0.1-0.1-0.1-0.1-0.2-0.2c0-0.1,0-0.2,0-0.3
					c0.1-0.3,0.3-0.3,0.3-0.4c0-0.1-0.1-0.1-0.2-0.4c-0.1-0.3,0.2-0.5,0.4-0.6c0,0,0,0,0,0c0,0,0-0.1,0,0c0,0,0,0-0.1,0
					c-0.2-0.1-0.2-0.1-0.3-0.2c-0.3-0.2-0.2-0.9-0.2-0.7c-0.1-0.1-0.1-0.1-0.2-0.1c-0.2-0.1-0.3-0.3-0.3-0.5c0-0.3,0-0.3-0.2-0.5
					c-0.5-0.5-1.2-0.6-1.8-0.5c-0.1,0-0.1,0-0.1,0.1c0,0-0.1,0.3-0.3,0.4l-0.2,0.1c-0.2-0.3-0.5-0.7-0.8-0.6c0,0-0.1,0.1-0.2,0.3
					c-0.1,0.1-0.1,0.1-0.2,0.1c0,0-0.1,0.1-0.3,0c-0.1-0.1-0.1-0.1-0.1-0.1c0,0-0.2-0.3-0.2-0.3c-0.1-0.1-0.2-0.2-0.2-0.2
					c0,0,0,0,0,0c0,0,0,0,0,0.1c0,0.1-0.2,0.2-0.3,0.2c-0.3,0.1-0.5,0-0.7-0.1c-0.1-0.1-0.3-0.2-0.4-0.3c-0.1-0.1-0.1-0.2-0.2-0.2
					c-0.2-0.1-0.3-0.1-0.5,0.1c-0.1,0.2-0.5,0.5-0.8,0.4c0,0-0.2,0-0.2,0s0-0.1,0-0.1c-0.1-1.4,0.1-2.8,0.2-4.2c0,0,0-2.1,0-2.1
					c0-0.8,0.1-1.6-0.1-2.4c0,0,0.3,0.2,0.3,0.2s0.3,0.2,0.3,0.2c0.5,0,1.2,0,1.8,0c0,0,0.7,0,0.7,0c0.1,0,0.2-0.1,0.2-0.1
					c0,0,0-0.1,0-0.2c0-0.2,0.2-0.4,0.3-0.4c0.7-0.2,1.3,0.4,1.8,0.7c0,0-0.1,0-0.1,0s15.5,0.3,15.5,0.3s-0.1,0.1-0.1,0.1
					c0-0.5-0.4-1.1-0.6-1.7c-0.4-0.8,0.1-1.5,0.9-1.4c1.4,0.4,1.8,1.9,2.9,2.5c0.6,0.4,1.1-0.2,1.2-0.8c0.1-0.3,0.1-0.6,0.3-0.9
					c0.5-0.9,1.8-0.8,2.5-1.4c1-0.6,2.1-2.2,3.4-1.4c0.5,0.5,0.4,1.3,0.6,1.8c0.1,0.6,0.3,1.2,0.7,1.7c0.8,1,1.8,1.9,2,3.2
					c0.7,1.8,0.4,3.8,0.5,5.7c0,0-0.1-0.1-0.1-0.1c0.5-0.1,1.1-0.2,1.6-0.3C164.3,163,163.2,160.8,162.8,159.4L162.8,159.4z
					 M162.9,159.4c0.8,2.7,1.5,4.1-2.3,4.5c0,0-0.1,0-0.1,0s0-0.1,0-0.1c-0.2-1.3,0.2-2.6-0.1-3.8c-0.3-1.2-0.5-2.6-1.2-3.6
					c-0.8-0.9-1.8-1.9-2-3.2c-0.1-0.8-0.2-2.2-1.4-1.9c-0.9,0.2-1.6,1-2.3,1.6c-0.5,0.5-1.2,0.6-1.7,0.8c-1.1,0.4-0.7,1.7-1.5,2.3
					c-0.3,0.3-0.7,0.2-1,0c-1.1-0.6-1.6-2.2-2.8-2.4c-0.3,0-0.6,0.1-0.7,0.3c-0.1,0.2,0,0.5,0.1,0.8c0.2,0.6,0.8,1.1,0.6,1.9
					c0,0,0,0.1,0,0.1s-0.1,0-0.1,0s-15.5-0.2-15.5-0.2s-0.1,0-0.1,0c-0.4-0.3-0.8-0.6-1.3-0.7c-0.2,0-0.4,0-0.4,0.1
					c0,0.1,0,0.3-0.1,0.5c-0.4,0.3-0.8,0.2-1.2,0.2c-0.5,0-1-0.1-1.5,0c-0.1,0-0.3,0.1-0.5,0c-0.1-0.1-0.2-0.1-0.3-0.2l0.3-0.2
					c0.1,1.3,0,2.9,0.1,4.2c0,1.3-0.3,2.7-0.2,4.1c0,0-0.2-0.1-0.2-0.1c0.2,0,0.4-0.1,0.5-0.3c0.2-0.4,0.9-0.3,1.2,0
					c0,0,0.1,0.1,0.1,0.1l0,0.1c0.1,0.2,0.5,0.4,0.7,0.3c0,0,0-0.1,0.1-0.2c0.1-0.1,0.3-0.1,0.4-0.1c0.2,0.1,0.3,0.2,0.4,0.3
					l0.3,0.3c0,0,0.1,0.1,0,0c-0.1,0-0.1,0-0.1,0c0,0,0.1-0.1,0.1-0.1c0.1-0.1,0.1-0.2,0.3-0.3c0.5-0.2,1,0.3,1.2,0.6
					c0,0-0.3-0.1-0.3-0.1c0,0,0,0,0.1-0.2c0.1-0.2,0.3-0.3,0.4-0.3c0.3-0.1,0.5,0,0.8,0c0.7,0,1.4,0.4,1.7,1c0.1,0.2,0,0.4,0.1,0.5
					c0,0,0,0,0,0c0,0,0.1,0,0.2,0.1c0.1,0,0.1,0.1,0.2,0.2c0.1,0.1,0.1,0.2,0.1,0.3c0,0.1,0,0.1,0,0.2c0,0.1,0,0.1,0.1,0.2
					c0,0,0.2,0.2,0.3,0.2c0,0,0.1,0,0.2,0.2c0.1,0.1,0.1,0.2,0.1,0.3c0,0.1-0.1,0.3-0.2,0.3c-0.1,0-0.1,0.1-0.1,0.1
					c-0.1,0-0.1,0.1-0.1,0.1c0,0,0.1,0.1,0.2,0.3c0.1,0.2,0,0.4-0.1,0.6c-0.3,0.3-0.2,0.2-0.1,0.3c0.3,0.2,0.7,0.5,0.8,0.9
					c0.1,0.2-0.1,0.5-0.2,0.6c-0.4,0.2-0.6,0.1-0.9,0.2c-0.2,0-0.1,0-0.2,0c0,0-0.3,0.2-0.3,0.2c-0.1,0.1-0.3,0.1-0.5,0.1
					c-0.2,0-0.5,0-0.7-0.2c-0.1-0.1-0.2-0.2-0.2-0.3c0,0-0.1,0,0.1,0c0.1-0.1,0,0,0,0c-0.1,0.2-0.5,0.4-0.7,0.3
					c-0.7-0.2-0.9-1.2-1.5-1.3c-0.1,0-0.3,0.2-0.5,0.3l-0.6,0.4c-0.1,0.1-0.2,0.2-0.4,0.2c-0.4,0.1-0.8-0.3-1-0.2
					c-0.1,0-0.1,0.1-0.3,0.4c-0.7,1-1.9,0.5-2.9,0.8c-0.5,0.1-1,0.1-1.2,0.3c0,0,0.1-0.2,0.1-0.2s0,8.1,0,8.1s0,0.2,0,0.2
					s0-0.1,0-0.1c0-0.1,0,0,0.1,0.1c0,0,0.2,0.3,0.2,0.3c0.2,0.3,0.1,0.5,0.2,0.7c0.1,0.3,0.3,0.4,0.7,0.7c0.3,0.2,0.4,0.7,0.7,0.8
					c0.1,0,0.3,0,0.6,0c0.3,0,0.6,0.2,0.7,0.4c0.7,0.9,1.8,1,2.6,1.8c0.2,0.4,0.1,0.6,0.1,0.8c0,0.2,0,0.2,0.1,0.4
					c0.1,0.2,0.3,0.5,0.2,0.8c-0.2,0.5-0.5,1-0.5,1.3c0,0.1,0,0,0.1,0.1c0.1,0.1,0.2,0.1,0.3,0.2c0.4,0.4,0.9,0.8,1,1.4
					c0,0.3,0.1,0.3,0.2,0.5c0.4,0.4,1,0.7,1,1.5c0,0,0,0.3,0,0.3s-0.3,0-0.3,0c-0.2,0-0.2,0-0.3,0c-0.1,0-0.2,0-0.2,0
					c0,0,0.2-0.5,0.2-0.5c0.2,0.3,0.5,0.5,0.8,0.9c0.3,0.5,0.1,1,0,1.4c0,0.2-0.1,0.2,0,0.4c0,0.1,0.1,0.4,0.1,0.6
					c0,0.5,0,0.9,0,1.2c0,0-6.8,36.7-6.8,36.7s-0.1,0.5-0.1,0.5s-0.5-0.2-0.5-0.2c-1.4-0.5-1.5-1.7-2.1-2.8
					c-0.2-0.2-0.1-0.1-0.5-0.3c-0.8-0.5-0.7-1.8-1.2-2.3c-0.1-0.2-0.6-0.1-1.1,0c-0.6,0.2-1,0.9-1.7,0.7c-0.3-0.1-0.6-0.1-0.9-0.3
					c-0.3-0.2-0.5-0.3-0.7-0.3c-0.4-0.1-1,0-1.6,0c0,0-0.9,0-0.9,0l0.5-0.8c0,0,8.2-13.5,8.2-13.5s-0.1,0.3-0.1,0.3
					c0-0.2,0-0.5-0.1-0.6c0,0,0,0,0.1,0.1c0.1,0.1,0.2,0,0.2,0c0,0-0.1,0.1-0.1,0.1c0,0-0.9,1.1-0.9,1.1s0-1.4,0-1.4
					c0-0.1,0-0.1,0-0.1c0,0,0,0-0.1,0c0,0-0.2,0-0.2,0s-0.3-0.5-0.3-0.5c0,0,0.1,0.1,0,0.1c0,0-0.2-0.1-0.4-0.3
					c-0.2-0.4-0.1-0.4-0.2-0.6c0,0,0-0.1,0-0.1c0,0,0,0,0,0c0.1,0.2,0.1,0.1,0.1,0.1c0,0-0.2,0-0.3,0c-0.2,0.1-0.5,0.3-0.8,0.2
					c0,0-0.5,0-0.5,0c0-0.3,0-0.8,0-1.1c0,0,0.5,0.5,0.5,0.5c-0.3,0-0.6,0-1,0c-0.4,0-0.9-0.2-1.2-0.6c-0.2-0.3-0.5-0.5-0.4-0.4
					c0,0,0.1,0,0.1-0.1c0.1-0.1,0.1-0.1,0.1-0.1c0,0.1,0,0.1,0,0.2c0,0.1-0.1,0.3-0.3,0.4c-0.3,0.1-0.4,0.1-0.6,0.1c0,0-0.4,0-0.4,0
					l0-0.4c0-0.2-0.1-0.4-0.1-0.4c0.1,0.1,0.2,0,0.1,0c0,0-0.1,0-0.3,0c-0.2,0-0.4,0-0.5-0.1c-0.4-0.3-0.5-0.7-0.7-1
					c-0.1-0.1-0.1-0.1-0.2-0.2c0,0-0.4-0.2-0.4-0.2s-0.1,0-0.1,0c0,0,0,0-0.2-0.1c-0.2-0.2-0.1-0.2-0.2-0.2c0-0.1-0.1-0.2-0.2-0.3
					c-0.1-0.4-0.7-0.5-1-0.4c-0.1,0-0.1,0-0.2,0.1c0,0.1-0.1,0.2-0.2,0.4c-0.1,0.1-0.1,0.2-0.3,0.4c-0.2,0.2-0.7,0.2-0.9,0.2
					c-0.5,0.1-0.4,0.3-0.8,0.7c-0.3,0.2-0.4,0.2-0.7,0.2c-0.4,0-0.5-0.1-0.5-0.1c0,0-0.1,0-0.2,0l-0.9,0.3c-0.5,0.2-1.5,0.2-1.8-0.5
					c-0.2-0.3-0.2-0.6-0.3-0.8c0,0,0,0-0.1,0c0,0,0.5-0.4,0.5-0.4c0,0.2-0.3,0.7-0.5,0.8c0,0-0.4,0.3-0.4,0.3s-0.3-0.4-0.3-0.4
					c-0.2-0.3-0.4-0.8-0.4-0.9c0,0,0,0-0.1-0.1c-0.7-0.2-2.1,0.4-2.4-0.7c0-0.2,0-0.3,0-0.5c0,0,0.4,0.6,0.4,0.6
					c-1.2,0.1-1.7,2.5-3.2,2.4c-0.4,0-0.6-0.1-0.7-0.1c-0.1,0-0.1,0.1-0.3,0.3c-0.1,0.1-0.1,0.3-0.3,0.5c-0.1,0.2-0.5,0.3-0.7,0.4
					c-0.8,0-1.2-0.2-1.5,0c-0.2,0.1-0.4,0.3-1,0.4c-0.8,0.1-0.9-0.6-1.6-0.7c-0.5,0-1.4-0.3-1.9-0.3c0,0-0.1,0.1-0.5,0.1l0.5-0.5
					c0.1,0.5-0.3,1.2-0.9,1.3c-0.6,0.1-1.1-0.2-1.4-0.6c-0.1-0.2-0.1-0.1-0.1-0.1c0,0,0,0,0,0c-0.6,0.3-1.3,0.9-2,0.5
					c-0.3-0.2-0.4-0.4-0.5-0.5c-0.2-0.3-0.3-0.4-0.5-0.4c-0.2-0.1-0.6,0.1-1.1-0.1c-0.5-0.2-0.7-0.5-1-0.8c-0.5-0.8-0.2-1.7,0.2-2.4
					c0.6-0.6,0.3-0.2,0.4-0.5c0-0.2-0.2-0.4-0.4-0.9c-0.2-0.6,0-1-0.2-1.4c-0.1-0.3-0.5-0.9-0.6-1.1c-0.1-0.1-0.2-0.1-0.5,0
					c-1.8,0.8-4.5-0.8-3.9-3c0.3-0.9-0.9-1.2-1-2.1c0-0.3,0-0.4,0.1-0.6c0-0.3,0-0.5-0.1-0.7c-0.1-0.2-0.3-0.4-0.6-0.6
					c-0.5-0.4-0.8-0.4-1.6-0.3c-0.3,0-0.6-0.1-0.8-0.3c-0.4-0.3-0.7-0.8-1.1-1c-0.3-0.2-0.3-0.1-0.8-0.2c-0.4,0-0.7-0.6-0.7-0.8
					c0,0,0.7-0.2,0.7-0.2s-0.1,0.2-0.1,0.2l-0.1,0.3l-0.4-0.1c-0.5-0.1-0.8-0.4-1.1-0.5c-0.2-0.1-0.6,0-1.1-0.1
					c-0.2,0-0.6-0.2-0.8-0.5c-0.1-0.3-0.2-0.5-0.2-0.6c0-0.1,0-0.1-0.2-0.2c-0.1-0.1-0.2-0.1-0.3-0.3c-0.2-0.3-0.2-0.5-0.1-0.8
					c0,0,0.4-0.2,0.4-0.2c0,0,0,0,0,0c0,0-0.1,0-0.1,0.1c-0.1,0.1-0.1,0.2-0.1,0.2c0-0.1-0.1-0.2-0.2-0.4c-0.2-0.3-0.5-0.6-0.8-1
					c0,0-0.1-0.2-0.1-0.5c0-0.2,0.1-0.3,0.1-0.3c0.1-0.1,0.1-0.1,0.1-0.1c0,0.1,0,0-0.1-0.2c-0.1-0.1-0.1-0.2-0.2-0.3
					c-0.1-0.4-0.2-0.7,0-1.2c0,0,0.6,0.6,0.6,0.6c-0.1,0-0.5,0.1-0.6,0.2c0,0-0.2-0.2-0.2-0.2c-0.2-0.2-0.3-0.5-0.5-0.7
					c-0.3-0.4-0.9-0.5-1.2-0.9c-0.3-0.3-0.5-0.7-0.9-0.8c-0.3,0-0.8,0.2-1.1-0.1c-0.4-0.3-0.4-0.7-0.6-0.9c-0.1-0.1-0.1-0.3-0.2-0.4
					c0,0-0.1-0.4-0.1-0.4c0-0.3-0.1-0.3-0.2-0.4c-0.4-0.1-0.8,0.4-1.4,0.2c-0.5-0.1-0.5-0.4-0.8-0.6c-0.5-0.4-1.3-1-1.9-1.4
					c-0.4-0.3-0.5-0.2-0.9,0.1c-1.8,1.4-4.1-0.5-5.5-1.5c-0.6-0.3-1.4-0.4-2.1-0.3c-1.7,0.1-2-1.9-3-2.8c0,0-0.1-0.2-0.1-0.2
					c0,0.1,0,0,0,0c0,0-0.1-0.1-0.1-0.1c0,0,0.3,0.1,0.3,0.1c-0.4-0.1-0.9,0.1-1.4-0.1c-0.3-0.2-0.5-0.5-0.4-0.9c0,0,0,0.1,0,0.1
					c0,0.1,0.2,0.3,0.3,0.3c0,0,0.1,0-0.1,0c-0.2,0-0.4,0-0.5-0.1c-0.3-0.1-0.6-0.3-0.8-0.6c-0.2-0.2-0.1-0.1-0.2-0.1
					c-0.1,0-0.3,0.1-0.6,0.2c-0.1,0.1-0.2,0.1-0.5,0.2c-0.2,0-0.3,0.1-0.4,0.1c-0.2,0-0.5,0.1-0.5,0.1c0.1,0,0.1-0.2,0.1-0.2
					c0,0,0.1,0.1,0.1,0.2c0.9,1.1-0.6,2-1.7,2c-0.7,0.1-1.5-0.7-2.2-0.8c0,0,0.1,0,0.1-0.1c0,0,0,0,0,0c0,0,0,0.1,0,0.1l0,0.5
					c0,0-0.3,0-0.3,0c-0.2,0-0.1,0-0.2,0c0,0-0.1,0-0.1,0l-0.1,0c0,0,0,0,0,0c0,0,0,0,0.1,0c0,0-0.4,0-0.4,0
					c-0.3-0.1-0.5-0.2-0.6-0.2c0,0,0.4-0.5,0.4-0.5c0,0.1-0.1,0.3-0.2,0.4c-0.1,0.1-0.2,0.1-0.3,0.1c-0.1,0-0.2,0-0.3,0
					c0,0-0.2,0-0.2,0c0,0,0,0,0,0c0,0,0,0,0.2-0.1c0,0-0.5,0.1-0.5,0.1l-0.6-0.4c-0.2-0.2-0.4-0.2-0.5-0.3c-0.4-0.1-1.1-0.4-1.4-0.7
					c0,0,0.8-0.3,0.8-0.3s0,0.2,0,0.2s0,0.8,0,0.8s-0.7-0.4-0.7-0.4c-0.1-0.1-0.2-0.1-0.3-0.1c-0.1,0-0.3,0.3-0.7,0.4
					c-0.7,0.2-1.2-0.3-1.7-0.5c-0.2-0.1-0.1-0.1-0.4,0c-0.3,0.1-0.9,0.1-1.2-0.2c-0.5-0.4-0.6-1-0.9-1.4c-0.2-0.2-0.6-0.6-0.7-1.1
					c-0.1-0.2,0-0.6,0.2-0.7c0.1-0.2,0.1-0.2,0.1-0.1c0,0.1,0,0,0,0c-0.6-0.5-1.6-0.5-2-1.4c-0.2-0.5,0-0.8,0-0.9
					c0-0.1,0-0.1-0.1-0.2c0,0,0,0,0,0c0,0,0,0,0,0c-0.1,0-0.3,0-0.5,0.1l-0.7,0.3c-1,0.3-1.7,0.1-2.6-0.2c-0.4-0.1-1.2-0.5-1-1.1
					c0,0,0.1,0.1,0,0.1c-0.1-0.1-0.4-0.2-0.6-0.2c-0.9-0.3-1.2-1-1.8-1.3c-0.4-0.1-1.4-0.1-1.6-0.7c-0.4-0.7-0.7-1.1-1.4-1.4
					c-1.7-0.4-3.1-1.5-4.2-2.9c-0.3-0.3-0.6-0.3-1-0.8c-0.2-0.4-0.2-0.6-0.3-0.8c0,0,0,0,0,0c0,0,0,0,0,0c0,0,0,0-0.1,0
					c-1,0-2-1-1.7-2.1c0.2-0.6,0.7-1,1.1-1.4c0.2-0.2,0.5-0.6,0.7-0.8c0.4-0.6,0.9-0.5,1.5-0.3c0.6,0.1,1.6-0.1,2.3,0
					c0.3,0.1,0.4,0,0.3,0c0.1-0.1,0.1-0.4,0.1-0.5c0-0.1,0,0,0,0c0,0,0,0-0.1,0c-0.1,0-0.3-0.2-0.4-0.3c-0.1-0.1-0.1-0.3-0.1-0.4
					c0-0.1,0-0.1,0-0.1c0,0,0,0.1,0,0.1c0,0.1,0,0,0,0c-0.3-0.3-1.1-0.4-1.2-1c-0.2-0.7,0.7-1,1.2-0.9c0.1,0.1,0.5-0.4,0.6-0.7
					c0-0.2,0.1-0.5,0-0.7c0,0,0,0,0,0c0,0-0.3,0-0.3,0c-0.4-0.9-0.3-1.9-0.2-2.9c0,0,0.4,0,0.4,0c0.1,0,0.1,0,0,0c0,0.1,0,0,0,0
					c0-0.1,0-0.2,0-0.4c0.2-0.7,1.1-0.7,1.5-1c0,0,0.2-0.2,0.3-0.4c0.1-0.2,0.2-0.3,0.4-0.5c0.9-0.5,1.1,0.8,1.3,1.3
					c0,0-0.6-0.2-0.6-0.2c0,0-0.1,0-0.1,0.1c0,0,0,0,0,0s0,0,0-0.1c0.1-0.3,0.2-0.6,0.4-0.9c0.4-0.6,1-0.3,1.1,0.4
					c0,0-0.7-0.2-0.7-0.2c0.3-0.3,0.5-0.4,0.6-0.5c0,0,0-0.1,0,0c0,0.1,0,0,0,0c0-0.1-0.1-0.2,0-0.5c0.4-0.8,1.5-0.6,2.1,0
					c0.2,0.2,0.3,0.6,0.4,0.8c0,0,0,0-0.1,0c-0.1-0.1-0.2,0-0.1,0c0,0,0.1-0.1,0.2-0.1c0.3-0.2,0.4-0.6,0.8-1.1c0,0,0.1-0.2,0.1-0.2
					c0,0,0.2,0,0.2,0c0,0-0.4,0.3-0.4,0.3s0-0.1,0-0.1s0.1-0.4,0.1-0.4s0.4,0,0.4,0c0.3,0,0.5,0.3,0.6,0.4c0,0-0.2-0.2-0.2-0.2
					s0.2,0.1,0.2,0.1s-0.4,0.1-0.4,0.1c-0.1,0.1,0,0,0-0.1c0.1-1.1,1-1.3,1.6-0.6c0.2,0.1,0.2,0.1,0.2,0.1c0,0-0.3,0.3-0.3,0.3
					c0-0.3-0.3-0.7,0-1c0.3-0.3,0.5-0.2,0.8-0.3c0,0-0.4,0.4-0.4,0.4c0-0.5,0.2-1,0.8-0.9c0.1,0,0.2,0,0.3,0c0,0-0.5,0.3-0.5,0.3
					c0.1-0.4,0.3-0.6,0.3-1c0-0.2,0-0.4,0.2-0.7c0.3-0.3,0.5-0.3,0.7-0.3c0,0-0.3,0.4-0.3,0.4l0.1-0.5c0,0,0.2,0.4,0.2,0.4
					c0.1,0,0,0-0.3,0c-0.1,0-0.5,0-0.6-0.3c-0.1-0.2-0.1-0.4-0.1-0.6c0.1-0.3,0.2-0.4,0.3-0.5c0.1-0.2,0.4-0.8,0.8-0.7
					c0.2,0,0.2,0,0.3,0c0,0,0,0-0.1,0c0,0,0,0,0,0c0,0.1,0,0,0.1-0.2c0.2-0.2,0.3-0.5,0.6-0.7c0.2-0.3,0.5-0.6,1-0.7
					c0.2,0,0.3-0.1,0.4-0.1c0,0,0,0-0.1,0.1c-0.1,0.1,0,0.2,0,0.3c0.1,0.1,0,0,0,0c0,0-0.2-0.1-0.2-0.1c-1.1-0.5,0-1.5,0.7-1.8
					c0,0,0,0.7,0,0.7c0,0-0.1,0-0.3-0.3c-0.1-0.3,0-0.4,0-0.4c0.1-0.1,0.2-0.3,0.3-0.3c0.2-0.1,0.2-0.1,0.4-0.2
					c0.3-0.2,1.2-0.5,0.9-0.9c-0.4-0.6-0.1-1.1,0.4-1.5c0.2-0.2,0.5-0.5,0.8-0.6c0.2,0,0.3,0,0.4,0c0.3,0,0.3-0.3,0.5-0.5
					c0.3-0.2,0-0.1,0.1,0.1c-0.1-0.1-0.2-0.2-0.3-0.4c-0.2-0.5-0.1-1.6,0.6-1.4c0,0-0.2,0.1-0.2,0.1c0,0,0,0.2,0,0.2
					c-0.6-0.7,0.1-1.3,0.8-0.9c0.4,0.2,0.7,1,0.2,1.2c-0.1,0-0.2,0-0.2,0c0,0,0,0,0.1,0c0.1,0,0,0,0,0c0,0,0-0.1,0-0.1
					c-0.1-0.1,0,0,0.1,0c0.1,0,0.2,0,0.3,0c0,0,0.1,0,0,0c0,0-0.1,0.1-0.1,0.2c0,0.1,0,0.1,0,0.1c-0.1-0.1-0.3-0.5-0.4-0.8l-0.1-0.4
					c0-0.1-0.1-0.2,0-0.4c0.2-0.4,0.5-0.3,0.7-0.4c0,0,0,0,0,0c0,0.1-0.1,0.2,0,0.2c0,0.1,0,0,0,0c-0.1-0.1-0.4-0.3-0.5-0.3
					c0,0,0.1-0.1,0,0c0,0.3-0.2,0.8-0.6,0.9c-0.5,0.2-0.9-0.1-1.4-0.1c-0.5,0-1.7-0.6-1-1.6c0.3-0.3,0.7-0.3,1-0.3
					c0.1,0,0,0,0.1-0.1c0-0.1,0.1-0.2,0.1-0.3c0-0.1,0-0.1,0.1,0.1c0,0-0.1-0.1-0.1-0.1c-0.9-0.8-0.7,1.6-1.7,1.4
					c-0.1,0-0.2-0.1-0.2-0.1c-0.1-0.1-0.1-0.1-0.2-0.2c-0.1-0.1-0.1-0.2-0.1-0.2c0-0.1,0-0.1-0.2-0.2c-0.1-0.1-0.3-0.1-0.4-0.3
					c-0.1-0.2-0.2-0.3-0.2-0.5l0.3,0.2c-0.9,0-1.3-0.8-1.5-1.5c-0.1-0.8,0.2-1.5,0.5-2.2c0,0,0.3,0.2,0.3,0.2c0.1,0.1,0.1,0.1,0.2,0
					c0.3-0.3,0.5-0.7,0.8-1.2c0.2-0.3,0.5-0.4,0.6-0.5c0,0,0,0.4,0,0.4c-0.3-0.6-0.2-1-0.2-1.4c0,0,0.1-1.3,0.1-1.3
					c0.1-0.4,0-1.5,0.3-1.9c0.3-0.3,0.8,0.1,0.9,0c0,0-0.2,0.4-0.2,0.4s-0.9-1.4-0.9-1.4c-0.2-0.3-0.5-0.4-0.5-0.8
					c0-0.5,0.2-0.7,0.2-0.9c-0.1-0.5-0.1-1.1-0.2-1.5c-0.1-0.3-0.3-0.7,0-1.1c0.2-0.2,0.4-0.2,0.5-0.2c0.1,0,0.2,0,0.2-0.1l0.1,0.4
					c-0.4-0.2-1.6-0.7-1.1-1.5c0.2-0.2,0.1-0.2,0.2-0.3c0-0.3-0.2-0.5-0.4-0.8c-0.2-0.2-0.1-0.6,0.1-0.8c0.1-0.1,0.3-0.3,0.2-0.2
					c0,0.2,0,0-0.1,0c0,0,0.1,0.1,0.1,0.1l-0.5-0.5l0.1,0.1c0.1,0,0,0-0.1,0c0,0-0.2,0-0.2,0c-0.2,0-0.3,0.1-0.5,0.1l-0.2,0
					c0-0.4-0.2-0.6-0.2-1.1c0-0.5,0.4-0.8,0.8-0.8c1-0.2,1.1-0.2,1.7-0.3c0.1,0,0.2-0.1,0.2-0.1c0.4-0.5,0.9-1.1,1-1.7
					c0-0.5-0.6-0.9-0.9-1.3c-0.6-0.7,0.2-1.9-0.6-2.3c-0.5-0.3-1.2-0.8-1.2-1.5c0-0.7,0-1.2,0.2-1.8c0,0,0.1-0.4,0.1-0.4
					s0.3,0.3,0.3,0.3c0.3,0.3,0.3,0.6,0.6,0.9c0,0,0,0,0,0c0,0,0,0,0,0c0.2-0.3-0.3-1.1-0.3-1.4c0-0.1-0.1-0.2,0.1-0.4
					c0.3-0.1,0.2,0,0.2-0.1c0,0,0,0,0,0c0-0.1,0-0.4,0-0.6c0-0.5,0.3-1,0.2-1.3c0,0.1,0,0-0.1-0.1c-0.1,0-0.1-0.1-0.2-0.2
					c-0.2-0.2-0.2-0.3-0.3-0.5c-0.2-0.4-0.2-1-0.6-1.1c0,0,0,0,0,0c0,0,0,0.1,0,0.3c0,0.1-0.1,0.4-0.3,0.6c-0.2,0.1-0.5,0.1-0.7-0.1
					c-0.4-0.4-0.2-1-0.4-1.4c-0.2-0.5-0.5-1-0.9-1.2c0,0,0.3-0.1,0.3-0.1c-0.1,0.1-0.1,0.2-0.2,0.3c-0.2,0.6-0.9,0.2-1-0.2
					c-0.1-0.4-0.1-0.7,0.2-1c0.4-0.3,0.6-0.3,0.5-0.9c0,0,0.1,0.2,0.1,0.2c-1.5-0.6-2-2.3-3.3-3.2c0,0,0.1-0.2,0.1-0.2
					s0.6-1.6,0.6-1.6c0.2-0.3,0.1-0.7,0.2-1c0.1-0.3,0.6-0.4,0.8-0.3c0.1,0,0.2-0.3,0.2-0.4c0-0.2-0.2-0.4-0.2-0.8
					c-0.1-0.6,0.1-1.1,0.5-1.5c0.1,0,0.1,0,0.2,0c0,0,0.2,0,0.2,0c0.3,0,0.7,0.1,0.9,0.4c0.2,0.3,0.2,0.6,0.3,0.8
					c0.7,1.2,1.6-0.4,2.1-1.1c0.6-1,1.2-2.6,2.7-2.7c0.4-0.1,0.4-0.5,0.5-0.8c0.3-1-0.5-2-1-3c-0.7-1.2-1.1-2.6-2-3.7
					c-0.1-0.1-0.2-0.3-0.2-0.4c-0.1-0.2,0.1-0.5,0.2-0.6c0.4-0.4,0.7-0.8,0.7-1.3c0,0,0-0.2,0-0.2l0.2,0c0.5,0,0.5,0.6,0.8,0.8
					c0.2,0.2,0.7,0.3,0.8,0.6c0.2,0.3,0.3,0.7,0.5,0.9c0.4,0.4,1.3,0.7,1.6,1.4c0.3,0.4,0.4,0.9,0.8,1.2c0.3,0.2,0.9-0.2,1,0.4
					c0,0.3-0.1,0.4-0.1,0.5c0,0-0.1-0.1-0.1-0.1c0.1,0,0.3,0,0.4,0.3c0.1,0.3,0,0.3,0,0.5c0,0.2,0,0.4,0.2,0.5l-0.1,0
					c0.2,0.1,0.4-0.4,0.8-0.6c0.1,0,0.2-0.1,0.3,0c0.2,0.1,0.2,0.3,0.2,0.5c0,0.4,0.1,0.7,0,1.1c-0.2,0.4-0.5,0.2-0.9,0.4
					c0,0,0,0,0,0c0,0,0.1-0.1,0.1-0.1c-0.1,0.3-0.3,0.7-0.1,1c0.5,0.3,1.6,0.8,1.9-0.1c0.1-0.2,0-0.6,0.2-0.8
					c0.1-0.1,0.3-0.4,0.2-0.5c-0.1-0.1-0.2-0.3-0.2-0.5c0-0.4,0.1-0.7,0-1c-0.1-0.3-0.3-0.6-0.4-0.9c-0.4-1,0.2-2.2-0.4-3
					c-0.4-0.5-1-0.6-1.5-0.9c-0.1-0.1-0.2-0.1-0.2-0.4l0-0.1c0,0,0.1,0,0.1,0c0.3-0.1,0.4-0.1,0.4-0.2c0,0,0.1-0.1,0.1-0.2
					c0,0,0-0.1,0.1-0.2c0.1-0.1,0.1-0.2,0.2-0.2c0.1-0.1,0.2-0.1,0.3-0.1c0,0,0.5-0.1,0.5-0.1c0.3,0,0.7-0.1,1-0.2
					c0.2-0.1,0.5-0.1,0.5-0.3c0-0.1,0-0.2,0.1-0.3c0.6-1.1,1.8-0.8,2.5-1.7c0.3-0.3,0.6-0.7,1.1-0.4c0,0-0.2,0.1-0.2,0.1
					c0-0.1,0-0.2,0.1-0.2c0.4-0.2,0.5-0.1,0.6-0.3c0-0.1,0-0.2,0.1-0.3c0.1-0.4,0.5-0.4,0.8-0.4c0.1,0,0.1,0,0.2-0.1
					c0.1-0.1,0.1,0,0-0.2c-0.4-1.1,1.4-1.1,1.4-2.1c0-0.2-0.1-0.4,0-0.8c0.1-0.2,0.2-0.3,0.4-0.4c0.2-0.1,0.3-0.1,0.4-0.1
					c0.2-0.1,0-0.3,0-0.5c0-1,1.4-0.7,2-1.1c0.2-0.1,0.2-0.3,0.5-0.5c0.3-0.2,0.6-0.2,0.8-0.2c0.3,0,0.6-0.1,0.9,0.2
					c0,0,0.1,0.1,0.1,0.1S49.2,58,49.2,58c-0.1,0.1-0.1,0.1,0,0.2c0.1,0,0.2,0,0.4-0.2c0.2-0.2,0.5-0.2,0.7-0.2
					c0.2,0,0.5,0.1,0.7,0.2c0,0-0.1,0-0.1,0c0.3,0,0.4-0.5,0.6-0.8c0.2-0.4,0.4-0.7,0.3-1c-0.1-0.1-0.2-0.3-0.3-0.6
					c-0.1-0.2-0.1-0.4-0.2-0.6c-0.1-0.2-0.1-0.4-0.2-0.5c0,0,0,0-0.1,0c-0.1,0-0.2,0-0.4-0.1l-0.1-0.1c0,0,0-0.1,0-0.1
					c0-0.2,0.2-0.4,0.3-0.4c0.1-0.1,0.1-0.1,0.2-0.2c0.3-0.4,0.4-1,0.5-1.5c0-0.3,0.5-0.7,0.5-0.9c0-0.1,0-0.1,0-0.3
					c0-0.1,0-0.1,0-0.2c0-0.1,0.2-0.2,0.2-0.2c0.5-0.2,0.9-0.3,1.3-0.5c0,0-0.1,0.2-0.1,0.2c0-0.1,0-0.2-0.1-0.3c0,0,0,0,0,0
					c0,0,0,0.1-0.1,0.2c0,0.1-0.2,0.3-0.4,0.3c-1.3,0.2-1.6-1.8-0.4-2.2c0,0,0.2-0.1,0.2-0.1c0,0,0,0.1,0,0.1c0,0.1,0.1,0.1,0,0
					c-0.2-0.1-0.1-0.3-0.1-0.3c0-0.1,0-0.1,0-0.2c0,0,0-0.1,0-0.1c0,0,0,0.1,0.1,0c0,0,0.2,0,0.2,0c-0.1,0.1-0.3,0.3-0.4,0.4
					c-0.5,0.5-1.1,1-1.9,0.8c0,0,0.1-0.3,0.1-0.3c0.1-0.5,0.7-0.5,0.8-0.9c0.1-0.4,0.4-0.9,0.9-1c0.4-0.1,0.6-0.2,0.5-0.5
					c0,0,0,0,0,0c0,0,0,0-0.1,0.1c-0.2,0.3-0.6,0.3-0.9,0.2c0,0,0-0.2,0-0.2c0-0.5,0.3-0.7,0.6-0.9c0.5-0.4,0.8-0.8,0.8-1.4
					c0.4,0.1-0.6-0.1-0.5-0.7c0.3-0.8,1-0.8,1.4-1.4c0.1-0.1,0.4-0.2,0.6-0.2c0.3,0,0.4-0.1,0.7-0.4c0.2-0.2,0.5-0.3,0.7-0.2
					c0,0-0.3,0.3-0.3,0.3c-0.1-0.2-0.1-0.4-0.1-0.5c0-0.3,0-0.5,0.2-0.7c0.4-0.2,0.6,0.1,1-0.1c0.3-0.1,0.5-0.4,0.7-0.6
					c0.3-0.3,0.7-0.4,0.9-0.5c0.2-0.1,0.2-0.4,0.5-0.7c0.2-0.3,0.6-0.4,0.8-0.6c0.4-0.3,0.5-1.1,1.1-1.2c0.2,0,0.4,0,0.6,0
					c0,0-0.3,0.4-0.3,0.4c0,0-0.1-0.1-0.1-0.2l0-0.2c0,0,0.2,0,0.2,0c1.5-0.1,3.4,1,4.7,1.5c0.9,0.4,2.4,0,2.5-1.1
					c0.1-0.4,0-0.8,0-1.2c0-0.6,0.2-1.4,0.8-1.8c0.2-0.1,0.2-0.2,0.4-0.5c0.2-0.1,0.3-0.1,0.5-0.1c0.2,0,0.3,0,0.4,0.1
					c0.1,0,0.2,0.1,0.2,0c0,0,0,0,0.1,0c0.1,0,0.1-0.1,0.3-0.2c0.1-0.1,0.4-0.1,0.5,0c0.9,0.5,1.7,1,2.7,1.2c0.7,0.1,1.5-0.2,2.5,0
					c0,0-0.4,0.3-0.4,0.3c0,0,0,0.1,0.1,0.1c0,0,0.2-0.5,0.2-0.5c0.4,0,0.7,0,1,0.1c0,0,0.9,0,0.9,0c0.6,0,1.2-0.1,1.8-0.4
					c0.1,0.1,0.2,0,0.5-0.2c0.3-0.1,0.4-0.2,0.6-0.3c1-1,1.9-2.2,3.1-3c0.4-0.3,0.8-0.4,1.2-0.7c0.4-0.3,0.6-0.9,1.1-1.1
					c0.9-0.4,1.9-0.7,2.9-0.7c1.1-0.1,2.2-0.6,3.3-1.1c0.1-0.1,0.3-0.3,0.4-0.4l0.5-0.5c0.1-0.1,0.2-0.2,0.2-0.3
					c0,0,0.2-0.3,0.2-0.3s0.3-0.6,0.3-0.6c0.1-0.2,0.2-0.4,0.2-0.6c0-0.4,0-1-0.1-1.3c0-0.1,0,0-0.1-0.2c-0.1-0.1-0.2-0.3-0.1-0.5
					c0.1-0.2,0.2-0.2,0.3-0.3c0.6-0.2,0.8,0,1.2,0c0.2,0,0.3,0,0.5-0.1c0.1,0,0.2-0.2,0.1,0c0,0,0.3-0.2,0.3-0.2s0.1,0,0.1,0
					s0,0,0,0c0.1,0,0.2,0,0.3,0.1c0.3,0.2,0.3,0.6,0.2,0.8c-0.1,0.2-0.2,0.5-0.2,0.4c0,0,0,0,0.1,0c0.1,0,0.2,0,0.2-0.1
					c0.1-0.1,0.3-0.3,0.5-0.4c0.1,0,0.1,0,0.2-0.1c0,0,0,0,0,0c0,0-0.1,0.1-0.1,0.1c0,0.1,0,0,0-0.1c0-0.2-0.3-0.2-0.8-0.5
					c0,0-0.7-0.4-0.7-0.4s0.8-0.3,0.8-0.3c0.3-0.1,0.5-0.2,0.6-0.4c0.1-0.1,0.1-0.2,0.2-0.3c0-0.2,0.3-0.6,0.7-0.5c0,0,0.4,0,0.4,0
					s-0.1,0.4-0.1,0.4c0,0.1,0,0.2,0,0.3c0,0,0,0,0,0c0,0-0.2-0.1-0.2-0.1c0,0,0.1,0,0.1,0c0.1,0,0.1,0,0.2,0c0.2,0,0.3,0.1,0.3,0
					c0,0-0.1,0.1,0,0c0-0.1,0.1-0.2,0.1-0.4c0.1-0.3,0.4-0.6,0.7-0.4c0.3,0.1,0.4,0.3,0.4,0.3c0,0,0,0-0.1,0c-0.1,0-0.1,0-0.1,0
					c0,0,0-0.1,0-0.2c0-0.1,0-0.3,0-0.5c0-0.2,0.3-0.5,0.5-0.6c0.2,0,0.4,0,0.5,0c0.6,0.1,1.2,0.3,1.7,0.7c0.5,0.4,0.6,0.6,1.2,0.5
					c0.1,0,0.5,0,0.6,0.1c0,0,0.2,0.1,0.2,0.1c1.1,0.1,1.5,1.4,1.8,2.2c0.1,0.5,0.5,0.9,0.8,1.3c0.4,0.6,0.5,1.6-0.3,2
					c-0.3,0.1-0.6,0.2-0.8,0.3c-0.3,0.1-0.2,0.1-0.5,0.4c-0.1,0.1-0.3,0.2-0.5,0.2c-0.1,0-0.1,0-0.1,0.1c0,0,0,0.1,0,0.1
					c-0.1,0.4-0.3,0.8-0.7,1.1c-0.3,0.2-0.9,0.3-1.3,0.4c0,0-6.4,2-6.4,2l0.2-0.2c0,0-3.3,6.6-3.3,6.6s-0.1,0.2-0.1,0.2
					c-1,0-2,0.4-2.7,1.2c-2.1,2.2-2.7,5.6-4.3,8.1c-0.2,0.2-0.5,0.2-0.7,0.1c0,0,0.5-0.3,0.5-0.3c-0.3,0.9-1,1.4-1.1,1.8
					c-0.1,0.2,0.1,0.5,0.1,0.9c0.1,0.5-0.1,1-0.3,1.3c-0.6,0.9-0.7,1.9-0.5,2.9c0.2,0.8-0.3,1.6-0.7,2.3c-1,2.3-3.4,4-4,6.4
					c0,0-0.2-0.5-0.2-0.5c0.3,0.2,1.1,0.2,1.4,0c0.6-0.4,0.9-0.9,1.8-1.2c0.1,0,0.4-0.1,0.6,0c0.2,0.1,0.4,0.3,0.5,0.5
					c0,0,0,0.1,0,0.1c0,0.1,0,0.1,0,0.2c0,0,0,0,0-0.1c0-0.1-0.1-0.1-0.1-0.1c0,0,0.1,0,0.2,0.1c0,0,0.3,0.1,0.3,0.1
					c0,0.4-0.1,1.1,0,1.3c0,0.1,0.1,0.2,0.1,0.2c0,0,0,0,0.1,0c1.7-0.7,2.6-0.2,2.6,1.7c0.1,0.5,0.7,2.5,0.9,3.1
					c0.2,0.7,0.4,1.4,0.7,1.9c0.8,1.7,3.7,2.2,3,4.5c0,0.1,0,0.1,0.1,0.2c0.5,0.5,0.2,1.2,0.2,1.9c0,0.6,0,1.3-0.4,1.8
					c0,0-0.4,0.4-0.4,0.4c-0.1,0.1-0.1,0.1-0.1,0.3c0,0.5-0.3,1.2-0.4,1.6c-0.2,1.1,0.1,2.5,0.2,3.6c0.3,0.7,1.4,0.8,2.1,0.8
					c0.1,0,0.2-0.1,0.4-0.1c0.4,0,0.7,0.3,0.8,0.5c0.4,0.8,0.4,1.5,0.7,2.2c0.2,0.6,0.7,1.2,1.1,1.8l-0.3-0.2c0.4,0,0.5,0.4,0.7,0.6
					c0.2,0.1,0.3,0.1,0.5,0.1c0,0-0.1,0-0.1,0c0,0-0.2,0-0.1,0c0.8-0.3,1.3,0,1.9-0.3c0.1-0.1,0,0,0.1-0.1c0,0,0-0.2,0.2-0.4
					c0.3-0.2,0.4-0.2,0.7-0.2c0.1,0,0.2,0,0.3,0.1c0.7,0.5,0.5,0.5,1.1,0.3c0.3-0.1,0.8-0.1,1.1,0.1c0.3,0.2,0.3,0.2,0.5,0.2
					c0.6-0.1,1.1,0,1.6-0.1c0,0,1.6,0,1.6,0c0.7,0,1.9-0.3,2.4,0.5c0,0.1,0.1,0.2,0.1,0.2c0,0,0,0.1,0,0c0,0,0,0-0.1,0
					c0.3,0.1,0.7,0,1-0.2c0.7-0.4,1.4-0.7,2.2-1.1c1.3-0.4,2.9-0.2,4.1,0.5c0.6,0.4,1.5,0.7,2.1,0.9c0.9,0.4,2-0.2,3.2-0.1
					c0,0,0.1,0.1,0.1,0.1l8.7,10.8c0,0-0.2-0.1-0.2-0.1c0.6,0.1,1-0.4,1.6-0.1c0.3,0.2,0.4,0.5,0.5,0.7c0.1,0.1,0.2,0.2,0.2,0.1
					c0.1-0.1,0.3-0.4,0.5-0.6c0,0,0.5-0.5,0.5-0.5c0.2-0.3,0.5-0.7,1-0.8c0.4-0.1,0.8,0.1,1.2,0.1c0.1,0,0.3,0,0.5,0.1
					c0.6,0.5,0.8,0.1,1.7,0.1c1,0.1,1.7,1,2.7,0.7c0.4-0.1,0.7-0.6,1.3-0.7c0.8-0.1,1.5,0.2,2.3,0.3c0.5,0.1,0.8-0.3,1.2-0.5
					c1.2-0.5,2.6,0.1,3.7-0.3c0.4-0.2,0.7-0.8,1.2-0.9c0.6-0.2,1.1,0.1,1.5-0.1c0.2-0.1,0.5-0.2,0.8-0.2c0.3,0,0.6,0.2,0.8,0.2
					c0.3,0.2,0.7-0.1,1.1,0.1c0.6,0.3,1,1,1.2,1.6c0.1,0.5,0.1,1,0.4,1.3c0.1,0.2,0.3,0.4,0.4,0.7c0.1,0.3,0.1,0.6,0,0.9
					c-0.1,0.3-0.2,0.5-0.4,0.7c-0.5,0.5-1.5,0.4-1.6,1.3c-0.1,0.5-0.3,1-0.4,1.4c-0.1,0.5-0.1,1-0.1,1.4c0,0.5,0.1,1-0.1,1.6
					c-0.5,1-1.7,1.1-2.5,1.7c-0.3,0.2-0.2,0.8-0.1,1.3c0.1,1-0.1,3.5,0,4.5c0,0-0.1-0.2-0.1-0.2c0.3,0.1,0.4,0.5,0.5,0.7
					c0.1,1.6-1.1,3.6,0.1,5c0.3,0.4,0.6,1,0.4,1.5c-0.2,0.5-0.4,0.8-0.2,1.4c0.4,0.9,0.9,1.9,1.2,2.8c0,0-0.1,0.1-0.2,0.2
					c0,0,0-0.2,0-0.2c0.5,0.8,0.5,1.7,0.7,2.5c0.1,0.4,0.3,0.8,0.7,0.8c0.3,0,0.5-0.4,0.9-0.4c0.2,0,0.3,0.1,0.4,0.2
					c0.6,0.8,0.5,1.7,0.7,2.5c0.1,1,1.1,1.2,1.6,1.9c0.6,0.9-0.5,1.7-1,2.3c-1.5,1.6-3.3,2.8-4.7,4.5c-0.2,0.3-0.8,0.6-0.6,0.9
					l-0.2,0c0-0.1,0.1-0.1,0.1-0.1c0,0,0,0,0,0c0,0,0,0,0.1,0l0.1,0c0,0,0.1,0,0.1,0s0.3,0.1,0.3,0.1s0.3,0.1,0.3,0.1
					c0.1,0,0.2,0.1,0.3,0.1l-0.1,0c0.2,0,0.4,0,0.6-0.2c0.2-0.2,0.5-0.2,0.7-0.1c0.5,0.3,0.5,0.8,0.7,1.2c0.3,0.9,1.2,1.3,1.8,1.9
					c1.2,1.3,3.1,2.5,2.7,4.5c-0.1,0.4,0,0.9,0.4,1.1c1.4,0.7,0.5,2.6,1.3,3.7c0.3,0.3,0.7,0.6,0.8,1.1c0.2,0.4,0.2,0.9,0.4,1.3
					C162.3,157.7,162.8,158.5,162.9,159.4L162.9,159.4z"/>
			</g>
		</g>
		<g>
			<path class="st0" d="M26.4,29.5c0,0.3,0.2,0.8,0.5,1c0.3,0.1,0.6-0.3,0.9-0.4c0.7-0.4,1.8-0.1,2.3-0.7c0.4-0.4,0.2-0.7,0.8-0.9
				c0.3-0.1,0.7-0.1,1-0.2c0.2-0.1,0.4-0.3,0.3-0.5c0-0.3-0.5-0.3-0.3-0.6c0.1-0.2,0.4-0.1,0.6-0.3c0.4-0.6-0.3-1.4,0.4-2
				c0.3-0.2,1.4-0.6,1-1.1c-0.3-0.3-0.6,0-0.8-0.5c-0.1-0.2,0-0.3-0.1-0.5c-0.1-0.2-0.3-0.4-0.4-0.6c-0.3-0.7,1-1.1,0-1.7
				c-0.4-0.2-0.5-0.4-0.7-0.8c-0.2-0.3-0.4-1-0.8-0.7c-0.3,0.2-0.2,0.5-0.4,0.4c0.1-0.3-0.1-0.5-0.3-0.7C30,18.2,30,18.4,30.2,18
				c0.1-0.3,0.3-0.4-0.2-0.4c-0.3,0-0.5,0.1-0.7,0.2c-0.7,0.2-1.4,0.6-0.7,1.4c0.1,0.2,0.4,0.5,0.5,0.6c0.3,0.2,0.6,0,1,0.1
				c0.4,0.1,0.3,0.4,0.2,0.8c-0.1,0.2-0.1,0.4-0.2,0.6c-0.1,0.3-0.3,0.7-0.6,0.7c-0.4,0-0.5-0.4-0.9-0.4c-0.4,0-1.2,0.9-1.5,1.2
				c-0.3,0.4-0.5,1.2-0.5,1.7c0,0.5-0.2,1-0.4,1.5c-0.1,0.3-0.3,0.5-0.3,0.9c0,0.5,0.3,0.6,0.5,1C26.5,28.3,26.4,28.9,26.4,29.5z"/>
			<path class="st1" d="M26.4,29.5c0,0.4,0.2,0.9,0.6,0.9c0.3,0,0.6-0.5,1-0.6c0.8-0.3,1.8-0.2,2-0.9c0.1-0.2,0.2-0.5,0.4-0.7
				c0.4-0.3,1.1-0.2,1.3-0.5c0,0,0,0.1,0,0.1c0,0-0.2-0.1-0.3-0.4c-0.2-0.7,0.6-0.9,0.7-1c0.1,0,0,0,0,0c0.2-0.4,0-0.8,0.1-1.3
				c0.1-0.7,1-0.9,1.4-1.2c0,0,0-0.1-0.1-0.2c-0.1,0-0.2,0-0.3-0.1c-0.4-0.2-0.3-0.7-0.4-0.9c-0.1-0.1-0.2-0.3-0.4-0.5
				c-0.3-0.4,0.2-0.9,0.3-1.2c0.1-0.2-0.4-0.4-0.8-0.7c-0.4-0.3-0.6-1.6-1-1c0,0.1-0.2,0.3-0.4,0.3c-0.2,0-0.3-0.1-0.4-0.1
				c0,0,0.1-0.3,0.1-0.3c0-0.3-0.3-0.4-0.6-0.7c-0.2-0.3,0.1-0.6,0.2-0.9c0,0,0,0,0,0c0,0,0,0.3,0.1,0.3c0.1,0.1,0.1,0,0.1,0
				c-0.3,0-1.2,0.3-1.3,0.6c0,0.2,0.7,0.9,0.6,0.8c0,0,0.2-0.1,0.6-0.1c0.2,0,0.3,0,0.6,0.2c0.3,0.2,0.3,0.6,0.3,0.7
				c0,0.4-0.1,0.5-0.2,0.7c-0.2,0.5-0.2,0.9-0.7,1.4c-0.3,0.3-0.9,0.2-1.2,0C28.6,22,28.6,22,28.6,22c0.1,0-0.1,0-0.2,0.1
				c-0.4,0.3-0.9,0.7-1.1,1.1c-0.3,0.5-0.3,1-0.5,1.6c-0.1,0.8-1,1.5-0.8,2.2C26.6,27.8,26.5,28.7,26.4,29.5L26.4,29.5z M26.3,29.5
				c0-0.8,0.1-1.6-0.5-2.2c-0.4-0.9,0.4-1.6,0.4-2.4c0-0.8,0-1.9,0.7-2.5c0.5-0.5,0.9-1.1,1.8-1.3c0.5,0,0.7,0.3,0.8,0.4
				c0,0,0,0,0,0c0.1-0.1,0.4-1,0.4-1.3c0,0,0,0.1,0.1,0.2c0.1,0,0,0,0,0c-0.1,0-0.3,0.1-0.6,0c-0.6,0-0.9-0.6-1.2-1
				c-0.7-0.9,0.1-1.8,1.1-1.9c0.4-0.2,1.7-0.4,1.5,0.5c-0.1,0.2-0.2,0.4-0.3,0.5c0,0,0,0,0,0c0,0,0-0.1,0-0.2
				c-0.1-0.1,0.1,0.1,0.2,0.1c0.1,0.1,0.2,0.2,0.2,0.3c0.2,0.2,0.3,0.6,0.1,0.9l-0.1-0.4c0,0-0.2,0-0.2,0c0.1-0.2,0.4-0.6,0.8-0.5
				c0.6,0.2,0.6,1.1,0.9,1.4c0.2,0.2,0.6,0.3,0.7,0.6c0.4,0.5-0.6,1.1-0.3,1.4c0.1,0.1,0.2,0.3,0.4,0.5c0.1,0.2,0,0.4,0.1,0.6
				c0.1,0.1,0.1,0.1,0.4,0.1c0.3,0.1,0.6,0.4,0.5,0.8c-0.2,0.6-0.7,0.6-1.1,0.9C33,25.1,33,25.3,33,25.7c0.1,0.5,0,1.4-0.7,1.5
				c-0.2,0.1-0.1,0-0.1,0c0,0,0-0.1,0-0.2c-0.2-0.3,0.4,0.2,0.3,0.7c0,0.2-0.1,0.4-0.2,0.6c-0.4,0.5-1.1,0.4-1.6,0.5
				c-0.2,0.1-0.5,0.8-0.8,0.9c-0.6,0.3-1.3,0.2-1.9,0.3c-0.4,0-0.7,0.5-1.1,0.5C26.5,30.4,26.4,29.9,26.3,29.5L26.3,29.5z"/>
		</g>
		<g>
			<path class="st0" d="M13,34c0,0.8-0.4,1.7-0.8,2.5c-0.5,1-0.3,1.8,0.3,2.7c0.3,0.4,0.7,0.8,1.1,0.5c0.3-0.2,0.7-1,0.8-1.3
				c0.4-0.9,0.9-1.8,1.2-2.6c0.3-0.8,0.3-1.6,0.5-2.4c0.2-0.8,0.1-1.5,0.6-2.2c0.3-0.3,0.6-0.7,0.7-1.1c0.2-0.5-0.1-0.7-0.2-1.1
				c-0.1-0.6,0.5-0.7,0.5-1.1c0.1-0.3,0-0.7,0.1-1c0.1-0.4,0.3-0.9,0.3-1.3c0-0.2-0.1-0.6-0.2-0.8c-0.1-0.1-0.3-0.2-0.3-0.3
				c-0.1-0.4,0.6-0.2,0.8-0.6c0.1-0.2,0-0.8-0.1-1c-0.2-0.3-0.7-0.4-0.5-0.8c0.2-0.3,0.9-0.4,1.2-0.5c0.6-0.2,1.2-0.3,1.9-0.6
				c-0.3-0.3-0.5-0.2-0.7-0.3c-0.2-0.1-0.2-0.5-0.3-0.6c-0.3-0.3-0.9-0.1-1.3-0.6c-0.2-0.3-0.2-0.8-0.5-0.9c-0.8-0.3-2,1.3-2.5,1.6
				c-0.8,0.5-1.1,0.9-1.3,1.8c-0.2,0.8-0.1,1.7-0.8,2.4c-0.5,0.4-0.9,0.5-1,1.2c0,0.2-0.1,0.6,0,0.8c0.1,0.2,0.3,0.3,0.3,0.5
				c0.2,0.4-0.1,0.9-0.3,1.3c-0.2,0.4-0.3,0.9-0.5,1.3c-0.2,0.4-0.4,0.8-0.2,1.2c0.3,0.4,0.9,0.5,1.2,0.8c0.2,0.3-0.1,0.9-0.2,1.3
				C13.1,33.2,13,33.5,13,34z"/>
			<path class="st1" d="M13.1,34c0.1,1.3-1,2.4-1,3.6c0,0.7,0.6,1.7,1.3,1.9c0.6-0.3,0.8-1.4,1.1-2.1c0.2-0.6,0.5-1.1,0.7-1.7
				c0.3-0.8,0.4-1.9,0.7-2.7c0.2-0.6,0.2-1.3,0.6-1.9c0.3-0.5,0.9-0.8,0.9-1.4c0-0.2-0.2-0.5-0.2-0.9c-0.1-0.4,0.3-0.7,0.5-0.9
				c0.1-0.2,0.1-0.5,0.1-0.8c0.1-0.9,0.6-1.5,0.3-2.2c-0.1-0.2-0.1-0.1-0.3-0.3c-0.2-0.2-0.2-0.6,0.1-0.7c0.2-0.1,0.3-0.1,0.4-0.2
				c0.2-0.1,0.1-0.4,0.1-0.6c-0.1-0.3-0.1-0.3-0.5-0.6c-0.2-0.1-0.3-0.6-0.1-0.7c0.1-0.2,0.3-0.4,0.5-0.4c0.9-0.3,1.9-0.5,2.6-0.9
				c0,0-0.1,0.6-0.1,0.6c-0.1-0.1-0.1,0-0.6-0.2c-0.3-0.2-0.4-0.6-0.5-0.7c-0.3-0.1-0.9-0.1-1.3-0.5c-0.3-0.3-0.3-0.6-0.4-0.8
				c0-0.1-0.1-0.1,0,0c-0.3,0.1-0.6,0.3-1,0.7c-0.5,0.6-1.5,1.1-1.9,1.8c-0.3,0.9-0.1,2-0.8,2.8c-0.4,0.5-1,0.8-1.1,0.9
				c-0.1,0.1-0.2,0.9-0.2,0.9c0.1,0.1,0.4,0.5,0.4,0.8c0,0.9-0.5,1.4-0.8,2.2c-0.1,0.4-0.5,0.9-0.4,1.2c0.1,0.4,0.6,0.5,1,0.8
				c0.2,0.1,0.3,0.5,0.2,0.7C13.3,32.6,13,33.3,13.1,34L13.1,34z M13,34c0-0.5,0.1-1,0.2-1.4c0.1-0.4,0.4-1,0-1.2
				c-0.4-0.3-1-0.3-1.2-0.9c-0.2-0.6,0.2-1,0.3-1.5c0.1-0.6,0.5-1.3,0.5-1.9c0-0.2-0.2-0.1-0.3-0.4c-0.2-0.5-0.1-0.7-0.1-1
				c0-0.2,0.1-0.6,0.3-0.9c0.3-0.5,0.8-0.6,1-1c0.4-0.5,0.2-1.6,0.6-2.7c0.5-1.1,1.4-1.3,2.2-2.2c0.5-0.6,2.1-1.5,2.5-0.2
				c0.1,0.3,0.1,0.5,0.2,0.5c0.3,0.3,0.9,0.1,1.3,0.6c0.1,0.2,0.1,0.4,0.2,0.5c0,0.1,0,0.1,0,0.1c0,0,0.5,0.1,0.7,0.4
				c0,0,0.3,0.4,0.3,0.4c-1,0.5-2.2,0.6-3.2,0.9c-0.1,0-0.2,0.1-0.2,0.1c0,0.1-0.1,0,0,0.1c0.3,0.2,0.6,0.5,0.6,0.9
				c0.1,0.4,0.1,0.9-0.3,1.1c-0.2,0.1-0.4,0.1-0.5,0.2c0,0.1,0.1,0.1,0.2,0.2c0.6,0.8-0.1,1.9-0.1,2.6c0,0.3,0.1,0.6-0.1,1
				c-0.2,0.3-0.4,0.4-0.4,0.7c0,0.3,0.2,0.5,0.3,0.9c0.1,0.8-0.5,1.3-0.8,1.8c-0.3,0.5-0.2,1.1-0.3,1.7c-0.3,1-0.2,1.8-0.6,2.8
				c-0.5,1.2-1,2.3-1.7,3.4c-0.2,0.3-0.6,0.7-1,0.6c-0.5-0.1-0.7-0.4-0.9-0.7c-0.4-0.5-0.7-1.2-0.6-1.9C11.9,36.3,13,35.3,13,34
				L13,34z"/>
		</g>
	</g>
	<g>
		<path class="st2" d="M64.9,85.6c0-12.5,10.2-22.7,22.7-22.7s22.7,10.2,22.7,22.7s-22.7,45.6-22.7,45.6S64.9,98.2,64.9,85.6z
			 M87.6,97.9c6.8,0,12.3-5.5,12.3-12.3c0-6.8-5.5-12.3-12.3-12.3c-6.8,0-12.3,5.5-12.3,12.3C75.3,92.4,80.8,97.9,87.6,97.9z"/>
		<g>
			<path class="st1" d="M64.8,85.6c-0.1-16.8,17.7-28.5,32.9-20.7c9.3,4.5,14.9,16,11.9,26c-4.8,14.9-13.5,28.2-22,41.2
				c-2.6-3.8-5-7.6-7.4-11.5c-4.5-7.3-8.6-14.8-12-22.7C66.6,94,64.9,89.9,64.8,85.6L64.8,85.6z M64.9,85.6
				c0.7,8.6,5.5,16.2,9.5,23.6c4.3,7.4,8.8,14.7,13.6,21.7c0,0-0.9,0-0.9,0c5.7-8.4,11.2-17.1,16-26.1c3.3-6.7,7.5-13.8,6.9-21.5
				c-0.8-7.6-5.7-14.6-12.6-17.7C82.7,58.5,65,69.1,64.9,85.6L64.9,85.6z"/>
			<path class="st1" d="M87.6,97.9c10.4,0.1,15.8-13.6,8.6-20.8c-4.4-4.8-12.6-4.4-16.9,0.2C71.9,84.5,77.2,97.8,87.6,97.9
				L87.6,97.9z M87.6,98c-6.7,0.2-13-5.5-12.8-12.3c0.3-14,18.6-17.2,24.4-4.8C103,89.1,96.5,98.1,87.6,98L87.6,98z"/>
		</g>
	</g>
</g>
</svg>
