<?xml version="1.0" encoding="utf-8"?>
<!-- Generator: Adobe Illustrator 26.2.1, SVG Export Plug-In . SVG Version: 6.00 Build 0)  -->
<svg version="1.1" id="Capa_1" xmlns="http://www.w3.org/2000/svg" xmlns:xlink="http://www.w3.org/1999/xlink" x="0px" y="0px"
	 viewBox="0 0 50 50" style="enable-background:new 0 0 50 50;" xml:space="preserve">
<style type="text/css">
	.st0{fill:#3CB037;}
	.st1{fill:#1B6D14;}
	.st2{fill:#FFFFFF;}
	.st3{fill:none;stroke:#1B6D14;stroke-miterlimit:10;}
	.st4{fill:#BA0C2F;}
</style>
<g>
	<circle class="st0" cx="25" cy="25" r="22"/>
	<path class="st1" d="M3,25C2.8,9.2,18.9-2,33.5,4.5c18,7.9,18.4,33.5,0.1,41.3C18.9,52,2.8,40.8,3,25L3,25z M3.1,25
		c0.2,19.1,23.6,28.5,37.1,15.2c8.4-8,8.7-22.5,0.2-30.6C26.9-3.7,3.2,6,3.1,25L3.1,25z"/>
</g>
<g>
	<rect x="13.2" y="13.6" class="st2" width="25" height="22.5"/>
	<path class="st1" d="M38.3,36.1c-5.8,0.2-12.9,0.4-18.7,0.4c-2.1,0-4.2,0-6.4-0.1c-0.2,0-0.4-0.2-0.4-0.4c0.2-7.5,0.3-15,0.1-22.5
		c0-0.2,0.1-0.3,0.3-0.3c6-0.2,12.7-0.2,18.8-0.3c0,0,6.3,0,6.3,0c0.3,0,0.5,0.2,0.5,0.5C38.8,20.2,38.4,29.4,38.3,36.1L38.3,36.1z
		 M38.2,36c-0.2-6.6-0.5-16-0.5-22.5c0,0,0.5,0.5,0.5,0.5s-6.3,0-6.3,0c-6.1,0-12.7-0.1-18.8-0.3c0,0,0.3-0.3,0.3-0.3
		c-0.2,7.5-0.1,15,0.1,22.5c0,0-0.4-0.4-0.4-0.4C21.3,35.5,30.1,35.8,38.2,36L38.2,36z"/>
</g>
<circle class="st1" cx="18.9" cy="19.4" r="1.7"/>
<circle class="st3" cx="18.9" cy="25.4" r="1.7"/>
<circle class="st3" cx="18.9" cy="31.4" r="1.7"/>
<path class="st1" d="M34,20.1H23.4c-0.4,0-0.8-0.3-0.8-0.8v0c0-0.4,0.3-0.8,0.8-0.8H34c0.4,0,0.8,0.3,0.8,0.8v0
	C34.8,19.7,34.4,20.1,34,20.1z"/>
<path class="st1" d="M34,26.2H23.4c-0.4,0-0.8-0.3-0.8-0.8v0c0-0.4,0.3-0.8,0.8-0.8H34c0.4,0,0.8,0.3,0.8,0.8v0
	C34.8,25.8,34.4,26.2,34,26.2z"/>
<path class="st1" d="M34,32.3H23.4c-0.4,0-0.8-0.3-0.8-0.8v0c0-0.4,0.3-0.8,0.8-0.8H34c0.4,0,0.8,0.3,0.8,0.8v0
	C34.8,31.9,34.4,32.3,34,32.3z"/>
<path class="st4" d="M15.9,19.3c-0.2,0.2-0.4,0.5-0.5,0.8c0,0.1-0.1,0.1-0.1,0.2c-0.4-0.4-0.7-0.8-1.1-1.2c-0.3-0.3-0.7-0.6-1.2-0.8
	c0.4-0.2,0.7-0.4,1.1-0.7c0.1-0.1,0.2-0.1,0.3-0.2c0.1-0.1,0.1,0,0.2,0c0.2,0.4,0.4,0.9,0.7,1.3c0-0.1,0.1-0.2,0.1-0.3
	c0.4-0.8,0.8-1.5,1.4-2.2c0.3-0.4,0.7-0.8,1.2-1.1c0.1-0.1,0.3-0.2,0.4-0.3c0,0.2,0,0.5-0.1,0.7c0,0.4,0,0.9,0.1,1.3
	c0,0.1,0,0.1-0.1,0.1c-0.2,0.1-0.3,0.1-0.5,0.3c-0.3,0.2-0.6,0.4-0.8,0.7c-0.3,0.3-0.6,0.7-0.9,1.1c0,0,0,0,0,0c0,0,0,0,0,0
	C16,19.2,16,19.3,15.9,19.3z"/>
</svg>
