<?xml version="1.0" encoding="utf-8"?>
<!-- Generator: Adobe Illustrator 26.3.1, SVG Export Plug-In . SVG Version: 6.00 Build 0)  -->
<svg version="1.1" id="Capa_1" xmlns="http://www.w3.org/2000/svg" xmlns:xlink="http://www.w3.org/1999/xlink" x="0px" y="0px"
	 viewBox="0 0 60 60" style="enable-background:new 0 0 60 60;" xml:space="preserve">
<style type="text/css">
	.st0{fill:#B90C2F;}
	.st1{fill:#661D32;}
	.st2{fill:#FFFFFF;}
</style>
<g>
	<circle class="st0" cx="30.2" cy="30" r="27.3"/>
	<path class="st1" d="M2.9,30C2.7,10.4,22.6-3.4,40.8,4.5c22.4,9.8,22.8,41.5,0.1,51.2C22.6,63.3,2.7,49.6,2.9,30L2.9,30z M3,30
		c0.2,23.8,29.4,35.7,46.2,19C59.7,38.9,60,21,49.4,10.8C32.5-5.8,3.1,6.2,3,30L3,30z"/>
</g>
<path class="st2" d="M38.3,42c-0.5-1-1.8-1.8-3.7-1.1c-0.3,0.1-0.7,0.3-1,0.4c-1.1,0.4-2.3,0.9-3,1.3l-0.4,0.1
	c-0.5-1.5-1.8-2.3-3.9-2.3h-3.9c-2.5-1.1-5.4-0.6-7.3,1.3l-4.6,4.7c-0.2,0.2-0.2,0.6,0,0.8c0.1,0.1,0.3,0.2,0.4,0.2
	c0.1,0,0.2,0,0.2-0.1l0.4,0.5l0,0l0.4,0.5c1.2,1.5,3.2,2.1,5,1.5L16.7,50c-0.2,0.2-0.2,0.6,0,0.8c0.1,0.1,0.3,0.2,0.4,0.2
	c0.1,0,0.3-0.1,0.4-0.2l1.7-1.7c0.4-0.3,0.8-0.5,1.3-0.5h4.9c0.7,0,1.4-0.1,2.1-0.3l5.3-1.5c0,0,0.1,0,0.1-0.1l5.3-2.9
	C38.7,43.5,38.7,42.7,38.3,42z"/>
<path class="st2" d="M50,13.9c-0.2-0.2-0.4-0.2-0.7-0.1L49,13.3l0,0l-0.4-0.5c-1.2-1.5-3.2-2.1-5-1.5l0.2-0.2c0.2-0.2,0.2-0.6,0-0.8
	c-0.2-0.2-0.6-0.2-0.8,0l-1.7,1.7c-0.4,0.3-0.8,0.5-1.3,0.5h-4.9c-0.7,0-1.4,0.1-2.1,0.3l-5.3,1.5c0,0-0.1,0-0.1,0.1l-5.3,2.9
	c-0.5,0.3-0.6,1.1-0.1,1.9c0.4,0.7,1.2,1.4,2.3,1.4c0.4,0,0.9-0.1,1.4-0.3c0.3-0.1,0.7-0.3,1-0.4c1.1-0.4,2.3-0.9,3-1.3l0.4-0.1
	c0.5,1.5,1.8,2.3,3.9,2.3h3.9c0.9,0.4,1.8,0.6,2.7,0.6c1.7,0,3.3-0.7,4.6-1.9l4.6-4.7C50.2,14.5,50.2,14.1,50,13.9z"/>
<g id="XMLID_00000169539503308999190290000002473885018312046001_">
	<path class="st2" d="M22,37.3c-0.2,0-0.4-0.1-0.5-0.3c-1.2-1.7-1.8-3.8-1.8-5.9c0-1.5,0.3-3,0.9-4.3c0.1-0.3,0.5-0.4,0.8-0.3
		c0.3,0.1,0.4,0.5,0.3,0.8c-0.6,1.2-0.8,2.5-0.8,3.9c0,1.9,0.5,3.7,1.6,5.2c0.2,0.3,0.1,0.6-0.2,0.8C22.2,37.3,22.1,37.3,22,37.3z"
		/>
</g>
<g id="XMLID_00000129206965596736777440000008906062428427849639_">
	<path class="st2" d="M37.8,38.2c-0.1,0-0.3,0-0.4-0.1c-0.2-0.2-0.3-0.6-0.1-0.8c1.4-1.7,2.2-3.8,2.2-6.1c0-1-0.2-2-0.5-3
		c-0.1-0.3,0.1-0.6,0.4-0.7c0.3-0.1,0.6,0.1,0.7,0.4c0.4,1.1,0.6,2.2,0.6,3.4c0,2.5-0.9,4.9-2.5,6.8C38.2,38.1,38,38.2,37.8,38.2z"
		/>
</g>
<path class="st2" d="M36,29.9c-1.3-0.2-2.6,0.1-3.6,1.1c-0.5,0.5-0.8,1-1,1.6v-2.9c1-0.8,1.6-2,1.6-3.3c0-1.4-0.7-2.7-1.8-3.4
	c-1.1,0.7-1.8,2-1.8,3.4c0,1.3,0.6,2.5,1.6,3.3v6.6c-0.1-1-0.6-1.9-1.3-2.6c-1.1-1.1-2.7-1.6-4.2-1.3c-0.3,1.5,0.1,3,1.3,4.2
	c1.1,1.1,2.5,1.5,3.9,1.3l-2.9-2.9c-0.1-0.1-0.1-0.2,0-0.3c0.1-0.1,0.2-0.1,0.3,0l2.9,2.9v0.2c0,0.1,0.1,0.2,0.2,0.2
	s0.2-0.1,0.2-0.2v-3.5l2.3-2.3c0.1-0.1,0.2-0.1,0.3,0c0.1,0.1,0.1,0.2,0,0.3l-2.5,2.5c1.2,0.2,2.5-0.2,3.4-1.1
	C35.8,32.5,36.2,31.2,36,29.9z"/>
</svg>
