<?xml version="1.0" encoding="utf-8"?>
<!-- Generator: Adobe Illustrator 26.2.1, SVG Export Plug-In . SVG Version: 6.00 Build 0)  -->
<svg version="1.1" id="Capa_1" xmlns="http://www.w3.org/2000/svg" xmlns:xlink="http://www.w3.org/1999/xlink" x="0px" y="0px"
	 viewBox="0 0 50 50" style="enable-background:new 0 0 50 50;" xml:space="preserve">
<style type="text/css">
	.st0{fill:#3CB037;}
	.st1{fill:#00833E;}
	.st2{fill:#FFFFFF;}
</style>
<g>
	<circle class="st0" cx="24.55" cy="25.49" r="22.06"/>
	<g>
		<path class="st1" d="M2.43,25.49C2.29,9.65,18.38-1.62,33.09,4.85c18.08,7.91,18.5,33.69,0.09,41.5
			C18.4,52.58,2.27,41.38,2.43,25.49L2.43,25.49z M2.53,25.49c0.17,19.15,23.71,28.66,37.28,15.27c8.43-8.03,8.75-22.62,0.21-30.74
			C26.45-3.33,2.63,6.38,2.53,25.49L2.53,25.49z"/>
	</g>
</g>
<g>
	<rect x="28.57" y="31.85" class="st1" width="1.03" height="2.81"/>
	<path class="st2" d="M29.64,34.69c-0.25,0.21-0.94,0.38-1.4,0.4c-0.05-0.36-0.14-0.78-0.11-1.14c0.14-0.7,0.46-1.39,0.17-2.11
		c0,0-0.04-0.17-0.04-0.17c0.57-0.2,1.18-0.32,1.77-0.34C30.22,32.4,30.15,33.79,29.64,34.69L29.64,34.69z M29.57,34.62
		c-0.27-1.09-0.6-1.77-0.45-2.77c0,0,0.48,0.48,0.48,0.48c-0.34-0.03-0.69-0.1-1.03-0.21l0.27-0.27c-0.29,0.72,0.03,1.41,0.17,2.11
		c0.01,0.23-0.01,0.47-0.04,0.7l-0.4-0.4C28.82,34.31,29.08,34.47,29.57,34.62L29.57,34.62z"/>
</g>
<g>
	<path class="st2" d="M23.89,37.11c0.58-1.98,1.7-3.63,3.02-5.17c0,0,0.08,0.01,0.08,0.01c1.69,0.14,3.37-0.34,5.06-0.32
		c0,0,0.17,0.27,0.17,0.27c1,1.63,1.76,3.37,2.27,5.21c0,0-0.09,0.05-0.09,0.05c-0.64-0.73-1.19-1.51-1.7-2.31
		c-0.51-0.8-0.97-1.62-1.35-2.49l0.44,0.26c-1.6,0-3.2-0.45-4.8-0.31c0,0,0.15-0.09,0.15-0.09c-0.74,1.85-1.71,3.54-3.17,4.94
		C23.98,37.16,23.89,37.11,23.89,37.11L23.89,37.11z"/>
</g>
<g>
	<rect x="19.54" y="16.37" class="st0" width="20.13" height="2.32"/>
	<path class="st1" d="M39.67,18.69c-6.76,0.26-13.77,0.49-20.62,0.49c0-0.29-0.01-2.47-0.01-2.81c0,0,0-0.5,0-0.5s0.5,0,0.5,0
		c6.71,0.01,13.42,0.1,20.13,0.39c0,0,0.12,0.01,0.12,0.01s-0.01,0.11-0.01,0.11S39.67,18.69,39.67,18.69L39.67,18.69z M39.67,18.69
		l-0.11-2.32l0.11,0.11c-6.71,0.28-13.42,0.38-20.13,0.39c0,0,0.5-0.5,0.5-0.5l-0.01,2.32l-0.49-0.49
		C26.27,18.21,32.85,18.45,39.67,18.69L39.67,18.69z"/>
</g>
<g>
	<rect x="19.54" y="18.69" class="st2" width="20.13" height="13.16"/>
	<path class="st1" d="M39.67,31.85c-6.16,0.14-14.46,0.39-20.56,0.43c0,0,0-0.43,0-0.43l-0.07-13.16c0,0,0-0.5,0-0.5s0.5,0,0.5,0
		c6.08,0.05,14.47,0.04,20.47,0.18C39.97,22.36,39.77,27.82,39.67,31.85L39.67,31.85z M39.67,31.85c-0.12-3.85-0.26-9.38-0.33-13.16
		c0,0,0.33,0.33,0.33,0.33c-5.82,0.12-14.22,0.14-20.13,0.17c0,0,0.5-0.5,0.5-0.5l-0.07,13.16l-0.43-0.43
		C25.3,31.49,33.81,31.69,39.67,31.85L39.67,31.85z"/>
</g>
<g>
	<circle class="st2" cx="14.86" cy="16.1" r="2.74"/>
	<path class="st1" d="M12.07,16.1c0.02-4.44,5.24-3.9,5.81,0C18.09,20.29,11.95,20.6,12.07,16.1L12.07,16.1z M12.17,16.1
		c0,1.4,1.49,2.24,2.69,2.21c1.24,0.01,2.29-0.96,2.47-2.21C17.73,12.78,12.26,13.22,12.17,16.1L12.17,16.1z"/>
</g>
<g>
	<path class="st2" d="M25.25,21.14c0-0.5-0.41-0.91-0.91-0.91H17.1h-3.8h-0.25h0c-1.28,0-2.32,1.04-2.32,2.32v6.12
		c0,1.27,1.01,2.3,2.28,2.32l0.04,0v6.63h4.05V22.05h7.24C24.84,22.05,25.25,21.65,25.25,21.14L25.25,21.14z"/>
	<path class="st1" d="M25.2,21.14c0.01-0.54-0.53-0.94-1.07-0.84l-1.63,0.04l-3.27,0.15c-1.88,0.11-4.56,0.19-6.46,0.21
		c-0.88,0.11-1.61,0.91-1.66,1.82l-0.12,3.26c0.09,1.52-0.6,3.41,0.66,4.54c0.44,0.37,1.01,0.52,1.57,0.5c0,0,0,0.17,0,0.17
		c0.01,2.21,0.11,4.42,0.18,6.63l-0.35-0.35l4.05-0.1l-0.45,0.45c-0.08-5.19-0.16-10.38,0.07-15.58c0,0,0.02-0.4,0.02-0.4l0.37,0.02
		c0,0,4.33,0.22,4.33,0.22c0.72,0.04,1.44,0.07,2.17,0.08C24.28,22.03,25.17,22.03,25.2,21.14L25.2,21.14z M25.3,21.14
		c-0.02,1-0.97,1-1.7,0.99c-0.72,0.02-1.44,0.04-2.17,0.08l-4.33,0.22l0.38-0.38c0.23,5.19,0.15,10.38,0.07,15.58c0,0,0,0.46,0,0.46
		s-0.45-0.01-0.45-0.01s-4.05-0.1-4.05-0.1l-0.36-0.01c0.07-2.32,0.19-4.65,0.19-6.97c0,0,0.17,0.17,0.17,0.17
		c-1.17,0-2.26-0.92-2.45-2.09c-0.09-1.14-0.07-2.19-0.13-3.29c0,0-0.12-3.27-0.12-3.27c-0.09-1.66,1.58-2.95,3.17-2.73
		c2.83,0.01,6.13,0.22,8.98,0.34c0,0,1.63,0.04,1.63,0.04C24.69,20.09,25.32,20.53,25.3,21.14L25.3,21.14z"/>
</g>
</svg>
