<?xml version="1.0" encoding="utf-8"?>
<!-- Generator: Adobe Illustrator 26.3.1, SVG Export Plug-In . SVG Version: 6.00 Build 0)  -->
<svg version="1.1" id="Capa_1" xmlns="http://www.w3.org/2000/svg" xmlns:xlink="http://www.w3.org/1999/xlink" x="0px" y="0px"
	 viewBox="0 0 100 100" style="enable-background:new 0 0 100 100;" xml:space="preserve">
<style type="text/css">
	.st0{fill:#CECCC8;}
	.st1{fill:#B90C2F;}
	.st2{fill:#A6C5EC;}
	.st3{fill:#205492;}
	.st4{fill:#0067B8;}
	.st5{fill:#002F6C;}
	.st6{fill:#C64E39;}
	.st7{fill:#661D32;}
	.st8{fill:#8B8884;}
	.st9{fill:#4C4443;}
	.st10{fill:#6C6463;}
	.st11{fill:#FFFFFF;}
</style>
<g>
	<circle class="st0" cx="49.6" cy="50" r="44.2"/>
	<path class="st1" d="M5.5,50c-0.2-17.5,11-34.3,27.2-41c29.2-12.3,61.6,9.3,61.7,41c0,31.7-32.4,53.2-61.7,41
		C16.5,84.3,5.2,67.5,5.5,50L5.5,50z M5.5,50C5.3,67.5,16.5,84.3,32.8,90.7c28.7,11.8,60.6-9.6,60.5-40.7
		C93.4,18.9,61.5-2.5,32.8,9.3C16.5,15.7,5.3,32.5,5.5,50L5.5,50z"/>
</g>
<path class="st2" d="M35.6,35.8h1.4c1.7,0,3.1,1.4,3.1,3.1v7c0,1.7-1.4,3.1-3.1,3.1h-1.4c-1.7,0-3.1-1.4-3.1-3.1v-7
	C32.5,37.2,33.9,35.8,35.6,35.8z"/>
<path class="st3" d="M40.5,43.9c3,0.6,6,1.5,8.8,2.8c4.4,2.1,13.1,0.4,17.3,0v7.4c0,0-12.3,4.8-21.7,2.4S40.5,43.9,40.5,43.9z"/>
<path class="st4" d="M40,43.8c2.3,0.2,4.3,0.8,5.9,2.3c3.1,3.1,1.9,7.9,2.4,17c0.2,3.8,0.7,7.5,1.3,11.2c0,0-12.7,4.6-25.6,1.4
	c0.8-2.9,1.3-5.9,1.6-9c1.1-11.1-1.5-17.9,2.4-21.3c0.7-0.6,2.1-1.5,4.5-1.7c0.7,2.7,3.2,4,5.1,3.4C38.9,46.8,39.8,45.4,40,43.8z"/>
<path class="st4" d="M31.1,44c0,0-6.5,1.2-7.6,3.9c-1.1,2.7-5.5,26-5.5,26s2.7,1.9,9,2.4L31.1,44z"/>
<path class="st5" d="M24.8,76.3L24.8,76.3c-0.2,0-0.3-0.2-0.3-0.3c0,0,0,0,0,0l2.5-21.1c0,0,0-0.1,0-0.1c1.5-3.1,0-6.2,0-6.2
	c-0.1-0.1,0-0.3,0.1-0.4c0.1-0.1,0.3,0,0.4,0.1c0,0,0,0,0,0c0.1,0.1,1.6,3.3,0,6.7L25.1,76C25.1,76.2,25,76.3,24.8,76.3z"/>
<path class="st3" d="M25.2,23.5c-2.4,6.9-2.5,12.6-2.3,16.2c0.2,4,0.6,8.6,3.6,10.2c1.3,0.7,3.4,1,5.5,0.4c0.7-0.2,1.3-0.4,1.8-1
	c1-1.4-0.2-3.7-0.7-5.4c-0.7-2.1-0.9-5.3,1.2-10.1c-1.2,0.1-2.4-0.1-3.5-0.6C27.4,31.7,25.4,28,25.2,23.5z"/>
<path class="st3" d="M48.4,23.7c1.9,7,1.7,12.7,1.3,16.3c-0.5,4-1,8.5-4.1,10c-1.3,0.6-3.5,0.8-5.5,0.1c-0.7-0.2-1.3-0.5-1.7-1.1
	c-1-1.4,0.4-3.7,1-5.4c0.8-2.1,1.2-5.3-0.7-10.2c1.2,0.1,2.4,0,3.5-0.4C45.6,31.8,47.9,28.2,48.4,23.7z"/>
<path class="st6" d="M25.6,34.8C25.6,34.8,25.6,34.8,25.6,34.8c-0.5-0.4-0.8-0.8-0.8-1.2c0-0.4,0.2-0.8,0.5-1.1L24,32.7
	c-0.1,0-0.1,0-0.1-0.1c0-0.1,0-0.1,0.1-0.1l1.6-0.3c0,0,0.1,0,0.1,0.1c0,0,0,0.1,0,0.1c0,0-0.7,0.5-0.7,1.2c0,0.4,0.2,0.7,0.7,1.1
	C25.7,34.7,25.7,34.7,25.6,34.8C25.7,34.8,25.7,34.8,25.6,34.8z"/>
<path class="st6" d="M47.6,34.8C47.6,34.8,47.5,34.8,47.6,34.8c-0.1-0.1-0.1-0.2-0.1-0.2c0.4-0.3,0.6-0.7,0.7-1.1
	c0-0.7-0.6-1.2-0.7-1.2c0,0,0-0.1,0-0.1c0,0,0.1-0.1,0.1-0.1l1.6,0.3c0.1,0,0.1,0.1,0.1,0.1c0,0.1-0.1,0.1-0.1,0.1l0,0l-1.3-0.2
	c0.3,0.3,0.5,0.7,0.5,1.1C48.4,34,48.2,34.5,47.6,34.8C47.7,34.8,47.7,34.8,47.6,34.8z"/>
<circle class="st2" cx="36.6" cy="29.6" r="11.4"/>
<path class="st2" d="M49.8,31.3c-0.3-0.3-0.6-0.5-1-0.5c-0.3,0-0.5,0-0.8,0c0.1-0.9,0.1-1.9-0.1-2.9c-3.5-4.2-9.2-4-14-2.7
	c-4,1.1-7.1,2.4-8.7,3.6c-0.1,0.7,0,1.3,0,2c-0.2,0-0.5,0-0.7,0c-0.4,0.1-0.8,0.2-1,0.5c-0.9,1-0.2,3.9,1.6,4.5
	c0.6,0.2,1.1,0.1,1.6-0.1c2.1,3.9,6.4,7.3,11,6.9c3.7-0.3,7.2-3,9.1-6.9c0.4,0.1,1,0.2,1.5,0.1C50,35.2,50.7,32.4,49.8,31.3z"/>
<path class="st5" d="M37.1,34.5c-0.2,0-0.4,0-0.6,0c-0.1,0-0.2-0.1-0.2-0.2c0-0.1,0.1-0.2,0.2-0.2l0,0c0.5,0.1,1.1,0,1.2-0.1
	c0.1-0.2-0.2-1.6-0.5-2.7c0-0.1,0-0.2,0.1-0.2c0.1,0,0.2,0,0.2,0.1c0.5,1.8,0.6,2.8,0.4,3C37.9,34.5,37.5,34.5,37.1,34.5z"/>
<path class="st5" d="M31.1,29.2c0.5-0.4,1-0.6,1.6-0.7c0.4,0,0.9-0.1,1.1,0.2c0.1,0.1,0.1,0.3,0,0.4c-0.2,0.3-0.7,0.1-1.4,0.1
	c-1,0.1-1.6,0.5-1.7,0.4C30.6,29.6,30.9,29.3,31.1,29.2z"/>
<path class="st5" d="M43.7,29.2c-0.5-0.4-1-0.6-1.6-0.7c-0.4,0-0.9-0.1-1.1,0.2c-0.1,0.1-0.1,0.3,0,0.4c0.2,0.3,0.7,0.1,1.4,0.1
	c1,0.1,1.6,0.5,1.7,0.4C44.1,29.6,43.8,29.3,43.7,29.2z"/>
<path class="st5" d="M37.3,39.8c-0.4,0-0.7-0.1-1.1-0.3c0,0-0.1-0.1,0-0.1c0,0,0.1-0.1,0.1,0c0.7,0.5,1.8,0.1,1.8,0.1
	c0,0,0.1,0,0.1,0.1c0,0,0,0,0,0c0,0,0,0.1-0.1,0.1C37.9,39.7,37.6,39.8,37.3,39.8z"/>
<g>
	<path class="st5" d="M43.7,31.2c-0.2,0.1-0.4,0-0.6-0.1c-0.2-0.1-0.3-0.2-0.5-0.4c-0.4-0.3-0.9-0.3-1.3,0c0,0,0,0,0,0
		c-0.5,0.4-0.6,1.1-0.2,1.5c0.4,0.5,1.1,0.6,1.5,0.2c0.3-0.3,0.5-0.7,0.4-1.1c0.2,0.1,0.5,0.1,0.8,0c0.2-0.1,0.4-0.3,0.4-0.6
		C44.1,31,43.9,31.1,43.7,31.2z"/>
	<path class="st5" d="M44.2,30.8C44.2,30.8,44.2,30.9,44.2,30.8C44.2,30.9,44.2,30.8,44.2,30.8L44.2,30.8z"/>
	<path class="st5" d="M33.6,30.9c-0.4-0.3-0.9-0.2-1.3,0.1c-0.2,0.1-0.4,0.3-0.5,0.4c-0.2,0.1-0.4,0.1-0.6,0.1
		c-0.2-0.1-0.4-0.2-0.6-0.4h0c0.1,0.3,0.2,0.5,0.5,0.6c0.3,0.1,0.6,0.1,0.8,0c-0.1,0.4,0.1,0.8,0.4,1.1c0.5,0.3,1.2,0.2,1.5-0.3
		C34.3,31.9,34.1,31.3,33.6,30.9C33.6,30.9,33.6,30.9,33.6,30.9z"/>
</g>
<path class="st3" d="M30.2,25C30.2,24.9,30.2,24.9,30.2,25c-0.1-0.1-0.1,0-0.1,0c-0.3,1.2-1.1,3.3-3.1,4.5c-0.7,0.4-1.6,0.7-2.4,0.7
	c0,0-0.1,0-0.1-0.1c-0.2-1.3-0.9-6.7,2.5-10.5c5-5.7,16.2-5.1,20.2,0.9c2.4,3.6,1.5,8.1,1.1,9.6c0,0,0,0-0.1,0.1
	c-0.2,0.1-0.5,0.1-0.7,0c-1.5-0.2-2.7-2.2-3.3-5.1c0,0,0-0.1-0.1-0.1c0,0-0.1,0-0.1,0.1c0,0.8-0.1,1.5-0.1,2.3c0,0,0,0.1-0.1,0.1
	c0,0,0,0,0,0c-4.5-0.8-9.2-0.9-13.7-0.2c0,0-0.1,0-0.1-0.1c0,0,0,0,0,0C30.2,26.4,30.2,25.7,30.2,25z"/>
<path class="st5" d="M37.4,38.6h-0.2c-2.5-0.1-3.7-2.3-3.7-2.4c0,0,0-0.1,0-0.1c0,0,0.1,0,0.1,0c0,0.1,1.2,2.2,3.6,2.3
	c1.6,0.1,3.2-0.8,3.9-2.3c0,0,0.1-0.1,0.1,0c0,0,0.1,0.1,0,0.1C40.5,37.7,39,38.6,37.4,38.6z"/>
<path class="st7" d="M57.9,22.1c-1.3,0.4-6.1,2.3-7.9,6.9c-1.3,3.2-0.6,6.3,0.5,11.7c0.1,0.7,0.3,1.3,0.6,1.9c0.8,1.9,1.7,2,2,3.2
	c0.4,1.7-1,2.4-0.7,3.8c0.1,0.5,0.7,1.3,3.3,2.5c4.2,1.9,12.1,0.8,14.7-1.3c2.6-2.1,2.8-3.6,2.1-6s1.6-4.6,2.2-9
	c0.5-4-0.8-9.2-4.6-12.1C65.2,19.8,58.8,21.9,57.9,22.1z"/>
<path class="st8" d="M62.4,38.3h1.4c1.7,0,3.1,1.4,3.1,3.1v7c0,1.7-1.4,3.1-3.1,3.1h-1.4c-1.7,0-3.1-1.4-3.1-3.1v-7
	C59.3,39.7,60.7,38.3,62.4,38.3z"/>
<path class="st9" d="M55.3,48.2c0,0-5,1.3-5.9,7s-4.1,20.2-4.1,20.2s1.1,1.4,4.4,1.4l3.3-0.1L55.3,48.2z"/>
<path class="st10" d="M59.3,46.3c-1.4,0.4-2.8,1.1-4.1,1.8c-0.7,0.4-1.3,0.8-2,1.3c-3,2.4-2.1,9.8-2.3,16.2
	c-0.1,3.8-0.5,7.5-1.3,11.2c0,0,12.7,4.6,25.6,1.4c-0.8-2.9-1.3-5.9-1.6-9c-1.1-11.1,1.5-17.9-2.3-21.3c-0.7-0.6-2.1-1.5-4.5-1.7
	c-0.7,2.7-3.2,4-5.1,3.4C60.4,49.3,59.5,47.9,59.3,46.3z"/>
<path class="st10" d="M68.2,46.5c0,0,6.5,1.2,7.6,3.9c1.1,2.7,5.5,26,5.5,26s-2.7,1.9-9,2.4L68.2,46.5z"/>
<path class="st9" d="M74.5,78.7c-0.1,0-0.2-0.1-0.2-0.2l-2.5-21.1c-1.6-3.4-0.1-6.5,0-6.6c0-0.1,0.2-0.1,0.3-0.1
	c0.1,0,0.1,0.2,0.1,0.3l0,0c0,0-1.5,3.1,0,6.3c0,0,0,0,0,0.1l2.5,21.1C74.7,78.6,74.6,78.6,74.5,78.7L74.5,78.7z"/>
<circle class="st8" cx="62.7" cy="32.1" r="11.4"/>
<path class="st8" d="M51.4,30.4c-0.9,7.8,4.4,14.2,10.3,14.7c5.3,0.4,10.2-4.1,11.8-8.6c0.6-1.7,0.8-3.4,0.7-5.2
	c-1.6-1.2-4.7-2.5-8.7-3.6C60.6,26.4,54.9,26.2,51.4,30.4z"/>
<g>
	<path class="st9" d="M62.8,37c0.1,0,0.2-0.1,0.2-0.2c0-0.1-0.1-0.2-0.2-0.2c-0.5,0.1-1.1,0-1.2-0.1c-0.1-0.3,0.2-1.6,0.5-2.7
		c0-0.1,0-0.2-0.1-0.2c-0.1,0-0.2,0-0.2,0.1c-0.5,1.8-0.6,2.8-0.4,3c0.1,0.2,0.6,0.2,0.9,0.2C62.4,37,62.6,37,62.8,37z"/>
	<path class="st9" d="M66.9,31.8c1,0.1,1.6,0.5,1.7,0.4c0.1-0.1-0.2-0.4-0.4-0.5c-0.5-0.4-1-0.6-1.6-0.7c-0.4,0-0.9-0.1-1.1,0.2
		c-0.1,0.1-0.1,0.3,0,0.4C65.6,31.9,66.1,31.7,66.9,31.8z"/>
	<path class="st9" d="M57,31.8c0.8-0.1,1.3,0.1,1.4-0.1c0.1-0.1,0.1-0.3,0-0.4c-0.2-0.3-0.7-0.2-1.1-0.2c-0.6,0.1-1.2,0.3-1.6,0.7
		c-0.1,0.1-0.4,0.4-0.4,0.5C55.3,32.3,56,31.9,57,31.8z"/>
	<path class="st9" d="M61.8,41.7c-0.1,0-0.1,0-0.1,0.1c0,0.1,0,0.1,0.1,0.1c0.3,0.1,0.6,0.1,1,0.1c0.4,0,0.8-0.1,1.1-0.3
		c0,0,0,0,0,0c0,0,0.1-0.1,0-0.1c0,0-0.1-0.1-0.1,0C63,42,61.8,41.7,61.8,41.7z"/>
	<path class="st9" d="M58,33.3c-0.4-0.3-0.9-0.3-1.3,0c-0.2,0.1-0.4,0.3-0.5,0.4c-0.2,0.1-0.4,0.1-0.6,0.1c-0.2-0.1-0.4-0.2-0.5-0.4
		c0.1,0.3,0.2,0.5,0.4,0.6c0.2,0.1,0.5,0.1,0.8,0c-0.1,0.4,0.1,0.8,0.4,1.1c0.5,0.4,1.2,0.3,1.5-0.2C58.6,34.3,58.5,33.6,58,33.3
		C58,33.3,58,33.3,58,33.3z"/>
	<path class="st9" d="M55.1,33.3C55.1,33.3,55.1,33.3,55.1,33.3C55.1,33.3,55.1,33.3,55.1,33.3L55.1,33.3z"/>
	<path class="st9" d="M68.6,33.6c-0.2,0.2-0.4,0.3-0.6,0.4c-0.2,0-0.4,0-0.6-0.1c-0.2-0.1-0.3-0.3-0.6-0.4c-0.4-0.3-0.9-0.3-1.3,0
		c0,0,0,0,0,0c-0.5,0.3-0.6,1-0.3,1.5c0.3,0.5,1,0.6,1.5,0.3c0.4-0.2,0.5-0.7,0.4-1.1c0.2,0.1,0.5,0.2,0.8,0
		C68.4,34.1,68.6,33.8,68.6,33.6L68.6,33.6z"/>
</g>
<path class="st7" d="M72.3,32.6c0.3,0.3,0.7,0.5,1.1,0.6c0.5,0.2,1,0.3,1.3,0.1c0,0,0.1,0,0.1-0.1c0.6-0.6,0.7-6.8-2.5-10.5
	C67.2,17,56,17.6,52,23.6c-2.4,3.6-1.5,8.1-1.1,9.6c0,0,0,0,0.1,0.1c0.4,0.3,2-1.3,2.2-1.6l0,0c0.5-0.5,1.5-2.2,3.6-8
	c8.5-0.1,11.3,1.7,12.1,3.5C68.9,27,71,31.4,72.3,32.6z"/>
<path class="st11" d="M59.5,39.2l5.9-0.2c-0.5,1.3-1.9,2.1-3.3,2.1C60.4,40.9,59.6,39.3,59.5,39.2z"/>
</svg>
