<?xml version="1.0" encoding="utf-8"?>
<!-- Generator: Adobe Illustrator 26.3.1, SVG Export Plug-In . SVG Version: 6.00 Build 0)  -->
<svg version="1.1" id="Capa_1" xmlns="http://www.w3.org/2000/svg" xmlns:xlink="http://www.w3.org/1999/xlink" x="0px" y="0px"
	 viewBox="0 0 100 100" style="enable-background:new 0 0 100 100;" xml:space="preserve">
<style type="text/css">
	.st0{fill:#CECCC8;}
	.st1{fill:#B90C2F;}
	.st2{fill:#0067B8;}
	.st3{fill:#FFFFFF;}
	.st4{fill:#002F6C;}
	.st5{fill:#3F67AD;}
</style>
<g>
	<circle class="st0" cx="50.9" cy="48.8" r="44.2"/>
	<path class="st1" d="M6.6,48.8C6.5,17.2,38.6-4.7,67.9,7.7c16.2,6.7,27.5,23.5,27.4,41.1c0.3,17.7-11,34.7-27.4,41.3
		C38.6,102.3,6.5,80.5,6.6,48.8L6.6,48.8z M6.7,48.8C6.6,72.8,27,92.7,50.9,92.5c38.9-0.3,58.6-47,31.1-74.8C54.4-9.5,7,10,6.7,48.8
		L6.7,48.8z"/>
</g>
<g>
	<path class="st2" d="M50.7,51.6c0.6-2.8,1.4-5.6,2.3-8.4c0.2-0.5,0.4-1.1,0.9-1.2c0.3-0.1,0.6,0,0.8,0.1c1.4,0.5,2.9,0.9,4.4,1.1
		c0.3,0,0.6,0.1,0.8-0.1c0.3-0.2,0.4-0.5,0.5-0.9c0.3-1,0.6-2.2,0.1-3.1c-0.3-0.6-0.9-1.2-1.6-1.4c-12.2-2.4-20-7.9-28.8-13.9
		c-1.1-0.8-2.3-1.6-3.6-2.1c-1.3-0.4-2.9-0.3-3.9,0.7c-0.4,0.4-0.7,1-0.9,1.5c-2.2,5.3-3.3,10.9-2.1,16.5c0.3,1.5,0.8,3.1,2,4
		c1.7,1.3,4.1,0.7,6.1,0.1c5.5-1.6,12.2-2.8,17.7-4.4c0.9-0.3,1.9-0.5,2.5,0.2c0.2,0.2,0.3,0.5,0.6,0.7c0.4,0.3,1,0.2,1.5,0.2
		c0.5,0,1.1,0.1,1.3,0.6c0.1,0.2,0,0.5-0.1,0.7l-1.7,6c-0.2,0.6-0.3,1.2-0.2,1.8C49.4,51.2,50,51.8,50.7,51.6"/>
	<path class="st3" d="M65.5,65.6c-0.9,1.9-2.2,3.7-3.9,5c-1.2,0.9-2.7,1.7-4.2,1.4c-1-0.2-1.8-0.9-2.4-1.7c-0.6-0.8-0.9-1.7-1.2-2.7
		c-1.5-4.7-1.5-9.6-1.6-14.5c0-0.8,0-1.7-0.1-2.5c-0.1-0.5-0.1-1-0.4-1.4c-0.8-1.2-2.7-1.1-3.6-2.2c-0.2-0.2-0.2-0.4-0.2-0.6
		c0.1-0.6,0.9-0.7,1.4-0.6c-0.4,0.4-1.2,0-1.3-0.5c0-0.6,0.7-1,1.2-0.7c-0.5,0.1-0.9-0.7-0.6-1.1s1.1-0.3,1.4,0.1
		c-0.5-0.1-0.9-0.7-0.7-1.2c0,0,0,0,0-0.1c0-0.1,0.1-0.2,0.1-0.2c0.1-0.1,0.3-0.1,0.5,0c1.3,0.2,2.5,0.6,3.7,1.1
		c-0.3,0-0.6-0.4-0.4-0.7c0.2-0.2,0-0.9,1.2-0.6c2.8,0.6,2.1,3.8,2.4,5.8s0.3,4.1,0.9,6.1c0.3,1.3,0.9,2.5,1.3,3.8
		c0.4,1.3,0.5,2.7,0.1,3.9"/>
	<path d="M49.6,42.4c0.2-0.1,0.3,0,0.5,0c0.2,0,0.3,0.1,0.5,0.1c0.3,0.1,0.7,0.2,1,0.3c0.7,0.2,1.3,0.4,2,0.7l0.1-0.3
		c-0.1,0-0.3-0.1-0.4-0.3c0-0.1,0.1-0.2,0.1-0.3c0-0.1,0.1-0.2,0.1-0.3c0.1-0.2,0.4-0.1,0.6-0.1c0.3,0,0.7,0.2,1,0.3
		c1.1,0.6,1.3,1.8,1.4,2.9c0,0.6,0.1,1.2,0.1,1.8c0.1,0.8,0.2,1.5,0.3,2.3c0.1,1,0.2,2,0.3,3c0.1,1,0.4,2,0.7,2.9
		c0.7,2,1.8,4.2,1,6.4c-0.1,0.2,0.3,0.3,0.3,0.1c0.7-2-0.1-4.2-0.8-6.1c-0.4-1-0.7-2-0.9-3.1c-0.2-1.1-0.3-2.2-0.4-3.2
		c-0.1-0.8-0.3-1.6-0.3-2.4c0-0.6,0-1.3-0.1-1.9c0-0.6-0.2-1.2-0.5-1.8c-0.3-0.5-0.8-1-1.3-1.2c-0.5-0.2-1.5-0.5-1.8,0.1
		c0,0.1-0.1,0.2-0.1,0.3c0,0,0,0.1,0,0.1c0,0,0,0,0,0c0,0,0,0,0,0.1c-0.2,0.4,0.2,0.8,0.6,0.9c0.1,0,0.2,0,0.2-0.1
		c0-0.1,0-0.2-0.1-0.2c-0.7-0.3-1.4-0.5-2.2-0.7c-0.4-0.1-0.7-0.2-1.1-0.2c-0.3-0.1-0.7-0.2-1,0c-0.1,0-0.1,0.1,0,0.2
		C49.4,42.4,49.5,42.4,49.6,42.4L49.6,42.4z"/>
	<path d="M65.4,65.6c-0.6,1.1-1.2,2.2-2.1,3.2c-0.8,1-1.8,1.9-2.9,2.5c-1.1,0.6-2.4,1-3.6,0.4c-1.2-0.5-1.9-1.6-2.4-2.8
		c-0.5-1.3-0.9-2.7-1.2-4c-0.3-1.4-0.5-2.8-0.6-4.2c-0.1-1.4-0.2-2.8-0.2-4.3c0-1.4,0-2.9-0.1-4.3c0-0.7,0-1.4-0.2-2.1
		c-0.1-0.5-0.4-1-0.8-1.3c-0.8-0.6-1.8-0.7-2.6-1.2c-0.2-0.1-0.4-0.3-0.5-0.5c-0.1-0.2-0.4,0.1-0.3,0.3c0.6,0.8,1.7,0.9,2.5,1.3
		c0.4,0.2,0.9,0.5,1.1,0.9c0.3,0.6,0.3,1.4,0.4,2.1c0.1,1.5,0.1,2.9,0.1,4.4c0,1.5,0.1,2.9,0.2,4.4c0.1,1.4,0.3,2.9,0.6,4.3
		c0.3,1.4,0.6,2.8,1.1,4.1c0.4,1.2,1.1,2.3,2.2,3c1.1,0.7,2.4,0.7,3.6,0.2c1.2-0.5,2.2-1.4,3.1-2.3c0.9-0.9,1.6-1.9,2.2-3.1
		c0.2-0.3,0.3-0.6,0.4-0.9C65.6,65.6,65.4,65.4,65.4,65.6L65.4,65.6z"/>
	<path class="st3" d="M65.1,35.2c-0.8,1.4-0.1,3.3-1,4.5c-0.1,0.1-0.2,0.2-0.2,0.4c-0.1,0.3,0.1,0.5,0.4,0.7
		c0.5,0.3,0.5,1.1,0.6,1.6c0.1,0.6,0.1,1.1,0.2,1.7c0.1,0.5,0.3,0.9,0.7,1.2c0.3,0.2,0.7,0.3,1.1,0.3c0.6,0,1.1-0.2,1.7-0.3
		c0.2,0,0.4,0,0.6,0.1c0.1,0.1,0.2,0.2,0.2,0.3c0.2,0.7,0.4,1.4,0.7,2.1c0,0.2,0.1,0.4,0.3,0.5c0.2,0.1,0.5,0.1,0.7,0.1
		c1.8-0.3,3.4-1.2,4.5-2.7c0.1-0.1,0.2-0.3,0.2-0.4c0-0.2-0.1-0.3-0.2-0.4c-1-1.1-1.7-2.5-2-4c-0.5-2.3,0.5-5.3-1.3-7.2
		c-0.4-0.5-1-0.8-1.6-0.9c-1-0.2-2.1-0.1-3.1,0.3c-0.9,0.3-2,1-2.1,2"/>
	<path d="M65,35.2c-0.4,0.6-0.4,1.3-0.5,2c0,0.7,0,1.4-0.3,2.1c-0.1,0.2-0.2,0.3-0.3,0.4c-0.1,0.1-0.2,0.3-0.3,0.5
		c0,0.4,0.2,0.6,0.5,0.8c0.3,0.2,0.4,0.5,0.4,0.8c0.1,0.3,0.1,0.7,0.1,1c0.1,0.8,0.1,1.7,0.6,2.4s1.3,0.7,2.1,0.6
		c0.4-0.1,0.9-0.2,1.3-0.2c0.2,0,0.3,0.2,0.4,0.4l0.2,0.7c0.1,0.4,0.3,0.9,0.4,1.3c0.1,0.3,0.3,0.7,0.7,0.7c0.4,0.1,0.7,0,1.1-0.1
		c0.4-0.1,0.7-0.2,1.1-0.3c0.7-0.3,1.3-0.7,1.9-1.2c0.3-0.2,0.6-0.5,0.8-0.8c0.2-0.3,0.5-0.6,0.5-0.9c0-0.2-0.1-0.3-0.2-0.4
		c-0.1-0.2-0.3-0.3-0.4-0.5c-0.3-0.3-0.5-0.7-0.7-1.1c-0.4-0.7-0.7-1.5-0.9-2.3c-0.2-0.7-0.2-1.4-0.2-2.1c0-1.4,0.1-2.8-0.4-4.1
		c-0.2-0.7-0.7-1.2-1.2-1.6c-0.7-0.5-1.5-0.6-2.3-0.6c-0.8,0-1.6,0.2-2.3,0.5c-0.6,0.3-1.2,0.6-1.6,1.2c-0.2,0.2-0.3,0.5-0.3,0.8
		c0,0.2,0.2,0.2,0.2,0.1c0.1-0.6,0.6-1.1,1.1-1.4c0.6-0.4,1.2-0.6,1.9-0.8c0.8-0.2,1.6-0.1,2.4,0.1c0.7,0.3,1.2,0.7,1.6,1.4
		c0.7,1.2,0.6,2.6,0.6,3.8c0,0.7,0,1.3,0.1,2c0.1,0.7,0.3,1.4,0.5,2.1c0.3,0.7,0.6,1.4,1.1,2c0.1,0.1,0.2,0.3,0.3,0.4
		c0.1,0.1,0.3,0.3,0.4,0.5c0.1,0.2-0.1,0.3-0.2,0.5c-0.1,0.2-0.2,0.3-0.4,0.4c-1,1.1-2.2,1.8-3.6,2.1c-0.3,0.1-0.8,0.2-1-0.1
		C70,48,70,47.8,69.9,47.6c-0.1-0.2-0.1-0.4-0.2-0.6c-0.1-0.4-0.3-0.8-0.4-1.3c0-0.2-0.1-0.3-0.2-0.4c-0.1-0.1-0.3-0.2-0.5-0.2
		c-0.8,0-1.6,0.4-2.4,0.2c-0.8-0.2-1-1-1.1-1.8C65,43.2,65,42.8,65,42.4c0-0.3-0.1-0.6-0.1-0.9c-0.1-0.3-0.2-0.5-0.4-0.7
		c-0.2-0.2-0.7-0.4-0.4-0.7c0.2-0.3,0.4-0.5,0.5-0.8c0.1-0.3,0.2-0.6,0.2-1c0.1-0.7,0-1.4,0.1-2c0.1-0.3,0.2-0.6,0.3-0.9
		c0-0.1,0-0.1-0.1-0.2C65.1,35.1,65,35.1,65,35.2L65,35.2z"/>
	<path d="M65.9,38.7L65.9,38.7C65.8,38.7,65.8,38.7,65.9,38.7L65.9,38.7L65.9,38.7L65.9,38.7L65.9,38.7
		C65.8,38.7,65.8,38.7,65.9,38.7L65.9,38.7C65.8,38.7,65.8,38.7,65.9,38.7L65.9,38.7L65.9,38.7L65.9,38.7
		C65.8,38.7,65.8,38.7,65.9,38.7L65.9,38.7L65.9,38.7L65.9,38.7C65.8,38.7,65.8,38.7,65.9,38.7L65.9,38.7
		C65.8,38.7,65.8,38.8,65.9,38.7L65.9,38.7C65.8,38.8,65.8,38.8,65.9,38.7L65.9,38.7C65.8,38.8,65.8,38.8,65.9,38.7L65.9,38.7
		C65.8,38.8,65.8,38.8,65.9,38.7L65.9,38.7C65.8,38.7,65.8,38.8,65.9,38.7L65.9,38.7L65.9,38.7L65.9,38.7
		C65.9,38.7,65.9,38.7,65.9,38.7L65.9,38.7L65.9,38.7L65.9,38.7L65.9,38.7L65.9,38.7C65.9,38.7,65.9,38.7,65.9,38.7L65.9,38.7
		L65.9,38.7l0.1,0C66,38.7,66,38.7,65.9,38.7l0.1,0C66,38.7,65.9,38.7,65.9,38.7l0.1,0l0,0l0,0C66,38.7,65.9,38.7,65.9,38.7
		L65.9,38.7C65.9,38.7,65.9,38.7,65.9,38.7C65.8,38.6,65.8,38.6,65.9,38.7C65.8,38.7,65.8,38.7,65.9,38.7c-0.1-0.1-0.1,0-0.1,0
		c0,0,0,0,0,0c0,0,0,0.1,0,0.1c0,0.1,0,0.1,0.1,0.1c0,0,0.1,0.1,0.1,0.1c0,0,0.1,0,0.1,0c0.1,0,0.1-0.1,0.1-0.1c0,0,0,0,0-0.1v0
		c0,0,0,0,0-0.1c0-0.1,0-0.1,0-0.1c0,0,0,0,0,0c0,0,0,0-0.1-0.1c0,0-0.1-0.1-0.1-0.1c0,0-0.1,0-0.1,0c0,0,0,0-0.1,0
		c-0.1,0-0.1,0.1-0.1,0.2v0c0,0,0,0,0,0c0,0,0,0,0.1,0C65.8,38.8,65.8,38.8,65.9,38.7L65.9,38.7z"/>
	<path d="M65.4,37.9c0,0,0.1,0,0.1,0h0h0c0,0,0,0,0,0h0c0,0,0,0,0,0c0,0,0.1,0,0.1,0l0.1,0l-0.1,0c0.1,0,0.2,0,0.2,0l-0.1,0h0
		c0.1,0,0.1,0,0.2,0c0.1,0,0.2-0.1,0.2-0.2c0.1-0.1,0-0.3-0.1-0.4c0,0,0,0,0,0c-0.2,0-0.4,0-0.6,0c-0.1,0-0.1,0.1-0.2,0.1
		c0,0.1,0,0.1,0,0.2c0,0.1,0.1,0.2,0.3,0.2c0.2,0,0.4,0,0.6,0L66,38c0.1,0,0.2,0,0.3,0l-0.1-0.5l-0.1,0c-0.1,0.1-0.2,0.2-0.1,0.4
		c0,0.1,0.1,0.1,0.1,0.1l0.1,0c0.2,0,0.3,0,0.4-0.2c0-0.2,0-0.3-0.2-0.4c-0.1,0-0.2,0-0.3,0c-0.1,0-0.1,0-0.2,0c-0.1,0-0.3,0-0.4,0
		l0.1,0.6h0l-0.1,0c0.1,0,0.2,0,0.2,0c0.1,0,0.2,0,0.2,0l-0.1-0.6h0l0.1,0c-0.1,0-0.2,0-0.4,0c0,0-0.1,0-0.1,0l0,0c0,0,0,0,0,0
		c0,0,0,0,0,0c0,0,0,0,0,0c-0.1,0-0.1,0.1-0.2,0.2C65.3,37.8,65.3,37.9,65.4,37.9L65.4,37.9z"/>
	<path d="M70.3,38.3c-0.2,0-0.3,0.2-0.3,0.3c0,0.1,0,0.2,0,0.3c0,0.1,0.1,0.1,0.2,0.1c0.1,0,0.1,0,0.2-0.1c0-0.1,0-0.2-0.1-0.2
		c-0.1,0-0.2,0-0.2,0c0,0,0,0.1,0,0.1c0,0,0.1,0.1,0.1,0.1c0,0,0,0,0.1,0h0h0h0h0l0,0h0l0,0l0,0l0,0c0,0,0,0,0,0l0,0c0,0,0,0,0,0v0
		v0c0,0,0,0,0,0l0,0c0,0,0,0,0,0l0,0h0h0h0h0h0l0,0c0,0,0,0,0,0c0,0,0,0,0,0l0,0v0v0c0,0,0-0.1,0-0.1v0c0,0,0-0.1,0-0.1c0,0,0,0,0,0
		v0c0,0,0,0,0,0c0,0,0,0,0,0c0,0,0,0,0,0l0,0c0,0,0,0,0,0c0,0,0,0,0,0c0,0,0,0,0,0l0,0c0,0,0,0,0,0l0,0c0.1,0,0.1-0.1,0.1-0.1
		S70.3,38.3,70.3,38.3L70.3,38.3L70.3,38.3z"/>
	<path d="M69.3,38.2c0.2-0.3,0.4-0.5,0.7-0.7c0.3-0.2,0.7-0.1,0.9,0.1c0.1,0.1,0.1,0.2,0.2,0.4c0.1,0.5,0,1.1-0.3,1.5
		c0.3,0.6,0.7,1.2,1.3,1.3c0.2,0,0.4,0,0.6,0c0.1,0,0.3,0,0.4-0.1c0.1-0.1,0.1-0.2,0.2-0.3c0.4-1.1,0.7-2.3,0.8-3.5
		c0.1-0.8,0.1-1.5-0.1-2.3c-0.5-1.8-2.4-2.8-4.2-2.3c0,0,0,0,0,0c-0.2-0.6-0.9-0.9-1.6-1c-0.7-0.1-1.3,0.1-2,0.1
		c-0.6,0-1.2-0.2-1.8-0.2c-0.2,0-0.4,0-0.5,0.1c0,0.1-0.1,0.2,0,0.2c0.1,0.6,0.7,1,1.2,1.4l-0.9,0c-0.1,0-0.2,0-0.3,0.1
		c-0.2,0.1,0,0.4,0.1,0.5c0.3,0.3,0.7,0.4,1.1,0.4c-0.4,0.1-0.9-0.1-1.3,0.1c-0.1,0.1-0.2,0.2-0.2,0.3c0,0.1,0,0.1,0.1,0.2
		c0.1,0.2,0.4,0.3,0.6,0.4c1.4,0.4,2.8,0.4,4.3,0.4c-0.2,0.3-0.4,0.8-0.3,1.1c0.1,0.2,0.3,0.3,0.5,0.4c0.4,0.3,0.6,0.8,0.5,1.2"/>
	<path class="st4" d="M79.4,44.5c-4,0.4-8,1.5-11.6,3.2c-2.1,1-4.3,2.5-5,4.7c-0.2,0.7-0.3,1.5-0.3,2.2c0,1.8,0.1,3.6,0.5,5.3
		c0.5,2.4,1.5,4.7,2.6,6.9c0.6,1.3,1.3,2.7,1.3,4.2c0,0.2,0,0.4,0.1,0.7c0.2,0.5,0.7,0.7,1.2,0.8c2.8,0.6,5.8,0.4,8.5-0.6
		c0.8-0.3,1.5-0.6,2.3-0.8c0.6-0.2,1.3-0.3,1.9-0.4c1-0.3,2.1-0.6,3.1-0.9c1-0.3,2-0.8,2.5-1.7c0.2-0.4,0.3-0.8,0.1-1.2
		c-0.1-0.2-0.3-0.4-0.4-0.6c-0.3-0.5-0.2-1.1-0.1-1.6c0.9-5.4,0.3-11-1.8-16.1c-0.4-1-0.8-1.9-1.5-2.7C82,45.2,81,44.6,80,44.5"/>
	<path class="st4" d="M66.3,48.8c-1.8,0.2-4.2,4.2-5.9,6.8L58.9,58c-0.6,0.9-1.1,1.8-1,2.9c0.1,0.6,0.4,1.1,0.7,1.7
		c1.1,1.7,2.6,3.2,4.4,4.2c0.4,0.3,0.9,0.5,1.4,0.5c0.6,0,1.2-0.3,1.7-0.8c0.4-0.5,0.7-1,1-1.6c1.3-2.3,2.9-4.5,4.7-6.4"/>
	<path d="M66.3,48.7c-0.7,0.1-1.4,0.6-1.9,1.1c-0.7,0.8-1.4,1.6-2,2.4c-0.7,0.9-1.3,1.9-1.9,2.9c-0.4,0.6-0.7,1.1-1.1,1.7
		c-0.4,0.6-0.8,1.2-1.1,1.8c-0.3,0.6-0.6,1.2-0.6,1.8c0,0.6,0.2,1.3,0.5,1.8c0.6,1.1,1.4,2.1,2.3,2.9c0.5,0.4,0.9,0.8,1.5,1.2
		c0.5,0.4,1.1,0.7,1.6,1c0.6,0.2,1.2,0.2,1.8-0.1c0.6-0.3,1-0.8,1.3-1.3c0.4-0.6,0.6-1.1,1-1.7c0.3-0.6,0.7-1.1,1.1-1.7
		c0.8-1.1,1.6-2.1,2.5-3.1c0.2-0.2,0.4-0.5,0.7-0.7c0.2-0.2-0.1-0.5-0.3-0.3c-1.8,1.8-3.3,3.8-4.6,6.1c-0.6,1-1.1,2.3-2.4,2.6
		c-0.6,0.1-1.2-0.2-1.7-0.6c-1.5-1-2.8-2.2-3.9-3.7c-0.4-0.5-0.7-1-0.9-1.6c-0.2-0.6-0.1-1.2,0.2-1.8c0.2-0.6,0.6-1.1,1-1.7l1.1-1.8
		c0.6-0.9,1.1-1.8,1.7-2.7c0.6-0.9,1.2-1.8,1.9-2.6c0.5-0.6,1.1-1.2,1.8-1.6c0.1-0.1,0.3-0.1,0.4-0.1C66.5,48.9,66.5,48.7,66.3,48.7
		L66.3,48.7z"/>
	<path d="M49,43.1c0.2,0.3,0.4,0.5,0.7,0.6c0.3,0.2,0.6,0.3,0.9,0.4c0.1,0,0.1,0,0.1-0.1c0-0.1,0-0.1-0.1-0.1
		c-0.1,0-0.3-0.1-0.4-0.1c-0.1-0.1-0.3-0.1-0.4-0.2c-0.2-0.1-0.5-0.3-0.6-0.6C49.1,42.9,49,43,49,43.1L49,43.1z"/>
	<path d="M48.4,44.5c0.4,0.6,1.1,0.9,1.8,1c0.2,0,0.2-0.3,0-0.3c-0.3,0-0.6-0.1-0.9-0.2c-0.3-0.1-0.5-0.3-0.7-0.6
		C48.5,44.2,48.3,44.3,48.4,44.5L48.4,44.5z"/>
	<path d="M48.1,45.8c0.3,0.3,0.6,0.5,1,0.6c0.1,0,0.1,0,0.2-0.1c0-0.1,0-0.1-0.1-0.2c-0.4,0-0.7-0.2-0.9-0.5
		C48.2,45.5,48,45.7,48.1,45.8L48.1,45.8z"/>
	<path class="st4" d="M51.5,50.5c1-1.8,2.9-3,5-3.1c0.2,0,0.5,0,0.6,0.2c0.1,0.1,0.1,0.2,0.2,0.4c0.1,0.3,0.1,0.6,0.2,0.9
		c0,0.2,0,0.4-0.1,0.6c-0.2,0.2-0.5,0.1-0.7,0c-0.7-0.1-1.4,0.2-1.9,0.5c-0.6,0.4-1.2,0.8-1.8,1.2c-0.2,0.2-0.4,0.3-0.5,0.5
		c-0.2,0.4-0.3,0.8-0.3,1.2c-0.2,0-0.3-0.3-0.3-0.5L51.5,50.5"/>
	<path d="M51.6,50.5c0.5-0.8,1.1-1.5,1.9-2c0.8-0.5,1.7-0.8,2.6-0.9c0.2,0,0.5,0,0.7,0c0.3,0.1,0.3,0.3,0.3,0.6
		c0.1,0.3,0.1,0.6,0.1,0.9c0,0.1,0,0.2-0.1,0.3c-0.1,0.1-0.3,0-0.4,0c-0.3-0.1-0.5-0.1-0.8-0.1c-0.3,0-0.5,0.1-0.8,0.2
		c-0.5,0.2-1,0.5-1.5,0.8c-0.5,0.3-1,0.7-1.5,1.1s-0.5,1-0.5,1.6l0.2-0.2c-0.2,0-0.2-0.2-0.2-0.3c0-0.2-0.1-0.4-0.1-0.7
		C51.8,51.4,51.7,51,51.6,50.5c0-0.1-0.1-0.2-0.2-0.1c-0.1,0-0.1,0.1-0.1,0.1c0,0.6,0.1,1.1,0.2,1.7c0,0.3,0.1,0.9,0.5,0.9
		c0.1,0,0.2,0,0.2-0.1c0,0,0,0,0,0c0-0.3,0.1-0.6,0.1-0.8c0.1-0.3,0.3-0.5,0.5-0.7c0.5-0.4,1-0.8,1.5-1.1c0.5-0.3,1-0.7,1.6-0.8
		c0.3,0,0.6,0,0.8,0c0.2,0,0.5,0.1,0.7-0.1c0.1-0.2,0.2-0.4,0.2-0.6c0-0.3-0.1-0.6-0.2-0.9c0-0.2-0.1-0.5-0.3-0.6
		c-0.2-0.1-0.4-0.2-0.7-0.2c-1,0-2,0.3-2.8,0.8c-0.9,0.5-1.8,1.4-2.3,2.4c0,0.1,0,0.1,0.1,0.1C51.5,50.6,51.6,50.6,51.6,50.5
		L51.6,50.5z"/>
	<path class="st5" d="M52.1,52.1c-0.3-0.9-0.4-1.8-0.4-2.8c0-0.2,0-0.4,0.1-0.6c0.1-0.1,0.2-0.3,0.3-0.4c0.4-0.5,1-0.8,1.6-1
		c0.1,0,0.2-0.1,0.3,0c0.2,0,0.4,0.2,0.5,0.4c0.3,0.4,0.3,0.9,0.4,1.3c0.1,0.4,0.1,0.7,0.1,1.1c0,0.2,0,0.5-0.1,0.7
		c-0.1,0.2-0.2,0.3-0.4,0.4c-0.5,0.4-1.2,0.7-1.8,0.9c-0.1,0-0.2,0-0.2,0c-0.1,0-0.1-0.1-0.1-0.2"/>
	<path d="M52.2,52.1c-0.2-0.8-0.3-1.7-0.4-2.5c0-0.2,0-0.4,0-0.6c0-0.2,0.1-0.4,0.3-0.5c0.4-0.4,0.8-0.7,1.3-0.9
		c0.2-0.1,0.4-0.2,0.6-0.1c0.3,0.2,0.4,0.6,0.5,0.9c0.1,0.4,0.1,0.8,0.2,1.2c0,0.3,0.2,0.8,0,1.1c-0.1,0.2-0.3,0.3-0.5,0.4
		c-0.2,0.1-0.4,0.2-0.5,0.3c-0.2,0.1-0.4,0.2-0.6,0.3c-0.1,0-0.6,0.2-0.6,0.2c0-0.2-0.3-0.2-0.3,0c0,0.2,0.1,0.4,0.3,0.4
		c0,0,0,0,0,0c0.2,0,0.5-0.1,0.7-0.2c0.5-0.2,0.9-0.4,1.3-0.6c0.4-0.3,0.7-0.5,0.8-1c0-0.2,0-0.4,0-0.7c0-0.3-0.1-0.5-0.1-0.8
		c-0.1-0.7-0.3-2.2-1.4-1.9c-0.4,0.1-0.9,0.3-1.2,0.6c-0.3,0.3-0.7,0.6-0.9,1c-0.1,0.3-0.1,0.6,0,0.8c0,0.3,0,0.6,0.1,0.8
		c0.1,0.6,0.2,1.2,0.4,1.7c0,0.1,0.1,0.1,0.1,0.1C52.2,52.2,52.2,52.2,52.2,52.1L52.2,52.1z"/>
	<path d="M57.4,63.6c0.2-0.5,0.4-0.9,0.7-1.4c0.3-0.4,0.5-0.9,0.8-1.3c0.1-0.2-0.2-0.3-0.3-0.2c-0.3,0.4-0.6,0.9-0.8,1.3
		c-0.2,0.5-0.4,0.9-0.6,1.4C57.2,63.6,57.4,63.7,57.4,63.6L57.4,63.6z"/>
	<g>
		<path class="st2" d="M6.3,30.2c1.9-0.2,3.7-0.4,5.6-0.3l-0.1-0.2c-1,0.5-2,1-3.1,1.5c-0.1,0-0.1,0.1,0,0.2
			c0.1,0.2,0.2,0.2,0.4,0.2c0.3,0,0.5,0,0.8,0l1.6-0.1c1.1-0.1,2.2-0.1,3.3-0.2c0.2,0,0.2-0.3,0-0.3c-1,0-2,0.1-3,0.1l-1.5,0.1
			l-0.8,0l-0.3,0c-0.1,0-0.3,0-0.3,0l0,0.2c1-0.5,2-1,3-1.5c0.1,0,0.1-0.1,0-0.2c0,0-0.1-0.1-0.1-0.1c-1.9,0-3.8,0.1-5.6,0.4
			C6.2,30,6.2,30.2,6.3,30.2L6.3,30.2z"/>
		<path class="st2" d="M8.3,40.1c0.9-0.8,1.9-1.5,2.9-2.2l-0.2-0.1c0.1,0.5,0.1,1-0.1,1.4c-0.1,0.3-0.3,0.7,0,1c0,0,0.1,0.1,0.2,0
			c1.2-0.8,2.4-1.5,3.6-2.3c0.1-0.1,0-0.3-0.1-0.2c-1.2,0.8-2.4,1.5-3.6,2.3l0.2,0c-0.1-0.1-0.1-0.4,0-0.5c0.1-0.2,0.1-0.4,0.2-0.6
			c0.1-0.4,0.1-0.8-0.1-1.2c0-0.1-0.1-0.1-0.2-0.1c0,0,0,0,0,0c-1,0.7-2,1.5-3,2.3C8.1,40.1,8.2,40.2,8.3,40.1L8.3,40.1z"/>
	</g>
</g>
</svg>
