<?xml version="1.0" encoding="utf-8"?>
<!-- Generator: Adobe Illustrator 26.3.1, SVG Export Plug-In . SVG Version: 6.00 Build 0)  -->
<svg version="1.1" id="Capa_1" xmlns="http://www.w3.org/2000/svg" xmlns:xlink="http://www.w3.org/1999/xlink" x="0px" y="0px"
	 viewBox="0 0 100 100" style="enable-background:new 0 0 100 100;" xml:space="preserve">
<style type="text/css">
	.st0{fill:#CECCC8;}
	.st1{fill:#B90C2F;}
	.st2{fill:#E63164;}
	.st3{fill:#0067B8;}
	.st4{fill:#FFFFFF;}
	.st5{fill:#6C6463;}
</style>
<g>
	<circle class="st0" cx="49.7" cy="48" r="44.2"/>
	<path class="st1" d="M5.4,48C5.3,16.4,37.4-5.6,66.7,6.9C82.9,13.6,94.2,30.4,94.2,48c0.3,17.7-11,34.7-27.4,41.3
		C37.4,101.5,5.3,79.7,5.4,48L5.4,48z M5.5,48C5.4,72,25.8,91.8,49.7,91.7c38.9-0.3,58.6-47,31.1-74.8C53.2-10.3,5.8,9.2,5.5,48
		L5.5,48z"/>
</g>
<circle class="st2" cx="48" cy="32.6" r="6.7"/>
<path class="st3" d="M48,24.8v7.8h7.8C55.8,28.3,52.3,24.8,48,24.8z"/>
<path d="M20.2,63.6c-0.2,2.2-0.3,4.3-0.3,6.5c0,0.5,0,1.1,0,1.6c0,0.3,0,0.5,0,0.8c0,0.2,0,0.5,0,0.7c0,0.4-0.1,0.8-0.3,1.2
	c-0.1,0.2-0.2,0.4-0.3,0.5c-0.1,0.2-0.3,0.3-0.4,0.5c-0.1,0.2-0.1,0.4,0.1,0.5c0.2,0.1,0.3,0.1,0.5,0.1c0.2,0,0.5,0.1,0.7,0.1
	c0.2,0,0.5,0,0.7,0c0.3,0,0.6,0,0.8-0.2c0.1-0.1,0.2-0.2,0.2-0.3c0-0.1,0-0.2,0-0.3c0-0.1,0-0.3,0-0.4c-0.1-0.5-0.1-1.1,0-1.7
	c0.1-0.5,0.2-1,0.4-1.5c0.2-0.5,0.4-1,0.5-1.5c0.1-0.5,0.2-1.1,0.3-1.6c0.2-1.1,0.4-2.1,0.5-3.2c0.1-1,0.2-2.1,0-3.1
	c0-0.2-0.1-0.5-0.2-0.7c0-0.1-0.2-0.1-0.2,0c0.3,1,0.4,2,0.3,3c-0.1,1-0.2,2.1-0.4,3.1c-0.1,0.5-0.2,1.1-0.3,1.6
	c-0.1,0.5-0.2,1-0.4,1.5c-0.2,0.5-0.3,1-0.5,1.5c-0.1,0.5-0.2,1-0.2,1.5c0,0.5,0.1,1.1,0.1,1.6c0,0.1,0,0.2-0.1,0.3
	c-0.1,0.1-0.3,0.1-0.4,0.1c-0.4,0.1-0.7,0.1-1.1,0c-0.2,0-0.5-0.1-0.7-0.1c-0.1,0-0.2,0-0.3,0c-0.1,0-0.2,0-0.2-0.1
	c-0.1-0.1,0-0.2,0.1-0.3c0.1-0.1,0.1-0.2,0.2-0.2c0.1-0.1,0.2-0.3,0.3-0.5c0.2-0.4,0.3-0.8,0.4-1.2c0.1-0.4,0.1-0.9,0.1-1.3
	c0-0.5,0-1.1,0-1.6c0-2.1,0.1-4.2,0.2-6.3c0-0.3,0-0.5,0.1-0.8C20.3,63.5,20.2,63.5,20.2,63.6L20.2,63.6z"/>
<path d="M19.7,74.4c0.2,0,0.4,0,0.6,0.1c0.1,0,0.2,0,0.3,0c0.1,0,0.2,0,0.3,0.1c0.1,0.1,0.1,0.1,0.1,0.2c0.1,0.1,0.1,0.1,0.2,0.1
	c0.2,0.1,0.3,0,0.5,0c0,0,0.1,0,0.1-0.1c0,0,0,0,0-0.1c-0.2-0.1-0.4,0.1-0.5,0c-0.2-0.1-0.2-0.3-0.4-0.3c-0.1,0-0.2,0-0.2,0
	c-0.1,0-0.2,0-0.3,0c-0.2,0-0.4,0-0.6,0C19.6,74.2,19.6,74.4,19.7,74.4L19.7,74.4z"/>
<path d="M33.9,63.6c0.2,2.1,0.3,4.2,0.3,6.3c0,0.5,0,1.1,0,1.6c0,0.5,0,1,0,1.5c0,0.4,0.1,0.8,0.2,1.2c0.1,0.4,0.3,0.7,0.5,1
	c0.1,0.1,0.1,0.1,0.2,0.2c0.1,0.1,0.1,0.2,0,0.3c-0.1,0.1-0.3,0.1-0.5,0.1c-0.2,0-0.5,0.1-0.7,0.1c-0.2,0-0.5,0-0.7,0
	c-0.3,0-0.6,0-0.8-0.2c-0.1-0.1-0.1-0.2-0.1-0.3c0-0.3,0.1-0.5,0.1-0.8c0.1-0.5,0-1,0-1.6c-0.1-0.5-0.2-1-0.4-1.5
	c-0.2-0.5-0.3-1-0.5-1.5c-0.1-0.5-0.2-1-0.3-1.6c-0.2-1-0.4-2.1-0.5-3.1c-0.1-1-0.2-2,0-3c0-0.2,0.1-0.5,0.2-0.7
	c0-0.1-0.1-0.1-0.2,0c-0.3,1-0.4,2-0.3,3.1c0.1,1.1,0.2,2.1,0.4,3.2c0.1,0.5,0.2,1.1,0.3,1.6c0.1,0.5,0.2,1,0.4,1.5
	c0.2,0.5,0.3,1,0.5,1.5c0.1,0.5,0.2,1.1,0.2,1.6c0,0.3,0,0.6-0.1,0.8c0,0.1,0,0.2,0,0.4c0,0.1,0,0.2,0,0.3c0.1,0.3,0.4,0.4,0.7,0.4
	c0.4,0.1,0.8,0.1,1.1,0c0.2,0,0.5-0.1,0.7-0.1c0.2,0,0.4,0,0.5-0.1c0.4-0.3-0.2-0.8-0.3-1c-0.2-0.3-0.4-0.7-0.5-1.1
	c-0.1-0.4-0.1-0.9-0.1-1.3c0-0.5,0-1.1,0-1.6c0-2.2-0.1-4.3-0.3-6.5c0-0.3-0.1-0.5-0.1-0.8C34,63.5,33.9,63.5,33.9,63.6L33.9,63.6z"
	/>
<path d="M34.6,74.2c-0.2,0-0.4,0-0.6,0c-0.1,0-0.2,0-0.3,0c-0.1,0-0.2,0-0.3,0c-0.1,0.1-0.2,0.2-0.3,0.3c-0.2,0.1-0.4,0-0.5,0
	c-0.1,0-0.1,0.1,0,0.1c0.2,0,0.3,0.1,0.5,0c0.1,0,0.1-0.1,0.2-0.1c0.1-0.1,0.1-0.1,0.2-0.2c0.1-0.1,0.2-0.1,0.2-0.1l0.3,0
	c0.2,0,0.4,0,0.6-0.1C34.6,74.4,34.6,74.2,34.6,74.2L34.6,74.2z"/>
<path class="st3" d="M22,41.9l0.1,0.7c-0.3,0.1-0.3,0.4-0.4,0.7c-1.4,7.1-1.9,14.4-2.4,21.6c0,0.5-0.1,1.1,0.1,1.6
	c0.3,0.9,1.4,1.4,2.3,1.7c2.8,0.8,5.7,0.7,8.6,0.5c1.2-0.1,2.3-0.2,3.4-0.6c0.3-0.1,0.6-0.3,0.8-0.6c0.4-0.5,0.3-1.1,0.2-1.8
	c-0.3-3-0.6-6-1.2-9c-1.1-5.3-3.1-10.3-4.1-15.6"/>
<path class="st1" d="M31.1,36.3c-0.2-0.5-0.7-0.8-1.2-1.1c-0.8-0.5-1.7-0.9-2.6-1.3c0.1,0.1,0.1,0.2,0.2,0.3c0,0.1,0.1,0.1,0.1,0.2
	c0,0.1,0,0.1-0.1,0.2c-0.1,0.3-0.3,0.5-0.6,0.6c0.1,0.1,0.2,0.2,0.2,0.3c0,0.2-0.1,0.4-0.2,0.6c-0.3,0.6-0.7,1.3-1.1,1.8
	c0,0.1-0.1,0.1-0.2,0.2c-0.1,0-0.2-0.1-0.3-0.1c-0.5-0.4-0.9-0.9-1.3-1.4c-0.1-0.1-0.1-0.3-0.2-0.4c0-0.2,0-0.5,0.1-0.7
	c0-0.1,0-0.2,0-0.2c0,0-0.1-0.1-0.1-0.1c-0.2-0.1-0.3-0.2-0.5-0.3c-0.1-0.2-0.2-0.4-0.1-0.6c0.1-0.2,0.2-0.3,0.4-0.4h-0.1
	c-1,0.4-2,0.9-2.9,1.5c-0.1,0.1-0.2,0.1-0.3,0.2c-0.1,0.1-0.1,0.3-0.1,0.5c-0.2,1.9,0.3,3.8,0.8,5.6c0.1,0.2,0.1,0.5,0.3,0.6
	c0.2,0.1,0.4,0.2,0.6,0.2c2.2,0.3,4.4,0.2,6.6,0c0.5-0.1,1-0.1,1.3-0.4s-0.5-0.9-0.3-1.4c0.4-1.1,0.4-2.5,0.5-3.7
	C30.1,36.6,31.2,36.6,31.1,36.3L31.1,36.3z"/>
<path class="st4" d="M25.1,41.5C25.1,41.5,25.1,41.5,25.1,41.5c0-0.1-0.1-0.1-0.1-0.1l-1.7-0.5c-0.1,0-0.1,0-0.2,0
	c-0.1,0-0.1,0.1-0.1,0.1c-0.2,0.3-0.3,0.6-0.4,0.9l-0.5,1.6l1.4,2c0.4,0.1,0.8,0.2,1.2,0.3c0.4,0.1,0.8,0.1,1.2-0.1
	c0.2-0.1,0.4-0.3,0.7-0.4c0.2-0.1,0.5-0.2,0.8-0.3c0.2-0.1,0.3,0,0.5-0.1c0.1,0,0.2-0.1,0.2,0c0.1-0.3,0.2-0.5,0.3-0.8
	c0.1-0.3,0.2-0.6,0.3-1c0.1-0.2-0.1-0.4-0.3-0.5c0,0,0,0,0,0c-1-0.3-2.4-0.7-3-0.9c-0.1,0-0.2-0.1-0.2-0.3L25.1,41.5z"/>
<g>
	<path class="st5" d="M24.3,31.8c-0.6-0.5-0.7-1-0.8-1.8l-0.3,0c0.1,0.5-0.2,0.9-0.5,1.3c-0.1,0.2-0.3,0.3-0.3,0.5s0,0.4,0.2,0.5
		c0.1,0,0.2,0,0.2,0.1c0,0,0,0.1,0,0.1c-0.1,0.1-0.1,0.3-0.1,0.5c0.1,0.2,0.2,0.3,0.4,0.3c-0.1,0.4,0,0.8,0.4,0.9c0,0,0.1,0,0.2,0
		c0.1,0,0.2,0,0.2,0c0,0,0.1-0.1,0.1-0.1c0.2-0.3,0.3-0.7,0.4-1.1c0-0.3,0.1-0.6,0.1-0.9C24.4,31.9,24.4,31.9,24.3,31.8z"/>
	<path class="st5" d="M28.4,31.6c0-0.1,0-0.2,0-0.4c-0.1-0.4-0.3-0.7-0.6-1c-0.1-0.2-0.1-0.1-0.2-0.3l-0.3,0.1c0,0.1,0,0.1,0,0.2
		c0,0.6-0.1,1-0.5,1.4c0,0,0,0.1-0.1,0.1c0,0.5,0,0.9,0,1.4c0,0.2,0,0.4,0.1,0.7c0.1,0.2,0.2,0.4,0.4,0.5c0.4,0.1,0.7-0.2,0.9-0.5
		c0.1-0.4,0-0.7-0.1-1.1c0.2,0,0.4-0.2,0.4-0.4s-0.1-0.4-0.3-0.6C28.2,31.8,28.3,31.7,28.4,31.6L28.4,31.6z"/>
	<path class="st5" d="M23.3,29.1c0.9-0.5,1.7-1.2,2.5-2c-0.1,0.2-0.1,0.4-0.2,0.5c0,0.1,0,0.2,0,0.3c0.1,0.1,0.2,0,0.3-0.1
		c0.2-0.1,0.3-0.3,0.4-0.4c0.2,0.4,0.4,0.9,0.7,1.3c0.1,0.1,0.3,0.3,0.3,0.5c0.1,0,0.2-0.2,0.2-0.4c0-0.5,0-0.9-0.2-1.4
		s-0.6-0.8-1-0.8c-0.1,0-0.1,0-0.2,0c-0.1,0-0.2-0.1-0.3-0.2c-0.4-0.2-0.8-0.1-1.2,0.1c-0.4,0.2-0.7,0.5-1,0.8
		c-0.2,0.2-0.3,0.4-0.4,0.6C23,28.2,23,28.7,23.3,29.1"/>
</g>
<path d="M23.5,28.9c0,0.3,0,0.5,0,0.8c0,0.3,0,0.6,0.1,0.8c0.1,0.6,0.3,1.1,0.8,1.4c0.3,0.2,0.5,0.4,0.9,0.5c0.3,0.1,0.6,0,0.9-0.1
	c0.5-0.3,0.9-0.8,1.1-1.3c0.1-0.3,0.1-0.7,0.1-1c0-0.4,0-0.8,0-1.1c0,0,0-0.1-0.1-0.1s-0.1,0-0.1,0.1c0,0.6,0,1.2-0.1,1.8
	c-0.1,0.5-0.4,1-0.9,1.4c-0.2,0.2-0.5,0.3-0.8,0.3c-0.3,0-0.6-0.2-0.9-0.4c-0.2-0.2-0.4-0.4-0.5-0.6c-0.1-0.2-0.2-0.5-0.3-0.7
	c-0.1-0.3-0.1-0.6-0.1-0.9C23.6,29.4,23.6,29.2,23.5,28.9C23.6,28.8,23.5,28.8,23.5,28.9C23.5,28.8,23.5,28.8,23.5,28.9L23.5,28.9z"
	/>
<path d="M23.5,29.3c0-0.1-0.1-0.2-0.2-0.3c-0.1,0-0.3,0-0.3,0.1c-0.1,0.1-0.1,0.2-0.1,0.4c0,0.1,0,0.3,0.1,0.4
	c0.1,0.1,0.1,0.1,0.2,0.1c0,0,0.1,0,0.1,0c0,0,0.1,0,0.1,0c0,0,0.1,0,0.1-0.1c0,0,0-0.1,0-0.1c0,0-0.1,0-0.1,0c0,0-0.1,0-0.1,0
	c-0.1,0-0.1-0.1-0.2-0.1c-0.1-0.1-0.1-0.2-0.1-0.3c0-0.1,0.1-0.2,0.2-0.3c0.1,0,0.2,0,0.2,0.1C23.4,29.3,23.4,29.3,23.5,29.3
	C23.4,29.4,23.5,29.4,23.5,29.3L23.5,29.3z"/>
<path d="M23.3,29.5L23.3,29.5L23.3,29.5L23.3,29.5C23.3,29.5,23.3,29.5,23.3,29.5L23.3,29.5C23.4,29.5,23.3,29.5,23.3,29.5
	L23.3,29.5L23.3,29.5C23.4,29.5,23.4,29.5,23.3,29.5C23.4,29.5,23.4,29.5,23.3,29.5L23.3,29.5L23.3,29.5L23.3,29.5
	c0.1,0.1,0.1,0.1,0.1,0.1L23.3,29.5l0.1,0.1L23.3,29.5L23.3,29.5C23.4,29.6,23.4,29.6,23.3,29.5l0.1,0.1c0,0,0,0,0,0c0,0,0,0,0,0.1
	c0,0,0,0,0.1,0c0,0,0,0,0,0c0,0,0,0,0,0c0,0,0,0,0,0c0,0,0,0,0,0c0,0,0,0,0,0h0h0l0,0l0,0l0,0l0,0l0,0v0l0,0c0,0,0,0,0,0v0
	c0,0,0,0,0,0v0c0,0,0,0,0,0l0,0v0l0,0c0,0,0,0,0,0c0,0,0,0,0,0c0,0,0,0,0,0c0,0,0,0,0,0c0,0,0,0,0,0C23.4,29.4,23.4,29.4,23.3,29.5
	C23.3,29.4,23.3,29.4,23.3,29.5C23.3,29.5,23.3,29.5,23.3,29.5L23.3,29.5z"/>
<path d="M27.3,29.3c0-0.1,0.1-0.2,0.2-0.1c0,0,0,0,0,0c0.1,0,0.2,0.1,0.2,0.3c0,0.1,0,0.2-0.1,0.3c0,0-0.1,0.1-0.2,0.1
	c0,0-0.1,0-0.1,0c0,0-0.1,0-0.1,0c0,0-0.1,0.1,0,0.1c0,0,0,0,0.1,0c0.1,0,0.1,0,0.2-0.1c0.1,0,0.1-0.1,0.2-0.1
	c0.1-0.1,0.2-0.2,0.2-0.4c0-0.1,0-0.3-0.1-0.4c-0.1-0.1-0.2-0.1-0.3-0.1c-0.1,0-0.2,0.2-0.2,0.3C27.2,29.4,27.3,29.4,27.3,29.3
	L27.3,29.3z"/>
<path d="M27.4,29.4c-0.1,0-0.1,0-0.2,0.1c0,0,0,0,0,0c0,0,0,0,0,0c0,0,0,0,0,0.1c0,0,0,0,0,0c0,0,0,0,0,0l0,0v0l0,0c0,0,0,0,0,0v0
	c0,0,0,0,0,0v0c0,0,0,0,0,0l0,0l0,0l0,0l0,0l0,0l0,0l0,0h0h0c0,0,0,0,0,0c0,0,0,0,0,0c0,0,0,0,0,0c0,0,0,0,0,0c0,0,0,0,0,0
	c0,0,0,0,0,0c0,0,0,0,0,0c0,0,0,0,0-0.1c0,0,0,0,0,0l0,0c0,0,0,0,0,0l0,0v0v0v0c0,0,0,0,0-0.1l0,0l0,0l0,0c0,0,0,0,0,0c0,0,0,0,0,0
	c0,0,0,0,0,0l0,0l0,0c0,0,0,0,0,0l0,0c0,0,0,0,0,0c0,0,0,0,0,0h0h0h0C27.5,29.5,27.5,29.5,27.4,29.4C27.5,29.5,27.5,29.5,27.4,29.4
	C27.5,29.4,27.5,29.4,27.4,29.4L27.4,29.4z"/>
<path d="M24.5,29.5C24.5,29.5,24.5,29.5,24.5,29.5C24.5,29.5,24.5,29.5,24.5,29.5L24.5,29.5C24.5,29.5,24.5,29.5,24.5,29.5
	C24.5,29.5,24.5,29.6,24.5,29.5c-0.1,0.1-0.1,0.1-0.1,0.1c0,0,0,0,0,0c0,0,0,0,0,0c0,0,0,0,0,0c0,0,0,0,0,0c0,0,0,0,0,0c0,0,0,0,0,0
	c0,0,0,0,0,0h0c0,0,0,0,0,0c0,0,0,0,0,0c0,0,0,0,0,0c0,0,0,0,0,0c0,0,0,0,0,0C24.7,29.6,24.6,29.5,24.5,29.5
	C24.6,29.5,24.6,29.5,24.5,29.5C24.6,29.5,24.6,29.5,24.5,29.5C24.6,29.5,24.6,29.5,24.5,29.5C24.5,29.5,24.5,29.5,24.5,29.5
	L24.5,29.5C24.5,29.5,24.5,29.5,24.5,29.5C24.5,29.5,24.5,29.6,24.5,29.5c-0.1,0.1-0.1,0.1-0.1,0.1l0,0l0,0c0,0,0,0,0,0c0,0,0,0,0,0
	h0h0l0,0l0,0l0,0l0,0l0,0c0,0,0,0,0,0l0,0v0v0v0L24.5,29.5L24.5,29.5L24.5,29.5L24.5,29.5L24.5,29.5L24.5,29.5L24.5,29.5L24.5,29.5
	L24.5,29.5L24.5,29.5L24.5,29.5C24.6,29.5,24.6,29.5,24.5,29.5L24.5,29.5C24.6,29.5,24.6,29.5,24.5,29.5L24.5,29.5L24.5,29.5
	L24.5,29.5L24.5,29.5L24.5,29.5L24.5,29.5L24.5,29.5L24.5,29.5l0,0.1C24.6,29.6,24.6,29.6,24.5,29.5l0,0.1
	C24.6,29.6,24.6,29.6,24.5,29.5l0,0.1L24.5,29.5C24.6,29.6,24.6,29.6,24.5,29.5L24.5,29.5L24.5,29.5L24.5,29.5
	C24.6,29.6,24.6,29.5,24.5,29.5C24.6,29.5,24.6,29.5,24.5,29.5C24.6,29.5,24.6,29.5,24.5,29.5L24.5,29.5z"/>
<path d="M24.3,29.3C24.4,29.3,24.4,29.3,24.3,29.3L24.3,29.3l0.1,0h0h0h0h0h0.1l0.1,0c0,0,0.1,0,0.1,0c0,0,0.1-0.1,0.1-0.1
	c0,0,0,0,0,0c0,0,0-0.1-0.1-0.1c0,0,0,0,0,0c0,0,0,0,0,0c0,0,0,0,0,0h-0.1c0,0-0.1,0-0.1,0c0,0-0.1,0-0.1,0
	C24.4,29.1,24.3,29.2,24.3,29.3C24.3,29.2,24.3,29.2,24.3,29.3C24.3,29.3,24.3,29.3,24.3,29.3L24.3,29.3z"/>
<path d="M26.1,29.6L26.1,29.6L26.1,29.6L26.1,29.6C26.1,29.6,26.2,29.6,26.1,29.6C26.2,29.6,26.2,29.6,26.1,29.6L26.1,29.6
	C26.2,29.6,26.2,29.6,26.1,29.6L26.1,29.6C26.2,29.6,26.2,29.6,26.1,29.6L26.1,29.6L26.1,29.6L26.1,29.6L26.1,29.6L26.1,29.6
	L26.1,29.6L26.1,29.6L26.1,29.6L26.1,29.6L26.1,29.6C26.2,29.5,26.2,29.5,26.1,29.6L26.1,29.6L26.1,29.6L26.1,29.6L26.1,29.6
	L26.1,29.6L26.1,29.6L26.1,29.6l0.1,0l0,0l0,0v0v0v0v0l0,0c0,0,0,0,0,0L26.1,29.6L26.1,29.6L26.1,29.6L26.1,29.6L26.1,29.6
	L26.1,29.6L26.1,29.6L26.1,29.6C26.2,29.7,26.2,29.6,26.1,29.6c0.1,0.1,0.1,0.1,0.1,0c0,0,0,0,0,0l0,0l0,0c0,0,0,0,0,0
	C26.3,29.5,26.2,29.5,26.1,29.6C26.2,29.5,26.2,29.5,26.1,29.6C26.2,29.5,26.2,29.5,26.1,29.6C26.2,29.5,26.1,29.5,26.1,29.6
	C26.1,29.5,26.1,29.5,26.1,29.6C26.1,29.5,26.1,29.6,26.1,29.6C26.1,29.6,26.1,29.6,26.1,29.6C26.1,29.6,26.1,29.6,26.1,29.6
	c0,0.1,0,0.1,0,0.1c0,0,0,0,0,0c0,0,0,0,0,0c0,0,0,0,0,0c0,0,0,0,0,0c0,0,0,0,0,0c0,0,0,0,0,0c0,0,0,0,0-0.1c0,0,0,0,0,0
	c0,0,0,0,0,0C26.3,29.5,26.2,29.5,26.1,29.6C26.2,29.5,26.2,29.5,26.1,29.6C26.2,29.5,26.2,29.5,26.1,29.6
	C26.1,29.5,26.1,29.6,26.1,29.6L26.1,29.6z"/>
<path d="M26.5,29.2c0,0-0.1-0.1-0.1-0.1c0,0-0.1,0-0.1,0c0,0-0.1,0-0.1,0H26h0h0c0,0,0,0,0,0c0,0,0,0,0,0c0,0-0.1,0-0.1,0.1
	c0,0,0,0.1,0.1,0.1c0,0,0.1,0,0.1,0l0.1,0c0,0,0.1,0,0.1,0h0h0l0,0C26.4,29.3,26.4,29.3,26.5,29.2C26.5,29.3,26.5,29.2,26.5,29.2
	L26.5,29.2z"/>
<g>
	<path class="st2" d="M78.7,39.2c-1.7,0-3.5,0-5.2,0c-1.7,0-3.5,0-5.2,0c-1,0-2,0-2.9,0c0,0-0.1,0-0.1,0.1c0,0,0,0.1,0.1,0.1
		c0.9,0,1.7,0,2.6,0s1.7,0,2.6,0c1.7,0,3.5,0,5.2,0c1,0,2,0,2.9,0C78.7,39.3,78.7,39.3,78.7,39.2C78.7,39.2,78.7,39.2,78.7,39.2
		L78.7,39.2z"/>
	<path class="st2" d="M78.7,40.5c-1.7,0-3.5,0-5.2,0c-1.7,0-3.5,0-5.2,0c-1,0-2,0-2.9,0c0,0-0.1,0-0.1,0.1s0,0.1,0.1,0.1
		c0.9,0,1.7,0,2.6,0s1.7,0,2.6,0c1.7,0,3.5,0,5.2,0c1,0,2,0,2.9,0C78.7,40.6,78.7,40.6,78.7,40.5C78.7,40.6,78.7,40.5,78.7,40.5
		L78.7,40.5z"/>
	<path class="st2" d="M78.7,41.9c-1.7,0-3.5,0-5.2,0c-1.7,0-3.5,0-5.2,0c-1,0-2,0-2.9,0c0,0-0.1,0-0.1,0.1c0,0,0,0.1,0.1,0.1
		c0.9,0,1.7,0,2.6,0s1.7,0,2.6,0c1.7,0,3.5,0,5.2,0c1,0,2,0,2.9,0C78.7,42,78.7,41.9,78.7,41.9C78.7,41.9,78.7,41.9,78.7,41.9
		L78.7,41.9z"/>
	<path class="st2" d="M78.7,43.2c-1.7,0-3.5,0-5.2,0c-1.7,0-3.5,0-5.2,0c-1,0-2,0-2.9,0c0,0-0.1,0-0.1,0.1c0,0,0,0.1,0.1,0.1
		c0.9,0,1.7,0,2.6,0s1.7,0,2.6,0c1.7,0,3.5,0,5.2,0c1,0,2,0,2.9,0C78.7,43.3,78.7,43.3,78.7,43.2C78.7,43.2,78.7,43.2,78.7,43.2
		L78.7,43.2z"/>
	<path class="st2" d="M78.7,45.3c-1.7,0-3.5,0-5.2,0c-1.7,0-3.5,0-5.2,0c-1,0-2,0-2.9,0c0,0-0.1,0-0.1,0.1c0,0,0,0.1,0.1,0.1
		c0.9,0,1.7,0,2.6,0s1.7,0,2.6,0c1.7,0,3.5,0,5.2,0c1,0,2,0,2.9,0C78.7,45.4,78.7,45.4,78.7,45.3C78.7,45.4,78.7,45.4,78.7,45.3
		L78.7,45.3z"/>
	<path class="st2" d="M78.7,46.7c-1.7,0-3.5,0-5.2,0c-1.7,0-3.5,0-5.2,0c-1,0-2,0-2.9,0c0,0-0.1,0-0.1,0.1s0,0.1,0.1,0.1
		c0.9,0,1.7,0,2.6,0s1.7,0,2.6,0c1.7,0,3.5,0,5.2,0c1,0,2,0,2.9,0C78.7,46.8,78.7,46.8,78.7,46.7C78.7,46.7,78.7,46.7,78.7,46.7
		L78.7,46.7z"/>
	<path class="st2" d="M78.7,48c-1.7,0-3.5,0-5.2,0c-1.7,0-3.5,0-5.2,0c-1,0-2,0-2.9,0c0,0-0.1,0-0.1,0.1c0,0,0,0.1,0.1,0.1
		c0.9,0,1.7,0,2.6,0s1.7,0,2.6,0c1.7,0,3.5,0,5.2,0c1,0,2,0,2.9,0C78.7,48.1,78.7,48.1,78.7,48C78.7,48,78.7,48,78.7,48L78.7,48z"/>
	<path class="st2" d="M78.7,49.4c-1.7,0-3.5,0-5.2,0c-1.7,0-3.5,0-5.2,0c-1,0-2,0-2.9,0c0,0-0.1,0-0.1,0.1c0,0,0,0.1,0.1,0.1
		c0.9,0,1.7,0,2.6,0s1.7,0,2.6,0c1.7,0,3.5,0,5.2,0c1,0,2,0,2.9,0C78.7,49.5,78.7,49.4,78.7,49.4C78.7,49.4,78.7,49.4,78.7,49.4
		L78.7,49.4z"/>
</g>
<path class="st3" d="M82.4,22.4c-0.1,0-0.2,0-0.3,0H36.7c-0.1,0-0.2,0-0.3,0c-0.4,0.1-0.5,0.4-0.5,0.8V53c0,0.5-0.1,1.3,0.6,1.3
	c0.4,0,0.7,0,1.1,0h21.5v20.4h-3.5v1.5h7.7v-1.5h-3.5V54.3h22.7c0,0,0,0,0,0c0.4,0,0.6-0.4,0.6-0.8V24.9c0-0.6,0-1.2,0-1.9
	C83,22.7,82.8,22.4,82.4,22.4z M82.4,54H37.7c-0.4,0-0.8,0-1.2,0c-0.2,0-0.3-0.2-0.3-0.4c0-0.2,0-0.4,0-0.6V23.2
	c0-0.2,0-0.5,0.3-0.6c0.1,0,0.2,0,0.2,0H82c0.1,0,0.3,0,0.4,0c0.2,0,0.3,0.2,0.3,0.4c0,0.6,0,1.2,0,1.9v28.5
	C82.7,53.7,82.7,54,82.4,54z"/>
<path d="M25.2,30.4c0,0,0.1,0.1,0.2,0.1c0,0,0.1,0,0.1,0c0,0,0,0,0,0c0,0,0,0,0.1,0c0,0,0,0,0-0.1c0,0,0,0-0.1,0c0,0,0,0-0.1,0
	c0,0,0,0,0,0c0,0,0,0,0,0h0c0,0,0,0,0,0c0,0,0,0,0,0h0h0h0c0,0,0,0,0,0c0,0,0,0,0,0h0l0,0L25.2,30.4L25.2,30.4
	C25.3,30.4,25.3,30.3,25.2,30.4C25.3,30.3,25.2,30.3,25.2,30.4C25.2,30.4,25.2,30.4,25.2,30.4L25.2,30.4z"/>
<path d="M25.7,31c-0.1,0-0.3,0-0.4-0.1c-0.1,0-0.1,0-0.2,0c-0.1,0-0.1,0.1-0.1,0.2c0,0.1,0.1,0.2,0.2,0.3c0.1,0.1,0.2,0.1,0.4,0.1
	C25.7,31.3,25.7,31.2,25.7,31C25.7,31,25.6,31,25.7,31c-0.1,0-0.1,0-0.1,0.1c0,0,0,0.1,0,0.1c0,0,0,0.1-0.1,0.1c-0.1,0-0.2,0-0.2,0
	c-0.1,0-0.1-0.1-0.1-0.2c0,0,0,0,0,0c0,0,0,0,0,0s0,0,0,0h0c0.1,0,0.1,0,0.2,0c0.1,0,0.3,0,0.4,0C25.7,31.1,25.7,31,25.7,31
	C25.7,31,25.7,30.9,25.7,31L25.7,31z"/>
<path d="M24.4,33.7c0.1-0.3,0.1-0.7,0.1-1c0-0.2,0-0.3,0-0.5c0-0.1,0-0.2-0.1-0.3c-0.1-0.1-0.2,0.1-0.1,0.1c0,0,0,0.1,0,0.2
	c0,0.1,0,0.1,0,0.2c0,0.1,0,0.3,0,0.4C24.3,33.1,24.3,33.4,24.4,33.7C24.3,33.7,24.4,33.7,24.4,33.7L24.4,33.7z"/>
<path d="M26.5,33.7c0-0.3,0-0.6,0.1-1c0-0.2,0-0.3,0-0.5c0-0.1,0-0.3,0.1-0.4c0-0.1-0.1-0.1-0.1-0.1c-0.1,0.1-0.1,0.3-0.1,0.4
	c0,0.2,0,0.3,0,0.5c0,0.3,0,0.7,0,1C26.4,33.8,26.4,33.8,26.5,33.7C26.5,33.8,26.5,33.8,26.5,33.7L26.5,33.7z"/>
<path d="M24.2,33.6c0,0.2,0.3,0.4,0.5,0.5c0.2,0.2,0.4,0.3,0.7,0.4c0.1,0,0.2,0.1,0.4,0c0.1-0.1,0.2-0.1,0.3-0.2
	c0.2-0.2,0.4-0.4,0.6-0.6c0.1-0.1,0-0.2-0.1-0.1c-0.2,0.2-0.3,0.4-0.5,0.5c-0.1,0.1-0.2,0.2-0.3,0.2c-0.1,0.1-0.2,0.1-0.3,0
	c-0.2-0.1-0.4-0.2-0.6-0.4C24.6,33.9,24.3,33.8,24.2,33.6C24.3,33.5,24.2,33.5,24.2,33.6C24.2,33.5,24.2,33.6,24.2,33.6L24.2,33.6z"
	/>
<path d="M21.1,35.1C21.2,35.1,21.2,35.1,21.1,35.1C21.2,35,21.2,35,21.1,35.1C21.1,35,21.1,35,21.1,35.1
	C21.1,35.1,21.1,35.1,21.1,35.1z"/>
<path class="st1" d="M20.9,35.2c-0.5,0.2-0.9,0.7-1.2,1.2c-0.3,0.5-0.4,1.1-0.5,1.6L18.5,41c-0.2,0.6-0.3,1.2-0.4,1.8
	C18,43.5,18,44.4,18.4,45c0.5,0.7,1.4,1.1,2.2,1.3c1.9,0.5,3.8,0.7,5.8,0.5c0.1,0,0.2,0,0.2-0.1c0.1-0.1,0.1-0.1,0.1-0.2
	c0.1-0.3,0.1-0.6,0.1-0.9c0-0.1,0-0.2-0.1-0.3c-0.1-0.1-0.2-0.2-0.3-0.2c-0.5-0.2-1-0.4-1.5-0.5c-1.5-0.5-3-1.1-4.4-1.8
	c-0.1,0,0,0.2,0.1,0.2c0.4-1.3,0.8-2.5,1.1-3.8"/>
<path d="M28.3,45c-0.3-0.1-0.6-0.1-0.9,0c-0.3,0.1-0.6,0.2-0.9,0.4c-0.1,0.1,0,0.2,0.1,0.2c0.1-0.1,0.2-0.2,0.4-0.2
	c0.1-0.1,0.3-0.1,0.4-0.2C27.6,45.1,27.9,45,28.3,45C28.3,45.1,28.3,45.1,28.3,45L28.3,45z"/>
<path d="M29.1,45.5c-0.3,0-0.5,0-0.8,0c-0.1,0-0.3,0-0.4,0c-0.1,0-0.3,0-0.4,0c0,0-0.1,0-0.1,0.1c0,0,0,0.1,0.1,0.1
	c0.1,0,0.3,0,0.4,0c0.1,0,0.3,0,0.4,0c0.3,0,0.5,0,0.8,0C29.1,45.6,29.1,45.6,29.1,45.5C29.1,45.5,29.1,45.5,29.1,45.5L29.1,45.5z"
	/>
<path d="M28.7,47c-0.4,0.1-0.8,0-1.2,0c-0.2,0-0.4-0.1-0.6-0.1c-0.2-0.1-0.4-0.1-0.6-0.2c-0.1,0-0.2,0.1-0.1,0.2
	c0.2,0.1,0.4,0.1,0.6,0.2c0.2,0.1,0.4,0.1,0.6,0.1C27.9,47.2,28.3,47.2,28.7,47C28.8,47.1,28.7,47,28.7,47L28.7,47z"/>
<path d="M29.1,45.9c-0.1,0-0.2,0-0.3,0c0,0-0.1,0-0.1,0c0,0-0.1,0-0.1,0c0,0,0,0.1,0,0.1c0,0,0,0,0,0c0,0,0.1,0,0.2,0
	C28.8,46.1,29,46.1,29.1,45.9C29.1,46,29.1,46,29.1,45.9C29.1,46,29.1,45.9,29.1,45.9L29.1,45.9z"/>
<path d="M29.1,46.5c-0.1,0-0.2,0-0.3,0c-0.1,0-0.1,0-0.2,0c-0.1,0-0.1,0-0.2,0c0,0-0.1,0-0.1,0.1c0,0,0,0.1,0.1,0.1
	c0.1,0,0.1,0,0.2,0c0.1,0,0.1,0,0.2,0C28.8,46.6,28.9,46.6,29.1,46.5C29.1,46.6,29.1,46.6,29.1,46.5C29.1,46.5,29.1,46.5,29.1,46.5
	L29.1,46.5L29.1,46.5z"/>
<path class="st1" d="M29.5,35.1l3.3,1.7c0.4,0.2,0.8,0.4,1.2,0.5c0.6,0.1,1.1-0.1,1.7-0.2c1.1-0.4,2.2-0.9,3.3-1.4
	c0.3-0.1,0.6-0.3,0.9-0.2c0.4,0.1,0.6,0.4,0.8,0.7c0.1,0.2,0.2,0.4,0.2,0.6c0,0.4-0.3,0.7-0.6,0.9c-1,0.8-1.9,1.5-3.1,2.1
	c-1.4,0.7-3,0.6-4.4,0.3c-1.4-0.3-3-0.7-4.2-1.5"/>
<path d="M39.8,35.6c0.1-0.3,0.1-0.6,0.2-0.8c0.1-0.3,0.3-0.5,0.6-0.6c0.2,0,0.3-0.1,0.5-0.1c0.1,0,0.2,0,0.2,0c0.1,0,0.2,0,0.2,0.1
	c0,0.1-0.2,0.3-0.3,0.3c-0.1,0.1-0.3,0.2-0.4,0.2c0,0-0.1,0.1-0.1,0.1c0,0,0,0,0,0c0.1,0.1,0.1,0.3,0.1,0.5c0,0.1,0.1,0.1,0.1,0.1
	c0.1-0.2,0-0.5-0.1-0.6l0,0.1c0.3-0.1,0.6-0.2,0.7-0.4c0.1-0.1,0.1-0.2,0.1-0.3c-0.1-0.1-0.2-0.2-0.3-0.1c-0.6,0-1.2,0.2-1.5,0.8
	c-0.1,0.3-0.1,0.6-0.2,0.9C39.7,35.6,39.7,35.6,39.8,35.6C39.8,35.7,39.8,35.6,39.8,35.6L39.8,35.6L39.8,35.6z"/>
<path d="M42.2,33.4c-0.2,0-0.5,0.1-0.7,0.2c-0.2,0.1-0.4,0.2-0.6,0.4c-0.1,0,0,0.1,0.1,0.1c0.1-0.1,0.2-0.1,0.3-0.2
	c0.1-0.1,0.2-0.1,0.3-0.2C41.8,33.6,42,33.5,42.2,33.4C42.3,33.5,42.3,33.4,42.2,33.4L42.2,33.4z"/>
<path d="M41.9,34.3c0.1,0,0.1,0.1,0.1,0.2c0,0,0,0.1,0,0.1c0,0.1,0,0.1-0.1,0.2c0,0,0,0.1,0,0.1c0,0,0.1,0,0.1,0c0,0,0,0,0,0
	c0.1-0.1,0.1-0.3,0.1-0.4C42.1,34.3,42,34.2,41.9,34.3C41.9,34.2,41.8,34.3,41.9,34.3L41.9,34.3z"/>
<path d="M42.4,34.7c0,0.1,0,0.2-0.1,0.4c-0.1,0.1-0.1,0.2-0.2,0.3c-0.1,0,0,0.1,0.1,0.1c0.1-0.1,0.2-0.2,0.3-0.3
	C42.5,35,42.5,34.9,42.4,34.7C42.5,34.7,42.4,34.7,42.4,34.7L42.4,34.7z"/>
<path d="M42.4,35.5c0,0.2-0.1,0.3-0.2,0.4c0,0.1-0.1,0.1-0.1,0.2c0,0-0.1,0.1-0.1,0.1c0,0-0.1,0-0.1,0c0-0.1-0.1-0.1-0.1-0.1
	c-0.1,0.2-0.3,0.3-0.5,0.4c-0.2,0.1-0.4,0.2-0.7,0.1c-0.1,0-0.1,0.1,0,0.2c0.5,0.1,1-0.2,1.3-0.6L41.8,36c0,0.1,0,0.2,0.2,0.2
	c0,0,0,0,0,0c0.1,0,0.2-0.1,0.3-0.2c0.1-0.1,0.2-0.2,0.2-0.4C42.6,35.6,42.6,35.5,42.4,35.5C42.5,35.4,42.4,35.4,42.4,35.5
	L42.4,35.5z"/>
<path class="st2" d="M60.9,36.4c1.1-1.5,2.4-2.9,3.8-4.1c0.6-0.5,1.4-1,2.2-0.7c0.3,0.1,0.5,0.3,0.8,0.2c0.1,0,0.3-0.1,0.4-0.2
	c1.4-1,2.6-2.2,3.7-3.6c-0.2-0.3-0.4-0.5-0.6-0.7c1.3-0.5,2.6-1,4-1.3c-0.3,1.3-0.6,2.6-1.1,3.9c-0.3-0.1-0.6-0.3-0.8-0.6
	c-0.8,1.4-1.6,2.7-2.7,3.8c-0.4,0.4-1.2,1.1-1.7,1.3c-0.5,0.2-1.4-0.4-1.9-0.1c-1.4,0.8-2.4,2.2-3.6,3.6c-0.1,0.2-0.3,0.4-0.5,0.4
	c-0.2,0.1-0.5-0.1-0.7-0.2c-0.5-0.4-0.8-0.8-1.1-1.4"/>
<path class="st2" d="M41,42.8h18.1v1.3H41V42.8z"/>
<path class="st3" d="M59.1,49.9H41.7c-0.2,0-0.5,0-0.7,0h0l0.1,0.1v-6.9c0-0.1,0-0.2,0-0.3v0L41,42.9h17.4c0.2,0,0.5,0,0.7,0h0
	L59,42.8v6.4c0,0.3,0,0.6,0,0.9c0,0,0,0,0,0c0,0.2,0.3,0.2,0.3,0v-6.4c0-0.3,0-0.6,0-0.9v0c0-0.1-0.1-0.1-0.1-0.1H41.7
	c-0.2,0-0.5,0-0.7,0h0c-0.1,0-0.1,0.1-0.1,0.1v6.4c0,0.3,0,0.6,0,0.9v0c0,0.1,0.1,0.1,0.1,0.1h17.4c0.2,0,0.5,0,0.7,0h0
	C59.3,50.2,59.3,49.9,59.1,49.9L59.1,49.9z"/>
<path class="st3" d="M49.9,49.9h-3.1L47,50v-6.9c0-0.1,0-0.2,0-0.3c0,0,0,0,0,0l-0.1,0.1h3.1l-0.1-0.1v6.3c0,0.3,0,0.6,0,0.9v0
	c0,0.2,0.3,0.2,0.3,0v-6.3c0-0.3,0-0.6,0-0.9v0c0-0.1-0.1-0.1-0.1-0.1h-3.1c-0.1,0-0.1,0.1-0.1,0.1v6.3c0,0.3,0,0.6,0,0.9
	c0,0,0,0,0,0c0,0.1,0.1,0.1,0.1,0.1h3.1C50.1,50.2,50.1,49.9,49.9,49.9L49.9,49.9z"/>
<path class="st3" d="M53,49.9h-3.1l0.1,0.1v-6.9c0-0.1,0-0.2,0-0.3c0,0,0,0,0,0l-0.1,0.1H53l-0.1-0.1v6.3c0,0.3,0,0.6,0,0.9v0
	c0,0.2,0.3,0.2,0.3,0v-6.3c0-0.3,0-0.6,0-0.9v0c0-0.1-0.1-0.1-0.1-0.1h-3.1c-0.1,0-0.1,0.1-0.1,0.1v6.3c0,0.3,0,0.6,0,0.9v0
	c0,0.1,0.1,0.1,0.1,0.1H53C53.2,50.2,53.2,49.9,53,49.9L53,49.9z"/>
<path class="st3" d="M56.1,49.9H53l0.1,0.1v-6.9c0-0.1,0-0.2,0-0.3c0,0,0,0,0,0L53,42.9h3.1l-0.1-0.1v6.3c0,0.3,0,0.6,0,0.9v0
	c0,0.2,0.3,0.2,0.3,0v-6.3c0-0.3,0-0.6,0-0.9v0c0-0.1-0.1-0.1-0.1-0.1H53c-0.1,0-0.1,0.1-0.1,0.1v6.3c0,0.3,0,0.6,0,0.9v0
	c0,0.1,0.1,0.1,0.1,0.1h3.1C56.2,50.2,56.2,49.9,56.1,49.9L56.1,49.9z"/>
<path class="st3" d="M59.1,49.9h-3.1l0.1,0.1v-6.9c0-0.1,0-0.2,0-0.3v0l-0.1,0.1h3.1L59,42.8v6.3c0,0.3,0,0.6,0,0.9c0,0,0,0,0,0
	c0,0.2,0.3,0.2,0.3,0v-6.3c0-0.3,0-0.6,0-0.9v0c0-0.1-0.1-0.1-0.1-0.1h-3.1c-0.1,0-0.1,0.1-0.1,0.1v6.3c0,0.3,0,0.6,0,0.9v0
	c0,0.1,0.1,0.1,0.1,0.1h3.1C59.3,50.2,59.3,49.9,59.1,49.9L59.1,49.9z"/>
</svg>
