<?xml version="1.0" encoding="utf-8"?>
<!-- Generator: Adobe Illustrator 26.3.1, SVG Export Plug-In . SVG Version: 6.00 Build 0)  -->
<svg version="1.1" id="Capa_1" xmlns="http://www.w3.org/2000/svg" xmlns:xlink="http://www.w3.org/1999/xlink" x="0px" y="0px"
	 viewBox="0 0 100 100" style="enable-background:new 0 0 100 100;" xml:space="preserve">
<style type="text/css">
	.st0{fill:#CECCC8;}
	.st1{fill:#B90C2F;}
	.st2{fill:#0067B8;}
	.st3{fill:#E63164;}
	.st4{fill:#6C6463;}
	.st5{fill:#661D32;}
	.st6{fill:#002F6C;}
</style>
<g>
	<circle class="st0" cx="50.2" cy="50.2" r="44.2"/>
	<path class="st1" d="M6,50.2c-0.2-17.5,11-34.3,27.2-41c29.2-12.3,61.6,9.3,61.7,41c0,31.7-32.4,53.2-61.7,41
		C17,84.5,5.8,67.7,6,50.2L6,50.2z M6,50.2C5.9,67.6,17.1,84.4,33.4,90.8c28.7,11.8,60.6-9.6,60.5-40.7C94,19.1,62.1-2.3,33.4,9.5
		C17.1,15.9,5.9,32.7,6,50.2L6,50.2z"/>
</g>
<path class="st2" d="M27.4,37.8c1.4,0.5,2.8,0.8,4.2,1c0.5,0.1,1,0.1,1.5-0.1c0.6-0.2,1.1-0.6,1.5-1.1c1.4-1.5,2.3-3.4,3.2-5.2
	c0.1-0.3,0.3-0.6,0.1-0.9c-0.1-0.2-0.3-0.3-0.5-0.4l-0.7-0.4c-0.1-0.1-0.3-0.2-0.4-0.2c-0.4,0-0.6,0.3-0.9,0.6
	c-0.3,0.5-0.7,0.9-1.1,1.4c-0.4,0.4-0.8,0.8-1.3,1c-0.6,0.3-1.2,0.3-1.8,0.3c-1.1,0-2.2-0.1-3.3-0.4"/>
<path d="M14,69.7c-0.2,1.6-0.4,3.2-0.6,4.9c-0.2,1.6-0.4,3.2-0.5,4.8c-0.1,0.8-0.2,1.6-0.2,2.4c0,0.2,0,0.4-0.1,0.6
	c0,0.2,0,0.3,0,0.5c0.1,0.3,0.2,0.5,0.5,0.6c0.2,0.1,0.4,0.1,0.6,0.1l0.9,0l2.3,0l0.8,0c0.2,0,0.5,0,0.7-0.1
	c0.2-0.1,0.3-0.4,0.2-0.7c0,0,0,0,0,0c-0.1-0.1-0.2-0.3-0.3-0.4c-0.1-0.1-0.2-0.2-0.4-0.4c-0.2-0.2-0.5-0.4-0.8-0.6
	c-0.1-0.1-0.3-0.1-0.4-0.2c-0.2-0.1-0.2-0.3-0.1-0.4c0-0.2,0.1-0.3,0.2-0.5c0.1-0.2,0.1-0.4,0.2-0.5c0.1-0.4,0.3-0.7,0.4-1.1
	c0.2-0.7,0.5-1.5,0.7-2.2c0.4-1.5,0.7-3,1-4.5c0.3-1.5,0.4-3,0.6-4.6c0-0.4,0-0.8,0.1-1.1c0-0.1-0.2-0.1-0.2,0
	c-0.1,1.5-0.2,3-0.4,4.5c-0.2,1.5-0.5,3-0.9,4.4s-0.8,2.9-1.3,4.3c-0.1,0.3-0.3,0.7-0.4,1c-0.1,0.3-0.1,0.6,0.1,0.8
	c0.1,0.1,0.3,0.2,0.4,0.2c0.1,0.1,0.3,0.2,0.4,0.2c0.3,0.2,0.5,0.4,0.7,0.7c0.2,0.2,0.5,0.6,0.2,0.8c-0.1,0.1-0.3,0.1-0.5,0.1
	c-0.2,0-0.3,0-0.5,0l-2.2,0l-1.7,0c-0.4,0-0.7-0.3-0.7-0.7c0-0.8,0.1-1.6,0.2-2.4c0.1-1.6,0.3-3.2,0.5-4.7s0.3-3.2,0.5-4.8l0.1-1.2
	C14.1,69.6,14,69.6,14,69.7L14,69.7z"/>
<path d="M30.8,72.7c0.7,2.3,1.3,4.5,2,6.8l1,3.4c0.1,0.2,0.1,0.5,0.3,0.6s0.5,0.1,0.7,0.1c0.6,0,1.2,0,1.8,0c0.6,0,1.2,0,1.8-0.1
	c0.2,0,0.5,0,0.6-0.2c0.1-0.2,0.1-0.4,0-0.6c-0.3-0.7-1-1.1-1.6-1.6c-0.3-0.2-0.6-0.5-0.7-0.9c-0.2-0.5-0.3-1.1-0.4-1.6
	c-0.1-1.1-0.2-2.2-0.3-3.4c-0.1-2.2-0.2-4.5-0.7-6.7c-0.1-0.3-0.1-0.5-0.2-0.8c0,0-0.1-0.1-0.1-0.1c0,0-0.1,0.1-0.1,0.1
	c0.5,2.1,0.7,4.3,0.8,6.5c0.1,1.1,0.1,2.2,0.2,3.3c0.1,0.5,0.1,1.1,0.2,1.6c0.1,0.5,0.2,0.9,0.4,1.3c0.4,0.6,1.1,1,1.6,1.5
	c0.3,0.3,0.5,0.6,0.6,0.9c0.1,0.3-0.3,0.3-0.5,0.3c-0.3,0-0.6,0-0.8,0c-0.6,0-1.1,0-1.7,0c-0.3,0-0.6,0-0.9,0c-0.1,0-0.3,0-0.4,0
	c-0.1,0-0.2,0-0.3-0.1c-0.1-0.1-0.1-0.2-0.1-0.3l-0.1-0.4l-0.3-0.8l-0.5-1.6c-0.7-2.2-1.3-4.4-2-6.6l-0.2-0.8
	C30.9,72.7,30.9,72.6,30.8,72.7C30.8,72.7,30.8,72.7,30.8,72.7L30.8,72.7z"/>
<path class="st3" d="M17.9,41.6c-0.8,2-1.7,4.2-1.7,6.4c0,1.3,0.2,2.6,0.1,3.9c-0.1,1.4-0.5,2.7-0.9,4.1c-1.3,4.5-2.2,9-2.7,13.7
	c0,0.3-0.1,0.7,0,1c0.1,0.4,0.5,0.7,0.8,0.9c2.8,2.2,6.4,3.2,10,3.2c3.6,0.1,7.1-0.8,10.4-2c0.9-0.3,1.8-0.8,2.1-1.6
	c0.2-0.5,0-1.1-0.1-1.6c-0.6-2.8-1.2-5.5-1.8-8.3c-0.4-1.7-0.8-3.4-1.2-5.1c-1.3-4.9-3.1-9.6-5.3-14.1"/>
<path d="M25.5,26.9c-0.3-0.5-0.4-1.1-0.4-1.7c0-0.6,0-1.2,0.3-1.6c0.3-0.4,0.7-0.7,1.1-0.8c0.4-0.1,1-0.2,1.4-0.1
	c0.5,0.2,1,0.6,1.2,1.1c0,0.1,0.2,0,0.1-0.1c-0.2-0.5-0.6-0.9-1.1-1.1c-0.5-0.2-1-0.2-1.5-0.1c-0.5,0.1-1,0.4-1.3,0.8
	c-0.4,0.5-0.5,1.1-0.5,1.7c0,0.7,0.1,1.4,0.5,2C25.4,27,25.5,27,25.5,26.9C25.5,27,25.5,26.9,25.5,26.9L25.5,26.9z"/>
<path d="M29.2,23.8c0.2,0.4,0.4,0.8,0.7,1.1c0.1,0.2,0.3,0.3,0.5,0.4c0.1,0.1,0.2,0.1,0.2,0.2c0,0.1-0.1,0.2-0.2,0.2
	c-0.2,0.3,0.1,0.8,0.1,1.1c0.1,0.4,0.1,0.9-0.2,1.2c-0.3,0.3-0.8,0.4-1.2,0.5c-0.1,0-0.1,0.2,0,0.2c0.4,0,0.8-0.1,1.1-0.4
	c0.4-0.3,0.5-0.7,0.5-1.1c0-0.2-0.1-0.5-0.1-0.7c-0.1-0.2-0.2-0.4-0.1-0.6c0-0.1,0.1-0.2,0.2-0.3c0.1-0.1,0.1-0.2,0-0.3
	c-0.1-0.2-0.3-0.3-0.4-0.5c-0.4-0.3-0.8-0.8-1-1.2C29.2,23.6,29.1,23.7,29.2,23.8L29.2,23.8z"/>
<path d="M29.3,24.8C29.3,24.8,29.3,24.8,29.3,24.8c-0.1,0.1-0.1,0.1-0.1,0.2c0,0,0,0.1,0,0.1c0,0,0,0,0,0c0,0,0,0,0,0c0,0,0,0,0.1,0
	c0,0,0,0,0.1,0c0,0,0,0,0,0c0,0,0,0,0,0c0,0,0,0,0,0c0,0,0,0,0-0.1c0,0,0,0,0,0c0,0,0,0,0,0c0,0,0,0,0,0c0,0,0,0,0,0L29.3,24.8
	C29.4,24.8,29.4,24.8,29.3,24.8c0,0.1,0,0.1,0,0.1c0,0,0,0.1,0,0.1l0,0c0,0,0,0,0,0l0,0c0,0,0,0,0,0v0c0,0,0,0,0,0v0c0,0,0,0,0,0
	l0,0c0,0,0,0,0,0l0,0l0.1,0h0l0,0c0,0,0,0,0,0l0,0c0,0,0,0,0,0l0,0c0,0,0,0,0,0l0,0c0,0,0,0,0,0v0c0,0,0,0,0,0v0c0,0,0-0.1,0-0.1
	c0,0,0,0,0,0C29.4,24.8,29.4,24.8,29.3,24.8C29.4,24.7,29.4,24.7,29.3,24.8L29.3,24.8z"/>
<path d="M28.9,24.7L28.9,24.7L28.9,24.7c0,0,0.1,0,0.1,0l0.1,0c0,0,0,0,0,0l0,0c0.1,0,0.1,0,0.2-0.1l0,0c0,0,0,0,0.1,0l0,0l0,0l0,0
	c0.1,0,0.1,0,0.2,0c0,0,0,0,0,0c0-0.1,0-0.1-0.1-0.2c-0.1,0-0.1,0-0.2,0c0,0-0.1,0-0.1,0.1c0,0,0,0-0.1,0.1l0,0c0,0,0,0,0,0l0,0l0,0
	c0,0,0,0-0.1,0c0,0,0,0,0,0c0,0,0,0,0,0L28.9,24.7C28.8,24.6,28.8,24.6,28.9,24.7C28.8,24.7,28.8,24.7,28.9,24.7
	C28.8,24.7,28.9,24.7,28.9,24.7L28.9,24.7z"/>
<path class="st4" d="M28.7,22.9c0.1,0.5-0.1,0.9-0.3,1.3c-0.2,0.2-0.3,0.4-0.5,0.6s-0.2,0.5-0.1,0.7c0-0.1-0.1-0.2-0.2-0.3
	c-0.1-0.1-0.2-0.1-0.3-0.1c-0.1,0-0.1,0-0.2,0.1c-0.2,0.2-0.2,0.5-0.1,0.7c0.1,0.2,0.3,0.4,0.6,0.5c-0.1,0.4-0.2,0.7-0.4,1.1
	c-0.2,0.3-0.4,0.6-0.8,0.8c-0.1,0-0.2,0.1-0.2,0.1c-0.1,0-0.1,0-0.2-0.1c-1.6-0.7-2.9-2.4-1.9-4.1c0.5-0.9,1.5-1.6,2.5-1.8
	c0.3-0.1,0.6-0.1,0.9-0.1c0.4,0,0.9,0.2,1.3,0.3c0.3,0.1,0.6,0.3,0.8,0.5c0,0,0,0,0,0.1c0,0.1-0.1,0.1-0.1,0.1
	c-0.2,0.1-0.4,0-0.6-0.1c-0.1-0.1-0.2-0.1-0.2-0.1"/>
<path d="M27.4,25.7L27.4,25.7C27.3,25.7,27.3,25.7,27.4,25.7L27.4,25.7L27.4,25.7L27.4,25.7L27.4,25.7
	C27.4,25.7,27.4,25.7,27.4,25.7C27.4,25.7,27.4,25.7,27.4,25.7L27.4,25.7C27.4,25.7,27.4,25.7,27.4,25.7
	C27.4,25.7,27.4,25.7,27.4,25.7L27.4,25.7C27.4,25.7,27.4,25.7,27.4,25.7L27.4,25.7L27.4,25.7c0.1,0.1,0.1,0.1,0.1,0.1L27.4,25.7
	c0.1,0.1,0.1,0.1,0.1,0.2v0c0,0,0,0,0,0v0c0,0,0,0,0,0l0.1-0.1l0,0l0,0l0,0l0,0l0,0c0,0,0,0,0,0l0,0c0,0,0,0,0,0v0c0,0,0,0,0,0v0
	c0,0,0,0,0,0l0,0c0,0,0,0,0,0l0,0c0,0,0-0.1,0-0.1c0,0,0,0-0.1,0C27.5,25.7,27.4,25.7,27.4,25.7c0.1,0.1,0.1,0.1,0.1,0.2
	c0,0,0,0.1,0.1,0.1c0,0,0.1,0,0.1-0.1c0,0,0-0.1,0-0.1c0,0,0-0.1-0.1-0.1c0,0-0.1-0.1-0.1-0.1c0,0-0.1,0-0.1,0
	C27.3,25.6,27.2,25.6,27.4,25.7C27.3,25.7,27.3,25.7,27.4,25.7L27.4,25.7z"/>
<path d="M30.1,24.6C30.1,24.6,30.1,24.6,30.1,24.6C30,24.6,30,24.6,30.1,24.6c-0.1,0-0.1,0-0.1,0c0,0-0.1,0-0.1,0c0,0,0,0-0.1,0.1
	c0,0,0,0,0,0c0,0,0,0,0,0c0,0,0,0,0,0.1c0,0,0,0,0.1,0c0,0,0,0,0.1,0l0,0l0,0c0,0,0,0,0,0l0,0l0,0l0,0l0,0l0,0c0,0,0,0,0,0h0
	c0,0,0,0,0,0h0h0C30,24.7,30.1,24.7,30.1,24.6C30.1,24.7,30.1,24.6,30.1,24.6C30.1,24.6,30.1,24.6,30.1,24.6L30.1,24.6z"/>
<path class="st4" d="M24.1,24.3c0.3-0.8,0.6-1.7,0.2-2.4c-0.2-0.4-0.6-0.7-1.1-0.9c-0.4-0.1-0.9-0.2-1.4-0.1
	c-0.8,0.1-1.5,0.3-2.1,0.8c-0.3,0.3-0.5,0.7-0.8,1c-0.3,0.3-0.6,0.5-0.9,0.7c-0.3,0.1-0.7,0.2-1,0.4c-0.3,0.2-0.6,0.4-0.8,0.7
	c-0.2,0.5,0.1,1.1,0.6,1.5c0.7,0.6,1.8,0.8,2.7,0.6c0.9-0.2,1.8-0.7,2.5-1.3c0.2-0.2,0.4-0.4,0.7-0.6c0.3-0.2,0.7-0.3,1.1-0.4"/>
<path class="st2" d="M24.3,23.6c-0.1,0.1-0.2,0.3-0.3,0.4c-0.1,0.1-0.1,0.1-0.1,0.2c0,0,0,0.1-0.1,0.1c0,0.1,0,0.1,0,0.2
	c0,0.1,0.1,0.1,0.1,0.1c0,0,0.1,0,0.1,0c0,0,0.1-0.1,0.1-0.1c0,0,0-0.1,0-0.1c0-0.1,0.1-0.2,0.1-0.2c0.1-0.1,0.2-0.3,0.3-0.4
	C24.4,23.7,24.4,23.6,24.3,23.6C24.3,23.6,24.3,23.6,24.3,23.6L24.3,23.6z"/>
<path d="M29.1,28.5c-0.2,0.3-0.4,0.6-0.6,0.9c-0.2,0.3-0.3,0.6-0.5,0.9c0,0.1,0,0.1,0.1,0.1c0,0,0.1,0,0.1,0
	c0.2-0.3,0.3-0.6,0.4-0.9c0.2-0.3,0.3-0.6,0.5-0.9C29.3,28.5,29.2,28.5,29.1,28.5L29.1,28.5z"/>
<path d="M25.2,29.6c0.2-0.2,0.4-0.4,0.6-0.7c0.1-0.1,0.2-0.2,0.3-0.3c0.1-0.1,0.2-0.2,0.2-0.4c0-0.1,0-0.1-0.1-0.1c0,0,0,0-0.1,0
	c0,0-0.1,0.1-0.1,0.2c0,0.1-0.1,0.1-0.1,0.2c-0.1,0.1-0.2,0.2-0.3,0.3c-0.2,0.2-0.4,0.5-0.6,0.7C25.1,29.5,25.2,29.6,25.2,29.6
	L25.2,29.6z"/>
<path class="st2" d="M28.6,30.1c-0.9-0.4-1.8-0.6-2.8-0.7c-1-0.1-2,0.1-2.7,0.8c-1.3,1.2-2.1,3-2.5,4.6c-0.2,0.6-0.3,1.3-0.6,1.9
	c-0.3,0.6-0.9,1.1-1.4,1.6l-3.1,2.7c-0.1,0.1-0.1,0.1-0.2,0.2c0,0.1,0,0.3,0.1,0.4c0.7,1.4,1.9,2.5,3.4,3s3,0.6,4.5,0.3
	c0.1,0,0.2-0.1,0.3-0.1c0.1-0.1,0.2-0.2,0.2-0.4c0.2-0.5,0.4-1.1,0.5-1.6c0,0.6,0.1,1.1,0.2,1.7c0,0.1,0.1,0.2,0.2,0.3
	c0.1,0,0.2,0,0.3,0c1.4-0.2,2.8-0.5,4.2-0.8c-0.2-1.3-1.2-2.5-1.2-3.8c0-0.7,0.3-1.3,0.5-2c0.5-1.2,0.9-2.4,1.2-3.6
	c0.2-0.7,0.3-1.4,0.3-2.2c-0.1-0.8-0.5-1.6-1.2-2.1"/>
<path d="M43.7,29.1l0.5-0.4c0.1-0.1,0.3-0.3,0.5-0.2c0.4,0.1,0.8,0.5,0.9,0.9c0,0.1,0,0.2,0,0.3c0,0.1-0.1,0.2-0.1,0.3
	c-0.2,0.4-0.4,0.7-0.5,1.1c0,0.1,0.1,0.2,0.2,0.1c0.2-0.3,0.3-0.7,0.5-1c0.1-0.1,0.2-0.3,0.2-0.5c0-0.1,0-0.3-0.1-0.4
	c-0.1-0.2-0.3-0.5-0.5-0.6c-0.1-0.1-0.2-0.1-0.3-0.2c-0.1-0.1-0.3-0.1-0.4-0.1c-0.2,0-0.3,0.2-0.4,0.3L43.6,29
	C43.5,29,43.6,29.1,43.7,29.1L43.7,29.1z"/>
<path d="M45.3,26.2c-0.2-0.1-0.3,0.1-0.4,0.2c-0.1,0.2-0.3,0.3-0.3,0.5c-0.1,0.2-0.1,0.4-0.1,0.6c0,0.1,0,0.2,0,0.3
	c0,0.1,0,0.3,0.1,0.4c0,0.1,0.2,0.1,0.2,0c0-0.2-0.1-0.4-0.1-0.6c0-0.2,0-0.4,0-0.5c0-0.2,0.1-0.3,0.2-0.5c0-0.1,0.1-0.1,0.1-0.2
	c0,0,0.1-0.2,0.2-0.2C45.3,26.4,45.3,26.4,45.3,26.2C45.4,26.3,45.3,26.3,45.3,26.2L45.3,26.2z"/>
<path d="M46.1,25.7c-0.2,0.1-0.4,0.2-0.6,0.4c-0.1,0.1-0.2,0.2-0.2,0.3c-0.1,0.1-0.1,0.2-0.2,0.3c0,0.1,0.1,0.2,0.1,0.1
	c0.1-0.1,0.1-0.2,0.2-0.3c0.1-0.1,0.1-0.2,0.2-0.2c0.1-0.2,0.3-0.3,0.5-0.4C46.2,25.8,46.2,25.8,46.1,25.7
	C46.2,25.7,46.1,25.7,46.1,25.7L46.1,25.7z"/>
<path d="M46.2,26.7L46.2,26.7L46.2,26.7L46.2,26.7l0.1,0h0.1h0c0,0,0,0,0,0l0,0c0,0,0,0,0.1,0l0,0l0,0c0,0,0,0,0.1,0l0,0l0,0l0,0
	c0,0,0.1,0,0.1,0c0,0,0-0.1,0-0.1c-0.1-0.1-0.2-0.1-0.3-0.1c0,0-0.1,0-0.1,0c-0.1,0-0.1,0-0.2,0.1C46.1,26.6,46.1,26.7,46.2,26.7
	C46.2,26.7,46.2,26.8,46.2,26.7L46.2,26.7z"/>
<path d="M46.7,27.3C46.7,27.3,46.7,27.3,46.7,27.3C46.7,27.3,46.7,27.3,46.7,27.3C46.7,27.3,46.7,27.3,46.7,27.3L46.7,27.3
	C46.7,27.3,46.8,27.3,46.7,27.3l0.1,0l0,0l0,0l0.1,0l0.1,0.1c0,0,0.1,0,0.1,0c0,0,0-0.1,0-0.1c-0.1-0.1-0.2-0.1-0.3-0.1
	c-0.1,0-0.2,0-0.2,0.1C46.6,27.2,46.6,27.3,46.7,27.3C46.7,27.3,46.7,27.3,46.7,27.3L46.7,27.3z"/>
<path d="M47.1,27.8c0.1,0.1,0.1,0.3,0,0.4c0,0.1-0.1,0.1-0.2,0.2c0,0-0.1,0.1-0.1,0s0-0.1,0-0.1c0-0.1,0-0.1-0.1-0.1
	c0,0-0.1,0-0.1,0c-0.1,0.2-0.3,0.5-0.5,0.6c-0.1,0.1-0.2,0.2-0.3,0.3c-0.1,0.1-0.2,0.1-0.3,0.2c-0.1,0.1,0,0.2,0.1,0.2
	c0.1,0,0.3-0.1,0.4-0.2c0.1-0.1,0.2-0.2,0.3-0.3c0.2-0.2,0.4-0.4,0.5-0.7l-0.2-0.1c0,0.1,0,0.3,0.2,0.3c0.1,0,0.3-0.1,0.4-0.3
	c0.1-0.2,0.2-0.6-0.1-0.7C47.1,27.7,47,27.8,47.1,27.8L47.1,27.8z"/>
<path class="st2" d="M27.6,29.8l7.3,2.5c0.9,0.3,1.8,0.6,2.7,0.4c0.4-0.1,0.8-0.3,1.2-0.5c1.3-0.8,2.6-1.7,3.8-2.8
	c0.2-0.2,0.5-0.4,0.8-0.6c0.3-0.1,0.6-0.2,0.9-0.1c0.2,0.1,0.3,0.2,0.4,0.3c0.4,0.4,0.7,1,0.6,1.5c-0.1,0.3-0.3,0.6-0.5,0.9
	c-1,1.4-2,2.7-3.2,3.9c-1.2,1.1-2.8,2-4.5,2.2c-0.5,0-1,0-1.4,0c-1.5-0.1-6-0.6-7.5-0.9c-1.5-0.4,0.1-0.7-1.1-1.7"/>
<path d="M13.2,82.5c0.7,0.1,1.4,0.1,2.1,0c0.2,0,0.3-0.1,0.5-0.1c0.1,0,0.3-0.1,0.4-0.2c0.1-0.1,0.1-0.2,0.2-0.3
	c0,0,0.1-0.1,0.2-0.1c0,0,0.1,0,0.1-0.1c0,0,0.1,0,0.1-0.1l0-0.1v0l0.1-0.1h0c-0.1,0-0.1,0.2,0,0.2h0c0,0,0.1,0,0.1-0.1
	c0-0.1-0.1-0.2-0.2-0.2c-0.1,0.1-0.3,0.1-0.4,0.2c-0.1,0.1-0.2,0.2-0.2,0.4c-0.1,0.2-0.3,0.2-0.5,0.2c-0.8,0.2-1.6,0.2-2.3,0.1
	C13.1,82.3,13.1,82.5,13.2,82.5L13.2,82.5z"/>
<path d="M34.7,82.5c0.3,0,0.6,0,0.9,0c0.3,0,0.6-0.1,0.8-0.1c0.2-0.1,0.3-0.3,0.4-0.5c0.1-0.2,0.3-0.4,0.5-0.5c0,0,0.1-0.1,0-0.1
	c0,0,0,0,0,0c-0.1-0.1-0.1-0.1-0.2,0c-0.1,0.1,0,0.2,0.1,0.1h0l-0.1,0l0,0l0-0.1c-0.2,0.1-0.3,0.2-0.4,0.4c-0.1,0.1-0.1,0.2-0.2,0.3
	s-0.1,0.2-0.2,0.3c-0.3,0.1-0.5,0.1-0.8,0.1c-0.3,0-0.6,0-0.9,0C34.7,82.4,34.7,82.4,34.7,82.5C34.7,82.5,34.7,82.5,34.7,82.5
	L34.7,82.5z"/>
<path d="M36.1,30.7l0.3-0.3c0.1-0.1,0.2-0.2,0.3-0.3s0.3,0.1,0.4,0.1c0.1,0.1,0.2,0.1,0.3,0.2c0.1,0.1,0.2,0.2,0.3,0.3
	c0.1,0.1,0.2,0.2,0.2,0.3c0,0.1-0.1,0.3-0.2,0.4c-0.1,0.1-0.1,0.3-0.2,0.4c0,0.1,0.1,0.2,0.2,0.1c0.1-0.2,0.2-0.3,0.2-0.5
	c0.1-0.1,0.2-0.3,0.2-0.5c0-0.1-0.1-0.2-0.2-0.3c-0.1-0.1-0.2-0.2-0.3-0.3c-0.1-0.1-0.3-0.2-0.4-0.2c-0.1-0.1-0.3-0.1-0.4-0.1
	c-0.2,0-0.3,0.1-0.4,0.3c-0.1,0.1-0.2,0.3-0.4,0.4C36,30.7,36.1,30.8,36.1,30.7L36.1,30.7z"/>
<path d="M36.7,29.8c0-0.1,0-0.3-0.1-0.4c0-0.1,0-0.3,0.1-0.4c0-0.1,0.1-0.3,0.2-0.3c0.1-0.1,0.2-0.1,0.4-0.2c0.1,0,0.3-0.1,0.4-0.1
	c0.1,0,0.3,0,0.3,0.1c0,0.1-0.1,0.2-0.2,0.3c-0.1,0.1-0.3,0.2-0.4,0.3c0,0-0.1,0.1-0.1,0.1c0,0,0.1,0.1,0.1,0.1
	c0.1,0,0.1,0.1,0.1,0.2c0,0.1,0,0.1,0,0.1c-0.1,0.1,0,0.2,0.1,0.1c0.2,0,0.1-0.2,0.1-0.4c0-0.2-0.2-0.3-0.3-0.3l0.1,0.2
	c0.1-0.1,0.2-0.2,0.4-0.2c0.1-0.1,0.2-0.2,0.2-0.3c0-0.1,0-0.2,0-0.3c-0.1-0.1-0.2-0.1-0.3-0.1c-0.1,0-0.3,0-0.4,0.1
	c-0.1,0-0.3,0.1-0.4,0.1c-0.1,0-0.2,0.1-0.3,0.2c-0.1,0.1-0.1,0.2-0.2,0.3c-0.1,0.1-0.1,0.3-0.1,0.4c0,0.2,0.1,0.3,0.1,0.5
	C36.6,29.9,36.7,29.9,36.7,29.8L36.7,29.8z"/>
<path d="M38.6,30c0,0.2-0.1,0.3-0.1,0.5c0,0.1-0.1,0.1-0.2,0.2c0,0-0.1,0-0.1,0.1c0,0-0.1,0-0.1,0.1c0,0,0,0.1,0,0.1c0,0,0,0,0.1,0
	c0.1,0,0.2-0.1,0.3-0.1c0.1-0.1,0.1-0.1,0.2-0.2c0.1-0.2,0.2-0.4,0.1-0.5C38.7,30,38.7,29.9,38.6,30C38.6,29.9,38.6,30,38.6,30
	L38.6,30z"/>
<path class="st5" d="M46.1,25.7c-0.1-1.7,0.5-3.4,1.3-5c0.4-0.8,0.8-1.5,1.3-2.2c0.4-0.7,0.9-1.3,1.6-1.8c0.7-0.5,1.6-0.7,2.3-1.4
	c0,0,0-0.1,0-0.2c0,0,0,0,0,0c-1.4-1-3.1-1.8-4.8-1.8c-0.4,0-0.9,0-1.3,0.1c-0.4,0.1-0.9,0.2-1.3,0.4c-0.4,0.2-0.9,0.3-1.4,0.3
	s-0.9-0.2-1.4-0.3c-0.4-0.1-0.8-0.1-1.3,0c-0.3,0.1-0.7,0.4-0.9,0.6c-0.6,0.6-0.9,1.4-1.3,2.2c-1.6,3.5-2.2,7.3-1.9,11
	c0,0.2,0,0.5,0.1,0.7c0,0.1,0.2,0.1,0.2,0c-0.4-3.7,0.1-7.5,1.5-10.9c0.2-0.4,0.4-0.9,0.6-1.3c0.2-0.4,0.4-0.7,0.6-1.1
	c0.4-0.6,1-1.2,1.8-1.2c0.5,0,0.9,0.2,1.3,0.3c0.4,0.1,0.9,0.1,1.3,0c0.5-0.1,0.9-0.3,1.3-0.4c0.4-0.1,0.8-0.2,1.2-0.2
	c1.7-0.1,3.4,0.5,4.8,1.4c0.2,0.1,0.4,0.2,0.5,0.4l0-0.2c-0.6,0.6-1.4,0.8-2.1,1.2c-0.7,0.5-1.2,1.1-1.6,1.7
	c-0.5,0.7-0.9,1.4-1.3,2.2c-0.4,0.8-0.7,1.6-1,2.4c-0.3,0.9-0.4,1.9-0.4,2.9C46,25.8,46.1,25.8,46.1,25.7L46.1,25.7z"/>
<path class="st5" d="M37.8,37.8c0.5,2.1,1.3,4.3,2.6,6c1.2,1.6,3,2.7,4.8,3.3c4.5,1.6,9.2,0.7,13.8,0.3c1.3-0.1,2.6-0.2,3.9-0.1
	c1.1,0,2.3,0.2,3.1,1c1.4,1.4,1.2,3.7,0.1,5.2c-1.3,1.9-3.6,2.9-5.7,3.6c-1.1,0.4-2.3,0.8-3.4,1.3C56,59,55,59.5,54,60.2
	c-3.6,2.2-7.4,5.5-8,9.9c-0.3,2,0.1,4.1,1.4,5.7c1.3,1.6,3.2,2.4,5.1,2.9c2.3,0.6,4.8,0.8,7.2,0.5c2.2-0.3,4.2-1.1,6.1-2.3
	c3.8-2.3,6.7-5.6,10-8.4c3.3-2.9,7.1-5.7,11.6-6c2.2-0.2,4.5,0.5,5.8,2.4c0.6,0.9,1,1.9,1.4,2.9c0.4,1.2,0.7,2.3,1.1,3.5l1.1,3.7
	l0.1-0.2c-4.8,0.2-9.5,0.4-14.3,0.7c-1.4,0.1-2.7,0.1-4.1,0.2l0.1,0.1c-0.1-1.5-0.2-3.1-1-4.4c-0.7-1.1-1.9-1.9-3.2-1.7
	c-0.1,0-0.1,0.2,0,0.2c1.3-0.2,2.5,0.7,3.1,1.8c0.7,1.3,0.8,2.8,0.9,4.2c0,0.1,0.1,0.1,0.1,0.1c4.8-0.3,9.5-0.4,14.3-0.7
	c1.3-0.1,2.7-0.1,4.1-0.2c0.1,0,0.1-0.1,0.1-0.1c0,0,0,0,0,0L95.9,71c-0.4-1.2-0.7-2.3-1.1-3.5c-0.7-1.9-1.6-3.8-3.5-4.7
	c-1.9-0.9-4.2-0.8-6.2-0.3c-2.1,0.5-4,1.5-5.8,2.7c-3.6,2.5-6.6,5.8-9.9,8.6c-1.7,1.4-3.5,2.7-5.5,3.6c-2.2,1-4.5,1.5-6.9,1.4
	c-4.1-0.1-9.5-1.3-10.5-6c-1-4.6,2.3-8.5,5.7-11.1c1.9-1.4,4-2.6,6.3-3.5c2.2-0.9,4.6-1.4,6.5-2.9c1.5-1.2,2.7-2.9,2.5-4.8
	c-0.1-0.9-0.4-1.7-0.9-2.3c-0.7-0.8-1.6-1.1-2.6-1.2c-1.2-0.2-2.5-0.1-3.8,0c-1.3,0.1-2.6,0.2-3.9,0.4c-2.4,0.2-4.8,0.5-7.2,0.2
	c-2.1-0.2-4.1-0.7-5.9-1.8c-1.9-1.2-3.3-3-4.1-5c-0.4-1-0.7-2-1-3.1C38,37.7,37.9,37.7,37.8,37.8C37.9,37.7,37.8,37.7,37.8,37.8
	L37.8,37.8L37.8,37.8z"/>
<path class="st5" d="M73.5,70.4c3.8-3.7,8.1-7.4,13.4-8c1.9-0.2,3.9,0,5.3,1.2c1.6,1.3,2.3,3.4,2.9,5.3l1.8,6l-18.3,0.8
	c-0.1-1.4-0.2-2.8-0.8-4c-0.6-1.2-2-2.2-3.3-2"/>
<path class="st5" d="M73.5,70.4c1.6-1.5,3.2-2.9,5-4.2c1.7-1.3,3.6-2.3,5.6-3c2-0.7,4.2-1,6.2-0.4c1,0.3,1.9,0.9,2.6,1.6
	c0.7,0.8,1.1,1.7,1.5,2.6c0.4,1.1,0.7,2.1,1,3.2c0.4,1.2,0.8,2.5,1.1,3.7l0.3,0.9l0.2-0.2c-2.4,0.1-4.8,0.2-7.1,0.3
	c-2.4,0.1-4.8,0.2-7.1,0.3c-1.3,0.1-2.7,0.1-4,0.2l0.1,0.1c-0.1-1.2-0.1-2.4-0.6-3.6c-0.4-1-1.1-1.9-2-2.3c-0.5-0.2-1.1-0.3-1.6-0.3
	c-0.1,0-0.1,0.2,0.1,0.2c1-0.1,1.9,0.4,2.6,1.1c0.7,0.8,1.1,1.9,1.2,2.9c0.1,0.6,0.1,1.3,0.2,1.9c0,0.1,0.1,0.1,0.1,0.1
	c2.4-0.1,4.8-0.2,7.1-0.3c2.4-0.1,4.8-0.2,7.1-0.3c1.3-0.1,2.7-0.1,4-0.2c0.1,0,0.2-0.1,0.2-0.2c0,0,0,0,0,0
	c-0.4-1.3-0.8-2.6-1.2-3.8c-0.3-1.1-0.7-2.3-1.1-3.4c-0.3-1-0.7-2-1.3-2.8c-0.6-0.9-1.4-1.6-2.4-2c-2-0.9-4.3-0.7-6.4-0.1
	c-2.1,0.6-4,1.6-5.8,2.9c-1.8,1.3-3.4,2.8-5,4.3l-0.6,0.6C73.3,70.4,73.4,70.5,73.5,70.4L73.5,70.4z"/>
<path class="st5" d="M54.2,47.8c-0.4,1.6-1.9,2.5-3.3,3.3c-1.7,0.9-3.5,1.8-5.2,2.8c-1.7,1-3.4,2-4.9,3.3c-1.3,1.1-2.5,2.4-3.5,3.9
	c-1,1.5-1.7,3.1-2,4.8c0,0.2-0.1,0.4-0.1,0.6c0,0.1,0.2,0.1,0.2,0c0.1-0.4,0.2-0.8,0.3-1.3c0.1-0.4,0.2-0.8,0.4-1.2
	c0.3-0.8,0.7-1.6,1.1-2.3c0.9-1.5,2.1-2.8,3.4-4c1.4-1.3,3.1-2.4,4.7-3.3c1.7-1,3.5-1.9,5.2-2.8c1.4-0.7,2.9-1.6,3.5-3.1
	c0.1-0.2,0.1-0.4,0.2-0.5C54.3,47.8,54.2,47.7,54.2,47.8L54.2,47.8z"/>
<path class="st5" d="M36.2,77.5c1.5,0.8,3.1,1.3,4.7,1.6c1.7,0.3,3.3,0.5,5,0.7c1.9,0.2,3.8,0.2,5.7,0.2c2,0,3.9-0.2,5.9-0.4
	c1.8-0.2,3.7-0.6,5.4-1.4c0.2-0.1,0.4-0.2,0.6-0.3c0.1,0,0-0.2-0.1-0.2c-1.7,0.6-3.5,1.1-5.3,1.4c-1.9,0.3-3.9,0.5-5.8,0.5
	c-1.9,0.1-3.9,0-5.8-0.1c-1.7-0.1-3.3-0.2-5-0.5c-1.6-0.3-3.3-0.7-4.8-1.4c-0.2-0.1-0.4-0.2-0.5-0.3C36.2,77.4,36.1,77.5,36.2,77.5
	L36.2,77.5z"/>
<path class="st5" d="M46.4,28.9c0.1,1.8,0.3,3.7,0.8,5.4c0.5,1.8,1.1,3.5,2,5.1c0.4,0.8,0.9,1.6,1.4,2.4c0.5,0.8,1.1,1.5,1.8,2.1
	c1.2,1.1,2.7,1.8,4.3,2.3c1.6,0.5,3.3,0.7,4.9,1l0.6,0.1c0.1,0,0.1-0.1,0.1-0.1c0-0.1-0.1-0.1-0.1-0.1c-1.6-0.2-3.3-0.4-4.9-0.8
	c-1.6-0.4-3.1-1-4.4-2c-1.4-1.1-2.4-2.7-3.3-4.2c-0.9-1.6-1.6-3.3-2.1-5c-0.5-1.7-0.9-3.5-1-5.3c0-0.2,0-0.4,0-0.7
	C46.5,28.8,46.4,28.8,46.4,28.9L46.4,28.9z"/>
<path class="st5" d="M47.1,74c3.1,0.8,6.1-1.1,8.4-2.9c1.3-1,2.5-2.1,3.9-3c1.3-0.9,2.7-1.6,4.2-2.2c1.5-0.6,3-1.2,4.5-1.6
	c1.2-0.4,2.5-0.6,3.7-0.8c2.5-0.4,5.1-0.5,7.6-0.7c2.5-0.1,5-0.2,7.4-0.3c0.2,0,0.5,0,0.7-0.1c0.1,0,0.1-0.2,0-0.2
	c-1.1,0.1-2.2,0.1-3.2,0.1c-1.3,0-2.6,0.1-3.9,0.2c-2.6,0.1-5.2,0.3-7.8,0.6c-2.7,0.4-5.4,1-7.9,2c-1.5,0.6-2.9,1.2-4.2,2
	c-1.4,0.8-2.7,1.7-3.9,2.7c-2.4,2-5.1,4.4-8.4,4.2c-0.4,0-0.8-0.1-1.2-0.2C47.1,73.9,47,73.9,47.1,74C47,74,47,74,47.1,74L47.1,74z"
	/>
<g>
	<path class="st6" d="M40,18.3c0.5-0.1,0.9-0.2,1.4-0.3c0.3-0.1,0.9-0.3,0.7-0.7c-0.1-0.1-0.2-0.2-0.4-0.1c0,0,0,0,0,0
		c-0.2,0.1-0.3,0.2-0.4,0.4c-0.1,0.3-0.1,0.8,0.2,0.9c0.2,0.1,0.4,0,0.6-0.1c0.2-0.1,0.4-0.3,0.6-0.5l-0.2-0.1
		c-0.1,0.2,0,0.4,0.1,0.5c0.2,0.1,0.4,0.1,0.6,0c0.1-0.1,0.2,0,0.4,0c0.1,0,0.3,0,0.4,0c0.3,0,0.6,0,0.9,0c0.1,0,0.1-0.2,0-0.2
		c-0.5,0-1,0-1.4-0.1c-0.1,0-0.2,0-0.3,0c-0.1,0-0.2,0.1-0.3,0.1c-0.2,0-0.3-0.1-0.3-0.3c0,0,0-0.1,0-0.1c0-0.1,0-0.1-0.1-0.1
		c0,0-0.1,0-0.1,0c-0.1,0.2-0.3,0.3-0.5,0.4c-0.1,0.1-0.4,0.2-0.5,0.1c-0.1-0.1-0.1-0.3-0.1-0.4c0-0.2,0.1-0.4,0.2-0.5
		c0.1-0.1,0.2-0.1,0.2,0c0,0.1,0,0.2-0.1,0.2c-0.1,0.1-0.4,0.2-0.5,0.2c-0.4,0.1-0.8,0.2-1.3,0.3C39.9,18.1,39.9,18.3,40,18.3
		L40,18.3z"/>
	<path class="st6" d="M40,20.7c0.9,0,1.7,0.1,2.6,0.2c0.2,0,0.4,0,0.7,0.1c0.2,0,0.3,0.1,0.5,0c0.1,0,0.1-0.1,0.2-0.1
		c0,0,0.1-0.1,0.1,0c0,0,0,0.1,0.1,0.1c0.1,0.1,0.3,0.1,0.4,0c0.1-0.1,0-0.2-0.1-0.1c-0.2,0.1-0.2-0.1-0.4-0.1
		c-0.1,0-0.2,0.2-0.4,0.2c-0.1,0-0.2,0-0.3,0c-0.1,0-0.2,0-0.3-0.1c-0.2,0-0.4,0-0.6-0.1c-0.8-0.1-1.7-0.1-2.5-0.1
		C40,20.6,40,20.6,40,20.7C40,20.7,40,20.7,40,20.7L40,20.7z"/>
	<path class="st6" d="M45.1,21.1C45.1,21.1,45.2,21,45.1,21.1c0.1-0.1,0-0.1,0-0.1S45,21,45.1,21.1C45,21,45,21.1,45.1,21.1
		L45.1,21.1z"/>
	<path class="st6" d="M39.5,23.4l1.2,0.1c0.2,0,0.3,0.1,0.5,0c0.1,0,0.2-0.2,0.2-0.3c0-0.1-0.1-0.1-0.1-0.1c-0.1,0.1-0.1,0.3,0,0.4
		c0.1,0.1,0.4,0.1,0.5,0c0,0,0.1-0.1,0.2-0.1c0.1,0,0.1,0,0.2,0.1c0.1,0,0.2,0.1,0.3,0.1c0.2,0,0.5,0,0.7-0.1c0.1,0,0.1-0.2,0-0.2
		c-0.2,0.1-0.4,0.1-0.6,0.1c-0.2,0-0.4-0.1-0.5-0.1c-0.1,0-0.1,0-0.2,0c-0.1,0-0.1,0.1-0.2,0.1c-0.2,0.1-0.4-0.1-0.3-0.3l-0.1,0
		c0,0.3-0.7,0.1-0.8,0.1l-0.9-0.1C39.5,23.3,39.5,23.4,39.5,23.4L39.5,23.4z"/>
	<path class="st6" d="M44.4,23.9L44.4,23.9L44.4,23.9L44.4,23.9L44.4,23.9L44.4,23.9L44.4,23.9l0.1,0c0,0,0,0,0,0l0,0l0,0l0,0
		c0,0,0,0,0,0c0,0,0,0,0,0v0v0v0c0,0,0,0,0,0c0,0,0,0,0,0l0,0c0,0,0,0,0,0l0,0l0,0c0,0,0,0,0,0h0h0h0h0l0,0c0,0,0,0,0,0l0,0
		C44.4,23.8,44.4,23.8,44.4,23.9C44.4,23.8,44.4,23.8,44.4,23.9C44.4,23.8,44.4,23.8,44.4,23.9C44.4,23.9,44.4,23.9,44.4,23.9
		L44.4,23.9C44.5,23.9,44.5,23.9,44.4,23.9L44.4,23.9c0.1,0,0.1,0,0.1,0l0,0l0,0l0,0h0L44.4,23.9L44.4,23.9L44.4,23.9L44.4,23.9
		L44.4,23.9L44.4,23.9L44.4,23.9L44.4,23.9L44.4,23.9L44.4,23.9L44.4,23.9C44.5,23.9,44.5,23.9,44.4,23.9L44.4,23.9
		C44.5,23.8,44.5,23.8,44.4,23.9L44.4,23.9L44.4,23.9L44.4,23.9C44.5,23.8,44.5,23.8,44.4,23.9l0-0.1C44.5,23.8,44.5,23.8,44.4,23.9
		l0.1-0.1c0,0,0,0,0,0l0,0c0,0,0,0,0,0l0,0c0,0,0,0,0,0h0h0h0h0l0,0h0l0,0c0,0,0,0-0.1,0c0,0,0,0,0,0c0,0,0,0,0,0L44.4,23.9
		C44.4,23.8,44.4,23.8,44.4,23.9L44.4,23.9C44.4,23.9,44.4,23.9,44.4,23.9L44.4,23.9z"/>
	<path class="st6" d="M39.5,26.2c0.3,0,0.6,0.1,0.9,0.1c0.3,0.1,0.5,0.1,0.8,0c0.5-0.2,0.8-0.6,0.9-1.1c0,0,0-0.1-0.1-0.1
		c0,0-0.1,0-0.1,0c-0.1,0.3-0.2,0.8,0.2,1c0.1,0.1,0.3,0.1,0.4,0c0.1-0.1,0.2-0.3,0.4-0.3l-0.1-0.1c-0.1,0.1,0,0.3,0.1,0.4
		c0.1,0,0.1,0,0.2,0c0.1,0,0.1,0,0.2,0c0,0.1,0.1,0.1,0.1,0.2c0.1,0.1,0.2,0.2,0.3,0.1c0,0,0.1-0.1,0-0.1s-0.1-0.1-0.1,0
		c-0.1,0-0.1-0.1-0.2-0.2c0-0.1-0.1-0.1-0.2-0.1c-0.1,0-0.1,0-0.2,0c0,0-0.1,0-0.1,0c0,0,0-0.1,0-0.1c0,0,0-0.1,0-0.1c0,0,0,0-0.1,0
		c-0.1,0-0.2,0.1-0.3,0.2c-0.1,0.1-0.2,0.2-0.3,0.2c-0.1-0.1-0.2-0.2-0.3-0.3c0-0.2,0-0.4,0.1-0.5l-0.2,0c-0.1,0.5-0.4,0.9-0.9,1
		c-0.3,0.1-0.6,0-0.8-0.1c-0.3-0.1-0.5-0.1-0.8-0.1C39.3,26.1,39.4,26.2,39.5,26.2L39.5,26.2z"/>
	<path class="st6" d="M40.8,28l0.7-0.1c0,0,0.1,0,0.1-0.1c0,0,0-0.1-0.1-0.1l-0.7,0.1C40.8,27.9,40.8,27.9,40.8,28
		C40.8,28,40.8,28,40.8,28z"/>
	<path class="st6" d="M40.7,38.5c0.6,0.1,1.3,0.1,1.9,0c0.4-0.1,1-0.3,1-0.8c0-0.2-0.1-0.4-0.3-0.5c-0.2-0.1-0.4,0-0.6,0.2
		c-0.2,0.2-0.2,0.5-0.1,0.8c0,0.2,0.1,0.5,0.3,0.6c0.3,0.2,0.6,0,0.9-0.1c0.3-0.1,0.6-0.3,0.9-0.5l-0.1-0.1c0,0.1,0,0.3,0.1,0.4
		c0.1,0.1,0.3,0.1,0.5,0.1c0.4-0.1,0.8-0.2,1.2-0.3c0.1,0,0.1-0.2,0-0.2c-0.3,0.1-0.6,0.1-0.9,0.2c-0.1,0-0.3,0.1-0.4,0.1
		c-0.1,0-0.3-0.1-0.2-0.2c0-0.1-0.1-0.2-0.1-0.1c-0.4,0.3-0.8,0.5-1.3,0.6c-0.1,0-0.2,0-0.3,0c-0.1-0.1-0.1-0.2-0.1-0.3
		c-0.1-0.2-0.1-0.4,0-0.6c0-0.2,0.2-0.4,0.4-0.4c0.2,0,0.2,0.2,0.2,0.4c0,0.4-0.6,0.6-1,0.6c-0.6,0.1-1.2,0.1-1.7,0
		C40.6,38.4,40.6,38.5,40.7,38.5L40.7,38.5z"/>
	<path class="st6" d="M41.8,41c1.4,0,2.8,0,4.2-0.2c0.1,0,0.1-0.2,0-0.1c-1.4,0.2-2.8,0.2-4.2,0.2C41.8,40.9,41.8,40.9,41.8,41
		C41.8,41,41.8,41,41.8,41z"/>
	<path class="st6" d="M43,43c1.4,0.1,2.8,0,4.1-0.4c0,0,0.1-0.1,0-0.1c0,0,0-0.1-0.1,0c-1.3,0.3-2.7,0.5-4.1,0.4
		C42.9,42.9,42.9,43,43,43L43,43z"/>
	<path class="st6" d="M46.1,45h1.4c0,0,0.1,0,0.1-0.1c0,0,0-0.1-0.1-0.1h-1.4C46,44.9,46,44.9,46.1,45C46,45,46,45,46.1,45L46.1,45z
		"/>
	<path class="st6" d="M54.1,51.5c0.4-0.2,0.8-0.3,1.2-0.4c0.3,0,0.9-0.1,1,0.3c0,0.1,0,0.3-0.2,0.3c-0.2,0-0.1-0.2,0-0.3
		c0.2-0.1,0.3-0.2,0.5-0.2c0.2,0,0.4,0,0.4,0.2l0.2-0.1c0-0.1,0.1-0.1,0.1-0.1c0.1,0,0.2,0,0.3,0c0.2,0,0.4,0,0.7,0
		c0.4,0,0.9,0.1,1.3,0.1c0.9,0.1,1.7,0.4,2.5,0.7c0.1,0,0.1-0.1,0-0.2c-1.4-0.6-3-0.8-4.5-0.9c-0.2,0-0.3,0-0.5,0.1
		c-0.1,0.1-0.2,0.2-0.1,0.3c0.1,0.1,0.2,0,0.2-0.1c-0.1-0.2-0.2-0.3-0.4-0.3c-0.2,0-0.4,0-0.6,0.1c-0.2,0.1-0.4,0.2-0.5,0.3
		c-0.1,0.1-0.1,0.3,0.1,0.4c0.1,0.1,0.3,0.1,0.4,0c0.1-0.1,0.2-0.3,0.2-0.4c-0.1-0.4-0.6-0.5-1-0.5c-0.5,0-1.1,0.2-1.5,0.5
		C53.9,51.4,54,51.5,54.1,51.5L54.1,51.5z"/>
	<path class="st6" d="M50.4,53.4c1.8-0.1,3.7,0.2,5.4,0.9c0.5,0.2,1,0.4,1.4,0.7c0,0,0.1,0,0.1,0c0,0,0-0.1,0-0.1
		c-1.6-0.9-3.4-1.4-5.3-1.6c-0.5,0-1.1,0-1.6,0C50.3,53.3,50.3,53.4,50.4,53.4L50.4,53.4z"/>
	<path class="st6" d="M57.5,56L57.2,56c0,0-0.1,0-0.1,0.1c0,0,0,0.1,0.1,0.1l0,0l0.3,0.1c0,0,0.1,0,0.1,0
		C57.5,56.1,57.5,56.1,57.5,56C57.5,56,57.5,56,57.5,56L57.5,56z"/>
	<path class="st6" d="M46.5,55.6c1.2,0.2,2.5,0.4,3.3,1.3l0-0.1c-0.2,0.1-0.4,0-0.5-0.1l0,0.1c0.3-0.2,0.7,0.1,1,0.3s0.6,0.4,1,0.3
		l-0.1-0.1c0,0.1,0,0.2,0.1,0.3c0,0.1,0.2,0.1,0.2,0c0-0.1,0-0.2-0.1-0.3c0,0-0.1-0.1-0.1-0.1c-0.4,0.1-0.7-0.2-1-0.4
		c-0.3-0.2-0.7-0.3-1-0.1c0,0-0.1,0.1,0,0.1c0,0,0,0,0,0c0.2,0.2,0.5,0.2,0.7,0.1c0,0,0-0.1,0-0.1c0,0,0,0,0,0
		c-0.9-0.9-2.2-1.1-3.4-1.3C46.4,55.4,46.4,55.6,46.5,55.6L46.5,55.6z"/>
	<path class="st6" d="M51.5,59.3C51.6,59.3,51.6,59.3,51.5,59.3c0.1-0.1,0-0.2,0-0.2C51.5,59.2,51.4,59.2,51.5,59.3
		C51.4,59.3,51.5,59.3,51.5,59.3z"/>
	<path class="st6" d="M43.6,58.3c0.6,0.3,1.2,0.6,1.7,1c0.1,0.1,0.2,0.2,0.4,0.2c0.1,0,0.3-0.1,0.4-0.1l1-0.4l-0.1-0.1l-0.3,1.2
		c0,0,0,0.1,0.1,0.1c0,0,0,0,0,0c0.3,0,0.6-0.2,0.8-0.4l-0.1,0c0.1,0.1,0.1,0.2,0.1,0.3c0,0.1-0.1,0.2-0.2,0.2c0,0-0.1,0-0.1,0.1
		c0,0,0,0.1,0.1,0.1c0.4,0.1,0.8,0.3,1.1,0.5c0,0,0.1,0,0.1-0.1c0,0,0-0.1,0-0.1c-0.4-0.2-0.7-0.4-1.2-0.5l0,0.2
		c0.1,0,0.3,0,0.4-0.2c0.1-0.2,0-0.4,0-0.5c0,0-0.1-0.1-0.1-0.1c0,0,0,0,0,0C47.2,59.9,47,60,46.7,60l0.1,0.1l0.3-1.2
		c0,0,0-0.1-0.1-0.1c0,0,0,0-0.1,0l-0.9,0.4c-0.1,0.1-0.3,0.2-0.5,0.1c-0.1-0.1-0.2-0.1-0.3-0.2c-0.5-0.3-1-0.6-1.6-0.9
		C43.6,58.2,43.5,58.3,43.6,58.3L43.6,58.3z"/>
	<path class="st6" d="M40.1,61.1c1.4,0.7,2.9,1.2,4.3,1.7c0.4,0.1,0.8,0.3,1.3,0.4c0,0,0.1,0,0.1,0c0,0,0-0.1,0-0.1l0,0
		c-1.5-0.4-2.9-0.9-4.4-1.5c-0.4-0.2-0.8-0.3-1.2-0.5C40.1,60.9,40.1,61,40.1,61.1L40.1,61.1z"/>
	<path class="st6" d="M38.5,64.4c0.5,0.4,1,0.8,1.6,0.9c0.5,0.1,1,0,1.4-0.3c0.2-0.2,0.3-0.4,0.4-0.7c0-0.1-0.1-0.1-0.1-0.1
		c-0.4,0.3-0.6,0.8-0.4,1.3c0.1,0.2,0.3,0.4,0.6,0.2s0.4-0.4,0.7-0.5l-0.1-0.1c-0.1,0.7,0.5,1.3,1.2,1.4c0.1,0,0.3,0,0.4,0
		c0.1,0,0.1-0.2,0-0.2c-0.6,0.1-1.2-0.3-1.3-0.9c0-0.1,0-0.2,0-0.3c0,0,0-0.1-0.1-0.1c0,0,0,0,0,0c-0.2,0-0.4,0.2-0.5,0.3
		c-0.1,0.1-0.2,0.1-0.3,0.2c-0.1,0-0.2-0.1-0.3-0.2c-0.2-0.4-0.1-0.8,0.3-1.1l-0.1-0.1c-0.1,0.6-0.7,0.9-1.2,0.9
		C39.7,65.3,39.1,64.8,38.5,64.4C38.5,64.3,38.4,64.4,38.5,64.4L38.5,64.4z"/>
	<path class="st6" d="M37.4,69.6c1.6,0.6,3.2,1,4.9,1.1c0.1,0,0.1-0.1,0-0.1c-1.7-0.1-3.3-0.4-4.9-1C37.4,69.4,37.4,69.5,37.4,69.6
		L37.4,69.6z"/>
	<path class="st6" d="M38.4,73c0.4,0.1,0.7,0.2,1.1,0.2c0,0,0.1,0,0.1-0.1c0,0,0-0.1-0.1-0.1c-0.4,0-0.7-0.1-1.1-0.2
		C38.4,72.8,38.3,72.9,38.4,73L38.4,73z"/>
</g>
<path d="M29.5,27C29.5,27,29.5,27,29.5,27C29.5,27,29.5,27,29.5,27C29.5,27,29.5,27,29.5,27L29.5,27L29.5,27
	C29.6,26.9,29.6,26.9,29.5,27c0.1-0.1,0.1-0.1,0.1-0.1l0,0l0,0c0,0,0,0,0,0l0,0c0,0,0,0,0.1,0l0,0c0,0,0,0,0,0c0,0,0,0,0,0
	c0,0,0,0,0.1,0c0,0,0,0,0,0c0,0,0,0,0,0c0,0,0.1,0,0.1-0.1c0,0,0-0.1-0.1-0.1c-0.1,0-0.1,0-0.2,0c-0.1,0-0.1,0.1-0.2,0.1
	c-0.1,0.1-0.1,0.2-0.2,0.3C29.4,27,29.4,27,29.5,27C29.4,27,29.4,27,29.5,27C29.5,27.1,29.5,27,29.5,27L29.5,27z"/>
</svg>
