<?xml version="1.0" encoding="utf-8"?>
<!-- Generator: Adobe Illustrator 26.3.1, SVG Export Plug-In . SVG Version: 6.00 Build 0)  -->
<svg version="1.1" id="Capa_1" xmlns="http://www.w3.org/2000/svg" xmlns:xlink="http://www.w3.org/1999/xlink" x="0px" y="0px"
	 viewBox="0 0 100 100" style="enable-background:new 0 0 100 100;" xml:space="preserve">
<style type="text/css">
	.st0{fill:#CECCC8;}
	.st1{fill:#B90C2F;}
	.st2{fill:#FFFFFF;}
	.st3{fill:#002F6C;}
	.st4{fill:#661D32;}
	.st5{fill:#E63164;}
	.st6{fill:#0067B8;}
</style>
<g>
	<circle class="st0" cx="49.9" cy="50.7" r="44.2"/>
	<path class="st1" d="M5.7,50.7C5.6,19.1,37.6-2.8,66.9,9.6c16.2,6.7,27.5,23.5,27.4,41.1C94.7,68.4,83.4,85.4,67,92
		C37.7,104.2,5.5,82.4,5.7,50.7L5.7,50.7z M5.8,50.7C5.7,74.7,26,94.6,49.9,94.4c38.9-0.3,58.6-47,31.1-74.8
		C53.4-7.6,6,11.9,5.8,50.7L5.8,50.7z"/>
</g>
<path d="M66,58.2c2,0.1,3.9,0.1,5.9-0.3c1.9-0.3,3.8-1,5.4-2.2c1.8-1.4,2.9-3.5,3.7-5.6c0.4-1.1,0.8-2.2,1.1-3.4
	c0.2-0.6,0.3-1.1,0.5-1.7c0.2-0.5,0.4-1.1,0.8-1.5c0.4-0.4,0.9-0.6,1.4-0.9c0.5-0.2,1-0.5,1.3-1c0.1-0.2,0.2-0.4,0-0.6
	c-0.1-0.1-0.3-0.2-0.4-0.1c-0.3,0.1-0.5,0.2-0.8,0.2l-0.2,0.1l0.1,0.2l1.1-0.6c0.1-0.1,0.3-0.1,0.4-0.3c0.1-0.1,0.1-0.3,0.1-0.5
	c-0.1-0.1-0.3-0.2-0.5-0.2c-0.5,0-1.1,0.1-1.6,0.4c-0.1,0,0,0.2,0,0.2c0.3,0,0.7-0.1,1-0.3c0.2-0.1,0.6-0.3,0.6-0.6
	c0-0.1-0.2-0.2-0.3-0.2c-0.2-0.1-0.3-0.1-0.5-0.1c-0.3,0-0.7,0-1,0.1c-0.1,0-0.1,0.2,0,0.2c0.5,0,0.9-0.2,1.2-0.5
	c0.1-0.1,0.3-0.3,0.2-0.5s-0.3-0.2-0.5-0.2c-0.9-0.1-1.8,0.1-2.7,0.5c-0.5,0.2-0.9,0.5-1.3,0.8c-0.1,0.1,0,0.2,0.1,0.1
	c1.1-0.9,2.4-1.4,3.8-1.2c0.1,0,0.2,0,0.3,0c0.1,0.1,0.1,0.2,0,0.3c-0.3,0.3-0.8,0.5-1.2,0.5l0,0.2c0.2-0.1,0.5-0.1,0.8-0.1
	c0.1,0,0.3,0,0.4,0c0.1,0,0.3,0,0.3,0.1c0.1,0.2-0.4,0.4-0.5,0.5c-0.2,0.1-0.5,0.2-0.8,0.2l0,0.2c0.4-0.2,0.8-0.3,1.2-0.4
	c0.1,0,0.4,0,0.5,0.1c0.1,0.1,0,0.3-0.1,0.3c-0.3,0.2-0.7,0.4-1,0.6l-0.4,0.2c0,0-0.1,0.1,0,0.1c0,0,0.1,0,0.1,0l0.7-0.2
	c0.1,0,0.2-0.1,0.3-0.1c0.1,0,0.3,0,0.3,0.1c0,0,0,0.1,0,0.1c0,0.1-0.1,0.3-0.2,0.3c-0.1,0.1-0.2,0.2-0.3,0.3
	c-0.2,0.2-0.4,0.3-0.7,0.4c-0.5,0.2-1,0.4-1.4,0.8c-0.9,0.7-1.1,1.9-1.4,2.9c-0.3,1.1-0.7,2.2-1,3.3c-0.4,1.1-0.8,2.1-1.4,3.1
	c-0.6,1-1.2,1.9-2,2.6c-1.4,1.3-3.3,2-5.1,2.4c-1.9,0.4-3.8,0.5-5.8,0.5c-0.2,0-0.4,0-0.7,0C65.9,58.1,65.9,58.1,66,58.2
	C65.9,58.2,65.9,58.2,66,58.2L66,58.2z"/>
<g>
	<path class="st2" d="M70.3,18.7h23.3c0.3,0,0.5,0.2,0.5,0.5v15.1c0,0.3-0.2,0.5-0.5,0.5H70.3c-0.3,0-0.5-0.2-0.5-0.5V19.1
		C69.9,18.9,70.1,18.7,70.3,18.7z"/>
	<path class="st3" d="M70.3,18.6c7.5,0,15-0.6,22.4-0.3c0.2,0,0.7,0,1,0c0.5,0.1,0.7,0.6,0.6,1.1c-0.1,4.4-0.2,8.7-0.1,13.1
		c0,0,0,1.2,0,1.2c0,0.2,0,0.4,0,0.7C94.3,34.8,94,35,93.6,35c-6.6,0.2-13.3,0.3-19.9,0.2l-2.5,0c0,0-0.6,0-0.6,0l-0.2,0l-0.1,0
		c-0.5,0-0.9-0.4-1-0.9c0-2,0.1-4,0.2-6c0.1-1.6,0.2-5.9,0.3-7.5c0,0,0-1.2,0-1.2C69.8,19.2,69.8,18.6,70.3,18.6L70.3,18.6z
		 M70.3,18.7c-0.5,0-0.4,0.5-0.4,0.9c0,0,0,1.2,0,1.2c0,1.6,0.2,5.9,0.3,7.5c0.1,1.9,0.1,4,0.2,5.8c0.5,0,2.8,0,3.3,0
		c6.6,0,13.3,0.1,19.9,0.2c0.3,0,0.2-0.5,0.2-0.7c0,0,0-1.2,0-1.2c0.1-4.4,0.1-8.7-0.1-13.1c0-0.3,0.1-0.5-0.4-0.4
		C85.7,19.4,78,18.8,70.3,18.7L70.3,18.7z"/>
</g>
<path d="M82,34.8c0,0.9,0,1.7,0,2.6c0,0.9,0,1.7,0,2.6c0,1.7-0.1,3.5-0.1,5.2c0,0.5,0,1-0.1,1.4c0,0.5-0.1,1,0,1.5
	c0,0.1,0.2,0.2,0.2,0c0.1-0.4,0.1-0.9,0.1-1.3c0-0.4,0-0.9,0-1.3c0-0.9,0-1.7,0.1-2.6c0-1.7,0.1-3.5,0.1-5.2c0-1,0-2,0-2.9
	C82.2,34.8,82.1,34.8,82,34.8C82.1,34.8,82,34.8,82,34.8L82,34.8z"/>
<path d="M67.1,50.4c0.8,0.3,1.6,0.4,2.4,0.5c0.4,0,0.8,0.1,1.2,0.1c0.4,0,0.8,0,1.2-0.1c0.8-0.1,1.4-0.6,1.9-1.1
	c0.6-0.5,1.1-1,1.6-1.5c1-1.1,1.8-2.2,2.6-3.5c0.4-0.6,0.7-1.3,1-2c0.1-0.3,0.3-0.7,0.4-1c0.1-0.4,0.2-0.7,0.4-1.1
	c0.3-0.6,0.8-1.1,1.5-1.3c0.3-0.1,0.7-0.1,1,0.1c0.1,0.1,0.3,0.2,0.2,0.3c-0.1,0.1-0.1,0.1-0.2,0.2l-0.3,0.2l-0.5,0.3
	c0,0-0.1,0.1,0,0.1c0,0,0,0,0,0c0.5,0.3,0.5,1.1,0.1,1.5c-0.1,0.1,0,0.2,0.1,0.1c0.5-0.5,0.4-1.4-0.2-1.8v0.2l0.6-0.3
	c0.2-0.1,0.4-0.2,0.5-0.3c0.2-0.2,0-0.5-0.2-0.7c-0.3-0.2-0.6-0.1-0.9-0.1c-0.3,0.1-0.6,0.2-0.9,0.4c-0.3,0.2-0.5,0.4-0.7,0.7
	c-0.2,0.3-0.3,0.7-0.5,1.1c-0.2,0.7-0.5,1.4-0.9,2.1c-0.7,1.4-1.5,2.6-2.4,3.8c-0.5,0.6-1,1.1-1.5,1.6c-0.5,0.5-1.1,1.1-1.8,1.5
	c-0.8,0.4-1.6,0.4-2.4,0.3c-0.8,0-1.7-0.1-2.5-0.3c-0.2,0-0.4-0.1-0.6-0.2C67,50.2,67,50.3,67.1,50.4L67.1,50.4z"/>
<path class="st4" d="M53.2,47.2c5.3,1.5,9.1,1.9,13.6,3c0.3,0.1,0.5,0.2,0.8,0.3c0.8,0.5,1,1.5,1.1,2.4c0.2,1.2,0.3,2.5-0.2,3.5
	c-0.2,0.4-0.6,0.8-0.7,1.3c-0.1,0.3-0.1,0.7-0.1,1.1c-0.2,1.2-1.4,2.1-2.6,1.9c-0.3-0.1-0.6-0.2-0.9-0.3C64,60.2,63.9,60,63.7,60
	c-0.4-0.1-0.7,0.3-1,0.5c-0.6,0.3-1.3,0.3-1.8,0c-0.8-0.5-1.2-1.6-2.1-1.8c-0.3-0.1-0.5-0.1-0.8-0.1c-1.5-0.2-2.5-1.6-3.2-2.8"/>
<path class="st5" d="M40.4,81.2c-1.3-4.7-1-10.1,1.1-14.5c0.1-0.2,0.2-0.5,0.4-0.6c0.2-0.1,0.4-0.1,0.6-0.1c1.6,0,3.2,0.1,4.8,0.2
	l8.9,0.7c0.3,0,0.6,0.1,0.9,0.3c0.2,0.2,0.3,0.5,0.4,0.7c1.3,4.5,3.2,9,4.9,13.4"/>
<path class="st4" d="M48.1,46.9c0.3,1.1,1.2,2.2,2.2,2.7c0.8,0.4,1.7,0.4,2.4-0.1c0.7-0.6,0.6-1.3,0.5-2.2c0,0.2,1.6,0.6,1.9,0.7
	c0.5,0.2,1.1,0.4,1.6,0.7c2.2,1.2,3.1,3.8,3.2,6.2c0.1,1.7-0.1,3.4-0.6,5c-0.3,1-0.7,1.9-0.9,2.9c-0.3,1.4,0.7,3.2-0.1,4.5
	c-0.6,1-2,1.2-3,1.3c-2.8,0.4-5.6,0.5-8.4,0.2c-1.8-0.2-5.5-0.3-6.4-2.2C40,65.3,41,64,41.1,62.9c0.2-1.5-0.3-3.1-0.7-4.5
	c-0.6-2.1-0.9-4.8,0-6.9s2.7-3.4,4.8-3.9c1-0.3,1.9-0.6,2.8-0.8"/>
<path class="st4" d="M47.9,46.8c-5.1,1-10.2,2-15.2,3.1c-1.1,0.2-2.2,0.5-2.8,1.4c-0.8,1.1-0.5,2.7-0.1,4c0.4,1.2,0.8,2.4,1.4,3.4
	c0.6,1.1,1.5,2,2.7,2.5c0.2,0.1,0.5,0.2,0.8,0.2c0.5-0.1,0.8-0.4,1.3-0.5c0.8-0.1,1.5,1,2.3,0.6c0.5-0.2,0.6-0.9,1-1.1
	c0.4-0.2,0.8,0.1,1.2,0c0.8-0.2,0.9-1.5,1.7-1.7c0.3-0.1,0.6,0,0.8,0c0.6-0.1,1.1-0.5,1.1-1.1"/>
<path d="M54,40.4c0,0.2,0,0.3,0,0.5c0,0.1,0,0.1,0,0.2c0,0.1,0.1,0.1,0.1,0.2c0.1,0.1,0.1,0.3,0,0.4c0,0,0,0-0.1,0.1
	c-0.1,0-0.1,0.1-0.2,0.1c-0.1,0.1,0.1,0.3,0.2,0.2c0,0,0.1-0.1,0.2-0.1c0.1,0,0.1-0.1,0.1-0.2c0.1-0.2,0.1-0.5-0.1-0.6
	c0,0-0.1,0-0.1-0.1c0,0-0.1-0.1-0.1-0.1c0-0.2,0-0.4-0.1-0.6C54.1,40.3,54,40.3,54,40.4L54,40.4z"/>
<path d="M51.4,45.4c0.9,0.4,2.1,0.8,3.1,0.3c0.3-0.2,0.6-0.5,0.9-0.8c0.4-0.4,0.7-0.8,0.9-1.3c0.5-1.2,0.6-2.4,0.6-3.7
	c0-0.3,0-0.6,0-1c0-0.2,0-0.4,0-0.6c-0.1-1.2-0.4-2.6-1.5-3.3c-0.8-0.5-1.9-0.5-2.9-0.3c-0.3,0.1-0.6,0.2-0.8,0.3
	c-0.1,0.1-0.3,0.1-0.4,0.2c-0.1,0-0.2,0.1-0.3,0.1c-0.1,0-0.3-0.2-0.4-0.3c-0.1-0.1-0.2-0.2-0.4-0.3c-0.1-0.1-0.3-0.1-0.4,0
	c-0.2,0.2-0.4,0.3-0.5,0.5c-0.3,0.4-0.6,0.8-0.8,1.3c-0.5,1-0.7,2.1-0.7,3.2c0,0.3,0,0.6,0.1,0.8c0,0.1,0.2,0.1,0.2,0
	c-0.2-1.1-0.1-2.2,0.3-3.3c0.2-0.5,0.4-0.9,0.7-1.4c0.1-0.2,0.3-0.4,0.4-0.6c0.1-0.2,0.3-0.3,0.5-0.5c0.1-0.1,0.2,0,0.3,0.1
	c0.1,0.1,0.2,0.2,0.4,0.3c0.1,0.1,0.2,0.2,0.3,0.2c0.1,0,0.2-0.1,0.2-0.1c0.1-0.1,0.3-0.1,0.4-0.2c1-0.4,2.1-0.6,3.1-0.2
	c1.2,0.5,1.7,1.8,1.8,3c0,0.4,0,0.7,0,1.1c0,0.5,0,1.1,0,1.6c0,0.6-0.1,1.2-0.2,1.9c-0.1,0.6-0.3,1.1-0.7,1.6
	c-0.3,0.4-0.6,0.7-0.9,1c-0.3,0.3-0.6,0.5-1,0.6c-0.5,0.1-1,0-1.5-0.1c-0.3-0.1-0.6-0.2-0.8-0.3C51.4,45.2,51.3,45.4,51.4,45.4
	L51.4,45.4z"/>
<path d="M56.1,43.8C56.1,43.8,56.1,43.8,56.1,43.8c0-0.1,0-0.1,0-0.1C56,43.7,56,43.7,56.1,43.8C56,43.8,56,43.8,56.1,43.8z"/>
<path d="M48.7,40.4C48.8,40.4,48.8,40.4,48.7,40.4c0.1,0,0.1,0,0.1,0.1c0,0,0,0,0,0c0,0,0,0,0,0c0,0,0,0,0,0l0,0c0,0,0,0,0,0
	s0,0,0,0c0,0,0,0,0,0c0,0,0,0,0,0c0,0,0,0,0,0c0,0,0,0,0,0s0,0,0,0v0c0,0,0,0,0,0c0,0,0,0,0,0h0c0,0,0,0,0,0c0,0,0,0,0,0
	c0,0,0,0,0,0c0,0,0,0,0,0c0,0,0,0,0,0c0,0,0,0,0,0l0,0c0,0,0,0,0,0l0,0c0,0,0-0.1,0-0.1c0,0-0.1,0-0.1,0c-0.1,0.1-0.1,0.2,0,0.2
	c0,0.1,0.1,0.1,0.1,0.1c0,0,0.1-0.1,0.1-0.1c0,0,0-0.1,0-0.1c0,0,0-0.1,0-0.1c0-0.1-0.1-0.1-0.1-0.2C48.9,40.3,48.8,40.2,48.7,40.4
	C48.7,40.3,48.6,40.3,48.7,40.4C48.7,40.4,48.7,40.4,48.7,40.4L48.7,40.4L48.7,40.4z"/>
<path d="M48.2,46.9c0.2-0.7,0.3-1.5,0.4-2.3c0.1-0.4,0.1-0.7,0.1-1.1c0-0.4,0.1-0.8,0.1-1.2c0-0.1-0.2-0.1-0.2,0
	c0,0.4-0.1,0.8-0.1,1.1s-0.1,0.7-0.1,1.1c-0.1,0.8-0.2,1.5-0.4,2.3C48.1,47,48.2,47,48.2,46.9z"/>
<path d="M52.8,38.9c-0.2,0-0.5,0-0.7,0c-0.1,0-0.2,0-0.3,0.1c-0.1,0-0.1,0-0.2,0.1c-0.1,0-0.1,0-0.2,0.1c0,0,0,0.1,0,0.1
	c0,0,0,0,0,0c0.1,0,0.1,0,0.2,0c0.1,0,0.1,0,0.2-0.1c0.1,0,0.2-0.1,0.3-0.1c0.2-0.1,0.4-0.1,0.7-0.1C52.9,39,52.9,38.9,52.8,38.9
	L52.8,38.9z"/>
<path d="M55.9,39.4c0-0.1-0.1-0.2-0.2-0.2c-0.1-0.1-0.2-0.1-0.3-0.2c-0.1,0-0.2-0.1-0.3-0.1c0,0-0.1,0-0.1,0c0,0-0.1,0-0.1,0
	c0,0,0,0,0,0c0.1,0-0.1,0,0,0l0.1,0.1l0,0c0-0.1-0.1-0.1-0.2-0.1c0,0,0,0-0.1,0c-0.1,0.1-0.1,0.1,0,0.2c0,0.1,0.1,0.1,0.2,0.1
	c0.1,0,0.2,0,0.3,0.1c0.1,0,0.2,0.1,0.3,0.1c0.1,0,0.1,0,0.2,0.1c0,0,0.1,0,0.1,0.1C55.8,39.4,55.8,39.5,55.9,39.4
	C55.9,39.5,55.9,39.4,55.9,39.4L55.9,39.4z"/>
<path class="st4" d="M49.6,40.5c-0.1-0.4-0.2-0.7-0.6-0.8c-0.4-0.1-0.8,0.2-0.8,0.6c0,0.4,0.2,0.8,0.5,1.1c0.1,0.1,0.1,0.1,0.2,0.2
	c0,0.1,0,0.1,0,0.2c0,0.4-0.1,0.7-0.1,1.1c-0.7-1-1.1-2.3-1.3-3.5c-0.1-1,0-2.1,0.4-3.1c1.1-2.6,4.9-3.1,7.2-1.9
	c0.8,0.4,1.5,1.3,1.5,2.3c-0.7-0.4-1.5-0.6-2.3-0.6c-1.1,0-2.3,0-3.3,0.4c-0.1,0-0.1,0.1-0.2,0.1c0,0.1,0,0.1,0,0.2
	c0,0.5,0,1-0.2,1.5c-0.2,0.5-0.6,0.9-0.6,1.5c0,0.3,0.1,0.6-0.1,0.7C49.7,40.5,49.6,40.6,49.6,40.5"/>
<path d="M53.1,47.8c0.1-0.3,0.1-0.7,0.2-1c0-0.2,0.1-0.3,0.1-0.5c0-0.1,0-0.1,0.1-0.2s0-0.1,0.1-0.1c0,0,0.1-0.1,0-0.1
	c0,0-0.1-0.1-0.1,0c-0.1,0.1-0.2,0.2-0.3,0.3c0,0.2-0.1,0.3-0.1,0.5C53.1,47,53,47.4,53,47.8C53,47.9,53.1,47.9,53.1,47.8L53.1,47.8
	z"/>
<path class="st4" d="M50.5,36.2c0.1,0.4,0.4,0.7,0.8,0.9c1.4,1,3,1.4,4.7,1.5c0.5,0,1,0,1.5-0.2c0,0,0.1,0,0.1,0c0,0,0-0.1,0-0.1
	c0-0.5-0.1-1-0.3-1.5c-0.6-1.4-1.8-2.4-3.2-2.7"/>
<path class="st4" d="M47.8,41.3C47,40.7,45.9,40.8,45,41c-0.9,0.2-1.7,0.4-2.5,0.6c-0.3,0.1-0.5,0.1-0.7,0.3
	c-0.2,0.2-0.3,0.5-0.3,0.8c0,0.3,0.1,0.6,0.2,0.8c0.2,0.4,0.4,0.9,0.8,1.2c0.4,0.3,0.9,0.4,1.3,0.2l-0.5,0.4c0,0-0.1,0.1-0.1,0.1
	c0,0.1,0.1,0.2,0.1,0.3l0.6,0.6c0.2,0.2,0.4,0.4,0.6,0.4c0.2,0.1,0.6-0.1,0.6-0.3l0,0.5c0.2,0.3,0.6,0.3,0.9,0.1
	c0.3-0.2,0.5-0.4,0.7-0.7c0.5-0.7,0.9-1.5,1.3-2.3c0.3-0.6,0.6-1.2,0.6-1.9"/>
<path class="st6" d="M80.1,31.7l-1,0c-0.7,0-1.2,0-1.5,0c-0.3,0-0.5,0-0.6,0c-0.3,0-0.5-0.1-0.7-0.2c-0.2-0.1-0.3-0.3-0.3-0.5
	c0-0.1,0-0.2,0.1-0.3c0.1-0.1,0.3-0.3,0.5-0.4c0.1-0.1,0.3-0.3,0.3-0.4c0.1-0.4,0.1-0.9,0.2-1.3c0.1-1,0.1-2.3,0.1-3.9
	c0-0.6,0-0.9-0.1-1.1c-0.1-0.2-0.2-0.3-0.5-0.5c-0.3-0.1-0.5-0.3-0.5-0.6c0-0.2,0.1-0.4,0.3-0.5c0.2-0.1,0.5-0.2,0.7-0.2
	c0.2,0,0.4,0,0.6,0c0.4,0,0.9,0,1.4,0c0.4,0,1.1,0,2.1,0c0.3,0,0.6,0,0.9,0c0.5,0,1,0,1.5,0.2c0.4,0.1,0.7,0.3,1,0.5
	c0.5,0.4,0.7,0.9,0.7,1.6c0,0.3-0.1,0.7-0.2,1c-0.1,0.3-0.3,0.5-0.6,0.8c-0.2,0.1-0.3,0.3-0.3,0.4s0.1,0.2,0.3,0.3
	c0.4,0.2,0.8,0.4,1.1,0.8c0.3,0.4,0.5,0.9,0.5,1.5c0,0.7-0.3,1.3-0.8,1.9c-0.7,0.8-1.6,1.1-3,1.1c-0.2,0-0.6,0-1.3,0L80.1,31.7z
	 M80.6,23.9v1.5c0,0.2,0,0.4,0.1,0.5C80.7,26,80.8,26,81,26c0.4,0,0.6-0.1,0.8-0.3c0.2-0.2,0.3-0.6,0.3-1c0-0.5-0.1-0.8-0.3-1
	c-0.2-0.2-0.4-0.4-0.7-0.4c-0.2,0-0.3,0-0.3,0.1C80.6,23.5,80.6,23.6,80.6,23.9L80.6,23.9z M80.6,28v0.7c0,0.6,0,1,0.1,1.2
	c0.1,0.2,0.3,0.3,0.6,0.3c0.7,0,1.1-0.4,1.1-1.3c0-1.1-0.4-1.6-1.2-1.6c-0.2,0-0.4,0-0.4,0.1C80.6,27.6,80.6,27.8,80.6,28L80.6,28z"
	/>
<path d="M34,58.1c-1.9,0.1-3.8,0-5.7-0.3s-3.7-0.9-5.3-2.1c-1.8-1.3-2.9-3.4-3.7-5.4c-0.4-1.1-0.8-2.1-1.1-3.2
	c-0.2-0.6-0.3-1.1-0.5-1.7c-0.2-0.5-0.3-1-0.6-1.5c-0.3-0.4-0.7-0.7-1.2-1c-0.5-0.2-1-0.4-1.4-0.8c-0.1-0.1-0.2-0.2-0.3-0.3
	c-0.1-0.1-0.2-0.2-0.2-0.4c0-0.2,0.2-0.3,0.3-0.2c0.3,0.1,0.5,0.2,0.8,0.2l0.2,0.1c0,0,0.1,0,0.1-0.1c0,0,0-0.1,0-0.1l-0.9-0.5
	c-0.1-0.1-0.3-0.2-0.4-0.2c-0.1,0-0.2-0.1-0.2-0.2c0-0.2,0.2-0.2,0.4-0.2c0.5,0,1,0.1,1.4,0.4l0-0.2c-0.3,0-0.5-0.1-0.8-0.2
	c-0.1-0.1-0.7-0.3-0.5-0.5c0.1-0.1,0.2-0.1,0.4-0.1c0.1,0,0.3,0,0.4,0c0.3,0,0.5,0,0.8,0.1l0-0.2c-0.4,0-0.8-0.2-1.1-0.4
	c-0.1-0.1-0.1-0.1-0.2-0.2c-0.1-0.1,0.1-0.2,0.2-0.2c0.2,0,0.4,0,0.6,0c1.2,0,2.4,0.5,3.4,1.3c0.1,0.1,0.2-0.1,0.1-0.1
	c-0.7-0.6-1.5-1-2.4-1.2c-0.4-0.1-0.9-0.1-1.4-0.1c-0.2,0-0.5,0-0.6,0.1c-0.1,0.1-0.1,0.3,0,0.5c0.4,0.4,0.9,0.6,1.4,0.6
	c0.1,0,0.1-0.1,0-0.2c-0.3-0.1-0.7-0.2-1-0.1c-0.2,0-0.3,0.1-0.5,0.1c-0.1,0-0.2,0.1-0.3,0.2c-0.1,0.3,0.4,0.5,0.6,0.6
	c0.3,0.2,0.6,0.2,1,0.3c0.1,0,0.1-0.1,0-0.2c-0.4-0.2-0.9-0.4-1.4-0.4c-0.2,0-0.4,0-0.6,0.1c-0.1,0.1-0.2,0.3-0.1,0.5
	c0.1,0.2,0.3,0.3,0.4,0.3l0.7,0.4l0.5,0.3l0.1-0.2l-0.7-0.2c-0.3-0.1-0.6-0.2-0.7,0.1c-0.1,0.2-0.1,0.4,0.1,0.6
	c0.2,0.2,0.3,0.4,0.6,0.6c0.4,0.3,1,0.5,1.5,0.8c0.3,0.1,0.5,0.3,0.7,0.5c0.2,0.2,0.4,0.4,0.5,0.7c0.3,0.5,0.4,1.1,0.6,1.6
	c0.3,1.1,0.7,2.2,1,3.4c0.4,1.1,0.8,2.2,1.4,3.2c0.6,1,1.2,1.9,2,2.7c1.4,1.3,3.3,2.1,5.2,2.5c1.9,0.4,3.9,0.5,5.9,0.4
	c0.2,0,0.5,0,0.7,0C34.1,58.2,34.1,58.1,34,58.1L34,58.1z"/>
<path d="M18.5,42.2c-0.4-0.4-0.4-1.2,0.1-1.5c0,0,0-0.1,0-0.1c0,0,0,0,0,0l-0.5-0.3c-0.1-0.1-0.2-0.1-0.3-0.2
	c-0.1-0.1-0.2-0.1-0.2-0.2c-0.1-0.1,0.1-0.3,0.2-0.3c0.1-0.1,0.3-0.1,0.5-0.1c0.7,0,1.3,0.3,1.7,0.8c0.2,0.3,0.4,0.7,0.5,1.1
	c0.1,0.3,0.2,0.7,0.4,1c0.3,0.7,0.6,1.3,0.9,2c0.7,1.3,1.5,2.5,2.5,3.6c0.5,0.6,1,1.1,1.5,1.6c0.5,0.5,1.1,1,1.8,1.3
	c0.7,0.3,1.6,0.2,2.4,0.2c0.8,0,1.6-0.1,2.4-0.3c0.2,0,0.4-0.1,0.6-0.2c0.1,0,0.1-0.2,0-0.2c-0.8,0.2-1.6,0.4-2.5,0.4
	c-0.4,0-0.8,0.1-1.3,0.1c-0.4,0-0.8,0-1.2-0.1c-0.8-0.2-1.4-0.8-2-1.3c-1.7-1.5-3-3.3-4.1-5.4c-0.3-0.7-0.7-1.3-0.9-2.1
	c-0.3-0.7-0.4-1.5-1-2c-0.5-0.5-1.1-0.7-1.8-0.7c-0.3,0-0.6,0.1-0.7,0.4c-0.1,0.4,0.3,0.5,0.6,0.7l0.6,0.3v-0.1
	C18,40.9,17.9,41.8,18.5,42.2C18.5,42.3,18.6,42.3,18.5,42.2L18.5,42.2z"/>
<g>
	<path class="st6" d="M6.4,18.7h23.3c0.3,0,0.5,0.2,0.5,0.5v15.1c0,0.3-0.2,0.5-0.5,0.5H6.4c-0.3,0-0.5-0.2-0.5-0.5V19.1
		C5.9,18.9,6.1,18.7,6.4,18.7z"/>
	<path class="st3" d="M6.4,18.6c7.5,0,15-0.6,22.4-0.3c0.2,0,0.7,0,1,0c0.5,0.1,0.7,0.6,0.6,1.1c-0.1,4.4-0.2,8.7-0.1,13.1
		c0,0,0,1.2,0,1.2c0,0.2,0,0.4,0,0.7C30.3,34.8,30,35,29.7,35c-6.6,0.2-13.3,0.3-19.9,0.2l-2.5,0l-0.6,0l-0.2,0c0,0-0.1,0-0.1,0
		c-0.5,0-0.9-0.4-1-0.9c0-2,0.1-4,0.2-6c0.1-1.6,0.2-5.9,0.3-7.5c0,0,0-1.2,0-1.2C5.8,19.2,5.8,18.6,6.4,18.6L6.4,18.6z M6.4,18.7
		c-0.5,0-0.4,0.5-0.4,0.9c0,0,0,1.2,0,1.2c0,1.6,0.2,5.9,0.3,7.5c0.1,1.9,0.1,4,0.2,5.8c0.5,0,2.8,0,3.3,0c6.6,0,13.3,0.1,19.9,0.2
		c0.3,0,0.2-0.5,0.2-0.7c0,0,0-1.2,0-1.2c0.1-4.4,0.1-8.7-0.1-13.1c0-0.3,0.1-0.5-0.4-0.4C21.7,19.4,14,18.8,6.4,18.7L6.4,18.7z"/>
</g>
<path d="M17.8,34.8c0,0.9,0,1.7,0,2.6s0,1.7,0,2.6c0,1.7,0.1,3.5,0.1,5.2c0,0.5,0,1,0,1.5c0,0.5,0,1,0.1,1.5c0,0.1,0.2,0.1,0.2,0
	c0-0.4,0-0.9,0-1.3s0-0.9,0-1.3c0-0.9-0.1-1.7-0.1-2.6c0-1.7-0.1-3.5-0.1-5.2c0-1,0-2,0-2.9C18,34.8,17.9,34.8,17.8,34.8
	C17.9,34.8,17.8,34.8,17.8,34.8L17.8,34.8z"/>
<path class="st2" d="M21.5,26.7l1.4,2.9c0.1,0.2,0.2,0.4,0.3,0.5c0.1,0.1,0.2,0.2,0.4,0.2c0.3,0.1,0.5,0.2,0.5,0.5
	c0,0.3-0.2,0.6-0.6,0.8c-0.4,0.2-1.1,0.2-2.1,0.2c-1.1,0-1.9,0-2.4-0.1c-0.2,0-0.4-0.1-0.6-0.3c-0.1-0.1-0.2-0.3-0.2-0.5
	c0-0.1,0-0.2,0.1-0.3c0.1-0.1,0.3-0.2,0.4-0.2c0.2-0.1,0.3-0.2,0.3-0.4c0-0.3-0.2-0.5-0.6-0.6c-0.6-0.1-1.2-0.1-1.8-0.1
	c-0.6,0-1,0-1.1,0.1c-0.1,0.1-0.2,0.2-0.2,0.3c-0.1,0.1-0.1,0.2-0.1,0.4c0,0.1,0,0.2,0.1,0.2c0.1,0.1,0.3,0.1,0.4,0.2
	c0.3,0.1,0.4,0.3,0.4,0.5c0,0.6-0.7,0.9-2,0.9c-0.8,0-1.3-0.1-1.7-0.2c-0.3-0.1-0.5-0.3-0.5-0.7c0-0.1,0-0.2,0.1-0.3
	c0.1-0.1,0.3-0.2,0.4-0.2c0.3-0.1,0.5-0.2,0.7-0.5c0.2-0.2,0.4-0.6,0.7-1.3l1-2.2c0.3-0.6,0.5-1.2,0.8-1.8c0.1-0.4,0.2-0.8,0.2-1.2
	c0-0.3,0-0.6,0.1-0.9c0.1-0.2,0.2-0.3,0.3-0.5c0.3-0.3,0.8-0.5,1.3-0.5c0.5,0,0.9,0.2,1.4,0.6C19.4,22.7,20.3,24.2,21.5,26.7
	L21.5,26.7z M16.5,27.6h1.4c0.3,0,0.4-0.1,0.4-0.2c0-0.2-0.2-0.5-0.5-1.2c-0.1-0.2-0.2-0.4-0.4-0.6c-0.1-0.1-0.2-0.1-0.3-0.1
	c-0.2,0-0.3,0.2-0.4,0.5c0,0-0.1,0.2-0.2,0.5c-0.2,0.5-0.3,0.8-0.3,0.9C16.2,27.6,16.3,27.6,16.5,27.6L16.5,27.6z"/>
<path d="M18.4,42c-0.1-0.2-0.2-0.3-0.2-0.5c0-0.2,0.1-0.4,0.2-0.5c0-0.1,0.1-0.1,0.1-0.2c0-0.1,0.1-0.1,0.1-0.2
	c0-0.1-0.2-0.2-0.3-0.2c-0.2-0.1-0.3-0.2-0.5-0.3c-0.2-0.1-0.3-0.2-0.2-0.4c0.1-0.3,0.6-0.4,0.8-0.3c0.2,0,0.4,0.1,0.6,0.1
	c0.2,0.1,0.4,0.2,0.6,0.3c0.1,0,0.2-0.1,0.1-0.1c-0.5-0.4-1.4-0.7-2-0.3c-0.3,0.2-0.4,0.5-0.2,0.8c0.1,0.1,0.3,0.2,0.5,0.3
	c0.1,0,0.2,0.1,0.2,0.1c0.1,0,0.1,0,0.2,0.1c0,0,0.1,0,0.1,0l0-0.1c0,0.1-0.1,0.1-0.1,0.2c0,0-0.1,0.1-0.1,0.2
	c-0.1,0.1-0.1,0.2-0.2,0.4c-0.1,0.3,0.1,0.6,0.2,0.8C18.3,42.1,18.4,42.1,18.4,42C18.4,42.1,18.4,42.1,18.4,42L18.4,42z"/>
<circle cx="52.4" cy="40.3" r="0.3"/>
<circle cx="55.3" cy="40.3" r="0.3"/>
<path d="M55,43.4c0,0-0.5,0.5-1.4,0.5s-1.4-0.5-1.4-0.5c-0.1,0-0.1-0.1,0-0.2l0,0c0-0.1,0.1-0.1,0.2,0c0,0,0.5,0.4,1.3,0.4
	s1.3-0.4,1.3-0.4c0.1,0,0.2,0,0.2,0l0,0C55.1,43.3,55.1,43.4,55,43.4z"/>
</svg>
