<?xml version="1.0" encoding="utf-8"?>
<!-- Generator: Adobe Illustrator 26.3.1, SVG Export Plug-In . SVG Version: 6.00 Build 0)  -->
<svg version="1.1" id="Capa_1" xmlns="http://www.w3.org/2000/svg" xmlns:xlink="http://www.w3.org/1999/xlink" x="0px" y="0px"
	 viewBox="0 0 80 80" style="enable-background:new 0 0 80 80;" xml:space="preserve">
<style type="text/css">
	.st0{fill:#3CAF37;}
	.st1{fill:#23751C;}
	.st2{fill:#A6C5EC;}
	.st3{fill:#FFFFFF;}
</style>
<g>
	<circle class="st0" cx="39.7" cy="40.4" r="36.6"/>
	<g>
		<path class="st1" d="M3.1,40.4C3,14.2,29.5-4.1,53.9,6.3c30.1,13,30.5,55.5,0.1,68.4C29.6,84.9,2.9,66.7,3.1,40.4L3.1,40.4z
			 M3.2,40.4C3.4,72.5,42.5,88.5,65.3,66c14.1-13.7,14.4-37.6,0.2-51.3C42.7-7.8,3.4,8.3,3.2,40.4L3.2,40.4z"/>
	</g>
</g>
<path class="st1" d="M40.8,35.4c0-7.6,6.2-13.7,13.8-13.7c7.6,0,13.8,6.2,13.8,13.7c0,4-1.7,7.5-4.4,10l0,0L40.8,68.5L17.7,45.4
	c0,0,0,0,0,0c-2.7-2.5-4.4-6.1-4.4-10c0-7.6,6.2-13.7,13.8-13.7C34.7,21.6,40.8,27.8,40.8,35.4z"/>
<rect x="45.3" y="39.1" transform="matrix(0.6979 -0.7162 0.7162 0.6979 -15.7877 48.9628)" class="st2" width="9.8" height="8.1"/>
<path class="st3" d="M45,52.7c-0.9,0-1.8-0.4-2.5-1L41.8,51c-1.4-1.4-1.4-3.6-0.1-5l2.1-2.1l5.8,5.7l-2.1,2.1
	C46.9,52.3,46,52.7,45,52.7L45,52.7z"/>
<path class="st3" d="M50.6,36.9l2.1-2.1c0.7-0.7,1.6-1.1,2.6-1.1c0.9,0,1.8,0.4,2.5,1l0.7,0.7c0.7,0.7,1.1,1.6,1.1,2.5
	c0,1-0.3,1.9-1,2.5l-2.1,2.1L50.6,36.9z"/>
</svg>
