<?xml version="1.0" encoding="utf-8"?>
<!-- Generator: Adobe Illustrator 26.3.1, SVG Export Plug-In . SVG Version: 6.00 Build 0)  -->
<svg version="1.1" id="Capa_1" xmlns="http://www.w3.org/2000/svg" xmlns:xlink="http://www.w3.org/1999/xlink" x="0px" y="0px"
	 viewBox="0 0 300 300" style="enable-background:new 0 0 300 300;" xml:space="preserve">
<style type="text/css">
	.st0{fill-rule:evenodd;clip-rule:evenodd;fill:#205492;}
	.st1{fill-rule:evenodd;clip-rule:evenodd;fill:#002F6C;}
	.st2{fill-rule:evenodd;clip-rule:evenodd;fill:#FFFFFF;}
	.st3{fill-rule:evenodd;clip-rule:evenodd;fill:#212121;}
	.st4{fill-rule:evenodd;clip-rule:evenodd;fill:#B90C2F;}
	.st5{fill:#FFFFFF;}
	.st6{fill-rule:evenodd;clip-rule:evenodd;fill:#E63164;}
	.st7{fill-rule:evenodd;clip-rule:evenodd;fill:#4C4443;}
	.st8{fill:#212121;}
	.st9{fill-rule:evenodd;clip-rule:evenodd;fill:#3CAF37;stroke:#23751C;stroke-miterlimit:10;}
	.st10{fill-rule:evenodd;clip-rule:evenodd;fill:#0067B8;}
	.st11{fill-rule:evenodd;clip-rule:evenodd;fill:#661D32;}
	.st12{fill:#002F6C;}
</style>
<path class="st0" d="M83.5,72c-1.6-0.6-9.9-4.2-23.7-1C45.6,73.8,33,81.7,24.1,93C14,105.9,3.9,134.7,16,153.6
	c3.9,6.2,10.4,10.3,17.6,11.1c0.9,0.1,4.9-12.6,14-15.3c-0.5-1.9-1.4-3.8-2.5-5.4c-0.2-1.9,76.7-10.9,103.4-10.9
	c5.6-21.1,5.5-42.5,4.8-64c-4.2,0.1-8.4-0.1-12.6-0.4c-2.3-0.3-13.1,29.3-16.2,32.5c0,0-0.1,0-0.1,0c-0.6-0.6-11.9-14.3-22.8-20.7
	C90.8,74,89.5,74.2,83.5,72z"/>
<path class="st1" d="M70.8,69.4c4.4,0,8.7,0.8,12.7,2.4c0,0.2,4.8,1.2,10.6,4.1c10.7,5.5,17.5,10.1,30.4,24.8
	c3.3-4.3,12.4-29.2,15.5-32.1c0.9-0.8,0-0.1,8.1,0c2.9,0,4.4,0,5.4,0c0.2,0,0.4,0.2,0.4,0.4c0.1,1.1,0.6,19.3,0.2,29
	c-0.3,11.4-1.9,22.7-4.5,33.7c-0.4,1.7-0.4,1.7-0.6,1.8l0,0c-0.4,0.3-0.4,0-9.5,0.4c0,0.1-29.1,1.2-74,7.1
	c-3.2,0.4-16.4,2.2-19.5,3.2c0.9,1.5,1.6,3.1,2.1,4.7c0.1,0.4,0.2,0.6-0.1,0.9l0,0c-0.7,0.6-5.8,0.5-12.1,12.1
	c-2.1,3.9-1.6,3.6-4.2,3.1c-6.1-1.2-11.6-4.6-15.3-9.7c-7.9-10.8-7.8-25.6-4.3-38.6c4.3-15.9,12.8-29,26.6-37.7
	C49.1,72.5,61.8,69.4,70.8,69.4z M63.3,70.6C43.2,74,27.9,85.3,19.4,101.2c-14.3,27-10.4,59.3,14.1,63c1.4-2,5.3-12.2,13.5-15.1
	c-0.5-1.6-1.2-3.1-2.1-4.4c-0.2-0.3-0.4-0.5-0.1-1c0.3-0.3,0.7-0.6,1.2-0.6c8.9-2.6,76.7-10.4,102.2-10.5
	c5.3-20.4,5.4-41.9,4.8-62.8c-4,0.1-8.1-0.1-12.1-0.5c-2.3,1.1-12.9,29.4-15.9,32.3c-0.2,0.1-0.4,0.2-0.6,0.1
	c-0.5-0.2-10.7-13-21-19.7c-4.1-2.6-8.4-5-12.9-7.1c-2.2-0.9-4-1.5-7.1-2.6l0,0l0,0C77,69.9,70,69.3,63.3,70.6z"/>
<path class="st2" d="M62.6,70.4c12.1-2.1,19.3,1,20.9,1.6c3.3,1.2,5.2,1.7,8,3c-1,10.5-0.8,4.6-3.2,39.3
	C80.8,101.2,66.7,77.5,62.6,70.4z"/>
<path class="st3" d="M74.6,69.5c3.6,0.3,7.2,1.2,10.5,2.6c2.2,0.7,4.5,1.5,6.6,2.4c0.9,0.5-0.2-0.3-2.1,29.9
	c-0.1,1.4-0.7,9.8-0.7,10c-0.1,0.3-0.3,0.5-0.6,0.5c-0.5-0.1-0.5-0.3-1.2-1.6c-0.1-0.1-23.8-41-24.7-42.8c0-0.1,0-0.3,0.1-0.3
	c0,0,0,0,0,0l0,0l0-0.1C66.5,69.4,70.6,69.2,74.6,69.5z M63,70.6c5.1,8.6,6.8,11,24.8,41.6c2.3-32,2.1-27,3.1-36.9
	c-1.8-0.8-3.8-1.5-5.7-2.1C81.5,71.8,75,68.7,63,70.6z"/>
<path class="st4" d="M84.4,107.5c0.1-3.2-0.3-16.2-0.3-18.3c0.9,0,1.8-0.2,2.7-0.3c0,0,1.4,3.2,2.6,6.7c-0.6,7.3-0.7,11.9-1.2,19.4
	l0,0l0-0.7C87.1,112.2,85.8,109.9,84.4,107.5z"/>
<path class="st4" d="M88.1,90.5c0.4,1,1.1,2.8,1.6,4.1c0.5,1.2,0.4,0.5,0.2,3.4c-0.3,3.7-0.6,10-1.1,16.7c0,0.4,0,0.7-0.5,0.8
	c-0.2,0-0.4-0.2-0.4-0.5h0v0l0,0l0-0.3h0c0-0.4,0.3,0.4-2.7-5.1c-1.1-2-1-1.8-1-2c0.2,0,0.4,0,0,0c0-3.7-0.5-12.3-0.6-16.8
	c0-1.7,0-1.7,0.2-1.9c0.3-0.2,0.3-0.1,0.8-0.2C87.7,88.3,86.9,87.5,88.1,90.5z M84.7,89.8c0,0.1,0.1,16.9-0.1,17.7
	c0.1,0.2,2.5,4.1,3.3,5.3c0.3-7.7,0.4-9.5,0.9-17.1c0.1,0-2.3-6-2.4-6.1C86,89.6,85.1,89.7,84.7,89.8z"/>
<path class="st2" d="M52.9,109.2c-0.1,2.7-0.4,5.4-0.9,8c-1,6.3-3.9,15-7.2,20.5c-0.6,1-1.3,2-2,3c-0.2,0.2-0.4,0.2-0.5,0.1l0-0.3
	l0.3,0c-0.1-0.1-0.2-0.1-0.3-0.1h0l0,0l0,0l0,0l0,0l0,0l0,0h0c0.8-0.8,5.5-9.7,8.4-22.8c2-8.8,1.3-8.2,1.9-8.7L52.9,109.2z"/>
<path class="st2" d="M123.2,97.7c0-0.2,0-0.1,0-0.2l0,0l0,0l0,0l0,0l0,0c1.6,1.8,3,3.9,4.1,6.1c0.4,0.8,0.6,1.6,0.7,2.5l-0.2,0.2
	l-0.2-0.2v0l0,0v0v0c-0.2-0.7-2.8-3.8-4.8-8.2c0,0-0.1-0.1-0.1-0.2v0l0,0v0c0,0,0-0.1,0-0.1l0,0l0,0l0,0l0.3-0.1l0,0L123.2,97.7z"/>
<path class="st4" d="M86.1,88.8c-1.5,0.4-1.7,0.7-2,0.4c-1.3-1.1-2.8-2.2-4.2-3.2c1.3-2.6,2.8-6.2,3.1-6.8c0.4,0.2,0.8,0.3,1.2,0.5
	c1.5,1.5,2.8,2.8,3.2,3.2C87.3,84.5,87.3,88.5,86.1,88.8z"/>
<path class="st2" d="M84.3,79.1c0.4,0.1,0.3,0.1,0.9,0.8c2.9,3,2.7,2.7,2.7,2.9c-0.1,1.7-0.3,3.5-0.8,5.2c-0.2,0.5-0.5,1-1,1.1l0,0
	c-2.6,0.8-1.5,0.9-3.4-0.5c-3-2.1-3.6-2-3.4-2.8c0.1-0.2,0,0.1,0.6-1.2l0,0c0.7-1.4,2.4-5.5,2.7-5.9C83,78.4,83.3,78.7,84.3,79.1z
	 M86.1,88.6L86.1,88.6L86.1,88.6L86.1,88.6L86.1,88.6L86.1,88.6L86.1,88.6c0.1,0,0.1-0.1,0.1-0.1c0,0,0,0,0,0l0,0l0,0
	c0.7-1,0.6-4,0.6-5.3c-0.1-0.1,0.2,0.2-0.8-0.8l0,0c-2.7-2.6-1.8-1.9-2.7-2.3c-0.2,0.5-1.5,3.5-2.3,5.1l0,0
	c-0.1,0.2-0.3,0.6-0.4,0.7c0.2,0.2,1.1,0.7,2.4,1.8c0.5,0.4,1,0.8,1.4,1.3l0,0l0,0l0,0l0,0l0,0l0,0l0,0l0,0l0,0l0,0h0h0h0h0h0h0l0,0
	C84.6,89,85.2,88.8,86.1,88.6L86.1,88.6L86.1,88.6z"/>
<path class="st2" d="M85.2,72.6c2.2,0.8,3.9,1.3,6.1,2.2c0.2,2.9,0.1,5.9-0.3,8.8c0,0.2-0.2,2.3-0.2,2.3c-0.5-0.2-1.1-1.2-1.6-1.6
	c-1.7-1.5-3.4-3-4.9-4.7c0.4,0.1,0.7,0.1,0.8,0C86.2,78.7,85.7,75.1,85.2,72.6z"/>
<path class="st1" d="M84.8,79.3L84.8,79.3L84.8,79.3L84.8,79.3L84.8,79.3L84.8,79.3c1.2-1.9,0-6.5,0.3-6.8l0,0c0,0,0.1,0,0.2,0l0,0
	c-0.1,0.2-0.1,0.4,0,0c2.1,0.6,4.1,1.2,6.1,2c0.5,0.2,0.4,0.4,0.5,1.6c0.1,2.4,0.1,4.7-0.3,7.1c-0.3,2.9-0.1,3.1-0.5,3.4l0,0
	c-0.8,0.4-1.4-0.8-2.2-1.5c-1.5-1.2-2.9-2.6-4.2-4c-1-1.1-0.9-1-1-1.2c0-0.3,0.2-0.5,0.4-0.6C84.4,79.1,84.5,79.2,84.8,79.3z
	 M85.4,80.1c0.8,0.8,2.4,2.4,3.5,3.3c0.5,0.4,0.9,0.8,1.3,1.2c0.3-2.6,0.5-5.1,0.6-7.7c0-0.2,0-1.5,0-1.7c-1-0.6-4.9-2-5.2-2.2
	C86,74.8,86.8,78.8,85.4,80.1L85.4,80.1z M84.7,79.3L84.7,79.3L84.7,79.3L84.7,79.3L84.7,79.3L84.7,79.3L84.7,79.3z M84.7,79.3
	L84.7,79.3z"/>
<path class="st2" d="M67.9,69.8c0.9,1.5,10.7,7.6,15.1,9.4c-0.4,0.8-3.1,7.6-4.6,9c-0.2,0.3-12-9.5-16.6-14.1
	c-0.8-0.9-1.6-2-2.2-3.1C62.3,70.4,65.1,70,67.9,69.8z"/>
<path class="st1" d="M68,69.6L68,69.6C68,69.6,68.1,69.6,68,69.6l0.1,0.1l0,0l0,0c0.9,1.4,11.8,7.6,12.2,7.6c3,1.6,2.9,1.3,3.1,1.6
	c0.1,0.2,0.2,0.4,0,0.6c-0.1,0.4,0.6-1.4-1.6,3.7c-0.4,0.9-2.4,5.4-3.3,5.7c-0.4,0-0.4-0.1-0.8-0.2c-1.3-0.7-8.5-6.9-9.5-7.8
	c-7.5-6.7-7.5-7-9-9.5c-0.1-0.1-0.1-0.3,0-0.5c0.1-0.2,0.3-0.2,0.6-0.3C62.5,70,65.3,69.7,68,69.6z M60.3,71.3
	c1.3,2,1.4,2.1,4.2,4.6c2.8,2.5,10.7,9.4,13.8,11.6c1.5-2.6,2.9-5.2,4-8c-2.8-1.4-5.5-3-8.2-4.7c-0.8-0.5-5.9-3.9-6.3-4.8
	C65.3,70.3,62.8,70.7,60.3,71.3z"/>
<path class="st2" d="M91.5,75c3.6,1.7,7,3.6,10.4,5.6c-1.8,4.3-3.2,7.7-6.9,15.2c-0.2,0.4,5.1,0.6,6,1.5
	c0.2,0.2-13.8,31.7-13.9,31.8c0,0.1,0,0.2-0.1,0.2c-0.1,0.1,0,0,0.1-0.2c0.5-3.2,2.5-36.9,3.7-47.9C91.1,79.1,91.3,77,91.5,75z"/>
<path class="st1" d="M97.3,77.6c0.1,0.1,4.8,2.6,5,2.8c0.1,0.2,0.1,0.1-0.7,2.2c-2.9,7-2.7,6.3-5.7,12.9c1.7,0.3,4.7,0.5,5.7,1.4
	c0.3,0.4,0.6-0.2-5.9,14.7c-7.6,17.2-7.6,17-7.6,17.1l0,0c-0.1,0.1-0.1,0.3-0.2,0.4l0,0c-0.1,0.1,0,0.3-0.3,0.6l0,0
	c-0.2,0.2-0.6,0.2-0.8,0.1l0,0c-0.2-0.2-0.3-0.4-0.2-0.7c0.7-2.2,1.7-28.1,4.6-52.7c0.2-1.6,0.1-1.8,0.4-1.8c0,0,0.1,0,0.1,0
	c-0.1,0.2-0.1,0.2,0,0C93.1,75.4,95.2,76.4,97.3,77.6z M91.7,75.4c-1.9,19.5-2.1,30.3-3.6,50c1-2.3,11.4-25.4,12.3-27.8
	c-0.9-0.4-4.5-0.7-5.4-1.1c-0.2-0.1-0.3-0.2-0.4-0.4c-0.2-0.7,0.6-0.6,6.9-15.3C98.3,78.8,95.1,77,91.7,75.4L91.7,75.4z"/>
<path class="st2" d="M87.9,120c-9.2-5.6-27.4-16.9-27.6-17.5c-0.4-1.3,7.1-8.2,6.9-8.6C67,93.4,51.5,77.3,48.7,74.4
	c4.5-1.8,9.2-3.1,13.9-4c4.1,7.1,18.1,30.8,25.7,43.8C88.2,116.3,88,118.2,87.9,120z"/>
<path class="st1" d="M60.1,103c-0.2-0.2-0.3-0.6-0.2-0.9c0.4-1.8,5.2-6.3,6.7-8.1c0-0.1,0.1,0,0-0.1c-1.8-2.1-10-10.5-12-12.6
	c-6.9-7.2-6.4-6.5-6.4-6.8c0-0.3,0.1-0.5,0.4-0.6c4.5-1.8,9.3-3.1,14.1-4c0.3,0,0.5,0.1,0.6,0.3c6.4,11.1,9.3,15.6,25.4,44
	c0.1,0.1,0.1-0.3-0.4,5.2c-0.1,0.7,0,0.8-0.2,0.9c0,0-0.1,0-0.1,0h0c0,0-0.1,0-0.1,0c0.1-0.1,0.2-0.4,0,0
	C85.6,118.9,61.9,104.7,60.1,103z M49.8,74.6c0.1,0.1,0.4,0.4,0.5,0.5c18.9,19.5,17.6,18.5,17.6,18.8c-0.1,0.6-0.7,1.1-3.9,4.5
	c-0.6,0.7-2.8,3-3.1,3.9c2.4,2,24.2,15.6,26.8,17.3c0-0.5,0.2-2.8,0.3-5.2c-0.1,0-21.3-35.6-25.7-43.2C58,71.9,53.8,73.1,49.8,74.6
	L49.8,74.6z"/>
<path class="st2" d="M89.1,120.6C89.1,120.6,89.1,120.6,89.1,120.6L89.1,120.6l0.1,0.1l0,0c0,0.1-0.1,0.7-0.2,1.7
	c-0.4,3.5-0.2,11.8-0.2,21l-0.2,0.3l-0.3-0.2c0-0.2-0.3-2.3-0.3-2.5c-0.6-5.3-0.7-10.6-0.1-15.9c0.1-0.4,0.2-1.8,0.3-1.9
	c0.1-0.8,0.3-1.7,0.6-2.5v0v0l0,0.1c0.1,0.2,0.1,0.2,0-0.2L89.1,120.6L89.1,120.6z"/>
<path class="st5" d="M90.3,133.6c-0.1-1,0-1.9,0.2-2.8c0.2-0.3,0.5-0.4,0.8-0.3c0.3,0.2,0.4,0.5,0.3,0.8c-0.1,0.7-0.1,1.5-0.1,2.2
	c0.1,0.3-0.2,0.7-0.5,0.7C90.7,134.3,90.4,134,90.3,133.6C90.3,133.7,90.3,133.6,90.3,133.6z"/>
<path class="st1" d="M55.3,200.3c-1.4,15.9-6,51.1-8.6,68.4c-0.7,4.7-0.7,4.5-0.9,4.8c-0.9,1-4.1,0.6-5.3,0.2
	c-0.6-0.2-0.8-0.3-0.9-0.9c-0.7-4.8,3.8-61.4,4-70.1c0-1.3,0-1.1-0.1-1.4c0.1-0.1,0.1-0.2,0.3-0.3c0,0,0.1,0,0.1,0
	c0.3,0.1,0.3,0.5,0.3,2.8c-0.3,15.3-3.8,64.2-3.3,68.7c1.3,0.5,2.7,0.6,4.1,0.3c0.4-0.3,9.1-64.7,10-72.5l0.3-0.2L55.3,200.3z
	 M43.8,201.5L43.8,201.5L43.8,201.5z"/>
<path class="st3" d="M262.1,189.1c-0.7,1.6,5.4,66.3,5.7,81c0.1,0.7,0,1.4-0.2,2.1c-0.5,0.7-3,0.9-4,0.9c-0.6,0-1.3-0.1-1.9-0.4
	c-0.5-0.4-0.4-0.4-0.9-3.4c-2.7-18-7.4-55.1-8.8-70l0.2-0.3l0.3,0.2c1.5,13.5,8.4,62.6,9.9,72.5l0,0l0,0c0.9,0.4,3,0.1,4.1-0.3
	c0.8-1.1-6.1-81.8-4.9-82.6l0,0l0,0C262,188.9,262.1,189,262.1,189.1z M261.7,189.3c0,0,0.1,0,0.1,0L261.7,189.3L261.7,189.3z"/>
<path class="st6" d="M196.5,272.8c0.2-0.2-0.1-15.4,0.3-18.8l0.3-0.2c0.3,0.3,0.2,0.2,0.2,0.4c-0.1,2.3,0.3,11.6,0.4,16.5
	c0,2.6,0.1,2.8-0.5,3.1c-1.3,0.2-2.5,0.3-3.8,0.3c-0.3,0-0.5-0.2-0.6-0.4c0-0.2,0-0.1,0-0.5c0-1.1,0-0.7,0-0.9
	c-1.2,0-18,4.2-21.8,4.2c-0.7,0-1.1-0.2-1.1-0.9c0-5.3,9-9.5,13.9-11.5V264c0.1,0,0-10.1,0.3-10.3l0,0c0,0,0.1,0,0.1,0h0
	c0,0,0.1,0,0.1,0l0,0l0.1,0.3l0,0c0,0,0,0,0-0.1v0c0,5,0.3,10.5,0.1,10.8c-3.2,1.4-6.2,3-9.1,4.9c-1.5,1-2.7,2.2-3.7,3.6
	c-0.4,0.6-0.7,1.3-0.7,2.1c1.8,0,7.9-1.3,9.7-1.7c12.5-2.7,12.8-2.9,13.2-2.2c0.1,0.5,0.1,1,0.1,1.5
	C194.7,273,195.6,272.9,196.5,272.8z M196.5,273.1L196.5,273.1L196.5,273.1L196.5,273.1z M196.5,273.1L196.5,273.1L196.5,273.1
	L196.5,273.1z M184,254c0.3,0,0.2,0,0.3-0.1L184,254z"/>
<path class="st6" d="M226.2,244.4c2.1,2.3,1.9,1.8,1.5,2.8c-1.8,3.5-4.2,9.6-3.9,13.6c0,0.9,0.3,1.8,0.9,2.6
	c0.8-0.7,1.5-1.5,2.1-2.3c3.2-3.9,3-4,3.1-4c8.4-11,8.7-11.9,9.6-11.5c0.4,0.3,0.7,0.7,1,1.1c0.7-0.6,1.3-1.2,1.9-1.8
	c-0.2-0.2,0.5,0.5-1.7-2c-1.1-1.3-9.4-10.9-10.3-12.3c-0.1-0.1-0.1,0,0-0.4c0.4,0.1,0.3,0,0.4,0.2c0.8,1.1,9.2,10.2,12.4,13.9
	c0.6,0.7,0.6,1-1.7,3.1c-0.8,0.7-0.9,0.9-1.4,0.8c-0.3-0.1-0.1,0-1.1-1.1c-0.4,0.3-3.8,5-8.3,10.9l0,0c-0.7,0.9-2.3,3-2.9,3.7l0,0
	c-0.7,0.9-1.5,1.8-2.4,2.7c-0.5,0.4-1,0.8-1.5,0.4c-0.5-0.5-0.9-1.2-1.1-1.9c-1.3-3.7,1.2-10.3,2.9-13.8c1.2-2.6,1.2-2.2,1.1-2.4
	l0,0c-6.7-8-6.6-7.9-6.5-8l0,0c0-0.1,0-0.1,0.1-0.1l0,0c0,0,0,0,0.1,0l0,0l0.3,0.2C220.9,238.4,220.1,237.6,226.2,244.4z
	 M242.6,245.1L242.6,245.1L242.6,245.1L242.6,245.1z M242.6,245.1L242.6,245.1L242.6,245.1L242.6,245.1z M220.7,238.8
	c0.2-0.2,0.2-0.1,0.2-0.3L220.7,238.8z"/>
<path class="st1" d="M96.5,229.8c0.9,13.3,2.4,35.9,3.3,45.3l0,0l0,0c1.3,0.4,2.7,0.4,4,0c0.9-0.2,0.7-65.9,1.6-71.1
	c0.1-0.6,0.5-0.5,0.6-0.1c-0.1,0.2-0.2,0.4-0.2,0.6c-0.5,6.1,0.2,60.3-0.7,70c-0.1,0.6-0.1,1.3-0.5,1.5c-1,0.4-2.1,0.6-3.2,0.5
	c-0.1,0-0.4,0-0.5,0c-0.9-0.1-2-0.2-2.4-1c-0.5-1.2-3.9-53.3-4.4-73.5C95,201.2,94.4,200.4,96.5,229.8z M105.6,204L105.6,204
	L105.6,204L105.6,204z"/>
<path class="st3" d="M212,200c-0.4,18.6-3.8,72.8-4.5,73.7c-0.8,1.1-4,0.9-5.3,0.5c-0.6-0.2-0.8-0.3-1-0.8c-1-4.7-0.3-68.1-0.8-71.3
	c-0.2-0.3-0.2-0.2-0.1-0.3c0.1-0.3,0.5-0.4,0.6,0.2c0.9,4.4,0.7,66.3,1.5,71.2c1.3,0.4,2.8,0.4,4.1,0c0.2-0.2,4.4-59.1,5-73l0.2-0.2
	L212,200z M200.7,201.9L200.7,201.9L200.7,201.9L200.7,201.9z"/>
<path class="st7" d="M108.3,260.6c0.2-0.2-3.5,7.3-3.1,7.6c1.3,1.2,16.8,13.5,21.1,14.2c0.4,0.1,1.4-2-0.2-4.4
	c-1.1-1.7-7.7-13-8.5-13.2"/>
<path class="st7" d="M117.5,265.1L117.5,265.1L117.5,265.1L117.5,265.1L117.5,265.1L117.5,265.1L117.5,265.1L117.5,265.1
	L117.5,265.1L117.5,265.1l-0.2-0.3l0,0l0.3-0.2c0.5,0.2,2,2.4,2.3,2.9c1.2,1.7,6.4,9.8,7,10.9c0.7,1.3,0.8,2.9,0,4.3
	c-0.3,0.4-0.6,0.5-1.4,0.2c-5.7-1.9-20.5-13.9-20.8-14.5c-0.2-0.7,0.9-2.8,2.6-6.3c0.8-1.6,0.6-1.3,0.7-1.5l0,0c0,0,0,0,0,0v0v0
	c0,0,0,0,0,0.1v0.1l0.1,0.1l0,0c0-0.4,0-0.4,0.1-0.4l0,0c0,0,0.1,0,0.1,0l0,0l0,0c0,0,0,0,0.1,0.1l0,0c0,0,0.1,0.1,0.1,0.1v0
	c0,0.1,0,0.1,0,0.2l0,0c-0.2,0.6-2.5,5.6-2.8,7c-0.1,0.3-0.3,0.1,1.5,1.5c3.7,2.9,12.7,9.6,16.8,11.7c0.7,0.4,1.3,0.6,2.1,0.9l0,0
	l0,0c0.3-0.9,0.3-1.8-0.1-2.6C125.8,278.7,119.7,268,117.5,265.1L117.5,265.1L117.5,265.1L117.5,265.1L117.5,265.1L117.5,265.1z
	 M105.6,268.1L105.6,268.1L105.6,268.1L105.6,268.1L105.6,268.1L105.6,268.1L105.6,268.1L105.6,268.1z M108.3,260.8l0.1,0
	c0,0,0,0,0.1,0C108.1,260.7,108.1,260.7,108.3,260.8L108.3,260.8z"/>
<path class="st7" d="M132.7,270.4c0-0.3,2.2,7.8,2.7,7.8c1.8,0,21.5-1,25.2-3.3c0.3-0.2-0.3-2.4-3.1-3.2c-1.9-0.5-14.3-4.6-15.1-4.2
	"/>
<path class="st7" d="M132.4,270.5c0.1,0.1,0,0.1,0.2,0.1h0l-0.2-0.2c0,0,0,0,0-0.1l0,0c0,0,0,0,0-0.1l0,0l0,0c0,0,0,0,0.1,0l0,0
	c0,0,0.1,0,0.1,0l0,0c0.1,0,0.1,0,0.1,0.1c0.1,0.2,1.8,5.6,2.6,7.2c0.1,0.3,0.1,0.2,0.2,0.3c0.1,0.1,19.9-1.2,24.5-3.2l0,0l0,0v0
	c0,0,0,0,0-0.1v0l0,0v0c0,0,0-0.1-0.1-0.1c-0.4-0.8-1.2-1.5-2.1-1.8c-0.1,0-14.6-4.9-15.3-4.7l0,0h0h0l0,0h0h0h0l0,0l-0.3-0.1l0,0
	c0.1-0.3,0.1-0.4,0.3-0.4c1.1-0.3,14.9,3.8,16,4.2c2.4,1.1,3.1,3.1,2.6,3.8c-0.8,0.6-1.7,0.9-2.6,1.1c-5,1.4-16.4,2.2-22.2,2.4
	c-1.2,0-1.3,0.1-1.8-0.9C133.8,275.7,132.6,270.7,132.4,270.5C132.5,270.6,132.5,270.5,132.4,270.5L132.4,270.5L132.4,270.5z
	 M135.6,277.8L135.6,277.8L135.6,277.8L135.6,277.8L135.6,277.8L135.6,277.8L135.6,277.8L135.6,277.8L135.6,277.8z M132.7,270.6
	c0.2,0,0.1,0,0.2-0.1C132.9,270.4,132.9,270.4,132.7,270.6z"/>
<path class="st3" d="M151.5,53.3c0.6,0.1,1,0.4,1.3,0.9c0.1,0.3,0.2,0.6,0.3,1c0.3,2.5-1,11.8-1.5,13.2c-0.1,0.1-0.1,0.2-0.2,0.2
	l-0.3-0.2l0.2-0.3l0,0l0,0c-0.1,0.1,0,0-0.1,0.1l0,0v0l0,0l0,0l0,0l0,0v0c0.6-4,1-8.1,1-12.1c0-0.6-0.1-1.2-0.4-1.7l0,0
	c-0.1-0.1-0.1-0.1-0.2-0.1h0h0l0,0l0,0h0l0,0l0,0c0,0,0,0-0.1,0c-0.6,0.8-1,1.7-1.2,2.7c-0.1,0.6-0.2,1.7-0.3,1.9
	c-0.1,0.3-0.5,0.4-0.8,0.2c-0.2-0.1-0.3-0.2-0.3-0.4c0-1.9,0.1-1.5,0.1-2.2l0,0c0-0.4,0.1-1.2,0.1-1.6c0.1-1,0.1-1.4,0.1-1.6
	c0.1-0.6,0-1.2-0.3-1.8l0,0v0l0,0v0l0,0v0l0,0l0,0l0,0l0,0l0,0l0,0h0l0,0h0l0,0c0,0,0,0,0,0h0c-0.1-0.1-0.2,0-0.3,0.1
	c-0.9,0.8-1.1,2.9-1.2,4.1c0,0.6,0,1.1-0.1,1.7c0,0.5,0.1,0.8-0.3,1.1c-0.2,0.1-0.6,0.1-0.8-0.1c-0.1-0.1-0.2-0.3-0.2-0.5
	c0-0.2,0-0.4,0-0.6c0-0.5,0-1,0-1.6c0.2-2.1,0-4.3-0.6-6.4l0,0c0,0,0,0,0,0v0l0,0v0l0,0v0l0,0l0,0h0l0,0h0l0,0h0l0,0l0,0l0,0h0
	c-0.2,0-0.4,0.1-0.5,0.3c-0.3,0.7-0.5,1.4-0.4,2.2c-0.1,0.6-0.2,1.3-0.2,1.9c-0.2,5,0,5.9-1,6.1l0,0c-0.4,0-0.6-0.2-1.2-0.3
	c-0.4-0.1-0.9-0.1-1.4-0.1c-0.5,0-0.9,0.1-1.3,0.3h0v0l0,0l0,0l0,0l0,0l0,0l0,0l0,0l0,0l0,0l0,0v0l0,0l0,0l0,0v0v0v0v0v0.1v0v0v0v0
	l0,0v0l0,0l0,0v0l0,0v0l0,0c0,0.1,0.2,0.4,0.7,0.7c0.3,0.2,1.9,1.2,1.7,1.1c0.2,0.2,1.1,0.2,1.2,0.9c0.1,0.8-0.5,4.9-0.3,5.5
	c0,0.2,0.1,0.3,0,0.5l0,0c0,0-0.1,0.1-0.1,0.1c-0.2,0-0.2-0.1-0.2-0.3l-0.1,0v0v0v0c-0.2-1,0.1-3.5,0.1-5.8
	c-0.3-0.1-0.5-0.2-0.8-0.3c-1.3-0.7-3.2-1.6-3-3c0.2-0.6,0.7-1,1.3-1.1c1-0.2,2.1-0.2,3.1,0.1c0.1-1.2,0.1-5.5,0.3-6.9
	c0-1,0.2-1.9,0.6-2.8c0.4-0.7,1.3-1,2-0.7c0.9,0.5,1.1,2,1.3,3.4c0.3-0.8,1.2-1.2,2.1-1c1.2,0.4,1.3,2.1,1.2,3.4
	c0,0.5-0.1,0.3,0.3,0C150.7,53.5,151.1,53.3,151.5,53.3z M141.9,62.6L141.9,62.6z M141.9,62.6L141.9,62.6L141.9,62.6L141.9,62.6
	L141.9,62.6z M142.9,58.4L142.9,58.4z M142.9,58.4L142.9,58.4z M142.9,58.4L142.9,58.4z M142.9,58.4L142.9,58.4z"/>
<path class="st6" d="M215.2,44.7c0,0,1.6-1.9,2.3-2.1c0.7-0.1,1.4-0.2,2-0.1c2.1,0.4,2.9,4,2.5,5.7c-0.5,1.2-1.5,2.2-2.8,2.5
	c-0.2,0-1.7,0.2-1.7,0.2s-2.8,2.9,0.5,7.3c0.3,0.4-5.6,0.1-6.5,3.8c-1.2,4.4,5.5,3.5,5.5,3.6c0.1,0.1-3.6,7.5-1.4,9.6
	c2.8,2.8,7.3-2.7,7.3-2.6c0.1,0.1,1.2,3.2,1.5,3.7c1.4,2.7,3.9,3.3,7,2.5c3.4-0.9,2.4-6.2,2.4-6.2s3.8,4.4,8.8,3.1
	c1.1-0.4,1.7-1.4,1.6-2.5c0-1.5-2.9-5.6-2.7-5.6c0.4,0,9.1,1.1,10.9-2c1.1-2.1,1-4.4-1.2-5.6c-1.8-0.8-3.6-1.4-5.5-2
	c1.2-0.4,2.3-1,3.4-1.7c2.1-2.1,2.2-3.8,1-5.9c-0.7-1.2-3.1-1-4.4-1c-0.2,0-1.4,0.4-1.6,0.2c-0.1-0.1,0.9-1.5,1.1-1.9
	c0.4-1,0.4-2.2,0-3.2c-0.8-1.4-2.1-2.4-3.6-2.8c-0.5-0.1-2.2,0.1-2.2,0.1c1.5-3-1.6-8.5-5.9-7c0.8-1,1.4-2,2-3.1
	c0.7-2.2,0.2-4.6-1.5-6.2c-1.8-1.8-5.4-1.9-7.6-1c-0.6,0.3-1.8,1.4-2.4,1.4c0.6-1,1-2.1,1.3-3.2c-0.1-2.1-1.5-4-3.4-4.7
	c-4.2-1.9-8.6,1.9-11.9,4.7c0.3-1-0.1-2.1-1-2.6c-1.8-1.3-5.8-2.7-8-2.1c-1.3,0.3-2.1,1.6-1.8,2.9c0,0.1,0.1,0.3,0.1,0.4
	c0.6,0.8,1.2,1.4,1.9,2c-1-0.9-1.9-1.7-2.3-2c-3.2-2.1-6.4-2.9-10-1.2c-1.4,0.6-3.9,2.4-3.6,4.1c0.2,0.9,3.4,1.7,3.2,1.7
	c-0.3,0.1-2.1,0.1-2.6,0.2c-2.3,0.3-7.2,2.2-6.7,5.3c0.4,1.3,1.6,2.3,2.9,2.5c0.1,0,1.7,0.1,1.7-0.1c0,0-0.9,0.5-0.9,0.5
	c-0.5,0.4-0.9,0.8-1.3,1.3c-1.3,1.6-1.7,3.7-1,5.6c0.5,1.6,2.3,3.1,4.1,2.5c0.7-0.3,1.4-0.8,1.9-1.4c0,0,0.8-0.7,0.9-0.6
	c0.1,0.2-0.4,1-0.5,1.1c-0.4,0.7-0.2,1.6,0.5,2.1c0.2,0.1,0.4,0.2,0.7,0.2c0.8,0,1.6-0.3,2.2-0.8c1.8-1.4,3.1-3.3,3.8-5.5
	c0.3-0.8,0.7-3.7,0.8-3.5c0.3,1.1,0.8,3.1,1.6,4c1.6,1.6,4.4,2.7,6.7,1.9c0.9-0.3,1.8-0.8,2.5-1.4c0.2-0.2,0.7-0.8,1-0.8
	c0.5,1.6,1.3,3.1,2.5,4.3C211.4,45.1,215.2,44.7,215.2,44.7z"/>
<path class="st6" d="M240.3,40.3c0,0.3-0.1,0.6-0.1,0.9c1-0.2,2.1,0,2.9,0.6c1.1,0.6,2.1,1.6,2.6,2.8c0.3,0.9,0.4,1.8,0.1,2.8
	c-0.2,0.5-0.4,1.1-0.7,1.5l0,0c0.1,0,0.2,0,0.3-0.1s1.5-0.1,2.2,0c1.4,0.1,2.4,0.4,3,1.5c1,1.5,1,3.5,0,5c-0.4,0.6-0.8,1.1-1.3,1.5
	c-0.6,0.4-1.3,0.8-2,1.1c1,0.3,2.4,0.8,3.5,1.2c0.8,0.3,1.4,0.8,1.9,1.4c1.2,1.7,1.2,3.9,0,5.5c-1.8,2.6-7.1,2.5-10.3,2.2
	c0.7,1.1,2.2,3.5,2.3,4.8c0,2.7-1.5,3.5-4.2,3.4c-1.6-0.1-3.1-0.5-4.4-1.4c-1.8-1.1-1.7-1.3-1.7-1.1c0,0.8-0.1,1.5-0.2,2.3
	c-0.2,1.1-1,2.1-2,2.7c-1.3,0.5-2.7,0.7-4.1,0.6c-1.4-0.2-2.7-0.9-3.6-2.1c-0.8-1.3-1.4-2.6-1.8-4c-1,1-2.1,1.9-3.3,2.5
	c-0.8,0.5-1.8,0.6-2.7,0.4c-3.9-1-1.9-6.6-0.3-10.3c-3.1,0.1-5.9-0.8-5.3-3.8c0.7-3,3.5-3.7,6.4-4.2c-1.3-1.6-1.7-3.7-1.2-5.6
	c0.2-0.7,0.5-1.3,1-1.8l0,0c0.2-0.1,1.6-0.2,2-0.3c1-0.4,1.8-1,2.3-1.9c0.7-1.2,0-4.6-1.6-5.5c-0.8-0.3-1.6-0.4-2.4-0.2
	c-0.1,0-0.2,0-0.2,0.1c-0.6,0.4-1.1,0.9-1.6,1.5l0,0c-0.4,0.4-0.3,0.4-0.4,0.4l0,0l0,0c0,0,0,0,0,0v0c0,0.2-0.5,0.2-0.9,0.2
	c-4.6,0.2-6.8-1.7-8.1-5.6l0,0c0,0-0.1,0.1-0.1,0.1c-0.2,0.2-0.4,0.4-0.6,0.6c-2.2,2.1-5.6,2.3-8.1,0.6c-1.4-0.8-2.4-2.1-2.7-3.7
	c-0.3,1.8-0.9,3.4-1.8,4.9l0,0c-0.8,1.4-2,2.5-3.3,3.3c-0.7,0.5-1.7,0.6-2.5,0.2c-0.3-0.1-0.5-0.4-0.7-0.6l0,0
	c0-0.1-0.1-0.1-0.1-0.2c-0.1-0.2-0.1-0.4-0.2-0.7c0-1,0.4-0.9-0.5-0.1c-1.9,1.5-5,0.6-5.9-2.9c-0.6-2.3,0.2-4.8,2-6.3
	c-2.3-0.3-4.2-2.6-3-5c1-2,3.9-3.3,6-3.7c1-0.2,1.1-0.1,1-0.1c-0.4-0.2-0.8-0.5-1.1-0.8c-0.5-0.8-0.1-1.9,0.5-2.7
	c0.7-0.9,1.7-1.7,2.7-2.2c2.6-1.5,5.8-1.6,8.6-0.4c2.1,0.9,1.8,1.2,1.8,0.6c0.1-0.9,0.5-1.6,1.2-2.1c2.2-1.5,6.1-0.3,8.4,0.9
	c1.1,0.5,2,1.4,2.4,2.5c2.2-1.7,4.4-3.5,7.2-4.2c2.4-0.7,5,0.1,6.7,2c0.5,0.5,0.9,1.1,1.1,1.8c0.3,0.6,0.4,1.3,0.3,2
	c-0.1,0.4-0.2,0.9-0.4,1.3c-0.2,0.6-0.2,0.2,0.9-0.3c1.5-0.6,3.2-0.7,4.8-0.4c1.6,0.2,3,1.1,3.9,2.4c1.2,1.6,1.6,3.8,1,5.7
	c-0.3,0.8-0.8,1.6-1.3,2.3C238,33.9,240.5,37.3,240.3,40.3z M188.5,26.5c-1.3,0.3-3-0.3-6.3,1.3c-0.8,0.4-1.5,0.9-2.1,1.6
	c-0.6,0.6-0.7,1.5-0.5,2.3c0.5,0.9,1.4,1.6,2.4,1.8c0.4,0,0.8,0.1,1.2,0c0.2-0.1,0.4-0.2,0.6-0.1l0,0c0.1,0,0.1,0.1,0.2,0.1l0,0
	c0.1,0.1,0.1,0.1,0.1,0.2l0,0c0.1,0.7-0.7,0.6-1.6,1.4c-0.4,0.4-0.8,0.9-1.2,1.3c-0.2,0.4-0.4,0.8-0.6,1.2c-0.4,1.3-0.3,2.7,0.3,3.9
	c0.4,0.7,0.9,1.3,1.7,1.6c2.3,1,3.5-2,4.6-2c0.3,0,0.5,0.3,0.4,0.7c-0.1,0.6-0.7,1.1-0.7,1.8v0v0v0v0v0v0c0,0,0,0.1,0,0.1l0,0l0,0
	l0,0v0l0,0v0l0,0.1l0,0l0,0l0,0l0,0l0,0l0,0c0.9,1.1,2.3,0.2,3.4-0.7c0.7-0.6,1.3-1.3,1.8-2.1l0,0c1.9-3.2,1.6-4.6,2-6.2
	c0-0.2,0.2-0.3,0.4-0.3c0,0,0,0,0.1,0l0,0c0,0,0.1,0,0.1,0l0,0l0,0c0.1,0.1,0.1,0.1,0.3,1c0.1,0.4,0.2,0.9,0.4,1.2
	c0.2,0.9,0.7,1.6,1.4,2.2c0.9,0.8,2,1.3,3.1,1.5c1.7,0.3,3.4-0.1,4.7-1.2c0.9-0.6,1.2-1.4,1.7-1.3c0.3,0.1,0.2,0.6,0.9,2
	c0.4,1,1.1,1.9,2,2.6c1.6,1,3.5,1.4,5.4,1.2c0.1,0,0,0.1,0.4-0.4l0,0c0.5-0.7,1.2-1.2,1.9-1.7c0.7-0.2,1.4-0.2,2.1-0.1
	c2.1,0.4,3,3.3,2.9,5.4c0,0.5-0.1,0.9-0.4,1.3c-0.6,1.1-1.7,1.8-2.9,2.1c-0.3,0.1-1,0.1-1.3,0.2l0,0l-0.1,0h0
	c-0.9,1.2-1.2,2.9-0.7,4.3c0.6,2,1.9,2.5,1.2,3c-0.7,0.4-5.5,0.3-6.4,3.6c-0.4,1.1,0.2,2.2,1.2,2.6c0.1,0,0.2,0.1,0.3,0.1
	c1.2,0.3,2.4,0.4,3.7,0.3c0.1,0,0.3,0.1,0.3,0.2l0,0c0.1,0.2,0.1,0.2-0.2,0.9c-0.8,1.9-2.4,6.2-1.6,8.1c0.2,0.4,0.5,0.7,0.9,0.9
	c1.2,0.7,2.8-0.2,4-1c2.1-1.7,2-2.3,2.7-2.1l0,0c0.1,0,0.1,0,0.1,0.1c0.2,0.2,1.3,3.1,1.6,3.8c0.1,0.3,0.3,0.6,0.5,0.8
	c1.5,1.9,3.6,1.9,5.9,1.3c2.1-0.6,2.3-3.4,2-5.6c-0.1-0.3,0.1-0.6,0.4-0.6c0.2,0,0.4,0,0.5,0.2c1.8,2.1,4.4,3.2,7.2,3.1
	c0.6,0,1.1-0.2,1.6-0.5c0,0,0.1-0.1,0.1-0.1c0.3-0.4,0.5-0.9,0.4-1.5c-0.1-0.8-0.4-1.6-0.9-2.2c-1.4-2.7-2-3-1.8-3.7
	c0.4-0.7,0.6-0.1,4.3-0.1c1.9,0.1,3.8-0.3,5.6-1c0.7-0.4,1.2-1,1.3-1.7c0.7-2.1,0-3.5-1.6-4.2c-0.8-0.4-1.9-0.7-2.8-1
	c-2.6-0.8-2.4-0.7-2.6-1c-0.2-0.2-0.1-0.5,0-0.7c0.1-0.2,0.1-0.1,0.7-0.4c0.9-0.4,1.9-0.8,2.7-1.3l0,0c0.8-0.8,1.4-1.8,1.6-2.9
	c0-0.4,0-0.8-0.2-1.2c-0.1-0.4-0.3-0.8-0.6-1.2c-0.5-0.7-2.9-0.6-3.7-0.5c-0.2,0-0.9,0.2-1.3,0.3c-0.8,0.1-1-0.5-0.9-0.9
	c0.2-0.5,0.8-1.3,1.2-2.2c0.1-0.2,0.1-0.4,0.1-0.7c0.1-0.7-0.1-1.4-0.5-2c-0.6-0.8-1.3-1.4-2.2-1.8c-0.9-0.4-0.9-0.2-2.7-0.1
	c-0.3,0-0.6-0.1-0.7-0.4c0-0.1-0.1-0.1,0-0.3c0.2-0.4,0.3-0.7,0.3-1.1c0.1-1.5-0.4-2.9-1.4-4c-0.9-1.1-2.3-1.5-3.7-1.2
	c-0.5,0.1-0.6,0.3-1,0c-0.2-0.2-0.3-0.5-0.2-0.8c0.7-0.9,1.4-1.9,2-3c0.1-0.3,0.2-0.7,0.3-1.1c0.1-0.6,0-1.2-0.1-1.8
	c-0.9-3.3-3.8-4.5-7.1-3.9c-1.6,0.3-1.7,0.8-2.9,1.5c-0.3,0.2-0.6,0.3-0.9,0.4c-0.3,0.1-0.7-0.1-0.7-0.5c0-0.1,0-0.2,0-0.3
	c0.5-1,0.9-2,1.2-3.1v0c-0.1-1.7-1.1-3.3-2.7-4c-3.9-2-8,1.4-11.3,4.1c-0.4,0.3-0.5,0.5-0.9,0.4c-0.3-0.1-0.5-0.4-0.4-0.8
	c0,0,0,0,0,0c0.2-0.6,0-1.2-0.4-1.7c-1.6-1.5-6.6-3.3-8.6-1.9c-0.6,0.5-0.9,1.4-0.5,2.1l0,0l0,0c0.1,0.1,0,0,0.5,0.6
	c1.3,1.3,1.4,1.2,1.5,1.6c0,0.3-0.1,0.5-0.4,0.6c-0.2,0.1-0.5,0-0.7-0.2c-1.5-1.3-2-2.1-4.1-3c-1.4-0.7-3-1-4.6-0.9
	c-3.1,0.3-5.6,2.3-6.1,3.6c-0.1,0.2-0.1,0.4-0.1,0.7v0v0v0v0v0v0l0,0c0.3,0.5,2.4,1.2,2.8,1.3c0.3,0.1,0.5,0.4,0.4,0.7
	C188.9,26.3,188.7,26.4,188.5,26.5z M215.5,44.6C215.3,44.6,215,44.7,215.5,44.6L215.5,44.6L215.5,44.6z"/>
<path class="st6" d="M197.7,77.5c-3.4-1-3.2-2.8-4.5-3.8c-0.1-0.1-3.2,3.8-7.6,0.3c-1.4-1.1-1.4-2.9-1-4.5c0.3-0.5,0.5-1.1,0.7-1.6
	c0,0-0.6,0.3-0.6,0.3c-0.6,0.2-1.1,0.3-1.7,0.4c-1.8,0.2-3.6,0.1-4.3-1.9c-1.1-3.4,2.1-5.8,4.8-7.1c1.6-0.8,1.4-1.1,3.6-1.4
	c0,0-1.2-0.2-1.7-0.3c-1.1-0.2-2.2-0.8-2.9-1.7c-0.9-1.4,0.3-3.1,1.3-4.1c1.6-1.5,3.8-2.3,6-2.1c2,5.9,4.9,13.9,10.5,16.5
	c1.5,0.7,4.1,1.1,4.3,1.3c0.4,0.4,0.7,5.1,0.4,5.4C203.9,74.3,199.1,76.8,197.7,77.5z"/>
<path class="st6" d="M189.4,49.5c0.9,0,0.8,0.1,1.1,1.2c1.4,4.1,3.6,9.7,6.6,12.9c2.8,3.1,5.2,3.2,7.4,3.8c0.3,0.1,0.5,0.2,0.6,0.5
	c0.4,1.7,0.5,3.5,0.3,5.3c-0.1,0.3-0.2,0.4-0.6,0.7c-1.6,1-3.2,1.9-4.8,2.7c-1.6,0.8-2.4,1.2-2.3,1l0,0c-3.2-0.9-3.3-2.4-4.4-3.6
	c-0.2-0.2-3.2,3.8-7.9,0.2c-0.9-0.7-1.4-1.8-1.4-3c0-0.7,0.1-1.5,0.3-2.2c0.2-0.5,0.4-0.2-1.7,0c-1.9,0.2-3.5-0.2-4.2-2
	c-1.2-3.3,0.8-5.8,3.9-7.5c0.8-0.4,1.1-0.6,1.6-0.8c0.5-0.3,0.6-0.3,0.8-0.5c-3.9-1.3-4-3.9-1.2-6.7C185,50.2,187.2,49.4,189.4,49.5
	z M185.6,67.5c0.8,0.4-0.1,1.4-0.4,2.1c0,0.1,0,0.1,0,0.1c0,0.1-0.7,2.1,0.3,3.5c0.7,0.8,1.6,1.5,2.7,1.8c1.5,0.4,3,0.1,4.2-0.9
	c0.7-0.5,0.7-0.7,1-0.6c0.5,0.2,1.2,1.4,1.7,2.1c0.3,0.5,0.7,0.8,1.2,1.1c0.5,0.3,1,0.5,1.5,0.6c1.3-0.7,5.8-3.1,7-4.1
	c0.1-0.8,0.1-1.7,0-2.5c0-0.3-0.2-2.3-0.4-2.3c-2.6-0.7-6.2-0.8-10-6.6c-2.1-3.5-3.8-7.1-5-11c-1.3,0-2.5,0.3-3.7,0.9
	c-0.8,0.5-1.6,1.1-2.1,1.9c-0.6,0.6-0.8,1.4-0.7,2.2c0.1,0.2,0.1,0.3,0.3,0.5c0.7,0.7,1.6,1.1,2.5,1.3c1.7,0.4,1.8,0.1,2.1,0.6
	c0.1,0.3,0,0.6-0.2,0.7c-0.2,0.1-0.2,0.1-0.6,0.2c-0.7,0.1-1.4,0.3-2,0.6c-2.2,1.2-5.2,2.5-5.8,5.2c-0.1,0.7,0,1.4,0.3,2.1
	c0.7,1.5,2.5,1.4,4.1,1.1c0.5-0.1,1.1-0.2,1.5-0.5C185.2,67.4,185.4,67.4,185.6,67.5z M204.2,68.3L204.2,68.3L204.2,68.3L204.2,68.3
	z M204.2,68.3L204.2,68.3L204.2,68.3z M204.2,68.3L204.2,68.3L204.2,68.3L204.2,68.3z M184.9,67.9L184.9,67.9z"/>
<path class="st3" d="M219,41.9c0.7,0,1.3,0.2,1.8,0.6c1.6,1.6,2.3,4,1.6,6.2c-0.6,1.2-1.7,2.1-3,2.5c-0.3,0.1-0.9,0.1-1.6,0.2h0
	c-0.7,0.9-1,2-0.8,3.1c0.2,1.2,0.7,2.4,1.5,3.4c0.2,0.3,0.1,0.7-0.2,0.9c-0.1,0-0.2,0.1-0.3,0.1c-0.8,0.2-4,0.4-5.4,2.1
	c-0.7,0.9-1.1,2.4-0.2,3.2c0.9,0.6,1.9,0.9,2.9,0.8c1.6,0.1,1.8-0.3,2.2,0.3c0.1,0.2,0.1,0.4,0,0.5c-1,2.2-1.7,4.5-2,6.8
	c-0.1,0.6,0,1.3,0.3,1.9c0.2,0.3,0.4,0.5,0.7,0.6c1.1,0.5,2.4-0.1,3.4-0.8c1.9-1.3,2.2-2.2,2.8-2.4l0,0c0.1,0,0.2,0,0.3,0l0,0
	c0.3,0.2,0.4,0.3,0.6,0.9c0.9,2.4,1.2,3.4,2.1,4.3c0.6,0.7,0.9,0.5,1,1c0,0.4-0.2,0.5-0.7,1c-1.4,1-2.8,1.8-4.3,2.6
	c-5.3,2.5-11.1,3.5-16.6,1.5c-2.8-1-4.5-2.3-7.1-4.4c-0.1-0.1-0.9-0.7-1-0.8c-0.2-0.2-0.2-0.5,0-0.7c0.2-0.3,5.7-2.8,7.7-4.4
	c0.1-1.1,0.1-2.2-0.1-3.3c0-0.5-0.1-0.9-0.2-1.4c-0.5-0.2-1.8-0.4-3-0.8c-6.9-2.2-10-11.8-12.3-18.8c-0.4-1-0.6-2.1-0.8-3.2
	c0-0.3-0.1-0.3,0-0.4l0,0c0,0,0,0,0.1-0.1l0,0c0,0,0.1,0,0.1,0l0,0c0.1,0,0.2,0,0.3,0l0,0c0.5-0.1,1-0.4,1.5-0.7
	c0.9-0.6,1.7-1.4,2.3-2.4c0.7-1,1.2-2.2,1.6-3.3c0.2-0.7,0.6-3,0.7-3.3c0-0.1,0.1-0.2,0.2-0.2l0,0c0,0,0.1,0,0.2,0l0,0
	c0,0,0.1,0,0.1,0l0,0c0.5,0.2,0.6,3,1.9,4.2c1,0.9,2.1,1.5,3.4,1.7c1,0.2,2,0.1,3-0.3c2.7-1.1,2.7-2.5,3.6-2.2
	c0.3,0.2,0.2,0.3,0.6,1.1c0.3,0.9,0.8,1.8,1.4,2.5c0.6,0.8,1.4,1.3,2.4,1.6c1.2,0.4,2.4,0.5,3.6,0.4c0.3,0,0.2,0,0.5-0.3
	C216.8,42.1,217.2,41.9,219,41.9z M194.9,36.9c-0.4,2.4-1.4,4.7-3.1,6.5c-0.8,0.9-1.9,1.6-3.1,2l0,0c-0.1,0-0.1,0-0.1,0.2
	c1,3.9,2.4,7.8,4.1,11.5c1.5,3.1,3.3,6.4,6.4,8.5c1.7,1.2,3.3,1.4,5.2,1.9c0.5,0.1,0.6,0.2,0.8,0.7c0.3,1.2,0.6,4.5,0.3,5.4
	c-0.5,0.9-6.4,3.9-7.1,4.3c1.1,0.8,3,2.3,4.2,3c7.3,4.3,16.4,2,22.7-2.5c-0.2-0.2-0.5-0.5-0.7-0.7c-0.7-1-0.7-1.3-1.8-3.9
	c-1.9,1.8-4.5,3.8-6.8,2.6c-0.9-0.5-1.5-1.4-1.6-2.5c-0.1-1.7,0.2-3.3,0.8-4.9c0.3-0.8,0.6-1.7,1-2.6c-4.8,0.1-6.1-2.2-5-4.9
	c0.9-2.3,3.6-3.1,6-3.5c-1.1-1.5-1.5-3.4-1.1-5.2c0.2-0.8,0.6-1.6,1.2-2.3c0.3-0.2,1.7-0.2,2.1-0.4c0.4-0.2,0.8-0.4,1.2-0.7
	c0.3-0.3,0.6-0.6,0.8-0.9c0.6-1.1,0.2-3-0.4-4.2c-0.3-0.7-0.8-1.2-1.5-1.3c-0.6-0.1-1.2,0-1.8,0.1c-0.4,0.2-0.8,0.5-1.1,0.9
	c-1,1-0.8,1.1-1.3,1.2c-0.8,0.1-1.6,0-2.3,0c-3.7-0.4-5.2-2.2-6.4-5.5c-1,1-2.1,1.7-3.5,2.1c-1.4,0.4-2.9,0.2-4.2-0.4
	c-1-0.4-1.9-1-2.6-1.8c-0.4-0.6-0.8-1.3-1-2C194.9,36.7,194.9,36.7,194.9,36.9z M204.5,73.1L204.5,73.1L204.5,73.1z M204.3,68.4
	L204.3,68.4L204.3,68.4L204.3,68.4z M204.3,68.4L204.3,68.4L204.3,68.4L204.3,68.4z M215.7,44.9L215.7,44.9L215.7,44.9L215.7,44.9z
	 M215.7,44.8C215.7,44.8,215.7,44.8,215.7,44.8L215.7,44.8z"/>
<path class="st3" d="M197,48.2L197,48.2L197,48.2L197,48.2L197,48.2L197,48.2L197,48.2L197,48.2L197,48.2L197,48.2L197,48.2
	L197,48.2L197,48.2L197,48.2L197,48.2l0.1-0.3l0.3,0c0.1,0.1,0.1,0.2,0.1,0.4c0.2,1.4,0.1,2.7-0.3,4c-0.4,1.9-0.2,1.3-0.3,1.9
	c-0.1,0.3-0.1,0.5-0.2,0.8c0.4,0.2,0.8,0.4,1.3,0.4c0.7,0.2,1.3,0.2,2,0.1h0h0l0,0l-0.1,0.1l0,0.1l0.2-0.2c0.1,0,0.1,0,0.2,0l0,0
	l0,0l0,0c0,0,0,0.1,0,0.2l0,0l0,0l0,0c-0.1,0.2-0.2,0.2-0.7,0.3c-0.4,0.2-0.9,0.2-1.4,0.2c-0.7,0.1-1.3,0-2-0.3
	c-1.2-0.5-0.8-1.4-0.6-2.4c0-0.8,0.9-3.5,1-4.6C196.9,48.6,196.9,48.3,197,48.2L197,48.2L197,48.2z M199.9,56L200,56h0l0,0h0h0
	C199.8,55.8,199.9,55.8,199.9,56L199.9,56z M196.6,55L196.6,55L196.6,55L196.6,55L196.6,55L196.6,55L196.6,55z"/>
<path class="st3" d="M204.4,57.6c0.1,0.4,0,0.9-0.2,1.3l0,0c-0.2,0.4-0.5,0.7-0.8,1c-0.6,0.5-1.4,0.9-2.2,0.9c-0.1,0,0,0-0.4-0.1
	c0.2-0.4,0-0.2,0.6-0.7c0.5-0.5,1-0.7,1.4-1.2c0.2-0.2,0.4-0.4,0.4-0.4l0,0c0,0,0.1-0.1,0.1-0.1v0c0.2-0.2,0.4-0.4,0.5-0.6l0.3-0.2
	L204.4,57.6z"/>
<path class="st8" d="M202.4,50.6c-0.3,0-0.6-0.2-0.6-0.5c-0.1-0.6-0.6-1.8-0.1-2.3c0.2-0.3,0.6-0.3,0.9-0.1c0.2,0.2,0.3,0.5,0.2,0.7
	c0,0.3,0.3,1.2,0.3,1.5C203,50.2,202.8,50.5,202.4,50.6C202.4,50.6,202.4,50.6,202.4,50.6z M202.6,48.5L202.6,48.5z"/>
<path class="st8" d="M192.5,51.2c-0.3,0-0.6-0.2-0.6-0.5c-0.1-0.6-0.4-1-0.2-1.6c-0.1-0.3,0.1-0.7,0.4-0.8c0.2-0.1,0.4,0,0.6,0.1
	c0.4,0.3,0.2,0.8,0.2,1c0.1,0.3,0.2,0.6,0.3,1.1C193.2,50.9,193,51.2,192.5,51.2C192.6,51.2,192.6,51.2,192.5,51.2z"/>
<path class="st3" d="M192,44.1c0.5,0,1,0.2,1.4,0.5c0.2,0.2,0.2,0.2,0.2,0.5l-0.3,0.1c-0.3,0-0.6,0.1-1,0.1c-0.5,0-0.9,0-1.4,0
	c-0.3,0-0.1,0.1-0.5-0.1h0l0,0h0h0h0h0l0,0h0l0,0l0,0l0,0l0,0l0,0l-0.3,0l0,0l0,0c-0.1-0.1-0.1-0.1-0.1-0.2c0.1-0.3,0.3-0.2,0.5-0.4
	h0v0l0,0l0,0l0,0l0,0c0.2-0.2,0.4-0.3,0.7-0.3l0,0C191.4,44.1,191.7,44.1,192,44.1z M190.4,44.8l0,0.3l0,0l0,0l0,0l0,0l0,0l0,0l0,0
	l0,0l0,0l0,0v0L190.4,44.8L190.4,44.8L190.4,44.8L190.4,44.8L190.4,44.8L190.4,44.8L190.4,44.8L190.4,44.8L190.4,44.8L190.4,44.8
	L190.4,44.8L190.4,44.8L190.4,44.8z"/>
<path class="st3" d="M202,44.2c0.9-0.1,1.8,0.3,2.3,1v0l0.1,0.3c-0.5,0.1-0.2,0.1-0.8,0c-0.2,0-0.5,0-0.6,0
	c-1.7-0.3-1.6-0.1-2.5-0.2h0h0h0h0h0h0h0h0h0l0,0h0l-0.3-0.1c0.1-0.4,0-0.3,0.6-0.7C201,44.2,201.5,44.1,202,44.2z"/>
<path class="st2" d="M190.9,54c-0.2,0.1-0.4,0.2-0.5,0.3l0,0l0,0l0,0h0l0,0l0,0l0,0c-0.4,0.5-0.7,1.1-1,1.7c-0.3,0.6-0.4,1.3-0.4,2
	c0,0.8,0.2,1.6,0.7,2.3c0.5,0.6,1.1,1,1.8,1.3c1.1,0.5,2.3,0.6,3.5,0.5h0l0,0h0l0,0l0,0l0,0l0,0l0,0l0,0l0,0l0,0l0,0l0,0l0,0l0,0
	l0,0l0,0l0,0l0,0l0,0l0,0l0,0l0,0l0,0l0,0l0,0l0,0v0l0,0v0v0v0v0l0,0v0v0l0.2-0.3l0,0c0.3,0.2,0.3,0.2,0.3,0.3l0,0
	c0,0.2-0.2,0.4-0.5,0.5c-1.2,0.4-2.4,0.4-3.6,0.1c-1-0.3-1.9-0.8-2.6-1.6l0,0c-0.1-0.1-0.2-0.2-0.3-0.4c-0.7-1.2-0.9-2.7-0.5-4.1v0
	c0.1-0.6,0.4-1.1,0.7-1.6c0.3-0.5,0.7-1,1.2-1.3c0.3-0.2,0.6-0.3,0.9-0.3c0.2,0,0.2,0.1,0.2,0.1l0,0l0,0l0,0c0,0,0,0.1,0,0.1l0,0
	l0,0l0,0l-0.3,0.1l0,0L190.9,54L190.9,54L190.9,54L190.9,54L190.9,54L190.9,54L190.9,54L190.9,54z M190.6,53.9
	c0.2,0.1,0.1,0.2,0-0.2V53.9z"/>
<path class="st2" d="M219.7,48.7L219.7,48.7L219.7,48.7l0.1,0.1c0.1,0.1,0.1,0.1,0.1,0.2l-0.2,0.2l0,0c-0.6,0.9-0.9,2-0.8,3.1
	c0,0.4,0.1,0.9,0.3,1.3c0.8,1.9,2.4,3.5,4.4,3.3c4.7-0.4,4.1-9.1-0.4-9.3c-0.6,0-0.3,0.1-0.7-0.2l0.2-0.3c3.3-0.6,5.6,3,5.3,6.3
	c0,0.5-0.1,0.9-0.3,1.4c-0.2,0.8-0.6,1.4-1.2,2c-0.8,0.9-2,1.3-3.2,1.3c-2.4-0.2-4.5-1.9-5.1-4.2l0,0c-0.2-0.5-0.2-1-0.2-1.5
	c0.1-0.8,0.2-1.7,0.6-2.5c0.1-0.3,0.3-0.5,0.4-0.7C219.4,48.8,219.5,48.6,219.7,48.7z M219.4,49L219.4,49L219.4,49L219.4,49
	L219.4,49L219.4,49L219.4,49c0,0.1,0.1,0.1,0.1,0.2l0,0c0,0,0,0,0.1,0L219.4,49L219.4,49L219.4,49z"/>
<path class="st1" d="M197.7,92.6c-0.3,0.9-0.7,1.7-1.2,2.5c-0.3,0.7-0.3,0.6-1.4,3.5c-0.6,1.5-1.1,3.1-1.5,4.6
	c-0.1,0.6-0.9,4.4-1,5.6c0,0.4,0,0.9,0.1,1.3c0.1,0.4,0.1,1.3,0.2,1.7v0v0l0,0v0c0.1,0.2,0.5,0.7,0.1,1l0,0l-0.3-0.1l0.1-0.3l0,0
	l0,0l0,0l0,0l0,0l0,0v0l0,0l0,0l0,0l0,0v0l0,0v0l0,0v0l0,0v0l0,0v0l0,0v0v0v0v0v0v0v0v0v0v0v0v0l0,0v0v0l0,0v0l0,0v0l0,0
	c0,0,0,0,0,0c0,0-0.1-0.2-0.2-0.2c-0.2-0.6-0.4-1.2-0.5-1.8v0c-0.5-2-0.2-3.4,0.1-5.5c0.2-1.2,0.4-2.5,0.8-3.6
	c0.9-3.1,2.4-6.1,4.3-8.7v0l0,0v0v0l0,0v0v0v0v0v0l0.2-0.2l0,0L197.7,92.6z"/>
<path class="st3" d="M240.3,87.7c0.6,5.3,1.6,10.6,2.8,15.8c1,4.2,1.1,3.5,0.8,4.1l-0.3-0.2c-0.8-1.7-1.4-3.5-2-5.3
	c-0.4-1.5-1.2-5.1-1.4-6.7c-0.4-2.4-0.6-4.8-0.4-7.2c0.1-0.7,0-0.5,0.3-0.8L240.3,87.7z"/>
<path class="st1" d="M211.3,106.9c-0.1,0.2-0.3,0.3-0.5,0.4c-1.4,0.2-2.7-2.5-3.3-3.8l0,0c-4.1-9.5-7.6-25.5-6.6-27.7
	c0.1-0.1,0-0.1,0.4-0.1l0.1,0.3l0,0v0v0l0,0v0v0c0,0,0,0,0,0l0,0c-1,1.9,6,27.6,9.2,30c1.5-2.2,13.9-25.8,14.4-28.4v0v0v0v0v0
	l0.2-0.3l0.3,0.2C225.6,79.1,214.1,103.1,211.3,106.9z"/>
<path class="st1" d="M216.4,114.4c-1.3,2.1-3.5,3.2-5.9,3.1c-0.9,0-1.7-0.3-2.4-0.8c-0.6-0.4-1.1-0.8-1.6-1.3
	c-1.9-2.5-1.5-5.9,0.7-8c1.8-1.6,6.1-1.8,8.5,0.4l0,0c0.7,0.7,1.2,1.7,1.4,2.7C217.3,111.9,217,113.2,216.4,114.4z M208.9,107.7
	L208.9,107.7c-2.9,1.1-3.2,5.5-1.2,7.3c0.5,0.5,1.1,0.9,1.7,1.2c0.7,0.3,1.5,0.3,2.3,0.2l0,0c2.6-0.2,4.7-2.3,5-4.9l0,0
	c0-0.8-0.3-1.5-0.7-2.1c-0.2-0.3-0.5-0.7-0.8-0.9l0,0C213.3,107.2,211,106.9,208.9,107.7L208.9,107.7z"/>
<path class="st6" d="M184.1,263.9L184.1,263.9l0,0.1c0-0.2-0.1-0.1,0.7,0c3.2,0.6,6.5,0.7,9.8,0.4c2.1-0.3,2.4-0.7,2.8-0.3
	c0.2,0.2,0.1,0,0.2,3.6c0,1.4,0.1,4.8,0,5.6c-0.1,0.4-0.3,0.5-0.7,0.6c-1.1,0.2-2.2,0.3-3.4,0.2c-0.4,0-0.5,0-0.7-0.2
	c-0.2-0.3-0.1-0.2-0.1-1.6c-0.1,0-0.9,0.1-1,0.2c-10.4,2.2-20.2,4.7-21.6,3.8l0,0c-0.3-0.3-0.3-0.6-0.3-1c0.2-3.2,3.5-5.6,6.2-7.3
	c2.5-1.5,5.2-2.8,7.9-3.8c0-0.2,0-0.3,0.1-0.4l0,0L184.1,263.9C184.1,263.9,184.1,263.9,184.1,263.9z M184.4,264.5
	C184.3,264.5,184.3,264.5,184.4,264.5l-0.1,0.1c0,0,0,0-0.1,0.1l0,0l0,0c-0.1,0-0.1,0-0.2,0.1c-4,1.7-10,4.8-12.4,8.5
	c-0.4,0.6-0.7,1.3-0.7,2.1c0,0.1,0,0.1,0.2,0.1c4.8-0.5,7.8-1.4,19.8-3.9c3.2-0.6,3-0.6,3,1.5c0.9,0,1.7,0,2.6-0.1
	c0-0.2,0.1-0.5,0-7.8c-3.6,0.5-7.2,0.5-10.7-0.3C184.4,264.5,184.5,264.4,184.4,264.5C184.4,264.4,184.4,264.5,184.4,264.5z
	 M196.4,273.1L196.4,273.1L196.4,273.1z"/>
<path class="st6" d="M237.4,237.7c0.2,0.1-0.1-0.3,4.3,4.7c0.1,0.1,1.2,1.4,1.6,1.9c0.6,0.7,0.5,1-1.7,3c-0.8,0.7-1,1-1.5,0.8
	c-0.2-0.1,0,0-1-1.1c-0.3,0.2-3.8,4.9-3.9,5c-1.5,2-7.9,10.6-9.7,12.2c-0.2,0.2-0.5,0.4-0.9,0.5c-0.5,0.1-0.7-0.2-1-0.6
	c-2.9-4,1-12.9,3.4-17.3c0.1-0.2,0.1-0.1,0-0.3c-0.1-0.1,0-0.3,0.1-0.3c0,0,0,0,0,0l0,0c3.7-2,7-4.7,9.6-8.1
	C237,237.8,237.1,237.7,237.4,237.7z M234.4,242c-2,1.7-4.3,3.2-6.6,4.4l0,0c0.4,0.4-1.4,2.3-3.1,8.3c-0.6,1.8-0.9,3.7-0.9,5.6
	c0,1.1,0.3,2.2,0.9,3.1c0.4,0.4,8.6-10.7,12.8-16.2c1.8-2.3,1.8-2.1,3.1-0.5c0.7-0.5,1.3-1.1,1.9-1.8c-0.1-0.1-0.3-0.4-5.1-5.9
	C236.4,240.1,235.5,241.1,234.4,242z M242.5,245.1L242.5,245.1L242.5,245.1z"/>
<path class="st9" d="M274.3,101.7c4.4,2.9,5.7,6.3,6.7,11.4c1,5.3,1.4,10.7,1.2,16c-0.2,7.2-1.3,17.9-1.4,18.1
	c-0.1,0.2-0.3,0.2-0.5,0.2c-0.6-0.2-1.4-3-7.1-4.9c-2.1-0.7-7.4-2-7.5-2.1c0,0,0,0-0.1-0.1l0,0c0,0,0-0.1,0-0.1l0,0
	c0-0.1,0-0.1,0.1-0.1c1-0.6,6.2-3.1,8.6-5.4c0.6-0.4,1-1,1.3-1.7c1.1-2.7,0.8-6.5,0.4-9.6c-0.3-2.1-1-6.7-1.6-8.9
	c-0.5-1.7-1.1-3.4-1.9-5c-2.7-5.7-3.5-6.4-3.1-7.1c0.3-0.4,0.4-0.2,1.5-0.3C273.8,101.8,273.2,101.1,274.3,101.7z M270.8,103.2
	c0.2,0.7,1.6,3,3.2,6.6c1.2,2.7,2,5.6,2.3,8.5c0.5,2.7,0.8,5.4,1,8.2c0.3,6.8-1.3,8-4.2,10c-2.1,1.3-4.3,2.5-6.5,3.6
	c1.9,0.5,5.9,1.4,7.7,2c2.2,0.7,4.2,2,5.8,3.7c0.7-10.1,2-23.1-0.4-33.2c-0.4-1.8-0.9-3.6-1.7-5.2c-1-1.9-2.5-3.5-4.4-4.6
	C272.7,103,271.8,103.2,270.8,103.2L270.8,103.2z"/>
<path class="st1" d="M197.5,77.2c1.9,1.6,4,3,6.2,4.3c5,2.5,12.1,2.5,19.8-2c2.5-1.5,2.3-1.9,2.9-1.7c0.4,0.3,0.8,0.5,1.3,0.6
	c1.2,0.3,2.5,0.2,3.7-0.2c1.9-0.6,2.1-3.3,1.9-5.3c0-0.1,0-0.2,0-0.4c0.1-0.3,0.4-0.6,0.7-0.5c0.2,0,0.3,0.1,0.4,0.3
	c1.7,1.9,4.2,3.1,6.8,3.1c1.8-0.1,2.2-0.6,2.4-1.5c0-0.2,0-0.5,0-0.7c-0.1-0.6-0.4-1.2-0.6-1.8c0-0.3,0.1-0.5,0.4-0.6
	c0.2-0.1,0.2-0.1,2.4,0.5c8,2.3,12.3,5.8,16.8,11.1c4.1,5,4.2,6.1,7.8,9.2c3.8,3.4,5.7,3.1,7.3,4.8c0.7,0.9,1,2.1,0.6,3.2
	c-0.1,0.4-0.4,0.8-0.8,1.1c-3.8,3.5-9.2,3.3-14,1.4c0,0-0.2,0.2-0.2,0.2c-1.2,1.1-2.6,2-4.1,2.4c-6.4,2-6.5-1.9-10.8-1.6
	c-2.1,0.2-3.9,1.2-3.9,3.3c0,1.4,8.2,23.6,7.9,25.9c0,0.2-0.1,0.4-0.3,0.5c-2.9,2-6.8,1.8-10.2,2.6c-2.4,0.6-1.1,0.7-3.3,0.4
	c-13.1-1.5-26.4-2.2-39.7-2.6c-10.8-0.3-10.7-0.1-10.7-0.5c0,0,0,0,0,0l0,0l0,0c1.9-4.3,5.5-8.2,8.8-11.5c-0.8-0.8-1.4-1.6-2.1-2.5
	c-1-1.8-1.3-4.5-2.5-6.2l0,0c-0.5,0.3-1,0.5-1.5,0.7c-1,0.3-2,0.3-3,0.1c-2.5-0.6-3.8-3-5.6-3.6c-3.1-0.9-7.8,3-10.8-0.5
	c-0.4-0.4-0.7-0.9-0.9-1.5c-0.2-0.6-0.4-1.8-0.1-2.3c0.4-0.5,1.1-0.6,2-1c0.6-0.3,0.5-0.2,1.2-1c2-2,3.1-3,3.9-3.9
	c5.7-5.7,9.1-15.8,16.4-21.2c1.2-0.8,1.4-0.9,1.5-1C196.9,76.5,196.8,76.6,197.5,77.2z M181.1,108.7c3.2,0.1,3.9,3.1,6.8,3.8
	c3.1,0.8,4.1-1.4,4.8-0.7c0.9,1.2,1.5,3.6,2.1,5.3c0.4,1,0.9,2,1.7,2.7c1.4,1.5,1.4,1,0.1,2.3c-2.9,2.9-6.2,6.5-8,10.3
	c14.2,0.1,29.7,0.5,43.7,1.7c8.2,0.7,7,0.9,7.6,0.6c3.5-1.3,8.4-1,11.2-2.9c0-2.2-8-24.2-8-24.9c-0.3-3,1.8-4.8,4.9-5.2
	c1.3-0.2,2.6,0.1,3.7,0.7c1.9,0.9,2.7,2,6.3,1.1c3.5-1,4.5-2.7,4.7-2.9l0,0c0.2-0.1,0.4-0.2,0.6-0.1c1.9,0.8,4,1.3,6,1.4
	c1.3,0.1,2.6-0.1,3.9-0.5c1.3-0.4,2.5-1.2,3.5-2.2l0,0c0.2-0.3,0.3-0.7,0.2-1.1c-0.3-2.1-2.2-2-4.9-3.8c-4.7-3.1-7.4-7.4-9.3-9.9
	c-5-6.3-9.5-10.1-18.2-12.5c0.5,1.3,0.1,2.9-1,3.8c-1.7,1.1-5.6,1-9-1.8c0,2.2-0.6,4.4-2.7,5.2c-1.4,0.5-2.9,0.6-4.4,0.3
	c-1.8-0.4-0.9-0.8-1.8-0.1c-1.6,1.1-3.4,2.1-5.2,2.9c-6.3,2.8-13.6,2.9-19.2-0.8c-1.2-0.8-4-2.9-4.7-3.5c-1.1,0.6-2,1.2-3,2
	c-6.5,5.4-9.8,14.7-15.6,20.5c-0.1,0.1-4.7,4.5-4.8,4.6c-0.4,0.2-0.8,0.4-1.2,0.6c-0.3,0.1-0.7,0.3-1,0.4l0,0l0,0c0,0.5,0,1,0.2,1.4
	c0.2,0.4,0.4,0.8,0.7,1.2C174,111.2,178,108.7,181.1,108.7z"/>
<path class="st2" d="M179.1,132.7c50.6,0,72,3.4,93,9.1c13.9,3.8,12.7,16.4-4.1,21.1C158.9,193.5,40.7,175.7,21.5,160
	c-0.4-0.3-0.8-0.7-1-1.2c3.7,3.3,8.3,5.3,13.2,6c0.9,0.1,4.9-12.6,14-15.3c-0.5-1.9-1.4-3.7-2.4-5.3c3.8-0.9,7.6-1.7,11.5-2.5
	c16.4-2.4,47.1-5.9,70.3-7.5C144.5,133.1,161.3,132.7,179.1,132.7z"/>
<path class="st3" d="M20.7,158.3c3.6,3.2,8,5.2,12.7,5.9c0.2,0,0.1,0.1,0.3-0.1c1.4-2.1,5.5-12.3,13.5-14.9
	c-0.5-1.6-1.2-3.1-2.1-4.5c-0.2-0.3-0.3-0.4-0.2-0.7c0.1-0.2,0.2-0.3,0.4-0.3c10-2.4,13.7-2.9,26.2-4.4c12.4-1.5,26.9-3,41.4-4.3
	c36.9-3.2,103.9-4.5,140.5,2c7.9,1.4,16.8,3.6,19.9,4.6c1.7,0.5,3.3,1.3,4.8,2.3c2.5,1.7,4.2,4.1,4.2,7.1c0,4.7-4.3,8.4-8.6,10.5
	l0,0c-3.6,1.7-6.6,2.4-14.1,4.4c-51.3,13.1-106.7,17-158.4,13c-20-1.6-58.2-6.2-76-15.8c-1.3-0.7-4.8-2.7-5.2-4.1
	c-0.1-0.3,0.1-0.6,0.5-0.7C20.4,158.2,20.6,158.2,20.7,158.3z M147.1,133.4c-13.7,0.5-28.9,1.3-63,5.2c-23.5,2.7-29,3.6-38.1,5.8
	c0.9,1.4,1.5,2.9,2,4.5c0.1,0.4,0.2,0.6,0,0.9l0,0c-2.1,0.7-4.1,1.9-5.8,3.4c-5.1,4.8-7.3,11.8-8.5,12.1c-0.5,0.1-1.9-0.4,0.2,0.3
	c45.7,16.1,146.9,20.6,231.5-2.7c4.7-1.3,9.8-2.8,13.3-6.8c2.2-2.5,3.1-5.7,1.3-8.6c-1.5-2.6-4.7-4.2-7.7-5.1
	c-9-2.5-18.2-4.5-27.5-5.8C217.6,132.7,173.1,132.5,147.1,133.4L147.1,133.4z"/>
<path class="st1" d="M281.6,150.8c0.1,0.2,0.1,0.4,0.1,0.6c0,12.6-1.2,18.3-13.1,21.7c-109.1,30.6-227.2,12.8-246.5-2.9
	c-2.9-2.4-2.2-7.8-1.6-11.1c0.2,0.4,0.5,0.7,0.9,0.9c19.2,15.7,137.4,33.5,246.5,2.9C277.1,160.3,281.6,155.4,281.6,150.8z"/>
<path class="st1" d="M281.7,150.6C281.7,150.6,281.7,150.6,281.7,150.6c0.1,0,0.1,0.1,0.1,0.1l0,0c-0.1,0.1-0.2,0.1,0,0
	c0.2,0.4,0.1,0.4,0.1,2.4c0,3.2-0.2,7.5-1.2,10.5c-2.2,6.7-7.4,8.4-14.3,10.4c-54.1,14.9-114,19.2-166.8,14.8
	c-19.2-1.5-57.6-6.5-74.4-15.8c-1.4-0.8-2.8-1.7-4-2.8c-2.2-2.4-2-6.5-1.6-9.7c0.2-1.7,0.2-1.9,0.7-2c0.5-0.1,0.6,0.2,0.8,0.5
	c0.3,0.4,0.7,0.7,1.1,1c22.2,16.5,139.3,31.7,243.2,3.3c2.6-0.6,5.2-1.5,7.6-2.6c3.3-1.6,6.8-4.2,7.8-7.7
	C281.6,151,281.1,150.5,281.7,150.6z M281.4,153.3c-1.7,5-8.1,8.3-13.1,9.7c-62.3,18.2-145,22.3-208.1,10.5
	c-9.9-1.9-31.5-6.6-39.2-13.1c-0.4,2.6-0.7,6.2,0.8,8.4c1.1,1.3,2.4,2.3,4,3c27,15.1,135.2,29.1,237.1,2.5c9.3-2.4,16-3.6,18-12.8
	C281.2,158.8,281.5,156.1,281.4,153.3L281.4,153.3z"/>
<path class="st9" d="M25.3,172.3c17.2,9.8,70.5,19.5,134.3,17.2c-0.3,3.8-1,7.4-1.9,8.8c-7.2,11.4-37.3,19.8-50.3,21.5
	c-20.6,2.6-63.4-3.9-75.2-23.5C27.9,188.9,25.6,180.7,25.3,172.3z"/>
<path class="st1" d="M160.2,189.5c-0.1,1.8-0.4,3.6-0.7,5.4c-0.6,3-1.2,3.7-1.8,4.5c-3.2,4.3-9,7.8-13.9,10.1
	c-11,5.4-29.3,10.4-39.2,11.1c-7.3,0.5-14.5,0.2-21.7-0.7c-12.4-1.5-25.3-4.8-36.6-10.7c-6.7-3.8-11.8-7.9-15.5-14.7
	c-3.5-6.8-5.5-14.3-5.7-22c0-0.2-0.1-0.5,0.2-0.5h0c0,0,0.1,0,0.1,0l0,0c-0.1,0.1-0.2,0.4,0,0c4.3,2.3,8.9,4.1,13.6,5.4
	c28.5,8.4,67.7,11.6,97.1,11.7C159.4,189.4,160.2,188.2,160.2,189.5z M25.6,172.8c0.4,10.4,4.6,21,9.2,26.4
	c9.1,10.7,26.7,16,40.4,18.5c10.9,2,25.6,3,36.6,0.8c12.3-2.2,38.3-9.9,45.3-20.4c0.1-0.1,0.1-0.2,0.2-0.3c1.1-2,1.6-7.2,1.6-7.7
	c-5.1,0.2-19.9,0.5-34,0.1c-25.9-0.8-75-5.1-98-16.7C25.4,172.6,25.6,172.6,25.6,172.8z"/>
<path class="st10" d="M116.1,233.7c2.9,7.8,6.2,16.5,9,23.5c-3.1,3.9-6.1,7.7-6.8,7.9c-0.8,0.2-10.9-5.1-11.2-5.5
	C107,259.2,111.6,246.8,116.1,233.7z M154.1,189.6c4.9,5.4,5.4,14.7,3.1,21.2c-3.1,8.3-7.4,16.1-12.9,23.1
	c-0.6-15.4-2.3-32.7-6.7-44.1C143,189.8,148.5,189.8,154.1,189.6L154.1,189.6z"/>
<path class="st1" d="M116.6,234.3c9.6,24.3,9.3,22.7,9,23.2c-7,8.9-6.8,8.4-8.2,7.9c-3.4-1.5-6.8-3.2-10-5.1
	c-1.2-0.7-0.9-0.6,0.8-5.5c3.3-9.1,4.8-13.1,7.1-19.4c0.8-2.1,0.7-2,0.9-2c0.2,0,0.2,0.2,0.2,0.2
	C116.4,233.8,116.3,233.6,116.6,234.3z M107.8,259.2c3.3,2,6.8,3.7,10.4,5.2c0.4,0,6.1-7.2,6.2-7.3l0,0l0,0
	c-2.5-6.1-7.5-20.1-8.4-22.6C113.2,243.3,111.3,248.8,107.8,259.2L107.8,259.2z M138.3,190.2c1.4,3.9,2.5,7.9,3.3,12
	c2.6,13.1,3,26,3.2,29.9c3.5-4.7,6.6-9.8,9.2-15.1c1.5-3.2,2.6-6.1,2.8-6.8c2.3-6.8,1.1-14.5-1.7-18.6c-0.4-0.6-0.8-1.1-1.3-1.6
	C149.6,190,142.8,190.2,138.3,190.2L138.3,190.2z M157.3,194.1c0.9,2.2,1.4,4.5,1.6,6.9c0.3,3.2-0.1,6.5-1.1,9.6
	c-1.4,4-3.1,7.8-5.1,11.5c-2.1,3.7-4.4,7.3-6.9,10.8c-1,1.4-1.1,1.6-1.6,1.5c-0.3-0.1-0.5-0.3-0.5-0.6c-0.4-12.9-2-30.2-6-42.6
	c-0.5-1.5-0.6-1.4-0.5-1.7c0.2-0.4,0.3-0.3,2.4-0.2c12.6,0.2,14.3-0.1,14.6,0.1c-0.1,0.1-0.3,0.3,0,0
	C155.5,190.8,156.6,192.4,157.3,194.1L157.3,194.1z"/>
<path class="st10" d="M37,177.2c20.5,6.7,57.1,12.4,100.6,12.6c9.3,24.4,6.7,76.2,6.2,77.1c0,0.1-12.6,3.1-12.9,2.8
	c-3.3-3.3-22.3-56.2-22.3-56.2s-14.3,0.1-23.9-0.8c-9.4-0.9-26-5.9-33.6-11.9C39.6,191.8,37.3,182.1,37,177.2z"/>
<path class="st1" d="M116.9,188.7c18.4,0.8,20.7,0.2,21.2,0.7c0.1,0.1,0.1,0.1,0.4,1c2,6.1,3.5,12.4,4.3,18.8
	c3.2,22.8,2.4,51.8,1.7,57.7c0,0.2-0.1,0.3-0.2,0.5l0,0c-0.2,0.2-0.1,0.2-2.8,0.8c-1.9,0.5-7.5,1.8-9.4,2.1
	c-0.4,0.1-0.9,0.1-1.3,0.1c-2.8-1-21.5-53.4-22.5-56.2c-4.7,0.1-15.3-0.1-21.9-0.7c-9.1-1-18-3.4-26.3-7.1
	c-6.3-2.8-10.6-5.6-15.6-11.4c-4.3-5.2-7.2-10.9-7.7-17.3c0-0.5-0.1-0.6,0.1-0.7l0,0c0,0,0.1,0,0.2,0l0,0c0,0.1,0,0.1,0,0
	C59.5,184.3,93.1,187.7,116.9,188.7z M108.9,213c0.4,0.2,0.4,0.3,0.6,0.9c4.5,12.4,11.6,31.7,16.6,43.8c4.5,10.9,5.1,11.1,5.3,11.4
	c3-0.5,10.8-2.4,12-2.7c0.7-4.3,2.4-53.7-6.1-76.1c-5.2,0-15.1-0.2-27.1-0.9c-24.1-1.6-49.8-4.7-72.9-11.9c0.2,2.6,0.8,5.1,1.8,7.5
	c3.2,8,10.4,15.2,17.4,18.7c6.4,3.2,13.2,5.6,20.2,7.1c4.5,1,9,1.6,13.6,1.8C97.8,213.1,108.6,213,108.9,213L108.9,213z"/>
<path class="st9" d="M277.6,168.5c0.1,0,0.3,0,0.4-0.1c0,0,0,3.2-0.1,4.3c-0.5,5.6-2.4,11.1-5.7,15.7c-10,14-45.8,18.6-63,16.7
	c-10.9-1.2-36.1-7.1-42.1-15.2c-0.2-0.2-0.3-0.5-0.4-0.7c32.7-1.6,67.8-6.5,102-16.1C272.8,171.9,275.6,170.4,277.6,168.5z"/>
<path class="st3" d="M278.1,168.2L278.1,168.2c0.1,0,0.1,0,0.1,0.1c0.1,1.9,0.1,3.8-0.1,5.6c-0.5,4.6-2.1,9.1-4.5,13
	c-1.2,2.1-2.8,4-4.7,5.5c-12.7,10.9-43.7,15.3-61.9,13c-10.4-1.5-34.4-6.9-40.5-15.3c-0.2-0.3-0.4-0.6-0.5-0.9
	c0-0.3,0.1-0.5,0.4-0.6c1.2-0.4,48-1.1,101.8-15.7c3.2-0.9,6.6-2.1,9.1-4.4c0.2-0.2,0.2-0.2,0.3-0.2l0,0
	C277.7,168.3,277.9,168.2,278.1,168.2C278,168.2,278,168.2,278.1,168.2z M270.1,172.9c-3.4,1.1-15.9,4.5-29.9,7.5
	c-23.9,4.9-48.1,8-72.5,9.3c4.1,5.5,18.1,9.8,24.9,11.6c4.9,1.3,9.9,2.3,15,3c16.8,2.2,49.3-1.8,61.7-13.2c3.6-3.2,6.4-9,7.5-13.6
	c0.7-2.9,1-5.8,0.9-8.7C275.6,170.7,272.9,172.2,270.1,172.9L270.1,172.9z M277.9,168.2L277.9,168.2L277.9,168.2L277.9,168.2z"/>
<path class="st11" d="M264.1,174.3c0,0.2-0.1,0.4-0.1,0.5c-0.6,4.5-2.7,8.7-6.1,11.8c-14.4,14-48.7,13.5-49.3,14.1
	c-0.4,0.4-4.3,53-4.4,53.1c-0.4,0.4-21.9,0.4-24.7-1c-0.4-0.2-4.6-44,2.8-64.8C209.9,186,237.3,181.4,264.1,174.3z"/>
<path class="st11" d="M264.1,174.1c0.3,0.1,0.2,0.3,0.1,0.8c-0.2,1.8-0.7,3.5-1.4,5.2c-4.6,11.4-19.9,16.3-31.9,18.7
	c-10.1,2-20.6,2.3-21.8,2.4c-0.4,1.9-4.1,51.7-4.2,52.7c0,0.3-0.2,0.5-0.5,0.6c-1.8,0.5-20.9,0.3-24.7-0.9c-0.8-0.3-0.8-0.2-1.1-3.1
	c-1.6-15.9-2.2-46.2,2.7-60.9c0.2-0.6,0.4-1.2,0.6-1.8c0.3-0.3-0.2-0.1,7.3-0.8C236.2,182.6,263.2,174,264.1,174.1z M248.4,178.5
	c-21.6,5-43.5,8.4-65.6,10.1c-0.1,0.1-0.9,2.9-1.4,4.8c-4.4,18.5-2.5,53.3-1.3,58.9l0,0c2.8,1.1,20.5,1.3,23.7,1
	c0-0.1,4-51.7,4.4-52.8c0.2-0.4,0.5-0.4,2.2-0.5c8.2-0.5,19.1-1.3,29.3-4.2c8.5-2.5,18.2-6.9,22.2-14.7c1-2,1.7-4.1,2-6.3
	C263.8,174.5,264.4,174.7,248.4,178.5z"/>
<path class="st11" d="M193.4,187.1c13.1,11.6,43.5,40.1,43.4,40.3c-4.2,4.2-21.8,14.9-21.8,14.9s-5-4.6-7.2-6.5
	c-9.2-7.7-17.7-16.2-26.9-23.8c-4.9-4.1-10.2-11.4-10.7-23C177.8,188.5,185.6,187.9,193.4,187.1z"/>
<path class="st11" d="M170.7,189.4c0.2,4.3,1.3,8.5,3.1,12.4c1.7,3.7,4.3,7,7.4,9.6c5.7,4.7,7.8,6.7,15.2,13.5
	c10.8,9.8,8.2,7.1,18.7,16.6c0.6-0.3,17.5-10.8,20.9-14.1c-1.8-1.9-34.6-32.8-42.7-40C183.7,188.5,174.5,189.1,170.7,189.4z
	 M219.6,210.4c18.8,17.4,17.9,16.8,17.8,17.2c1.7,0-21.3,15.1-22.3,15.3c-0.5,0,0,0.1-7-6c-12.3-10.4-17.9-16.3-27.5-24.4
	c-5.8-5-9.6-12.1-10.5-19.7c-0.2-1.3-0.3-2.6-0.3-3.9c0.3-0.5-0.4,0,14.4-1.1c8.5-0.6,9.1-0.9,9.3-0.7c-0.1,0.1-0.3,0.3,0,0
	C208,199.6,219.4,210.4,219.6,210.4z"/>
<path class="st2" d="M208.8,200.9L208.8,200.9L208.8,200.9L208.8,200.9L208.8,200.9L208.8,200.9L208.8,200.9c0,0-0.2,4.7-0.2,4.8
	c-0.5,15.4-1.9,34-2.2,34.5l-0.3,0.1l0,0c-0.1-0.4-0.1-0.4-0.1-0.3v0v0v0v0c0-7.2,1.5-37.7,2.4-39.4l0,0l0.3,0L208.8,200.9z"/>
<path class="st2" d="M182.6,188.2c-0.7,2.1-2,8.7-2.1,8.8c-1,4.8-1.9,10-2.6,14.8l0,0c-0.2,1.6-0.2,1.6-0.4,3l-0.3,0.2l-0.2-0.3
	c0.1-6.1,0.8-12.1,2.3-18.1c0.7-2.9,1.6-5.8,2.7-8.5c0.1-0.2,0-0.1,0.4-0.3L182.6,188.2z"/>
<path class="st3" d="M50.1,168.1c0.8,0.2,3.6,0.8,4.2,0.5c0.3-0.7-2-1.7-2.7-2c-0.4-0.1-2.3-0.7-2.6-0.9c-0.2-0.2-0.3-0.5-0.1-0.7
	c0.5-0.7,0.9-0.1,4.1,0.8c0.8,0.2,4,1,4.7,0.5l0,0c0.1-0.2-0.1-0.9-2.4-1.9c-1.3-0.5-2.7-1-4.1-1.3c-0.7-0.2-1.1-0.2-1.2-0.7
	c0-0.3,0.2-0.5,0.4-0.6c0.6-0.1,2.2,0.7,5.3,1.1c0.6,0.1,2.5,0.3,3-0.1l0,0c0.1-0.1,0-0.5-0.7-0.9c-2.2-1.3-6.8-1.6-8.4-3.4
	c-0.6-0.6-0.9-1.3-0.9-2.1c0-1.2,1-2.1,1.6-3.1c0.3-0.6,0.4-1.1-0.1-1.5c-0.3-0.2-0.7-0.2-1-0.1c-1.2,0.7-2.4,1.4-3.5,2.3
	c-0.3,0.1-0.7-0.3-2.3-1.8c-0.2-0.2-0.1-0.1-0.1-0.5c0.4,0,0.3-0.1,0.5,0.1c0.4,0.4,1.4,1.3,1.8,1.6c0.7-0.5,1.6-1.2,2.3-1.7
	c0.5-0.5,1.2-0.7,1.9-0.7c0.7,0,1.2,0.4,1.5,1c0.5,1.3-0.8,2.6-1.3,3.6c-0.4,0.6-0.4,1.5,0.2,2.1c0.3,0.4,0.6,0.7,1.1,0.9
	c2.3,1.1,6.7,1.5,8.2,3.1c0.6,0.5,0.7,1.4,0.2,2c-0.1,0.2-0.3,0.3-0.5,0.4c-0.3,0.1-0.6,0.2-0.9,0.2c-0.7,0.1-0.7,0-0.6,0.1
	c0.9,0.6,1.7,1.5,1.3,2.5c-0.5,1.2-2.5,1-3.8,0.8c0.4,0.4,0.5,1.1,0.3,1.6c-0.2,0.4-0.5,0.6-0.9,0.7c-1.7,0-3.3-0.2-4.9-0.8
	c-0.9-0.3-4.1-1.6-6.4-2.7c-1.6-0.8-3.2-1.6-4.7-2.6c-0.5-0.3-2.8-1.9-2.8-2.3c0-0.1,0.1-0.2,0.2-0.3c0,0,0.1,0,0.1,0l0,0l0,0.1
	l0-0.1C38.3,163.7,46.6,167.1,50.1,168.1z M54.3,168.6L54.3,168.6L54.3,168.6z M45.8,153.2L45.8,153.2L45.8,153.2L45.8,153.2z
	 M45.8,153.2L45.8,153.2L45.8,153.2z"/>
<path class="st2" d="M93,164.9c-0.2,0,3.2-40.4,6-49c0.8-2.6,69.3-18.9,70.1-18c0.8,0.8-3.8,48.7-4,48.9
	C164.6,147.3,110,162.7,93,164.9z"/>
<path class="st3" d="M93,165.2c-0.7-0.1,3-41.6,5.5-49.4l0,0c0.8-3,66.2-18.4,70.3-18.5c1.1,0,1,0.8,1,1.9c-0.3,9.2-3.2,40-3.9,45.8
	c-0.2,2.1-0.2,2.2-0.8,2.5c-4.9,1.8-54.6,15.4-71.5,17.7C93.5,165.1,93.2,165.2,93,165.2L93,165.2z M105.4,113.9
	c-5.7,1.8-5.8,2.2-5.9,2.2c-3,10.4-6.2,46.7-6.2,48.6c14.9-2.2,66-16.3,71.3-18.3c0.8-7.2,4-41.1,4-47.9
	C163.5,99.1,122.4,108.6,105.4,113.9z"/>
<path class="st3" d="M163.4,104c1,0.2,0.9,1,0.9,2.1c0.1,3.3-0.7,13.2-0.8,14.4l0,0c-0.7,9.7-0.5,8.3-0.7,8.9l-0.3,0.1h0l-0.3-0.2
	L162,129c0-4.9,0.4-13,0.4-18.6c0-4-0.1-3.7-0.1-4.3c-5.1,0.5-10,1.7-14.8,3.4c-5.3,1.8-3.8,1.6-5.2,1.5l-0.6-0.7v0l0-0.9
	c0.8-0.8,0.4-0.5,2.1-1.1c3.9-1.4,7.9-2.5,12-3.3C158.3,104.4,160.9,104.1,163.4,104z"/>
<path class="st3" d="M95,142.4c-1.2,10.9-2,21.1-2,22.4c-5-0.2-33.8-11.5-33.9-12.4c-0.1-0.7-0.2-3,0.3-2.8c0.6,0.2,2.7,1.2,2.7,1.2
	S88.2,143.9,95,142.4z"/>
<path class="st3" d="M95.1,142.1c0.1,0,0.1,0,0.1,0.1l0,0c0,0,0,0,0,0.1l0,0v0c-0.2,0-0.4,0,0,0c0,0.1-1.3,14.2-1.7,20.8
	c-0.1,1.9,0,1.6-0.1,1.8c-0.2,0.3-0.5,0.3-1.1,0.2c-5.1-0.6-21.7-7.1-27.1-9.3c-6.4-2.6-6.6-3-6.7-3.6c-0.1-0.8-0.2-2.4,0.2-3.1l0,0
	c0.4-0.5,0.9-0.3,1.3-0.1c0.6,0.3,1.4,0.6,2,0.9c0.4,0.2,1.5-0.5,22.2-5.5C85.4,144.3,94.7,142.1,95.1,142.1z M62,151.4L62,151.4
	L62,151.4c-1.6-0.8-2.2-1-2.3-1c0,0.5,0,1,0,1.6c0,0.2,0,0.2,0.1,0.3c3.3,2,26.9,11.2,32.7,12c0.6-7.2,1.6-16.5,2.2-21.5
	C87.6,144.4,62.5,151.5,62,151.4z"/>
<path class="st2" d="M95.2,139.3c-1.2,10.9-2,21.1-2,22.4c-5-0.2-34.5-11.7-33.9-12.4C62.5,146,87.1,141.1,95.2,139.3z"/>
<path class="st3" d="M95.2,139.1c0.1,0,0.1,0,0.1,0.1l0,0c0,0,0,0,0,0.1l0,0v0c-0.2,0-0.4,0,0,0c-2.1,24.6-1.6,22.3-1.8,22.7
	c-0.2,0.4-0.5,0.3-1.1,0.2c-5.8-0.7-28.5-9.5-32.9-11.8c-0.5-0.3-1-0.5-1-1.1c0.2-1.2,5.1-2.9,6.3-3.3
	C74.2,143,95.1,139.1,95.2,139.1z M94.8,139.6c-6.6,1.5-29.9,6.6-34.6,9.7c4.2,2.2,27.3,11.1,32.4,11.8c0-0.9,0.8-8.6,0.9-9.5
	C94.8,139,95,139.6,94.8,139.6z"/>
<path class="st2" d="M167.6,121.2c0.2,0,0.4-0.1,0.7-0.1c1.2-0.1,3.4,0.5,4.4-0.1c0.1-0.1,0.2-0.7,0.2-0.8c0.3-0.9,0.4-1.9,0.6-2.8
	c0.6-2.5,1.3-4.9,2.2-7.2c2-0.3,4.2-1.3,6-1c2.2,0.3,3.4,2.9,5.7,3.6c3.2,1,4.7-1.1,5-0.7c1.2,1.6,1.6,4.4,2.5,6.3
	c0.7,1,1.5,1.9,2.3,2.7c-3.7,3.7-7.3,7.5-9.2,12.2c-3.3,3-5.7,5.4-10.3,6.3c-1.9,0.4-4.3-0.1-6.3-0.1c-1.8,0-3.7-0.1-5.5-0.1
	C166.4,134.5,167,127.8,167.6,121.2z"/>
<path class="st3" d="M168.8,120.8c1.3,0,2.7,0.4,3.7,0l0,0c0-0.2,0.1-0.4,0.1-0.6c0.6-2.5,0.3-3.1,1.8-7.5c1-3.1,0.9-2.8,1.1-2.9
	c0.2-0.1,0.1-0.1,0.7-0.2c2.7-0.5,5-1.8,7.4-0.3c1.5,1,2.3,2.2,3.9,2.8c1.1,0.4,2.4,0.4,3.5-0.1c0.8-0.4,1-0.6,1.4-0.6
	c0.5,0,0.6,0.3,1,0.8c1.1,1.9,1.5,4.9,2.7,6.5c1.6,2,2.1,1.9,1.8,2.6c-0.5,0.9-6.4,5.6-9.2,12c-0.1,0.3,0,0.1-1.2,1.3
	c-2,2-4.4,3.7-7,4.8c-3.1,1.1-4.6,0.9-7.8,0.6c-1-0.1-0.9-0.1-5.2-0.2c-1.6-0.1-1.5,0-1.7-0.2c-0.3-0.3-0.2-0.1,0.1-3.3
	c1.7-15.9,1.6-15.3,1.7-15.4c0,0,0,0,0.1,0l0,0l0,0C168,120.9,168.4,120.8,168.8,120.8z M176.1,110.5c-0.4,1.2-1,2.9-1.3,3.5
	c-1.1,3.1-0.9,4-1.7,6.9c0,0.1-0.1,0.3-0.2,0.4c-1.1,0.7-3.4-0.1-5.1,0.1c-0.4,4.9-0.9,12.5-1.4,17.4c2.5-0.1,5,0,7.6,0.2
	c2.2,0.3,4.5,0,6.5-1c2.3-1.1,4.4-2.6,6.2-4.5c1-0.9,0.7-0.6,1-1.3c1.8-4.1,5.5-8.2,8.7-11.3c-0.7-0.7-1.3-1.5-1.9-2.2
	c-1-1.7-1.4-4.6-2.4-6.1c-0.6,0.4-1.3,0.7-2.1,0.8c-1.1,0.2-2.2,0-3.3-0.4c-1.7-0.7-2.8-2.3-4-3l0,0
	C181,109,178.8,110.1,176.1,110.5L176.1,110.5z"/>
<path class="st3" d="M227.6,142.6c0.2,0.4-0.1,0.8-1,2.7c-2.7,5.8-8.3,16.7-10.8,20.8c-1,1.5-0.9,1.5-2.8,1.4
	c-5.5-0.1-39.1-2.4-41.6-3.6c-0.3-0.1-0.5-0.5-0.3-0.8c0,0,0-0.1,0-0.1c1-1.9,18.9-22.6,21.2-24.3c0.1,0.1,0.1,0.1,0,0
	c0.2-0.1,21.8,1.9,28.1,2.6C227.4,142.2,227.3,142.2,227.6,142.6z M192.4,139.4c-1.1,0.5-14,16.2-16.1,18.8c-3.3,4.1-3.9,4.9-4,5.1
	c0.1,0,4.2,0.9,26.2,2.4c0.6,0,15.3,1.1,15.7,0.7c1.2-1.7,4.4-7.7,5.4-9.6c5.8-11.1,6.5-13.1,6.7-13.5
	C225.3,143.1,192.7,139.2,192.4,139.4z"/>
<path class="st8" d="M134.4,138.6c-2,0-3.8-0.5-4.6-2.3c-0.6-1.5-0.8-1.9,3.5-11.1c0.5-1.1,1.5-1.8,2.7-2c2.3-0.3,3,0.7,5.4,4.3
	c2.2,3.3,2.5,4.2,2.7,4.6c0.7,1.7,0.1,3.6-1.5,4.5C140,137.9,137.2,138.6,134.4,138.6z"/>
<path class="st8" d="M209.7,158.7c-6.6-1.5-13.3-2.6-20-3.3c-0.3,0.1-0.7-0.1-0.8-0.4c-0.1-0.2,0-0.5,0.1-0.6
	c0.2-0.2,0.5-0.5,9.3,0.9c4.2,0.7,9.5,1.6,11.7,2.2c0.3,0.1,0.5,0.4,0.4,0.8C210.3,158.6,210,158.7,209.7,158.7z M189.9,155.2
	L189.9,155.2z M189.9,155.2L189.9,155.2z"/>
<path class="st8" d="M211.4,149.8c-3.4-1-14.3-2.6-15.4-2.4c-0.3,0-0.6-0.2-0.7-0.5s0.2-0.6,0.5-0.7c1.4-0.2,12.4,1.4,15.9,2.5
	c0.3,0.1,0.5,0.4,0.4,0.8C212,149.7,211.7,149.9,211.4,149.8z"/>
<path class="st2" d="M72.1,51.5c-0.8,0.2-1.7,0-2.4-0.5c-0.2-0.5-2.7-3.5-5.3-1.9c-1.8,1.1-1.7,4.1-1.3,5.8c0.6,2.4,2.7,2.5,4.5,2.3
	c0.1,0-0.2,11.4,0.2,12.4c0.6,1.6,16.1,10.9,17.2,10c1.8-1.5-0.4-9.1-0.2-9.3c0.3-0.3,4.2,0.9,7.8-0.5c7-2.7,6.2-10,6.1-14.7
	c-0.2-4.4-0.8-8.7-1.8-13c-0.5-2.1-1.1-4.3-1.8-6.3c-0.4,1.7-3.1,2.4-4.5,2.7c-4.8,0.9-9.7,0.5-14.2-1.1c-1.6-0.6-6-3.7-6-3.4
	c0.5,3.1,1.1,6.3,1.9,9.3c0.4,1.8,1.3,4.1,1.1,6C73.5,50.3,73,51.1,72.1,51.5z"/>
<path class="st1" d="M95,35.3L95,35.3c0.3-0.1,0.7,0.1,0.8,0.4c0,0,0,0,0,0c1.2,3.7,2.1,7.4,2.7,11.2c0.9,5,1.2,12.4,0.7,15.3
	c-0.3,3.1-2.1,5.9-4.8,7.5c-2.9,1.7-5.6,1.6-8.8,1.2l0,0c0.5,2.4,1.6,7.3,0.1,9c-0.2,0.3-0.6,0.4-1,0.3c-1.4-0.4-2.7-0.9-4-1.6
	c-3.8-2-7.5-4.2-11-6.7c-0.8-0.6-2-1.5-2.3-2.1c-0.4-1.5-0.1-9.6-0.1-12.1c-3.3,0.2-4.5-1.2-4.7-4.5c-0.2-5.1,3.8-6.1,6.3-3.7
	c0.2,0.2,0.4,0.3,0.5,0.5c0.8,1,0.3,0.7,0.8,0.9c0.5,0.3,1.2,0.4,1.7,0.2l0,0c0.2-0.1,0.4-0.2,0.6-0.4c0.5-0.7,0.8-1.6,0.7-2.4
	c-0.2-1.5-0.5-3-1-4.4c-0.9-3.3-1.6-6.7-2.2-10.1c0-0.2,0.2-0.4,0.4-0.4c1,0.4,2,0.9,2.8,1.6c1.8,1.3,3.9,2.2,6.1,2.7
	c1.7,0.4,3.5,0.6,5.2,0.7c2.6,0.1,6.8-0.2,9-1.7c1.1-0.9,0.6-1.1,1.1-1.5l0,0C94.9,35.3,94.9,35.3,95,35.3z M68.1,57.4
	c0.1,0.8-0.1,10.4,0.2,12.1c0.2,1.2,14,9.5,16.4,9.8c0.1-0.2,0.2-0.4,0.3-0.6c0.5-1.5-0.3-5.3-0.6-6.8c-0.1-0.5-0.2-0.9-0.2-1.4
	c0-0.2,0-0.3,0.1-0.4c0.4-0.4,0.9-0.3,1.5-0.2c3.3,0.3,5.7,0.3,8.5-1.5c3.6-2.6,3.9-6.7,3.8-11.3c0-4-0.4-8-1.2-12
	c-0.5-2.7-1.1-5.3-1.9-7.9c-0.6,0.6-1.3,1-2.1,1.3c-4.6,1.7-12.4,1.2-16.8-0.8c-1.4-0.7-3.8-2.3-5.1-3.1c0.2,2.1,0.9,4.7,1.4,6.9
	c0.3,1.4,0.4,1.7,0.5,2.3c0.6,2.4,1.2,3.9,0.8,6.2c-0.1,0.5-0.3,0.9-0.6,1.3c-0.2,0.2-0.5,0.4-0.8,0.5l0,0c-1,0.3-2,0.1-2.7-0.6l0,0
	v0l0,0c0,0,0,0,0-0.1c-1.2-1.6-3.1-2.7-4.8-1.6c-1.3,0.9-1.5,2.9-1.2,4.4c0,0.9,0.4,1.8,1.1,2.5C66.1,57.6,68.1,56.3,68.1,57.4
	L68.1,57.4z M68.4,69.5L68.4,69.5L68.4,69.5z"/>
<path class="st7" d="M63.3,50.7c-0.3-0.2-0.5-0.5-0.7-0.7c-2.3-2.7-4.4-3.9-4.7-8.9c-0.1-2.2-0.8-4.4-0.2-6.6c0.5-1.5,1.3-3,2.2-4.2
	c1.2-1.4,2.8-2.5,4.6-3c0.5-0.1,2.4,0.3,2.8,0c0.5-0.4,1.6-3.9,4.1-4.9C96,13,97.4,29.9,97.6,30c1,1,2,2.1,2.7,3.3
	c1.9,4-0.4,8-2.9,10c-0.1,0-0.2,0-0.2,0c-0.5-2.6-1.2-5.1-2.1-7.6c-0.4,1.7-3.1,2.4-4.5,2.7c-4.8,0.9-9.7,0.5-14.2-1.1
	c-1.6-0.6-6-3.7-6-3.4c0.5,3.1,1.1,6.3,1.9,9.3c0.4,1.8,1.3,4.1,1.1,6c0,0.9-0.5,1.8-1.4,2.2c-0.8,0.2-1.7,0-2.4-0.5
	c-0.2-0.5-2.7-3.5-5.3-1.9C63.9,49.5,63.5,50.1,63.3,50.7z"/>
<path class="st7" d="M59.4,46.8c-1.1-1.6-1.7-3.5-1.8-5.4c-0.3-3.8-1.1-5.6,0.2-8.6c0.6-1.1,1.2-2.2,2-3.2c1.1-1.2,2.6-2.2,4.2-2.7
	c0.6-0.2,1.2-0.2,1.8,0c0.4,0.1,0.8,0.1,1.2,0c0.5-1.1,1.2-2.2,1.9-3.2c0.6-0.8,1.5-1.5,2.5-1.9c10.4-4,22.1-5,26.1,5.4
	c0.3,0.8,0.5,1.6,0.7,2.5c1.1,1,2.1,2.2,2.8,3.6c1.6,3.7,0.2,7.3-2.7,10.1c-0.5,0.4-0.6,0.6-1.1,0.6c-0.2,0-0.3-0.1-0.4-0.2
	c-0.4-0.4,0.1-0.1-1.6-6.2l0,0c-0.1-0.3-0.1-0.2-0.1-0.5l0,0c-0.3,0.3-0.5,0.5-0.8,0.7c-1.3,0.7-2.8,1.2-4.3,1.4l0,0
	c-2.3,0.4-4.7,0.4-7,0.2c-2.5-0.2-4.9-0.8-7.1-1.8c-1-0.5-1.5-0.9-2.4-1.4c-2.5-1.6-2.2-1.5-2.2-1.3c0.4,3,0.9,4.5,1.5,7.2
	c0.2,0.8,0.2,0.9,0.4,1.8c0.5,1.6,0.8,3.2,0.9,4.9c-0.1,1.4-0.5,2.7-1.8,3.1c-1,0.2-2-0.1-2.7-0.7c-0.4-0.6-0.9-1.1-1.5-1.5
	c-1.2-1-3-0.9-4,0.3c-0.1,0.1-0.1,0.2-0.2,0.3c-0.1,0.2-0.2,0.4-0.3,0.6c-0.1,0.1-0.2,0.2-0.3,0.1c0,0,0,0,0,0c0.1-0.1,0.3-0.3,0,0
	C61.8,49.6,60.5,48.2,59.4,46.8z M70.6,33.4c0.7,0.1,3.3,2.1,5.6,3.2c0.8,0.3,1.6,0.6,2.4,0.8c3.6,1,7.4,1.2,11.1,0.6l0,0
	c1.5-0.2,3-0.7,4.3-1.5c0.7-0.7,0.4-0.9,0.8-1.2l0,0c0.1-0.1,0.3-0.1,0.4-0.1c0.5,0.1,0.6,0.4,1.1,2.1c0,0.1,0.9,3,1.3,5.1
	c2-2,3.4-5,2.6-7.7c-0.5-1.8-1.4-2.5-2.8-3.9c-0.5-0.6-0.4-0.4-0.6-1.4c-0.3-1.2-0.7-2.3-1.3-3.3c-2.6-4.4-6.7-6-11.9-5.8
	c-4.2,0.3-8.3,1.2-12.2,2.8c-1.7,0.8-2.5,2.5-3.3,4c-0.6,1.1-0.7,1-3,0.7c-0.3-0.1-0.7,0-1,0.1c-1,0.4-2,0.9-2.9,1.6
	c-0.6,0.5-1.2,1.2-1.6,1.9c-2,3.1-1.9,4.4-1.5,8c0.2,1.6,0.1,1.9,0.3,2.9c0.5,3.7,2,4.7,4.2,7.4c0.2,0.2,0.4,0.5,0.6,0.7
	c1.2-2.6,4.5-2.5,6.6,0.2c0.3,0.4,0.2,0.3,0.4,0.5c0.4,0.2,0.8,0.3,1.2,0.4c0.3,0,0.6,0,0.9-0.2c2-1.4,0.4-5.4-0.3-8.1
	c-0.8-3-1.4-6-1.9-9c0-0.3,0.2-0.5,0.5-0.6C70.5,33.4,70.6,33.4,70.6,33.4z M67,26.8L67,26.8L67,26.8z"/>
<path class="st1" d="M93.6,46.2c0.7,2,1.2,4.1,1.7,6.2c0.1,0.6,0.4,1.7,0.4,2.2c0,0.3-0.1,0.6-0.4,0.7C94.2,56,92,55.9,91.4,56h0
	l0,0h0l0,0l0,0l0,0l0,0l0,0l0-0.1c0-0.1,0.1-0.1-0.3,0.1L91,55.7l0,0c0,0,0-0.1,0-0.1l0,0l0,0l0,0c0,0,0.1-0.1,0.1-0.1l0,0
	c1.1-0.3,2.2-0.6,3.2-1c-0.7-2.7-1.2-5.5-1.4-8.3v0v0l0.2-0.2L93.6,46.2z M94.6,54.4L94.6,54.4L94.6,54.4L94.6,54.4z"/>
<path class="st1" d="M94,61.6L94,61.6c-0.2,0.3-0.6,0.6-1,0.8l0,0c-0.2,0.1-0.5,0.1-0.7,0.1c-0.1,0-0.2,0-0.3,0l0,0
	c-0.8,0-1.5-0.3-1.9-0.9c0,0,0-0.1-0.1-0.1l0,0l0,0c0-0.1,0,0,0-0.1l0,0l0,0l0,0l0,0c0,0,0,0,0.1-0.1l0,0l0,0l0,0l0,0l0.3,0.1l0,0
	l0,0l0,0l0,0l0,0l0,0h0l0,0h0l0,0c0.2,0,0.6,0,0.7,0c0.5,0.1,1.1,0.1,1.6,0l0,0c1.3,0,0.8-0.1,1.3,0L94,61.6z M90.4,61.6
	c0.2-0.2,0.1-0.1,0.2-0.3l0,0L90.4,61.6z"/>
<path class="st1" d="M84.9,43.7c1.7-0.1,3.4,0.6,4.4,2c-0.1,0,0.2-0.1,0.7,1.6c0.6,1.9,0.9,3.6-0.2,5.2c-2.8,3.8-10.3,2.5-10.3-3.6
	c0.1-1.8,1-3.5,2.5-4.5C82.9,43.8,83.9,43.6,84.9,43.7z M85.3,44.6c-1.8-0.2-3.6,0.9-4.2,2.7c-0.4,1-0.5,2-0.2,3v0
	c0.3,1.1,1.1,2,2.1,2.6c1.9,0.9,4.1,0.6,5.7-0.7c0.9-1,1.2-2.3,0.9-3.6c-0.1-0.8-0.3-1.6-0.6-2.3C89,46.1,89,46,88.9,45.9l0,0
	C88,45,86.7,44.5,85.3,44.6z M89.3,45.6L89.3,45.6L89.3,45.6L89.3,45.6z"/>
<path class="st2" d="M102.6,44.4c-0.9-1.3-2.6-2-4.2-1.6c-1.3,0.2-2.3,1.3-2.9,2.9c-1,2.9,0.5,6,2.7,6.7c2,0.6,4.1-0.4,5-2.3
	c0.4-1.4,0.4-2.9-0.1-4.2C103.1,45.4,102.9,44.8,102.6,44.4z"/>
<path class="st1" d="M99.1,42.3c1.5-0.1,2.9,0.7,3.7,2l0,0c0.2,0.4,0.4,0.8,0.5,1.2c0.6,1.5,0.7,3.1,0.4,4.6l0,0
	c-0.6,1.8-2.3,3.1-4.2,3.1c-1.2,0.1-2.4-0.4-3.3-1.2c-2.9-2.7-1.9-8,1-9.4C97.9,42.4,98.5,42.3,99.1,42.3z M98,43.4
	c-1.4,0.6-2.1,2.5-2.2,3.8c-0.1,2.3,1.2,4.6,3.5,4.7c0.7,0,1.5-0.2,2.1-0.5c0.6-0.4,1.1-1,1.4-1.7c0.2-0.8,0.3-1.7,0.2-2.5
	c-0.1-0.9-0.3-1.8-0.6-2.7l0,0l0,0l0,0l0,0c-0.3-0.4-0.8-0.8-1.3-1C100.1,43.1,99,43,98,43.4z M102.8,44.3L102.8,44.3L102.8,44.3
	L102.8,44.3z"/>
<path class="st12" d="M85.8,50.3c-0.3,0-0.6-0.3-0.6-0.6l0,0c0-0.3,0-0.7,0-1.6c0-1.2,1.4-0.9,1.2,0c0,1.9,0,1.2,0,1.6
	C86.4,50.1,86.1,50.3,85.8,50.3z"/>
<path class="st8" d="M97.8,48.8c-0.3,0-0.6-0.2-0.6-0.5c0-0.2-0.1-0.8-0.2-1.6c-0.2-1.2,1.3-1.1,1.2-0.2c0.3,1.9,0.1,1,0.2,1.6
	c0.1,0.3-0.2,0.6-0.5,0.7C97.9,48.8,97.8,48.8,97.8,48.8z"/>
<path class="st12" d="M90.4,48.9c-0.4,0-0.5-0.1-0.6-0.4c-0.1-0.3,0.1-0.7,0.4-0.8c0.3-0.1-0.4,0.1,1.5-0.2c1.1-0.2,2.2-0.4,3.2-0.5
	c0.3,0,0.6,0.3,0.6,0.6s-0.3,0.6-0.6,0.6C94.2,48.2,91,48.9,90.4,48.9z"/>
<path class="st12" d="M79.9,48.7c-6.2,0-6.2-0.1-6.3-0.7l0.6-0.1l0.1-0.6c0.2,0,4.5,0.2,5.7,0.2c0.3,0,0.6,0.3,0.6,0.6
	S80.2,48.7,79.9,48.7L79.9,48.7L79.9,48.7z"/>
<path class="st2" d="M243.7,106.7c-0.3-4.1,4.5-4.6,6.3-4.2c2,0.4,3.2,1.9,5,2c2.9,0.2,6.7-1.2,8.1-3.3c2.2,0.9,4.4,1.4,6.8,1.4
	c2,4.3,4.5,8.3,5.4,13.5c1.7,9,2.2,15.4,0,18c-4.5,5.2-27.9,14-37.2,18c-4.8,2-21.9,5-22.9,3.8c-1.8-2.1,4.9-2.8,4.9-2.8
	s-6.4,0-6.5-1c-0.1-1.3,2-2,4-2.3c1.1,0,2.3-0.1,3.4-0.3c-1.1,0-2.3,0.1-3.4,0.3c-1.5,0-2.2-0.1-2.4-1.1c-0.4-2.2,5.5-2.1,5.8-2.4
	c0.1-0.1-0.4-1.3-0.5-1.5c-0.4-1-0.2-2.1,0.4-2.9c1.4-1.4,3.8,3.7,4,3.9c0,0,3.3-1,3.3-1s18.9-20.4,21.5-20.5
	C249.8,124.3,246.5,115,243.7,106.7z"/>
<path class="st3" d="M243.5,106.7c-0.2-2.7,1.9-4.2,4.6-4.5c3.2-0.3,4.3,1.3,6.2,1.9c1.9,0.6,5.7-0.4,7.8-2.2c0.8-0.7,0.7-0.8,0.9-1
	l0,0c0.5-0.2,2.4,1.1,6.1,1.3c1,0.1,1-0.1,1.3,0.5c2.6,5.6,4.5,8,5.7,14.8c0.5,2.8,0.9,5.7,1.2,8.5c0.2,2.8,0.2,6.6-1.7,8.6
	c-5.5,5.4-24.7,12.7-36.5,17.7c-2.2,0.9-4.5,1.6-6.9,2.1c-2.1,0.5-15.7,3.3-17.3,2l0,0c-0.2-0.2-0.4-0.5-0.5-0.7
	c-0.3-1,0.5-1.8,1.5-2.2c-0.8-0.1-2.4-0.3-2.8-1l0,0c-0.1-0.3-0.2-0.7,0-1c0.3-0.7,0.8-1.2,1.4-1.4c0.8-0.3,0.6-0.2,0.5-0.4
	c-0.4-0.5-0.5-1.1-0.3-1.7c0.6-1.6,3.9-1.9,5.6-2.1l0,0c-0.2-0.4-0.3-0.7-0.3-0.8c-0.5-1.2-0.3-3.3,0.9-3.8c1.7-0.7,3.3,2.4,4.3,4
	c0.6-0.2,1.7-0.5,2.4-0.7l0,0l0.4-0.1c0,0.1,17.4-18.7,21.3-20.3C249.3,124,243.5,107,243.5,106.7z M221.2,149
	c0.3,0.1,0.5,0.4,0.5,0.7c0,0.2-0.2,0.4-0.4,0.5c-1,0.2-2.1,0.3-3.2,0.3c-0.9,0-3.6,0.6-3.8,1.4l0,0v0v0l0,0l0,0
	c0.9,0.6,5.9,0.6,6,0.6c0.3,0,0.5,0.3,0.5,0.6c0,0.6-0.5,0.6-1,0.7c-1,0.1-3.5,0.6-4.1,1.4l0,0l0,0l0,0v0l0,0v0l0,0v0l0,0v0v0v0
	c0,0,0,0,0,0.1v0c0,0,0.1,0.1,0.1,0.1c0.1,0.2,2.4,0.1,4.5-0.1c5.8-0.7,11.6-1.9,17.2-3.6c0.1,0,13.1-5.4,18.1-7.5
	c4.1-1.8,16.4-7.1,19.4-10.5c0.7-0.9,1.1-2,1.2-3.1c0.7-3.9-0.9-13.8-1.9-17.3c-1.1-3.6-3.3-7.6-4.5-10.2c-0.1-0.2,0-0.2-0.3-0.2
	c-2.1-0.1-4.2-0.6-6.1-1.4c-1.8,1.9-4.2,3-6.8,3.2c-1.2,0.2-2.5-0.1-3.6-0.7c-1.5-0.8-2.4-1.5-4.3-1.5c-2.6,0.1-4.9,1.3-4.7,3.9
	c0,0.4,6.2,17.6,6.2,17.7c0,0.2-0.1,0.4-0.3,0.4c-2.4,0.2-21.1,20.5-21.2,20.6c0.1,0-1.9,0.6-2.9,0.9c-1.1,0.3-0.9,0.3-1.9-1.4
	c-0.5-1-1.2-1.9-2.1-2.6l0,0c0,0-0.1,0-0.1,0h0h0c0,0,0,0,0,0l0,0h0l0,0l0,0l0,0h0c-0.1,0.1-0.2,0.2-0.2,0.3
	c-0.1,0.3-0.2,0.6-0.2,0.9c0,0.4,0,0.9,0.2,1.3c0.3,0.8,0.7,1.5,0.4,2c-0.3,0.3-0.5,0.3-2,0.5c-1,0.1-1.9,0.3-2.9,0.6
	c-0.3,0.1-0.5,0.3-0.7,0.5v0l0,0v0l0,0l0,0l0,0l0,0v0l0,0v0l0,0v0v0v0v0v0v0v0l0,0v0c0,0,0,0.1,0,0.1l0,0l0,0l0,0v0l0,0l0,0l0,0v0
	l0,0v0l0,0l0,0l0,0v0c0.3,0.4,1.4,0.4,2.2,0.3C219.2,149,220.2,149,221.2,149L221.2,149z M214.3,152L214.3,152z"/>
<path class="st3" d="M257.8,120.8l-0.2,0.3c-0.6,0.3-1.7,0.8-2.2,0.9c0,0-1.7,0.6-2.2,0.8c-1.3,0.5-2.6,1.1-3.8,1.8h0l0,0l0,0v0
	l-0.3,0.1l0,0c0,0,0,0-0.1-0.1l0,0l0,0c0,0,0-0.1,0-0.1c0.3-0.4,0.6-0.7,0.9-1c0.4-0.3,0.7-0.6,1.2-0.9c1.8-1.1,3.9-1.7,6-1.9
	C257.6,120.6,257.5,120.6,257.8,120.8z"/>
<path class="st2" d="M41.4,140c0.4,0.1,0.8,0.3,1.2,0.5c1.4,1,5.3,5,5.2,5.9l-0.2,0.2l-0.2-0.2v0v0v0v0v0v0l0,0v0v0l0,0l0,0l0,0l0,0
	c-0.4-0.8-4.8-4.8-5.7-5.1h0c-6.8-2-15.7-0.4-18.9,5.6l-0.3,0.1l-0.1-0.3C24.9,139.9,34.3,137.9,41.4,140z"/>
<path class="st1" d="M37.7,177.4c2.9,0.9,6.1,1.8,9.6,2.7c-5.8,16.4-36.8,99-37.1,99.6c-1.6,3.6-6,2.6-4.2-2.4
	C6.4,276.4,32.6,197.7,37.7,177.4z"/>
<path class="st1" d="M44.5,179.1c3.2,0.8,2.9,0.7,3.1,0.9c0.4,0.8-36.3,99.2-37.1,100.5c-2.2,3.5-6.6,2.1-5.3-2.7
	c0.3-1.3,26.2-78.2,31.9-99.2c0.4-1.3,0.3-1.3,0.4-1.3C37.8,177,37.5,177.2,44.5,179.1z M6.2,279c-0.1,0.6,0,1.2,0.4,1.8
	c0.8,1,2.3,0.2,2.9-1.1c0.1-0.2,33.9-89.8,37.4-99.4c-5.7-1.5-8.6-2.5-9-2.6C30.8,205.4,6.4,277.7,6.2,279z"/>
<path class="st1" d="M261.8,174.9c3.9,16.8,31.8,100.8,32.1,101.7c1.8,5-2.6,6-4.2,2.4c-0.3-0.6-34.8-92.5-37.8-101.7
	C255.2,176.6,258.5,175.8,261.8,174.9z"/>
<path class="st1" d="M261.9,174.7L261.9,174.7L261.9,174.7c0.1,0.1,0.1,0.1,0.1,0.1l0,0c-0.3,0.1-0.3,0.1,0,0
	c3.5,14.1,23.8,75.4,28.4,89.2c4.4,13.2,4.9,13.8,4.5,15.7c-0.5,2.1-3,2.9-4.8,0.9c-0.3-0.4-0.6-0.8-0.8-1.2
	c-1-2.4-37.9-100.9-37.6-102.1c0.2-0.4-0.1,0,9.1-2.3C261.8,174.7,261.8,174.6,261.9,174.7z M261.6,175.2c-1.2,0.3-3.1,0.9-9.2,2.3
	c0,0.1,0.1,0.3,0.2,0.5c3,8.4,11.9,31.8,19.9,53.2c18.8,50,17.9,48.3,19.2,49.1c0.6,0.4,1.4,0.3,1.8-0.2c0-0.1,0.1-0.1,0.1-0.2l0,0
	c0.1-0.1,0.1-0.2,0.1-0.4c0.1-0.3,0.1-0.7,0.1-1.1c-0.1-1.8-19.8-59-29.3-92.8C261.3,174.8,261.8,175.2,261.6,175.2L261.6,175.2z"/>
</svg>
