<?xml version="1.0" encoding="utf-8"?>
<!-- Generator: Adobe Illustrator 26.3.1, SVG Export Plug-In . SVG Version: 6.00 Build 0)  -->
<svg version="1.1" id="Capa_1" xmlns="http://www.w3.org/2000/svg" xmlns:xlink="http://www.w3.org/1999/xlink" x="0px" y="0px"
	 viewBox="0 0 100 100" style="enable-background:new 0 0 100 100;" xml:space="preserve">
<style type="text/css">
	.st0{fill:#CECCC8;}
	.st1{fill:#B90C2F;}
	.st2{fill:#0067B8;}
	.st3{fill:#A6C5EC;}
	.st4{fill:#002F6C;}
	.st5{fill:#E63164;}
	.st6{fill:#FFFFFF;}
</style>
<g>
	<circle class="st0" cx="48.8" cy="48.1" r="44.2"/>
	<path class="st1" d="M4.6,48.1c-0.2-17.5,11-34.3,27.2-41c29.2-12.3,61.6,9.3,61.7,41c0,31.7-32.4,53.2-61.7,41
		C15.6,82.4,4.4,65.6,4.6,48.1L4.6,48.1z M4.6,48.1C4.5,65.5,15.7,82.3,32,88.7c28.7,11.8,60.6-9.6,60.5-40.7
		C92.6,17,60.7-4.4,32,7.4C15.7,13.8,4.5,30.6,4.6,48.1L4.6,48.1z"/>
</g>
<path class="st2" d="M81.6,42.2c0-1.3-0.2-2.6-0.5-3.9l4-3.3l-3.6-6.2l-4.9,1.9c-1.9-1.8-4.2-3.2-6.8-3.9l-0.8-5.2H62l-0.8,5.2
	c-2.6,0.7-4.9,2.1-6.8,3.9l-4.9-1.9L45.9,35l4,3.3c-0.6,2.6-0.6,5.3,0,7.8l-4,3.3l3.6,6.2l4.9-1.9c1.9,1.8,4.2,3.2,6.8,3.9l0.8,5.2
	H69l0.8-5.2c2.6-0.7,4.9-2.1,6.8-3.9l4.9,1.9l3.6-6.2l-4-3.3C81.4,44.8,81.5,43.5,81.6,42.2L81.6,42.2z"/>
<circle class="st3" cx="65.5" cy="42.2" r="5.9"/>
<path class="st4" d="M38.3,38.2c-0.6-0.6-1.4-1.2-2.1-1.7l0.4-3.6l-4.7-1.3L30.4,35c-1.8,0-3.6,0.5-5.2,1.4l-2.9-2.1l-3.4,3.4
	l2.1,2.9c-0.9,1.6-1.4,3.4-1.4,5.2l-3.3,1.5l1.3,4.7l3.6-0.4c0.9,1.6,2.2,2.9,3.8,3.8l-0.4,3.6l4.7,1.3l1.5-3.3
	c1.8,0,3.6-0.5,5.2-1.4l2.9,2.1l3.4-3.4l-2.1-2.9c0.9-1.6,1.4-3.4,1.4-5.2l3.3-1.5L43.6,40L40,40.3C39.5,39.6,39,38.8,38.3,38.2
	L38.3,38.2z"/>
<circle class="st3" cx="30.6" cy="46" r="4"/>
<path class="st5" d="M48.8,60.1c-0.6,0-1.3,0.1-1.9,0.2l-1.6-1.9l-2.9,1.7l0.9,2.3c-0.9,0.9-1.5,2-1.9,3.2L39,66.1v3.4l2.5,0.4
	c0.3,1.2,1,2.3,1.9,3.2l-0.9,2.3l2.9,1.7l1.6-1.9c1.2,0.3,2.5,0.3,3.7,0l1.6,1.9l2.9-1.7l-0.9-2.3c0.9-0.9,1.5-2,1.9-3.2l2.5-0.4
	v-3.4l-2.5-0.4c-0.3-1.2-1-2.3-1.9-3.2l0.9-2.3l-2.9-1.7l-1.6,1.9C50.1,60.2,49.5,60.1,48.8,60.1L48.8,60.1z"/>
<circle class="st6" cx="48.8" cy="67.8" r="2.8"/>
</svg>
