<?xml version="1.0" encoding="utf-8"?>
<!-- Generator: Adobe Illustrator 26.3.1, SVG Export Plug-In . SVG Version: 6.00 Build 0)  -->
<svg version="1.1" id="Capa_1" xmlns="http://www.w3.org/2000/svg" xmlns:xlink="http://www.w3.org/1999/xlink" x="0px" y="0px"
	 viewBox="0 0 100 100" style="enable-background:new 0 0 100 100;" xml:space="preserve">
<style type="text/css">
	.st0{fill:#CECCC8;}
	.st1{fill:#B90C2F;}
	.st2{fill:#E63164;}
	.st3{fill:#002F6C;}
	.st4{fill:#205492;}
	.st5{fill:#FFFFFF;}
	.st6{fill:#4C4443;}
	.st7{fill:#0067B8;}
</style>
<g>
	<circle class="st0" cx="50.5" cy="48.5" r="44.2"/>
	<path class="st1" d="M6.2,48.5C6.1,16.9,38.2-5.1,67.5,7.4C83.7,14.1,95,30.9,94.9,48.5c0.3,17.7-11,34.7-27.4,41.3
		C38.2,102,6.1,80.1,6.2,48.5L6.2,48.5z M6.3,48.5c-0.1,24,20.3,43.8,44.1,43.7c38.9-0.3,58.6-47,31.1-74.8C54-9.8,6.6,9.6,6.3,48.5
		L6.3,48.5z"/>
</g>
<g>
	<path class="st2" d="M42.2,44c1.9-1.1,2-3.6,2.5-5.2c0.4-1.2,0.8-2.4,1.2-3.6c0.2-0.5,0.4-1.1,0.6-1.5c0.4-0.7,0.9-1.3,1.5-1.8
		c1.8-1.8,4-3.2,6.4-4.1c0.4-0.1,0.6-0.6,1-0.5s0.9,0.4,0.9,0.9c0,0.4-0.2,0.7-0.4,1c-1.5,2.1-3.9,4-6,5.6c-0.1,0.1-0.2,0.1-0.2,0.2
		c-0.1,0.1-0.1,0.2-0.2,0.3c-0.4,3.9-0.6,7.4-0.9,10.7c0,0.5-1.2-0.5-1.5-0.2"/>
	<path class="st3" d="M50.5,43.8c0-0.2,0.1-0.5,0.2-0.7c0.1-0.2,0.2-0.4,0.4-0.6c0.3-0.4,0.7-0.6,1.1-0.9c0.1-0.1,0-0.3-0.1-0.2
		c-0.4,0.3-0.9,0.6-1.2,1c-0.1,0.2-0.3,0.4-0.3,0.6c-0.1,0.3-0.1,0.5-0.2,0.8C50.3,43.9,50.5,43.9,50.5,43.8L50.5,43.8z"/>
	<path class="st2" d="M51.8,44.7c-0.6-0.8-1.5-1.1-2.4-1.4c-1.2-0.4-2.5-0.8-3.7-0.6c-1.2,0.1-2.3,0.7-3.4,1.3c-1,0.6-2,1.2-3,1.8
		c-0.7,0.4-1.4,1-1.4,1.8c0,0.5,0.2,1,0.5,1.4c1.3,2.3,3.1,4.3,5.1,5.8c0.2,0.1,0.3,0.2,0.5,0.3c0.4,0.1,0.8,0,1.1-0.1
		c1.4-0.5,2.5-1.5,3.6-2.5c1.7-1.7,3.2-3.8,3.5-6.2C52.3,45.7,52.2,45.1,51.8,44.7"/>
	<path class="st2" d="M49.6,44.5c0.3-0.6,1.1-0.5,1.7-0.3c1.7,0.6,3.2,1.6,4.7,2.5c1.5,0.9,3.2,1.7,5,1.6c1.7,0,3.4-0.8,4.9-1.6
		c0.3-0.2,0.8-0.3,0.9,0.1c0.2-0.4,0.8-0.4,1.2-0.2s0.6,0.6,0.8,1.1c0.1,0.2,0.2,0.5,0.1,0.8c-0.1,0.3-0.4,0.5-0.6,0.3
		c-0.4,0.9-1.3,1.6-2.1,2.2c-2.3,1.6-5.2,2.6-8,2.2c-2-0.3-3.9-1.3-5.7-2.3L48,48.3"/>
	<path class="st2" d="M49.8,42.2c0.4,0.1,0.8,0.3,1.1,0.6c0,0,0.1,0.1,0.1,0.2c0,0.1,0,0.1,0,0.2L50.5,44c0,0,0,0.1-0.1,0.1
		c-0.1,0-0.2,0.1-0.3,0c-0.4-0.1-0.7-0.3-1-0.6c-0.2-0.1-0.4-0.3-0.5-0.5c0-0.1,0-0.1-0.1-0.1"/>
	<path class="st3" d="M59,49.6l13.4-8.3l-8.7,0.3"/>
	<path class="st4" d="M90.1,20.2L48.9,30c-0.3,0.1-0.5,0.4-0.4,0.6c0,0.1,0.1,0.2,0.2,0.3l10.3,8c0.1,0.1,0.2,0.3,0.2,0.5l-1,9.8
		c0,0.3,0.2,0.6,0.5,0.6c0.2,0,0.3,0,0.4-0.2l5.6-6.1c0.2-0.2,0.5-0.2,0.7-0.1L77.2,52c0.2,0.2,0.6,0.1,0.7-0.1c0,0,0-0.1,0.1-0.1
		l12.7-30.9c0.1-0.3,0-0.6-0.3-0.7C90.3,20.2,90.2,20.2,90.1,20.2L90.1,20.2z"/>
	<path class="st5" d="M58.9,41.8l31.7-21.5c-0.1-0.1-0.3-0.1-0.4-0.1L48.9,30c-0.3,0.1-0.5,0.4-0.4,0.6c0,0.1,0.1,0.2,0.2,0.3
		l10.3,8c0.1,0.1,0.2,0.3,0.2,0.5L58.9,41.8z"/>
	<path class="st3" d="M90.6,20.4L90.6,20.4c-7.5,4.5-25,14.7-31.6,18.8c0,0.1,0.1,0.2,0.1,0.3l-1,9.8c0,0.3,0.2,0.6,0.5,0.6
		c0.2,0,0.3,0,0.4-0.2l3.6-4c0.6-0.8,1.1-1.5,1.7-2.2c1.5-1.8,3.3-3.4,5.1-4.9L90.6,20.4z"/>
	<path class="st3" d="M50.6,37.2c0.1,0.4,0.4,0.7,0.7,0.9c0.1,0.1,0.3,0.2,0.5,0.3c0.1,0,0.1,0,0.2,0.1c0.1,0,0.2,0,0.2,0.1
		c0,0.1,0,0.2-0.1,0.2c0,0.1,0,0.2,0,0.3c0,0.2,0.2,0.4,0.3,0.6c0.1,0.3,0.2,0.6,0.2,0.9c0,0.4-0.2,0.7-0.5,0.8
		c-0.1,0,0,0.2,0.1,0.2c0.3-0.1,0.6-0.4,0.6-0.7c0-0.3,0-0.6-0.1-0.9c-0.1-0.2-0.2-0.4-0.2-0.5c-0.1-0.2-0.2-0.4-0.1-0.7
		c0.2-0.4-0.4-0.4-0.7-0.5c-0.4-0.2-0.9-0.5-1-0.9C50.7,37.1,50.6,37.1,50.6,37.2L50.6,37.2z"/>
	<path class="st6" d="M50.4,36.4c0.2,0.5,0.3,1.1,0.1,1.6c-0.1,0.4-0.4,0.9-0.2,1.3c0-0.1-0.1-0.2-0.2-0.3c-0.2-0.2-0.4,0.1-0.4,0.3
		c-0.1,0.4,0.2,0.6,0.4,0.8c0,0.2,0,0.5,0,0.7c0,1.4,0.1,2.7-0.4,4.1c0,0.1-0.1,0.2-0.2,0.3c-0.1,0.1-0.2,0.1-0.3,0.1
		c-1.1,0.3-2.4,0.4-3.4-0.2c-0.3-0.1-0.5-0.4-0.5-0.6c0-0.3,0.4-0.5,0.4-0.8c-0.4,0.3-0.8,0.6-1.3,0.5c-0.3-0.1-0.5-0.3-0.7-0.5
		c-0.5-0.5-1-1.1-1.5-1.6c0,0-0.1-0.1-0.1-0.2c0-0.1,0-0.1,0.1-0.2c0.2-0.2,0.4-0.4,0.6-0.6c-0.4,0.1-0.8,0.3-1.1,0
		c-0.1-0.1-0.2-0.2-0.3-0.3c-0.2-0.3-0.3-0.6-0.5-0.9c-0.1-0.3-0.2-0.6-0.1-0.9s0.5-0.4,0.7-0.4c0.6-0.2,1.2-0.3,1.8-0.5
		c1.4-0.4,2.9-0.6,4.2-1.3c0.5-0.2,0.9-0.6,1.5-0.6c0.2,0,0.4,0.1,0.6,0c0.3,0,0.6-0.3,0.9-0.3c0.3,0,0.6,0.3,0.7,0.6
		s-0.1,0.7-0.2,0.9l-0.1-0.1"/>
	<path d="M50,39.5l0.1,0.1c0,0,0,0,0,0c0,0,0,0,0,0c0,0,0,0,0,0c0,0,0,0,0-0.1l0,0c0,0,0,0,0,0l-0.1-0.1c0,0,0,0,0,0c0,0,0,0,0,0
		C50,39.4,50,39.4,50,39.5C50,39.5,50,39.5,50,39.5L50,39.5C50,39.5,50,39.5,50,39.5L50,39.5z"/>
	<path class="st3" d="M51.1,38.4C51.1,38.4,51.1,38.4,51.1,38.4C51.1,38.4,51.1,38.4,51.1,38.4c0,0.1,0,0.1,0,0.1c0,0,0,0,0,0
		c0,0,0,0,0,0c0,0,0,0,0,0c0,0,0,0,0,0c0,0,0.1,0,0.1,0c0,0,0,0,0,0c0,0,0,0,0,0v0c0,0,0,0,0,0c0,0,0,0,0,0v0c0,0,0,0,0,0
		c0,0,0,0,0,0c0,0,0,0,0,0c0,0,0,0,0,0C51.2,38.3,51.2,38.3,51.1,38.4C51.1,38.4,51.1,38.4,51.1,38.4c0,0.1,0,0.1,0,0.1c0,0,0,0,0,0
		L51.1,38.4c0,0.1,0,0.1,0,0.1L51.1,38.4c0,0.1,0,0.1,0,0.1L51.1,38.4c0,0.1,0,0.1,0,0.1l0.1-0.1h0h0c0,0,0,0,0,0l0,0l0,0l0,0l0,0
		l0,0c0,0,0,0,0,0l0,0c0,0,0,0,0,0v0c0,0,0,0,0-0.1c0,0,0,0,0,0c0,0,0,0,0,0l0,0C51.2,38.3,51.2,38.3,51.1,38.4L51.1,38.4
		C51.1,38.3,51.1,38.3,51.1,38.4C51.1,38.3,51.1,38.3,51.1,38.4L51.1,38.4z"/>
	<path class="st3" d="M50.9,38.2C50.9,38.2,50.9,38.2,50.9,38.2L50.9,38.2c0-0.1,0-0.1,0.1-0.1L50.9,38.2C51,38.1,51,38.1,51,38l0,0
		c0,0,0,0,0.1,0c0,0,0-0.1,0-0.1c0,0-0.1,0-0.1,0c-0.1,0.1-0.2,0.2-0.2,0.3C50.8,38.2,50.8,38.2,50.9,38.2
		C50.9,38.3,50.9,38.2,50.9,38.2L50.9,38.2z"/>
	<path class="st3" d="M51.9,39.6C51.9,39.6,51.9,39.7,51.9,39.6c0.1,0.1,0.1,0.1,0.1,0.1c0,0,0,0,0,0c0,0,0,0,0,0c0,0,0,0,0,0
		c0,0,0,0,0-0.1c0,0,0,0,0-0.1c0,0,0,0-0.1,0h0h0c0,0,0,0-0.1,0l0,0c0,0,0,0,0,0c0,0,0,0,0,0c0,0,0,0,0,0l0,0
		C51.9,39.5,51.9,39.5,51.9,39.6C51.9,39.5,51.9,39.6,51.9,39.6C51.9,39.6,51.9,39.6,51.9,39.6L51.9,39.6z"/>
	<path class="st2" d="M51.3,44.1c1.7,0.6,3.2,1.6,4.7,2.5c1.5,0.9,3.2,1.7,5,1.6c1.7,0,3.4-0.8,4.9-1.6c0.3-0.2,0.8-0.3,0.9,0.1
		c0.2-0.4,0.8-0.4,1.2-0.2c0.4,0.2,0.6,0.6,0.8,1.1c0.1,0.2,0.2,0.5,0.1,0.8c-0.1,0.3-0.4,0.5-0.6,0.3c-0.4,0.9-1.3,1.6-2.1,2.2
		c-2.3,1.6-5.2,2.6-8,2.2c-2-0.3-3.9-1.3-5.7-2.3L48,48.3"/>
	<path class="st3" d="M68,46.2c0.1-0.3,0.2-0.6,0.4-0.9c0.2-0.2,0.4-0.4,0.7-0.4c0.2,0,0.2-0.3,0-0.2c-0.3,0-0.6,0.2-0.9,0.5
		c-0.2,0.3-0.3,0.7-0.4,1C67.9,46.2,67.9,46.3,68,46.2C68,46.3,68,46.3,68,46.2L68,46.2z"/>
	<path class="st3" d="M69.2,45.5c0.2-0.2,0.4-0.3,0.6-0.4c0.1,0,0.2-0.1,0.4-0.1c0.1,0,0.1,0,0.2,0c0,0,0,0,0.1,0c0,0,0,0,0.1,0
		c0.1,0,0.1,0,0.1,0c0,0,0,0,0-0.1c0-0.2-0.2-0.2-0.4-0.2c-0.2,0-0.3,0-0.5,0.1c-0.3,0.1-0.6,0.3-0.8,0.5
		C69.1,45.5,69.2,45.6,69.2,45.5L69.2,45.5z"/>
	<path class="st3" d="M70.2,45.8c0.1,0,0.1,0,0.2-0.1c0,0,0.1,0,0.1,0c0,0,0,0,0.1,0c0,0,0,0,0,0h0c0,0,0,0,0,0c0,0,0,0,0,0l0,0l0,0
		c0,0,0,0,0,0c0,0,0,0,0,0c0,0,0,0,0,0c0,0,0,0,0,0l0,0c0,0,0,0,0,0c0,0,0,0,0,0c0,0,0,0,0,0c0,0,0,0,0,0c0,0.1,0,0.1,0.1,0.1
		c0.1,0,0.1,0,0.1-0.1c0-0.2-0.1-0.3-0.3-0.3c-0.2,0-0.3,0-0.5,0.1C70,45.7,70.1,45.8,70.2,45.8L70.2,45.8z"/>
	<path class="st3" d="M70.6,46.4L70.6,46.4C70.6,46.4,70.6,46.4,70.6,46.4C70.6,46.4,70.6,46.4,70.6,46.4
		C70.6,46.4,70.6,46.4,70.6,46.4L70.6,46.4l0.1,0h0c0,0,0,0,0,0s0,0,0,0h0h0h0h0c0,0,0,0,0,0c0,0,0,0,0,0l0,0l0,0l0,0c0,0,0,0,0,0
		c0,0,0.1,0,0.1,0c0,0,0-0.1,0-0.1c0,0,0,0,0,0c-0.1-0.1-0.2-0.1-0.3-0.1c0,0-0.1,0-0.1,0c0,0,0,0-0.1,0c0,0,0,0,0,0
		C70.5,46.3,70.5,46.3,70.6,46.4C70.4,46.3,70.5,46.4,70.6,46.4C70.5,46.4,70.5,46.4,70.6,46.4L70.6,46.4z"/>
	<path class="st3" d="M70.9,46.9c0.3,0,0.1,0.6-0.1,0.3c-0.1-0.1-0.1-0.2-0.2-0.3c-0.1-0.1-0.2-0.1-0.3,0c-0.1,0.1-0.2,0.2-0.2,0.3
		c-0.1,0.2-0.3,0.4-0.6,0.6c-0.1,0-0.1,0.1-0.2,0.1c-0.1,0-0.1,0-0.2,0c-0.1,0-0.1,0.1-0.1,0.1c0,0,0,0.1,0.1,0.1
		c0.2,0.1,0.4,0,0.5-0.1c0.2-0.1,0.3-0.2,0.4-0.3c0.1-0.1,0.2-0.3,0.3-0.4c0-0.1,0.1-0.2,0.1-0.2c0.1-0.1,0.1,0,0.2,0.1
		c0.1,0.1,0.2,0.3,0.3,0.3c0.1,0,0.3-0.1,0.3-0.2c0.1-0.1,0.1-0.3,0-0.4c-0.1-0.1-0.2-0.2-0.3-0.2c0,0,0,0,0,0
		C70.8,46.8,70.8,46.9,70.9,46.9C70.9,46.9,70.9,46.9,70.9,46.9L70.9,46.9z"/>
	<path class="st3" d="M55.5,27.8c0-0.4,0.4-0.6,0.7-0.8c0.3-0.2,0.7-0.3,1.1-0.3c0.3,0,0.7,0.1,0.9,0.4c0.2,0.3,0.3,0.7,0.3,1
		l0.1-0.1c0,0-0.1,0-0.1,0c-0.1,0-0.2,0.2-0.1,0.2c0,0,0.1,0,0.1,0c0.1,0,0.1,0,0.1-0.1c0,0,0,0,0,0c0-0.3-0.1-0.7-0.2-1
		c-0.2-0.3-0.4-0.5-0.7-0.6c-0.7-0.2-1.4,0-2,0.4c-0.3,0.2-0.6,0.5-0.5,0.8C55.4,27.9,55.4,27.9,55.5,27.8
		C55.5,27.9,55.5,27.8,55.5,27.8L55.5,27.8z"/>
	<path class="st3" d="M56.1,28.1C56.1,28.1,56.1,28.1,56.1,28.1l0.1,0l0,0l0,0c0,0,0,0,0,0c0,0,0,0,0,0c0,0,0,0,0,0l0,0c0,0,0,0,0,0
		l0,0c0,0,0,0,0,0c0,0,0,0,0,0.1c0,0,0,0,0,0c0,0,0,0,0,0c0,0,0,0,0,0.1c0,0,0,0.1,0,0.1c0,0,0,0.1,0,0.1c0,0,0,0.1,0.1,0.1
		c0,0,0.1,0,0.1,0c0,0,0-0.1,0-0.1c0,0,0,0,0,0c0,0,0,0,0,0l0,0c0,0,0,0,0,0c0,0,0-0.1,0-0.1c0-0.1-0.1-0.2-0.1-0.3
		c-0.1-0.1-0.3-0.2-0.5-0.1C56,27.9,56,28,56.1,28.1C56,28.1,56,28.1,56.1,28.1L56.1,28.1z"/>
	<path class="st3" d="M57.1,27.8c0,0.1,0.1,0.2,0.1,0.3c0,0.1,0,0.2,0,0.3c0,0.1,0.1,0.1,0.2,0c0-0.1,0-0.3,0-0.4
		c0-0.1-0.1-0.2-0.1-0.3C57.2,27.6,57.2,27.6,57.1,27.8C57.1,27.7,57.1,27.7,57.1,27.8L57.1,27.8z"/>
	<path class="st3" d="M57.8,27.6c0.1,0.2,0.2,0.5,0.1,0.7c0,0,0,0.1,0.1,0.1c0,0,0.1,0,0.1-0.1c0.1-0.3,0-0.6-0.1-0.8
		c0,0-0.1,0-0.1,0C57.8,27.5,57.8,27.6,57.8,27.6z"/>
	<path class="st7" d="M38.4,47.7c2.8,0.8,5.1,3.3,5.6,6.1c0-0.1-0.6,0.4-0.6,0.5c-0.5,0.6-0.5,1.6-0.7,2.3c-0.2,0.9-0.3,1.8-0.4,2.8
		c-0.3,2.3-0.4,4.7-0.5,7.1c-0.1,1.9-0.4,4-1.9,5.4c-2.2,2-3.8,2.8-6.7,3.7c-2.9,0.9-7.7,2.2-10.3,3.8c-0.3,0.2-0.6,0.4-0.8,0.8
		c-0.2,0.4-0.2,0.8-0.3,1.2c-0.1,0.4-0.4,0.8-0.9,0.8c-0.3,0-0.4-0.2-0.6-0.5c-0.8-1-1.3-2.2-1.5-3.5c-0.1-0.4-0.1-0.8,0.1-1.1
		s0.5-0.5,0.8-0.7c4.7-2.6,9.3-5.3,13.8-8.3c0.3-0.2,0.7-0.5,0.9-0.8c0.1-0.3,0.2-0.6,0.2-0.9C35,62,35,57.4,36.8,53.3
		c0.8-1.7,1.9-3.4,1.8-5.3l-0.1,0.8"/>
	<path class="st7" d="M38.4,47.7c-6.4,1.3-7.2,7.4-11.8,8.8c-1.2,0.4-2.8-0.1-4,0.1c-4.4,0.4-6.5,0.9-10.9,1.4
		c-3,0.3-4.1-1.4-6.3,0.7c-0.3,0.3-2.8,2.9-2.8,3.3c0,0.7,0.9,1.1,1.6,1s1.3-0.6,2-0.8c2-0.9,4.2-0.2,6.3,0
		c4.9,0.5,7.2,1.3,12.1,0.6c2.5-0.4,6-1,8.1-2.4c2.4-1.6,4.3-4.3,6.1-6.6"/>
</g>
</svg>
