<?xml version="1.0" encoding="utf-8"?>
<!-- Generator: Adobe Illustrator 26.2.1, SVG Export Plug-In . SVG Version: 6.00 Build 0)  -->
<svg version="1.1" id="Capa_1" xmlns="http://www.w3.org/2000/svg" xmlns:xlink="http://www.w3.org/1999/xlink" x="0px" y="0px"
	 viewBox="0 0 1000 1000" style="enable-background:new 0 0 1000 1000;" xml:space="preserve">
<style type="text/css">
	.st0{fill:#002F6C;}
	.st1{fill:#2B8E25;stroke:#23751C;stroke-miterlimit:10;}
	.st2{fill:#E73164;}
	.st3{fill:#0067B9;}
	.st4{fill:#6C6463;}
	.st5{fill:#FFFFFF;}
	.st6{fill:#BA0C2F;}
</style>
<path class="st0" d="M724.6,624l23.7,34.8c7.1-9.5,13.7-19.2,20-29.2c1.6-2.5,3.2-5.2,3.4-8.1s-0.8-5.8-1.9-8.5
	c-11.1-29.1-19.7-59-25.7-89.6c-1.1-5.8-2.2-11.7-5.1-16.8l-3.5,8.3"/>
<path class="st1" d="M252.9,552.6c-2.8-8-5-16.2-7.4-24.4c-3.4-11.8-6.9-23.6-10.6-35.4c-3.8-11.9-7.7-23.8-12.5-35.4
	c-3.6-8.7-7.4-17.8-13.2-25.2c-3.4-4.4-8.3-7.5-13.1-10.1c-7.6-4.2-16.1-6.6-24.8-7.2c-2.2-0.1-4.4-0.1-6.6,0
	c-1.1,0.1-1.2,1.9,0,1.8c8.8-0.4,17.6,1.2,25.8,4.7c4.1,1.8,8,4,11.6,6.5c1.7,1.2,3.3,2.6,4.7,4.1c2.5,3,4.7,6.2,6.4,9.6
	c2.4,4.5,4.5,9.1,6.5,13.8c4.8,11.3,8.8,22.9,12.6,34.5s7.4,23.4,10.9,35.1c2.6,8.6,5,17.2,7.9,25.8c0.2,0.7,0.5,1.3,0.7,2
	S253.1,553.3,252.9,552.6L252.9,552.6z"/>
<path d="M236,565.7c5.7-2.3,11.2-5,16.5-8.1c0.3-0.2,0.4-0.6,0.2-1c-0.2-0.3-0.6-0.4-0.9-0.2c-5.2,3.1-10.6,5.9-16.2,8.3
	C235,564.9,235.4,565.9,236,565.7L236,565.7z"/>
<path class="st2" d="M727.2,454.1l-3.8-1.3c-0.1,0-0.2-0.1-0.2-0.2s0.1-0.2,0.2-0.4l7.6-7c2.6,2.3,6.5,2.7,9.5,1
	c0.2-0.1,0.4-0.2,0.6-0.2c0.2,0.1,0.3,0.2,0.3,0.4c1.1,2.4,2,4.9,3.7,6.9c0.1,0.1,0.2,0.3,0.2,0.5c0,0.1-0.1,0.2-0.3,0.3
	c-1.7,1.1-3.5,2-5.4,2.7c-1.4,0.4-2.8,0.7-4.3,0.9c-1.4,0.3-2.7,0.4-4.1,0.3c-0.7,0-1.3-0.2-1.9-0.4c-0.8-0.3-1.5-0.7-2.2-1.2
	c-1.6-1.1-3.2-2.3-4.8-3.5"/>
<path class="st2" d="M727.3,453.5l-1.9-0.7c-0.4-0.2-1.5-0.4-1.7-0.7l0.2,0.8c0.1-0.3,1.3-1.2,1.6-1.5l2-1.8c1.3-1.2,2.7-2.5,4-3.6
	h-1.3c1.5,1.3,3.3,2.2,5.3,2.4c1,0.1,1.9,0,2.9-0.1c0.5-0.1,1-0.2,1.4-0.4c0.4-0.2,0.9-0.6,1.3-0.6l-0.7-0.3
	c0.4,0.5,0.7,1.1,0.8,1.7c0.3,0.6,0.5,1.2,0.8,1.8c0.4,1.2,1.1,2.3,1.9,3.2c0.1,0.1,0.1,0.2,0.2,0.3c0.2,0.3,0.3,0.1,0.5-0.5
	c-0.2,0.1-0.5,0.3-0.7,0.4c-0.6,0.3-1.2,0.7-1.8,1c-1.3,0.7-2.6,1.2-4,1.5c-2.4,0.6-5.7,1.2-8.1,0.5c-1.2-0.5-2.3-1.2-3.3-2
	c-1.2-0.8-2.3-1.7-3.4-2.6c-0.5-0.5-1.3-0.4-1.8,0.1s-0.4,1.3,0.1,1.8c0.1,0.1,0.1,0.1,0.2,0.1c1.4,1.1,2.9,2.2,4.5,3.2
	c1.2,0.9,2.7,1.5,4.2,1.8c1.6,0.2,3.3,0.1,4.9-0.3c1.8-0.2,3.7-0.7,5.4-1.3c1.5-0.6,3-1.4,4.3-2.2c1.3-0.8,1.6-1.6,0.7-2.8
	c-1-1.4-1.8-2.8-2.5-4.4c-0.5-1.1-0.9-3.3-2.5-3.1c-0.7,0.2-1.4,0.5-2.1,0.9c-0.8,0.2-1.5,0.4-2.3,0.4c-1.7,0-3.4-0.6-4.8-1.8
	c-0.4-0.3-0.9-0.3-1.3,0c-2.4,2.3-4.9,4.5-7.2,6.8c-0.6,0.6-1.2,1.5-0.2,2.1c0.5,0.2,1.1,0.4,1.6,0.5l2.6,0.7
	C727.8,454.9,728.1,453.7,727.3,453.5L727.3,453.5z"/>
<path class="st3" d="M839.8,703.1c-45.6,11.6-90.8,10.7-136.3-1.1c-1.7-0.5-3.5-0.9-5.2-1.5v12.7c0,0-11.1,34.8-22,81.9h242
	c0,0-6-36.5-11.2-79.3c-3.8,4.4-7.7,8.8-11.7,13c-9.9,10.6-22.9,21.6-37.1,18.8c-8.6-1.7-15.4-8.1-21.6-14.2
	c-1.8-1.8-3.8-3.8-4.4-6.3c-0.7-2.9,0.5-5.9,1.7-8.7"/>
<path class="st3" d="M839.4,701.6c-18,4.6-36.4,7.3-55,8c-18.4,0.7-36.8-0.5-54.9-3.6c-5.1-0.9-10.1-1.9-15.2-3
	c-5.2-1.2-10.5-2.3-15.5-4c-0.8-0.2-1.7,0.3-1.9,1.1c0,0.1-0.1,0.3-0.1,0.4v10c-0.1,0.9-0.1,1.7,0,2.6c0.1,0.3,0.2-0.5,0,0
	c-0.1,0.3-0.2,0.7-0.3,1c-0.4,1.3-0.8,2.7-1.2,4.1c-4.1,13.5-7.9,27.2-11.5,40.8c-3.1,11.9-6.1,23.8-8.8,35.8
	c-0.2,0.9,0.3,1.7,1.1,1.9c0.1,0,0.2,0,0.4,0.1h232.2c3.1,0,6.3,0.1,9.4,0h0.4c0.9,0,1.6-0.7,1.6-1.6c0-0.1,0-0.2-0.1-0.4
	c-0.8-4.9-1.6-9.8-2.3-14.8c-1.9-12.4-3.7-24.8-5.4-37.2c-1.2-9-2.4-18-3.5-27c-0.2-1.2-1.7-2.3-2.7-1.1c-4.7,5.5-9.5,11-14.6,16.1
	c-4.4,4.7-9.5,8.7-15,11.9c-5.2,2.8-11.2,4.5-17.2,3.5c-6.2-1.1-11.4-4.8-16-8.9c-2.7-2.3-5.3-4.8-7.6-7.5c-1.2-1.4-1.9-3.2-1.9-5
	c0.2-2,0.8-3.9,1.7-5.7c0.4-0.8,0.2-1.7-0.6-2.2c-0.7-0.4-1.7-0.2-2.1,0.6l0,0c-1.4,3.3-2.9,7.1-1.6,10.7c1.2,3.3,4,5.7,6.4,8
	c4.9,4.7,10.1,9.3,16.6,11.7c13.5,5.1,26.7-3,36.4-12c6.3-6.1,12.2-12.5,17.8-19.2l-2.7-1.1c1.9,15.3,3.9,30.5,6.1,45.7
	c1.4,9.7,2.9,19.3,4.4,29c0.3,1.7,0.5,3.4,0.8,5l1.5-2H686.2c-3.1,0-6.3-0.2-9.4,0h-0.4l1.5,2c4.5-19.5,9.5-38.9,14.9-58.1
	c1.6-5.7,3.3-11.5,5-17.2c0.7-2.2,1.6-4.3,2-6.5c0.1-0.6,0.1-1.2,0.1-1.8v-11.2L698,702c9.1,2.8,18.4,4.9,27.8,6.5
	c9.1,1.6,18.4,2.8,27.6,3.6c18.5,1.5,37.1,1,55.6-1.4c10.5-1.4,21-3.4,31.3-6C842.3,704.1,841.4,701.1,839.4,701.6L839.4,701.6z"/>
<path class="st3" d="M249.1,584.3c3-25.6,7.1-51,12.3-76.3c0.2-1.5,0.7-2.9,1.5-4.2c1.5-1.9,4-2.5,6.4-2.9
	c13.6-2.5,27.4-3.6,41.2-3.3c2.1,0,4.5,0.2,5.8,1.9c0.7,1.1,1.2,2.3,1.2,3.6l2.2,13.8c-1.6-0.8-2.6-2.5-2.5-4.3l87.1,2.1
	c2.4,0.1,5,0.2,6.8,1.8s2.1,3.9,2.3,6.1c1.1,10.6-0.9,21.2-3,31.6c-4.9,24.8-10.3,49.4-16.2,74c-0.2,1.2-0.7,2.3-1.4,3.3
	c-1.2,1.2-2.8,1.9-4.5,2c-36,2.2-94.3,1.9-136.6-5.4c-1.3-0.2-2.6-0.8-3.6-1.7c-1.4-1.4-1.6-3.5-1.6-5.4
	C246.2,609.8,247.3,598.3,249.1,584.3"/>
<path d="M113.7,366.9c-2.1,7.8-3.8,15.6-5.9,23.4c-1,3.9-2.1,7.9-3.4,11.7s-2.8,7.3-4.2,11c-0.3,0.9,1.1,1.5,1.5,0.6
	c1.8-3.5,3.2-7.2,4.3-11c1.2-3.9,2.3-7.8,3.2-11.8c1.9-7.9,3.4-15.9,5.5-23.7c0.1-0.3-0.2-0.6-0.5-0.7
	C114,366.5,113.8,366.6,113.7,366.9L113.7,366.9z"/>
<path class="st4" d="M183.4,288.8c-6,13.9-16.1,25.7-29,33.7c-0.7,0.6-1.6,0.8-2.5,0.6c-0.8-0.4-0.8-1.9,0.1-1.9
	c0.1,4.1-2.3,7.8-6,9.4c-3.7-4.4-11.8-2.8-14.2,2.4s0.6,11.9,5.8,14.3c0.2,0.5-1.6,2.7-1.8,3.1c-4.8,8.1-9.6,17.6-16.2,24.4
	c-1.3,1.5-3.1,2.5-5,3.1c-7.5,1.8-13.2-7.4-15.8-13.1c-7.2-15.6-20-30.9-18.2-49.2c1.7-16.2,11.5-30.8,25.5-39
	c6.8-4,14.4-6.5,22.3-7.3c12.3-1.3,24.7,0.4,36.2,4.9c5.8,2.3,10.4,6.8,16.1,9.2c2.8,1.2,5.7,1.1,8.6,2.1c3.8,1.1,7.1,3.3,9.5,6.4
	c1.6,2.4,2.8,5,3.8,7.8c0.5,1.3,1.1,2.6,1.7,3.9c0.6,1.1,1.4,2.4,0.2,3.5s-3.1,1-4.4,0.7c-4.2-0.7-8.6-1.4-12.2-3.8
	s-6.9-7.5-5.6-11.6"/>
<path class="st4" d="M182.9,288.5c-3.3,7.1-7.6,13.6-12.7,19.5c-2.6,2.8-5.3,5.5-8.3,7.9c-1.5,1.2-3.1,2.4-4.7,3.5s-3.3,2.6-5.1,2.8
	l-1-1c0.1,3.7-2.1,7.1-5.5,8.5l1.2,0.1c-4-4.6-11.9-3.2-15.1,1.6c-3.9,5.7-0.1,13.8,5.6,16.6l-0.4-0.8c0,0.4-0.7,1.2-0.9,1.6
	c-0.4,0.6-0.9,1.3-1.3,2c-1.3,2.2-2.5,4.5-3.8,6.7c-2.5,4.6-5.4,9-8.6,13.1c-2.8,3.5-6.4,7.7-11.4,6.3c-3.8-1.1-6.6-4.6-8.6-7.9
	c-2.2-3.6-3.8-7.5-5.8-11.3c-2.2-4.2-4.7-8.3-6.9-12.6c-4.6-8.6-8.5-18-7.9-28c1.1-19.2,14.8-36.3,32.3-43.4c10.4-4.2,22-4.9,33-3.4
	c5.5,0.7,10.9,2.1,16.1,4c5,1.9,9.1,5.1,13.6,7.8c2.2,1.4,4.6,2.4,7.2,2.9c2.6,0.4,5.2,1,7.7,2c2.2,1,4.1,2.3,5.8,4.1
	c1.7,2.1,3.1,4.5,3.9,7.1c0.4,1.1,0.9,2.3,1.4,3.4c0.3,0.7,0.6,1.4,1,2.1c0.2,0.5,0.8,1.2,0.7,1.7c-0.3,2.1-5.6,0.7-6.8,0.5
	c-5.1-1-9.9-2.8-12.8-7.4c-1.3-1.8-1.7-4.1-1.3-6.2c0.2-0.6-0.2-1.2-0.8-1.3s-1.2,0.2-1.3,0.8l0,0c-1.5,5.4,2.6,11,7.1,13.5
	c2.8,1.4,5.8,2.3,8.8,2.8c2.4,0.4,5.6,1.3,7.7-0.4c2.5-2,0-4.9-0.9-7c-1.3-3.1-2.3-6.4-4.2-9.2c-1.7-2.3-3.8-4.2-6.3-5.5
	c-2.8-1.3-5.7-2.2-8.7-2.7c-6.5-1.2-11.3-5.9-17-8.9s-12.6-4.6-19.1-5.6c-13.3-2.1-27.3-1-39.4,5c-20.3,10-34.4,34-28,56.6
	c3.2,11.5,10.2,21.4,15.5,32c2.2,4.4,4.1,8.8,7.6,12.3c3.3,3.4,7.9,5.4,12.4,3.4c2.8-1.3,4.8-3.8,6.7-6.1c1.9-2.4,3.6-4.8,5.2-7.4
	c3.1-4.9,5.6-10.2,8.9-15c0.5-0.6,0.9-1.3,1.1-2c0.2-1.2-1.4-1.6-2.2-2.1c-2.2-1.6-3.7-4-4.3-6.6c-1-4.3,1.6-8.6,5.9-9.7
	c0.5-0.1,1.1-0.2,1.6-0.2c2.2-0.2,4.3,0.6,5.7,2.3c0.3,0.3,0.8,0.4,1.2,0.1c4-1.8,6.6-5.8,6.5-10.2c0-0.6-0.4-1-1-1
	c-1,0.1-1.8,0.9-1.7,1.9c0,0.2,0.1,0.4,0.1,0.5c0.5,1.5,2.1,1.7,3.4,1.2c1.7-0.8,3.4-1.8,4.9-3c1.5-1.1,3-2.2,4.4-3.4
	c5.8-4.9,10.9-10.6,15-17.1c2.3-3.6,4.3-7.4,5.8-11.4C184.2,288.4,183.1,288,182.9,288.5L182.9,288.5z"/>
<path d="M169.8,320.5c1.1,0.1,2.2,0.2,3.3,0.1c1.1,0,2.3,0,3.4,0c2.3,0.1,4.6,0.4,6.9,0.9c1,0.2,1.4-1.3,0.4-1.5
	c-2.3-0.5-4.6-0.7-7-0.9c-1.1,0-2.3-0.1-3.4,0c-1.2,0-2.4,0.2-3.6,0.5C169.5,319.9,169.4,320.5,169.8,320.5L169.8,320.5z"/>
<path d="M178.9,331.1c0-0.4-0.3-0.8-0.7-0.9s-0.8,0-1.1,0.2c-0.7,0.4-1.2,0.9-1.6,1.5c-0.4,0.7-0.6,1.4-0.5,2.2
	c0.1,0.8,0.6,1.6,1.2,2.1c1.3,0.7,3,0.4,3.8-0.9c0.5-0.7,0.6-1.5,0.3-2.3c-0.3-0.9-1.1-1.6-2-1.7c-1.1-0.2-2.2,0.5-2.5,1.5
	c-0.1,0.4-0.1,0.9,0,1.4c0.2,0.5,0.5,1,1,1.2c0.4,0.2,0.9,0.2,1.3,0c0.4-0.2,0.6-0.6,0.6-1c0-0.1,0-0.3,0-0.4
	c-0.1-0.3-0.3-0.6-0.6-0.8l0.2,0.2c-0.1-0.1-0.2-0.1-0.2-0.2l0.2,0.3c0-0.1-0.1-0.1-0.1-0.2l0.1,0.3c0-0.1-0.1-0.2-0.1-0.3v0.3
	c0-0.1,0-0.2,0-0.3v0.3c0-0.1,0-0.2,0.1-0.2l-0.1,0.3c0-0.1,0.1-0.1,0.1-0.2l-0.2,0.3c0-0.1,0.1-0.1,0.2-0.2l-0.2,0.2l0.2-0.1
	l-0.3,0.1c0.1,0,0.2-0.1,0.3-0.1H178c0.1,0,0.2,0,0.4,0h-0.3c0.1,0,0.2,0,0.3,0.1l-0.3-0.1c0.1,0,0.2,0.1,0.2,0.1l-0.2-0.2
	c0.1,0.1,0.2,0.2,0.2,0.2l-0.2-0.2c0.1,0.1,0.1,0.2,0.2,0.3l-0.1-0.3c0.1,0.1,0.1,0.3,0.1,0.4l-0.1-0.3c0,0.1,0,0.3,0,0.4v-0.3
	c0,0.1-0.1,0.2-0.1,0.4l0.1-0.3c0,0.1-0.1,0.2-0.1,0.2c-0.1,0.2,0.2-0.2,0.1-0.1l-0.1,0.1c-0.1,0.1-0.2,0.1,0.1-0.1l-0.1,0.1
	l-0.2,0.1l0.3-0.1c-0.2,0.1-0.3,0.1-0.5,0.1h0.3c-0.2,0-0.3,0-0.5,0h0.3c-0.1,0-0.2-0.1-0.3-0.1c0,0,0.3,0.1,0.1,0l-0.1-0.1
	c-0.2-0.1,0.2,0.2,0.1,0l-0.1-0.1c-0.1-0.1,0.2,0.2,0,0l-0.1-0.1c-0.1-0.2,0.1,0.2,0,0c0-0.1,0-0.1,0-0.2s0-0.1,0-0.2v-0.1v0.2
	c0-0.1,0-0.3,0-0.4V333c0-0.1,0-0.1,0,0.1c0-0.1,0-0.1,0-0.2s0-0.1,0.1-0.2c0-0.1,0.1-0.1,0.1-0.2c-0.1,0.1-0.1,0.2,0,0.1v-0.1
	l0.1-0.2c0-0.1,0.1-0.3,0.2-0.4l-0.1,0.1l0.1-0.1l0.1-0.1c0.2-0.2,0.3-0.4,0.5-0.6s-0.1,0.1,0,0h0.1h-0.1h0.1c-0.1,0-0.1,0-0.2,0
	c-0.2-0.1-0.2-0.1-0.2-0.1C178.4,331.3,178.6,331.3,178.9,331.1C178.8,331.5,178.9,331.3,178.9,331.1L178.9,331.1z"/>
<path d="M173.3,336.6c2.2,0.4,4.4,0.7,6.6,1c0.3,0.1,0.7-0.1,0.8-0.5c0.1-0.3-0.1-0.7-0.4-0.8l0,0c-2.3-0.3-4.6-0.6-6.8-0.9
	C172.8,335.4,172.7,336.5,173.3,336.6L173.3,336.6z"/>
<path d="M188.6,297.5c2.9,8.5,2.8,17.6,1.4,26.3c-1.1,6.9-2.8,14.6,0.3,21.3c1,1.9,2.4,3.6,4,5.1c0.9,0.8,1.5,1.9,1.8,3
	c0.3,1.4-0.5,2.2-1.4,3.1c-1.6,1.4-2.8,2.7-3.1,4.9c-0.1,2.1,0,4.1,0.2,6.1c0.4,8.1-1,16.8-5.6,23.6c-2.5,3.8-6,7-10.6,7.9
	s-9.4,0-13.8-1.4c-1.2-0.4-1.7,1.5-0.5,1.9c4,1.4,8.3,2,12.5,1.7c4.1-0.3,7.9-2.1,10.8-5c6.1-6,8.7-14.6,9.2-23
	c0.1-2.1,0.1-4.2,0-6.3c-0.1-2.1-0.8-4.6,0.1-6.7s3.2-2.7,4-4.7s-0.2-4.3-1.5-5.9c-1.6-1.9-3.4-3.4-4.4-5.7
	c-0.9-2.2-1.3-4.5-1.3-6.9c0-3.6,0.3-7.2,1-10.8c1.6-9.6,2-19.8-1.6-29C189.6,296.5,188.4,296.8,188.6,297.5L188.6,297.5z"/>
<path d="M147,333.2c-1.1-4.6-5.7-7.4-10.3-6.3c-0.8,0.2-1.5,0.5-2.2,0.9c-5.7,3.2-5.3,10.5-1.8,15.2c1.1,1.4,2.3,2.6,3.6,3.7
	s2.8,2.4,4.6,2.6c0.5,0.1,0.9-0.2,1-0.7c0.1-0.4-0.2-0.8-0.6-1c-1.6-0.6-3.1-1.5-4.3-2.6c-1.3-1-2.4-2.3-3.3-3.6
	c-1.7-2.6-2.7-6.1-1.2-9c1.3-2.5,3.9-4.1,6.8-4c3,0.2,5.6,2.3,6.6,5.1c0.1,0.3,0.4,0.4,0.7,0.3C146.9,333.6,147,333.4,147,333.2
	L147,333.2z"/>
<path d="M139.6,335.8h0.3h0.1h0.1h0.1c0.1,0,0.2,0.1,0.2,0.1s-0.1,0,0,0l0.1,0.1l0.2,0.2l0.1,0.1c-0.1-0.1,0,0,0,0
	c0.1,0.1,0.1,0.1,0.1,0.2c0,0,0.1,0.1,0,0l0.1,0.1l0.1,0.3l0.1,0.3v0.1c0,0.4,0,0.8,0,1.3l0.8-0.8c0.3,0-0.1,0-0.1,0s0.1,0.1,0,0
	l-0.1-0.1l0.4,0.7c0-0.1,0-0.1,0,0v-0.1v-0.1c-0.1,0.1-0.1,0.1,0,0.1s0.1-0.3,0.2-0.4c0.2-0.3,0.1-0.8-0.2-1s-0.7-0.2-1,0.1
	c-0.4,0.3-0.6,0.8-0.6,1.4c0,0.8,0.8,1,1.5,1c0.4,0,0.8-0.4,0.8-0.8c0.1-1-0.1-2.1-0.6-3s-1.6-1.3-2.6-1.1c-0.3,0.1-0.4,0.3-0.4,0.6
	c0,0.3,0.3,0.5,0.5,0.5L139.6,335.8z"/>
<path d="M155.7,420.7c1.1-3.5,2.3-6.9,3.6-10.3c0.6-1.6,1.2-3.3,1.8-4.9c0.3-0.9,0.7-1.8,1-2.6c0.3-0.9,0.6-1.7,1-2.6
	c0.5,0,0.8-0.4,0.8-0.9c0-0.4-0.3-0.7-0.6-0.8c-1.8-0.7-2.4,2.3-2.8,3.4c-0.8,2-1.5,4-2.2,6c-1.4,4-2.6,8.2-3.8,12.3
	c-0.1,0.3,0.2,0.6,0.5,0.7C155.2,421,155.5,420.9,155.7,420.7L155.7,420.7z"/>
<path class="st4" d="M87.2,297.9c-5.1,3.4-11.5,4.5-17.6,4s-11.2-3.5-13.5-9.3c-2.7-6.8-1.7-14.5,2.7-20.4
	c3.6-4.8,8.5-8.6,14.1-10.8c5.6-2.2,11.9-2.3,17.6-0.2c2.1,0.8,4,2,5.6,3.6c4,4.3,4.4,11,2.7,16.7c-2,6.8-6.5,12.7-12.5,16.5"/>
<path class="st4" d="M86.9,297.4c-4,2.4-8.6,3.7-13.3,3.7c-4,0.1-8-0.5-11.5-2.7c-6.9-4.5-7.8-14.9-4.6-21.9
	c1.9-3.9,4.8-7.2,8.2-9.8c3.5-2.8,7.6-4.7,12.1-5.5c4.8-1,9.8-0.2,14.1,2c3.8,2.1,6.2,5.9,6.5,10.2c0.9,9.6-5.2,18.4-12.7,23.8
	c-0.4,0.3-0.5,0.9-0.2,1.3s0.8,0.5,1.2,0.3c8.3-4.7,13.6-13.3,14.1-22.8c0.2-4.4-1-9.1-4.3-12.3c-3.7-3.7-9.3-5.2-14.4-5.2
	c-10,0-19.7,6-25.1,14.2c-4.8,7.3-5,18.9,1.4,25.4c3.4,3.4,8.1,4.7,12.9,4.8c5.7,0.3,11.4-1.3,16.2-4.5
	C88.2,298,87.6,296.9,86.9,297.4L86.9,297.4z"/>
<path class="st5" d="M87.6,298.5c2.5-3.6,5.4-6.8,8.8-9.6c0.8-0.7-0.4-1.9-1.2-1.2c-3.4,2.9-6.4,6.3-8.7,10.1
	C86,298.6,87.1,299.2,87.6,298.5L87.6,298.5z"/>
<path class="st0" d="M99.9,286.6c-2.4-2.2-3.9-5.2-4.3-8.5c-0.3-2.7,0.8-5.8,3.5-6.9c3.3-1.3,4,2.9,4,5.2c-0.2,2.9-1.2,5.7-3,8
	c-0.4,0.6,0.5,1.3,1,0.8c1.9-2,3.2-4.7,3.5-7.5c0.3-2.4,0.2-5.3-1.5-7.2c-1.9-2.1-5-1.2-6.7,0.6c-1.8,2-2.6,4.7-2.1,7.4
	c0.6,3.4,2.3,6.5,4.9,8.7C99.6,287.8,100.4,287.1,99.9,286.6L99.9,286.6z"/>
<path class="st0" d="M112.3,270.8c-0.2,0.7-0.5,1.5-0.9,2.1c-0.4,0.7-0.7,1.5-1.2,2.1c-0.9,1.4-1.9,2.7-3,4c-2,2.4-3.9,5-6.8,6.5
	c-0.9,0.5-0.1,1.7,0.8,1.3c3.4-1.6,5.8-5,8-7.9c1.2-1.6,2.2-3.2,3.1-5c0.4-0.9,2-3.5,0.5-4.2c-0.3-0.2-0.6-0.1-0.7,0.2
	C112,270.3,112.1,270.6,112.3,270.8L112.3,270.8z"/>
<path class="st0" d="M105,286c1.1-0.3,2.1-0.9,3.2-1.2c0.9-0.2,1.9-0.2,2.7,0.2c0.8,0.3,1.3,1,1.4,1.8c0,0.9-0.5,1.8-1.2,2.4
	c-1.3,1.1-3.1,1.4-4.7,0.9c-0.9-0.3-1.8-0.7-2.6-1.3c-0.4-0.3-0.8-0.6-1.1-1c-0.3-0.4-0.7-0.8-1-1.1c-0.3-0.3-0.9-0.3-1.2,0
	c-0.2,0.3-0.3,0.7-0.1,1c0.5,0.9,1.2,1.6,2,2.2s1.7,1.2,2.6,1.5c1.7,0.7,3.7,0.8,5.4,0.1c1.8-0.6,3.2-2.1,3.6-4
	c0.2-1.9-0.9-3.6-2.8-4.2c-1-0.3-2.1-0.4-3.2-0.1c-1.2,0.3-2.4,0.8-3.5,1.6C104.1,285.3,104.4,286.1,105,286L105,286z"/>
<path d="M718.8,331.5c0.1-0.1,0-0.1-0.2,0.1c-0.1,0-0.1,0-0.2,0c-0.1,0,0,0,0.1,0h-0.1h0.1c0.1,0.1-0.1-0.1,0,0l0.5,0.6l0.2,0.2
	c0,0.1,0.1,0.2,0,0c0.1,0.1,0.2,0.2,0.2,0.3l0.1,0.2c0,0,0.1,0.2,0,0.1s0,0.1,0,0.1c0,0.1,0,0.1,0,0.2v0.2c-0.1-0.3,0-0.1,0-0.1
	s0,0.2,0,0.4s0,0,0-0.1v0.1v0.2c0,0.1,0,0.1,0,0.2c-0.1,0.2,0.1-0.2,0-0.1c0,0.1,0,0.1-0.1,0.1l-0.1,0.1c0.1-0.2,0.1-0.2,0.1-0.1
	l-0.1,0.1c-0.1,0.1,0.2-0.1,0.1,0l-0.1,0.1c-0.1,0-0.2,0,0.1,0c-0.1,0-0.2,0.1-0.3,0.1h0.3c-0.2,0-0.3,0-0.5,0h0.3
	c-0.2,0-0.3-0.1-0.5-0.1l0.3,0.1l-0.2-0.1l-0.1-0.1c0.3,0.2,0.2,0.1,0.1,0.1l-0.1-0.1c-0.1-0.1,0.2,0.3,0.1,0.1
	c-0.1-0.1-0.1-0.2-0.1-0.2l0.1,0.3c0-0.1-0.1-0.2-0.1-0.4v0.3c0-0.1,0-0.3,0-0.4v0.3c0-0.1,0.1-0.3,0.1-0.4l-0.1,0.3
	c0-0.1,0.1-0.2,0.2-0.3l-0.2,0.2c0.1-0.1,0.1-0.2,0.2-0.2l-0.2,0.2c0.1-0.1,0.1-0.1,0.2-0.1l-0.3,0.1c0.1,0,0.2-0.1,0.3-0.1h-0.3
	c0.1,0,0.2,0,0.4,0h-0.3c0.1,0,0.2,0,0.3,0.1l-0.3-0.1l0.2,0.1l-0.3-0.2c0.1,0.1,0.1,0.1,0.2,0.2l-0.2-0.3c0,0.1,0.1,0.1,0.1,0.2
	l-0.1-0.3c0,0.1,0,0.2,0.1,0.2v-0.3c0,0.1,0,0.2,0,0.3v-0.3c0,0.1,0,0.2-0.1,0.3l0.1-0.3l-0.1,0.2l0.2-0.3c-0.1,0.1-0.1,0.2-0.2,0.2
	l0.2-0.2c-0.3,0.2-0.5,0.5-0.6,0.8c0,0.1,0,0.3,0,0.4c0.1,0.7,0.7,1.2,1.4,1.2c0.2,0,0.4-0.1,0.5-0.2c0.5-0.2,0.8-0.7,1-1.2
	c0.2-0.4,0.2-0.9,0.1-1.3c-0.2-0.9-0.9-1.5-1.8-1.7c-0.5-0.1-1,0-1.4,0.1c-0.4,0.2-0.8,0.5-1.1,0.9c-0.5,0.7-0.6,1.7-0.2,2.5
	c0.6,1.3,2.1,2,3.5,1.5c0.8-0.3,1.4-0.9,1.7-1.8c0.2-0.8,0.2-1.6-0.2-2.3c-0.4-0.8-0.9-1.4-1.7-1.8c-0.3-0.2-0.7-0.3-1.1-0.4
	c-0.5,0-0.9,0.4-0.9,0.9c0,0.2,0.1,0.4,0.4,0.5C718.4,331.8,718.6,331.7,718.8,331.5L718.8,331.5z"/>
<path d="M723.3,335.5c-2.3,0.3-4.6,0.6-6.8,0.9c-0.4,0.1-0.6,0.5-0.5,0.8s0.5,0.6,0.8,0.5c2.2-0.3,4.4-0.7,6.6-1
	C724,336.5,723.9,335.4,723.3,335.5L723.3,335.5z"/>
<path d="M753.9,333.5c1-2.9,3.6-4.9,6.6-5.1c2.8-0.1,5.5,1.5,6.8,4c1.4,3,0.5,6.5-1.2,9c-0.9,1.3-2.1,2.6-3.3,3.6
	c-1.2,1.2-2.7,2.1-4.3,2.6c-0.5,0.2-0.7,0.7-0.5,1.1s0.6,0.6,1,0.6c1.5-0.4,2.9-1.1,4-2.2c1.2-0.9,2.4-2,3.4-3.1
	c2.1-2.3,3.4-5.3,3.5-8.4c0-5.6-5.6-10.4-11.2-8.6c-2.9,0.9-5.1,3.3-5.8,6.3c0,0.3,0.2,0.5,0.5,0.5
	C753.6,333.7,753.7,333.7,753.9,333.5L753.9,333.5z"/>
<path d="M760.4,334.7c-1-0.2-2,0.2-2.6,1.1c-0.5,0.9-0.7,2-0.6,3c0,0.4,0.4,0.8,0.8,0.8c0.6,0,1.5-0.3,1.5-1c0-0.5-0.2-1-0.6-1.4
	c-0.3-0.3-0.7-0.3-1-0.1c-0.3,0.2-0.4,0.7-0.2,1c0.1,0.1,0.1,0.3,0.2,0.4v-0.1v0.1v0.1c0-0.1,0-0.1,0,0l0.4-0.7l-0.1,0.1
	c0,0,0,0,0.1,0s-0.4,0.1-0.1,0l0.8,0.8c0-0.4,0-0.8,0-1.3v-0.1c0-0.2,0,0.1,0,0s0-0.2,0-0.3l0.1-0.3l0.1-0.1c0-0.1,0.1-0.1,0.1-0.2
	c0,0,0.1-0.1,0-0.1s0,0,0,0l0.2-0.2l0.1-0.1c0,0,0.1-0.1,0,0l0.2-0.1h0.1c-0.1,0.1,0,0,0,0h0.1h0.3c0.3,0,0.5-0.2,0.5-0.5
	s-0.1-0.5-0.4-0.6L760.4,334.7z"/>
<path class="st1" d="M93.7,414.3c-12.9,9.5-28.9,14-41.1,24.5c-12.7,10.9-17,27.8-15,43.9c2.2,17.9,11.6,33.7,21.9,48.1
	c10.8,15.2,22,30.1,33.7,44.7c11.8,14.8,24.1,29.3,37.6,42.5c11.6,11.4,24.3,22.5,38.8,30.2c12.6,6.6,26.7,9.9,40.9,9.5
	c9-0.1,17.9-1.2,26.7-3.3c9.8-2.4,19.2-5.8,28.6-9.4c17.7-6.7,35.3-13.3,53-20c8.9-3.4,17.8-6.8,26.7-10.2l12.9-4.9
	c3.9-1.3,7.7-2.8,11.5-4.6c2.8-1.5,5.5-3.7,5.5-7.2c0-0.5-0.4-0.9-0.9-0.9s-0.9,0.4-0.9,0.9c0,4.2-5.2,5.9-8.4,7.2
	c-4,1.5-8,3.1-12,4.6c-8.6,3.3-17.2,6.6-25.8,9.9c-17.2,6.5-34.3,13-51.5,19.4c-17.9,6.7-35.8,14.1-55,15.9
	c-14.3,1.4-28.7,0.5-42.2-4.9c-14.1-5.7-26.4-15.4-37.6-25.5c-13.5-12.1-25.7-25.6-37.3-39.5C92,571,81,556.3,70,541.5
	c-10.7-14.4-22-29.1-27.5-46.4c-4.9-15.3-5-33.6,4.5-47.3c9-13,24.8-18.8,38-26.4c3.3-1.9,6.4-3.9,9.4-6.2
	C94.8,414.9,94.2,413.9,93.7,414.3L93.7,414.3z"/>
<path class="st1" d="M365.8,564.3c-1.1-5.2-9.2-5.3-13.2-5.5c-8.6-0.2-17.4,1-25.9,2.4c-7.7,1.2-15.4,2.8-23.1,4.1
	c-14.5,2.5-29,4.8-43.6,7c-8.4,1.3-16.8,2.6-25.2,3.6s-17,1.4-25.4,0c-0.5-0.1-1.3,0.2-1.2,0.9c0.5,3.5,6.2,4.1,7,0.5
	c0.1-0.4,0-0.7-0.2-1c-10.6-8.5-19.4-19.2-27.7-29.9c-9.3-11.9-18-24.2-26.8-36.4c-4.3-5.9-8.6-11.8-13.2-17.5
	c-0.8-1-2.3,0.4-1.4,1.4c8.7,10.7,16.5,22,24.6,33.2c8.8,12,17.7,24.1,27.6,35.2c4.8,5.5,10,10.6,15.6,15.2l-0.2-0.9
	c-0.3,1.3-3,1.5-3.2,0.1l-1.2,0.9c14.5,2.3,29.2-0.5,43.5-2.6c14.8-2.2,29.5-4.6,44.2-7.1c8.4-1.4,16.7-3,25-4.5
	c8.7-1.7,17.4-2.8,26.2-3.4c3.8-0.3,7.6-0.1,11.4,0.5c2.2,0.5,5,1.3,5.6,3.8C365,565.2,366,564.9,365.8,564.3L365.8,564.3z"/>
<path d="M364.6,565.3c2.2-0.7,4.4-1.6,6.5-2.7c2.2-0.9,4.4-1.8,6.6-2.6c4.3-1.6,8.7-3.1,13.2-4.5s9.1-3,13.8-3.6
	c4.1-0.5,8.4,0.2,11.1,3.6c0.5,0.7,1.7-0.2,1.2-1c-4.1-6.1-12.2-5-18.2-3.3c-7.7,2.1-15.2,4.7-22.6,7.7c-2,0.8-3.9,1.6-5.8,2.5
	c-2.1,0.8-4.2,1.8-6.1,3c-0.3,0.1-0.4,0.4-0.3,0.7s0.4,0.4,0.7,0.3L364.6,565.3z"/>
<path d="M446.8,558.2c-4.9-1.3-9-4.5-13.9-5.8c-5.3-1.3-10,0.8-14.4,3.6c-4.9,3.1-9.6,6.5-14.1,10.2c-1.6,1.3-4.2,3.1-3.4,5.5
	c0.7,2.1,3.6,2.7,5.5,3c5.5,1.1,11.2-0.2,15.7-3.5l-1-0.1c2.8,3.3,6.4,5.8,10.4,7.4c3.4,1.3,7.9,2.5,11-0.2c0.6-0.5-0.3-1.4-0.9-0.9
	c-2.9,2.4-7.6,0.6-10.6-0.8c-3.3-1.6-6.3-3.8-8.7-6.6c-0.3-0.3-0.7-0.3-1-0.1c-3.6,2.6-8,3.9-12.4,3.6c-1.1-0.1-2.2-0.3-3.3-0.6
	c-1-0.3-2.8-0.6-3.2-1.6c-0.6-1.2,1.1-2.4,1.9-3.1c0.9-0.8,1.9-1.6,2.9-2.4c4-3.2,8.1-6.2,12.5-8.9c4-2.5,8.4-4.4,13.2-3.1
	s8.7,4.2,13.5,5.2c0.3,0.1,0.6-0.1,0.7-0.4C447.2,558.6,447,558.3,446.8,558.2L446.8,558.2z"/>
<path d="M372.4,597.9c4.6,1,9.1,2.4,13.4,4.2c4.2,1.8,8.2,4,12.4,5.9c7.9,3.7,16.8,6.5,25.6,4.3c0.9-0.2,0.5-1.7-0.4-1.4
	c-9,2.2-18-1.2-26-5c-3.9-1.9-7.7-3.8-11.7-5.5c-4.2-1.7-8.5-2.9-13-3.5C372,596.8,371.7,597.8,372.4,597.9L372.4,597.9z"/>
<path d="M416.8,600.8c4.8,2.6,11.1,3.8,16.4,2.1c0.3-0.1,0.5-0.5,0.4-0.8s-0.4-0.4-0.7-0.4c-2.6,0.5-5.2,0.7-7.9,0.5
	c-2.7-0.3-5.3-1.1-7.6-2.4C416.7,599.5,416.2,600.5,416.8,600.8z"/>
<path d="M423.7,593.7c3.3,1,6.6,1.7,10,2.2c2.4,0.3,5.5,0.9,7.3-1.1c0.5-0.6-0.3-1.5-0.9-0.9c-0.8,0.8-2,1.1-3.1,1
	c-1.4,0-2.8-0.2-4.2-0.4c-3-0.4-5.9-1-8.8-1.8c-0.3,0-0.5,0.2-0.5,0.5C423.5,593.4,423.6,593.6,423.7,593.7L423.7,593.7z"/>
<path d="M447.9,587c-3.6-1.7-7.2-3.5-10.6-5.5c-1.7-1-3.4-2-5.1-3c-1.3-0.8-3.6-1.7-4-3.3c-0.1-0.4-0.6-0.6-0.9-0.4
	c-0.3,0.1-0.5,0.5-0.4,0.8c0.3,1.6,1.7,2.5,3,3.4c1.9,1.2,3.8,2.3,5.8,3.4c3.9,2.1,7.8,4,11.8,5.8
	C448.1,588.3,448.7,587.3,447.9,587L447.9,587z"/>
<path class="st1" d="M103.3,404.6c-5.2,0.5-8.7,5-10,9.8c-0.7,2.9-1.2,5.9-1.4,8.9c-0.3,2.8-0.5,5.6-0.4,8.4
	c0.1,5.6,1.5,11.2,5.2,15.6s8.8,7.6,13.7,10.4c10.6,5.9,22.2,9.2,33.7,12.5c2.7,0.8,5.4,1.7,7.4,3.8c1.8,1.9,2.6,4.4,3.3,6.9
	c0.6,2.4,1.4,4.8,2.4,7c1.2,2.3,2.9,4.2,5,5.7c2.7,1.9,5.6,3.6,8.5,5.1c3.3,1.8,6.6,3.5,9.9,5.3c6.7,3.5,13.5,7,20.4,10.4
	c0.4,0.2,1,0.1,1.2-0.4c0.1-0.2,0.1-0.4,0.1-0.6c-1.8-9.3-8.6-16.7-14.6-23.6c-6.5-7.5-13.2-14.7-20.3-21.6
	c-13.9-13.7-28.9-26.4-44.9-37.8c-4.5-3.2-9.1-6.4-13.8-9.4c-3.7-2.4-8.4-5.5-9.1-10.3c-0.1-1-1.7-1-1.6,0c0.4,4,3,7,6.1,9.3
	c3.7,2.9,7.8,5.2,11.7,7.9c8.2,5.6,16.2,11.6,23.9,17.9c15.4,12.5,29.8,26.3,43,41.1c3.6,4.1,7.3,8.2,10.6,12.6s6.1,9,7.1,14.4
	l1.3-1c-11.5-5.6-22.9-11.5-34-17.7c-2.4-1.2-4.6-2.8-6.5-4.6c-1.8-1.9-3.1-4.2-3.8-6.6c-1.4-4.4-2.2-9.2-6-12.2
	c-2-1.4-4.3-2.5-6.8-3.1c-2.8-0.8-5.5-1.6-8.3-2.4c-5.6-1.6-11.2-3.6-16.7-5.8c-5.2-2.2-10.2-4.8-14.8-8c-4.8-3.3-9-7.3-10.7-13
	c-1.8-6-1.1-12.4-0.4-18.5c0.6-5.9,2.4-14.1,9.6-15C104,405.6,104.1,404.6,103.3,404.6L103.3,404.6z"/>
<path class="st1" d="M157.7,413.1c6.5,3.2,12.7,7.5,17.2,13.3c4.6,6,7.4,13.7,6.4,21.3c-0.3,1.9-0.9,3.8-0.8,5.7
	c0.1,1.4,0.6,2.7,1.4,3.8c1.8,2.5,4.5,4,6.6,6.1c5.1,5.1,5.7,13.2,6.9,20c1.6,9.7,3.1,19.5,4.8,29.1c0.2,1,1.7,0.6,1.6-0.4
	c-1.3-8.8-2.9-17.6-4.3-26.5c-1.1-7-1.6-15-5.8-21c-1.9-2.7-4.5-4.4-6.9-6.6c-1.2-1-2.1-2.3-2.6-3.8c-0.5-2,0.3-4.2,0.6-6.2
	c0.9-7.2-1.4-14.7-5.5-20.6c-4.7-6.8-11.6-11.7-19-15.2C157.7,411.8,157.1,412.8,157.7,413.1L157.7,413.1z"/>
<path class="st1" d="M155.9,416.4c7,15.4,12.7,31.5,16.9,47.9c1.2,4.7,2.2,9.3,3.1,14c0.2,1,1.7,0.6,1.5-0.4
	c-3.3-16.8-8.2-33.2-14.8-49c-1.8-4.4-3.8-8.8-5.9-13C156.4,415.3,155.6,415.8,155.9,416.4L155.9,416.4z"/>
<path class="st1" d="M192.6,446.9c9,15.4,19.8,29.8,28.3,45.5c4.4,7.8,8,16.2,10.5,24.8c2.5,9.1,2.5,18.6,1.2,27.9
	c-1.5,10.6-4.7,20.8-7.7,31c-0.1,0.5,0.2,1,0.6,1.1s1-0.2,1.1-0.6c5.7-17.8,11.2-37.1,7.5-55.8c-1.8-8.8-5.6-17.4-9.7-25.4
	c-4.3-8.1-9.1-15.9-14.2-23.5c-5.6-8.5-11.4-16.9-16.6-25.6c-0.2-0.3-0.5-0.4-0.8-0.2C192.5,446.2,192.4,446.5,192.6,446.9
	L192.6,446.9z"/>
<path class="st1" d="M47.8,513c7.9,16.9,15.9,33.7,23.8,50.6l11.8,25.1c1,2.1,2,4.2,2,6.6c-0.1,2.2-0.8,4.3-2,6.1
	c-1.4,2.6-2.8,5.1-4.2,7.7c-6.4,12.2-12.1,24.7-18,37.1c-3,6.2-5.9,12.4-9,18.6c-1.4,2.7-2.7,5.4-4.2,8.1c-1.5,2.6-2.9,5.3-4.1,8.1
	c-2.2,5.2-1.7,11.1,1.3,15.9c3.3,5.1,8.7,8.5,14,11c13.6,6.5,28.5,10.7,43.2,13.7c15.4,3,31.1,4.7,46.8,5c15.6,0.4,31.3-0.3,46.8-2
	c7.4-0.8,14.9-1.6,22.1-3.5c3.8-0.9,7.5-2.3,11-3.9c3.3-1.6,6.7-3.5,9.1-6.2c4.3-4.9,3.8-11.3,2.8-17.3c-1.5-8.4-3.2-16.8-5.1-25.2
	c-1-4.4-2.1-8.7-3.2-13.1c-0.2-0.5-0.7-0.7-1.2-0.5c-0.4,0.2-0.7,0.6-0.6,1c2.3,8.7,4.3,17.5,6.1,26.3c0.8,3.9,1.5,7.8,2.2,11.6
	c0.7,3.1,0.9,6.2,0.6,9.4c-1,7.5-8.4,11.3-14.7,13.8c-7.1,2.8-14.6,4-22.1,5c-15,1.9-30.1,2.9-45.3,2.9c-15.6,0.1-31.2-1.1-46.6-3.5
	c-14.9-2.3-29.6-6.3-43.7-11.8c-10-4-25.2-10.7-23-24c0.6-3.2,1.8-6.2,3.5-9c1.4-2.5,2.7-5,4-7.5c3-5.8,5.8-11.7,8.6-17.6
	c5.9-12.4,11.6-24.9,17.7-37.2c1.3-2.6,2.7-5.3,4-7.9c1.5-2.8,3.5-5.7,4.2-8.9c0.9-4-1.2-7.7-2.9-11.2L78,574
	c-7.8-16.5-15.6-32.9-23.5-49.4l-5.8-12.2C48.4,511.8,47.4,512.4,47.8,513L47.8,513z"/>
<path d="M712.6,324.7c2.3-0.7,4.6-1,7-1c2.2,0.1,4,1.4,5.8,2.6l1-2.4c-2.5-0.9-5-1.5-7.7-1.7c-2.4-0.3-4.8,0.3-6.7,1.7
	c-0.4,0.4-0.5,1.1-0.2,1.6s0.9,0.8,1.5,0.6c3.7-0.8,7.8-1.6,11.3,0.3c0.7,0.3,1.4,0,1.7-0.6s0.1-1.3-0.4-1.6
	c-1.7-0.9-3.6-1.3-5.5-1.3c-2.2-0.1-4.3-0.1-6.5,0.1c-0.7,0-1.2,0.5-1.2,1.2s0.5,1.2,1.2,1.2c2,0.1,3.9,0,5.9,0
	c1.6,0.1,3.3,0.1,4.7,1l1.3-2.3c-4-2.5-9-1.5-13.4-0.6l1.3,2.2c1.4-1.1,3.5-1.1,5.2-0.9c2.2,0.3,4.4,0.8,6.5,1.5
	c0.7,0.2,1.4-0.2,1.6-0.9c0.1-0.6-0.1-1.1-0.6-1.4c-2.1-1.3-4.3-2.5-6.8-2.4c-2.6,0.2-5.2,0.7-7.6,1.7c-0.4,0.1-0.6,0.6-0.4,0.9
	C711.9,324.6,712.2,324.8,712.6,324.7L712.6,324.7z"/>
<path d="M711.2,294.2c-4.2,9.4-3.6,19.8-4.3,29.9c-0.2,4.9-1.1,9.8-2.5,14.4c-0.8,2.4-1.9,4.6-3.3,6.7c-1.2,1.8-2.9,3.5-3.3,5.7
	c-1,5.7,5,8.6,9.4,10.2l-0.7-0.9c-0.4,4.6-0.5,9.2-0.3,13.8c0.2,4.1,0.3,8.5,1.7,12.5c2.5,6.9,9,11,15.8,12.8
	c4.7,1.1,9.6,1.7,14.5,1.7c1.1,0.1,1.1-1.7,0-1.7c-7.5-0.4-15.5-0.9-21.9-5.2c-2.9-1.8-5.1-4.5-6.4-7.6c-1.4-3.7-1.6-7.8-1.8-11.6
	c-0.2-4.9-0.1-9.7,0.3-14.6c0-0.4-0.3-0.8-0.7-0.9c-2.2-0.8-4.6-1.6-6.3-3.3c-1.8-1.6-2.3-4.3-1.2-6.4c1.1-1.9,2.5-3.5,3.6-5.4
	c1-1.9,1.9-3.9,2.5-6c2.7-8.8,2.1-18,2.6-27c0.3-5.6,1.1-11.2,3.4-16.4C712.6,294.1,711.5,293.5,711.2,294.2L711.2,294.2z"/>
<path class="st0" d="M705.8,359.6l-4.8,12c-2.1,5.2-4.2,10.6-4.8,16.2s0.6,11.7,4.4,15.9c2.9,3.2,7,5,11.2,6.1
	c8.9,2.3,18.2,1.6,26.7-1.8c4.7-1.8,8.8-4.7,12-8.5c5.1-6.4,6.3-15.2,5.7-23.4s-3-16.2-4.1-24.3s-1-16.9,3-24.1
	c1.7-3.1,4.1-5.8,5.4-9.1s1.4-7.5-1.2-9.9c-1.5-1.2-3.3-2.1-5.2-2.5l-4.6-1.3c-1-0.4-2-0.5-3-0.3c-2,0.4-3,2.7-3,4.7s1,3.9,1.6,5.8
	c2.8,8.6-0.2,18-1.5,27c-0.6,4.1-0.8,8.4-2.5,12.2s-5.3,7.2-9.5,7c-2.1-0.1-4.1-1-6.1-1.7c-6.2-2.1-12.9-1.8-18.8,0.9"/>
<path class="st0" d="M705.2,359.5c-2.2,5.4-4.6,10.8-6.7,16.2c-1.8,4.8-3.4,9.8-3.3,14.9c-0.1,4.6,1.3,9.1,4,12.8
	c2.9,3.7,7.3,5.9,11.8,7.1c10,2.7,20.6,1.8,30-2.6c8.8-3.8,14.9-12,15.9-21.6c1.5-10.5-1.5-20.8-3.3-31.1c-1-5.2-1.4-10.4-1-15.7
	c0.5-5.1,2.2-10.1,5.1-14.3c2.5-3.7,5.1-7.7,4.6-12.4c-0.2-1.9-1.1-3.7-2.5-5c-1.8-1.5-4.1-2.1-6.3-2.7s-5.1-2-7.4-1.3
	c-1.7,0.6-2.9,2.1-3.2,3.8c-0.5,2.3,0.4,4.6,1.2,6.7c0.9,2.6,1.4,5.2,1.5,8c0.1,5.7-1.2,11.2-2.2,16.8c-0.9,5.1-0.8,10.8-3.1,15.5
	c-1,2.1-2.7,3.9-4.7,5c-2.5,1.3-4.9,0.9-7.4,0c-4.6-1.9-9.7-2.5-14.7-1.9c-2.4,0.4-4.8,1.1-7,2.1c-1.1,0.5-0.1,2,0.9,1.6
	c4.6-2.1,9.8-2.7,14.8-1.7c4.4,0.9,8.5,3.8,13,2.1c4-1.5,6.5-5.3,7.7-9.2c1.5-4.7,1.6-9.9,2.5-14.8c0.9-5.1,2-10.2,1.9-15.4
	c0-2.4-0.4-4.9-1.1-7.2c-0.7-2.1-2-4.5-1.6-6.8c0.1-0.9,0.6-1.8,1.3-2.4c1.2-0.8,2.6-0.3,3.8,0.1c2.5,0.5,5,1.2,7.4,2.2
	c4.4,2.1,4.2,7.3,2.3,11.1c-1.2,2.1-2.4,4.1-3.8,6.1c-1.2,2-2.3,4.1-3,6.3c-1.4,4.4-2,9-1.7,13.6c0.4,10.4,3.8,20.4,4.6,30.7
	c0.7,9-0.9,18.8-7.8,25.3c-7.1,6.6-17.7,9.3-27.2,8.8c-4.9-0.1-9.8-1.3-14.2-3.5c-4.2-2.1-7.2-5.8-8.5-10.3c-2.7-9.9,2.2-20,5.7-29
	l2.9-7.6C706.7,359.1,705.6,358.8,705.2,359.5L705.2,359.5z"/>
<path class="st0" d="M751.8,334.1c2.1-2.8,4.7-5.7,8.1-6.4c4.4-0.7,8.5,2.4,9.2,6.8c0,0,0,0,0,0.1c0.3,3.1-1.2,6.1-3,8.6
	c-0.4,0.5-0.7,1.1-0.8,1.8c0,0.8,0.4,1.6,1,2.2c2.4,3.1,4.9,6.1,7.7,8.9c4.2,4.2,9.5,8.2,15.4,7.8c2.1,0,4.1-1,5.6-2.6
	c0.8-1.2,1.4-2.6,1.7-4c3.2-11.7,3.4-14.3,5.7-26.2c1.6-8.1,2.8-17.8-0.1-25.9c-2.1-5.9-7.9-11.2-13.2-14.6
	c-11.1-7.2-22.9-19.4-35.8-16.3c-1.4,0.4-2.8,0.6-4.2,0.6c-1.6-0.3-3.2-0.9-4.6-1.7c-6.8-2.9-14.8-1.1-21.3,2.5s-11.9,8.8-17.8,13.2
	c-2.3,1.7-4.8,3.6-5.4,6.4c-0.4,2.4,0.4,4.9,2.2,6.6c1.7,1.7,3.7,3.1,5.9,4.1c0-2.4,0.2-5.3,2.3-6.4c0.7-0.3,1.5-0.5,2.3-0.6l29.6-4
	c-4.7,5.7-3.8,14.1,1.9,18.8c3.3,2.7,7.8,3.7,12,2.5c1.5-0.4,3.6-0.9,4.4,0.5c0.6,1,0,2.2-0.6,3.1l-3.2,5.4"/>
<path class="st0" d="M752.2,334.4c2.6-3.3,6.3-7.3,10.9-6c2,0.6,3.7,2,4.7,3.8c1,2.2,0.9,4.7-0.2,6.8c-0.5,1.1-1.1,2.2-1.9,3.2
	c-0.7,0.7-1.1,1.7-1.2,2.7c0,2,2.2,4,3.4,5.4c3,3.8,6.4,7.3,10.3,10.2c3.5,2.5,7.7,4.4,12.1,3.8c1.9-0.2,3.7-1.1,5.1-2.5
	c1.5-1.7,1.9-4,2.5-6.1c2-7.5,3.5-15.1,5-22.8c1.8-9.1,3.5-19.1,0.3-28.1c-3.2-8.5-11.2-13.2-18.2-18.3s-13.8-11-22.2-13.1
	c-1.9-0.5-3.9-0.7-5.9-0.7c-2.4,0.1-4.6,1-6.9,1.1s-4.5-1.5-6.7-2.2s-4.5-1-6.8-0.9c-9.9,0.2-18,6.2-25.4,12.2c-2,1.6-4,3.3-6.1,4.9
	c-1.7,1.1-3.2,2.5-4.6,4c-2.8,3.5-1.9,8,1.1,11c1.7,1.6,3.7,2.9,5.8,4c0.4,0.3,1,0.1,1.3-0.3c0.1-0.1,0.1-0.3,0.1-0.5
	c0-2.4,0-5.4,2.9-6c3.3-0.7,6.8-0.9,10.1-1.4l20.2-2.7l-0.6-1.5c-5,6.1-4.2,15.1,1.9,20.1c3.4,2.8,7.8,3.9,12.1,3
	c1.5-0.3,5-1.5,3.6,1.4c-1,2-2.3,4-3.5,5.9c-0.3,0.5-0.1,1.1,0.4,1.4s1.1,0.1,1.4-0.4c1.4-2.1,2.7-4.3,3.8-6.5
	c0.7-1.6,0.3-3.6-1.5-4.2s-3.4,0.2-5.1,0.5c-1.9,0.3-3.9,0.2-5.8-0.4c-3.9-1.2-6.9-4.2-8.2-8c-1.2-3.9-0.4-8.2,2.1-11.5
	c0.3-0.4,0.3-0.9,0-1.3c-0.2-0.2-0.5-0.3-0.8-0.2l-23,3.1l-5.7,0.8c-1.4,0.2-2.9,0.3-4.1,1.2c-2,1.6-2.2,4.4-2.2,6.8l1.4-0.8
	c-3.5-2-9.2-5.5-7.4-10.4c0.7-2,2.5-3.4,4.2-4.6c1.8-1.4,3.6-2.8,5.3-4.2c7.2-5.9,14.9-12.3,24.6-13.2c2.3-0.2,4.5,0,6.7,0.5
	c2.1,0.5,3.9,1.7,6,2.3c2.3,0.6,4.4-0.2,6.7-0.6c1.9-0.3,3.9-0.3,5.9,0c8.1,1.3,15.1,6.9,21.5,11.6c6.8,5,14.7,9.2,18.7,16.9
	c2.1,4.1,2.6,8.9,2.6,13.4c-0.1,4.7-0.6,9.3-1.6,13.8c-1.4,7.2-2.7,14.5-4.5,21.6c-0.5,2.2-1.1,4.4-1.8,6.5s-2.6,3.6-4.8,3.9
	c-4.5,0.9-9-1.5-12.4-4.2c-3.6-3-6.8-6.3-9.7-10c-0.7-0.9-1.9-1.9-2.2-3s1.1-2.6,1.7-3.6c1.1-1.8,1.9-3.8,2.1-5.9
	c0.2-3.5-1.8-6.8-5-8.3c-3.4-1.6-7-0.7-9.7,1.7c-1.5,1.3-2.8,2.8-3.9,4.5C751,334.3,751.8,335,752.2,334.4L752.2,334.4z"/>
<path d="M803,404.1c-2-8.1-3.8-16.1-5.4-24.3c-0.8-4-1.5-8-2.2-12s-1.2-8.4-2.2-12.5c-0.3-1.2-2.4-1-2.2,0.3
	c0.5,4.1,1.3,8.3,2.3,12.3c0.8,4,1.7,8.1,2.7,12.1c1.9,8.1,3.9,16.3,6.1,24.3c0.1,0.3,0.4,0.5,0.7,0.4S803.1,404.5,803,404.1
	L803,404.1z"/>
<path d="M732.1,404.5c0.7,3.4,1.5,6.7,2.3,10c0.4,1.6,0.8,3.2,1.2,4.9c0.3,1.6,0.8,3.2,1.4,4.8c0.3,0.6,1.4,0.3,1.3-0.4
	c-0.2-1.6-0.5-3.1-1-4.7c-0.4-1.7-0.9-3.4-1.3-5c-0.9-3.3-1.7-6.6-2.7-9.9c-0.1-0.3-0.5-0.5-0.8-0.3
	C732.3,403.9,732.1,404.1,732.1,404.5L732.1,404.5z"/>
<path d="M387.5,607.7l1.8-1.3l0.9-0.7l0.5-0.3c0.1-0.1,0.3-0.2,0.5-0.3c0.3-0.2,0.4-0.6,0.3-0.9s-0.6-0.4-0.9-0.3
	c-0.1,0-0.1,0.1-0.2,0.2c-0.1,0.1-0.3,0.3-0.4,0.4l-0.4,0.3l-0.9,0.7l-1.7,1.4c-0.2,0.2-0.2,0.5,0,0.7
	C387,607.7,387.3,607.8,387.5,607.7L387.5,607.7z"/>
<path d="M398.1,612.8c1.7-1.2,3.4-2.5,5.1-3.8c0.5-0.4-0.2-1.4-0.8-1c-1.7,1.2-3.3,2.6-5,3.9C397,612.4,397.6,613.2,398.1,612.8
	L398.1,612.8z"/>
<path d="M406.7,616.4l4.7-3.5c0.3-0.2,0.4-0.5,0.2-0.8c-0.2-0.3-0.5-0.4-0.8-0.2c-0.1,0-0.1,0.1-0.1,0.1l-4.6,3.6
	C405.6,615.9,406.3,616.7,406.7,616.4z"/>
<path d="M422.1,624c13.1-2.4,25.2-8.4,35.1-17.3c2.5-2.2,4.9-4.7,7-7.3c2.1-2.4,3.5-5.4,4-8.5c0.4-3.6-0.2-7.4-0.8-11
	c-0.5-3.4-1.5-6.7-2.8-9.8c-2.9-6.3-8.4-11.6-15.6-12.3c-1-0.1-1,1.5,0,1.6c6,0.7,10.9,5.2,13.5,10.4c1.5,3.1,2.5,6.3,3.1,9.7
	c0.7,3.3,1,6.6,1,10c-0.1,3.7-1.8,6.6-4.1,9.3c-1.9,2.3-4,4.4-6.2,6.4c-4.6,4.1-9.6,7.6-15,10.5c-6.1,3.3-12.7,5.8-19.4,7.3
	C421.2,623.1,421.5,624.2,422.1,624L422.1,624z"/>
<path class="st0" d="M719,424.6c-19.4-2.3-38.3,6.9-52.7,19.4c-15.6,13.5-27.1,31-39.5,47.3c-6.8,8.9-14,17.7-21.3,26.2
	c-3.5,4.1-7.1,8.2-10.8,12.1c-3.3,3.8-7.1,7.1-11.3,10c-9.2,6-20.5,6.5-31.1,7.7c-11.5,1.3-23,2.4-34.5,3.3
	c-11.5,0.9-23.1,1.5-34.6,2c-5.8,0.2-11.5,0.4-17.3,0.5c-4.8,0.1-9.7-0.1-14.4,1.1c-2.2,0.5-4.2,1.5-6.1,2.8c-1,0.7,0,2.3,1,1.6
	c4-2.8,8.9-3.3,13.6-3.5c5.6-0.2,11.1-0.2,16.7-0.4c11.5-0.4,22.9-1,34.4-1.7c11.4-0.8,22.9-1.8,34.3-3c5.7-0.6,11.4-1.3,17.1-2
	c5.1-0.5,10.2-1.6,15.1-3.2c9.2-3.5,16-10.9,22.4-18.1c7.4-8.3,14.6-16.9,21.6-25.6c13-16.3,24.3-34.1,39-49.1
	c13.6-13.9,31.4-25.5,51.4-26.3c2.4-0.1,4.8-0.1,7.2,0.1C719.8,425.8,719.7,424.7,719,424.6L719,424.6z"/>
<path class="st2" d="M726.3,456c-1.5-3.2-0.2-7,3-8.5c0.8-0.4,1.7-0.6,2.6-0.6c3.9,0,8.1,3.3,11.4,1.3c1.1,2.9,4.2,4.2,2.3,6.6
	c-1.5,1.9-7.3,5.4-8.6,7.4c-2.2,3.3-1.7,7.6-1.2,11.5c6.4,44.4,14.1,88.7,23.1,132.7c0.6,2.9,1.2,5.9,0.5,8.8c-0.6,2.7-2.3,4.9-4,7
	c-8.4,10.6-17.7,20.4-27.8,29.3c-0.3,0.3-0.6,0.5-1,0.6c-0.6,0-1.1-0.6-1.4-1.2L710.4,624c-1.4-2.5-2.8-5.1-3.3-7.9
	c-0.2-2.1-0.2-4.2,0.2-6.3c4.7-42.3,9.5-84.7,17.2-126.6c1-6.1,2.4-12,4.3-17.9c0.9-2.8,0.4-5.8-1.4-8.1l-1.5-1.9"/>
<path class="st2" d="M726.9,455.6c-1.6-3.7,1-8.2,5.2-8c4,0.1,7.8,3.3,11.7,1.2l-1.2-0.5c0.5,1,1,2,1.8,2.9c0.8,1,1.5,1.9,0.7,3.1
	c-1.3,1.7-3.5,2.9-5.1,4.2s-3.4,2.6-4.3,4.6c-1.2,2.8-1.1,5.9-0.8,8.9c0.8,7.2,2,14.3,3.1,21.4c1.1,7.3,2.3,14.6,3.5,21.9
	c4.8,29.2,10.1,58.3,16,87.3c0.7,3.5,1.9,7.4,1.5,11s-2.9,6.4-5,9c-4.4,5.5-9,10.7-13.8,15.7c-2.3,2.4-4.7,4.8-7.2,7.1
	c-1.2,1.2-2.4,2.3-3.7,3.5c-0.5,0.5-1.1,1-1.7,1.5l-0.3,0.3c-0.4,0.3-0.7,0.3-0.8-0.2c-0.4-0.5-0.7-1-0.9-1.6l-10.8-19.5
	c-1.7-3-3.5-6-5-9.1c-0.8-1.5-1.3-3.2-1.6-4.9c-0.2-1.9-0.1-3.9,0.2-5.8c0.8-7.3,1.6-14.7,2.5-22.1c1.7-14.7,3.4-29.4,5.3-44.1
	c2-14.9,4.1-29.8,6.6-44.6c1.2-7.2,2.4-14.4,3.9-21.5c0.7-3.4,1.5-6.7,2.5-10c0.9-2.9,1.6-5.6,0.3-8.6c-0.7-1.5-1.7-2.9-2.8-4.1
	c-0.8-1-2.1,0.4-1.4,1.4c1.2,1.5,2.5,3,2.9,5c0.3,1.6,0.1,3.3-0.5,4.8c-0.6,1.8-1.1,3.6-1.6,5.4c-1.8,7.1-3,14.5-4.2,21.7
	c-2.6,15-4.9,30-6.9,45.1c-2,14.9-3.8,29.8-5.6,44.8c-0.9,7.5-1.7,15-2.5,22.5c-0.4,3.6-1.2,7.4-0.6,11c0.5,3.3,2.2,6.2,3.8,9
	l11.1,19.9l2.7,4.8c0.6,1.1,1.2,2.7,2.6,2.9s2.5-1.2,3.4-2c1.4-1.2,2.7-2.5,4.1-3.7c5.1-4.8,10-9.9,14.7-15.2
	c2.3-2.7,4.6-5.4,6.8-8.1c2-2.5,4.1-5,5-8.1c1-3.3,0.2-6.8-0.5-10.1c-0.8-3.7-1.5-7.4-2.2-11.1c-1.5-7.4-2.9-14.8-4.3-22.3
	c-2.8-14.9-5.5-29.8-8-44.7s-4.9-29.9-7.1-44.8c-0.5-3.7-1.2-7.4-1.6-11.1c-0.3-3-0.5-6.6,1.4-9.1c1.3-1.8,3.5-3.1,5.3-4.4
	c1.4-1.1,3.6-2.5,3.9-4.4c0.3-2.3-2.1-3.9-2.9-5.8c-0.1-0.4-0.6-0.7-1-0.6c-0.1,0-0.1,0-0.2,0.1c-2.4,1.3-5.1,0-7.5-0.7
	c-2-0.8-4.2-0.8-6.3,0c-3.6,1.7-5.1,6.1-3.4,9.6l0,0C726.1,457.1,727.2,456.4,726.9,455.6L726.9,455.6z"/>
<path class="st0" d="M462.9,601c3.3,5.8,10.2,7.5,16.1,9.2c8.3,2.4,16.7,4.8,25.1,7c16.5,4.3,33.2,8,50.3,9.5c8,0.9,16,1.1,24,0.7
	c6.3-0.4,12.6-1.4,18.8-2.9c13.3-3.2,26.2-8.3,38.2-15c11.4-6.4,22.3-14.2,31.2-23.8c1-1.1,2-2.3,3-3.5c0.6-0.8-0.4-1.8-1.1-1.1
	c-8.5,9.5-18.3,17.7-29.3,24.3c-11.6,7-24,12.5-37,16.2c-6.2,1.8-12.6,3.1-19,3.8c-7.1,0.7-14.3,0.8-21.5,0.3
	c-16.8-1-33.4-4.1-49.8-8.1c-8.1-2-16.2-4.2-24.3-6.5c-3.9-1.1-7.8-2.1-11.7-3.3c-3.1-0.8-6.1-2.1-8.7-3.9c-1.3-1-2.5-2.2-3.4-3.6
	c-0.2-0.3-0.6-0.3-0.8-0.1C462.8,600.5,462.7,600.8,462.9,601L462.9,601z"/>
<path class="st0" d="M671.5,486.2c-4.1,24.3-5.2,48.9-4.5,73.5s3.3,49.2,6.5,73.7c1.6,12.2,3.4,24.5,5.2,36.7
	c0.8,5.5,1.3,11.2,3,16.5c1.4,4.6,4.4,8.6,8.4,11.3c4.1,2.7,8.9,4,13.6,5.2c6.1,1.6,12.2,3,18.3,4.1c12,2.3,24.1,3.9,36.3,4.7
	c24.3,1.5,48.7-0.4,72.5-5.6c3.1-0.7,6.1-1.4,9.1-2.3c0.5-0.1,0.8-0.6,0.6-1.1s-0.6-0.8-1.1-0.6c-11.9,2.8-24,5-36.2,6.5
	c-11.8,1.3-23.7,1.8-35.6,1.5c-12.1-0.3-24.1-1.4-36.1-3.3c-6-1-11.9-2.1-17.8-3.4c-5.5-1.1-10.9-2.5-16.2-4.2
	c-4.7-1.6-9.2-4.1-11.9-8.3s-3.6-9.6-4.3-14.6c-1.8-12-3.6-23.9-5.3-35.9c-3.4-24.1-6.2-48.3-7.4-72.7c-1.2-24.1-0.8-48.3,2.4-72.2
	c0.4-3,0.8-6,1.3-9C672.8,485.7,671.6,485.4,671.5,486.2L671.5,486.2z"/>
<path class="st0" d="M238.9,708.5c-1.1,1.7-2.5,3.1-4.1,4.2c-7.5,5.3-17.2,7.9-26.2,9.2c-46.9,6.8-103.5,5.4-147.4-14.2
	c-4.5-1.9-8.7-4.6-12.3-7.9c-9.5,20.7-22.8,56.4-23.9,95.3h230.9L238.9,708.5z"/>
<path class="st0" d="M824.2,418.1c18.1-6.2,37.7-2.1,54.1,7c17.4,9.7,30.5,25.2,41,41.8c11.3,17.9,20.2,37.2,29.7,56
	c9.8,19.5,21.2,39.5,24.4,61.5c1.7,10.8,0.5,21.8-3.2,32c-3.8,10.2-9.3,19.8-14.7,29.2c-10.4,18.3-22.1,35.9-35.1,52.5
	c-6.5,8.4-13.3,16.5-20.3,24.4c-6.7,7.4-13.5,15-22.1,20c-4.1,2.6-8.8,4.1-13.6,4.5c-4.9,0.2-9.8-1.1-14-3.7
	c-4.1-2.6-7.9-5.7-11.3-9.2c-1.9-1.6-3.5-3.4-4.9-5.5c-1.6-2.7-0.9-5.7,0.2-8.5c2.2-5.6,4.8-11.1,7.1-16.6l6.9-16
	c4.5-10.4,9-20.8,13.5-31.2c8.7-19.8,17.9-39.5,29-58.2c2.8-4.6,5.6-9.1,8.6-13.6H898c0-0.1-1.2-0.1-1.5-0.2
	c-0.8-0.3-1.4-0.9-1.8-1.6l-4-4.9c-2.6-3.1-5.1-6.3-7.6-9.4c-5.2-6.5-10.3-13.1-15.2-19.8c-9.9-13.1-18.7-27-26.3-41.5
	c-4.3-8.3-7.9-16.8-10.9-25.6c-0.3-1-1.9-0.5-1.5,0.4c11.8,34.7,33.9,64.4,56.7,92.6l4.7,5.8l2.5,3.1c0.5,0.8,1.2,1.5,2,2.1
	c1.5,0.9,6.1,0.9,4.4-1.9c-0.3-0.4-0.8-0.5-1.2-0.3c-0.1,0.1-0.2,0.2-0.3,0.3c-12.6,18.8-22.8,39-32.2,59.5
	c-9.8,21.5-18.9,43.2-28.2,64.9l-3.7,8.5c-1.2,2.3-2,4.8-2.5,7.4c-0.6,5.1,3.4,8.5,6.7,11.7c6.8,6.6,14.7,13,24.7,13.1
	c9.6,0.1,18.2-5.4,25.2-11.5c8-7,15-15.3,21.8-23.4c14.1-16.6,26.9-34.2,38.3-52.6c5.7-9.2,11.1-18.7,16.2-28.3
	c5.1-9.8,9.9-19.9,11.2-31c2.6-22.2-7-43.8-16.5-63.2c-5.3-10.7-10.7-21.3-16.1-32c-4.9-9.6-9.7-19.3-14.9-28.7
	c-9.8-17.6-21.5-34.9-37.7-47.2c-15-11.4-34.2-18.9-53.3-17c-4.5,0.4-8.9,1.4-13.1,2.9C823.1,417.1,823.4,418.2,824.2,418.1
	L824.2,418.1z"/>
<path class="st3" d="M829.7,715.3c17.6,17.5,45.4,26.7,68.1,40.3c0.6,0.3,1.1,0.7,1.5,1.3c0.7,1.2-0.7,2.5-2,3.3
	c-6.4,3.8-15.3,3.8-23.1,2.4c-9.4-1.8-18.4-5.2-26.6-10.1c-13.4-7.9-24.3-19.7-23.8-32.6"/>
<path class="st3" d="M829.2,715.7c16.2,16.2,38.4,24.5,58.2,35.1c2.5,1.3,5,2.7,7.5,4.1c1,0.6,2.7,1.2,3.4,2.1
	c1,1.3-1.9,2.7-2.8,3.1c-5.3,2.6-11.5,2.7-17.3,2.1c-12.2-1.4-24.2-6.4-34.3-13.3c-9.6-6.5-19.5-16.6-19-29c0-1.4-2.2-1.4-2.2,0
	c-0.4,11.4,7.5,21.1,16,27.8c10.3,8.1,22.5,13.6,35.5,15.9c6,1,12.3,1.4,18.2-0.3c2.5-0.7,5.8-1.8,7.5-4c1.9-2.5-0.7-4.2-2.7-5.3
	c-10.7-6.3-22.1-11.4-33.2-17c-12-6.1-24.1-12.7-33.8-22.2c-0.3-0.2-0.6-0.2-0.9,0.1C829.1,715.2,829.1,715.5,829.2,715.7
	L829.2,715.7z"/>
<path class="st0" d="M829.5,714.7c6.4,6.7,13.6,12.5,21.5,17.3c8.1,4.8,16.5,9.1,25.2,12.9c4.8,2.3,9.7,4.3,14.7,6
	c1.4,0.4,2.3-1.7,1-2.4c-4.1-1.9-8.5-3.5-12.7-5.2s-8.6-3.6-12.8-5.7c-8.3-4-16.2-8.6-23.8-13.8c-4.3-3-8.4-6.3-12.3-9.9
	c-0.2-0.2-0.6-0.2-0.8,0S829.3,714.5,829.5,714.7L829.5,714.7L829.5,714.7z"/>
<path d="M363.1,511.8c3.6-2.8,7.2-5.8,11.1-8.2c1.9-1.3,4.2-2,6.5-1.9c2.3,0.2,4,1.7,5.4,3.3c2.9,3.2,5.1,6.9,6.5,11
	c0.3,0.9,0.6,1.8,0.8,2.8s0.8,2.5,0.2,3.3s-2.1,0.8-3.1,0.8c-1.2-0.1-2.5-0.4-3.6-0.9c-4.2-1.7-7.8-4.5-10.5-8.1
	c-0.5-0.6-1.5,0.2-1.1,0.9c2.5,4,6.3,7,10.6,8.8c2.2,0.9,4.9,1.7,7.3,0.9c0.9-0.2,1.6-0.8,2.1-1.5c0.4-1,0.4-2,0.1-3
	c-1-4.9-3.1-9.6-6.1-13.6c-1.3-1.9-3-3.6-4.9-5c-2.1-1.3-4.6-1.6-7-0.9c-2.7,0.8-5,2.5-7.2,4.3l-7.9,6.3
	C362,511.3,362.6,512.2,363.1,511.8L363.1,511.8z"/>
<path d="M423.4,521c-1.3-3-4.4-4.7-7.1-6.2c-3.1-1.8-6.4-3.2-9.8-4.3c-3.4-1.1-6.9-1.8-10.5-2.2c-1.5-0.2-3.5-0.6-5.1-0.3
	c-1,0.2-1.4,1.3-0.5,1.9c0.3,0.2,0.6,0.2,0.8,0h0.1c0.8-0.4,0.2-1.8-0.6-1.5h-0.1l0.8,0.2l0.1,0.4l-0.4,0.7c0.3-0.2,1.4,0,1.8,0.1
	c0.7,0,1.5,0.1,2.2,0.2c1.5,0.1,3,0.4,4.5,0.6c2.8,0.5,5.6,1.2,8.3,2.2c2.8,1,5.5,2.1,8.1,3.5c2.5,1.3,5.2,2.7,6.5,5.3
	C422.8,522.2,423.7,521.6,423.4,521L423.4,521z"/>
<path d="M421.5,531.5c-1-0.8-2.1-1.6-3.3-2.2c-0.6-0.3-1.2-0.6-1.8-0.8l-0.9-0.3c-0.3-0.2-0.7-0.3-1.1-0.3c-0.3,0-0.5,0.2-0.6,0.4
	c-0.1,0.3-0.1,0.5,0.1,0.7c0.3,0.2,0.6,0.4,1,0.4l0.9,0.3c0.6,0.2,1.2,0.5,1.7,0.7c1.1,0.5,2.3,1.2,3.3,1.9
	C421.4,532.7,422.1,531.9,421.5,531.5L421.5,531.5z"/>
<path d="M419.6,538.5c-0.4-0.3-0.8-0.6-1.3-0.9c-0.5-0.3-1-0.5-1.5-0.7c-1-0.4-2.1-0.6-3.1-0.6c-0.3,0-0.6,0.2-0.6,0.6
	c0,0.3,0.2,0.6,0.5,0.7c1,0.1,1.9,0.4,2.9,0.6c0.9,0.3,1.8,0.7,2.6,1.2C419.4,539.7,420.1,538.9,419.6,538.5L419.6,538.5z"/>
<path d="M418.7,546c-1.7-0.6-3.5-1.1-5.3-1.5c-0.4-0.1-0.8,0.2-0.8,0.6c-0.1,0.3,0.1,0.7,0.4,0.8c1.8,0.5,3.6,0.9,5.4,1.2
	c0.3,0,0.5-0.2,0.6-0.5C419,546.3,418.9,546.1,418.7,546L418.7,546z"/>
<path class="st0" d="M734.9,416.2c-2.8-0.1-6-0.2-8.7,0.8c-2.3,0.8-3.5,3.3-4.7,5.3c-2.9,4.9-5.3,10.1-7,15.5
	c-0.8,2.7-1.6,5.4-2.1,8.1c-0.3,1.3-0.5,2.6-0.7,3.9c-0.3,1.3-0.4,2.5-0.3,3.8c0.8,6.3,8.6,0.8,11-1.2c5-4.1,9.5-8.8,13.3-14.1
	c0.6-0.8-0.7-1.8-1.3-1c-3.1,3.8-6.5,7.4-10.1,10.7c-1.7,1.7-3.6,3.2-5.5,4.5c-1,0.7-2,1.2-3.1,1.6c-0.5,0.2-1.2,0.4-1.7,0.1
	s-0.5-1-0.5-1.4c0.1-2.4,0.4-4.7,1-7c0.5-2.3,1.1-4.6,1.8-6.9c1.4-4.7,3.3-9.3,5.6-13.7c0.6-1.2,1.3-2.3,2-3.5
	c0.6-1.2,1.4-2.3,2.4-3.1c1.2-0.6,2.6-1,3.9-1.1c1.6-0.2,3.2-0.4,4.8-0.5c0.3,0,0.5-0.3,0.5-0.6
	C735.4,416.4,735.2,416.2,734.9,416.2L734.9,416.2z"/>
<path class="st0" d="M737.7,437.8c1.7,4.7,3.9,9.2,6.5,13.5c2.1,3.6,4.6,8.3,8.5,10.1c1.8,0.8,4,0.8,5.8,0c2.2-0.9,4.4-2,6.6-3.2
	c4.6-2.4,9.1-5.1,13.5-8c9.1-5.9,18-12.1,27-18.2c4.6-3.1,9.2-6.2,13.7-9.5c1.6-1.2,3.5-2.5,4.1-4.5c0.7-2.3-0.7-4.4-1.7-6.4
	c-4.2-8.1-9.6-21.2-21.1-19.2c-1.2,0.2-0.7,2.1,0.5,1.9c4.3-0.8,8.3,1.7,11.1,4.8c2.9,3.3,4.8,7.5,6.7,11.5l1.5,3
	c0.5,1.1,1.4,2.4,1.2,3.6c-0.4,2-3.1,3.5-4.6,4.6c-4,2.9-8.2,5.7-12.3,8.5c-8.1,5.5-16.1,11-24.3,16.4c-3.9,2.6-7.9,5.1-12,7.5
	c-2,1.1-4,2.3-6.1,3.3s-4.2,2.5-6.4,2.8s-4.2-1.5-5.7-3.1c-1.6-1.9-3-3.9-4.3-6.1c-2.7-4.4-5.1-9-7.3-13.7c-0.1-0.3-0.4-0.4-0.7-0.3
	C737.7,437.2,737.6,437.6,737.7,437.8L737.7,437.8z"/>
<path class="st0" d="M802.9,401.2c-0.5,2.8-2.7,4.8-5.1,6.2s-5.2,2.6-7.8,3.9c-5.3,2.5-10.7,5-16.1,7.3c-5.5,2.3-11.1,4.3-16.8,6
	c-2.8,0.8-5.6,1.5-8.4,2.1c-1.3,0.3-2.7,0.5-4,0.8c-1.4,0.1-2.8,0.4-4.2,0.9c-2.6,1.1-3.6,4.2-4.4,6.7c-1,3.2-1.6,6.5-1.8,9.8
	c-0.1,1.1,1.7,1.1,1.8,0c0.2-3.1,0.7-6.2,1.7-9.1c0.4-1.4,0.9-2.7,1.6-4c0.7-1.2,2-2.1,3.4-2.2c5.7-0.9,11.4-2.2,17-3.9
	c11.1-3.5,21.7-8.4,32.2-13.4c4.9-2.4,11.4-4.7,11.9-11C804,400.7,803,400.5,802.9,401.2L802.9,401.2z"/>
<g>
	<path class="st5" d="M100.6,348.3c8.3-1.5,16.3-4.1,23.8-7.8c0.7-0.4,0.1-1.4-0.6-1.1c-7.5,3.5-15.4,6.1-23.5,7.8
		C99.7,347.4,99.9,348.4,100.6,348.3z"/>
	<path class="st5" d="M106.1,355.2c6.2-1.4,12.3-3.6,18-6.4c0.7-0.4,0.1-1.5-0.6-1.1c-5.6,2.8-11.5,4.9-17.6,6.4
		C105.1,354.4,105.4,355.4,106.1,355.2L106.1,355.2z"/>
	<path class="st5" d="M114.1,361.6c1.1-0.2,2-0.9,2.5-1.8c0.2-0.3,0.1-0.6-0.2-0.8c-0.3-0.2-0.6-0.1-0.8,0.2l0,0
		c0,0.1-0.1,0.2-0.2,0.3l-0.1,0.1c0,0,0.1-0.1,0,0l-0.1,0.1c-0.2,0.2-0.3,0.3-0.5,0.5h-0.1l-0.1,0.1l-0.3,0.2l-0.2,0.1
		c-0.1,0,0.1,0,0,0h-0.1l-0.3,0.1c-0.3,0-0.5,0.3-0.5,0.6c0,0.3,0.3,0.5,0.6,0.5C113.9,361.6,114,361.6,114.1,361.6L114.1,361.6z"/>
	<path class="st5" d="M147.2,325.1l1.4-0.2c0.1,0,0.2,0,0.3-0.1l0.1-0.1c0.3-0.3,0.3-0.7,0-0.9c0,0,0,0-0.1-0.1s-0.1-0.1-0.2-0.1
		c-0.1,0-0.2,0-0.4,0l-1.4,0.2c-0.2,0-0.3,0.1-0.4,0.3c-0.1,0.1-0.1,0.3-0.1,0.4s0.1,0.3,0.2,0.4C146.9,325,147,325.1,147.2,325.1
		L147.2,325.1z"/>
	<path class="st5" d="M720.6,512.6c5.2-6,10.9-11.6,16.8-16.9c0.7-0.6-0.3-1.5-1-1c-6,5.2-11.6,10.9-16.6,17.1
		C719.4,512.4,720.1,513.2,720.6,512.6L720.6,512.6z"/>
	<path class="st5" d="M724.8,489c1.5-1.5,3.2-2.9,4.9-4.1c0.8-0.6,1.7-1.2,2.6-1.8s1.9-1.1,2.7-1.8c0.5-0.4,0-1.2-0.6-1
		c-1,0.4-1.9,1-2.8,1.6c-0.9,0.6-1.8,1.3-2.7,2c-1.7,1.3-3.4,2.8-4.9,4.4c-0.2,0.2-0.2,0.5,0,0.8S724.6,489.2,724.8,489L724.8,489z"
		/>
	<path class="st5" d="M728.6,470.7c2.3-1.5,4.7-2.7,7.2-3.6c0.7-0.2,0.4-1.4-0.3-1.2c-2.7,1-5.2,2.2-7.5,3.8
		C727.4,470.2,728,471.1,728.6,470.7L728.6,470.7z"/>
	<path class="st5" d="M729.2,458.7c4.3-3.3,9.1-5.9,14.3-7.6c0.7-0.2,0.4-1.4-0.3-1.2c-5.3,1.8-10.2,4.5-14.6,8
		C728.1,458.3,728.7,459.1,729.2,458.7L729.2,458.7z"/>
	<path class="st5" d="M728.1,451.9l0.3-0.3c0.1-0.1,0.1-0.1,0.1-0.2s0.1-0.2,0.1-0.2c0-0.1,0-0.2-0.1-0.2c0-0.1-0.1-0.1-0.1-0.2
		l-0.1-0.1c-0.1-0.1-0.2-0.1-0.3-0.1h-0.2c-0.1,0-0.2,0.1-0.3,0.1l-0.3,0.3c-0.1,0.1-0.1,0.1-0.1,0.2s0,0.2,0,0.2c0,0.1,0,0.2,0,0.2
		c0,0.1,0.1,0.1,0.1,0.2l0.1,0.1c0.1,0.1,0.2,0.1,0.3,0.1h0.2C728,452,728.1,452,728.1,451.9L728.1,451.9z"/>
	<path class="st5" d="M717.2,538c3.9-3.8,7.1-8.2,10.9-12.1c1.9-2,4-3.8,6.2-5.4c2.1-1.5,4.6-2.9,6.2-5c0.2-0.2,0.2-0.6,0-0.9
		s-0.6-0.2-0.9,0c-4,3.6-8.7,6.4-12.4,10.4s-6.9,8.4-10.8,12.2C715.9,537.7,716.7,538.5,717.2,538L717.2,538z"/>
	<path class="st5" d="M714.4,569.6c4.4-5.2,9-10.2,13.9-14.9c2.4-2.3,4.9-4.6,7.5-6.8s5.4-4.2,8-6.5c0.6-0.5-0.2-1.5-0.8-1
		c-2.7,1.9-5.3,4-7.8,6.3c-2.6,2.2-5.1,4.5-7.6,6.9c-5,4.8-9.7,9.8-14,15.2C713.1,569.3,713.9,570.1,714.4,569.6L714.4,569.6z"/>
	<path class="st5" d="M711.3,604c13.2-12.2,26.3-24.4,39.3-36.6c0.7-0.7-0.3-1.7-1-1c-13,12.3-26,24.6-39.1,36.9
		C710.1,603.8,710.8,604.5,711.3,604L711.3,604z"/>
	<path class="st5" d="M720.5,635.4c12.5-12.3,24.7-24.9,36.6-37.9c0.6-0.7-0.4-1.7-1-1c-11.9,12.9-24,25.6-36.4,38.1
		c-0.2,0.2-0.2,0.6,0.1,0.8C719.9,635.6,720.2,635.6,720.5,635.4L720.5,635.4z"/>
	<path class="st5" d="M738.6,761.7c3.8,3.4,4.6,9.3,5.5,14c1,5.7,1.6,11.6,1.7,17.4c0,0.4,0.5,0.8,0.9,0.7c0.4,0,0.7-0.3,0.7-0.7
		c-0.1-6.1-0.7-12.2-2-18.2c-1-4.8-2-10.6-6-13.9C738.8,760.5,738,761.2,738.6,761.7L738.6,761.7z"/>
</g>
<path class="st6" d="M467.2,223.7c-22.6-16.7-52.9-20.5-80.2-18.1s-58.5,10.7-78.1,30.9c-12.4,12.8-19.8,30.8-18.4,48.5
	c1.2,16,9.2,31.1,20.9,42.2s26.7,18.2,42.3,21.7c-4.9,7.8-11.3,14.6-18.9,19.8c11.5,0.4,20.6-9.3,31.4-13.6
	c13.5-5.4,28.8-2,43.3-2.4c22.2-0.7,43.2-10.4,58.1-26.9c24.6-27.4,30.1-75,0.8-101.2"/>
<path class="st6" d="M467.6,223c-17.2-12.7-38.6-18-59.7-19c-10.3-0.4-20.6,0.1-30.8,1.6c-10.1,1.3-20.1,3.6-29.7,6.7
	c-19.4,6.5-37.8,17.5-48.6,35.3c-5.6,9.1-8.9,19.5-9.5,30.3c-0.4,10.6,1.9,21.2,6.8,30.7c9.9,19.6,28.8,32.9,49.5,39.3
	c2.6,0.8,5.2,1.5,7.9,2.1l-0.7-1.7c-4.8,7.7-11,14.3-18.4,19.5c-0.5,0.3-0.7,0.9-0.4,1.3c0.2,0.4,0.6,0.6,0.9,0.5
	c8.8,0.1,16.2-5.1,23.5-9.5c3.9-2.5,8.1-4.4,12.5-5.7c4.9-1.2,10-1.8,15.1-1.6c10,0,20,1.4,30,0.3c8.9-1,17.6-3.4,25.7-7.1
	c15.5-7.1,28.3-18.8,36.7-33.6c7.5-13.3,11.3-28.3,10.8-43.6c-0.5-14.9-5.7-29.6-15.9-40.7c-1.3-1.4-2.7-2.8-4.2-4.1
	c-0.9-0.8-2.1,0.5-1.3,1.3c11,10.2,17.9,24.1,19.2,39c1.3,14.9-1.5,29.9-8.2,43.3c-7.3,14.8-19,26.9-33.6,34.6
	c-7.8,4.2-16.2,7.1-24.9,8.6c-9.6,1.6-19.2,0.9-28.9,0.5c-9.5-0.4-19.1-0.1-27.9,4c-7.7,3.6-14.3,9.6-22.6,11.8
	c-2,0.5-4.1,0.8-6.2,0.7l0.5,1.9c7.8-5.3,14.3-12.2,19.4-20.1c0.3-0.6,0.1-1.3-0.4-1.6c-0.1,0-0.2-0.1-0.3-0.1
	c-20.7-4.7-40.4-15.8-52.2-33.9c-5.8-8.7-9.3-18.8-10.1-29.2c-0.6-10.4,1.5-20.8,6.1-30.1c9-18.4,26-30.6,44.6-37.8
	c18.3-7.1,38.5-10.5,58.1-10.7c20.6-0.2,41.9,3.5,59.9,14.1c2.2,1.3,4.3,2.7,6.4,4.2C467.6,224.9,468.4,223.6,467.6,223L467.6,223z"
	/>
<path class="st2" d="M455.6,277.2c22.6-16.7,52.9-20.5,80.2-18.1s58.5,10.7,78.1,30.9c12.4,12.8,19.8,30.8,18.4,48.5
	c-1.2,16-9.2,31.1-20.9,42.2s-26.7,18.2-42.3,21.7c4.9,7.8,11.3,14.6,18.9,19.8c-11.5,0.4-20.7-9.3-31.4-13.6
	c-13.5-5.4-28.8-2-43.3-2.4c-22.2-0.7-43.2-10.4-58.1-26.9c-24.6-27.4-30.1-75-0.8-101.2"/>
<path class="st2" d="M456,277.9c16.9-12.3,37.9-17.5,58.6-18.3c19.9-0.8,39.8,2,58.8,8.1c18.8,6.1,36.9,16.6,47.8,33.5
	c5.8,8.9,9.2,19,10,29.6c0.6,10.3-1.6,20.6-6.3,29.9c-9.6,19.3-28,32.3-48.3,38.5c-2.5,0.8-5.1,1.5-7.7,2c-0.6,0.2-1,0.8-0.8,1.4
	c0,0.1,0.1,0.2,0.1,0.3c5,7.9,11.6,14.8,19.4,20.1l0.5-1.9c-8.7,0.2-16-5.3-23.2-9.5c-3.8-2.4-7.9-4.2-12.1-5.5
	c-4.6-1.2-9.4-1.8-14.2-1.7c-9.8-0.1-19.6,1.3-29.4,0.5c-8.9-0.7-17.7-3-25.9-6.6c-15.4-6.7-28.3-18.2-36.8-32.7
	c-7.5-13-11.3-27.8-11-42.7c0.4-14.7,5.4-29.3,15.5-40.2c1.3-1.4,2.6-2.7,4.1-4c0.9-0.8-0.4-2-1.3-1.3c-11.3,10.2-18,24.4-19.6,39.4
	c-1.5,15.2,1.2,30.4,7.9,44.1c7.2,15,18.9,27.4,33.4,35.5c7.9,4.4,16.4,7.5,25.2,9.2c9.6,1.8,19.2,1.4,28.9,0.9
	c10-0.5,20.2-0.5,29.4,4c7.7,3.8,14.5,9.7,22.9,11.9c2,0.5,4.1,0.8,6.2,0.7c0.6,0,1-0.4,1.1-0.9c0-0.4-0.2-0.8-0.5-0.9
	c-7.4-5.2-13.6-11.9-18.4-19.5l-0.7,1.7c21.2-4.8,41.3-16.2,53.5-34.6c5.9-8.8,9.6-19,10.6-29.6c0.8-10.7-1.1-21.4-5.7-31.2
	c-4.4-9.6-11-18.1-19.3-24.8c-7.9-6.3-16.6-11.3-26-14.9c-18.8-7.5-39.6-10.9-59.8-11c-21.1-0.1-42.9,3.7-61.1,14.7
	c-2.2,1.4-4.4,2.8-6.5,4.4C454.5,277.2,455.3,278.5,456,277.9L456,277.9z"/>
<g>
	<path class="st5" d="M454.4,278.1c-19.5,17.5-23.5,44.4-16.8,68.6c11.4-4.6,21.7-11.8,29.9-20.9c15-16.7,22.9-41,20.1-63.3
		c-11.5,2.8-22.4,7.8-32,14.8L454.4,278.1z"/>
	<path class="st5" d="M453.3,277c-15,13.5-21.5,33.6-20.1,53.5c0.4,5.6,1.4,11.2,2.9,16.6c0.2,0.8,1.1,1.3,1.9,1.1
		c13.3-5.4,25.1-14.1,34-25.4c8.4-10.9,14.1-23.7,16.5-37.2c1.4-7.6,1.6-15.4,0.7-23.1c0-0.9-0.7-1.6-1.6-1.6c-0.1,0-0.2,0-0.4,0.1
		c-12.1,3-23.5,8.4-33.6,15.8c-1.6,1.2,0,3.9,1.6,2.7c9.8-7.3,21-12.5,32.9-15.5l-2-1.5c4.3,35.4-15.8,69.3-48.9,82.7l1.9,1.1
		c-5-18.1-4-38.3,6-54.6c2.9-4.6,6.4-8.8,10.4-12.5C457.1,277.9,454.8,275.6,453.3,277L453.3,277z"/>
	<path class="st5" d="M553.4,308.7c-0.9,0.7-2,1.2-3,1.9s-2.2,1.5-3.2,2.4c-1.9,1.6-3.8,3.2-5.6,4.9c-3.7,3.5-7.3,7-10.8,10.5
		s-6.8,7-10,10.7c-0.6,0.6-0.1,0.3,1.7-0.9c1.5-0.4,3,0,4.1,1c-0.4-0.5-0.3-0.3,0.3,0.4c-0.2-0.2-0.3-0.5-0.4-0.7l-2-3.1l-2-3.1
		c-0.5-0.9-1.1-1.7-1.7-2.5c-0.9-0.9-2-1.6-3.2-2c-1.7-0.5-3.5-0.1-4.9,1c-1.3,1.1-2.2,2.7-2.2,4.4c-0.3,2.7,1.9,5.4,3.2,7.7
		c1.1,2,2.3,3.9,3.6,5.7c2.1,3,6,4,9.4,2.6c2.3-1,3.9-3.1,5.6-4.9c6-6.3,11.6-12.8,17.1-19.6c1.7-2.1,3.3-4.3,4.9-6.5
		c1.4-2,2.3-4.3,3.7-6.2c0.7-1.3,0.4-2.9-0.8-3.8s-2.8-0.8-3.8,0.2L553.4,308.7z"/>
</g>
<path class="st5" d="M413.8,250.1c-0.9,0.7-2,1.2-3,1.9s-2.2,1.6-3.2,2.4c-1.9,1.6-3.8,3.2-5.6,4.9c-3.6,3.5-7.3,6.9-10.8,10.5
	s-6.8,7-10,10.7c-0.6,0.6-0.1,0.3,1.6-0.9c1.5-0.4,3,0,4.1,1c-0.4-0.5-0.3-0.3,0.3,0.4c-0.1-0.2-0.3-0.5-0.4-0.7l-2-3.1l-1.9-3.2
	c-0.5-0.9-1.1-1.7-1.7-2.5c-0.9-0.9-2-1.6-3.2-2c-1.7-0.5-3.5-0.1-4.9,1c-1.3,1.1-2.2,2.7-2.2,4.4c-0.3,2.7,1.9,5.4,3.2,7.7
	c1.1,2,2.3,3.9,3.6,5.7c2.1,3,6,4,9.4,2.6c2.3-1,3.9-3.1,5.6-4.9c6-6.3,11.7-12.8,17.1-19.6c1.7-2.1,3.4-4.3,4.9-6.5
	c1.4-2,2.3-4.3,3.7-6.2c0.7-1.3,0.4-2.9-0.8-3.8C416.4,249,414.8,249.1,413.8,250.1L413.8,250.1z"/>
</svg>
