<?xml version="1.0" encoding="utf-8"?>
<!-- Generator: Adobe Illustrator 26.2.1, SVG Export Plug-In . SVG Version: 6.00 Build 0)  -->
<svg version="1.1" id="Capa_1" xmlns="http://www.w3.org/2000/svg" xmlns:xlink="http://www.w3.org/1999/xlink" x="0px" y="0px"
	 viewBox="0 0 1000 1000" style="enable-background:new 0 0 1000 1000;" xml:space="preserve">
<style type="text/css">
	.st0{fill:#0067B9;}
	.st1{fill:#E73164;}
	.st2{fill:#FFFFFF;}
	.st3{fill:#BA0C2F;}
	.st4{fill:#002F6C;}
	.st5{fill:#A7C6ED;}
	.st6{fill:#205493;}
	.st7{fill:#18C4FF;}
	.st8{fill:#3F67AE;}
	.st9{fill:#6C6463;}
</style>
<path class="st0" d="M807,222.3c17.5,33.2,14.9,75.9-6.5,106.7c-2.6,3.8-5.4,9.3-2,12.5c2.1,1.9,5.4,1.5,8,0.5s5.3-2.4,8.1-2.2
	c6.8,0.5,9.3,9.2,14.7,13.3c4.1,3,9.7,3.3,14.1,0.6c2.7-1.7,4.6-4.4,7-6.6s5.6-3.9,8.7-3.1c5.5,1.5,7.8,10.4,13.5,9.7
	c2.2-0.2,3.9-1.9,5.3-3.7c3-4.1,5.4-8.5,7.3-13.2c8.6-19.6,14.8-40.4,16.9-61.8s-0.3-43.2-8.1-63.2c-2.2-5.7-5.1-11.4-10-15.1
	c-4,5.5-9.2,11.5-16,11.1c-6.4-0.4-11-6.4-17.1-8.3c-5.5-1.6-11.5,0.4-15,4.9c-1.9,2.6-3.1,6-6.1,7.2s-6.3-0.3-8.8-2.2s-4.9-4.2-8-5
	c-4.5-1.1-9.1,1.7-10.2,6.3c-0.6,2.6,0,5.3,1.7,7.3"/>
<path class="st0" d="M806.4,222.7c11.6,22.3,14,48.8,7.8,73.1c-1.5,6.1-3.6,12-6.2,17.7c-2.7,5.5-5.7,10.8-9.1,15.8
	c-2.7,4.1-5.6,11.6,0.5,14.2c2.8,1.2,6,0.4,8.7-0.7s5.9-2.5,8.9-1c4.3,2.1,6.4,7.3,9.6,10.6c4.1,4.3,10.4,5.6,15.8,3.3
	c3-1.3,5.2-3.8,7.4-6.2s5.1-4.9,8.5-4.3c2.2,0.4,3.8,2.3,5.2,3.9c1.3,1.7,2.8,3.3,4.4,4.6c1.8,1.4,4.3,1.8,6.4,0.9
	c3-1.2,5-4.2,6.6-6.8c3.9-6,6.5-12.9,9.1-19.5c5.4-13.6,9.4-27.8,11.8-42.2c2.4-14.4,2.7-29,0.9-43.4c-0.9-7.2-2.4-14.4-4.5-21.4
	c-1.9-6.4-4.2-13.1-7.8-18.8c-1.6-2.5-3.6-4.7-6-6.5c-0.6-0.3-1.3-0.1-1.6,0.4c-4,5.4-9.8,12.3-17.3,10c-3.3-1-6.1-3.3-9-5.2
	c-2.8-2-6.1-3.1-9.5-3.3c-3.5,0-6.8,1.1-9.6,3.2c-1.3,1-2.4,2.2-3.3,3.6c-0.9,1.5-1.8,2.9-2.8,4.2c-2.9,3.4-7,1.8-10-0.5
	s-5.8-4.9-9.7-5.2c-5.3-0.4-9.9,3.6-10.3,8.9c-0.2,2.5,0.6,5,2.3,6.9c0.9,1.1,2.4-0.4,1.5-1.5c-2.2-2.9-2-7,0.5-9.6
	c2.5-2.4,6.3-2.8,9.3-1c3.2,1.8,5.7,4.7,9.3,6.1c3.3,1.3,7,0.3,9.2-2.5c2-2.6,3.2-5.6,5.9-7.6c2.7-2,6.1-2.8,9.4-2.4
	c6.8,1,11.1,7.6,17.9,8.6c8.1,1.2,14-5.8,18.3-11.6l-1.6,0.4c5.1,3.9,7.9,10.2,10.1,16.1c2.5,6.6,4.4,13.4,5.7,20.3
	c2.6,14.1,3.1,28.5,1.5,42.7c-1.6,14.2-4.8,28.1-9.6,41.5c-2.3,6.8-5,13.5-8,20c-1.4,3.2-3.1,6.2-5,9.1c-1.5,2.1-3.6,5.3-6.6,4.8
	c-1.9-0.3-3.3-2.1-4.5-3.5c-1.3-1.7-2.9-3.3-4.5-4.8c-2-1.6-4.6-2.1-7.1-1.4c-3,0.8-5.4,3-7.5,5.2s-4.3,4.8-7.5,5.8
	c-2.9,0.9-6,0.6-8.6-0.8c-4.4-2.3-6.5-7.3-9.9-10.8c-1.5-1.7-3.4-2.9-5.6-3.5c-3.2-0.7-6.2,0.6-9.1,1.7c-2.4,0.9-6.2,2.1-8.1-0.4
	c-1.7-2.1-0.3-5.4,0.8-7.5c1.4-2.6,3.2-5,4.8-7.5s3-5.2,4.3-7.9c2.6-5.4,4.8-10.9,6.4-16.7c6.8-23.3,5.4-48.2-4-70.6
	c-1.1-2.7-2.4-5.4-3.8-7.9C807.1,221.2,805.9,221.9,806.4,222.7L806.4,222.7z"/>
<path class="st1" d="M361.5,519.4h254c9.6,0,17.3,7.8,17.3,17.3v180.7c0,9.6-7.8,17.3-17.3,17.3h-254c-9.6,0-17.3-7.8-17.3-17.3
	V536.7C344.2,527.1,351.9,519.4,361.5,519.4z"/>
<path d="M615.5,733.8H362.1c-9.2,0.2-16.8-7.1-16.9-16.3c0-0.1,0-0.1,0-0.2c0-3.2,0-6.4,0-9.5V543.3c0-3.3-0.4-7,0.4-10.3
	c1.8-7.4,8.3-12.6,16-12.7h250.4c4.5,0,8.6,0.1,12.6,2.7c4.6,3.1,7.4,8.3,7.4,13.9v179.2c0.1,1.6-0.1,3.2-0.4,4.8
	C629.8,728.4,623.2,733.8,615.5,733.8c-0.5,0.1-0.8,0.7-0.7,1.2c0.1,0.3,0.4,0.6,0.7,0.7c7.5-0.1,14.2-4.6,17-11.6
	c0.9-2.5,1.4-5.1,1.3-7.7V536.9c0-5.6-2.5-10.9-6.9-14.5c-3.3-2.6-7.5-4-11.7-4H362.9c-0.7,0-1.5,0-2.2,0c-7.5,0.4-14,5.2-16.5,12.3
	c-1.3,3.8-1,8-1,11.9v165.3v9.5c0.1,10.2,8.4,18.4,18.6,18.4h253.6c0.5-0.1,0.8-0.7,0.7-1.2C616.1,734.2,615.8,733.9,615.5,733.8z"
	/>
<path class="st2" d="M410.6,676.1c-11.9,17.6-19.7,37.7-22.7,58.7h64.2c3.7-6.2,6.4-13,8-20.2c1.2-5.1,2-10.4,1.3-15.6L410.6,676.1z
	"/>
<path class="st3" d="M620.4,388.3c-16.2-6.1-34.4,0.2-49.2,9.1c-34.5,20.6-60,55.5-69.6,94.4h109c12.3,0,22.3-10,22.3-22.3
	c0,0,0,0,0,0v-73.3C629.2,392.8,625,390.1,620.4,388.3L620.4,388.3z"/>
<path class="st4" d="M620.6,387.4c-11.4-4.2-23.9-2.4-35,1.9c-10.8,4.1-20.7,10.4-29.8,17.5c-27.3,21.3-46.8,51.2-55.2,84.8
	c-0.1,0.5,0.2,1.1,0.8,1.2c0.1,0,0.1,0,0.2,0H609c2.2,0.1,4.3-0.1,6.4-0.5c6.5-1.4,12-5.5,15.3-11.3c2-3.7,3.1-7.9,3-12.1v-70
	c0-0.7,0-1.5,0-2.2c0-1.5-1.6-2.3-2.7-3.2C627.9,390.9,624.4,388.9,620.6,387.4c-1.2-0.4-1.7,1.5-0.5,1.9c4.5,1.7,8.5,4.3,12,7.6
	l-0.3-0.7v65.3c0,5.6,0.5,11.5-1.9,16.7c-2.7,6-7.9,10.4-14.3,12c-2.2,0.5-4.4,0.7-6.6,0.6H501.5l0.9,1.2
	c8-31.6,25.8-59.9,50.8-80.8c8.5-7.2,17.8-13.2,27.8-18c12.1-5.6,26.1-8.7,39-4C621.3,389.7,621.8,387.8,620.6,387.4L620.6,387.4z"
	/>
<path class="st5" d="M675.2,397.9h254c9.6,0,17.3,7.8,17.3,17.3v208.3c0,9.6-7.8,17.3-17.3,17.3h-254c-9.6,0-17.3-7.8-17.3-17.3
	V415.2C657.9,405.7,665.7,397.9,675.2,397.9z"/>
<path class="st2" d="M776.4,583.3c-3.5,9.7-8.2,19-13.8,27.6c-6.2,9.5-14.1,18.4-24.6,22.7s-24.1,2.4-31-6.6
	c-2.4-3.2-3.9-7.1-5.2-10.9c-7.7-23.2-10.3-47.7-12.9-71.9l-7.5-69.8c-0.4-3.8-0.7-8.1,1.8-11c3.6-4.3,10.5-3.1,15.8-5.2
	c1.4,4.3,2.3,8.7,2.6,13.2c3-1.5,6.8,0.5,8.4,3.5s1.6,6.4,1.7,9.8c0.4,22.4,5,44.5,13.5,65.2c4.3,10.7,9.8,21.4,9.7,32.9
	c-0.1-7.3-2.6-16.3,3.5-26.1"/>
<path d="M775.7,583.1c-3.5,8.9-7.8,17.5-12.9,25.6c-4.5,7.1-9.8,14-16.6,19c-6.3,4.7-13.7,7.4-21.6,6.9c-7.5-0.5-14.5-4-18.3-10.7
	c-2.3-4-3.6-8.7-5-13.1c-1.4-4.8-2.7-9.6-3.7-14.5c-2.2-9.7-3.7-19.4-5-29.2c-2.6-20.1-4.5-40.4-6.7-60.6
	c-1.1-10.3-2.2-20.6-3.3-30.9c-0.4-3.8-1.3-8.8,1.6-11.9c2.5-2.6,6.5-2.8,9.8-3.3c1.8-0.2,3.5-0.7,5.2-1.3l-1.3-0.7
	c1.4,4.2,2.2,8.5,2.5,12.9c0,0.6,0.4,1,0.9,1.1c0.2,0,0.4,0,0.6-0.2c3.2-1.5,6.5,1.5,7.5,4.4c1.3,3.5,0.9,7.6,1,11.2
	c0.6,16,3.3,31.8,8,47.1c2.3,7.7,5.3,15,8.4,22.4c3.4,8.1,6.6,16.5,6.5,25.3h2.2c-0.1-3.9-0.7-7.8-0.6-11.7c0-4.9,1.4-9.7,3.9-13.8
	c0.2-0.5-0.1-1.1-0.7-1.3c-0.4-0.1-0.8,0-1,0.3c-2.6,4.3-4.1,9.1-4.3,14.1c-0.2,4.2,0.4,8.3,0.5,12.5c0.1,0.6,0.6,1,1.2,1
	c0.5,0,0.9-0.5,1-1c0-8.2-2.6-16.1-5.7-23.6c-3.2-7.8-6.5-15.5-9.1-23.6c-5.1-16.3-7.9-33.3-8.3-50.5c-0.1-4,0-8.4-2.5-11.8
	c-2.1-2.8-5.8-4.4-9.1-2.9l1.5,0.9c-0.3-4.6-1.2-9.1-2.6-13.4c-0.1-0.5-0.7-0.9-1.2-0.7c0,0,0,0-0.1,0c-3.6,1.4-7.5,1.3-11.1,2.4
	c-3.6,0.9-6.4,3.8-7.1,7.4c-0.9,4.5,0.2,9.4,0.6,13.8l1.7,16.3c2.3,21.3,4.4,42.6,6.9,63.8c1.2,10.2,2.6,20.5,4.7,30.6
	c1,5,2.2,10,3.5,15c1.2,4.9,2.8,9.8,4.6,14.5c2.7,7.6,9.1,13.3,16.9,15c7.5,1.7,15.4,0.7,22.2-3c7.7-4,13.8-10.5,18.8-17.4
	c5.6-7.8,10.3-16.3,14-25.2c0.9-2.2,1.8-4.5,2.5-6.8C777.3,582.6,776.1,582.3,775.7,583.1L775.7,583.1z"/>
<path class="st2" d="M767.9,487.7c-5.4,3-9.1,8.2-12.2,13.5c-8.4,14.5-13.7,30.5-18.9,46.5c-1.1,3.3-2.2,6.7-1.8,10.1
	c0.6,6,5.4,10.6,10.2,14.1c7.2,5.3,15.4,9.5,24.2,11.2c2.5,0.5,5.1,0.8,7.4-0.2c2.7-1.1,4.4-3.6,5.9-6c5.1-8.2,9.1-17.1,11.8-26.4"
	/>
<path d="M767.5,487.1c-4.7,2.4-8.2,6.4-11,10.8c-3.2,4.9-5.9,10-8.3,15.4c-5,11-8.8,22.6-12.5,34c-1.1,2.8-1.7,5.8-1.9,8.8
	c0,2.5,0.6,5,1.8,7.2c2.4,4.5,6.6,7.9,10.7,10.8c4.6,3.3,9.7,6,15,8.1c2.7,1,5.5,1.8,8.3,2.4c2.7,0.5,5.5,0.7,8-0.4s4.5-3.5,6-5.8
	c1.8-2.8,3.5-5.7,5-8.7c3.1-5.9,5.5-12.2,7.2-18.7c0.1-0.7-0.3-1.3-1-1.4c-0.6-0.1-1.2,0.2-1.4,0.8c-1.8,5.3-3.9,10.6-6.2,15.7
	c-1.2,2.5-2.4,4.9-3.8,7.2c-1.2,2.2-2.6,4.4-4.2,6.3c-1.7,1.9-4.2,2.9-6.7,2.7c-2.7-0.2-5.4-0.8-8-1.7c-5.1-1.6-9.9-3.9-14.3-6.7
	c-4.1-2.6-8.4-5.5-11.3-9.5c-1.4-1.9-2.4-4.1-2.7-6.5c-0.3-2.9,0.5-5.7,1.3-8.4c3.4-10.8,6.9-21.5,11.4-31.9
	c2.4-5.8,5.2-11.3,8.3-16.8c2.8-4.8,6.2-9.5,11-12.4c0.3-0.2,0.4-0.6,0.2-0.9C768.2,487,767.8,486.9,767.5,487.1L767.5,487.1z"/>
<path class="st4" d="M908.5,640.9c-0.1-22.1-4.2-43.7-15.7-62.4l-102.3,23.2c-4.5,12.8-8.1,25.9-10.7,39.2H908.5z"/>
<path class="st2" d="M854.6,454.4c-30.4,7-61.3,15.2-86.7,33.2c-3.2,2.2-6.3,4.7-8,8.2c-1,2.3-1.5,4.8-1.6,7.3
	c-2.9,30.4,6.1,60.8,18.3,88.9c1.8,4,3.6,8.3,3.2,12.7c-0.3,3.5-2,7-1,10.3c1.4,4.5,6.9,6.1,11.5,6.7c23.9,3.1,47.9-2.1,71.4-7.2
	c6.7-1.5,13.4-2.9,19.7-5.4c7.7-3.1,14.7-7.7,20.7-13.5c1.8-1.6,3.3-3.6,4.2-5.9c0.8-2.3,0.5-5.1-1.2-6.8c-1.3-1.2-3.2-1.8-4.1-3.2
	c-0.5-1-0.7-2.1-0.7-3.2l-2.3-50.7c-0.7-15.1-1.5-30.5-7.4-44.4s-18-26.2-33-27.8"/>
<path d="M763.9,559.9c1.8,6.2,3.8,12.2,6,18.2s4.8,11.7,7.1,17.6c1.2,3,2.1,6.1,1.7,9.3c-0.3,2.8-1.5,5.6-1.3,8.5
	c0.4,4.8,4.5,7.3,8.7,8.5c2.5,0.6,5.1,1,7.7,1.2c3.2,0.3,6.5,0.5,9.7,0.5c6.5,0.1,12.9-0.3,19.4-1c13-1.5,25.8-4.2,38.5-7
	c6.1-1.2,12.1-2.8,18-4.7c8.1-2.9,15.5-7.3,21.8-13.1c2.1-1.7,3.9-3.8,5.3-6.1c1.2-2.1,1.5-4.6,0.9-7c-0.3-1-0.9-2-1.7-2.7
	c-0.9-0.8-2.1-1.3-3-2.1c-1.2-1-1.2-2.3-1.3-3.7l-0.2-5.2l-0.5-10l-0.9-19.9c-0.6-12.5-0.8-25.2-2.4-37.6
	c-1.5-11.1-4.3-22.2-10.6-31.6c-5.3-8-12.9-14.9-22.2-18c-2.3-0.8-4.6-1.3-7-1.5c-1.4-0.1-1.3,2,0,2.1c9.5,1.1,17.8,6.7,23.9,13.9
	c6.9,8.2,10.6,18.3,12.6,28.6c2.2,11.6,2.5,23.5,3,35.3l1.8,38.3l0.2,4.5c0,1.4,0.1,2.8,0.5,4.2c0.9,2.4,3.3,2.8,4.9,4.5
	c1.7,2,1.2,4.9-0.1,7c-1.5,2.2-3.3,4.2-5.4,5.9c-4.1,3.7-8.8,6.8-13.8,9.3c-5.3,2.5-10.9,4.4-16.7,5.7c-12.1,2.9-24.3,5.5-36.6,7.4
	s-24.8,2.9-37.2,1.9c-4.4-0.4-10.2-0.6-13.6-4c-1.9-1.9-2-4.5-1.5-7c0.5-2.7,1.3-5.4,1-8.2c-0.4-2.9-1.2-5.6-2.4-8.2
	c-1.2-2.9-2.5-5.7-3.7-8.6c-2.3-5.6-4.5-11.3-6.5-17.1c-1-2.9-1.9-5.8-2.8-8.7c-0.1-0.4-0.6-0.7-1-0.6
	C764,558.9,763.8,559.4,763.9,559.9L763.9,559.9L763.9,559.9z"/>
<path d="M854.4,453.6c-27.2,5.8-54.8,13.1-78.7,27.6c-3.3,2-6.5,4.1-9.7,6.4c-2.8,2.1-5.5,4.5-7,7.7c-0.6,1.2,1.2,2.3,1.8,1.1
	c1.6-2.9,3.8-5.3,6.6-7.1c2.7-1.9,5.4-3.8,8.2-5.5c5.8-3.5,11.8-6.7,18-9.5c12.5-5.6,25.6-9.8,38.8-13.4c7.4-2,14.9-3.9,22.4-5.8
	C855.9,454.9,855.4,453.4,854.4,453.6L854.4,453.6z"/>
<path class="st2" d="M830.3,458.7c16.4-5.5,30.3-16.5,43.4-27.8c5.9-5,12.3-10.4,20-10.8c9.1-0.4,16.9,6.3,22.7,13.4
	c8.5,10.6,14.9,23.4,15,37c0.1,2.1-0.2,4.1-0.9,6c-1.1,2.2-2.6,4.2-4.5,5.9c-14.9,14.6-32.2,26.4-51.2,34.9"/>
<path d="M830.5,459.4c13.7-4.3,25.6-12.7,36.7-21.6c5.3-4.4,10.4-9.4,16.3-13c2.9-1.9,6.1-3.1,9.5-3.5c3.3-0.3,6.5,0.4,9.4,1.8
	c6.1,2.9,10.8,8.1,14.8,13.4c4.2,5.5,7.6,11.6,10,18c1.2,3.3,2.1,6.6,2.6,10.1c0.5,3.4,0.9,7.4-0.1,10.8s-4.1,5.9-6.6,8.2
	s-5.1,4.7-7.7,6.9c-6.2,5.2-12.8,10-19.7,14.3c-3.4,2.2-6.9,4.2-10.5,6.1c-3.6,1.9-7.2,3.6-10.8,5.5c-1.1,0.6-0.3,2.4,0.8,2
	c6.9-2.6,13.5-6.4,19.9-10.2c6.4-3.9,12.5-8.1,18.3-12.8c2.9-2.3,5.8-4.8,8.6-7.3c2.8-2.3,5.4-4.9,7.7-7.6c2.4-3,3.1-6.4,3.1-10.1
	c0-3.6-0.5-7.2-1.3-10.6c-1.8-7-4.7-13.7-8.8-19.8c-3.8-5.8-8.3-11.5-13.9-15.7c-5.4-4-12-6.4-18.7-4.7s-12.3,6.5-17.5,11
	c-11.3,9.8-23.3,19.4-37.1,25.4c-1.8,0.8-3.6,1.5-5.4,2.2C829.2,458.3,829.5,459.7,830.5,459.4L830.5,459.4z"/>
<path class="st6" d="M42.3,372.2h254c9.6,0,17.3,7.8,17.3,17.3v396.1c0,9.6-7.8,17.3-17.3,17.3h-254c-9.6,0-17.3-7.8-17.3-17.3
	V389.5C25,379.9,32.8,372.2,42.3,372.2z"/>
<path class="st7" d="M296.3,802H42.9c-7,0-13.5-3.9-16-10.7c-1.4-3.8-1-8.2-1-12.2v-380c0-3.2,0-6.3,0-9.5c0.1-9,7.3-16.4,16.4-16.5
	h237.5h16c7.4-0.1,14,4.6,16.2,11.7c0.5,2,0.7,4.1,0.7,6.1v391.8v2.7C312.6,794.5,305.3,801.9,296.3,802c-0.5,0.1-0.8,0.7-0.7,1.2
	c0.1,0.3,0.4,0.6,0.7,0.7c10.1-0.1,18.2-8.2,18.3-18.3c0-0.8,0-1.5,0-2.3V390.6c0.1-2.9-0.4-5.7-1.5-8.4c-3-6.8-9.7-11.1-17.1-11.1
	c-5.1,0-10.3,0-15.4,0H45.2c-1.4,0-2.7,0-4.1,0c-9.6,0.7-17.1,8.7-17.1,18.3v8.7v381.5c0,5-0.3,9.8,2.1,14.4
	c3.3,6.1,9.7,9.9,16.6,9.8h253.6c0.5-0.2,0.8-0.7,0.7-1.3C296.9,802.3,296.6,802.1,296.3,802L296.3,802z"/>
<path class="st2" d="M231.2,457.3c19.9,17.9,23.4,62.3,26.9,94.7c0.3-27.6,0.6-55.3,4.2-82.6c0.8-6.2,1.8-12.4,4.2-18.1
	c2.7-6.3,7.1-11.8,12.7-15.9c4.4-3.2,10.4-5.4,15.3-3c2.4,1.4,4.3,3.4,5.5,5.9c2.7,4.9,3.9,10.6,3.4,16.2c-0.2,2.4-0.8,5.1,0.6,7.1
	c0.8,1.1,1.8,2,3,2.7c4.9,4.2,6.5,10.9,4.2,16.9c-0.7,1.6-1.7,3.3-1.5,5c0.2,1.9,1.9,3.3,3.3,4.6c8.8,8.6,11.7,21.5,7.5,33
	c-1.3,3.3-3.1,6.6-3.3,10.1c-0.1,4.3,2.3,8.2,3.7,12.2c2.9,9.1,0.5,19.1-6.2,25.9c-1.8,1.8-4,3.3-5.4,5.4c-2,2.9-2.6,6.4-3.7,9.8
	c-6.3,20.6-28.1,32.1-48.6,25.8c-1.7-0.5-3.4-1.2-5-1.9c-8.5-4-15.3-10.8-21.3-18.1c-12.2-14.8-21.9-32.2-24.9-51.2
	c-2.1-13.5-1-27.7-6.4-40.2"/>
<path d="M230.7,457.8c8.5,8,13.1,19.7,16.3,30.8c3.8,13.3,5.9,27.1,7.5,40.9c0.9,7.5,1.7,15,2.4,22.5c0.1,0.6,0.6,1.1,1.2,1
	c0.5-0.1,1-0.5,1-1c0.2-18.9,0.4-37.8,1.7-56.6c0.6-9.4,1.5-18.9,2.8-28.2c1.2-8.5,3.3-16.8,8.7-23.7c2.4-3.1,5.3-5.8,8.6-8
	c3.2-2,7.4-3.7,11.2-2.6s6.2,4.7,7.7,8.2c1.7,3.9,2.5,8.2,2.2,12.4c-0.2,3.9-1.1,7.6,2.2,10.5c1.5,1.1,2.8,2.4,3.9,3.8
	c2,2.8,2.8,6.3,2.5,9.8c-0.3,1.8-0.9,3.6-1.7,5.2c-0.8,1.6-1,3.6-0.3,5.3c0.8,1.5,2,2.9,3.3,4c7.7,7.7,10.6,18.9,7.7,29.3
	c-1.1,3.8-3.4,7.3-4,11.3c-0.6,4.2,1.1,7.9,2.7,11.7c1.5,3.4,2.2,7.1,2.1,10.9c-0.2,3.6-1.1,7.2-2.8,10.4c-1.8,3.4-4.4,5.8-7.2,8.4
	c-1.5,1.3-2.8,3-3.7,4.8c-0.9,1.8-1.5,3.7-2,5.7c-0.9,3.6-2.3,7-4.1,10.2c-3.7,6.3-9,11.5-15.5,14.8c-7.3,3.7-15.6,4.9-23.7,3.5
	c-8.1-1.5-15.2-5.7-21.2-11.2c-5.8-5.5-11-11.7-15.5-18.3c-4.8-6.7-8.8-13.9-12-21.5c-3.2-7.5-5.3-15.5-6.3-23.6
	c-1-8.5-1.1-17-2.6-25.4c-0.7-4-1.9-7.9-3.5-11.7c-0.7-1.6-3-0.2-2.3,1.4c3.6,8.2,4.2,17.3,4.9,26.2c0.7,8.6,1.6,17.1,4.2,25.4
	c4.9,16.1,14.1,30.7,25.2,43.3c5.4,6.1,11.6,11.8,19.1,15.2c7.7,3.5,16.3,4.5,24.6,3c7.8-1.5,15-5.3,20.6-10.9
	c5.3-5.4,9.1-12.2,11-19.5c0.5-2.1,1.2-4.1,2.2-5.9c1.2-1.8,2.7-3.4,4.4-4.7c2.8-2.5,5.1-5.5,6.7-8.9c3.2-7,3.3-15,0.3-22.1
	c-1.7-4.1-3.5-7.9-2.2-12.4c1.1-3.8,3.1-7.3,3.9-11.2c1.4-7.3,0.4-14.8-3-21.4c-1.6-3.2-3.8-6.1-6.5-8.6c-1.4-1.3-3.1-2.7-2.6-4.8
	c0.4-1.9,1.6-3.6,2-5.5c0.8-3.5,0.4-7.1-1-10.4c-0.7-1.6-1.7-3.1-2.9-4.4c-1.3-1.4-3.4-2.3-4.3-4s-0.5-4.1-0.3-6
	c0.6-6.3-0.9-12.7-4.2-18.1c-2-3.1-4.9-5.7-8.7-6.2s-7.9,0.9-11.2,2.9c-6.8,4.3-12.1,10.7-15,18.1c-3.5,8.6-4.1,18.3-5.1,27.5
	c-2,19.5-2.6,39.2-2.9,58.8c-0.1,4.8-0.1,9.5-0.2,14.3h2.2c-1.5-13.8-2.8-27.7-5.1-41.5c-2.2-13.2-5.2-26.5-11.2-38.6
	c-2.7-5.7-6.5-10.9-11.2-15.1C231,456.2,230,457.2,230.7,457.8L230.7,457.8z"/>
<path class="st2" d="M344.3,484.6c-15.3-4.5-31.2,4.3-35.7,19.5c-0.2,0.6-0.3,1.2-0.5,1.9c-0.3,1.4-0.3,3.2,1,3.8s2.8-0.6,3.7-1.7
	l7.7-9.2c-3.7,3-6.1,7.3-6.9,12c-0.2,1.5,0.3,3.7,1.8,3.4c0.6-0.2,1.2-0.7,1.5-1.3c1.2-1.9,2.1-3.9,3.5-5.7c1.3-1.8,3.3-3,5.5-3.3
	c-3.2,2.7-5.7,6.2-7.2,10.1c-0.5,1.4-0.8,3.4,0.5,4.2c1.5,0.9,3.2-0.6,4.3-2l5.9-7.6c-1.7,2.7-3.2,5.4-4.5,8.3
	c-0.7,1.4-1,3.5,0.4,4.1c0.4,0.2,0.9,0.2,1.3,0.1c3-0.6,4.3-4.1,6.8-5.9c2.2-1.6,5.1-1.7,7.8-2c6.4-0.7,13.1-3.1,16.7-8.5
	c1.3-2,2.3-4.3,2.8-6.7c0.9-3.2,0.7-6.7-0.5-9.8c-1.3-3.1-4.4-5.5-7.7-5.5"/>
<path d="M325.2,521.8c4,1.5,6.4-4.2,9-5.9c2.2-1.4,4.9-1.3,7.4-1.6c2.2-0.2,4.4-0.7,6.5-1.3c4.2-1.2,7.9-3.7,10.5-7.2
	c2.9-4.2,4.1-9.3,3.5-14.3c-0.3-2.5-1.4-4.9-3.2-6.8c-1.7-1.7-4-2.6-6.4-2.5c-0.4,0-0.7,0.4-0.7,0.9c0,0.4,0.3,0.7,0.7,0.7
	c4.3,0.2,7.1,4.6,7.5,8.5c1.2,8.8-4.6,17.1-13.2,19.1c-1.9,0.6-3.9,1-5.9,1.2c-2,0.1-4.1,0.5-6,1.1c-1.8,0.7-3.3,2-4.5,3.6
	c-1.1,1.4-2.9,4-5,3.5c-0.4-0.1-0.7,0.1-0.8,0.5C324.7,521.4,324.9,521.7,325.2,521.8L325.2,521.8L325.2,521.8z"/>
<path class="st2" d="M283.8,439c-0.1-15.9,12.7-28.8,28.6-29c0.7,0,1.3,0,2,0.1c1.4,0.1,3.2,0.6,3.4,2s-1.4,2.5-2.7,3.1l-10.9,4.9
	c3.9-2.7,8.7-3.9,13.5-3.3c1.5,0.2,3.4,1.3,2.8,2.7c-0.4,0.6-1,1-1.6,1.1c-2.1,0.6-4.4,1-6.4,1.8c-2.1,0.7-3.8,2.3-4.7,4.4
	c3.5-2.4,7.5-3.8,11.7-4.2c1.5-0.1,3.5,0.2,3.9,1.6c0.5,1.7-1.5,3-3.1,3.6l-9,3.6c3-0.9,6.1-1.6,9.2-2.1c1.5-0.2,3.6,0,3.9,1.5
	c0,0.5-0.1,0.9-0.3,1.3c-1.4,2.7-5.2,3-7.5,4.9c-2.1,1.7-3,4.4-4,6.9c-2.4,6-6.6,11.8-12.7,13.8c-2.3,0.7-4.7,1-7.2,0.8
	c-3.4,0-6.6-1.2-9.3-3.1c-2.6-2.1-4.1-5.7-3.2-8.9"/>
<path d="M323.6,430.9c-0.1,2-2.8,3-4.4,3.6c-1.6,0.6-3.1,1.5-4.3,2.6c-2.6,2.8-3.4,7.1-5.3,10.4c-1.9,3.5-4.7,6.3-8.1,8.3
	c-3.9,2-8.9,2.1-13.1,1s-8.8-5.2-7.6-10.1c0.1-0.4-0.1-0.8-0.5-1c-0.4-0.1-0.8,0.1-1,0.5c-0.7,2-0.6,4.2,0.3,6.1
	c0.9,2,2.4,3.7,4.4,4.9c4.1,2.5,9.7,2.9,14.3,1.9c4.4-1,8.2-3.6,10.8-7.2c1.4-1.8,2.5-3.7,3.5-5.8c0.8-2.2,1.7-4.3,2.8-6.4
	c1.4-2.3,3.5-3.1,5.7-4.2c1.9-0.9,4.1-2.4,4-4.8c0-0.4-0.4-0.6-0.7-0.6C323.9,430.3,323.7,430.6,323.6,430.9L323.6,430.9z"/>
<path d="M322.6,424.3c0,2.1-2.9,2.7-4.5,3.3l-3.7,1.4c-0.7,0.3-1.4,0.5-2,0.8c-0.3,0.1-0.6,0.3-0.8,0.4s-0.5,0.4-0.8,0.6
	c-0.4,0.2-0.5,0.7-0.2,1.1c0.2,0.3,0.5,0.4,0.8,0.3c0.1,0,0.3-0.1,0.5-0.1h-0.5c0.8,0.1,1.6-0.1,2.3-0.5l2.2-0.9
	c1.5-0.6,2.9-1.2,4.4-1.9c1.8-0.8,4.9-2.5,3.6-5c-0.2-0.3-0.6-0.4-0.9-0.2C322.8,423.8,322.6,424,322.6,424.3L322.6,424.3z"/>
<path d="M319.9,419c-0.4,0.4-1,0.6-1.5,0.7c-0.7,0.2-1.5,0.4-2.2,0.5c-1.5,0.3-3,0.7-4.4,1.2c-1.2,0.5-2.3,1.2-3.2,2
	c-0.5,0.4-0.9,0.9-1.2,1.5c-0.2,0.3-0.3,0.6-0.4,0.9c0,0.1-0.1,0.3-0.1,0.4c0,0.7,0.1-0.2,0,0.3c-0.2,0.8,1,1.4,1.4,0.6
	c0.1-0.3-0.1,0,0.1-0.2c0.1-0.1,0.3-0.3,0.4-0.4c0.1-0.2,0.3-0.4,0.4-0.6c0.4-0.5,0.8-0.9,1.2-1.3c1-0.8,2.1-1.4,3.3-1.7
	c1.4-0.5,2.8-0.8,4.2-1.2c1.2-0.3,2.7-0.7,3.1-2.1c0.1-0.4-0.1-0.7-0.5-0.8C320.3,418.8,320.1,418.9,319.9,419L319.9,419z"/>
<path d="M314.2,410.8c0.8,0.2,2.7,0.5,2.7,1.6s-2.1,1.9-3,2.3l-5.1,2.2c-0.9,0.4-1.8,0.8-2.7,1.2c-0.4,0.2-0.8,0.4-1.2,0.6
	s-0.7,0.5-1.1,0.8c-0.8,0.4-0.2,1.7,0.6,1.4c0.5-0.2,1-0.2,1.5-0.4s1.1-0.4,1.6-0.7l3.3-1.5l3.1-1.5c0.9-0.4,1.8-0.8,2.7-1.3
	c1.4-0.9,2.7-2.5,1.9-4.2c-0.7-1.5-2.6-2-4.1-1.9C313.7,409.6,313.5,410.6,314.2,410.8L314.2,410.8z"/>
<path class="st3" d="M274.6,404.5c4.5,1.4,7.7,5.4,10.7,9.1c5.6,7.2,11.6,15.2,11.5,24.3c-0.1,6.9-3.5,13.1-5.5,19.7
	c-5.2,17.6,1.3,38.1,15.8,49.3c0.9,0.8,1.9,1.3,3.1,1.6c2.8,0.6,5.3-1.9,7.1-4.1c11.4-14.4,20.1-32.8,37.1-39.7
	c4.8-1.9,11.1-4,11.4-9.1c0.3-3.7-2.9-6.7-4.7-10c-4.6-8.8,1.4-19.2,2.6-29.1c1.6-13.1-5.7-25.7-14.5-35.5s-19.6-17.8-27.5-28.3
	c-3-4-7-8.8-11.8-7.5c-1.6,0.6-3,1.5-4.2,2.7l-44.9,39.2c-1.9,1.6-3.9,3.4-4.4,5.9c-0.8,3.5,1.6,7.1,4.8,8.7s6.9,1.8,10.5,2"/>
<path d="M274.4,405.2c3.4,1.2,6,3.7,8.2,6.4c2.4,2.9,4.7,5.9,6.8,9.1c4.2,6.3,7.4,13.3,6,21c-1.4,7.3-5.3,13.9-6.4,21.3
	c-1,6.4-0.7,12.9,0.9,19.2c1.6,6.3,4.4,12.2,8.3,17.4c1.9,2.6,4.1,4.9,6.5,7c2.5,2.1,5.2,4.3,8.6,2.9c3.1-1.3,5.1-4.4,7-6.9
	s3.8-5.3,5.7-8c3.7-5.5,7.7-10.8,12-15.9c4.1-4.8,9.1-8.8,14.7-11.7c4.8-2.3,12-3.6,14-9.3c1.1-3.1-0.3-6.1-2-8.7
	c-2-3.1-3.8-5.9-4-9.7c-0.4-7.4,3.1-14.4,4.2-21.6c2.2-15.1-6.5-28.9-16.5-39.4c-5.3-5.6-11.1-10.6-16.6-16
	c-2.8-2.7-5.4-5.6-7.9-8.6c-2.1-2.7-4.1-5.6-6.8-7.7c-2.5-1.9-5.6-2.8-8.5-1.4c-1.7,0.9-3.2,2.1-4.6,3.4l-5,4.4l-19.8,17.3
	c-6.6,5.8-13.3,11.4-19.8,17.3c-2.5,2.2-4.6,5-4.1,8.5c0.7,3.3,2.9,6,6,7.3c3.3,1.5,7,1.6,10.6,1.7c1,0,1-1.5,0-1.5
	c-3.7-0.2-7.7-0.3-10.8-2.5c-2.7-1.9-4.5-5.5-2.7-8.6c0.9-1.4,2.1-2.7,3.4-3.7c1.6-1.4,3.2-2.8,4.8-4.2l9.5-8.3l18.9-16.5l9.5-8.3
	c2.5-2.2,5.4-5.5,9.1-4.2c3,1.1,5.2,4,7,6.5c2.2,2.9,4.5,5.6,7,8.3c5.1,5.4,10.7,10.2,15.9,15.4c9.9,9.8,19.7,22.2,19.4,36.9
	c-0.2,7.2-3.3,13.9-4.3,21c-0.6,3.3-0.3,6.6,0.8,9.7c1.1,3.1,3.5,5.4,4.8,8.4c2.7,6.3-5.3,9-9.7,10.8c-5.6,2.3-10.7,5.7-14.9,10
	c-8.9,8.8-15,19.9-22.7,29.7c-2,2.6-4.8,5.7-8.1,3.4c-2.6-1.8-4.9-4-6.9-6.4c-4.1-4.7-7.1-10.3-9-16.2c-1.9-5.9-2.6-12.2-2-18.4
	c0.7-7,3.8-13.3,5.7-20c1.1-3.4,1.4-6.9,1.1-10.4c-0.4-3.4-1.4-6.6-3-9.6c-1.7-3.2-3.6-6.2-5.9-9c-2-2.7-4.1-5.3-6.4-7.8
	c-2.1-2.3-4.6-4-7.5-5C273.9,403.5,273.5,404.9,274.4,405.2L274.4,405.2z"/>
<path d="M283.8,439.7c0.4,0,0.7-0.3,0.7-0.7s-0.3-0.7-0.7-0.7s-0.7,0.3-0.7,0.7S283.5,439.7,283.8,439.7z"/>
<path d="M318.8,518.9c2.1,2,4.8-0.9,6-2.5l2.8-3.5c0.5-0.6,0.9-1.1,1.4-1.7s1.3-1.5,1-2.3l-0.1,0.6l0.2-0.3c0.2-0.4,0-0.9-0.3-1.1
	c-0.3-0.2-0.6-0.1-0.9,0.1l-0.3,0.3l0.6-0.2c-0.7-0.1-1.2,0.7-1.6,1.2s-0.9,1.1-1.3,1.7l-2.4,3.2c-1,1.3-2.5,4-4.5,3.5
	c-0.4-0.1-0.7,0.1-0.8,0.5C318.5,518.5,318.6,518.7,318.8,518.9L318.8,518.9z"/>
<path d="M315.5,515c1.4,0,2.2-1.4,2.9-2.4c0.7-1.2,1.4-2.5,2.2-3.6c0.7-1,1.5-1.9,2.5-2.7c0.5-0.3,1-0.6,1.6-0.8
	c0.6-0.3,1.4-0.3,1.7-1.1l-0.6,0.6c0.2-0.1,0.3-0.1,0.5-0.1c0.9-0.1,0.6-1.5-0.2-1.5h-0.3l0.5,0.4v0c-0.2-0.3-0.5-0.5-0.9-0.5
	c-2.7,0.3-4.6,2.1-6.1,4.2c-0.7,1.1-1.4,2.3-2,3.5c-0.3,0.6-0.6,1.1-1,1.7c-0.2,0.5-0.6,0.9-1.1,1.2c-0.3,0.2-0.4,0.6-0.2,0.9
	C315.1,514.9,315.3,515,315.5,515L315.5,515z"/>
<path d="M307.5,505.8c-0.6,1.4-0.6,3.3,0.6,4.4c1.5,1.4,3.5,0.5,4.8-0.7c0.7-0.7,1.4-1.5,2-2.3l2.2-2.5l2.2-2.6
	c0.4-0.4,0.7-0.9,1.1-1.4c0.2-0.2,0.3-0.4,0.4-0.6c0.1-0.3,0.3-0.6,0.4-0.9c0.5-0.7-0.6-1.6-1.2-1c-0.4,0.4-0.8,0.6-1.1,1
	s-0.6,0.6-0.9,1c-0.6,0.7-1.1,1.4-1.7,2.1l-3.5,4.2c-0.6,0.8-2,2.9-3.2,2.4c-1-0.4-0.8-2.2-0.7-3S307.8,505.2,307.5,505.8
	L307.5,505.8z"/>
<path d="M344.3,485.2c0.4,0,0.6-0.4,0.6-0.7c0-0.3-0.3-0.5-0.6-0.6c-0.4,0-0.6,0.4-0.6,0.7C343.8,485,344,485.2,344.3,485.2z"/>
<path d="M235.1,803c-6.2-38.6-14.4-77-22.6-115.3c-9.2-43.2-18.8-87.5-42.3-125l-68.6-32.4c-5.3,60.1,5.7,120.5,32,174.8
	c6.6,13.5,14.2,27,16.4,41.9c2.8,18.6-3.1,37.2-4.6,56L235.1,803z"/>
<path d="M236.1,802.7c-5.1-31.7-11.6-63.2-18.2-94.7c-6.1-28.8-11.7-57.8-20.4-85.9c-4.1-13.6-9.2-26.9-15.3-39.7
	c-3-6.3-6.4-12.5-10-18.5c-0.4-0.9-0.9-1.6-1.7-2.1c-0.4-0.2-0.9-0.4-1.4-0.6l-34.7-16.4l-31.7-15l-0.6-0.3
	c-0.5-0.2-1.1-0.1-1.3,0.4c-0.1,0.1-0.1,0.3-0.1,0.4c-1.6,18.1-1.7,36.3-0.4,54.5c1.4,18,4.2,35.8,8.4,53.4
	c4.2,17.7,9.9,34.9,17,51.7c3.5,8.3,7.5,16.4,11.5,24.5s8,16.3,10.4,25.1c5.1,18.8,0.2,37.5-2.2,56.3c-0.3,2.4-0.6,4.8-0.7,7.2
	c0,0.6,0.4,1,1,1h89.6c0.5-0.1,0.8-0.7,0.7-1.2c-0.1-0.3-0.4-0.6-0.7-0.7h-89.7l1,1c1.5-18.9,7.4-37.7,4.4-56.7
	c-2.8-17.7-12.8-33.3-20.1-49.4c-7.5-16.6-13.7-33.9-18.3-51.6c-4.7-17.7-7.9-35.7-9.7-53.9c-1.7-18-2-36.2-0.7-54.2
	c0.2-2.3,0.3-4.6,0.5-6.9l-1.4,0.8l26.7,12.6l37.8,17.8c1.3,0.5,2.6,1.1,3.8,1.8c0.7,0.4,0.8,1,1.3,1.9c1.8,3,3.6,6,5.2,9.1
	c6.7,12.6,12.3,25.8,16.8,39.3c9.3,27.5,15,56,21,84.3c6.6,31.1,13.1,62.2,18.5,93.6c0.7,3.9,1.3,7.8,2,11.7
	C234.4,804.4,236.3,803.9,236.1,802.7L236.1,802.7z"/>
<path d="M66.1,504.5c-15.5,23.5-22.1,52-22.5,80.1s5.3,56,12.8,83.1l-30.9-26.2L25,641v112.5c18.1,2.8,36.5,2.2,54.3-1.9
	c11.7-2.7,23.3-7.1,32.1-15.2c15.9-14.8,19.2-38.4,20.4-60c2.5-47.9-0.7-96-9.7-143.1L66.1,504.5z"/>
<path d="M65.2,504c-11.6,17.6-18.2,37.9-21,58.7c-3,22.2-1.5,44.7,2.4,66.7c2.3,13,5.4,25.8,8.9,38.5l1.6-0.9
	c-10.5-8.9-20.9-17.8-31.4-26.6c-0.4-0.4-1-0.4-1.4,0c-0.2,0.2-0.3,0.4-0.3,0.6v107.9c0,1.5-0.1,2.9,0,4.4v0.2
	c0,0.4,0.3,0.8,0.7,0.9c16,2.5,32.4,2.3,48.3-0.6c14.1-2.6,28.9-7.1,39.5-17.2c9.4-8.9,14.4-21.3,17.1-33.8c3-14,3.4-28.6,3.8-42.8
	c0.4-16.8,0.1-33.6-0.9-50.4c-1-16.6-2.6-33.2-5-49.7c-1.2-8.3-2.6-16.5-4.1-24.8c-0.2-1.2-0.2-2.3-1.2-2.9
	c-0.6-0.3-1.1-0.6-1.7-0.9l-16.8-8.6l-22.2-11.4L67.3,504l-0.7-0.4c-1.1-0.6-2.1,1.1-1,1.7l19,9.7l30.2,15.5l6.9,3.5l-0.4-0.6
	c3.9,20.7,6.8,41.5,8.5,62.5c1.7,20.7,2.3,41.5,1.9,62.3c-0.2,9.5-0.5,19.1-1.4,28.6c-0.7,8.3-2.3,16.5-4.7,24.5
	c-2.3,7.7-6.2,14.9-11.5,21c-6,6.7-13.8,11.3-22.2,14.5c-9.2,3.3-18.7,5.4-28.4,6.4c-10.1,1.1-20.3,1.2-30.4,0.2
	c-2.6-0.2-5.2-0.6-7.8-1l0.7,0.9V645.6c0.1-1.5,0.1-2.9,0-4.4c0-0.1,0-0.1,0-0.2l-1.6,0.7c10.5,8.8,21,17.7,31.4,26.6
	c0.4,0.4,1.1,0.3,1.4-0.1c0.2-0.2,0.3-0.5,0.2-0.8c-6.1-22.2-11.1-44.9-12.4-67.9c-1.3-21.2,0.6-42.8,7.1-63.1
	c3.5-11.1,8.5-21.7,14.9-31.4C67.6,503.9,65.9,502.9,65.2,504z"/>
<path class="st2" d="M171,402.7l33.5,15.9c2.7,1.3,5.8,3.3,5.4,6.3c-0.6,3.8-6.8,5.9-5.4,9.4c0.5,0.9,1.2,1.7,2.1,2.2
	c8,5.6,15.5,11.8,22.4,18.7c4.2,4.1,8.3,8.6,9.9,14.3c2.4,8.6-1.5,17.6-6,25.4c-6,10.5-13.2,20.3-21.4,29.2
	c-8.8,9.6-19.3,19-21.8,31.8c-0.7,3.5-0.8,7.2-2,10.5c-8.9,24.5-46.3,17.1-65.1,12.1c-19.8-5.2-38.8-15.3-51.8-31.4
	c-11.3-13.9-20.6-33.5-18.8-51.6c1.1-10.8,8.3-10.5,16-15.2c6.2-4,11.3-9.4,15-15.9c3.4-6,5.4-12.6,8.3-18.9
	c7-15.1,18.9-27.3,33.7-34.7c6.2-3.1,13.2-5.3,20.1-4.1"/>
<path d="M232.3,494.4c-4.1,7-8.8,13.8-13.9,20.2c-4.8,5.9-10.1,11.2-15.2,16.7c-4.6,5-9.1,10.4-12,16.6c-1.5,3.2-2.5,6.7-2.9,10.2
	c-0.5,3.5-0.9,6.9-2.5,10.1c-4.3,8.8-13.6,12.7-22.9,13.8c-10.1,1.1-20.3-0.3-30.2-2.3c-11.9-2.5-23.7-6.2-34.5-12
	c-12.8-6.8-23.7-16.6-31.7-28.7c-8-12.2-14.1-26.8-13.2-41.6c0.2-2.9,0.6-5.9,2.4-8.3c1.5-1.7,3.5-3.1,5.7-3.9
	c2.5-1.1,4.9-2.3,7.2-3.6c3.2-2,6.1-4.4,8.7-7.2c5.4-5.7,8.8-12.5,11.7-19.7c2.8-7,5.8-13.7,10.1-19.9c4.1-5.7,8.9-10.8,14.5-15.1
	c5.8-4.7,12.4-8.3,19.4-10.6c3.8-1.2,7.8-1.6,11.8-1c1.6,0.3,2.3-2.2,0.7-2.4c-8.1-1.3-16.1,1.5-23.1,5.4
	c-6.3,3.4-12.1,7.7-17.2,12.8c-5.1,5.1-9.4,10.8-12.8,17.1c-3.9,7.2-6,15.1-10,22.2c-3.7,6.9-9.2,12.8-16,16.8
	c-4.4,2.5-9.9,3.7-13,8c-1.7,2.5-2.6,5.5-2.7,8.5c-0.2,3.7-0.1,7.4,0.5,11.1c1.1,7.6,3.4,14.9,6.8,21.8
	c6.5,13.5,16.2,25.1,28.3,33.9c11.5,8.2,24.8,13.6,38.4,17.1c9.8,2.5,19.9,4.4,30.1,4.5c9.7,0.1,20.4-1.4,27.8-8.2
	c4.1-3.9,6.7-9,7.5-14.5c0.6-3.8,1-7.5,2.4-11.1c1.3-3.3,3.1-6.4,5.2-9.3c4.2-5.9,9.5-11,14.4-16.5c5.5-6.1,10.6-12.6,15.2-19.4
	c2.3-3.4,4.4-6.9,6.4-10.4c0.2-0.3,0.1-0.8-0.3-1C232.9,493.9,232.5,494,232.3,494.4L232.3,494.4z"/>
<path d="M170.6,403.3c5,2.5,10,5.1,15,7.5l14.9,7.2c2.5,1.2,10,3.7,7.8,7.8c-1.4,2.6-5,4-5.3,7.1s2.9,4.6,5,6.2s4.4,3.3,6.6,5
	c5.8,4.5,11.3,9.5,16.4,14.8c5.5,5.9,10.8,12.7,12.8,20.6c0.4,1.6,2.8,0.9,2.4-0.7c-1.8-7.1-6.1-13.3-10.8-18.8
	c-5-5.8-10.6-11.2-16.6-16c-2.4-2-4.9-3.9-7.4-5.7c-1-0.7-2-1.4-3-2.1s-2.9-1.6-3-2.9s1.3-2.4,2.1-3.2c1.2-1.1,2.2-2.3,3-3.8
	c1.7-3.9-1.8-6.9-4.9-8.5c-5.5-2.8-11.2-5.3-16.7-7.9c-5.8-2.7-11.7-5.3-17.6-7.9C170.5,401.7,169.8,402.9,170.6,403.3L170.6,403.3z
	"/>
<path class="st5" d="M929.2,639.9H675.4c-5.5,0-10.7-2.7-13.8-7.2c-3-4.4-2.8-9.1-2.8-14.1V422.1c-0.2-3-0.1-6.1,0.1-9.1
	c1.2-8.1,8.1-14,16.2-14.1h245.7h8.1c5.7,0,11.1,2.9,14.1,7.8c1.7,2.8,2.5,6.1,2.4,9.3V622c0,1.2,0,2.3-0.1,3.5
	C944.4,633.7,937.4,639.8,929.2,639.9c-0.5,0.1-0.8,0.7-0.7,1.2c0.1,0.3,0.4,0.6,0.7,0.7c8-0.1,15-5.2,17.5-12.8
	c0.6-2.2,0.9-4.4,0.8-6.7V415.9c0.1-3.5-0.8-7-2.6-10c-3.3-5.5-9.3-8.9-15.8-9c-2.5,0-5,0-7.5,0H676.8c-0.8,0-1.5,0-2.3,0
	c-8,0.4-14.9,6-16.9,13.7c-0.9,3.5-0.6,7.3-0.6,10.8v197.3c0,5.2,0,10.1,3,14.7c3.4,5.2,9.2,8.3,15.4,8.3h253.8
	c0.5-0.1,0.8-0.7,0.7-1.2C929.8,640.3,929.5,640,929.2,639.9L929.2,639.9z"/>
<path class="st2" d="M588.5,610.6l31.1-4.2c5-0.7,10.2-1.5,14.2-4.6c5.4-4.3,7-11.8,8.2-18.6c4.1-22.8,14.8-43.5,23.6-64.9
	c2.9-7,0.7-16.3,0.6-23.9c-0.1-4.1-1.2-8.2-0.5-12.2c0.8-5,4.2-9.3,8.8-11.2c1,0.8,1.1,2.3,0.4,3.3c0.3-6.7,3.2-13,8-17.7
	c0.6-0.6,1.5-0.6,2.1,0c0.4,0.4,0.5,0.9,0.4,1.4l-3,10.5c0.1-4.5,2.1-8.8,5.6-11.8c0.8-0.6,1.9-0.5,2.5,0.2c0.3,0.4,0.5,0.8,0.4,1.3
	c-0.4,4.9-2,9.7-4.4,14c1.7-3.1,2-6.7,3.4-9.9c0.9-2,2.3-3.7,4.2-4.7c1-0.5,2.2-0.2,2.7,0.7c0.3,0.5,0.3,1.1,0.2,1.6l-3.7,11.5
	c0.1-4.1,1.7-8,4.4-11c0.7-0.8,1.8-0.8,2.6-0.1c0.4,0.4,0.6,0.8,0.6,1.4c-0.2,18.1-5.5,29.8-9.2,47.6c-7.6,36.5-4.9,81-16.8,116.3
	c-1.9,5.8-4.3,11.4-7.9,16.3c-4.2,5.4-9.4,9.8-15.3,13.1C630,667.8,604,669.7,579,671.2"/>
<path d="M700.1,461.8c-0.6,9-2,17.9-4.3,26.6c-2.3,8.8-4.7,17.5-6.3,26.5c-3.2,17.7-4.2,35.7-5.8,53.5s-3.5,35.9-8.7,53.2
	c-2.7,8.8-6.2,17.5-12.8,24c-6.4,6.3-14.6,10.8-22.9,14.1c-17.1,6.8-35.5,8.6-53.7,9.8c-2.2,0.2-4.5,0.3-6.7,0.5
	c-1.5,0.2-1.6,2.4,0,2.4c9.4-0.3,18.7-1,28-2.3c9.2-1.1,18.2-3,27-5.8c8.7-2.7,16.9-6.8,24.2-12.2c3.6-2.6,6.8-5.8,9.5-9.3
	c2.7-3.8,4.9-7.9,6.6-12.3c6.6-16.9,9-35.3,10.8-53.3c1.8-18.4,2.8-37,5.5-55.3c1.4-9.1,3.3-18.2,5.7-27.1c2.2-8.5,4.4-17,5.1-25.8
	c0.2-2.4,0.2-4.9,0.1-7.3c0-0.4-0.4-0.7-0.8-0.6C700.4,461.2,700.1,461.4,700.1,461.8L700.1,461.8z"/>
<path d="M588.5,611.3c7.1-0.5,14.2-1.6,21.2-2.5l10.2-1.4c2.9-0.3,5.7-0.9,8.5-1.7c5.2-1.6,9.4-5.4,11.5-10.4
	c2.2-5.1,2.8-10.5,4-15.9c2.7-12.7,7.4-24.8,12.4-36.7c2.6-6,5.2-12,7.8-18c1.3-2.7,2.5-5.5,3.4-8.4c0.7-2.7,1-5.6,0.8-8.4
	c-0.1-3.4-0.5-6.7-0.7-10.1c-0.1-1.7-0.1-3.3-0.2-5c-0.1-1.9-0.4-3.8-0.5-5.6c-0.3-3.4,0-6.6,1.7-9.6c1.5-2.5,3.8-4.5,6.5-5.7
	l-1.6-0.2c0.5,0.4,0.6,1.2,0.2,1.8l2.4,0.7c0.3-6.5,3.2-12.1,7.6-16.8c0.4-0.5,0.4-1.3-0.1-1.7c-0.5-0.4-1.2-0.4-1.6,0
	c-5.2,4.8-8.2,11.5-8.5,18.5c0,0.7,0.6,1.3,1.3,1.3c0.5,0,0.9-0.2,1.1-0.6c1-1.6,0.7-3.6-0.6-4.9c-0.4-0.4-1.1-0.5-1.6-0.2
	c-4.8,2.1-8.3,6.4-9.4,11.5c-0.7,3.3-0.2,6.5,0.2,9.8c0.3,3,0.3,6,0.6,8.9c0.5,5.6,1.4,11.8-0.5,17.2c-2.1,6-5,11.8-7.5,17.7
	c-5.1,11.7-10,23.5-13.5,35.8c-1.6,5.9-2.5,11.8-4,17.7c-1.2,5.1-3.2,10.4-7.9,13.3c-2.9,1.6-6,2.7-9.3,3.1c-3.5,0.6-7.1,1-10.7,1.5
	c-7.9,1.1-15.8,2-23.6,3.6c-0.4,0.1-0.6,0.5-0.5,0.9C587.9,611.1,588.2,611.3,588.5,611.3L588.5,611.3z"/>
<path d="M615.5,490.8H365.1c-1,0-2.1,0-3.1,0c-9,0.2-16.6-6.9-16.8-16c0-0.3,0-0.5,0-0.8c0-1.2,0-2.4,0-3.6V276.7
	c0-3.1-0.3-6.4,0.2-9.4c1.3-7.9,8.1-13.8,16.2-13.9h253.6c9.2-0.1,16.7,7.3,16.7,16.5c0,0.1,0,0.2,0,0.3V473c0,1.3,0,2.5-0.2,3.8
	C630.5,484.8,623.6,490.8,615.5,490.8c-0.5,0.2-0.8,0.7-0.7,1.2c0.1,0.3,0.4,0.6,0.7,0.7c7.9-0.1,14.9-5.1,17.4-12.6
	c0.7-2.2,1-4.5,0.9-6.8V270.2c0.1-10.2-8.2-18.6-18.4-18.6c0,0,0,0,0,0H363c-0.8,0-1.5,0-2.3,0c-7.9,0.4-14.6,5.8-16.8,13.4
	c-1,3.5-0.7,7.5-0.7,11.1v194.7v3.5c-0.2,10.1,7.9,18.4,18,18.6c0.2,0,0.3,0,0.5,0h253.7c0.5-0.1,0.8-0.7,0.7-1.2
	C616.1,491.2,615.8,490.9,615.5,490.8L615.5,490.8z"/>
<path class="st2" d="M355.2,482.9c-5.4-2-10-5.7-15.3-7.9s-12.2-2.4-16.1,1.9c-1.8,2-2.7,4.8-4,7.1c-0.9,1.6-2.1,3.5-1.2,5
	c0.7,1,1.9,1.5,3,1.4c3.9,0,6.9-3.3,9.3-6.4c0,7.9,5.6,14.6,13.4,16"/>
<path d="M355.4,482.2c-8.5-3.5-15.7-11.2-25.6-9.6c-4.5,0.7-7.4,3.6-9.3,7.5c-0.5,1.1-1,2.2-1.7,3.3c-0.6,1-1.1,2-1.5,3.1
	c-0.6,1.9,0.4,3.9,2.3,4.6c4.9,1.9,9.4-3,12.1-6.4l-1.8-0.7c-0.1,8.1,6.1,15.8,14.2,16.9c1.2,0.2,1.7-1.6,0.5-1.8
	c-7.3-1.3-12.6-7.7-12.6-15.1c0-0.8-1.2-1.5-1.8-0.7c-2.1,2.6-5.1,6.5-9,6.1c-1-0.1-2-0.6-1.9-1.8c0.2-1,0.6-1.9,1.2-2.7
	c1-1.7,1.7-3.6,2.7-5.3c4.1-7.1,13.1-5.4,19.3-2.3c4.2,2.1,8.1,4.7,12.5,6.3C355.8,483.8,356.2,482.5,355.4,482.2L355.4,482.2z"/>
<path class="st4" d="M488.9,333.7c-19.6,23.5-29.7,52.6-38.6,81.4c-6.4,20.9-16.1,34.6-38,40.6c-12.1,3.2-23.9,7.6-36.1,10.6
	c-3.9,0.9-7.9,1.9-11.3,4s-6.1,5.9-5.8,9.9c-3-3.5-9.3-1.6-11.5,2.4s-1.4,9-0.1,13.4c1.3,4.3,3.1,8.5,5.3,12.5c0.9,1.6,2,3.4,3.8,4
	c1.8,0.6,4.2-0.5,4.2-2.4c2.5,3,7.1,3,11,2.8c8.9-0.5,17.8-1,26.7-2.1c24.7-3,48.7-10.4,70.8-21.7c10.6-5.4,20.9-11.9,28.6-21
	c4.5-5.3,8.1-11.4,11.6-17.5l7-12.1"/>
<path d="M488.4,333.2c-9.7,11.2-17.2,24.2-23.3,37.7s-10.9,27.8-15.3,42.1c-3.4,10.7-7.5,21.4-15.6,29.5c-3.9,3.8-8.4,6.8-13.3,9
	c-2.9,1.3-5.8,2.3-8.9,3.1c-4,1.1-8,2.3-12,3.5c-8,2.5-16,5-24.1,7c-6.6,1.6-14.2,3.6-17.1,10.5c-0.6,1.4-0.9,3-0.8,4.6l2-0.8
	c-2.3-2.5-5.9-2.6-8.8-1.4c-3.3,1.5-5.6,4.7-5.9,8.4c-0.6,4.4,0.7,8.9,2.2,13c0.8,2.2,1.7,4.4,2.7,6.6c0.9,2,2,3.9,3.3,5.7
	c1.2,1.7,3.3,2.5,5.3,2.2c1.8-0.3,3.2-1.8,3.3-3.6l-2,0.8c3.6,4,9.5,3.3,14.3,3c6.6-0.4,13.2-0.8,19.8-1.4
	c24.7-2.5,48.8-9.2,71.2-20c10.5-5,20.7-10.8,29.2-18.8c4.8-4.7,8.9-9.9,12.3-15.6c3.8-6.2,7.4-12.5,11.1-18.8
	c0.4-0.8,0.1-1.7-0.7-2c-0.7-0.3-1.5-0.1-1.9,0.5c-3.1,5.4-6.2,10.9-9.4,16.3c-2.9,5.2-6.4,10.2-10.3,14.7
	c-7.5,8.2-17,14.2-26.8,19.2c-21.4,11-44.5,18.3-68.4,21.4c-7.2,0.9-14.4,1.5-21.6,1.9c-3.2,0.2-6.5,0.5-9.7,0.5
	c-2.7,0-5.5-0.4-7.4-2.5c-0.5-0.5-1.2-0.5-1.7,0c-0.2,0.2-0.3,0.5-0.3,0.8c-0.1,1.9-2.8,1.3-3.7,0.5c-1.5-1.3-2.4-3.5-3.3-5.2
	c-2.1-4.1-3.7-8.4-4.7-12.9c-0.8-3.7-0.9-8.5,2.2-11.2c2.2-2,6-2.8,8.2-0.4c0.5,0.4,1.2,0.4,1.7-0.1c0.2-0.2,0.3-0.5,0.3-0.8
	c-0.4-7.9,8.5-10.9,14.7-12.4c8-2,15.9-4.4,23.7-6.8c4-1.2,8-2.5,12-3.6c3.1-0.8,6.1-1.8,9.1-2.9c5-2,9.7-4.8,13.9-8.2
	c8.2-7.1,13.2-17.1,16.6-27.2c2.3-6.8,4.2-13.6,6.5-20.4c2.4-7,4.9-14,7.7-20.8c5.5-13.7,12.7-26.7,21.3-38.8
	c1.1-1.6,2.3-3.1,3.6-4.7C489.9,333.5,489,332.5,488.4,333.2L488.4,333.2z"/>
<path class="st5" d="M438.3,637.1c-18.7,9.7-34.8,23.8-46.8,41.1c-1.7,1.6-1.8,4.3-0.2,6.1c0.1,0.1,0.2,0.2,0.3,0.3
	c6.1,7.8,12.5,15.3,19.2,22.5c2.1,2.4,4.5,4.6,7.1,6.3c7.4,4.4,17.1,2.8,24.4-1.8s12.6-11.6,17.7-18.5"/>
<path class="st4" d="M437.9,636.5c-18.9,9.4-35.2,23.4-47.3,40.7c-1.5,2.2-2.4,4.4-0.9,6.9c1.7,2.4,3.5,4.8,5.5,7
	c3.8,4.7,7.8,9.3,11.8,13.8c3.7,4.1,7.5,8.7,12.7,10.9c4.6,1.8,9.8,2.1,14.6,0.8c12-3,19.9-13.2,27-22.7c1.1-1.4-1.3-2.8-2.4-1.4
	c-5.9,7.9-12.4,16.6-21.9,20.4c-4.4,1.8-9.2,2.3-13.8,1.3c-5.1-1.3-8.6-4.9-12.1-8.6c-3.9-4.2-7.7-8.5-11.4-12.9
	c-1.8-2.2-3.7-4.4-5.5-6.7c-0.9-1-1.7-2-2.4-3.1c-0.9-1.4-0.5-2.4,0.4-3.7c5.5-8.2,11.9-15.7,19.3-22.3c8.2-7.5,17.3-14,27.1-19.2
	C439.5,637.3,438.8,636.1,437.9,636.5L437.9,636.5z"/>
<path class="st2" d="M768.7,401c-4.8,8.5-0.5,20.5-6.5,28.3c-0.6,0.7-1.1,1.4-1.5,2.3c-0.5,1.8,0.9,3.2,2.6,4.2
	c3.3,1.8,3.1,6.6,3.6,9.9c0.4,3.4,0.6,7,1.3,10.4c0.6,2.9,1.8,5.9,4.2,7.7c2,1.4,4.3,2,6.7,1.9c3.5-0.1,6.9-1.4,10.5-1.6
	c1.2-0.1,2.5-0.1,3.4,0.7c0.6,0.6,0.9,1.3,1.1,2.1c1.4,4.3,2.8,8.6,4.1,12.9c0.2,1.2,0.8,2.2,1.6,3c1.2,0.9,2.8,0.9,4.3,0.6
	c11.3-1.7,21.4-7.8,28.2-17c0.7-0.8,1.1-1.8,1.1-2.8c-0.2-1-0.8-1.9-1.5-2.6c-6.1-7.1-10.3-15.6-12.4-24.8c-3.4-14.3,3.1-33-7.9-45
	c-2.6-2.8-6.1-4.8-9.8-5.7c-6.4-1.3-13.1-0.7-19.1,1.8c-5.3,2.1-12.2,6.2-13.1,12.5"/>
<path d="M768.1,400.6c-2.2,3.8-2.6,8.2-2.9,12.5s-0.3,9.1-2.3,13.2c-0.9,1.9-3,3.5-3.2,5.6s1.5,3.7,3.2,4.7s2.3,3,2.6,4.9
	c0.3,2.1,0.5,4.3,0.7,6.4c0.5,4.9,0.6,10.6,3.8,14.7s8.8,4.3,13.6,3.3c1.3-0.3,2.5-0.6,3.8-0.8c1.4-0.3,2.8-0.4,4.1-0.2
	c1.4,0.3,1.7,1.9,2,3.1c0.5,1.5,1,2.9,1.4,4.4c0.9,2.7,1.6,5.4,2.5,8.1c0.7,2,1.9,3.5,4.1,3.8c2.3,0.1,4.5-0.1,6.7-0.8
	c2.3-0.6,4.6-1.3,6.8-2.2c4.3-1.8,8.3-4.3,11.8-7.4c1.8-1.5,3.4-3.2,4.8-5c1.3-1.5,3.1-3.5,2.8-5.6c-0.2-1-0.7-1.9-1.4-2.6
	c-0.9-1-1.8-2.1-2.6-3.2c-1.5-2-2.9-4.2-4.1-6.4c-2.5-4.6-4.4-9.5-5.6-14.5c-0.9-4.2-1.3-8.6-1.2-12.9c0-8.5,0.8-17.5-2.4-25.5
	c-1.5-4.1-4.2-7.7-7.7-10.3c-4.1-2.7-8.9-4.1-13.9-4c-5.1,0-10.1,1.1-14.7,3.2c-3.7,1.6-7.3,3.9-9.7,7.2c-1.2,1.6-1.9,3.4-2.2,5.4
	c-0.1,1,1.3,1.4,1.5,0.4c0.7-4,3.9-6.9,7.2-9c3.7-2.3,7.9-3.9,12.2-4.7c4.9-1,10-0.6,14.7,1c4.2,1.7,7.6,4.9,9.6,8.9
	c3.9,7.2,3.5,15.8,3.4,23.8c-0.1,4.1,0,8.1,0.4,12.2c0.6,4.3,1.7,8.5,3.3,12.6c1.7,4.5,3.9,8.7,6.7,12.6c0.6,0.9,1.3,1.7,1.9,2.6
	c0.8,0.9,1.6,1.8,2.3,2.8c1.2,2-1.6,4.5-2.8,5.9c-5.9,6.7-13.8,11.3-22.6,13.2c-1.9,0.4-5.1,1.4-6.5-0.5c-0.5-0.9-0.9-1.9-1.1-3
	c-0.4-1.3-0.8-2.6-1.2-3.9c-0.8-2.6-1.7-5.2-2.5-7.8c-0.7-2.1-1.7-3.5-4-3.8c-5-0.5-9.7,2.4-14.7,1.4c-5.4-1.1-7-6.2-7.6-11.1
	c-0.3-2.6-0.5-5.2-0.9-7.8c-0.2-1.8-0.3-3.6-0.7-5.3c-0.3-1.7-1.1-3.3-2.4-4.5c-1.6-1.4-4.3-2.3-2.5-4.8c1.2-1.5,2.2-3.2,2.9-5.1
	c0.6-1.9,1-3.8,1.2-5.8c0.4-4.2,0.2-8.4,0.9-12.5c0.3-2.1,1-4.1,1.9-5.9C769.8,400.5,768.6,399.7,768.1,400.6L768.1,400.6z"/>
<path d="M773.7,422.6l-0.1,0.1L773.7,422.6l-0.2,0.2l0.1-0.1l-0.2,0.1h0.1c0.1,0,0.2-0.1,0.3-0.1l-0.2,0.1h0.2h-0.2h0.2h-0.2
	c0.1,0,0.1,0,0.2,0l-0.2-0.1l0.2,0.1l-0.2-0.1c0.1,0.1,0.1,0.1,0.2,0.2l-0.2-0.2c0.1,0.1,0.1,0.2,0.2,0.3l-0.1-0.2
	c0,0.1,0.1,0.2,0.1,0.3v-0.3c0,0.1,0,0.2,0,0.3v-0.3c0,0.1,0,0.1,0,0.2l0.1-0.2c0,0-0.1,0.1-0.1,0.1L773.7,422.6l-0.2,0.1
	L773.7,422.6C773.7,422.6,773.6,422.6,773.7,422.6l0.2-0.1L773.7,422.6l0.3-0.1h-0.2h0.3l-0.2,0l0.2,0.1c0,0-0.1,0-0.1-0.1l0.2,0.2
	l-0.1-0.1l0.2,0.2l-0.3-0.3l0.2,0.2v-0.1l0.1,0.2c0-0.2-0.1-0.3-0.2-0.4l-0.2-0.2c-0.1-0.1-0.2-0.1-0.4-0.1c-0.1,0-0.2,0-0.3,0
	c-0.1,0-0.2,0-0.2,0.1c-0.1,0-0.2,0.1-0.2,0.1c-0.1,0.1-0.2,0.2-0.2,0.3c-0.1,0.2-0.2,0.4-0.2,0.6c0,0.3,0.1,0.6,0.3,0.9
	c0.6,0.6,1.6,0.7,2.2,0.1c0.1-0.1,0.2-0.2,0.3-0.3c0.1-0.1,0.1-0.3,0.2-0.4c0,0,0-0.1,0-0.1c0-0.1,0-0.2,0-0.4
	c0-0.3-0.1-0.6-0.2-0.9c0-0.1-0.1-0.1-0.1-0.2c-0.1-0.1-0.2-0.3-0.3-0.4c-0.2-0.2-0.5-0.4-0.8-0.5c-0.2,0-0.5,0-0.7,0
	c-0.2,0-0.3,0.1-0.4,0.2c-0.4,0.2-0.6,0.6-0.6,1.1v0.2c0,0.1,0.1,0.2,0.1,0.2c0.1,0.1,0.2,0.2,0.4,0.3c0.1,0,0.3,0,0.4,0
	C773.4,422.9,773.6,422.8,773.7,422.6L773.7,422.6z"/>
<path d="M770.8,417.5c0.3,0.1,0.6,0.1,0.8,0h0.2h-0.1c0.1,0,0.2,0,0.3,0h0.1c-0.2,0-0.3,0-0.2,0c0.2,0.1,0.3,0.1,0.5,0.1
	c0.2,0,0.4,0,0.5,0l-0.4-0.1c0.5,0.1,0.9,0.2,1.4,0.3l-0.4-0.2h0.1c0.4,0.2,0.9,0.3,1.3,0.2c0.5-0.1,0.9-0.5,1.1-1
	c0.4-0.9,0-1.9-0.9-2.3c-0.1,0-0.1-0.1-0.2-0.1c-1.3-0.2-2.7-0.2-4,0c-0.4,0.1-0.8,0.4-1.1,0.8c-0.2,0.3-0.3,0.7-0.2,1.1
	c0.1,0.9,0.9,1.5,1.8,1.5c1.2-0.1,2.4-0.1,3.6,0.1l-0.5-0.1c0.6,0.1,1.2,0.2,1.8,0.3l-0.9-3.3l-0.3,0.2c-0.8,0.5-1,1.5-0.5,2.2
	c0.2,0.3,0.5,0.6,0.9,0.7l0.4,0.1c1,0.3,1.9-0.3,2.2-1.2c0.2-0.9-0.3-1.9-1.2-2.2c-0.5-0.1-1.1-0.2-1.6-0.2c-0.4,0-0.8-0.1-1.3-0.1
	c-0.8-0.1-1.7-0.1-2.5,0l0.5,3.5h0.1l-0.5,0.1c0.5-0.1,1-0.1,1.5-0.1c0.5,0,1,0,1.5,0.1l-0.5-3.4H774l0.5-0.1
	c-0.8,0-1.5,0.1-2.3,0.3c-0.2,0-0.3,0.1-0.5,0.2l-0.3,0.2c-0.1,0.1-0.1,0.1,0,0s0,0-0.1,0c-0.1,0-0.1,0.1-0.2,0.1
	c-0.4,0.3-0.9,0.6-1,1.1C770,416.9,770.3,417.4,770.8,417.5L770.8,417.5z"/>
<path d="M801.1,419.9c-1,0.3-1.7,1-1.9,2c-0.2,0.6-0.2,1.2,0,1.7c0.2,0.4,0.6,0.6,1,0.6c0.5,0,0.9-0.3,1-0.7c0.1-0.5-0.1-1-0.5-1.2
	c-0.5-0.3-1.1-0.2-1.5,0.2c-0.3,0.3-0.3,0.8,0,1.2c0.1,0.1,0.3,0.2,0.6,0.2c0.2,0,0.3,0,0.5-0.1H800h0.2h-0.2h0.1l-0.2-0.1h0.1
	l-0.2-0.1c0,0,0,0,0,0l-0.1-0.2c0,0,0,0,0,0.1l-0.1-0.2c0,0,0,0,0,0.1v-0.2v-0.2c0,0,0,0,0,0.1l0.1-0.2c0.1-0.1,0.1-0.2,0.2-0.2
	l0.2-0.1h0h0.2h-0.1h0.2h-0.1l0.2,0.1c-0.1,0,0.1,0.1,0.1,0.1s0,0,0,0l0.1,0.2v-0.1v0.2c0-0.3,0-0.5,0-0.8v0.2
	c0-0.2,0.1-0.4,0.1-0.5v-0.1v0.1c0,0,0-0.1,0.1-0.1c0-0.1,0.1-0.2,0.1-0.2c0.1-0.1-0.1,0.1,0,0l0.1-0.1l0.1-0.1c0,0,0.1-0.1,0,0
	s0,0,0,0l0.1-0.1c0.1-0.1-0.1,0,0,0h0.1c0.4-0.1,0.6-0.5,0.5-0.8c-0.1-0.4-0.5-0.6-0.8-0.5L801.1,419.9z"/>
<path class="st2" d="M241.6,356.6c3.3,9.2-3.1,20.3,1.4,29c0.5,0.8,0.8,1.6,1,2.5c0.1,1.9-1.4,3-3.3,3.6c-3.6,1.2-4.2,6-5.2,9.1
	c-1,3.3-1.8,6.7-3.1,10c-1.1,2.8-2.8,5.5-5.4,6.8c-2.2,1-4.6,1.2-6.9,0.7c-3.5-0.7-6.6-2.6-10-3.4c-1.1-0.4-2.4-0.4-3.5,0.1
	c-0.6,0.5-1.2,1.1-1.5,1.9c-2.1,4-4.2,8-6.3,12c-0.4,1.1-1.2,2-2.1,2.7c-1.3,0.7-2.9,0.4-4.3-0.1c-10.8-3.6-19.7-11.4-24.8-21.6
	c-0.5-0.9-0.7-1.9-0.6-2.9c0.4-1,1.1-1.8,2-2.3c7.2-6,12.9-13.6,16.5-22.2c5.8-13.5,2.7-33,15.6-42.9c3.1-2.3,6.8-3.7,10.7-3.9
	c6.5-0.2,13,1.6,18.5,5.1c4.9,3,11,8.3,10.8,14.6"/>
<path d="M240.9,356.8c2.8,8.5-2.1,17.4,0.1,26.1c0.2,1,0.6,1.9,1,2.9c0.5,1,1.4,2.2,0.9,3.4c-0.6,0.8-1.4,1.4-2.3,1.6
	c-0.8,0.3-1.6,0.8-2.2,1.3c-2.6,2.4-3.2,6.6-4.1,9.9c-1.3,4.5-2.1,10.1-5.7,13.5c-4.1,3.8-9.6,1.6-14-0.2c-2.1-0.8-4.5-1.9-6.8-1.6
	s-3.2,2.4-4.2,4.2c-1.3,2.4-2.6,4.8-3.8,7.3c-0.6,1.2-1.2,2.4-1.8,3.5s-1.2,2.2-2.6,2.3c-2.1,0.1-4.6-1.2-6.5-2
	c-5.9-2.7-11.1-6.8-15.2-11.9c-1.4-1.7-2.6-3.5-3.7-5.4c-0.6-1-1.1-2-1.6-3.1c-0.5-1.5,0.4-2.3,1.5-3.2c3.7-3,7-6.4,9.8-10.3
	c2.8-3.9,5.1-8,7-12.4c1.4-3.4,2.4-6.9,3-10.6c1.4-7.5,2-15.3,5-22.3c1.4-3.5,3.7-6.6,6.6-9.1c3.9-3.1,8.8-4.5,13.7-4.1
	c5.1,0.4,9.9,1.9,14.3,4.5c3.7,2,6.9,4.9,9.3,8.3c1.2,1.7,1.8,3.8,1.9,5.9c0,0.4,0.4,0.7,0.9,0.7c0.4,0,0.7-0.3,0.7-0.7
	c0.3-9.2-9.8-15.6-17.3-18.5c-4.8-1.9-10-2.6-15.1-1.9c-4.6,0.8-8.9,3.1-12,6.6c-5.5,6-7.2,14.2-8.6,22c-0.7,4.1-1.3,8.2-2.3,12.2
	c-1.1,4.2-2.8,8.3-4.9,12.1c-2.5,4.6-5.7,8.7-9.4,12.5c-0.9,0.9-1.8,1.7-2.8,2.5c-1,0.7-1.9,1.5-2.7,2.4c-1.7,2-0.6,4.3,0.5,6.4
	c4.4,8.2,11.2,14.8,19.6,18.8c3.6,1.7,9.2,4.6,12.1,0.4c1.4-2.4,2.7-4.9,3.9-7.4c0.6-1.2,1.3-2.4,1.9-3.6s1.1-2.7,2-3.5
	s2.7-0.4,3.9,0c1.3,0.4,2.7,0.9,3.9,1.4c2.4,1.1,5,1.8,7.6,2c4.9,0.2,8.7-2.7,10.7-7.1s3.1-9.6,4.5-14.3c0.5-1.7,1.1-3.7,2.6-4.9
	c0.9-0.5,1.8-0.9,2.7-1.3c0.9-0.5,1.7-1.3,2.1-2.2c1-2.2-0.6-4-1.4-6c-0.8-2.1-1.2-4.4-1.1-6.7c0-4.8,1.2-9.5,1.1-14.3
	c0-2.2-0.4-4.4-1.1-6.5C242,355.5,240.5,355.8,240.9,356.8L240.9,356.8z"/>
<path d="M234.4,377c0.1-0.3,0-0.7-0.1-1c-0.1-0.2-0.3-0.3-0.5-0.4c-0.1-0.1-0.3-0.1-0.4-0.2c-0.1,0-0.2,0-0.4,0l-0.3,0
	c-0.2,0-0.3,0.1-0.5,0.2c-0.3,0.2-0.5,0.4-0.7,0.6c0,0.1-0.1,0.1-0.1,0.2c-0.1,0.1-0.1,0.3-0.2,0.5c-0.1,0.3-0.1,0.7,0,1
	c0,0.1,0.1,0.3,0.2,0.4c0.1,0.2,0.3,0.4,0.5,0.5c0.3,0.1,0.5,0.2,0.8,0.2c0.2,0,0.3,0,0.4-0.1c0.1,0,0.2-0.1,0.3-0.1l0.1,0
	c0.1-0.1,0.2-0.1,0.3-0.2c0.2-0.2,0.3-0.5,0.3-0.8c0-0.1,0-0.3-0.1-0.4c0-0.2-0.1-0.3-0.2-0.4l-0.2-0.2c-0.1-0.1-0.2-0.1-0.4-0.1
	c-0.1,0-0.2,0-0.2,0c-0.1,0-0.2,0-0.2,0.1c-0.1,0-0.2,0.1-0.2,0.1c-0.1,0.1-0.2,0.2-0.2,0.3v0.1l0.1-0.2c0,0,0,0-0.1,0l0.2-0.2
	l-0.2,0.2l-0.2,0.2l0.2-0.2l-0.1,0.1l0.2-0.2c0,0-0.1,0-0.1,0.1l0.2-0.1h-0.1h0.3h-0.2h0.3h-0.1l0.2,0.1c0,0-0.1,0-0.1-0.1l0.2,0.2
	L233,377l0.2,0.2c0,0-0.1-0.1-0.1-0.1l0.1,0.2c0-0.1,0-0.1,0-0.2v0.3c0-0.1,0-0.2,0-0.2v0.3c0-0.1,0-0.2,0.1-0.3l-0.1,0.2
	c0-0.1,0.1-0.2,0.2-0.3l-0.1,0.2c0.1-0.1,0.1-0.2,0.2-0.2l-0.2,0.2c0.1,0,0.1-0.1,0.2-0.1l-0.2,0.1h0.2h-0.2h0.2H233h0.1l-0.2-0.1
	l0.1,0c0.1,0.1,0.2,0.1,0.3,0.1l-0.2-0.1l0.1,0.1l-0.2-0.1l0.1,0.1l-0.1-0.2c0,0,0,0.1,0.1,0.1l0.1,0.1l0.1,0.1
	c0.1,0.1,0.3,0.1,0.5,0.1c0.1,0,0.2-0.1,0.4-0.1C234.3,377.3,234.4,377.2,234.4,377L234.4,377z"/>
<path d="M205.8,370.8l0.1,0.1h0.1l-0.1-0.1c0,0,0.1,0.1,0.1,0.1l0.1,0.1v0.1l0.1,0.1c0,0,0.1,0.1,0.1,0.1v-0.1c0,0,0,0,0,0.1
	s0,0.1,0.1,0.2c0,0,0,0.1,0,0.1c0,0,0,0.1,0,0.1v0.2c0,0.2,0,0.5-0.1,0.7v-0.2c0,0,0,0.1,0,0.1c0,0.1-0.1,0.2,0,0
	c0-0.1,0.1-0.1,0.2-0.2c-0.1,0.1,0.2-0.1,0.1,0h0.2h-0.1h0.2c-0.1,0,0.1,0.1,0.2,0.1c0.1,0,0.1,0.1,0.1,0.2c0.1,0.2,0.1,0.2,0.1,0.1
	v0.2v0.2c0,0.1-0.1,0.2-0.2,0.3c0,0-0.1,0.1-0.1,0.1c-0.1,0-0.1,0,0,0h-0.2h0.1h-0.2h0.1c-0.1,0-0.1,0-0.1,0
	c0.1,0.1,0.2,0.1,0.3,0.1c0.1,0,0.3,0,0.4,0c0.4-0.1,0.7-0.6,0.5-1.1c0,0,0-0.1-0.1-0.1c-0.3-0.4-0.7-0.6-1.1-0.5
	c-0.5,0-0.9,0.4-1,0.8c-0.1,0.4,0.1,0.9,0.5,1.1c0.3,0.2,0.8,0.2,1.1,0c0.5-0.4,0.7-1,0.6-1.7c0-0.5-0.1-1.1-0.4-1.5
	c-0.3-0.5-0.7-0.9-1.3-1.1c-0.3-0.1-0.7,0.1-0.8,0.4C205.4,370.3,205.5,370.7,205.8,370.8L205.8,370.8z"/>
<path class="st2" d="M492.1,529.2c8.3,5.3,10,17.9,18.9,22c0.9,0.3,1.7,0.8,2.4,1.4c1.2,1.4,0.7,3.2-0.4,4.9
	c-2.1,3.2,0.3,7.3,1.5,10.4c1.2,3.2,2.7,6.4,3.7,9.8c0.9,2.8,1.2,6-0.1,8.7c-1.1,2.1-2.9,3.8-5.1,4.8c-3.2,1.6-6.8,2-10,3.5
	c-1.1,0.5-2.3,1.1-2.7,2.2c-0.2,0.8-0.2,1.6,0,2.4c0.7,4.4,1.5,8.9,2.4,13.3c0.3,1.1,0.3,2.3,0,3.5c-0.6,1.4-2.1,2.1-3.5,2.6
	c-10.8,3.8-22.6,3.1-32.8-1.9c-1-0.4-1.8-1-2.3-1.9c-0.3-1-0.2-2,0.1-3c2-9.1,1.8-18.6-0.6-27.7c-3.7-14.2-18.1-27.8-14-43.5
	c1-3.7,3.1-7.1,6.1-9.6c5.1-4.2,11.2-6.7,17.8-7.3c5.7-0.6,13.8-0.2,17.5,5"/>
<path d="M491.7,529.8c6.1,4.1,8.3,11.7,12.7,17.2c1.1,1.4,2.3,2.6,3.7,3.6c0.7,0.5,1.4,0.9,2.1,1.3c1,0.5,2.6,0.9,2.8,2.2
	s-0.6,2.2-1.1,3.1c-0.5,0.9-0.7,1.8-0.8,2.8c0.1,2.1,0.6,4.1,1.5,6c0.9,2.3,1.8,4.6,2.7,6.9c1.1,2.4,1.9,4.9,2.4,7.4
	c0.5,2.4-0.1,4.9-1.5,6.8c-1.5,1.7-3.4,3-5.6,3.7c-2.4,0.8-4.8,1.3-7.1,2.2c-1.8,0.7-3.9,1.6-4.4,3.7c-0.1,1-0.1,2,0.2,3
	c0.2,1.3,0.5,2.7,0.7,4c0.5,2.6,0.9,5.2,1.4,7.8c0.2,1.2,0.8,2.8,0.1,3.9c-0.7,0.9-1.6,1.5-2.7,1.8c-2.3,0.8-4.6,1.4-7,1.8
	c-4.7,0.8-9.6,0.7-14.3-0.1c-2.4-0.4-4.7-1.1-7-1.9c-1.1-0.4-2.2-0.9-3.3-1.4c-1.1-0.5-2.4-1.1-2.3-2.5c0.2-1.3,0.4-2.5,0.8-3.7
	c0.2-1.2,0.4-2.5,0.6-3.7c0.3-2.6,0.4-5.1,0.4-7.7c-0.1-5.1-0.9-10.2-2.2-15.1c-1.2-3.8-2.7-7.4-4.6-10.9
	c-3.8-7.2-8.4-14.3-9.7-22.5c-0.7-4.2-0.1-8.5,1.8-12.4c2.3-4.1,5.8-7.3,10-9.3c4.1-2.1,8.6-3.3,13.1-3.6c3.8-0.4,7.5,0.1,11.1,1.4
	c1.7,0.7,3.2,1.8,4.3,3.2c0.5,0.7,1.8-0.2,1.2-1c-4.8-6.7-14.8-6.5-22.1-4.9c-9.2,2-18.6,7.7-21,17.4c-2.1,8.6,1.2,17,5.1,24.5
	c2,3.9,4.3,7.8,6.1,11.8c2,4.3,3.3,9,4,13.7c0.9,5.7,0.9,11.4,0,17.1c-0.2,1.4-0.5,2.7-0.8,4.1c-0.4,1.1-0.3,2.3,0.1,3.4
	c0.9,1.9,3.4,2.7,5.2,3.5c9.5,3.9,20.1,4.4,29.8,1.3c1.9-0.6,4.1-1.3,5.2-3.2c1.3-2.2,0.2-5.2-0.2-7.4c-0.5-2.8-1-5.7-1.5-8.6
	c-0.2-1.2-0.9-3.1,0-4.1c1-0.8,2.1-1.4,3.3-1.7c4.6-1.6,9.7-2.2,12.9-6.3s2.2-9.5,0.5-14c-1-2.6-2-5.2-3-7.7c-0.8-2.1-2-4.3-2-6.7
	s2.2-3.9,1.8-6.4s-2.5-3-4.4-4c-6.8-3.6-9.2-12.1-14-17.7c-1.2-1.4-2.6-2.6-4.1-3.6C491.6,528,490.9,529.3,491.7,529.8L491.7,529.8z
	"/>
<path d="M498.9,549.8c-0.1-0.2-0.2-0.3-0.3-0.5c-0.1-0.1-0.2-0.2-0.3-0.2c-0.2-0.1-0.4-0.1-0.6-0.1c-0.2,0-0.4,0.1-0.6,0.2
	c-0.3,0.1-0.5,0.4-0.6,0.6c-0.2,0.3-0.3,0.6-0.3,0.9c0,0.1,0,0.1,0,0.2c0,0.2,0,0.3,0.1,0.5c0.1,0.3,0.3,0.6,0.5,0.8
	c0.4,0.4,1,0.6,1.5,0.4c0.1,0,0.3-0.1,0.4-0.2c0.3-0.2,0.6-0.5,0.7-0.9c0-0.1,0-0.2,0-0.2c0-0.1,0-0.1,0-0.2c0-0.2-0.1-0.4-0.1-0.5
	c-0.1-0.2-0.3-0.4-0.5-0.5l-0.2-0.1h-0.3c-0.2,0-0.4,0.1-0.6,0.2c-0.1,0-0.1,0.1-0.2,0.2c-0.1,0.1-0.1,0.1-0.1,0.2
	c0,0.1-0.1,0.2-0.1,0.2c0,0.1,0,0.3,0,0.4v-0.3v0.1v-0.3c0,0.1,0,0.3,0,0.4v-0.3c0,0,0,0.1,0,0.1l0.1-0.2c0,0,0,0.1-0.1,0.1l0.2-0.2
	c0,0-0.1,0.1-0.1,0.1l0.2-0.2l-0.1,0.1l0.2-0.1h-0.1h0.3c0,0-0.1,0-0.1,0h0.3h-0.1l0.2,0.1c-0.1,0-0.1,0-0.1-0.1l0.2,0.2l-0.1-0.1
	l0.2,0.2c0-0.1-0.1-0.1-0.1-0.2l0.1,0.2c0-0.1-0.1-0.2-0.1-0.3v0.3c0-0.1,0-0.2,0-0.4v0.3c0-0.1,0-0.2,0.1-0.3l-0.1,0.2
	c0-0.1,0.1-0.1,0.1-0.2l-0.1,0.2c0,0,0.1-0.1,0.1-0.1l-0.2,0.1l0.1-0.1l-0.2,0.1l0.1,0h-0.2l0.4-0.1h-0.2h0.2h-0.2h0.1l-0.2-0.1
	c0.3,0.1,0.6,0.1,0.8-0.1c0.1-0.1,0.2-0.2,0.2-0.3c0.1-0.2,0.1-0.3,0-0.5L498.9,549.8z"/>
<path d="M472.5,562.3h0.1H472.5h0.3h-0.2c0.1,0,0.3,0.1,0.4,0.1l-0.2-0.1c0.2,0.1,0.3,0.1,0.4,0.2l-0.2-0.1c0.2,0.1,0.3,0.3,0.5,0.5
	l-0.1-0.2c0.2,0.2,0.3,0.5,0.5,0.8l-0.1-0.2c0,0.1,0,0.1,0,0.2v-0.2c0,0,0,0.1,0,0.1v-0.2c0,0,0,0.1,0,0.1l0.1-0.2v0l0.1-0.2
	l-0.1,0.1l0.2-0.1h-0.1l0.2-0.1h0h0.2h-0.1h0.2l0.2,0.1l0.2,0.1l0.1,0.2l0.1,0.2c0,0,0,0,0,0v0.2v-0.1v0.2c0,0,0,0,0-0.1l-0.1,0.2
	l0-0.1l-0.1,0.2l0,0L475,564h0.1l-0.2,0.1c0.2,0,0.3-0.1,0.5-0.2c0.3-0.2,0.4-0.5,0.4-0.8c0-0.3-0.3-0.6-0.6-0.7
	c-0.2-0.1-0.4-0.1-0.6,0c-0.2,0.1-0.4,0.2-0.5,0.3c-0.3,0.3-0.4,0.7-0.3,1.1c0.1,0.5,0.5,0.8,1,0.8c0.5,0,0.9-0.3,1-0.8
	c0.1-0.7-0.1-1.4-0.7-1.8c-0.3-0.4-0.6-0.6-1-0.8c-0.5-0.3-1.2-0.3-1.8-0.2c-0.4,0.1-0.6,0.5-0.5,0.8
	C471.9,562.2,472.2,562.4,472.5,562.3L472.5,562.3z"/>
<path class="st5" d="M555.3,612.4c-7.7-6.3-18.6-5.9-28.5-4.8c-20.6,2.2-41,5.8-61.1,10.8l-24.3,10.9c-8.2,6.1-12.7,16.3-14,26.5
	s0,20.5,1.3,30.7s2.5,20.6,0.8,30.7c-0.8,4.7-2.1,9.2-3.9,13.6c-0.6,1.2-0.8,2.6-0.7,4h122.7c0.6-1.3,1.1-2.6,1.3-4
	c0.6-4-0.6-8,0.1-12c0.5-2.5,1.4-4.9,2.6-7.1c5-10.5,9.8-21.3,12.7-32.6c3.9-15.5,4.3-31.6,1-47.2
	C563.6,624.6,561,617.1,555.3,612.4L555.3,612.4z"/>
<path class="st5" d="M556,611.7c-6.2-5-14.2-6-21.8-5.7c-9.1,0.3-18.3,1.8-27.3,3.1c-9.6,1.4-19.1,3.2-28.6,5.3
	c-2.5,0.5-4.9,1.1-7.3,1.7c-1.9,0.3-3.8,0.8-5.7,1.4c-0.9,0.3-1.7,0.8-2.6,1.2l-12.5,5.6l-5.9,2.7c-1,0.5-2.2,0.9-3.2,1.4
	c-2.5,1.4-4.6,4-6.4,6.2c-2.4,3.1-4.2,6.6-5.6,10.3c-3.1,8.3-3.5,17.3-3,26c0.6,9.8,2.4,19.5,3,29.3c0.4,4.9,0.3,9.8-0.3,14.6
	c-0.6,4.8-1.8,9.5-3.5,14c-0.7,1.9-1.7,3.9-1.4,6c0,0.6,0.4,1,1,1h117.6c1.6,0,3.2,0.1,4.8,0h0.2c0.3,0,0.7-0.2,0.8-0.5
	c1.9-4,1.6-7.8,1.4-12.1c-0.2-2.2,0.1-4.4,0.7-6.5c0.8-2.1,1.7-4.2,2.7-6.2c3.8-7.8,7.2-15.9,9.9-24.2c5.5-16.9,6.6-34.9,3.4-52.3
	C565,625.9,562.6,617.2,556,611.7c-1-0.8-2.3,0.6-1.4,1.4c5.7,4.8,8.1,12,9.6,19.1c3.6,17,2.8,34.7-2.2,51.3
	c-2.6,8.2-5.7,16.2-9.4,23.9c-1.9,4.1-4.4,8.2-4.7,12.8c-0.3,4.8,1.1,9.5-1.1,14.1l0.8-0.5H429.9c-1.6-0.1-3.2-0.1-4.8,0h-0.2l1,1
	c-0.3-2.2,1-4.4,1.7-6.4s1.4-4.3,2-6.6c1.1-4.5,1.7-9.1,1.8-13.7c0.2-9.5-1.3-18.8-2.4-28.2c-1.9-16.3-2.3-35.7,10.7-47.9
	c1-1,2.3-1.9,3.6-2.5l4.6-2l12.8-5.8l4.5-2c1.7-0.7,3.6-1.2,5.4-1.5c9.2-2.2,18.5-4.1,27.8-5.7c9.5-1.6,19-3,28.6-4
	c7.5-0.8,15.7-1.4,22.9,1.6c1.8,0.7,3.4,1.7,4.9,2.9C555.6,613.8,557,612.5,556,611.7L556,611.7z"/>
<path class="st2" d="M449.9,260.9c-3,9.3,3.8,20.2-0.5,29c-0.5,0.8-0.8,1.7-0.9,2.6c-0.1,1.9,1.5,3,3.4,3.5c3.6,1.1,4.4,5.8,5.5,8.9
	c1.1,3.3,2,6.7,3.4,9.9c1.2,2.7,3,5.4,5.7,6.6c2.2,0.9,4.7,1.1,7,0.4c3.5-0.8,6.5-2.8,9.9-3.7c1.2-0.3,2.5-0.6,3.5,0
	c0.7,0.5,1.2,1.1,1.5,1.8c2.3,3.9,4.5,7.8,6.7,11.8c0.5,1.1,1.2,2,2.2,2.6c1.3,0.7,2.9,0.2,4.3-0.3c10.7-4,19.3-12.1,24-22.5
	c0.5-0.9,0.7-1.9,0.5-2.9c-0.4-0.9-1.1-1.7-2-2.2c-7.4-5.7-13.3-13.1-17.2-21.6c-6.3-13.3-3.8-32.9-17.1-42.4
	c-3.2-2.3-7-3.5-10.9-3.6c-6.5,0-12.9,2-18.4,5.7c-4.8,3.2-10.7,8.6-10.3,15"/>
<path d="M449.2,260.7c-1.4,4.5-0.8,9.2-0.1,13.8s1.6,9.6-0.2,14.1c-0.8,2-2.2,3.8-0.9,5.9c1.1,1.9,3.3,1.9,4.9,3.1s2.2,3.2,2.7,5
	c0.7,2.2,1.4,4.4,2.1,6.6c1.5,4.5,3,9.8,7.3,12.5c4.5,2.8,9.8,1,14.2-1c1.2-0.6,2.5-1.1,3.8-1.5c1.2-0.4,2.9-1,3.9,0.2
	c0.8,1.1,1.5,2.2,2.1,3.4c0.7,1.3,1.5,2.5,2.2,3.8c1.3,2.4,2.5,5.1,4.2,7.2c1.5,1.9,3.7,2.1,5.9,1.4c8.7-2.6,16.5-9.1,21.6-16.5
	c1.3-1.9,2.5-4,3.5-6.1c1-2,1.7-4.2,0-6c-0.8-0.8-1.7-1.5-2.6-2.1c-1.1-0.9-2.1-1.8-3.1-2.7c-1.8-1.7-3.5-3.5-5-5.4
	c-3.2-3.9-5.8-8.3-7.9-12.9c-1.5-3.6-2.6-7.4-3.4-11.3c-1.7-7.8-2.8-16.1-6.9-23.1c-2-3.6-4.9-6.6-8.5-8.7
	c-4.5-2.4-9.6-3.3-14.6-2.4c-5.1,0.8-10,2.8-14.3,5.7c-3.6,2.4-7.2,5.6-9.1,9.6c-0.9,1.9-1.3,3.9-1.2,6c0.1,1,1.6,1,1.6,0
	c-0.1-4.5,2.9-8.3,6-11.1c3.5-3.2,7.7-5.6,12.2-7.1c4.7-1.6,10-2.2,14.8-0.7c4.1,1.3,7.7,4,10.1,7.6c4.4,6.2,5.7,13.9,7.1,21.2
	c0.7,3.7,1.5,7.3,2.6,10.9c1.3,3.9,3.1,7.7,5.4,11.2c2.5,4,5.4,7.7,8.7,11c1.6,1.6,3.3,3.1,5.2,4.5c0.8,0.6,2,1.3,1.9,2.4
	c-0.2,1.3-0.8,2.5-1.5,3.6c-4.1,7.9-10.5,14.3-18.5,18.2c-1.9,0.9-4.3,2.3-6.4,2.3c-1.1-0.1-2.1-0.8-2.5-1.9c-0.7-1.2-1.3-2.4-2-3.6
	c-1.3-2.4-2.7-4.8-4.1-7.1c-1-1.8-2-4-4.3-4.3s-4.7,0.9-6.7,1.7c-2.3,1.2-4.7,2-7.2,2.5c-2.5,0.5-5-0.2-7-1.8
	c-1.6-1.6-2.9-3.5-3.6-5.6c-1.7-4.3-2.8-8.8-4.4-13c-0.5-1.6-1.4-3.1-2.7-4.3c-0.6-0.5-1.4-1-2.1-1.2c-1-0.4-2.2-0.7-2.6-1.7
	s0.4-2.3,0.8-3.2c0.4-0.9,0.7-1.9,1-2.9c0.4-2.1,0.5-4.2,0.3-6.4c-0.4-4.4-1.5-8.7-1.8-13.1c-0.2-2.2,0.1-4.4,0.7-6.5
	c0.1-0.4-0.1-0.8-0.5-0.9C449.7,260.1,449.2,260.3,449.2,260.7L449.2,260.7L449.2,260.7z"/>
<path d="M459.2,281.2l0.1-0.1L459.2,281.2C459.1,281.2,459.2,281.2,459.2,281.2l-0.2,0.1C459.1,281.2,459.1,281.2,459.2,281.2
	l-0.3,0.1C459,281.3,459.1,281.2,459.2,281.2h0.1l-0.2,0.1L459.2,281.2l-0.2,0.1L459.2,281.2l-0.3,0.1c0.1,0,0.1,0,0.2,0.1l-0.2-0.1
	l0.2,0.1l-0.2-0.1c0.1,0.1,0.1,0.1,0.2,0.2l-0.1-0.2c0.1,0.1,0.1,0.2,0.2,0.3l-0.1-0.2c0,0.1,0.1,0.2,0.1,0.3L459.2,281.2
	c-0.1,0.2-0.1,0.2-0.1,0.3L459.2,281.2c-0.1,0.1-0.1,0.2-0.1,0.2L459.2,281.2c-0.1,0-0.1,0.1-0.1,0.1l0.2-0.2L459.2,281.2l0.2-0.2
	l-0.1,0.1l0.2-0.1c0,0-0.1,0-0.1,0h0.3h-0.2h0.3c0,0-0.1,0-0.1,0l0.2,0.1c0,0-0.1,0-0.1-0.1l0.2,0.2l-0.1-0.1
	c-0.1-0.1-0.2-0.1-0.3-0.2l0.2,0.2l0,0l0.1,0.2l-0.1-0.2l-0.2-0.1l-0.2-0.1c-0.1,0-0.3,0-0.4,0c-0.1,0-0.2,0-0.2,0.1
	c-0.1,0-0.2,0.1-0.2,0.1c-0.1,0-0.1,0.1-0.2,0.2c-0.1,0.1-0.2,0.2-0.2,0.3c0,0.1-0.1,0.3,0,0.4c0,0.2,0.1,0.4,0.1,0.6
	c0.1,0.1,0.1,0.2,0.2,0.3c0.2,0.1,0.4,0.3,0.6,0.3c0.1,0.1,0.3,0.1,0.4,0.1c0.3,0,0.6,0,0.8-0.2c0.1-0.1,0.2-0.1,0.3-0.2
	c0.1-0.1,0.2-0.2,0.3-0.3c0.3-0.6,0.3-1.3-0.1-1.9c-0.3-0.6-0.9-1-1.6-1c-0.4,0-0.8,0.2-1.1,0.4c-0.3,0.3-0.4,0.8-0.3,1.2
	c0.1,0.4,0.5,0.6,0.9,0.5c0.2-0.1,0.3-0.2,0.4-0.3L459.2,281.2z"/>
<path d="M455.5,276.6c0.1,0,0.3,0,0.4,0c0.1,0,0.3-0.1,0.4-0.2c0,0.1-0.2,0.1,0,0l0.2-0.1h0.2c0.1,0,0.1,0,0,0c-0.1,0-0.2,0-0.3,0
	c0.3,0.1,0.6,0.1,0.8,0h0.2l-0.4,0.1c0.6-0.1,1.2-0.1,1.8-0.1l-0.5-0.1h0.1c0.9,0.3,1.9-0.3,2.1-1.2c0.3-0.9-0.3-1.9-1.2-2.1
	c-0.1,0-0.3-0.1-0.4-0.1c-0.7,0-1.3,0.1-1.9,0.3c-0.5,0.1-1,0.3-1.5,0.4c-0.4,0.1-0.8,0.4-1.1,0.8c-0.5,0.9-0.2,1.9,0.7,2.4
	c0.4,0.2,0.9,0.3,1.3,0.2c0.9-0.3,1.8-0.5,2.8-0.6l-0.5,0.1c0.3-0.1,0.7-0.1,1-0.1h1l-1.3-3l-0.3,0.3c-0.5,0.5-0.6,1.2-0.3,1.8
	c0.2,0.6,0.8,1,1.5,1h0.4c0.5,0,0.9-0.2,1.3-0.5c0.3-0.3,0.5-0.8,0.5-1.3c0-0.5-0.2-0.9-0.5-1.3c-0.3-0.3-0.8-0.5-1.3-0.5
	c-0.4,0-0.9,0-1.3,0.1c-0.5,0-1.1,0.1-1.6,0.2c-0.8,0.1-1.7,0.3-2.5,0.5l1,3.4c0.8-0.3,1.6-0.5,2.5-0.6l-0.5,0.1
	c0.3,0,0.6-0.1,1-0.1l-1.4-3.2h-0.1l0.4-0.2c-0.7,0.2-1.5,0.4-2.1,0.8c-0.3,0.2-0.6,0.5-0.9,0.8c-0.4,0.3-0.6,0.8-0.7,1.3
	C454.5,276.2,454.9,276.6,455.5,276.6L455.5,276.6z"/>
<path d="M485.6,272.6c-0.5,0.2-0.9,0.6-1.1,1c-0.3,0.5-0.4,1-0.4,1.5c0,0.3,0,0.6,0.1,0.9c0,0.3,0.2,0.6,0.4,0.8
	c0.4,0.4,1,0.5,1.5,0.1c0.4-0.4,0.5-1,0.1-1.5c-0.2-0.2-0.4-0.3-0.6-0.3c-0.5-0.1-1.1,0.1-1.4,0.5c-0.2,0.3-0.1,0.6,0.1,0.9
	c0.2,0.3,0.5,0.4,0.9,0.3c0.1,0,0.2-0.1,0.3-0.1c0.2-0.1-0.1,0,0,0h-0.2h0.1H485c0.1,0-0.1-0.1-0.1-0.1c-0.1-0.1-0.2-0.2-0.2-0.3
	v-0.2v-0.2c0-0.1,0.1-0.3,0.2-0.3c0,0,0.1-0.1,0.1-0.1c0.1,0,0.1,0,0,0h0.2h-0.1h0.2h-0.1c0.1,0,0.2,0.1,0.2,0.1
	c0.1,0.1,0.1,0.1,0,0.1c0,0.1,0.1,0.2,0,0.1c0-0.1-0.1-0.2-0.1-0.4v0.2l-0.1-0.4v0.2c0-0.2,0-0.4,0-0.6c0,0,0-0.1,0-0.1v0.1
	c0-0.1,0-0.1,0-0.2c0-0.1,0-0.2,0.1-0.3c0-0.1-0.1,0.2,0,0l0.1-0.1c0,0,0-0.1,0.1-0.1c0.1-0.1-0.1,0.1,0,0c0.1-0.1,0.1-0.1,0.2-0.2
	c0,0,0,0-0.1,0l0.1-0.1c0.3-0.2,0.4-0.6,0.2-1c-0.2-0.2-0.4-0.4-0.7-0.3L485.6,272.6z"/>
<path d="M212.1,370.6c0.3-3.1-2-5.9-5.1-6.2s-5.9,2-6.2,5.1c0,0.2,0,0.5,0,0.7c0,2.6,1.8,4.8,2.4,7.2c1.3,4.5-1.2,9.4-4.6,12.7
	s-7.6,5.5-11.3,8.5c-4.7,3.8-8.4,8.7-10.7,14.3c-1.7,4.1-2.6,8.5-4.3,12.6s-4.2,8.1-8.2,10.2c-6.6,3.4-14.9,0.4-21.8,2.9
	c-8.2,2.9-12.6,12.6-21,15c-7,2-14.6-2.1-19-8c-7-9.7-7.3-22.8-0.6-32.7c4.9-7,12.6-11.4,19.3-16.7c2-1.6,4.1-3.4,5.1-5.8
	c1.7-4.1-0.2-8.8,0-13.2c0.3-5.2,3.3-10,8-12.3c3.9-1.9,8.4-2,12.7-2.4c10.5-0.9,21.1-4,29.3-10.6c3.4-2.7,6.4-6,9.7-8.8
	c4.9-4.1,10.6-7.3,16.7-9.3c2.9-1.1,6.1-1.5,9.2-1.2c1.1,0.1,2.2,0.4,3.3,0.6s2.3,0.1,3.4,0.1c14,0.3,26.5,8.8,32,21.6
	c0.5,1.3,0.9,2.9,0,3.9c-0.6,0.6-1.4,0.9-2.3,1c-7.5,0.9-14.8-2.7-18.6-9.3c-0.1,5.7-3,10.9-7.7,14c-3.3,2-7.3,3-9.8,6"/>
<path d="M212.8,370.6c0.2-2.8-1.4-5.5-4-6.6c-2.6-1-5.7-0.2-7.4,2.1c-2.2,2.7-1.5,5.7-0.2,8.6c0.9,1.6,1.4,3.4,1.5,5.2
	c0,1.8-0.5,3.5-1.4,5.1c-3.5,6.6-11.1,9.4-16.4,14.2c-5.6,5-9,11.4-11.2,18.5c-2,6.5-4.2,14.7-11.3,17.3c-6.8,2.5-14.3-0.2-21.1,2.6
	c-5.6,2.3-9.3,7.2-13.8,11c-2.2,2-4.9,3.4-7.8,4c-3.3,0.5-6.7-0.2-9.6-1.9c-11.8-6.5-15-22.9-9.1-34.4c3.3-6.4,9.2-10.7,14.8-14.9
	c2.9-1.9,5.6-4.1,8.2-6.4c2.6-2.4,4-5.8,3.9-9.3c-0.1-3.8-1.3-7.5-0.3-11.3c0.8-3.2,2.7-5.9,5.4-7.8c3.1-2.1,6.9-2.6,10.6-2.9
	c3.7-0.2,7.3-0.7,10.9-1.4c7.2-1.3,14.1-4.1,20.2-8.3c6.3-4.4,11.1-10.5,17.6-14.6c3.2-2,6.6-3.6,10.2-4.8c2-0.7,4-1.2,6.1-1.4
	c2.2-0.1,4.2,0.4,6.3,0.6c1.9,0.2,3.7,0,5.6,0.2c1.6,0.1,3.2,0.4,4.7,0.7c9.4,2.2,17.5,8.2,22.3,16.6c0.9,1.4,1.6,3,2.1,4.6
	c0.5,2.2-1.9,2.2-3.5,2.2c-3.2,0.1-6.3-0.7-9.1-2.3c-2.7-1.5-5-3.8-6.5-6.5c-0.4-0.6-1.1-0.8-1.7-0.4c-0.4,0.2-0.6,0.6-0.6,1
	c-0.1,4.7-2.2,9.1-5.7,12.2c-3.4,2.9-8.1,3.8-11.2,7.2c-0.7,0.8,0.5,2,1.2,1.2c1.6-1.9,3.9-2.9,6.2-3.9c2.2-0.9,4.3-2.2,6.2-3.7
	c3.7-3.3,5.8-8,5.8-12.9l-2.3,0.6c3.3,5.7,9.3,9.5,15.9,10c2.8,0.2,7.4,0.2,7.8-3.5c0-1.7-0.4-3.3-1.3-4.7c-0.7-1.5-1.6-3-2.5-4.4
	c-3.7-5.4-8.7-9.8-14.6-12.7c-3-1.5-6.2-2.5-9.4-3.1c-3.7-0.7-7.4-0.3-11.1-1c-4.1-0.8-8.1,0-12.1,1.4c-3.7,1.3-7.2,3-10.5,5.1
	c-3.3,2.1-6.3,4.6-9.1,7.3c-2.8,2.9-5.9,5.5-9.2,7.8c-6.5,4.1-13.9,6.7-21.6,7.7c-7.2,1.1-15.5,0.2-21.2,5.8c-2.4,2.3-4,5.3-4.6,8.5
	c-0.7,4,0.6,7.8,0.4,11.7s-2.9,6.6-5.9,9s-6,4.4-9,6.6c-5.7,4.3-10.7,9.3-13.3,16.2c-2.3,6.4-2.4,13.3-0.3,19.8
	c2.1,6.4,6.5,12.3,12.7,15.2c5.8,3.1,12.9,2.4,18-1.9c4.8-3.7,8.6-9.3,14.4-11.6c7-2.8,14.9,0.2,21.9-2.9s9.6-10.9,11.6-17.6
	c1-3.8,2.5-7.5,4.5-11c1.9-3.2,4.4-6.1,7.2-8.5c5.6-4.8,13.1-7.9,16.1-15.2c1.4-3.1,1.3-6.7-0.2-9.8c-0.8-1.8-1.9-3.6-1.6-5.6
	c0.3-1.7,1.4-3.1,3-3.8c3.4-1.5,6.9,1.5,6.8,5C211.5,371.5,212.8,371.5,212.8,370.6L212.8,370.6z"/>
<path class="st4" d="M454.5,296.9c-2.2,7.3-4.4,14.8-4.1,22.4c0.1,3.5,0.9,7.2,3.2,9.9c7.7,9,25.4,9.8,33.1,0.1
	c1.6-2.2,2.7-4.7,3.3-7.4c1.1-4.5,1.3-9.2,0.4-13.8c-0.7-3-1.5-6-2.6-8.9l-4.7-13.1c-1.2-2.9-2-6-2.4-9.2c-0.4-3.2,0.5-6.4,2.5-8.9
	c1.1-1.3,2.8-2.3,4.4-1.9c2,0.4,3.1,2.6,3.2,4.7s-0.7,4-1,6c-0.1,0.5-0.1,0.9,0,1.4c0.3,0.6,0.7,1,1.3,1.3l6.1,3.8
	c1.5,1,3.1,1.8,4.9,2.3c1.8,0.5,3.7,0,5-1.3c1.2-1.4,1.4-3.4,1.5-5.2c0.2-6.4,0.4-12.8-0.6-19.1c-1.8-10.7-4-17-14.2-21.3
	c-2.6-1.1-6.8-3.6-9.7-3.4c-3.1,0.2-7.9-0.3-10.5,0.8c-0.8,0.3-1.6,0.4-2.5,0.3c-11.9,0.1-22.9,6.5-28.9,16.7
	c-0.5,0.7-0.7,1.5-0.6,2.4c0.3,0.9,1.1,1.6,2,1.9c3.6,1.6,7.7,1.9,11.5,0.6c-1.6-0.1-2.3,2.3-1.4,3.5s2.7,1.6,4.3,1.6
	c4.9,0,9.6-1.8,13.1-5.1c-1,2.2-1,4.8,0.1,7c0.6,1.2,1.5,2.2,2.2,3.3c1.8,2.8,2.2,6.2,2.7,9.4c0.5,3.9,0,13.9-2.9,16.5
	s-8.7-1.4-12.4-0.5c-3.3,0.8-4,0.6-5.7,3.5"/>
<path class="st4" d="M453.8,296.8c-2,6-3.9,12-4.4,18.3c-0.4,5.3,0,11.1,3.7,15.2c5.4,6,14.4,8,22.1,6.7c3.9-0.6,7.6-2.4,10.6-5.1
	c4-3.7,5.5-9.2,6-14.4c0.6-6.1-0.7-11.8-2.8-17.5c-2.2-6.1-4.7-12.1-6.5-18.3c-1-2.8-1.2-5.7-0.7-8.6c0.5-2.4,2.2-6,5.1-6.1
	c3.4,0,3.1,4.7,2.6,6.9c-0.5,1.3-0.7,2.7-0.8,4.1c0.2,1.1,0.9,2,1.9,2.5c2.6,1.7,5.2,3.5,7.9,5c2.1,1.2,4.5,2,6.9,1.3
	c2.2-0.7,3.8-2.6,4-4.9c0.4-2.9,0.5-5.8,0.4-8.8c0.1-5.7-0.4-11.5-1.6-17.1c-0.8-3.7-1.9-7.5-4.1-10.6c-2.5-3.2-5.8-5.7-9.5-7.2
	c-2.1-0.9-4.1-2-6.2-2.8c-1-0.4-2.1-0.7-3.1-0.8c-1.1-0.1-2.2-0.1-3.3,0c-2.4-0.1-4.9,0-7.3,0.4c-1.1,0.4-2.3,0.6-3.5,0.7
	c-1.3,0-2.6,0.1-4,0.2c-4.8,0.6-9.4,2.2-13.6,4.6c-4.3,2.5-8,5.8-10.9,9.9c-1.2,1.7-3.4,4.3-2,6.5c1.2,1.9,4.4,2.6,6.5,3
	c2.6,0.4,5.3,0.2,7.8-0.6c1-0.3,0.9-2-0.3-1.9c-1.7,0.2-3,1.7-2.8,3.4c0,0.2,0,0.4,0.1,0.5c0.5,2.2,2.9,3,4.9,3.2
	c5.4,0.2,10.6-1.7,14.5-5.4l-1.4-1.1c-1,2.1-1.1,4.4-0.4,6.6c0.8,2.5,2.9,4.3,3.8,6.7c1.3,3.8,1.9,7.8,1.6,11.9
	c-0.1,3.2-0.3,7.3-2.1,10.1c-1,1.5-2.6,1.4-4.2,1.1c-1.9-0.4-3.6-1-5.5-1.2c-1.9-0.2-3.8,0-5.6,0.7c-1.6,0.6-2.9,1.8-3.6,3.3
	c-0.7,1.1,1,2.1,1.7,1c0.6-1.3,1.8-2.3,3.2-2.6c1.8-0.5,3.6-0.5,5.4-0.1c2.9,0.7,7.1,2.2,9.5-0.5c2.1-2.4,2.5-6.2,2.8-9.2
	c0.3-3.5,0.2-7.1-0.4-10.6c-0.4-2.8-1.4-5.4-3-7.8c-1-1.1-1.7-2.5-2.2-3.9c-0.4-1.5-0.2-3.2,0.5-4.6c0.3-0.4,0.1-1-0.3-1.2
	c-0.4-0.2-0.8-0.1-1.1,0.1c-2.7,2.4-6,4-9.6,4.5c-1.7,0.4-3.4,0.3-5-0.1c-0.7-0.2-1.3-0.7-1.6-1.3c-0.1-0.6,0.1-1.5,0.8-1.5
	l-0.3-1.9c-2.6,0.9-5.3,1-8,0.4c-1.2-0.2-2.3-0.6-3.4-1.2c-1.6-1-0.4-2.6,0.4-3.9c2.5-3.9,5.8-7.2,9.7-9.6c3.9-2.5,8.3-4.2,12.9-4.9
	c1.1-0.2,2.2-0.3,3.3-0.3c1.3,0.1,2.6,0,3.8-0.2c0.9-0.3,1.8-0.6,2.8-0.7c1.2-0.1,2.4-0.2,3.6-0.1c2,0,4.3-0.3,6.2,0.2
	c2.2,0.7,4.3,1.5,6.3,2.6c3.5,1.6,6.9,3.2,9.4,6.2c2.1,2.7,3.5,5.9,4.2,9.2c1.2,5,1.8,10.2,1.9,15.4c0,2.9,0,5.8-0.1,8.6
	c-0.1,2.3-0.1,5.1-2.8,5.8s-5-1-7.1-2.2l-3.5-2.1c-1-0.6-3.3-1.5-3.4-2.8s0.7-2.8,0.9-4.1c0.3-1.2,0.3-2.4,0-3.6
	c-0.3-1.9-1.6-3.5-3.4-4.2c-4.7-1.4-7.7,4.6-8.2,8.3c-0.7,5.4,1.5,10.5,3.2,15.5c1.9,5.5,4.1,11.1,5.6,16.7c1.5,5.6,1.4,11.5-0.2,17
	c-1.1,4.2-4,7.7-7.8,9.8c-6.6,3.5-15.3,3.2-21.7-0.4c-3.9-2-6.6-5.6-7.4-9.9c-1-5.6-0.1-11.6,1.2-17c0.7-2.8,1.4-5.6,2.1-8.4
	c0.1-0.4-0.2-0.7-0.6-0.8c-0.3-0.1-0.6,0.1-0.7,0.4L453.8,296.8z"/>
<path d="M199.2,409c4.2,3,8.7,5.6,13.5,7.6c1,0.4,1.7-1.2,0.7-1.7c-2.2-1.2-4.5-2.3-6.8-3.5s-4.5-2.3-6.8-3.6
	c-0.3-0.2-0.7-0.1-0.9,0.2C198.8,408.4,198.9,408.8,199.2,409L199.2,409z"/>
<path d="M229.9,369c0.1-0.1,0.2-0.2,0.3-0.2l0.4-0.1h0.1h0.1c0.6-0.1,1.1-0.1,1.7,0h0.4h0.2c0,0,0.2,0,0.1,0h0.1h0.2l0.4,0.1
	l0.4,0.1c-0.2-0.1,0.1,0.1,0.2,0.1c0.1,0.1,0.3,0.1,0.4,0.2c0.1,0.1-0.1-0.1,0,0l0.2,0.2c0.4,0.4,1.1,0.4,1.5,0
	c0.4-0.4,0.4-1.1,0-1.5c0,0,0,0,0,0c-1.2-1-2.7-1.5-4.2-1.4c-0.7,0-1.4,0.1-2.1,0.3c-0.7,0.2-1.4,0.6-1.8,1.2
	c-0.2,0.4,0,0.9,0.4,1.1C229.2,369.4,229.7,369.2,229.9,369L229.9,369z"/>
<path d="M232,393.6l-2.4-1.4c-0.7-0.5-1.5-0.8-2.3-0.8c-1.2,0.1-2.2,0.9-2.6,2c-0.3,1.1-0.3,2.4,0,3.5c0.2,1,0.6,1.9,1.2,2.7
	c0.6,0.8,1.5,1.3,2.4,1.5c0.4,0.1,0.9,0,1.3-0.2c0.3-0.2,0.6-0.6,0.7-0.9c0.4-0.9,0.7-1.9,0.9-2.9l0.7-3.2c0.1,0,0.3,0,0.3,0.1"/>
<path d="M232.3,393c-0.9-0.6-1.9-1.2-2.9-1.8c-0.9-0.6-1.9-0.8-2.9-0.6c-2,0.4-3,2.5-3.1,4.5c-0.1,2.1,0.7,4.1,2,5.7
	c1.3,1.4,3.9,2.2,5.3,0.6c0.7-1,1.1-2.1,1.3-3.3c0.3-1.3,0.5-2.5,0.7-3.8l-0.7,0.7h0.1h-0.5l-0.3-0.3l0.1,0.1c0.7,1,2.3,0.1,1.6-1
	c-0.2-0.4-0.7-0.7-1.1-0.6c-0.4,0-0.8,0.3-0.9,0.7c-0.4,1.7-0.6,3.4-1.2,5c-0.2,0.5-0.4,1.3-1,1.4c-0.6,0-1.1-0.2-1.5-0.5
	c-1-1-1.6-2.3-1.8-3.8c-0.2-1.2,0.1-2.8,1.4-3.4c0.7-0.2,1.4-0.1,1.9,0.3c0.9,0.5,1.8,1,2.8,1.4c0.3,0.2,0.8,0.1,1-0.3
	S232.6,393.1,232.3,393L232.3,393z"/>
<path d="M462.1,302.7c0.2-0.1,0.5-0.2,0.7-0.4c0.2-0.1,0.4-0.3,0.6-0.5c0.3-0.3,0.6-0.6,0.9-0.9c0.6-0.7,1.1-1.4,1.5-2.3
	c0.3-0.5,0.1-1.1-0.3-1.4c0,0-0.1,0-0.1-0.1c-0.2-0.1-0.5-0.1-0.8,0c-0.3,0.1-0.5,0.4-0.6,0.7l-0.1,0.1c0,0.1,0.1-0.2,0,0l-0.1,0.3
	c-0.1,0.2-0.2,0.4-0.3,0.5c-0.2,0.4-0.4,0.7-0.6,1c-0.1,0.1-0.1,0.1-0.2,0.2s0,0.1,0,0l-0.1,0.1c-0.1,0.2-0.3,0.3-0.4,0.4
	c-0.3,0.3-0.6,0.6-0.9,0.9c-0.2,0.2-0.3,0.6-0.1,0.9C461.4,302.7,461.8,302.9,462.1,302.7L462.1,302.7z"/>
<g>
	<path class="st8" d="M483.5,532.5c1.8,0.5,2.3,3,1.4,4.6s-2.6,2.5-4.3,3.2c2-0.9,4.3,1.5,4.1,3.7s-2,3.9-4,4.9
		c-0.5,0.2-0.9,0.6-1.2,1c-0.2,0.4-0.3,0.9-0.2,1.4l0.1,8.8c-1.5-3.6-5.6-5.4-9.3-3.9c-0.1,0-0.1,0.1-0.2,0.1
		c-3.5,1.9-5,6.2-3.3,9.9c1.9,3.5,6,5.2,9.8,3.9c-0.7,8.4-4,16.4-9.3,23c-0.7,0.4-1.5,0.7-2.3,0.9c-0.2,0-0.2,0.1-0.4,0
		c-4.6-3.3-7.6-7.3-12.2-10.6c-4-2.9-8.3-6.5-8.4-11.4c-0.5,1.9-2.3,3.1-4.3,2.9c-1.9-0.4-3.5-1.7-4.2-3.5c-0.7-1.8-0.9-3.7-0.6-5.6
		c0.2-1.5,0.7-3.3,2.1-3.9c-2,0.7-4.4-0.9-4.9-3c-0.4-2.2,0.2-4.4,1.7-6c1.5-1.6,3.2-2.9,5.1-3.8c-1.4,0.6-3.1,1.1-4.5,0.4
		c-2.2-1.2-2-4.5-0.6-6.6c2.3-3.4,6.3-5.3,10.4-4.8c-0.8,0.1-1.7,0-2.4-0.3c-0.7-0.4-1-1.3-0.7-2c0,0,0-0.1,0.1-0.1
		c0.3-0.3,0.8-0.5,1.3-0.6c1.8-0.3,3.7-0.3,5.6,0.2c0.9-7.2,4.1-14,9.1-19.4c1.6-1.7,3.6-3.2,5.9-3.3s4.7,2.2,3.9,4.4
		c2.5-3.8,5.4-7.5,9.4-9.7s9.1-2.8,13-0.4c0.9,0.5,1.6,1.3,2.1,2.2c1,2.3-0.7,4.8-2.3,6.8c3.3-1.7,7-2.3,10.6-1.8
		c1.1,0.1,2.2,0.5,3,1.2c1.2,1.2,0.9,3.4-0.1,4.8c-1.1,1.3-2.6,2.3-4.2,3c2.2,0.1,4.6,1.7,4.5,3.9c-0.2,2.4-3.1,3.5-5.5,4
		c-5,0.9-10,1.3-15,1.3"/>
	<path class="st8" d="M483.4,533.1c1.3,0.5,1.4,2.4,0.8,3.5c-0.8,1.4-2.4,2.1-3.8,2.7c-1.2,0.5-0.7,2.4,0.5,2c2-0.6,3.1,1.9,2.5,3.5
		c-0.7,1.8-2.3,2.6-3.8,3.5s-1.5,2.7-1.4,4.5l0.1,7.3l2-0.3c-1.2-3.1-4.1-5.1-7.4-5.2c-3.4-0.1-6.4,2-7.5,5.2
		c-1.2,3.1-0.5,6.6,1.8,9c2.5,2.4,6.1,3.3,9.4,2.2l-1.4-1c-0.7,7.8-3.6,15.2-8.4,21.4c-0.3,0.5-0.8,0.9-1.3,1.1
		c-0.3,0.1-0.6,0.2-0.8,0.3c-0.1,0-0.1,0-0.1,0c-0.4,0-0.1-0.1-0.2-0.1c-1.7-1.3-3.2-2.6-4.7-4.1c-1.4-1.3-2.8-2.7-4.2-4
		s-2.9-2.3-4.4-3.4c-3-2.3-6.1-5.2-6.3-9.2c0-1.2-1.9-1.6-2.2-0.3c-0.3,1.3-1.5,2.2-2.9,2.1c-1.5-0.2-2.7-1.1-3.3-2.5
		c-0.7-1.5-0.9-3.2-0.7-4.9c0.1-1.3,0.3-2.9,1.6-3.6c0.5-0.4,0.6-1.1,0.2-1.6c-0.3-0.3-0.7-0.5-1.1-0.4c-2.9,0.8-4.2-2.7-3.4-5
		c1-2.8,3.7-4.4,6.2-5.8c1-0.6,0.3-2.5-0.9-2c-1.4,0.6-3.8,1.5-4.6-0.5c-0.4-1.5-0.1-3,0.8-4.2c2.1-3,5.7-4.6,9.3-4.2v-2.2
		c-0.5,0-1.5,0.2-1.9-0.2c-0.7-0.6,0.9-0.7,1.2-0.7c1.4-0.1,2.8,0,4.1,0.3c0.6,0.2,1.2-0.2,1.4-0.8c0.7-5.4,2.7-10.6,5.7-15.1
		c1.4-2.3,3.3-4.3,5.5-5.8c1.1-0.8,2.4-1,3.7-0.7c1.2,0.3,2,1.5,1.8,2.8c-0.1,0.6,0.2,1.2,0.9,1.4c0.5,0.1,1-0.1,1.2-0.5
		c3.1-4.7,7-9.4,12.7-10.7c2.6-0.7,5.4-0.4,7.8,0.9c1.3,0.8,2.4,1.8,2.1,3.5c-0.4,1.4-1.2,2.8-2.2,3.8c-0.4,0.5-0.4,1.2,0.1,1.6
		c0.4,0.3,0.9,0.4,1.3,0.2c3.2-1.6,7.3-2.5,10.8-1.5c1.2,0.2,2,1.4,1.8,2.6c-0.1,0.3-0.2,0.6-0.3,0.8c-0.8,1.6-2.6,2.4-4.1,3.2
		c-1.1,0.6-0.5,2.1,0.6,2.2c1.5,0.1,4.1,1.4,3.2,3.3c-0.7,1.4-2.8,1.9-4.1,2.2c-4.9,0.9-10,1.4-15,1.3c-0.6,0.1-1.1,0.6-1.1,1.3
		c0.1,0.6,0.5,1,1.1,1.1c3.5,0,7-0.2,10.4-0.7c2.8-0.3,5.8-0.5,8.3-1.8c1.9-1,3.4-3,2.8-5.2s-3.2-3.6-5.5-3.8l0.6,2.2
		c2-1,4.2-2.3,5.1-4.5c0.9-1.9,0.4-4.2-1.2-5.5c-1.8-1.4-4.6-1.4-6.8-1.2c-2.7,0.2-5.3,0.9-7.7,2.1l1.4,1.8c2-2.5,4.2-6,1.9-9
		c-2-2.7-6-3.6-9.1-3.4c-7.5,0.5-12.8,6.2-16.7,12.2l2.1,0.9c0.8-2.9-1.8-5.6-4.7-5.8c-3.3-0.2-6,2.3-8,4.6
		c-4.5,5.3-7.5,11.9-8.4,18.8l1.4-0.8c-1.6-0.4-3.3-0.5-4.9-0.3c-1.2,0.1-2.5,0.3-3.2,1.4c-0.5,1-0.3,2.1,0.4,2.9
		c1,0.9,2.4,1.3,3.7,1c0.6-0.1,1.1-0.6,1-1.2c-0.1-0.5-0.5-1-1-1c-4.7-0.5-10.1,2.1-12,6.6c-0.7,1.8-0.9,4.2,0.4,5.8
		c1.6,2.2,4.5,1.7,6.7,0.8l-0.9-2c-3.4,2-7.2,4.6-7.6,9c-0.2,3.5,2.9,6.8,6.5,5.8l-0.9-2c-1.9,1-2.5,3.1-2.6,5.1
		c-0.4,2.6,0.2,5.2,1.6,7.3c1.2,1.8,3.2,2.8,5.3,2.7c2.1-0.2,3.8-1.6,4.4-3.7l-2.2-0.3c0.1,4,2.6,7.1,5.5,9.6c1.6,1.4,3.4,2.6,5,3.9
		s3.3,3,4.9,4.5c1.6,1.6,3.3,3.1,5.1,4.5c1.2,0.9,2.4,0.4,3.7-0.2c1.5-0.7,2.6-2.7,3.5-4.1c1.2-1.9,2.3-3.8,3.3-5.9
		c2.1-4.5,3.4-9.4,3.9-14.4c0-0.6-0.5-1.1-1.1-1c-0.1,0-0.1,0-0.2,0c-5,1.7-10.5-2.7-8.8-8c0.6-2.4,2.8-4.1,5.2-4.3
		c2.5-0.1,4.9,1.4,5.9,3.7c0.1,0.6,0.6,0.9,1.1,0.9s0.9-0.6,0.9-1.1c0-2.9-0.2-5.9-0.1-8.8c-0.1-0.6,0.2-1.1,0.8-1.3
		c0.5-0.3,1-0.5,1.4-0.9c0.9-0.6,1.6-1.4,2.2-2.2c1.2-1.6,1.3-3.7,0.4-5.5c-0.9-1.7-2.9-2.6-4.8-2l0.8,1.8c2.1-1,4.5-2.4,5-4.8
		c0.5-1.9-0.5-3.9-2.4-4.5c-0.9-0.3-1.2,1-0.4,1.3L483.4,533.1z"/>
	<path class="st8" d="M464.8,590.3c4,6.2,5.5,13.7,6.3,21.1c0.9,8,0.7,17-4.8,22.8c-1.3,1.5-3,2.5-4.9,2.8c-2,0.3-3.9-0.7-4.7-2.5
		c-1.4,6.3-6.9,10.8-12.7,13.7c-3,1.6-6.2,2.5-9.6,2.6c-3.4,0.2-6.7-1.1-9.1-3.5c-2.4-2.5-2.9-6.2-1.4-9.3c-1.9,3.3-8.6,4.9-12.1,5
		c-4.7,0.2-9.3-1.4-12.9-4.4c-6.8-6.1-5.3-16.4,2.1-21.3c4.6-3.1,10.3-4,15.8-4.5c-3.8,0.2-7.6,0.3-11.2-1s-6.7-4.4-6.8-8.2
		c0-1.6,0.4-3.2,1.1-4.6c2.6-5.4,8.4-8.8,14.4-9.5s12,1.2,17.1,4.4c-2.3-0.8-2.5-4.4-0.6-6s4.6-1.6,7-1c2.7,0.7,5.2,2,7.2,3.9
		c-1-0.4-1.9-1.1-2.5-2.1c-0.5-1-0.2-2.2,0.8-2.7c0,0,0,0,0.1,0c0.5-0.1,1-0.1,1.5,0.1c3.7,1,6.9,3.3,10.3,4.9s7.7,2.3,11,0.4"/>
	<path class="st8" d="M464.1,590.7c4,6.6,5.4,14.4,6,22c0.6,6.4,0.5,13.7-3.5,19.2c-1.1,1.7-2.6,3-4.5,3.7c-1.7,0.7-3.6,0-4.4-1.7
		c-0.4-0.6-1.1-0.8-1.7-0.4c-0.3,0.2-0.5,0.4-0.6,0.7c-1.7,7.3-9,12.2-15.8,14.4c-3.8,1.2-8.1,1.5-11.6-0.7c-3-1.9-4.8-5.9-3-9.2
		c0.3-0.6,0.1-1.4-0.5-1.7c-0.6-0.3-1.3-0.1-1.7,0.4c-1.7,2.9-6.3,3.9-9.4,4.3c-4.4,0.5-8.8-0.6-12.5-3.1c-3.3-2.3-5.2-6-5.1-10
		c0.2-3.8,2-7.3,5-9.6c4.5-3.5,10.5-4.4,16-4.9c1.6-0.2,1.7-2.7,0-2.6c-4,0.2-8.5,0.4-12.2-1.6c-3.2-1.8-5.3-5-4.1-8.7
		c2.2-7.1,10.2-10.7,17.1-10.5c4.7,0.3,9.2,1.8,13.2,4.3l1-2.4c-1-0.4-1.1-1.9-0.8-2.8c0.5-1.4,2-2,3.4-2.1c3.5-0.2,7.1,1.6,9.6,3.8
		l1.6-2c-0.7-0.4-2.1-1-2.1-2s2.3,0,2.8,0.3c2.4,1,4.6,2.4,7,3.5c4.2,2.1,9.2,3.4,13.5,1c1.5-0.8,0.2-3.2-1.4-2.3
		c-5.8,3.2-12-1.9-17.1-4.2c-2-0.9-5.5-2.6-7,0s0.9,4.8,3,5.9c1.2,0.7,2.7-1,1.6-2c-3.6-3.1-9.5-6-14.3-4c-1.9,0.8-3.3,2.6-3.4,4.7
		c-0.2,2,0.9,3.9,2.8,4.7c1.4,0.6,2.2-1.6,1-2.4c-7.8-4.7-17.8-6.6-26-1.9c-3.6,2-6.4,5.2-7.8,9c-1.5,4-0.1,8.5,3.3,11
		c4.3,3.5,10,3.4,15.3,3.2v-2.6c-5.8,0.5-11.9,1.5-16.7,4.9c-3.7,2.5-6.1,6.5-6.7,11c-1.3,10.7,9.5,17.7,19.2,17
		c4.3-0.3,10.1-1.7,12.5-5.6l-2.2-1.3c-1.5,3-1.3,6.5,0.4,9.3c1.9,2.9,5,4.8,8.5,5.2c3.9,0.4,7.8-0.3,11.3-1.9
		c3.3-1.4,6.3-3.3,8.9-5.6c2.9-2.5,4.9-5.8,5.8-9.5l-2.3,0.3c1.6,3.6,6.3,3.7,9.2,1.8c3.2-2.1,5.3-5.6,6.4-9.1
		c1.1-3.8,1.6-7.7,1.3-11.6c-0.2-4.2-0.7-8.5-1.6-12.6c-0.9-4.9-2.8-9.6-5.5-13.9C464.9,589,463.5,589.8,464.1,590.7L464.1,590.7z"
		/>
</g>
<path class="st2" d="M373.3,605.6c16.4-4.6,34,0.8,45,13.8c0.8,1,1.6,2.2,1.1,3.3c-0.5,1.3-2.3,1.5-3.8,1.4
	c-3.8-0.4-7.4-1.9-10.5-4.2c2.4,3.2,3.2,7.3,2.2,11.2c-1.1,3.8-3.4,7.2-6.5,9.6c-1.3,1-2.8,1.8-4.4,1.5s-2.7-2.4-1.6-3.6
	c-3.4,2-7.5,2.4-11.5,2.4c-2.4,0.1-4.8-0.2-7.1-0.8c-1.7-0.6-3.3-1.3-4.8-2.2c-9.7-5.2-20.1-9-30.8-11.4"/>
<path d="M400.4,640c-1,0.8-2.2,1.2-3.5,1.2c-0.7-0.1-2-1.1-1.4-1.9c0.4-0.4,0.4-1.2,0-1.6c-0.4-0.4-0.9-0.4-1.4-0.2
	c-3.9,2.1-8.8,2.4-13.1,2.3c-5-0.1-9.1-2.9-13.5-5c-8.5-4.2-17.5-7.3-26.8-9.4c-1.5-0.3-2.1,1.9-0.6,2.2c7.7,1.6,15.2,4,22.4,7.2
	c3.5,1.6,6.9,3.4,10.4,5.1c3.4,1.5,7,2.2,10.7,2.1c4,0.1,8.1-0.4,11.6-2.5l-1.5-1.5c-1.2,1.6-0.2,3.9,1.4,4.8
	c2.1,1.2,4.5-0.2,6.1-1.6C401.9,640.6,401.1,639.6,400.4,640L400.4,640z"/>
<path d="M373.5,606.2c8.1-1.8,16.5-1.6,24.4,0.7c3.9,1.2,7.6,3,10.9,5.3c1.7,1.1,3.3,2.4,4.8,3.8c1.6,1.4,3,2.9,4.2,4.6
	c2.2,3.3-3.3,2.3-4.8,1.9c-2.6-0.7-5.1-1.9-7.3-3.6c-1.2-0.9-2.4,1.1-1.2,2c2.2,1.6,4.8,2.9,7.4,3.6c2,0.5,4.6,1.2,6.7,0.3
	c5.4-2.4-1.9-8.8-4.1-10.8c-7.2-6.3-16.2-10.1-25.8-11.1c-5.3-0.5-10.7,0.2-15.7,2c-0.4,0.1-0.6,0.5-0.5,0.8
	C372.7,606.1,373.1,606.3,373.5,606.2L373.5,606.2L373.5,606.2z"/>
<path class="st4" d="M457.4,590.2c1.9,0.8,3.8,1.5,5.8,1.9c0.9,0.3,1.8,0.6,2.7,1c0.4,0.2,0.8,0.4,1.2,0.7c0.2,0.1,0.4,0.2,0.5,0.4
	s0.1,0.3,0.2,0c-0.1,0.7,0.3,1.3,1,1.5c0.6,0.1,1.2-0.2,1.4-0.8c0.7-2.8-3.5-3.9-5.4-4.4c-2.3-0.5-4.7-0.8-7-1.6
	c-0.4-0.1-0.7,0.2-0.8,0.5C457.1,589.8,457.2,590,457.4,590.2L457.4,590.2z"/>
<path d="M492.6,596.2c3.6-0.2,7.3-0.7,10.8-1.4c1.2-0.2,2.4-0.5,3.6-0.8c0.9-0.4,1.9-0.6,2.9-0.8c1.3,0,1.3-2.1,0-2
	c-1,0.1-2,0.4-2.9,0.8c-1.1,0.4-2.3,0.7-3.4,0.9c-3.6,0.9-7.3,1.5-11,1.9C491.7,594.9,491.7,596.3,492.6,596.2L492.6,596.2z"/>
<path d="M490.9,545.9l0.2-0.3c0,0,0.1-0.2,0.1-0.1s0.1-0.1,0.1-0.1c0.2-0.2,0.3-0.4,0.5-0.5c0.2-0.2,0.3-0.3,0.5-0.5l0.1-0.1
	l0.3-0.2c0.2-0.1,0.4-0.2,0.6-0.3c0,0,0.2-0.1,0.1,0s0.1,0,0.1,0l0.3-0.1c0.5-0.1,0.9-0.2,1.4-0.3c0.4-0.1,0.7-0.6,0.6-1
	c-0.1-0.4-0.4-0.6-0.8-0.6c-1.1,0-2.2,0.4-3.2,1c-0.9,0.6-1.7,1.4-2.2,2.4c-0.2,0.4-0.1,0.8,0.3,1
	C490.1,546.4,490.6,546.3,490.9,545.9L490.9,545.9z"/>
<path d="M504.2,568.7c-1.7-0.9-3.5-1.7-5.3-2.4c-0.3-0.2-0.7-0.2-1-0.1c-0.2,0.1-0.4,0.3-0.5,0.5c-0.4,0.8-0.4,1.7-0.1,2.5
	c0.5,1.7,1.5,3.1,3,4c0.6,0.5,1.4,0.6,2.1,0.3c0.7-0.4,0.8-1.4,0.8-2.2v-2.8"/>
<path d="M504.6,568.2c-1.6-1-3.2-1.9-5-2.5c-0.4-0.2-0.9-0.3-1.4-0.4c-0.5,0-1,0.2-1.4,0.6c-0.6,0.8-0.9,1.8-0.7,2.8
	c0.2,1.7,1,3.2,2.2,4.4c1.2,1.2,3.4,2.6,5,1.2c0.7-0.7,1-1.6,1-2.5c0-1,0-2.1,0-3.1c0.1-0.6-0.4-1.1-1-1.2c-0.6-0.1-1.1,0.4-1.2,1
	c0,0.1,0,0.1,0,0.2v2.4v0.9c0,0.1,0,0.1,0,0.2c0,0.1-0.1,0.3-0.1,0.4c0.1-0.2,0,0.1-0.1,0.2c0.1-0.2,0,0,0,0s0.2-0.1,0,0
	c0.2-0.1-0.3,0.1-0.1,0c-0.1,0-0.1,0,0,0c-0.1,0-0.2,0-0.3-0.1c-0.1,0-0.2-0.1-0.3-0.1l-0.4-0.2l-0.2-0.1h0l-0.3-0.3
	c-0.2-0.2-0.4-0.4-0.6-0.6l-0.1-0.2c0.1,0.1,0,0,0,0s-0.2-0.3-0.3-0.5c-0.3-0.5-0.5-1-0.7-1.5c-0.2-0.5-0.2-1.1,0-1.7c0,0,0,0,0-0.1
	s0.1-0.1,0,0h-0.1c0.1,0.1,0.4,0.1,0.5,0.1l0.6,0.2c1.6,0.5,3.1,1.2,4.6,1.9c0.3,0.1,0.6-0.1,0.8-0.4c0.1-0.3,0-0.6-0.3-0.8
	L504.6,568.2z"/>
<path class="st9" d="M791.6,422.4l-0.6-9.2c-3.3-0.9-5.7-4-6.5-7.3c-0.7-3.4-0.5-6.9,0.6-10.1l-15.6,3.5c-1.1,0.4-2.3,0.4-3.5,0
	c-0.7-0.4-1.3-1-1.7-1.7c-1.1-1.6-2.2-3.6-1.4-5.4c0.4-0.7,0.9-1.3,1.5-1.8c7.7-6.6,18.1-9.1,28.2-9.8c3.5-0.2,7.4-0.2,10.2,1.9
	c0.7,0.6,1.4,1.2,2.2,1.6c0.8,0.3,1.7,0.5,2.5,0.5c6.5,0.6,12.2,4.3,15.6,9.8c1.6,3,2.7,6.3,3.3,9.6c0.9,3.8,1.7,7.6,1.2,11.5
	c-0.5,3.2-1.5,6.4-2.9,9.4l-3.5,8.6l-1.9,4.6c-0.1,0.2-0.2,0.4-0.4,0.6c-0.4,0.2-0.9,0-1.3-0.3l-11.5-8.6c-0.9-0.6-1.7-1.4-2.1-2.4
	c-0.5-1.6,0.6-3.1,1-4.7c0.8-2.9-0.6-5.9-3.2-7.3c-1-0.6-2.2-0.7-3.3-0.4c-0.6,0.3-1.2,0.7-1.7,1.2c-1.1,1.2-1.9,2.6-2.3,4.2
	c-0.1,0.7-0.3,1.3-0.7,1.8c-0.4,0.5-1.3,0.6-1.7,0.1"/>
<path class="st9" d="M792.4,422.4c-0.1-3.1-0.2-6.1-0.3-9.2c0-0.5-0.3-0.9-0.7-1c-2.6-0.9-4.7-3-5.5-5.7c-1.1-3.4-0.6-7,0.3-10.4
	c0.2-0.5-0.1-1.1-0.6-1.3c-0.2-0.1-0.4-0.1-0.6,0l-10.2,2.3l-4.9,1.1c-0.7,0.2-1.4,0.3-2.2,0.4c-1-0.1-1.8-0.7-2.3-1.5
	c-0.8-1.1-1.7-2.6-1.5-4s2-2.5,3.1-3.3c2.3-1.7,4.8-3.1,7.4-4.2c5.2-2.1,10.7-3.3,16.3-3.8c2.8-0.4,5.7-0.4,8.5,0.1
	c1.3,0.3,2.6,0.9,3.6,1.8c1,1,2.3,1.6,3.7,1.8c2.6,0.3,5.1,0.9,7.4,2c2.4,1.1,4.5,2.8,6.3,4.7c1.9,2.3,3.2,4.9,4,7.8
	c0.9,3,1.6,6,2,9.1c0.5,3.4,0.3,6.8-0.7,10.1c-1,3.2-2.4,6.3-3.6,9.3l-1.8,4.3l-0.9,2.3c-0.3,0.9-0.6,1.7-1,2.5l0.4-0.2
	c-0.2-0.2-0.5-0.3-0.7-0.5l-0.8-0.6l-2-1.5l-4.4-3.2c-1.5-1.1-3-2.2-4.5-3.3c-0.7-0.4-1.1-1.1-1.3-1.9c0.1-0.9,0.3-1.7,0.7-2.4
	c1.1-2.5,0.8-5.3-0.8-7.5c-1.5-2.1-4.3-3.5-6.8-2.5c-1.4,0.7-2.5,1.8-3.3,3.1c-0.4,0.7-0.7,1.4-1,2.1c-0.1,0.2-0.7,2.5-0.9,2.2
	c-0.9-1-2.4,0.5-1.5,1.5c0.8,0.9,2.1,0.9,3,0.1c0,0,0,0,0,0c1.2-1,1.1-2.8,1.8-4.1s1.9-3.1,3.5-3.2c1.6,0.1,3,1,3.8,2.4
	c0.7,1.1,0.9,2.5,0.7,3.8c-0.3,1.5-1.3,2.9-1.3,4.5c0,3.1,3.8,4.9,5.9,6.5l4.8,3.6l2,1.5c0.7,0.7,1.6,1.3,2.5,1.7
	c1.5,0.5,2.3-0.8,2.8-2c0.8-1.8,1.5-3.5,2.2-5.3c2.7-6.6,6.5-13.4,6.1-20.8c-0.3-3.7-1-7.4-2.1-11c-0.8-3.1-2.1-6.1-4-8.7
	c-3.5-4.5-8.7-7.5-14.4-8.3c-0.8-0.1-1.7-0.1-2.5-0.3c-0.8-0.3-1.6-0.7-2.2-1.3c-1.1-0.9-2.5-1.6-3.9-2c-3-0.7-6-0.8-9-0.3
	c-6.1,0.4-12.2,1.8-17.9,4.2c-3.2,1.3-6.1,3.1-8.8,5.3c-1.2,1-2.4,2.1-2.7,3.8c-0.1,1.7,0.5,3.4,1.5,4.8c0.9,1.4,1.9,2.6,3.6,2.9
	s3.8-0.5,5.6-0.9c4.3-1,8.6-2,12.9-2.9l-1.3-1.3c-1.1,3.9-1.7,8.3-0.1,12.2c1.1,3.1,3.6,5.5,6.8,6.5l-0.8-1c0.3,3,0.5,6.1,0.8,9.2
	C790.9,423.3,792.4,423.3,792.4,422.4L792.4,422.4z"/>
<path d="M798.6,455.3c-4.3,3.9-9.4,6.9-14.8,8.9c-1.1,0.4-0.7,2.2,0.5,1.8c5.8-1.9,11.1-5.3,15.3-9.7c0.3-0.3,0.3-0.7,0-1
	S798.9,455,798.6,455.3L798.6,455.3L798.6,455.3z"/>
<path d="M774.2,442.4l4-4.1c0.2-0.2,0.4-0.3,0.6-0.4c0.6-0.1,1,0.5,1.2,1c0.3,0.6,0.5,1.2,0.6,1.9c-0.1,1.5-0.8,2.8-2,3.7
	c-0.3,0.3-0.6,0.5-1,0.5c-0.6,0-1.1-0.3-1.5-0.8c-0.4-0.5-0.8-1-1-1.5"/>
<path d="M774.7,442.9c1-0.8,2-1.7,2.9-2.6c0.5-0.5,0.9-0.9,1.4-1.4c0.1-0.1,0.1-0.1,0.2-0.1c-0.1,0-0.2,0-0.2,0c-0.1,0-0.2-0.1,0,0
	s0,0,0,0c0.1,0.1,0.1,0.1,0.1,0.2c0.3,0.4,0.4,0.9,0.5,1.4c0,0.2,0,0.5,0,0.7c0-0.2,0,0.1,0,0.1s-0.1,0.3-0.1,0.4
	c0-0.1-0.1,0.1-0.1,0.1s-0.1,0.2-0.2,0.3c-0.1,0.2-0.3,0.4-0.4,0.6c-0.2,0.2-0.3,0.4-0.5,0.5l-0.2,0.2l-0.2,0.1
	c-0.1,0.1,0.1-0.1-0.1,0l-0.1,0.1c-0.2,0.2,0,0-0.1,0s0,0,0,0h-0.1c0.1,0,0.1,0,0,0s0,0,0,0l-0.2-0.1c0.1,0.1-0.2-0.1-0.2-0.2
	c-0.2-0.2-0.4-0.4-0.5-0.6c-0.2-0.3-0.3-0.6-0.5-0.8c-0.3-0.5-0.8-0.6-1.3-0.4c-0.5,0.2-0.8,0.8-0.6,1.4c0.3,0.8,0.8,1.5,1.4,2.1
	c0.5,0.6,1.3,1,2.2,1c0.8-0.1,1.6-0.5,2.2-1.2c0.5-0.5,1-1.1,1.4-1.8c0.4-0.7,0.6-1.4,0.6-2.2c0-0.9-0.3-1.7-0.7-2.4
	c-0.3-0.7-0.8-1.3-1.5-1.6c-0.8-0.2-1.7,0.1-2.2,0.9c-1.3,1.4-2.6,2.8-3.7,4.3c-0.2,0.3-0.1,0.7,0.2,0.9
	C774.1,443.1,774.4,443.1,774.7,442.9L774.7,442.9z"/>
<path class="st4" d="M485.3,332.3c7-17,19-31.5,34.5-41.5c4.8-3,10.1-5.7,15.8-5.7s11.7,3.4,13.1,8.9c1.3,5.2-1.6,10.4-4.3,14.9
	c13.1-5.7,28.7-3.1,41.3,3.7s22.6,17.4,31.9,28.3c9.4,11.1,18.5,23,23,36.8s3.9,30.1-4.9,41.8c-4.9,6.5-11.8,11-18.5,15.4
	c-32.7,21.4-67.1,43.4-106,47.6c-5.4,0.6-11.6,0.6-15.6-3.1c-3-2.8-4.2-7-5.2-10.9c-9.1-34.9-25.4-71.3-18-106.6
	c2.1-9.9,10.8-17.6,13.2-27.4"/>
<path d="M486,332.5c5-12,12.6-22.8,22.2-31.5c4.9-4.6,10.4-8.5,16.3-11.6c5.7-2.9,12.7-4.5,18.4-0.9c2.9,1.7,4.7,4.8,4.8,8.1
	c0,4.3-2.4,8.2-4.5,11.7c-0.7,1.1,0.6,2.1,1.7,1.7c14.4-6.1,31-2.1,43.7,5.9c13.2,8.2,23.7,20.5,33.3,32.5s18.1,25.6,19.7,41.1
	c0.8,7.1,0,14.4-2.5,21.1c-2.8,7.1-7.9,12.7-13.9,17.3c-6.3,4.7-13,8.9-19.6,13.1s-13.4,8.5-20.2,12.5c-13.7,8-27.9,15.4-42.9,20.6
	c-7.4,2.6-15,4.6-22.7,6c-3.8,0.7-7.6,1.2-11.4,1.5c-3.4,0.2-7.1,0.1-10.2-1.6c-3.3-1.8-4.9-5.1-6-8.5c-1.2-3.7-2.1-7.5-3.1-11.3
	c-2.3-8.1-4.8-16.1-7.2-24.1c-4.8-15.9-9.2-32-10.2-48.6c-0.5-8.2,0-16.3,1.5-24.4c1.4-7.1,5.8-12.9,9.4-19.1c1.7-2.9,3.1-6,4-9.2
	c0.3-1.3-1.7-1.8-2-0.5c-1.8,7.2-6.8,13-10.1,19.5c-3.6,7-4.5,15-4.8,22.8c-0.7,17,3,33.9,7.5,50.3c2.3,8.3,4.9,16.6,7.3,24.9
	c1.2,4.2,2.5,8.4,3.6,12.5c1,3.7,1.7,7.5,3.2,11c1.3,3.3,3.9,6,7.2,7.4c3.3,1.2,6.9,1.7,10.5,1.3c8-0.6,15.9-2,23.7-4.2
	c15.7-4.2,30.6-11,44.8-18.8c14.5-7.9,28.4-17,42.2-26c6.6-4.3,13.2-9,17.8-15.5c4.1-6.1,6.6-13.2,7-20.5c1.3-15.8-5.2-30.8-14-43.5
	c-4.6-6.6-9.6-12.9-15-18.9c-5.3-6.2-11-11.8-17.3-17c-12.2-9.8-27.6-16.6-43.5-14.6c-3.7,0.5-7.3,1.5-10.7,2.9l1.7,1.7
	c3.7-6,7.4-13.8,2.3-20.2c-4.2-5.3-11.7-6.3-17.9-4.5c-7.1,2-13.4,6.7-19,11.3c-11.6,9.6-20.5,22-26.1,35.9
	C484.3,333,485.7,333.4,486,332.5L486,332.5z"/>
<g>
	<path class="st4" d="M133.5,630.9c0.1,17.1-0.6,34.2-2.1,51.2c-0.4,4.8-1,9.7-1.5,14.5c-0.1,1.1,1.6,1.1,1.8,0
		c2.1-16.9,3.3-34,3.4-51.1c0-4.9,0-9.7-0.1-14.6c0-0.4-0.3-0.7-0.7-0.7S133.5,630.5,133.5,630.9L133.5,630.9z"/>
	<path class="st4" d="M51.2,656.9c1.4,5.9,3.7,11.6,7,16.8c0.6,0.9,2,0.1,1.4-0.8c-3.2-5-5.6-10.5-7.1-16.3
		c-0.1-0.3-0.5-0.5-0.9-0.4C51.3,656.2,51.1,656.6,51.2,656.9L51.2,656.9z"/>
	<path class="st4" d="M47,664.6c0.2,3.6,1.6,7.1,3.9,9.8c0.6,0.7,1.7-0.3,1.1-1c-2.1-2.5-3.4-5.5-3.6-8.8
		C48.3,663.8,47,663.8,47,664.6L47,664.6z"/>
	<path class="st4" d="M188.9,742.5c0.7,0.3,1.5,0.5,2.4,0.4c0.7-0.1,1.5-0.2,2.2-0.2h0.3h0.1l0.2,0.1c0.2,0,0.4,0.1,0.6,0.3
		c0,0,0.2,0.1,0.1,0.1l0.1,0.1l0.1,0.1c0.1,0.1-0.1-0.2,0,0l0.1,0.1c-0.1-0.1,0,0,0,0s0,0.2,0,0c0,0,0,0.2,0,0.1
		c-0.1,0.4,0.1,0.9,0.6,1c0.4,0.1,0.9-0.1,1-0.6c0.3-1.6-1-2.8-2.5-3.1c-0.8-0.1-1.6-0.1-2.4,0c-0.7,0.2-1.5,0.2-2.3-0.1
		c-0.4-0.2-0.9-0.1-1.1,0.3c-0.2,0.4-0.1,0.9,0.3,1.1c0,0,0,0,0,0L188.9,742.5z"/>
	<path class="st4" d="M189.8,749c0.2,0.7,0.7,1.3,1.3,1.6c0.7,0.3,1.4,0.4,2.1,0.2c0.4-0.1,0.7-0.6,0.6-1c-0.1-0.4-0.6-0.7-1-0.6
		c0,0,0,0,0,0c-0.1,0-0.2,0.1-0.3,0.1h0.2c-0.2,0-0.4,0-0.6,0h0.2c-0.2,0-0.4-0.1-0.6-0.2l0.2,0.1l-0.4-0.2l-0.2-0.1
		c-0.1,0-0.1-0.1,0,0c0,0,0-0.1-0.1-0.1l-0.1-0.1l-0.1-0.1c-0.1-0.1,0,0,0,0s-0.1-0.1-0.1-0.2c0-0.1-0.1-0.1-0.1-0.2
		c-0.1-0.2-0.2-0.3-0.4-0.3c-0.1,0-0.3,0-0.4,0c-0.3,0.1-0.5,0.5-0.4,0.8L189.8,749z"/>
	<path class="st4" d="M50.5,573.7c6.9,0.1,13.4-3.2,17.4-8.9c0.6-0.9-0.8-1.7-1.5-0.8c-3.7,5.1-9.6,8.2-15.9,8.4
		c-0.4,0-0.7,0.3-0.7,0.7C49.8,573.4,50.1,573.7,50.5,573.7L50.5,573.7z"/>
	<path class="st4" d="M164.6,589.8c4.3,6.2,10.4,11.1,17.4,14c1,0.4,1.4-1.2,0.4-1.6c-6.7-2.7-12.4-7.2-16.7-13
		C165.2,588.5,164.1,589.2,164.6,589.8L164.6,589.8z"/>
</g>
<path class="st4" d="M470.6,615.4c-0.6,6.4-3.3,12.3-7.8,16.8c-2,1.9-5.2,4.8-8.2,3.8s-2.6-5.1-2.4-7.6h-2
	c-0.5,5.4-1.4,11.2-4.8,15.6c-2.8,4-7.8,6.1-12.6,5.2c-0.5-0.1-1.1,0.2-1.2,0.7c-0.1,0.5,0.2,1.1,0.7,1.2l0,0
	c5.2,1.9,11.1-1.2,14.4-5.3c4-4.9,5-11.4,5.6-17.5c0.1-1.3-1.9-1.3-2,0c-0.3,3.1-0.3,7.1,2.6,8.9c3.2,2,7-0.2,9.5-2.3
	c5.8-4.9,9.3-12.1,9.6-19.7C471.9,614.6,470.7,614.6,470.6,615.4L470.6,615.4z"/>
<path class="st5" d="M527.7,607.1c18.6-1.9,37.3-2.6,56-1.9c2.6,0.1,5.4,0.3,7.3,2s2.6,4.7,3,7.4c2.3,17,2.6,34.1,0.8,51.1
	c-0.2,2.1-0.6,4.3-2.1,5.8c-1.4,1.1-3,1.8-4.7,2l-43.8,9.5c-8.7,1.9-17.6,3.8-26.4,2.6"/>
<path class="st4" d="M527.7,607.7c13.6-0.7,27.2-1.2,40.9-1.6c3.4-0.1,6.8-0.1,10.2,0c3,0.1,6.4-0.2,9.3,0.7s4,3.1,4.5,5.8
	c0.6,3.2,1,6.4,1.2,9.7c0.7,6.7,0.7,13.3,0.8,20s-0.4,13.3-0.9,20c-0.2,2.5,0.1,6.4-1.9,8.4c-1,0.8-2.3,1.4-3.6,1.6
	c-1.7,0.4-3.3,0.7-5,1.1l-20,4.3c-7.5,1.6-15,3.3-22.5,4.9s-15,2.9-22.6,1.8c-0.7-0.2-1.5,0.3-1.7,1c-0.2,0.7,0.3,1.5,1,1.7
	c0.1,0,0.2,0,0.3,0c7,0.7,14.1-0.3,21-1.6c7.1-1.4,14.2-3.1,21.3-4.6l20.9-4.6l5.4-1.2c1.6-0.3,3.1-0.7,4.7-1.2c2.5-1,4.3-3.3,4.7-6
	c1.4-6.8,1.2-13.8,1.5-20.7c0.1-3.5,0.3-7,0.1-10.5s-0.5-7-0.8-10.5s-0.7-7.1-1.2-10.7c-0.4-2.7-0.7-5.6-2.3-7.9s-4.2-3.2-7-3.5
	c-3.4-0.4-6.9-0.3-10.3-0.3c-8.1-0.1-16.2-0.6-24.3,0.1c-2,0.2-4,0.2-6,0.3s-4,0.4-5.9,0.6c-4,0.3-8,1-12,1.6
	C526.7,606.6,526.9,607.8,527.7,607.7L527.7,607.7z"/>
<path d="M552.3,684.5c8.8-3.6,18.6-4.1,27.8-6.3c1.1-0.2,0.6-1.8-0.4-1.6c-4.8,0.7-9.5,1.7-14.2,2.7c-4.7,0.9-9.2,2.2-13.6,4
	C551.1,683.6,551.6,684.8,552.3,684.5L552.3,684.5z"/>
<path d="M686.6,456.8c-1.7,3.7-3.3,7.5-4.7,11.3c-0.3,0.9,1.1,1.3,1.5,0.4c1.4-3.7,2.8-7.4,4.4-11C688,456.7,686.9,456,686.6,456.8
	L686.6,456.8z"/>
<path d="M692.3,457.6c-1.9,3.8-3.5,7.8-4.8,11.9c-0.3,1,1.2,1.4,1.5,0.4c1.3-4,2.8-7.8,4.4-11.7
	C693.8,457.5,692.7,456.8,692.3,457.6L692.3,457.6z"/>
<path d="M696.2,459.3l-2.3,5.5c-0.8,1.9-1.6,3.7-2.3,5.5c-0.3,0.8,1.1,1.4,1.4,0.6c0.8-1.9,1.5-3.8,2.2-5.7l2.2-5.7
	C697.8,458.8,696.5,458.5,696.2,459.3L696.2,459.3z"/>
<path class="st4" d="M432.5,696.7c-3.3,12.5-6.5,25.1-9.5,37.6c-0.3,1.3,1.8,1.9,2.1,0.6c3-12.6,5.9-25.2,8.7-37.9
	c0.1-0.4-0.1-0.7-0.5-0.8C432.9,696.2,432.6,696.4,432.5,696.7L432.5,696.7z"/>
<g>
	<path class="st2" d="M395.6,689.1c4.5-6.4,9.4-12.5,14.8-18.2c2.6-2.8,5.3-5.5,8.1-8.2s5.8-5.2,8.7-7.8c0.7-0.6-0.2-1.8-1-1.3
		c-6.2,4.9-11.9,10.4-17.1,16.3c-5.3,5.8-10.2,12-14.7,18.5C393.9,689.1,395.1,689.8,395.6,689.1L395.6,689.1z"/>
	<path class="st2" d="M468.5,631.9c15.4-5.3,31.3-9.2,47.4-11.6c16.2-2.6,32.7-4,49.1-5c9.2-0.6,18.4-1,27.5-1.5
		c1.1,0,1.1-1.8,0-1.7c-16.4,0.8-32.9,1.6-49.3,3.2c-16.3,1.4-32.5,4-48.5,7.6c-9,2.1-17.8,4.7-26.5,7.8
		C467.4,630.9,467.7,632.2,468.5,631.9L468.5,631.9z"/>
	<path class="st2" d="M404.8,698.8c24.6-28.9,57.9-49.2,94.9-57.8c14.6-3.4,29.6-5.2,44.5-7.1c16.9-2.2,33.8-4.2,50.7-5.8
		c1.1-0.1,1.1-1.9,0-1.8c-15.3,1.4-30.6,3.2-45.8,5.2c-14.9,1.9-29.9,3.6-44.6,6.7c-25.2,5.2-49,15.8-69.8,30.9
		c-11.4,8.3-21.7,18-30.8,28.8C403.3,698.6,404.2,699.5,404.8,698.8L404.8,698.8z"/>
	<path class="st2" d="M417.1,712.4c13.5-18.9,34.1-31.5,55.6-39.5c25.1-9.3,51.8-13.1,78-17.8l46.6-8.4c1.1-0.2,0.6-1.9-0.5-1.7
		l-42.2,7.7c-13.5,2.5-27.1,4.8-40.6,7.5c-24.6,4.9-49.4,11.7-70.6,25.5c-10.7,6.8-20.1,15.7-27.5,26
		C415.5,712.4,416.6,713.1,417.1,712.4L417.1,712.4z"/>
	<path class="st2" d="M439.2,712.6c17.9-9.9,37.5-15.9,56.9-22c20.1-6.3,40.2-12.5,60.8-16.7c11.6-2.4,23.3-4,35.2-4.7
		c1-0.1,1.1-1.7,0-1.6c-21.1,1.2-41.9,5.6-62.3,11.3c-10.2,2.8-20.4,6-30.5,9.1c-9.9,3.1-19.8,6.2-29.6,9.6
		c-10.8,3.7-21.3,8.3-31.3,13.8c-0.3,0.2-0.4,0.7-0.1,1C438.5,712.6,438.9,712.7,439.2,712.6L439.2,712.6z"/>
	<path class="st2" d="M434.2,733.8c16.8-2.5,33.5-5.9,49.9-10.3c16.4-4.3,32.6-9.6,48.5-15.7c8.9-3.4,17.8-7,26.4-11.1
		c1-0.5,0.1-1.8-0.8-1.4c-15.6,6.8-31.3,13.3-47.5,18.6c-16,5.3-32.3,9.7-48.7,13.3c-9.3,2-18.7,3.7-28.1,5.2
		C432.9,732.5,433.3,733.9,434.2,733.8z"/>
	<path class="st2" d="M520.8,732.2c4.4-1.2,8.9-2.5,13.2-3.8c2.2-0.7,4.3-1.4,6.5-2.1c1.4-0.5,3.6-0.8,4.2-2.4
		c0.2-0.4,0-0.9-0.4-1.1c-0.4-0.2-0.9,0-1.1,0.4c0,0,0,0.1,0,0.1c-0.3,0.8-1.8,1-2.5,1.2c-1,0.3-2,0.7-3,1c-1.9,0.6-3.7,1.2-5.6,1.8
		c-3.9,1.2-7.8,2.4-11.7,3.5c-0.4,0.1-0.6,0.5-0.5,0.9S520.5,732.2,520.8,732.2L520.8,732.2L520.8,732.2z"/>
	<path class="st2" d="M171.8,451.9c16.1,19.3,33.1,37.9,50.9,55.6c11.3,11.2,23,22.2,36.6,30.6c10.1,6.3,21.1,11.2,32.1,15.9
		c10.2,4.5,20.4,9,30.8,13c17.4,6.9,35.1,12.7,53.2,17.4c3.8,1,7.7,2,10.8,4.3s5.2,6.5,4.1,10.2c-1.8,5.5-8.9,6.7-14.4,8.6
		c-12.8,4.3-20.9,16.7-32.2,23.9c-15.2,9.4-34.4,9.4-49.5-0.2c-2.2-1.5-4.4-3.1-6.9-4c-4.4-1.5-9.1-0.3-13.7,0.5
		c-9.1,1.6-18.6,1.6-27.3-1.3s-16.7-9-20.6-17.3c-2.3-4.8-3.5-10.5-7.6-13.8c-2.1-1.6-4.6-2.4-7-3.4c-12.3-5.2-21.6-15.6-25.4-28.4
		c-2.3-7.9-3.4-17.8-11-21c-2-0.8-4.2-1.1-6.1-2c-7.1-3.3-7.4-13-9-20.7c-1.8-8.4-6.2-16.1-12.6-21.8"/>
</g>
<path d="M171.2,452.4c14.3,17.3,29.3,34,45,50c15,15.2,30.4,30.2,49.2,40.6c9.7,5.4,20,9.7,30.2,14.2c10.4,4.6,20.9,9.1,31.5,13.2
	s21.5,7.8,32.4,11c5.4,1.6,10.7,3.1,16.1,4.5c4.6,1.2,9.8,2.7,12.3,7.1c2.2,3.8,0.7,7.7-3,9.8c-3.5,2-7.5,2.6-11.1,4
	c-8.3,3.3-14.7,9.7-21.2,15.6c-3.3,3.1-6.8,5.9-10.6,8.4c-3.9,2.4-8.1,4.1-12.5,5.2c-8.9,2.1-18.3,1.6-26.9-1.7
	c-2.1-0.8-4.2-1.8-6.1-2.9c-2.1-1.2-4.1-2.8-6.2-4c-4.8-2.7-9.9-2.2-15.1-1.3c-10.5,1.9-21.5,2.3-31.6-1.9c-4.2-1.7-8-4.3-11.2-7.4
	c-3.1-3.1-5.5-6.9-7.1-11c-1.6-3.9-3-8.2-6.4-11c-1.9-1.5-4.1-2.6-6.4-3.4c-2.1-0.8-4.1-1.8-6.1-2.9c-7.7-4.5-13.8-11.2-17.6-19.2
	c-1.6-3.8-2.9-7.8-3.8-11.8c-1-3.8-2.1-7.7-4.3-11c-1-1.5-2.3-2.8-3.8-3.9c-1.9-1.3-4.2-1.8-6.4-2.5c-3.9-1.1-6.1-4-7.4-7.7
	s-1.7-7.8-2.5-11.6c-0.9-4.6-2.5-9-4.7-13c-2.3-3.9-5.2-7.4-8.6-10.3c-1-0.9-2.6,0.6-1.6,1.5c3.5,3.3,6.5,7.2,8.6,11.6
	c2,4.1,3.4,8.5,4.1,13.1c1.3,7.6,2.8,16.5,11.2,19.1c2.2,0.7,4.4,1.1,6.3,2.5c1.4,1.2,2.6,2.6,3.4,4.3c1.9,3.5,2.7,7.5,3.7,11.3
	c2.1,8.7,6.4,16.6,12.7,22.9c3.2,3.2,6.8,5.8,10.8,7.9c4.1,2.2,9.3,3.1,12.2,6.9c2.7,3.5,3.7,8,5.6,11.9c2.1,4,5,7.6,8.5,10.4
	c7.8,6.3,17.6,9.2,27.5,9.4c5.5,0,11-0.6,16.5-1.7c2.8-0.6,5.6-0.7,8.4-0.3c2.6,0.6,4.7,2.1,6.8,3.5c15.4,10.3,36.6,10.9,52.2,0.6
	c7.7-5,13.7-12.1,20.9-17.6c3.5-2.7,7.5-4.9,11.7-6.2c3.6-1.2,7.6-2,10.7-4.3c3.4-2.3,4.8-6.6,3.5-10.5c-1.6-4.6-5.6-7.3-9.9-8.8
	c-5.1-1.9-10.6-2.9-15.9-4.4c-5.6-1.6-11.1-3.3-16.6-5.1c-22-7.2-43.4-16.3-64.5-25.7c-10.1-4.5-20.1-9.4-29.3-15.7
	c-8.9-6.3-17.2-13.3-25-20.9c-16.3-15.6-31.9-32-46.7-49c-3.7-4.2-7.3-8.4-10.9-12.7c-0.6-0.7-1.6,0.3-1,1L171.2,452.4z"/>
<path d="M400.4,618.3c0-0.1,0.1-0.1,0.2-0.2c0,0,0.3-0.1,0.1-0.1s0.1,0,0.1,0l0.4,0.2c0.3,0.1,0.7,0.3,0.9,0.6
	c0.8,0.7,1.6,1.4,2.3,2.2c0.6,0.8,1.2,1.7,1.6,2.6c0.2,0.4,0.4,0.8,0.5,1.3c0.1,0.2,0.1,0.5,0.2,0.7c0.1,0.5,0.5,0.8,0.9,1
	c0.4,0.1,0.9-0.1,1.1-0.5c0.5-0.6,0-1.6-0.3-2.2c-0.2-0.6-0.5-1.2-0.8-1.8c-0.6-1.1-1.4-2.1-2.2-3c-0.8-0.9-1.8-1.7-2.9-2.2
	c-0.6-0.3-1.2-0.4-1.8-0.3c-0.5,0.1-1,0.3-1.4,0.7C398.9,618,399.8,618.9,400.4,618.3L400.4,618.3z"/>
<path d="M399.6,625.2c1.3,1.1,2.5,2.3,3.5,3.7c0.5,0.7,0.9,1.4,1.3,2.1c0.4,0.8,0.7,1.6,1.1,2.4c0.2,0.4,0.8,0.5,1.2,0.3
	c0.3-0.2,0.5-0.6,0.4-0.9c-0.3-0.9-0.7-1.7-1.2-2.5c-0.5-0.8-0.9-1.5-1.5-2.2c-1.1-1.4-2.4-2.7-3.8-3.8c-0.3-0.3-0.7-0.3-1-0.1
	c-0.3,0.3-0.3,0.7-0.1,1C399.6,625.2,399.6,625.2,399.6,625.2L399.6,625.2z"/>
<path d="M396.8,631.1c1.5,2.5,2.9,5.1,4,7.8c0.1,0.5,0.6,0.7,1.1,0.6c0.5-0.1,0.7-0.6,0.6-1.1c0-0.1,0-0.1-0.1-0.2
	c-1.2-2.8-2.6-5.4-4.3-7.8C397.5,629.6,396.3,630.3,396.8,631.1L396.8,631.1z"/>
<path d="M698.5,484.1c0.8,0.4,1.7,0.8,2.5,1.3l0.5-1.8c-2.7,0.4-4,3.3-4.6,5.6c-0.8,2.9-0.5,6,0.6,8.7c0.5,1.1,2.2,0.3,1.9-0.8
	c-0.7-2.3-0.8-4.7-0.4-7c0.4-2,1.1-3.9,3-4.8c0.5-0.3,0.6-0.9,0.3-1.4c-0.1-0.2-0.3-0.3-0.5-0.4c-0.9-0.3-1.8-0.6-2.6-0.9
	S697.6,483.7,698.5,484.1L698.5,484.1z"/>
<path class="st2" d="M788.8,268.3c6.7-3.1,13.5-6.3,20.7-7.7s15.1-0.9,21.4,3c0.8,0.4,1.4,1.1,1.6,2c0.1,1.5-1.7,2.2-3.2,2.2
	c-3.5,0.1-7.6-1.1-10.4,1c3.2-0.3,6.4-0.1,9.5,0.6c3.1,0.8,5.8,2.8,7.3,5.7c0.2,0.3,0.2,0.7,0.2,1c-0.2,0.4-0.7,0.7-1.2,0.8
	c-5.3,1.1-11-2.7-16-0.7c3.3-0.1,6.5,0.2,9.7,1c3.1,0.9,6.1,2.9,7.5,5.8c0.3,0.5,0.4,1,0.2,1.5c-0.4,1-1.8,0.9-2.8,0.7l-13-2.7
	c4.7,1.2,10,3,11.8,7.5c0.3,0.6,0.4,1.4,0.1,2c-0.7,1.3-2.6,0.8-3.9,0.2c-5-2.1-10.5-2.8-15.8-1.9c0.2,2.2,1.1,4.2,2.5,5.9
	c1.3,1.6,3.1,3.4,2.2,5.2c-0.8,1.6-3,1.6-4.7,1.3c-10.1-1.9-18.9-8-24.1-16.8"/>
<path d="M814.5,296.9c0.6,1.2,2.8,3.1,1.8,4.6c-0.8,1.1-2.6,0.8-3.8,0.6c-3.2-0.7-6.2-1.8-9.1-3.3c-5.8-3-10.5-7.5-13.8-13.1
	c-0.3-0.6-1.1-0.8-1.7-0.4c-0.6,0.3-0.8,1.1-0.4,1.7l0,0c4,6.7,10.4,12.5,17.8,15.2c1.8,0.7,3.7,1.3,5.6,1.7
	c1.7,0.5,3.5,0.5,5.2,0.2c1.6-0.4,2.7-1.9,2.5-3.6c-0.4-1.9-1.5-3.5-3.1-4.5C814.9,295.3,814.2,296.3,814.5,296.9L814.5,296.9z"/>
<path d="M820.1,283.4c1.2,0.6,2.6,1.1,3.9,1.5c1.2,0.4,2.5,0.9,3.6,1.6c1.1,0.6,2,1.5,2.8,2.5c0.4,0.5,1.9,2.8,0.6,3
	s-2.8-0.8-3.9-1.2c-1.5-0.6-3.1-1-4.7-1.3c-3.3-0.6-6.7-0.6-10,0c-1.5,0.2-0.9,2.6,0.6,2.4c4.6-0.8,9.3-0.4,13.7,1.2
	c1.1,0.5,2.4,0.9,3.6,1.2c1.1,0.2,2.2-0.1,2.9-1c0.8-1.1,0.5-2.5-0.1-3.7c-1.1-2.1-2.7-3.7-4.8-4.8c-2.2-1.3-5.2-2.7-7.8-2.7
	c-0.4,0-0.8,0.4-0.8,0.8C819.8,283.1,819.9,283.3,820.1,283.4L820.1,283.4z"/>
<path d="M818.6,277c1.6,0.6,3.6,0.2,5.3,0.4c1.8,0.2,3.5,0.6,5.2,1.3c1.4,0.5,2.6,1.2,3.7,2.2c0.5,0.5,1,1,1.4,1.5
	c0.3,0.5,1,1.4,0.9,2c-0.2,0.7,0.3,1.3,0.9,1.5c0.6,0.1,1.2-0.2,1.4-0.8c0.5-1.8-0.9-3.6-2-4.9c-1.3-1.3-2.8-2.4-4.5-3.1
	c-1.8-0.8-3.8-1.3-5.8-1.4c-2-0.2-4.6-0.8-6.6-0.1c-0.4,0.1-0.6,0.6-0.5,1C818.2,276.8,818.4,277,818.6,277L818.6,277z"/>
<path d="M818.9,269.6c1.6,0.5,3.5,0,5.1,0.1c1.7,0.1,3.3,0.5,4.9,1.1c1.3,0.4,2.4,1,3.5,1.9c0.5,0.4,1,0.9,1.5,1.5
	c0.2,0.3,1,1.3,1,1.7c-0.3,1.5,2.1,2.2,2.3,0.6c0.3-1.8-1-3.5-2.2-4.6c-1.2-1.2-2.7-2.2-4.3-2.9c-1.8-0.7-3.7-1.1-5.7-1.2
	c-2-0.1-4.4-0.5-6.3,0.4C818,268.5,818.3,269.5,818.9,269.6L818.9,269.6z"/>
<path d="M789,269.1c1.9-0.5,3.7-1.3,5.4-2.2c1.9-0.8,3.7-1.8,5.7-2.5c3.6-1.3,7.4-2.3,11.2-2.9c3.6-0.6,7.3-0.6,10.9,0.1
	c1.8,0.3,3.6,0.8,5.3,1.5c1.2,0.5,3.8,1.4,4,2.8s2.6,0.9,2.3-0.6c-0.3-1.8-2.2-2.8-3.7-3.5c-1.7-0.9-3.5-1.5-5.3-2
	c-3.9-1-8-1.2-12-0.8c-4.3,0.5-8.4,1.6-12.4,3.2c-1.9,0.8-3.9,1.4-5.8,2.3c-2.2,0.8-4.2,1.8-6.2,3.1c-0.4,0.2-0.5,0.7-0.3,1.1
	C788.3,269,788.6,269.2,789,269.1L789,269.1z"/>
<path class="st4" d="M544.9,301.8c66-39.3,143.2-55.4,219.4-45.8c6.5,0.8,13.3,2,18.6,6c1,1,2.2,1.7,3.5,2.2c1.4,0.4,2.9,0,4.3,0.3
	c3.5,0.8,4.7,5.1,4.8,8.7c0.2,4.8-0.5,9.5-1.9,14.1c-0.7,2.4-1.8,4.9-3.8,6.4s-5.2,1.7-6.8-0.3c-4.1,7.3-13.8,8.8-22.1,9.5
	c-27.1,2.4-54.2,4.9-80.6,11.2S628,330.7,606.3,347c-8.3,6.3-16,13.5-25.1,18.6s-19.9,8.2-30,5.4"/>
<path d="M545.3,302.4c16.8-9.9,34.3-18.4,52.5-25.3c18.1-6.9,36.7-12.2,55.6-16c19-3.8,38.3-6,57.6-6.6c9.7-0.3,19.4-0.1,29.1,0.4
	c9.7,0.4,19.3,1.4,28.8,3c4.5,0.8,9,2,12.7,4.7c1.8,1.3,3.3,2.8,5.7,3c2.1,0.2,4-0.2,5.4,1.7c1,1.5,1.6,3.3,1.6,5.2
	c0.2,2.5,0.1,5-0.2,7.4c-0.3,2.7-0.9,5.3-1.8,7.8c-0.7,1.9-1.6,4.1-3.4,5.2c-1.5,1.1-3.6,0.9-4.9-0.4c-0.5-0.5-1.3-0.5-1.8,0
	c-0.1,0.1-0.1,0.2-0.2,0.2c-3.3,5.7-10.1,7.5-16.1,8.4c-3.8,0.6-7.7,0.8-11.5,1.1c-4.5,0.4-8.9,0.8-13.4,1.2
	c-17.8,1.6-35.5,4.1-53,7.6c-16,3.2-31.7,8-46.8,14.3c-14.8,6.3-28.6,14.6-41.2,24.6c-12.2,9.8-25.8,21.5-42.6,20.4
	c-1.9-0.1-3.8-0.5-5.6-1c-0.8-0.2-1.7,0.3-1.9,1.1s0.3,1.7,1.1,1.9l0,0c16.4,4.5,32-4.9,44.3-14.7c6.5-5.2,12.8-10.5,19.8-15.1
	c6.8-4.5,13.9-8.5,21.3-12c15-7,30.6-12.3,46.8-15.8c17.8-4.1,35.9-6.5,54.1-8.4c8.7-0.9,17.5-1.5,26.2-2.5
	c6.2-0.7,13.1-1.9,17.9-6.3c1.1-1.1,2.1-2.3,2.9-3.7l-1.9,0.2c2.9,3.2,7.8,1.7,10.1-1.3c1.3-1.9,2.3-4,2.8-6.2
	c0.7-2.5,1.2-5.1,1.5-7.8c0.4-4.1,0.7-9.3-1.8-12.9c-1-1.5-2.6-2.5-4.5-2.8c-1.2-0.1-2.5,0.1-3.7-0.2c-1.1-0.5-2.1-1.1-3-2
	c-3.9-2.8-8.3-4.6-13-5.3c-4.8-0.9-9.8-1.4-14.7-1.9c-10.2-1.1-20.3-1.6-30.5-1.8c-40.7-0.4-81.1,6.4-119.4,20
	c-19.1,6.8-37.6,15.2-55.2,25.4c-2.1,1.2-4.2,2.5-6.3,3.8c-0.4,0.2-0.5,0.7-0.3,1.1C544.4,302.5,544.9,302.6,545.3,302.4
	L545.3,302.4z"/>
<path class="st7" d="M784.7,265c0.6,4.1,0.6,8.2,0.1,12.3c-0.5,4-1.5,8-2,12c-0.1,0.9,1.3,1,1.6,0.2c0.6-2.2,1-4.3,1.3-6.5
	c0.3-2,0.6-3.9,0.8-5.9c0.5-4.1,0.3-8.3-0.5-12.4C785.9,263.8,784.6,264.2,784.7,265L784.7,265z"/>
<path class="st2" d="M889.5,429.9c3.5,15.2,13.3,34.6,23.2,46.6c0.9,1.1,2,2.3,3.4,2.3c1-0.1,2-0.6,2.8-1.3
	c7.8-5.9,15.3-12.1,22.5-18.8c16.4-15.3,31.7-34.2,33.5-56.6c1-11.7-1.8-23.4-6-34.4c-6.5-17.2-16.3-33-28.7-46.5
	c-7.3-7.9-15.7-15.2-20.9-24.6c-5.4-9.7-7.9-21.9-17.3-27.7c-6.4-3.9-14.4-3.7-21.9-2.9c-4.1,0.5-9.4,2.5-9,6.6
	c5.5-0.8,11.1-0.3,16.4,1.6c-5.2-0.6-10.6-0.4-15.8,0.5c-1.2,0.2-2.1,1.3-2,2.5c0.2,1.2,1.1,1.4,2,1.6l17.3,4.1
	c-4.5-1.3-9.1-2.2-13.8-2.6c-1.4-0.3-2.8-0.1-4.1,0.4c-1.2,0.6-2.1,2.3-1.4,3.5c0.5,0.7,1.2,1.2,2,1.4l12.6,5.2
	c-3.4-1.4-6.9-2.6-10.5-3.5c-1.2-0.3-2.7-0.6-3.6,0.8c-0.8,1.3-0.6,2.9,0.4,4c3.8,4.5,8.7,8.1,14.1,10.4c3.1,1.3,5.8,3.6,7.7,6.4
	c8.2,12.8,11.7,27,16.8,40.8c2.7,7.3,4.5,14.9,7.2,22.3c3.1,8.5,7.3,16.5,12.5,23.9C917.5,407.3,900.7,418.7,889.5,429.9"/>
<path d="M869.9,292.8c3.5,4.3,7.8,7.8,12.8,10.2c1.6,0.7,3.2,1.5,4.7,2.5c3.2,2.3,5.1,5.8,6.9,9.2c1.9,3.5,3.5,7.2,5,10.9
	c3,7.5,5.3,15.1,8,22.7c2.9,8,5,16.2,7.9,24.1c3.2,8.6,7.4,16.7,12.6,24.2l0.2-1.3c-12.3,12.1-27,21.6-39.3,33.8
	c-0.9,0.9,0.5,2.3,1.4,1.4c12.3-12.1,27-21.5,39.4-33.7c0.3-0.3,0.4-0.9,0.2-1.3c-4.7-6.7-8.6-14-11.6-21.6c-3.1-8.1-5-16.5-8-24.6
	c-2.8-7.5-5.1-15.2-8-22.7c-1.4-3.7-3-7.4-4.8-10.9s-3.6-7.2-6.3-10c-2.8-3-6.5-4.2-10-6.2c-3.7-2.1-7.1-4.8-10-8
	C870.4,290.9,869.3,292,869.9,292.8L869.9,292.8z"/>
<path d="M888.7,430.1c2.5,10.7,6.6,21,12.1,30.6c2.6,4.7,5.5,9.3,8.8,13.6c1.3,1.8,2.8,4.2,5,5.2c2.6,1.1,4.8-1,6.7-2.5
	c9.8-7.4,19.1-15.6,27.7-24.4c7.6-7.8,14.5-16.4,19.6-26.1c5.3-9.9,7.9-21.1,7.4-32.3c-0.7-12.3-4.7-24.1-9.8-35.3
	c-4.8-10.6-10.8-20.6-18-29.7c-3.6-4.5-7.4-8.9-11.5-13c-4.2-4.1-8.1-8.4-11.8-12.9c-3.3-4.3-6-9-8.1-14c-2-4.5-3.8-9-6.4-13.1
	c-2.5-4.1-6.2-7.4-10.6-9.4c-5.2-2.2-11-2.4-16.5-2c-2.8,0.1-5.7,0.6-8.3,1.5c-1.2,0.5-0.7,2.4,0.5,1.9c2.8-1,5.7-1.5,8.6-1.5
	c2.7-0.2,5.3-0.1,8,0.1c5.2,0.5,10,2.9,13.5,6.6c6.4,7,8.5,16.8,13.3,24.8c5.7,9.5,14.3,16.8,21.6,25c7.5,8.4,14,17.6,19.4,27.5
	c5.7,10.2,9.9,21.2,12.5,32.6c2.5,11.2,1.8,22.8-2,33.6c-7.4,20.6-24.2,36.7-40.5,50.4c-2.3,1.9-4.6,3.8-7,5.7c-1.3,1-2.6,2-3.9,3
	c-1,0.8-2.4,2.1-3.7,1.5c-0.9-0.6-1.7-1.4-2.3-2.3c-0.8-1-1.6-2-2.3-3c-1.5-2.1-3-4.3-4.4-6.5c-5.8-9.1-10.5-18.9-14-29.1
	c-0.8-2.2-1.4-4.5-2-6.8C890,428.7,888.5,429.1,888.7,430.1L888.7,430.1z"/>
<path d="M870.7,274.8c3.3,0,6.7,0,10,0.1c3,0.1,6.3-0.1,8.9,1.4c0.4,0.3,1,0.1,1.3-0.3c0.3-0.4,0.1-1-0.3-1.3l0,0
	c-2.8-1.6-6-1.5-9.1-1.5c-3.6,0-7.2,0-10.8,0.3c-0.4,0-0.7,0.4-0.6,0.8C870.2,274.5,870.4,274.7,870.7,274.8L870.7,274.8z"/>
<path d="M872.5,280.6c3,0,6,0.3,8.9,0.9c1.4,0.3,2.8,0.5,4.2,0.9c1.2,0.2,2.3,0.8,3.2,1.7c0.8,0.9,2-0.4,1.3-1.3
	c-0.9-0.9-2-1.6-3.2-1.9c-1.5-0.4-3.1-0.8-4.6-1c-3.2-0.5-6.5-0.7-9.7-0.6c-0.4,0-0.7,0.3-0.7,0.7
	C871.8,280.2,872.1,280.5,872.5,280.6L872.5,280.6z"/>
<path d="M872.3,287.2c2.4,0.3,4.8,0.8,7,1.7c1.1,0.4,2.2,0.9,3.2,1.5c1.1,0.6,2,1.4,3.1,2c0.4,0.2,0.9,0.1,1.1-0.3
	c0.2-0.3,0.1-0.7-0.1-1c-0.9-0.9-2-1.6-3.2-2.2c-1.1-0.6-2.3-1.2-3.6-1.7c-2.4-0.9-5-1.4-7.6-1.6
	C871.3,285.7,871.4,287.1,872.3,287.2L872.3,287.2z"/>
<path class="st2" d="M279.3,444.3c0.3-6.1-1.6-12.5,0.6-18.3c2.5-6.5,9.7-10,16.5-10.9c1.6-0.2,3.7-0.1,4.4,1.5
	c0.5,1.3-0.4,2.6-1.3,3.7c-1.8,2.1-3.9,4-6.1,5.7c-0.7,0.5-1.8,1-2.4,0.4c0.9-1,2.5-0.1,3.3,0.9c3.1,3.7,4.3,8.7,3,13.3"/>
<path d="M280,444.3c0.4-7.2-2.4-15.6,2.9-21.7c2.1-2.3,4.8-4.1,7.8-5.1c1.5-0.5,3-1,4.6-1.3c1.2-0.2,3.2-0.7,4.3,0.2
	c1.8,1.4-1.9,4.5-2.8,5.4c-0.5,0.5-4.3,4.5-5,3.8v1.4c1-0.8,2.6,1.6,3,2.2c0.7,1.1,1.2,2.2,1.6,3.4c0.7,2.5,0.8,5.1,0.1,7.6
	c0,0.6,0.5,1,1,1c0.3,0,0.6-0.2,0.8-0.5c1-3.6,0.7-7.3-0.9-10.7c-1-2.2-4.1-7-7-4.5c-0.4,0.4-0.4,1,0,1.3c0,0,0,0,0,0
	c1.7,1.4,3.4-0.1,4.7-1.2c1.9-1.6,3.7-3.3,5.3-5.2c1.2-1.4,2.1-3.4,0.8-5.1c-1.1-1.4-3-1.5-4.6-1.3c-7.7,0.9-16.1,5.3-18,13.3
	c-1.3,5.5,0.3,11.2,0,16.8C278.7,445.2,280,445.2,280,444.3L280,444.3z"/>
<path class="st2" d="M284.5,394c1.9-0.1,3.3-1.8,3.2-3.7c-0.1-1.2-0.7-2.2-1.8-2.8c-0.4-0.2-0.9-0.1-1.1,0.3c0,0,0,0,0,0
	c-1,1.9-0.2,4.3,1.8,5.2c0.4,0.2,0.8,0.3,1.2,0.4c2.9,0.3,4.8-2.7,4.3-5.3c-0.2-1-1.7-0.7-1.7,0.2c-0.1,2,2.5,2.5,3.8,1.5
	c1-0.8,1.2-2.1,1.8-3.2c0.8-1.4,2.2-2.3,3.4-3.3c5.5-4.4,10.9-8.9,16.4-13.3c0.8-0.6-0.3-1.7-1.1-1.1c-4.4,3.5-8.8,6.9-13.1,10.4
	c-2.1,1.5-4.1,3.1-6,4.9c-0.7,0.7-1.3,1.5-1.6,2.5c-0.2,0.6-0.4,1.2-0.8,1.7c-0.2,0.2-1.1,0.6-1.1,0l-1.7,0.2
	c0.3,1.4-0.7,3.2-2.3,3.1c-1.2-0.1-2.1-1.2-2-2.4c0-0.2,0.1-0.5,0.2-0.7l-1.1,0.3c0.9,0.5,1.3,1.5,0.8,2.4c-0.3,0.5-0.8,0.9-1.4,1
	C283.5,392.5,283.5,394.1,284.5,394L284.5,394z"/>
<path class="st2" d="M302.7,403.6c7.8-7.3,16-14.2,24.6-20.6c0.8-0.6,0-1.9-0.8-1.3c-8.7,6.5-16.9,13.5-24.8,21
	C301.1,403.3,302.1,404.3,302.7,403.6L302.7,403.6z"/>
<path class="st2" d="M311,419c6.2-5.2,12.4-10.3,18.6-15.5l-1.4-0.8c-0.3,2.2,2.1,2.8,3.6,1.6c1-0.9,2-1.9,2.9-3
	c1-1.2,2.1-2.4,3-3.7c0.6-0.8-0.7-1.8-1.3-1c-1,1.2-2,2.5-3,3.7c-0.5,0.5-0.9,1.1-1.4,1.6c-0.2,0.3-0.5,0.5-0.7,0.8
	s-1.5,1.1-1.4,0.5c0.1-0.4-0.1-0.9-0.6-1c-0.3-0.1-0.6,0-0.8,0.2c-6.2,5.2-12.3,10.5-18.5,15.7C309.4,418.7,310.4,419.6,311,419
	L311,419z"/>
<path class="st2" d="M315.2,440.9c-0.8,1.9,1.4,3.5,3.2,2.9c2.7-0.9,2.4-4.3,2.9-6.5l-1.6-0.4c-0.2,1.3,0.7,2.6,2,2.8
	c0.5,0.1,1,0,1.5-0.2c1-0.5,1.7-1.3,2.1-2.3c0.2-0.6,0.4-1.3,0.6-1.9c0.1-0.4,0.3-0.9,0.6-1.1c0.5-0.4,0.4-0.2,1-0.2
	c2.6-0.1,4.7-2.6,6.5-4.2c2.5-2.2,5.1-4.4,7.6-6.5c0.8-0.7-0.3-1.7-1.1-1.1c-1.9,1.5-3.8,3.1-5.7,4.7c-1.8,1.7-3.8,3.3-5.8,4.7
	c-0.5,0.3-1,0.5-1.5,0.6c-0.5,0-0.9-0.1-1.3,0c-0.8,0.1-1.4,0.7-1.6,1.4c-0.5,1-0.6,2.1-1,3.2c-0.2,0.5-0.5,0.9-1,1.2
	c-0.6,0.3-1.4,0-1.3-0.7c0.1-0.9-1.5-1.1-1.6-0.2c-0.1,1.3-0.3,2.6-0.5,3.9c-0.2,0.6-0.5,1.2-1,1.5c-0.7,0.4-1.8-0.1-1.5-1
	S315.5,440,315.2,440.9L315.2,440.9z"/>
<g>
	<path class="st2" d="M825.3,236.1c3.6,3.2,9.2,2.9,12.4-0.7c0.7-0.8,1.2-1.6,1.6-2.5l-1.7-0.2c0.1,2.5,3,3.3,5,2.5
		c1.5-0.6,2.5-1.9,3.9-2.6c1.7-0.9,4-0.4,5.9-0.2c2,0.2,4,0.7,5.9,1.5c1.5,0.7,2.9,1.6,4.5,2.2c3.5,1.3,6.6,0.1,9.7-1.6
		c1-0.5,0.1-2-0.9-1.5c-1.4,0.8-2.9,1.5-4.5,1.8c-1.6,0.2-3.3-0.1-4.7-0.9c-2.8-1.4-5.2-2.8-8.4-3.3c-2.8-0.4-6.2-1.1-8.7,0.4
		c-1,0.8-2.1,1.6-3.1,2.3c-0.8,0.4-2.8,0.6-2.8-0.7c0-0.5-0.4-0.9-0.9-0.8c-0.4,0-0.7,0.3-0.8,0.6c-1.5,3.7-5.7,5.5-9.5,4
		c-0.7-0.3-1.4-0.7-2-1.2C825.6,234.6,824.6,235.5,825.3,236.1L825.3,236.1z"/>
	<path class="st2" d="M875.3,235.5c0.5-0.2,0.8-0.7,0.7-1.3c-0.1-0.3-0.3-0.6-0.7-0.7c-0.5,0.2-0.8,0.7-0.7,1.3
		C874.7,235.2,875,235.4,875.3,235.5z"/>
	<path class="st2" d="M831.9,253.6c0.4,0,0.7-0.3,0.7-0.7c0-0.4-0.3-0.7-0.7-0.7s-0.7,0.3-0.7,0.7
		C831.1,253.3,831.5,253.6,831.9,253.6z"/>
	<path class="st2" d="M839,253.1c1.1,1.7,3.2,2.6,5.2,2.2c2.5-0.3,4.5-1.9,6.8-2.9c3.1-1.3,6-0.1,8.9,1c2.9,1.2,5.9,1.7,9,1.6
		c1.3-0.1,1.3-2,0-2c-2.8,0.1-5.7-0.4-8.3-1.4c-2.5-0.9-5.1-2-7.8-1.7c-2.4,0.3-4.3,1.8-6.5,2.9c-1.8,0.9-4.7,1.5-6-0.5
		c-0.2-0.4-0.7-0.5-1-0.3S838.8,252.7,839,253.1L839,253.1z"/>
	<path class="st2" d="M847.5,269.4c3.1-0.4,6.3-0.6,9.5-0.4c0.4,0,0.8-0.4,0.8-0.8c0-0.4-0.4-0.8-0.8-0.8c-3.3-0.3-6.6-0.1-9.8,0.7
		C846.3,268.3,846.7,269.6,847.5,269.4z"/>
</g>
</svg>
