<?xml version="1.0" encoding="utf-8"?>
<!-- Generator: Adobe Illustrator 26.2.1, SVG Export Plug-In . SVG Version: 6.00 Build 0)  -->
<svg version="1.1" id="Capa_1" xmlns="http://www.w3.org/2000/svg" xmlns:xlink="http://www.w3.org/1999/xlink" x="0px" y="0px"
	 viewBox="0 0 1000 1000" style="enable-background:new 0 0 1000 1000;" xml:space="preserve">
<style type="text/css">
	.st0{fill:#3F67AE;}
	.st1{fill:#002F6C;}
	.st2{fill:#3CB037;stroke:#23751C;stroke-width:4;stroke-miterlimit:10;}
	.st3{fill:#205493;}
	.st4{fill:#E73164;}
</style>
<path d="M641.4,451.8c-12.8,2.7-17.2,17.4-20.1,28.4c-1.8,6.7-3.1,13.6-3.9,20.6c-0.8,6.8-0.9,13.6-1.2,20.3
	c-0.4,7.4-1.2,14.9-4.1,21.8c-0.1,0.5,0.1,1.1,0.5,1.3c1.2,0.8,2.8,0.7,3.9-0.2c1.1-1.1,1.1-2.7-0.7-3.2c-1.7-0.4-3.5,1.2-4.7,2.1
	c-1.9,1.3-3.7,2.6-5.5,4c-6.5,4.9-12.6,10.3-18.9,15.5c-4,3.2-8.1,6.3-12.4,9.2c-1.3,0.9-0.1,2.9,1.2,2.1c6.9-4.8,13.6-10,20-15.5
	c3.1-2.6,6.2-5.2,9.3-7.7c1.8-1.4,3.6-2.8,5.4-4.1c0.9-0.7,1.9-1.4,2.9-2c0.4-0.3,0.8-0.6,1.3-0.9c0.4-0.3,0.9-0.3,0.7-0.5v-1.2
	c-0.1,0.4-0.5,0.7-0.9,0.6c-0.1,0-0.3-0.1-0.4-0.2l0.5,1.3c5-11.9,3.9-25.1,4.9-37.7c0.5-6.8,1.5-13.5,3-20.1
	c1.3-6.4,3.2-12.8,5.7-18.8c2.7-6.1,7.1-11.9,13.8-13.8c0.4-0.1,0.6-0.5,0.5-0.8C642.1,451.8,641.8,451.6,641.4,451.8L641.4,451.8
	L641.4,451.8z"/>
<path class="st0" d="M700.4,664.9c8.3,22.4,19.2,43.7,32.3,63.7c11,16.7,26.3,33.7,46.2,33.9c14.1,0.1,26.7-8.3,37.7-17.1
	c30.3-24.1,56.5-53,77.6-85.4c5.5-8.5,12-18.2,22.1-19.5c1.4,0,2.8-0.3,4.1-0.9c4.2-2.4,1.3-8.9-2.1-12.3c-4.6-4.6-9.5-9-14.6-13
	c-2.3-1.8-4.7-3.5-7.6-3.9c-6.8-0.9-11.9,5.9-16.1,11.3c-22.2,28.3-61.5,36.4-89.3,59.3c-4.2-30.5-19.1-58.3-33.7-85.4l-28.2,27.9
	c-3.4,3.4-11.8,8.2-9.1,12.2c4.4,6.6,1.1,11.9-0.6,17.7c-1.7,5.8-4.4,13.1-10.6,12.9"/>
<path class="st0" d="M699.7,665.1c6.4,17.6,14.4,34.5,23.9,50.6c8.2,14.1,17.4,28.6,30.5,38.6c5.9,4.7,12.8,7.8,20.2,9
	c8.2,1.1,16.3-0.8,23.8-4.3c7.9-3.8,14.9-9.2,21.6-14.6c6.8-5.5,13.6-11.4,20-17.5c13-12.2,25-25.4,36-39.4
	c5.5-6.9,10.7-14,15.6-21.3c4.4-6.5,8.3-13.6,14.1-19c2.6-2.6,5.8-4.4,9.3-5.3c3.3-0.8,7.5-0.4,8.6-4.3c0.9-3-0.7-6.4-2.5-8.8
	c-2.5-3.4-6-6.3-9.1-9.1c-3.3-3.1-6.8-5.9-10.6-8.4c-3.1-2.1-7-2.5-10.5-1.2c-3.4,1.4-6.1,4.1-8.4,6.9c-2.3,2.8-4.6,5.9-7.2,8.7
	c-10.2,11-23.3,18.8-36.4,25.7c-13.5,7.1-27.4,13.6-40.1,22.2c-3,2.1-6,4.2-8.8,6.6l1.9,0.5c-3.4-23.9-13.2-46.3-24.2-67.6
	c-3.2-6.1-6.4-12.1-9.6-18.2c-0.3-0.6-1.1-0.7-1.6-0.4c-0.1,0-0.1,0.1-0.2,0.2l-16.7,16.5c-4.8,4.8-9.5,9.9-14.7,14.2
	c-2.8,2.2-8.4,6.2-6.3,10.4c0.8,1.2,1.4,2.5,1.9,3.9c0.4,1.6,0.5,3.2,0.2,4.8c-0.5,2.8-1.6,5.5-2.5,8.2c-1.4,4.7-3.4,12.5-9.6,12.5
	c-0.6,0.1-1.1,0.6-1,1.3c0.1,0.6,0.5,1,1,1c5.4,0,8.4-4.7,10.2-9.2c1.1-2.6,1.7-5.3,2.7-8s1.9-5.6,1.7-8.5c-0.1-1.4-0.4-2.9-1-4.2
	c-0.4-0.9-0.9-1.7-1.4-2.5c-0.2-0.3-0.4-0.8-0.4-1.2c0.1-2,2.5-3.9,3.9-5.1c1.9-1.6,3.9-3.2,5.7-4.9c2.9-2.8,5.7-5.6,8.5-8.4
	l19.3-19.1l-1.8-0.2c11.3,21,22.8,42.4,29.4,65.5c1.9,6.5,3.3,13,4.2,19.7c0.1,1,1.4,1,1.9,0.5c11.4-9.4,24.6-16.2,37.7-22.9
	c13.1-6.7,26-13.3,37.4-22.3c5.6-4.5,10.6-9.6,15-15.2c2.3-2.9,4.6-5.9,7.7-8c3-2.2,7.1-2.4,10.3-0.4c3.8,2.2,7.2,5.4,10.5,8.3
	c1.7,1.5,3.4,3,5,4.6c1.5,1.3,2.8,2.7,4,4.3c1.4,2,3.7,6.4,0.9,8.3c-1.6,1.1-3.8,0.8-5.6,1.2c-1.7,0.4-3.2,0.9-4.7,1.7
	c-6.3,3.2-10.8,9.3-14.6,15.1c-4.7,7-9.3,14-14.3,20.8c-10.3,13.9-21.5,26.9-33.7,39.2c-6,6.1-12.2,11.9-18.7,17.6
	c-6.4,5.7-13.1,11.1-20,16.1c-6.9,4.8-14.4,9.1-22.7,10.7c-7.5,1.4-15.3,0.3-22.1-3c-13.9-6.7-23.8-19.8-32-32.5
	c-9.9-15.3-18.4-31.4-25.5-48.1c-1.7-4.1-3.5-8.3-5.1-12.4C700.8,663.8,699.4,664.2,699.7,665.1L699.7,665.1z"/>
<path class="st0" d="M678.1,581.5c-7,0.7-14.2,1.1-21-0.4c-6,10.8-15.3,19.7-24.6,28c-33.4,30.1-69.9,59.5-87.6,100.8
	c-6.6,15.3-10.3,31.6-13.9,47.8c-7.8,34.5-9.7,81.4-17.5,115.9c-3.2,14.3-11.4,20.2-22.2,28.4c-1.9,1.5-2.3,4.2-0.9,6.1
	c0.7,0.9,1.7,1.5,2.8,1.7c1.5,0.2,2.9,0.2,4.4,0.2l22.6-0.3c7.1-0.1,20.2,0.1,27.1,0.2c3.3,0.1,6.1-2.3,6.6-5.5
	c1.2-8.2-1.5-20.7-0.7-27c2.1-17.6,11.9-33.2,20.6-48.6c17.7-31.6,31.6-65.2,41.4-100.1c0.8-2.8,1.6-5.7,3.3-8
	c1.9-2.5,4.8-4.2,7.6-5.7l53-29.5c2.9-1.6,6-3.3,8-6.1c2-2.7,2.8-6.1,3.5-9.4c2.3-10.8,4.4-23-2.5-31.9c-1.3-1.7-2.3-3.6-3-5.6
	c-0.8-2.9-0.7-3.5,0.7-6.2c0.9-1.8,11.6-9.6,12.5-11.4c1.4-2.6-5.9-0.6-2.7-7.8c4.2-9.3,13.8-10.9,23.3-30.2
	c0.6-1.4,0.8-2.8,0.8-4.3C706.1,577,692.2,579.9,678.1,581.5L678.1,581.5z"/>
<path class="st0" d="M504.1,456.6c0-11.9-1.5-23.8-4.4-35.3l-0.5,1.9l31.5-25.7l4.5-3.6c0.6-0.6,0.8-1.6,0.3-2.4L524.8,373l-17-29.5
	l-3.9-6.8c-0.5-0.8-1.4-1.1-2.2-0.9l-38.1,14.5l-5.4,2l1.9,0.5C443,336.2,422,324.1,399,317.5l1.4,1.4l-6.5-40.2l-0.9-5.7
	c-0.2-0.9-1-1.4-1.9-1.5h-63.1c-0.9,0-1.7,0.6-1.9,1.5l-6.5,40.2l-0.9,5.7l1.4-1.4c-23,6.6-44,18.7-61.2,35.3l1.9-0.5l-38.1-14.5
	l-5.4-2c-0.9-0.2-1.8,0.1-2.2,0.9l-10.7,18.5l-17,29.5l-3.9,6.8c-0.4,0.8-0.3,1.8,0.3,2.4l31.5,25.7l4.5,3.6l-0.5-1.9
	c-5.8,23.2-5.8,47.5,0,70.7l0.5-1.9l-31.5,25.7l-4.5,3.6c-0.6,0.6-0.8,1.6-0.3,2.4l10.7,18.5l17,29.5l3.9,6.8
	c0.5,0.8,1.4,1.1,2.2,0.9l38.1-14.4l5.4-2l-1.9-0.5c17.2,16.6,38.2,28.7,61.2,35.3l-1.4-1.4l6.5,40.2l0.9,5.7c0.2,0.9,1,1.4,1.9,1.4
	H391c0.9,0,1.7-0.6,1.9-1.4l6.5-40.2l0.9-5.7l-1.4,1.4c23-6.6,44-18.7,61.2-35.3l-1.9,0.5l38,14.4l5.4,2c0.9,0.2,1.8-0.1,2.2-0.9
	l10.7-18.4l17-29.5l3.9-6.8c0.4-0.8,0.3-1.8-0.3-2.4l-31.5-25.8l-4.5-3.6l0.5,1.9C502.6,480.4,504.1,468.5,504.1,456.6
	c0-1.1-0.9-2-2-2c-1.1,0-2,0.9-2,2c0,11.6-1.4,23.1-4.2,34.3c-0.2,0.7,0,1.4,0.5,1.9l31.6,25.7l4.5,3.6l-0.3-2.4l-10.7,18.5
	l-17,29.5l-4,6.8l2.2-0.9l-38.1-14.5l-5.4-2c-0.7-0.2-1.4,0-1.9,0.5c-16.7,16.1-37.1,27.9-59.4,34.3c-0.7,0.2-1.2,0.7-1.4,1.4
	l-6.6,40.2l-0.9,5.7l1.9-1.4h-63.1l1.9,1.4l-6.5-40.2l-0.9-5.7c-0.2-0.7-0.7-1.2-1.4-1.4c-22.3-6.4-42.7-18.2-59.4-34.3
	c-0.5-0.5-1.2-0.7-1.9-0.5l-38.1,14.4l-5.4,2l2.2,0.9L207.7,556l-17-29.5l-3.9-6.8l-0.3,2.4l31.6-25.7l4.5-3.6
	c0.5-0.5,0.7-1.2,0.5-1.9c-5.6-22.5-5.6-46.1,0-68.6c0.2-0.7,0-1.4-0.5-1.9L191,394.6l-4.5-3.6l0.3,2.4l10.6-18.4l17-29.5l3.9-6.8
	l-2.2,0.9l38.1,14.4l5.4,2c0.7,0.2,1.4,0,1.9-0.5c16.7-16.1,37.1-27.9,59.4-34.3c0.7-0.2,1.2-0.7,1.4-1.4l6.5-40.2l0.9-5.7l-1.9,1.5
	H391l-1.9-1.5l6.5,40.2l0.9,5.7c0.2,0.7,0.7,1.2,1.4,1.4c22.3,6.4,42.7,18.2,59.5,34.3c0.5,0.5,1.2,0.7,1.9,0.5l38.1-14.5l5.4-2
	l-2.2-0.9l10.7,18.5l17,29.5l3.9,6.8l0.3-2.4l-31.5,25.7l-4.5,3.6c-0.5,0.5-0.7,1.2-0.5,1.9c2.8,11.2,4.2,22.8,4.2,34.3
	C500.2,459.1,504.1,459.1,504.1,456.6L504.1,456.6z"/>
<path class="st0" d="M502.1,456.6c0-11.7-1.4-23.5-4.3-34.8l36-29.3l-31.6-54.7l-43.5,16.5c-16.9-16.4-37.7-28.4-60.3-34.8
	l-7.4-45.8h-63.1l-7.4,45.8c-22.7,6.4-43.4,18.4-60.3,34.8l-43.4-16.5l-31.6,54.7l36,29.3c-5.7,22.9-5.7,46.8,0,69.7l-36,29.4
	l31.6,54.7l43.4-16.5c16.9,16.4,37.6,28.4,60.2,34.8l7.4,45.9H391l7.4-45.9c22.7-6.4,43.4-18.4,60.3-34.8l43.5,16.5l31.6-54.7
	l-36-29.4C500.7,480,502.1,468.3,502.1,456.6L502.1,456.6z M359.5,404.4c28.8,0,52.2,23.4,52.2,52.2c0,28.8-23.4,52.2-52.2,52.2
	c-28.8,0-52.2-23.4-52.2-52.2C307.2,427.7,330.6,404.4,359.5,404.4z"/>
<path class="st1" d="M270.8,142.5c-4.9-6.4-10.6-12.1-16.9-17.1l7.2-30.9L221.4,78l-16.7,27c-16-1.9-32.2,0.3-47.2,6.2l-23.1-21.8
	l-34.2,26.3l15,27.9c-9.6,12.9-15.9,28-18.2,44l-30.4,9.1l5.6,42.8l31.7,1c6.4,14.8,16.4,27.8,29,37.8l-7.2,30.9l39.9,16.5l16.7-27
	c16,1.9,32.2-0.3,47.2-6.2l23.1,21.8l34.2-26.3l-15-27.9c9.6-12.9,15.9-28,18.2-44l30.4-9.1l-5.6-42.8l-31.7-1
	C279.8,155.8,275.7,148.9,270.8,142.5L270.8,142.5z"/>
<path class="st2" d="M211.3,615.9c-5.6,0-11.2,0.7-16.7,2.1l-14.1-17.2l-26.2,15.1l7.9,20.8c-7.8,8.1-13.6,18-16.7,28.8l-21.9,3.6
	v30.2l21.9,3.6c3.1,10.8,8.8,20.7,16.7,28.8l-7.9,20.8l26.1,15.1l14-17.2c10.9,2.7,22.4,2.7,33.3,0l14.1,17.2l26.2-15.1l-7.9-20.8
	c7.8-8.1,13.6-18,16.7-28.8l21.9-3.6V669l-21.9-3.6c-3.1-10.8-8.8-20.7-16.7-28.8l7.9-20.8L242,600.7L228,617.9
	C222.5,616.6,216.9,615.9,211.3,615.9L211.3,615.9z"/>
<path d="M616.9,386.1c-0.5,4.1-1.3,8.2-2.5,12.2c-0.6,2-1.3,3.9-2.2,5.7c-0.9,1.7-2.3,3.4-1.9,5.5c0.6,1.9,2,3.5,3.9,4.2
	c1.1,0.4,1.9,0.4,1.9,1.7s-0.1,2.8,0,4.2c0.1,2.5,0.6,5,1.3,7.4c0.7,2.2,1.5,4.7,3.2,6.3c4.2,4.1,10.5,1.9,15.7,2.5
	c1.5,0.2,1.4-2.1,0-2.3c-4.3-0.5-10.3,1.5-13.9-1.8c-1.7-1.6-2.4-4.2-3-6.4c-0.6-2.4-1-4.9-1.1-7.4c0-1.8,0.6-4.4-1.1-5.7
	c-1.7-1.3-4-1.1-4.7-3.3c-0.3-1.1,0.3-2,0.8-2.8c0.4-0.7,0.8-1.5,1.2-2.3c0.8-1.7,1.4-3.5,1.9-5.3c1.3-4.2,2-8.5,2.1-12.8
	c0-1.1-1.6-1.1-1.7,0L616.9,386.1z"/>
<path d="M624.8,399.7C624.8,399.7,624.8,399.7,624.8,399.7l-0.1-0.7C624.5,399.2,624.6,399.5,624.8,399.7l0.1,0.2L624.8,399.7
	c0,0,0.1,0.1,0.1,0.2L624.8,399.7c0,0,0.1,0.1,0.1,0.2L624.8,399.7l0.1,0.1L624.8,399.7C624.8,399.6,624.8,399.7,624.8,399.7
	l0.2-0.1C624.9,399.6,624.9,399.6,624.8,399.7l0.2-0.2L624.8,399.7l0.3-0.2c0,0-0.1,0.1-0.2,0.1l0.2-0.1H625h0.3l0.8,0.5
	c0-0.1-0.1-0.2-0.1-0.2c-0.1-0.1-0.2-0.3-0.3-0.4l-0.2-0.1c-0.1-0.1-0.2-0.1-0.4-0.1c-0.1,0-0.2,0-0.3,0c-0.1,0-0.2,0-0.3,0.1
	c-0.1,0.1-0.3,0.2-0.3,0.3c-0.1,0.1-0.1,0.2-0.1,0.3c0,0.1,0,0.3,0,0.4l0.1,0.1c0,0.1,0.1,0.2,0.1,0.3c0,0.1,0.1,0.1,0.2,0.2
	l0.2,0.2c0.1,0.1,0.2,0.2,0.3,0.2c0.1,0,0.2,0.1,0.2,0.1c0.1,0,0.3,0,0.4,0c0.1,0,0.2-0.1,0.3-0.1c0.1-0.1,0.2-0.2,0.3-0.3
	c0.1-0.1,0.2-0.2,0.3-0.4c0-0.1,0.1-0.2,0.1-0.3c0-0.1,0-0.2,0-0.3c0-0.1,0-0.3,0-0.4c0-0.1-0.1-0.3-0.2-0.4
	c-0.1-0.2-0.4-0.4-0.6-0.6l-0.2-0.1c-0.1,0-0.2,0-0.3,0c-0.1,0-0.1,0-0.2,0.1c-0.1,0-0.2,0.1-0.2,0.2l0.7-0.2h-0.3H625l-0.2,0.1
	c-0.1,0.1-0.2,0.2-0.3,0.3c0,0.1,0,0.2,0,0.4C624.6,399.5,624.7,399.6,624.8,399.7L624.8,399.7z"/>
<path d="M622.6,393c0,0.4,0.3,0.7,0.6,0.8c0.4,0.1,0.8,0.1,1.2,0l0.6-0.1c0.1,0,0.2-0.1,0.3-0.1c-0.3,0,0,0,0.1,0c0.4,0,0.8,0,1.2,0
	c0.1,0,0.2,0,0.3,0h0.1c0.3,0.1,0.6,0.1,0.9,0.1c0.6,0,1.1-0.5,1.2-1.1c0.1-0.6-0.3-1.1-0.9-1.3c-0.5-0.1-1-0.2-1.5-0.1
	c-0.5,0-1,0.1-1.5,0.2c-0.5,0.1-0.9,0.2-1.3,0.4l-0.3,0.1h-0.1h0.1c0,0.1-0.4,0-0.1,0s0.2,0-0.1,0c-0.1,0-0.2,0-0.3,0.1l0.8,0.3
	c-0.2-0.3-0.6-0.4-0.9-0.3C622.7,392.3,622.5,392.6,622.6,393L622.6,393z"/>
<path d="M623.6,416.6c0.2-0.1,0.5-0.1,0.7-0.2c0.2-0.1,0.5-0.1,0.7-0.2h-0.2c0.1,0,0.2,0,0.4,0c0.2,0,0.4-0.1,0.6-0.1
	c0.4-0.1,0.6-0.5,0.7-0.9c0-0.2-0.1-0.3-0.1-0.5c-0.1-0.2-0.3-0.3-0.5-0.4c-0.2,0-0.3-0.1-0.5-0.1c-0.2,0-0.3,0-0.5,0.1
	c-0.2,0-0.4,0.1-0.6,0.2c-0.2,0.1-0.5,0.2-0.7,0.3c-0.2,0.2-0.4,0.3-0.6,0.5c-0.2,0.2-0.3,0.6-0.1,0.9c0.1,0.1,0.2,0.2,0.3,0.2
	C623.2,416.7,623.4,416.7,623.6,416.6L623.6,416.6z"/>
<path d="M643.4,399.5c0.8-2,2.8-3.3,5-3.4c2.1,0,4,1.4,4.7,3.4c0.7,2.2,0.3,4.5-1.2,6.3c-0.6,0.8-1.5,1.5-2.4,1.9
	c-1,0.3-2,0.4-3,0.2c-0.6-0.1-1.1,0.4-1.1,0.9c0,0.4,0.2,0.9,0.6,1c2,1.1,4.7,0.1,6.4-1.2c1.9-1.6,3.1-3.8,3.4-6.3
	c0.3-2.4-0.5-4.7-2.2-6.4c-1.7-1.6-4.1-2.3-6.4-1.9c-2.4,0.5-4.4,2.4-5,4.8C641.9,399.6,643,400.2,643.4,399.5L643.4,399.5z"/>
<path d="M648.8,400.4c-0.3,0.1-0.5,0.2-0.7,0.3c-0.2,0.1-0.4,0.3-0.6,0.5c-0.2,0.2-0.4,0.4-0.5,0.6c-0.2,0.2-0.3,0.5-0.4,0.7
	c-0.1,0.2,0,0.5,0.1,0.7c0.1,0.2,0.3,0.3,0.5,0.4c0.2,0.1,0.5,0,0.7-0.1l0.2-0.1c0.1-0.1,0.2-0.2,0.2-0.4l-0.1,0.2
	c0.1-0.3,0.3-0.6,0.5-0.9l-0.1,0.2c0.2-0.2,0.4-0.4,0.6-0.6l-0.2,0.1l0.2-0.2c0.1-0.1,0.2-0.2,0.3-0.3l0.1-0.1
	c0.1-0.1,0.1-0.2,0.1-0.3c0-0.2,0-0.3-0.1-0.5C649.5,400.5,649.1,400.3,648.8,400.4L648.8,400.4z"/>
<path d="M643.3,398.4c-2.6-3.5-2.1-8.6-5-11.8c-0.8-0.9-1.8-1.6-2.6-2.5c-1.6-2.1-1.6-4.9-1.5-7.6c-3.3,2.6-6.9,4.8-10.8,6.4
	c-1.2,0.6-2.5,0.9-3.8,0.9c-1.3,0-2.5-0.8-3.1-2c-0.4-1.1,0.2-2.3,1.3-2.7c0.2-0.1,0.3-0.1,0.5-0.1c-0.8,1-1.9,1.7-3.2,1.9
	c-2.5,0.7-5.5,1.1-7.3-0.8c-1.2-1.4-1.4-3.4-0.6-5.1c0.9-1.6,2.4-2.7,4.2-3.2c-0.8,0.2-2,0.2-2.1-0.7c0-0.4,0.2-0.8,0.6-1.1
	c3.3-3,8.1-3.8,12.6-3.9c3,0,6.1,0.2,9.1,0.6c0.8,0.2,1.7,0.2,2.5,0.2c9-0.8,18,1.5,25.7,6.3c4.9,3.2,8.9,8.4,8.9,14.3
	c-0.1,2.1-0.4,4.3-1,6.3c-1.5,6.1-3.1,12.1-4.9,18c-0.3,1.2-0.8,2.5-1.9,3c-0.8,0.3-1.7,0.3-2.6,0c-3.3-0.8-6-3.7-8.7-5.8
	c3.2-1.5,5.3-3,5.9-6.5c0.7-3.6-1-7.2-4.2-8.9c-3.2-1.5-6.1-0.7-7.4,2.5"/>
<path d="M643.9,398c-2-3.2-1.9-7.3-3.8-10.6c-1.1-1.8-2.9-2.8-4-4.6c-1-1.8-1-4.3-0.9-6.4c0-1-1.1-1.2-1.7-0.7
	c-2.7,2.1-5.6,3.9-8.7,5.4c-1.5,0.8-3.4,1.8-5.2,1.7c-0.7,0-1.4-0.3-1.9-0.8c-0.5-0.6-0.5-2,0.6-2l-0.9-1.5
	c-0.8,1.2-2.6,1.4-3.9,1.7c-1.4,0.4-3,0.3-4.4-0.3c-1.3-0.9-1.8-2.5-1.2-3.9c0.7-1.6,2.1-2.7,3.8-3.1c0.6-0.2,0.9-0.7,0.7-1.3
	c-0.2-0.6-0.7-0.9-1.3-0.7c-0.2,0-0.7,0.2-0.9,0c0.4,0.3,0.9-0.4,1.1-0.5c0.7-0.5,1.4-0.9,2.1-1.2c1.5-0.7,3.1-1.2,4.8-1.4
	c3.6-0.5,7.2-0.5,10.8,0c1.8,0.3,3.6,0.5,5.5,0.5c5.1-0.4,10.3,0.2,15.1,1.7c6.2,1.9,12.7,5.3,16,11.2c1.6,2.9,2.2,6.4,1.5,9.7
	c-0.7,3.9-1.8,7.7-2.9,11.5c-0.6,2.2-1.2,4.3-1.8,6.5c-0.3,1.1-0.6,2.2-1,3.3c-0.2,0.7-0.5,1.7-1.4,2c-1.8,0.5-4-1.1-5.4-2
	c-1.5-1.1-2.9-2.4-4.4-3.6l-0.2,1.8c2.4-1.2,4.7-2.6,5.8-5.2c1.1-2.6,1-5.6-0.2-8.2c-2.5-5.1-10.1-7.1-12.8-1.1
	c-0.6,1.3,1.4,2.5,1.9,1.1c2.1-4.9,7.9-2.3,9.3,1.8c0.7,2,0.5,4.1-0.4,6c-1.1,1.8-2.9,2.7-4.7,3.6c-0.5,0.3-0.7,1-0.4,1.5
	c0,0.1,0.1,0.2,0.2,0.2c2.9,2.3,5.6,5.4,9.4,6.2c1.8,0.4,3.6,0.1,4.7-1.5s1.5-3.9,2-5.8c1.4-4.8,2.7-9.7,3.9-14.6
	c1.1-4.1,1.5-8.1-0.1-12.1c-3-7.4-10.3-11.6-17.4-14.1c-3.9-1.3-8-2.1-12.1-2.2c-2-0.1-4.1,0.3-6.1,0.1c-2.4-0.2-4.9-0.7-7.4-0.8
	c-4.4-0.2-9.1,0-13.2,1.9c-1.4,0.7-4.2,2.1-4.2,3.9s2,2.1,3.4,1.8l-0.6-2.1c-2.3,0.5-4.2,2.1-5.2,4.2c-0.9,2.1-0.4,4.5,1.3,6
	c1.6,1.5,3.9,1.5,6,1.2s4.6-0.9,5.8-2.8c0.3-0.5,0.1-1.1-0.3-1.3c-0.1-0.1-0.3-0.1-0.5-0.1c-1.7,0.2-3,1.7-2.8,3.4
	c0,0.1,0,0.2,0,0.3c0.5,2.1,2.8,3.2,4.8,3c2.6-0.2,5.3-1.7,7.5-3c2.5-1.3,4.8-2.9,7-4.6l-1.7-0.7c-0.2,2.2,0,4.4,0.7,6.4
	c0.9,2.2,2.9,3.2,4.2,5c2.3,3.3,2.1,7.7,4.6,10.9C643.3,399.4,644.3,398.6,643.9,398L643.9,398z"/>
<path d="M636.7,435.6c-0.2,0.3-0.5-0.1-0.3,0.3c0.1,0.2,0.2,0.3,0.3,0.4c0.2,0.3,0.4,0.5,0.6,0.8c0.4,0.6,0.8,1.1,1.2,1.7
	c0.8,1.2,1.6,2.3,2.4,3.6c0.8,1.2,1.5,2.4,2.1,3.6c0.7,1.2,1.3,2.6,2,3.8c0.6,1,2.4,0.3,1.9-0.8c-0.7-1.7-1.6-3.3-2.5-4.9
	c-0.9-1.5-1.9-3-2.9-4.5c-1-1.5-2.1-2.9-3.2-4.2c-0.5-0.6-1.1-1.3-1.8-1.4c-0.6,0-1.1,0.4-1.1,1c0,0.1,0,0.2,0,0.4
	c0.1,0.4,0.5,0.6,0.9,0.5C636.5,435.9,636.6,435.8,636.7,435.6L636.7,435.6z"/>
<path d="M658.2,413.2c1.4,2.3,2.9,4.5,4.4,6.7l2.3,3.3c0.7,1.1,1.5,2.2,2.4,3.2c0.3,0.4,0.8,0.4,1.2,0.1c0.4-0.3,0.4-0.8,0.1-1.2
	c-0.7-1.2-1.4-2.3-2.3-3.3c-0.8-1.1-1.5-2.1-2.3-3.2l-4.6-6.4C658.9,411.7,657.6,412.4,658.2,413.2L658.2,413.2z"/>
<path class="st3" d="M670.1,423.1c-6.7,10.2-14.7,20.2-25,26.7c-0.6-1.1-0.9-2-1.5-3.2c-1.1,0.7-1.5,1.7-2.5,2.4
	c-1.2,0.8-2.5,1.8-2.9,3.3c-0.2,1-0.1,2.1,0.3,3.1l1.5,5.1c0.2,0.7,0.5,1.4,1.1,1.7c1.2,0.5,2.1-1.1,2.5-2.2l2.1-6.6l4.1,7.6
	c0.9,1.7,2.2,3.7,4.1,3.9c1.8,0.2,3.3-1.2,4.6-2.5c7.1-7.2,14.3-14.4,19.9-22.8c2.3-3.5,4.3-7.2,4.8-11.3c0.1-0.6,0.1-1.2-0.2-1.8
	c-0.3-0.4-0.7-0.8-1.1-1l-6.2-3.9c-1.3-0.9-2.8-1.6-4.3-2c-2-0.1-3.9,0.7-5.3,2.2c-0.1,0.2,0-0.3,0,0s0.4,0.6,0.5,0.8
	c0.3,0.7,1.8,2.6,2.1,3.2"/>
<path d="M685.7,434.7c17-1.1,33.2,7.1,45.9,17.9c13.7,11.6,24.3,26.2,36,39.6c5.6,6.5,12.1,12.4,16.5,19.9
	c4.4,7.8,5.9,16.9,4.3,25.6c-1.4,8.9-5.3,17.1-9.9,24.8c-4.8,7.7-10.2,15.1-16.1,22c-12,14.3-25.4,27.5-38.5,40.8l-5,5.1
	c-1.1,1.1,0.6,2.7,1.7,1.7c13.6-13.7,27.6-27.2,40.3-41.8c6.2-7,11.9-14.4,17.2-22.2c5-7.5,9.5-15.6,11.8-24.4
	c2.4-8.8,2.6-18.2-0.5-26.7c-3-8.2-9-14.7-14.9-21c-12.5-13.5-23.2-28.8-36.8-41.2c-12.5-11.4-28.2-20.8-45.5-21.6
	c-2.1-0.1-4.2,0-6.3,0.1C684.8,433.4,684.8,434.9,685.7,434.7L685.7,434.7z"/>
<path d="M684.3,461.7c-0.1,11.8,10.3,20.2,18.2,27.6c10.5,9.7,20.9,19.4,31.5,29.1l7.7,7.1c1.2,1.1,2.4,2.1,1.7,3.9
	c-0.8,1.7-1.7,3.2-2.5,4.7c-3.3,6.1-6.5,12.2-9.9,18.3c-3.3,6.1-6.7,12.2-10.3,18.4c-3.3,5.7-6.5,11.5-10.3,16.8
	c-2,2.9-4.3,5.7-6.8,8.1c-2.4,2.3-5,4.2-7.1,6.8c-3,3.9-4.1,10.9,1.1,13.7c0.6,0.3,1.4,0,1.7-0.6c0.3-0.6,0.1-1.2-0.4-1.6
	c-1.8-1.2-2.6-3.4-2.2-5.5c0.3-2.7,2.1-4.8,4-6.5c2.1-2,4.4-3.8,6.4-6c2.1-2.3,4-4.7,5.8-7.2c3.7-5.3,6.8-10.9,10.1-16.5
	c3.4-5.9,6.7-11.9,10-17.9c3.3-6,6.5-12,9.7-18.1l2.3-4.3c0.7-1.4,1.6-2.9,1.3-4.5c-0.3-1.1-0.9-2.1-1.7-2.9
	c-1.3-1.3-2.7-2.5-4.1-3.7c-10.3-9.4-20.6-18.8-31-28.1c-5.3-4.7-10.8-9.3-15.7-14.5c-4.2-4.6-7.9-10-8-16.5c0-0.4-0.3-0.7-0.7-0.7
	S684.4,461.3,684.3,461.7L684.3,461.7z"/>
<path d="M698,614.4c-6.1,3.8-13,8.2-15.1,15.6c0,0.6,0.5,1.1,1.1,1.1c0.4,0,0.7-0.2,0.9-0.5c2.3-6.7,8.3-11,13.8-15
	C699.4,615.1,698.8,613.9,698,614.4L698,614.4z"/>
<path d="M692.3,634.7c0.4,3.7,0.4,7.5,0.1,11.2c-0.5,3.8-1.2,7.5-2.3,11.1c0,0.6,0.5,1,1.1,1c0.3,0,0.7-0.2,0.9-0.5
	c1.3-3.7,2-7.6,2.2-11.5c0.3-3.9,0.1-7.8-0.5-11.6C693.7,633.7,692.2,633.9,692.3,634.7L692.3,634.7z"/>
<path d="M701.1,658.3c1.9-2.9,2.9-6.3,2.8-9.8c0-1.1-1.8-1.1-1.7,0c0.1,3.2-0.7,6.3-2.3,9C699.4,658.4,700.6,659.1,701.1,658.3z"/>
<path d="M711.2,655.6c0.6-3.2,0.8-6.5,0.7-9.7c0-1.1-1.8-1.1-1.8,0c0.2,3.1,0,6.2-0.4,9.3c-0.1,0.4,0.1,0.8,0.5,0.9
	C710.7,656.2,711.1,656,711.2,655.6z"/>
<path d="M718.5,653.4c1.7-4.3,2.5-9,2.1-13.7c-0.2-2.4-0.8-4.7-0.9-7.1c-0.1-1.3,0-2.6,0.3-3.9c0.4-1,0.6-2.1,0.8-3.2
	c0.1-2.1-1.3-3.6-2.6-5.1c-1.4-1.5-2.9-2.8-4.5-4c-3.4-2.5-7.3-4.1-11.4-4.8c-1.4-0.2-2.1,1.9-0.6,2.2c3.7,0.7,7.2,2.1,10.4,4.2
	c1.6,1.1,3.1,2.4,4.5,3.8c0.7,0.7,1.4,1.5,1.9,2.4c0.6,1.1,0.1,2.2-0.2,3.3c-1.3,4.2,0,8.3,0.5,12.5c0.5,4.4,0,8.8-1.5,13
	C716.8,654,718.2,654.3,718.5,653.4L718.5,653.4z"/>
<path d="M631.4,471c-2,12.4-0.9,25,3.2,36.9c4.1,11.8,11.9,22.9,12,35.8c0,3-0.4,6-1.4,8.8c-0.9,2.7-2.3,5.4-2.3,8.3
	c0,1.2,0.2,2.4,0.8,3.5c0.6,1.3,1.8,2.4,1.9,3.8c0.1,1.4-0.6,2.8-0.6,4.2c0,1.1,0.3,2.3,0.8,3.3c2.3,4.6,8.2,6.4,12.9,7.2
	c6.3,0.9,12.7,1,18.9,0.1c14.6-1.5,29.1-4.6,43.1-9.2c1.6-0.5,0.9-3-0.7-2.5c-12,3.9-24.4,6.7-36.9,8.3c-6.2,1-12.5,1.4-18.8,1.2
	c-5-0.3-11.4-1-15.1-4.8c-0.7-0.7-1.3-1.6-1.5-2.6c-0.3-1.4,0.2-2.7,0.4-4c0.2-1.2,0-2.4-0.5-3.5c-0.6-1.3-1.6-2.3-2-3.7
	c-0.6-2.7,0.8-5.6,1.7-8.1c1-2.6,1.5-5.4,1.7-8.2c0.6-12.1-5.9-22.9-10.6-33.7c-5.6-12.8-7.6-26.9-5.6-40.7
	C632.9,470.4,631.5,470,631.4,471L631.4,471z"/>
<path d="M739.4,522.9c0.3,1.9,0.5,3.9,0.6,5.9c0.1,1,0.1,2,0.2,2.9c0,1,0.1,2,0.2,3c0.1,0.4,0.5,0.7,1,0.6c0.4-0.1,0.8-0.4,0.8-0.9
	c0.1-1,0-2-0.1-2.9c-0.1-1.1-0.2-2-0.3-3.1c-0.3-2-0.6-3.9-1.1-5.9C740.5,521.7,739.3,522.1,739.4,522.9L739.4,522.9z"/>
<path d="M585.4,598.8c3.2,2.2,7.4,2.6,11,0.9c0.8-0.4,1.6-0.8,2.3-1.4c1.1-0.9,1.8-1.8,3.3-2c2.4-0.1,4.8-0.5,7.1-1.1
	c4.6-1.4,8.8-3.9,12.9-6.4s8.4-5.2,12.5-8c4.5-3.1,8.6-6.7,12.3-10.8c1.1-1.1-0.7-2.8-1.7-1.7c-6.2,7-14,12.2-22,17.1
	c-3.8,2.6-7.9,4.8-12.1,6.7c-2.2,0.9-4.4,1.5-6.8,1.9c-2.1,0.3-3.9,0.1-5.6,1.6c-1.7,1.5-3.4,2.8-5.8,3.2c-2.3,0.4-4.6-0.1-6.6-1.2
	C585.3,597.1,584.7,598.2,585.4,598.8L585.4,598.8z"/>
<path d="M581.8,601.1c-4.8,1.1-9.5,2.3-14.4,3c-4.5,0.7-9.5,1.5-14,0.6c-4.5-0.9-6.9-4.3-9.1-8c-1.3-2.1-2.5-4.3-3.6-6.5
	c-1.1-2.1-2.2-4.2-1.4-6.6c1.7-4.9,5.5-8.9,8.8-12.7c0.4-0.4,0.4-1,0-1.4c-0.4-0.4-1-0.4-1.4,0c-1.9,1.7-3.6,3.5-5,5.6
	c-1.5,2-2.9,4.1-4,6.3c-1.2,2.1-1.4,4.6-0.5,6.8c1,2.5,2.2,4.8,3.7,7.1c2.2,3.9,4.6,8.5,8.8,10.6c4.4,2.2,9.7,1.5,14.4,0.8
	c6.2-0.7,12.3-2.2,18.2-4.4c0.4-0.1,0.6-0.5,0.5-0.8S582.1,601,581.8,601.1L581.8,601.1L581.8,601.1z"/>
<path d="M553.9,574.4c-2.3,1.5-4.1,3.6-5.3,6.1c-0.3,0.4-0.2,1,0.2,1.2c0.4,0.3,1,0.2,1.2-0.2c0,0,0.1-0.1,0.1-0.1
	c0.3-0.6,0.6-1.1,0.9-1.7c0.3-0.5,0.7-1,1.1-1.5c0.8-1,1.7-1.9,2.7-2.7C555.4,574.9,554.6,573.9,553.9,574.4L553.9,574.4z"/>
<path d="M554.3,586.6c0.7-2.6,2.6-4.6,5-5.7c0.8-0.4,0.2-1.8-0.6-1.4c-2.9,1.2-5,3.7-5.8,6.7c-0.1,0.4,0.1,0.8,0.5,0.9
	C553.8,587.2,554.2,587,554.3,586.6z"/>
<path d="M559.6,592.1c0.7-2.6,2.2-4.9,4.4-6.5c0.4-0.3,0.6-0.8,0.3-1.3c-0.3-0.4-0.8-0.6-1.3-0.3c-1.3,0.9-2.3,2.1-3.2,3.5
	c-0.8,1.3-1.4,2.8-1.7,4.3c-0.1,0.4,0.1,0.8,0.5,0.9C559.1,592.7,559.5,592.5,559.6,592.1C559.6,592.1,559.6,592.1,559.6,592.1
	L559.6,592.1z"/>
<g>
	<path class="st4" d="M745.4,670L745.4,670L717,652.6c-1.7,4.6-5.3,8.2-9.8,10c-5.3,2.1-11.4,0.8-15.5-3.1c-0.5-0.5-0.9-1-1.1-1.6
		c-0.3-0.9-0.3-1.8-0.1-2.7c0.6-5.7,1.1-11.4,1.7-17.1l-0.2-0.9l-42.9-26.3c-6.8-4.2-15.2-3.6-21.3,0.8l-5.1-3.1l1.3-2.2
		c1.1-1.7,0.5-4-1.2-5.1l-3.8-2.3c-1.7-1.1-4-0.5-5.1,1.2l-7.2,11.7l-32.8-20.1c-2.7,0.6-4.9,1.6-5.3,3.5c0,0.2-0.1,0.4-0.1,0.6
		l34.8,21.4l-7.1,11.7c-1.1,1.7-0.5,4,1.2,5.1l3.8,2.3c1.7,1.1,4,0.5,5.1-1.2l1.3-2.2l5.1,3.1c-1.1,7.4,2.2,15.1,9,19.2l96.5,59.1
		c9.1,5.6,20.9,2.7,26.5-6.3l7.1-11.5C757.4,687.5,754.5,675.6,745.4,670z"/>
	<path class="st4" d="M394.8,481.9l0.8-1.4c0.6-1,0.6-2.2,0.1-3.2l-4.8-8.9c-0.4-0.7-1.1-1.3-1.9-1.5l-22.7-7.2
		c-1.4-0.4-3,0.1-3.7,1.4l-4.3,7c-0.8,1.3-0.6,2.9,0.5,4l16.7,17c0.6,0.6,1.4,0.9,2.2,1l10.1,0.3c1.2,0,2.2-0.6,2.8-1.5l0.9-1.5
		l148.3,90.9c1.2-1.7,2.7-3.2,4.2-4.7h0L394.8,481.9z"/>
</g>
<path d="M560.4,575.8c-0.9-0.1-0.9-1.3-0.6-1.9c0.7-0.8,1.6-1.3,2.6-1.5c2.3-0.7,4.6-0.9,7-0.7c2,0.1,3.8,1.3,4.8,3
	c0.4,0.9,0.7,1.8,0.8,2.8c0.3,1,0.4,2,0.3,2.9c-0.1,0.6,0.3,1.2,0.9,1.3c0.5,0.1,0.9-0.1,1.2-0.5c0.9-1.2,0.4-3.1,0.1-4.5
	c-0.2-1.5-0.7-2.8-1.5-4.1c-1.8-2.7-4.9-3.6-8-3.4c-1.7,0.1-3.5,0.4-5.1,0.8c-1.4,0.3-2.7,0.9-3.8,1.8c-1,0.8-1.4,2.1-1.1,3.3
	c0.3,1.1,1.3,1.8,2.4,1.8c0.4,0,0.7-0.3,0.7-0.7C561,576.1,560.7,575.8,560.4,575.8L560.4,575.8z"/>
</svg>
