<?xml version="1.0" encoding="utf-8"?>
<!-- Generator: Adobe Illustrator 26.3.1, SVG Export Plug-In . SVG Version: 6.00 Build 0)  -->
<svg version="1.1" id="Capa_1" xmlns="http://www.w3.org/2000/svg" xmlns:xlink="http://www.w3.org/1999/xlink" x="0px" y="0px"
	 viewBox="0 0 80 80" style="enable-background:new 0 0 80 80;" xml:space="preserve">
<style type="text/css">
	.st0{fill:#0067B8;}
	.st1{fill:#E63164;}
	.st2{fill:#A6C5EC;}
	.st3{fill:#FFFFFF;}
</style>
<path class="st0" d="M23.2,62.4c-3.6-3.3-5.1-8.9-5.7-12.9c-0.4-2.7-0.6-5.4-0.5-8.1c0-0.1,0.1-0.2,0.2-0.2s0.2,0.1,0.2,0.2
	c0,0.1-0.7,14.4,6,20.6c0,0,0.1,0.1,0.1,0.2c0,0.1-0.1,0.2-0.2,0.2C23.3,62.5,23.2,62.5,23.2,62.4z"/>
<path class="st0" d="M23.4,49.7c0-1.9,0.8-6.1-2.2-2.2s-1.6,9.3-1.6,9.3C22.4,55.7,23.3,51.6,23.4,49.7z"/>
<path class="st0" d="M12.6,49.5c-0.8-1.8-3.2-5.3,1.1-2.9c4.3,2.4,5.2,7.9,5.2,7.9C15.9,54.6,13.4,51.3,12.6,49.5z"/>
<circle class="st0" cx="17.3" cy="39.6" r="5.5"/>
<circle class="st1" cx="17.3" cy="39.5" r="3.3"/>
<path class="st0" d="M60.7,61.7c3.6-3.3,5.1-8.9,5.7-12.9c0.4-2.7,0.6-5.4,0.5-8.1c0-0.1-0.1-0.2-0.2-0.2s-0.2,0.1-0.2,0.2
	c0,0.1,0.7,14.4-6,20.6c0,0-0.1,0.1-0.1,0.2C60.4,61.6,60.5,61.7,60.7,61.7C60.6,61.8,60.7,61.8,60.7,61.7z"/>
<path class="st0" d="M60.5,49c0-1.9-0.8-6.1,2.2-2.2c3,3.9,1.6,9.3,1.6,9.3C61.5,55,60.5,50.9,60.5,49z"/>
<path class="st0" d="M71.3,48.8c0.8-1.8,3.2-5.3-1.1-2.9c-4.3,2.4-5.2,7.9-5.2,7.9C68,53.9,70.5,50.5,71.3,48.8z"/>
<path class="st0" d="M61.2,38.9c0,3,2.5,5.5,5.5,5.5c3,0,5.5-2.5,5.5-5.5s-2.5-5.5-5.5-5.5C63.6,33.4,61.2,35.8,61.2,38.9z"/>
<circle class="st1" cx="66.6" cy="38.8" r="3.3"/>
<path class="st0" d="M34.4,60.5c0,0-0.5-8.3-1.8-10.4c-1.3-2-3.5-6-4.5-8.2c-0.2-0.5-2.2-3.2-3.7-5.7c-2.5-4.1-4.7-8.7-3.4-9.8
	c1.4-1.2,4.3,3.8,7,7.7c2,2.9,4.1,4.9,4.1,4.9s-3.7-6-5.3-10.6c-1.7-5-2.8-8.2-1-9.2c3-1.5,3.5,4.4,6.1,8.9c2.1,3.6,4.7,7.1,5.1,7.4
	c-2.5-7.4-5.1-17.8-3.3-19c0.3-0.2,0.7-0.3,1.1-0.2c1.6,0.2,2.1,2.9,3.9,7.5c1.1,2.8,2.5,5.4,3.7,8.1c0.7-3,1.3-5.4,1.6-7
	c1.1-5,1.5-7.9,3.2-8.3c0,0,0.6-0.2,1.1,0.1c0.9,0.4,1.7,2.9-0.8,17c-0.2,1.2,4.4,4.2,4.2,8.2c-0.1,0.7-0.2,1.4-0.4,2.1
	c-0.5,1.7-1.4,3.1-2.6,5c-1.2,2,2.3,10.1,2.3,10.1S42.3,66.1,34.4,60.5z"/>
<path class="st2" d="M50.2,59.9c0,0-3-8.4-1.6-10.3c1.6-2.3,3.1-3.6,3.5-6.9c0.1-1.6-0.1-3.1-0.7-4.6c-0.4-1-1.1-1.8-1.8-2.6
	c-0.4-0.3-0.9-0.5-1.4-0.7c-3.2-1-10.9,6.4-9.7,8.5c0.4,0.8,1.9,0.7,2.8,0.7c2.9,0,5-2,5.2-1.7c0.1,0.1-0.5,0.6-1.3,1.7
	c-1.1,1.5-1.1,2.2-2,2.8c-0.5,0.3-0.9,0.4-1.6,0.6c-2,0.5-3.2-0.1-4,0.7c-0.1,0.1-0.2,0.3-0.3,0.5c-0.3,0.9-0.7,3.2-2.2,2.7
	c-0.8-0.3-1.6-0.8-2.2-1.2c1,2.7,0.9,10,0.9,10C41.1,66.2,50.2,59.9,50.2,59.9z"/>
<path class="st3" d="M43.7,46.2C43.7,46.2,43.6,46.2,43.7,46.2c-0.2-0.1-0.3-0.2-0.2-0.3c0.9-2.4,2.5-4.4,4.6-5.7
	c0.1-0.1,0.2,0,0.3,0.1s0,0.2-0.1,0.3c-2,1.3-3.6,3.2-4.4,5.5C43.9,46.1,43.8,46.2,43.7,46.2z"/>
</svg>
