<?xml version="1.0" encoding="utf-8"?>
<!-- Generator: Adobe Illustrator 26.2.1, SVG Export Plug-In . SVG Version: 6.00 Build 0)  -->
<svg version="1.1" id="Capa_1" xmlns="http://www.w3.org/2000/svg" xmlns:xlink="http://www.w3.org/1999/xlink" x="0px" y="0px"
	 viewBox="0 0 1000 1000" style="enable-background:new 0 0 1000 1000;" xml:space="preserve">
<style type="text/css">
	.st0{fill:#A7C6ED;}
	.st1{fill:#0067B9;}
	.st2{fill:#FFFFFF;}
	.st3{fill:#205493;}
	.st4{fill:#6C6463;}
	.st5{fill:#002F6C;}
	.st6{fill:#E73164;}
</style>
<path class="st0" d="M87.1,98.5h828.8c18.1,0,32.8,14.7,32.8,32.8v742.8c0,18.1-14.7,32.8-32.8,32.8H87.1
	c-18.1,0-32.8-14.7-32.8-32.8l0-742.8C54.3,113.2,69,98.5,87.1,98.5z"/>
<path class="st1" d="M241,456.7c-112.5,0-185.5,449.7-185.5,449.7h704.9C760.4,906.3,353.5,456.7,241,456.7z"/>
<path class="st1" d="M647.9,547.4c112.5,0,300.6,358.9,300.6,358.9H243.7C243.7,906.3,535.4,547.4,647.9,547.4z"/>
<path d="M798.3,712.3c-29.7-12.1-62-15.9-93.8-19.1c-56-5.6-113.8-9.4-167.6,7.4c-5.2,1.6-10.5,3.6-14,7.7c-2.7,3.1-3.9,7.2-5,11.1
	c-17.1,61.4-6.5,127.4,15.5,187.4h296c6.2-41.4,9.5-83.3,9.9-125.2c0.1-16.6-0.6-34.4-10.2-47.9
	C821.8,723.5,810.1,717.1,798.3,712.3L798.3,712.3z"/>
<path d="M642,489c-14.5,30-30,64.8-34.8,97.7c-1.7,11.2-2,23.3,3.6,33.2c3.3,5.9,8.6,10.6,11.1,16.9c2.6,6.5,2,13.7,3.1,20.6
	c3,18,18.2,32.1,35.3,38.5c17,6.5,35.8,6.6,54,6.1c9.3-0.3,18.6-0.8,27.7-2.8c22-5,41.9-20.4,50.4-41.4c2-5,3.4-10.2,5.8-15
	c3-6,7.5-11.2,10.8-17.1c6.8-11.9,8.5-26.2,7.3-39.8s-5.2-26.9-9.2-39.9c-7.3-23.6-15.1-47.5-29.7-67.4"/>
<path d="M639.9,486.8c-9,18-17.6,36.3-24.4,55.4c-3.4,9.5-6.3,19.2-8.5,29.1c-2.1,9.3-3.9,18.9-3.6,28.5c0,9.2,3.2,18.2,9.2,25.2
	c2.8,3.7,5.8,7.5,7.2,12c1.5,4.8,1.5,9.9,2,14.9c0.8,8.1,3.7,15.9,8.6,22.5c4.9,6.5,11.1,12,18.2,16c17,9.8,37.3,11.2,56.5,10.9
	c10.4-0.2,21-0.4,31.3-2.2c8.3-1.5,16.4-4.3,23.8-8.4c14.4-7.9,26.1-20.5,32-35.9c1.8-4.8,3.2-9.7,5.5-14.3c2.3-4.4,5.3-8.3,8-12.4
	c5.2-8,8.5-17,9.6-26.5c2.6-20.5-3.7-40.7-9.7-60c-5.7-18.4-11.8-36.9-21.5-53.6c-2.4-4.1-5-8.1-7.8-11.9c-0.7-0.9-2.3,0-1.6,0.9
	c11.3,15.4,18.6,33.2,24.5,51.3c3.1,9.4,6.1,18.8,8.8,28.3c2.8,9.8,5.1,19.9,5.7,30.1c0.7,9.4-0.5,18.9-3.5,27.9
	c-1.6,4.5-3.8,8.7-6.5,12.7c-2.6,3.9-5.4,7.7-7.7,11.8c-2.3,4.4-3.8,9.2-5.5,13.8c-1.4,3.9-3.2,7.7-5.3,11.2
	c-4.2,6.9-9.6,12.9-15.9,17.9c-6.4,5-13.5,9-21.2,11.7c-9.1,3.2-18.7,4.3-28.3,4.8c-19.7,1-40.5,1.5-59.4-5.2
	c-14.8-5.3-28.9-16.4-34.3-31.6c-1.4-4.1-2.2-8.5-2.4-12.8c-0.4-4.7-0.6-9.6-2.3-14c-1.6-4.2-4.3-7.7-7-11.2
	c-2.9-3.5-5.2-7.5-6.8-11.8c-3-8.9-2.3-18.6-0.9-27.7c1.5-9.5,3.7-18.9,6.5-28.1c5.7-19.2,13.5-37.8,21.8-56.1
	c1.9-4.2,3.9-8.5,5.9-12.7c0.3-0.6-0.6-1.1-0.8-0.5L639.9,486.8z"/>
<path class="st2" d="M195,834.9l-59.7-116.7c-7.4,2.4-12.5,9.1-17.1,15.4c-17.3,23.8-34.8,48-44.5,75.8c-4.8,13.9-7.6,28.5-10,43.1
	c-3,18-5.4,36.2-5.8,54.4h129.8c5.3-21.8,8.9-44.1,9.6-66.5C197.4,838.3,197,835.5,195,834.9L195,834.9z"/>
<path class="st3" d="M664,674.3c-74.7-29.1-155.6-37.5-235.3-45.6l-112.6-11.5c-25.7-2.6-51.6-5.2-77.3-3.4
	c-17.6,1.3-35.1,4.6-52.4,8.3c-5.8,1.2-11.7,2.6-16.3,6.3c-4.6,3.7-7.2,10.5-4.4,15.6c-7.9-1.1-15.3,5.5-17.8,13.2
	s-1.2,15.9,0.1,23.8c0.5,3.1,1.1,6.4,3.5,8.4c2,1.8,4.9,2.1,7.6,2.4c18.8,1.6,37.8,0,56.1-4.9c3.7,13.2,16.9,21.2,29.4,26.8
	c59.9,26.8,127.3,29.6,192.1,40.4c31,5.2,61.7,12.2,91.9,21.1c54,16,107.5,38.2,163.8,39.3"/>
<path class="st2" d="M611.6,873.2c-21.6-32.3-42.3-65.3-62-98.9c-4-6.8-8-13.7-12.4-20.2c-14.3-21.1-33.4-38.5-52.2-55.8L441.3,817
	c11.9,17,20,36.4,29.5,54.9c6.4,12.4,13.8,24.7,23.1,35h120.4c3.7-5.4,5.8-11.6,4.8-18C618.2,883.1,614.8,878.1,611.6,873.2
	L611.6,873.2z"/>
<path class="st2" d="M470.1,687.6c-23.2-13-49.7-18.9-76.1-22.2c-80.7-9.9-162.5,3.2-236.1,37.6c-12.2,5.7-24.5,12.3-32.8,22.9
	c-13.7,17.3-14.1,41.4-12.7,63.5c2.5,39.6,8.6,79,18.4,117.5h385.4c4.6-39.3,7.1-78.8,7.5-118.3c0.2-13.9,0-28.1-3.7-41.5
	C513,721.5,493.3,700.6,470.1,687.6L470.1,687.6z"/>
<path class="st3" d="M835.3,712.3c-29.7-12.1-62-15.9-93.8-19.1c-56-5.6-113.8-9.4-167.6,7.4c-5.2,1.6-10.5,3.6-14,7.7
	c-2.7,3.1-3.9,7.2-5,11.1c-17.1,61.4-6.5,127.4,15.5,187.4h296.1c6.2-41.4,9.5-83.3,9.9-125.2c0.1-16.6-0.6-34.4-10.2-47.9
	C858.7,723.5,847,717.1,835.3,712.3L835.3,712.3z"/>
<path d="M640.3,487.7c-14.5,30-30,64.8-34.8,97.7c-1.7,11.2-2,23.3,3.6,33.2c3.3,5.9,8.6,10.6,11.1,16.8c2.6,6.5,2,13.7,3.1,20.6
	c3,18,18.2,32.1,35.3,38.5c17,6.5,35.8,6.6,54,6.1c9.3-0.3,18.6-0.8,27.7-2.8c22-5,41.9-20.4,50.4-41.3c2-5,3.4-10.2,5.8-15
	c3-6,7.5-11.2,10.8-17.1c6.8-11.9,8.5-26.1,7.3-39.8s-5.2-26.9-9.2-39.9c-7.3-23.6-15.1-47.5-29.7-67.4"/>
<path d="M639.9,487.4c-9,18-17.6,36.3-24.3,55.4c-3.4,9.5-6.3,19.2-8.5,29.1c-2.1,9.3-3.9,18.9-3.6,28.5c0,9.2,3.2,18.2,9.2,25.2
	c2.8,3.7,5.8,7.5,7.2,12c1.5,4.8,1.5,9.9,2,14.9c0.8,8.2,3.7,15.9,8.6,22.5c4.9,6.5,11.1,12,18.2,16c17,9.8,37.3,11.2,56.5,10.9
	c10.5-0.2,21-0.4,31.3-2.2c8.3-1.5,16.4-4.3,23.8-8.4c14.3-7.9,26.1-20.5,32-35.9c1.8-4.8,3.2-9.7,5.5-14.3c2.3-4.4,5.3-8.3,8-12.4
	c5.2-8,8.4-17,9.5-26.5c2.6-20.5-3.7-40.7-9.7-60c-5.7-18.4-11.8-36.9-21.5-53.6c-2.4-4.1-4.9-8.1-7.8-11.9c-0.7-0.9-2.3,0-1.6,0.9
	c11.3,15.4,18.6,33.2,24.5,51.3c3.1,9.4,6.1,18.8,8.8,28.3c2.8,9.8,5.1,19.9,5.7,30.1c0.7,9.4-0.5,18.9-3.5,27.9
	c-1.6,4.5-3.8,8.7-6.5,12.7c-2.6,3.9-5.4,7.7-7.7,11.8c-2.3,4.4-3.8,9.2-5.5,13.8c-1.4,3.9-3.2,7.7-5.3,11.2
	c-4.2,6.9-9.6,12.9-15.9,17.9c-6.4,5-13.5,9-21.2,11.7c-9.1,3.2-18.7,4.3-28.4,4.8c-19.7,1-40.5,1.5-59.4-5.2
	c-14.9-5.3-28.9-16.4-34.3-31.6c-1.4-4.1-2.2-8.5-2.4-12.8c-0.4-4.7-0.6-9.6-2.3-14c-1.6-4.2-4.3-7.7-7-11.2
	c-2.9-3.5-5.2-7.5-6.8-11.8c-3-8.9-2.3-18.6-0.9-27.7c1.5-9.5,3.7-18.9,6.5-28.1c5.7-19.2,13.5-37.8,21.8-56.1
	c1.9-4.2,3.9-8.5,5.9-12.7C641.1,487.4,640.2,486.9,639.9,487.4L639.9,487.4z"/>
<path class="st2" d="M268.4,584.2h97.7V687h-97.7V584.2z"/>
<path d="M268.4,584.2v72.5c17.2-7.8,33.6-17.3,49.9-26.8c16.8-9.8,33.7-19.7,47.8-32.9v-2.2l-38.4-10.6H268.4z"/>
<path d="M269.8,687v-98.6c0.1-1.3,0.1-2.7,0-4c0-0.1,0-0.1,0-0.2l-1.4,1.4h93.7c1.3,0.1,2.6,0.1,3.8,0h0.2l-1.4-1.4v90.1
	c0,4.2-0.2,8.4,0,12.5v0.2c0.1,0.8,0.7,1.3,1.5,1.3c0.7-0.1,1.2-0.6,1.3-1.3v-90.1c0-4.2,0.2-8.4,0-12.5v-0.2c0-0.8-0.6-1.4-1.4-1.4
	h-85.6c-4,0-8-0.2-11.9,0h-0.2c-0.8,0-1.4,0.6-1.4,1.4v90.1c0,4.2-0.2,8.4,0,12.5v0.2c0,0.8,0.6,1.4,1.4,1.4S269.8,687.8,269.8,687
	L269.8,687z"/>
<path class="st2" d="M391.9,509.6c0.2-3.9,5-6.8,8.6-5.2c2.7,1.2,4.1,4.1,4.9,7c2.8,11.1-1.4,22.9-10.7,29.6c-1.6,1.2-3.5,2-5.5,2.1
	c-2,0-4.1-1.2-4.6-3.1"/>
<path d="M392.9,509.9c0.4-3.1,4.2-5.5,7.1-4c3.4,1.7,4.3,6.8,4.6,10.3c0.5,7.7-2.3,15.3-7.7,20.7c-1.6,1.7-3.5,3-5.5,4
	c-1.7,0.7-4.6,0.8-5.2-1.4c-0.6-2-3.8-1.2-3.2,0.9c0.8,2.4,3,4.1,5.5,4.3c2.8,0.3,5.4-1.2,7.6-2.7c4-3,7.2-6.9,9.2-11.5
	c2.1-4.5,2.9-9.5,2.6-14.5c-0.4-4.7-1.9-10.7-6.6-12.9s-10.2,1.6-10.4,6.5C390.9,510.8,392.8,511.1,392.9,509.9L392.9,509.9z"/>
<path d="M400.1,514.1c-0.8-1.8-3.2-0.6-4.2,0.4c-1.2,1.4-2.1,3.1-2.6,4.9c-0.7,2-1.2,4.1-1.5,6.2c-0.2,2.1-0.3,4.3-0.3,6.4
	c0,1.3,1.9,2.3,2.8,1.2c0.8-1,1.2-2.1,1.3-3.4c0-0.6,0-1.1-0.1-1.7c-0.1-0.2-0.1-0.5-0.2-0.8c0,0.2,0-0.7,0-0.4l-0.2,0.9l0.1-0.2
	c0.6-1.2-0.4-2.9-1.8-2.4c-1.2,0.4-1.9,1.7-1.5,3c0,0.1,0.1,0.2,0.1,0.3c0.3,0.9,0.3,1.8-0.1,2.7l3,0.4c-0.5-3.1-0.4-6.3,0.4-9.3
	c0.3-1.5,0.8-3,1.4-4.5c0.2-0.5,0.5-1.1,0.8-1.5c0.2-0.3,0.4-0.5,0.6-0.7c0.1-0.1,0.3-0.2,0.4-0.2c0.2,0,0.2-0.1-0.2-0.2
	C398.9,516.4,400.6,515.4,400.1,514.1L400.1,514.1z"/>
<path class="st2" d="M242.6,509.6c-0.2-3.9-5-6.8-8.6-5.2c-2.7,1.2-4.1,4.1-4.9,7c-2.9,11.1,1.4,22.9,10.7,29.6
	c1.6,1.2,3.5,2,5.5,2.1c2,0.1,3.9-1.2,4.6-3.1"/>
<path d="M243.7,509.6c-0.3-4.2-4-7.4-8.2-7.1c-0.2,0-0.4,0-0.7,0.1c-5.2,0.9-7.2,7-7.9,11.5c-1.4,10,2.4,20.1,10.1,26.6
	c2.4,2,5.2,3.9,8.4,3.9c2.8,0.1,5.3-1.7,6.2-4.3c0.6-2-2.6-2.9-3.2-0.9c-0.5,1.8-2.7,2.1-4.2,1.7c-2-0.7-3.8-1.8-5.4-3.2
	c-2.9-2.6-5.2-5.8-6.8-9.3c-1.5-3.5-2.3-7.3-2.2-11.1c0.1-3.5,0.8-8.1,3.4-10.8c2.9-2.8,7.9-0.8,8.4,3.1
	C241.8,511,243.8,510.8,243.7,509.6L243.7,509.6z"/>
<path d="M236.3,515.2c-0.3,0.1-0.4,0.2-0.2,0.2c0.1,0.1,0.3,0.1,0.4,0.2c0.2,0.2,0.5,0.4,0.6,0.7c0.3,0.5,0.6,1,0.8,1.5
	c0.6,1.4,1,2.9,1.4,4.5c0.8,3,0.9,6.2,0.4,9.3l3-0.4c-0.4-0.8-0.4-1.8-0.1-2.7c0.6-1.2,0.1-2.6-1.1-3.1c-0.1,0-0.2-0.1-0.3-0.1
	c-1.4-0.5-2.4,1.2-1.8,2.4l0.1,0.2l-0.2-0.9c0-0.3-0.1,0.5-0.1,0.3c-0.1,0.3-0.1,0.5-0.2,0.8c-0.1,0.6-0.2,1.1-0.1,1.7
	c0.1,1.2,0.5,2.4,1.3,3.4c0.9,1.1,2.8,0.2,2.8-1.2c0-2.1-0.1-4.3-0.3-6.4c-0.3-2.1-0.8-4.2-1.5-6.1c-0.5-1.8-1.4-3.5-2.6-4.9
	c-0.9-1-3.3-2.2-4.2-0.4C234,515.4,235.7,516.4,236.3,515.2L236.3,515.2z"/>
<path class="st2" d="M394.2,471.5c-2.8-22.4-17.9-41.3-37.9-51c-17-8.2-36.7-9.8-55.2-6.5c-14.6,2.6-28.9,8.4-40.2,18.1
	c-32.9,28.3-19,77.1-13.5,114.2c2.1,14.1,4.3,28.7,12.1,40.6c9,13.8,24.2,22.1,38.8,29.8c5.4,2.8,10.9,5.8,17,6.2
	c8.4,0.7,16.4-3.4,23.8-7.4c11.1-5.9,22.4-12,30.7-21.4c8.6-9.7,13.4-22.4,16.1-35.1s3.4-25.7,5-38.7
	C392.8,504.1,396.2,487.5,394.2,471.5L394.2,471.5z"/>
<path d="M395.6,471.5c-2.2-17.7-12-33.5-26-44.4c-16.1-12.4-37-17.2-57.1-15.9c-19.9,1.3-40.5,8-55,22.1
	c-12,11.5-17.6,27.4-18.8,43.7c-1.3,16.7,1.4,33.5,4.1,50c1.4,8.3,2.7,16.5,4,24.8c1.6,10.2,3.6,20.4,8,29.7
	c8.6,18,26.5,27.9,43.5,36.8c4.7,2.5,9.5,4.9,14.8,5.7c5.2,0.7,10.5,0,15.4-2c4.9-2,9.6-4.3,14.2-7c4.5-2.4,8.9-4.9,13.2-7.7
	c8.5-5.5,15.9-12.3,21.1-21c5.3-8.7,8.5-18.7,10.4-28.7c2.3-11.5,3.1-23.3,4.5-35c1.4-11.5,3.5-23,4.1-34.6
	C396.4,482.7,396.3,477.1,395.6,471.5c-0.2-1.7-3-1.7-2.7,0c1.3,11.2,0.2,22.5-1.4,33.6c-0.8,5.5-1.6,11.1-2.3,16.7
	s-1.2,11.3-1.9,17c-2.2,20.1-6.1,41.8-20.9,56.7c-7,7-15.7,12.1-24.3,16.8s-18.5,10.9-28.8,9.1c-5.2-0.9-9.9-3.4-14.5-5.8
	c-4.1-2.2-8.3-4.4-12.3-6.8c-8-4.7-15.7-10.1-21.9-17.1c-12.8-14.8-14.1-34.8-17.2-53.2c-2.6-15.9-5.7-31.8-6.3-48
	c-0.6-15.5,1.4-31.7,9.9-45c10-15.8,27.8-25,45.6-29c19.8-4.5,41.6-3.3,59.9,5.9c15.2,7.6,27.7,20.9,33.4,37.1
	c1.4,3.9,2.4,8,2.9,12.2C393.1,473.3,395.8,473.3,395.6,471.5L395.6,471.5z"/>
<path class="st4" d="M394.7,486.6l-11,2.4c-1.9,11.7-0.9,23.6,3,34.8c0.7,2.2,1.7,4.2,3.1,6c0.3-3.2,0.7-6.3,1.1-9.5
	C392.2,509.1,394.3,497.8,394.7,486.6z"/>
<path class="st4" d="M244.7,530c1.4-1.9,2.5-4,3.2-6.2c3.9-11.2,4.9-23.1,3-34.8l-11.1-2.4C239.9,501,242.3,515.9,244.7,530
	L244.7,530z"/>
<path d="M288.4,520.3c-1-0.5-2.2-0.5-3.2,0c-0.5,0.3-1,0.7-1.2,1.2c-0.3,0.6-0.4,1.4-0.2,2.1c0.2,0.7,0.6,1.3,1.2,1.7
	c0.6,0.4,1.4,0.5,2.1,0.3c1.2-0.4,2.2-1.4,2.5-2.6c0.4-1,0.3-2.2-0.2-3.1c-0.5-0.8-1.4-1.3-2.3-1.4c-0.8,0-1.6,0.3-2.2,0.9
	c-0.9,0.9-1.4,2.2-1.4,3.5c-0.1,0.9,0.2,1.8,0.8,2.4c0.7,0.7,1.8,1,2.7,0.7c0.8-0.2,1.5-0.8,1.9-1.5c0.3-0.7,0.5-1.4,0.5-2.1
	c0-0.6,0-1.3-0.2-1.9c-0.2-0.8-0.7-1.5-1.4-2c-1-0.6-2.3-0.4-3.2,0.4c-0.3,0.4-0.6,0.8-0.8,1.3c-0.1,0.2-0.1,0.4-0.2,0.6
	c-0.3,1.3-0.1,2.6,0.5,3.7c0.3,0.6,0.8,1,1.4,1.4c0.8,0.5,1.8,0.5,2.6,0.1c0.4-0.1,0.7-0.4,1-0.6c0.3-0.2,0.5-0.5,0.6-0.8
	c0.3-0.6,0.5-1.3,0.5-2c0.1-1.1-0.2-2.2-0.8-3.2c-0.3-0.6-0.9-1.1-1.5-1.5c-0.9-0.5-2-0.5-2.9,0c-0.6,0.4-1,0.9-1.3,1.5
	c-0.2,0.3-0.3,0.7-0.4,1c-0.1,0.4-0.2,0.7-0.2,1.1c0,0.6,0,1.1,0.1,1.7c0.2,0.7,0.5,1.3,0.9,1.8c0.5,0.6,1.3,1,2.1,1.1
	c0.9,0,1.8-0.4,2.3-1.1c0.6-1,0.9-2.2,0.7-3.3c0-0.6-0.1-1.2-0.3-1.8c-0.1-0.4-0.3-0.7-0.5-0.9c-0.4-0.4-0.9-0.6-1.5-0.6
	c-0.4,0-0.7,0.1-1.1,0.3c-0.6,0.3-1,0.8-1.2,1.5c-0.1,0.2-0.1,0.5-0.1,0.7c0,0.3,0,0.5,0.1,0.7c0.1,0.4,0.4,0.7,0.7,1
	c0.3,0.3,0.7,0.4,1.2,0.4c0.3,0,0.7-0.1,1-0.3c0.4-0.3,0.8-0.7,0.9-1.2c0,0,0-0.1,0-0.1l-0.2,0.5c0,0,0-0.1,0.1-0.1l-0.3,0.4
	l0.1-0.1l-0.4,0.3l0.1,0l-0.5,0.2h0.1l-0.5,0.1h0.1l-2-1.6c0.1,0.4,0.2,0.7,0.2,1.1l-0.1-0.6c0.1,0.5,0.1,1,0,1.5l0.1-0.6
	c0,0.2-0.1,0.3-0.1,0.5l0.2-0.5c0,0.1-0.1,0.2-0.1,0.2l0.3-0.4l-0.1,0.1l0.4-0.3l-0.1,0.1l0.5-0.2l-0.2,0l0.6-0.1h-0.2l0.6,0.1h-0.2
	l0.5,0.2c-0.1,0-0.1-0.1-0.2-0.1l0.4,0.3c-0.1-0.1-0.2-0.2-0.3-0.3l0.3,0.4c-0.1-0.1-0.2-0.3-0.2-0.4l0.2,0.5
	c-0.1-0.2-0.1-0.4-0.2-0.7l0.1,0.6c0-0.3,0-0.6,0-0.9l-0.1,0.6c0-0.3,0.1-0.6,0.2-0.9l-0.2,0.5c0.1-0.2,0.2-0.4,0.4-0.6l-0.3,0.4
	c0.1-0.1,0.1-0.1,0.2-0.2l-0.4,0.3l0.2-0.1l-0.5,0.2l0.2,0l-0.6,0.1h0.1l-0.6-0.1c0.1,0,0.2,0,0.2,0.1l-0.5-0.2
	c0.1,0,0.2,0.1,0.3,0.2l-0.4-0.3c0.1,0.1,0.2,0.2,0.3,0.3l-0.3-0.4c0.2,0.2,0.3,0.4,0.4,0.7l-0.2-0.5c0.1,0.3,0.2,0.6,0.2,0.9
	L286,522c0,0.3,0,0.6,0,0.9l0.1-0.6c0,0.2-0.1,0.4-0.2,0.6l0.2-0.5c-0.1,0.1-0.1,0.3-0.2,0.4l0.3-0.4c-0.1,0.1-0.1,0.1-0.2,0.2
	l0.4-0.3l-0.2,0.1l0.5-0.2c-0.1,0-0.2,0-0.2,0.1l0.6-0.1h-0.2l0.6,0.1l-0.2-0.1l0.5,0.2l-0.2-0.1l0.4,0.3c-0.1-0.1-0.2-0.2-0.3-0.3
	l0.3,0.4c-0.1-0.1-0.2-0.3-0.2-0.4l0.2,0.5c-0.1-0.2-0.1-0.4-0.2-0.6l0.1,0.6c0-0.3,0-0.7,0-1l-0.1,0.6c0-0.3,0.1-0.7,0.2-1
	l-0.2,0.5c0-0.1,0.1-0.2,0.1-0.2l-0.3,0.4c0,0,0.1-0.1,0.1-0.1l-0.4,0.3h0l-0.5,0.2h0.1l-0.6,0.1h0.1l-0.6-0.1h0.1l-0.5-0.2
	c0,0,0.1,0,0.1,0.1l-0.4-0.3c0,0,0.1,0.1,0.1,0.1l-0.3-0.4c0.1,0.1,0.1,0.2,0.2,0.3l-0.2-0.5c0.1,0.2,0.1,0.4,0.1,0.6l-0.1-0.6
	c0.1,0.4,0.1,0.8,0,1.2l0.1-0.6c0,0.2-0.1,0.5-0.2,0.7l0.2-0.5c0,0.1-0.1,0.2-0.2,0.3l0.3-0.5c0,0.1-0.1,0.1-0.1,0.1l0.4-0.3
	c-0.1,0-0.1,0.1-0.2,0.1l0.5-0.2l-0.2,0l0.6-0.1h-0.2l0.6,0.1l-0.1,0l0.5,0.2l-0.1,0l0.4,0.3l-0.1-0.1l0.4,0.4c0,0-0.1-0.1-0.1-0.2
	l0.2,0.5c0-0.1,0-0.1,0-0.2l0.1,0.6c0-0.3,0-0.6,0-0.9l-0.1,0.6c0-0.3,0.1-0.7,0.2-1l-0.2,0.5c0.1-0.2,0.2-0.3,0.3-0.5l-0.3,0.4
	c0.1-0.1,0.1-0.2,0.2-0.2l-0.4,0.3c0.1-0.1,0.2-0.1,0.2-0.1l-0.5,0.2h0.2l-0.6,0.1h0.2l-0.6-0.1l0.2,0l-0.5-0.2
	c0.1,0,0.1,0.1,0.2,0.1l-0.4-0.3c0,0,0.1,0.1,0.1,0.1l-0.3-0.4c0.1,0.1,0.1,0.2,0.1,0.3l-0.2-0.5c0.1,0.1,0.1,0.3,0.1,0.4l-0.1-0.5
	c0,0.2,0,0.4,0,0.6l0.1-0.5c0,0.2-0.1,0.4-0.2,0.6l0.2-0.5c-0.1,0.2-0.2,0.3-0.3,0.5l0.3-0.4c-0.1,0.1-0.2,0.2-0.3,0.3l0.4-0.3
	c-0.1,0.1-0.2,0.1-0.3,0.2l0.5-0.2l-0.3,0.1l0.5-0.1h-0.2l0.5,0.1l-0.2,0l0.4,0.2l-0.2-0.1l0.4,0.3c-0.1-0.1-0.2-0.1-0.2-0.2
	l0.3,0.4c-0.1-0.1-0.1-0.2-0.2-0.3l0.2,0.4c0-0.1-0.1-0.2-0.1-0.3l0.1,0.5c0-0.1,0-0.2,0-0.3L287,523c0-0.1,0.1-0.3,0.1-0.4
	l-0.2,0.4c0.1-0.2,0.2-0.4,0.3-0.5l-0.2,0.3c0.1-0.1,0.2-0.3,0.4-0.4l-0.3,0.2c0.1-0.1,0.2-0.1,0.3-0.2c0,0,0.1-0.1,0.1-0.1
	c-0.1,0-0.3,0.1-0.1,0l0.3-0.1c0.2,0,0.4-0.2,0.4-0.5c0-0.2-0.2-0.4-0.5-0.4c-0.2,0-0.4,0.2-0.4,0.5c0,0.2,0.2,0.4,0.4,0.4
	c0.1,0,0.1,0,0.2,0c0.5,0,0.9-0.3,1-0.8C289,521.1,288.8,520.6,288.4,520.3L288.4,520.3z"/>
<path d="M282.3,527.6c2.9,0,5.8,0.3,8.7,0.6c0.6,0,1.1-0.4,1.2-1c0.1-0.6-0.3-1.1-0.8-1.3c-3-0.4-6-0.4-9-0.2
	c-0.5,0-0.9,0.4-0.9,0.9C281.4,527.2,281.8,527.6,282.3,527.6L282.3,527.6L282.3,527.6z"/>
<path d="M277.7,509.6c5.9-1.2,11.9-1.7,18-1.6c-0.2-1.5-1.9-2.1-3.4-2.3c-5.2-0.8-10.5,0.2-15,3c0.1,0.2,0.3,0.3,0.5,0.2"/>
<path d="M278,510.6c5.8-0.9,11.8-1.1,17.7-0.6c1.5,0.1,2.2-1.4,2-2.6c-0.7-4.1-6.7-4.3-9.9-4.1c-4.2,0.1-8.3,1.6-11.6,4.2
	c-0.6,0.7-0.6,1.7,0,2.4c0.1,0.1,0.2,0.2,0.3,0.2c0.5,0.4,1.2,0.4,1.8,0.2c0.8-0.3,1.2-1.1,0.9-1.9c-0.2-0.6-0.7-1-1.3-1h-0.2
	l0.8,0.2l-0.2-0.1l0.6,0.6l-0.1-0.2l-1,2.4c2.9-1.3,6-2.2,9.1-2.6c1.6-0.2,3.2-0.1,4.8,0.1c0.5,0.1,0.9,0.2,1.4,0.3
	c0.1,0,0.7,0.4,0.5,0.3c0.2,0.2,0.2,0.2,0.1,0.1s-0.1-0.1,0,0.1l2-2.6c-6.2,0.2-12.3,1.1-18.2,2.6C276,509,276.7,510.9,278,510.6
	L278,510.6z"/>
<path d="M346.7,522.2h0.2C347.1,522.2,346.7,522.2,346.7,522.2c0.2,0,0.3,0.1,0.4,0.1c0,0,0.2,0.1,0,0c-0.2-0.1,0,0,0,0
	c0.1,0.1,0.2,0.1,0.3,0.2l-0.3-0.2c0.1,0.1,0.3,0.2,0.4,0.4l-0.2-0.3c0.1,0.2,0.2,0.3,0.3,0.5l-0.2-0.4c0.1,0.1,0.1,0.2,0.1,0.4
	l-0.1-0.4c0,0.1,0,0.2,0,0.3l0.1-0.5c0,0.1,0,0.2-0.1,0.4l0.2-0.4c0,0.1-0.1,0.2-0.1,0.3l0.3-0.4c-0.1,0.1-0.1,0.1-0.2,0.2l0.4-0.3
	c-0.1,0-0.1,0.1-0.2,0.1l0.4-0.2l-0.2,0l0.5-0.1h-0.2l0.5,0.1l-0.3-0.1l0.5,0.2c-0.1,0-0.2-0.1-0.3-0.2l0.4,0.3
	c-0.1-0.1-0.2-0.2-0.3-0.3l0.3,0.4c-0.1-0.2-0.2-0.3-0.3-0.5l0.2,0.5c-0.1-0.2-0.1-0.4-0.2-0.6l0.1,0.5c0-0.2,0-0.4,0-0.6l-0.1,0.5
	c0-0.1,0.1-0.3,0.1-0.4l-0.2,0.5c0-0.1,0.1-0.2,0.1-0.3l-0.3,0.4l0.1-0.1l-0.4,0.3c0,0,0.1-0.1,0.2-0.1l-0.5,0.2l0.2,0l-0.6,0.1h0.2
	l-0.6-0.1h0.2l-0.5-0.2c0.1,0,0.2,0.1,0.2,0.2l-0.4-0.3l0.2,0.2l-0.3-0.4c0.1,0.2,0.2,0.3,0.3,0.5l-0.2-0.5c0.1,0.3,0.2,0.7,0.2,1
	l-0.1-0.6c0,0.3,0,0.6,0,0.9l0.1-0.6c0,0.1,0,0.1,0,0.2l0.2-0.5c0,0.1-0.1,0.1-0.1,0.2l0.3-0.4l-0.1,0.1l0.4-0.3l-0.1,0l0.5-0.2
	l-0.2,0l0.6-0.1h-0.2l0.6,0.1l-0.2,0l0.5,0.2c-0.1,0-0.1-0.1-0.2-0.1l0.4,0.3c-0.1,0-0.1-0.1-0.1-0.2l0.3,0.5
	c-0.1-0.1-0.1-0.2-0.2-0.3l0.2,0.5c-0.1-0.2-0.1-0.5-0.2-0.7l0.1,0.6c-0.1-0.4-0.1-0.8,0-1.2l-0.1,0.6c0-0.2,0.1-0.4,0.1-0.6
	l-0.2,0.5c0-0.1,0.1-0.2,0.2-0.3l-0.3,0.4l0.1-0.1l-0.4,0.3l0.1-0.1l-0.5,0.2h0.1l-0.6,0.1h0.1l-0.6-0.1h0.1l-0.5-0.2h0.1l-0.4-0.3
	l0.1,0.1l-0.3-0.4c0,0.1,0.1,0.1,0.1,0.2l-0.2-0.5c0.1,0.3,0.2,0.7,0.3,1l-0.1-0.6c0,0.3,0,0.7,0,1l0.1-0.6c0,0.2-0.1,0.4-0.2,0.6
	L346.7,522.2c-0.1,0.2-0.2,0.3-0.3,0.4L346.7,522.2c-0.1,0.1-0.2,0.2-0.3,0.3l0.4-0.3C346.8,522.2,346.8,522.2,346.7,522.2l0.5-0.2
	l-0.2,0.1l0.6-0.1h-0.2l0.6,0.1c-0.1,0-0.1,0-0.2-0.1l0.5,0.2l-0.2-0.1l0.4,0.3l-0.2-0.2l0.3,0.4c-0.1-0.1-0.2-0.2-0.2-0.4l0.2,0.5
	c-0.1-0.2-0.1-0.4-0.2-0.6l0.1,0.6c0-0.3,0-0.6,0-0.9l-0.1,0.6c0-0.3,0.1-0.6,0.2-0.9l-0.2,0.5c0.1-0.2,0.2-0.5,0.4-0.7l-0.3,0.4
	c0.1-0.1,0.2-0.2,0.3-0.3l-0.4,0.3c0.1-0.1,0.2-0.1,0.3-0.2l-0.5,0.2c0.1,0,0.2-0.1,0.2-0.1l-0.6,0.1h0.2l-0.6-0.1l0.2,0l-0.5-0.2
	l0.2,0.1l-0.4-0.3c0.1,0.1,0.1,0.1,0.2,0.2l-0.3-0.4c0.1,0.2,0.2,0.4,0.3,0.6l-0.2-0.5c0.1,0.3,0.2,0.6,0.2,0.9l-0.1-0.6
	c0,0.3,0,0.6,0,0.9l0.1-0.6c0,0.2-0.1,0.5-0.2,0.7l0.2-0.5c-0.1,0.1-0.1,0.3-0.2,0.4l0.3-0.4c-0.1,0.1-0.2,0.2-0.3,0.3l0.4-0.3
	c-0.1,0-0.1,0.1-0.2,0.1l0.5-0.2h-0.2l0.6-0.1h-0.2l0.6,0.1l-0.2,0l0.5,0.2l-0.1-0.1l0.4,0.3c0,0-0.1-0.1-0.1-0.1l0.3,0.4
	c-0.1-0.1-0.1-0.2-0.1-0.2l0.2,0.5c-0.1-0.1-0.1-0.3-0.1-0.5l0.1,0.6c-0.1-0.5-0.1-1,0-1.5l-0.1,0.6c0-0.4,0.1-0.7,0.2-1.1l-2,1.6
	h0.1l-0.6-0.1h0.1l-0.5-0.2l0.1,0l-0.4-0.3l0.1,0.1l-0.3-0.4c0,0,0.1,0.1,0.1,0.1l-0.2-0.5c0,0,0,0.1,0,0.1l0.2,0.5
	c0.1,0.2,0.3,0.4,0.5,0.5c0.3,0.3,0.7,0.4,1.2,0.4c0.3,0,0.7-0.1,1-0.3c0.4-0.3,0.7-0.7,0.9-1.2c0.2-0.5,0.2-1,0-1.4
	c-0.1-0.4-0.3-0.7-0.6-1c-0.2-0.2-0.4-0.3-0.6-0.5c-0.3-0.2-0.7-0.3-1.1-0.3c-0.3,0-0.6,0-0.8,0.2c-0.3,0.1-0.5,0.2-0.7,0.4
	c-0.3,0.3-0.5,0.6-0.5,0.9c-0.2,0.6-0.3,1.2-0.3,1.8c0,0.4,0,0.8,0,1.2c0,0.3,0.1,0.7,0.2,1c0.1,0.5,0.4,0.9,0.7,1.3
	c0.6,0.6,1.3,0.9,2.2,0.9c0.9-0.1,1.8-0.5,2.3-1.3c0.4-0.5,0.6-1,0.8-1.6c0.1-0.6,0.2-1.1,0.1-1.7c0-0.3-0.1-0.7-0.2-1
	c-0.1-0.3-0.2-0.7-0.4-1c-0.3-0.6-0.7-1.2-1.3-1.6c-0.9-0.5-2-0.5-2.9,0c-0.6,0.4-1.1,0.9-1.5,1.5c-0.3,0.5-0.5,1-0.6,1.5
	c-0.3,1.2-0.2,2.5,0.4,3.7c0.4,0.7,1.1,1.3,1.9,1.6c0.3,0.1,0.6,0.1,0.9,0.1c0.5,0,1-0.1,1.5-0.4c0.6-0.3,1-0.8,1.3-1.4
	c0.3-0.6,0.5-1.3,0.6-2c0.1-0.6,0-1.2-0.1-1.8c-0.1-0.7-0.4-1.4-0.9-1.9c-0.8-0.9-2.2-1-3.2-0.4c-0.7,0.5-1.2,1.2-1.4,2
	c-0.3,1.3-0.2,2.7,0.4,4c0.4,0.7,1.1,1.3,1.9,1.5c1.1,0.3,2.2-0.1,2.9-0.9c0.5-0.6,0.7-1.4,0.6-2.2c0-0.6-0.2-1.2-0.4-1.8
	c-0.1-0.3-0.3-0.6-0.4-0.9c-0.2-0.3-0.4-0.5-0.6-0.8c-0.7-0.6-1.6-1-2.5-0.8c-0.4,0-0.7,0.2-1.1,0.4c-0.4,0.2-0.8,0.6-1,1
	c-0.3,0.5-0.5,1.1-0.5,1.7c0,1.1,0.4,2.2,1.2,3c0.4,0.5,1,0.8,1.6,0.9c0.7,0.2,1.5,0.1,2.1-0.3c0.6-0.4,1-1,1.2-1.7
	c0.4-1.6-0.5-3.2-2.2-3.7c-0.3-0.1-0.7-0.1-1-0.1c-0.5,0-1.1,0.1-1.5,0.4c-0.4,0.2-0.6,0.7-0.5,1.2
	C345.8,521.9,346.2,522.2,346.7,522.2L346.7,522.2z"/>
<path d="M352.3,525.7c-3-0.2-6-0.2-9,0.2c-0.6,0.2-1,0.9-0.8,1.5c0.1,0.5,0.6,0.8,1.1,0.8c2.9-0.4,5.8-0.6,8.7-0.6
	c0.5,0,0.9-0.4,0.9-0.9C353.2,526.1,352.8,525.7,352.3,525.7L352.3,525.7z"/>
<path d="M356.9,509.6c-5.9-1.2-11.9-1.7-18-1.6c0.2-1.5,1.9-2.1,3.4-2.3c5.2-0.8,10.5,0.2,15,3c-0.1,0.2-0.3,0.3-0.5,0.2"/>
<path d="M357.2,508.6c-6-1.5-12.1-2.4-18.2-2.6l2,2.6c0.1-0.2,0.1-0.3,0-0.1s-0.1,0.1,0.1-0.1c-0.2,0.1,0.4-0.3,0.5-0.3
	c0.5-0.1,0.9-0.2,1.4-0.3c1.6-0.2,3.2-0.2,4.8-0.1c3.1,0.4,6.2,1.3,9.1,2.6l-1-2.4l-0.1,0.2l0.6-0.6l-0.2,0.1l0.8-0.2h-0.2
	c-0.8,0-1.5,0.7-1.4,1.6c0,0.6,0.4,1.1,1,1.3c0.6,0.2,1.3,0.1,1.8-0.2c0.8-0.5,1-1.5,0.6-2.3c-0.1-0.1-0.1-0.2-0.2-0.3
	c-3.3-2.6-7.4-4.1-11.6-4.2c-3.2-0.2-9.1,0-9.9,4.1c-0.2,1.2,0.5,2.8,2,2.6c5.9-0.5,11.8-0.3,17.7,0.6
	C357.9,510.8,358.5,508.9,357.2,508.6L357.2,508.6z"/>
<path d="M308.6,550.3c-0.9,0.5-1.3,1.6-1,2.6c0.4,1,1.2,1.8,2.1,2.3c4.6,2.6,10.1,2.9,14.9,0.8c1.9-0.9,4.1-3.2,2.6-5.4
	c-0.5-0.8-1.4-1-2.2-0.5c-0.5,0.3-0.8,0.8-0.8,1.3c0,0.1,0.1,0.9,0,0.5c0,0.4,0.1-0.2,0,0.2c0.1-0.3,0,0-0.1,0.1
	c0.3-0.3-0.1,0.1-0.1,0.1l-0.2,0.1l-0.5,0.2l-0.1,0.1l-0.5,0.2c-1.6,0.4-3.2,0.7-4.9,0.7c-2,0.1-4-0.2-5.9-0.8
	c-0.6-0.2-1.1-0.4-1.7-0.7c-0.2-0.1-0.4-0.3-0.6-0.5c0,0,0.1,0.2,0.1,0.2c-0.1,0,0,0.1,0,0c0.1-0.1,0.1-0.1,0.1-0.2
	C310.5,550.9,309.4,549.7,308.6,550.3L308.6,550.3z"/>
<path class="st2" d="M673.5,612.4h76.7v97.7h-76.7V612.4z"/>
<path d="M750.1,619.6c-2.6,0.3-5.3,0.7-7.9,1.2c-22.7,3.6-45.8,3.6-68.8,4.2v52.1l0.1,0.1c5.5-2.7,10.8-5.8,15.9-9.1
	c4.8-3.1,9.5-6.5,14.3-9.6c15.2-9.9,32.2-17.4,46.3-28.6V619.6z"/>
<path d="M674.9,710.1v-93.7c0.1-1.3,0.1-2.6,0-3.8v-0.2l-1.4,1.4h76.7l-1.4-1.4v85.6c0,4-0.2,8,0,11.9v0.2c0,0.8,0.6,1.4,1.4,1.4
	s1.4-0.6,1.4-1.4v-85.7c0-4,0.2-8,0-11.9v-0.2c0-0.8-0.6-1.4-1.4-1.4h-76.7c-0.8,0-1.4,0.6-1.4,1.4v85.6c0,4-0.2,8,0,11.9v0.2
	c0,0.8,0.6,1.4,1.4,1.4S674.9,710.9,674.9,710.1L674.9,710.1z"/>
<path class="st2" d="M780.6,543.6c0.4-3.2,3.4-5.5,6.6-5.1c0.4,0.1,0.9,0.2,1.3,0.3c2.5,1.1,3.8,3.8,4.5,6.4
	c2.6,10.3-1.3,21.1-9.9,27.2c-1.4,1.2-3.2,1.8-5,2c-1.9,0.1-3.6-1.1-4.2-2.9"/>
<path d="M781.6,543.9c0.4-2.8,3.8-5,6.5-3.6c3.1,1.6,3.9,6.2,4.1,9.3c0.5,7-2,13.9-6.9,18.9c-1.4,1.5-3,2.7-4.8,3.6
	c-1.6,0.8-4.4,1.1-5-1s-3.8-1.2-3.2,0.9c0.7,2.2,2.8,3.8,5.1,4c2.6,0.3,5.1-1,7.2-2.6c3.7-2.7,6.6-6.4,8.5-10.6
	c1.9-4.2,2.7-8.8,2.4-13.4c-0.4-4.4-1.8-10-6.1-12s-9.5,1.5-9.7,6.1C779.6,544.7,781.5,545,781.6,543.9L781.6,543.9z"/>
<path d="M788.2,547.8c-0.8-1.7-3.1-0.6-4,0.3c-1.1,1.3-1.9,2.9-2.4,4.6c-0.7,1.8-1.1,3.8-1.4,5.7c-0.2,2-0.3,4-0.3,5.9
	c0,1.3,1.9,2.3,2.8,1.2c0.7-0.9,1.2-2,1.2-3.2c0-0.5,0-1.1-0.1-1.6c0-0.2-0.1-0.5-0.2-0.7c0.1,0.3-0.1-0.8,0-0.3l-0.2,0.9l0.1-0.2
	c0.6-1.2-0.4-2.9-1.8-2.4c-1.5,0.5-1.8,1.9-1.3,3.3c0.3,0.9,0.2,1.8-0.3,2.6h3.2c-0.5-2.8-0.4-5.7,0.3-8.5c0.3-1.4,0.7-2.7,1.2-4.1
	c0.2-0.5,0.4-1,0.8-1.4c0.2-0.2,0.3-0.4,0.6-0.6c0.1-0.1,0.2-0.1,0.3-0.2c0.2,0,0.1-0.1-0.2-0.2C787.1,550.1,788.8,549,788.2,547.8
	L788.2,547.8z"/>
<path class="st2" d="M643,543.6c-0.4-3.2-3.4-5.5-6.6-5.1c-0.4,0.1-0.9,0.2-1.3,0.3c-2.5,1.1-3.8,3.8-4.5,6.4
	c-2.6,10.3,1.3,21.1,9.9,27.2c1.4,1.2,3.2,1.8,5,2c1.9,0.1,3.6-1.1,4.2-2.9"/>
<path d="M644,543.6c-0.3-4-3.7-6.9-7.6-6.7c-0.2,0-0.4,0-0.6,0.1c-4.8,0.8-6.8,6.4-7.5,10.6c-1.3,9.3,2.1,18.6,9.2,24.7
	c2.1,1.8,4.6,3.5,7.5,3.7c2.8,0.3,5.3-1.4,6.2-4c0.6-2-2.6-2.9-3.2-0.9c-0.5,1.7-2.6,1.9-4.1,1.4c-1.8-0.7-3.4-1.7-4.7-3
	c-2.6-2.3-4.7-5.2-6.1-8.5c-1.4-3.2-2-6.6-2-10c0.1-3.3,0.7-7.5,3.1-9.9c2.6-2.6,7.1-0.7,7.6,2.8C642.1,545.1,644.1,544.8,644,543.6
	L644,543.6z"/>
<path d="M637.2,548.8c-0.4,0.1-0.5,0.2-0.2,0.2c0.1,0.1,0.2,0.1,0.3,0.2c0.2,0.2,0.4,0.4,0.6,0.6c0.3,0.4,0.6,0.9,0.8,1.4
	c0.5,1.3,1,2.7,1.3,4.1c0.7,2.8,0.8,5.7,0.3,8.5h3.2c-0.4-0.8-0.5-1.7-0.3-2.6c0.5-1.4,0.2-2.8-1.3-3.3s-2.4,1.2-1.8,2.4l0.1,0.2
	l-0.2-0.9c0-0.5-0.1,0.5,0,0.3c-0.1,0.2-0.1,0.5-0.2,0.7c-0.1,0.5-0.2,1.1-0.1,1.6c0.1,1.2,0.5,2.3,1.2,3.2c0.9,1.1,2.8,0.2,2.8-1.2
	c0-2-0.1-4-0.3-5.9c-0.2-1.9-0.7-3.9-1.4-5.7c-0.5-1.7-1.3-3.2-2.4-4.6c-0.9-1-3.2-2-4-0.3C634.9,549,636.6,550,637.2,548.8
	L637.2,548.8z"/>
<path class="st2" d="M782.8,508.5c-2.5-20.6-16.5-38.1-35-47c-15.7-7.5-33.8-9.1-50.9-6c-13.5,2.4-26.7,7.7-37.1,16.6
	c-30.2,26.1-17.5,71.1-12.4,105.3c1.9,13,4,26.4,11.1,37.4c8.3,12.7,22.3,20.4,35.7,27.5c5,2.6,10.1,5.3,15.7,5.7
	c7.7,0.6,15.1-3.2,21.9-6.8c10.2-5.5,20.6-11.1,28.3-19.7c8-9,12.4-20.6,14.8-32.4s3.2-23.8,4.7-35.7
	C781.5,538.6,784.6,523.3,782.8,508.5L782.8,508.5z"/>
<path d="M784.2,508.5c-2.1-16.3-11-31-24-41c-14.8-11.4-34-15.9-52.5-14.7s-37.5,7.4-51,20.3c-11,10.6-16.2,25.1-17.4,40.1
	c-1.2,15.5,1.2,31.1,3.8,46.4c1.3,7.6,2.5,15.3,3.7,22.9c1.4,9.3,3.3,18.7,7.3,27.3c8,16.7,24.5,25.9,40.2,34.2
	c4.2,2.2,8.7,4.5,13.5,5.2c4.9,0.7,9.9,0,14.4-1.8c4.6-1.9,9-4.1,13.3-6.5c4.1-2.2,8.2-4.5,12.1-7.1c7.9-5.2,14.7-11.5,19.6-19.7
	c4.8-8,7.6-17,9.4-26c2.1-10.6,2.9-21.5,4.1-32.2s3.2-21.2,3.8-31.9C784.8,518.9,784.7,513.7,784.2,508.5c-0.2-1.7-3-1.7-2.8,0
	c1.2,10.3,0.2,20.7-1.2,30.9s-2.6,20.6-3.8,31c-2,18.4-5.5,38.2-19,52c-6.4,6.5-14.4,11.2-22.4,15.6c-8,4.4-17.3,10.2-27,8.5
	c-4.7-0.8-9-3.1-13.2-5.3c-3.8-2-7.6-4-11.3-6.2c-7.4-4.3-14.6-9.3-20.2-15.8c-11.8-13.6-13-32.1-15.8-49.1
	c-2.4-14.7-5.3-29.4-5.8-44.3c-0.5-14.3,1.3-29.1,9.2-41.4c9.3-14.5,25.6-23,42-26.7c18.2-4.1,38.3-3,55.2,5.5
	c14,7,25.4,19.2,30.6,34c1.3,3.7,2.2,7.4,2.7,11.3C781.6,510.3,784.4,510.3,784.2,508.5L784.2,508.5z"/>
<path d="M783.2,513.1l-10.2,2.1c-1.8,10.8-0.9,21.8,2.7,32.1c0.6,2,1.6,3.9,2.8,5.6c0.3-2.9,0.6-5.8,1-8.7
	C780.9,534,782.8,523.5,783.2,513.1L783.2,513.1z"/>
<path d="M644.9,553.2c1.3-1.7,2.4-3.7,3-5.8c3.6-10.3,4.5-21.3,2.7-32.1l-10.2-2.2C640.4,526.4,642.7,540.2,644.9,553.2z"/>
<path d="M685.2,553.2c-0.5-0.2-1-0.4-1.5-0.4c-0.6,0-1.1,0.1-1.6,0.4c-0.5,0.3-0.9,0.7-1.2,1.2c-0.3,0.6-0.4,1.3-0.3,2
	c0.2,0.7,0.6,1.3,1.2,1.7c0.6,0.4,1.4,0.5,2.1,0.3c0.6-0.2,1.1-0.5,1.5-0.9c0.4-0.5,0.7-1,0.9-1.6c0.4-1,0.3-2.1-0.2-3
	c-0.5-0.8-1.3-1.3-2.3-1.3c-0.8,0-1.6,0.3-2.1,0.9c-0.5,0.5-0.8,1-1,1.6c-0.2,0.5-0.3,1.1-0.3,1.7c0,0.3,0,0.5,0,0.8
	c0.1,0.6,0.3,1.2,0.7,1.6c0.7,0.7,1.7,1,2.7,0.7c0.8-0.2,1.5-0.8,1.8-1.5c0.3-0.6,0.5-1.4,0.5-2.1c0-0.2,0-0.4,0-0.6
	c0-0.4-0.1-0.8-0.2-1.1c-0.1-0.3-0.2-0.6-0.4-0.9c-0.2-0.4-0.6-0.8-1-1c-0.4-0.2-0.9-0.4-1.4-0.4c-0.7,0-1.3,0.3-1.8,0.8
	c-0.3,0.4-0.6,0.8-0.7,1.3c-0.1,0.2-0.1,0.4-0.2,0.6c-0.3,1.2-0.1,2.5,0.5,3.6c0.3,0.6,0.8,1,1.3,1.3c0.8,0.4,1.8,0.5,2.6,0.1
	c0.4-0.1,0.7-0.4,1-0.6c0.2-0.2,0.3-0.4,0.4-0.6c0.1-0.1,0.1-0.2,0.2-0.2c0.3-0.6,0.5-1.2,0.5-1.9c0-0.5,0-1.1-0.1-1.6
	c-0.1-0.5-0.3-1-0.6-1.5c-0.3-0.6-0.8-1.1-1.4-1.4c-0.4-0.2-0.9-0.4-1.4-0.4c-0.3,0-0.5,0-0.8,0.1c-0.2,0.1-0.5,0.2-0.7,0.3
	c-0.6,0.4-1,0.9-1.3,1.5c-0.1,0.3-0.3,0.6-0.4,1c-0.1,0.3-0.2,0.7-0.2,1.1c0,0.5,0,1.1,0.1,1.6c0.1,0.6,0.5,1.2,0.9,1.7
	c0.5,0.6,1.3,1,2.1,1c0.2,0,0.5,0,0.7-0.1c0.2-0.1,0.5-0.1,0.7-0.3c0.3-0.2,0.6-0.5,0.9-0.8c0.6-0.9,0.9-2.1,0.7-3.2
	c0-0.6-0.1-1.1-0.3-1.7c-0.1-0.4-0.3-0.7-0.5-0.9c-0.2-0.2-0.4-0.4-0.7-0.4c-0.6-0.3-1.3-0.2-1.9,0.1c-0.6,0.3-1,0.8-1.2,1.5
	c-0.1,0.2-0.1,0.4-0.1,0.7c0,0.2,0,0.5,0.1,0.7l0.2,0.5c0.1,0.2,0.3,0.4,0.5,0.5c0.3,0.3,0.7,0.4,1.2,0.4c0.3,0,0.7-0.1,1-0.3
	c0.4-0.3,0.8-0.7,0.9-1.2c0,0,0-0.1,0-0.1l-0.2,0.5c0,0,0-0.1,0-0.1l-0.3,0.4l0.1-0.1l-0.4,0.3h0.1l-0.5,0.2h0.1l-0.6,0.1h0.1
	l-2-1.6c0.1,0.3,0.2,0.6,0.2,1l-0.1-0.6c0,0.5,0,0.9,0,1.4l0.1-0.6c0,0.1-0.1,0.3-0.1,0.4l0.2-0.5l-0.1,0.2l0.3-0.4
	c0,0.1-0.1,0.1-0.1,0.1l0.4-0.3l-0.1,0.1l0.5-0.2H683l0.6-0.1h-0.2l0.6,0.1h-0.2l0.5,0.2c-0.1,0-0.1-0.1-0.2-0.1l0.4,0.3
	c-0.1-0.1-0.2-0.2-0.2-0.2l0.3,0.4c-0.1-0.1-0.1-0.2-0.2-0.4l0.2,0.5c-0.1-0.2-0.1-0.4-0.2-0.6l0.1,0.6c0-0.3,0-0.6,0-0.9l-0.1,0.6
	c0-0.3,0.1-0.6,0.2-0.8l-0.2,0.5c0.1-0.2,0.2-0.4,0.3-0.6l-0.3,0.4c0-0.1,0.1-0.1,0.2-0.2l-0.4,0.3l0.2-0.1l-0.5,0.2h0.2l-0.6,0.1
	h0.1L683,555c0.1,0,0.2,0,0.2,0.1l-0.5-0.2c0.1,0,0.2,0.1,0.3,0.2l-0.4-0.3c0.1,0.1,0.2,0.2,0.3,0.3l-0.3-0.4
	c0.1,0.2,0.3,0.4,0.4,0.6l-0.2-0.5c0.1,0.3,0.2,0.5,0.2,0.8l-0.1-0.6c0,0.3,0,0.6,0,0.9l0.1-0.6c0,0.2-0.1,0.4-0.2,0.6l0.2-0.5
	c-0.1,0.1-0.1,0.2-0.2,0.3l0.3-0.4c-0.1,0.1-0.1,0.1-0.2,0.2l0.4-0.3l-0.2,0.1l0.5-0.2c-0.1,0-0.1,0.1-0.2,0.1l0.6-0.1
	c-0.1,0-0.1,0-0.2,0l0.6,0.1c-0.1,0-0.1,0-0.2-0.1l0.5,0.2c-0.1,0-0.1-0.1-0.2-0.1l0.4,0.3c-0.1-0.1-0.2-0.2-0.3-0.3l0.3,0.4
	c-0.1-0.1-0.2-0.3-0.2-0.4l0.2,0.5c-0.1-0.2-0.1-0.4-0.2-0.6l0.1,0.6c0-0.3,0-0.6,0-0.9l-0.1,0.6c0-0.3,0.1-0.6,0.2-0.9l-0.2,0.5
	c0-0.1,0.1-0.1,0.1-0.2l-0.3,0.4l0.1-0.1l-0.4,0.3h0l-0.5,0.2h0.1l-0.6,0.1h0.1l-0.6-0.1h0.1l-0.5-0.2c0,0,0.1,0,0.1,0.1l-0.4-0.3
	l0.1,0.1l-0.3-0.4c0.1,0.1,0.1,0.2,0.1,0.2l-0.2-0.5c0.1,0.2,0.1,0.3,0.1,0.5l-0.1-0.6c0,0.4,0,0.8,0,1.1l0.1-0.6
	c0,0.2-0.1,0.4-0.2,0.6l0.2-0.5c0,0.1-0.1,0.2-0.2,0.3l0.3-0.4c0,0-0.1,0.1-0.1,0.1l0.5-0.3l-0.2,0.1l0.5-0.2h-0.2l0.6-0.1h-0.2
	l0.6,0.1h-0.2l0.5,0.2l-0.1,0l0.5,0.3c0,0-0.1,0-0.1-0.1l0.3,0.4c0,0-0.1-0.1-0.1-0.2l0.2,0.5c0-0.1,0-0.1,0-0.2l0.1,0.6
	c0-0.3,0-0.6,0-0.8l-0.1,0.6c0-0.3,0.1-0.6,0.2-1l-0.2,0.5c0.1-0.1,0.1-0.3,0.2-0.4l-0.3,0.4c0.1-0.1,0.1-0.1,0.2-0.2l-0.4,0.3
	c0.1-0.1,0.1-0.1,0.2-0.1l-0.5,0.2l0.2,0l-0.6,0.1h0.2l-0.6-0.1h0.2l-0.5-0.2c0.1,0,0.1,0.1,0.2,0.1l-0.4-0.3l0.1,0.1l-0.3-0.4
	c0.1,0.1,0.1,0.1,0.1,0.2l-0.2-0.5c0.1,0.1,0.1,0.3,0.1,0.4l-0.1-0.5c0,0.2,0,0.3,0,0.5l0.1-0.5c0,0.2-0.1,0.4-0.2,0.5l0.2-0.5
	c-0.1,0.2-0.2,0.3-0.3,0.5l0.3-0.4c-0.1,0.1-0.2,0.2-0.3,0.3l0.4-0.3c-0.1,0.1-0.2,0.1-0.3,0.2l0.5-0.2l-0.2,0.1l0.5-0.1h-0.2
	l0.5,0.1h-0.2l0.4,0.2c-0.1,0-0.2-0.1-0.2-0.1l0.4,0.3c-0.1,0-0.1-0.1-0.2-0.1l0.3,0.4c-0.1-0.1-0.1-0.2-0.2-0.2l0.2,0.4
	c0-0.1-0.1-0.2-0.1-0.3l0.1,0.5c0-0.1,0-0.2,0-0.3l-0.1,0.4c0-0.1,0-0.2,0.1-0.3l-0.2,0.4c0.1-0.2,0.2-0.4,0.3-0.5l-0.2,0.3
	c0.1-0.1,0.2-0.2,0.3-0.3l-0.3,0.2c0.1-0.1,0.3-0.2,0.4-0.3l-0.3,0.1c0.2-0.1,0.3-0.1,0.5-0.1h-0.3h0.3c0.6,0,1.1-0.5,1.1-1.1
	C685.8,553.8,685.6,553.4,685.2,553.2L685.2,553.2z"/>
<path d="M679.5,560.3c2.7,0,5.3,0.3,8,0.6c0.6,0,1.1-0.4,1.2-1c0.1-0.6-0.3-1.1-0.8-1.3c-2.8-0.3-5.5-0.4-8.3-0.1
	c-0.5,0-0.9,0.4-0.9,0.9C678.6,559.9,679,560.3,679.5,560.3L679.5,560.3z"/>
<path d="M675.3,543.6c5.4-1.1,11-1.6,16.5-1.5c-0.2-1.3-1.8-1.9-3.1-2.1c-4.8-0.7-9.7,0.3-13.8,2.8c0.1,0.2,0.3,0.3,0.5,0.2"/>
<path d="M675.4,544.1c5.4-1,10.9-1.3,16.4-1c0.6,0,1-0.4,1-0.9c0-0.1,0-0.2,0-0.4c-0.7-3.3-5.6-3.3-8.1-3.1
	c-3.7,0.1-7.2,1.3-10.2,3.4c-0.4,0.2-0.5,0.8-0.3,1.2c0,0,0.1,0.1,0.1,0.1c0.3,0.3,0.8,0.5,1.3,0.3c0.4-0.1,0.6-0.6,0.5-0.9
	c-0.1-0.3-0.4-0.5-0.7-0.5l0.2,0.1l-0.3,1.1c2.7-1.4,5.5-2.3,8.5-2.6c1.4-0.1,2.9-0.1,4.3,0.1c1,0.1,2.4,0.3,2.7,1.4l1-1.3
	c-5.6,0.1-11.2,0.7-16.7,2C674.5,543.2,674.8,544.2,675.4,544.1L675.4,544.1z"/>
<path d="M739,555.2h0.3H739c0.1,0,0.3,0.1,0.5,0.1l-0.3-0.1c0.2,0.1,0.3,0.2,0.4,0.3l-0.3-0.2c0.1,0.1,0.2,0.2,0.3,0.3l-0.2-0.3
	c0.1,0.2,0.2,0.4,0.3,0.5l-0.2-0.4c0,0.1,0.1,0.2,0.1,0.3l-0.1-0.4c0,0.1,0,0.2,0,0.3l0.1-0.5c0,0.1-0.1,0.2-0.1,0.3l0.2-0.4
	c0,0.1-0.1,0.2-0.1,0.2l0.3-0.4c0,0.1-0.1,0.1-0.2,0.1l0.4-0.3c-0.1,0.1-0.1,0.1-0.2,0.1l0.4-0.2h-0.2l0.5-0.1h-0.2l0.5,0.1
	l-0.2-0.1l0.5,0.2c-0.1,0-0.2-0.1-0.3-0.2l0.4,0.3c-0.1-0.1-0.2-0.2-0.3-0.3l0.3,0.4c-0.1-0.1-0.2-0.3-0.3-0.5l0.2,0.5
	c-0.1-0.2-0.1-0.4-0.2-0.5l0.1,0.5c0-0.2,0-0.3,0-0.5l-0.1,0.5c0-0.1,0.1-0.3,0.1-0.4l-0.2,0.5c0-0.1,0.1-0.2,0.1-0.2l-0.3,0.4
	l0.1-0.1l-0.4,0.3c0,0,0.1-0.1,0.2-0.1l-0.5,0.2h0.2l-0.6,0.1h0.2l-0.6-0.1l0.2,0l-0.5-0.2c0.1,0,0.2,0.1,0.2,0.1l-0.4-0.3
	c0.1,0.1,0.1,0.1,0.2,0.2l-0.3-0.4c0.1,0.1,0.2,0.3,0.2,0.4l-0.2-0.5c0.1,0.3,0.2,0.6,0.2,1l-0.1-0.6c0,0.3,0,0.6,0,0.8l0.1-0.6
	c0,0.1,0,0.1,0,0.2l0.2-0.5c0,0.1-0.1,0.1-0.1,0.2l0.3-0.4c0,0,0,0.1-0.1,0.1l0.5-0.3l-0.1,0l0.5-0.2H740l0.6-0.1h-0.2l0.6,0.1h-0.2
	l0.5,0.2l-0.2-0.1l0.4,0.3l-0.1-0.1l0.3,0.4c-0.1-0.1-0.1-0.2-0.2-0.3l0.2,0.5c-0.1-0.2-0.1-0.4-0.2-0.6l0.1,0.6c0-0.4,0-0.8,0-1.1
	l-0.1,0.6c0-0.2,0.1-0.3,0.1-0.5l-0.2,0.5c0-0.1,0.1-0.2,0.1-0.2l-0.3,0.4l0.1-0.1l-0.4,0.3c0,0,0.1-0.1,0.1-0.1l-0.5,0.2h0.1
	l-0.6,0.1h0.1l-0.6-0.1h0.1l-0.5-0.2h0l-0.4-0.3c0,0,0.1,0.1,0.1,0.1l-0.3-0.4c0,0.1,0.1,0.1,0.1,0.2l-0.2-0.5
	c0.1,0.3,0.2,0.6,0.2,0.9l-0.1-0.6c0,0.3,0,0.6,0,0.9l0.1-0.6c0,0.2-0.1,0.4-0.2,0.6l0.2-0.5c-0.1,0.1-0.1,0.3-0.2,0.4l0.3-0.4
	c-0.1,0.1-0.2,0.2-0.3,0.3l0.4-0.3c-0.1,0-0.1,0.1-0.2,0.1l0.5-0.2c-0.1,0-0.1,0-0.2,0.1l0.6-0.1c-0.1,0-0.1,0-0.2,0l0.6,0.1
	c-0.1,0-0.1,0-0.2-0.1l0.5,0.2l-0.2-0.1l0.4,0.3c-0.1-0.1-0.1-0.1-0.2-0.2l0.3,0.4c-0.1-0.1-0.1-0.2-0.2-0.3l0.2,0.5
	c-0.1-0.2-0.1-0.4-0.2-0.6l0.1,0.6c0-0.3,0-0.6,0-0.9l-0.1,0.6c0-0.3,0.1-0.6,0.2-0.8l-0.2,0.5c0.1-0.2,0.2-0.4,0.4-0.6l-0.3,0.4
	c0.1-0.1,0.2-0.2,0.3-0.3l-0.4,0.3c0.1-0.1,0.2-0.1,0.3-0.2l-0.5,0.2c0.1,0,0.2,0,0.2-0.1l-0.6,0.1h0.1l-0.6-0.1h0.2l-0.5-0.2
	l0.2,0.1l-0.4-0.3c0.1,0.1,0.1,0.1,0.2,0.2l-0.3-0.4c0.1,0.2,0.2,0.4,0.3,0.6l-0.2-0.5c0.1,0.3,0.2,0.5,0.2,0.8l-0.1-0.6
	c0,0.3,0,0.6,0,0.9l0.1-0.6c0,0.2-0.1,0.4-0.2,0.6l0.2-0.5c-0.1,0.1-0.1,0.3-0.2,0.4l0.3-0.4C739.3,555,739.2,555,739,555.2l0.5-0.4
	c-0.1,0-0.1,0.1-0.2,0.1l0.5-0.2h-0.2l0.6-0.1h-0.2l0.6,0.1h-0.2l0.5,0.2l-0.1-0.1l0.4,0.3c-0.1,0-0.1-0.1-0.2-0.1l0.3,0.4l-0.1-0.2
	l0.2,0.5c0-0.1-0.1-0.3-0.1-0.4l0.1,0.6c0-0.5,0-0.9,0-1.4l-0.1,0.6c0-0.3,0.1-0.7,0.2-1l-2,1.6h0.1l-0.6-0.1h0.1l-0.5-0.2
	c0,0,0.1,0,0.1,0l-0.4-0.3l0.1,0.1l-0.3-0.4c0,0,0,0.1,0,0.1l-0.2-0.5c0,0,0,0.1,0,0.1l0.2,0.5c0.1,0.2,0.3,0.4,0.5,0.5
	c0.3,0.3,0.8,0.4,1.2,0.4c0.3,0,0.7-0.1,1-0.3c0.4-0.3,0.7-0.7,0.9-1.2c0.1-0.2,0.1-0.5,0.1-0.7c0-0.2,0-0.5-0.1-0.7
	c-0.1-0.4-0.3-0.7-0.6-1c-0.2-0.2-0.4-0.3-0.6-0.5c-0.6-0.3-1.3-0.4-1.9-0.1c-0.3,0.1-0.5,0.2-0.7,0.4c-0.3,0.3-0.5,0.6-0.5,0.9
	c-0.2,0.6-0.3,1.1-0.3,1.7c0,0.4,0,0.8,0,1.2c0,0.3,0.1,0.6,0.2,0.9c0.1,0.5,0.4,0.9,0.7,1.2c0,0.1,0.1,0.1,0.1,0.1
	c0.2,0.2,0.4,0.3,0.6,0.4c0.4,0.2,0.9,0.4,1.4,0.3c0.9,0,1.7-0.5,2.3-1.2c0.4-0.5,0.6-1,0.7-1.6c0.1-0.5,0.2-1.1,0.1-1.6
	c0-0.3-0.1-0.7-0.2-1c-0.1-0.3-0.2-0.7-0.4-1c-0.3-0.6-0.7-1.1-1.3-1.5c-0.9-0.5-2-0.5-2.8,0c-0.1,0.1-0.3,0.2-0.4,0.3
	c-0.1,0.1-0.3,0.2-0.4,0.3c-0.2,0.3-0.4,0.5-0.6,0.8c-0.2,0.3-0.3,0.6-0.4,0.9c-0.1,0.2-0.1,0.4-0.2,0.5c-0.3,1.2-0.2,2.4,0.4,3.5
	c0.4,0.7,1,1.3,1.8,1.5l0.2,0.1c0.2,0,0.5,0.1,0.7,0.1c0.5,0,1-0.1,1.4-0.4c0.5-0.3,1-0.8,1.3-1.3c0.3-0.6,0.5-1.3,0.5-1.9
	c0.1-0.6,0-1.1-0.1-1.7c-0.1-0.7-0.4-1.3-0.9-1.8c-0.8-0.8-2.1-1-3.1-0.4c-0.7,0.4-1.2,1.1-1.4,2c-0.3,1.3-0.2,2.6,0.4,3.8
	c0,0.1,0.1,0.1,0.1,0.2c0.1,0.2,0.3,0.4,0.5,0.6c0.4,0.3,0.8,0.6,1.2,0.7c0.5,0.1,1,0.1,1.5,0c1-0.3,1.7-1,1.9-2
	c0.1-0.4,0.1-0.7,0.1-1.1c0-0.6-0.2-1.1-0.3-1.7c-0.1-0.3-0.2-0.6-0.4-0.9c-0.2-0.3-0.4-0.5-0.6-0.7c-0.6-0.6-1.5-0.9-2.4-0.8
	c-0.4,0-0.7,0.2-1,0.4c-0.4,0.2-0.8,0.6-1,1c-0.3,0.5-0.4,1.1-0.4,1.7c0,1.1,0.4,2.1,1.2,2.9c0.4,0.4,0.9,0.7,1.5,0.9
	c0.3,0.1,0.7,0.1,1.1,0c0.4,0,0.7-0.2,1-0.4c0.3-0.2,0.6-0.5,0.9-0.9c0.1-0.2,0.3-0.5,0.3-0.8c0.2-0.7,0.1-1.4-0.3-2.1
	c-0.6-1-1.6-1.6-2.8-1.5c-0.5,0-1,0.2-1.5,0.4c-0.4,0.2-0.6,0.7-0.5,1.2c0.1,0.4,0.5,0.8,1,0.8L739,555.2z"/>
<path d="M744.1,558.4c-2.8-0.2-5.6-0.2-8.3,0.2c-0.6,0.2-1,0.8-0.8,1.4c0.1,0.5,0.6,0.9,1.1,0.9c2.7-0.3,5.3-0.6,8-0.6
	c0.5,0.1,1-0.3,1-0.8c0.1-0.5-0.3-1-0.8-1C744.2,558.4,744.1,558.4,744.1,558.4L744.1,558.4z"/>
<path d="M748.3,543.6c-5.4-1.1-11-1.6-16.5-1.5c0.2-1.3,1.8-1.9,3.1-2.1c4.8-0.7,9.7,0.3,13.8,2.8c-0.1,0.2-0.3,0.3-0.5,0.2"/>
<path d="M748.5,543.1c-5.5-1.3-11.1-1.9-16.7-2l1,1.3c0.3-1.1,1.7-1.3,2.7-1.4c1.4-0.2,2.9-0.2,4.3-0.1c3,0.3,5.9,1.2,8.5,2.6
	l-0.3-1.1l0.2-0.1c-0.4,0-0.7,0.4-0.7,0.8c0,0.3,0.2,0.6,0.5,0.7c0.5,0.1,0.9,0,1.3-0.3c0.3-0.3,0.3-0.9,0-1.2c0,0-0.1-0.1-0.1-0.1
	c-3-2.1-6.5-3.3-10.2-3.4c-2.5-0.1-7.5-0.1-8.1,3.1c-0.2,0.5,0.1,1.1,0.6,1.3c0.1,0,0.2,0.1,0.4,0c5.5-0.3,11,0,16.4,1
	C748.8,544.3,749.2,543.3,748.5,543.1L748.5,543.1z"/>
<path d="M706,585.7c1.3,1.2,2.8,2.1,4.5,2.5c1.2,0.3,2.4,0.3,3.5,0c0.6-0.2,1.2-0.4,1.8-0.6c0.8-0.3,1.5-0.7,2.2-1.2
	c0.4-0.5,0.6-1.1,0.3-1.7c-0.2-0.6-0.8-1-1.5-1c-0.7,0.1-1.4,0.3-2.1,0.5c-0.3,0.1-0.5,0.1-0.8,0.2l-0.4,0.1c0.5,0,0,0-0.1,0
	c-0.9,0.1-1.7,0.1-2.6,0c-0.2,0,0.5,0.1,0.1,0l-0.7-0.1h-0.3c0.5,0,0.2,0,0.1,0c-0.4-0.1-0.7-0.1-1.1-0.2c-0.8-0.2-1.6-0.3-2.4-0.3
	c-0.6,0-1,0.4-1,1C705.7,585.2,705.9,585.5,706,585.7L706,585.7z"/>
<path d="M293.8,568.2c3.6,5.1,8.9,8.8,15,10.4c0.9,0.2,1.8-0.3,2-1.2c0.2-0.9-0.3-1.7-1.1-2c-2.7-0.8-5.2-1.9-7.6-3.3
	c-2.4-1.5-4.5-3.3-6.4-5.3C294.8,565.8,293,567,293.8,568.2L293.8,568.2z"/>
<path d="M708.4,604.1c3.9,0.4,7.9-0.1,11.6-1.4c1.9-0.6,3.8-1.4,5.5-2.3c0.9-0.5,1.8-0.9,2.7-1.4c0.9-0.4,1.7-1,2.5-1.7
	c0.9-0.9,0-2.7-1.3-2.3c-1.7,0.6-3.3,1.9-4.9,2.7c-1.7,0.9-3.4,1.7-5.1,2.4c-3.5,1.4-7.2,2-11,2C707,602,707,604,708.4,604.1
	L708.4,604.1z"/>
<path class="st4" d="M370.1,423.5c-4.4-6.8-11.4-11.6-19-14.5c-7.6-2.9-15.7-3.9-23.8-4.2c-13.7-0.5-27.7,1.1-40.3,6.4
	c-16.9,7.1-30.3,20.4-43.2,33.3c-4.7,4.7-9.5,9.5-13.2,15.1c-2.4,3.6-4.3,8-3.3,12.2s5.9,7.7,9.8,5.6c-4.6,1.6-6,8.3-2.9,12
	s9.4,3.7,13,0.5c-1.6,1.3-0.4,4.2,1.6,4.8s4.1-0.3,6-1.2c18.2-8.5,36.2-18.5,50.3-33c-0.8,2.2-2.3,4.1-3.2,6.3s-1.1,4.9,0.5,6.6
	c1.2,1.3,3.1,1.7,4.8,1.9c15.9,1.6,30.7-8.8,41.2-20.9c-1.8,2.4-3.1,5.2-3.7,8.1c-0.4,1.2-0.4,2.5,0,3.7c1.3,3.6,6.5,3.5,10,2.2
	c7.4-2.8,13.6-7.9,17.8-14.6c-1.1,15.5,4.6,30.7,15.6,41.7c0.4,0.5,0.9,0.8,1.5,0.9c0.6,0,1.1-0.3,1.5-0.7
	c9.5-7.6,12.6-22.3,6.9-33.1c-0.1,2.5,3.7,3.7,5.6,2.1s2.1-4.6,1.5-7c-1.1-4-4-7.2-6.9-10.3l-13.8-14.9c-2.5-2.7-5.1-5.5-8.4-7.2
	c-3.3-1.7-7.4-2.3-10.6-0.5"/>
<path d="M371,422.9c-6.9-11-19.2-16.6-31.6-18.6c-13.8-2.2-27.9-1.7-41.6,1.5c-12.8,3.1-24.1,9.7-34.3,17.9
	c-5.1,4.1-9.9,8.6-14.6,13.2s-9.5,9.1-13.8,14c-4.6,5.2-10.4,12.2-9.8,19.6c0.5,6,6.7,11.4,12.7,8.5c1.8-0.9,0.5-4-1.4-3.3
	c-5.5,2-7.7,9.2-4.5,14.1c3.6,5.5,11.7,5.5,16.4,1.5l-2.7-2.7c-1.5,1.6-1.7,4-0.4,5.8c1.4,2,3.9,2.9,6.3,2.3c2.6-0.5,5.2-2,7.5-3.1
	s4.7-2.3,7-3.5c9.4-4.7,18.4-10.2,26.8-16.5c4.7-3.5,9.2-7.4,13.3-11.6l-3-1.7c-0.9,2.3-2.5,4.3-3.4,6.6c-0.8,2-0.9,4.3-0.1,6.4
	c1.9,4.5,8,4.5,12.1,4.3c9.5-0.5,18.3-4.7,25.7-10.4c4.3-3.3,8.3-7.1,11.9-11.2l-2.9-2.2c-2.2,3.1-4.1,7.1-4.1,10.9
	c-0.1,3.2,2.2,5.9,5.4,6.5c3.2,0.6,6.3-0.2,9.2-1.4c7-3,13-8.1,17.1-14.6l-3.5-0.9c-0.9,12.8,2.7,25.5,10.1,36
	c1.7,2.7,3.8,5.3,6.1,7.5c1.2,1.3,3.2,1.6,4.7,0.8c1.3-0.8,2.5-1.8,3.4-2.9c8.4-9.1,10.4-22.5,4.8-33.6c-1-1.8-3.9-0.9-3.8,1
	c0.1,4.7,6.3,6.3,9.4,3.3c3.8-3.7,2-9.8-0.5-13.7c-1.5-2.2-3.2-4.3-5.1-6.2l-6.4-6.9l-6.4-6.9c-1.8-2.1-3.8-4.1-5.9-5.9
	c-4.6-3.9-11-6.2-16.7-3.2c-2.4,1.3-0.3,4.9,2.1,3.7c3.5-1.9,7.6-0.4,10.6,1.8c3.7,2.6,6.6,6.4,9.6,9.7c3.3,3.6,6.7,7.2,10.1,10.9
	c2.6,2.9,5.9,6.2,6.4,10.2c0.2,1.2,0.1,3.3-1.2,3.9c-0.5,0.2-1.1,0.2-1.5,0c-0.1-0.1-0.3-0.2-0.4-0.3c-0.2-0.2-0.1,0-0.1-0.3l-3.8,1
	c4.4,8.4,3,19.2-2.8,26.6c-0.7,0.9-1.5,1.8-2.3,2.5c-0.2,0.2-1.2,0.9-1.3,1.2l-0.2,0.1c0.4,0.2,0.5,0.3,0.4,0.2c0,0-0.8-0.8-0.9-0.9
	c-2-1.9-3.8-4-5.5-6.2c-3.2-4.6-5.6-9.6-7.2-14.9c-1.8-6-2.5-12.2-2-18.4c0.1-2-2.6-2.4-3.5-1c-4,6.4-9.9,11.3-17,13.8
	c-2,0.7-5.9,1.5-7.3-0.6c-1-1.4-0.2-3.7,0.3-5.2c0.7-2,1.7-3.9,2.9-5.6c1.2-1.7-1.5-3.8-2.9-2.2c-5.5,6.5-12.1,11.9-19.6,16
	c-3.6,1.9-7.4,3.2-11.4,4c-2,0.4-4.1,0.5-6.1,0.5c-1.8,0-4.1,0.1-5.6-0.9c-1.7-1.1-1.4-3.4-0.8-5.1c0.9-2.3,2.4-4.3,3.3-6.6
	c0.7-1.7-1.8-2.9-3-1.7c-12.9,13-28.9,22.4-45.3,30.4c-2.3,1.1-4.7,2.6-7.2,3.2c-0.9,0.3-1.8,0.2-2.5-0.4c-0.2-0.2-0.4-0.5-0.4-0.8
	c-0.1-0.3,0-0.2,0.2-0.4c1.8-1.7-0.9-4.3-2.7-2.7c-2.8,2.5-8.1,2.6-10.4-0.7c-1.9-2.7-1-7.5,2.2-8.7l-1.4-3.3c-1.9,0.9-4,0-5.3-1.4
	c-1.7-1.8-2.4-4.4-1.8-6.9c0.7-3,2-5.8,3.9-8.3c1.8-2.6,3.8-5,5.9-7.3c4.1-4.5,8.6-8.8,12.9-13c4.4-4.2,8.7-8.3,13.3-12.1
	c9.2-7.6,19.5-13.8,31.1-17.2c12.3-3.6,25.5-4.2,38.3-3c13.1,1.2,27,5.9,34.9,17.1C370,425,371.7,424,371,422.9L371,422.9z"/>
<path d="M776.9,539.5c-11.7-0.1-22.7-4.8-33.4-9.4c-7.2-3.1-14.4-6.2-21-10.5c-5.3-3.6-10.2-7.6-14.6-12.1
	c-12.5-12.2-24-27.2-24.7-44.7c-0.2-1.6,0.1-3.2,0.6-4.8c1.2-2.8,4.2-4.3,7-5.2c4.9-1.6,10.1-1.9,15.3-2.3c18-1.2,36.3,0,51.9,9.8
	c18.2,11.5,29.9,31.6,31.7,53c0.9,10.6-3.5,22.3-13,27"/>
<path d="M776.9,538.9c-11.3-0.2-21.8-4.7-31.9-9.1s-20.1-8.9-28.7-16.1c-7.8-6.4-14.8-13.8-20.9-21.9c-5.6-7.7-10.1-16.6-11.1-26.3
	c-0.3-2.5-0.7-5.5,0.6-7.8c1.1-2,3.4-3.1,5.5-3.9c5.2-1.8,10.8-2.2,16.2-2.5c10.3-0.7,20.7-0.6,30.8,1.6c9.8,2.1,19,6.5,26.8,12.9
	c6.9,5.8,12.6,12.8,16.8,20.8c4.2,8,6.9,16.8,7.8,25.8c0.8,8.3-1.3,17.5-7.5,23.5c-1.5,1.4-3.1,2.6-4.9,3.6c-1,0.5-0.1,1.9,0.8,1.4
	c8-3.8,12.3-12.6,13.4-21c0.4-4.5,0.2-9.1-0.8-13.6c-0.8-4.7-2.1-9.2-3.9-13.6c-7.2-18.2-21.8-33.2-40.5-39.5
	c-10.2-3.5-21.2-4.4-32-4.1c-5.6,0.1-11.2,0.5-16.7,1.3c-4.5,0.7-10.3,1.8-13.1,5.8c-1.5,2.1-1.6,4.8-1.4,7.3c0.1,2.5,0.5,5,1,7.4
	c1.2,4.9,3,9.6,5.4,14c4.9,9,11.8,16.8,19.1,23.8c4,4,8.4,7.6,13.1,10.9c4.9,3.2,10,6,15.4,8.3c10.3,4.6,21,9.6,32.3,11.4
	c2.8,0.5,5.6,0.7,8.4,0.7c0.3,0,0.6-0.4,0.5-0.7C777.3,539.1,777.1,538.9,776.9,538.9L776.9,538.9z"/>
<path d="M685.2,455.7c-17.1-2.3-33.3,12-41.2,25.5c-9.9,17-10.8,37-2.1,55.4c0.2,0.5,0.5,0.9,0.9,1.3c0.5,0.3,1.1,0.4,1.7,0.3
	c3.2-0.3,5.7-2.7,7.9-5c8.8-9.1,17.4-18.7,22.9-30.1c5.8-12.1,7.9-25.6,9.9-38.9c0.4-2.7,0.8-5.8-0.8-8.1"/>
<path d="M685.4,455.1c-13-1.9-25.2,5.4-33.8,14.6c-9.4,9.9-15.2,22.7-16.4,36.3c-0.5,7.1,0.2,14.2,2.1,21c0.9,3.6,2.2,7,3.9,10.3
	c1.7,3,5.6,1.5,7.8,0c2.9-2,5.2-4.8,7.5-7.3c2.4-2.5,4.9-5.4,7.3-8.2c4.8-5.6,8.9-11.7,12.2-18.3c3.2-6.8,5.6-14,7.1-21.5
	c0.8-3.8,1.5-7.6,2.1-11.4c0.3-1.9,0.6-3.7,0.9-5.6c0.3-1.7,0.5-3.4,0.5-5.2c-0.1-1.6-0.5-3.1-1.3-4.4c-0.3-0.5-1-0.7-1.5-0.4
	c-0.5,0.3-0.7,0.9-0.4,1.4c1.7,2.9,0.6,6.8,0.2,9.9c-0.5,3.4-1.1,6.9-1.7,10.3c-1.2,7-3,13.9-5.4,20.5c-5,12.9-13.9,23.6-23.4,33.5
	c-2.2,2.3-4.5,5.2-7.6,6c-0.8,0.2-1.8,0.5-2.5-0.2c-0.5-0.7-0.9-1.5-1.1-2.3c-0.7-1.7-1.4-3.4-2-5.1c-6.5-19-2.7-39.9,10.1-55.3
	c8.4-10.3,21.2-19.3,35.1-17.7C685.9,456.3,686,455.1,685.4,455.1L685.4,455.1z"/>
<path class="st5" d="M241.1,677.5c5.4,9.3,14.6,16.5,24.1,21.2c11.1,5.6,23.6,8,35.9,8.8c13.1,0.9,26.2,0.4,39.2-1.4
	c11.8-1.5,23.2-5.4,33.5-11.6c5.3-3.2,10.1-7,14.6-11.3c4.5-4.2,8.4-9,11.6-14.3c1-1.8-1.5-3.2-2.7-1.6c-3,4.3-6.4,8.4-10,12.2
	c-3.7,3.7-7.8,7.1-12.2,10c-9.3,6-19.7,10.1-30.6,11.9c-6.3,1-12.6,1.6-18.9,1.8c-6.4,0.3-12.8,0.4-19.2,0.2
	c-12-0.4-24.2-2-35.4-6.3c-5.5-2.1-10.8-4.9-15.6-8.3c-4.8-3.5-9-7.7-12.5-12.5C242.1,675.5,240.5,676.4,241.1,677.5L241.1,677.5z"
	/>
<path class="st2" d="M169,643.4c-8.5-1.5-17,2.5-24,7.6c-26.5,19.8-36,55.3-22.9,85.7c0.8,1.8,1.8,3.8,3.6,4.7
	c3,1.5,6.8-0.6,8.2-3.6s1.2-6.5,0.9-9.8c7.6,8.8,22.4,10.2,31.5,3c10.9-8.6,11.8-24.4,14.9-37.9c0.1-0.5,0.3-1,0.6-1.4
	c1.7-1.6,3.9,2.3,6.2,1.9c3.6-9.4,5.2-19.9,2.3-29.5c-2.9-9.6-10.9-18-20.9-19.4"/>
<path class="st2" d="M169.2,642.4c-10.6-2.1-20.5,3.4-28.5,10c-24.5,20.3-33,54.2-21,83.6c1,2.5,2.2,5.3,4.6,6.8
	c2.1,1.2,4.7,1.2,6.8,0.1c5.6-2.8,5.8-9.4,5.3-14.9l-3,1.2c7.6,8.6,21.3,10.6,31.2,5c10.8-6.1,14.1-19,16.2-30.2
	c0.7-3.4,1.2-6.7,2-10.1c0.1-0.3,0.2-0.6,0.2-0.9c0.1,0.1-0.6,0.2-0.6,0.1s1.4,0.9,1.6,1c1.1,0.9,2.4,1.4,3.9,1.3
	c0.9,0,1.6-0.6,1.9-1.4c3.3-8.6,4.9-17.9,3.2-27c-1.4-7.7-5.7-14.6-11.9-19.4c-3.4-2.7-7.4-4.3-11.7-4.7c-1.9-0.1-2.3,2.9-0.4,3.3
	c6.5,1.4,12.2,5.3,15.9,10.9c4.3,6.5,5.5,14.3,4.7,22c-0.6,4.8-1.7,9.4-3.5,13.9l1.9-1.4c-0.8,0.1-1.6-0.6-2.3-1.1
	c-1-0.8-2.3-1.2-3.6-1.1c-3,0.7-3.1,4.9-3.6,7.4c-1.1,5.8-2.1,11.6-3.8,17.3c-1.6,5.3-3.9,10.4-8,14.2c-3.9,3.6-9.1,5.6-14.4,5.5
	c-6.1,0.1-12-2.5-16.2-7c-0.7-0.7-1.8-0.7-2.5,0c-0.3,0.3-0.5,0.8-0.5,1.2c0.3,3.9,0.9,9.5-3.3,11.6s-6.1-3.7-7.2-6.7
	c-3.3-9.2-4.8-18.9-4.3-28.7c1.1-18.1,9.1-35.1,22.3-47.4c7.3-6.9,17.5-14,28.1-12.4c1.3,0.2,1.9-1.8,0.6-2.1L169.2,642.4z"/>
<path d="M171.2,687c0.2,8.9,3.6,18.3,9.7,24.8c1.2,1.2,2.8-0.5,1.8-1.8c-2.7-3.3-4.9-6.9-6.6-10.8c-1.6-3.9-2.5-8-2.9-12.2
	C173.2,685.7,171.2,685.6,171.2,687L171.2,687z"/>
<path d="M125.8,718.6c0.6,7.5,3.5,14.6,8.4,20.4c0.9,1,2.8-0.4,1.9-1.5c-2.2-2.8-4-5.8-5.5-9c-1.4-3.2-2.4-6.7-3-10.2
	C127.4,717.3,125.7,717.5,125.8,718.6L125.8,718.6z"/>
<path d="M139.5,711c1,8,5.3,15.9,10.8,21.8c1.1,1.2,2.9-0.6,1.8-1.8c-2.5-2.9-4.7-6.1-6.6-9.5c-1.7-3.5-3.1-7.1-4.2-10.8
	C141,709.8,139.3,709.9,139.5,711z"/>
<path d="M155.9,700.3c0.9,4.7,2.5,9.3,4.8,13.5c2.1,4.3,4.9,8.3,8.2,11.7c1.1,1.2,2.8-0.5,1.8-1.8c-3-3.5-5.6-7.2-7.9-11.2
	c-2.1-4.1-3.7-8.4-5-12.8c-0.1-0.6-0.7-0.9-1.3-0.7S155.6,699.7,155.9,700.3L155.9,700.3z"/>
<path class="st3" d="M655.3,688.1c12,7.8,27.2,8.9,41.5,8.6c1.9,0,4-0.1,5.5,1c1.1,0.8,1.9,1.9,2.6,3l7.3,11.7
	c3.1-5.6,5.3-11.5,6.7-17.8l25.8-0.6c2.1-0.2,4.2,0,6.2,0.5c5.1,1.5,8.2,6.6,10,11.6c3.3,8.6,4.4,17.9,3.3,27
	c-0.8,7.1-3.3,14.4-8.7,19.2c-5,4.4-11.9,5.9-18.5,7c-34.2,5.6-69.2,3.6-102.6-5.8"/>
<path d="M756.7,696c-2.8-2.5-6.5-3.8-10.2-3.7c-9.2,0-18.4,0.4-27.6,0.6c-0.8,0-1.5,0.5-1.8,1.3c-1.3,6.1-3.5,11.9-6.5,17.3h3.1
	c-2.6-4.2-5.1-8.4-7.8-12.5c-1.1-1.9-2.9-3.2-4.9-3.7c-2.1-0.3-4.2-0.4-6.2-0.2c-8.5,0.2-17.2-0.2-25.5-2.3c-4.7-1.2-9.2-3-13.5-5.5
	c-1.1-0.7-2,1-1,1.7l0,0c6.8,4.7,14.7,7.2,22.9,8.4c4.2,0.6,8.4,0.9,12.6,1c2,0,4.1,0.1,6.1,0s4.2-0.2,5.7,1.3c0.8,0.9,1.4,1.9,2,3
	l2.2,3.5l4.4,7.1c0.5,0.9,1.6,1.1,2.5,0.6c0.3-0.2,0.5-0.4,0.6-0.6c3.2-5.7,5.5-11.8,6.9-18.2l-1.8,1.3l23.3-0.5
	c3.3-0.1,7-0.5,10,1.2L756.7,696z"/>
<path class="st3" d="M897.5,761.8c-6.6-8.3-13.3-16.7-21.3-23.7c-7.4-6.3-15.5-11.6-24.1-16.1c-25.2-13.5-52.9-21.9-81.3-24.7
	l44.4,209.5h131.3c4-38.5-4.5-77.2-24.2-110.5C915,784.2,906.3,772.9,897.5,761.8z"/>
<path class="st5" d="M121.8,824.3c-1.9,20.3-1.4,40.7,1.4,60.9c0.8,5.7,1.5,11.5,2.9,17.1c0.4,1.8,3,1,2.8-0.8
	c-0.8-5-1.8-9.9-2.5-14.8s-1.3-10.2-1.8-15.3c-0.9-10-1.4-20-1.3-30c0-5.7,0.3-11.5,0.5-17.2C123.9,823,122,823.1,121.8,824.3
	L121.8,824.3z"/>
<path class="st5" d="M506.3,811.2c1.3,24,2.2,48,2.9,71.9c0.1,3.3,0.2,6.6,0.3,9.9c0,1.7,0.1,3.5,0.1,5.2v2.5c0,0.3,0,0.7,0,1
	c0.2,0.7,0-0.2,1.1,0.4l0.7,1.2l-0.1,0.5c0.7-1.3-1-2.8-2.1-1.6c-0.6,0.6-0.7,1.5-0.1,2.2c0.1,0.1,0.2,0.2,0.3,0.3
	c0.9,0.4,2.1,0.2,2.7-0.7c0.8-1,0.5-2.5,0.5-3.7c0-1.7-0.1-3.5-0.1-5.2c-0.2-6.8-0.4-13.6-0.7-20.4c-0.5-13.6-1.2-27.1-2-40.7
	c-0.4-7.6-0.9-15.2-1.4-22.8c-0.1-1.3-2.2-1.4-2.1,0L506.3,811.2z"/>
<path class="st2" d="M104.1,367.8c8.9-2.3,18.1-2.9,27.3-1.9c1,0.1,1.4-1,1.3-1.7c-0.5-3.7,1.5-7.2,4.8-8.7c3.4-1.3,7.3-0.2,9.5,2.7
	c0.8,1.1,3,0.9,2.9-0.8c-0.8-8.1-1.9-17.9,4.2-24.3c2.4-2.5,5.7-4.4,9.3-4.1c3.2,0.2,5.8,2.3,7.6,4.8c2.1,3.3,3.7,6.8,4.7,10.6
	c0.3,0.9,1.3,1.5,2.2,1.2c0.6-0.2,1-0.6,1.2-1.2c1.3-4.8,3.3-9.3,5.9-13.5c2-3.2,4.7-6.2,8.8-5.3c3.6,0.8,6.4,3.5,7.5,7
	c1.5,4.5,0.6,9.2-0.6,13.6c-0.7,2.7-0.2,4.9,2.3,6.3c2.6,1.4,5.2,2.7,7.9,3.9c2.1,0.9,3.9-1.9,1.8-3.1c-2.5-1.4-5-2.5-7.5-3.9
	c-1.1-0.6-1.3-0.8-1-2c0.3-1.2,0.7-2.5,0.9-3.7c1-4.9,1-10.3-1.4-14.8c-2-3.7-5.6-6.2-9.7-6.9c-4.8-0.8-8.4,1.7-11.1,5.4
	c-3.4,4.9-5.9,10.4-7.3,16.2h3.4c-2.2-7-5.6-15.8-13.6-17.6c-9-2-16.6,6.1-18.5,14.2c-1.3,5.7-0.7,11.6-0.1,17.3l2.9-0.8
	c-3-4.2-8.5-5.7-13.3-3.8c-4.6,2.1-7.2,7.1-6.3,12.1l1.3-1.7c-9.4-0.8-18.8,0-27.8,2.6c-0.5,0.3-0.7,0.9-0.5,1.4
	C103.2,367.6,103.6,367.8,104.1,367.8L104.1,367.8z"/>
<path class="st2" d="M504.8,386.5c13,0.8,26.1,1.2,39.1,1.9c0.7,0,1.3-0.6,1.3-1.3c0-0.2-0.1-0.5-0.2-0.7c-2-4.6-0.7-10,3.1-13.3
	c4.2-3.1,10.1-2.9,14,0.6c0.6,0.6,1.6,0.5,2.2-0.1c0.3-0.4,0.5-0.9,0.4-1.4c-1.5-5.6-0.7-12.2,3.3-16.6c3.6-4,9.4-5.1,14.2-2.6
	c2.5,1.2,4.3,3.4,5,6l3.2-0.9c-2.2-7.7-4.2-15.8-3.4-23.9c0.5-8.1,5.8-15.1,13.5-17.9c4.1-1.6,8.3-2.8,12.6-3.6
	c4.6-1,9.3-1.5,14-1.5c8.6,0,17.5,2,24.1,7.8c6.4,5.6,10.7,14.2,8.5,22.7c-0.6,2.4,3.1,3.4,3.7,1c1.1-4.4,4.1-9.2,8.9-10
	c3.8-0.6,8.8,3,7.5,7.1c-0.3,1,0.4,2,1.3,2.3c0.5,0.1,0.9,0.1,1.4-0.2l5.1-2.7c1.9-1,0.2-3.6-1.6-2.8l-5.4,2.3l2.7,2.1
	c2-6.3-4.4-12.4-10.5-12c-6.8,0.4-11.5,6.8-13.1,12.9l3.7,1c2.2-8.5-1-17.3-6.8-23.7c-6.3-7.1-15.4-10.6-24.8-11.4
	c-5.1-0.4-10.2-0.1-15.2,0.7c-4.9,0.7-9.7,1.8-14.4,3.4c-4.5,1.4-8.6,3.8-12,7c-3,3-5,6.9-6,11c-2.4,9.7,0.2,20,3,29.3
	c0.3,0.9,1.3,1.3,2.1,1c0.8-0.3,1.3-1.1,1.1-1.9c-1.6-6.3-8.2-9.9-14.4-9.6c-7.2,0.3-12.5,5.8-14.3,12.5c-1.1,4-1.1,8.2,0,12.1
	l2.5-1.5c-5-4.5-12.5-4.8-17.9-0.8c-4.9,4.1-6.4,11.1-3.6,16.9l1.1-2c-13,0-26.1-0.6-39.1-1.2C503.5,384.5,503.5,386.4,504.8,386.5
	L504.8,386.5z"/>
<path class="st2" d="M846.5,536.1c8.4,2,17.1,2.8,25.8,2.3c0.8,0,1.4-0.7,1.4-1.4c0-0.2-0.1-0.5-0.2-0.6c-1.7-3.8-1.1-8.3,1.5-11.6
	c1.2-1.6,2.8-2.8,4.7-3.3c1-0.2,3.7-0.3,3.9,1.2l3.1-0.4c-1.6-4.3-0.3-9.1,3.2-12c1.7-1.3,3.8-2.1,5.9-2.3c1.1-0.1,2.2,0,3.2,0.3
	c0.4,0.1,0.8,0.2,1.1,0.4c0.1,0.1,0.2,0.3,0.3,0.3c0.6,0.3-2.5,0.5,0.7-0.8l2.1,1.6c-0.3-3.6,1.6-7,4.8-8.7c1.6-0.7,3.3-1,5-0.7
	c1.7,0.4,3.4,1,4.9,2c1.2,0.6,2.9-0.7,2-2c-2.9-4-9.1-4.4-13.3-2.5c-4.4,2.2-7.1,6.9-6.7,11.8c0.1,1,1,2.1,2.1,1.6
	c3.6-1.5,1.1-5.5-1.6-6.3c-3.3-0.9-6.8-0.6-9.9,0.9c-6.3,3.1-9.2,10.4-6.9,17c0.5,1.5,3.3,1.5,3.1-0.4c-0.4-3-2.9-4.4-5.7-4.4
	c-2.8,0.1-5.5,1.4-7.4,3.5c-4.1,4.3-5.1,10.7-2.5,16l1.2-2.1c-8.4,0.7-16.9,0.2-25.2-1.5c-1.2-0.2-1.8,1.6-0.5,1.9L846.5,536.1z"/>
<g>
	<path class="st5" d="M871.2,814.9c1.6,11.2,0.8,22.4-0.1,33.6c-0.9,11.4-1.9,22.9-2.8,34.3c-0.2,3.2-0.5,6.3-0.7,9.5l-0.4,5
		c0,0.7-0.1,1.3-0.2,2c0,0.2-0.1,0.4-0.2,0.6c-0.2,0.2-0.3,0-0.1,0.2c-0.5-0.6-1.3-0.8-2-0.3c-0.6,0.4-0.7,1.1-0.5,1.8
		c1.2,2.1,4.2,1.5,5.2-0.4c0.4-1,0.7-2.2,0.7-3.3c0.1-1.7,0.3-3.3,0.4-5c0.5-6.5,1-13,1.5-19.4c1-12.6,2.2-25.3,2.5-37.9
		c0.3-7-0.2-14.1-1.4-21.1C872.9,813.1,871,813.6,871.2,814.9L871.2,814.9z"/>
	<path class="st5" d="M710.6,735.6c-0.3,0.4-0.5,0.8-0.8,1.2c-0.3,0.5-0.4,1.1-0.5,1.7c-0.1,1,0.3,2,1,2.7c0.8,0.8,2.1,1,3.1,0.4
		c0.9-0.6,1.4-1.7,1.2-2.8c-0.1-0.3-0.2-0.6-0.4-0.8c-0.1-0.2-0.2-0.3-0.4-0.4c-0.2-0.2-0.5-0.3-0.7-0.3c-0.5-0.2-1.1-0.4-1.7-0.5
		c-0.6-0.2-1.3,0.2-1.6,0.8c-0.3,0.6,0,1.3,0.5,1.7c0.7,0.3,1.5,0.6,2.2,0.9l-0.6-0.4l0.1,0.1c-0.3-0.2-0.2-0.2-0.1-0.1l-0.1-0.3
		c0,0.1,0,0.1,0.1,0.2v-0.4v0.2v-0.4c0,0.1,0,0.1,0,0.2c-0.1,0.2,0-0.1,0.1-0.1c0,0.1-0.1,0.1-0.1,0.2c-0.2,0.2,0.2-0.2,0.1-0.1
		l-0.1,0.1c-0.2,0.1,0.3-0.2,0.1-0.1H712l0.2-0.1H712h0.3H712h0.3c-0.1,0-0.2,0-0.3-0.1c-0.1,0,0.2,0.1,0.2,0.1l-0.1-0.1
		c0,0-0.1,0-0.1-0.1s0.2,0.2,0.1,0.1s-0.2-0.3-0.1-0.1s0-0.1-0.1-0.1l-0.1-0.1c-0.1-0.2,0.1,0.2,0,0.1l-0.1-0.3c0,0,0-0.1,0-0.1
		c0-0.2,0,0.3,0,0.1s0-0.2,0-0.3s0-0.1,0-0.2s0,0.1,0,0.1s0.2-0.6,0.2-0.7l0.1-0.2c0.1-0.2-0.1,0.2,0,0s0.1-0.2,0.1-0.3l0.2-0.5
		c0.1-0.2-0.1,0.1,0,0c0-0.1,0.1-0.1,0.1-0.2c0.1-0.3,0.2-0.5,0.1-0.8c-0.2-0.6-0.8-0.9-1.3-0.7c-0.3,0.1-0.5,0.2-0.6,0.5
		L710.6,735.6z"/>
	<path class="st5" d="M710.6,759.6c-0.3,0.4-0.5,0.8-0.8,1.2c-0.3,0.5-0.4,1.1-0.5,1.7c-0.1,1,0.3,2,1,2.7c0.8,0.8,2.1,1,3.1,0.4
		c1-0.6,1.4-1.7,1.2-2.8c-0.1-0.3-0.2-0.6-0.4-0.8c-0.1-0.1-0.2-0.3-0.4-0.4c-0.2-0.2-0.5-0.3-0.7-0.3c-0.5-0.2-1.1-0.4-1.7-0.5
		c-0.6-0.2-1.3,0.2-1.6,0.8c-0.3,0.6,0,1.3,0.5,1.7c0.7,0.3,1.5,0.6,2.2,0.8l-0.6-0.3l0.1,0.1c-0.3-0.2-0.2-0.2-0.1-0.1l-0.1-0.3
		c0,0.1,0,0.2,0.1,0.2v-0.4v0.2v-0.4c0,0.1,0,0.1,0,0.2c-0.1,0.2,0-0.1,0.1-0.1c0,0.1-0.1,0.1-0.1,0.2c-0.2,0.2,0.2-0.2,0.1-0.1
		l-0.1,0.1c-0.2,0.2,0.3-0.2,0.1-0.1H712c-0.1,0.1-0.1,0,0.2-0.1H712h0.3c-0.1,0-0.2,0-0.3,0l0.3,0c-0.1,0-0.2,0-0.3-0.1
		c-0.1,0,0.2,0.1,0.2,0.1l-0.1-0.1c0,0-0.1,0-0.1-0.1s0.2,0.2,0.1,0.1s-0.2-0.3-0.1-0.1s0-0.1-0.1-0.1l-0.1-0.1
		c-0.1-0.2,0.1,0.2,0,0.1l-0.1-0.3c0,0,0-0.1,0-0.1c0-0.2,0,0.3,0,0.1s0-0.2,0-0.3s0-0.1,0-0.2s0,0.1,0,0.1s0.2-0.6,0.2-0.7l0.1-0.1
		c0.1-0.2-0.1,0.2,0,0l0.1-0.3c0.1-0.2,0.2-0.3,0.2-0.5s-0.1,0.1,0,0s0.1-0.1,0.1-0.2c0.1-0.3,0.2-0.5,0.1-0.8
		c-0.2-0.6-0.7-0.9-1.3-0.7C711,759.2,710.8,759.3,710.6,759.6L710.6,759.6z"/>
	<path class="st5" d="M710.6,783.7c-0.3,0.4-0.5,0.8-0.8,1.2c-0.3,0.5-0.4,1.1-0.5,1.7c-0.1,1,0.3,2,1,2.7c0.8,0.8,2.1,1,3.1,0.4
		c0.9-0.6,1.4-1.7,1.2-2.8c-0.1-0.3-0.2-0.6-0.4-0.8c-0.1-0.1-0.2-0.3-0.4-0.4c-0.2-0.2-0.5-0.3-0.7-0.3c-0.5-0.2-1.1-0.4-1.7-0.5
		c-0.6-0.2-1.3,0.2-1.6,0.8c-0.3,0.6,0,1.3,0.5,1.7c0.7,0.3,1.5,0.6,2.2,0.9l-0.6-0.4l0.1,0.1c-0.3-0.2-0.2-0.2-0.1-0.1l-0.1-0.3
		c0,0.1,0,0.1,0.1,0.2v-0.4v0.2v-0.4c0,0.1,0,0.1,0,0.2c-0.1,0.2,0-0.1,0.1-0.1c0,0.1-0.1,0.1-0.1,0.2c-0.2,0.2,0.2-0.2,0.1-0.1
		c0,0-0.1,0.1-0.1,0.1c-0.2,0.1,0.3-0.2,0.1-0.1H712l0.2-0.1H712h0.3H712h0.3c-0.1,0-0.2,0-0.3-0.1c-0.1,0,0.2,0.1,0.2,0.1l-0.1-0.1
		c0,0-0.1,0-0.1-0.1s0.2,0.2,0.1,0.1s-0.2-0.3-0.1-0.1s0-0.1-0.1-0.1l-0.1-0.1c-0.1-0.2,0.1,0.2,0,0.1l-0.1-0.3c0,0,0-0.1,0-0.1
		c0-0.2,0,0.3,0,0.1s0-0.2,0-0.3s0-0.1,0-0.2s0,0.1,0,0.1s0.2-0.6,0.2-0.7l0.1-0.2c0.1-0.2-0.1,0.2,0,0s0.1-0.2,0.1-0.3l0.2-0.5
		c0.1-0.2-0.1,0.1,0,0c0-0.1,0.1-0.1,0.1-0.2c0.1-0.3,0.2-0.5,0.1-0.8c-0.1-0.3-0.3-0.5-0.5-0.6c-0.5-0.3-1.2-0.1-1.5,0.4
		L710.6,783.7z"/>
	<path class="st5" d="M710.6,807.7c-0.3,0.4-0.5,0.8-0.8,1.2c-0.3,0.5-0.4,1.1-0.5,1.7c-0.1,1,0.3,2,1,2.7c0.8,0.8,2.1,1,3.1,0.4
		c1-0.6,1.4-1.7,1.2-2.8c-0.1-0.3-0.2-0.6-0.4-0.8c-0.1-0.2-0.2-0.3-0.4-0.4c-0.2-0.2-0.5-0.3-0.7-0.3c-0.5-0.2-1.1-0.4-1.7-0.5
		c-0.6-0.2-1.3,0.2-1.6,0.8c-0.3,0.6,0,1.3,0.5,1.7c0.7,0.4,1.5,0.6,2.2,0.9l-0.6-0.4l0.1,0.1c-0.3-0.2-0.2-0.2-0.1-0.1l-0.1-0.3
		c0,0.1,0,0.1,0.1,0.2v-0.4v0.2v-0.4c0,0.1,0,0.1,0,0.2c-0.1,0.2,0-0.1,0.1-0.1c0,0.1-0.1,0.1-0.1,0.2c-0.2,0.2,0.2-0.2,0.1-0.1
		l-0.1,0.1c-0.2,0.2,0.3-0.2,0.1-0.1H712c-0.1,0.1-0.1,0,0.2-0.1H712h0.3H712l0.3,0c-0.1,0-0.2,0-0.3-0.1c-0.1,0,0.2,0.1,0.2,0.1
		l-0.1-0.1c0,0-0.1,0-0.1-0.1s0.2,0.2,0.1,0.1s-0.2-0.3-0.1-0.1s0-0.1-0.1-0.1l-0.1-0.1c-0.1-0.2,0.1,0.2,0,0.1l-0.1-0.3
		c0,0,0-0.1,0-0.1c0-0.2,0,0.3,0,0.1s0-0.2,0-0.3s0-0.1,0-0.2s0,0.1,0,0.1s0.2-0.6,0.2-0.7l0.1-0.2c0.1-0.2-0.1,0.2,0,0
		s0.1-0.2,0.1-0.3s0.2-0.3,0.2-0.5s-0.1,0.1,0,0c0-0.1,0.1-0.1,0.1-0.2c0.1-0.3,0.2-0.5,0.1-0.8c-0.2-0.6-0.7-0.9-1.3-0.7
		C711,807.3,710.8,807.5,710.6,807.7L710.6,807.7z"/>
	<path class="st5" d="M710.6,831.8c-0.3,0.4-0.5,0.8-0.8,1.2c-0.3,0.5-0.4,1.1-0.5,1.7c-0.1,1,0.3,2,1,2.7c0.8,0.8,2.1,1,3.1,0.4
		c0.9-0.6,1.4-1.7,1.2-2.8c-0.1-0.3-0.2-0.6-0.4-0.8c-0.1-0.1-0.2-0.3-0.4-0.4c-0.2-0.1-0.5-0.3-0.7-0.3c-0.5-0.2-1.1-0.4-1.7-0.5
		c-0.6-0.2-1.3,0.2-1.6,0.8c-0.3,0.6,0,1.3,0.5,1.7c0.7,0.3,1.5,0.6,2.2,0.9l-0.6-0.4l0.1,0.1c-0.3-0.2-0.2-0.2-0.1-0.1l-0.1-0.3
		c0,0.1,0,0.1,0.1,0.2v-0.4v0.2v-0.4c0,0.1,0,0.1,0,0.2c-0.1,0.2,0-0.1,0.1-0.1c0,0.1-0.1,0.1-0.1,0.2c-0.2,0.2,0.2-0.2,0.1-0.1
		l-0.1,0.1c-0.2,0.2,0.3-0.2,0.1-0.1H712c-0.1,0.1-0.1,0,0.2-0.1H712h0.3H712h0.3l-0.3-0.1c-0.1,0,0.2,0.1,0.2,0.1l-0.1-0.1
		c0,0-0.1,0-0.1-0.1s0.2,0.2,0.1,0.1s-0.2-0.3-0.1-0.1s0-0.1-0.1-0.1l-0.1-0.1c-0.1-0.2,0.1,0.2,0,0.1l-0.1-0.3c0,0,0-0.1,0-0.1
		c0-0.2,0,0.2,0,0.1s0-0.2,0-0.3s0-0.1,0-0.2s0,0.1,0,0.1s0.2-0.6,0.2-0.7l0.1-0.2c0.1-0.2-0.1,0.2,0,0l0.1-0.3
		c0.1-0.2,0.2-0.3,0.2-0.5s-0.1,0.1,0,0c0-0.1,0.1-0.1,0.1-0.2c0.1-0.3,0.2-0.5,0.1-0.8c-0.1-0.3-0.3-0.5-0.5-0.6
		c-0.5-0.3-1.2-0.1-1.5,0.4L710.6,831.8z"/>
</g>
<path d="M556.9,655.4c-0.2,5.6-0.2,11.2,0.2,16.8c0.1,1.5,2.5,1.5,2.4,0c-0.4-5.6-0.5-11.2-0.4-16.8C559.1,654,557,654,556.9,655.4z
	"/>
<path d="M570,656.1c0.4,6.6-0.1,13.2-1.7,19.6c-0.1,0.6,0.3,1.2,0.9,1.4c0.6,0.1,1.1-0.2,1.3-0.7c1.8-6.6,2.3-13.5,1.5-20.2
	C571.9,654.8,569.9,654.7,570,656.1L570,656.1z"/>
<g>
	<path class="st6" d="M200.9,703.8c3.2,8.2,7.3,16.7,14.5,22c1.8,1.3,3.7,2.3,5.7,3c2.6,0.8,5.2,1.3,7.9,1.5c2.6,0.2,5,1,7.3,2.2
		c1.9,1.1,3.7,2.5,5.3,4.1c3.4,3.2,6.5,6.9,10.3,9.7c8.1,5.8,18.7,6.9,27.9,2.9c4.7-2.1,8.7-6.2,14.2-6.3c5.8-0.1,11.3,3.1,16.6,4.9
		c5.1,1.8,10.4,3.3,15.8,4.2c10.7,1.9,21.8,1.6,31.8-3.1c4.7-2.2,9-5.4,14.1-6.4c5.3-1,10.4,1.8,15.6,1.9
		c9.3,0.1,17.9-4.8,22.5-12.9c1-1.8,1.7-4.4,3.4-5.6c1.1-0.6,2.4-0.8,3.7-0.6c1.3,0.1,2.6,0.3,4,0.3c4.7,0.2,9.7-0.6,13.6-3.3
		c4.3-3,6-8.2,10.1-11.4s8.6-5.3,10.5-10.3c0.9-2.1,0.8-4.5-0.2-6.6c-0.7-1.5-3.4-0.4-2.7,1.1c2,4.8-2.8,8.7-6.3,11.1
		c-2.2,1.3-4.2,2.9-6,4.8c-1.7,1.9-2.8,4.2-4.4,6.2c-2.9,3.7-7.5,5.1-12,5.4c-2.4,0-4.7-0.1-7.1-0.3c-2.5-0.3-4.9,0.7-6.5,2.6
		c-1.4,1.7-2.1,3.9-3.2,5.7c-1.1,1.9-2.6,3.6-4.2,5c-3.3,2.8-7.3,4.7-11.5,5.4c-2.1,0.3-4.2,0.3-6.3,0c-2.7-0.4-5.3-1.3-8-1.8
		c-5.2-0.8-9.9,1.2-14.4,3.6s-9.1,4.8-14.2,6c-5,1.1-10.2,1.4-15.4,0.9c-5.3-0.5-10.6-1.5-15.8-3.1c-5.3-1.4-10.3-3.6-15.5-5.4
		c-2.6-1-5.4-1.5-8.1-1.5c-2.6,0.1-5.1,0.8-7.4,2c-2.3,1.2-4.3,2.7-6.5,3.9c-2.1,1.1-4.3,1.9-6.6,2.4c-4.7,0.9-9.5,0.6-14-1.1
		c-4.4-1.6-7.9-4.7-11.2-8c-3.1-3.1-6.1-6.4-9.9-8.7c-2-1.2-4.2-2-6.5-2.4c-2.8-0.5-5.6-0.5-8.3-1.2c-8.6-2.2-14-10-17.8-17.5
		c-1-2-1.9-4-2.7-6C202.4,702,200.4,702.5,200.9,703.8L200.9,703.8z"/>
	<path class="st6" d="M158.6,748.7c6.9,16.7,21,29.5,38.3,34.7c6.2,1.9,12.5,2.3,19,2.6c3.7,0.1,7.4,0.5,11,1.4c3.4,1,6.2,3,9.4,4.6
		c3,1.5,6.4,2.1,9.8,1.7c3.5-0.4,7-0.3,10.4,0.1c12.9,1.8,24.6,8.7,37.6,10c3.1,0.3,6.3,0.3,9.4-0.2c3.5-0.6,6.9-2,10.3-2.8
		c7.1-1.7,13.6,1.5,20.3,3.3c3.1,0.9,6.3,1.3,9.6,1.2c3.1-0.3,6.1-1.1,8.9-2.4c6.1-2.5,11.7-6.4,18.3-7.5c6.4-1.1,13.2,0.1,19.3-2.7
		c2.9-1.3,5-3.7,7.8-5.2c3.6-1.9,6.5,0.5,9.8,2c11.6,5.2,25.1,3,35.9-3c2.8-1.6,5.5-3.4,8-5.4c2.7-2.2,5.2-4.7,8.1-6.8
		c5.8-4.2,13.1-5,19-9c2.5-1.8,4.7-4,6.2-6.7c0.8-1.4,1.5-2.8,2-4.3c0.4-1.6,0.8-3.1,1.4-4.6c0.7-1.5,2.2-2.1,3.7-2.7
		c1.6-0.6,3.1-1.3,4.6-2c2.8-1.5,5.4-3.3,7.8-5.4c2.4-2.1,4.5-4.5,6.3-7.1c1.1-1.6-1.5-3-2.5-1.5c-3.9,5.4-9.2,9.7-15.3,12.2
		c-2.6,1.1-5.5,1.8-7.1,4.4s-1.7,6-3.2,8.7c-1.6,2.9-3.9,5.3-6.7,7c-3,1.8-6.3,2.8-9.6,4c-3.1,1.1-6,2.7-8.7,4.7
		c-2.7,2.1-5.2,4.4-7.8,6.6c-9.6,8-23,13-35.5,10.1c-3-0.8-6-2-8.8-3.5c-2.7-1.3-5.5-1.9-8.4-0.6s-4.8,3.5-7.5,5
		c-3,1.7-6.4,2.1-9.7,2.3c-3.2,0.1-6.4,0.3-9.5,0.7c-3.1,0.6-6.1,1.5-9,2.9c-5.7,2.6-11.3,6.3-17.7,7c-6.7,0.7-12.9-2.5-19.2-4.1
		c-3.1-0.8-6.4-1.1-9.5-0.6c-3.5,0.5-6.8,2-10.2,2.8c-12.7,3.1-25.4-3.1-37.3-6.7c-6-1.8-12.2-3.1-18.4-2.8
		c-3.7,0.2-7.4,0.9-10.9-0.7c-3-1.4-5.6-3.4-8.8-4.5c-6.5-2.4-13.5-2-20.4-2.4c-6.1-0.5-12.2-1.9-17.8-4.4
		c-11-4.7-20.3-12.7-26.7-22.8c-1.6-2.5-2.9-5.2-4.1-7.9C160.1,747,158.1,747.5,158.6,748.7L158.6,748.7z"/>
	<path class="st6" d="M110.9,775.6c3.8,13.5,11.2,25.7,21.2,35.5c10.2,9.9,22.8,17,36.6,20.7c4.2,1.2,8.4,2.3,12.5,3.9
		c3.8,1.6,7.6,3.4,11.2,5.4c6.6,3.5,13.4,7.3,20.8,8.7c3.6,0.7,7.2,0.7,10.8,0.1c4-0.8,7.9-2.8,12-3.1c4.5-0.4,8.1,2,12,3.9
		c3.5,1.8,7.2,3.1,11.1,4c8,1.7,16.2,2.1,24.4,1.1c4-0.5,8-1.1,11.9-1.9c4.4-0.9,8.8-2.3,13.3-2.3s8.7,1.9,12.9,3.6
		c3.9,1.7,8,2.8,12.2,3.5c8.2,1.2,16.6,0.5,24.4-2.3c4-1.4,7.8-3.2,11.9-4.2c4.5-0.9,9-1.5,13.6-1.6c8.4-0.4,16.8-1.4,25.1-3
		c16.8-3.3,33-8.9,48.7-15.6c16-6.8,31.5-14.8,46.9-22.8c6.3-3.3,12.7-6.6,18.1-11.3c4.3-3.8,9.2-9.8,9.1-15.9
		c-0.1-1.9-3.1-4.6-4.2-1.9c-0.8,1.8,1.9,3.3,2.6,1.5l0.1-0.3l-0.9,0.7c-5.8,1.7-0.5-0.3-0.7,0c-0.1,0.4-0.2,0.9-0.2,1.3
		c-0.1,0.7-0.3,1.5-0.6,2.2c-0.5,1.6-1.2,3-2.1,4.4c-1.8,2.6-3.9,4.9-6.4,6.8c-5.5,4.4-11.9,7.5-18.1,10.7
		c-14.6,7.6-29.3,15.2-44.5,21.7c-15.1,6.6-30.8,11.8-46.9,15.2c-8,1.6-16.1,2.7-24.2,3.2c-4.1,0.2-8.2,0.4-12.2,1
		c-4,0.6-7.8,1.7-11.5,3.3c-7.8,3.1-15.5,5-23.9,4.3c-4.1-0.3-8.1-1.1-12-2.5c-3.9-1.3-7.5-3.3-11.5-4.4c-7.9-2.1-16,1.1-23.8,2.5
		c-7.8,1.5-15.8,2-23.7,1.3c-3.9-0.4-7.7-1.2-11.4-2.5c-3.9-1.3-7.4-3.3-11.1-5c-3.1-1.5-6.7-2-10.1-1.4c-3.8,0.7-7.2,2.3-11,3.1
		c-7.6,1.5-15-1.2-21.8-4.4c-6.6-3.2-12.8-6.9-19.6-9.5c-7.4-2.8-15.3-4.2-22.7-7.2c-6.3-2.5-12.2-5.9-17.6-10
		c-10.9-8.2-19.5-19-25.2-31.4c-1.4-3.1-2.6-6.3-3.6-9.5c-0.3-0.5-0.9-0.6-1.4-0.3C111,774.8,110.9,775.1,110.9,775.6L110.9,775.6z"
		/>
	<path class="st6" d="M136.6,873.7c1.7,3.4,4.7,5.7,8,7.4c4,2.1,8.4,3.7,12.6,5.5c4.7,2,9.3,3.9,14,5.8c4.5,1.9,9.2,3.3,14,4.2
		c1.4,0.2,2-1.9,0.6-2.1c-9.3-1.5-18-5.9-26.6-9.5c-4.2-1.7-8.4-3.3-12.5-5.3c-3.4-1.6-6.6-3.7-8.4-7.1
		C137.7,871.6,136,872.6,136.6,873.7L136.6,873.7z"/>
	<path class="st6" d="M453.6,895.5c12.5-2.4,24.5-7.2,35.2-14.1c1.2-0.8,0.1-2.6-1.1-1.9c-10.6,6.6-22.4,11.4-34.6,14
		C451.8,893.9,452.4,895.8,453.6,895.5L453.6,895.5z"/>
	<path class="st6" d="M520.1,864.9c7.3,3.1,11-6.2,15.9-9.4c4.5-3,10.8-4.5,12.6-10.2c0.5-1.5-1.8-2-2.3-0.6
		c-1.8,4.6-7.5,6.2-11.3,8.7c-2.5,1.7-4.3,4-6.2,6.3s-4.7,4.7-7.8,3.4C519.9,862.6,519.1,864.4,520.1,864.9L520.1,864.9z"/>
	<path class="st6" d="M74.7,840.2c2.2,6.5,8.8,11.5,15.2,13.4c1.8,0.4,3.6,0.8,5.4,1c2.3,0.4,3.8,1.8,5.5,3.2
		c3,2.5,6.7,4.1,10.7,4.6c1.6,0.2,1.6-2.3,0-2.5c-4-0.5-7.2-2.4-10.1-4.9c-1.3-1.2-2.8-2.1-4.5-2.6c-1.7-0.5-3.6-0.5-5.3-0.9
		c-3.2-0.8-6.2-2.3-8.7-4.3c-2.5-2.2-4.6-4.8-6.1-7.7C76,838.3,74.3,839,74.7,840.2L74.7,840.2z"/>
</g>
</svg>
