<?xml version="1.0" encoding="utf-8"?>
<!-- Generator: Adobe Illustrator 26.2.1, SVG Export Plug-In . SVG Version: 6.00 Build 0)  -->
<svg version="1.1" id="Capa_1" xmlns="http://www.w3.org/2000/svg" xmlns:xlink="http://www.w3.org/1999/xlink" x="0px" y="0px"
	 viewBox="0 0 1000 1000" style="enable-background:new 0 0 1000 1000;" xml:space="preserve">
<style type="text/css">
	.st0{fill:#EAC81F;}
	.st1{fill:#6C6463;}
	.st2{fill:#FFFFFF;}
	.st3{fill:#18C4FF;}
	.st4{fill:#002F6C;}
	.st5{fill:#E73164;}
</style>
<path class="st0" d="M231.7,398.4c-3.2,1.9-6.7,3.3-9.7,5.3c-3.2,2.1-5.9,5-7.8,8.4c-2.2,4.2-2.7,8.7-2.7,13.3v25.6
	c0,5-2,9.8-6.4,12.5c-3.1,2-6.5,2.2-10,2.2h-37.3c-4.7,0-9.2-1.7-12-5.6c-1.7-2.4-2.7-5.3-2.7-8.3c0-1,0-1.9,0-2.9v-25.4
	c0.1-6.1-2.2-12-6.4-16.4c-2.7-2.8-6-4.5-9.3-6.3c-3.3-1.7-6.5-3.6-9.6-5.7c-49.3-32.9-62.6-99.5-29.7-148.7
	c32.9-49.3,99.5-62.6,148.7-29.7c23.8,15.9,40.3,40.6,45.7,68.7c1.3,6.6,1.9,13.3,2,20c0,0.1,0,0.3,0,0.4
	C284.5,344,264.4,379.1,231.7,398.4z"/>
<path d="M731.7,460.2c6.8,30.3,14,60.6,21.1,90.9s14.2,60.6,21.4,90.8l6,25.2c2,8.6,3.8,17.2,6.2,25.7c0.2,0.6,0.9,0.9,1.4,0.6
	c0.5-0.2,0.8-0.7,0.7-1.2c-1.5-7.7-3.5-15.2-5.3-22.8l-5.4-22.8c-3.6-15-7.1-30.1-10.7-45.2c-7.2-30.3-14.3-60.5-21.6-90.8
	c-4.1-17-8.2-34-12.3-50.9c-0.1-0.4-0.6-0.6-1-0.4C731.9,459.5,731.7,459.8,731.7,460.2L731.7,460.2z"/>
<path d="M505.9,683c8.7,8,11.5,20.4,14.5,31.4c3.5,13,6.3,26.1,8.4,39.4c0.6,3.7,1.1,7.4,1.6,11.1c0.5,3.7,0.6,7.6,1.4,11.2
	c0.2,1.2,2.1,0.9,2.1-0.3c-0.1-3.5-0.5-7-1.1-10.5c-0.4-3.3-0.9-6.5-1.4-9.8c-1.1-6.8-2.3-13.6-3.8-20.3c-1.4-6.7-3.1-13.4-4.9-20
	c-1.5-6-3.4-11.9-5.6-17.6c-2.3-5.8-5.5-11.4-10.2-15.7C506.2,681.3,505.1,682.4,505.9,683L505.9,683z"/>
<path d="M376.2,220.6c-6,13.6-7.6,29-8.4,43.7c-1,18.8-0.5,37.6,0,56.4c0.5,19.2,1,38.4,0,57.5c-0.8,16-2.5,32.6-8.6,47.5
	c-1.3,3.1-2.9,6.1-4.7,9c-3,4.7-6.8,8.7-10,13.1c-5.7,7.8-10.4,19.2-4.3,28.2c3,4.3,7.8,5.6,12.4,7.6c3.6,1.5,6.5,4.5,7.7,8.2
	c3,7.6,3.4,16.2,3.9,24.3c0.5,8.8,0.4,17.5,0.8,26.3c0.4,8.6,2,17.1,3.3,25.6c3.2,21.4,6.8,43,14.7,63.2
	c7.5,19.5,19.5,37.7,37.4,49.1c17.6,11.2,40.2,15.9,60.5,9.9c4.8-1.4,9.4-3.5,13.7-6.1c1.4-0.9,0.1-3.1-1.3-2.3
	c-18.5,11.3-41.9,10.4-61.3,1.7c-19.7-8.8-33.8-25.3-42.8-44.6s-13.2-40.6-16.6-61.5c-1.5-9.5-3.4-19.2-4.4-28.8
	c-0.8-7.8-0.6-15.8-0.9-23.6c-0.2-8.8-0.6-17.7-2.2-26.3c-1.3-6.9-3.6-13.8-10.4-17c-4.8-2.3-10.3-3.3-12.9-8.5
	c-2.3-4.6-1.8-10.4,0-15.1c3.7-9.5,12.2-16.3,17.1-25.2c7.1-13,9.5-28.3,10.9-42.9c1.7-18.3,1.4-36.7,0.9-55
	c-0.5-18.8-1.3-37.7-1.1-56.5c0.1-15.9,0.7-32.3,5-47.8c0.9-3.2,1.9-6.3,3.2-9.3C377.9,220.6,376.6,219.8,376.2,220.6L376.2,220.6z"
	/>
<path d="M426.7,388.2c6.7,0,10.2,8.6,7.4,14c-2,3.7-6.2,5.8-10.1,3.8c-5.9-3.1-6.8-15.8,0.5-17.8"/>
<path d="M426.7,389c3.2,0.3,5.8,2.6,6.7,5.6c1,3.1,0.6,6.6-1.9,8.9c-2.2,2.4-5.9,2.5-8.3,0.3c-0.1-0.1-0.3-0.3-0.4-0.4
	c-1.7-2.1-2.5-4.8-2.3-7.5c0.1-2.9,1.5-5.6,4.3-6.6c0.6-0.2,1-0.8,0.8-1.4c-0.2-0.6-0.8-1-1.4-0.8l0,0c-3.5,0.8-5.6,4.1-6.1,7.5
	c-0.6,3.5,0.3,7.2,2.4,10.1c2.6,3.6,7.7,4.4,11.3,1.9c3.5-2.5,5.1-7,4-11.2c-1-4.3-4.6-7.9-9.2-7.8c-0.4,0-0.8,0.4-0.8,0.8
	C425.9,388.7,426.3,389,426.7,389L426.7,389z"/>
<path d="M441.5,409.4c-9.6-1.5-19.5-3-29-0.1c-1.2,0.4-0.7,2.3,0.5,1.9c9.1-2.9,18.8-1.6,28-0.3
	C442.1,411.1,442.5,409.6,441.5,409.4L441.5,409.4z"/>
<path d="M459,346.5c-8.1-4.3-16.9-7-26.1-7.8c-8.8-0.8-18,0.3-25.5,4.8c-1.8,1.1-3.7,2.8-2.6,5.2c0.9,1.7,2.7,2.7,4.6,2.5
	c14.4-0.6,21.9-0.7,32.5,2.2c3.6,1,7.1,2.7,10.8,2.5s15.4-5.5,2.8-10.6"/>
<path d="M459.4,345.9c-9.6-5.3-20.2-8.2-31.1-8.4c-5.2-0.2-10.4,0.6-15.4,2.3c-2.4,0.8-4.7,1.9-6.7,3.3c-1.7,1.2-3.1,2.9-2.8,5
	c0.9,5.7,8,4.4,12,4.3c4.5-0.2,9.1-0.2,13.6,0.1c4.1,0.3,8.3,1.1,12.3,2.2c4.3,1.2,8.7,3.5,13.2,2.4c2.7-0.7,6.1-2.2,7.4-4.7
	c2.2-4.1-3.1-6.8-6.1-8c-1.5-0.6-2.1,1.8-0.7,2.4s6.1,2.5,4.2,4.9c-1.3,1.7-3.8,2.6-5.8,3.1c-3.9,0.9-8.2-1.5-11.9-2.5
	c-3.5-0.9-7-1.6-10.6-2c-3.7-0.4-7.4-0.5-11.1-0.4c-2.2,0-4.4,0.1-6.6,0.2c-2,0.1-4.7,0.7-6.5-0.5c-4.4-3.2,4.7-6.7,6.8-7.5
	c4.3-1.5,8.9-2.3,13.5-2.3c11-0.1,21.8,2.5,31.4,7.6C459.5,347.7,460.3,346.4,459.4,345.9L459.4,345.9z"/>
<path class="st1" d="M796.3,271.4c-0.8-25.8-4.6-52-14.1-76.2c-9.4-23.8-24.8-45.1-46.4-59.1c-25.6-16.6-57-20.5-86.6-23.9
	c-3.5-0.4-7-0.9-10.5-1.1c-3-1.7-6-3.3-8.9-5c-7.3-4.1-14.7-8.6-22.7-11.2c-18-6-36.9-9-55.9-8.9c-19,0.2-38,2.9-56.3,8
	c-35.8,9.7-69.1,26.5-102,43.2c-15.8,8-31.7,16.2-45.1,28c-5.7,5-11.5,11.2-12.8,19c-1.1,6.6,2.3,13.2,8.2,16.2
	c0.1,0,0.1,0.1,0.2,0.1c-7.3,3.4-13.5,9.9-13.8,18.2c-0.3,8.2,6.5,16.5,14.6,17.1c-2.9,2.5-5.5,5.5-6.5,9.2
	c-1.2,4.3,0.4,8.6,3.3,11.9c6.2,7,16.5,10,25.2,12.5c0.7,0.2,1.5-0.2,1.7-0.9c0-0.1,0-0.2,0-0.4c-0.3-12.5,0.2-25.7,5.5-37.2
	c14.1,9.6,31.5,11.4,48.2,10.3c14.9-1,29.5-3.9,44.3-6.1c-0.1,1.4-0.2,2.8-0.2,4.2c-0.6,10-0.7,20-0.2,30c0.5,8.3,1.1,17.1,4,25
	c1.1,3,2.9,5.7,5.2,7.9c5.4,5.3,11.2,10.1,17,15c5.1,4.3,10.1,8.6,15.5,12.6c4.9,3.6,10.1,7.6,12.6,13.3c3.2,7.3,1.7,16.3,1.4,24
	c-0.3,8.1-0.6,16.2-1,24.4c-0.8,16.4-2.1,32.9-4.9,49.1c-2.1,11.7-5.4,23.5-12.9,33c-8.4,10.7-20.4,15.4-33.5,17
	c-15.7,1.9-31.5-0.3-47-3c-7.6-1.3-15.3-2.8-22.9-4c-6.9-1.1-13.8-1.8-20.8-2.7c-4.8-0.6-9.8-1.4-14.6-0.8c-4.9,0.6-7.4,3.1-8.9,7.8
	c-2.1,6.3-1.7,13.2-2,19.7c-0.5,8.2-1.4,16.4-2.7,24.6c-2,13.9-5.3,27.6-9.8,40.9c-8.3,23.6-19.8,46.3-24.8,71
	c-2.4,11.7-2.2,23.7,0.5,35.3c3.1,13.5,9,26.2,17.3,37.3c12.4,16.5,29.9,27.1,49.5,33.1c20.7,6.3,43,7.7,64.5,5.8
	c21-1.9,41.9-7.1,60.9-16.3c20-9.8,36.9-25,48.8-43.9c11.5-18.7,16.6-40.4,17.6-62.2c2-46.8-12.4-92.3-18.3-138.3
	c-3-22.7-4.3-45.5-3.9-68.4c1.1-13,7.2-25.2,17.1-34c9.6-8.5,24.7-13.7,37-7.9c14.2,6.7,13.8,24.6,7.3,36.6
	c-3.8,7.1-9.3,13.1-14.8,19c-2.5,2.7-5.5,5.3-7.2,8.5c-1.9,3.4-1.3,6.7,0.1,10.1c4.7,11.2,7.5,24.2,15.8,33.4
	c9.6,10.6,25.5,12.9,39.1,13.5c7.7,0.3,15.3-0.1,22.9-0.5c8.2-0.5,16.3-0.6,24.5-0.8c15.8-0.4,32.5-1.5,46.7-9.1
	c9.2-4.2,15.1-13.4,15.2-23.5c0.8-11.3-1.2-22.5,0.9-33.8c2.6-13.7,7-27.1,11.3-40.3c4.8-14.6,10-29.1,14.6-43.7
	c4.5-14.2,8.7-28.6,11.2-43.2C796.3,297.7,796.7,284.6,796.3,271.4z"/>
<path class="st0" d="M664,259.9c0.9-1.4-1.4-2.7-2.3-1.3l-0.1,0.1l-39.2-19.1c0.4-1.1-1.1-1.9-1.6-0.9l0,0
	c-4.8,10-9.2,20.1-13.4,30.3c-2.1,5.1-4.1,10.1-6,15.3c-1,2.6-2,5.1-2.9,7.7c-0.8,2.1-0.4,3.9,2,4.4c4.5,0.9,9.1,1.4,13.7,1.6
	c-0.3,0.8-0.6,1.5-0.9,2.4l-1.8,4.9l-7.3,19.6c-0.2,0.7,0.2,1.3,0.9,1.5l10.9,2c1,0.2,1.9,0.4,2.9,0.5c-3.7,10.7-8.6,21.1-10.2,32.3
	c-0.1,0.9,0.8,2.1,1.8,1.4c15.8-11.5,28.5-26.4,40.7-41.5c3.5-4.3,6.9-8.5,10.4-12.8c0.5-0.5,0.5-1.3,0-1.8
	c-0.1-0.1-0.3-0.2-0.5-0.3c-4.8-1.4-9.8-1.8-14.8-1.3c3.1-3.3,6-6.9,8.6-10.6c1.7-2.4,3.2-4.9,4.6-7.5c1.1-2.1,1.4-4.8-1.2-5.7
	c-1.2-0.4-2.4-0.6-3.7-0.7c-1.2-0.1-2.4-0.2-3.5-0.2c0.3-0.5,0.6-1,0.9-1.5C656.1,272.5,660.1,266.2,664,259.9z"/>
<path d="M376.2,220.6c-5.1,11.3-7,23.9-8.1,36.2c-1.3,15.3-1.3,30.7-0.9,46.1c0.3,16.4,1,32.9,1.1,49.3c0.1,15.3-0.2,30.7-2.2,45.9
	c-1.6,12.2-4.3,24.8-10.7,35.4c-0.7,1.1-1.4,2.2-2.1,3.3c-1,1.4,1.3,2.7,2.3,1.3c7-9.9,10.3-22,12.3-33.8
	c2.5-14.8,3.1-29.9,3.1-44.8c0.1-16.4-0.5-32.8-1-49.2c-0.4-15.7-0.8-31.4,0-47c0.6-12.8,1.9-25.9,6.1-38.1c0.4-1.2,0.9-2.5,1.4-3.7
	C377.9,220.5,376.6,219.8,376.2,220.6L376.2,220.6z"/>
<path d="M593,405.6c-2.3,1.1-4.6,2.5-6.7,4c-2.1,1.4-4,3.1-5.8,5c-1.5,1.8-2.7,4-2.3,6.4c0.4,2.3,2.7,3.9,4.9,2.6c1.6-1,2-3.2,1-4.7
	c-0.4-0.6-0.9-1-1.5-1.3c-0.6-0.3-1.3-0.1-1.6,0.5c0,0.1-0.1,0.2-0.1,0.2c-0.3,1.1-0.1,2.3,0.4,3.4c0.6,1.4,2.7,0.2,2-1.2
	c-0.2-0.5-0.3-1-0.2-1.6l-1.7,0.7c0.6,0.3,1.3,1.1,0.8,1.8s-1.2,0.3-1.5-0.3c-0.9-1.9,0.7-4.2,2-5.5c3.2-3.5,7-6.3,11.2-8.5
	C594.7,406.5,593.9,405.2,593,405.6L593,405.6z"/>
<path class="st2" d="M735.1,235.7c-2.1-8.1-9.3-13.3-17.4-14.2c-1.5-0.2-3-0.2-4.5,0c0.3-0.9,0.5-1.9,0.5-2.8c0.3-5.1-3-10.4-7-13.3
	c-2.3-1.7-5-2.7-7.8-2.9c1.6-3.1,2.6-6.5,3-10c1.3-9.7-2.3-19.4-9.7-25.8c-7.9-6.5-18.3-9.2-28.3-7.4c-7.6,1.4-14.3,5.7-19.3,11.5
	c-4.5-9.2-12.9-16-22.9-18.5c-11.1-2.9-22.9-1-32.7,5.1c-5.1,3.3-8.9,8.2-10.8,13.9c-2,5.9-2.3,12.4-2,18.6c0.1,1.3,0.2,2.5,0.3,3.8
	c-0.3,0-0.7,0-1,0c-5.4,0.4-10.6,1.6-15.5,3.8c-5.3,2.1-10.2,5.2-14.5,8.9c-8.4,7.5-13.5,18.4-12.4,29.8c0.5,5.6,2.7,10.8,6.2,15.1
	c3.5,4,7.9,7.2,12.8,9.2c5,2.1,10.1,3.6,15.4,4.6c6.5,1.3,13.1,2.2,19.6,3c14,1.8,28.1,2.9,42.3,3.3c14.1,0.4,28.3,0.2,42.4-0.7
	c7.1-0.5,14.3-1.1,21.4-1.9c6.2-0.7,12.6-1.3,18.7-2.9c5.2-1.3,10.2-3.5,14.1-7.3c0.3-0.3,0.3-0.7,0.1-1l0.5-0.4
	c0.4,0.4,1.2,0.6,1.8,0.2C734.5,251.9,737.1,243.6,735.1,235.7z"/>
<path class="st3" d="M696.1,233.4c0.6,0,1-0.4,1-1s-0.4-1-1-1s-1,0.4-1,1S695.6,233.4,696.1,233.4z"/>
<path class="st4" d="M289,306c0-61.6-49.9-111.6-111.5-111.6c-13.2,0-26.3,2.3-38.7,6.9c-27,10.1-49,30-61.7,55.9
	c-24.2,49.6-8.5,109.4,36.9,140.7c3.1,2.2,6.3,4.2,9.6,6c3.3,1.8,6.8,3.2,9.5,5.8c3.9,3.8,5.9,9,5.8,14.5v26c0,1.2,0,2.5,0.1,3.7
	c1,9.6,9.2,16.7,18.8,16.4h37.6c4,0,7.9-0.4,11.5-2.4c5.7-3.3,9.2-9.5,9.2-16.1c0-8.4,0-16.7,0-25.1c0-4.1,0-8.1,2-11.9
	c1.7-3.3,4.3-6.1,7.5-7.9c3.3-1.9,6.7-3.5,9.9-5.4c12.9-7.9,24.2-18.4,33-30.7c8.9-12.5,15.1-26.7,18.3-41.7
	C288.2,321.4,289,313.7,289,306c0-2.8-4.4-2.8-4.4,0c0,38-20.1,73.1-52.9,92.4c-3.2,1.9-6.7,3.3-9.7,5.3c-3.2,2.1-5.9,5-7.8,8.4
	c-2.2,4.2-2.7,8.7-2.7,13.3v25.6c0,5-2,9.8-6.4,12.5c-3.1,2-6.5,2.2-10,2.2h-37.3c-4.7,0-9.1-1.7-12-5.6c-1.7-2.4-2.7-5.3-2.7-8.3
	c0-1,0-1.9,0-2.9v-25.4c0.1-6.1-2.2-12-6.4-16.4c-2.7-2.8-6-4.5-9.3-6.3c-3.3-1.7-6.5-3.6-9.6-5.7c-49.3-32.9-62.6-99.5-29.7-148.7
	s99.5-62.6,148.7-29.7c23.8,15.9,40.3,40.6,45.7,68.7c1.3,6.8,2,13.6,2,20.5C284.6,308.9,289,308.9,289,306L289,306z"/>
<path class="st4" d="M192.5,430c-0.5-3-0.8-6-1-9c-0.3-7.3,0.3-14.6,1.9-21.8c0.8-3.6,1.8-7.1,3.1-10.5c0.7-1.8,1.4-3.5,2.1-5.2
	c0.1-0.3,0.2-0.6,0.3-0.8c3,0.2,8.5,0.5,7.7-3.7c-0.3-1.6-1.5-2.8-3-3.3c-1.8-0.4-3.6,0.2-4.8,1.6c-0.6,0.7-1.2,1.5-1.6,2.3
	c-2-0.2-4-0.4-5.9-0.8c-3.2-0.6-6.3-1.9-9-3.7c-1.2-0.8-2.8-2.2-4-3.8c0.2-0.5,0.4-1.1,0.5-1.6c0.3-1.9-0.6-3.7-2.3-4.5
	c-0.7-0.4-1.6-0.1-2.1,0.6c0,0.1-0.1,0.2-0.1,0.3c-0.7,1.7-0.3,3.6,0.5,5.3c-1,1.2-2.3,2.2-2.8,2.7c-2.4,1.9-5.1,3.5-8,4.6
	c-2.6,1-5.3,1.5-8,1.8c-0.7-1-1.5-2-2.4-2.7c-2.1-1.8-6.6-2.7-7.1,1.1c-0.5,3.6,4.2,4.7,6.8,4.7c0.4,0,0.9,0,1.3,0
	c0.2,0.3,0.3,0.6,0.5,0.9c1.3,2.8,2.3,5.8,2.9,8.8c1.5,7,2.4,14.2,2.6,21.4c0.2,5.3,0,10.5-0.5,15.8h-19.1v22
	c0,8.9,7.2,16,16.1,16.1h40.6c8.9,0,16.1-7.2,16.1-16.1v-22H192.5z M201.2,379.2c0.4-0.4,0.9-0.7,1.5-0.8c0.4,0,1.1,0.5,1.1,0.9
	c0,0.4-0.8,0.3-1.2,0.3c-0.6,0-1.1,0-1.7,0C200.9,379.6,201.1,379.4,201.2,379.2z M151.1,379.9c-0.4-0.1-2-0.8-1.3-1.3
	c0.7-0.5,2.4,1,2.8,1.5c0,0,0.1,0.1,0.1,0.1C152.1,380.1,151.6,380.1,151.1,379.9z M176.3,385.3c0.1-3.8,0.3-7.6,0.5-11.4
	c0.6,0.8,1.3,1.5,2,2c2.6,2.3,5.7,3.9,9,4.9c2.7,0.8,5.4,1.3,8.2,1.6c-0.9,2-1.7,4-2.5,6.1c-3,8.3-4.7,17-5,25.8
	c-0.3,5.2,0,10.5,0.8,15.6h-13.7C175.5,415.1,175.8,400.2,176.3,385.3z M162.8,412.7c-0.1-4.6-0.5-9.2-1.1-13.7
	c-0.5-4.1-1.3-8.2-2.5-12.2c-0.4-1.3-0.9-2.6-1.5-3.9c2.4-0.3,4.7-0.8,6.9-1.7c3.8-1.4,7.4-3.5,10.4-6.1c-1,16.8-1.6,33.7-1.8,50.5
	c0,1.4,0,2.9,0,4.3h-11.4C162.5,424.3,162.9,418.5,162.8,412.7z"/>
<path class="st5" d="M975.8,912.3L975.8,912.3c-21-39.8-47.2-76.5-78-109.2c-15.3-16.2-31.8-31.3-49.2-45.2
	c-9.1-7.3-17.3-15-21.5-26.2s-6.8-23.5-9.8-35.1c-1.5-5.8-2.9-11.8-4.7-17.6c-1.4-4.3-3.8-8.1-8.1-10s-9.3-1.8-13.9-1.7
	c-6.1,0.2-12.2,0.7-18.2,1.5c-24.1,3.2-47.3,10.9-70,19.1c-47.4,17.2-94.3,35.9-140.6,56c-11.5,5-23,9.9-34.3,15.2
	c-9,4.2-19.1,8.9-23.6,18.5c-5.4,11.7,0.4,24.5,3.6,36.1l0.9,3.2c-7.6,4.8-14.8,10.1-21.6,16c-15.2,12.7-29,27.5-39.3,44.4
	c-6.8,10.8-11.7,22.7-14.6,35.1c-0.4,1.9,2.5,2.7,2.9,0.8c0-0.1,0.1-0.2,0.1-0.3l538.3,0c0.1,0.2,0.2,0.3,0.3,0.5
	C974.8,914.2,976.3,913.4,975.8,912.3z"/>
</svg>
