<?xml version="1.0" encoding="utf-8"?>
<!-- Generator: Adobe Illustrator 26.3.1, SVG Export Plug-In . SVG Version: 6.00 Build 0)  -->
<svg version="1.1" id="Capa_1" xmlns="http://www.w3.org/2000/svg" xmlns:xlink="http://www.w3.org/1999/xlink" x="0px" y="0px"
	 viewBox="0 0 612 502.3" style="enable-background:new 0 0 612 502.3;" xml:space="preserve">
<style type="text/css">
	.st0{fill:#1667B1;}
	.st1{opacity:0.5;fill:#A8C6E9;}
	.st2{fill:#FFFFFF;}
	.st3{font-family:'SourceSansPro-Regular';}
	.st4{font-size:13px;}
	.st5{letter-spacing:-2;}
	.st6{fill:none;}
	.st7{font-size:11px;}
	.st8{fill:none;stroke:#203664;stroke-width:0.25;stroke-miterlimit:10;}
	.st9{font-family:'SourceSansPro-Bold';}
	.st10{fill:#203664;}
	.st11{font-size:18.4267px;}
</style>
<rect x="43" y="75.6" class="st0" width="528.2" height="44.6"/>
<rect x="43" y="120.3" class="st1" width="528.2" height="63.2"/>
<g>
	<text transform="matrix(1 0 0 1 72.0545 101.5409)"><tspan x="0" y="0" class="st2 st3 st4 st5">​​</tspan><tspan x="0" y="0" class="st2 st3 st4">Aspectos</tspan></text>
</g>
<g>
	<text transform="matrix(1 0 0 1 380.7295 101.5407)" class="st2 st3 st4">Oportunidades de mejora</text>
</g>
<g>
	<text transform="matrix(1 0 0 1 209.4772 101.5409)" class="st2 st3 st4">Fortalezas</text>
</g>
<g>
	<rect x="53.3" y="130.4" class="st6" width="134.8" height="46.2"/>
	<text transform="matrix(1 0 0 1 53.2522 138.2149)"><tspan x="0" y="0" class="st3 st7">Evalúo mi liderazgo con </tspan><tspan x="0" y="13.2" class="st3 st7">apoyo de mi equipo </tspan><tspan x="0" y="26.4" class="st3 st7">pedagógico.</tspan></text>
</g>
<rect x="43" y="183.4" class="st2" width="528.2" height="63.2"/>
<g>
	<rect x="53.3" y="193.5" class="st6" width="134.8" height="46.2"/>
	<text transform="matrix(1 0 0 1 53.2522 201.3713)"><tspan x="0" y="0" class="st3 st7">Reflexiono sobre la </tspan><tspan x="0" y="13.2" class="st3 st7">pedagogía en mi institución.</tspan></text>
</g>
<rect x="43" y="246.6" class="st1" width="528.2" height="63.2"/>
<g>
	<rect x="53.3" y="256.7" class="st6" width="134.8" height="46.2"/>
	<text transform="matrix(1 0 0 1 53.2522 264.5277)"><tspan x="0" y="0" class="st3 st7">Realizo acciones </tspan><tspan x="0" y="13.2" class="st3 st7">intencionadas que me </tspan><tspan x="0" y="26.4" class="st3 st7">permitan aprender más.</tspan></text>
</g>
<rect x="43" y="309.7" class="st2" width="528.2" height="45.7"/>
<g>
	<rect x="53.3" y="319.9" class="st6" width="134.8" height="30.3"/>
	<text transform="matrix(1 0 0 1 53.2522 327.6841)"><tspan x="0" y="0" class="st3 st7">Acompaño a mis docentes a </tspan><tspan x="0" y="13.2" class="st3 st7">aprender.</tspan></text>
</g>
<rect x="43" y="355.4" class="st1" width="528.2" height="45.7"/>
<g>
	<rect x="53.3" y="365.5" class="st6" width="134.8" height="30.3"/>
	<text transform="matrix(1 0 0 1 53.2522 373.3704)"><tspan x="0" y="0" class="st3 st7">Comparto aprendizajes con </tspan><tspan x="0" y="13.2" class="st3 st7">mi comunidad.</tspan></text>
</g>
<rect x="43" y="401.1" class="st2" width="528.2" height="82.6"/>
<g>
	<rect x="53.3" y="413.1" class="st6" width="134.8" height="58.5"/>
	<text transform="matrix(1 0 0 1 53.2522 420.9772)"><tspan x="0" y="0" class="st3 st7">Contribuyo a que las </tspan><tspan x="0" y="13.2" class="st3 st7">relaciones humanas en mi </tspan><tspan x="0" y="26.4" class="st3 st7">institución sean cada vez </tspan><tspan x="0" y="39.6" class="st3 st7">mejores.</tspan></text>
</g>
<line class="st8" x1="188" y1="75.6" x2="188" y2="483.7"/>
<line class="st8" x1="365.7" y1="75.6" x2="365.7" y2="483.7"/>
<polyline class="st8" points="571.1,75.6 571.1,483.7 43,483.7 "/>
<line class="st8" x1="43" y1="75.6" x2="43" y2="483.7"/>
<text transform="matrix(1 0 0 1 235.2505 27.1748)" class="st0 st9 st7">Direccionamiento estrategico</text>
<text transform="matrix(1 0 0 1 195.7511 46.9693)" class="st10 st3 st11">Tabla 2 de retroalimentación</text>
</svg>
