<?xml version="1.0" encoding="utf-8"?>
<!-- Generator: Adobe Illustrator 26.3.1, SVG Export Plug-In . SVG Version: 6.00 Build 0)  -->
<svg version="1.1" id="Capa_1" xmlns="http://www.w3.org/2000/svg" xmlns:xlink="http://www.w3.org/1999/xlink" x="0px" y="0px"
	 viewBox="0 0 612 518.2" style="enable-background:new 0 0 612 518.2;" xml:space="preserve">
<style type="text/css">
	.st0{fill:#1667B1;}
	.st1{opacity:0.5;fill:#A8C6E9;}
	.st2{fill:#FFFFFF;}
	.st3{font-family:'SourceSansPro-Regular';}
	.st4{font-size:13px;}
	.st5{letter-spacing:-2;}
	.st6{fill:none;}
	.st7{font-size:11px;}
	.st8{fill:none;stroke:#203664;stroke-width:0.25;stroke-miterlimit:10;}
	.st9{font-family:'SourceSansPro-Bold';}
	.st10{fill:#203664;}
	.st11{font-size:18.4267px;}
</style>
<rect x="43" y="74.2" class="st0" width="528.2" height="44.6"/>
<rect x="43" y="118.8" class="st1" width="528.2" height="63.2"/>
<g>
	<text transform="matrix(1 0 0 1 72.0545 100.1157)"><tspan x="0" y="0" class="st2 st3 st4 st5">​​</tspan><tspan x="0" y="0" class="st2 st3 st4">Aspectos</tspan></text>
</g>
<g>
	<text transform="matrix(1 0 0 1 451.2403 91.5955)"><tspan x="0" y="0" class="st2 st3 st4">¿Qué puedo hacer </tspan><tspan x="-13.9" y="15.6" class="st2 st3 st4">para seguir mejorando?</tspan></text>
</g>
<g>
	<text transform="matrix(1 0 0 1 202.5837 100.1157)" class="st2 st3 st4">Nunca</text>
</g>
<g>
	<text transform="matrix(1 0 0 1 266.1385 92.9159)"><tspan x="0" y="0" class="st2 st3 st4">Casi </tspan><tspan x="-4.3" y="15.6" class="st2 st3 st4">nunca</tspan></text>
</g>
<g>
	<text transform="matrix(1 0 0 1 316.1876 100.2477)" class="st2 st3 st4">A veces</text>
</g>
<g>
	<text transform="matrix(1 0 0 1 380.8014 100.2477)" class="st2 st3 st4">Siempre</text>
</g>
<g>
	<rect x="53.3" y="129" class="st6" width="134.8" height="46.2"/>
	<text transform="matrix(1 0 0 1 53.2522 136.7896)"><tspan x="0" y="0" class="st3 st7">Evalúo mi liderazgo con </tspan><tspan x="0" y="13.2" class="st3 st7">apoyo de mi equipo </tspan><tspan x="0" y="26.4" class="st3 st7">pedagógico.</tspan></text>
</g>
<rect x="43" y="182" class="st2" width="528.2" height="63.2"/>
<g>
	<rect x="53.3" y="192.1" class="st6" width="134.8" height="46.2"/>
	<text transform="matrix(1 0 0 1 53.2522 199.9461)"><tspan x="0" y="0" class="st3 st7">Reflexiono sobre la </tspan><tspan x="0" y="13.2" class="st3 st7">pedagogía en mi institución.</tspan></text>
</g>
<rect x="43" y="245.1" class="st1" width="528.2" height="63.2"/>
<g>
	<rect x="53.3" y="255.3" class="st6" width="134.8" height="46.2"/>
	<text transform="matrix(1 0 0 1 53.2522 263.1024)"><tspan x="0" y="0" class="st3 st7">Realizo acciones </tspan><tspan x="0" y="13.2" class="st3 st7">intencionadas que me </tspan><tspan x="0" y="26.4" class="st3 st7">permitan aprender más.</tspan></text>
</g>
<rect x="43" y="308.3" class="st2" width="528.2" height="45.7"/>
<g>
	<rect x="53.3" y="318.4" class="st6" width="134.8" height="30.3"/>
	<text transform="matrix(1 0 0 1 53.2522 326.2589)"><tspan x="0" y="0" class="st3 st7">Acompaño a mis docentes a </tspan><tspan x="0" y="13.2" class="st3 st7">aprender.</tspan></text>
</g>
<rect x="43" y="354" class="st1" width="528.2" height="45.7"/>
<g>
	<rect x="53.3" y="364.1" class="st6" width="134.8" height="30.3"/>
	<text transform="matrix(1 0 0 1 53.2522 371.9451)"><tspan x="0" y="0" class="st3 st7">Comparto aprendizajes con </tspan><tspan x="0" y="13.2" class="st3 st7">mi comunidad.</tspan></text>
</g>
<rect x="43" y="399.7" class="st2" width="528.2" height="82.6"/>
<g>
	<rect x="53.3" y="411.7" class="st6" width="134.8" height="58.5"/>
	<text transform="matrix(1 0 0 1 53.2522 419.552)"><tspan x="0" y="0" class="st3 st7">Contribuyo a que las </tspan><tspan x="0" y="13.2" class="st3 st7">relaciones humanas en mi </tspan><tspan x="0" y="26.4" class="st3 st7">institución sean cada vez </tspan><tspan x="0" y="39.6" class="st3 st7">mejores.</tspan></text>
</g>
<line class="st8" x1="188" y1="74.2" x2="188" y2="482.3"/>
<line class="st8" x1="249" y1="74.2" x2="249" y2="482.3"/>
<line class="st8" x1="307" y1="74.2" x2="307" y2="482.3"/>
<line class="st8" x1="370.1" y1="74.2" x2="370.1" y2="482.3"/>
<line class="st8" x1="431.8" y1="74.2" x2="431.8" y2="482.3"/>
<polyline class="st8" points="571.1,74.2 571.1,482.3 43,482.3 "/>
<line class="st8" x1="43" y1="74.2" x2="43" y2="482.3"/>
<text transform="matrix(1 0 0 1 235.2505 27.2158)" class="st0 st9 st7">Direccionamiento estrategico</text>
<text transform="matrix(1 0 0 1 202.173 47.0103)" class="st10 st3 st11">Tabla de retroalimentación</text>
</svg>
