<?xml version="1.0" encoding="utf-8"?>
<!-- Generator: Adobe Illustrator 26.2.1, SVG Export Plug-In . SVG Version: 6.00 Build 0)  -->
<svg version="1.1" id="Layer_1" xmlns="http://www.w3.org/2000/svg" xmlns:xlink="http://www.w3.org/1999/xlink" x="0px" y="0px"
	 viewBox="0 0 50 50" style="enable-background:new 0 0 50 50;" xml:space="preserve">
<style type="text/css">
	.st0{fill:none;}
	.st1{fill:#002F6C;}
	.st2{fill:#E73164;}
	.st3{fill:#3F67AE;}
	.st4{fill:url(#Nueva_muestra_de_motivo_2);}
	.st5{fill:#FFFFFF;}
	.st6{fill:url(#SVGID_1_);}
	.st7{fill:url(#SVGID_00000078039608792388983990000001336709891390803093_);}
	.st8{fill:url(#SVGID_00000010288836727843370230000000390155374098250677_);}
	.st9{fill:url(#SVGID_00000084495212695938819870000006488899642436208785_);}
</style>
<pattern  y="50" width="36.8" height="36.8" patternUnits="userSpaceOnUse" id="Nueva_muestra_de_motivo_2" viewBox="0 -36.8 36.8 36.8" style="overflow:visible;">
	<g>
		<rect y="-36.8" class="st0" width="36.8" height="36.8"/>
		<g>
			<rect y="-36.8" class="st0" width="36.8" height="36.8"/>
			<rect y="-36.8" class="st1" width="36.8" height="36.8"/>
		</g>
	</g>
</pattern>
<pattern  y="50" width="36.8" height="36.8" patternUnits="userSpaceOnUse" id="Nueva_muestra_de_motivo_4" viewBox="0 -36.8 36.8 36.8" style="overflow:visible;">
	<g>
		<rect y="-36.8" class="st0" width="36.8" height="36.8"/>
		<g>
			<rect y="-36.8" class="st0" width="36.8" height="36.8"/>
			<rect y="-36.8" class="st2" width="36.8" height="36.8"/>
		</g>
	</g>
</pattern>
<g>
	<circle class="st3" cx="25.9" cy="25" r="20"/>
	<path class="st4" d="M5.8,25C5.7,10.6,20.2,0.4,33.6,6.3C50,13.5,50.4,36.9,33.7,44C20.3,49.6,5.6,39.4,5.8,25L5.8,25z M5.9,25
		c0.2,17.3,21.5,25.9,33.8,13.8c7.6-7.3,8-20.5,0.2-27.8C27.6-1.1,6,7.7,5.9,25L5.9,25z"/>
</g>
<g>
	<path class="st5" d="M23.6,31.5c0.4-0.6,1.2-0.9,1.9-0.7c1,0.2,1.6,1.2,1.4,2.2c-0.2,0.8-0.9,1.4-1.8,1.4c-0.6,0-1.2-0.3-1.5-0.8
		v4.1h9.2c0.6,0,1.1-0.5,1.1-1.1v-9.2h-4.1c0.8-0.6,1.1-1.7,0.5-2.5c-0.6-0.8-1.7-1.1-2.5-0.5c-0.8,0.6-1.1,1.7-0.5,2.5
		c0.1,0.2,0.3,0.4,0.5,0.5h-4.1L23.6,31.5z"/>
	<pattern  id="SVGID_1_" xlink:href="#Nueva_muestra_de_motivo_2" patternTransform="matrix(1 0 0 -1 -206.75 -15467)">
	</pattern>
	<path class="st6" d="M23.6,31.5c1-1.5,3.4-0.8,3.4,1.1c0.1,1.9-2.5,2.7-3.6,1.1l0.3-0.1l0,4.1l-0.2-0.2c2.4,0,5.1,0,7.6,0l1.3,0
		c0.5,0,1.1-0.1,1.2-0.7c0-2.5,0-6.8,0-9.4l0.3,0.3c-0.6,0-4.5,0-5,0l0.7-0.5c0.6-0.4,0.8-1.1,0.6-1.8c-0.4-1.5-2.6-1.5-3.1,0
		c-0.2,0.7,0,1.5,0.6,1.9l0.4,0.3l-0.5,0l-4.1-0.1l0.1-0.1C23.7,28.8,23.6,30.1,23.6,31.5L23.6,31.5z M23.6,31.5
		c0-1.4-0.1-2.8-0.1-4.2h0.1l4.1-0.1l-0.1,0.3c-0.7-0.5-1.1-1.4-0.8-2.2c0.2-0.8,1.1-1.4,1.9-1.4c2,0,2.8,2.6,1.2,3.8l-0.1-0.5
		l4.1,0h0.3v0.3c0,1.7,0,6,0,7.6l0,1.3c0,0.4,0,1-0.4,1.4c-0.3,0.4-0.9,0.4-1.4,0.4l-1.3,0l-2.5,0c-1.8,0-3.5,0-5.3,0v-0.2
		c0-0.3,0.1-4.5,0.1-4.7l0.3,0.5c0.9,1.3,3.1,0.7,3.1-1C26.9,30.9,24.6,30.2,23.6,31.5L23.6,31.5z"/>
</g>
<g>
	<g>
		
			<pattern  id="SVGID_00000156558453513195970130000009966949801677361593_" xlink:href="#Nueva_muestra_de_motivo_4" patternTransform="matrix(1 0 0 -1 -206.75 -15467)">
		</pattern>
		<path style="fill:url(#SVGID_00000156558453513195970130000009966949801677361593_);" d="M19.5,27.4c0.8,0.6,1,1.7,0.4,2.5
			c-0.6,0.8-1.7,1-2.5,0.4c-0.8-0.6-1-1.7-0.4-2.5c0.1-0.2,0.3-0.3,0.4-0.4h-4.1v9.2c0,0.6,0.5,1.1,1.1,1.1h9.2v-4.1
			c0.4,0.6,1,0.9,1.7,0.8c1-0.1,1.7-1,1.6-2c-0.1-0.9-0.9-1.7-1.8-1.6c-0.6,0-1.2,0.3-1.5,0.8v-4.1L19.5,27.4L19.5,27.4z"/>
		<path class="st4" d="M19.5,27.4c1.7,1,0.9,3.6-1.1,3.7c-2.1,0.1-3-2.8-1.3-4c0,0,0.2,0.8,0.2,0.8c-1.4,0-2.7,0-4.1,0
			c0,0,0.4-0.4,0.4-0.4c-0.1,2.5-0.2,5.1-0.3,7.6c0,0,0,1.3,0,1.3c-0.1,0.9,0.4,1.4,1.4,1.3c2.9-0.1,6-0.2,8.8-0.3
			c0,0-0.5,0.5-0.5,0.5c0-1.2-0.1-4.7-0.1-5.8c0,0,1,1.4,1,1.4c0.3,0.5,0.9,0.7,1.5,0.5c2.2-0.9,0-3.8-1.6-2c0,0-0.8,1.1-0.8,1.1
			c0-1.8,0.1-3.7,0.2-5.5c0,0,0.3,0.3,0.3,0.3C22.3,27.7,20.9,27.6,19.5,27.4L19.5,27.4C19.6,27.4,19.6,27.4,19.5,27.4L19.5,27.4z
			 M19.5,27.5C19.5,27.4,19.5,27.4,19.5,27.5C19.5,27.4,19.5,27.4,19.5,27.5L19.5,27.5c1.5-0.2,3-0.3,4.4-0.3c0.1,1.5,0.1,3,0.2,4.4
			c0,0-0.8-0.2-0.8-0.2c1.2-1.9,4.2-1,4.2,1.3c0.1,2.3-3.1,3.3-4.3,1.3c0,0,0.9-0.3,0.9-0.3c0,0.2-0.1,4.5-0.1,4.6
			c-3.3-0.1-6.7-0.2-10-0.3c-0.8-0.1-1.1-1-1-1.6c0-1.2,0-2.6-0.1-3.8c-0.1-1.8-0.2-3.6-0.2-5.5c0,0,0.4,0,0.4,0
			c1.8-0.1,3.7,0,5.5,0c0,0-1.1,0.7-1.1,0.7c-1.2,0.7-0.6,2.7,0.8,2.7C20,30.5,20.7,28.4,19.5,27.5L19.5,27.5z"/>
	</g>
</g>
<g>
	<g>
		
			<pattern  id="SVGID_00000050629621548354579200000002151429364118449824_" xlink:href="#Nueva_muestra_de_motivo_4" patternTransform="matrix(1 0 0 -1 -206.75 -15467)">
		</pattern>
		<path style="fill:url(#SVGID_00000050629621548354579200000002151429364118449824_);" d="M32.9,22.5c-0.8-0.6-1-1.7-0.4-2.5
			c0.6-0.8,1.7-1,2.5-0.4c0.8,0.6,1,1.7,0.4,2.5c-0.1,0.2-0.3,0.3-0.4,0.4H39v-9.1c0-0.6-0.5-1.1-1.1-1.1h-9.1v4.1
			c-0.4-0.6-1-0.9-1.7-0.8c-1,0.1-1.7,1-1.6,2c0.1,0.9,0.9,1.6,1.8,1.6c0.6,0,1.2-0.3,1.5-0.8v4.1L32.9,22.5L32.9,22.5z"/>
		<path class="st5" d="M32.8,22.5c-1.6-1-0.8-3.5,1.1-3.6c2-0.1,2.9,2.7,1.2,3.8c0,0-0.2-0.6-0.2-0.6c1.4,0,2.7,0,4.1,0l-0.3,0.3
			c0.1-2.9,0.2-5.9,0.2-8.8c0.1-0.9-0.5-1.5-1.4-1.4c0,0-1.3,0-1.3,0c-1.6,0-5.9,0.1-7.5,0.2c0,0,0.3-0.3,0.3-0.3
			c0,0.9,0.1,4.5,0.1,5.4c0,0-0.7-1-0.7-1c-0.3-0.5-1-0.7-1.6-0.6c-2.4,1,0,4.2,1.7,2.2c0,0,0.6-0.9,0.6-0.9c0,1.7-0.1,3.5-0.1,5.2
			c0,0-0.2-0.2-0.2-0.2C30.1,22.4,31.7,22.3,32.8,22.5L32.8,22.5z M32.9,22.5C32.9,22.5,32.9,22.5,32.9,22.5
			C32.9,22.5,32.9,22.5,32.9,22.5c-1.4,0.1-2.9,0.2-4.3,0.2c-0.1-1.4-0.1-2.9-0.1-4.3c0,0,0.6,0.2,0.6,0.2c-1.1,1.8-4,0.9-4-1.2
			c-0.1-2.1,2.9-3.1,4-1.2c0,0-0.7,0.2-0.7,0.2l0-4.1l0-0.3c0,0,0.3,0,0.3,0c2.3,0.1,6.5,0.1,8.8,0.2c1-0.1,1.8,0.6,1.6,1.6
			c0,1.2,0,2.6,0.1,3.8c0.1,1.8,0.1,3.6,0.1,5.3c0,0-0.3,0-0.3,0c-1.7,0-3.4,0-5.1,0c0,0,0.8-0.6,0.8-0.6c1.2-0.8,0.6-2.8-0.9-2.8
			C32.3,19.3,31.6,21.5,32.9,22.5L32.9,22.5z"/>
	</g>
</g>
<g>
	<path class="st5" d="M23.6,23.3c-0.4,0.6-1.2,0.9-1.9,0.7c-1-0.2-1.6-1.2-1.4-2.2c0.2-0.8,0.9-1.4,1.8-1.4c0.6,0,1.2,0.3,1.5,0.8
		v-4.1h-9.2c-0.6,0-1.1,0.5-1.1,1.1v9.2h4.1c-0.8,0.6-1.1,1.7-0.5,2.5c0.6,0.8,1.7,1.1,2.5,0.5c0.8-0.6,1.1-1.7,0.5-2.5
		c-0.1-0.2-0.3-0.4-0.5-0.5h4.1V23.3z"/>
	
		<pattern  id="SVGID_00000011003338816641195820000005797466979275151000_" xlink:href="#Nueva_muestra_de_motivo_2" patternTransform="matrix(1 0 0 -1 -206.75 -15467)">
	</pattern>
	<path style="fill:url(#SVGID_00000011003338816641195820000005797466979275151000_);" d="M23.6,23.3c-1,1.5-3.4,0.8-3.4-1.1
		c-0.1-1.9,2.5-2.7,3.6-1.1l-0.3,0.1l0-4.1l0.2,0.2c-2.4,0-5.1,0-7.6,0l-1.3,0c-0.5,0-1.1,0.1-1.2,0.7c0,2.5,0,6.8,0,9.4l-0.3-0.3
		c0.6,0,4.5,0,5,0l-0.7,0.5c-0.6,0.4-0.8,1.1-0.6,1.8c0.4,1.5,2.6,1.5,3.1,0c0.2-0.7,0-1.5-0.6-1.9L19,27.3l0.5,0l4.1,0.1l-0.1,0.1
		C23.6,26.1,23.6,24.7,23.6,23.3L23.6,23.3z M23.6,23.3c0,1.4,0.1,2.8,0.1,4.2h-0.1l-4.1,0.1l0.1-0.3c0.7,0.5,1.1,1.4,0.8,2.2
		c-0.2,0.8-1.1,1.4-1.9,1.4c-2,0-2.8-2.6-1.2-3.8l0.1,0.5l-4.1,0H13v-0.3c0-1.7,0-6,0-7.6l0-1.3c0-0.4,0-1,0.4-1.4
		c0.3-0.4,0.9-0.4,1.4-0.4l1.3,0l2.5,0c1.8,0,3.5,0,5.3,0v0.2c0,0.3-0.1,4.5-0.1,4.7l-0.3-0.5c-0.9-1.3-3.1-0.7-3.1,1
		C20.3,24,22.6,24.7,23.6,23.3L23.6,23.3z"/>
</g>
</svg>
