<?xml version="1.0" encoding="utf-8"?>
<!-- Generator: Adobe Illustrator 26.2.1, SVG Export Plug-In . SVG Version: 6.00 Build 0)  -->
<svg version="1.1" id="Capa_1" xmlns="http://www.w3.org/2000/svg" xmlns:xlink="http://www.w3.org/1999/xlink" x="0px" y="0px"
	 viewBox="0 0 50 50" style="enable-background:new 0 0 50 50;" xml:space="preserve">
<style type="text/css">
	.st0{fill:#6C6463;}
	.st1{fill:#514747;}
	.st2{fill:#FFFFFF;}
	.st3{fill:#FBC749;}
</style>
<g>
	<circle class="st0" cx="25.32" cy="24.74" r="22.68"/>
	<path class="st1" d="M2.58,24.74C2.43,8.46,18.98-3.11,34.1,3.53C52.7,11.7,53.12,38.1,34.2,46.18
		C19.01,52.57,2.42,41.07,2.58,24.74L2.58,24.74z M2.68,24.74c0.18,19.7,24.38,29.48,38.34,15.71c8.67-8.27,9-23.27,0.21-31.62
		C27.27-4.91,2.78,5.08,2.68,24.74L2.68,24.74z"/>
</g>
<g>
	<g>
		<g>
			
				<rect x="23.57" y="14.64" transform="matrix(0.5166 -0.8562 0.8562 0.5166 0.4252 35.2896)" class="st2" width="15.79" height="5.26"/>
			<path class="st1" d="M25.09,22.68c2.24-4.63,5.19-9.44,8.16-13.76c1.6,1.02,3.26,1.93,4.92,2.83c-1.1,2.14-2.78,5.03-4,7.14
				c-1.38,2.4-2.89,4.72-4.41,7.03C28.13,24.87,26.51,23.7,25.09,22.68L25.09,22.68z M25.18,22.66c1.67,0.86,3.2,1.6,4.66,2.4
				l-0.54,0.13c1.27-2.3,2.57-4.6,3.97-6.83c1.24-1.97,2.98-4.74,4.29-6.63c0,0,0.09,0.38,0.09,0.38c-1.46-0.98-2.93-1.93-4.45-2.81
				c0,0,0.22-0.06,0.22-0.06C30.95,14,28.38,18.2,25.18,22.66L25.18,22.66z"/>
		</g>
	</g>
	<g>
		<polygon class="st3" points="28.38,27.66 29.05,26.62 24.42,23.75 23.75,24.78 		"/>
		<path class="st1" d="M28.37,27.61c0.18-0.49,0.26-0.86,0.4-1.18l0.11,0.46c-1.77-0.62-2.83-2.3-4.6-2.92c0,0,0.37-0.08,0.37-0.08
			c-0.17,0.38-0.33,0.76-0.53,1.12l-0.14-0.61C25.72,25.24,26.86,26.26,28.37,27.61L28.37,27.61z M28.39,27.71
			c-1.77-0.52-3.75-1.66-5.26-2.84c0,0,0.25-0.33,0.25-0.33c0.3-0.41,0.67-0.79,1.01-1.17c0.74,0.67,1.55,1.22,2.51,1.54
			c1,0.34,1.81,0.99,2.61,1.66C29.19,26.99,28.71,27.48,28.39,27.71L28.39,27.71z"/>
	</g>
	<g>
		<polyline class="st2" points="17.45,39.54 19.66,28.52 22.94,25.87 27.54,28.62 26.72,32.54 17.45,39.54 21.97,32.54 		"/>
		<path class="st1" d="M17.41,39.53c0.49-3.78,0.9-7.7,1.99-11.33c0.02-0.01,3.42-2.49,3.43-2.5c0.07-0.05,0.15-0.05,0.22,0
			c1.49,0.99,3.04,1.87,4.6,2.75c0.08,0.04,0.11,0.13,0.1,0.21c0.01,0.01-0.66,3.96-0.65,3.97c-2.88,2.64-6.19,4.96-9.35,7.31
			c-0.41,0.35-1.01-0.21-0.69-0.64c0.8-1.14,1.56-2.3,2.39-3.42c0.84-1.1,1.62-2.4,2.56-3.36c-1.17,2.49-2.74,4.9-4.14,7.3
			c0,0-0.69-0.64-0.69-0.64c3.02-2.43,6.16-4.69,9.32-6.93c0,0-0.14,0.23-0.14,0.23l0.99-3.88l0.1,0.22
			c-1.5-0.96-3.02-1.91-4.59-2.76c0,0,0.23-0.02,0.23-0.02l-3.15,2.82c0,0,0.15-0.24,0.15-0.24c-0.31,1.85-0.71,3.68-1.13,5.5
			c-0.44,1.82-0.88,3.64-1.43,5.44C17.49,39.6,17.4,39.59,17.41,39.53L17.41,39.53z"/>
	</g>
	<circle class="st1" cx="21.99" cy="32.54" r="1.2"/>
</g>
</svg>
