<?xml version="1.0" ?><svg viewBox="0 0 512 512" xmlns="http://www.w3.org/2000/svg"><defs><style>.cls-1{fill:#f2ddd4;}.cls-2{fill:#ff7769;}.cls-3{fill:#b96062;}.cls-4{fill:#fe9b7e;}.cls-5{fill:#c64e39;}.cls-6{fill:#873030;}.cls-7{fill:#729e72;}.cls-8{fill:#ffbd54;}.cls-9{fill:#fff;}</style></defs><title/><g id="Handshake"><path class="cls-1" d="M387,440.1C283.49,508,113.58,456.47,86.29,375.26c-4.49-13.34-10.41-40.63-1.82-69.07,13.75-45.46,51.43-52.16,50.68-84.71-.61-26.59-26-32.89-28.92-70.23,0,0-1.62-20.7,6.61-41.35C135.67,52.65,225.71,42.35,275.19,46c62.66,4.67,135,38.65,174.59,108.68,44.9,79.39,21.46,158.56,15.63,176.35C460.12,347.2,441.36,404.43,387,440.1Z"/><path class="cls-2" d="M408.69,177.42s-64.72,34-113.39,31.63-46.67-6.86-71.67-6.5-36.81-13.82-38.88-3,23.77,36.85,55.34,45.29a254.61,254.61,0,0,1-56.75,52.83C139,327.61,95.07,336.07,95.27,356.13c.07,6.11,4.22,12.69,9,16.53,10.24,8.31,24.38,4.8,26.77,4.17a17,17,0,0,0,1.44,6.95c2.55,5.67,7.68,8.22,11.49,10.12a33.5,33.5,0,0,0,11.77,3.34,34.26,34.26,0,0,0,9.86-.5,16.42,16.42,0,0,0,1.43,9,17.34,17.34,0,0,0,7.52,7.5c11.75,6.77,31.17-2.46,32-2.87-.77,2.89-1.16,6.54.7,9.32,4.71,7.06,21.44,2.82,28.1,1.16,34-8.49,61.16-33.13,71.7-42.93C352.19,336,342.67,333,368,315.2l79.34-38.39h0S443.93,205,408.69,177.42Z"/><path class="cls-3" d="M46,247.55s76.64,8.65,123.62-12.36,43.26-24.73,68-34,30.91-27.81,37.09-17.92-9.27,45.56-37.09,66a268.23,268.23,0,0,0,76,30.38c55.06,12.54,101.51,4,109,23.9,2.28,6.06.71,14.16-2.47,19.77-6.88,12.15-22.13,14.13-24.72,14.43a18,18,0,0,1,1.23,7.41c-.33,6.58-4.39,11.08-7.41,14.42a35.44,35.44,0,0,1-10.3,7.83,35.86,35.86,0,0,1-9.89,3.3,17.49,17.49,0,0,1,2.06,9.48,18.43,18.43,0,0,1-4.53,10.3c-9,11.21-31.59,9.56-32.56,9.48,1.87,2.55,3.65,6,2.89,9.47-1.93,8.79-20,11-27.2,11.95-36.63,4.68-72.82-9.21-86.94-14.83-60.52-24.12-52.28-30.69-84.06-38.53L46,360.65h0S21.88,288.34,46,247.55Z"/><path class="cls-4" d="M107.36,376a15.4,15.4,0,0,1,.92-12.72c7.87-15.91,28.47-49.48,40.59-46.74s3,39.78,3,39.78,21.2-37.11,35.74-39.94,7.27,32.73,0,48.89c0,0,19.39-32.57,35.14-30.83s0,49.86,0,49.86,15.15-27.48,29.69-27.48,8.49,56.52,3.79,62.32-46.06,16.1-39.77-5.83c0,0-33.43,18.5-43.26-10.92,0,0-24.36,7.39-35.27-10.52C134.76,391.49,112.27,388.38,107.36,376Z"/><path class="cls-4" d="M244.89,243.26,243.72,247s1.38.24,3.9.83c.83-1,1.65-2,2.47-3C248.34,244.36,246.61,243.83,244.89,243.26Z"/><path class="cls-4" d="M408.69,177.42s-64.72,34-113.39,31.63c-13-.62-22.36-1.4-29.61-2.2-3.23-.43-6.22-.87-8.93-1.3-2.45-.4-4.93-.7-7.41-1l-2.34-.37,0,.14c-15.14-1.35-30.67-1.1-44.71-6.6-3.3-1.29-13.63-5.6-18.92-1.12a9.3,9.3,0,0,0-2.9,5.42c-2.52,13.84,24.73,30.62,30,33.83A124.76,124.76,0,0,0,247,251c2,.49,4.31,1,6.82,1.45a183.15,183.15,0,0,0,36.52,17.07c25.78,8.72,42.68,7.9,93.91,13,17.24,1.72,31.56,3.44,41.62,4.72l21.52-10.42S443.93,205,408.69,177.42Z"/><path class="cls-5" d="M138,393.39a1.34,1.34,0,0,1-.48-.08,1.5,1.5,0,0,1-.94-1.9c.06-.16,5.47-16.13,14-35.67a1.5,1.5,0,1,1,2.75,1.2c-8.45,19.42-13.83,35.28-13.89,35.43A1.49,1.49,0,0,1,138,393.39Z"/><path class="cls-5" d="M173.23,403.91l-.33,0a1.51,1.51,0,0,1-1.13-1.8,186.09,186.09,0,0,1,15.58-39.92,1.5,1.5,0,1,1,2.65,1.39,183.3,183.3,0,0,0-15.31,39.2A1.49,1.49,0,0,1,173.23,403.91Z"/><path class="cls-5" d="M216.49,414.83a1.51,1.51,0,0,1-1.5-1.45c0-.77-.59-19,6.54-29.88a1.5,1.5,0,1,1,2.51,1.65c-6.6,10.07-6.06,27.94-6,28.12a1.51,1.51,0,0,1-1.45,1.56Z"/><path class="cls-6" d="M395.4,339.29h-.1c-35.84-2.26-82.48-15.21-82.95-15.34a1.5,1.5,0,1,1,.81-2.89c.46.13,46.81,13,82.33,15.24a1.5,1.5,0,0,1-.09,3Z"/><path class="cls-6" d="M369,372.25H369c-32.65-1.42-67.3-14.38-67.64-14.51a1.5,1.5,0,1,1,1.06-2.8c.34.12,34.55,12.91,66.71,14.31a1.5,1.5,0,0,1-.06,3Z"/><path class="cls-6" d="M331.91,401.56c-15.48,0-38.54-7.9-39.56-8.25a1.5,1.5,0,1,1,1-2.83c.26.08,25.81,8.82,40.59,8a1.52,1.52,0,0,1,1.58,1.41,1.49,1.49,0,0,1-1.42,1.58C333.38,401.54,332.65,401.56,331.91,401.56Z"/><path class="cls-7" d="M415,94.67l5.37-15.74a3.48,3.48,0,0,1,6.58,0l5.37,15.74a3.48,3.48,0,0,0,2.17,2.16l15.74,5.38a3.47,3.47,0,0,1,0,6.57l-15.74,5.38a3.5,3.5,0,0,0-2.17,2.16L427,132.06a3.48,3.48,0,0,1-6.58,0L415,116.32a3.5,3.5,0,0,0-2.17-2.16l-15.73-5.38a3.47,3.47,0,0,1,0-6.57l15.73-5.38A3.48,3.48,0,0,0,415,94.67Z"/><path class="cls-2" d="M120.44,178.48l6.62-19.38a4.28,4.28,0,0,1,8.1,0l6.61,19.38a4.3,4.3,0,0,0,2.67,2.66l19.37,6.62a4.28,4.28,0,0,1,0,8.1l-19.37,6.61a4.32,4.32,0,0,0-2.67,2.67l-6.61,19.37a4.28,4.28,0,0,1-8.1,0l-6.62-19.37a4.29,4.29,0,0,0-2.67-2.67L98.4,195.86a4.28,4.28,0,0,1,0-8.1l19.37-6.62A4.28,4.28,0,0,0,120.44,178.48Z"/><path class="cls-2" d="M427.38,379,433,362.66a3.59,3.59,0,0,1,6.81,0L445.34,379a3.6,3.6,0,0,0,2.25,2.24l16.31,5.57a3.6,3.6,0,0,1,0,6.82l-16.31,5.57a3.59,3.59,0,0,0-2.25,2.25l-5.57,16.31a3.6,3.6,0,0,1-6.81,0l-5.58-16.31a3.58,3.58,0,0,0-2.24-2.25l-16.31-5.57a3.6,3.6,0,0,1,0-6.82l16.31-5.57A3.59,3.59,0,0,0,427.38,379Z"/><path class="cls-7" d="M109.75,413.75l4.92-14.4a3.18,3.18,0,0,1,6,0l4.92,14.4a3.18,3.18,0,0,0,2,2L142,420.66a3.18,3.18,0,0,1,0,6l-14.41,4.92a3.17,3.17,0,0,0-2,2L120.69,448a3.18,3.18,0,0,1-6,0l-4.92-14.4a3.16,3.16,0,0,0-2-2l-14.4-4.92a3.18,3.18,0,0,1,0-6l14.4-4.92A3.18,3.18,0,0,0,109.75,413.75Z"/><rect class="cls-8" height="100.11" rx="2.02" transform="translate(577.18 181.07) rotate(-180)" width="135.89" x="220.65" y="40.48"/><path class="cls-8" d="M342,136q-5.42,11.69-10.84,23.36a1.93,1.93,0,0,1-3.53-.06q-5-11.67-10-23.35a1.93,1.93,0,0,1,1.77-2.69h20.85A1.93,1.93,0,0,1,342,136Z"/><path class="cls-9" d="M253,85.27a39.92,39.92,0,1,1,39.91,39.92A40,40,0,0,1,253,85.27Zm6.31,0a33.6,33.6,0,1,0,33.6-33.6A33.63,33.63,0,0,0,259.34,85.27Z"/><path class="cls-9" d="M292.94,125.19A3.17,3.17,0,0,0,296.1,122V48.51a3.16,3.16,0,0,0-6.32,0V122A3.17,3.17,0,0,0,292.94,125.19Z"/><path class="cls-9" d="M264.39,111.58a3.14,3.14,0,0,0,2.23-.93L293.2,84.08l26.45,26.45a3.16,3.16,0,0,0,4.47-4.46L295.43,77.38a3.17,3.17,0,0,0-4.47,0l-28.8,28.81a3.16,3.16,0,0,0,2.23,5.39Z"/></g></svg>