<?xml version="1.0" encoding="utf-8"?>
<!-- Generator: Adobe Illustrator 26.2.1, SVG Export Plug-In . SVG Version: 6.00 Build 0)  -->
<svg version="1.1" id="Layer_2" xmlns="http://www.w3.org/2000/svg" xmlns:xlink="http://www.w3.org/1999/xlink" x="0px" y="0px"
	 viewBox="0 0 50 50" style="enable-background:new 0 0 50 50;" xml:space="preserve">
<style type="text/css">
	.st0{fill:#E73164;}
	.st1{fill:#BA0C2F;}
	.st2{fill:#EAC81F;}
	.st3{fill:#FFFFFF;}
</style>
<g>
	<circle class="st0" cx="25.3" cy="25.6" r="21.9"/>
	<path class="st1" d="M25.3,3.6c15.8-0.1,27,15.9,20.5,30.5c-7.9,18-33.5,18.4-41.3,0.1C-1.6,19.5,9.5,3.4,25.3,3.6L25.3,3.6z
		 M25.3,3.7C6.3,3.9-3.2,27.3,10.1,40.8c8,8.4,22.5,8.7,30.6,0.2C54,27.5,44.3,3.8,25.3,3.7L25.3,3.7z"/>
</g>
<circle class="st2" cx="25.3" cy="25.6" r="2"/>
<g>
	<path class="st3" d="M25.3,10.9c-8.1,0-14.7,6.6-14.7,14.7s6.6,14.7,14.7,14.7c8.1,0,14.7-6.6,14.7-14.7
		C40,17.5,33.4,10.9,25.3,10.9z M18.9,14.5c3.9-2.3,8.8-2.3,12.8,0c0.3,0.2,0.4,0.6,0.2,0.9l-3.5,6.1c0,0,0,0,0,0
		c-0.2,0.3-0.6,0.4-0.9,0.2c-1.4-0.8-3.1-0.8-4.5,0c0,0,0,0,0,0c-0.3,0.2-0.7,0.1-0.9-0.2l-3.5-6.1C18.5,15.1,18.6,14.7,18.9,14.5z
		 M23.3,30.3l-3.5,6.1c-0.2,0.3-0.6,0.4-0.9,0.2c-4-2.3-6.4-6.5-6.4-11.1c0-0.4,0.3-0.6,0.6-0.6h7c0.4,0,0.6,0.3,0.6,0.6
		c0,1.6,0.8,3.1,2.2,3.9C23.4,29.6,23.5,30,23.3,30.3z M25.3,28.2c-1.4,0-2.6-1.1-2.6-2.6s1.1-2.6,2.6-2.6c1.4,0,2.6,1.1,2.6,2.6
		S26.7,28.2,25.3,28.2z M38.1,25.6c0,4.6-2.4,8.8-6.4,11.1c-0.3,0.2-0.7,0.1-0.9-0.2l-3.5-6.1c0,0,0,0,0,0c-0.2-0.3-0.1-0.7,0.2-0.9
		c1.4-0.8,2.2-2.3,2.2-3.9c0-0.4,0.3-0.6,0.6-0.6h7C37.8,25,38.1,25.2,38.1,25.6z"/>
	<g>
		<path class="st1" d="M25.3,11C12.8,10.9,6.3,27,15,35.9c5.3,5.7,15.1,5.4,20.3-0.2C44.2,26.8,37.9,11,25.3,11L25.3,11z M25.3,10.9
			C38.8,10.8,45.7,26.7,36,36.3c-7.4,7.5-20.5,4.5-24.5-5C7,21.4,14.7,10.7,25.3,10.9L25.3,10.9z"/>
		<path class="st1" d="M18.9,14.5c4.1-2.6,8.8-2.9,12.9-0.1c0.4,0.2,0.5,0.7,0.3,1.1c-1.1,1.9-2.4,4.7-3.3,6.2
			c-0.4,0.7-1.2,0.6-1.8,0.3c-1.1-0.5-2.8-0.3-3.6,0.2c-0.6,0.4-1.4,0.1-1.7-0.5c-0.9-1.5-1.7-3.5-2.5-5.1
			C19,15.9,18.1,15,18.9,14.5L18.9,14.5z M19,14.6c-0.7,0.5,0.2,1.3,0.5,1.8c0,0,1.3,1.9,1.3,1.9c0.7,0.9,1.3,2,1.9,2.9
			c0.1,0.1,0.2,0,0.1,0.1c1.5-0.9,3.5-0.9,5,0c0.2,0.1,0.2,0.1,0.3,0c0,0,0,0,0,0c0,0,0-0.1,0.1-0.1c0,0,0,0.1,0,0.1
			c1.2-2,2.6-3.9,3.8-5.9c0.1-0.2,0-0.5-0.2-0.7C27.7,12.9,22.8,12.6,19,14.6L19,14.6z"/>
		<path class="st1" d="M23.4,30.4c-1.2,1.9-1.9,4.1-3,6.1c-0.1,0.2-0.3,0.5-0.5,0.6c-0.7,0.5-1.4-0.2-2-0.6
			c-3.3-2.7-5.6-6.7-5.7-10.9c0-0.7,0.7-1.1,1.2-1c2.3-0.1,4.5-0.1,6.8,0c0.6-0.1,1.2,0.6,1.1,1.2c-0.1,1.1,0.2,2.1,0.9,3
			C22.6,29.2,23.8,29.5,23.4,30.4L23.4,30.4z M23.3,30.3c0.4-0.8-0.9-1-1.3-1.5c-0.9-0.8-1.5-2-1.6-3.2c0-0.2-0.1-0.2-0.2-0.2
			c-2.4,0.1-4.8,0-7.2,0c-0.4,2.5,0.4,5.3,1.9,7.4c1.1,1.4,2.5,2.5,4,3.3c0.2,0.1,0.2,0.1,0.3,0.1C20.6,34.3,22.1,32.4,23.3,30.3
			L23.3,30.3z"/>
		<path class="st1" d="M25.3,28.2c-4.2,0-3.7-4.9,0-5.4C29.2,22.6,29.6,28.3,25.3,28.2L25.3,28.2z M25.3,28.1c1.3,0,2-1.4,2-2.5
			c0-1.1-0.9-2.1-2-2.3C22.2,22.9,22.7,28,25.3,28.1L25.3,28.1z"/>
		<path class="st1" d="M38.1,25.6c0.2,4.8-1.9,9.1-6.3,11.2c-0.4,0.2-0.9,0.1-1.1-0.3c-1.1-1.9-2.4-3.8-3.6-5.6
			c0-0.1-0.1-0.2-0.2-0.2c-0.2-0.3-0.3-1.1,0.2-1.5c1.2-0.7,2-2,2-3.4c0-0.1,0-0.4,0.1-0.7c0.3-0.7,1.1-0.7,1.7-0.6
			c1.8,0,3.7,0.3,5.5,0.4c0,0,0.9,0,0.9,0C37.9,24.9,38.1,25.3,38.1,25.6L38.1,25.6z M38,25.6c0-0.8-0.9-0.5-1.4-0.5
			c0,0-1.8,0.1-1.8,0.1c-1.4,0.1-2.8,0.2-4.1,0.3c-0.2,0-0.3-0.1-0.3,0.3c0,1.7-1.1,3.3-2.5,4.1c-0.1,0.1-0.1,0.2,0,0.3
			c1.1,2,2.1,4.2,3.2,6.2c0.1,0.2,0.4,0.3,0.7,0.2c0.7-0.5,1.4-1,2-1.7C35.9,32.3,38,29.2,38,25.6L38,25.6z"/>
	</g>
</g>
<g>
	<path d="M35.5,25.6v14.1h-1.1v-3.2h-1.1v-1.1H31v2.1h1.1v1.1H31v-1.1h-1.1v-3.2h3.3v1.1h1.1v-9.8L35.5,25.6c0-1.1,0-1.1,0-1.1h2.2
		v1.1h1.1v4.3H41V31h-2.2v4.4h-1.1v-9.8L35.5,25.6L35.5,25.6z M46.5,33.2h1.1v1.1h-1.1V33.2L46.5,33.2z M48.7,34.3v7.6h-1.1v-7.6
		H48.7L48.7,34.3z M45.4,33.2v3.3h-1.1v-4.4h-2.2v3.3H41V31h3.3v1.1h2.2v1.1H45.4L45.4,33.2z M36.6,47.1h8.8v-2.1h1.1v-3.2h1.1v3.2
		h-1.1v3.2h-11v-3.2h-1.1v-2.2h1.1v2.2h1.1V47.1L36.6,47.1z M33.3,38.6v2.1h1.1v2.2h-1.1v-2.2h-1.1v-2.2L33.3,38.6L33.3,38.6z"/>
	<polygon class="st3" points="36.6,47.1 45.4,47.1 45.4,45.1 46.5,45.1 46.5,41.9 47.6,41.9 47.6,34.3 46.5,34.3 46.5,33.2 
		45.4,33.2 45.4,36.5 44.3,36.5 44.3,32.1 42.1,32.1 42.1,35.4 41,35.4 41,31.1 38.8,31.1 38.8,35.4 37.7,35.4 37.7,25.6 35.5,25.6 
		35.5,39.7 34.3,39.7 34.3,36.5 33.2,36.5 33.2,35.5 31,35.5 31,37.5 32.1,37.5 32.1,38.6 33.3,38.6 33.3,40.8 34.4,40.8 34.4,42.9 
		35.5,42.9 35.5,45.1 36.6,45.1 	"/>
</g>
</svg>
