<?xml version="1.0" encoding="utf-8"?>
<!-- Generator: Adobe Illustrator 26.2.1, SVG Export Plug-In . SVG Version: 6.00 Build 0)  -->
<svg version="1.1" id="Layer_1" xmlns="http://www.w3.org/2000/svg" xmlns:xlink="http://www.w3.org/1999/xlink" x="0px" y="0px"
	 viewBox="0 0 60 60" style="enable-background:new 0 0 60 60;" xml:space="preserve">
<style type="text/css">
	.st0{fill:url(#SVGID_1_);}
	.st1{fill:url(#SVGID_00000029043518504892085140000013070325073089021359_);}
	.st2{fill:#FFFFFF;}
	.st3{fill:#1B6D14;}
	.st4{font-family:'Mali-Medium';}
	.st5{font-size:6.804px;}
</style>
<linearGradient id="SVGID_1_" gradientUnits="userSpaceOnUse" x1="2.8365" y1="30" x2="57.1635" y2="30" gradientTransform="matrix(-1 0 0 1 60 0)">
	<stop  offset="0" style="stop-color:#3CB037"/>
	<stop  offset="1" style="stop-color:#2B8E25"/>
</linearGradient>
<circle class="st0" cx="30" cy="30" r="27.2"/>
<linearGradient id="SVGID_00000129166300685278814460000008781772421847174822_" gradientUnits="userSpaceOnUse" x1="5.8336" y1="29.9999" x2="54.1664" y2="29.9999" gradientTransform="matrix(-1 0 0 1 60 0)">
	<stop  offset="0" style="stop-color:#2B8E25"/>
	<stop  offset="1" style="stop-color:#3CB037"/>
</linearGradient>
<path style="fill:url(#SVGID_00000129166300685278814460000008781772421847174822_);" d="M30,5.8c13.3,0,24.2,10.8,24.2,24.2
	c0,13.3-10.8,24.2-24.2,24.2C16.7,54.2,5.8,43.3,5.8,30C5.8,16.7,16.7,5.8,30,5.8z"/>
<polygon id="XMLID_201_" class="st2" points="34.9,47 50.9,30 34.9,13 34.9,18.4 11.9,18.4 11.9,41.6 34.9,41.6 "/>
<text transform="matrix(1 0 0 1 15.4014 27.6714)"><tspan x="0" y="0" class="st3 st4 st5">Esto </tspan><tspan x="0" y="8.2" class="st3 st4 st5">permite</tspan></text>
</svg>
