<?xml version="1.0" encoding="utf-8"?>
<!-- Generator: Adobe Illustrator 26.2.1, SVG Export Plug-In . SVG Version: 6.00 Build 0)  -->
<svg version="1.1" id="Capa_1" xmlns="http://www.w3.org/2000/svg" xmlns:xlink="http://www.w3.org/1999/xlink" x="0px" y="0px"
	 viewBox="0 0 50 50" style="enable-background:new 0 0 50 50;" xml:space="preserve">
<style type="text/css">
	.st0{fill:#3CB037;}
	.st1{fill:#1B6D14;}
	.st2{fill:#FFFFFF;}
</style>
<g>
	<circle class="st0" cx="25" cy="25" r="22"/>
	<path class="st1" d="M3,25C2.8,9.2,18.9-2,33.5,4.5c18,7.9,18.4,33.5,0.1,41.3C18.9,52,2.8,40.8,3,25L3,25z M3.1,25
		c0.2,19.1,23.6,28.5,37.1,15.2c8.4-8,8.7-22.5,0.2-30.6C26.9-3.7,3.2,6,3.1,25L3.1,25z"/>
</g>
<g>
	<g>
		<path class="st2" d="M18.6,14.8c0,1.2-0.9,2.1-2.1,2.1c-1.2,0-2.1-0.9-2.1-2.1c0-1.2,0.9-2.1,2.1-2.1
			C17.7,12.7,18.6,13.6,18.6,14.8z M16.7,29.1l0.5,7.7c0,0.3,0.2,0.5,0.5,0.5c0.3,0,0.5-0.2,0.5-0.5l0.4-7.7H20l-1.4-8.7l2.8,5.7
			c0.1,0.2,0.4,0.4,0.6,0.3c0.2-0.1,0.4-0.4,0.3-0.6c0,0-2.1-5.6-2.6-6.7c-0.5-1.1-1-1.7-3-1.7h-0.4c-2,0-2.5,0.6-3,1.7
			c-0.5,1.1-2.6,6.7-2.6,6.7c-0.1,0.3,0,0.5,0.3,0.6c0.3,0.1,0.5,0,0.6-0.3l2.8-5.7l-1.4,8.7h1.4l0.4,7.7c0,0.3,0.2,0.5,0.5,0.5
			c0.3,0,0.5-0.2,0.5-0.5l0.4-7.7C16.3,29.1,16.7,29.1,16.7,29.1z M33.5,12.6c-1.2,0-2.1,0.9-2.1,2.1c0,1.2,0.9,2.1,2.1,2.1
			c1.2,0,2.1-0.9,2.1-2.1C35.6,13.6,34.6,12.6,33.5,12.6z M35.7,25l0.1-4.6l2.6,5.7c0.1,0.2,0.4,0.4,0.6,0.3
			c0.3-0.1,0.4-0.4,0.3-0.6c0,0-1.8-5.6-2.3-6.7c-0.5-1.1-1.3-1.7-3.3-1.7h-0.4c-2,0-2.8,0.6-3.3,1.7c-0.5,1.1-2.3,6.7-2.3,6.7
			c-0.1,0.3,0,0.5,0.3,0.6c0.3,0.1,0.5,0,0.6-0.3l2.6-5.7l0.1,4.6l-0.4,11.5c0,0.5,0.3,0.8,0.8,0.9c0,0,0,0,0.1,0
			c0.4,0,0.8-0.3,0.8-0.8l0.9-9.4l0.9,9.4c0,0.4,0.4,0.8,0.8,0.8c0,0,0,0,0.1,0c0.5,0,0.8-0.4,0.8-0.9L35.7,25
			C35.6,25,35.7,25,35.7,25z M25,25.4c-0.7,0-1.3,0.6-1.3,1.3c0,0.7,0.6,1.3,1.3,1.3c0.7,0,1.3-0.6,1.3-1.3
			C26.3,26,25.7,25.4,25,25.4z M25,33c0,0,0.6,4,0.6,4c0.1,0.2,0.3,0.3,0.5,0.3c0.2,0,0.4-0.2,0.5-0.4c0,0,0-0.3,0-0.3l-0.2-4.9
			l0.1-1.7c0.1-0.6,0.1-0.4,0.7-0.8c0.7-0.4,1.8-2.2,1.9-2.3c0.1-0.1,0.2-0.2,0.2-0.3c0-0.2-0.1-0.3-0.3-0.4c-0.1,0-0.2,0-0.3,0.1
			c-0.1,0.1-1.4,1.8-2.4,2c-0.2,0-0.5-0.1-1.1-0.1h-0.2c-0.6,0-0.9,0.1-1.1,0.1c-1-0.2-2.3-1.9-2.4-2c-0.1-0.1-0.2-0.2-0.3-0.1
			c-0.2,0-0.3,0.2-0.3,0.4c0,0.1,0.1,0.3,0.2,0.3c0.1,0.1,1.2,1.9,1.9,2.3c0.7,0.4,0.7,0.2,0.7,0.8l0.1,1.7l-0.2,4.9
			c0,0,0,0.3,0,0.3c0.1,0.2,0.3,0.4,0.5,0.4c0.2,0,0.4-0.1,0.5-0.3C24.4,37,25,33,25,33"/>
		<g>
			<path class="st1" d="M18.7,14.8c0,3.6-4,3.1-4.5,0C13.9,11.4,18.8,11.1,18.7,14.8L18.7,14.8z M18.6,14.8c-0.2-2-3.5-2.1-3.9,0
				c-0.2,1.1,0.8,1.9,1.8,1.7C17.4,16.3,18.6,15.8,18.6,14.8L18.6,14.8z"/>
			<path class="st1" d="M16.8,29.1c0.2,2.2,0.5,5.7,0.8,7.9c0.1,0.2,0.3,0.1,0.3-0.1c0-0.8,0.1-2.6,0.1-3.5c0,0,0.2-4.3,0.2-4.3
				c0-0.2,0.2-0.4,0.4-0.4c0,0,1.4,0,1.4,0l-0.4,0.5c-0.4-2.6-1-6.2-1.3-8.7c0-0.2,0.1-0.4,0.3-0.4c0.1,0,0.3,0.1,0.3,0.2l2,4.3
				l0.5,1.1c0.2,0.3,0.2,0.7,0.6,0.6c0.3-0.2,0.1-0.5,0-0.8c0,0-0.4-1.1-0.4-1.1c-0.6-1.5-1.1-3-1.7-4.4c-0.3-0.7-0.6-1.5-1.2-1.9
				c-0.6-0.4-1.4-0.4-2.2-0.4c-0.8,0-1.6,0.1-2.1,0.5c-0.5,0.4-0.8,1.2-1.1,1.9l-1.6,4.4c-0.1,0.2-0.5,1.4-0.6,1.5c0,0,0,0,0,0
				c0.5-1,2.3-4.7,2.8-5.7c0.3-0.5,1.1-0.3,1,0.3c0,0-1.4,8.7-1.4,8.7l-0.5-0.6l1.4,0c0.3,0,0.5,0.2,0.5,0.5c0,0,0.2,4.3,0.2,4.3
				c0,0.9,0.1,2.7,0.1,3.6c0.1,0.1,0.2,0.1,0.3,0c0,0,0-0.3,0-0.4c0,0,0.1-1.1,0.1-1.1l0.2-2.1l0.4-4.3C16.2,29,16.6,29.1,16.8,29.1
				L16.8,29.1z M16.7,29.2l-0.4,0l0.1-0.1c0,2-0.1,5.5-0.2,7.5c0,0,0,0.3,0,0.3c0,0.8-1.2,1.2-1.6,0.4c-0.1-0.2-0.1-0.5-0.1-0.7
				c-0.1-0.7-0.2-2.5-0.2-3.2c0,0-0.3-4.2-0.3-4.2l0.5,0.5l-1.4,0c-0.3,0-0.6-0.3-0.5-0.6c0,0,1.4-8.7,1.4-8.7l1,0.3l-2.2,4.2
				c-0.2,0.4-0.6,1.4-0.9,1.7c-0.8,0.8-2.1-0.2-1.5-1.1c0,0,0.1-0.3,0.1-0.3c0.6-1.5,2-5.2,2.7-6.6c0.5-1.3,2.2-1.6,3.3-1.5
				c0.8,0,1.7,0.1,2.4,0.6c0.7,0.6,1,1.4,1.3,2.1c0.6,1.5,1.1,3,1.7,4.4l0.4,1.1c0.2,0.4,0.4,1-0.2,1.3c-0.6,0.2-0.9-0.3-1.1-0.7
				c0,0-0.5-1.1-0.5-1.1l-2.2-4.2l0.6-0.2c0.5,2.5,1.1,6.1,1.5,8.7c0,0.3-0.2,0.5-0.4,0.5c0,0-1.4,0-1.4,0l0.4-0.4
				c0,0-0.3,4.2-0.3,4.2c-0.1,0.8-0.2,2.6-0.2,3.5c0,1.1-1.6,1.1-1.6,0C16.8,34.8,16.7,31.2,16.7,29.2L16.7,29.2z"/>
			<path class="st1" d="M33.5,12.7c-1.1,0-1.5,1.2-1.7,2c-0.2,1,0.6,2.1,1.7,1.8C35.6,16.2,35.5,12.9,33.5,12.7L33.5,12.7z
				 M33.5,12.6c3.7-0.2,3.3,4.8,0,4.5C30.4,16.6,29.9,12.6,33.5,12.6L33.5,12.6z"/>
			<path class="st1" d="M35.6,25c0,0-0.1-4.5-0.1-4.5c0-0.1,0.1-0.2,0.2-0.2c0.1,0,0.2,0.1,0.2,0.1c0,0,1.7,3.5,1.7,3.5l0.8,1.8
				c0,0.1,0.2,0.5,0.3,0.4c0.1,0,0.1-0.1,0.1-0.2c-0.6-1.8-1.2-3.5-1.8-5.3c-0.3-0.9-0.6-1.8-1.2-2.2c-0.6-0.5-1.5-0.6-2.4-0.6
				c-0.9,0-1.8,0-2.5,0.5c-0.7,0.5-0.9,1.4-1.3,2.2c-0.7,1.7-1.3,3.5-1.9,5.3c-0.1,0.2,0.1,0.5,0.3,0.5c0.1,0,0.2-0.1,0.3-0.1
				c0.3-0.7,0.7-1.5,1-2.2c0,0,1.6-3.6,1.6-3.6c0.1-0.2,0.4-0.1,0.4,0.1c0.3,4,0.2,9,0.1,13c0,0.6-0.1,2.6-0.1,3.1
				c0.1,0.4,0.7,0.4,0.7-0.1c0.2-2.4,0.6-6.9,0.9-9.4c0.1-0.6,1-0.6,1,0c0.2,1.8,0.6,6.3,0.7,8.1c0,0,0.1,1.3,0.1,1.3
				c0,0.2,0,0.2,0.1,0.3c0.3,0.3,0.7,0.1,0.7-0.3C35.6,32.8,35.5,28.6,35.6,25L35.6,25z M35.7,25c0.2,2.7,0.5,6.5,0.6,9.5
				c0,0,0.1,1.6,0.1,1.6c0,0.3,0,0.7-0.1,1c-0.6,1.1-2.3,0.6-2.3-0.6c-0.1-0.8-0.4-3.2-0.5-4c0,0-0.6-5.4-0.6-5.4l1,0
				c-0.2,2.5-0.7,7-0.9,9.4c-0.1,1.5-2.3,1.7-2.6,0.2c0.1-3.8,0.4-8.2,0.6-12c0,0,0-4.3,0-4.3l0.4,0.1c-0.7,1.5-2,4.3-2.6,5.8
				c-0.5,0.7-1.5,0.1-1.2-0.6c0,0,1.7-5.4,1.7-5.4c0.3-0.9,0.6-1.9,1.4-2.6c0.9-0.7,2-0.8,2.9-0.8c0.9,0,2,0,2.9,0.7
				c0.8,0.7,1.2,1.7,1.5,2.6c0.6,1.7,1.2,3.7,1.7,5.3c0.4,1.2-1.3,1.7-1.7,0.5c-0.5-1.3-1.8-4.3-2.4-5.6c0,0,0.4-0.1,0.4-0.1
				L35.7,25L35.7,25z"/>
			<path class="st1" d="M25,25.5c-0.7,0-0.7,0.8-0.9,1.2c-0.1,0.2-0.1,0.6,0.1,0.8c0.6,0.7,1.6-0.2,1.6-0.8
				C25.8,26.2,25.6,25.5,25,25.5L25,25.5z M25,25.4c0.8-0.1,1.8,0.3,1.8,1.3c0,1-1,1.8-1.8,1.6c-0.4-0.1-0.7-0.3-1-0.5
				C22.6,26.7,23.4,25.2,25,25.4L25,25.4z"/>
			<path class="st1" d="M25,33c0.3,1.3,0.6,2.7,0.9,4c0,0,0-0.1,0-0.1C25.9,37,26,37,26.1,37c0.2-0.1,0-0.1,0.1-0.2
				c-0.2-2.4-0.5-4.8-0.1-7.1c0-0.4,0.5-0.6,0.8-0.7c0.3-0.1,0.5-0.4,0.8-0.6c0.5-0.5,0.9-1.1,1.3-1.7c0.2-0.2,0-0.5-0.2-0.3
				c-0.7,0.8-1.4,1.8-2.5,2.2c-0.6-0.1-1.2-0.1-1.8,0c-0.2,0-0.4,0.2-0.7,0.1c-1.2-0.3-1.9-1.2-2.7-2c0,0,0,0,0.1,0
				c0.1,0,0.1,0,0.1-0.1c0,0,0-0.1,0-0.1c0,0,0.1,0.1,0.1,0.2c0.5,0.7,1.2,1.8,2,2.2c0.3,0.1,0.7,0.4,0.7,0.8c0.3,2.3-0.1,5.1-0.3,7
				c0,0,0,0.1,0,0.1c0-0.1,0-0.1-0.1-0.2c0,0,0.1,0.1,0.1,0.1c0,0.1,0.2,0.2,0.3,0c0,0,0,0.3,0,0.3C24.4,35.7,24.6,34.3,25,33
				C25,32.9,25.1,32.9,25,33c0,1.5-0.3,2.8-0.3,4.1c-0.1,0.3-0.4,0.6-0.8,0.6c-0.6,0-0.9-0.5-0.9-0.7c0-1.4,0-3.5,0.1-5.3
				c0,0,0,0,0,0c0-0.4-0.1-1.5-0.1-1.9c0,0,0,0,0,0c0,0,0.1,0.1,0.1,0.1c-1.3-0.6-2-1.9-2.7-3c-0.4-0.8,0.7-1.6,1.3-0.9
				c0.6,0.8,1.3,1.7,2.2,2c0,0-0.1,0-0.1,0C24.1,28,24.6,28,25,28c0.4,0,0.9,0.1,1.2,0.2c0,0-0.1,0-0.1,0c0.9-0.2,1.7-1.2,2.4-1.9
				c0.2-0.3,0.9-0.1,0.8,0.3c-0.3,0.8-0.9,1.4-1.3,2.1c-0.3,0.4-0.8,0.9-1.3,1.1c0,0,0,0,0,0l0,0.2c-0.1,2.1,0.4,5.3,0.1,7.2
				c-0.4,0.7-1.5,0.5-1.6-0.2C25.1,35.7,25,34.4,25,33C24.9,32.9,25,32.9,25,33L25,33z"/>
		</g>
	</g>
</g>
</svg>
