<?xml version="1.0" encoding="utf-8"?>
<!-- Generator: Adobe Illustrator 26.3.1, SVG Export Plug-In . SVG Version: 6.00 Build 0)  -->
<svg version="1.1" id="Capa_1" xmlns="http://www.w3.org/2000/svg" xmlns:xlink="http://www.w3.org/1999/xlink" x="0px" y="0px"
	 viewBox="0 0 80 80" style="enable-background:new 0 0 80 80;" xml:space="preserve">
<style type="text/css">
	.st0{fill:#6C6463;}
	.st1{fill:#661D32;}
	.st2{fill:#CECCC8;}
	.st3{fill:#FFFFFF;}
	.st4{fill:#B90C2F;}
	.st5{fill:#8B8884;}
</style>
<g>
	<circle class="st0" cx="39.7" cy="40.5" r="36.3"/>
	<path class="st1" d="M3.3,40.5C3.6,7.1,41.9-9.2,65.6,14.6C84.1,33.2,78.4,64.7,54,75C29.4,85.2,3.2,66.8,3.3,40.5L3.3,40.5z
		 M3.5,40.5c0.3,31.4,39,46.8,61.2,25C87.4,42.9,72,4.6,39.7,5C20.7,5,3.3,21,3.5,40.5L3.5,40.5z"/>
</g>
<g>
	<path class="st2" d="M59.1,60.9c-0.2,0-0.3-0.1-0.3-0.2c0-0.1,0-0.2,0.1-0.2c7-8.4,4.2-25.2,4.1-25.3c0-0.2,0.1-0.3,0.2-0.3
		c0.2,0,0.3,0.1,0.3,0.2c0.5,3.2,0.7,6.4,0.6,9.6c-0.1,4.9-1.1,11.7-4.8,16.2C59.3,60.9,59.2,60.9,59.1,60.9z"/>
	<path class="st2" d="M62.8,53.6c0,0,0.9-6.6-3.3-10.8s-2.6,0.7-2.3,3C57.5,48,59.3,52.7,62.8,53.6z"/>
	<path class="st2" d="M63.3,50.8c0,0,0.2-6.7,4.9-10.1c4.8-3.5,2.4,1.1,1.7,3.3C69.3,46.1,66.8,50.5,63.3,50.8z"/>
	<circle class="st3" cx="63" cy="32.8" r="6.6"/>
	<circle class="st4" cx="63" cy="32.8" r="4"/>
</g>
<g>
	<path class="st3" d="M19.7,59.2c-3.6-3.3-5.1-8.9-5.7-12.9c-0.4-2.7-0.6-5.4-0.5-8.1c0-0.1,0.1-0.2,0.2-0.2c0.1,0,0.2,0.1,0.2,0.2
		c0,0.1-0.7,14.4,6,20.6c0,0,0.1,0.1,0.1,0.2c0,0.1-0.1,0.2-0.2,0.2C19.8,59.3,19.7,59.3,19.7,59.2z"/>
	<path class="st3" d="M19.8,46.5c0-1.9,0.8-6.1-2.2-2.2s-1.6,9.3-1.6,9.3C18.8,52.5,19.8,48.4,19.8,46.5z"/>
	<path class="st3" d="M9.1,46.3c-0.8-1.8-3.2-5.3,1.1-2.9c4.3,2.4,5.2,7.9,5.2,7.9C12.4,51.4,9.8,48,9.1,46.3z"/>
	<circle class="st3" cx="13.7" cy="36.4" r="5.5"/>
	<circle class="st4" cx="13.7" cy="36.3" r="3.3"/>
</g>
<g>
	<g>
		<path class="st5" d="M35,68.3c0,0-1.6-11.8-2.9-13.8c-1.3-2-4.5-5.8-4.5-8.2s4-2.9,4-2.9s-3.9-3.4-5.8-7.7
			c-2.1-4.7-3.7-8.7-2.8-9.3c2.3-1.2,5,3.2,7.5,6.8c2.3,3.3,3.8,5.2,5.3,6.6c-2.5-7.4-4.3-17.7-2.5-18.9c0.3-0.2,0.7-0.3,1.1-0.2
			c1.6,0.2,2.1,2.9,3.9,7.5c1.1,2.8,2.5,5.4,3.7,8.1c0.7-3,1.3-5.4,1.6-7c1.1-5,1.5-7.9,3.2-8.3c0,0,0.6-0.2,1.1,0.1
			c0.9,0.4,1.7,2.9-0.8,17c-0.2,1.2,4.4,4.2,4.2,8.2c-0.1,0.7-0.2,1.4-0.4,2.1c-0.5,1.7-1.4,3.1-2.6,5c-1.2,2,3.4,13.6,3.4,13.6
			S42.9,73.9,35,68.3z"/>
		<path class="st3" d="M35,68.3c-0.7-4.2-1.4-8.3-2.6-12.4c-1-2.8-3.5-4.8-4.7-7.7c-1.6-3.2,0.9-4.9,3.8-5.3c0,0-0.2,0.7-0.2,0.7
			c-2.4-2.2-4.5-4.8-6-7.8c-1.1-2.6-2.4-5.2-3-8.1c-0.1-0.5-0.2-1,0.2-1.5c0.8-0.8,2-0.5,2.8,0c3.3,2.6,5,6.5,7.5,9.7
			c1,1.3,1.9,2.6,3.1,3.7l-0.3,0.2c-1-3-1.8-6.1-2.4-9.3c-0.4-2.4-0.8-4.7-0.8-7.1c0-0.8,0-1.6,0.5-2.4c0.6-0.8,1.8-0.8,2.4-0.2
			c0.7,0.6,1,1.4,1.3,2.1c1.6,4.5,3.5,8.8,5.7,13.1c0,0-0.7,0.1-0.7,0.1c1.2-4.7,1.7-9.6,3.4-14.2c0.5-1.2,1.9-2.1,3.2-1.3
			c2.4,1.8-0.2,14.2-0.7,17.3c0,0.1,0,0.2,0,0.2c0.1,0.5,0.7,1.1,1.1,1.6c4.5,4.8,3.5,8.5,0,13.6c0,0.1-0.2,0.3-0.2,0.4
			c-0.3,1.8,0.4,3.6,0.8,5.3c0.8,2.7,1.7,5.4,2.7,8.1C47.1,70.7,40.1,72.2,35,68.3L35,68.3z M35.1,68.3c5,3.5,11.7,1.9,16.3-1.5
			c0,0-0.1,0.3-0.1,0.3c-1.5-3.9-3.1-7.8-3.7-12c-0.1-0.7-0.1-1.4,0.2-2.1c0-0.1,1.1-1.9,1.2-2c1-1.7,1.7-3.6,1.7-5.6
			c-0.3-2.9-2.7-4.5-4.1-7c-0.2-0.4,0-0.9,0-1.3c0.7-4.4,1.5-8.8,1.6-13.3c0-0.8,0-1.9-0.5-2.5c-0.7-0.3-1.5,0.1-1.8,0.9
			c-1.6,4.3-2.2,9.4-3.5,14c0,0-0.3,1.1-0.3,1.1c-1.4-3.3-3.1-6.4-4.3-9.8c-0.8-1.6-2-8.6-4.6-6.4c-0.7,1.3-0.4,3.1-0.4,4.6
			c0.5,5,1.7,9.9,3.4,14.6c-1.4-1.2-2.7-2.7-3.8-4.1c-1.8-1.9-6.6-10.9-9.2-9.5c-0.2,1.3,0.6,3,1.1,4.3c1.7,4.5,3.9,8.8,7.6,12
			c0,0,0.6,0.6,0.6,0.6l-0.8,0.1c-7.8,1.1-0.7,7.5,1,11.1C34,59.2,34.5,63.8,35.1,68.3L35.1,68.3z"/>
	</g>
	<path class="st2" d="M27.8,48.3c0,0,2.1,5.8,6,5.3c2.9-0.3-0.5-6.1-0.5-6.1s-0.2-3.6-1.8-4.2C31.5,43.4,25.5,43.4,27.8,48.3z"/>
	<path class="st2" d="M51.6,67.1c0,0-4.9-11.6-3.7-13.6c1.4-2.4,2.9-3.8,3-7.1c0-1.6-0.3-3.1-1-4.5c-0.5-0.9-1.2-1.8-2-2.5
		c-0.4-0.3-0.9-0.5-1.4-0.6c-3.2-0.8-10.5,7.1-9.2,9.1c0.5,0.7,1.9,0.6,2.8,0.5c2.9-0.2,4.8-2.3,5.1-2c0.1,0.1-0.4,0.6-1.2,1.7
		c-1,1.6-1,2.3-1.8,3c-0.5,0.3-0.8,0.5-1.6,0.7c-2,0.6-3.2,0.1-4,1c-0.1,0.1-0.2,0.3-0.2,0.5c-0.2,0.9-0.5,3.3-2,2.8
		c-0.8-0.2-1.6-0.7-2.3-1c1.1,2.6,2.9,13.3,2.9,13.3C43,73.9,51.6,67.1,51.6,67.1z"/>
	<path class="st3" d="M42.8,51C42.7,51,42.7,51,42.8,51c-0.2,0-0.3-0.2-0.2-0.3c0.7-2.4,2.2-4.5,4.3-6c0.1-0.1,0.2-0.1,0.3,0.1
		c0.1,0.1,0.1,0.2,0,0.3c-1.9,1.4-3.4,3.5-4.1,5.8C42.9,50.9,42.9,51,42.8,51z"/>
	<path class="st3" d="M39.2,48.7L39.2,48.7c-0.1,0-1.4-0.1-1.9-1c-0.3-0.7-0.1-1.6,0.6-2.6c0.1-0.1,0.2-0.1,0.3-0.1
		c0.1,0.1,0.1,0.2,0.1,0.3c0,0,0,0,0,0c-0.6,0.9-0.9,1.7-0.6,2.2c0.3,0.7,1.5,0.8,1.5,0.8c0.1,0,0.2,0.1,0.2,0.2
		C39.4,48.6,39.3,48.7,39.2,48.7L39.2,48.7z"/>
</g>
</svg>
