<?xml version="1.0" encoding="utf-8"?>
<!-- Generator: Adobe Illustrator 26.2.1, SVG Export Plug-In . SVG Version: 6.00 Build 0)  -->
<svg version="1.1" id="Capa_1" xmlns="http://www.w3.org/2000/svg" xmlns:xlink="http://www.w3.org/1999/xlink" x="0px" y="0px"
	 viewBox="0 0 60 60" style="enable-background:new 0 0 60 60;" xml:space="preserve">
<style type="text/css">
	.st0{fill:#F8C09D;}
	.st1{fill:#EF937E;}
	.st2{fill:#345620;}
	.st3{fill:#3E4347;}
	.st4{fill:#6F6571;}
	.st5{fill:#857E87;}
	.st6{fill:#6F6F6F;}
	.st7{fill:#58A72A;}
</style>
<path id="path600367" class="st0" d="M18.6,15.8c-1.4,0-3.3,0.3-4.7,1c-1.5,0.7-2.8,1.7-3.8,3.1c-1,1.4-1.5,3.3-1.5,5.7
	c0,0,0,0.1,0,0.1L9,28.4c0,0.4-0.1,0.8-0.4,1.2l-2.2,3.2c-0.8,1.2,0.1,3,1.6,3H9v4.6c0,2,1.7,3.7,3.7,3.7c0,0,0.1,0,0.1,0l4.5-0.5
	l0,3.3c0,1,0.8,1.8,1.8,1.8h11.1c1,0,1.8-0.8,1.8-1.8v-9.2c0-1,0.7-3,1.3-4.1c0.5-0.9,0.9-2,1.1-3c0-0.1,0-0.1,0-0.2V26
	c0-5.6-4.6-10.2-10.2-10.2L18.6,15.8z"/>
<path id="path12871" class="st1" d="M20.3,15.8c-0.5,0-0.9,0-1.3,0h2.7C21.2,15.8,20.8,15.8,20.3,15.8z M24.3,15.8
	c-0.4,0-0.8,0-1.3,0c5.4,0.3,9.7,4.8,9.7,10.2v4.2c0,0.1,0,0.1,0,0.2c-0.3,1.1-0.6,2.1-1.1,3c-0.6,1.1-1.3,3.1-1.3,4.1v9.2
	c0,1-0.8,1.8-1.8,1.8h1.8c1,0,1.8-0.8,1.8-1.8v-9.2c0-1,0.7-3,1.3-4.1c0.5-0.9,0.9-2,1.1-3l0-4.4C34.5,20.4,29.9,15.8,24.3,15.8
	L24.3,15.8z"/>
<path id="path584364" class="st1" d="M21,41.3c-0.1,0-0.1,0-0.2,0L9.7,42.5c0.7,0.9,1.8,1.5,3,1.5c0,0,0.1,0,0.1,0l4.5-0.5l3.8-0.4
	c0.5-0.1,0.9-0.5,0.8-1C21.9,41.7,21.5,41.3,21,41.3L21,41.3z"/>
<path id="path584606" class="st1" d="M6.2,33.9c0.1,1,0.8,1.8,1.9,1.8H9h1.8c0.5,0,0.9-0.4,0.9-0.9c0,0,0,0,0,0
	c0-0.5-0.4-0.9-0.9-0.9c0,0,0,0,0,0H6.2z"/>
<g>
	<path class="st2" d="M20.1,16.5c0-0.1,0.1-0.1,0.1-0.1h0.3v-0.7c0-0.1,0.1-0.1,0.1-0.1h5.4c0.1,0,0.1,0.1,0.1,0.1v0.7h4.1
		c0.1,0,0.1,0.1,0.1,0.1v1.3h3.7c0.1,0,0.1,0.1,0.1,0.1v0.6h4.4c0.1,0,0.1,0.1,0.1,0.2v0.4h4v-0.7c0-0.1,0.1-0.1,0.1-0.1h5.4
		c0.1,0,0.1,0.1,0.1,0.1v0.8c0.2,0.2,0.5,0.5,0.4,0.8c-0.3,0.6-0.8,0.4-0.8,1c0,0.6-0.2,0.9-1.4,0.9c-1.2,0-2.6,0.4-2.7,1.1
		c0,0,0,0.1,0,0.1h3.2v1.4c0,0,0,0,0,0h0.2c0,0,0.1,0.1,0.1,0.1v1.8H47c0,0,0,0.1,0,0.1c0.2,0.7,0.6,1.3,0,1.5
		c-0.6,0.2-1.4-0.2-1.7,0.3c-0.3,0.5-0.7,0.7-1.3,0.7c-0.6,0,0,1.3-0.8,1.4s-1.6-0.4-1.9,0.3c-0.3,0.7-0.5,1-1.4,0.9
		c-0.8,0-1.6-0.3-1.7,0.5c-0.1,0.8-0.2,1.1-1.4,1.1c-1.2,0-2.4,0-2.7-0.5c-0.4-0.5-3.8,0-4.3-0.2c-0.5-0.3-0.6-1.7-0.5-2.5
		c0.1-0.5-0.1-1.7-0.3-2.6h-0.4v-0.8h-0.8c0,0-0.1-0.1-0.1-0.2v-0.1h-0.7v-1.8h-0.6c0,0-0.1-0.1-0.1-0.2v-2c0,0-0.1-0.1-0.1-0.2
		l0-0.4c-1.4-0.1-1.8,0.1-2.2-0.5c-0.4-0.6-0.3-2-1.8-1.6c-0.8,0.2-0.6,0-0.2-0.2h-0.9V18h-1.3V16.5z"/>
	<g>
		<path id="path21" class="st3" d="M28.1,19.6l0.5,4.3l-1.6,1.8c0,0-3.7-0.7-4.2-0.9c-0.5-0.2-1.3-2.7-2.1-3.1
			c-0.8-0.4-2.2,1.9-2.2,1.9s1,1.8,0.2,3.6c-0.7,1.8,0.1,1.4,0.1,1.4s1.3,1.1,1.7,0.9c0.3-0.2-3.6,0.7-3.6,0.7l-1.3-1.5l1.2-0.7
			c0,0-1.6-2.2-1.6-4.9c0-2.7,2.2-2.9,2.4-3.7c0.3-0.7,1.4-1.1,3.3-0.7c1.9,0.5,2.2,2.7,2.2,2.7s1.4,1.6,2.1,1.7
			c0.7,0,1.2-0.9,1.2-0.9l-1.6-4L28.1,19.6z"/>
		<g id="g707">
			<g id="g665">
				<path id="path663" class="st4" d="M21.2,29.3c-1.1,1-1.3,0.2-2.5-0.2c-0.8-0.2-1.4-0.6-1.8-0.9c-0.8-0.6-0.9-1.3-0.9-1.8
					c0-0.9,0.2-1.4,0.4-1.9c0.2-0.7,0.5-1.5,0.5-3.7c0-1,0.3-1.7,0.8-2.2c0.4-0.5,1.1-0.7,1.8-0.8c0.8,0,1.6,0.2,2.3,0.6
					c0.8,0.5,1.3,1.1,1.3,1.7c0.1,0.9,0.9,1.9,1.8,2.1c0.7,0.2,1-0.1,1.1-0.2c0.2-0.2,0.5-0.5,0.7-0.8c1.1-1.2,2.3-2.6,4.5-2.5
					l0,1.1c-1.7-0.1-2.6,1-3.6,2.1c-0.2,0.3-0.5,0.6-0.8,0.9c-0.3,0.3-0.7,0.5-1.1,0.6c-0.4,0.1-0.8,0-1.2-0.1
					c-1.3-0.4-2.4-1.8-2.5-3.1c0-0.3-0.3-0.6-0.8-0.9c-0.5-0.3-1.2-0.5-1.7-0.5c-1,0-1.5,0.7-1.5,1.9c-0.1,2.4-0.3,3.3-0.6,4
					c-0.2,0.5-0.3,0.9-0.3,1.6c0,0.8,1.2,1.3,1.9,1.5c1.1,0.4,1.7,0.6,1.7,0.6l0.9,0.2l0.9,0.3L21.2,29.3L21.2,29.3z"/>
			</g>
			<g id="g669">
				<path id="path667" class="st5" d="M14.8,28.6c1.1-0.4,1.1-0.4,1.2-0.8c0.1-0.3-0.1-0.7-0.4-1.3c-0.3-0.6-0.6-1.3-0.8-2.1
					c-0.2-1,0-2,0.4-3.1c0.3-0.8,0.8-1.4,1.3-1.9c0.5-0.4,1.1-0.6,1.7-0.7c1.3-0.1,2.6,0.8,3.5,1.6c0.9,0.8,1.8,2,2.3,3
					c0.4,0.7,0.8,0.9,1.2,1c0.5,0.1,1.1,0,1.8-0.1c0.9-0.1,1.8-0.3,2.8-0.1c0.8,0.2,1.4,0,1.9-0.6c0.4-0.5,0.5-1,0.5-1l0,0l1.1,0.2
					c0,0-0.2,0.8-0.7,1.4c-0.3,0.4-0.7,0.7-1.1,0.9c-0.5,0.2-1.2,0.3-1.8,0.1c-0.8-0.2-1.6,0-2.4,0.1c-0.8,0.1-1.5,0.3-2.2,0.1
					c-0.8-0.2-1.5-0.7-1.9-1.5c-0.9-1.7-3.1-4.1-4.8-4c-0.8,0-1.5,0.7-2,1.9c-0.8,2-0.2,3.3,0.3,4.4c0.4,0.7,0.7,1.4,0.4,2.2
					c-0.3,0.7-0.3,0.7-1.7,1.3L14.8,28.6z"/>
			</g>
			<g id="g673">
				<path id="path671" class="st4" d="M26.1,22.6c-0.2-0.6-0.4-1.3-0.5-1.5c-0.1,0-0.2-0.1-0.3-0.4c0-0.4,0.2-1,0.5-1.5
					c0.3-0.5,0.9-1.1,1.7-1.4c0.4-0.1,0.6-0.3,0.7-0.5c0.1-0.3-0.1-0.7-0.2-0.8l0.3-0.2l0.3-0.2c0,0,0.5,0.7,0.3,1.4
					c-0.1,0.4-0.5,0.8-1.1,1c-0.7,0.2-1.1,0.8-1.4,1.2c-0.3,0.4-0.4,0.8-0.4,1c0.2,0.1,0.3,0.4,0.5,1c0.1,0.4,0.2,0.8,0.2,0.9
					L26.1,22.6L26.1,22.6z"/>
			</g>
			<g id="g677">
				<path id="path675" class="st5" d="M33.2,25.5c-1.1,0-2.8-0.5-2.9-0.5l0.2-0.6c0,0,2,0.6,2.9,0.5c0.3,0,0.5-0.3,0.7-0.7
					c0.1-0.2,0.2-0.4,0.4-0.5c0.2-0.2,0.4-0.3,0.7-0.2c0-0.1,0.1-0.4-0.1-1.3c-0.1-0.6-0.2-1.2-0.2-1.2l0.6-0.2c0,0,0.2,0.6,0.3,1.3
					c0.2,1.3,0,1.7-0.1,1.8c-0.1,0.1-0.3,0.2-0.5,0.2c-0.1,0-0.2,0.1-0.5,0.5c-0.2,0.4-0.6,0.9-1.2,1C33.4,25.5,33.3,25.5,33.2,25.5
					L33.2,25.5z"/>
			</g>
			<g id="g681">
				<path id="path679" class="st4" d="M28.5,22.8c-0.9-0.4-1.4-1.1-1.4-1.1l0.6-0.3c0,0,0.4,0.6,1.1,0.9c0.1,0,0.4,0.1,1.4-0.4
					c0.5-0.3,1-0.6,1-0.6l0,0l0,0l0.4,0.5c0,0-0.5,0.3-1.1,0.6c-0.6,0.3-1.1,0.5-1.5,0.5C28.7,22.9,28.6,22.8,28.5,22.8z"/>
			</g>
			<g id="g685">
				<path id="path683" class="st4" d="M27.4,17.9c0,0,1.1-1.2,3.9-1c0.7,0,1,0,1.1-0.1c0-0.1-0.3-0.4-0.5-0.6l0.2-0.3l-0.2,0.3
					l0.4-0.5c0,0,0.2,0.2,0.4,0.4c0.3,0.3,0.5,0.7,0.4,1c-0.2,0.5-1,0.6-1.7,0.5c-1.3-0.1-2.1,0.2-2.6,0.4c-0.5,0.2-0.7,0.4-0.7,0.4
					L27.4,17.9z"/>
			</g>
			<g id="g689">
				<path id="path687" class="st5" d="M37.1,27.6c0-0.1,0.1-0.3,0-0.4c0-0.1-0.2-0.2-1-0.2c-0.1,0-0.2,0-0.4,0c-1,0-1.6-0.4-2-0.8
					c-0.5-0.4-0.6-0.9-0.6-1l0.6-0.2c0,0.1,0.5,1.5,2.3,1.3c0.8-0.1,1.4,0.1,1.7,0.4c0.3,0.5,0,1.1,0,1.1L37.1,27.6z"/>
			</g>
			<g id="g693">
				<path id="path691" class="st4" d="M22.8,20.7c0,0,0.2-0.7,0.3-1.6c0.1-1,0-1.8-0.2-2.1c-0.1-0.1-0.2-0.2-0.4-0.2
					c-0.6,0-1.1,0.2-1.5,0.8c-0.3,0.4-0.5,0.9-0.5,0.9l-0.6-0.2c0,0,0.2-0.6,0.6-1.1c0.5-0.7,1.3-1.1,2.1-1.1c0.4,0,0.7,0.2,0.9,0.5
					c0.4,0.5,0.5,1.4,0.3,2.6c-0.1,0.9-0.3,1.6-0.3,1.6L22.8,20.7z"/>
			</g>
			<g id="g697">
				<path id="path695" class="st6" d="M37.3,30c-0.2,0-0.5,0-0.8,0c-1.8-0.3-3.2-0.9-4.3-1.4c-0.6-0.3-1.2-0.5-1.7-0.7l0.2-0.6
					c0.5,0.2,1.1,0.4,1.7,0.7c1.2,0.5,2.5,1.1,4.1,1.4c0.8,0.1,1.5,0,1.9-0.3c0.5-0.3,0.5-0.8,0.5-0.8l0,0l0.7,0.1
					c0,0-0.1,0.7-0.8,1.3C38.5,29.8,37.9,30,37.3,30L37.3,30z"/>
			</g>
			<g id="g701">
				<path id="path699" class="st6" d="M17.7,30.3c-0.6-0.2-1.1-0.4-1.5-0.6c-0.2-0.1-0.9-0.5-0.9-1.2c0-0.3,0.1-0.7,0.7-0.9
					c0.3-0.1,0.6-0.2,1-0.3c1-0.2,1.7-0.5,1.8-1.1c0-0.6-0.1-1.1-0.2-1.6c-0.1-0.6-0.2-1.1-0.1-1.6c0.1-0.6,0.5-1.2,1.2-1.7
					c0.5-0.4,0.9-0.5,1.4-0.4c0.7,0.2,1,0.8,1.3,1.5c0.3,0.7,0.6,1.3,1.1,1.6c0.6,0.3,1.2,0.3,1.8,0.4c0.9,0.1,1.8,0.1,2.8,1.1
					c0.6,0.5,1.6,1.2,3.4,1.5c0.1,0,0.1,0,0.2,0c0.7,0.2,0.9,0,0.9,0c0.1-0.1,0.1-0.4,0.1-0.5v0l1.1-0.2c0,0.1,0.2,1-0.4,1.5
					c-0.4,0.4-1.1,0.5-2,0.3c0,0,0,0-0.1,0c-2.1-0.3-3.3-1.1-4-1.7c-0.7-0.7-1.4-0.7-2.2-0.8c-0.6,0-1.3-0.1-2.1-0.5
					c-0.9-0.4-1.3-1.4-1.7-2.1c-0.1-0.3-0.2-0.5-0.4-0.7C20.6,22,20.6,22,20.6,22c0,0-0.2,0-0.4,0.2c-0.9,0.7-0.8,1.2-0.6,2.2
					c0.1,0.5,0.3,1.1,0.2,1.9c0,0.7-0.4,1.2-1,1.6c-0.5,0.3-1.1,0.4-1.6,0.5c-0.2,0.1-0.5,0.1-0.7,0.2c0.2,0.1,0.7,0.4,1.7,0.7
					C19.1,29.5,18.7,30.6,17.7,30.3z M31.1,28.1L31.1,28.1L31.1,28.1z"/>
			</g>
			<g id="g705">
				<path id="path703" class="st6" d="M33.8,31.2c-0.3,0-0.9,0-1.4-0.1C31,31,30.2,30.6,29.9,30c-0.6-1.3-0.5-2.7-0.5-2.7l0.7,0
					c0,0-0.1,1.3,0.5,2.4c0.2,0.4,0.9,0.7,2,0.8c0.9,0.1,1.7,0.1,1.8,0.1l0,0.7C34.2,31.2,34.1,31.2,33.8,31.2L33.8,31.2z"/>
			</g>
		</g>
	</g>
	<path id="path711" class="st7" d="M42.2,24.3c-0.2-0.1,0.1,0.8,1,1c0.9,0.1,2.2,0.2,2.7,0.6c0.4,0.4,4.6,0.1,5.4,0
		c0.8-0.1,0.8-0.6,1.5-1.2c0.8-0.6,0.2-1.4,0-2c-0.2-0.6-1.7-0.2-2-0.6c-0.3-0.4,0.2-0.6-3.3-0.7c-3.5-0.1-3.3,0.2-3.5,0.7
		c-0.2,0.6-0.5,0.4-1.3,0.6C41.8,22.7,42.2,24.3,42.2,24.3L42.2,24.3z"/>
	<path id="path711_00000147179859302791178370000012222850217331444919_" class="st7" d="M44.5,20.8c-0.2-0.1,0.1,0.8,1,1
		c0.9,0.1,2.2,0.2,2.7,0.6c0.4,0.4,4.6,0.1,5.4,0c0.8-0.1,0.8-0.6,1.5-1.2c0.8-0.6,0.2-1.4,0-2c-0.2-0.6-1.7-0.2-2-0.6
		c-0.3-0.4,0.2-0.6-3.3-0.7c-3.5-0.1-3.3,0.2-3.5,0.7C46,19.2,45.8,19,45,19.2C44.2,19.3,44.5,20.8,44.5,20.8L44.5,20.8z"/>
	<path class="st7" d="M15.3,14.9c0,0,0-1.2,1.7-1.1c1.7,0.2,1.2-0.4,2.2-0.6c1-0.1,4.9-0.5,5.8,0.1c1,0.6,1.4,0.4,2.6,0.2
		c1.2-0.2,4.9-0.4,5.7,0.3c0.8,0.7,1.3,0.2,2.4,0.6c1.1,0.4,0.3,0.9,1.4,1c1.1,0.1,1,0,2.3,0.4c0.2,0.1,0.4,0.1,0.6,0.2
		c0.8-0.1,1,0,1.2-0.6c0.2-0.6,0-0.8,3.5-0.7c3.5,0.1,3,0.3,3.3,0.7c0.3,0.4,1.8,0,2,0.6c0.2,0.6,0.8,1.4,0,2
		c-0.8,0.6-0.7,1.2-1.5,1.2c-0.8,0.1-4.8,0.3-5.4,0v0.8c0,0.1-0.1,0.1-0.1,0.1h-5.4c-0.1,0-0.1-0.1-0.1-0.1v-0.7h-4.1
		c-0.1,0-0.1-0.1-0.1-0.1v-1.3h-3.7c-0.1,0-0.1-0.1-0.1-0.1v-0.6H25c-0.1,0-0.1-0.1-0.1-0.2v-0.4h-4v0.7c0,0.1-0.1,0.1-0.1,0.1h-5.4
		c-0.1,0-0.1-0.1-0.1-0.1v-0.6L15.1,17c0,0-0.3,0.3-0.4-0.6C14.7,15.4,15.3,14.9,15.3,14.9z"/>
</g>
</svg>
