<?xml version="1.0" encoding="utf-8"?>
<!-- Generator: Adobe Illustrator 26.3.1, SVG Export Plug-In . SVG Version: 6.00 Build 0)  -->
<svg version="1.1" id="Capa_1" xmlns="http://www.w3.org/2000/svg" xmlns:xlink="http://www.w3.org/1999/xlink" x="0px" y="0px"
	 viewBox="0 0 300 300" style="enable-background:new 0 0 300 300;" xml:space="preserve">
<style type="text/css">
	.st0{fill-rule:evenodd;clip-rule:evenodd;fill:#002F6C;}
	.st1{fill:#002F6C;}
	.st2{fill-rule:evenodd;clip-rule:evenodd;fill:#3F67AD;}
	.st3{fill-rule:evenodd;clip-rule:evenodd;fill:#661D32;}
	.st4{fill-rule:evenodd;clip-rule:evenodd;fill:#3CAF37;}
	.st5{fill:#23751C;}
	.st6{fill-rule:evenodd;clip-rule:evenodd;}
	.st7{fill-rule:evenodd;clip-rule:evenodd;fill:#E63164;}
	.st8{fill-rule:evenodd;clip-rule:evenodd;fill:#23751C;}
	.st9{fill-rule:evenodd;clip-rule:evenodd;fill:#FFFFFF;}
	.st10{fill:#3F67AD;}
</style>
<path class="st0" d="M46,231.1c-3.5,1.4-5.7,4.8-5.7,8.5v27H13v-27.2c0-5.1,4.1-9.2,9.2-9.2H46V231.1z"/>
<path class="st0" d="M42.4,235.2c-1.6,3-1.1,3.5-1,12.7c0,1.6,0.1,18.7,0,19.1c-0.1,0.2-0.2,0.4-0.3,0.5c-0.6,0.4,1.8,0.3-28,0.3
	c-0.6,0-1-0.4-1.1-1c0-0.2,0-27.5,0-28.2c0.3-3.9,2.8-7.3,6.4-8.7c2.6-1,3-0.7,16.3-0.6c12.4,0.2,11.5,0.1,11.8,0.3
	c0.2,0.1,0.4,0.4,0.4,0.6c0,1,0,0.8,0,1c0,0.2-0.2,0.4-0.4,0.5l0,0C44.7,232.5,43.3,233.7,42.4,235.2z M34,231v0.2l-11.8,0.1
	c-3.8,0-7.1,2.8-7.9,6.5c-0.2,1.1-0.2-1.2-0.2,27.7h25c0-26.5,0-27.6,1-29.7c0.9-2,2.5-3.7,4.4-4.8L34,231z"/>
<path class="st0" d="M191.7,93.2l0.4,0.3c0.2,1.1,0.1-0.1-0.4,3.7c-0.4,2.5-0.6,6.9-0.7,7.2c-0.5,8.9,0.8,18.5,8.9,22.3
	c2.2,1,2.8,0.7,3.3,1.3c0.4,0.6,0.2,0.2,0.3,3.9c0,4.9,0.4,13.6,0.3,14c0,0.4-0.4,0.7-0.8,0.7c-1.1,0.1-2.2,0.3-3.3,0.6l-0.5-0.1
	l-0.3-0.4v0l0.1-0.5l0.5-0.3l0,0c0.9-0.2,1.7-0.5,2.7-0.7c0-0.1-1-8.3-1-15.5c-4.5-1.2-8-4.1-10.3-9.1c-1.2-2.7-1.9-5.6-2.1-8.5
	c-0.4-3.8-0.3-7.6,0.3-11.4c0.4-2.3,0.9-4.6,1.6-6.9l0.3-0.4L191.7,93.2L191.7,93.2z"/>
<path class="st0" d="M228.7,98.8c3.1,0.9,5.3,3.6,5.4,6.8c0,0.3,0,0.7,0,1c-0.1,1.1-0.5,2.2-1.1,3.1c-2.2,3.2-5.3,4.3-9.1,4.9
	c-1.2,4.1-2.6,8.1-4.4,11.9c0.1,5.6,0,9.3,0.4,16.3c1,0.1,2,0.3,3,0.5c1.2,0.2,0.9,0.1,1.5,0.5l0.1,0.5c0,0-0.3,0.4-0.3,0.5
	c-0.4,0.2-0.8,0.2-1.1,0c-4.1-0.6-4-0.2-4.6-0.6l0,0c-0.3-0.3-0.3-0.1-0.9-6.6c-0.4-6.3-0.3-7.3-0.4-10.9c-0.1-0.4,0-0.9,0.2-1.3
	c1.8-3.9,3.3-8,4.4-12.1c0.3-1.3,1.1-0.9,3.3-1.3c2-0.3,3.9-1.3,5.3-2.7c2-2.2,1.8-5.5-0.4-7.5c-0.2-0.1-0.3-0.3-0.5-0.4
	c-0.9-0.7-2-1.2-3.1-1.4c-0.9-0.2-1.9-0.3-2.9-0.4l-0.5-0.2l-0.2-0.5v0l0.2-0.5l0.5-0.2l0,0C225.3,98.2,227,98.4,228.7,98.8z
	 M217.5,125.5L217.5,125.5L217.5,125.5L217.5,125.5L217.5,125.5z M217.6,125.4C217.5,125.5,217.6,125.4,217.6,125.4L217.6,125.4z"/>
<path class="st0" d="M198.4,97.9l0.4,0.3l0.1,0.6c0,3.8-1,4.3-0.8,11.6c3.2,0,2.5-0.2,3.4,0.1l0.3,0.4v0l-0.2,0.5l-0.5,0.3l0,0
	c-1.3,0.4-2.6,0.6-3.9,0.8c-0.3,0-0.6,0-0.9-0.2c-0.2-0.1-0.3-0.3-0.4-0.4c-0.4-1.3-0.3-8,0.6-11.2c0-0.1,0.5-1.3,0.5-1.3
	c0-0.1,0.5-1,0.5-1l0,0L198,98L198.4,97.9L198.4,97.9z"/>
<path class="st0" d="M211.5,112.4c0.3,0.5,0.4,0.4,0.6,1.9c0.1,1.5-0.3,3.1-1.3,4.3c-0.7,0.9-1.6,1.6-2.7,1.8
	c-1.8,0.4-3.7-0.2-4.9-1.7c-0.3-0.4-0.5-0.9-0.7-1.3c0-0.7-0.1-0.4,0.2-1l0,0c1.6,0.4,0.5,0.1,2.1,1c0.6,0.4,1.2,0.6,1.8,0.8
	c1.1,0.1,2.1-0.5,2.6-1.5c0.6-1.1,1-2.3,1.1-3.5c0-0.2,0-0.1,0.2-0.7l0.4-0.3l0,0L211.5,112.4z"/>
<path class="st0" d="M211,92.5c0.6,0.4,1.1,0.9,1.5,1.4c0.3,0.3,0.5,0.7,0.5,1.1l-0.2,0.5l0,0l-0.5,0.1c-0.3-0.1-0.7-0.2-0.9-0.4
	c-0.6-0.3-1.2-0.6-1.9-0.9c-1-0.5-2.2-0.6-3.2-0.2l0,0c-0.1,0.1-0.3,0.1-0.4,0.2l0,0c-0.1,0.1-0.2,0.1-0.3,0.2c0,0-0.7,0.3-0.8,0.4
	c-0.6,0.3,0.1,0.1-1.4,0.4c-0.2-0.9-0.3-1,0.1-1.9c0.3-0.5,0.7-1,1.2-1.2l0,0c0.2-0.1,0.5-0.3,0.7-0.4l0,0
	C207.3,91.2,209.3,91.4,211,92.5z"/>
<ellipse class="st1" cx="207.9" cy="101.8" rx="2.1" ry="2.8"/>
<path class="st2" d="M228,100c1.5-8.4,2.5-19.5-6.3-24.4c-3.5-1.9-7.4-2.4-11.1-3.6c-2.6-5.4-8.2-13.8-14-15.3
	c-6.9-1.7-14.1,1.1-18.1,7c-5,7.4-3.8,18,4.9,21.9c6.7,3,16.5,2.1,23.7,0.6c2.2-0.4,4.4,1.4,6.5,2.1c1.1,5.5,4.5,9.3,10,10.7
	C225.2,99.3,228,100,228,100z"/>
<path class="st2" d="M196.8,55.6c6.2,1.7,11.7,9.8,14.6,15.5c4.5,1.2,8.6,1.9,12.1,4.3c7.7,5.6,6.9,15.4,5.1,24.7
	c-0.1,0-1.5-0.3,0,0c0,0.3-0.3,0.5-0.5,0.6c-0.3,0,0.1,0.1-3.4-0.7c-2-0.3-3.9-1-5.7-2.1c-3.5-2.2-5.2-5.1-6.2-8.9
	c-1.7-0.6-3.4-1.8-4.8-1.8c-1.2-0.1-18.4,4.7-28-2.2c-7.8-6-6.8-17.4-1-23.8C183.5,56.1,190.3,53.9,196.8,55.6z M188.9,57.8
	c-10.5,2.7-14.6,14.2-10.7,21.5c3.4,7.3,14.4,7.7,22.4,6.9c6.2-0.7,6.2-1.2,8-1c1.9,0.3,3.3,1.4,5.2,2.1c1.2,0.4,0.4,1,1.9,4.3
	c0.5,1,1.1,2,1.8,2.8c2.7,3.2,6.1,3.8,9.8,4.7c0-0.8,1.9-9.9-0.8-16.3c-0.7-1.8-1.9-3.4-3.4-4.7c-3.4-2.9-8.3-3.5-12.6-4.8
	c-1.4-0.4-0.5-0.2-3.5-5.1c-2.4-3.7-6.4-9-10.7-10.3C194,57.2,191.4,57.1,188.9,57.8L188.9,57.8z"/>
<path class="st3" d="M109.5,35.6c13.9,5.7,24.4,17.6,28.3,32.2l0,0c4.3,14.2,1.8,29.5-6.8,41.6c-4.3,6.2-10.1,11.2-16.8,14.7
	c-3.3,1.7-6.8,3.1-10.4,4c-13.3,3.5-27.4,1.2-38.9-6.2C29.2,97.9,38.5,46.5,75.8,34.4C86.8,30.7,98.8,31.1,109.5,35.6z M83.7,36.3
	c-24.5,4.3-41,27.6-36.7,52.1s27.6,41,52.1,36.7c12.4-2.1,23.3-9.4,30.1-19.9c7.3-11,9.5-24.6,6.1-37.4l0,0
	C128.4,45.4,105.7,32.1,83.7,36.3z M137.8,67.8L137.8,67.8C137.6,67.1,137.6,67.1,137.8,67.8z"/>
<path class="st3" d="M89.5,62.4c0.3,2.5,1.3,15.2,1.4,15.7c0.1,1.3,0.3,3.8,0.3,3.8c2.9,0.2,10.3-0.2,14.9-0.2c1.3,0,1,0,1.6,0.2
	l0.2,0.5v0l-0.2,0.5c-0.8,0.4,0.1,0.1-3.7,0.5c-5.3,0.6-8.9,1-13.8,0.7c-0.5,0-0.9-0.2-1.2-0.6c-0.2-0.4-0.1-0.2-0.2-2.1
	c-0.6-11-1.6-15.1-1.4-23.5c0-0.5,0-0.3,0.2-0.9l0.5-0.2h0C89,57.1,88.7,56.6,89.5,62.4z"/>
<path class="st3" d="M57.5,80.6c0.5,0.1,1,0.2,1.4,0.3c0.3,0.1,0.1,0,0.8,0.3l0.3,0.4c-0.3,0.5-0.1,0.4-0.8,0.8
	c-0.5,0.2-1,0.4-1.6,0.5c-0.4,0.1-0.8,0.1-1.1,0.1c-3,0.1-2.5,0.4-3.4,0.1c-0.5-0.1-0.2,0-1.2-0.7c0.7-1,0.5-0.8,0.9-1.1
	c0.2-0.2,0.5-0.3,0.8-0.4C54.9,80.7,56.2,80.6,57.5,80.6z"/>
<path class="st3" d="M128.8,78.4c0.3,0,0.7,0,1,0.1c0.1,0,0.5,0.1,0.5,0.2c0.7,0.2,0.3,0,1.3,0.9c-0.8,0.9-0.6,0.7-1.3,1
	c-1,0.4-2.2,0.1-3.9,0.2c-0.3,0-0.6,0-0.8-0.2c-0.4-0.2-0.1,0-1.1-0.7c0.7-1,0.5-0.8,0.8-1c0.3-0.2,0.6-0.4,0.9-0.4
	C127.2,78.4,127.8,78.4,128.8,78.4z"/>
<path class="st3" d="M87.7,41c0.2,0.3,0.4,0.6,0.5,1c0.1,0.5,0.1,1,0.2,1.4c0.2,2.3,0.6,3.5-0.1,5.4l-0.4,0.3h0L87.5,49l-0.4-0.6
	c-0.2-0.6-0.4-1.2-0.6-1.8c-0.1-0.5-0.5-3.7-0.5-3.8c-0.1-0.4,0-0.8,0.1-1.1c0.3-0.7-0.1-0.1,0.8-1.3L87.7,41z"/>
<path class="st3" d="M92.1,120.7c-0.5-0.8-0.7-1.7-0.8-2.6c-0.4-2.4-0.3-1.8-0.1-2.5c0.2-0.6,0.1-0.3,0.8-1.2
	c0.5,0.3,0.9,0.7,1.2,1.1c0.2,0.3,0.2,0.3,0.3,1.2c0.3,2.3,0.5,2.4,0.2,3.6c-0.1,0.5,0,0.3-0.7,1.3C92,120.8,92.2,121,92.1,120.7z"
	/>
<g>
	<path class="st4" d="M206,202.4c0,0-0.1,8.8-0.3,12.8c9.8,1.7,19.5,4.1,29.3,6c2.8,0.5,5.6,2,8.4,1.6c15.1-2,30.4-2.1,45.6-2.7
		c2.3-0.1,4-2.1,3.9-4.3c0-0.2,0-0.4-0.1-0.6c-2.1-11-4.8-21.8-10.1-31.8c-10.3-19.6-30.3-34.5-52.3-38.1c-0.6-0.1-1.3,0.2-1.7,0.7
		c-4.6,6.1-11.4,12.1-19,13.5c-4.5,0.8-12,0.1-14.1-4.8c-0.8-2-0.9-4.3-0.4-6.4c0.2-1-0.4-1.9-1.4-2.1c-0.3,0-0.5,0-0.8,0
		c-12.4,3.4-24.1,8.4-34.6,16.1c-3.7,2.7-7.8,5.7-10.9,9.3c2.6,2.1,3.9,5.5,3.4,8.8c2.1,2.2,3.1,5.1,1.9,8c4.7,7.8-5,14.3-10.9,17.7
		c5,9.7,17,27.8,17.1,28.2c0.1,0.1,1.6,31.5,1.6,31.5c0,0,0,0,0.1,0c9-0.9,18.1,0.2,27.2,0c13.1-0.3,26.6-0.8,39.7-0.8
		c0.1,0,0.1,0,0.1-0.1c0-0.1,0-0.1-0.1-0.1c-9-2.4-21.6-6.4-28.7-12.2c-6.7,2.6-14.8,1.4-21.3-1.3c-4.7-1.9-8.3-7.1-1.1-8.7
		c-3.1-2.7-6.6-8.1-0.5-9.5c-3.5-2.9-8.7-10.6-1-11.9c-0.9-5.2-2.2-10.5-3.6-15.6c-10.1-0.9-9.4-7.4-5.7-9
		c5.4-2.3,13.3-0.9,19.1-0.9c-0.5-3-1-5.9-1.3-8.9c-0.1-1-0.4-2.6,0.3-3.4c1.5-1.9,4.8-2.2,6.9-2.8c6-1.7,12.6-4.6,19-4
		c2.7,0.3,5.2,2.3,2.8,4.8c-1.5,1.5-3.9,2-5.8,2.6c-2,0.6-3.9,1.4-5.9,2c-3.1,0.9-6.2,1.6-9.3,2.3c0.1,2.3,0.4,4.6,0.8,6.9
		c4.9-0.2,9.8,0,14.6,0.6c2,0.1,4.1,0.5,6,1.1c2.1,0.9,2.9,3.4,0.6,4.6C211.5,202.5,208.5,202.4,206,202.4z"/>
	<path class="st5" d="M206,202.5l-0.3,12.8c5.4,0.6,12.2,2.4,18.1,3.5c4.5,1,9.1,1.7,13.6,2.8c2.2,0.7,4.4,1.3,6.7,0.8
		c0,0,2.3-0.3,2.3-0.3c10.7-1.3,21.5-1.6,32.3-2c0,0,9.2-0.4,9.2-0.4c1.5,0,2.9-0.4,3.8-1.6c0.9-1.3,0.7-2.7,0.4-4.2
		c-1.2-6-2.6-12-4.6-17.9c-7.4-23.4-27-42.7-50.8-49c-2.1-0.6-4.5-1.1-6.7-1.5c-0.8,0-1.1,0.5-1.6,1.1c-1.9,2.4-4.1,4.7-6.4,6.7
		c-5.8,5.1-14,8.3-21.6,5.7c-5.4-1.7-6.5-6.6-5.5-11.5c-0.1-0.7-0.7-1.2-1.4-1.2c-0.5,0-1.6,0.4-2.2,0.5
		c-16.2,4.6-31.9,12.5-43.6,24.8c0,0,0-0.2,0-0.2c2.6,2.1,4,5.6,3.5,8.9c0,0,0-0.2,0-0.2c2.1,2.1,3.2,5.4,2,8.2
		c3.7,5.3-1.2,11.3-6,14.6c-1.6,1.2-3.2,2.2-4.9,3.2l0.1-0.3c5.2,9.7,11.2,18.8,17.1,28.1c0.2,0.3,0.1,0.8,0.2,1.1c0,0,0.1,1,0.1,1
		c0.2,3.8,0.6,10.6,0.8,14.4c0.2,3.7,0.6,10.7,0.8,14.4c0,0,0,0.5,0,0.5c0,0,0,0-0.1,0.1l0,0c0,0-0.1-0.1-0.2-0.1
		c8.3-0.9,17.3,0,25.8,0c0,0,8.2-0.2,8.2-0.2l32.9-0.7c0,0,0.1,0,0.1,0c-0.2,0-0.4,0.1-0.4,0.3c0,0.2,0.1,0.4,0.3,0.4
		c0,0-0.1,0-0.1,0c-7.6-2-15.1-4.4-22.2-8c-2.3-1.2-4.6-2.6-6.7-4.2l0.5,0.1c-2.8,1.1-5.9,1.5-8.8,1.4c-3,0-6-0.6-8.8-1.4
		c-2.9-0.9-5.9-1.8-8-4.1c-2.6-2.7-1.6-5.6,1.9-6.6c0,0,1.1-0.3,1.1-0.3l-0.2,0.8c-0.8-0.7-1.6-1.5-2.2-2.4c-2.6-3.2-2.8-6.9,1.9-8
		c0,0-0.2,0.9-0.2,0.9c-4-3.3-8.8-11.4-0.8-12.8c0,0-0.4,0.6-0.4,0.6c-0.9-5.2-2.2-10.4-3.6-15.6c0,0,0.4,0.4,0.4,0.4
		c-2.9-0.4-6.2-1-8-3.7c-1.4-2.1-0.3-5.1,1.9-6.1c6.2-2.5,13-1,19.5-1c0,0-0.4,0.5-0.4,0.5s-1.2-8.6-1.2-8.6
		c-0.9-4.3,0.9-5.3,4.7-6.3c7-1.5,13.8-5.1,21.1-4.7c3.4-0.1,6.9,2.8,3.3,5.7c-1.2,1-2.6,1.4-4,1.8c-2.8,0.7-5.4,1.9-8.2,2.7
		c-2.8,0.8-5.6,1.4-8.4,2c0,0,0.2-0.2,0.2-0.2c0.1,2.3,0.4,4.6,0.7,6.9c0,0-0.2-0.2-0.2-0.2c4.9-0.2,9.8,0,14.6,0.7
		c2,0.1,4.1,0.5,6,1.1c1.1,0.5,2,1.5,2,2.7C214.9,202.7,208.6,202.5,206,202.5L206,202.5z M206,202.4c2.5-0.1,8.7,0.2,9.1-3.1
		c0-1.1-0.9-2.1-1.9-2.5c-1.9-0.6-4-1-6-1.1c-4.8-0.6-9.7-0.8-14.6-0.5c0,0-0.2,0-0.2,0c-0.4-2.4-0.7-4.8-0.8-7.3
		c2.9-0.7,5.8-1.3,8.6-2.1c2.8-0.8,5.4-2,8.2-2.7c1.4-0.4,2.7-0.9,3.8-1.7c2-1.6,1.5-3.6-0.9-4.3c-7.9-1.6-15.3,2.9-23,4.5
		c-1.6,0.5-3.5,0.9-4.2,2.5c-0.3,1,0,2,0.1,3.1c0,0,1.3,8.5,1.3,8.5l0.1,0.5c0,0-0.5,0-0.5,0c-4.5,0.2-24.2-2.8-20.6,5.8
		c1.6,2.4,4.9,2.9,7.6,3.2c1.5,5.3,2.8,10.6,3.7,16c0,0,0.1,0.5,0.1,0.5c-1.3,0.2-2.9,0.6-3.6,1.7c-1.9,3.3,2.6,8.1,5.1,10.1
		c0,0-0.9,0.2-0.9,0.2c-6,1.3-1.4,7,1.4,9.2c0,0-0.9,0.2-0.9,0.2c-3,0.7-5.1,2.4-2.5,5.3c1.9,2.1,4.8,3,7.5,3.8
		c5.6,1.6,11.8,2,17.3-0.1c2.1,1.7,4.4,3.1,6.7,4.3c6.9,3.6,14.4,5.9,22,8c0,0-0.1,0-0.1,0c0.3,0,0.5,0.3,0.5,0.6
		c0,0.3-0.3,0.5-0.6,0.5c0,0,0.1,0,0.1,0c0,0-32.9,0.7-32.9,0.7s-8.2,0.1-8.2,0.1c-8.6,0-17.3-0.9-25.9-0.1c-0.1,0-0.2-0.1-0.3-0.1
		c0,0,0-0.1,0-0.1c-0.1-0.1-0.1-0.3-0.1-0.5c0,0,0-0.5,0-0.5s-0.1-2.1-0.1-2.1c-0.1-2.5-0.5-9.7-0.6-12.3
		c-0.2-4.3-0.5-11.1-0.8-15.4c0,0,0-0.5,0-0.5c0-0.1,0-0.3-0.1-0.4c-5.8-9.2-11.9-18.5-17-28.1c0,0-0.1-0.2-0.1-0.2s0.2-0.1,0.2-0.1
		c6-3.5,15.3-9.7,10.8-17.5c1.2-2.7,0.1-5.9-1.9-7.9c0.5-3.2-0.8-6.6-3.3-8.7c0,0-0.1-0.1-0.1-0.1s0.1-0.1,0.1-0.1
		c12.1-12.5,28.2-20.7,44.9-25.3c0.3-0.1,0.8-0.3,1.2-0.2c0.9,0,1.7,0.7,1.9,1.6c0.1,1.5-0.5,2.9-0.2,4.6c0.3,5,5.5,7.1,9.9,7.3
		c9.4,0.6,17.4-6.1,22.9-13.1c0.4-0.6,1.2-1.4,2.1-1.4c2.2,0.3,4.7,0.9,6.9,1.4c18,4.8,33.9,16.8,43.7,32.6
		c6.6,10.6,9.9,22.7,12.2,34.9c0.4,1.6,0.6,3.4-0.5,4.7c-0.9,1.4-2.7,2-4.3,1.9c0,0-9.2,0.3-9.2,0.3c-10.8,0.4-21.6,0.7-32.3,1.9
		c0,0-2.3,0.3-2.3,0.3c-2.3,0.5-4.7-0.2-6.9-0.9c-4.4-1.2-9.1-1.9-13.5-2.9c-6.1-1.3-12.1-2.7-18.2-3.8
		C205.6,215.3,205.9,202.5,206,202.4L206,202.4z"/>
</g>
<path class="st0" d="M205.7,216.8c2.8,0,5.6,0.2,8.4,0.7c10.6,1.7,27.5,6,30.8,6.7c0-1-0.1-0.6,0.2-1.3l0.5-0.2h0l0.5,0.2
	c0.4,0.7,0.2,0.3,0.3,1.3c0.1,1,0.2,1.5-0.5,1.8c-0.3,0.1-0.1,0.1-2-0.2c-11.6-1.6-19.8-4.5-32.1-6.3c-1.3-0.2-4.8-0.9-7.2-1.2
	c-0.2,0-0.1,0-0.6-0.3l-0.2-0.5v0l0.2-0.5C204.7,216.7,204.3,216.8,205.7,216.8z"/>
<path class="st6" d="M246.3,223.9c0.4,0,3.3,0.7,4,0.9c0.8,0.2,1.5,0.4,2.2,0.8c0.5,0.2,0.9,0.5,1.3,0.8l0.1,0.5v0l-0.4,0.3
	l-0.6,0.1c-2.6,0-2.6-0.3-6.3-1.1c-0.6-0.1-1.2-0.3-1.7-0.7c-0.3-0.2-0.1,0-0.8-1c0.9-0.7,0.7-0.6,1.1-0.6
	C245.6,223.9,245.9,223.9,246.3,223.9z"/>
<path class="st0" d="M289.3,222.6c0.3,0.7,0.2,0.1,0.4,2.8c0.1,3,0,5.9-0.5,8.9c-1.2,7.4-4.7,14.2-10,19.6
	c-7.5,7.8-18.2,11.7-28.9,12.2c-11.2,0.5-20.2-2.5-30.5-6.9c-6.7-2.9-13.9-6-19.3-10.6c-2.6,0.9-5.3,1.5-8,1.8
	c-5.8,0.6-12.1-0.3-16.4-4.2h0l-0.2-0.5l0.2-0.5c0,0,0.5-0.2,0.5-0.2c0.6,0.2,0.5,0.1,0.7,0.3c0.6,0.4,1.1,0.8,1.8,1.2
	c6.3,3.3,14.2,2.3,20.9,0c2.4-0.9,0.3,0.5,10.8,6c5.5,2.8,15.8,7.4,23,9.4c28.5,7.8,52.6-7.8,54.5-32.9c0.3-5.7-0.3-4.9,0.2-6.2
	l0.5-0.2l0,0L289.3,222.6z"/>
<path class="st0" d="M175.4,224.6c0.5,0.3,1.7,0.9,2.1,1.1c0.4,0.2,0.3,0.2,0.7,0.4c1.7,1,3.5,1.6,5.5,1.9c1.8,0.2,3.6,0.2,5.4-0.2
	c1.2-0.3,0.5-0.2,1.4-0.2l0.4,0.3l0,0v0.5c-0.2,0.3-0.5,0.6-0.8,0.7c-1.1,0.6-2.3,1-3.5,1.2c-3.2,0.2-6.4-0.5-9.2-2.1
	c-0.8-0.4-1.6-1-2.2-1.7c-0.3-0.3-0.8-0.9-0.8-1l0,0l-0.2-0.5l0.1-0.5v0l0.4-0.2L175.4,224.6z"/>
<path class="st0" d="M176.7,236c4.3,0.7,4.8,1.6,10.4,1c1.2-0.1,2.3-0.3,3.5-0.5l0,0l0.6,0l0.4,0.4v0l0,0.5c-0.4,0.4-0.2,0.4-1.5,1
	c-1.3,0.6-2.7,1-4.1,1.1c-1.5,0.1-3.1,0.1-4.6-0.2c-1.9-0.1-3.7-0.8-5.1-2l0,0l-0.3-0.5l0-0.5v0l0.4-0.3L176.7,236L176.7,236z"/>
<path class="st7" d="M205.2,208.5L205.2,208.5l0.3,0.4c0,0.3-0.1,0.7-0.3,1c-2,2.9-4.8,5.1-8.1,6.2l0,0c-4.7,1.9-9.7,3.2-14.8,2.7
	c-1.7-0.3-3.4-0.8-4.9-1.7c-0.2-0.1-0.1,0-0.5-0.5v-0.5l0.4-0.3c0.6,0,0.5,0,0.6,0c1.5,0.4,3,0.7,4.6,0.8c4,0.3,7.8,0,13.8-2.5
	c2.5-1,4.9-2.4,6.9-4.1c1.6-1.6,0.7-1,1.5-1.5L205.2,208.5z"/>
<path class="st0" d="M104,190.9L104,190.9l0.4,0.4l0,0.5l0,0c-3.6,9.5-4.8,19.6-3.7,29.7c0.4,3.6,1.4,7.1,2.8,10.5
	c3.2,7.4,9,11.7,17.1,12.8c10.5,1.5,25-3.3,33.8-11.4c1-1,0.6-0.7,1.3-1l0.5,0.2l0,0l0.2,0.5l-0.2,0.5l0,0
	c-10.9,11.4-31.5,18.2-45.1,10.5c-15.9-9.1-16-37.2-8-52.9c0,0,0.4-0.4,0.4-0.4L104,190.9z"/>
<path class="st0" d="M147.1,196.3L147.1,196.3l0.2,0.5l-0.2,0.5l0,0c-0.9,1.1-1.9,2.2-3,3.1l0,0c-1.1,0.9-2.3,1.7-3.6,2.3l0,0
	c-0.4,0.2-0.1,0-0.8,0.4c-2.8,1.2-2.5,0.8-2.5,1.2c0.9,6.2,1.2,5.6,2.3,12.5c0.4,3,0.4,2.4,0.2,3.1l-0.4,0.3h0l-0.5-0.1l-0.3-0.5
	l0,0c-0.9-3.4-2.9-9-3.7-16.2l0,0c0-1.1,0.8-1.2,1.7-1.5c1-0.3,2-0.8,2.9-1.3l0,0c2.2-1.3,4.4-2.7,6.5-4.3c0.2-0.2,0.1-0.1,0.7-0.3
	L147.1,196.3z"/>
<path class="st0" d="M142.4,179L142.4,179l0.2,0.5l-0.1,0.6c-1,1.6-2.3,3-3.8,4.2c-1.8,1.4-3.7,2.5-5.8,3.5c-1,0.5-2.1,0.9-3.3,0.9
	c-0.4,0.1-0.8,0.1-1.2-0.1l-0.3-0.4c0,0,0.1-0.5,0.1-0.5l0.4-0.4c0,0,1.6-0.9,1.6-1c1.9-0.8,3.7-1.7,5.4-2.8
	c1.2-0.8,4.4-3.3,5.5-4.2c0.4-0.3,0.2-0.2,0.8-0.5L142.4,179z"/>
<path class="st0" d="M144.8,186.8L144.8,186.8l0.2,0.5l-0.1,0.6c-0.9,1.6-2.1,3-3.5,4.3c-1.7,1.5-3.6,2.7-5.6,3.6
	c-1.1,0.5-2.2,0.8-3.4,0.8c-0.4,0.1-0.8,0-1.2-0.2c0,0-0.3-0.4-0.3-0.4l0.1-0.5l0.4-0.4c0.4-0.2,1.7-0.8,2-1
	c1.9-0.7,3.6-1.6,5.2-2.8c0.7-0.5,4.1-3.4,5.1-4.4l0.5-0.2L144.8,186.8z"/>
<path class="st0" d="M140.5,170.5L140.5,170.5l0.2,0.5l-0.2,0.5c-0.6,0.4-7.1,8.1-17.8,10.8c-5.8,1.5-13.3,1-16.6-4
	c-0.3-0.5-0.6-1.1-0.8-1.7c0-0.1,0,0,0-0.6l0.3-0.4h0h0.5c0.5,0.4,0.4,0.3,0.4,0.4c0.1,0,1.3,3.1,7.1,4.4c8.9,1.8,18.8-4.3,25.8-10
	l0,0l0.5-0.2L140.5,170.5z"/>
<path class="st8" d="M115.8,181.8c-5.9-11-7.3-15.8-9.2-19c1.5-1.8,3-3.6,4.7-5.2c6.8,0.9,13.6,1.6,20.4,2.6
	c0.9,4.9,3.4,9.2,4.7,13.9c-3.1,3.2-7.3,4.9-11.5,6.2c-2.8,1-5.8,1.5-8.8,1.5"/>
<path class="st8" d="M111.4,156.4c7.2,0.9,12.8,1.5,19.1,2.4c1.5,0.2,1.5,0.2,1.9,0.5c0.4,0.5,0.3,0.5,0.6,1.9
	c1.2,4.5,3.1,7.9,4.3,12.1c0.2,0.6,0.2,0.8,0.1,1.2c-0.4,0.5-0.8,1-1.4,1.4c-1.3,1.1-2.7,2-4.2,2.7c-4.3,2-8.8,3.3-13.5,3.8
	c-0.8,0.1-1.6,0.1-2.4,0c-0.5,0-0.2,0.1-0.8-0.3c-0.1-0.2-3.8-6.3-6.5-12.2c-1-2.1-1.5-3.6-2.7-6c-0.2-0.3-0.3-0.6-0.5-0.9
	c-0.1-0.8,0.3-1,0.8-1.7c1.5-1.8,2.4-2.7,3.4-3.8C110.4,156.8,110.6,156.4,111.4,156.4z M111.7,158.9c-2,2.2-3.5,3.9-3.7,4.1
	c1,1.7,2.6,6.3,8.2,18.1c4.3,0,11.5-2.5,14.9-4.4l0,0c1.5-0.8,2.8-1.8,4-2.9c0-0.7-3-7.3-4.2-11.6v0c-0.1-0.4-0.1-0.5-0.2-0.9
	C130.7,161.1,111.7,158.8,111.7,158.9z"/>
<path class="st9" d="M131.2,175c-0.6-0.5-0.3-0.1-2-2.7c-0.1-0.1-0.5-0.8-0.7-1.3c-0.3-0.7-1.3-2.7-1.6-3.4c-1-2.3-1-2,0.1-3.5
	c0.4-0.5,0.7-1,0.7-1.1c0.5-0.6,1.1-1.2,1.8-1.7l0.5-0.2l0.5,0.1h0l0.2,0.4c-0.1,0.7,0,0.4-0.7,2.1c-0.4,0.7-0.8,1.4-1.3,2
	c1.5,3.6,1.7,3.2,3.3,8.2l0,0.6l-0.3,0.4h0L131.2,175z"/>
<path class="st7" d="M210.5,178.2l0.3,0.4c0,0.9-0.5,0.8-4.9,2c0,0.3-2.8,0.3-17.7,4.8c0,1,0.2,4.6,0.2,9.8c0,4.2,0.1,3.3-0.2,4.1
	l-0.5,0.3l0,0l-0.5-0.2l-0.3-0.5c0-0.5-0.9-5.9-1.1-12.5c-0.1-2-0.1-1.9,0.1-2.3c0.3-0.6,0.1-0.4,5.3-2c13.6-4,14.1-3.4,14.1-3.6
	c0.1,0,3.6-0.5,4.5-0.5L210.5,178.2z"/>
<path class="st7" d="M198.6,198.5c6.3,0.1,5.1,0.1,11.6,0.1l0.5,0.2l0.2,0.5v0l-0.2,0.5l-0.5,0.3c0,0.1-6.4,0.6-12,0.7
	c-19.6,0.1-20.5,1.2-27.2,0.5c-1.4-0.1-2.8-0.4-2.9-0.4l-0.5-0.3l-0.2-0.5v0l0.3-0.5c0.3-0.2,0.7-0.3,1.1-0.2
	C173.7,199.5,186.7,198.4,198.6,198.5z"/>
<path class="st7" d="M203.9,210.5c0.1-3.7,0.5-7.3,0.7-11c-6.6,0.1-13.2,0.3-19.9,0.4c-3.4-0.1-6.8,0.1-10.2,0.4
	c1.1,5.5,2.5,10.9,3.8,16.3c2.2,0.4,4.3,1.2,6.6,1.2c4.8-0.1,10.2-2.1,14.4-4.4c1.7-0.7,3.3-1.7,4.8-2.8"/>
<path class="st7" d="M205.6,199.1L205.6,199.1c0.1,0.4,0.1,0.4,0,1.9c-1,10.1-1.1,8.7-0.8,9.7c-0.2,0.5-0.2,0.5-0.4,0.7
	c-1.2,1-2.6,1.8-4,2.4c-1.8,1-3.6,2-5.5,2.8c-1.8,0.8-3.7,1.4-5.6,1.8c-3.1,0.9-6.4,0.8-9.4-0.2c-2.1-0.5-2-0.3-2.4-0.7
	c-0.2-0.3-0.1,0.5-2-7.6c-0.3-1.4-1.1-4.7-1.7-7.7c-0.3-1.6-0.5-1.9-0.1-2.5c0.4-0.5,0.7-0.5,1.3-0.5c2-0.2,3.7-0.3,5.7-0.3
	C206.5,198.4,205.1,198.1,205.6,199.1z M175.9,201.3c0.7,3.3,2.5,11,3.3,14.3c3.4,0.6,4,1.3,7.8,0.9c6-0.7,11.1-3.6,14-4.9
	c0.7-0.3,1.4-0.7,2.1-1.2c0-4.4,0.2-6.8,0.3-9.7C199.4,200.8,178.9,201.1,175.9,201.3z"/>
<path class="st0" d="M90.6,161.1c0.3,0.1,0.6,0.4,0.6,0.7c0.5,47.6,0.5,45.6,0,46.1l0,0c-0.2,0.2-0.5,0.3-0.7,0.3
	c-2.6,0-48.4,0.1-48.9,0c-0.3-0.1-0.5-0.3-0.6-0.5c-0.2-0.5-0.2,2.8-0.2-45.8c0-0.6,0.4-1,0.9-1.1C45.7,160.3,90.5,161.1,90.6,161.1
	z M43,163v43c25.2,0-37.9,0,46.3,0c0.1,0.1-0.1,1.8,0.4-43.4C63.2,163,64.1,163,43,163L43,163z"/>
<path class="st0" d="M93.7,252.5c0.4,0,0.8,0,1.2,0.1c2.7,1.4,5.4,3,7.8,4.7c2.2,1.5,2.7,1.6,2.6,2.6c-0.1,0.3-0.2,0.5-0.4,0.7
	c-0.3,0.2-0.4,0.2-1.1,0.3c-4.3,0.6-8.4-0.3-12.8-0.7c-8.9-0.9-14.5-2.5-21.8-3.6c-2.3-0.3-2.3-0.4-3.4-0.6l-0.5-0.3l-0.1-0.5
	c0,0,0.3-0.4,0.3-0.5l0.5-0.1l0,0c3.9-0.8,7.9-1.3,11.9-1.6C82,252.7,90.1,252.5,93.7,252.5z M93.3,254.8c-6.6,0-13.4,0.4-17,0.5
	c-3.5,0.1-3.2,0.1-1.9,0.3c2.3,0.4,7.1,1.1,10.1,1.5c0,0.1,13.4,1.7,16.2,1.7c-2.1-1.4-4.2-2.7-6.4-3.9
	C94,254.8,94.2,254.8,93.3,254.8L93.3,254.8z M93.6,254.6L93.6,254.6L93.6,254.6L93.6,254.6z"/>
<path class="st0" d="M85.6,239.7c2.5,0,5,0.1,7.4,0.4c1.4,0.1,1,0,1.6,0.4l0.2,0.5v0l-0.2,0.5l-0.5,0.2c-0.5,0-2.2,0.3-6,0.4
	c-2.3,0.1-1.4-0.2-9.6,0.1l0,0c-2.1,0.2-4.2,0-6.3-0.6l-0.5-0.3l-0.2-0.5v0l0.3-0.4C73.5,239.8,84,239.7,85.6,239.7z"/>
<path class="st0" d="M47.8,248.5c0.7,0,1.2,0.1,3.6,0.2c3.4,0.1,4.4-0.1,6.4-0.1c3.2,0.1,2.7,0.1,3.4,0.4l0.3,0.4v0l-0.2,0.5
	l-0.5,0.3c-3,0.7-6.1,1-9.2,0.8c-4.2-0.1-4.7-0.4-6.1-1c-0.2-0.1-0.1,0-0.6-0.4l-0.1-0.5c0,0,0.3-0.4,0.3-0.4l0.5-0.2
	C45.7,248.6,47.5,248.5,47.8,248.5z"/>
<path class="st0" d="M294.7,263.9l0.3,0.5v0l-0.3,0.5l-0.6,0.2l0,0l-6.6,0.5l-28.7,0.4l-15,0.2l-14.4,0.2l-18.3,0.2l-21.6,0.2
	l-48.2,0.5l-47.1,0.4l-20.1,0.2L57.8,268l-7.4,0l-8.1,0l-16.2,0l-19.9,0H5.7l-0.5-0.2L5,267.4v0l0.2-0.5l0.5-0.2l0,0l0.5,0l19.9-0.4
	l16.2-0.3l8-0.1l7.4-0.1l16.3-0.2l20.1-0.2l47.1-0.4l48.2-0.5l21.6-0.2l18.3-0.2l14.4-0.1l15-0.1l28.7-0.1l6.6-0.1l0,0L294.7,263.9z
	"/>
<path class="st9" d="M18.8,237.2c7.1,0.1,7.5,0.1,10.3,0.7c0.3,0,0.7,0.2,0.9,0.4l0.2,0.5v0l-0.3,0.4c-0.3,0.2-0.6,0.3-1,0.3
	c-1.9,0.2-3.8,0.3-5.7,0.1c-1.8,0-3.6,0-5.4-0.2c-1.6-0.4-1.5-0.4-2-0.7l-0.2-0.4v0l0.2-0.4l0.5-0.3C17.2,237.4,18,237.3,18.8,237.2
	z"/>
<path class="st9" d="M36.8,249.4c2.3,0.2,1.7,0,2.5,0.4l0.3,0.5v0l-0.2,0.5l-0.5,0.3l0,0c-5.6,0.8-4.4,0.6-14.9,0.9
	c-1.7,0.1-3.3,0-5-0.3l0,0l-0.5-0.2l-0.2-0.4v0l0.2-0.5l0.5-0.3c0.4-0.1,0.4-0.1,1.9-0.4c1-0.2,2.1-0.3,3.1-0.2
	C34.4,249.2,33.1,249.2,36.8,249.4z"/>
<path class="st9" d="M37.3,260.9L37.3,260.9c0.6,0.4,0.5,0.2,0.7,0.8l0,0c-1,0.8-0.6,0.6-1.4,0.8c-0.8,0.3-1.6,0.2-4.3,0.3l0,0
	c-0.2,0-0.4,0-0.7-0.1c-0.8-0.3-0.7-0.3-1.5-1.1c0.8-0.8,0.6-0.7,1.5-1.1c0.3-0.1,0.1-0.1,1-0.1C35.4,260.4,35.6,260.2,37.3,260.9z"
	/>
<path class="st0" d="M235.1,195c0.9,0.6,0.7,0.3,1.4,4.2c1.3,6.8,2,9.7,2.6,13.5c0.7,4.7,0.8,4.2,0.1,4.8h0l-0.5-0.1l-0.4-0.5
	c0-0.1,0,0-0.9-2.8c-1.6-5.4-1.3-5.3-3.3-15.2c-0.5-2.7-0.2-1.8-1.2-2.9c-0.2-0.2-0.6-0.6-0.8-0.7l0,0c-0.3-0.4-0.7-0.7-1.1-0.9
	l-0.4-0.4l0-0.5v0l0.4-0.3l0.6,0C232.8,193.5,234.1,194.1,235.1,195z"/>
<path class="st9" d="M122.9,164.1c3.1,0.4,1.9,0.2,3.6,0.6c1.1,0.4,0.6,0.1,1.4,0.6l0.2,0.4v0l-0.2,0.4l-0.5,0.3
	c-1,0.2-1.9,0.3-2.9,0.2c-1.5-0.2-7.2-0.9-8.7-1.3c-2.8-0.6-2.1-0.4-2.8-0.8l-0.2-0.5v0l0.2-0.4c0.4-0.2,0.8-0.3,1.2-0.3
	C117.2,163.1,117.9,163.4,122.9,164.1z"/>
<path class="st0" d="M160.3,205.6l0.4,0.2l0.2,0.5c0.5,4.1,0.4,0.9,0.5,14.2c0,2.9-0.1,5.7-0.4,8.5l-0.2,0.5l-0.5,0.2h0l-0.5-0.2
	c-0.3-0.6-0.2-0.2-0.5-3.4c-0.2-3.1-0.3-2.8-0.3-14.9c0-1.7,0.2-3.3,0.5-5l0.3-0.5L160.3,205.6L160.3,205.6z"/>
<circle class="st10" cx="66.8" cy="161.8" r="5.5"/>
<path class="st0" d="M67.4,155.5c3.5,0.1,6.2,3,6.1,6.5c0,1.1-0.4,2.2-1,3.2c-1.9,3.2-6,4.2-9.2,2.4c-0.9-0.5-1.6-1.2-2.2-2.1l0,0
	c-2-2.9-1.2-6.9,1.8-8.9c0.7-0.4,1.4-0.8,2.2-0.9C65.9,155.5,66.7,155.5,67.4,155.5z M66.8,157c-2.3,0.1-4.2,2-4.4,4.4
	c0,5.2,5.9,6.4,8.2,2.6c0.1-0.2,0.2-0.5,0.3-0.8c0.7-2.6-0.8-5.3-3.4-6C67.3,157,67,157,66.8,157L66.8,157z M66.9,155.5L66.9,155.5
	L66.9,155.5L66.9,155.5z"/>
<path class="st0" d="M85.5,229.3c2,0,4,0.6,5.7,1.8c1.4,1,2.6,2.3,3.4,3.8c1.5,3.1,1.2,4.1,1.2,13.6c0,6.1,0,5.6-0.2,6
	c-0.3,0.5-0.8,0.7-1.3,0.5c-0.4-0.2-0.2-0.2-0.5-0.2c-4.2,0-12.5,0.2-20.4,0.7c4.8,0.9,8.1,1.5,12.1,2.1c8.9,1.3,9.8,0.7,9.9,1.9h0
	c0.1,8.1,0.1,7.3,0.1,7.6c-0.1,0.2-0.2,0.3-0.3,0.4c-0.1,0.1,1.8,0.4-54.8,0.4c-0.6,0-1-0.4-1.1-0.9c0-0.2,0-27.3,0-28.2
	c0.4-4.9,4.2-8.9,9.1-9.5C49.3,229.2,85.4,229.3,85.5,229.3z M79.2,231.6c-30.7,0-30.5-0.3-32.7,0.6c-2.2,0.9-3.8,2.7-4.6,4.9
	c-0.6,1.6-0.4,1.3-0.4,28.7c28.8,0,24.2-0.1,52.5,0.3l0,0v-5.9c-6.3-0.7-5-0.3-19.8-2.7c-3.6-0.6-7.3-0.9-8.5-1.2
	c-0.5-0.2-0.7-0.7-0.5-1.2c0.1-0.3,0.5-0.6,0.8-0.6c0.1,0,10.2-1.8,27.6-1.8c0.1,0,0.1,1,0.1-13.1c-0.1-3.6-2.6-6.8-6.1-7.7
	C86.1,231.5,85.4,231.6,79.2,231.6z M93.7,254.6L93.7,254.6L93.7,254.6L93.7,254.6z"/>
</svg>
