<?xml version="1.0" encoding="utf-8"?>
<!-- Generator: Adobe Illustrator 26.3.1, SVG Export Plug-In . SVG Version: 6.00 Build 0)  -->
<svg version="1.1" id="Capa_1" xmlns="http://www.w3.org/2000/svg" xmlns:xlink="http://www.w3.org/1999/xlink" x="0px" y="0px"
	 viewBox="0 0 80 80" style="enable-background:new 0 0 80 80;" xml:space="preserve">
<style type="text/css">
	.st0{fill:#3F67AD;}
	.st1{fill:#205492;}
	.st2{fill:#A6C5EC;}
	.st3{fill:#FFFFFF;}
	.st4{fill:#B90C2F;}
	.st5{fill:#0067B8;}
	.st6{fill:#FFFFFF;stroke:#0067B8;stroke-miterlimit:10;}
	.st7{fill:#FFFFFF;stroke:#205492;stroke-miterlimit:10;}
	.st8{fill:#E63164;}
	.st9{fill:#FFFFFF;stroke:#E63164;stroke-miterlimit:10;}
</style>
<g>
	<circle class="st0" cx="39.7" cy="40.4" r="36.6"/>
	<path class="st1" d="M3,40.4C2.9,13.6,28.9-5.4,54.1,5.8c30.1,13.9,31.3,56.3,0.3,69.9C29,86.3,2.8,67.4,3,40.4L3,40.4z M3.3,40.4
		c0.3,31.2,39.4,46.5,61.4,24.9c13.9-13.4,14.8-36.8,0.7-50.5C43.2-6.6,3.4,9.4,3.3,40.4L3.3,40.4z"/>
</g>
<g>
	<path class="st2" d="M62.1,58.2H18.3c-0.9,0-1.7-0.8-1.7-1.7V24.1c0-0.9,0.8-1.7,1.7-1.7h43.8c0.9,0,1.7,0.8,1.7,1.7v32.5
		C63.9,57.5,63.1,58.2,62.1,58.2z"/>
	<path class="st1" d="M62.1,58.2c-11.4,0-31.9,0.2-43.4,0.3c-1.7,0.1-2.6-1-2.4-2.7c0-0.8,0-3,0-3.8c0-5.1-0.1-15.3-0.1-20.4
		c0,0,0-5.1,0-5.1s0-2.6,0-2.6c0.1-1.1,1.1-2,2.2-2c10.2,0,30.7,0.1,40.8,0.2c0,0,2.6,0,2.6,0c1.6-0.1,2.5,1.1,2.3,2.7
		C64,31.6,63.9,42.2,63.9,49c0,0,0,5.1,0,5.1s0,2.6,0,2.6C63.8,57.5,63,58.3,62.1,58.2L62.1,58.2z M62.1,58.2c0.9,0,1.7-0.7,1.7-1.6
		c0,0,0-2.6,0-2.6s0-5.1,0-5.1c0-6.3-0.1-16.7-0.1-23c-0.1-0.6,0.1-1.9-0.1-2.5c-0.3-0.8-1-1.1-1.9-1c0,0-2.6,0-2.6,0
		c-10.2,0.1-30.7,0.2-40.8,0.2c-0.6,0-1.2,0.5-1.2,1.1c0,0,0,2.5,0,2.5s0,5.1,0,5.1c0,6.3-0.1,16.7-0.1,23c0,0,0,1.3,0,1.3
		c0,0.7,0,1.6,0.7,2C18,58,18.3,58,18.8,58l2.6,0C31.5,58.1,52,58.2,62.1,58.2L62.1,58.2z"/>
</g>
<g>
	<path class="st3" d="M40.1,54.3H19.3V19.1h17.1c2,0,3.6,1.6,3.6,3.6V54.3z"/>
	<path class="st1" d="M40.1,54.3c-6.4,0.1-15,0.4-21.2,0.4c-0.1-5.3,0.1-12.7,0.2-18c0.1-5.9,0-11.7-0.1-17.6c0,0,0-0.3,0-0.3
		s0.3,0,0.3,0c4.5-0.1,9.1-0.2,13.6-0.2l3.4,0c1.9-0.1,3.9,1.3,4.2,3.3C40.8,31.9,40.3,44.2,40.1,54.3L40.1,54.3z M40.1,54.2
		c-0.2-8-0.5-19.4-0.5-27.2c0-0.6,0-3.7,0-4.2c0.1-1.8-1.5-3.3-3.3-3.2c-5.6,0-11.4-0.1-17-0.2c0,0,0.3-0.3,0.3-0.3
		c-0.1,5.9-0.2,11.7-0.1,17.6c0.1,5.2,0.3,12.5,0.2,17.6c0,0-0.4-0.4-0.4-0.4C25.3,53.9,34,54,40.1,54.2L40.1,54.2z"/>
</g>
<g>
	<path class="st3" d="M60.9,54.3H40.1v-32c0-1.7,1.4-3.1,3.1-3.1h17.6V54.3z"/>
	<path class="st1" d="M60.9,54.3c-6.4,0.1-14.9,0.4-21.2,0.4c-0.1-9.2,0.4-18.5,0.3-27.7c0-1.2-0.1-4,0-5.1c0.1-1.9,2.1-3.3,3.9-3.1
		c2.2-0.1,14.6-0.2,17.1-0.2c0,0,0.5,0,0.5,0l0,0.5C61.4,30.8,61.2,42.7,60.9,54.3L60.9,54.3z M60.8,54.2
		c-0.3-11.9-0.5-23.3-0.5-35.1c0,0,0.5,0.5,0.5,0.5c-2.5,0-14.8-0.1-17.1-0.2c-2.7-0.2-3.7,1.7-3.5,4.1c0,0,0,3.4,0,3.4
		c-0.1,9.1,0.3,18.2,0.3,27.3c0,0-0.4-0.4-0.4-0.4C46,53.9,54.8,54,60.8,54.2L60.8,54.2z"/>
</g>
<g>
	<rect x="43.7" y="36.1" class="st4" width="12.4" height="6.9"/>
	<path class="st5" d="M34.1,39.5h-5.7c-2.7,0-5,2.2-5,5l0,9.6H39v-9.6C39,41.7,36.8,39.5,34.1,39.5z"/>
	<path class="st6" d="M37,46.1h-3.8c-1.8,0-3.3,1.5-3.3,3.3v4.7h10.3v-4.7C40.3,47.5,38.8,46.1,37,46.1z"/>
	<circle class="st7" cx="31.2" cy="35.5" r="5.9"/>
	<circle class="st7" cx="35.1" cy="43.7" r="4.2"/>
	<path class="st8" d="M47.1,39.5h5.7c2.7,0,5,2.2,5,5v9.6H42.1v-9.6C42.1,41.7,44.3,39.5,47.1,39.5z"/>
	<circle class="st9" cx="49.9" cy="35.5" r="5.9"/>
	<path class="st5" d="M35.9,30.7c-1.5-1.6-4.5-2.1-8.3-0.5c0,0-0.9,0.1-1.8-0.4c-0.3-0.2-0.7,0.2-0.4,0.5c0.3,0.4,0.7,0.8,1.2,1.2
		c-2,2.2-1.3,5.1-1.3,5.1c2.3-0.3,2.8-2.7,2.9-4.2c1.5,0.7,3.6,1,6.5,0.5c0,0,0.2,3,2.7,3.4C37.3,36.4,38.2,33.2,35.9,30.7z"/>
	<path class="st5" d="M38.2,40.2c-1-1.1-3.2-1.4-5.9-0.4c0,0-0.6,0.1-1.3-0.3c-0.2-0.1-0.5,0.2-0.3,0.4c0.2,0.3,0.5,0.6,0.8,0.9
		c-1.4,1.5-1,3.6-1,3.6c1.6-0.2,2.1-1.9,2.1-2.9c1.1,0.5,2.6,0.7,4.6,0.3c0,0,0.5,2,2.2,2.2C39.5,44.1,39.8,42,38.2,40.2z"/>
	<path class="st4" d="M49.9,31.6c0,0-0.8,5.2-6.2,5.2c0,0-1.1-7.4,6.2-7.4c6.8,0,6.2,6.8,6.2,6.8S50.1,36.8,49.9,31.6z"/>
	<rect x="41.5" y="43.5" class="st4" width="9" height="4.3"/>
	<path class="st9" d="M44.1,45.9h3.8c1.8,0,3.3,1.5,3.3,3.3v5H40.9v-5C40.9,47.3,42.3,45.9,44.1,45.9z"/>
	<circle class="st9" cx="46" cy="43.5" r="4.2"/>
	<path class="st4" d="M46,40.7c0,0-0.6,3.8-4.5,3.7c0,0-0.8-5.4,4.5-5.4c4.9,0,4.5,5,4.5,5S46.1,44.5,46,40.7z"/>
</g>
</svg>
