<?xml version="1.0" encoding="utf-8"?>
<!-- Generator: Adobe Illustrator 26.3.1, SVG Export Plug-In . SVG Version: 6.00 Build 0)  -->
<svg version="1.1" id="Capa_1" xmlns="http://www.w3.org/2000/svg" xmlns:xlink="http://www.w3.org/1999/xlink" x="0px" y="0px"
	 viewBox="0 0 300 300" style="enable-background:new 0 0 300 300;" xml:space="preserve">
<style type="text/css">
	.st0{fill:#0067B8;}
	.st1{fill:#661D32;}
	.st2{fill:#002F6C;}
</style>
<path class="st0" d="M107,114.4c-0.1-0.7-0.4-1.8-1.1-2c0,0,0,0,0,0c-0.4-0.2-0.8-0.1-1,0.3c0,0,0,0.1-0.1,0.2
	c-0.2,0.6,0,1.2,0.3,1.6c0.1,0.2,0.2,0.3,0.3,0.5c0.2,0.3,0.5,0.4,0.8,0.3c0,0,0,0,0,0C106.7,115.2,107,114.9,107,114.4
	C107,114.5,107,114.4,107,114.4z"/>
<path class="st1" d="M94.4,250.3c1,3.5,3,6.7,5.8,9.1c0.7,0.6,1.4,1.1,2.1,1.6c0.6,0.4,1.7,0.8,2,1.5c0.1,0.6,0.2,1.3,0.2,1.9
	c0.1,0.6,0.1,1.2,0.2,1.7c0,1,0.2,2.1,0.7,3c0.3,0.3,0.7,0.3,1,0c0,0,0.1-0.1,0.1-0.2c0.5-1,0.1-2.2,0-3.2c-0.1-1.2-0.2-2.3-0.4-3.5
	c-0.3-1.7-2.3-2.4-3.6-3.3c-3.1-2.4-5.5-5.5-7.2-9c-0.1-0.2-0.4-0.3-0.6-0.1C94.5,250,94.4,250.2,94.4,250.3L94.4,250.3z"/>
<path class="st2" d="M111.4,119.7c0.2,0,0.3-0.1,0.5-0.3c0.8-1.2,1.6-2.2,0.5-3.5c-1.1-1.4-2.3-2.7-3.6-3.8c0,0-0.1-0.1-0.1-0.1
	c-0.9-2.2-1.9-4.3-3.1-6.4c0-0.1-0.1-0.1-0.2-0.2c0.1-1.1,0.2-2.1,0.2-3.2c0-0.3-0.1-0.5-0.3-0.7c0-3.4-2.7-5.2-5.5-7.1
	c-3.8-2.5-8.5-3.1-12.8-1.6c-4.2,1.3-7.7,2.7-10.3,6.3c-2.6,3.5-4.5,10.4-5.4,14.7c-2.3,10.2-1,18.3-1.5,28.6
	c-0.2,5.1-1,10.2-2.5,15.1c-0.3,1-1.2,2.2-0.5,3.2c0.7,1,1.6,1.9,2.5,2.7c1.7,1.6,3.6,3,5.7,4.2c9.6,5.5,20.6,1.9,29.6-4.4
	c0.4-0.2,0.5-0.7,0.4-1.1c-2.7-6.6-3.3-10.6-4-17.8c-0.7-6.2,0-13.1-3.3-18.7c-0.3-0.4-0.9-0.6-1.3-0.3c-0.1,0.1-0.2,0.2-0.3,0.3
	c-1.6,2.1-4.5,0.5-5.2-1.6c-0.2-0.7-0.5-2.8-0.1-3.5c0.7-1,2.3-0.6,3,0c0.4,0.2,0.8,0.1,1.2-0.1c2.9-2.5,5.8-4.3,7.9-7.5
	c1.1-1.7,1.8-3.5,2.2-5.4c1.8,4.9,4.1,9.7,5.3,14.8c0.5,2.2,1.3,5.6-0.4,7.5c-1,0.9-2.3,1.4-3.6,1.5c-0.7,0-1.3,0-2-0.2
	c-0.5-0.2-1.1-0.4-1.7-0.4c-0.4,0-0.7,0.3-0.7,0.7c0,0.1,0,0.2,0.1,0.3c0.6,0.8,1.5,1.2,2.5,1.3c-0.7,1.9-0.8,5.2,0.7,6.7
	c0.3,0.3,0.7,0.2,1,0c0.2-0.2,0.2-0.4,0.2-0.6c-0.4-1-0.7-2-0.8-3.1c-0.1-0.9,0-1.9-0.1-2.8c0.1,0,0.2,0,0.2,0
	c1.4,0.1,2.9-0.3,4.1-1c2.7-1.5,3.1-4.5,2.8-7.3C112.3,123,111.9,121.3,111.4,119.7z M80.4,99.5c-1.8,2.8-3,6-3.6,9.3
	c-0.3,2-0.6,3.9-0.7,5.9c0,2-0.2,3.9-0.5,5.8c-0.1,0.2-0.3,0.3-0.4,0.2c-0.1,0-0.2-0.1-0.2-0.2c-0.5-2.1-0.6-4.3-0.3-6.4
	c0.1-2,0.4-3.9,0.7-5.9c0.3-1.8,0.8-3.5,1.5-5.1c0.3-0.8,0.7-1.6,1.2-2.3c0.5-0.7,1-1.3,1.7-1.8C80.2,98.8,80.7,99.1,80.4,99.5z
	 M101.7,105.2c-0.5,1.2-1.2,2.4-2,3.5c-0.6,0.8-1.3,2.2-2.3,2.7c-0.3,0.1-0.6,0-0.7-0.2c0-0.1-0.1-0.1-0.1-0.2
	c0.1-1.1,0.5-2.1,1.2-2.9c0.5-1,1.1-1.9,1.7-2.9c0.5-1,0.9-2,1.1-3.1c0.2-1.1,0.2-2.2,0.2-3.4c0-0.3,0.3-0.6,0.6-0.6
	c0.2,0,0.4,0.1,0.5,0.3C103.3,100.4,102.6,103.1,101.7,105.2z M111,118.3c-0.4-1.1-0.8-2.1-1.2-3.2c0-0.1-0.1-0.3-0.2-0.4
	c0.2,0.2,0.4,0.5,0.6,0.7c0.4,0.4,0.7,0.9,1.1,1.4C111.7,117.3,111.3,117.8,111,118.3z"/>
<path class="st1" d="M106.3,142.9c0.9-0.5,1.6-1.1,2.5-1.6c1-0.6,2.1-0.9,3.3-1c4.8-0.4,9.5,0.7,14.1,2c8.5,2.4,18.5,5.9,25.4,9.8
	c4.1,2.3,7.2,4.3,10.4,7.8c0.5,0.6,1,0.1,0.5-0.5c-2.5-3-4.6-4.2-7.8-6.7c-3.2-2.6-8.2-5.1-12-6.8c-4.3-1.8-8.6-3.3-13.1-4.5
	c-4.5-1.5-9.2-2.5-13.9-2.9c-2.3-0.1-5-0.1-7.1,0.9c-2.2,1.1-3.8,3.1-6.5,2.6c-0.3-0.1-0.5,0.1-0.6,0.4c0,0.2,0,0.3,0.1,0.5
	C102.8,144.2,104.8,143.7,106.3,142.9z"/>
<path class="st1" d="M192,100.4c1.1-1.6,2-3.4,2.6-5.4c0.7-2,1.4-4,2-6.1c0.5-2,1-4,1.4-6.1c0.2-1.1,0.4-2.2,0.5-3.2
	c0.1-0.8,0.5-1.9-0.2-2.4c-0.2-0.2-0.5-0.2-0.7-0.1c-0.8,0.4-0.7,1.4-0.9,2.2c-0.1,1-0.3,1.9-0.5,2.9c-0.4,2-0.8,4.1-1.4,6.1
	c-0.5,1.9-1.1,3.9-1.7,5.8c-0.8,1.9-1.4,3.9-1.9,5.9C191.2,100.4,191.7,100.8,192,100.4z"/>
<path class="st1" d="M198.4,89.6c0,0.2,0.2,0.4,0.5,0.4c0.1,0,0.2,0,0.3-0.1c0.5-0.4,1.1-0.8,1.6-0.1c0.3,0.6,0.4,1.3,0.4,2
	c0,1.3-0.1,2.6-0.3,3.9c-0.2,1.2-0.5,2.4-0.9,3.5c-0.3,0.9-1.2,2.2-0.7,3.1c0.1,0.2,0.3,0.2,0.4,0.2c0.7-0.2,0.9-0.9,1.2-1.5
	c0.4-1,0.7-2,1-2.9c0.5-1.9,0.8-3.8,0.8-5.7c0-1.4-0.1-3.2-1.5-4C200.1,87.7,198.3,88.3,198.4,89.6z"/>
<path class="st1" d="M204.1,97.8c-0.1,1-0.4,2-0.7,3c-0.4,1-0.7,2-0.8,3.1c0,0.3,0.4,0.7,0.7,0.4c1.3-0.9,1.6-3,2-4.4
	c0.4-1.7,0.6-3.4,0.6-5.2c0-1.2,0.2-3-0.9-3.8c-0.6-0.5-1.4-0.4-1.9,0.2c-0.2,0.2-0.3,0.5-0.3,0.7c0,0.2,0.2,0.4,0.4,0.4
	c0.1,0,0.2,0,0.3-0.1c0.9-0.8,0.8,1.9,0.8,2.2C204.3,95.6,204.3,96.7,204.1,97.8z"/>
<path class="st1" d="M207.9,93.8c-0.5-0.5-1.6-0.7-1.9,0.1c-0.1,0.2,0,0.6,0.3,0.5c1.2-0.1,0.8,2.4,0.7,3.2
	c-0.1,1.3-0.3,2.6-0.7,3.9c-0.7,2.3-1.7,4.5-3.2,6.4c-1.3,1.8-2.7,3.5-3.8,5.3c-1.1,1.7-2.4,3.3-2.1,5.3c-1.3-0.7-2.6-1.2-4-1.5
	c-0.9-0.2-1.8-0.3-2.7-0.4c-0.7-0.1-1.4-0.2-2.1-0.1c0.1-0.1,0.1-0.2,0.1-0.3c0-0.9-0.2-1.8-0.6-2.7c-0.3-1-0.7-2-1.1-3
	c-0.8-1.9-1.4-3.8-1.9-5.8c-0.4-1.8-0.5-3.9,0.7-5.3c1.2-1.4,3.1-1.5,4.3-2.7c0.2-0.2,0.2-0.6,0-0.8c-0.1-0.1-0.2-0.1-0.4-0.1
	c-1.7-0.2-3.8,1-5,2.2c-1.3,1.5-1.9,3.6-1.6,5.6c0.3,2.2,0.9,4.4,1.8,6.5c0.4,1.1,0.9,2.1,1.4,3.2c0.4,1.1,0.8,2.2,1.5,3.2
	c0.1,0.1,0.1,0.1,0.2,0.1c-0.2,0-0.4,0.1-0.6,0.2c-0.3-0.4-0.8-0.5-1.2-0.2c0,0-0.1,0.1-0.1,0.1c-5.5,5.5-10,11.9-14.7,18.1
	c-2.5,3.3-4.9,6.6-7.4,9.8c-2.6,3.3-5,6.7-7.2,10.2c-0.1,0.2,0,0.4,0.1,0.5c0.1,0.1,0.3,0,0.4-0.1c2.8-3,5.4-6.2,7.8-9.5
	c2.5-3.2,4.9-6.4,7.4-9.6c4.7-6.2,9.2-12.7,14.8-18.2c0.1-0.1,0.2-0.2,0.2-0.3c1.1,0.3,2.3,0.4,3.4,0.6c1.1,0.2,2.2,0.5,3.2,0.8
	c1,0.3,2,0.8,2.8,1.4c0.2,0.1,0.3,0.2,0.5,0.3c-1.6,7.4-3.2,14.7-5.5,21.9c-2.3,7.4-5.1,14.6-8.3,21.6c-1.5,3.2-3,6.5-4.9,9.6
	c-1.5,2.9-3.7,5.4-6.2,7.4c-6.3,4.6-15,3-22.2,1.8c-4.6-0.8-9.2-1.6-13.8-2.4c-2.1-0.4-4.2-0.7-6.3-1.2c-2.2-0.5-4.3-1.3-6.4-1.8
	c-0.8-0.2-1,0.4-0.3,0.7c2.1,0.9,3.6,1.4,5.6,2.3c1.4,0.6,2.9,1.1,4.5,1.3c-0.6,2.5-0.8,5-1.3,7.5c-0.5,2.5-1,5-1.5,7.5
	c-0.6,2.5-1.2,5-1.9,7.5c-0.3,1.2-0.7,2.4-1.1,3.6c-0.4,1.1-0.8,2.3-1,3.5c-0.1,0.2-0.1,0.4-0.2,0.6c-0.1,0.2-0.2,0.4-0.2,0.7
	c-0.4-0.1-0.8-0.2-1.2-0.3c-1.8-0.5-3.6-0.8-5.5-1c-3.6-0.5-7.2-0.6-10.8-0.5c-3.7,0.2-7.4,0.5-11.1,1c-1.9,0.3-3.8,0.6-5.7,0.9
	c-1.8,0.3-3.6,0.7-5.4,1.2c-3.2-5.9-6-11.9-8.4-18.2c-1.2-3.1-2.3-6.3-3.2-9.5c-1-3.2-2.2-6.6-3.3-9.8c-0.2-0.5-0.7-0.4-0.6,0.2
	c0.3,2.1,0.7,4.2,1.3,6.2c-2.1,1.2-4.2,2.6-6.1,4.1c-1,0.7-1.9,1.5-2.8,2.4c-1,0.7-1.8,1.7-2.4,2.7c-0.1,0.2,0,0.4,0.2,0.5
	c0.1,0.1,0.3,0.1,0.4,0c0.9-0.6,1.8-1.2,2.6-2c0.9-0.8,1.9-1.6,2.9-2.3c1.8-1.4,3.7-2.7,5.7-3.9c0.2,0.7,0.4,1.5,0.7,2.2
	c1,3.3,2.1,6.6,3.4,9.8c1.4,3.8,3,7.5,4.8,11.2c-0.6,0-1.2,0-1.7,0c-0.9,0-1.8,0.1-2.7,0.2c0-0.1,0-0.3-0.1-0.4
	c-2-2.2-4.2-4.3-6.5-6.2c-2.1-1.9-4.3-3.8-6.5-5.7c-2-1.8-4.1-3.5-6.2-5.1c-2.1-1.7-4.4-3.2-6.8-4.5c-0.9-0.4-0.8-0.2,0,0.4
	c0.8,0.6,1.5,1.2,3.4,2.6c1.1,0.8,2.2,2,3.3,2.9c2.1,1.6,3.5,3.5,5.5,5.3c2.2,1.9,4.3,3.8,6.4,5.6c1.9,1.8,3.9,3.4,6,5l0,0
	c-0.5,0.8-0.9,1.7-1.2,2.6c-0.4,1.1-0.7,2.2-1,3.3c-0.6,1.9-0.9,4-0.9,6c0,0-0.1-0.1-0.2-0.1c-2-0.6-4.1-1.1-6.2-1.5
	c-2.1-0.5-4.2-1-6.2-1.5c-4.1-1.1-8.2-2.4-12.2-3.9c-3.8-1.3-7.6-2.9-11.2-4.8c-3.5-1.7-6.5-4.2-8.9-7.3c-2.2-3-3.1-6.7-2.5-10.4
	c0.8-3.9,3.4-7.1,5.9-10.2c4.7-5.9,10.1-11.3,15.9-16.2c3.3-2.7,6.8-5.3,10.3-7.6c3.6-2.4,7.4-4.3,11.1-6.6c0.5-0.3,0.2-1.2-0.4-1
	c-3.7,1.5-7.2,3.3-10.6,5.5c-10.2,6.4-19.2,14.3-26.8,23.6c-2.5,3.1-5.2,6.3-6.6,10.1c-1.3,3.6-1.1,7.7,0.7,11.1
	c3.5,7.5,11.3,11.1,18.6,14c4.7,1.9,9.4,3.5,14.2,4.8c2.5,0.7,5,1.3,7.5,1.9c2.4,0.6,4.9,1,7.4,1.1c0.2,0,0.4-0.1,0.5-0.3
	c0.2,0.1,0.4,0.1,0.6-0.1c0,0,0.1-0.1,0.1-0.1c0.2-0.7,0.4-1.5,0.6-2.2c0.8,0.6,1.8,1.1,2.7,1.7c0.5,0.4,1.8,1.7,2.4,0.7
	c0.5-0.9-1.1-1.8-1.7-2.1c-0.9-0.7-2-1.1-3.1-1.4c0.2-1,0.4-1.9,0.7-2.9c0.3-1,0.6-2,0.9-2.9c0.2-0.7,0.6-1.5,0.8-2.2l0.1,0
	c1,0.2,2,0.3,3,0.3c0.7,0,1.7,0.2,2.4-0.2c0.9,1.8,1.8,3.6,2.8,5.4c-0.1,0-0.1,0-0.2,0.1c-2.9,2.2-5.2,5-6.9,8.2
	c-1.8,3.3-3.4,6.7-4.7,10.2c-3.1,7.9-5.3,16.1-6.6,24.5c-0.6,4.5-1.2,9.4-0.6,14c0.1,0.8,1.3,0.6,1.4-0.2c0.3-4,0.2-8.1,0.7-12.1
	c0.5-4.1,1.3-8.1,2.3-12.1c1.8-7.6,4.5-14.9,8-21.9c1.9-3.5,4.2-6.8,6.9-9.8c0,0,0,0,0-0.1c0,0,0,0,0,0.1c0.2,0.4,0.7,0.5,1.1,0.3
	c0.1-0.1,0.2-0.1,0.3-0.2c1.9-0.1,3.9-0.4,5.8-0.8c1.9-0.3,3.8-0.6,5.7-0.9c4-0.6,8.1-0.9,12.1-1c3.9-0.1,7.8,0.2,11.6,1
	c0.9,0.2,1.8,0.4,2.7,0.6c0.7,0.3,1.5,0.5,2.3,0.4c0,0,0,0.1,0,0.1c2,6.4,4.3,12.8,6.1,19.3c1.8,6.6,3.1,13.3,4.1,20
	c0.5,3.8,0.8,7.6,1.3,11.4c0.1,0.8,1.4,0.6,1.4-0.2c-0.1-3.4-0.4-6.8-0.9-10.2c-0.5-3.4-1-6.8-1.7-10.1c-1.3-6.8-3.1-13.4-5.2-20
	c-1.2-3.7-2.6-7.2-4.3-10.6c0-0.1-0.1-0.1-0.2-0.2c0.2-0.4,0.4-0.8,0.5-1.2c0.1-0.4,0.3-0.7,0.4-1.1c0.4-1,0.8-2,1-3.1
	c0.4-1.3,0.7-2.5,1.1-3.8c0.7-2.5,1.3-5.1,1.9-7.7c0.6-2.5,1-5,1.4-7.6c0.5-2.5,0.8-5,0.9-7.6c4.3,0.7,8.5,1.5,12.8,2.2
	c7.5,1.3,16.1,3.2,23.3-0.2c6.3-2.9,9.6-9.6,12.5-15.5c3.5-7.2,6.5-14.6,9-22.2c2.9-8.4,5-17.1,6.3-26c0-0.2-0.1-0.4-0.2-0.5
	c0-0.2-0.1-0.4-0.2-0.6c-0.1-0.1-0.1-0.1-0.2-0.2c0.2-0.1,0.3-0.2,0.3-0.4c0.4-2.5,2-4.7,3.5-6.7c1.6-2.2,3.3-4.1,4.4-6.6
	c1.2-2.6,1.9-5.4,2.1-8.3C208.5,96.2,208.7,94.6,207.9,93.8z"/>
<path class="st0" d="M61.9,61.4c-6.9-1.4-13.7-3-20.5-4.4c-1.6-0.3-3.3-0.7-4.9-1.1c-0.9-0.2-1-1-1.3-1.8c-0.3-0.9-0.7-1.8-1-2.7
	c-1.4-3.5-2.7-7.1-4.1-10.6c-1.4-3.7-2.8-7.5-5-10.8c-0.3-0.5-0.9-0.6-1.4-0.3c-0.1,0.1-0.3,0.2-0.3,0.3c-4.1,7.7-7.9,16.1-9.7,24.7
	c-0.1,0.4,0.1,0.8,0.5,0.9c0.4,0.1,0.8-0.1,0.9-0.5c1.5-4.1,2.8-8.2,4.4-12.2c1.4-3.5,3-6.9,4.8-10.3c1.4,2.7,2.6,5.5,3.6,8.5
	c1.4,3.6,2.8,7.3,4.2,11c0.3,0.9,0.7,1.8,1,2.7c0.2,0.8,0.6,1.6,1.1,2.3c1,1.2,3.1,1.2,4.5,1.5c3.5,0.7,7,1.5,10.5,2.3
	c3.4,0.7,6.7,1.5,10.1,2.2c-5,4-10.3,7.5-15.2,11.6c-1.1,0.9-2.5,1.8-2.9,3.2c-0.5,1.5,0.2,3.4,0.5,4.9c0.6,3.7,1.2,7.5,1.6,11.3
	c0.4,3.5,0.7,7,1,10.5c-6-4.7-11.7-9.8-17.2-15.2c-0.4-0.4-1.1-0.4-1.5,0c-6.8,5.3-13.7,10.4-20.3,15.9c-0.8,0.7,0.3,2.2,1.2,1.5
	c6.8-4.9,13.2-10.2,19.8-15.4c5.8,5.7,12,11.1,18.4,16.1c0.7,0.5,1.8,0.3,1.8-0.7c-0.4-7.2-1.2-14.3-2.2-21.4
	c-0.3-1.8-0.6-3.5-0.9-5.3c-0.1-0.8-0.4-1.5,0.2-2.2c0.5-0.5,1.1-1,1.7-1.5c2.7-2.2,5.4-4.2,8.2-6.3c3-2.3,6.1-4.5,8.9-7
	c0.4-0.4,0.4-1.1,0-1.5C62.2,61.5,62,61.4,61.9,61.4z"/>
<path class="st0" d="M294.7,105.2c-6.6-5.5-13.5-10.7-20.3-15.9c-0.4-0.4-1.1-0.4-1.5,0c-5.4,5.4-11.2,10.5-17.2,15.2
	c0.5-6.8,1.2-13.6,2.3-20.3c0.4-1.7,0.7-3.5,0.8-5.2c0.1-1.5-0.9-2.6-2-3.5c-2.7-2.3-5.5-4.4-8.3-6.4c-2.7-2-5.4-4-8-6.1
	c6.4-1.4,12.8-2.8,19.2-4.2c0.8-0.2,1.7-0.4,2.6-0.5c0.8-0.1,1.7-0.3,2.4-0.6c1.5-0.7,1.9-2.8,2.4-4.2c1.4-3.6,2.8-7.2,4.1-10.8
	c1.2-3.5,2.6-6.8,4.3-10.1c1.7,3.3,3.3,6.8,4.8,10.3c1.6,4,3,8.1,4.4,12.2c0.1,0.4,0.5,0.6,0.9,0.5c0.4-0.1,0.6-0.5,0.5-0.9
	c-1.8-8.6-5.5-17-9.7-24.7c-0.3-0.5-0.9-0.6-1.4-0.3c-0.1,0.1-0.3,0.2-0.3,0.3c-1.8,3-3.3,6.1-4.4,9.4c-1.4,3.5-2.7,7.1-4.1,10.6
	c-0.7,1.7-1.2,3.5-2,5.2c-0.4,0.8-1.1,0.8-1.9,0.9c-0.8,0.2-1.7,0.4-2.5,0.6c-3.4,0.8-6.9,1.5-10.3,2.3c-3.8,0.8-7.7,1.7-11.6,2.5
	c-0.5,0.2-0.9,0.7-0.7,1.3c0,0.2,0.1,0.3,0.2,0.4c5.1,4.4,10.8,8.1,16,12.4c0.6,0.5,1.2,1,1.8,1.5c0.5,0.5,1.3,0.9,1.4,1.7
	c0,0.9-0.1,1.7-0.4,2.6l-0.4,2.6c-0.6,3.6-1,7.1-1.4,10.7c-0.5,4.1-0.8,8.1-1,12.2c-0.1,1,1.1,1.2,1.8,0.7
	c6.4-5,12.6-10.4,18.4-16.1c6.6,5.2,13,10.5,19.8,15.4C294.4,107.4,295.5,105.9,294.7,105.2z"/>
<path class="st0" d="M229.1,61.2c-9.1-2.4-18.8-1.9-27.6-5.4c0,0,0,0,0,0c-2.9-8.8-5.8-17.6-8.7-26.4c-0.1-0.2-0.4-0.3-0.6-0.1
	c-3.2,6.6-6.1,13.2-8.9,20c-0.7,1.7-1.4,3.5-2,5.3c-0.1,0.4-0.3,0.8-0.5,1.2c-0.4,0.2-0.8,0.4-1.2,0.5c-1,0.3-1.9,0.6-2.9,0.8
	c-3.6,1-7.2,1.9-10.8,2.7c-4.1,0.9-8.3,1.6-12.5,2.2c-0.2,0-0.3,0.4-0.1,0.5c6.6,6.3,13.7,12.1,21.1,17.3
	c-1.7,8.3-3.2,16.7-4.6,25.1c0,0.2,0.1,0.3,0.2,0.4c0.1,0,0.2,0,0.3-0.1c6.4-6.6,15.5-9.9,21.4-17l1.2,1.4c0.4-2.4,0.9-4.7,1.3-7.1
	c0.3-1.6,0.6-3.1,1.1-4.7c0.2-1.1,0.9-2,1.8-2.5c2.1-1,3,1.4,3.1,3.1c0.1,2.8-0.1,5.5-0.6,8.2c0.7-0.4,1.6-0.4,2.4-0.1
	c0.9,0.4,1.5,1.3,1.5,2.3c0.5-0.3,1.1-0.3,1.7-0.1c1,0.5,1.7,1.5,1.8,2.7c0.7-0.4,1.6-0.2,2.2,0.5c1.1,1.3,0.8,3.6,0.9,5.1
	c0,2.7-0.3,5.5-0.9,8.2l0.4,0.4c0.1,0.1,0.3,0.1,0.4,0c0-0.1,0.1-0.1,0.1-0.2c0.8-6.6,1.7-13.1,2-19.7c0.1-1.7,0.1-3.3,0.1-5
	c0-1-0.1-1.6,0.6-2.3c0.6-0.5,1.2-1.1,1.8-1.6c2.4-2.2,4.8-4.5,7.1-6.8c2.6-2.6,5.1-5.2,7.6-7.9c0.1-0.1,0.1-0.3,0-0.4
	C229.1,61.2,229.1,61.2,229.1,61.2z"/>
<path class="st0" d="M145,58c-9.2-1.8-18.9-0.7-27.9-3.7c0,0,0,0,0,0c-3.5-8.6-6.9-17.2-10.3-25.9c0-0.2-0.2-0.3-0.4-0.2
	c-0.1,0-0.2,0.1-0.2,0.2c-2.8,6.8-5.4,13.8-7.7,20.8c-0.6,1.8-1.2,3.6-1.7,5.4c-0.1,0.5-0.2,0.8-0.6,1.1c-0.4,0.2-0.8,0.3-1.2,0.5
	c-0.9,0.3-1.9,0.7-2.8,1c-3.5,1.2-7,2.3-10.5,3.3c-4,1.1-8.1,2.1-12.1,2.9c-0.2,0-0.3,0.2-0.2,0.4c0,0,0,0.1,0.1,0.1
	c7,5.9,14.4,11.2,22.2,16c-0.4,3.2-0.9,6.4-1.2,9.5c3.4-0.6,6.9-0.1,10,1.4c1.2,0.6,2.3,1.4,3.3,2.3c2.2-1.8,4.1-3.8,5.8-6
	c5.7,6,12.6,10.8,18.8,16.2c0.1,0.1,0.3,0.1,0.4,0c0-0.1,0.1-0.1,0.1-0.2c0.4-6.6,0.9-13.2,0.8-19.8c0-1.7-0.1-3.3-0.2-5
	c0-0.9-0.3-1.6,0.4-2.4c0.6-0.6,1.1-1.2,1.7-1.7c2.3-2.4,4.5-4.8,6.7-7.3c2.4-2.8,4.8-5.6,7.1-8.4C145.3,58.3,145.3,58,145,58z"/>
</svg>
