<?xml version="1.0" encoding="utf-8"?>
<!-- Generator: Adobe Illustrator 26.3.1, SVG Export Plug-In . SVG Version: 6.00 Build 0)  -->
<svg version="1.1" id="Capa_1" xmlns="http://www.w3.org/2000/svg" xmlns:xlink="http://www.w3.org/1999/xlink" x="0px" y="0px"
	 viewBox="0 0 80 80" style="enable-background:new 0 0 80 80;" xml:space="preserve">
<style type="text/css">
	.st0{fill:#3CAF37;}
	.st1{fill:#23751C;}
	.st2{fill:#DBDEE0;}
	.st3{fill:#ECEEEE;}
</style>
<g>
	<circle class="st0" cx="39.7" cy="40.4" r="36.6"/>
	<g>
		<path class="st1" d="M3.1,40.4C3,14.2,29.5-4.1,53.9,6.3c30.1,13,30.5,55.5,0.1,68.4C29.6,84.9,2.9,66.7,3.1,40.4L3.1,40.4z
			 M3.2,40.4C3.4,72.5,42.5,88.5,65.3,66c14.1-13.7,14.4-37.6,0.2-51.3C42.7-7.8,3.4,8.3,3.2,40.4L3.2,40.4z"/>
	</g>
</g>
<g>
	<path class="st2" d="M60.1,23.9c0.1-0.3,0.1-0.7,0.1-1c0-3.2-2.6-5.8-5.8-5.8c-2.3,0-4.3,1.3-5.2,3.3c-0.8-1.1-2.1-1.8-3.5-1.8
		c-2.4,0-4.4,2-4.4,4.4c0,0.4,0.1,0.7,0.1,1c-1,0.8-1.6,2-1.6,3.4c0,2.4,2,4.4,4.4,4.4h13.1c2.4,0,4.4-2,4.4-4.4
		C61.6,25.9,61,24.8,60.1,23.9z"/>
	<path class="st1" d="M39.7,21.1l28.2,33.4H11.6C11.6,54.5,39.7,21.1,39.7,21.1z"/>
	<path class="st0" d="M43.3,49.2h3.5v5.3h-3.5V49.2z"/>
	<polygon class="st0" points="53.8,49.2 48.2,42.2 52.1,42.2 45,33.4 38,42.2 41.9,42.2 36.2,49.2 	"/>
	<path class="st3" d="M37,36.4c0.1-0.3,0.1-0.6,0.1-0.9c0-2.7-2.2-5-5-5c-2,0-3.6,1.1-4.4,2.8c-0.7-0.9-1.8-1.5-3-1.5
		c-2.1,0-3.7,1.7-3.7,3.7c0,0.3,0,0.6,0.1,0.9c-0.8,0.7-1.4,1.7-1.4,2.8c0,2.1,1.7,3.7,3.7,3.7h11.2c2.1,0,3.7-1.7,3.7-3.7
		C38.3,38.1,37.8,37.1,37,36.4z"/>
</g>
</svg>
