<?xml version="1.0" encoding="utf-8"?>
<!-- Generator: Adobe Illustrator 26.2.1, SVG Export Plug-In . SVG Version: 6.00 Build 0)  -->
<svg version="1.1" id="Layer_1" xmlns="http://www.w3.org/2000/svg" xmlns:xlink="http://www.w3.org/1999/xlink" x="0px" y="0px"
	 viewBox="0 0 80 80" style="enable-background:new 0 0 80 80;" xml:space="preserve">
<style type="text/css">
	.st0{fill:#E73164;}
	.st1{fill:#661D32;}
	.st2{fill:#EAC81F;}
	.st3{fill:#FFFFFF;}
	.st4{fill:#002F6C;stroke:#002F6C;stroke-miterlimit:10;}
	.st5{fill:none;stroke:#002F6C;stroke-miterlimit:10;}
</style>
<circle class="st0" cx="40" cy="40" r="25.2"/>
<path class="st1" d="M14.9,40C14.8,22,33,9.4,49.7,16.6c20.7,9,20.9,38.1,0.1,47C33.1,70.6,14.8,58.1,14.9,40L14.9,40z M14.9,40
	c0.2,22.1,27,33,42.7,17.6c9.7-9.4,9.9-25.9,0.1-35.3C42.1,6.9,15.1,18,14.9,40L14.9,40z"/>
<g>
	<g>
		<path class="st2" d="M48.9,39.2c0-4.7-3.8-8.6-8.6-8.6s-8.5,3.8-8.6,8.5c0,2.3,0.8,4.3,2.3,5.9c1.6,1.8,2.5,4.1,2.5,6.5l0,0h7.6
			v-0.1c0-2.4,0.9-4.7,2.5-6.5C48.1,43.4,48.9,41.4,48.9,39.2z"/>
		<path class="st3" d="M48.9,39.2c0-7.5-9.2-11.3-14.4-5.8c-3.4,3.4-2.9,8.7,0.4,12c1.3,1.7,2.1,3.9,2,6.1l-0.3-0.3l7.6,0.1
			l-0.1,0.1c0-2.3,0.9-4.5,2.3-6.2C48,43.7,48.9,41.5,48.9,39.2L48.9,39.2z M48.9,39.2c0.1,2.3-0.9,4.5-2.5,6.1
			c-1.4,1.7-2.2,4-2.1,6.2v0.1h-0.1l-7.6,0.1h-0.3c0-1.7-0.4-3.4-1.3-4.9c-0.8-1.4-2.3-2.5-2.9-4.2c-1.4-3.2-0.6-7.3,1.9-9.6
			C39.6,27.6,49,31.5,48.9,39.2L48.9,39.2z"/>
	</g>
	<path class="st4" d="M42.9,50.3h-5c-0.7,0-1.3,0.5-1.3,1.3V55c0,0.7,0.5,1.3,1.2,1.3c0.5,1,1.4,1.6,2.5,1.6s2.1-0.6,2.5-1.6
		c0.7,0,1.2-0.6,1.2-1.3v-3.4C44.1,50.8,43.6,50.3,42.9,50.3z"/>
	<g>
		<path class="st3" d="M22.1,38.7c1.7-0.5,3.4-0.5,5.2,0C25.6,39.2,23.8,39.2,22.1,38.7L22.1,38.7z"/>
	</g>
	<g>
		<path class="st3" d="M52.8,38.7c1.7-0.5,3.4-0.5,5.2,0C56.2,39.2,54.5,39.2,52.8,38.7L52.8,38.7z"/>
	</g>
	<g>
		<path class="st3" d="M27.4,27.2c1.6,0.9,2.8,2.1,3.6,3.6C29.5,29.9,28.3,28.7,27.4,27.2L27.4,27.2z"/>
	</g>
	<g>
		<path class="st3" d="M40.6,21.3c0.5,1.7,0.5,3.4,0,5.2C40.2,24.8,40.2,23.1,40.6,21.3L40.6,21.3z"/>
	</g>
	<g>
		<path class="st3" d="M49.1,48.9c1.6,0.9,2.8,2.1,3.6,3.6C51.1,51.6,50,50.4,49.1,48.9L49.1,48.9z"/>
	</g>
	<g>
		<path class="st3" d="M53.9,27.2c-0.9,1.6-2.1,2.8-3.6,3.6C51.1,29.3,52.3,28.1,53.9,27.2L53.9,27.2z"/>
	</g>
	<g>
		<path class="st3" d="M32.2,48.9c-0.9,1.6-2.1,2.8-3.6,3.6C29.5,50.9,30.7,49.7,32.2,48.9L32.2,48.9z"/>
	</g>
	<path class="st5" d="M38.9,51.7c0,0,0.5-10.6-2.7-10.6c-1.1,0-0.9,3.6,4.5,3.6s4.8-4,4-4.3c-0.8-0.3-2.7,1.2-2.7,11.4H38.9z"/>
</g>
</svg>
