<?xml version="1.0" encoding="utf-8"?>
<!-- Generator: Adobe Illustrator 26.3.1, SVG Export Plug-In . SVG Version: 6.00 Build 0)  -->
<svg version="1.1" id="Capa_1" xmlns="http://www.w3.org/2000/svg" xmlns:xlink="http://www.w3.org/1999/xlink" x="0px" y="0px"
	 viewBox="0 0 80 80" style="enable-background:new 0 0 80 80;" xml:space="preserve">
<style type="text/css">
	.st0{fill:#E73164;}
	.st1{fill:#BA0C2F;}
	.st2{fill:#FFFFFF;}
	.st3{fill:#0067B9;}
	.st4{fill:#78B9EB;}
	.st5{fill:#A7C6ED;}
	.st6{fill:#006DF0;}
	.st7{fill:#661D32;}
</style>
<g>
	<circle class="st0" cx="41" cy="39" r="36.8"/>
	<path class="st1" d="M4.2,39C4.1,12.7,30.7-5.7,55.2,4.8c30.2,13.1,30.6,55.7,0.1,68.7C30.8,83.7,4.1,65.4,4.2,39L4.2,39z M4.3,39
		c0.3,32.3,39.5,48.3,62.4,25.7C80.9,51,81.1,26.9,66.9,13.1C44-9.4,4.5,6.8,4.3,39L4.3,39z"/>
</g>
<g>
	<rect x="54.9" y="44.8" class="st2" width="3.8" height="16.2"/>
	<path class="st3" d="M54.9,44.8c1.1-0.1,2.4-0.3,3.8-0.4c0.2,0,0.4,0.1,0.4,0.3c0.5,5.4,0.6,10.8,0.6,16.3c0,0.6-0.4,1-1,1
		c0,0-3.8,0-3.8,0c-0.5,0-1-0.4-1-1C54,55.6,54.3,50.1,54.9,44.8L54.9,44.8z M54.9,44.8c0.3,3.8,0.7,8.5,0.9,12.3
		c0,1.3,0.1,2.6,0.1,3.9l-1-1l3.8,0l-1,1c0-2.7,0-5.4,0.1-8.1c0.1-2.7,0.2-5.4,0.5-8.1c0,0,0.4,0.4,0.4,0.4
		C57.5,45.1,56.3,44.9,54.9,44.8L54.9,44.8z"/>
</g>
<g>
	<rect x="47.2" y="47.6" class="st4" width="3.8" height="13.3"/>
	<path class="st3" d="M51.1,61c-1.1,0.1-2.4,0.3-3.8,0.4c-0.2,0-0.4-0.1-0.4-0.4c-0.4-4.5-0.5-8.9-0.6-13.4c0-0.6,0.4-1,1-1
		c0,0,3.8,0,3.8,0c0.5,0,1,0.4,1,0.9C51.9,52,51.6,56.7,51.1,61L51.1,61z M51.1,61c-0.4-4.6-0.9-8.8-1-13.3c0,0,1,1,1,1l-3.8,0l1-1
		c0,2.2,0,4.4-0.1,6.7c-0.1,2.2-0.2,4.4-0.4,6.7c0,0-0.4-0.4-0.4-0.4C48.4,60.6,49.6,60.8,51.1,61L51.1,61z"/>
</g>
<g>
	<path class="st3" d="M62.5,61c-6.3,1.4-12.8,1.4-19.1,0C49.7,59.6,56.2,59.6,62.5,61L62.5,61z"/>
</g>
<g>
	<path class="st2" d="M37.7,19c3.8-1.2,7.8-1.2,11.6-0.7c0.3,0,0.5,0.3,0.5,0.6c-0.2,1-0.3,1.9-0.7,2.9c-0.3-1-0.5-1.9-0.7-2.9
		l0.7,0.7C45.3,20.2,41.4,20.2,37.7,19L37.7,19z"/>
</g>
<g>
	<path class="st2" d="M41.5,27.6c5.1-1.2,10.2-1.2,15.4-0.6c0.3,0,0.5,0.3,0.4,0.6c-0.1,1-0.3,1.9-0.6,2.9c-0.3-1-0.4-1.9-0.6-2.9
		l0.6,0.6C51.7,28.8,46.6,28.8,41.5,27.6L41.5,27.6z"/>
</g>
<g>
	<rect x="49.1" y="24.8" class="st4" width="0" height="0"/>
</g>
<g>
	<rect x="49.1" y="30.5" class="st4" width="0" height="0"/>
</g>
<g>
	<rect x="56.8" y="39" class="st4" width="0" height="0"/>
</g>
<g>
	<rect x="56.8" y="41.9" class="st4" width="0" height="0"/>
</g>
<g>
	<rect x="56.8" y="36.2" class="st4" width="0" height="0"/>
</g>
<g>
	<rect x="56.8" y="33.3" class="st4" width="0" height="0"/>
</g>
<g>
	<rect x="49.1" y="33.3" class="st4" width="0" height="0"/>
</g>
<g>
	<rect x="49.1" y="36.2" class="st4" width="0" height="0"/>
</g>
<g>
	<rect x="49.1" y="39" class="st4" width="0" height="0"/>
</g>
<g>
	<rect x="49.1" y="41.9" class="st4" width="0" height="0"/>
</g>
<g>
	<rect x="49.1" y="44.8" class="st4" width="0" height="0"/>
</g>
<g>
	<g>
		<path class="st5" d="M37.7,27.6h-9.5c0.1-3.4,1.9-6.6,4.7-8.6C35.8,21,37.6,24.2,37.7,27.6z"/>
		<path class="st3" d="M37.8,27.6c-3.1,0.4-6.6,0.5-9.8,0.2c0,0,0-0.3,0-0.3c0.4-3.5,1.9-7.2,5-9.2C36.1,20.3,38.1,24,37.8,27.6
			L37.8,27.6z M37.7,27.6c-0.5-3.2-2.3-6.2-5-8.1c0,0,0.6,0,0.6,0c-2.7,1.8-5,4.8-4.7,8.2c0,0-0.3-0.3-0.3-0.3
			C31.5,27,34.4,27.3,37.7,27.6L37.7,27.6z"/>
	</g>
	<g>
		<path class="st2" d="M37.8,28.6v21h-9.5v-21c0-0.3,0-0.6,0-1h9.5C37.7,27.9,37.8,28.2,37.8,28.6z"/>
		<path class="st3" d="M37.8,28.6c0,5.2,0.6,10.5,0.4,15.7c0,0-0.2,5.2-0.2,5.2c0,0.1-0.1,0.2-0.2,0.2c-3.2-0.1-6.4-0.1-9.5,0
			c-0.1,0-0.2-0.1-0.2-0.2c-0.2-5.5-0.3-11-0.3-16.4c0-1.8,0-3.6,0.1-5.5c0-0.2,0.2-0.4,0.4-0.4c3.1,0.1,6.3,0.4,9.5,0.4
			c0,0,0.1,0,0.1,0.1L37.8,28.6L37.8,28.6z M37.7,28.6c0,0,0-0.9,0-0.9c-2.8,0.2-6.4,0.3-9.4,0.4c0,0,0.4-0.4,0.4-0.4
			c0,0.9,0,1.8,0,2.7c0.1,6.4,0,12.8-0.3,19.2c0,0-0.2-0.2-0.2-0.2c3.2,0.1,6.4,0.1,9.5,0l-0.2,0.2C37.1,42.5,37.6,35.5,37.7,28.6
			L37.7,28.6z"/>
	</g>
	<g>
		<rect x="30.6" y="49.5" class="st5" width="4.8" height="2.9"/>
		<g>
			<path class="st3" d="M30.6,49.5c1.5-0.4,3.5-0.5,5.1-0.2c-0.2,1.1-0.2,2.2,0,3.3c0,0-0.3,0.1-0.3,0.1c-1.8,0.3-3.5,0.3-5.3,0.2
				C30.1,51.7,30.4,50.4,30.6,49.5L30.6,49.5z M30.6,49.6c0.2,1.1,0.4,2,0.4,2.8l-0.5-0.5c1.6-0.1,3.2,0,4.8,0.2
				c0,0-0.3,0.3-0.3,0.3c0.1-1,0.2-1.9,0-2.9c0,0,0.3,0.3,0.3,0.3C33.7,50.1,32.4,49.8,30.6,49.6L30.6,49.6z"/>
		</g>
	</g>
	<g>
		<polygon class="st5" points="22.5,47.6 28.2,45.7 28.2,39 22.5,44.8 		"/>
		<g>
			<path class="st3" d="M22.5,47.6c2.1-0.9,3.7-1.8,5.6-2.3l-0.3,0.4c0.3-2.2,0.3-4.4,0.1-6.7c0,0,0.6,0.3,0.6,0.3
				c-1.8,2-3.6,4-5.7,5.7c0,0,0.1-0.3,0.1-0.3C22.8,45.6,22.6,46.5,22.5,47.6L22.5,47.6z M22.5,47.7c-0.1-0.8-0.3-1.9-0.4-3
				c1.8-2.1,3.8-4,5.9-5.8c0,0,0.7-0.6,0.7-0.6L28.6,39c-0.3,2.3-0.2,4.6,0.1,6.9C26.6,46.8,24.3,47.3,22.5,47.7L22.5,47.7z"/>
		</g>
	</g>
	<g>
		<polygon class="st5" points="43.5,47.6 37.8,45.7 37.8,39 43.5,44.8 		"/>
		<g>
			<path class="st3" d="M43.5,47.7c-1.8-0.3-4.2-0.8-6.2-1.7c0.3-2.3,0.4-4.6,0.1-6.9c0,0-0.1-0.8-0.1-0.8l0.7,0.6
				c2.1,1.8,4.1,3.7,5.9,5.8C43.8,45.7,43.6,46.8,43.5,47.7L43.5,47.7z M43.4,47.6c-0.1-1.1-0.3-2-0.4-2.8c0,0,0.1,0.3,0.1,0.3
				c-2.1-1.7-3.9-3.7-5.7-5.7c0,0,0.6-0.3,0.6-0.3c-0.3,2.2-0.2,4.4,0.1,6.7c0,0-0.3-0.4-0.3-0.4C39.7,45.8,41.3,46.6,43.4,47.6
				L43.4,47.6z"/>
		</g>
	</g>
	<g>
		<rect x="31.6" y="30.9" class="st4" width="2.9" height="2.9"/>
		<path class="st6" d="M31.5,30.9c0.8-0.3,2-0.5,3-0.4c0.2,0,0.3,0.2,0.3,0.4c-0.1,0.5-0.2,1-0.3,1.4c0,0.5,0,1,0.1,1.4
			c0,0.1-0.1,0.2-0.2,0.3c-1,0.2-2,0.3-3,0.3c-0.3,0-0.5-0.2-0.5-0.5C31.1,32.7,31.3,31.6,31.5,30.9L31.5,30.9z M31.6,31
			c0.2,1.2,0.5,2,0.5,2.8l-0.5-0.5c1,0,1.9,0.1,2.9,0.3c0,0-0.3,0.3-0.3,0.3c0.2-1,0.1-1.9-0.1-2.9c0,0,0.4,0.4,0.4,0.4
			C33.4,31.5,32.7,31.2,31.6,31L31.6,31z"/>
	</g>
	<g>
		<path class="st6" d="M31.6,36.6c0.5-0.6,0.7-0.4,1.1-0.1c0.3,0.1,0.6-0.4,1.1-0.4c0.1,0,0.7,0.3,0.7,0.6c-0.2,0.3-0.5,0.4-0.7,0.5
			c-0.5,0.1-0.7-0.4-1.1-0.4c-0.1,0-0.2,0.2-0.4,0.3C32.1,37.2,31.5,36.9,31.6,36.6L31.6,36.6z"/>
	</g>
	<g>
		<path class="st6" d="M31.6,39.5c0.5-0.6,0.7-0.4,1.1-0.1c0.3,0.1,0.6-0.4,1.1-0.4c0.1,0,0.7,0.3,0.7,0.6c-0.2,0.3-0.5,0.4-0.7,0.5
			c-0.5,0.1-0.7-0.4-1.1-0.4c-0.1,0-0.2,0.2-0.4,0.3C32.1,40.1,31.5,39.7,31.6,39.5L31.6,39.5z"/>
	</g>
	<g>
		<path class="st6" d="M32.9,46.7c-0.6-0.6-0.4-1-0.1-1.6c0-0.5-0.5-1-0.4-1.6c0-0.2,0.3-1.1,0.6-1.1c0.3,0.4,0.4,0.7,0.5,1.1
			c0.1,0.6-0.4,1.1-0.4,1.6C33.4,45.6,33.6,46.1,32.9,46.7C33,46.7,33,46.7,32.9,46.7L32.9,46.7z"/>
	</g>
	<g>
		<path class="st2" d="M30.6,56.2h4.8c0.1,1.9-0.8,3.7-2.4,4.8C31.4,59.9,30.5,58.1,30.6,56.2z"/>
		<path class="st7" d="M30.6,56.2c1.5-0.4,3.5-0.5,5.1-0.2C35.6,57,35.3,58,35,59c-0.4,1-1.1,1.9-2,2.6
			C31.1,60.6,29.9,58.3,30.6,56.2L30.6,56.2z M30.6,56.2c0.4,1.7,1.3,3.3,2.6,4.3c0,0-0.6,0-0.6,0c1.5-0.9,2.8-2.5,2.4-4.3
			c0,0,0.3,0.3,0.3,0.3C33.7,56.8,32.4,56.5,30.6,56.2L30.6,56.2z"/>
	</g>
</g>
</svg>
