<?xml version="1.0" encoding="utf-8"?>
<!-- Generator: Adobe Illustrator 26.3.1, SVG Export Plug-In . SVG Version: 6.00 Build 0)  -->
<svg version="1.1" id="Capa_1" xmlns="http://www.w3.org/2000/svg" xmlns:xlink="http://www.w3.org/1999/xlink" x="0px" y="0px"
	 viewBox="0 0 300 300" style="enable-background:new 0 0 300 300;" xml:space="preserve">
<style type="text/css">
	.st0{fill:#3F67AD;}
	.st1{fill:#002F6C;}
	.st2{fill:#FFFFFF;}
	.st3{fill:#205492;}
	.st4{fill:#0067B8;}
	.st5{fill:#23751C;}
	.st6{fill:#E63164;}
	.st7{fill:#3CAF37;}
	.st8{fill:#F97D7D;}
	.st9{fill:#4C4443;}
	.st10{fill:#6C6463;}
	.st11{fill-rule:evenodd;clip-rule:evenodd;fill:#002F6C;}
</style>
<path class="st0" d="M29,125.7c30.6-0.3,61.1,0.1,91.8-0.5c0.7-0.1,1.3,0.3,1.4,1c0.1,0.7-0.3,1.3-1,1.4c-0.1,0-0.2,0-0.3,0
	c-30.3,0.6-61.5,1.3-91.8,0.5C27.4,128.1,27.2,125.7,29,125.7z"/>
<path class="st0" d="M97.8,79.3c5.1,22.7-26.2,35.4-40.4,21.1c-6.5-6.6-7.6-17.4-4-25.7c5.3-12.4,19-16,30.9-10.9
	C90.7,66.6,96.1,72,97.8,79.3z"/>
<path class="st1" d="M94.9,76.7c-2-5-6-9-11-10.9c-13.4-4.7-26.3-2-30.1,12.9c-2,7.9,0.2,17.4,7.1,22.3
	C76.8,112.2,103.2,96.7,94.9,76.7L94.9,76.7z"/>
<path class="st1" d="M30.1,57.2c0-0.8-1.2-0.7-1.3,0C27.1,74.7,27.9,93,28,110.6c0,2.6,0.9,2.8,2.6,2.9c26.2,1.7,62.2,0.8,88.4-0.4
	c0.9,0,1-1.6,0-1.7c-29.2-0.5-60,1.5-88.7-0.3C30.7,93.6,30.2,75,30.1,57.2z"/>
<path class="st1" d="M121.6,111.8c0.1,0.8,1.6,0.9,1.6,0c-0.3-18.4-0.2-36.9-0.7-55.2c-0.1-2.5-0.1-2.3-2.8-2.4
	c-28-1.1-59.2-0.6-87.1,1.1c-0.4,0-0.8,0.4-0.8,0.8c0,0.4,0.4,0.8,0.8,0.8c29.2-0.1,58.8-1.3,88-0.3
	C119.6,71.1,119.7,97.5,121.6,111.8z"/>
<path class="st2" d="M84.6,83.6c-3.4-2-8.3-5.2-12.1-7.3c-2.6-1.4-2.8,0.5-0.9,1.8c2.6,1.8,7.4,4.1,10.7,6.4
	c-3.8,2.4-7.5,4.8-11.4,7.2c-0.6-5.1-0.8-10.2-1.5-15.3c-0.1-0.9-1.4-0.7-1.4,0.2c0.2,5.7,0.9,11.3,1.1,16.9
	c0.1,0.5,0.6,0.9,1.1,0.8c0.1,0,0.2,0,0.3-0.1c3.3-1.7,11.3-6.5,14.3-9.1c0.4-0.4,0.4-1,0.1-1.4C84.8,83.8,84.7,83.7,84.6,83.6z"/>
<path class="st0" d="M179.5,69.5c4.2-0.3,4-3-0.3-2.7c-13.2,0.9-26.7,0.7-39.9,0.3c-5.8-0.1-6.4,2.3-0.4,2.5
	C151.8,70.1,166.6,70.3,179.5,69.5L179.5,69.5z"/>
<path class="st0" d="M192.4,115.6c0.2-4.3,0.2-8.7-0.1-13.1c-0.1-0.7-1.3-0.8-1.4-0.1c-0.6,3.4,0.1,9.5,0,13.2
	C190.9,116.5,192.3,116.4,192.4,115.6L192.4,115.6z"/>
<path class="st3" d="M30.6,24.6c16.7,0,141.2-0.9,147.8-0.6c14.5,0.6,15.3,17.6,13.6,17.8c-1.9,0.3-174.4-0.8-176.3-1
	C14.5,40.7,13.9,24.6,30.6,24.6z"/>
<path class="st2" d="M176,33.8c0,1.8,1.4,3.2,3.1,3.2c0.1,0,0.3,0,0.4,0c1.8-0.3,3-1.9,2.7-3.7c-0.3-1.8-1.9-3-3.7-2.7
	c-0.4,0.1-0.8,0.2-1.1,0.4C176.6,31.6,176,32.6,176,33.8L176,33.8z"/>
<path class="st2" d="M165.2,35.9c1,1.2,2.7,1.5,4.1,0.8c1.2-0.8,1.8-2.4,1.3-3.8c-0.5-1.4-2-2.3-3.5-2.1c-1.7,0.3-2.9,1.9-2.6,3.6
	C164.6,34.9,164.8,35.4,165.2,35.9z"/>
<path class="st2" d="M153.3,36.1c1.1,0.9,2.6,1.1,3.9,0.3c2.1-1.2,2.1-4.7-0.4-5.5c-1.4-0.4-3,0.1-3.9,1.3
	C152.1,33.4,152.2,35,153.3,36.1L153.3,36.1z"/>
<path class="st0" d="M190.9,45.7c0.3,13.9-1,27.8-0.2,41.7c0,0.8,1.4,0.8,1.4,0c-0.2-13.8,1.2-28,0.2-41.7
	C192.3,44.8,190.9,44.8,190.9,45.7L190.9,45.7z"/>
<path class="st0" d="M180.9,55.5c-15.6,0.7-30.8-0.3-46.3-0.3c-0.6,0-0.7,1.1-0.1,1.4c4.8,2.1,39.4,1.8,46.5,1.3
	c0.6,0,1.1-0.6,1.1-1.3C182,56,181.5,55.5,180.9,55.5z"/>
<path class="st0" d="M26.8,147.9c11.1,0.1,22.7,1.1,31.6,0.4c0.8-0.1,0.9-1.4,0.1-1.4c-10.5-0.3-20.5-1-30.4-1.2
	c-6.7-0.1-10.4-2.8-11.1-9.8c-1.2-11.8-0.7-26.8-0.8-38.8c-0.1-13.2,1.2-49.6,0.8-53.3c0-0.4-0.4-0.8-0.8-0.8
	c-0.4,0-0.7,0.3-0.8,0.6c-0.4,2.2-1.1,28.8-1.4,49.5c-0.1,13.1-0.7,31.1,0.6,43.7C15.4,143.5,19.9,147.9,26.8,147.9z"/>
<path class="st0" d="M147.2,145.7c-19,1.2-40.8,0.4-60.4,0.9c-0.8,0-0.8,1.5,0,1.5c19.4,0.5,41.1-0.4,60.4-0.3
	C148.4,147.8,148.4,145.7,147.2,145.7L147.2,145.7z"/>
<path class="st0" d="M137.4,80.5c-2.2,0.5-1.9,2,0.3,2c3.6,0,7.5-0.4,11.2-0.4c2.4,0,3.4-1.9-0.5-2.2
	C144.7,79.7,141,79.9,137.4,80.5L137.4,80.5z"/>
<path class="st4" d="M198.2,176.1c-1.7-5-4.2-9.6-7.6-13.7c-0.5-0.6,0.3-1.6,1-1.1c4.2,3.8,7.1,8.8,8.3,14.3c10-2.7,20.8,0,28.4,7.1
	c1-25.4-20.3-42.6-41.5-44.2c-3.1,7.3-16.8,10.1-19.4,2.6c-10.7,2.1-26.1,9.8-31.6,19c7,0,11.9-0.1,15.6,0.6c3.6,0.7,6,3.2,6.1,6.2
	c0.3,5.8,1,11.6,2.1,17.3c2.7-7,9.1-8.8,14.8-8.9C179.5,175.2,191.5,177.7,198.2,176.1L198.2,176.1z"/>
<path class="st5" d="M194.2,125.2c9.3-1.9,18.8-2.4,28.2-1.4c9.2,1,15,2.2,17.2,12.3c3.2,15.1-0.1,39.4-5.3,53.9
	c-4.5,12.5-12.7,11.3-23.6,12.2c-0.8,0.1-1.1,1.5-0.1,1.5c10.4,0.3,19.2-0.1,24-8.5c7.4-13.1,10-42.2,7.9-57.2
	c-1.4-9.8-5.6-14.5-15.6-15.8c-10.2-1.3-23.2-1.6-33.1,1.6c-0.4,0.1-0.6,0.6-0.5,1C193.4,125,193.8,125.3,194.2,125.2L194.2,125.2z"
	/>
<path class="st5" d="M241.2,127.8c6.7,2.4,13.9,5,18.8,10.5c11,12.3,5.1,32.5,2.4,46.9c-3,16-5.9,31.9-8.9,47.9
	c-0.9,5,0.9,6.5,1.8,2.1c3.2-15.9,6.1-31.9,9.2-47.9c2.9-15.1,8.8-35.3-1.2-48.9c-5.1-6.9-13.5-9.6-21.5-11.9
	C240.8,126.2,240.3,127.5,241.2,127.8L241.2,127.8z"/>
<path class="st5" d="M202.5,269.1c-0.4,1.6,2,2,2.3,0.4c3.5-14.7,8.1-32.1,9.8-46.7c1.3-11.5,0.4-19-12.7-20.2
	c-10.5-1-19.1,3.2-21,14.2c-2.5,14.4-1,37.6-0.5,53c0,0.4,0.3,0.7,0.7,0.7c0.4,0,0.7-0.3,0.7-0.7c0.4-15.4-0.3-31.2,0.7-46.4
	c0.6-10.4,3.1-18.1,15.2-18.8c13.3-0.7,15.9,4.4,14.7,16.7C211,237.1,204.9,259,202.5,269.1L202.5,269.1z"/>
<path class="st6" d="M266.7,246.2c1.4-2.7,6.2-7.6,8.9-7.6c2.3,0,0.8,4.5,1.6,7.1c5.9,0.5,7,0.5,11,4.3c0.5,0.5,1.1,0.2,0.7-0.5
	c-0.9-1.6-2.2-2.9-3.7-3.8c2-3,5.2-4.8,6.2-4.7c1.8,0.2-0.5,6.4,0.7,11.2c0.8,3.3,2.2,7.1,0.8,10.9c-1.1,3-2.8,5.7-7.9,7.3
	c-4.7,1.5-13.7,0.4-17.7-1.9c5.9-3.6,3.8-12.4-5.3-9.5c-12.2,3.9-18.4,4.8-31.3,2.6c-0.9-0.2-1.1,0.9-0.2,1
	c10.3,2.2,21.1,1.6,31.1-1.7c4.9-1.5,8.3,1.5,6,4.8c-2.4,3.3-8.7,4.5-12.6,5.1c-11.6,1.8-24,0.5-29.3-0.2
	c-10-1.2-4.9-26.6,21.1-30.1c7.4-1,15.1,1.1,19.3,3.8c-2,3.4-3.2,7.1-3.6,11c-0.1,0.8,0.8,0.6,0.9-0.2
	C264.1,252.2,265.3,249.1,266.7,246.2L266.7,246.2z"/>
<path class="st2" d="M240.7,243.7c-1.5,0.8-2.6,2.8-3.1,4.4c-0.6,1.7-0.7,3.5-0.2,5.3c0.2,0.8,1,0.9,1,0c0-1.6,0.3-3.2,1-4.7
	c0.3-0.5,1.6-2.7,2.1-3.5C242.1,244.3,241.6,243.3,240.7,243.7L240.7,243.7z"/>
<path class="st2" d="M248.4,241.9c-2.1,1.2-3.4,3.7-4.2,5.9c-0.8,2.4-0.8,4.9-0.2,7.3c0.2,0.8,1,0.7,1.1-0.1
	c0.2-2.8,0.7-6.8,2.7-9.4c0.6-0.8,1.2-1.7,1.7-2.6C250.1,242.2,249.1,241.5,248.4,241.9L248.4,241.9z"/>
<path class="st2" d="M254.9,243.5c-1.3,1.2-2.3,2.6-3.1,4.1c-1,2-1.3,4.3-0.9,6.5c0.2,0.8,1,0.9,1.1,0.1c0.2-2.2,1-4.2,2.2-6.1
	c0.7-1,1.5-2,2.3-2.9C258.8,243,257,241.7,254.9,243.5L254.9,243.5z"/>
<path class="st2" d="M285.9,258c0.8-0.5,1.9-0.3,2.4,0.5c0.6,0.9,1.3,0.4,0.9-0.7c-0.5-1.2-2-1.8-3.2-1.3c-0.3,0.1-0.5,0.3-0.8,0.5
	c-0.2,0.2-0.2,0.6,0,0.8C285.5,258,285.7,258.1,285.9,258L285.9,258z"/>
<path class="st2" d="M279.8,259.9c0.1,0.7,1.4,2.2,2.2,2.2c1,0,2.4-1.1,2.3-2.1S279.6,258.9,279.8,259.9L279.8,259.9z"/>
<path class="st2" d="M274.9,257.7c0.7-0.8,1.9-0.9,2.8-0.4c0.8,0.6,1.5-0.1,0.8-0.9c-1.1-1.1-2.9-1.2-4-0.1
	c-0.2,0.2-0.4,0.4-0.5,0.7C273.5,257.8,274.4,258.1,274.9,257.7L274.9,257.7z"/>
<path class="st7" d="M100.7,182.5c0.3-2.8,0.5-4.2-2.5-4.3c-8.6-0.4-14.6,1.7-19.9,5.8c-5.7,4.5-10.1,11.6-10.5,19
	c-0.1,0.4,0.2,0.7,0.6,0.8c0.4,0.1,0.7-0.2,0.8-0.6c1.3-6.9,4.5-13.2,10.2-17.6c6-4.7,12.4-6.1,19.9-5.6c-0.5,7.4-3.6,14.4-8.6,19.9
	c-6,6.4-11,7.8-19,9.6c-0.4,0.1-0.6,0.5-0.5,0.9c0.1,0.3,0.4,0.5,0.7,0.5c6.9-0.1,15.3-4.8,20-9.8C96.7,196,99.8,189.5,100.7,182.5z
	"/>
<path class="st8" d="M160.8,269.9c-2.3-5.1-8.2-11.7-14.5-10.4c-3.9,0.8-8.3,5-10.2,8.5c-1,1.8-0.6,3.9,1.7,4.2
	c5.3,0.5,10.6,0.6,15.9,0.4c5.2-0.1,12.9-0.4,17.8-1.7c0.9-0.2,0.5-1.5-0.3-1.5C167.8,269.2,164.3,269.6,160.8,269.9z"/>
<path class="st8" d="M114.5,272c6,0.3,14.1,0.3,19.7-1.1c0.9-0.2,0.5-1.5-0.3-1.5c-0.8,0-1.6,0-2.5,0.1c-1.3-3.1-2.8-6.3-5.9-8
	c-5-2.7-10.2,1.2-13.7,4.7C107.5,270.7,110,271.8,114.5,272z"/>
<path class="st7" d="M50.5,201.6c0.4,0,0.8-0.4,0.7-0.8c0-0.4-0.3-0.7-0.8-0.7c-8.1,0-15.8-1.3-23-5.2
	c-10.5-5.7-16.8-14.1-20.7-25.1c6.5-0.8,16.9-1.3,26,1.3c13.8,3.9,19.4,13.3,22,26.5c0.2,0.8,1.5,0.7,1.5-0.1
	c-2.3-26.5-26-31.9-48.7-29.5c-2.5,0.3-3,0.4-2,3c2.4,6.3,5.7,12.7,10.4,17.5C24.2,197.1,38.2,203.1,50.5,201.6z"/>
<path class="st9" d="M294.3,273.7c-19.5-0.5-20.4-0.4-40-0.4s-39.1,0.1-58.6,0.2c-38.9,0.1-77.7,0.2-116.6,0.3
	c-21.8,0.1-44-0.3-65.8,0.5c-0.8,0-0.8,1.3,0,1.4c19.5,0.6,39.1,0.2,58.6,0.2c19.5,0,39.1-0.1,58.6-0.1c38.9-0.1,77.7-0.3,116.6-0.3
	c21.9,0,25.2,0.6,47.1-0.1C295.2,275.3,295.2,273.8,294.3,273.7L294.3,273.7z"/>
<path class="st10" d="M77.2,270.2c1.8-9.4,4.2-22.7,4.8-32.1c2.2-0.2,2.5-0.4,3-2.8c0.4-1.9,0.7-3.9,0.9-5.8c0.2-2.8,0.6-4-2.6-4.1
	C70.1,225.2,54,225,41,225.9c-0.4,0-0.7,0.3-0.7,0.7c0,0.4,0.3,0.7,0.7,0.7c14.2,0.9,29.3-0.9,43,0.3c0,2.9-0.4,5.7-1,8.5
	c-14.1,1-27.5,0.8-41.6,0.7c-0.9-2.9-1.6-5.9-2.1-9c-0.1-0.8-1.5-0.8-1.5,0.1c0.1,3.1,0.7,6.2,1.7,9.1c0.5,1.5,1.6,1.8,3.3,1.8
	c12.7-0.1,24.7,0.3,37.4-0.5c-1.3,12.4-3.3,20.5-4.7,29.9C75.2,271.5,76.8,272.2,77.2,270.2L77.2,270.2z"/>
<path class="st5" d="M110.7,206.4c0.7,0,1-1.2,0.2-1.3c-4.8-1-10.2-1.3-14.2,2c-5,4.1-3.1,12.5-2.2,18.2c1.7,10.8,7.3,34,11.5,45.2
	c0.4,0.9,1.9,0.3,1.6-0.6c-3.4-11.8-8.4-28.8-11-44.8c-0.7-3.9-2.1-10.6-0.3-14.2C98.8,205.5,105.8,206.3,110.7,206.4L110.7,206.4z"
	/>
<path class="st10" d="M42.9,241.6c0.4,6.1,3.4,23.1,5.6,28.4c0.2,0.4,0.7,0.5,1.1,0.3c0.3-0.2,0.5-0.5,0.4-0.8
	c-2.3-9.3-3.9-16.3-5.8-28.2C44.2,240.4,42.8,240.7,42.9,241.6z"/>
<path class="st7" d="M60.9,183.4c0.2,0.3,0.7,0.4,1,0.2c0.3-0.2,0.4-0.6,0.2-0.9c-3.8-6.8-5-14.7-3.5-22.3
	c2.4-10.9,10.6-19.7,21.4-22.8c1.9,6.8,2.4,13.9,1.4,20.9c-1.8,12.1-6.6,18.5-14.2,27.2c-0.6,0.6,0.3,1.6,1,1.1
	c4.9-3.8,9.4-10.9,11.7-16.6c4.2-9.9,5.1-22.4,1.6-32.7c-0.7-1.9-0.9-2.1-2.8-1.5c-6.8,2.1-12.6,6.4-16.8,12.2
	C54.6,158.6,54.2,172.5,60.9,183.4z"/>
<path class="st7" d="M61.2,223.5c0,0.9,1.5,0.9,1.6,0c0-0.8,0.1-1.6,0.1-2.3c7-14.9,14-23,26.7-33.3c0.6-0.5-0.2-1.6-0.9-1.3
	c-9.6,4.8-21.2,20.1-25.6,30.1c1-21.9,2.8-37.6,8.3-59.6c0.2-0.8-1.1-1.2-1.4-0.4c-5.2,15.7-7.8,37-8.6,53.5
	c-6-13.5-18.1-24.3-31.6-30c-0.8-0.4-1.3,1-0.5,1.3c14.6,6.6,25.2,18.6,31.9,32.9C61.1,217.6,61.2,220.6,61.2,223.5z"/>
<path class="st11" d="M170.3,185.4c-1.3,1.7-2.4,1.9-3.2,4.3c-0.6,1.9-0.5,3.9,0.2,5.8c0.2,0.3,0,0.8-0.3,0.9
	c-0.3,0.1-0.7,0-0.9-0.3c-1.2-2.1-1.5-4.6-0.8-6.9c0.6-1.8,2.3-4.5,4.3-4.9c0.4-0.1,0.8,0.2,0.9,0.6
	C170.4,185,170.4,185.2,170.3,185.4z M174.7,189.1c0.2-0.3,0.2-0.8-0.1-1c-0.1-0.1-0.2-0.1-0.4-0.2c-2-0.1-3.7,2.7-4,4.5
	c-0.4,2.2,0.6,4.5,2.4,5.7c0.3,0.2,0.7,0.2,1-0.1c0.2-0.3,0.2-0.7-0.1-1c-1.2-1.1-1.8-2.7-1.5-4.3
	C172.4,190.2,174.1,189.7,174.7,189.1z M225.9,182.3c-0.2-0.9-1.6-0.8-1.6,0.1c0,6-2,12.3-12.5,14.4c-11.7,2.3-23.2-0.5-33.2-6.7
	c-0.3-0.2-0.7-0.1-0.9,0.2c-0.2,0.3-0.1,0.7,0.1,0.9c9.5,7.3,22.6,9.8,34.3,7.7C220.9,197.2,227.6,192.2,225.9,182.3L225.9,182.3z
	 M181.7,200.2c-1.2,0.1-18.5,0.6-19.7,0s-5.9-15.6-7-30.1c-0.3-4.2-1-6.1-6.1-6.9c-4.1-0.6-36.7-0.3-39.5,0
	c-2.5,0.3-4.4,1.2-4.2,6.2c0.5,11.8,6.7,34,10.1,35.8c3.7,2,61.9,1.5,66.2,0.6C185.1,205.2,184.4,199.9,181.7,200.2z M135.3,184.2
	c-0.6-2.7-2.6-4.4-5-4.3c-2.7,0.1-3.2,3.3-2.6,5.5c0.5,2.3,2.3,4.3,4.8,4.2C135,189.6,135.9,187,135.3,184.2z M139.2,248.2
	c-0.2-0.8-1.4-0.5-1.4,0.3c0.1,1.9,1.4,8.5,2,11.6c0.1,0.6,1.2,0.3,1.3-0.3C141.4,258.5,139.7,250,139.2,248.2L139.2,248.2z
	 M147.9,248.1c-0.4-0.6-1.5-0.2-1.2,0.6c1.2,3.4,2.4,5.9,3.2,9.7c0.2,0.8,1.4,0.6,1.4-0.2C150.9,254.5,149.7,251.1,147.9,248.1
	L147.9,248.1z M165.9,258c-1.1-3.1-1.7-6.4-1.7-9.7c0-0.4-0.4-0.7-0.8-0.6c-0.3,0-0.5,0.2-0.6,0.5c-0.4,3.1-0.1,6.2,0.9,9.2
	c0.9,3,3.1,5.6,2.6,8.9c-0.1,0.4,0.2,0.8,0.6,0.9c0.3,0.1,0.6-0.1,0.8-0.4C169.3,263.9,166.9,260.5,165.9,258L165.9,258z
	 M124.8,248.5c-0.2-0.3-0.6-0.4-0.9-0.3c-0.3,0.2-0.4,0.5-0.3,0.8c0.6,2.7,3,7.9,1.4,10.3c-0.2,0.3-0.1,0.8,0.3,1
	c0.2,0.1,0.3,0.1,0.5,0.1C129.1,259.3,126.2,250.5,124.8,248.5L124.8,248.5z M139.4,234.5c-1.9-7.3-4-19.6,2.1-25.4
	c-9.5-0.1-17.4-0.3-19.3-0.3c-3.6,0-8,0.9-9.1,6c-1.3,6.3,3.4,20.6,8,30.9c3.3,0.3,14.4,0.4,18.5-0.1
	C139.2,241.9,139.2,238.2,139.4,234.5L139.4,234.5z M144.9,209.1c-10.1,6.6-2.8,28.2,0.2,36.9c6.6,0.4,13.2,0.3,19.7-0.1
	c-0.7-3.2-0.9-11.9,0.6-13.7s5.8-1.7,12.2-1.6c0-7.4-0.3-18.7,4.2-22.2C177.8,209.4,160.1,209.3,144.9,209.1L144.9,209.1z
	 M203.2,175.9c-9.6,3.7-14.6,2.5-24.4,2c-6.7-0.3-15.9,1.5-17.7,9.1c-0.1,0.4,0.2,0.7,0.6,0.8c0.3,0.1,0.6-0.1,0.8-0.4
	c3-7.9,12.3-8.1,19.5-7.5s15.6,1.2,22-2.8c0.3-0.2,0.4-0.7,0.2-1C203.9,175.9,203.5,175.8,203.2,175.9L203.2,175.9z M200.7,140.1
	c-7.5-6.1-9.6-19.6-12.6-26c-5.9-12.7-18.5-16.7-31.6-13.8c-10.2,2.3-10.1,13.2,5,11.9c8-0.7,11.8-2.7,11.9-2.7
	c0.9,3.5,4.8,8.9,5.3,7.9c1.1-2.4,3.5-1.4,3.9,0.8c0.6,3.2-1.2,4.9-3.1,4.8c-0.7,0,2.6,11.4,3.4,13.5c0.2,0.6,0.9,0.5,1.4,0.5
	C188.4,137.2,195.5,137.8,200.7,140.1L200.7,140.1z M198.6,96.4c-8.2-6.4-22.6-13.6-33-14.2c-0.7-0.1-1.4,0-2,0.3
	c-9.5,2.6-23,9.2-30.5,15.5c-0.5,0.4-0.1,1.1,0.4,1.2c5.2,1.6,10.2,2.7,15,4.7c0.9,0.4,1.3-1.1,0.4-1.4c-4.4-1.8-9-3.3-13.6-4.3
	c8.5-5.6,19.9-12.5,29.8-14.6c9.7,0.6,23.6,7.3,31.4,13.2c-5.7,1.2-11.3,2.8-16.8,4.7c-0.3,0.1-0.5,0.5-0.4,0.9
	c0.1,0.3,0.5,0.5,0.8,0.4c6.4-1.7,11.7-3.5,18.2-4.8c0.5-0.1,0.7-0.6,0.6-1.1C198.8,96.6,198.7,96.5,198.6,96.4L198.6,96.4z
	 M132.2,122.9c1.2,2.7,1.8,5.5,1.9,8.5c-0.1,0.8-1.2,0.7-1.4,0.1c-0.4-1-0.5-2.2-0.8-3.3c-0.1,1.9-0.1,3.8-0.2,5.7
	c0,0.4-0.3,0.7-0.7,0.7c-0.4,0-0.7-0.3-0.7-0.6c-0.2-1.9-0.3-3.8-0.3-5.7c-0.5,1.3-1,2.7-1.2,4.1c-0.1,0.4-0.4,0.6-0.8,0.5
	c-0.3-0.1-0.5-0.4-0.5-0.7c0.2-1.8,1.1-6.4,2-8C129.9,123.3,131.4,121.6,132.2,122.9L132.2,122.9z M132.4,100.7
	c0.1-0.3,0.5-0.5,0.9-0.4c0.3,0.1,0.4,0.4,0.4,0.6c-1,6.3-1.5,12.7-1.4,19c0,0.9-1.4,0.8-1.4-0.1
	C130.6,114.7,131.2,105.7,132.4,100.7L132.4,100.7z M158.5,93.3c-0.1-0.6-1.2-0.8-1.3-0.1c-0.1,1-0.2,4.4-0.2,5.4
	c0,0.4,0.3,0.7,0.7,0.8c0.4,0,0.7-0.3,0.7-0.7C158.7,96.9,158.7,95.1,158.5,93.3L158.5,93.3z M173.5,92.4c-3.8-2.1-9.6-2.3-13.6-1.2
	c-0.4,0.1-0.6,0.4-0.5,0.8c0.1,0.4,0.4,0.6,0.8,0.5c0,0,0.1,0,0.1,0c4.3-0.8,8.8-0.3,12.9,1.5c-0.2,1.8-0.2,3.6-0.1,5.3
	c0,0.4,0.3,0.7,0.7,0.7c0.4,0,0.7-0.3,0.7-0.7c-0.1-1.5-0.1-2.9,0-4.4C174.5,93.5,174.7,93.1,173.5,92.4L173.5,92.4z M170.7,136.9
	c2.4-1.1,4.6-2.7,6.3-4.7c0.5-0.6-0.4-1.4-1-0.9c-2.8,2.4-5.8,5.2-9.8,4.8c-4.3-0.5-5.5-4.8-6.4-8.3c-0.2-0.8-1.5-0.6-1.3,0.2
	c0.9,4.1,2.4,8.7,7.2,9.5c1.2,0.2,2.4,0.1,3.6-0.2c0.2,1.4,0,2.8,0.1,4c0.1,0.4,0.4,0.6,0.8,0.5c0.3-0.1,0.5-0.3,0.6-0.6
	C170.9,139.8,170.9,138.3,170.7,136.9L170.7,136.9z M172.9,126.3c-0.1-0.4-0.5-0.6-0.9-0.5c-0.3,0.1-0.5,0.3-0.5,0.6
	c0.3,2.5-2.2,3.1-4.1,3.6c-0.4,0.1-0.6,0.4-0.5,0.8s0.4,0.6,0.8,0.5C170.2,131.1,173.6,129.9,172.9,126.3L172.9,126.3z M165.4,125.9
	c-0.5,0.1-1,0.2-1.6,0.1c0.2-0.8,0.4-1.5,0.6-2.3c0.1-0.3-0.1-0.7-0.5-0.8c-0.3-0.1-0.7,0.1-0.8,0.4c-0.3,0.7-0.5,1.5-0.7,2.2
	c-0.3,0.6,0,1.4,0.6,1.7c0.1,0.1,0.3,0.1,0.5,0.1c0.8,0.1,1.6,0.1,2.3-0.1c0.4-0.1,0.6-0.5,0.4-0.9
	C166.2,125.9,165.8,125.7,165.4,125.9C165.4,125.9,165.4,125.9,165.4,125.9L165.4,125.9z M159.6,122.8c0-0.6-0.3-1.2-0.9-1.3
	c-0.9-0.1-1.1,0.7-1,1.4c0.1,0.6,0.5,1.5,1.3,1.4C159.7,124.3,159.7,123.3,159.6,122.8z M169.1,119.7c-0.2-0.6-0.7-0.9-1.3-0.7
	c-0.1,0-0.2,0.1-0.2,0.1c-0.6,0.6-0.6,1.7,0,2.3c0.3,0.3,0.6,0.4,1,0.5C169.5,121.6,169.4,120.5,169.1,119.7z M175.7,116.3
	c-1.2-0.3-2.5-0.3-3.7,0c-0.9-1.8-2.7-3.8-4.9-3.4c-2.4,0.4-3.1,3.1-2.9,5.2c-0.7-0.1-1.4,0.1-2,0.5c-0.7-1.5-1.8-3-3.5-3.3
	c-3.8-0.6-4.5,4.4-3.8,7.1c0.5,2.1,2.1,4.4,4.6,4.1c3.7-0.5,3-6.1,3.1-6.2c0.4-0.6,1.1-0.9,1.8-0.7c0.5,2.6,2.5,5.7,5.6,5
	c2.9-0.7,3.3-4.6,2.6-7c1-0.1,2.1-0.1,3.1,0c0.4-0.1,0.6-0.4,0.5-0.8C176.1,116.5,175.9,116.4,175.7,116.3L175.7,116.3z M169.9,123
	c2.1-1,1.4-4.9,0.6-6.4c-0.6-1.1-2.1-2.9-3.6-2.2c-1.3,0.6-1.6,2.5-1.3,4.3C166.2,121.6,167.5,124.1,169.9,123L169.9,123z
	 M161,120.1c-0.3-1.7-1.2-3.3-2.9-3.3c-2.2-0.1-2.4,3.7-2,5.2c0.3,1.4,1.4,3.2,3,3.1C161.1,124.9,161.2,121.3,161,120.1L161,120.1z"
	/>
</svg>
