<?xml version="1.0" encoding="utf-8"?>
<!-- Generator: Adobe Illustrator 26.3.1, SVG Export Plug-In . SVG Version: 6.00 Build 0)  -->
<svg version="1.1" id="Capa_1" xmlns="http://www.w3.org/2000/svg" xmlns:xlink="http://www.w3.org/1999/xlink" x="0px" y="0px"
	 viewBox="0 0 1000 1000" style="enable-background:new 0 0 1000 1000;" xml:space="preserve">
<style type="text/css">
	.st0{fill:#661D32;}
	.st1{fill:#FFFFFF;}
	.st2{fill:#6C6463;}
	.st3{fill:#3CB037;}
	.st4{fill:#E73164;}
</style>
<path class="st0" d="M500.2,224.1c-18.9,15.4-36.2,32.6-51.6,51.5c-4.5,5.5-8.9,11.2-11.8,17.7c-1.2,2.3-1.8,4.9-1.7,7.6
	c0.3,2.1,1,4.1,2,6c8.9,17.7,22.4,32.7,39.2,43.1c2.4,1.5,5.2,2.9,7.9,2.2c1.7-0.6,3.2-1.6,4.4-2.8l35.7-32.5c5-4.5,10-9.1,13.4-15
	s4.8-13.2,2-19.3"/>
<path d="M499.6,223.5c-14.6,11.6-28.2,24.4-40.7,38.2c-6.3,6.7-12.1,13.7-17.5,21.1c-2.7,3.6-4.9,7.6-6.6,11.8
	c-0.9,2.2-1.2,4.5-1,6.8c0.4,2.2,1.2,4.4,2.3,6.4c7.4,14.7,18.1,27.5,31.2,37.5c3.3,2.7,6.9,5.1,10.7,7.1c1.9,1,4,1.4,6.1,1.1
	c2-0.6,3.8-1.6,5.2-3.1c7.5-6.8,15-13.6,22.4-20.4l11.2-10.2c3.3-3,6.8-6,9.8-9.3c5.7-6.1,10.4-14.1,9.5-22.8
	c-0.2-2-0.7-3.9-1.5-5.8c-0.7-1.5-2.9-0.2-2.2,1.3c3.3,7.8-0.3,16.5-5.2,22.7c-2.7,3.2-5.6,6.2-8.7,8.9c-3.5,3.2-7,6.4-10.5,9.5
	L493,343.5l-5.3,4.9c-1.5,1.4-3.2,2.8-5.4,2.6s-4.2-1.5-6-2.6s-3.3-2.1-4.9-3.3c-12.8-9.1-23.4-21-31-34.7c-2-3.6-4.7-7.7-4-12
	s3.3-8.3,5.6-11.9c4.7-7.3,10.6-14,16.4-20.5c11.6-13.2,24.1-25.5,37.4-37.1c1.7-1.4,3.3-2.9,5-4.3
	C501.6,223.9,500.4,222.8,499.6,223.5L499.6,223.5z"/>
<path class="st1" d="M523.1,394.2c-55.4,155.5-91.2,317.3-106.5,481.7c-0.4,4.3-0.8,8.7-2.8,12.5c-2.5,4.9-7.2,8.3-10.8,12.5
	s-6.1,10.4-3.3,15.1c14.2,3.1,28.8,4.5,43.4,4.1c11.8-0.3,25.3-2.9,31.5-13c3.2-5.2,3.8-11.5,4.5-17.5
	c5.3-46.4,17.5-91.7,36.3-134.4c15-34.1,34.4-67.7,36.1-104.9c0.5-10.6-0.5-21.2,0.5-31.7c2.2-23.2,13.8-44.4,23.4-65.6
	c22.2-48.9,34.6-106.4,13.7-155.9"/>
<path class="st2" d="M416,880.4c-0.3,2.8-1.1,5.5-2.3,8c-2.5,4.9-7.2,8.3-10.8,12.5s-6.1,10.4-3.3,15.1c14.2,3.1,28.8,4.5,43.4,4
	c11.8-0.3,25.3-2.9,31.5-13c3.2-5.2,3.8-11.5,4.5-17.5c0.1-0.5,0.1-1,0.2-1.5C457.5,889.8,435.2,889.1,416,880.4z"/>
<path d="M522.2,393.9c-13.4,37.3-25.7,75-36.8,113c-11.1,38.2-21.1,76.8-29.9,115.6c-8.7,38.7-16.3,77.6-22.8,116.7
	c-6.4,39.1-11.6,78.4-15.6,117.7c-0.5,5-1,9.9-1.5,14.9c-0.4,4.7-0.5,9.6-2.2,14.1c-3,8-11.8,11.9-15,19.9c-1.4,3.1-1.5,6.6-0.3,9.7
	c0.8,1.8,1.8,1.7,3.7,2.1c2.5,0.5,5,1,7.5,1.4c9.8,1.6,19.7,2.3,29.7,2.2c13.7-0.1,31.6-1.9,37.9-16.3c3.5-8,3.5-17.7,4.6-26.2
	c1.3-9.5,2.9-19,4.8-28.4c7.7-38.3,20.6-74.9,37.1-110.3c7.7-16.6,15.7-33.2,21.5-50.6c2.9-8.7,5.1-17.7,6.5-26.8
	c1.3-9.4,1.3-18.7,1.2-28.2c-0.1-10.1,0.4-19.9,2.9-29.7c2.4-9.1,5.5-17.9,9.4-26.4c7.4-16.9,15.7-33.3,21.9-50.7
	c11.9-33.6,18.3-70.5,11.1-105.9c-1.8-8.6-4.4-16.9-7.8-25c-0.6-1.5-3-0.8-2.4,0.7c14,33.5,12.7,70.9,4,105.6
	c-4.6,17.5-10.7,34.6-18.3,51.1c-7.5,16.4-15.9,32.5-20.3,50.1c-2.1,8.9-3.1,18.1-2.9,27.3c0,9.6,0.4,19.1-0.8,28.6
	c-2.3,18.3-8.7,35.9-16,52.8c-7.2,16.7-15.4,32.9-22.5,49.7c-7.3,17.4-13.5,35.3-18.6,53.5c-5.2,18.4-9.2,37-12.1,55.8
	c-1.4,8.9-1.7,18.2-3.7,26.9c-2,8.5-7.4,14.3-15.6,17.2c-7.5,2.7-15.6,3-23.5,3c-10.1,0-20.1-0.9-30-2.7c-1.8-0.3-5.6-0.4-6.9-1.6
	c-1.5-1.4-0.9-4.7-0.4-6.5c1.3-4.3,4.5-7.5,7.7-10.6c2.7-2.7,5.5-5.4,7.2-8.9c1.8-3.7,2.3-7.8,2.7-11.8
	c3.8-38.8,8.4-77.6,14.3-116.2c5.8-38.4,12.8-76.5,20.9-114.5c8.1-38.1,17.3-76,27.7-113.6c10.3-37.4,21.6-74.5,34-111.3
	c3.1-9,6.2-18,9.3-26.9C524.3,393.4,522.6,392.9,522.2,393.9L522.2,393.9z"/>
<path class="st1" d="M545.7,398.1c0,106.7,43.1,253.4,47.1,265.8c21.7,67.4,44.7,134.6,76.7,197.8c5.5,10.9,11.5,22.8,9.2,34.8
	c-1,4.9-3.2,10.1-0.8,14.5c10.1,18.6,52.7-19.4,58.2-29.5c9.7-18-3.5-35.5-12.2-51c-33-58.5-5-152-37.1-211
	c-8.5-15.5-20.4-29.9-22.9-47.4c-2-14,2.5-28.1,5.2-42c10-49.4-9.9-118.4-39.8-159.1"/>
<path class="st2" d="M736,881.5c5-9.2,4-18.2,0.7-26.9c-8.1,3.6-16.5,6.2-25.1,8c-12.6,2.7-25.5,4.3-38,7.3
	c3.9,8.5,6.9,17.5,5.1,26.5c-1,4.9-3.2,10.1-0.8,14.5C687.9,929.5,730.5,891.6,736,881.5L736,881.5z"/>
<path d="M560.6,530.7c4.9,35.7,12.4,70.9,22.5,105.5c7.9,27.2,16.9,54.1,26.1,80.9c13.6,40,28.5,79.7,46.2,118.1
	c4.4,9.6,9,19,13.7,28.4c4.7,9.2,9.7,19.4,8.8,30c-0.6,6.9-5,14.8,0.9,20.6c2.7,2.7,6.5,3.3,10.2,2.9c10.4-1.2,20.1-8.4,28.1-14.7
	c4.4-3.4,8.6-7.1,12.5-11.1c2.8-2.6,5.3-5.6,7.4-8.8c9.5-16-0.7-33.4-8.9-47.4c-8.1-13.8-13.7-28.9-16.6-44.7
	c-6.3-33.5-4.4-67.9-6.8-101.8c-1.1-16-3.1-32.2-7.8-47.7c-2.1-7.2-4.9-14.2-8.4-20.8c-4.3-8.2-9.6-15.8-14.2-23.9
	c-4.8-8.4-8.8-17.5-9.6-27.3c-0.9-11.2,2-22.2,4.4-33c3.5-16.1,4.6-32.6,3.2-49c-2.9-34.1-12.9-67.3-29.5-97.2
	c-3.7-6.7-7.8-13.2-12.4-19.5c-1-1.3-3.2,0-2.2,1.3c19.5,26.8,31.9,59.1,38.2,91.6c3.3,16.3,4.5,33,3.6,49.6c-0.7,8.5-2,16.9-4,25.2
	c-2.2,10-4.6,20.2-3.9,30.6c1.3,18.5,13.1,33.4,21.9,48.9c7.9,13.7,12.3,28.8,15,44.3c5.6,32.9,3.9,66.4,6.3,99.6
	c1.2,15.7,3.1,31.4,7.7,46.5c2.1,7.1,4.8,13.9,8.2,20.5c4,7.8,9.1,15,12.7,23c3.9,8.6,6,18.2,2.2,27.2c-1.6,3.9-4.4,7-7.2,10
	c-7.8,8.3-16.7,15.3-26.6,21c-6,3.4-18.6,9.7-23.3,1.1c-2.5-4.5,0.3-10,1-14.7c0.6-4.3,0.5-8.7-0.5-12.9
	c-2.1-9.6-7.1-18.3-11.5-26.9c-18.7-37.5-34.3-76.5-48.4-115.9c-10.7-29.9-20.8-60-30.3-90.4c-9.2-29.3-16.7-59.2-22.3-89.4
	c-1.8-10-3.5-20-4.8-30.1C562,529.1,560.4,529.6,560.6,530.7L560.6,530.7z"/>
<path class="st0" d="M607.2,196.6c-19.5,0.4-39,1.5-58,5.8s-37.5,12.1-52.5,24.5c-7.4,6.1-14,13.7-16.6,22.9
	c-1.8,6.1-1.7,12.5-1.2,18.9c1,14.8,4,29.5,8.8,43.6c7,20.6,18.1,40.6,17.5,62.4c-0.2,6.6-0.6,14.8,5.1,18.1c2.4,1.4,5.8,2,6.3,4.7
	c0.3,1.7-0.8,3.3-1,5c-0.5,4.4,4.8,6.9,9,7.9c34.7,8.4,70.9,8.3,105.6-0.1c8.5-2.1,18.4-6.3,19.8-14.9c0.7-4.7-1.4-9.9,0.5-14.2
	c1.1-2.4,3.2-4.1,4.9-6.1c5.6-6.5,6.8-15.6,7.1-24.1c0.6-14.9-0.6-29.8-2.1-44.6c-3.1-30.8-7.8-62.8-25.3-88.3
	C628.8,208.8,626.4,198.7,607.2,196.6"/>
<path d="M607.2,195.8c-24.9,0.4-50.2,2-74,10.1c-10.8,3.6-21,8.6-30.4,15c-8.8,6.1-17.5,13.7-22.1,23.5c-5.2,11.1-3.8,23.9-2.2,35.7
	c1.7,12.5,4.7,24.7,9,36.5c4,11.2,9,22.1,12.4,33.5c1.7,5.6,2.9,11.4,3.5,17.2c0.5,5.1-0.1,10.3,0.3,15.4c0.4,4.3,1.6,8.8,5.5,11.2
	c1.7,1,4,1.4,5.4,2.9c0.6,0.7,0.7,1.8,0.3,2.6c-0.5,1.3-0.8,2.6-0.8,4c0.3,4.6,5.3,7,9.1,8.1c6,1.6,12,2.8,18.1,3.7
	c24.9,4,50.2,3.8,75-0.6c5.8-0.9,11.6-2.2,17.3-3.8c4.4-1.2,8.6-3.3,12.2-6.1c3.6-2.8,5.6-7.1,5.6-11.7c0-2.8-0.6-5.7-0.4-8.5
	s1.9-4.9,3.8-7c3.6-3.8,6.1-8.4,7.3-13.5c1.2-5.4,1.8-10.9,1.7-16.4c0.3-13.2-0.8-26.3-2-39.4c-2.2-22.6-5-45.5-13.2-66.8
	c-2-5.2-4.3-10.3-7-15.2c-2.3-4.2-5.1-8.1-7.6-12.1c-3.6-5.9-7.2-11.6-13.5-14.9c-4.2-2-8.7-3.2-13.3-3.6c-1.4-0.1-1.4,2,0,2.2
	c4.6,0.4,9.1,1.7,13.2,4c2.8,1.7,5.3,4,7.2,6.8c1.9,2.6,3.4,5.4,5.1,8.1c2.6,4.2,5.3,8.2,7.6,12.6c10.3,19.6,14.6,41.7,17.2,63.4
	c1.5,11.9,2.7,23.9,3.3,35.8c0.4,6.4,0.5,12.9,0.4,19.4c0,5.4-0.5,10.8-1.8,16c-0.6,2.4-1.5,4.7-2.8,6.9c-1.4,2.2-3.1,4.3-5,6.1
	c-1.7,1.8-2.9,4.1-3.3,6.6c-0.4,2.7,0.1,5.5,0.3,8.2c0.4,4.4-1.6,8.7-5.1,11.3c-3.5,2.7-7.8,4.3-12.1,5.5
	c-11.7,3.1-23.7,5.1-35.8,5.9c-12.1,1-24.3,1-36.4,0c-6.2-0.5-12.3-1.2-18.4-2.3c-3-0.5-6.1-1.1-9.1-1.7c-2.8-0.5-5.6-1.2-8.3-2
	c-2-0.5-3.9-1.6-5.4-3c-1.8-2-0.6-3.9-0.1-6.1c0.5-2.1-0.4-4.2-2.2-5.4c-1.7-1.2-3.8-1.6-5.4-2.8c-3.4-2.5-3.7-7.4-3.8-11.3
	c-0.1-5.3,0.2-10.4-0.5-15.7c-1.5-11.4-5.5-22.3-9.7-33c-4.3-11-8.6-21.9-11.4-33.3c-1.5-6-2.6-12-3.5-18.1
	c-0.9-6.1-1.4-12.2-1.4-18.4c-0.1-5.8,1.2-11.5,3.6-16.7c2.4-4.6,5.6-8.8,9.3-12.4c7.9-7.6,17-13.8,26.9-18.4
	c21.5-10.4,45.3-14.1,68.9-15.5c6.1-0.4,12.2-0.6,18.3-0.7c0.5,0,0.9-0.4,0.9-0.9C608.2,196.1,607.8,195.8,607.2,195.8L607.2,195.8z
	"/>
<path class="st1" d="M494.7,130.1c-5.6,9.9-0.5,23.9-7.5,33c-0.7,0.8-1.3,1.7-1.7,2.7c-0.5,2.1,1,3.7,3,4.9
	c3.9,2.1,3.7,7.7,4.1,11.5c0.5,4,0.7,8.1,1.5,12.1c0.7,3.4,2.1,6.9,4.9,8.9c2.3,1.6,5.1,2.3,7.8,2.2c4.1-0.1,8.1-1.6,12.2-1.9
	c1.4-0.1,3-0.1,4,0.8c0.7,0.7,1.1,1.5,1.3,2.4c1.7,5,3.3,10,4.8,15c0.3,1.4,0.9,2.6,1.9,3.6c1.4,1.1,3.3,1,5,0.7
	c13.2-1.9,25-9.1,32.8-19.8c0.8-0.9,1.3-2,1.3-3.2c-0.3-1.1-0.9-2.2-1.7-3c-7.2-8.1-11.9-18.4-14.4-28.9c-4-16.7,3.6-38.5-9.2-52.5
	c-3.1-3.3-7.1-5.6-11.5-6.6c-7.5-1.6-15.2-0.9-22.3,2c-6.2,2.5-14.3,7.3-15.3,14.6"/>
<path d="M493.9,129.6c-2.5,4.5-3.1,9.6-3.4,14.6s-0.3,10.5-2.6,15.1c-0.5,1.1-1.2,2.1-1.9,3.1c-1,1-1.6,2.2-1.9,3.6
	c-0.3,2.6,1.7,4.4,3.7,5.6s2.6,3.4,3,5.5c0.4,2.4,0.5,4.9,0.8,7.3c0.6,5.7,0.6,12.3,4.1,17.2c3.6,5,9.8,5.5,15.5,4.4
	c3-0.6,6.2-1.6,9.3-1.4c1.8,0.1,2.2,1.3,2.8,2.8c0.6,1.7,1.1,3.4,1.7,5.2c1,3.2,2,6.5,3.1,9.8c0.8,2.5,2.2,4.6,5,4.9
	c2.6,0.3,5.4-0.4,7.9-1c2.6-0.7,5.2-1.5,7.7-2.6c5-2.1,9.7-5,13.8-8.6c2.1-1.8,4-3.8,5.7-5.9c1.5-1.9,3.9-4.3,3.2-7
	c-0.4-1.2-1.1-2.3-2-3.2c-1-1.2-2-2.4-3-3.7c-1.8-2.4-3.3-4.9-4.7-7.5c-2.8-5.3-4.9-10.9-6.3-16.7c-1-4.9-1.5-9.8-1.4-14.8
	c0-9.9,0.9-20.4-2.9-29.8c-1.8-4.8-5-9-9.1-12c-4.8-3.4-10.6-4.6-16.4-4.6c-5.8,0.1-11.6,1.4-16.9,3.8c-4.3,1.9-8.5,4.5-11.3,8.3
	c-1.4,1.8-2.3,4-2.6,6.3c-0.1,1.1,1.6,1.7,1.8,0.5c0.8-4.6,4.4-8,8.2-10.4c4.2-2.7,8.9-4.5,13.8-5.4c5.7-1.1,12-1.1,17.5,1
	c4.8,1.9,8.7,5.4,11.2,9.8c4.8,8.3,4.4,18.5,4.3,27.7c-0.2,4.8,0,9.6,0.4,14.4c0.6,5,1.9,10,3.8,14.7c2,5.3,4.6,10.3,7.8,14.9
	c0.7,1,1.5,2,2.2,3c1.1,1.1,2.1,2.3,3,3.6c0.7,1.3,0,2.4-0.8,3.5c-0.8,1.1-1.7,2.2-2.6,3.2c-6.9,7.8-16.1,13.2-26.3,15.4
	c-2,0.4-5.6,1.6-7.4-0.1c-1-0.9-1.2-2.5-1.6-3.7c-0.5-1.6-1-3.2-1.5-4.7c-1-3.1-2-6.3-3-9.4c-0.9-2.6-2.3-4.1-5.2-4.2
	c-5.8-0.2-11.5,3-17.4,1.5s-7.5-7.6-8.2-12.9c-0.4-3-0.6-5.9-1-8.9c-0.2-2.1-0.4-4.2-0.8-6.3c-0.4-2-1.4-3.9-2.9-5.3
	c-1.7-1.4-4.8-2.5-3-5.2c0.6-1,1.5-1.9,2.1-2.9c0.6-1,1.1-2.1,1.5-3.1c0.8-2.2,1.3-4.6,1.5-6.9c0.5-4.9,0.2-9.9,1.1-14.8
	c0.4-2.4,1.1-4.7,2.2-6.8c0.2-0.4,0.1-1-0.3-1.2C494.7,129.1,494.2,129.2,493.9,129.6L493.9,129.6z"/>
<path d="M500.5,155.3l-0.1,0.2L500.5,155.3l-0.2,0.2c0,0,0.1-0.1,0.1-0.1l-0.2,0.1h0.1c0.1,0,0.2-0.1,0.3-0.1l-0.2,0.1l0.2-0.1h-0.3
	c0.1,0,0.1,0,0.2,0h-0.3c0.1,0,0.1,0,0.2,0.1l-0.3-0.1c0.1,0,0.1,0.1,0.2,0.1l-0.2-0.2c0.1,0.1,0.1,0.1,0.2,0.2l-0.2-0.2
	c0.1,0.1,0.2,0.2,0.2,0.4l-0.1-0.3c0,0.1,0.1,0.2,0.1,0.3v-0.3c0,0.1,0,0.2,0,0.3l0-0.3c0,0.1,0,0.2-0.1,0.2l0.1-0.3
	c0,0.1-0.1,0.1-0.1,0.2L500.5,155.3l-0.2,0.2L500.5,155.3C500.5,155.3,500.5,155.3,500.5,155.3l0.2-0.1
	C500.7,155.2,500.6,155.2,500.5,155.3l0.4-0.1h-0.2h0.3l-0.2-0.1l0.3,0.1l-0.1-0.1l0.2,0.2c0,0-0.1-0.1-0.1-0.1l0.2,0.2l-0.3-0.4
	l0.2,0.2l0-0.1l0.1,0.3l0,0c-0.1-0.2-0.2-0.4-0.3-0.5l-0.2-0.2c-0.1-0.1-0.3-0.1-0.4-0.1c-0.1,0-0.2,0-0.3,0c-0.1,0-0.2,0-0.3,0.1
	c-0.1,0-0.2,0.1-0.2,0.1c-0.1,0.1-0.2,0.2-0.3,0.3c-0.1,0.2-0.2,0.5-0.2,0.7c0,0.4,0.1,0.7,0.4,1c0.7,0.7,1.9,0.8,2.6,0.1
	c0.1-0.1,0.2-0.2,0.3-0.4c0.1-0.2,0.2-0.3,0.2-0.5v-0.1c0-0.1,0-0.3,0-0.4c0-0.4-0.1-0.7-0.3-1.1c0-0.1-0.1-0.2-0.1-0.2
	c-0.1-0.2-0.2-0.3-0.4-0.5c-0.3-0.3-0.6-0.4-1-0.5c-0.3-0.1-0.5-0.1-0.8,0c-0.2,0-0.3,0.1-0.5,0.2c-0.4,0.3-0.7,0.8-0.6,1.3v0.2
	c0,0.1,0.1,0.2,0.1,0.3c0.1,0.2,0.3,0.3,0.5,0.3c0.2,0,0.3,0,0.5,0C500.1,155.7,500.3,155.5,500.5,155.3L500.5,155.3z"/>
<path d="M497.1,149.4c0.3,0.1,0.7,0.1,1,0h0.2h-0.2c0,0,0.3,0,0.3,0h0.1c-0.2,0-0.3,0-0.2,0c0.2,0.1,0.4,0.1,0.6,0.1
	c0.2,0,0.4,0,0.6,0.1l-0.5-0.1c0.6,0.1,1.1,0.2,1.7,0.3l-0.5-0.2h0.1c0.5,0.3,1,0.3,1.6,0.2c0.6-0.2,1.1-0.6,1.3-1.2
	c0.5-1,0-2.2-1-2.6c-0.1,0-0.2-0.1-0.3-0.1c-1.5-0.3-3.1-0.3-4.6,0c-0.5,0.1-1,0.5-1.2,0.9c-0.2,0.4-0.3,0.9-0.2,1.3
	c0.1,1,1,1.8,2,1.8c1.4-0.1,2.8-0.1,4.2,0.1l-0.5-0.1c0.7,0.1,1.4,0.3,2.1,0.3l-1-3.9l-0.4,0.2c-0.6,0.4-1,1.1-0.9,1.9
	c0.1,0.7,0.6,1.3,1.3,1.6l0.5,0.1c1.1,0.2,2.2-0.6,2.4-1.7c0.1-1-0.4-1.9-1.3-2.3c-0.6-0.2-1.2-0.2-1.9-0.3c-0.5-0.1-1-0.1-1.5-0.1
	c-1-0.1-2-0.1-2.9,0l0.5,4.1h0.1l-0.6,0.1c0.6-0.1,1.1-0.1,1.7-0.1c0.6,0,1.1,0.1,1.7,0.1l-0.5-4h-0.1l0.5-0.1
	c-0.9,0-1.8,0.1-2.7,0.3c-0.2,0.1-0.4,0.1-0.6,0.2l-0.3,0.3c-0.1,0.1-0.1,0.1,0,0s0,0-0.1,0l-0.2,0.1c-0.4,0.3-1,0.7-1.1,1.3
	C496.2,148.6,496.5,149.2,497.1,149.4L497.1,149.4z"/>
<path d="M532.5,152.1c-1.1,0.3-2,1.2-2.2,2.3c-0.3,0.6-0.3,1.4,0,2c0.2,0.4,0.7,0.7,1.1,0.7c0.5,0,1-0.3,1.2-0.8
	c0.2-0.6-0.1-1.2-0.6-1.4c-0.6-0.3-1.3-0.2-1.7,0.2c-0.2,0.3-0.3,0.7-0.2,1c0.2,0.3,0.5,0.6,0.9,0.6c0.2,0,0.4,0,0.5-0.1h-0.2h0.2
	h-0.3h0.1l-0.2-0.1l0.1,0.1l-0.2-0.2l0.1,0.1l-0.2-0.2c0,0,0,0,0,0.1l-0.1-0.2c0,0,0,0.1,0,0.1v-0.3v-0.3c0,0,0,0.1,0,0.1l0.1-0.2
	c0.1-0.1,0.2-0.2,0.2-0.2l0.2-0.1h-0.1h0.3h-0.1h0.3h-0.1l0.2,0.1c-0.1-0.1,0.1,0.1,0.2,0.2s0,0,0,0l0.1,0.2c0,0,0-0.1,0-0.1v0.3
	c0-0.3,0-0.7,0-1v0.2c0-0.2,0.1-0.4,0.2-0.6c0,0,0-0.1,0-0.1l0,0.1c0,0,0-0.1,0.1-0.1c0-0.1,0.1-0.2,0.2-0.3c0.1-0.2-0.1,0.1,0,0
	l0.1-0.1l0.1-0.1c0,0,0.2-0.1,0,0s0,0,0,0l0.1-0.1c0.2-0.1-0.1,0,0,0l0.2-0.1c0.4-0.1,0.7-0.6,0.6-1c0,0,0,0,0,0
	c-0.1-0.4-0.6-0.7-1-0.6L532.5,152.1z"/>
<path d="M501.8,180.4c1.1-0.4,2.1-0.9,3-1.6c0.5-0.3,0.9-0.7,1.4-1.1c0.5-0.4,0.9-0.9,1.2-1.4c0.3-0.4,0.3-1.1-0.2-1.4
	c-0.4-0.3-1.1-0.3-1.4,0.2c-0.1,0.1-0.3,0.3-0.4,0.4l-0.1,0.1c-0.1,0.1,0.2-0.2,0,0s-0.3,0.4-0.5,0.6c-0.3,0.4-0.7,0.7-1.1,1.1
	l-0.6,0.5c-0.2,0.2,0.1-0.1,0,0l-0.2,0.1l-0.3,0.2c-0.4,0.3-0.9,0.6-1.3,0.8c-0.4,0.2-0.5,0.7-0.3,1.1
	C501.1,180.3,501.5,180.5,501.8,180.4L501.8,180.4z"/>
<path d="M494.7,120.4c1,6.4,5.7,11.7,11.1,15.1s11.7,5.5,17.6,8.1c0.5,0.2,1,0.5,1.4,0.9c0.3,0.4,0.4,0.9,0.5,1.3l1.3,7.1
	c0.8-2.4,2.6-4.3,5-5.1c2.4-0.8,5.1,0,6.7,2c0.9,1.4,1.3,3,1.2,4.6c0,2.8-0.8,5.6-2.2,8c-0.5,0.7-0.8,1.5-0.9,2.3
	c0.1,0.6,0.3,1.1,0.6,1.6c1.1,1.8,2.2,3.6,3.3,5.4c0.9,1.7,2.1,3.2,3.7,4.4c2.8,1.9,6.6,1.5,10,1c1.7-0.3,3.6-0.7,4.6-2.1
	c0.4-0.7,0.6-1.5,0.7-2.3c1.6-9.9,2.8-19.8,3.7-29.8c0.4-4.5,0.7-9-0.3-13.4c-1.8-8.4-8.3-15.4-16.2-19.1s-16.8-4.2-25.4-2.8
	s-16.6,4.7-24.4,8.3c-5.3,2.5-11.2,6-12.2,11.8c-0.9,5.4,2.9,10.5,6.6,14.6c-0.5-7.1,1.8-14.2,6.5-19.6"/>
<path d="M493.9,120.6c1.1,7.6,6.9,13.4,13.3,17c3.8,2.1,7.7,3.9,11.8,5.4c1.2,0.5,2.3,0.9,3.5,1.4c1,0.4,1.5,0.6,1.7,1.7
	c0.5,2.4,0.9,4.8,1.3,7.1c0.2,1.3,2,1,2.4,0c1.2-3,4.3-5.5,7.7-4.1c3.6,1.4,3,6.5,2.2,9.5c-0.3,1-0.7,1.9-1.2,2.8
	c-0.5,0.7-0.9,1.6-1.2,2.4c-0.5,2,1,3.7,2,5.3c1.8,2.9,3.4,6.6,6.5,8.5s6.6,1.5,9.9,1c1.6-0.1,3.2-0.6,4.6-1.3
	c1.3-0.9,2.2-2.4,2.4-4c1.5-8.4,2.5-16.9,3.3-25.4c0.8-7.8,1.8-16-1.4-23.4c-2.7-5.9-7.2-10.8-12.9-14c-13.8-7.8-30.6-5-44.6,0.6
	c-3.5,1.4-7,2.9-10.4,4.6c-2.9,1.3-5.5,3.2-7.8,5.4c-2.2,2.2-3.4,5.1-3.6,8.2c-0.1,3.6,1.6,7.1,3.7,9.9c1.1,1.4,2.3,2.8,3.6,4.1
	c0.6,0.6,2.1,0.2,2-0.8c-0.6-6.8,1.6-13.6,6.1-18.8c0.9-1.1-0.6-2.6-1.6-1.6c-4.8,5.7-7.2,13-6.9,20.4l2-0.8
	c-4.1-4.9-9-11.6-4.2-17.7c1.9-2.2,4.2-4,6.8-5.2c3.2-1.7,6.4-3.2,9.8-4.5c13.4-5.5,29.4-8.9,42.9-1.8c5.4,2.8,9.9,7.2,12.6,12.7
	c3.2,6.8,2.2,14.6,1.5,21.9c-0.8,8.2-1.8,16.4-3.1,24.5c-0.3,1.6-0.3,3.3-2.1,3.9c-1.4,0.5-2.9,0.8-4.5,0.8
	c-3.5,0.4-6.7-0.1-8.9-3.1c-1.2-1.7-2.2-3.5-3.3-5.3c-0.7-0.9-1.3-1.9-1.7-3c-0.2-0.9,0.9-2.1,1.3-3c1.5-3.2,2.4-7.5,1.2-11
	c-1.1-3.1-4.3-5-7.6-4.5c-3.5,0.4-6,3.2-7.2,6.3h2.4c-0.5-2.4-0.9-4.8-1.4-7.1c-0.4-2.1-1.7-2.7-3.5-3.4c-4.1-1.7-8.3-3.1-12.2-5.1
	c-6.9-3.4-13.8-8.8-15.2-16.8C495.3,119.1,493.8,119.6,493.9,120.6L493.9,120.6z"/>
<path class="st0" d="M585,198c24.2-2.5,48.6-2.7,72.9-0.3c7.1,0.7,14.2,1.6,20.9,4.1c2.5,0.8,4.8,2.2,6.6,4.1
	c1.3,1.7,2.2,3.6,2.8,5.6c6.3,18.8,7.3,38.9,2.9,58.3c-0.6,2.8-1.6,5.7-4,7.2c-1.6,0.8-3.3,1.1-5.1,1.1l-48.2,2.5
	c-6.7,0.3-13.6,0.7-20.1-1.1s-12.7-5.9-15.1-12.2"/>
<path d="M585,198.8c18.3-1.7,36.8-2.1,55.2-1.2c9.1,0.3,18.1,1.1,27.1,2.5c4.1,0.6,8.2,1.7,12.1,3.2c1.8,0.7,3.4,1.7,4.7,3
	c1.3,1.5,2.2,3.3,2.8,5.3c5.6,16.3,7.1,33.8,4.3,50.8c-0.3,2.1-0.7,4.2-1.2,6.3c-0.3,1.7-0.8,3.4-1.6,4.9c-2.1,3.8-6.9,3.1-10.6,3.3
	l-27.6,1.4l-13.9,0.7c-4.4,0.2-8.9,0.5-13.3,0.4c-7.5-0.3-15.4-2.3-20.5-8.2c-1.1-1.3-2-2.8-2.7-4.4c-0.6-1.5-3.1-0.9-2.5,0.7
	c2.8,6.9,9.3,11.3,16.3,13.1c9,2.4,18.7,1.1,27.9,0.7l29.6-1.5l7.2-0.4c2.2,0,4.5-0.2,6.7-0.5c3.8-0.7,5.9-3.7,6.9-7.2
	c1.1-4.2,1.9-8.4,2.4-12.7c0.6-4.5,0.8-9,0.8-13.5c0-9.1-1.2-18.1-3.4-26.9c-0.5-2.1-1.2-4.3-1.8-6.4c-0.6-2-1.4-4-2.4-5.9
	c-2.1-3.5-5.8-5.2-9.4-6.4c-8.8-3-18.3-3.6-27.5-4.3c-19.4-1.5-38.8-1.3-58.2,0.6c-2.5,0.2-4.9,0.5-7.4,0.8
	C584,197.3,583.9,198.9,585,198.8L585,198.8z"/>
<path class="st1" d="M672.4,212.9c-7.8,18.5-5.6,36.8,1,55.7c0.5,1.5,1.2,3.1,2.5,4c1.1,0.5,2.3,0.8,3.6,0.8
	c19.5,0.7,38.9,0,58.3-2.2c17.5-2,35.3-5.4,49.9-15.3c12.6-8.6,21.7-21.5,27.8-35.4s9.5-28.9,12.3-43.9c2.4-12.6,4.4-25.3,6.1-38
	c-8.1-1.8-16.5-2.4-24.8-1.9c-3.8,0.2-7.8,0.8-11,3c-2.9,2-4.8,5.2-6.7,8.2c-10.2,16.8-22.3,32.3-35.9,46.4c-3,3-6,6.1-9.7,8.1
	c-4.5,2.4-9.6,3.3-14.6,4c-14.4,1.9-28.9,2.4-43.3,1.5c-4.1-0.3-8.5-0.6-12.2,1.2s-10.2,23.9-8.2,27.4"/>
<path d="M671.7,212.4c-4.1,9.4-5.9,19.7-5.2,29.9c0.3,5.1,1.1,10.1,2.3,15c0.7,2.6,1.4,5.2,2.2,7.8c0.7,2.1,1.2,4.6,2.5,6.5
	s3.2,2.6,5.4,2.7c2.7,0.2,5.3,0.2,8,0.2c5.6,0.1,11.2,0.1,16.8,0c11-0.3,22.1-1,33.1-2.2c18.8-2.1,38.5-5.6,53.9-17.3
	c15-11.3,24.4-28.1,30.3-45.7c3.2-9.9,5.7-20,7.5-30.3c2.1-10.9,3.9-21.8,5.5-32.7c0.4-2.6,0.7-5.3,1.1-7.9c0-0.5-0.4-1-0.9-1.1
	c-8.5-1.9-17.2-2.5-25.9-1.9c-3.7,0.3-7.6,0.9-10.8,3.1s-5.1,5.4-7,8.5c-8.7,14.2-18.7,27.5-29.8,39.9c-2.8,3-5.6,6.1-8.5,8.9
	c-2.8,2.9-6.3,5.3-10.1,6.8c-3.9,1.3-7.9,2.2-11.9,2.6c-4.6,0.6-9.2,1-13.7,1.3c-9,0.6-18.1,0.6-27.1,0.1c-3.9-0.2-8-0.7-11.8,0.3
	c-1.9,0.4-3.6,1.5-4.6,3.1c-2.4,3.7-3.8,8.3-5,12.5c-0.7,2.3-1.2,4.7-1.6,7.1c-0.4,1.8-0.5,3.6-0.4,5.4c0,0.7,0.2,1.4,0.5,2
	c0.8,1.4,2.9,0.2,2.2-1.3c-0.1-0.2,0,0.2,0-0.1s-0.1-0.2-0.1-0.4c0-0.3-0.1-0.5-0.1-0.8c0-0.8,0-1.6,0.1-2.4
	c0.3-2.2,0.7-4.3,1.2-6.4c1-4.5,2.5-8.9,4.6-13c0.3-0.7,0.7-1.4,1.2-2c0.3-0.4,0.6-0.7,1.1-0.9c3.5-1.6,7.6-1.1,11.3-0.9
	c8.8,0.6,17.6,0.6,26.4,0.1c4.3-0.2,8.7-0.6,13-1.1c4-0.4,8-1,12-1.9c3.7-0.9,7.2-2.5,10.3-4.8c3-2.4,5.9-5,8.5-7.9
	c11.1-11.7,21.1-24.3,29.9-37.8c2.1-3.3,4.1-6.6,6.2-9.9s4.7-5.9,8.6-7s7.8-1.2,11.7-1.2c4.3,0,8.6,0.3,12.8,0.9
	c2.1,0.3,4.3,0.7,6.4,1.2l-0.9-1.1c-1.4,10.7-3.1,21.3-5,31.9c-1.8,9.9-3.7,19.8-6.3,29.5c-4.8,17.7-12.5,35.2-26,48.1
	c-13.5,12.9-31.5,18.2-49.6,20.9c-20.8,2.9-41.7,4-62.7,3.3c-1.2,0-2.4,0-3.7-0.1c-1.2,0.1-2.4-0.3-3.4-1.1c-1.5-1.6-2-4.4-2.7-6.4
	c-1.6-4.8-2.8-9.8-3.7-14.8c-1.7-9.8-1.3-19.8,1.2-29.4c0.7-2.5,1.5-4.9,2.4-7.2C673.6,212.2,672.1,211.6,671.7,212.4L671.7,212.4z"
	/>
<path class="st1" d="M907.7,110.4c-70.5,5.4-141.3,5.4-211.9,0.1c-2.7-0.2-5.7-0.3-7.8,1.3c-3,2.4-2.7,6.9-2.1,10.7
	c14,91.3,33.8,186.2,6.7,274.5c-13.2,42.8-37.3,84.2-34.2,129c1.3,18.6,7.3,36.7,7.8,55.3c0.5,19.5-5.1,38.7-16,54.8
	c-5.6,8.3-12.6,15.9-15.9,25.3c-13.5,38.5,61.2,34.5,80.7,35.4c52.5,2.6,105.1,4.6,157.7,3c17.5-0.5,40.3-4.5,45.1-24.6
	c6.4-26.9,12.9-53.9,14.2-81.5c2.3-48.3-11.3-97.4-0.7-144.5c4.6-20.4,14-38.7,20.7-58.4c7.3-21.5,12.9-43.6,16.7-66.1
	c10.8-63.8,8.6-134.8-11-196.9c-2.2-6.9-4.6-14.2-10.1-19s-22.9,0.9-37.1,1.1"/>
<path d="M907.7,109.4c-66.6,4.9-133.5,5.1-200.2,0.4c-3.9-0.3-7.8-0.6-11.7-0.9c-3-0.2-6.1-0.3-8.6,1.5c-4.8,3.6-3.1,10.7-2.3,15.7
	c2.4,15.4,4.9,30.8,7.3,46.1c4.9,31.8,9.5,63.6,11.4,95.7c1.9,31.1,1.3,62.6-4.1,93.4c-2.6,15.1-6.5,30-11.4,44.6
	c-4.8,14.1-10.5,28-15.7,42c-10.3,27.7-18.6,56.5-14.7,86.3c2.1,15.7,6.5,31.1,6.9,47c0.4,15.1-2.9,30-9.6,43.5
	c-3.3,6.3-7.1,12.3-11.4,17.9c-4.1,5.6-8.2,11.3-10.6,17.9c-2.2,6.1-2.8,13,0.5,18.8c6.8,12,24.1,15.1,36.5,16.8
	c14.2,2,28.4,1.9,42.7,2.3c31,0.9,62,2.9,93,3.4c16.9,0.3,33.8,0.3,50.6,0c12-0.2,24.2,0,36-2.8c9.3-2.3,18.7-6.8,23.8-15.4
	c3.2-5.4,4.1-12,5.6-18c1.9-8.2,3.8-16.5,5.5-24.8c3.3-15.5,5.4-31.2,6.3-47.1c0.8-16-0.2-32.1-1.5-48.1c-2.5-31.5-6.3-63.7,0.5-95
	c3.3-15.3,9.5-29.7,15.2-44.2c5.9-14.9,10.9-30.2,14.8-45.8c7.6-29.6,12.1-60,13.5-90.5c1.4-30.2-0.2-60.4-4.8-90.3
	c-2.3-15-5.6-29.8-9.8-44.4c-1.8-6.3-3.6-12.7-6.4-18.7c-2-4.3-5.2-9.5-10-10.8c-4.6-1.2-9.8-0.3-14.4,0.3
	c-6.7,0.9-13.4,2.2-20.2,2.4c-0.7,0-1.3,0.6-1.3,1.3s0.6,1.3,1.3,1.3l0,0c6.4-0.3,12.8-1,19.1-2c4.7-0.7,11.6-2.3,16.1,0
	c5.3,2.7,7.9,10.7,9.6,15.9c2.2,6.6,4.1,13.4,5.9,20.2c7.4,28.9,11.6,58.5,12.4,88.3c1.8,60.9-8.4,121.6-31.1,178.1
	c-5.7,14.2-11.2,28.4-13.9,43.6c-2.6,14.7-3.1,29.6-2.7,44.5c1,30.9,6,61.7,4.7,92.7c-0.7,16.3-3.2,32.5-6.5,48.6
	c-1.5,7.5-3.2,15-5,22.5c-1.5,6.4-2.4,13.4-6,19c-5.5,8.7-16,12.5-25.7,14.2c-12.9,2.3-26.5,1.8-39.5,1.9
	c-32.6,0.3-65.2-0.6-97.7-1.9c-13-0.5-25.9-1.5-38.9-1.8c-6.3-0.2-12.6-0.2-18.9-0.4c-14.8-0.5-31.2-1.3-44.9-7.7
	c-5.2-2.4-10.5-6-12.5-11.7c-3-8.5,1.9-17.7,6.5-24.6c3.9-5.9,8.5-11.3,12.2-17.3c10.9-18,15.7-39.1,13.5-60
	c-1.5-15.2-5.7-30-7.1-45.3c-1.3-14.7,0.4-29.3,3.9-43.6c6.8-28.3,19.6-54.6,28.5-82.2c9.3-28.5,13.8-58.3,14.8-88.2
	c2.2-61.3-9-122-18.5-182.3c-0.6-3.7-1.3-7.4-1.7-11.1s-0.2-8,4.3-8.8c3.4-0.6,7.4,0.2,10.8,0.4c4.1,0.3,8.2,0.5,12.3,0.8
	c16.4,1,32.8,1.7,49.2,2.1c32.4,0.8,64.8,0.5,97.2-1c15.6-0.7,31.2-1.6,46.8-2.9C909,111.3,909,109.3,907.7,109.4L907.7,109.4z"/>
<path class="st1" d="M868,109.4c-7.5-4.9-16.1-7.9-25.1-8.8c-1.8-0.3-3.7-0.2-5.5,0.2c-3.6,1-6.3,4.2-7.7,7.7s-1.5,7.3-1.7,11.1
	c-0.1,2.8,0.3,6.3,2.9,7.2c2,0.7,4.2-0.7,5.3-2.5s1.6-3.9,2.4-5.9c-2,2.4-2.4,5.8-1,8.6c0.9,1.8,3,3.4,5,2.8c3.4-0.9,2.9-6,5.2-8.7
	c-0.5,2.2-1.1,4.5-0.5,6.7s2.6,4.2,4.8,3.9c3-0.4,4.1-4.2,4.4-7.2c0.9,2.2,0,5.2,1.6,7c1.4,1.2,3.5,1.3,5,0.2
	c1.4-1.1,2.5-2.6,3.1-4.3c1.4-3.4,2.1-7.1,2.1-10.7c-0.1-1,0.1-2,0.5-2.9c0.4-0.6,1-1,1.4-1.6s0.3-1.6-0.3-1.8"/>
<path d="M868.4,108.8c-4.8-3.4-10.1-5.9-15.7-7.5c-2.9-0.8-5.8-1.4-8.7-1.8c-2.9-0.4-5.8-0.6-8.5,0.6c-4.8,2.1-7.3,7.2-8.1,12.1
	c-0.5,2.8-0.7,5.6-0.6,8.4c0,2.1,0.4,4.4,1.9,6c1.8,1.8,4.8,2,6.8,0.3c2.6-2,3.1-5.2,4.3-8c0.4-1-0.9-2.5-1.8-1.4
	c-1.7,2.1-2.5,4.9-2,7.6c0.5,2.5,2.2,5.1,4.9,5.8c2.2,0.4,4.4-0.7,5.3-2.8c1-2,1.2-4.4,2.6-6.2l-2-1.2c-0.6,2.6-1.3,5.4-0.3,8
	c0.7,2.2,2.6,3.7,4.9,4.1c4.6,0.5,6.1-4.9,6.5-8.4l-2.4,0.3c1,2.9-0.2,6.8,3.3,8.4c3.3,1.5,6.5-1,8-3.8c1.9-3.7,2.8-7.7,2.9-11.8
	c-0.1-0.9-0.1-1.9,0.2-2.8c0.3-0.8,1.1-1.2,1.5-1.9c0.7-1.1,0.4-2.6-0.7-3.3c0,0-0.1,0-0.1-0.1c-1.4-0.7-2.6,1.4-1.2,2.1
	c-0.2-0.1-1.6,1.9-1.7,2.3c-0.4,1.3-0.5,2.7-0.4,4c-0.1,3.2-0.8,6.4-2.1,9.3c-0.8,1.9-2.9,5.2-5.4,3.9c-1.2-0.6-1.2-2-1.3-3.2
	c0-1.2-0.2-2.4-0.5-3.6c-0.2-0.6-0.9-1-1.5-0.8c-0.5,0.1-0.9,0.6-0.9,1.1c-0.2,2-1,6.2-3.7,6.1c-1.6-0.1-2.8-1.6-3.1-3
	c-0.5-2,0-4.1,0.5-6c0.3-1.1-1.2-2.1-2-1.2c-1,1.3-1.7,2.8-2.1,4.4c-0.4,1.3-0.8,3.2-2.2,3.9c-2.1,1-3.9-1.5-4.4-3.2
	c-0.6-2.1-0.2-4.4,1.2-6.1l-1.9-1.1c-0.9,2.1-1.3,4.7-3,6.4c-1.4,1.4-3.6,1.8-4.6-0.3c-0.6-1.7-0.8-3.5-0.6-5.3c0-2.5,0.3-5,0.8-7.5
	c0.9-4,3.3-8.2,7.5-9.3c2.4-0.7,5.1-0.3,7.5,0.1c2.5,0.3,4.9,0.9,7.3,1.5c5.3,1.5,10.3,3.7,15.1,6.4
	C868.5,110.6,869.1,109.3,868.4,108.8L868.4,108.8z"/>
<path d="M491,333.3c-9.5,16.5-23,30.8-39.9,39.6c-16.8,8.6-36,11.1-54.4,7.1c-20.2-4.3-38.1-15.4-53-29.6
	c-7.4-7.2-14.2-14.9-20.3-23.1c-6.3-8.1-12.1-16.5-17.3-25.3c-5.2-9-9.9-18.6-17.4-25.9c-3.4-3.2-7.2-6-11.2-8.3
	c-3.9-2.4-7.9-4.7-11-8.1c-1.6-1.6-2.8-3.5-3.7-5.6c-0.6-1.4-2.6-0.2-2,1.2c3.8,8.9,13.4,12.8,20.9,18c8.7,6.1,14,15.6,19.1,24.6
	c2.5,4.5,5.1,9,8,13.3s6,8.8,9.1,13c6.1,8.5,12.8,16.6,20,24.1c14.5,15,32.1,27.2,52.3,32.9c18.7,5.4,38.7,4.2,56.6-3.3
	c17.5-7.5,32-21,42-37.2c1.3-2.1,2.5-4.3,3.7-6.5C492.9,333.3,491.6,332.5,491,333.3L491,333.3z"/>
<path d="M264,237.7c2,3.8,4.8,7.1,8.2,9.6c0.4,0.2,1,0.1,1.2-0.3c0.2-0.4,0.1-1-0.3-1.2c-3.2-2.4-5.8-5.4-7.7-8.9
	C264.9,235.9,263.5,236.7,264,237.7L264,237.7z"/>
<path d="M273.3,227c1.5,4.4,4.6,8.2,8.6,10.7c1,0.6,1.9-0.9,0.9-1.5c-3.6-2.2-6.4-5.6-7.9-9.6C274.5,225.6,273,226,273.3,227
	L273.3,227z"/>
<path d="M283.8,213.8c3.8,6.7,8.8,12.6,14.7,17.4c0.9,0.7,2.2-0.5,1.3-1.3c-5.7-4.8-10.7-10.6-14.6-16.9c-0.2-0.4-0.7-0.5-1.1-0.3
	C283.7,212.9,283.6,213.4,283.8,213.8L283.8,213.8z"/>
<path d="M306.4,254.7c0.3-6.6-0.3-13.3-1.6-19.8c-0.3-1.6-0.7-3.2-1.2-4.8c-0.3-1.2-1.2-3.3,0.1-4.2c1.9-1.4,5,0.9,6.5,1.9
	c4.7,3.1,9.2,6.8,11.9,11.8c1.6,2.9,2.3,6,3.5,9.1c1.1,2.8,2.5,5.4,4.1,7.9c6.3,9.5,15.4,17.2,24.5,23.8c8.9,6.5,18.4,12,27.5,18
	c10.5,6.9,20.5,14.5,28.6,24.2c0.4,0.4,1,0.5,1.5,0.2c10.4-7.6,18.9-17.7,27.6-27.1c4.4-4.7,8.9-9.4,13.7-13.6
	c1.1-1,2.2-1.9,3.3-2.8c0.6-0.4,1.1-0.9,1.7-1.3c-0.2,0.2,0.6-0.4,0.3-0.2c0.1-0.1-0.1-0.1,0,0c1,0.8,1.9,1.7,2.7,2.8
	c0.9,1.5,2,3,3.1,4.3c0.4,0.5,1.1,0.8,1.8,0.7c0.3-0.1,0.6-0.3,0.8-0.6c0.2-0.3,0.3-0.7,0.2-1c0.1-1.4-2.1-1.4-2.2,0
	c0-0.1,1.2-1,1.4-0.4c-0.1-0.1-0.2-0.3-0.3-0.4c-0.4-0.5-0.8-1.1-1.2-1.7c-0.9-1.5-2-2.9-3.1-4.2c-0.9-1-2.2-2.2-3.6-1.9
	c-0.8,0.3-1.6,0.7-2.2,1.4c-1.2,0.9-2.4,1.9-3.6,2.9c-9.6,8.3-17.9,18.1-26.7,27.3c-4.6,5-9.7,9.6-15.1,13.8l1.5,0.2
	c-7.5-8.9-16.6-16.2-26.2-22.6s-19.4-12-28.8-18.6c-4.8-3.3-9.4-7-13.8-10.9c-4.7-4.1-8.8-8.8-12.3-14c-1.8-2.8-3.2-5.7-4.2-8.8
	c-0.9-3.1-2.2-6-3.8-8.7c-3.1-4.9-7.8-8.5-12.6-11.6c-2.1-1.3-5-2.8-7.5-1.7c-3,1.4-2.1,4.8-1.4,7.2c2.1,7.7,3.1,15.6,3,23.6
	c0,0.4,0.4,0.8,0.8,0.8C306,255.4,306.4,255.1,306.4,254.7L306.4,254.7z"/>
<path class="st3" d="M753.2,192.9c-4.6-0.5-8.9,2.9-11.3,6.9c-3.4,5.5-3.8,13.5,1.1,17.8c1.3,1.1,2.9,2,4.6,2.4
	c7.2,2.1,15.7-1.9,18.3-8.9s-1.5-15.9-8.7-18"/>
<path d="M753.2,188.2c-6.4-0.6-11.7,4.9-13.8,10.5c-2,5.3-1.6,12.1,2.9,15.9c9.5,8,26,0.1,25.5-12.3c-0.2-6.2-4.3-12.2-10.3-14
	c-1.2-0.4-1.6,1.4-0.5,1.8c4.6,1.5,7.7,5.7,8.5,10.4c0.8,4.8-1.3,9.6-5.4,12.4c-4.1,2.8-9.6,3.6-14.1,1.4c-4.8-2.4-6.1-7.8-5.1-12.8
	c1.2-5.7,6-12,12.3-11.6C754.2,189.9,754.2,188.3,753.2,188.2L753.2,188.2z"/>
<path class="st3" d="M765.2,267.5c-4.6-0.5-8.9,2.9-11.3,6.9c-3.4,5.5-3.8,13.5,1.1,17.8c1.3,1.1,2.9,2,4.6,2.4
	c7.2,2.1,15.7-1.9,18.3-8.9s-1.5-15.9-8.7-18"/>
<path d="M765.2,262.8c-6.4-0.6-11.7,4.9-13.8,10.5c-2,5.3-1.7,12.1,2.9,15.9c9.5,8,26,0.1,25.5-12.3c-0.2-6.2-4.3-12.2-10.3-14
	c-1.2-0.4-1.6,1.4-0.5,1.8c4.5,1.6,7.8,5.6,8.5,10.4c0.8,4.8-1.3,9.6-5.4,12.3c-4.1,2.8-9.6,3.6-14.1,1.4c-4.8-2.4-6.1-7.8-5-12.8
	c1.2-5.7,6-12,12.3-11.6C766.2,264.4,766.2,262.9,765.2,262.8L765.2,262.8z"/>
<path class="st3" d="M751.7,342.1c-4.6-0.5-8.9,2.9-11.3,6.9c-3.4,5.5-3.8,13.5,1.1,17.8c1.3,1.1,2.9,1.9,4.6,2.4
	c7.2,2.1,15.7-1.9,18.3-8.9s-1.5-15.9-8.7-18"/>
<path d="M751.7,337.4c-6.4-0.6-11.7,4.9-13.8,10.5c-2,5.3-1.7,12.1,2.9,15.9c9.5,8,26,0.1,25.5-12.3c-0.2-6.2-4.3-12.2-10.3-14
	c-0.5-0.1-1,0.2-1.1,0.7c-0.1,0.5,0.2,0.9,0.6,1.1c4.5,1.6,7.8,5.6,8.5,10.4c0.8,4.8-1.3,9.6-5.4,12.3c-4.1,2.8-9.6,3.6-14.1,1.4
	c-4.8-2.4-6.1-7.8-5-12.8c1.2-5.7,6-12,12.3-11.7C752.7,339,752.7,337.5,751.7,337.4L751.7,337.4z"/>
<path class="st3" d="M738.2,416.7c-4.6-0.5-8.9,2.9-11.3,6.9c-3.3,5.5-3.8,13.5,1.1,17.8c1.3,1.1,2.9,2,4.6,2.4
	c7.2,2.1,15.7-1.9,18.3-8.9s-1.5-15.9-8.7-18"/>
<path d="M738.2,411.9c-6.4-0.6-11.7,4.9-13.8,10.5c-2,5.3-1.6,12.1,2.9,15.9c9.5,8,26,0.1,25.5-12.3c-0.2-6.2-4.3-12.2-10.3-14
	c-1.2-0.4-1.6,1.4-0.5,1.8c4.6,1.5,7.7,5.7,8.5,10.4c0.8,4.8-1.3,9.6-5.4,12.4c-4.1,2.8-9.6,3.6-14.1,1.4c-4.8-2.4-6.1-7.8-5.1-12.8
	c1.2-5.7,6-12,12.3-11.6C739.2,413.6,739.2,412,738.2,411.9L738.2,411.9z"/>
<path class="st3" d="M724.6,491.2c-4.6-0.5-8.9,2.9-11.3,6.9c-3.4,5.5-3.8,13.5,1.1,17.8c1.3,1.1,2.9,2,4.6,2.4
	c7.2,2.1,15.7-1.9,18.3-8.9c2.6-7-1.5-15.9-8.7-18"/>
<path d="M724.6,486.5c-6.4-0.6-11.7,4.9-13.8,10.5c-2,5.3-1.7,12.1,2.9,15.9c9.5,8,26,0.1,25.5-12.3c-0.2-6.2-4.3-12.2-10.3-14
	c-1.2-0.4-1.6,1.4-0.5,1.8c4.5,1.6,7.8,5.6,8.5,10.4c0.8,4.8-1.3,9.6-5.4,12.3c-4.1,2.8-9.6,3.6-14.1,1.4c-4.8-2.4-6.1-7.8-5.1-12.8
	c1.2-5.7,6-12,12.4-11.6C725.6,488.1,725.6,486.6,724.6,486.5L724.6,486.5z"/>
<path class="st3" d="M726.1,561.8c-4.6-0.5-8.9,2.9-11.3,6.9c-3.4,5.5-3.8,13.5,1.1,17.8c1.3,1.1,2.9,2,4.6,2.4
	c7.2,2.1,15.7-1.9,18.3-8.9s-1.5-15.9-8.7-18"/>
<path d="M726.1,561.1c-6.4-0.7-11.7,4.9-13.8,10.5c-2,5.3-1.7,12.1,2.9,15.9c9.5,8,26,0.1,25.5-12.3c-0.2-6.2-4.3-12.2-10.3-14
	c-0.5-0.1-1,0.2-1.1,0.7c-0.1,0.5,0.2,0.9,0.6,1.1c4.5,1.6,7.8,5.6,8.5,10.4c0.8,4.8-1.3,9.6-5.3,12.3c-4.1,2.8-9.6,3.6-14.1,1.4
	c-4.8-2.4-6.1-7.8-5-12.8c1.2-5.7,6-12,12.3-11.7C727.2,562.7,727.2,561.2,726.1,561.1L726.1,561.1z"/>
<path d="M800.5,197.6c-0.7,0.7-1,1.8-0.8,2.7c0.2,0.8,0.9,1.8,1.8,1.9c1.1,0,2.5-1,3.4-1.5c1-0.7,2-1.5,2.8-2.4
	c3.4-3.8,4.6-9,3.2-13.9c-0.1-0.5-0.6-0.9-1.2-0.8c-0.2,0-0.4,0.2-0.5,0.3c-5.1,4-7.4,11.5-4,17.3c3.2,5.4,10.3,7.9,15.7,4.2
	c2.9-1.9,4.7-5.2,4.7-8.7c0-0.7-0.6-1.2-1.2-1.2c-0.4,0-0.8,0.2-1,0.6c-1.7,3.3-2,7.2-0.7,10.8c0.2,0.6,0.8,1,1.5,0.8
	c3.4-1.1,6.3-3.3,8.3-6.3l-2.2-0.3c1.4,4.1,6.6,3.4,10,3.3l16.4-0.6c11-0.4,22-0.8,33-1.2l18.6-0.7c0.5-0.1,0.9-0.5,0.8-1
	c0-0.4-0.4-0.8-0.8-0.8c-20.6,0.5-41.2,1.1-61.8,1.7l-8.7,0.2c-1.5,0-4.5,0.3-5.1-1.6c-0.2-0.7-0.9-1-1.6-0.8
	c-0.3,0.1-0.5,0.3-0.7,0.5c-1.6,2.5-4,4.3-6.8,5.2l1.5,0.8c-1.1-2.9-0.9-6.1,0.5-8.9l-2.2-0.6c0,3.2-1.9,6.2-4.8,7.5
	c-3,1.3-6.5,0.7-8.9-1.4c-5.7-4.7-4.2-13.1,1.1-17.5l-1.7-0.5c2,6.4-1.3,13.2-7.6,15.5l0.7,0.1c-0.6-0.3-0.9-1-0.6-1.6
	c0.1-0.1,0.1-0.2,0.2-0.3c0.3-0.3,0.3-0.8,0-1.1C801.3,197.4,800.8,197.4,800.5,197.6L800.5,197.6L800.5,197.6z"/>
<path d="M811,281.8c12.2-1.1,24.4-2.3,36.6-3.3c0.6,0,1-0.5,0.9-1.1c0-0.1,0-0.1,0-0.2l-0.8-3.7l-1.5,1.1c7.8,5.6,17.6,7.6,27,5.7
	c1.2-0.3,0.7-2-0.5-1.8c-8.9,1.5-18-0.5-25.5-5.6c-0.8-0.5-1.7,0.3-1.5,1.1l0.9,3.7l0.9-1.2c-12.2,1.3-24.4,2.4-36.6,3.6
	C810,280.3,810,281.9,811,281.8L811,281.8z"/>
<path d="M894.8,282.9c0.6,0,1-0.5,1-1s-0.5-1-1-1s-1,0.5-1,1S894.2,282.9,894.8,282.9z"/>
<path d="M794.3,361c10.4,0.6,20.6-3,28.4-9.9c0.4-0.4,0.3-1-0.1-1.4c0,0-0.1-0.1-0.1-0.1c-2.1-1.5-4.8-0.5-6.3,1.3
	c-1.7,2-1.7,4.9-0.1,6.9c1.8,2.1,4.4,3.3,7.2,3.1c3.7-0.1,6.9-2.2,9.9-4.1l-1.6-0.9c-0.3,3.3,2.5,6.1,5.7,6.6c3.6,0.6,7-1.6,9.3-4.2
	l-1.8-0.5c2.5,7,13,4.8,18.5,4.3c9.7-0.8,19.4-1.7,29.1-2.5l16.7-1.5c1.2-0.1,1.2-2,0-1.9l-27.3,2.2l-13.7,1.1
	c-4.2,0.4-8.5,0.9-12.8,1c-2.9,0.1-7.2-0.2-8.4-3.4c-0.2-0.6-0.8-0.9-1.4-0.7c-0.2,0-0.3,0.1-0.4,0.3c-1.7,2-4.1,3.8-6.8,3.7
	c-2.4-0.1-4.7-2.1-4.5-4.5c0-0.6-0.5-1.1-1.1-1.1c-0.2,0-0.4,0.1-0.5,0.1c-3.7,2.4-8.7,5.5-13.1,2.7c-1.6-1-2.7-2.9-1.8-4.7
	c0.8-1.6,2.7-2.8,4.3-1.7l-0.2-1.5c-7.4,6.6-17.1,10.1-27,9.6C793.3,359.3,793.3,360.9,794.3,361L794.3,361z"/>
<path d="M774.2,431.7c3.8,0.4,7.6,0.5,11.4,0.4c3.9,0,7.8-0.2,11.6-0.5c3.3-0.3,7.1-0.2,10.1-1.5c2.5-1.1,4.5-3.6,3.6-6.4
	c0-0.6-0.4-1-1-1s-1,0.4-1,1c-0.4,1.8,0.2,3.7,1.5,5c1.6,1.4,3.7,2.2,5.8,2.3c4.9,0.4,9.8-0.3,14.5-1.9l-1.3-0.7
	c0.7,1.9,1.4,4,3.1,5.3c2.1,1.6,4.8,0.9,7.2,0.4c6.2-1.2,12.4-2.4,18.6-3.6c1.2-0.2,0.7-2.1-0.5-1.9c-5.2,1-10.5,2-15.7,3l-3.9,0.7
	c-1.2,0.4-2.4,0.4-3.7,0.2c-1.8-0.7-2.6-3-3.1-4.6c-0.1-0.5-0.7-0.9-1.2-0.7c0,0,0,0-0.1,0c-3.6,1.3-7.4,2-11.2,2
	c-1.8,0.1-3.6-0.1-5.4-0.7c-1.6-0.7-3.1-2.2-2.6-4.1h-2c1,3.4-3.3,4.6-5.7,4.9c-3.2,0.4-6.3,0.7-9.5,0.9s-6.4,0.3-9.6,0.4
	s-6.6-0.2-9.9-0.2C773.1,430.2,773.1,431.6,774.2,431.7L774.2,431.7z"/>
<path d="M769.1,508.8c7.8-0.7,15.6,0.7,23.3-0.4c6.5-0.9,13-3.8,16.3-9.8c1.7-3,2.3-6.5,1.5-9.8c-0.1-0.5-0.7-0.9-1.2-0.7
	c-0.3,0.1-0.5,0.2-0.6,0.5c-2,3.6-3.7,7.6-3.3,11.9c0.4,3.4,2.2,6.9,5.4,8.4c3.4,1.6,7.4,0.7,10.4-1.4c3.5-2.4,5.6-6.1,7.6-9.7
	l-2.1-0.6c-0.2,4.7,0,11,5.1,13.1c5.5,2.4,11-2.8,14.3-6.8c0.8-1-0.2-2.6-1.4-1.9c-1.8,1.1-1.8,3.3-0.8,4.9c1.4,2.1,3.9,2.4,6.1,1.5
	c1.3-0.5,2.6-1.2,3.9-1.8c1.4-0.6,2.8-1,4.3-1.3c3.1-0.4,6.3,0,9.2,1.2c1.1,0.5,1.9-1.5,0.8-2c-4.3-2-9.2-2.3-13.7-0.7
	c-2.2,0.8-4.2,2.4-6.5,2.7c-0.8,0.2-1.7-0.2-2.1-0.9c-0.3-0.5-0.6-1.2,0-1.5l-1.5-1.9c-2.5,3.1-7.2,8.3-11.7,6.3
	c-4-1.8-3.8-7.4-3.6-11c0-0.6-0.5-1.1-1.2-1.1c-0.4,0-0.7,0.2-0.9,0.5c-1.7,3-3.3,6-5.9,8.3c-2.4,2-5.9,3.4-9,2.1
	c-2.7-1.1-4.2-4.2-4.4-7c-0.3-3.6,1.2-7.1,2.9-10.3l-1.8-0.2c0.8,3.7-0.2,7.6-2.6,10.5c-2.6,3-6,5.1-9.8,6
	c-8.7,2.4-17.9,0.4-26.8,1.3C768.1,507.3,768.1,508.9,769.1,508.8L769.1,508.8z"/>
<path d="M771.6,578.5l29.1-0.1c4.4,0,8.9,0.3,13.2-0.3c1.6-0.2,3.2-0.6,4.6-1.4c0.7-0.4,1.3-0.8,1.8-1.4c0.7-0.8,1.3-2.2,2.6-1.5
	c0.9,0.5,1.7,1.2,2.6,1.8c1,0.6,2,1,3,1.4c2.1,0.7,4.4,1,6.7,0.9c1.2-0.1,1.2-2,0-1.9c-2.1,0.2-4.2-0.1-6.2-0.8
	c-2-0.7-3.4-2-5.2-2.9s-3.1-0.3-4.2,1.1c-1.1,1.4-2.6,2.4-4.3,2.8c-1.8,0.4-3.6,0.6-5.5,0.6c-2.4,0-4.8,0.1-7.3,0.1l-14.6,0.2
	l-16.5,0.2c-0.4,0-0.7,0.4-0.7,0.9C771,578.2,771.3,578.5,771.6,578.5L771.6,578.5z"/>
<path d="M860.7,582.1l0.8-2.5c0.1-0.3,0-0.6-0.1-0.9c-0.2-0.2-0.4-0.4-0.7-0.5c-0.6-0.2-1.2,0.2-1.4,0.8l-0.8,2.5
	c-0.1,0.3,0,0.6,0.1,0.9c0.3,0.5,1,0.7,1.5,0.4C860.4,582.6,860.6,582.4,860.7,582.1z"/>
<polygon class="st4" points="114,242.9 190.3,319.2 347.5,161.9 310.6,124.9 194.6,240.9 153.8,200.1 "/>
</svg>
