<?xml version="1.0" encoding="utf-8"?>
<!-- Generator: Adobe Illustrator 26.2.1, SVG Export Plug-In . SVG Version: 6.00 Build 0)  -->
<svg version="1.1" id="Capa_1" xmlns="http://www.w3.org/2000/svg" xmlns:xlink="http://www.w3.org/1999/xlink" x="0px" y="0px"
	 viewBox="0 0 1000 1000" style="enable-background:new 0 0 1000 1000;" xml:space="preserve">
<style type="text/css">
	.st0{fill:#3F67AE;}
	.st1{fill:#002F6C;}
	.st2{fill:#BA0C2F;}
	.st3{fill:#18C4FF;}
	.st4{fill:#FFFFFF;}
</style>
<path class="st0" d="M907,270.2c-7.1-1.5-14.4-1.4-21.4,0.1c-18.9,4.4-32.9,20.4-43.3,36.8s-19,34.5-33.2,47.7s-36.7,20.4-53.3,10.4
	c-12.2-7.4-18.5-22.1-30.8-29.4c-14.1-8.4-32.9-4.6-45.9,5.3c-10.6,8-18,19.4-23.9,31.4v62.8H907V270.2z"/>
<path class="st0" d="M907.5,268.2c-9-1.7-18.2-1.5-27,1.4c-7.2,2.6-13.8,6.5-19.5,11.6c-12.1,10.5-20.4,24.3-28.5,38
	s-16.5,28.4-29.7,38.1c-11.4,8.4-27,13.6-40.8,8.7c-14.2-5-20.7-20.2-32-29c-6-4.7-13.4-7.5-21-7.8c-7.8-0.2-15.5,1.5-22.5,4.9
	c-14.8,7-24.9,21-32.2,35.1c-0.8,1.2-1.2,2.5-1.4,3.9v62.2c0,1.1,0.9,2.1,2.1,2.1h241.7c3.3,0,6.5,0.1,9.8,0h0.4
	c1.1,0,2.1-0.9,2.1-2.1V290.4c0-6.6,0.2-13.3,0-20v-0.3c0-2.7-4.2-2.7-4.2,0v158.5c0,2.1-0.2,4.3,0,6.4v0.3l2.1-2.1H665.3
	c-3.2,0-6.5-0.1-9.8,0h-0.4l2.1,2.1v-62.8l-0.3,1c4.9-9.9,10.8-19.4,18.9-26.9c7.6-7.1,17.3-12.1,27.7-13.1c5-0.5,10.1,0,14.8,1.6
	c4.6,1.7,8.8,4.4,12.3,7.8c7.3,7,12.8,15.8,20.9,22c17,12.9,40.5,6.5,55.8-5.9c8.6-6.9,15.3-16.1,21.3-25.4
	c6-9.5,11.3-19.4,17.5-28.7c5.7-8.6,12.4-16.8,20.6-23.1c8.7-6.7,19.1-10.7,30.2-10.6c3.2,0.1,6.3,0.4,9.4,1
	C909.1,272.7,910.2,268.7,907.5,268.2L907.5,268.2z"/>
<path class="st1" d="M568.5,160.1h20v149.2h-20V160.1z"/>
<path class="st1" d="M588.5,307.2h-20l2.1,2.1V166.2c0-1.9,0.2-3.9,0-5.8v-0.2l-2.1,2.1h20l-2.1-2.1V291c0,6-0.2,12,0,18
	c0,0.1,0,0.2,0,0.2c0,2.7,4.2,2.7,4.2,0V178.4c0-6,0.2-12.1,0-18.1c0-0.1,0-0.2,0-0.2c0-1.2-0.9-2.1-2.1-2.1h-20
	c-1.1,0-2.1,0.9-2.1,2.1V291c0,6-0.2,12,0,18v0.2c0,1.1,0.9,2.1,2.1,2.1h20C591.2,311.4,591.2,307.2,588.5,307.2L588.5,307.2z"/>
<g>
	<path class="st0" d="M367,264.2h20v45.1h-20V264.2z"/>
	<path class="st0" d="M387,307.2h-20l2.1,2.1v-45.1l-2.1,2.1h20l-2.1-2.1v45.1c0,2.7,4.2,2.7,4.2,0v-45.1c0-1.1-0.9-2.1-2.1-2.1h-20
		c-1.1,0-2.1,0.9-2.1,2.1v45.1c0,1.1,0.9,2.1,2.1,2.1h20C389.7,311.4,389.7,307.2,387,307.2z"/>
	<path class="st0" d="M407.3,242.1h20v67.2h-20V242.1z"/>
	<path class="st0" d="M427.3,307.2h-20l2.1,2.1v-67.2l-2.1,2.1h20l-2.1-2.1v67.2c0,2.7,4.2,2.7,4.2,0v-67.2c0-1.1-0.9-2.1-2.1-2.1
		h-20c-1.1,0-2.1,0.9-2.1,2.1v67.2c0,1.2,0.9,2.1,2.1,2.1h20C430,311.4,430,307.2,427.3,307.2z"/>
	<path class="st0" d="M447.6,247.8h20v61.5h-20V247.8z"/>
	<path class="st0" d="M467.6,307.2h-20l2.1,2.1v-61.5l-2.1,2.1h20l-2.1-2.1v61.5c0,2.7,4.2,2.7,4.2,0v-61.5c0-1.1-0.9-2.1-2.1-2.1
		h-20c-1.2,0-2.1,0.9-2.1,2.1v61.5c0,1.1,0.9,2.1,2.1,2.1h20C470.3,311.4,470.3,307.2,467.6,307.2z"/>
	<path class="st0" d="M487.9,223.7h20v85.7h-20V223.7z"/>
	<path class="st0" d="M507.9,307.2h-20l2.1,2.1v-82.2c0.1-1.1,0.1-2.2,0-3.3v-0.1l-2.1,2.1h20l-2.1-2.1v75.1c0,3.5-0.1,7,0,10.5
		c0,0,0,0.1,0,0.1c0,2.7,4.2,2.7,4.2,0v-75.1c0-3.5,0.1-7,0-10.4v-0.1c0-1.1-0.9-2.1-2.1-2.1h-20c-1.1,0-2.1,0.9-2.1,2.1v75.1
		c0,3.5-0.1,7,0,10.5v0.1c0,1.1,0.9,2.1,2.1,2.1h20C510.6,311.4,510.6,307.2,507.9,307.2L507.9,307.2z"/>
	<path class="st0" d="M528.2,201.1h20v108.2h-20V201.1z"/>
	<path class="st0" d="M548.2,307.2h-20l2.1,2.1V205.5c0-1.4,0.1-2.8,0-4.2v-0.2l-2.1,2.1h20l-2.1-2.1V296c0,4.4-0.2,8.8,0,13.1
		c0,0.1,0,0.1,0,0.2c0,2.7,4.2,2.7,4.2,0v-94.9c0-4.4,0.2-8.8,0-13.1c0-0.1,0-0.1,0-0.2c0-1.1-0.9-2.1-2.1-2.1h-20
		c-1.1,0-2.1,0.9-2.1,2.1V296c0,4.4-0.2,8.8,0,13.1v0.2c0,1.1,0.9,2.1,2.1,2.1h20C550.9,311.4,550.9,307.2,548.2,307.2z"/>
</g>
<path class="st2" d="M968.4,568.4h-652c-6,0-11.9,0.2-17.9,0c-3.4-0.1-5-2.5-5.1-5.6s0-6.1,0-9.2V118.8c0-3.5-0.4-7.6,4.5-8.1
	c1.1-0.1,2.4,0,3.5,0h660.7c1.9,0,3.8-0.1,5.7,0c3.5,0.2,4.9,2.7,5,5.8c0.1,9.1,0,18.2,0,27.3v416.5
	C972.9,563.7,973.4,568,968.4,568.4c-2.6,0.2-2.7,4.4,0,4.2c6.5-0.4,8.7-5.6,8.7-11.1V143.5c0-9.1,0.1-18.2,0-27.3
	c0-5.3-3.2-9.6-8.8-9.8c-1.6-0.1-3.2,0-4.8,0H301.1c-1.5-0.1-3,0-4.5,0.1c-6,1-7.2,6.2-7.2,11.2v435.9c0,7.3-1.7,18.4,8.9,18.8
	c5.4,0.2,10.8,0,16.2,0h654C971.1,572.5,971.1,568.4,968.4,568.4L968.4,568.4z"/>
<path class="st1" d="M77.8,409.8c0.1,8.4,0.3,16.7,0.7,25.1c0.1,1.8,0.2,3.8,1.5,5c1,0.9,2.3,1.4,3.6,1.6
	c39.1,9.6,81.8,12.3,118.3-4.8c2.3-1.1,4.6-2.3,5.9-4.4c1.1-1.9,1.3-4.2,1.4-6.4c0.6-17.2-0.2-34.5-2.5-51.5"/>
<path d="M77.1,409.8c0,8.2,0.2,16.4,0.5,24.6c0.1,3.1,0.6,6.2,3.8,7.5c3,1.3,6.5,1.8,9.7,2.5c14.1,3.2,28.5,5.2,42.9,5.8
	c14.3,0.7,28.6-0.5,42.6-3.6c6.9-1.5,13.6-3.6,20.2-6.3c3.2-1.1,6.3-2.6,9.2-4.4c2.6-1.8,4.3-4.8,4.4-7.9c0.4-4.3,0.3-8.6,0.3-12.9
	c0-4.6-0.1-9.2-0.3-13.8c-0.2-9.1-1.1-18.2-2.6-27.2c-0.2-1.2-2.2-0.9-2.1,0.3c0.7,7.7,1.7,15.3,2.1,23s0.6,15.4,0.4,23.1
	c0,1.9-0.1,3.9-0.2,5.8c0,1.7-0.3,3.5-1,5.1c-1.4,2.7-4.6,3.9-7.3,5.1c-6.2,2.8-12.7,5-19.3,6.8c-26.6,7-54.8,5.5-81.6,0.5
	c-3.9-0.7-7.7-1.5-11.6-2.4c-1.8-0.3-3.5-0.7-5.2-1.3c-2-0.7-2.5-2.5-2.6-4.4c-0.7-8.6-0.8-17.3-1-25.9c0-0.4-0.4-0.7-0.9-0.7
	C77.3,409.2,77.1,409.5,77.1,409.8L77.1,409.8z"/>
<path class="st1" d="M373.6,346.6c-2.3-5-4.6-10-6.9-15c-0.7-1.5-1.4-3-2.8-3.8s-3.4-0.6-5.1-0.2c-6.2,1.4-12.1,4-18,6.4
	c-15.5,6.4-31.1,12.4-46.9,18c-1.8,0.6-3.7,1.2-5.5,0.8c-1.4-0.5-2.6-1.2-3.6-2.2c-19.7-16.4-36.4-36-49.4-58.1
	c-3.4-5.7-6.6-11.6-11.6-15.9c-3.7-3.2-8.2-5.2-12.8-7c-13.9-5.2-28.6-7.5-43.4-6.7h-1.9c0.1,0.1,0.1,0.2,0.2,0.4
	c0.4,0.9,0.7,2,0.7,3c-0.1,1.2-0.4,2.3-1,3.4c-3.3,6.9-7.6,13.3-12.8,18.9c-0.5,0.6-1.1,1.1-1.9,1.5c-1.7,0.6-3.4-0.5-4.8-1.6
	l-7.9-6.2c-0.2-0.2-0.5-0.4-0.9-0.4c-0.4,0-0.7,0.2-0.9,0.5l-4.9,4.1c-1.6,1.5-3.4,2.7-5.4,3.5c-2,0.9-4.3,0.7-6.2-0.5
	c-1.1-0.9-1.9-2-2.6-3.2c-4-6.8-8-14-8.9-21.8l-23.5,0.6c0,0-20.5,74.8-14.4,100.6s28.5,19.8,41.3,21.1s105.8-12,106.5-15.7
	s-2.7-8.2-2.7-13.6s12.1-10.5,18.4-12s9.1,4,7.1,6.4s-2.1-0.2,9.5,9c11.6,9.2,5.2,16.3,1.5,21.5s-10.6,3.6-14.6,3
	s-11.7-4.6-11.7-4.6c2.8,2.4,28.2,22.3,31.2,24.4c24.5,17,54.6-1.4,75-16.1c14.5-10.4,27.3-22.8,40.2-35.1c2.3-1.4,2.9-4.4,1.5-6.7
	C373.8,346.9,373.7,346.8,373.6,346.6L373.6,346.6z"/>
<path d="M374.5,346.1l-6-13.2c-1.5-3.2-2.9-6.8-7-6.7c-1.9,0.1-3.8,0.5-5.6,1.1c-2.4,0.6-4.6,1.5-6.9,2.3c-4.3,1.6-8.5,3.5-12.7,5.2
	c-8.7,3.6-17.6,7-26.4,10.3c-4.4,1.6-8.9,3.2-13.4,4.8c-2,0.7-4.2,1.8-6.4,1.9c-2.5,0.1-4.4-1.9-6.2-3.4
	c-12.9-10.9-24.5-23.3-34.6-36.9c-5-6.7-9.6-13.8-13.9-21c-4.1-7-8.3-13.8-15.5-18c-4.2-2.3-8.5-4.2-13.1-5.5
	c-4.9-1.6-9.8-2.8-14.8-3.7c-8.7-1.4-17.6-1.9-26.4-1.5c-0.6,0-1,0.5-1,1.1c0,0.2,0,0.3,0.1,0.5c0.7,1.4,0.8,3,0.3,4.5
	c-0.6,1.5-1.3,3-2.2,4.5c-2.8,5.3-6.3,10.3-10.4,14.7c-1.2,1.3-2.3,2.4-4.1,1.5c-1.4-0.8-2.8-1.8-4-2.9l-3.7-2.9
	c-0.9-0.7-2.2-2.1-3.5-2.2c-1,0-1.8,0.9-2.6,1.5l-3.8,3.1c-2.2,1.8-4.6,3.9-7.6,4c-3.4,0-4.7-3-6.2-5.6c-3.5-6-6.8-12.4-7.7-19.4
	c0-0.5-0.5-1-1-1L85,263.8c-0.5,0-0.9,0.3-1,0.8c-2.1,7.4-4,14.9-5.7,22.4c-3.6,15.1-6.4,30.3-8.4,45.6c-1,7.1-1.5,14.3-1.5,21.5
	c0.1,6.7,0.9,13.4,3.9,19.5c3.1,6.3,8.9,10.9,15.7,12.6c6.3,1.6,12.8,1.2,19.2,1.3c3.7,0,7.3,0.4,11,0.2c5.2-0.3,10.3-0.8,15.4-1.3
	c14-1.5,27.9-3.4,41.8-5.5c11.9-1.8,23.8-3.6,35.5-6.3c2.4-0.5,5.6-1,7.7-2.4s0.5-5.2-0.1-7.1c-0.8-2.5-2-5.3-1.8-8
	c0.1-1.6,1.4-2.9,2.5-3.9c3.3-2.9,7.8-4.7,11.9-6.1c2.9-1,8.9-2.5,9.6,2.1c0.3,1.7-1.7,2.1-1.6,3.6s2.7,2.5,3.7,3.2
	c1.9,1.3,3.7,2.6,5.5,4c2.4,1.8,4.9,3.8,6.5,6.4c2.1,3.4,1.6,7-0.3,10.3c-1.8,3.2-4.1,6.9-7.9,7.7c-3.6,0.8-8.1-0.1-11.6-1.2
	c-2.9-1-5.8-2.3-8.6-3.7c-1-0.5-2.2,0.8-1.3,1.6c5.8,4.9,11.9,9.5,17.9,14.2c3.4,2.7,6.9,5.3,10.3,8c3.2,2.5,6.6,4.7,10.3,6.3
	c12.9,5.4,27,2.8,39.5-2.5c13.2-5.6,25.3-14,36.5-22.8c7.5-5.9,14.5-12.2,21.4-18.6c3.5-3.2,6.9-6.5,10.3-9.8
	c1.4-1.3,3.1-2.6,3.8-4.4S375.4,347.8,374.5,346.1c-0.5-1.3-2.3-0.2-1.8,1c0.6,0.9,0.8,2,0.8,3.1c-0.3,1-0.9,1.8-1.7,2.4
	c-1.5,1.5-3,2.9-4.5,4.3c-2.9,2.8-5.9,5.6-8.9,8.4c-5.8,5.4-11.8,10.7-18,15.7c-10.8,8.7-22.5,16.8-35,22.8
	c-11.9,5.6-25.7,9.2-38.5,4.8c-7.9-2.7-14.3-8.5-20.8-13.6s-13.2-10-19.5-15.4l-1.3,1.6c6.1,3.1,13.1,6.1,20.2,5.4
	c2.1-0.1,4.1-0.9,5.8-2.2c1.3-1.3,2.5-2.7,3.4-4.3c1.9-2.7,3.7-5.8,3.6-9.2c-0.1-4.8-3.6-8.5-7.2-11.3c-3.1-2.4-6.2-4.6-9.5-6.8
	c-0.2-0.1-0.6-0.4-0.6-0.4c-0.2,0.1,0.1-0.2,0.1,0.2c0,0.2,0,0.6-0.1,0.5s-0.2,0.2,0.1,0c0.1-0.1,0.1-0.2,0.2-0.2
	c0.3-0.3,0.5-0.6,0.8-0.9c1.8-2.7-0.1-6.2-2.7-7.4c-3.7-1.8-8.2,0.2-11.7,1.6c-3.9,1.5-8,3.4-10.9,6.5c-1.1,1.1-1.9,2.5-2.1,4.1
	c-0.3,2.5,0.6,5.1,1.3,7.4c0.4,1.1,0.8,2.2,1.1,3.3c0.2,1,0.3,2.1,0.3,3.2c0-0.3,0.2-0.1,0.1-0.2s0.3-0.1,0,0
	c-0.1,0-0.2,0.1-0.2,0.1c-0.4,0.2-0.7,0.3-1.1,0.5c-0.6,0.2-1.3,0.4-1.9,0.6c-1.8,0.5-3.7,0.9-5.6,1.3c-5.4,1.2-10.9,2.2-16.4,3.1
	c-14.2,2.4-28.4,4.5-42.7,6.3c-11.2,1.4-22.5,3-33.7,3.3c-4.3,0.1-8.5-0.3-12.8-0.3c-6.5,0-13.3,0-19.3-3
	c-13.5-6.7-13.8-24.1-12.9-37.1c1-15.8,3.9-31.5,7.2-46.9c2.3-10.6,4.8-21.1,7.5-31.6l0.4-1.6l-1,0.8l23.5-0.6l-1-1
	c0.8,6.9,3.8,13.1,7.2,19c1.4,2.5,2.8,6,5.6,7.4c2.6,1.3,5.6,0.6,8-0.8c2.9-1.7,5.4-4.1,8-6.3c0.6-0.5,0.6-0.7,1.3-0.6
	c0.5,0.1,0.9,0.6,1.3,0.9l2.1,1.6l4.5,3.5c2.3,1.8,5,3,7.4,0.8c2.5-2.4,4.7-5,6.6-7.9c2.2-3.1,4.3-6.3,6-9.7c0.9-1.6,1.6-3.2,2.1-5
	c0.2-1.7-0.1-3.4-0.9-4.9l-0.9,1.6c7.9-0.4,15.8,0,23.6,1c8.8,1.3,17.3,3.7,25.5,7.3c3.9,1.7,7.5,4.1,10.4,7.1c2.7,3,5,6.2,6.9,9.7
	c4.3,7.2,8.6,14.3,13.5,21.1c9.6,13.3,20.6,25.5,32.8,36.4c1.4,1.3,2.9,2.5,4.4,3.8c1.5,1.2,3,2.7,4.9,3.4c1.8,0.5,3.7,0.4,5.4-0.3
	c2.2-0.7,4.5-1.5,6.7-2.3c8.9-3.2,17.8-6.5,26.6-10c4.8-1.9,9.5-3.8,14.2-5.8c4.7-2,9.4-4,14.2-5.5c2.2-0.7,4.6-1.6,6.9-1.5
	c2.6,0.1,3.5,2.3,4.4,4.3l6.6,14.5C373.3,348.3,375.1,347.3,374.5,346.1L374.5,346.1z"/>
<path class="st3" d="M129.6,289.1c2.3,0.4,4,2.7,4.5,5c0.3,2.4,0.2,4.8-0.4,7.1c-3.8,22.4-7.8,58.5-13.1,78.2
	c-0.2,0.7,2.4-9.7,2.6-9c0.3,0.5,0.6,1,1.1,1.4l14.9,12.4l11.1-12c1.8-1.3,2.5-3.6,1.9-5.8l-12-67.4c-0.3-1.3-0.4-2.7-0.3-4.1
	c0.4-2.9,2.6-5.3,5.4-6c-1.3-3.5-4.4-4.6-7.9-6c-2.7,2.2-4.7,3.1-6.4,6.1"/>
<path class="st3" d="M129.4,289.8c4,1.2,4,5.9,3.6,9.2c-0.4,2.8-0.9,5.5-1.4,8.3c-0.9,5.9-1.8,11.8-2.6,17.8
	c-1.8,12.5-3.6,25-5.9,37.4c-1,5.6-1.9,11.3-3.7,16.7l2.2,0.3c0,0.6,0,0.1,0.1-0.1c0.1-0.3,0.2-0.6,0.2-1c0.2-1,0.5-2,0.8-2.9
	s0.5-2,0.8-3c0.1-0.4,0.2-0.7,0.3-1.1c0-0.1,0-0.4,0.1-0.2c-0.1-0.4,1.3-0.2-0.5,0.3l-0.9-0.1c-0.4-0.5-0.5-0.5-0.3-0.2
	c0.1,0.2,0.2,0.3,0.3,0.5c0.2,0.3,0.4,0.5,0.7,0.7c0.6,0.6,1.3,1.1,2,1.7l4.4,3.7l8.8,7.3c0.5,0.4,1.2,0.4,1.6,0l7.2-7.8l3.5-3.8
	c1-1,1.8-2.1,2.4-3.3c0.4-1.3,0.4-2.6,0.1-3.9c-0.3-1.8-0.6-3.6-1-5.4l-1.9-10.3l-7.4-41.8l-1.1-5.9c-0.4-2-0.8-3.9-1-5.9
	c-0.3-3.1,1.7-5.9,4.6-6.7c0.7-0.2,1-0.9,0.9-1.5c-1.6-3.9-5.1-5.4-8.7-6.9c-0.4-0.1-0.9,0-1.2,0.3c-2.5,2-5,3.6-6.6,6.4
	c-0.3,0.6,0,1.4,0.6,1.7c0.6,0.3,1.3,0.1,1.6-0.4c1.5-2.6,3.9-4.1,6.2-5.9l-1.2,0.3c2.7,1.1,5.9,2.2,7,5.1l0.9-1.5
	c-2.5,0.6-4.5,2.3-5.6,4.6c-1.3,2.8-0.5,5.8,0,8.7l3.8,21.4c2.5,14.1,5,28.2,7.5,42.3c0.3,1.8,1,3.7-0.2,5.4
	c-1.2,1.5-2.4,2.8-3.7,4.1l-8.4,9.1h1.7l-11.1-9.2c-1.7-1.3-3.3-2.7-4.8-4.3c-0.4-0.6-1.1-0.7-1.7-0.4c-0.2,0.1-0.3,0.3-0.4,0.5
	c-0.9,1.5-1.2,3.6-1.6,5.2c-0.5,1.4-0.8,2.8-1,4.3c-0.1,1.3,1.9,1.5,2.2,0.3c1.4-5.1,2.5-10.3,3.3-15.5c1.2-6.3,2.2-12.6,3.2-19
	c2-12.8,3.6-25.6,5.6-38.4c0.2-1.5,0.5-3.1,0.7-4.6c0.5-2.1,0.7-4.2,0.7-6.3c-0.2-3.3-1.9-7-5.5-7.6c-0.4-0.1-0.8,0.1-0.9,0.5
	C128.7,289.3,128.9,289.7,129.4,289.8L129.4,289.8z"/>
<path d="M108.1,201.4c-0.3,3.9-0.4,7.9-0.3,11.8c0,4.1,0.4,8.2,1.1,12.3c1.4,8,4.7,15.3,11,20.6c3.7,3.3,8,5.7,12.8,7.2
	c4.5,1.2,9.2,0.7,13.3-1.5c7.9-4,13.8-11,16.5-19.4c1.2-4.7,1.8-9.5,1.8-14.4c0.3-5.7,0.3-11.4-0.1-17.1c0-0.6-0.4-1-1-1s-1,0.4-1,1
	c-0.4,9,0.4,18.2-1.2,27.1c-1.6,7.9-6.2,14.9-12.8,19.5c-3.6,2.5-7.8,4.5-12.3,3.9c-4.6-0.6-8.9-3.1-12.6-5.8
	c-3.1-2.3-5.8-5.2-7.8-8.5c-1.8-3.2-3.2-6.7-4-10.4c-0.9-4.2-1.4-8.4-1.6-12.6c-0.2-4.2-0.1-8.4-0.4-12.5c0-0.4-0.3-0.7-0.7-0.7
	S108.2,201,108.1,201.4L108.1,201.4L108.1,201.4z"/>
<path d="M109.2,208.1c0.2-1.7-0.8-3.4-2.4-4.1c-1.7-0.7-3.7-0.2-5,1.1c-1.4,1.4-2.1,3.4-2,5.4c0,2,0.6,4,1.9,5.6
	c0.8,0.8,1.8,1.5,2.9,2c0.5,0.2,1,0.5,1.6,0.7c0.6,0.3,1.2,0.4,1.9,0.5c0.5,0.1,1-0.3,1.1-0.9c0-0.4-0.2-0.8-0.6-1
	c-0.5-0.3-1-0.5-1.5-0.6c-0.5-0.2-0.9-0.4-1.4-0.6c-0.8-0.4-1.6-0.9-2.3-1.5c-1.1-1.4-1.6-3.3-1.4-5.1c0.1-1.6,1.1-3.1,2.6-3.7
	c1.2-0.4,2.5,0.2,3,1.4c0.1,0.2,0.1,0.4,0.1,0.6C107.7,208.7,109.1,208.9,109.2,208.1L109.2,208.1z"/>
<path d="M106,210.7h0.2h0.1h0.1c-0.2,0-0.1-0.1,0,0c0.1,0,0.1,0.1,0.2,0.1c0.1,0.1-0.2-0.1,0,0l0.1,0.1l0.1,0.1c0.1,0.1,0,0,0-0.1
	c0.1,0.1,0.2,0.3,0.2,0.4l-0.1-0.2c0,0.1,0.1,0.3,0.2,0.4l-0.1-0.2c0.1,0.3,0.2,0.7,0.3,1V212v0.1v-0.2l0.1-0.2c0,0,0,0,0,0.1
	l0.2-0.2c-0.2,0.2-0.4,0.4-0.4,0.7c-0.1,0.6,0.1,1.3,0.7,1.6c0.2,0.1,0.4,0.2,0.6,0.2c0.2,0,0.4,0,0.5-0.1c0.1-0.1,0.3-0.2,0.4-0.4
	c0.1-0.2,0.2-0.5,0.1-0.7c-0.1-0.2-0.2-0.4-0.4-0.6c-0.2-0.1-0.4-0.2-0.6-0.2h0.3h-0.1l0.2,0.1l-0.1-0.1l0.2,0.1l-0.1-0.1l0.2,0.2
	v-0.1l0.1,0.2c0,0,0-0.1,0-0.1v0.3v-0.1v0.3c0,0,0-0.1,0-0.1l-0.1,0.2c0,0,0,0,0-0.1l-0.2,0.2c0.1-0.1,0.1-0.1,0.2-0.2
	c0.2-0.2,0.2-0.4,0.2-0.7c0-0.3-0.1-0.5-0.2-0.7c-0.1-0.2-0.2-0.4-0.3-0.7c-0.1-0.2-0.2-0.4-0.4-0.6c-0.6-0.7-1.5-1-2.3-0.8
	c-0.4,0.1-0.6,0.5-0.5,0.9c0.1,0.3,0.4,0.5,0.7,0.5L106,210.7z"/>
<path d="M164.4,207.9c0.1-1.3,1.2-2.2,2.5-2.1c0.2,0,0.4,0.1,0.6,0.1c1.5,0.6,2.6,2,2.6,3.7c0.2,1.8-0.3,3.6-1.4,5.1
	c-0.7,0.6-1.5,1.1-2.3,1.5c-0.4,0.2-0.8,0.4-1.3,0.5c-0.6,0.1-1.1,0.3-1.6,0.6c-0.5,0.2-0.7,0.8-0.5,1.3c0.2,0.4,0.6,0.6,1,0.6
	c1.1-0.1,2.1-0.4,3-0.9c1-0.4,1.9-1,2.8-1.7c1.5-1.4,2.4-3.3,2.4-5.3c0.3-2-0.2-4-1.5-5.6c-1.1-1.5-3-2.2-4.8-1.8
	c-2,0.5-3.3,2.3-3.1,4.4C163.1,209,164.4,208.8,164.4,207.9L164.4,207.9z"/>
<path d="M166.3,209.3c-0.9-0.2-1.8,0.1-2.4,0.8c-0.2,0.2-0.3,0.4-0.4,0.6c-0.1,0.2-0.2,0.4-0.3,0.7c-0.1,0.2-0.2,0.5-0.2,0.8
	c0,0.2,0,0.4,0.2,0.6c0.1,0.1,0.2,0.2,0.3,0.3l-0.1-0.2v0.1l-0.1-0.2c0,0,0,0.1,0,0.1v-0.3c0,0,0,0.1,0,0.1v-0.3c0,0,0,0.1,0,0.1
	l0.1-0.2l-0.1,0.1l0.1-0.2l-0.1,0.1l0.2-0.1l-0.1,0.1l0.2-0.1h-0.1h0.3c-0.2,0-0.4,0.1-0.6,0.2c-0.2,0.1-0.4,0.3-0.4,0.6
	c-0.1,0.2,0,0.5,0.1,0.7c0.1,0.1,0.2,0.3,0.4,0.4c0.2,0.1,0.3,0.1,0.5,0.1c0.2,0,0.4-0.1,0.6-0.2c0.2-0.1,0.4-0.3,0.6-0.6
	c0.2-0.3,0.2-0.7,0.1-1c-0.1-0.3-0.2-0.5-0.4-0.7l0.1,0.2c0,0,0,0,0-0.1l0.1,0.2v0.2V212v0.2c0.1-0.3,0.2-0.7,0.3-1l-0.1,0.2
	l0.2-0.4l-0.1,0.2c0-0.1,0.1-0.2,0.1-0.2c0,0,0.1-0.2,0.1-0.2s-0.1,0.2,0,0.1l0.1-0.1c0,0,0.1-0.1,0.1-0.1c0.1-0.1-0.1,0.1,0,0
	l0.2-0.1c0,0,0.2-0.1,0,0s0,0,0,0h0.1H166h0.2c0.2,0,0.4-0.1,0.5-0.2c0.1-0.1,0.2-0.3,0.2-0.4C166.9,209.6,166.7,209.3,166.3,209.3
	L166.3,209.3z"/>
<path d="M124,210.4c-0.1,0-0.2,0-0.4,0c-0.2,0.1-0.4,0.2-0.6,0.3l-0.1,0.1c-0.1,0.1-0.2,0.2-0.2,0.3c-0.1,0.1-0.1,0.2-0.1,0.4
	c0,0.1,0,0.2-0.1,0.4c0,0.1,0,0.2,0.1,0.4c0,0.1,0.1,0.2,0.1,0.4c0.1,0.2,0.3,0.4,0.6,0.6c0.1,0.1,0.2,0.1,0.4,0.2
	c0.1,0,0.3,0,0.4,0.1c0.1,0,0.2,0,0.3-0.1h0.1c0.2-0.1,0.4-0.2,0.6-0.4c0.1-0.1,0.2-0.2,0.2-0.3c0.1-0.2,0.2-0.4,0.2-0.7
	c0-0.1,0-0.3-0.1-0.4c0,0,0,0,0-0.1c0-0.1-0.1-0.2-0.1-0.3c-0.1-0.1-0.2-0.2-0.3-0.3c-0.2-0.2-0.4-0.3-0.6-0.4c-0.1,0-0.2,0-0.4,0
	c-0.2,0-0.4,0.1-0.6,0.2l-0.2,0.2c-0.1,0.1-0.2,0.2-0.2,0.4c0,0.1-0.1,0.2-0.1,0.3c0,0.2,0,0.3,0,0.5l0.1,0.3l0.2,0.2
	c0.1,0.1,0.2,0.2,0.4,0.2c0.1,0.1,0.3,0.1,0.5,0.1h-0.3h0.1l-0.3-0.1l0.1,0.1l-0.2-0.2c0,0,0,0,0.1,0.1l-0.2-0.2v0.1l-0.1-0.3
	c0,0,0,0.1,0,0.1V212v0.1v-0.3c0,0,0,0,0,0.1l0.1-0.3l0,0l0.2-0.2l0.2-0.2h-0.1l0.3-0.1h-0.1h0.3c0,0-0.1,0-0.1,0h0.3
	c0,0-0.1,0-0.1,0l0.3,0.1l-0.1-0.1l0.2,0.2l-0.1-0.1l0.2,0.2c0,0-0.1-0.1-0.1-0.1l0.1,0.3v-0.1v0.3c0,0,0-0.1,0-0.1v0.3
	c0,0,0-0.1,0-0.1l-0.1,0.2c0,0,0-0.1,0.1-0.1l-0.2,0.2l0.2-0.2c0,0,0-0.1,0-0.1c0-0.1,0-0.1,0.1-0.2l-0.1,0.2v-0.1
	c0.2-0.3,0.2-0.6,0-0.9c-0.1-0.1-0.2-0.2-0.3-0.3c-0.1-0.1-0.3-0.1-0.5-0.1L124,210.4z"/>
<path d="M120.9,207.4c0.3-0.1,0.6-0.2,0.8-0.3l0.4-0.1h0.2h0.2h0.1h0.2h0.4h1l1.8,0.1c0.4,0,0.7,0,1.1-0.1c0.7-0.2,1.1-0.9,0.9-1.6
	c-0.1-0.5-0.6-0.8-1.1-0.8c-0.3,0-0.5,0-0.7,0.2c0,0,0.2,0,0.3-0.1c-0.1,0-0.2,0-0.2,0h-0.9c-0.6,0-1.2,0-1.8,0.1
	c-0.6,0-1.3,0.2-1.9,0.3c-0.7,0.2-1.3,0.5-1.8,1c-0.3,0.3-0.3,0.7-0.1,1.1c0.2,0.3,0.6,0.5,1,0.4L120.9,207.4z"/>
<path d="M147.4,211.7L147.4,211.7l-0.1-0.2L147.4,211.7c0,0.1,0,0.1,0.1,0.2l0.1,0.1l-0.1-0.2c0,0,0.1,0.1,0.1,0.1L147.4,211.7
	c0,0,0,0.1,0,0.2v-0.3L147.4,211.7l0-0.3v0.1l0.1-0.3c0,0,0,0.1-0.1,0.1l0.2-0.2l-0.1,0.1l0.2-0.2l-0.1,0.1l0.3-0.1h-0.1h0.3
	c0,0-0.1,0-0.1,0h0.3h-0.1l0.3,0.1h-0.1l0.2,0.2l0.2,0.2l0.1,0.3c0,0,0,0,0-0.1v0.3c0,0,0-0.1,0-0.1v0.3c0,0,0-0.1,0-0.1l-0.1,0.3
	l0.1-0.1l-0.2,0.2c0,0,0-0.1,0.1-0.1l-0.2,0.2l0.1-0.1l-0.3,0.1h0.1h-0.3h0.3c0.1,0,0.3-0.1,0.4-0.2c0.1-0.1,0.2-0.1,0.2-0.2
	c0.1-0.1,0.2-0.3,0.2-0.4v-0.3v-0.3c0-0.1-0.1-0.3-0.2-0.4c-0.1-0.1-0.2-0.2-0.3-0.3c-0.2-0.1-0.4-0.2-0.6-0.2c-0.1,0-0.2,0-0.4,0
	c-0.2,0.1-0.4,0.2-0.6,0.3c-0.1,0.1-0.2,0.2-0.2,0.3c-0.1,0.1-0.1,0.2-0.2,0.4c0,0.1-0.1,0.3-0.1,0.4c0,0.1,0,0.3,0,0.4
	c0.1,0.4,0.3,0.7,0.6,0.8c0.1,0.1,0.2,0.1,0.4,0.1c0.1,0,0.3,0,0.4,0c0.1,0,0.3,0,0.4-0.1c0.1,0,0.3-0.1,0.4-0.2
	c0.1-0.1,0.2-0.2,0.3-0.2c0.2-0.2,0.3-0.4,0.3-0.6c0.1-0.3,0.1-0.6,0-0.8c0-0.1-0.1-0.3-0.2-0.4c-0.1-0.1-0.2-0.2-0.3-0.3
	c-0.2-0.3-0.6-0.4-0.9-0.4c-0.2,0-0.3,0-0.5,0.1c-0.1,0.1-0.2,0.2-0.3,0.3C147.1,211.2,147.1,211.5,147.4,211.7L147.4,211.7z"/>
<path d="M152.1,206c-0.5-0.5-1.1-0.8-1.7-1c-0.6-0.2-1.3-0.3-1.9-0.3c-0.6-0.1-1.2,0-1.8-0.1c-0.3,0-0.6,0-0.9,0h-0.2h0.1
	c0.2,0-0.2-0.1-0.3-0.1c-0.1,0-0.3,0-0.4,0c-0.5,0-0.9,0.3-1.1,0.8c-0.2,0.6,0.2,1.3,0.8,1.5c0.4,0.1,0.8,0.2,1.2,0.2l1.9-0.1
	c0.6,0,1.2,0,1.8,0.1h0.1h0.2l0.4,0.1c0.3,0.1,0.6,0.2,0.9,0.3C152.1,207.7,152.7,206.5,152.1,206L152.1,206z"/>
<path d="M132.1,222.6c-0.5,0.5-0.6,1.3-0.4,1.9c0.3,0.6,0.8,1.1,1.5,1.4c1.2,0.8,2.7,1.1,4.2,1c0.7-0.1,1.5-0.2,2.2-0.4
	c0.7-0.1,1.3-0.5,1.8-0.9c0.5-0.5,0.7-1.1,0.6-1.8c-0.1-0.8-0.6-1.8-1.6-1.7c-0.6,0-1.1,0.5-1.1,1.1c0,0.2,0.1,0.4,0.1,0.5
	c0.1,0.1,0.1,0.2,0.2,0.3c0,0.1,0.1,0.2,0,0s-0.1-0.2,0,0c-0.1-0.2,0-0.1,0,0s0-0.2,0,0v-0.1c-0.1,0.1-0.1,0.1,0,0.1s-0.2,0.1,0,0
	c-0.1,0-0.1,0.1-0.2,0.1c-0.1,0.1-0.3,0.1-0.4,0.2c-0.2,0.1-0.4,0.1-0.6,0.2c-0.4,0.1-0.8,0.2-1.3,0.2c-0.9,0.1-1.8,0-2.6-0.3
	c-0.4-0.1-0.7-0.3-1.1-0.5c-0.1-0.1-0.2-0.2-0.2-0.3v-0.1c0.2-0.4,0-0.9-0.3-1C132.7,222.3,132.3,222.3,132.1,222.6L132.1,222.6z"/>
<path d="M140.9,232.4c-3.1,0.2-6.2,0.2-9.3,0c-0.3-0.1-0.5,0-0.7,0.1c-0.3,0.3-0.1,0.7,0,1c1.8,3.3,5.9,4.5,9.1,2.8
	c0.7-0.4,1.4-0.9,2-1.6c0.4-0.4,0.6-0.8,0.6-1.3c0-0.5-0.4-0.9-0.9-1"/>
<path d="M140.9,231.6c-2.6,0-5.1-0.1-7.7-0.3c-1.1-0.1-2.7-0.6-3.4,0.6c-0.6,1,0,2.2,0.6,3.1c2.6,3.5,7.6,4.3,11.1,1.7
	c1.1-0.7,1.8-1.7,2.2-2.8c0.3-1.1-0.3-2.2-1.4-2.5c-0.3-0.1-0.6-0.1-0.9-0.1c-0.8,0.2-1.1,1.6-0.2,1.9c0.3,0.1,0.2,0.2,0,0.5
	c-0.3,0.4-0.7,0.8-1.2,1.1c-1,0.7-2.1,1-3.3,1c-1.1,0-2.1-0.4-3-1c-0.4-0.3-0.8-0.7-1.2-1.1c-0.2-0.2-0.3-0.4-0.4-0.6
	c-0.1-0.1-0.1-0.3-0.2-0.4s0.1,0,0,0.2l-0.4,0.4c0.2,0,0.5,0,0.7,0h1.3h2.6c1.7-0.1,3.4-0.2,5.1-0.5
	C142,232.9,141.8,231.5,140.9,231.6L140.9,231.6z"/>
<path d="M116.4,241.2c0.1,1.4,0.6,2.9,0.8,4.3c0.3,1.6,0.4,3.1,0.5,4.7c0.2,3,0.3,6,0.3,9.1c0,0.6,0.5,1.1,1.1,1.1
	c0.6,0,1.1-0.5,1.1-1.1c-0.1-3.1-0.2-6.3-0.5-9.4c-0.2-1.5-0.4-3-0.7-4.5c-0.2-1.6-0.7-3.1-1.3-4.5c-0.2-0.3-0.6-0.4-1-0.2
	C116.6,240.7,116.4,241,116.4,241.2z"/>
<path d="M156.1,241.4c-1,3-1.5,6-1.6,9.1c-0.2,3.1,0,6.2,0.4,9.3c0.2,1.1,2.1,0.9,1.9-0.3c-0.3-3-0.4-6-0.3-9c0.1-3,0.7-6,0.9-9
	C157.5,240.7,156.3,240.6,156.1,241.4L156.1,241.4z"/>
<path d="M108.6,209.2c2.3-4.5,4.6-9.1,4.9-14.1c0.2-2.3,0-5,1.7-6.6c1.3-1.3,3.3-1.4,5.2-1.4c11.1-0.2,22.1,4.3,36.3-2.2
	c2-0.9,0.2,1.8,0.5,4.1c0.6,3.9,1.6,7.7,2.9,11.4c1.1,2.8,2.9,4.3,3.1,7.4c2.2-1.9,2.7-5,3-7.8c0.7-5.6,1.4-11.7-1.4-16.6
	c-1-1.6-2.3-3.2-3.6-4.5c-3.6-3.8-7.4-7.7-12.3-9.4c-2.9-0.9-6-1.3-9.1-1.4c-4.3-0.4-8.7-0.4-13,0c-4.3,0.4-8.5,1.9-12.1,4.3
	c-3.7,2.7-6.3,6.7-8.8,10.5c-1,1.4-1.7,2.9-2.3,4.4c-0.5,1.6-0.4,3.4,0.4,4.8c0.6,0.9,1.4,1.5,1.9,2.4c0.4,0.9,0.7,1.9,0.7,2.9
	l1,8.4"/>
<path d="M109.2,209.6c1.7-2.9,3.1-5.9,4.2-9c0.5-1.5,0.9-3,1.1-4.6c0.1-1.6,0.2-3.1,0.4-4.7c0.8-3.4,4.4-3.2,7.2-3.1s5.4,0.3,8,0.6
	c5.8,0.6,11.6,1.1,17.3,0.1c1.6-0.3,3.1-0.6,4.6-1.1c0.7-0.2,1.4-0.5,2.2-0.8c0.4-0.2,0.9-0.4,1.3-0.5s1.4-0.4,1.6-0.7l-0.7-0.6v0.2
	c-0.1,0.2-0.1,0.4-0.1,0.7c-0.1,0.6-0.3,1.2-0.3,1.9c0,1.1,0.1,2.2,0.4,3.2c0.5,2.8,1.2,5.6,2.1,8.3c0.4,1.3,1,2.6,1.7,3.8
	c0.9,1.3,1.5,2.8,1.8,4.4c0,0.7,0.6,1.2,1.2,1.2c0.3,0,0.6-0.1,0.8-0.3c2.7-2.5,3.1-6.4,3.6-9.9c0.5-3.9,0.8-8-0.1-11.9
	c-1-4.1-3.7-7.1-6.6-10.1c-2.6-3-5.7-5.5-9.1-7.4c-3.9-2-8.3-2.3-12.7-2.6c-4.5-0.4-9.1-0.3-13.7,0.2c-4,0.5-7.9,1.9-11.2,4.2
	c-3.1,2.4-5.8,5.4-7.9,8.8c-2.2,3.4-5.5,7.6-3.8,11.8c0.4,0.9,1,1.7,1.6,2.4c0.8,0.9,1.2,2,1.3,3.2c0.3,2.8,0.7,5.6,1,8.4
	c0.2,1.6,2.7,1.6,2.5,0l-0.8-6.4c-0.2-1.8-0.2-3.8-1.1-5.4s-2.4-2.4-2.5-4.4s0.9-3.6,1.9-5.2c1.8-3.2,4-6.1,6.5-8.8
	c2.6-2.6,5.9-4.5,9.4-5.5c3.9-0.9,7.9-1.3,11.9-1.1c4.1,0.1,8.5,0.1,12.5,1.1c3.6,1,6.8,2.9,9.4,5.4c2.7,2.4,5.7,5.2,7.6,8.4
	c2.1,3.6,2.1,7.9,1.8,11.9c-0.3,3.6-0.3,8.6-3.2,11.2l2,0.8c-0.3-3.1-2.3-5.3-3.3-8.1c-0.9-2.6-1.6-5.2-2.2-7.9
	c-0.3-1.1-0.5-2.2-0.6-3.4c0-1.1,0.6-2.2,0.5-3.3c0-0.8-0.7-1.5-1.5-1.4c-0.1,0-0.2,0-0.3,0.1c-0.8,0.3-1.5,0.6-2.3,1
	c-1,0.4-2,0.8-3.1,1.1c-6.3,2-12.8,1.8-19.4,1.1c-3-0.3-6-0.7-9-0.8c-2.7-0.1-6-0.4-8.3,1.3c-3,2.2-2.2,6.5-2.7,9.7
	c-0.9,4.1-2.3,8.1-4.2,11.8C107.6,209.7,108.8,210.4,109.2,209.6L109.2,209.6z"/>
<path d="M115.8,257.2c6.1,8.1,13.5,15.2,21.9,20.9c0.4,0.2,1,0.2,1.3-0.2c7.2-6,14.1-12.9,19.4-20.6c0.6-0.8-0.8-1.9-1.4-1.1
	c-3,3.6-6,7.2-9.3,10.6c-3.2,3.4-6.7,6.6-10.3,9.6l1.4-0.2c-8.1-5.7-15.4-12.4-21.8-20C116.5,255.5,115.2,256.5,115.8,257.2
	L115.8,257.2z"/>
<path d="M257,365.1c-2.6-3.4-6.3-6-10-8.2c-1.9-1.1-3.8-2.1-5.8-2.9c-1.6-0.7-4.4-2.1-6-0.6c-0.4,0.4-0.4,1.1,0.1,1.5
	c0.2,0.2,0.4,0.3,0.7,0.3c0.4,0,0.8-0.1,1.2,0c0.4,0.1,0.9,0.2,1.3,0.4c0.9,0.3,1.9,0.7,2.8,1.1c3.5,1.5,6.9,3.4,10,5.6
	c1.6,1.1,3.2,2.4,4.6,3.8C256.4,366.6,257.5,365.8,257,365.1L257,365.1z"/>
<path d="M246,384.4c-2.4-0.6-4.6-1.7-7-2c-2.3-0.3-4.6-0.4-6.8-1c-4.4-1-8.5-3.1-12-6c-1.1-1-2.8,0.7-1.6,1.6
	c3.6,3,7.7,5.1,12.2,6.3c2.2,0.6,4.5,0.9,6.9,1c2.8,0.2,5.3,1,8.1,1.4C246.6,385.9,247,384.6,246,384.4L246,384.4z"/>
<path d="M107.4,211.6c-1.2,0.7-2.3,2-1.8,3.4c0.3,1.1,1.4,1.6,2.5,1.3c0.1,0,0.3-0.1,0.4-0.2l-1.6-1.3c-1.1,4.9-1.9,9.8-2.5,14.7
	c-0.3,2.6-0.4,5.2-0.4,7.7c0,2,0,4.1,1.3,5.8c1.7,2.2,7.9,5.7,9.2,1.4c0.4-1.6-0.5-3.3-2.1-3.7c-0.1,0-0.2,0-0.3-0.1
	c-2.1-0.3-2.7,2.5-1.3,3.7c0.8,0.8,2.5,0.3,2.4-1c0-0.5-0.1-1-0.2-1.5c-0.4-1.1-2.3-1.4-2.6,0c-0.1,0.5-0.1,1,0,1.5l2.4-1v0.6
	l-1.3,0.4c0.6,0.1,0.7,0.4,0,0.5c-0.6-0.1-1.2-0.3-1.8-0.6c-1-0.4-2-1.1-2.7-2c-0.7-1.1-0.6-2.7-0.6-3.9c0-1.4,0-2.9,0.1-4.4
	c0.5-5.9,1.3-11.7,2.4-17.5c0.1-0.9-0.8-1.9-1.6-1.3c0.4-0.4,0.7-0.8,1-1.2c0.3-0.4,0.3-0.9-0.1-1.2
	C108.1,211.5,107.7,211.5,107.4,211.6L107.4,211.6z"/>
<path d="M312.2,256.9l-1-3.6c-0.8-2.9,2.1-5.6,4.8-4.3c0,0,0.1,0,0.1,0.1c1,0.5,1.7,1.4,1.8,2.5c0.2,1.5-0.7,2.1-1.6,2.7
	c-4.5,3.2-7.8,8-10.9,12.6c-20.5,30.2-42.6,59.3-66.2,87.1"/>
<path d="M312.9,256.7c-0.4-1.9-1.8-5,0.2-6.4c0.7-0.5,1.6-0.7,2.4-0.4c1.1,0.3,1.6,1.5,1.3,2.5c0,0,0,0,0,0
	c-0.3,0.7-1.3,1.1-1.8,1.5c-0.9,0.7-1.7,1.4-2.5,2.2c-3,3.2-5.7,6.6-8,10.3c-2.8,4.1-5.7,8.2-8.5,12.3c-11.5,16.4-23.5,32.4-36,48.2
	c-7,8.8-14.1,17.5-21.4,26.1c-1,1.2,0.7,2.9,1.7,1.7c14.1-16.7,27.7-33.9,40.8-51.5c6.6-8.8,13-17.8,19.3-26.9c3-4.3,5.9-8.7,9-13
	c1.4-2,3-3.9,4.8-5.7c0.8-0.8,1.7-1.6,2.6-2.3c0.8-0.5,1.5-1.1,2-1.8c1.2-1.9,0.1-4.4-1.7-5.5c-1.7-1-3.9-0.7-5.3,0.8
	c-2.3,2.4-0.9,5.4,0,8.1c0.1,0.4,0.5,0.6,0.9,0.5C312.9,257.5,313.1,257.1,312.9,256.7L312.9,256.7L312.9,256.7z"/>
<path d="M190.5,408.1c5.3-4.6,10.5-9.2,15.7-14c2.6-2.4,5.1-4.8,7.6-7.2c1.2-1.2,2.4-2.3,3.6-3.5c0.6-0.6,1.2-1.2,1.8-1.9l1-1
	c0.2-0.2,0.6-0.8,0.8-0.9l-1-0.2l0.2,0.1l-0.7-1.2v0.1l1-1.3l0.6,0.1c-0.5-0.5-1.3-0.6-1.8-0.1c-0.5,0.4-0.6,1.1-0.2,1.6
	c0.4,0.7,1.3,1.1,2.1,1c0.5-0.1,0.8-0.5,0.9-0.9c0.2-0.9-0.3-1.7-1.2-1.9c-0.5-0.1-1,0-1.4,0.3c-0.7,0.6-1.3,1.2-1.9,1.9
	c-0.7,0.7-1.4,1.5-2.1,2.2c-2.8,2.9-5.6,5.9-8.4,8.8c-5.7,5.8-11.6,11.4-17.6,16.8C188.7,407.8,189.8,408.8,190.5,408.1L190.5,408.1
	z"/>
<path d="M117.4,251.2c-2.3,1.2-4.6,2.5-6.8,3.8c-1.8,1.1-3.2,2.4-3.5,4.6c-0.6,4.4,0.7,9.3,2.2,13.4c1.8,4.4,3.9,8.6,6.3,12.6
	c1,1.7,2,3.6,3.6,4.8c1.7,1.1,3.7,1.4,5.6,1c2.1-0.5,4-1.5,5.7-2.9c2-1.5,3.9-3.2,5.8-4.8c0.6-0.5,0.6-0.9,1.3-0.4l1.3,1l3.2,2.5
	c1.8,1.4,3.6,3.2,5.8,4.1c1.9,0.8,4,0.3,5.3-1.2c1.6-1.7,3.1-3.5,4.5-5.3c2.8-3.7,5.3-7.6,7.5-11.7c1.1-2.2,2.6-4.6,2.3-7.2
	c-0.5-2.4-1.4-4.7-2.7-6.8c-1.2-2.1-2.5-4-4.1-5.8c-1.4-1.6-3.1-3.9-5.6-3.4c-1.2,0.2-0.9,2.3,0.3,2.1c0.9-0.1,1.6,0.8,2.2,1.4
	s1.4,1.5,2.1,2.3c1.2,1.5,2.3,3,3.2,4.7c1.1,1.7,1.9,3.6,2.3,5.6c0.3,2-1.1,4.2-2,5.9c-1.9,3.6-4.1,7.1-6.6,10.4
	c-1.2,1.6-2.5,3.2-3.9,4.7c-0.6,0.7-1.3,1.4-2,2c-1.1,0.7-2.2,0.2-3.2-0.4c-1.8-1.1-3.4-2.6-5.1-3.9l-2.6-2.1
	c-0.6-0.6-1.4-1.1-2.2-1.5c-1.8-0.6-3.4,1.6-4.6,2.6c-1.6,1.4-3.2,2.8-5,4c-1.5,1.2-3.4,1.9-5.4,1.9c-2-0.1-3.2-1.4-4.1-3
	c-2.1-3.4-4-6.9-5.7-10.6c-2-4.1-3.3-8.6-3.6-13.2c-0.2-1.1,0-2.3,0.4-3.4c0.6-0.9,1.3-1.6,2.3-2.1c2.1-1.4,4.2-2.8,6.2-4.4
	C119,251.9,118.1,250.9,117.4,251.2L117.4,251.2z"/>
<path d="M242.8,365.1c2.5,1,4.9,2.2,7.1,3.8c1.1,0.8,2.1,1.6,3.1,2.5c1,0.9,1.8,2.1,2.9,2.9c0.8,0.6,1.8-0.5,1.3-1.3
	c-0.8-1.2-1.8-2.2-3-3c-1.1-0.9-2.3-1.8-3.5-2.6c-2.4-1.5-4.9-2.8-7.6-3.6C242.3,363.5,241.9,364.8,242.8,365.1L242.8,365.1z"/>
<path d="M240.2,370.8c1.1,0.8,2.2,1.4,3.4,1.9c2.3,1,4.4,2.5,6.3,4.2c0.5,0.4,0.9,0.9,1.3,1.4s0.8,1.1,1.3,1.5
	c0.4,0.3,0.9,0.3,1.2-0.1c0.2-0.3,0.3-0.6,0.1-0.9c-0.7-1.1-1.6-2.1-2.6-3c-1-0.9-2-1.7-3.1-2.4c-1.1-0.7-2.2-1.3-3.4-1.9
	c-1.3-0.5-2.6-1.1-3.7-1.8C240.4,369.2,239.6,370.3,240.2,370.8L240.2,370.8z"/>
<path d="M236.1,375.8c2.4,0.9,4.8,2.1,6.9,3.6c1,0.7,2,1.5,2.9,2.4c0.9,1,1.8,1.9,2.9,2.8c0.8,0.6,1.8-0.5,1.3-1.3
	c-0.8-1.1-1.8-2.1-2.9-2.9c-1.1-0.9-2.2-1.7-3.3-2.5c-2.3-1.5-4.8-2.7-7.4-3.5C235.6,374.2,235.3,375.5,236.1,375.8L236.1,375.8z"/>
<path class="st1" d="M108.2,263.7c-13.3-1-24.2,0.7-36.9,4.7c-6,1.9-12,4.5-16.8,8.5c-10.8,9-14.5,24-16.3,37.9
	c-3.3,25.4-2.8,51.1,1.5,76.4c1,5.9,2.3,11.9,4.8,17.4c8.2,18,28.8,27.9,48.6,28.4s38.9-6.8,56.8-15.3
	c24.2-11.4,47.3-25.1,68.3-41.7c0.8-6.6,0.3-13.3-1.4-19.7c-0.3-1.8-1.2-3.5-2.4-4.9c-2.7-2.6-7.1-1.7-10.7-0.8
	c-35.2,9.5-71.1,16.3-107.3,20.4c-3.7,0.4-8.6,2.8-7.1,6.2c-1.1-17.4-2.1-34.8-3.2-52.2"/>
<path d="M108.2,262.9c-4.7-0.5-9.4-0.7-14.2-0.4c-4.5,0.3-9,1-13.4,2c-8.7,1.9-18,4.7-25.3,10c-13.5,10-17,27.5-18.9,43.1
	c-2.4,20.2-2.4,40.6,0,60.8c0.6,5,1.3,10,2.2,14.9c0.8,4.7,2,9.4,3.7,13.9c2.9,7,7.5,13.2,13.5,18c12.2,9.7,28.1,13.8,43.6,12.9
	c19.3-1.1,37.5-8.8,54.7-17.2c17.1-8.2,33.6-17.8,49.2-28.6c3.9-2.7,7.8-5.6,11.6-8.5c0.9-0.7,1.7-1.3,2.6-2s1.7-1.1,1.8-2.4
	c0.3-2.5,0.4-5,0.3-7.6c0-4.7-0.8-9.4-2.3-13.9c-1.2-3.7-4.9-6-8.7-5.5c-1.9,0.2-3.9,0.5-5.7,1.1c-2.5,0.7-5,1.3-7.5,2
	c-4.9,1.3-9.7,2.5-14.6,3.6c-9.9,2.3-19.9,4.4-29.9,6.4s-20,3.6-29.9,5.1c-5.1,0.8-10.2,1.5-15.3,2.1c-2.6,0.3-5.2,0.6-7.7,0.9
	c-1.9,0.1-3.7,0.5-5.4,1.2c-2.7,1.1-5.6,3.5-4.3,6.7c0.5,1.2,2.5,1.2,2.4-0.3c-1.1-17.4-2.2-34.8-3.3-52.1c-0.1-1.5-2.3-1.5-2.3,0
	c1.1,17.4,2,34.8,3.1,52.1l2.4-0.3c-1.5-3.7,5.7-4.6,7.8-4.9c5.2-0.6,10.3-1.3,15.5-2c10.5-1.4,21-3.1,31.4-5s20.7-4,30.9-6.3
	c5.2-1.2,10.4-2.4,15.6-3.7c4.9-1.2,9.7-2.8,14.6-3.7c2.1-0.4,4.5-0.7,6.4,0.5c2.3,1.3,2.8,4.3,3.3,6.7c1.3,5.8,1.6,11.7,0.9,17.6
	l0.4-0.8c-20.8,16.5-43.7,30-67.7,41.3c-22.4,10.5-48.2,20-73,12.6c-9.9-3-19.2-8.5-25.8-16.6c-8-10-9.8-23.4-11.4-35.7
	c-1.8-14-2.4-28.1-1.9-42.1c0.3-6.9,0.8-13.9,1.6-20.8c0.6-5.8,1.7-11.6,3.2-17.3c1.4-5.3,3.5-10.4,6.4-15c3.2-4.9,7.6-9,12.8-11.7
	c5.6-3,11.9-4.8,18-6.4c6.2-1.6,12.6-2.6,19-2.9c3.2-0.2,6.4-0.2,9.6,0c0.9,0,0.9-1.3,0-1.4L108.2,262.9z"/>
<g>
	<path class="st4" d="M88.1,325.3c0.2,18.2,0.5,36.3,0.9,54.5c0,0.6,0.4,1,1,1c0.2,0,0.4,0,0.5-0.1c15.3-8.2,33-10.1,49.9-12.6
		l16.1-2.3c1.3-0.2,0.7-2.1-0.5-1.9c-9.3,1.3-18.6,2.6-27.8,4c-8.6,1.1-17.1,3-25.4,5.5c-4.6,1.5-9,3.3-13.2,5.6l1.5,0.9
		c-0.4-18.2-0.8-36.3-1.4-54.5c0-0.4-0.3-0.8-0.8-0.8C88.4,324.5,88.1,324.9,88.1,325.3L88.1,325.3z"/>
	<path class="st4" d="M171.2,363l0.9-1.7c0.1-0.2,0.1-0.4,0.1-0.6c-0.1-0.2-0.2-0.4-0.4-0.5c-0.2-0.1-0.4-0.1-0.6-0.1
		c-0.2,0.1-0.4,0.2-0.5,0.4l-0.8,1.7c-0.1,0.2-0.1,0.4-0.1,0.6c0,0.2,0.2,0.4,0.4,0.5C170.6,363.5,171,363.3,171.2,363L171.2,363z"
		/>
	<path class="st4" d="M180.2,362.5c0.4,0,0.7-0.3,0.7-0.7c0-0.4-0.3-0.7-0.7-0.7c-0.4,0-0.7,0.3-0.7,0.7
		C179.5,362.1,179.8,362.4,180.2,362.5z"/>
	<path class="st4" d="M188.4,358c4.5-0.8,9-1.5,13.6-2c2.2-0.2,4.4-0.5,6.6-0.6c1.3-0.1,5.8-1,5.5,1.3c-0.1,1.1,1.9,1.4,2,0.3
		c0.3-2.1-1.3-3.6-3.3-3.8c-1.3-0.1-2.5,0-3.8,0.2c-1.5,0.1-2.9,0.3-4.4,0.5c-5.6,0.7-11.1,1.6-16.6,2.8
		C187,356.9,187.4,358.2,188.4,358L188.4,358z"/>
	<path class="st4" d="M201.5,318.3c1.7,12.2,2.5,24.4,2.5,36.7l2.2-0.3l-0.3-1c-0.4-1.4-2.3-0.8-2.1,0.6l0.2,1.1
		c0.2,1.3,2.2,1,2.2-0.3c-0.1-12.4-1.3-24.8-3.5-37C202.7,317.1,201.3,317.5,201.5,318.3L201.5,318.3z"/>
</g>
<path class="st1" d="M77.2,430c-9.9,44.7-17.9,89.7-23.9,135.1c-6,45.3-10,90.7-12.1,136.4c-1.7,38.8-2.1,77.6-1,116.5
	c0.6,20.6,0.9,43.3-12.4,59.1c-1.1,1.1-2,2.5-2.6,4c-4.4,15.1,42,9.6,49.3,7.9c3.9-0.9,5-3.5,5.7-7.5c12.1-75,36.6-149.3,37.8-225.8
	c0.5-30.9-3.6-60.3,6.5-90.2c9-26.6,20.6-52.6,28.1-79.7c4.9-17.7,6.2-36.2,3.9-54.4"/>
<path d="M76.5,429.8C68.2,465.6,61.4,501.6,56,538c-5.5,36.1-9.7,72.4-12.6,108.8c-2.9,36.7-4.6,73.4-5,110.3
	c-0.2,18.5,0,37,0.4,55.5c0.4,15,1.4,30.5-2.6,45.1c-1.9,7.1-5.3,13.7-10,19.3c-2.2,2.7-3.7,6.3-1.6,9.5c1.6,2.4,4.6,3.6,7.3,4.4
	c4,1,8.1,1.6,12.3,1.7c8.4,0.2,16.9-0.2,25.2-1.5c2.8-0.4,6.3-0.6,8.7-2.4c2-1.5,2.8-3.9,3.2-6.3c0.8-4.3,1.4-8.7,2.2-13
	c6.2-34.8,14.6-69.2,21.7-103.8s12.8-69.5,13.9-104.7c0.5-17.3-0.6-34.6-0.2-52c0.1-8.6,0.9-17.1,2.3-25.6
	c1.7-8.7,4.1-17.1,7.2-25.4c6-16.7,12.7-33.1,18.5-49.9c5.7-16.5,10.7-33.1,11.8-50.6c0.5-8.7,0.3-17.4-0.8-26.1
	c-0.2-1.7-2.9-1.7-2.7,0c2.2,17.4,1.1,35-3.2,52c-4.3,16.7-10.5,32.9-16.6,49.1s-13.2,32.4-16.3,49.5c-3,16.3-2.8,32.9-2.4,49.4
	c0.5,17.1,0.1,34.3-1.1,51.3c-1.4,17.4-3.9,34.7-6.9,51.9c-6,34.3-14.2,68.1-21.3,102.2c-1.7,8.4-3.4,16.8-5,25.2
	c-0.8,4.3-1.6,8.5-2.3,12.8c-0.6,3.3-0.6,7.6-2.3,10.6c-1.6,2.8-5.7,2.9-8.5,3.3c-3.8,0.5-7.7,0.9-11.5,1.2
	c-8.2,0.5-17.2,1-25.3-1.4c-2.3-0.7-5.4-1.8-6.1-4.5c-0.5-2,0.7-3.9,2-5.4c2.2-2.6,4.1-5.4,5.7-8.3c6.7-12.4,7.7-27,7.7-40.8
	c0-17-0.8-34.1-0.9-51.1c-0.1-36.1,1-72.1,3.3-108.2c2.3-36,5.9-72,10.6-107.8c4.8-35.7,10.8-71.2,17.8-106.5
	c1.7-8.6,3.5-17.1,5.3-25.7C78.2,429.2,76.7,428.9,76.5,429.8L76.5,429.8z"/>
<path d="M361.8,333.9c1.7-3.9,3.9-7.5,6.5-10.9c1.3-1.7,2.7-3.4,4.1-5.1c1.3-1.7,2.7-3.3,4.4-4.6c1.8-1.1,3.8-1.8,6-1.9
	c1.6-0.3,3.3-0.3,4.9,0.1c2.1,0.8,1.3,3-0.2,4s-3.9,1-5,2.4c-0.5,0.9-0.8,1.9-0.8,2.9c-0.6,3.5-2,6.7-4.2,9.5
	c-0.8,1.1,1,2.5,1.9,1.4c1.5-1.8,2.6-3.7,3.4-5.9c0.4-1.1,0.8-2.2,1-3.4c0.2-1,0-2.9,1-3.5s2.1-0.7,3.1-1.2c0.9-0.4,1.8-1.1,2.4-1.9
	c1.2-1.5,1.3-3.6,0.1-5.1c-1.2-1.2-2.9-1.8-4.5-1.7c-2.2,0-4.3,0.2-6.4,0.8c-4.8,1.3-7.7,5.6-10.6,9.4c-3.5,4.2-6.3,9-8.3,14.1
	C360.1,334.1,361.4,334.7,361.8,333.9L361.8,333.9z"/>
<path d="M390.4,313.9c0.6-0.2,1.1-0.4,1.7-0.7c0.6-0.2,1.1-0.5,1.7-0.7c1.1-0.4,2.2-0.7,3.3-1c1.1-0.3,2.2-0.4,3.3-0.6
	c1.2-0.1,2.4-0.1,3.6-0.1c0.6-0.1,1-0.6,1-1.2c0-0.5-0.4-0.9-1-1c-2.5-0.2-5.1,0.1-7.5,0.8c-1.2,0.3-2.3,0.7-3.5,1.2
	c-1.2,0.4-2.3,1.1-3.3,1.9c-0.3,0.3-0.3,0.7,0,1C389.9,313.8,390.1,313.9,390.4,313.9L390.4,313.9z"/>
<path d="M406.4,315.5c-1.5-0.4-3.1-0.4-4.7,0c-1.6,0.3-3,1-4.3,2c-0.8,0.6,0.2,2,1.1,1.4c1.1-0.8,2.3-1.4,3.6-1.8
	c1.3-0.3,2.7-0.4,4-0.3C407,317,407.1,315.7,406.4,315.5L406.4,315.5z"/>
<path d="M407.3,322.7c-1.5,0-3,0.2-4.4,0.7c-0.7,0.2-1.4,0.5-2.1,0.8c-0.7,0.3-1.4,0.6-2,1.1c-0.4,0.4-0.4,1,0,1.3
	c0.2,0.2,0.6,0.3,0.9,0.2c0.7-0.3,1.3-0.6,1.9-1c0.6-0.3,1.2-0.6,1.8-0.8c1.3-0.5,2.6-0.8,4-1C408.3,323.9,408.1,322.6,407.3,322.7
	L407.3,322.7z"/>
<path d="M407.3,330.3c-10.8,7.6-22.3,13.6-35.3,16.5c-1.7,0.4-1,3,0.7,2.6c12.9-3.2,25.5-9,35.4-18
	C408.7,330.9,407.9,329.8,407.3,330.3L407.3,330.3z"/>
<g>
	<path class="st3" d="M42,848.3c8,0.9,16,1.8,24,2.7l11.8,1.3c1.6,0.2,7.7,1.6,6.9-1.9c-0.1-0.6-0.6-0.9-1.1-0.9s-0.9,0.6-0.9,1.1
		c0-0.3,0.1-0.1-0.4-0.1c-0.3,0-0.7,0-1-0.1l-2.7-0.2l-4.9-0.5l-10.6-1c-7-0.7-14-1.3-21-1.9C41.1,846.8,41.2,848.3,42,848.3
		L42,848.3z"/>
	<path class="st3" d="M66,585.1c5.7,2.1,12,1.9,17.5-0.7c0.9-0.4,0.1-1.8-0.8-1.4c-5.2,2.2-11,2.5-16.4,0.7
		C65.5,583.5,65.2,584.8,66,585.1z"/>
	<path class="st3" d="M68.1,601.4h10.1c0.4,0,0.8-0.3,0.8-0.8s-0.3-0.8-0.8-0.8H68.1c-0.4,0-0.7,0.3-0.7,0.7
		C67.3,601,67.6,601.4,68.1,601.4L68.1,601.4z"/>
</g>
<path class="st1" d="M209.7,430c9.9,44.7,17.9,89.7,23.9,135.1c6,45.3,10,90.7,12.1,136.4c1.8,38.8,2.1,77.6,1,116.5
	c-0.6,20.6-0.9,43.3,12.4,59.1c1.1,1.1,2,2.5,2.6,4c4.4,15.1-42,9.6-49.3,7.9c-3.9-0.9-5-3.5-5.7-7.5
	c-12.1-75-36.6-149.3-37.8-225.8c-0.5-30.9,3.6-60.3-6.5-90.2c-9-26.6-20.6-52.6-28.1-79.7c-4.9-17.7-6.2-36.2-3.9-54.4"/>
<path class="st1" d="M208.9,430.2c7.4,35,14,70.3,19.3,105.7c5.4,35.9,9.6,71.9,12.5,108.1c2.9,35.9,4.6,71.9,5.1,108
	c0.2,18.1,0.2,36.1-0.2,54.2c-0.3,15.1-1.5,30.4,1,45.3c1,6.7,3.2,13.1,6.4,19.1c1.7,2.9,3.6,5.7,5.8,8.3c1.2,1.5,2.3,3.4,1.7,5.3
	c-0.8,2.5-3.9,3.6-6.2,4.3c-3.9,1-8,1.5-12,1.6c-8.3,0.2-16.5-0.2-24.7-1.5c-3.1-0.4-7.1-0.6-8.6-3.8s-1.5-7.1-2.1-10.5
	c-0.7-4.3-1.5-8.6-2.3-12.8c-6.4-34.2-14.7-68-21.5-102.1s-12.4-68.5-13-103.3c-0.3-16.8,0.9-33.7,0.2-50.5
	c-0.3-8.2-1.1-16.5-2.6-24.6c-1.8-8.5-4.2-16.8-7.3-24.9c-5.8-16.3-12.3-32.3-18-48.7c-5.7-16.5-10.7-33.2-11.6-50.8
	c-0.4-8.4-0.1-16.9,0.9-25.2c0.2-1.7-2.5-1.7-2.7,0c-2.2,17.5-1.1,35.2,3.3,52.2c4.4,17.1,10.9,33.7,17.2,50.3
	c6.2,16.3,13.2,32.7,16.2,49.9c3,17.1,2.4,34.5,2.1,51.8c-0.4,17.6,0.1,35.2,1.7,52.7c1.6,17.3,4.2,34.5,7.2,51.6
	c6.3,35,14.7,69.5,21.8,104.3c1.8,8.7,3.4,17.4,5,26.1c0.7,4.1,1.3,8.3,2.1,12.5c0.5,2.4,1.4,4.8,3.5,6.3c2.4,1.6,5.7,1.8,8.4,2.2
	c4,0.5,8,0.9,12,1.2c8.3,0.5,17.4,0.9,25.5-1.5c2.7-0.8,5.7-2.1,7.2-4.6c2.1-3.5,0.2-7.1-2.1-9.8c-9.6-11.5-12-26.6-12.4-41.1
	c-0.5-17,0.6-34,0.8-51c0.3-37-0.8-74-3.1-110.9c-2.3-36.6-5.9-73.1-10.8-109.4c-4.9-36.1-10.8-72.1-18.4-107.8
	c-1.9-8.8-3.8-17.6-5.9-26.4C210.2,428.8,208.7,429.3,208.9,430.2L208.9,430.2z"/>
<g>
	<path class="st0" d="M244.8,846.8c-7,0.6-14,1.2-21,1.9l-10.4,1l-5.2,0.5l-2.5,0.2c-0.4,0.1-0.8,0.1-1.2,0.1h-0.3
		c-0.3-0.1-0.3-0.1-0.1,0.1c0.1-0.6-0.3-1.1-0.9-1.1s-1.1,0.3-1.1,0.9c-0.8,3.4,5,2.1,6.6,1.9l12.1-1.3c8-0.8,15.9-1.8,23.9-2.7
		C245.8,848.2,245.8,846.8,244.8,846.8L244.8,846.8z"/>
	<path class="st0" d="M220.5,583.8c-5.4,1.8-11.2,1.5-16.4-0.7c-0.9-0.4-1.7,0.9-0.8,1.4c5.5,2.5,11.8,2.8,17.5,0.7
		C221.8,584.8,221.4,583.5,220.5,583.8z"/>
	<path class="st0" d="M218.8,599.9h-10.1c-0.4,0-0.8,0.3-0.8,0.8s0.3,0.8,0.8,0.8h10.1c0.4,0,0.7-0.3,0.7-0.7
		C219.6,600.3,219.2,600,218.8,599.9L218.8,599.9z"/>
	<path class="st0" d="M81.9,435.4c16.3,2.4,32.4-2.4,47.8-7.6c15.8-5.4,31.4-11.3,46.8-17.8c8.6-3.6,17.1-7.4,25.5-11.4
		c1.1-0.5,0.1-2.1-0.9-1.6c-14.9,7-30.1,13.4-45.4,19.3c-7.6,2.9-15.2,5.7-22.8,8.4c-7.7,2.7-15.5,5.3-23.4,7.2
		c-8.9,2.1-18.2,3.2-27.3,2C81.3,433.9,81.1,435.3,81.9,435.4L81.9,435.4z"/>
	<path class="st0" d="M407.7,312.5c25.5,0.4,50.9,0.3,76.4,0.3c25.3,0.1,50.6,0.2,75.9,0.3c14.3,0.1,28.6,0.3,42.9-0.1
		c0.7,0,1.3-0.6,1.3-1.3c0-0.7-0.6-1.3-1.3-1.3c-12.7-0.3-25.5-0.1-38.2-0.1s-25.5,0.1-38.2,0.2c-25.3,0.1-50.6,0.2-75.9,0.2
		c-14.3,0-28.6,0-42.9,0.2c-0.4,0-0.8,0.3-0.8,0.8S407.3,312.5,407.7,312.5L407.7,312.5z"/>
	<path class="st0" d="M605.5,372.7c-25.5-0.4-50.9-0.3-76.4-0.3c-25.3-0.1-50.6-0.2-75.9-0.3c-14.3-0.1-28.6-0.3-43,0.1
		c-0.7,0-1.3,0.6-1.3,1.3c0,0.7,0.6,1.3,1.3,1.3l0,0c12.7,0.3,25.5,0.1,38.2,0.1s25.5-0.1,38.2-0.2c25.3-0.1,50.6-0.2,75.9-0.2
		c14.3,0,28.6,0,42.9-0.2c0.4,0,0.8-0.3,0.8-0.8S606,372.7,605.5,372.7L605.5,372.7z"/>
	<path class="st0" d="M605.5,392.2c-25.5-0.4-50.9-0.3-76.4-0.3c-25.3-0.1-50.6-0.2-75.9-0.3c-14.3-0.1-28.6-0.3-43,0.1
		c-0.7,0.1-1.2,0.7-1.2,1.4c0.1,0.6,0.6,1.1,1.2,1.2c12.7,0.3,25.5,0.1,38.2,0.1s25.5-0.1,38.2-0.2c25.3-0.1,50.6-0.2,75.9-0.2
		c14.3,0,28.6,0,42.9-0.2c0.4,0,0.8-0.3,0.8-0.8S606,392.2,605.5,392.2z"/>
	<path class="st0" d="M605.5,411.7c-25.5-0.4-50.9-0.3-76.4-0.3c-25.3-0.1-50.6-0.2-75.9-0.3c-14.3-0.1-28.6-0.3-43,0.1
		c-0.7,0.1-1.2,0.7-1.2,1.4c0.1,0.6,0.6,1.1,1.2,1.2c12.7,0.3,25.5,0.1,38.2,0.1s25.5-0.1,38.2-0.2c25.3-0.1,50.6-0.2,75.9-0.2
		c14.3,0,28.6,0,42.9-0.2c0.4,0,0.7-0.4,0.7-0.8C606.2,412,605.9,411.7,605.5,411.7L605.5,411.7z"/>
	<path class="st0" d="M605.5,431.2c-25.5-0.4-50.9-0.3-76.4-0.3c-25.3-0.1-50.6-0.2-75.9-0.3c-14.3-0.1-28.6-0.3-43,0.1
		c-0.7,0.1-1.2,0.7-1.2,1.4c0.1,0.6,0.6,1.1,1.2,1.2c12.7,0.3,25.5,0.1,38.2,0.1s25.5-0.1,38.2-0.2c25.3-0.1,50.6-0.2,75.9-0.2
		c14.3,0,28.6,0,42.9-0.2c0.4,0,0.7-0.4,0.7-0.8C606.2,431.5,605.9,431.2,605.5,431.2L605.5,431.2z"/>
	<path class="st0" d="M605.5,462.5c-25.5-0.4-50.9-0.3-76.4-0.3c-25.3-0.1-50.6-0.2-75.9-0.3c-14.3-0.1-28.6-0.3-43,0.1
		c-0.7,0.1-1.2,0.7-1.2,1.4c0.1,0.6,0.6,1.1,1.2,1.2c12.7,0.3,25.5,0.1,38.2,0.1s25.5-0.1,38.2-0.2c25.3-0.1,50.6-0.2,75.9-0.2
		c14.3,0,28.6,0,42.9-0.2c0.4,0,0.8-0.3,0.8-0.8S606,462.5,605.5,462.5L605.5,462.5z"/>
	<path class="st0" d="M605.5,482c-25.5-0.4-50.9-0.3-76.4-0.3c-25.3-0.1-50.6-0.2-75.9-0.3c-14.3-0.1-28.6-0.3-43,0.1
		c-0.7,0-1.3,0.6-1.3,1.3c0,0.7,0.6,1.3,1.3,1.3l0,0c12.7,0.3,25.5,0.1,38.2,0.1s25.5-0.2,38.2-0.2c25.3-0.1,50.6-0.2,75.9-0.2
		c14.3,0,28.6,0,42.9-0.2c0.4,0,0.8-0.3,0.8-0.8S606,482,605.5,482L605.5,482z"/>
	<path class="st0" d="M605.5,501.5c-25.5-0.4-50.9-0.3-76.4-0.3c-25.3-0.1-50.6-0.2-75.9-0.3c-14.3-0.1-28.6-0.3-43,0.1
		c-0.7,0.1-1.2,0.7-1.2,1.4c0.1,0.6,0.6,1.1,1.2,1.2c12.7,0.3,25.5,0.1,38.2,0.1s25.5-0.1,38.2-0.2c25.3-0.1,50.6-0.2,75.9-0.2
		c14.3,0,28.6,0,42.9-0.2c0.4,0,0.8-0.3,0.8-0.8S606,501.5,605.5,501.5z"/>
	<path class="st0" d="M605.5,521c-25.5-0.4-50.9-0.3-76.4-0.3c-25.3-0.1-50.6-0.2-75.9-0.3c-14.3-0.1-28.6-0.3-43,0.1
		c-0.7,0.1-1.2,0.7-1.2,1.4c0.1,0.6,0.6,1.1,1.2,1.2c12.7,0.3,25.5,0.1,38.2,0.1s25.5-0.2,38.2-0.2c25.3-0.1,50.6-0.2,75.9-0.2
		c14.3,0,28.6,0,42.9-0.2c0.4,0,0.7-0.4,0.7-0.8C606.2,521.3,605.9,521.1,605.5,521L605.5,521z"/>
</g>
<path d="M907,433.2H665.3c-3.2,0-6.5-0.1-9.8,0h-0.4l2.1,2.1V193.6c0-3.3,0.1-6.5,0-9.8v-0.4c0-2.7-4.2-2.7-4.2,0v241.7
	c0,3.3-0.1,6.5,0,9.8v0.4c0,1.1,0.9,2.1,2.1,2.1h241.7c3.3,0,6.5,0.1,9.8,0h0.5C909.7,437.4,909.7,433.2,907,433.2L907,433.2z"/>
<path d="M681.9,191.3c-4.8-0.1-9.5-0.5-14.3-0.4c-0.7,0.1-1.1,0.6-1.1,1.3c0.1,0.6,0.5,1,1.1,1.1c4.8,0.1,9.5-0.3,14.3-0.4
	c0.4,0,0.7-0.4,0.7-0.9C682.6,191.7,682.3,191.4,681.9,191.3L681.9,191.3z"/>
<path d="M673.3,208.1c-0.9-0.1-1.9-0.2-2.8-0.2c-0.9-0.1-1.9-0.2-2.8-0.2c-0.7,0-1.2,0.5-1.2,1.2c0,0.6,0.5,1.2,1.2,1.2
	c0.9,0,1.9-0.1,2.8-0.2c0.9-0.1,1.9-0.2,2.8-0.2c0.4,0,0.8-0.3,0.8-0.8C674.1,208.5,673.7,208.1,673.3,208.1
	C673.3,208.1,673.3,208.1,673.3,208.1L673.3,208.1z"/>
<path d="M681.9,224.9c-4.8-0.1-9.5-0.5-14.3-0.4c-0.7,0.1-1.1,0.6-1.1,1.3c0.1,0.6,0.5,1,1.1,1.1c4.8,0.1,9.5-0.3,14.3-0.4
	c0.4,0,0.7-0.4,0.7-0.9C682.6,225.3,682.3,225,681.9,224.9L681.9,224.9z"/>
<path d="M673.3,241.7c-0.9-0.1-1.9-0.2-2.8-0.2c-0.9-0.1-1.9-0.2-2.8-0.2c-0.7,0-1.2,0.5-1.2,1.2c0,0.6,0.5,1.2,1.2,1.2
	c0.9,0,1.9-0.1,2.8-0.2c0.9-0.1,1.9-0.2,2.8-0.2c0.4,0,0.8-0.3,0.8-0.8C674.1,242.1,673.7,241.7,673.3,241.7
	C673.3,241.7,673.3,241.7,673.3,241.7L673.3,241.7z"/>
<path d="M681.9,258.5c-4.8-0.1-9.5-0.5-14.3-0.4c-0.7,0.1-1.1,0.6-1.1,1.3c0.1,0.6,0.5,1,1.1,1.1c4.8,0.1,9.5-0.3,14.3-0.4
	c0.4,0,0.7-0.4,0.7-0.9C682.6,258.8,682.3,258.6,681.9,258.5z"/>
<path d="M673.3,275.3c-0.9-0.1-1.9-0.2-2.8-0.2c-0.9-0.1-1.9-0.2-2.8-0.2c-0.7,0-1.2,0.5-1.2,1.2c0,0.6,0.5,1.2,1.2,1.2
	c0.9,0,1.9-0.1,2.8-0.2c0.9-0.1,1.9-0.2,2.8-0.2c0.4,0,0.8-0.3,0.8-0.8C674.1,275.7,673.7,275.3,673.3,275.3L673.3,275.3z"/>
<path d="M681.9,292.1c-4.8-0.1-9.5-0.5-14.3-0.4c-0.7,0.1-1.1,0.6-1.1,1.3c0.1,0.6,0.5,1,1.1,1.1c4.8,0.1,9.5-0.3,14.3-0.4
	c0.4,0,0.7-0.4,0.7-0.9C682.6,292.4,682.3,292.2,681.9,292.1z"/>
<path d="M673.3,308.9c-0.9-0.1-1.9-0.2-2.8-0.2c-0.9-0.1-1.9-0.2-2.8-0.2c-0.7,0-1.2,0.5-1.2,1.2s0.5,1.2,1.2,1.2l0,0
	c0.9,0,1.9-0.1,2.8-0.2c0.9-0.1,1.9-0.2,2.8-0.2c0.4,0,0.8-0.4,0.8-0.8C674.1,309.3,673.7,308.9,673.3,308.9z"/>
<path d="M681.9,325.7c-4.8-0.1-9.5-0.5-14.3-0.4c-0.7,0.1-1.1,0.6-1.1,1.3c0.1,0.6,0.5,1,1.1,1.1c4.8,0.1,9.5-0.3,14.3-0.4
	c0.4,0,0.7-0.4,0.7-0.9C682.6,326,682.3,325.7,681.9,325.7z"/>
<path d="M673.3,342.5c-0.9-0.1-1.9-0.2-2.8-0.2c-0.9-0.1-1.9-0.2-2.8-0.2c-0.6,0-1.2,0.5-1.2,1.2c0,0.6,0.5,1.2,1.2,1.2
	c0.9,0,1.9-0.1,2.8-0.2c0.9-0.1,1.9-0.2,2.8-0.2c0.4,0,0.8-0.4,0.8-0.8C674.1,342.8,673.7,342.5,673.3,342.5z"/>
<path d="M681.9,359.3c-4.8-0.1-9.5-0.5-14.3-0.4c-0.7,0-1.2,0.5-1.2,1.2s0.5,1.2,1.2,1.2l0,0c4.8,0.1,9.5-0.3,14.3-0.4
	c0.4,0,0.7-0.4,0.7-0.9C682.6,359.6,682.3,359.3,681.9,359.3z"/>
<path d="M673.3,376.1c-0.9-0.1-1.9-0.2-2.8-0.2c-0.9-0.1-1.9-0.2-2.8-0.2c-0.7,0.1-1.1,0.6-1.1,1.3c0.1,0.6,0.5,1,1.1,1.1
	c0.9,0,1.9-0.1,2.8-0.2c0.9-0.1,1.9-0.2,2.8-0.2c0.4,0,0.8-0.4,0.8-0.8C674.1,376.4,673.7,376.1,673.3,376.1z"/>
<path d="M681.9,392.9c-4.8-0.1-9.5-0.5-14.3-0.4c-0.7,0-1.2,0.5-1.2,1.2s0.5,1.2,1.2,1.2l0,0c4.8,0.1,9.5-0.3,14.3-0.4
	c0.4,0,0.8-0.3,0.8-0.8C682.7,393.2,682.3,392.9,681.9,392.9L681.9,392.9L681.9,392.9z"/>
<path d="M673.3,409.7c-0.9-0.1-1.9-0.2-2.8-0.2c-0.9-0.1-1.9-0.2-2.8-0.2c-0.7,0.1-1.1,0.6-1.1,1.3c0.1,0.6,0.5,1,1.1,1.1
	c0.9,0,1.9-0.1,2.8-0.2c0.9-0.1,1.9-0.2,2.8-0.2c0.4,0,0.8-0.4,0.8-0.8C674.1,410,673.7,409.7,673.3,409.7z"/>
<path class="st2" d="M628.8,570.5h8.8v313.2h-8.8V570.5z"/>
<path class="st2" d="M577.1,869.8h112.2v21.6H577.1V869.8z"/>
</svg>
