<?xml version="1.0" encoding="utf-8"?>
<!-- Generator: Adobe Illustrator 26.3.1, SVG Export Plug-In . SVG Version: 6.00 Build 0)  -->
<svg version="1.1" id="Capa_1" xmlns="http://www.w3.org/2000/svg" xmlns:xlink="http://www.w3.org/1999/xlink" x="0px" y="0px"
	 viewBox="0 0 881.6 768" style="enable-background:new 0 0 881.6 768;" xml:space="preserve">
<style type="text/css">
	.st0{fill:#6B3628;}
	.st1{fill:url(#SVGID_1_);}
	.st2{fill:#FFE9CC;}
	.st3{fill:#FFD090;}
	.st4{fill:#313F4D;}
	.st5{fill:url(#SVGID_00000173868420640161330660000008640253782866955442_);}
	.st6{fill:url(#SVGID_00000106123404359742942050000014732016501173971368_);}
	.st7{fill:#5998A8;}
	.st8{fill:url(#SVGID_00000160172403231800541620000016015746490095648658_);}
	.st9{fill:#314E5E;}
	.st10{fill:#5887A1;}
	.st11{fill:url(#SVGID_00000022544457117802497460000015248275646904818362_);}
	.st12{fill:#998675;}
	.st13{fill:url(#SVGID_00000108273679613353990980000004329042309814703785_);}
	.st14{fill:url(#SVGID_00000139993893005804822740000008271510616495922816_);}
	.st15{fill:#E38C5B;}
	.st16{fill:url(#SVGID_00000136382316000416171030000000409676500186867637_);}
	.st17{fill:url(#SVGID_00000103976362855767438790000002495527619834897850_);}
	.st18{fill:url(#SVGID_00000036967460899125504690000009136568103991329979_);}
	.st19{fill:#FFE88A;}
	.st20{fill:url(#SVGID_00000057138082470956343190000012764477639764209800_);}
	.st21{fill:url(#SVGID_00000072977093594558567490000016402335019214400951_);}
	.st22{fill:url(#SVGID_00000002365428518430231030000018340528555522345133_);}
	.st23{fill:url(#SVGID_00000120527115845309958660000004518302131492172953_);}
	.st24{fill:url(#SVGID_00000177479334740865175780000016739667823972287167_);}
	.st25{fill:url(#SVGID_00000122711518917323344810000012736118571710355379_);}
	.st26{fill:#AEA9C9;}
	.st27{fill:#57291D;}
	.st28{fill:url(#SVGID_00000036235006241324920950000007527662260865232549_);}
	.st29{fill:url(#SVGID_00000029007653068548416820000004791406491312939955_);}
	.st30{fill:url(#SVGID_00000137094971035242869140000012011596684901652899_);}
	.st31{fill:url(#SVGID_00000054985639220820983390000007329253965106551719_);}
	.st32{fill:url(#SVGID_00000027593441874424624370000009255099392984904076_);}
	.st33{fill:url(#SVGID_00000032646762247727612610000012526125587603662000_);}
	.st34{fill:#ED7E5F;}
	.st35{fill:#661D32;}
	.st36{fill:url(#SVGID_00000016055356829729143610000002978750975884369802_);}
	.st37{fill:url(#SVGID_00000148637665049287536720000006965055641050515855_);}
	.st38{fill:url(#SVGID_00000052062883108360875830000014033773298779930001_);}
	.st39{fill:url(#SVGID_00000168091921273958297490000009412727206444915609_);}
	.st40{fill:url(#SVGID_00000127763385136581956160000010032341148848060331_);}
	.st41{fill:url(#SVGID_00000085229842367126708510000002880720364086441127_);}
	.st42{fill:url(#SVGID_00000121238016698863342350000009553127986080696221_);}
	.st43{fill:url(#SVGID_00000016788415254345260790000012870963621218402485_);}
	.st44{fill:url(#SVGID_00000110433047484655155980000003791216070580532666_);}
	.st45{fill:#C44D35;}
	.st46{fill:url(#SVGID_00000081624407851021167790000011673156100864265125_);}
	.st47{fill:url(#SVGID_00000062883604521859478480000005665096667358255804_);}
	.st48{fill:url(#SVGID_00000059279659602426519990000014148424639535547325_);}
	.st49{fill:url(#SVGID_00000096044464182123379150000000799788891214457216_);}
	.st50{fill:url(#SVGID_00000148619761097680427420000003560028779067943055_);}
	.st51{fill:url(#SVGID_00000082347747108581734060000003535857599393970612_);}
	.st52{fill:url(#SVGID_00000137832223983881177790000013834799234101593751_);}
	.st53{fill:url(#SVGID_00000079482850965654906590000015484977117524606363_);}
	.st54{fill:#534741;}
	.st55{fill:url(#SVGID_00000116220431690142506310000007111490267158945453_);}
	.st56{fill:url(#SVGID_00000139988260979132669550000009154099528899160731_);}
	.st57{fill:#F5EDD3;}
	.st58{fill:url(#SVGID_00000089539027051586790650000016985737038654110648_);}
	.st59{fill:#C7B299;}
	.st60{fill:url(#SVGID_00000121975307264369538860000009433932159016931759_);}
	.st61{fill:url(#SVGID_00000170991148473996833730000007975351183371103158_);}
	.st62{fill:url(#SVGID_00000160905010103997074130000015791816181732004013_);}
	.st63{fill:url(#SVGID_00000047782777502701420630000008899563016289458358_);}
	.st64{fill:url(#SVGID_00000071553715699816403340000016596449746632133275_);}
	.st65{fill:url(#SVGID_00000030473103734862557910000017087650485843926940_);}
	.st66{fill:url(#SVGID_00000147925376755916594640000013452537503568697494_);}
	.st67{fill:url(#SVGID_00000130643756337979729780000013442726939934403215_);}
	.st68{fill:url(#SVGID_00000028305820454256497180000012016417093709254044_);}
	.st69{fill:url(#SVGID_00000000908419185715397700000004759366044950046097_);}
	.st70{fill:url(#SVGID_00000075132350881113534190000001709781526834072491_);}
	.st71{fill:url(#SVGID_00000070810610025808893790000017422313855121098169_);}
	.st72{fill:url(#SVGID_00000056421836308791162820000003925090488683954571_);}
	.st73{fill:#424340;}
	.st74{fill:#353733;}
	.st75{fill:#2D7995;}
	.st76{fill:#226480;}
	.st77{fill:#355254;}
	.st78{fill:#293C38;}
	.st79{fill:#B35624;}
	.st80{fill:#A24719;}
	.st81{fill:#5D2B16;}
	.st82{fill:#8A280C;}
	.st83{fill:#A43716;}
	.st84{fill:#6D1D07;}
	.st85{fill:#FFF7E4;}
	.st86{fill:#A7C6ED;}
	.st87{fill:none;}
	.st88{font-family:'Mali-Medium';}
	.st89{font-size:23.5667px;}
</style>
<g>
	<path class="st0" d="M346.4,663.5c-2.5-2.2-5.6-3.4-8.8-4.3c-6.6-1.8-13.4-2.2-20.2-2.2h-0.1c-1.7,0-3.2-0.4-4.6-1
		c-6.6-2.9-10.7-11.4-17.2-15.8c-0.8-0.6-1.8-1.1-2.7-1.5c-0.1-0.6-1.5-1.4-2.1-1.5c-3.3-0.9-6.8-0.3-10.2,0.6
		c-6.8,1.9-16.4,3.4-20,9.5c-4.5,7.7-5.7,16.9-6.5,25.8c-0.1,0.7-0.1,1.3-0.2,2c-0.2,2-0.4,4.1,0.2,6.1c6.2,3.8,12.1,6,19.3,6.8
		c0.9-2.5,2-4,3.7-5.7c0.4-0.3,0.7-0.7,1.2-1.1c3.6,0.5,6.9,2,10,3.9c3.1,2,6,4.6,8.8,7c7.4,0.1,13.4,0.2,20.8,0.2
		c5,0,10.1,0.1,15-1.2c0.5-0.1,1-0.3,1.5-0.4c0.1,0,0.2-0.1,0.3-0.1c0.4-0.1,0.8-0.3,1.2-0.4c0.1,0,0.1,0,0.2-0.1
		c4.4-1.6,8.5-4,12.4-6.6c0.1-0.1,0.2-0.2,0.4-0.2c0.3-0.2,0.6-0.4,0.9-0.6c0.2-0.1,0.4-0.3,0.6-0.4c0.4-0.3,0.8-0.5,1.2-0.8
		c0.1-1,0.2-2,0.2-3C351.9,672.9,350.5,667.2,346.4,663.5z"/>
	<linearGradient id="SVGID_1_" gradientUnits="userSpaceOnUse" x1="183.7278" y1="462.2278" x2="183.7278" y2="520.2647">
		<stop  offset="0" style="stop-color:#A3A32F"/>
		<stop  offset="1" style="stop-color:#466620"/>
	</linearGradient>
	<path class="st1" d="M203.1,481.5c-1.8,4-3.8,8-5.3,12.1c-0.4,1-0.7,2-1.5,2.8c-1.2,1.1-2.7,1.4-3.7,2.7c-0.1-0.1-1.1-1.9-1.1-2
		c-3.2,2-8.1-0.2-8.8-3.9c-1.3,1.7-2.4,3.5-3.3,5.5c-1.4-0.7-2-2.4-2.6-3.9c-2.7-7.2-7-13.8-12.4-19.2c7,1.8,13.3,6.3,17.2,12.4
		c-0.7-3.6-1.4-7.2-2-10.8c-0.3-1.5-0.5-2.9-1.1-4.2c-1.2-2.7-1.6-5.8-2.5-8.6c-1.2-3.9-2.6-7.8-4.2-11.6
		c5.4,6.1,8.9,13.5,12.4,20.8c-0.8-8.2-0.4-16.4,1.1-24.5c1.5,10.7,3,21.4,4.5,32.1c2.5-3.7,5.9-6.9,9.9-8.9
		c-2.6,5.8-5.2,11.6-6.7,17.8C195.6,486.6,199.1,483.6,203.1,481.5z"/>
	<g>
		<path class="st2" d="M185.4,468c0.3-1.1,0.4-2.2,0.4-3.3c0-0.7,0.2-1.7-0.1-2.3c-0.9-1.8-3.7,1-4.2,1.9c-0.2,0.4-0.4,0.6-0.8,0.9
			c-1.8,1.1-4.3,0.9-5.9,2.4c-0.1,0.1-0.2,0.2-0.2,0.3c-0.2,0.4,0.1,0.8,0.4,1.1c1.7,1.6,4,2.4,6.4,2.3c0.5,0,1-0.1,1.5-0.3
			C184.1,470.5,185,469.3,185.4,468z"/>
		<path class="st3" d="M182.3,465.7c-0.2,0-0.4,0.1-0.5,0.2c-0.6,0.3-1.9,0.8-2,1.6c-0.2,1.1,1.9,0.8,2.3,0.6c0.5-0.3,1.5-2,0.6-2.3
			C182.5,465.7,182.4,465.6,182.3,465.7z"/>
	</g>
	<polygon class="st4" points="201,470.1 164,470.8 166.1,430.1 209.9,428.4 	"/>
	<g>
		<path class="st4" d="M181.9,490.1h-8.5c-3.6,0-6.7-2.2-8.2-5.7c-3.2-7.8-3.5-16.2-0.9-25.2c1.2-4.3,4.8-7.4,8.8-7.9l11.3-1.3
			L181.9,490.1z"/>
		
			<linearGradient id="SVGID_00000120532406589209702190000010207533040703516292_" gradientUnits="userSpaceOnUse" x1="669.2242" y1="488.3462" x2="668.8271" y2="443.8839" gradientTransform="matrix(-1 0 -8.090000e-02 1 890.3167 0)">
			<stop  offset="0" style="stop-color:#5A7482"/>
			<stop  offset="1" style="stop-color:#243647"/>
		</linearGradient>
		<path style="fill:url(#SVGID_00000120532406589209702190000010207533040703516292_);" d="M171.5,470c-0.7,11.1,4,20,10.4,20
			c6.5,0,12.3-9,13-20c0.7-11.1-4-20-10.4-20C178,450,172.2,459,171.5,470z"/>
		<path class="st4" d="M182.1,483.6c3.5,0,7.7-5.3,8.2-12.9c0.5-7.6-3-12.9-6.5-12.9c-3.5,0-7.7,5.3-8.2,12.9
			C175.1,478.3,178.6,483.6,182.1,483.6z"/>
		
			<linearGradient id="SVGID_00000082356455712909256380000009783696380014700974_" gradientUnits="userSpaceOnUse" x1="677.4932" y1="458.9971" x2="665.9587" y2="479.6859" gradientTransform="matrix(-1 0 -8.090000e-02 1 890.3167 0)">
			<stop  offset="0" style="stop-color:#E3E8E7"/>
			<stop  offset="0.5698" style="stop-color:#7EB5B3"/>
			<stop  offset="0.6557" style="stop-color:#82B7B5"/>
			<stop  offset="0.7414" style="stop-color:#8EBDBB"/>
			<stop  offset="0.827" style="stop-color:#A2C7C6"/>
			<stop  offset="0.9126" style="stop-color:#BED5D4"/>
			<stop  offset="0.9975" style="stop-color:#E2E7E6"/>
			<stop  offset="1" style="stop-color:#E3E8E7"/>
		</linearGradient>
		<path style="fill:url(#SVGID_00000082356455712909256380000009783696380014700974_);" d="M180.9,482.3c2.6,0,5.9-4.6,6.2-11.1
			c0.4-6.6-2.3-11.1-5-11.1c-2.6,0-5.9,4.6-6.2,11.1C175.5,477.8,178.2,482.3,180.9,482.3z"/>
		<path class="st7" d="M181,480.5c2.2,0,4.8-3.7,5.1-9.1c0.3-5.3-1.9-9.1-4-9.1c-2.2,0-4.8,3.7-5.1,9.1
			C176.6,476.7,178.8,480.5,181,480.5z"/>
		
			<linearGradient id="SVGID_00000072986865737452858780000000575663038054714513_" gradientUnits="userSpaceOnUse" x1="665.5851" y1="479.6923" x2="675.0356" y2="464.2757" gradientTransform="matrix(-1 0 -8.090000e-02 1 890.3167 0)">
			<stop  offset="0" style="stop-color:#E3E8E7"/>
			<stop  offset="0.5698" style="stop-color:#7EB5B3"/>
			<stop  offset="0.6557" style="stop-color:#82B7B5"/>
			<stop  offset="0.7414" style="stop-color:#8EBDBB"/>
			<stop  offset="0.827" style="stop-color:#A2C7C6"/>
			<stop  offset="0.9126" style="stop-color:#BED5D4"/>
			<stop  offset="0.9975" style="stop-color:#E2E7E6"/>
			<stop  offset="1" style="stop-color:#E3E8E7"/>
		</linearGradient>
		<path style="fill:url(#SVGID_00000072986865737452858780000000575663038054714513_);" d="M181.1,478.6c1.7,0,3.8-2.9,4-7.2
			c0.2-4.2-1.5-7.2-3.2-7.2c-1.7,0-3.8,2.9-4,7.2C177.7,475.6,179.4,478.6,181.1,478.6z"/>
	</g>
	<path class="st9" d="M196.6,303c0.4,4.3,0.7,8.7,1.1,13c1.7,20.2,3.3,40.6,4.6,60.8c0.5,7.7,1,15.4,1.4,23.1
		c0.2,4.1,0.4,8.1,0.6,12.2l5.1,0.3l19.1,1.1c-0.1-0.6-0.2-1.2-0.3-1.9c-0.6-3.4-1.2-6.7-1.9-10.1c-2-10.4-4.3-20.9-6.8-31.3
		c-3.1-12.7-6.5-25.3-10.2-37.8c-1.7-5.7-3.4-11.3-5.2-16.8c-1.1-3.4-2.2-6.8-3.4-10.2c-0.2-0.6-0.4-1.2-0.6-1.7L196.6,303z"/>
	<path class="st10" d="M204,315.6c-2.1,0.1-4.2,0.3-6.3,0.4c2.3,27.9,4.5,56.2,6,83.8c0.5,0,0.9,0.1,1.4,0.1
		c7.1,0.5,14.1,1,21.2,1.5C220.8,372.7,213.1,343.6,204,315.6z"/>
	
		<linearGradient id="SVGID_00000069359666765840765870000009807917425620536449_" gradientUnits="userSpaceOnUse" x1="664.6821" y1="441.6537" x2="647.334" y2="306.5862" gradientTransform="matrix(-1 0 0 1 866.8387 0)">
		<stop  offset="0" style="stop-color:#BDD9CE"/>
		<stop  offset="0.2436" style="stop-color:#849790"/>
		<stop  offset="0.5083" style="stop-color:#4C5753"/>
		<stop  offset="0.7319" style="stop-color:#232826"/>
		<stop  offset="0.9025" style="stop-color:#090B0A"/>
		<stop  offset="1" style="stop-color:#000000"/>
	</linearGradient>
	<path style="fill:url(#SVGID_00000069359666765840765870000009807917425620536449_);" d="M202.3,376.8c0.5,7.7,1,15.4,1.4,23.1
		c0.2,4.1,0.4,8.1,0.6,12.2l5.1,0.3l10.1-42.2c-3.1-12.7-6.5-25.3-10.2-37.8L202.3,376.8z"/>
	<polygon class="st12" points="189.3,302.1 170.8,299.4 165,409.3 195.3,411.1 	"/>
	<polygon class="st9" points="166.9,407.6 172,407.9 183.7,408.6 193.3,409.2 192.8,399.2 191,366 188.3,316.7 187.6,303.6 
		182.4,302.9 172.5,301.5 	"/>
	
		<linearGradient id="SVGID_00000035516212488048428610000014335344936400742020_" gradientUnits="userSpaceOnUse" x1="652.3931" y1="429.1244" x2="659.5142" y2="463.3055" gradientTransform="matrix(-1 0 0 1 866.8387 0)">
		<stop  offset="0" style="stop-color:#FBA746"/>
		<stop  offset="1" style="stop-color:#DE731F"/>
	</linearGradient>
	<path style="fill:url(#SVGID_00000035516212488048428610000014335344936400742020_);" d="M209.8,428.6c3.5,0.2,6.4,0,9.8,0.3
		c-0.9,1.5-1.8,3-2.6,4.5c-2.9-0.4-5.5,0-8.4-0.4C209.1,431.9,209.2,429.7,209.8,428.6z"/>
	<path class="st12" d="M196.6,303c3.1,36.2,6,73.3,7.8,109.1l24.2,1.4c-0.1-0.6-0.2-1.2-0.3-1.9l-21.2-1.7L197.7,305l3,0.4
		c-0.2-0.6-0.4-1.2-0.6-1.7L196.6,303z"/>
	<path class="st10" d="M174.1,398c6.3,0.4,12.5,0.8,18.7,1.2l-4.5-82.5c-3,0.2-6,0.4-9,0.6C177.6,344.1,175.8,371.2,174.1,398z"/>
	
		<linearGradient id="SVGID_00000145743825995477371050000010880892931851285936_" gradientUnits="userSpaceOnUse" x1="694.676" y1="447.524" x2="671.6824" y2="268.502" gradientTransform="matrix(-1 0 0 1 866.8387 0)">
		<stop  offset="0" style="stop-color:#BDD9CE"/>
		<stop  offset="0.2436" style="stop-color:#849790"/>
		<stop  offset="0.5083" style="stop-color:#4C5753"/>
		<stop  offset="0.7319" style="stop-color:#232826"/>
		<stop  offset="0.9025" style="stop-color:#090B0A"/>
		<stop  offset="1" style="stop-color:#000000"/>
	</linearGradient>
	<polygon style="fill:url(#SVGID_00000145743825995477371050000010880892931851285936_);" points="172,407.9 183.7,408.6 191,366 
		188.3,316.7 187.6,303.6 182.4,302.9 	"/>
	<polygon class="st15" points="140,367.9 165.6,370.1 165.3,373 138.1,370.4 	"/>
	
		<linearGradient id="SVGID_00000165233738719444099520000002814990782661882017_" gradientUnits="userSpaceOnUse" x1="-8197.6758" y1="1076.2433" x2="-8165.1133" y2="1002.9786" gradientTransform="matrix(-0.9986 5.200000e-02 5.200000e-02 0.9986 -8049.436 -33.1732)">
		<stop  offset="0" style="stop-color:#83779B"/>
		<stop  offset="0.3527" style="stop-color:#786A8E"/>
		<stop  offset="1" style="stop-color:#5A4A6B"/>
	</linearGradient>
	<path style="fill:url(#SVGID_00000165233738719444099520000002814990782661882017_);" d="M203.5,628c0.1,0.1,0.1,0.2,0.2,0.3
		c3.2,4.5,6.1,9.1,8.6,14c1.3,2.5,0.9,3.5-0.5,5.7c-0.2,0.4-2,3.5-2.6,3.2c3.3,1.5,7.2,0,9-3c3.5-5.7-1.3-12.4-4.4-17.1
		c-4.6-7-9-14-14-20.7c-16.5-22.3-33.1-44.5-49.6-66.8c-1.1-1.4-4-7.3-6.9-5.7c-1.3,0.8-1.8,2.5-1.5,4c0.3,1.5,1.2,2.8,2.1,4
		C163.8,573.2,183.7,600.6,203.5,628z"/>
	
		<linearGradient id="SVGID_00000182518138937749638720000009715091191821499294_" gradientUnits="userSpaceOnUse" x1="-8251.7861" y1="714.3338" x2="-8215.0859" y2="840.6255" gradientTransform="matrix(-0.9986 5.200000e-02 5.200000e-02 0.9986 -8049.436 -33.1732)">
		<stop  offset="0" style="stop-color:#83779B"/>
		<stop  offset="0.3527" style="stop-color:#786A8E"/>
		<stop  offset="1" style="stop-color:#5A4A6B"/>
	</linearGradient>
	<path style="fill:url(#SVGID_00000182518138937749638720000009715091191821499294_);" d="M60.5,657.8c-0.2-3,2.5-8.5,5.5-9
		c17.6-3.1,35.1-6.6,52.5-10.6c12-2.8,24.6-4.2,35.6-10c7.4-3.9,12.4-10.1,17.8-16.2c11-12.5,21.9-25.2,33.2-37.5
		c6.1-6.7,12.3-14.6,19.8-19.8c5.8-4.1,4.3,0.6,2.2,4.9c-16.8,19.4-33.9,38.5-50.6,57.9c-5.6,6.5-11.1,13.6-18.7,18.1
		c-8.4,4.9-19.3,7.3-28.6,9.8C106.6,651.4,83.5,654.6,60.5,657.8z"/>
	
		<linearGradient id="SVGID_00000055685918190093507730000006289093010364754337_" gradientUnits="userSpaceOnUse" x1="-8105.1899" y1="995.9102" x2="-8107.8848" y2="1028.2479" gradientTransform="matrix(-0.9986 5.200000e-02 5.200000e-02 0.9986 -8049.436 -33.1732)">
		<stop  offset="0" style="stop-color:#FFCB2E"/>
		<stop  offset="1" style="stop-color:#CC6F2D"/>
	</linearGradient>
	<path style="fill:url(#SVGID_00000055685918190093507730000006289093010364754337_);" d="M43.3,555.4c1.7,4.3,4.8,6.4,9.3,5.5
		c30.3-6,64.6-11.3,95.3-15.1c1-0.8,1.7-1.8,2.3-3c1.3-2.7,1.4-5.9,0.3-8.6c-0.5-1.2-1.2-2.2-2.1-3.1c-33.3,7.8-67.3,12-101.5,12.4
		c0,0-0.1,0.1-0.1,0.1c-0.5,0.3-1,0.8-1.4,1.2C42.6,547.5,41.8,551.8,43.3,555.4z"/>
	<path class="st19" d="M45.3,544.7c0.9,0.6,1.8,1.1,2.9,1.4c2.1,0.6,4.2,0.6,6.4,0.6c0.8,0,1.6,0,2.5,0c3.5,0,7-0.1,10.5-0.3
		c3.5-0.1,7-0.3,10.5-0.5c3.5-0.2,7-0.5,10.5-0.8c3.5-0.3,7-0.7,10.4-1.1c3.5-0.4,6.9-0.9,10.4-1.4c3.4-0.5,6.9-1.1,10.3-1.6
		c3.5-0.6,6.9-1.2,10.3-1.9c3.4-0.7,6.8-1.4,10.3-2.2c3.3-0.8,6.9-1.4,10.2-2.5c0,0,0.1,0,0.1-0.1c-0.5-1.2-1.2-2.2-2.1-3.1
		c-33.3,7.8-67.3,12-101.5,12.4c0,0-0.1,0.1-0.1,0.1C46.2,543.9,45.7,544.3,45.3,544.7z"/>
	
		<linearGradient id="SVGID_00000112633834600361437090000008657278865115164337_" gradientUnits="userSpaceOnUse" x1="-8111.0605" y1="964.5672" x2="-8104.2725" y2="1007.4567" gradientTransform="matrix(-0.9986 5.200000e-02 5.200000e-02 0.9986 -8049.436 -33.1732)">
		<stop  offset="0" style="stop-color:#FFCB2E"/>
		<stop  offset="1" style="stop-color:#CC6F2D"/>
	</linearGradient>
	<path style="fill:url(#SVGID_00000112633834600361437090000008657278865115164337_);" d="M43.3,555.4c1.7,4.3,4.8,6.4,9.3,5.5
		c30.3-6,64.6-11.3,95.3-15.1c1-0.8,1.7-1.8,2.3-3c-32.5,4.1-64.8,9.2-97,15.1c-0.2-3.3-0.2-6.3-1.5-9.3c-1-2.2-2.7-4.2-4.9-5.1
		C42.9,546.1,41.6,551.2,43.3,555.4z"/>
	
		<linearGradient id="SVGID_00000086689155925221567060000017515024280151750033_" gradientUnits="userSpaceOnUse" x1="-8155.2822" y1="1093.4539" x2="-8120.4238" y2="1015.0229" gradientTransform="matrix(-0.9986 5.200000e-02 5.200000e-02 0.9986 -8049.436 -33.1732)">
		<stop  offset="0" style="stop-color:#83779B"/>
		<stop  offset="0.3527" style="stop-color:#786A8E"/>
		<stop  offset="1" style="stop-color:#5A4A6B"/>
	</linearGradient>
	<path style="fill:url(#SVGID_00000086689155925221567060000017515024280151750033_);" d="M91.1,617.2c3.7,6,7.5,11.9,11.4,17.7
		c2.7,4,5.4,8.3,8.6,12c1.2,1.4,2.5,2.6,3.5,4.2c2.5,4,6.7,6.7,11.3,7.7c5.7,1.3,11.6,0.4,17.4-0.5c18.5-2.8,36.9-5.6,55.4-8.4
		c6.5-1,13.8-2.5,17-8.2c0.4-0.8,0.4-0.6,0.8-1.3c3.4,0.4,4.4,5.4,2.4,8.2c-2,2.8-5.6,3.9-9,4.7c-16.3,4.2-32.8,7.8-49.3,10.9
		c-8.3,1.6-16.6,3-24.9,4.3c-2.1,0.3-3.9,0.6-5.8,1.3c-4.3,1.7-9.6-2.3-12.6-5.1c-3.6-3.3-6.5-7.3-9.1-11.4
		c-2.5-3.8-4.9-7.5-7.4-11.3c-2.8-4.2-5.5-8.5-8.2-12.7c-2.7-4.3-5.4-8.5-8.1-12.8C75.3,602,66.4,586.9,57,572.3
		c-3.9-6.1-8.1-11.8-11-18.6c-0.3-0.8-0.6-1.6-0.5-2.4c0.1-0.8,0.8-1.6,1.6-1.5c0.7,0.1,1.1,0.7,1.5,1.3
		c14,20.9,27.5,42.2,40.8,63.5C90.1,615.5,90.6,616.3,91.1,617.2z"/>
	
		<linearGradient id="SVGID_00000086692825778111753620000002113557460453657222_" gradientUnits="userSpaceOnUse" x1="-8149.5161" y1="993.644" x2="-8142.9336" y2="1041.1594" gradientTransform="matrix(-0.9986 5.200000e-02 5.200000e-02 0.9986 -8049.436 -33.1732)">
		<stop  offset="0" style="stop-color:#FFCB2E"/>
		<stop  offset="1" style="stop-color:#CC6F2D"/>
	</linearGradient>
	<path style="fill:url(#SVGID_00000086692825778111753620000002113557460453657222_);" d="M52.4,557.1c30.5-2.5,70.5-11.4,97.6-17.9
		c12.7,5.5,19.9,8.4,33.7,9.6c13.8,1.2,27.7,1,41.5,0.7c-30.6,10.7-62.3,19.3-94.5,23.9C104.3,577.2,77.1,567.2,52.4,557.1z"/>
	
		<linearGradient id="SVGID_00000152964188829023536880000003925678466780696491_" gradientUnits="userSpaceOnUse" x1="-8186.8486" y1="1016.4393" x2="-8190.5513" y2="1060.8711" gradientTransform="matrix(-0.9986 5.200000e-02 5.200000e-02 0.9986 -8049.436 -33.1732)">
		<stop  offset="0" style="stop-color:#FFCB2E"/>
		<stop  offset="1" style="stop-color:#CC6F2D"/>
	</linearGradient>
	<path style="fill:url(#SVGID_00000152964188829023536880000003925678466780696491_);" d="M127.2,577.8c2.1,4.1,5.3,6,9.7,4.8
		c29.7-8.5,63.5-16.5,93.7-22.8c0.9-0.9,1.6-2,2-3.2c1-2.6,1-5.8-0.2-8.3c-0.6-1.3-1.4-2.4-2.5-3.3c-32.6,10.5-66,17.5-100.1,20.6
		c0,0-0.1,0.1-0.1,0.1c-0.6,0.5-1.1,1-1.6,1.6C125.9,570.1,125.5,574.4,127.2,577.8z"/>
	<path class="st19" d="M128.1,567.2c0.5,1.4,1.9,2.5,3.3,2.9c1.6,0.5,3.3,0.4,4.9,0.3c30.9-2.1,61-10.7,90.8-19.2
		c1.5-0.4,3.1-0.9,4.3-1.9c0.3-0.3,0.7-0.6,0.9-1.1c-0.6-1.3-1.4-2.4-2.5-3.3c-32.6,10.5-66,17.5-100.1,20.6c0,0-0.1,0.1-0.1,0.1
		C129.1,566,128.5,566.5,128.1,567.2z"/>
	
		<linearGradient id="SVGID_00000098184828069286136030000003800096006748508582_" gradientUnits="userSpaceOnUse" x1="-8195.2744" y1="990.6286" x2="-8185.0923" y2="1032.437" gradientTransform="matrix(-0.9986 5.200000e-02 5.200000e-02 0.9986 -8049.436 -33.1732)">
		<stop  offset="0" style="stop-color:#FFCB2E"/>
		<stop  offset="1" style="stop-color:#CC6F2D"/>
	</linearGradient>
	<path style="fill:url(#SVGID_00000098184828069286136030000003800096006748508582_);" d="M127.2,577.8c2.1,4.1,5.3,6,9.7,4.8
		c29.7-8.5,63.5-16.5,93.7-22.8c0.9-0.9,1.6-2,2-3.2c-32,6.7-63.8,14.4-95.4,23c-0.4-3.3-0.7-6.4-2.3-9.2c-1.2-2.1-3.1-4-5.3-4.8
		C126.1,568.4,125.1,573.7,127.2,577.8z"/>
	
		<linearGradient id="SVGID_00000088811067450384355850000005148443362949946290_" gradientUnits="userSpaceOnUse" x1="-8101.0493" y1="1016.5676" x2="-8100.6396" y2="1116.113" gradientTransform="matrix(-0.9986 5.200000e-02 5.200000e-02 0.9986 -8049.436 -33.1732)">
		<stop  offset="0" style="stop-color:#83779B"/>
		<stop  offset="0.3527" style="stop-color:#786A8E"/>
		<stop  offset="1" style="stop-color:#5A4A6B"/>
	</linearGradient>
	<path style="fill:url(#SVGID_00000088811067450384355850000005148443362949946290_);" d="M127,574.6
		c-17.8,18.4-35.4,37.1-53.4,55.4c-5.3,5.4-21,16.8-15,25.8c5.4,6.4,7.2-8.6,10.9-10.9C71.4,641.2,158.3,556.1,127,574.6z"/>
	<path class="st26" d="M106.4,645.6c3.1,5,6.3,10.1,10.9,13.8c7,5.8,15.9,5,24.4,4.2c12.3-1.2,24.4-3.4,36.5-5.9
		c11.1-2.2,23.6-3.6,33.7-8.8c1.8-0.9,3.6-2.1,4.4-3.9c1.4-2.9,0-6.2-1.5-9.1c-5.3-10-11.9-19.2-18.5-28.3c-0.5-0.7-1.1-1.4-1.9-1.5
		c7.4,10.7,14,21.9,19.7,33.6c0.5,1.1,1,2.2,0.8,3.4c-0.2,1-0.9,1.8-1.6,2.4c-3.2,2.9-7.1,3.4-11.1,4.5c-3.2,0.9-6.5,1.7-9.7,2.5
		c-6.5,1.6-13,3-19.6,4.3c-6.6,1.3-13.2,2.4-19.8,3.4c-8.4,1.3-18.9,3.5-27.3,0.6c-2.1-0.7-4.2-1.8-6.1-3.1
		c-5-3.4-8.9-8.2-12.2-13.2c-3.4-5-6.3-10.3-10-15.1c0.4,0.5,0.6,1.5,0.8,2.2C100.1,636.8,103.6,641,106.4,645.6z"/>
	<path class="st27" d="M259.5,675.6c5.7,2.5,11.6,4.7,17.6,6.5c-1.7,1.7-2.9,3.2-3.7,5.7c-7.2-0.8-13.1-3-19.3-6.8
		c-0.6-2-0.4-4.1-0.2-6.1c0.1-0.7,0.1-1.3,0.2-2C255.8,673.9,257.6,674.8,259.5,675.6z"/>
	<path class="st27" d="M305.6,650.5c-3.1,0.5-6.4,0.4-9.4,1.3c-3,0.9-5.9,3.4-5.9,6.6c4.9-3,11.3-4.7,17-5.2
		C306.8,652.4,306.2,651.3,305.6,650.5z"/>
	<path class="st27" d="M317.3,657c-0.5,1.1-1.8,1.8-2.9,2.4c-4.2,2.1-9.3,3.2-13.7,4.9c3.2-3.7,7.4-6.6,12-8.4
		C314.1,656.6,315.6,657,317.3,657z"/>
	<path class="st0" d="M259.6,695c-5.8-6.6-15.2-9.4-20.5-16.4c-2.2-2.8-3.6-6.1-4.9-9.4c-1.5-3.5-1.8-6.6-3.9-9.8
		c-0.4-0.6-0.4-1.5,0.1-2.2c-9.7-1.3-19.7,0.3-28.8,4.1c-4.9,2-9.6,4.7-13.7,8c-1.4,1.1-2.1,1.8-2.6,3.5c-0.1,0.4-0.2,0.7-0.4,1.1
		c-0.2,0.6-0.5,1.1-0.8,1.5c-0.6,0.9-1.2,1.7-1.5,2.7c-0.4,1.2-0.7,2.5-0.8,3.8c-0.5,5.1,1.2,10.7,4,14.7c2.1,3.1,5,5.7,6.8,9
		c2.2,4.1,2.7,9.1,5.7,12.7c4.2,5.1,11.6,5.6,18.2,5.7c7.7,0.1,15.4,0.1,23-1.1c0,0,0.1,0,0.1,0c0.5-0.1,0.9-0.1,1.4-0.2
		c0.1,0,0.2,0,0.4-0.1c0.4-0.1,0.8-0.2,1.2-0.2c0.2,0,0.4-0.1,0.6-0.1c0.3-0.1,0.7-0.1,1-0.2c0.5-0.1,1.1-0.3,1.6-0.4
		c3.9-1,13-3.6,16.6-7.9c0.9-1.1,1.5-2.2,1.5-3.5V710C264.1,704.7,263.1,699,259.6,695z"/>
	
		<linearGradient id="SVGID_00000039849491227382423150000010760630128427824020_" gradientUnits="userSpaceOnUse" x1="9034.5449" y1="708.7498" x2="9104.6855" y2="666.8538" gradientTransform="matrix(1 0 0 1 -8891.6982 0)">
		<stop  offset="5.586590e-03" style="stop-color:#10A699"/>
		<stop  offset="0.9944" style="stop-color:#246082"/>
	</linearGradient>
	<path style="fill:url(#SVGID_00000039849491227382423150000010760630128427824020_);" d="M288,622.6c-1,0.3-2.1,0.5-3.2,0.7
		C285.8,623,286.9,622.7,288,622.6z"/>
	
		<linearGradient id="SVGID_00000080192281596591646780000003112107011206371215_" gradientUnits="userSpaceOnUse" x1="65.0243" y1="673.6586" x2="162.9964" y2="615.1385">
		<stop  offset="5.586590e-03" style="stop-color:#10A699"/>
		<stop  offset="0.9944" style="stop-color:#246082"/>
	</linearGradient>
	<path style="fill:url(#SVGID_00000080192281596591646780000003112107011206371215_);" d="M324.7,519.5c-0.7-1.6-1.3-3.4-2.3-4.8
		c-0.9-1.3-2.1-2.7-3.2-3.8c-3-3-7.2-4.4-11.1-5.7c-28.1-9-57.2-17.4-86.6-16.6c-2.9,0.1-5.7,0.2-8.6,0.5c-11.3,1-21.6,5-32,9.4
		c-2.7,1.1-5.5,2.5-6.9,5c-1.4,2.5-1,5.6-0.5,8.4c2,10.4,6,20.6,13.1,28.5c7.1,7.8,16,11.2,26.6,10.5c2.4,2,5.6,2.9,8.7,3.6
		c10.2,2.4,20.6,4.2,31,5.4c1.4,0.2-0.4,3.3,0.2,4.6c0.6,1.2,2.1,1.5,3.4,1.4c1.3-0.1,2.6-0.4,3.9-0.1c0,12.9,0.5,25.6,0.5,38.5
		c0,6,0,12-1,17.8c-0.7,4.1-1.9,8.1-3.8,11.9c-2.3,4.4-5.6,9.6-3.1,13.9c0.8,1.4,0.4,2.5,1.2,3.9c1.1,2,4.5,1.4,6.5,0.5
		c7.6-3.2,15.2-6.4,22.9-9.6c4.4-1.8,9.5-3.7,13.7-1.5c0.6-1.1,1.8-2.2,2.7-3.4c0.4-0.5,0.8-1,1-1.4c0.7-1.3,1.3-2.7,1.6-4.1
		c0.4-2,0-4-0.5-5.9c-0.4-1.3-1-2.8-1.1-4.2c0-0.8,0.3-1.8,0.4-2.6c0.3-1.8,0.6-3.6,1.1-5.3c0.8-3.5,1.8-7,2.9-10.4
		c2.2-6.9,5-13.6,7.8-20.4c1.3-3.2,2.6-6.3,3.9-9.5c2.1-5.2,4.7-10.5,5.3-16.2c0.2-2.2,1.2-3.9,2.2-5.8c2.7-4.8,5-10.1,4.9-15.8
		C329.7,530.4,327.1,524.9,324.7,519.5z"/>
	
		<linearGradient id="SVGID_00000001647163335412133650000003042124112115110831_" gradientUnits="userSpaceOnUse" x1="64.0598" y1="679.1503" x2="112.9732" y2="629.2387">
		<stop  offset="5.586590e-03" style="stop-color:#10A699"/>
		<stop  offset="0.9944" style="stop-color:#246082"/>
	</linearGradient>
	<path style="fill:url(#SVGID_00000001647163335412133650000003042124112115110831_);" d="M209.3,666.7c0.7-0.2,1.4-0.4,2-0.6
		c4.5-1.3,9.1-2,13.8-1.9c1.4,0,2.8,0.1,4.2,0.3c2.1,0.3,4.2,0.7,6.3,1.3c-0.2-0.5-0.3-1-0.4-1.6c-0.3-1-0.5-1.9-0.8-2.9l0,0l0,0
		c-3.6-13.4-6.2-27.1-7.6-40.9c-2.1-21.3-0.8-42.8-0.4-64.2c0.3-14.9-9.4-24.7-19.5-34.3c-7-6.7-15.7-10.9-24.9-14.1
		c-0.9-0.3-1.8-0.6-2.7-0.9c-0.6-0.2-1.1-0.4-1.7-0.5c-0.3-0.1-0.6-0.2-0.9-0.2c-0.6-0.2-1.3-0.3-1.9-0.5c-0.4-0.1-0.8-0.1-1.2-0.2
		c-0.2,0-0.5-0.1-0.7-0.1c-0.2,0-0.3,0-0.5-0.1c-0.5-0.1-0.9-0.1-1.3-0.3c-0.1,0-0.1,0-0.2-0.1c-2.4-1.3-4.7-2.8-7.1-4.1
		c-0.6-0.3-1.1-0.6-1.7-0.8c-4.7-2-9.6-3.4-14.6-4.3c-0.8-0.1-1.7-0.3-2.5-0.4c-0.8-0.1-1.7-0.2-2.5-0.3c-0.7-0.1-1.4-0.1-2.1-0.2
		c-0.7,0-1.4-0.1-2.1-0.1c-2.2-0.1-4.4-0.1-6.7,0c-0.8,0-1.5,0.1-2.3,0.1c-5.2,0.3-10.4,1-15.6,2c-0.7,0.1-1.5,0.3-2.2,0.4
		c-2.6,0.5-5.2,1.1-7.7,1.7c-0.3,0.1-0.7,0.2-1,0.2c-3.2,0.8-9.1,1.9-15.2,3.7c-1.2,0.3-2.4,0.7-3.5,1.1c-0.5,0.2-0.9,0.3-1.4,0.5
		c-0.5,0.2-0.9,0.3-1.4,0.5c-1.7,0.6-3.4,1.3-4.9,2.1c-0.2,0.1-0.3,0.2-0.5,0.2c-4,2.1-7.1,4.6-7.8,7.6l0.4,4.1
		c0.2,9.3,5.1,17.7,9.8,25.7c0.3,0.5,0.6,1.1,0.9,1.6c0.3,0.6,0.7,1.1,1.1,1.7c1,1.5,2.1,2.9,3.5,4c2.5,2.2,5.7,3.3,8.9,4.3
		c4.5,1.4,9.1,2.3,13.8,3.1c0.8,0.1,1.6,0.3,2.4,0.4c1.1,0.2,2.3,0.3,3.5,0.5c0.8,0.1,1.7,0.2,2.5,0.3c0.3,0,0.7,0.1,1,0.1
		c1.6,0.2,3.2,0.4,4.8,0.6c0.8,0.1,1.6,0.2,2.4,0.3c2.1,0.2,4.2,0.5,6.3,0.7c4.2,0.5,8.4,1,12.6,1.5c0.1,1.2,0.3,2.5,0.5,3.7
		c0.6,4.1,1.5,8.3,1.8,12.2c0.1,1.2,0.2,2.4,0.4,3.6c0.1,1.2,0.3,2.4,0.5,3.5c0.4,2.3,0.9,4.7,1.7,6.9c1.9,5.4,5.4,10.1,9,14.7
		c0.3,0.4,0.6,0.7,0.8,1c0.6,0.7,1.1,1.4,1.7,2.1c1,1.2,1.9,2.5,2.9,3.7c1.8,2.4,3.6,4.8,5.4,7.3c4.8,6.6,9.3,13.5,13.5,20.5
		c1.7,2.8,3.3,5.6,4.9,8.5c0.7,1.2,0.7,2.5,0.4,3.8c0,0.2-0.1,0.3-0.1,0.5c-0.3,1-0.8,2-1.3,2.9c0,0.1-0.1,0.1-0.1,0.2
		c-0.6,1.2-1.1,2.4-1.4,3.6c-0.1,0.3-0.2,0.6-0.2,0.9c-0.2,1-0.4,1.9-0.4,2.9c0,1.1,0.3,2.1,0.3,3.1c0.1,1.6-0.4,3.2-0.5,4.7l0,0
		l0,0c0,0.5,0,0.9,0,1.4c0,0.9,0.1,1.8,0.3,2.7c0.1,0.4,0.2,0.9,0.3,1.3l0,0l0,0c0.6-0.4,1.2-0.7,1.8-1.1
		c7.5-4.5,15.3-8.3,23.6-11.2C208.1,667.1,208.7,666.9,209.3,666.7z"/>
	
		<linearGradient id="SVGID_00000182487855331957086960000017301694657655656639_" gradientUnits="userSpaceOnUse" x1="9145.3633" y1="368.735" x2="9108.332" y2="418.3194" gradientTransform="matrix(1 0 0 1 -8891.6982 0)">
		<stop  offset="5.586590e-03" style="stop-color:#F24A20"/>
		<stop  offset="0.9944" style="stop-color:#8A0B2B"/>
	</linearGradient>
	<path style="fill:url(#SVGID_00000182487855331957086960000017301694657655656639_);" d="M221.3,358.4c4.2,11.8,9.5,23.2,15.9,34
		c1.8,3,3.7,6,6,8.7c2.5,2.9,5.6,5.3,8,8.2c7.3,8.6,8.7,21.7,3.5,31.6c-3.3,6.3-9.2,10.4-16,12.2c-6.9,1.8-14.4,0.6-20.5-3.2
		c-3.6-2.3-6.6-5.4-9.2-8.7c-3.6-4.6-6.5-9.7-8.7-15.2c-3.1-7.8-4.5-16.1-5.6-24.3c-0.8-6.7-1.4-13.6-0.4-20.3
		c1-6.7,3.7-13.3,8.5-18.1C207.6,358.5,214.7,356.9,221.3,358.4z"/>
	
		<linearGradient id="SVGID_00000168798934793705706410000017061807604130454203_" gradientUnits="userSpaceOnUse" x1="9184.7061" y1="412.1512" x2="9138.8877" y2="462.677" gradientTransform="matrix(1 0 0 1 -8891.6982 0)">
		<stop  offset="0" style="stop-color:#FFCEB0"/>
		<stop  offset="1" style="stop-color:#ED7E5F"/>
	</linearGradient>
	<path style="fill:url(#SVGID_00000168798934793705706410000017061807604130454203_);" d="M285.9,457.9c-6.8,7.3-14.8,14-24.5,16.4
		c-9.7,2.4-21.2-0.4-26.6-8.7c-3.5-5.4-4.1-12.1-3.4-18.5c0.3-2.7,0.8-5.5,2-8c1.4-2.8,3.6-5.1,5.7-7.3c3-3.1,6-6.2,9.6-8.5
		c10.9-7.1,25.3-5.7,37.5-1.4c4.5,1.6,8.9,3.6,12.3,7c1.8,1.8,3.2,4.1,4,6.5c0.5,1.7,1.1,4.1,0.1,5.7c-1.1,1.8-3.4,2.9-4.9,4.3
		c-2,1.8-3.9,3.7-5.8,5.8C289.9,453.3,288,455.7,285.9,457.9z"/>
	
		<linearGradient id="SVGID_00000064346490112732354470000018092884175006067880_" gradientUnits="userSpaceOnUse" x1="9048.8975" y1="416.3221" x2="9096.2852" y2="427.3058" gradientTransform="matrix(1 0 0 1 -8891.6982 0)">
		<stop  offset="0" style="stop-color:#FFCEB0"/>
		<stop  offset="1" style="stop-color:#ED7E5F"/>
	</linearGradient>
	<path style="fill:url(#SVGID_00000064346490112732354470000018092884175006067880_);" d="M193.9,430.2c2.5-1,4-3.8,3.3-6.3
		c-0.1-0.3-0.2-0.5-0.4-0.8c-0.3-0.4-0.8-0.5-1.3-0.6c-2.1-0.6-4.2-1.6-5.8-3.1c-1.8-1.6-3.6-3.8-6.1-3.7c-0.8,0-1.7,0.7-2.3,1.2
		c-2.2,1.8-3.4,5.2-4.2,7.8c1.7,1.9,4.2,3.9,6.8,4.6c1.2,0.3,2.4,0.4,3.6,0.6c1.1,0.1,2.2,0.3,3.3,0.4
		C191.7,430.4,193,430.5,193.9,430.2z"/>
	<path class="st34" d="M97.9,459.7c-13,2.7-25.6,7-37.5,12.7c0.1-3.6-0.7-8-0.6-11.6c0-1,0.1-2.2,0.7-3c0.4-0.6,1-1,1.7-1.3
		c8.5-5,18.2-8,28-8.6c0.6,0,1.2-0.1,1.7,0.3c0.4,0.3,0.6,0.8,0.8,1.3C93.9,452.5,96.6,456.5,97.9,459.7z"/>
	<path class="st34" d="M105.2,472c-14.8,2.5-29.9,6.9-43.7,12.9c0.3,3.2,1,6.3,1.9,9.3c0.6,1.8,1.4,3.8,3.2,4.6
		c14-7.8,29-13.1,44.8-15.9C109,479.2,107.7,475.6,105.2,472z"/>
	<path class="st34" d="M91.2,514.1c2.7-0.5,5.5-0.9,8.3-1.2c-0.2,0-1.5-3.2-1.7-3.6c-0.6-1.2-1.1-2.5-1.7-3.7
		c-1.1-2.5-2.1-5-3.1-7.5c-2-5-3.7-10.2-5.3-15.4c-1.6-5.2-2.9-10.5-4-15.8c-1.1-5.3-2-10.7-2.7-16.1c-0.2-1.3-0.3-2.7-0.5-4
		c-0.1-1.3,0-2.9-0.4-4.1c-0.1-0.5-0.1-0.4-0.6-0.5c-0.3-0.1-0.7-0.1-1.1-0.1c-0.7-0.1-1.5-0.2-2.2-0.3c-0.9-0.1-1.9-0.2-2.8,0
		c-4.4,1-3.3,6.5-3,9.8c0.4,5.2,1.1,10.4,2.1,15.5c1,5.1,2.3,10.2,3.9,15.1c1.6,5,3.4,9.9,5.6,14.7c2.1,4.8,4.5,9.4,7.2,13.9
		C89.9,512,90.5,513,91.2,514.1z"/>
	<path class="st34" d="M160.8,407.6c1.2-30-2.1-60.3-9.7-89.4c-0.4-1.5-0.8-3-1.9-4.1c-2-2-7.1-0.6-9.9,0
		c8.9,29.5,10.5,60.6,12.1,91.3c3.7,0,6.1,0.6,9.7-0.2L160.8,407.6z"/>
	<path class="st34" d="M176.7,352.6c-13.1-2.8-26.2-5.8-39.3-9c-3.7-0.9-7.6-1.9-10-4.8c0-2.3-0.9-5-0.9-7.3c0-0.4,0-0.9,0.3-1.2
		c0.3-0.3,0.9-0.3,1.4-0.3c12.6,1.2,25.1,4.1,36.9,8.7c1.7,0.7,3.4,1.4,4.8,2.5C173.8,344.1,175.7,347.8,176.7,352.6z"/>
	<path class="st34" d="M216.1,379.2c-24.5,4.7-49.7,6.2-74.5,3.9c-3.7-0.4-7.5-0.8-11.2-1.6c-0.9-0.2-1.8-0.5-2.5-1.1
		c-0.5-0.6-0.7-1.4-0.9-2.2c-1.3-5.8-2.8-11.5-4.2-17.2c15,2.3,30,4.4,45,6.5c15.4,2.1,30.9,4.1,46.4,3c0.1,0.5,0.2,1,0.4,1.5
		C215.1,374.3,215.6,376.7,216.1,379.2z"/>
	<path class="st34" d="M180.6,356.8c1,14.5,1.3,29.1,0.8,43.6c3.4,0.5,5.8,1,9.2,0.3c3.8-13.3,2.6-27.4,1.3-41.2
		C188.2,358.6,184.5,357.1,180.6,356.8z"/>
	<path class="st34" d="M206.5,396.7c1.1-0.8,2.5-1.1,3.8-0.8c1.8-11.1,2.3-22.3,1.3-33.5c0,0-3.2-0.9-3.5-1
		c-0.8-0.4-1.9-0.7-2.2,0.5c-0.3,1.2,0.1,2.8,0.2,4c0.1,1.4,0.1,2.9,0.2,4.3c0.2,5.6,0.3,11.3,0.3,16.9
		C206.6,390.3,206.6,393.5,206.5,396.7z"/>
	<path class="st35" d="M228.1,477.3c-1.2-1.6-2.5-3.3-3.7-4.9c-9.5-12.6-4.8-31.4-4.4-47.2c0.4-15.4-0.9-30.9-3.9-46.1
		c-0.5-2.5-1-4.9-1.5-7.3c-0.1-0.5-0.2-1-0.4-1.5c-2.9-11.7-7.9-23.3-14.7-33.3c-2.5-3.8-5.2-7.5-8.4-10.7c-3.9-3.9-8.6-7-13.3-9.9
		c-4.9-3-10.1-6.3-15.2-9.3c-1.2-0.7-2.5-1.4-3.7-2.1c-14.9,0.6-29.6,4.7-42.6,11.8c-15.2,8.3-25.3,24-34.5,38.6
		c-6.1,9.7-11.2,20.1-15.7,30.6c-6.7,15.5-12.2,31.6-15,48.3c-2.8,16.6-2.8,33.9,1.4,50.3c1.5,5.7-1.7,11.4-2.5,17.2
		c2.2,3.2,4.9,6.4,7.9,9c1.2,1,2,2.2,2.5,3.7c0.6,1.8,0.9,3.6,1.6,5.3c0.8,2.1,2.3,3.9,4.1,5.2c11.9-4.4,23.9-8.2,36.1-11.7
		c6.1-1.7,12.2-3.4,18.3-4.9c3.5-0.9,7.1-2.2,10.7-2.4c1.2-0.1,2.4-0.5,3.5-0.7c1.2-0.2,2.4-0.4,3.7-0.6c2.5-0.3,4.9-0.6,7.4-0.7
		c1.7-0.1,3.3-0.1,5-0.1c8.4,0.1,16.7,1.2,24.9,2.6c3.1,0.5,6.2,1.1,9.3,1.6c14.5,2.6,26.4-12.2,38.8-20c2.7-1.7,2.8-5.8,4.4-8.5
		c0.2-0.4,0.4-0.8,0.4-1.2C228.6,478,228.3,477.7,228.1,477.3z"/>
	
		<linearGradient id="SVGID_00000060010886411688476240000004177217291867042236_" gradientUnits="userSpaceOnUse" x1="9123.0576" y1="383.2489" x2="9011.6494" y2="272.4682" gradientTransform="matrix(1 0 0 1 -8891.6982 0)">
		<stop  offset="5.586590e-03" style="stop-color:#F24A20"/>
		<stop  offset="0.9944" style="stop-color:#8A0B2B"/>
	</linearGradient>
	<path style="fill:url(#SVGID_00000060010886411688476240000004177217291867042236_);" d="M216.6,355.6c0.7,7.5,0.3,15.2-1.3,22.6
		c-0.2,0.7-0.3,1.5-0.1,2.2c-5.3-6.2-10.7-12.2-16.3-18.1c2.6-0.8,4.2-3.9,6.4-5.5C208.5,354.5,212.8,354.9,216.6,355.6z"/>
	
		<linearGradient id="SVGID_00000085232525757800779780000017516520991303955370_" gradientUnits="userSpaceOnUse" x1="9111.5156" y1="394.8568" x2="9000.1074" y2="284.0766" gradientTransform="matrix(1 0 0 1 -8891.6982 0)">
		<stop  offset="5.586590e-03" style="stop-color:#F24A20"/>
		<stop  offset="0.9944" style="stop-color:#8A0B2B"/>
	</linearGradient>
	<path style="fill:url(#SVGID_00000085232525757800779780000017516520991303955370_);" d="M201.9,352.4
		c-12.7,10.6-26.7,19.1-36.9,32c-11.4-25.7-14.3-54.5-9.2-82.1c4.7-0.4,9.4-0.7,14.1-1.1C177.6,318.7,188.4,338.8,201.9,352.4z"/>
	
		<linearGradient id="SVGID_00000038378214918118581760000015817153269031197338_" gradientUnits="userSpaceOnUse" x1="9090.0732" y1="336.7434" x2="9107.6582" y2="254.5335" gradientTransform="matrix(1 0 0 1 -8891.6982 0)">
		<stop  offset="0" style="stop-color:#FFC8A6"/>
		<stop  offset="0.2539" style="stop-color:#F7987E"/>
		<stop  offset="0.3122" style="stop-color:#FAA586"/>
		<stop  offset="0.4293" style="stop-color:#FEBA94"/>
		<stop  offset="0.5062" style="stop-color:#FFC299"/>
		<stop  offset="0.6792" style="stop-color:#FEBC95"/>
		<stop  offset="0.9189" style="stop-color:#FAAA8B"/>
		<stop  offset="1" style="stop-color:#F9A286"/>
	</linearGradient>
	<path style="fill:url(#SVGID_00000038378214918118581760000015817153269031197338_);" d="M239.7,302.5c-0.1,1-0.2,2-0.3,3.1
		c-0.3,4.6,2.8,8.5,3.1,13c0.4,6.1-1.7,12.3-3.8,18c0,0,0,0.1,0,0.1c-2.8,7.6-7.4,13-15.2,15.5c-16,5.2-35.9,4.4-47.7-9
		c-12.4-14.1-9.1-35.6-7.8-52.8c1.3-17,7.9-41.4,27.5-44.8c11.9-2.1,23.5,2.8,31.9,11.1c9.9,9.6,16.4,22.2,15.3,36
		c-0.3,0.6-0.6,1.2-0.9,1.8C240.7,296.9,240,299.7,239.7,302.5z"/>
	
		<linearGradient id="SVGID_00000163789612049301797340000006857050481704759182_" gradientUnits="userSpaceOnUse" x1="9127.375" y1="303.6218" x2="9129.4932" y2="293.0301" gradientTransform="matrix(1 0 0 1 -8891.6982 0)">
		<stop  offset="0" style="stop-color:#FFCEB0"/>
		<stop  offset="1" style="stop-color:#ED7E5F"/>
	</linearGradient>
	<path style="fill:url(#SVGID_00000163789612049301797340000006857050481704759182_);" d="M241.8,294.4c-1.1,2.6-1.8,5.3-2.1,8.1
		c-0.1,0-0.2,0-0.3,0c-1.5-0.2-3-0.4-4.5-0.5c-1-0.1-2.1,0.2-2.7,1c-0.1-1.4,0-2.9,0.2-4.3c0.1-0.7,0.3-1.4,0.5-2.1
		c0.1-0.4,0.2-0.7,0.4-1c0.4-0.9,0.7-2,1.1-2.9c0.2-0.6,0.7-0.8,1.1-0.8c0.7-0.1,1.4,0.3,2,0.6c0.8,0.4,1.4,1.4,2.3,1.5
		c0.5,0,0.9,0.2,1.3,0.4C241.3,294.2,241.5,294.3,241.8,294.4z"/>
	
		<linearGradient id="SVGID_00000146494503854458698980000017552742171879341982_" gradientUnits="userSpaceOnUse" x1="9101.0547" y1="304.8543" x2="9104.1143" y2="286.8487" gradientTransform="matrix(1 0 0 1 -8891.6982 0)">
		<stop  offset="0" style="stop-color:#FFCEB0"/>
		<stop  offset="1" style="stop-color:#ED7E5F"/>
	</linearGradient>
	<path style="fill:url(#SVGID_00000146494503854458698980000017552742171879341982_);" d="M201.2,298.4c1.4-0.4,2.9-0.4,4.4-0.3
		c4.8,0.2,9.6,0.4,14.3,1.4c0.3-4,1-7.9,1.9-11.8c0,0.1-3-0.2-3.3-0.2c-1.1-0.1-2.2-0.1-3.3-0.1c-2.2,0-4.4,0.2-6.5,0.7
		c-1.3,0.3-2.6,0.4-3.8,0.8c-1.2,0.4-1.9,1.5-2.5,2.6c-0.9,1.9-1.4,4-1.4,6C201.2,297.9,201.2,298.2,201.2,298.4z"/>
	
		<linearGradient id="SVGID_00000088824179467111555770000003699937542495683975_" gradientUnits="userSpaceOnUse" x1="9131.5654" y1="355.7762" x2="9040.7139" y2="287.0483" gradientTransform="matrix(1 0 0 1 -8891.6982 0)">
		<stop  offset="0" style="stop-color:#8F3333"/>
		<stop  offset="1" style="stop-color:#4C0D43"/>
	</linearGradient>
	<path style="fill:url(#SVGID_00000088824179467111555770000003699937542495683975_);" d="M241,329.5c-0.9,3.9-1.7,7.8-2.5,11.7
		c-0.3,1.4-0.5,2.7-0.8,4.1c-0.3,1.3-0.5,2.7-0.7,4c-0.7,4.1-1.3,8.3-1.7,12.4c-3.7,0.7-7.4,1.4-11,2c0-0.4,0-0.9,0.1-1.3
		c0.1-2.3,0.2-4.6,0.4-6.8c-1,2.5-1.7,5-2.1,7.7c0,0.3-0.1,0.5-0.1,0.8c-8.3,1.4-16.5,2.4-25.1,2c-3.4-0.2-6.6-0.5-10-1.5
		c-0.1,0-0.1-0.1-0.2-0.1c-1.5-0.5-3-1.1-4.6-2c-0.4-0.4-0.9-0.9-1.4-1.5c-2.1-2.2-4.7-5-6.2-7.2c-2.5-3.7-4.6-7.6-6.4-11.6
		c-0.9-2-1.6-4.1-2.3-6.2c-0.3-1.1-0.6-2.1-0.9-3.2c-1.2-4.7-1.6-9.5-1.7-14.3c-0.2-15.3,2-30.6,6.5-45.2c1.3-4.2,2.8-8.4,4.4-12.4
		c5.2,1.6,10.3,3.7,14.6,6.9c-5.6,10.5-7.9,22.8-6.3,34.6c0.5,3.4,1.3,6.8,2.8,9.9c1.5,3.1,3.8,5.8,6.8,7.5c1.3,0.7,2.7,1.2,4.1,1.5
		c2.4,0.5,4.9,0.5,7.3,0.1c3.9-0.7,7.5-2.5,10.8-4.6c1.7-1.1,3.6-0.3,5.6,0c1.4,0.2,2.8,0.6,4.2,0.8c2.3,0.4,4.6,0.6,6.9,0.5
		c0.9,2.1,2.2,4.5,3.5,6.4C236.7,326.4,238.9,328.7,241,329.5z"/>
	
		<linearGradient id="SVGID_00000176013173285222898580000000617407236616589981_" gradientUnits="userSpaceOnUse" x1="9076.2246" y1="387.5838" x2="9070.8105" y2="344.982" gradientTransform="matrix(1 0 0 1 -8891.6982 0)">
		<stop  offset="0" style="stop-color:#8F3333"/>
		<stop  offset="1" style="stop-color:#4C0D43"/>
	</linearGradient>
	<path style="fill:url(#SVGID_00000176013173285222898580000000617407236616589981_);" d="M188.8,337.1c-1.1,9.1-1.5,18.3-1.3,27.4
		c-0.1,0-0.1-0.1-0.2-0.1c-0.6-6.4-1.3-12.2-1.9-18.8c-1.6,5-3,10.2-4,15.3c-2.1-2.2-4.7-5-6.2-7.2c-2.5-3.7-4.6-7.6-6.4-11.6
		c-0.9-2-1.6-4.1-2.3-6.2c-0.3-1.1-0.6-2.1-0.9-3.2c-1.2-4.7-1.6-9.5-1.7-14.3c-0.2-15.3,2-30.6,6.5-45.2c0.6-0.1,1.2-0.3,1.8-0.4
		c2.8-0.5,5.7-0.7,8.2,0.6c2.5,1.3,2.8,4.8,2.2,7.6c-3,14.4-1.6,29.6,3.9,43.3c1,2.5,2.2,5,2.5,7.7
		C189.2,333.8,189,335.5,188.8,337.1z"/>
	
		<linearGradient id="SVGID_00000112629371196603547130000003665409464057842330_" gradientUnits="userSpaceOnUse" x1="9070.4316" y1="322.4738" x2="9058.1924" y2="286.1095" gradientTransform="matrix(1 0 0 1 -8891.6982 0)">
		<stop  offset="0" style="stop-color:#FFCEB0"/>
		<stop  offset="1" style="stop-color:#ED7E5F"/>
	</linearGradient>
	<path style="fill:url(#SVGID_00000112629371196603547130000003665409464057842330_);" d="M163.9,303.6c0.4,0.8,0.8,1.7,1.3,2.5
		c1.9,2.8,5.6,5.1,9.1,4.9c7-0.6,7.4-11.2,5.8-15.3c-1.8-4.7-7.2-10.7-13.7-10.3c-4.5,0.3-7.4,5-7.1,9.2c0.2,3.1,2.4,5.2,3.9,7.6
		C163.5,302.7,163.7,303.2,163.9,303.6z"/>
	
		<linearGradient id="SVGID_00000131359626992419458460000013243303510699680688_" gradientUnits="userSpaceOnUse" x1="9106.2988" y1="325.2315" x2="9115.2432" y2="287.3368" gradientTransform="matrix(1 0 0 1 -8891.6982 0)">
		<stop  offset="0" style="stop-color:#8F3333"/>
		<stop  offset="1" style="stop-color:#4C0D43"/>
	</linearGradient>
	<path style="fill:url(#SVGID_00000131359626992419458460000013243303510699680688_);" d="M221.4,290.3c-5.2-1.8-10.8-2-16.1-0.7
		c-0.9,0.2-1.8,0.5-2.7,0.7c2.2-2.8,5.1-4.2,8.6-4.9c3.5-0.7,7.1-0.5,10.7,0c0.2,0.7,0.1,1.3,0.2,2.1c0.4-0.7,0.9-1.3,1.2-2
		C223.5,287,222.3,289.1,221.4,290.3z M242.5,292.9c-1.3-1.5-3.3-2.8-5.2-3.3c-0.3,0.6-0.8,0.8-1.3,1.3c0.1-0.7,0-1.4-0.1-2.1
		c-0.5,1.6-1.2,3.2-2,4.7c1.2-0.2,2.7,0,3.9,0.4c1.2,0.4,2.3,1.1,3.4,1.8C241.7,294.6,242.3,293.9,242.5,292.9z"/>
	<path class="st45" d="M220.1,298.6c-1.9-1.7-4.7-2-7.2-1.8c-2.7,0.3-6,0.4-8.5,1.5c1.1-0.5,2.7,0,3.9,0.1c4.3,0.4,8.6,1.2,12.8,2
		C220.9,299.9,220.7,299.1,220.1,298.6z"/>
	<path class="st45" d="M238.2,303.1c-2-0.8-4.2-0.9-6.3-0.4c0.5-0.8,0.6-1.6,1.3-2.2c0.7-0.5,1.7-0.8,2.4-0.3c0.4,0.2,0.7,0.6,1,1
		C237.2,302,237.5,302.5,238.2,303.1z"/>
	
		<linearGradient id="SVGID_00000155109729279691415930000001594649551493948301_" gradientUnits="userSpaceOnUse" x1="9142.9375" y1="323.1256" x2="9085.3506" y2="331.1281" gradientTransform="matrix(1 0 0 1 -8891.6982 0)">
		<stop  offset="0" style="stop-color:#8F3333"/>
		<stop  offset="1" style="stop-color:#4C0D43"/>
	</linearGradient>
	<path style="fill:url(#SVGID_00000155109729279691415930000001594649551493948301_);" d="M247.7,334.3c-2.3,1.8-5.3,2.4-8.4,2.7
		c0-0.1,0-0.1,0-0.2c-0.1-0.6-0.2-1.3-0.3-1.9c-0.1-0.6-0.3-1.3-0.4-1.9c-0.1-0.3-0.2-0.6-0.3-0.9c0-0.2-0.3-0.7-0.3-0.8
		c-0.5,1.4-0.4,2.9-0.4,4.4c0,0.5,0,1,0.1,1.5c-0.7,0-1.4,0-2.1,0.1c-10.9,0-21.8-1.3-32.3-4.2c0.4-1.1,0.9-2.1,1.5-3.1
		c0.4-0.7,0.8-1.4,1.2-2.1c0.2-0.3,0.4-0.7,0.6-1c0.2-0.3,0.4-0.8,0.6-1c-1,0.8-2,1.6-3,2.5c-1.2,1.2-2.4,2.5-3.4,3.9
		c-1.9-0.6-3.7-1.2-5.6-1.9c1.8-4.7,5.4-8.7,9.9-11.3c4.5-2.6,10-3.7,15.3-3.2c3.7,0.4,7,1.4,10.6,2.1c2.4,0.4,4.9,1.4,6.7,2.9
		C242.2,324.7,245.5,329.1,247.7,334.3z"/>
	
		<linearGradient id="SVGID_00000013163238147485159630000008201674689211787440_" gradientUnits="userSpaceOnUse" x1="9132.9482" y1="327.7729" x2="9100.7812" y2="302.667" gradientTransform="matrix(1 0 0 1 -8891.6982 0)">
		<stop  offset="0" style="stop-color:#FFCEB0"/>
		<stop  offset="1" style="stop-color:#ED7E5F"/>
	</linearGradient>
	<path style="fill:url(#SVGID_00000013163238147485159630000008201674689211787440_);" d="M227.5,324.3c-4-0.2-12.1-3.2-11.1-8.6
		c0.1-0.7,0.4-1.3,0.8-1.9c0.1-0.1,0.1-0.2,0.2-0.3c1.8-2.7,4.4-5.1,7.8-5.3c1.3-0.1,2.7,0.1,4.1,0.5c3.9,1.2,7.6,4.6,9.4,8.2
		c0.1,0.2,0.2,0.5,0.3,0.7C240.8,323,231.2,324.5,227.5,324.3z"/>
	
		<linearGradient id="SVGID_00000103956017380216985940000014486197102332793020_" gradientUnits="userSpaceOnUse" x1="9114.1416" y1="346.1308" x2="9117.5928" y2="327.6181" gradientTransform="matrix(1 0 0 1 -8891.6982 0)">
		<stop  offset="0" style="stop-color:#FFCEB0"/>
		<stop  offset="1" style="stop-color:#ED7E5F"/>
	</linearGradient>
	<path style="fill:url(#SVGID_00000103956017380216985940000014486197102332793020_);" d="M227.5,324.3c-0.8,0-1.7-0.2-2.7-0.4
		c-2.1-0.5-4.5-1.5-6.2-3c-1.6-1.4-2.6-3.1-2.2-5.2c0.1-0.7,0.4-1.3,0.8-1.9c4.1,2.8,8.7,4.9,13.5,6c1.1,0.3,2.2,0.5,3.4,0.2
		c0.8-0.2,1.5-0.6,2.2-0.9c0.9-0.5,1.8-1.1,2.6-1.6C240.8,323,231.2,324.5,227.5,324.3z"/>
	<path class="st45" d="M172.2,305.9c-0.8-0.6-1.3-1.5-1.6-2.5c-0.4-1.4-0.5-3.1,0.5-4.1c0.6-0.6,1.4-0.9,2.3-1.1
		c1.1-0.3,2.5-0.4,3.4,0.4c-0.2-0.7-0.2-1.3-0.6-1.9c-0.3-0.4-0.4-0.9-0.7-1.4c-0.7-1.6-1.8-3-3-4.2c-1.8-1.8-4.4-3.1-6.7-2.2
		c-1.5,0.6-2.5,2-2.8,3.6c-0.3,1.6,0.2,3.2,1.2,4.5c-0.8-1.4-0.5-3.1,0.3-4.5c0.5-0.8,1.2-1.5,2.1-1.7c0.9-0.1,1.8,0.2,2.6,0.6
		c1.1,0.5,2.2,1.2,3.1,2.1c0.4,0.4,0.8,0.9,1.1,1.5c0.1,0.2,0.2,0.4,0.3,0.6c0.1,0.2-0.1,0.4-0.2,0.6c-0.1,0.2-0.4,0.4-0.6,0.5
		c-0.1,0-0.1,0.1-0.2,0.1c-1.1,0.4-2.4,0.5-3.3,1.3c-0.5,0.4-0.9,0.9-1.2,1.5c-1.1,1.8-1.1,3.4-0.2,5.3c0.4,0.9,0.9,1.8,1.7,2.4
		c1.7,1.4,4.8,0.8,6-0.9c0.2-0.3,0.3-0.6,0.3-1c-0.3,0.2-0.5,0.4-0.8,0.5c-0.1,0.1-0.3,0.2-0.4,0.2c-0.2,0.1-0.3,0.2-0.5,0.2
		C173.6,306.4,172.8,306.3,172.2,305.9z"/>
	
		<linearGradient id="SVGID_00000000210195524123321540000002014640036149275798_" gradientUnits="userSpaceOnUse" x1="301.3413" y1="266.0188" x2="186.1853" y2="260.3221">
		<stop  offset="0" style="stop-color:#8F3333"/>
		<stop  offset="1" style="stop-color:#4C0D43"/>
	</linearGradient>
	<path style="fill:url(#SVGID_00000000210195524123321540000002014640036149275798_);" d="M248.8,261.7c-0.1-1.5-0.8-2.8-1.6-4
		c-1-1.5-2.3-2.8-3.9-3.6c-2.3-1.2-5.1-1.1-7.7-0.6c-2.3,0.5-4.6,1.2-6.7,2.2c-1.2-0.5-2.4-1.2-3.4-2.2c-0.2-0.2-0.4-0.4-0.6-0.6
		c-1.1-1-2.2-1.8-3.4-2.6c-5.3-3.6-11.8-5.6-18.2-6.4c-1.5-0.2-3-0.4-4.5-0.2c-1.5,0.1-3.1,0.5-4.6,0.9c-4.4,1.3-8.7,3.2-12.2,6.1
		c-3.6,2.9-6.2,6.7-7.2,11.2c1.8,0.7,3.6,1.4,5.3,2.1c1.8,0.7,3.6,1.5,5.4,2.3c0.5,0.2,1,0.4,1.5,0.7c1.3,0.6,2.6,1.2,3.9,1.9
		c5,2.6,10.6,3.7,16.1,4.1c6.7,0.5,13.3,0,20,0.3h0.3c2.9,0.1,5.8,0.4,8.5,1.5c2.7,1.1,5.1,3.1,6.1,5.8c1.3-2.7,3-5.4,4.3-8
		c0.7-1.5,1.5-3.2,1.5-4.8c0-0.8-0.1-1.5-0.4-2.2C248.4,264.6,248.9,263.1,248.8,261.7z"/>
	<path class="st45" d="M224.8,323.9c-2.1-0.5-4.5-1.5-6.2-3c0-0.8,1.5-1,2.2-0.9c0.7,0,1.4,0.2,2,0.6
		C223.8,321.4,224.5,322.6,224.8,323.9z"/>
	
		<linearGradient id="SVGID_00000001648175538017317120000002288185274970891650_" gradientUnits="userSpaceOnUse" x1="8970.5068" y1="516.5162" x2="9002.5479" y2="491.2204" gradientTransform="matrix(1 0 0 1 -8891.6982 0)">
		<stop  offset="0" style="stop-color:#FFCB2E"/>
		<stop  offset="1" style="stop-color:#CC6F2D"/>
	</linearGradient>
	<path style="fill:url(#SVGID_00000001648175538017317120000002288185274970891650_);" d="M233.2,419.1c-0.7-1.2-0.9-1.2-2-1.4
		c-1-0.2-2.1,0.1-3.1,0.4c-4.1,1.1-8.4,1.1-12.6,0.1c-5.9-1.5-5.4-8.6-3.4-15.1c1.2-4,3-7.8,4.2-9.8c0.5-0.9,1.2-1.9,1.3-3.1
		c0.3-3-3.3-6.1-5-7.2c-1.6-1-3.4-1.7-5.3-1.9c-7.8-0.6-15,3.5-22.6,3.9c-5,0.3-8.9,4.8-11.7,8.6c-0.7,0.9-1.3,1.8-1.9,2.7
		c-4.2-1.7-8.5-3.1-12.8-4c-6.9-1.5-13.8-0.3-20.5,1.5c-3,0.8-5.9,1.6-8.9,2.1c-3.7,0.7-7.2,3.8-9.4,6.6c-5,6.3-6.9,15.6-8.2,24.6
		c-2.2,14.4,0.3,30.6,3.9,44.9c2.7,10.7,6.1,21.4,11.8,29.8c3,4.5,7,8.3,11.8,10.7c12.5,6.5,36.1,3.6,47.1-5.3
		c7.1-5.8,11.4-17.1,16.7-25.8c0,0,0.1,0,0.1,0.1c1.4,0.6,3,1,4.6,1.1c1.7,0.1,3.1-0.5,4.8-0.8c6.3-1.3,15.3-0.5,20.9-4
		c3.3-2.1,5-7,6-11.9C241.6,451.3,240.5,432.4,233.2,419.1z"/>
	
		<linearGradient id="SVGID_00000128470061515233719630000013369771152751656104_" gradientUnits="userSpaceOnUse" x1="-747.8411" y1="-8714.041" x2="-752.592" y2="-8657.8213" gradientTransform="matrix(-0.1288 0.9917 -0.9917 -0.1288 -8338.4834 43.2541)">
		<stop  offset="0" style="stop-color:#FFCB2E"/>
		<stop  offset="1" style="stop-color:#CC6F2D"/>
	</linearGradient>
	<path style="fill:url(#SVGID_00000128470061515233719630000013369771152751656104_);" d="M342.3,388.7l-28.6,10.8
		c0.2,2.2-0.7,4-2.2,5.7l4.3,21.4c2,0,3.3,1.1,4,3l29.9-3c-0.1-4.2,0.7-7.7,2.8-10.1l-4.1-20.7C345.7,395.5,343.3,392.2,342.3,388.7
		z M342.6,411.4c1.4-0.2,2.3,8,0.8,8.2l-23.3,3.5c-0.9,0.4-2.1-4.4-1.1-4.8L342.6,411.4z M339.5,397.9c1.4-0.5,3.2,7.4,1.8,7.9
		l-23.9,5c-1,0.1-1.5-4.9-0.5-5L339.5,397.9z"/>
	
		<linearGradient id="SVGID_00000006672119646149867780000007742403659384447913_" gradientUnits="userSpaceOnUse" x1="5507.1753" y1="-6621.9331" x2="5504.9033" y2="-6568.165" gradientTransform="matrix(0.6459 -0.7634 -0.7634 -0.6459 -8277.0029 412.356)">
		<stop  offset="0" style="stop-color:#CF5C2B"/>
		<stop  offset="1" style="stop-color:#59173E"/>
	</linearGradient>
	<polygon style="fill:url(#SVGID_00000006672119646149867780000007742403659384447913_);" points="208.8,424.5 214,451.4 
		222.3,449.4 223.6,449 230,447.5 231.3,447.2 238.1,445.5 239.4,445.2 246.9,443.3 248.2,443 256.5,440.9 257.8,440.6 267.2,438.3 
		268.5,438 279,435.4 280.3,435.1 290.2,432.7 291.7,432.3 302.3,429.7 303.8,429.3 315.1,426.6 310.1,405.6 299.5,407.5 
		297.7,407.9 287.2,409.8 285.5,410.2 275.9,412 274.3,412.2 264,414.2 262.4,414.5 253.2,416.2 251.6,416.5 243.5,418 241.9,418.3 
		234.6,419.7 233,420 226.4,421.2 224.8,421.5 218.6,422.6 217,422.9 	"/>
	<path class="st12" d="M349.2,423.7c0.1,1.9,0.3,3.9,0.7,5.8c0.6,0,1.3,0,1.9-0.1c-0.3-2-0.6-4-1-6
		C350.2,423.5,349.8,423.7,349.2,423.7z"/>
	<path class="st12" d="M339.7,424.4c0.1,1.9,0.3,3.9,0.7,5.8c0.6,0,1.3,0,1.9-0.1c-0.3-2-0.6-4-1-6
		C340.7,424.2,340.2,424.4,339.7,424.4z"/>
	<path class="st12" d="M329.5,426c0.1,1.9,0.3,3.9,0.7,5.8c0.6,0,1.3,0,1.9-0.1c-0.3-2-0.6-4-1-6C330.5,425.8,330.1,426,329.5,426z"
		/>
	<path class="st12" d="M342.6,390c-0.6-1.8-1.1-3.7-1.5-5.6c0.6-0.3,1.2-0.6,1.8-0.7c0.4,2,0.8,4,1.3,5.9
		C343.6,389.8,343.1,389.8,342.6,390z"/>
	<path class="st12" d="M342.8,385.1c1.2-0.6,2.2-2.1,2.2-3.9c0-0.9-0.2-1.9-0.7-2.6c-0.4-0.5-0.7-0.7-1.2-0.8c-1.6-0.3-3.3,0-4.7,1
		c-0.2,0.1-0.3,0.2-0.5,0.3c-0.4,0.2-0.6,0.7-0.7,1.2c-0.3,1.3,0.2,3,1,3.9C339.5,385.5,341.4,385.8,342.8,385.1z"/>
	<path class="st12" d="M333.6,388.7c1.2-0.6,2.2-2.1,2.2-3.9c0-0.9-0.2-1.9-0.7-2.6c-0.4-0.5-0.7-0.7-1.2-0.8c-1.6-0.3-3.3,0-4.7,1
		c-0.2,0.1-0.3,0.2-0.5,0.3c-0.4,0.2-0.6,0.7-0.7,1.2c-0.3,1.3,0.2,3,1,3.9C330.3,389.1,332.2,389.4,333.6,388.7z"/>
	<path class="st12" d="M324.1,392.1c1.2-0.6,2.2-2.1,2.2-3.9c0-0.9-0.2-1.9-0.7-2.6c-0.4-0.5-0.7-0.7-1.2-0.8c-1.6-0.3-3.3,0-4.7,1
		c-0.2,0.1-0.3,0.2-0.5,0.3c-0.4,0.2-0.6,0.7-0.7,1.2c-0.3,1.3,0.2,3,1,3.9C320.8,392.5,322.8,392.8,324.1,392.1z"/>
	<path class="st12" d="M332.1,430.6c1.3,0.1,2.7,1.1,3.4,2.8c0.3,0.9,0.4,1.8,0.2,2.7c-0.2,0.6-0.5,0.9-0.9,1.2
		c-1.4,0.9-3.1,1.3-4.7,0.9c-0.2,0-0.4-0.1-0.6-0.1c-0.4,0-0.8-0.4-1-0.8c-0.7-1.1-0.8-2.9-0.3-4
		C328.9,431.5,330.6,430.5,332.1,430.6z"/>
	<path class="st12" d="M342,429c1.3,0.1,2.7,1.1,3.4,2.8c0.3,0.9,0.4,1.8,0.2,2.7c-0.2,0.6-0.5,0.9-0.9,1.2
		c-1.4,0.9-3.1,1.3-4.7,0.9c-0.2,0-0.4-0.1-0.6-0.1c-0.4,0-0.8-0.4-1-0.8c-0.7-1.1-0.8-2.9-0.3-4C338.8,429.9,340.5,428.8,342,429z"
		/>
	<path class="st12" d="M351.8,427.9c1.3,0.1,2.7,1.1,3.4,2.8c0.3,0.9,0.4,1.8,0.2,2.7c-0.2,0.6-0.5,0.9-0.9,1.2
		c-1.4,0.9-3.1,1.3-4.7,0.9c-0.2,0-0.4-0.1-0.6-0.1c-0.4,0-0.8-0.4-1-0.8c-0.7-1.1-0.8-2.9-0.3-4
		C348.6,428.8,350.3,427.8,351.8,427.9z"/>
	<path class="st12" d="M333.6,393.7c-0.6-1.8-1.1-3.7-1.5-5.6c0.6-0.3,1.2-0.6,1.8-0.7c0.4,2,0.8,4,1.3,5.9
		C334.6,393.4,334.1,393.4,333.6,393.7z"/>
	<path class="st12" d="M323.7,396.8c-0.6-1.8-1.1-3.7-1.5-5.6c0.6-0.3,1.2-0.6,1.8-0.7c0.4,2,0.8,4,1.3,5.9
		C324.7,396.6,324.3,396.6,323.7,396.8z"/>
	
		<linearGradient id="SVGID_00000118398087574623753600000009425372516439618476_" gradientUnits="userSpaceOnUse" x1="193.0948" y1="354.2148" x2="175.4433" y2="550.2917">
		<stop  offset="0" style="stop-color:#FFCB2E"/>
		<stop  offset="1" style="stop-color:#CC6F2D"/>
	</linearGradient>
	<path style="fill:url(#SVGID_00000118398087574623753600000009425372516439618476_);" d="M233.2,419.1c-0.7-1.2-0.9-1.2-2-1.4
		c-1-0.2-2.1,0.1-3.1,0.4c-4.1,1.1-8.4,1.1-12.6,0.1c-5.9-1.5-5.4-8.6-3.4-15.1c1.2-4,3-7.8,4.2-9.8c0.5-0.9,1.2-1.9,1.3-3.1
		c0.3-3-3.3-6.1-5-7.2c-2.4-1.6-5.1-2.2-7.6-1.8c-4.8,0.7-9,4.6-12.4,9.1c-2.2,2.9-4.2,6.2-6.9,8.3c-4.4,3.4-8,0.7-12.6-1.4
		c-4.9-2.2-10-3.9-15-5c-7.2-1.5-13.9,0.4-19.1,6.9c-5,6.3-6.9,15.6-8.2,24.6c-2.2,14.4,0.3,30.6,3.9,44.9
		c2.7,10.7,6.1,21.4,11.8,29.8c9.8,14.6,27.8,18,39.2,8.8c7.7-6.3,12.1-18.9,18-27.7c2.3-3.3,4.7-6.1,8.3-5.8
		c3.6,0.3,6.8,3,10.2,4.5c3.5,1.5,7.3,1.6,10.5-0.4c3.3-2.1,5-7,6-11.9C241.6,451.3,240.5,432.4,233.2,419.1z"/>
	<path class="st12" d="M186,425.8c-2.7,4.6-3.8,10.7-2.8,16.9c0.9,5.5,3.3,10.4,6.7,13.8c3.4,3.4,7.5,4.8,11.5,4.1
		c3.5-0.7,6.6-3,8.7-6.6c2.7-4.6,3.8-10.7,2.8-16.9c-0.9-5.5-3.3-10.4-6.7-13.8c-3.4-3.4-7.5-4.8-11.5-4.1
		C191.2,419.8,188.1,422.2,186,425.8L186,425.8z"/>
	<path class="st54" d="M195.3,423.1c6.6-1.3,13.2,5.2,14.7,14.5c1.5,9.2-2.7,17.8-9.3,19c-6.6,1.3-13.2-5.2-14.7-14.5
		C184.5,432.8,188.7,424.3,195.3,423.1z"/>
	
		<linearGradient id="SVGID_00000058549151189777254730000003986489664720774588_" gradientUnits="userSpaceOnUse" x1="5454.2798" y1="-6568.3711" x2="5418.5562" y2="-6446.4727" gradientTransform="matrix(0.6459 -0.7634 -0.7634 -0.6459 -8277.0029 412.356)">
		<stop  offset="0" style="stop-color:#CF5C2B"/>
		<stop  offset="1" style="stop-color:#59173E"/>
	</linearGradient>
	<path style="fill:url(#SVGID_00000058549151189777254730000003986489664720774588_);" d="M162.4,431.1c1.5-0.1,2.9-0.2,4.3-1
		c2.1,12.9,4.4,25.9,6.5,38.9c-1.6,0.4-3.3,0.6-4.9,0.8C162.5,458.5,160.2,443.8,162.4,431.1z"/>
	
		<linearGradient id="SVGID_00000098932014562187725330000018208632032327127487_" gradientUnits="userSpaceOnUse" x1="5506.3472" y1="-6570.5098" x2="5511.2959" y2="-6417.1035" gradientTransform="matrix(0.6459 -0.7634 -0.7634 -0.6459 -8277.0029 412.356)">
		<stop  offset="0" style="stop-color:#CF5C2B"/>
		<stop  offset="1" style="stop-color:#59173E"/>
	</linearGradient>
	<polygon style="fill:url(#SVGID_00000098932014562187725330000018208632032327127487_);" points="213.8,423 219,450 227.3,447.9 
		228.5,447.6 235,446 236.3,445.7 243.1,444 244.4,443.7 251.9,441.9 253.2,441.6 261.5,439.5 262.8,439.2 272.2,436.9 273.5,436.5 
		284,434 285.3,433.7 295.2,431.2 296.6,430.9 307.3,428.3 308.7,427.9 320.1,425.1 315.1,404.1 304.5,406.1 302.7,406.4 
		292.2,408.4 290.5,408.7 280.9,410.5 279.3,410.8 269,412.7 267.4,413 258.2,414.7 256.5,415.1 248.5,416.6 246.9,416.8 
		239.5,418.2 238,418.5 231.4,419.7 229.8,420 223.6,421.2 222,421.5 	"/>
	<polygon class="st57" points="320.1,425.1 322,424.7 317.6,403.3 315.1,404.1 	"/>
	
		<linearGradient id="SVGID_00000078737762965702369030000005526091203112585621_" gradientUnits="userSpaceOnUse" x1="-752.4163" y1="-8685.0518" x2="-766.6344" y2="-8561.4326" gradientTransform="matrix(-0.1288 0.9917 -0.9917 -0.1288 -8338.4834 43.2541)">
		<stop  offset="0" style="stop-color:#FFCB2E"/>
		<stop  offset="1" style="stop-color:#CC6F2D"/>
	</linearGradient>
	<path style="fill:url(#SVGID_00000078737762965702369030000005526091203112585621_);" d="M348.5,386.8l-28.6,10.8
		c0.2,2.2-0.7,4-2.2,5.7l4.3,21.4c2,0,3.3,1.1,4,3l29.9-3c-0.1-4.2,0.7-7.7,2.8-10.1l-4.1-20.7C351.9,393.6,349.6,390.3,348.5,386.8
		z M348.8,409.5c1.4-0.2,2.3,8,0.8,8.2l-23.3,3.5c-0.9,0.4-2.1-4.4-1.1-4.8L348.8,409.5z M345.7,396c1.4-0.5,3.2,7.4,1.8,7.9
		l-23.9,5c-1,0.1-1.5-4.9-0.5-5L345.7,396z"/>
	<path class="st59" d="M308.7,427.9l-1.4,0.4l-4.6-21.8l1.8-0.3L308.7,427.9z M292.2,408.4l-1.7,0.3l4.7,22.5l1.4-0.3L292.2,408.4z
		 M279.3,410.8L284,434l1.3-0.3l-4.4-23.1L279.3,410.8z M267.4,413l4.8,23.8l1.3-0.3l-4.6-23.8L267.4,413z M258.2,414.7l-1.6,0.3
		l5,24.5l1.3-0.3L258.2,414.7z M246.9,416.8l5,25l1.3-0.3l-4.7-25L246.9,416.8z M239.5,418.2l-1.6,0.3l5.1,25.5l1.3-0.3L239.5,418.2
		z M231.4,419.7l-1.6,0.3l5.2,26l1.3-0.3L231.4,419.7z M223.6,421.2l-1.6,0.3l5.3,26.4l1.3-0.3L223.6,421.2z"/>
	<g>
		<polygon class="st54" points="169.5,461.7 169.6,462.2 321.6,421.7 321.5,421.2 		"/>
		<polygon class="st54" points="168.9,457 169,457.5 321.1,418.6 321,418.1 		"/>
		<polygon class="st54" points="168.3,452.2 168.4,452.7 320.6,415.4 320.5,415 		"/>
		<polygon class="st54" points="167.6,447.5 167.7,447.9 320.1,412.3 320,411.8 		"/>
		<polygon class="st54" points="167,442.7 167.1,443.2 319.6,409.2 319.5,408.7 		"/>
		<polygon class="st54" points="166.4,438 166.5,438.4 319.1,406 319,405.5 		"/>
	</g>
	
		<linearGradient id="SVGID_00000063634449887977860910000001745058611064874663_" gradientUnits="userSpaceOnUse" x1="9046.9756" y1="424.6146" x2="9094.3623" y2="435.5984" gradientTransform="matrix(1 0 0 1 -8891.6982 0)">
		<stop  offset="0" style="stop-color:#FFCEB0"/>
		<stop  offset="1" style="stop-color:#ED7E5F"/>
	</linearGradient>
	<path style="fill:url(#SVGID_00000063634449887977860910000001745058611064874663_);" d="M206.9,432.1c0.4,0.3,0.8,0.6,1,1
		c0.2,0.4,0.1,0.8,0.1,1.2c-0.1,2-0.4,4.1-0.7,6.1c-0.1,0.4-0.1,0.9-0.5,1.1c-0.2,0.1-0.5,0.2-0.7,0.2c-3.8,0.3-7.5-0.8-11.1-1.9
		c-0.3-0.1-0.6-0.2-0.7-0.5c-0.1-0.2-0.1-0.4,0-0.6c0.4-2.9,1.4-5.8,3.1-8.3c0.5-0.7,1.1-1.5,1.9-1.7c1.1-0.2,2.2,0.4,3.2,0.8
		C204,430.3,205.5,431.2,206.9,432.1z"/>
	
		<linearGradient id="SVGID_00000054968321540057434380000017971310408475114630_" gradientUnits="userSpaceOnUse" x1="9056.5479" y1="449.8396" x2="9121.1934" y2="435.0905" gradientTransform="matrix(1 0 0 1 -8891.6982 0)">
		<stop  offset="0" style="stop-color:#FFCEB0"/>
		<stop  offset="1" style="stop-color:#ED7E5F"/>
	</linearGradient>
	<path style="fill:url(#SVGID_00000054968321540057434380000017971310408475114630_);" d="M199,439c-2.2,2,0.6,6.3,1.7,8.1
		c0.6,1.1,0.5,2.5,0.3,3.7c-0.7,4.4-0.1,9.8-2.8,13.3c-0.4,0.5-0.8,1-1.3,1.2c-0.4,0.2-0.9,0.2-1.4,0.3c-5.1,0.3-10.3-0.1-15.3-1.1
		c-1.2-0.3-1.8-1-3-0.7c-8.9,2-16.6,7.2-24.4,12.1c-7.5,4.7-15.1,9.2-23.8,10.5c-11.4,1.6-23.4-3-30.7-11.9
		c1.8-11.1,9.4-20.9,16.8-29.4c3.3-3.7,6.7-7.6,10.9-10.2c3.6-2.3,7.7-3.6,11.9-4.2c3.2-0.5,6.4-0.5,9.6-0.2c3.7,0.3,7.3,1,10.9,1.9
		c1.7,0.4,3.4,0.9,5,1.4c2,0.6,4.2,1.8,6.2,0.9c1.9-0.9,3.9-3.7,4.8-5.5c1.3-2.3,2.1-4.9,3.4-7.2c0.2-0.3,0.3-0.6,0.5-0.9
		c0.9-1.4,1.9-2.9,3.5-3.4c0.4-0.1,0.7-0.2,1.1-0.1c0.3,0.1,0.4,0.4,0.6,0.6c0.5,0.8,0.8,1.7,1.3,2.5c1.1,2.1,2.9,3.8,5.1,4.6
		c3.9,1.3,7.4,1.4,11,4c0.4,0.3,0.7,0.5,0.9,0.9c0.2,0.4,0.1,0.9,0.1,1.4C201.4,434.3,201,437.2,199,439z"/>
	
		<linearGradient id="SVGID_00000147185597980069936500000009284041097302362795_" gradientUnits="userSpaceOnUse" x1="9020.2158" y1="502.6075" x2="9011.2715" y2="421.1698" gradientTransform="matrix(1 0 0 1 -8891.6982 0)">
		<stop  offset="0" style="stop-color:#FFCEB0"/>
		<stop  offset="1" style="stop-color:#ED7E5F"/>
	</linearGradient>
	<path style="fill:url(#SVGID_00000147185597980069936500000009284041097302362795_);" d="M152.7,475.9c-7.5,4.7-15.1,9.2-23.8,10.5
		c-11.4,1.6-23.4-3-30.7-11.9c1.8-11.1,9.4-20.9,16.8-29.4c3.3-3.7,6.7-7.6,10.9-10.2c3.6-2.3,7.7-3.6,11.9-4.2
		c0.3,1.2,0.1,2.4-0.8,3c-11.7,7.6-20.3,20.6-20.4,34.5c0,2.3,0.2,4.7,1.3,6.7c2.5,4.7,8.7,6.1,14.1,5.9
		C139.2,480.6,146.2,478.7,152.7,475.9z"/>
	
		<linearGradient id="SVGID_00000155858511650532852260000015072263637581976504_" gradientUnits="userSpaceOnUse" x1="9053.333" y1="441.7249" x2="9082.7539" y2="421.2478" gradientTransform="matrix(1 0 0 1 -8891.6982 0)">
		<stop  offset="0" style="stop-color:#FFCEB0"/>
		<stop  offset="1" style="stop-color:#ED7E5F"/>
	</linearGradient>
	<path style="fill:url(#SVGID_00000155858511650532852260000015072263637581976504_);" d="M177.7,423.5c-0.6,2.7-0.9,5.5-0.8,8.3
		c0.1,2.8,0.5,5.7,0.1,8.5c-0.3,2.1-1.7,4.6-3.8,4.4c-0.9-0.1-1.7-0.6-2.5-1.2c-4.4-3.3-8.6-7-12.3-11.1c1.7,0.4,3.4,0.9,5,1.4
		c2,0.6,4.2,1.8,6.2,0.9c1.9-0.9,3.9-3.7,4.8-5.5c1.3-2.3,2.1-4.9,3.4-7.2C177.9,422.4,177.8,423,177.7,423.5z"/>
	
		<linearGradient id="SVGID_00000024713240344149192050000014072378361043045310_" gradientUnits="userSpaceOnUse" x1="9170.708" y1="401.7537" x2="9197.3047" y2="410.6977" gradientTransform="matrix(1 0 0 1 -8891.6982 0)">
		<stop  offset="0" style="stop-color:#FFCEB0"/>
		<stop  offset="1" style="stop-color:#ED7E5F"/>
	</linearGradient>
	<path style="fill:url(#SVGID_00000024713240344149192050000014072378361043045310_);" d="M287,401.7c0.3-0.3,0.6-0.6,1-0.8
		c0.4-0.2,0.9-0.1,1.3-0.1c1.9,0.1,3.8,0.3,5.5,1c1.5,0.6,3,1.7,4.6,1.4c0.7-0.1,1.4-0.5,2.1-0.8c0.7-0.2,1.6-0.2,2.1,0.4
		c0.3,0.4,0.4,0.9,0.4,1.4c0.2,1.8,0.3,4-1.1,5.3c-1,1-2.5,1.2-3.9,1.3c-1.4,0.1-2.9,0.3-4.3,0.3c-3.2-0.1-6.4-1-9.6-1
		c-0.8,0-1.6,0.1-2.4,0.2c-0.6,0.1-1.2,0-1-0.7c0.3-1.4,1.2-2.8,2-4C284.8,404.2,285.8,402.9,287,401.7z"/>
	
		<linearGradient id="SVGID_00000014602810579489155870000002379297585792995263_" gradientUnits="userSpaceOnUse" x1="9191.2324" y1="391.5681" x2="9187.3096" y2="442.5649" gradientTransform="matrix(1 0 0 1 -8891.6982 0)">
		<stop  offset="0" style="stop-color:#FFCEB0"/>
		<stop  offset="1" style="stop-color:#ED7E5F"/>
	</linearGradient>
	<path style="fill:url(#SVGID_00000014602810579489155870000002379297585792995263_);" d="M317.9,429.7c-1.6,3.9-3.3,6.9-3.2,11.2
		c0,0.8,0.1,1.7-0.3,2.5c-0.5,1-1.5,1.5-2.5,1.7c-0.5,0.1-1.1,0-1.5-0.1c-2.2-0.2-4.6-0.2-6.6,0.9c-1,0.6-1.8,1.4-2.9,1.8
		c-3.5,1.6-7.7-1.1-11.4-0.1c-1.3,0.4-2.5,1.2-3.8,1.6c-0.6,0.2-1.3,0.4-1.9,0.2c-2.1-0.8-3.8-2.2-5.5-3.6c-2-1.6-4.8-4.1-4.3-7.1
		c0.2-0.8,1-1.5,1.4-2.2c0.1-0.3,0.2-0.5,0.2-0.8c0.1-2,0-3.9-0.1-5.9c0-1.5,0-3.1,0.4-4.6c0.1-0.2,0.1-0.4,0.2-0.6
		c0.6-1.6,2.1-3.1,3.9-3.2c0.3,0,0.6,0,0.8,0.1c0.6,0.3,0.9,1,1.2,1.6c0.8,1.9,2.1,3.6,3.8,4.9c-0.1-2.4,0.1-4.8,0.6-7.2
		c0.2-1.3,0.6-2.6,1.4-3.7c0.5-0.7,1.1-1.2,1.9-1.5c0.9-0.3,1.8-0.4,2.7-0.6c0.4-0.1,0.7,0.1,1,0.4c0.4,0.4,0.5,0.8,0.6,1.3
		c0.1,0.5,0.3,1,0.7,1.3c-0.1-1.3,0-2.7,1-3.4c0.4-0.3,1-0.4,1.5-0.6c0.7-0.1,1.5-0.3,2.2,0.1c0.4,0.3,0.7,0.7,0.9,1.1
		c2.2,3.8,4.9,7.9,8.5,10.4c-2.1-2.4-3.5-5.4-4.1-8.5c-0.2-1-0.2-2.1,0.5-2.7c1.2-1,1.9-2,3.5-1.9c2.6,0.1,3.6,3.5,5.5,5.3
		c1,1,2.4,1.5,3.3,2.5c1.2,1.3,1.7,2.9,1.6,4.7C318.9,426.6,318.5,428.3,317.9,429.7z"/>
	
		<linearGradient id="SVGID_00000181080155634902417800000007659673052772634036_" gradientUnits="userSpaceOnUse" x1="9188.3574" y1="392.8703" x2="9189.9258" y2="457.6755" gradientTransform="matrix(1 0 0 1 -8891.6982 0)">
		<stop  offset="0" style="stop-color:#FFCEB0"/>
		<stop  offset="1" style="stop-color:#ED7E5F"/>
	</linearGradient>
	<path style="fill:url(#SVGID_00000181080155634902417800000007659673052772634036_);" d="M318.9,425.1c-0.6,0.6-1.4,1-2.2,1.3
		c-1.3,0.5-3.7,1.9-5.1,1.6c-0.6-0.1-1.1-0.6-1.6-0.9c-0.2,0.8-0.4,1.7-1.3,2.1c-0.4,0.1-0.8,0.2-1.1,0.3c-1.6,0.4-3.2,0.9-4.9,1.1
		c-0.5,0.1-1,0.1-1.5-0.1c-0.7-0.4-1-1.2-1.2-2c-0.1-0.2-0.5-0.1-0.7,0.1c-0.1,0.2-0.1,0.5-0.1,0.8c0,0.7-0.3,1.3-0.7,1.9
		c-0.1,0.2-0.3,0.5-0.5,0.6c-0.1,0.1-0.3,0.1-0.4,0.1c-0.6,0.1-1.3,0.4-1.9,0.6c-1.1,0.4-2.1,1-3.2,1.3c-0.9,0.3-2,0.4-2.9-0.1
		c-0.3-0.1-0.4-0.3-0.6-0.6c-0.5-0.6-1.1-1-1.7-1.6c-0.5,0.7,0.1,1.8-0.4,2.5c-0.2,0.3-0.5,0.5-0.8,0.6c-1.1,0.5-2.1,1-3.2,1.5
		c-1.2,0.6-2.4,1.2-3.7,1c-0.8-0.1-1.6-0.6-2-1.3c-0.2-0.4-0.3-0.7-0.3-1.1c0-0.5-0.4-0.9-0.6-1.4c-0.4-1-0.5-2-0.1-3
		c0.6-1.8,0.1-3.6-0.4-5.4c0.1-0.2,0.1-0.4,0.2-0.6c0.6-1.6,2.1-3.1,3.9-3.2c0.3,0,0.6,0,0.8,0.1c0.6,0.3,0.9,1,1.2,1.6
		c0.8,1.9,2.1,3.6,3.8,4.9c-0.1-2.4,0.1-4.8,0.6-7.2c0.2-1.3,0.6-2.6,1.4-3.7c0.5-0.7,1.1-1.2,1.9-1.5c0.9-0.3,1.8-0.4,2.7-0.6
		c0.4-0.1,0.7,0.1,1,0.4c0.4,0.4,0.5,0.8,0.6,1.3c0.1,0.5,0.3,1,0.7,1.3c-0.1-1.3,0-2.7,1-3.4c0.4-0.3,1-0.4,1.5-0.6
		c0.7-0.1,1.5-0.3,2.2,0.1c0.4,0.3,0.7,0.7,0.9,1.1c2.2,3.8,4.9,7.9,8.5,10.4c-2.1-2.4-3.5-5.4-4.1-8.5c-0.2-1-0.2-2.1,0.5-2.7
		c1.2-1,1.9-2,3.5-1.9c2.6,0.1,3.6,3.5,5.5,5.3c1,1,2.4,1.5,3.3,2.5C318.6,421.6,319,423.3,318.9,425.1z"/>
	
		<linearGradient id="SVGID_00000113343570793978165000000006301686727608574139_" gradientUnits="userSpaceOnUse" x1="9182.75" y1="355.3701" x2="9189.3857" y2="418.2677" gradientTransform="matrix(1 0 0 1 -8891.6982 0)">
		<stop  offset="0" style="stop-color:#FFCEB0"/>
		<stop  offset="1" style="stop-color:#ED7E5F"/>
	</linearGradient>
	<path style="fill:url(#SVGID_00000113343570793978165000000006301686727608574139_);" d="M299.2,431.5c-0.1-0.4-0.2-0.7-0.4-1
		c-0.2-0.5-0.4-0.9-0.6-1.4c-0.6-1.5-1.2-2.9-1.7-4.4c-0.2-0.7-0.4-1.4-0.6-2.1c-0.2-0.6-0.2-1.2-0.5-1.8c0.7,1.8,1.8,3.5,2.8,5.1
		c0.2,0.4,0.5,0.8,0.8,1.1c0.2,0.2,0.4,0.4,0.6,0.6c0.6,0.8,1.1,1.7,1.6,2.5c0.2,0.3,0.3,0.5,0.4,0.8c0,0.2,0,0.4,0,0.6
		c-0.4,3.1-0.8,6.2-1.8,9.1c-0.1-0.4-0.2-0.8-0.2-1.2c-0.3-2.4,0.1-4.7-0.1-7.1C299.3,432,299.2,431.7,299.2,431.5z"/>
	
		<linearGradient id="SVGID_00000127727800076456552810000016465205453708725914_" gradientUnits="userSpaceOnUse" x1="9175.4805" y1="395.3461" x2="9177.835" y2="421.2368" gradientTransform="matrix(1 0 0 1 -8891.6982 0)">
		<stop  offset="0" style="stop-color:#FFCEB0"/>
		<stop  offset="1" style="stop-color:#ED7E5F"/>
	</linearGradient>
	<path style="fill:url(#SVGID_00000127727800076456552810000016465205453708725914_);" d="M288.4,432.8c0.3,0.7,0.6,1.4,0.7,2.1
		c0.1,0.6,0,1.1-0.1,1.7c-0.2,1.1-0.4,2.2-0.6,3.3c-0.1-2.4-0.2-4.9-1.3-7.1c-0.7-1.4-1.8-2.6-2-4.1c-0.1-0.8,0.1-1.7,0.2-2.5
		c0.2-1.1,0.5-2.3,0.7-3.4c0.1-0.6,0.2-1.1,0.4-1.7c0.1-0.4,0.1-1.1,0.3-1.4c0.4,0.4,0.1,1.4,0,1.9c-0.1,0.9-0.1,1.8-0.1,2.8
		c0,1.8,0.3,3.7,0.8,5.5C287.7,430.9,288,431.8,288.4,432.8z"/>
	
		<linearGradient id="SVGID_00000080895562486378090090000011955688227971442050_" gradientUnits="userSpaceOnUse" x1="9200.7588" y1="393.4657" x2="9200.2881" y2="416.689" gradientTransform="matrix(1 0 0 1 -8891.6982 0)">
		<stop  offset="0" style="stop-color:#FFCEB0"/>
		<stop  offset="1" style="stop-color:#ED7E5F"/>
	</linearGradient>
	<path style="fill:url(#SVGID_00000080895562486378090090000011955688227971442050_);" d="M307.9,422.8c1.8,1.9,3.8,3.9,4,6.5
		c0.2,1.6-0.4,3.1-0.9,4.6c-0.8,2.3-1.6,4.7-2.4,7c0.7-3.3,1.2-6.6,1.5-9.9c0.1-1.4,0.1-2.9-0.6-4.1c-0.5-0.9-1.4-1.5-2-2.2
		c-0.9-0.9-1.5-2.1-1.9-3.3c-0.2-0.6-0.4-1.3-0.5-1.9c-0.1-0.3-0.2-0.8-0.2-1.1c0.4,0.7,0.7,1.5,1.2,2.2
		C306.7,421.4,307.3,422.1,307.9,422.8z"/>
	
		<linearGradient id="SVGID_00000082362688051540572560000007854810427919834521_" gradientUnits="userSpaceOnUse" x1="9051.1953" y1="388.4415" x2="8902.4434" y2="400.3666" gradientTransform="matrix(1 0 0 1 -8891.6982 0)">
		<stop  offset="5.586590e-03" style="stop-color:#F24A20"/>
		<stop  offset="0.9944" style="stop-color:#8A0B2B"/>
	</linearGradient>
	<path style="fill:url(#SVGID_00000082362688051540572560000007854810427919834521_);" d="M133.3,369.2c0.1,4.5,0,9.1-0.4,13.7
		c-0.2,4.2-0.6,8.4-1.1,12.6c-0.5,4.1-1,8.1-1.6,12c-0.1,0.7-0.2,1.5-0.4,2.2c-0.2,0.9-0.4,1.8-0.6,2.8c-2,8.5-5.7,16.8-10.7,23.9
		c-5.8,8.4-13.2,15.8-21.6,21.5c-2.7,1.8-5.7,3.6-8.9,3.4c-0.8,0-1.6-0.2-2.4-0.4c-3.5-1.1-6.4-4.1-8.7-7.7
		c-2.7-4.2-4.6-9.2-5.8-12.7c-0.3-0.9-0.6-1.9-0.8-2.8c-1.4-5-2.3-10.1-2.9-15.3c-0.3-2.7-0.5-5.3-0.6-8c-0.3-7.3,0.4-14.7,2-22.1
		c1.7-7.8,4.5-15.6,8-22.9c5.5-11.4,12.8-21.8,21.3-30.5c1.3-1.4,2.7-2.7,4.1-4c4.9-4.5,11-7.8,17.1-10.6c2.4,0.7,3.9,3.1,5.1,5.4
		c3.1,6.1,5.2,12.6,6.6,19.3c1,4.9,1.6,9.9,2,15C133.2,365.7,133.2,367.5,133.3,369.2z"/>
	
		<linearGradient id="SVGID_00000155122147240347051830000018283155951744967087_" gradientUnits="userSpaceOnUse" x1="9055.459" y1="441.5754" x2="8906.707" y2="453.5006" gradientTransform="matrix(1 0 0 1 -8891.6982 0)">
		<stop  offset="5.586590e-03" style="stop-color:#F24A20"/>
		<stop  offset="0.9944" style="stop-color:#8A0B2B"/>
	</linearGradient>
	<path style="fill:url(#SVGID_00000155122147240347051830000018283155951744967087_);" d="M141.6,425.3c0,1.9-0.2,3.7-0.4,5.6
		c-0.6,0.4-1.2,0.8-1.8,1.1c-8.2,5.4-17.1,12.8-23.4,20c-6.8,7.7-12.6,16.4-14.9,26.4c-1.6,0.6-2.5,0.6-4.1,0
		c-7.4-2.8-14-8-18.3-14.7c-1.5-2.3-1.2-3.9-2.4-6.3c-0.7-1.3-0.1-2.9,0.6-4.3c0-0.1,0.1-0.1,0.1-0.2c2-3.9,4.6-7.5,7.6-10.8h0
		c1.8-2,3.8-3.9,5.8-5.7c3.1-2.7,6.3-5.1,9.7-7.4c6.1-4.1,12.6-7.5,18.9-11.1c3.3-1.9,6.6-3.8,9.8-5.8c0.1,0.1,0.2,0.2,0.3,0.3
		c2,2.2,4.5,4,7.3,5.1c1.1,0.4,2.2,0.7,3.1,1.5C141.4,420.5,141.7,423,141.6,425.3z"/>
	
		<linearGradient id="SVGID_00000019678173777712569170000015282877793738690957_" gradientUnits="userSpaceOnUse" x1="8899.8887" y1="498.1445" x2="8942.2549" y2="456.7196" gradientTransform="matrix(1 0 0 1 -8891.6982 0)">
		<stop  offset="5.586590e-03" style="stop-color:#F24A20"/>
		<stop  offset="0.9944" style="stop-color:#8A0B2B"/>
	</linearGradient>
	<path style="fill:url(#SVGID_00000019678173777712569170000015282877793738690957_);" d="M139.4,432c-8.2,5.4-17.1,12.8-23.4,20
		c-6.8,7.7-12.6,16.4-14.9,26.4c-1.6,0.6-2.5,0.6-4.1,0c-7.4-2.8-14-8-18.3-14.7c-1.5-2.3-1.2-3.9-2.4-6.3c-0.7-1.3-0.1-2.9,0.6-4.3
		c-2.7-4.2-4.6-9.2-5.8-12.7c-2.7-8.4-4-17.4-4.4-26.1c-1.2-27.2,12.2-56,31.4-75.5c-16.3,31.9-23.7,69-15.3,103.6
		c0.6,0,1.2-0.1,1.8-0.4h0c2.4-0.9,4.8-3.5,5.8-5.7c0-0.1,0.1-0.2,0.1-0.2c1.3-2.8,1.5-6,1.8-9.1c0.7-7.1,2-14.2,4-21
		c-1.1,6-1.3,12.2-0.6,18.3c0.2,1.8,0.8,3.9,2.5,4.2c6.7-4.6,14-8.4,21.6-11.3c-0.3,0.2-0.5,0.4-0.8,0.6
		c-8.5,6.7-16.9,13.4-25.4,20.1c-4.7,3.7-9.8,8.1-10.5,14.1c-0.4,3.2,0.6,6.2,2.3,8.8c2.9,4.3,7.9,7.7,12.6,10
		c6.9-10.5,15.9-20,24.8-28.7C127.7,437.7,133.2,433.1,139.4,432z"/>
	<path class="st34" d="M133.1,364c-22.8,4.6-44.1,16.2-64.2,28.4c1.7-7.8,4.5-15.6,8-22.9c12.3-7.2,25.4-13.1,39-17.2
		c5-1.5,10.1-2.9,15.3-3.2C132.1,354,132.8,359,133.1,364z"/>
	<path class="st34" d="M132.9,382.9c-0.2,4.2-0.6,8.4-1.1,12.6c-22.2,11.4-42.9,25.6-61.5,42.2c-1.4-5-2.3-10.1-2.9-15.3
		C84.9,403.4,108,389.6,132.9,382.9z"/>
	<path class="st34" d="M111.8,324.8c5.4,18.3,4.9,37.7,4.4,56.8c-0.3,12.9-0.7,25.7-1,38.6c-2.7,1.1-4.2,3.6-6.5,5.5
		c-4.2-27.9-7.5-55.9-9.8-84c-0.1-1.6-0.3-3.3,0.2-4.9c0.5-1.6,1.5-2.9,2.6-4.1C104.6,329.3,108.2,327.5,111.8,324.8z"/>
	<path class="st34" d="M87,350.8c-2.9,27.8,1.3,56.4,12.1,82.2c-3.2,1.8-5.9,3.8-8.6,6.3c-5.3-16.4-10.2-32.4-11-49.6
		C78.8,376.6,82.4,363.1,87,350.8z"/>
	<path class="st27" d="M231.6,677.7c-3.5-1.9-7.7-2.7-11.6-2.2c-4,0.5-7.8,2.3-10.7,5.1c5.7-1,11.6-1.7,17.3-2.7
		c1.6-0.3,3.2-0.6,4.8-0.5C231.7,677.5,231.6,677.4,231.6,677.7z"/>
	<path class="st27" d="M236.7,681.2c-1.9-0.8-4.2-0.6-6.2-0.3c-4.7,0.7-9.2,2.1-13.5,4.1c-1.8,0.9-3.6,1.9-4.8,3.5
		C220,685.3,228.3,682.1,236.7,681.2z"/>
</g>
<g>
	<path class="st73" d="M594.3,695.7c3.6,2.1,7.4,4.1,11.3,5.8c5.4,2.5,11,4.5,16.6,5.8c19.4-26.9,31-56.7,42.5-87.5
		c17.8-47.8,33.4-96.2,45-145.9c0.1-0.4,0.2-0.7,0.3-1.1c3.2,2.7,4.6,2.5,7.2,5.7c3.6,4.4,7.1,9,10.3,13.7
		c19.2,27.6,32.6,59.3,38.9,92.4c3.4,17.6,4.7,36,7.3,53.9l4.3,29.2c0.4,3.1,3.4,39.2,5.4,39.9c10.8,3.7,22.9,1.6,31.6-5.7
		c0,0,0,0,0,0c0.3-0.1,0.5-0.4,0.7-0.6c4.8-26,4.8-64.8,4.5-91.3c-0.8-75.8-13.2-152.7-31.3-226.1c-1.3-5.3-2.4-10.2-3.8-15.1
		c-1.7-6.1-3.8-12-7.1-18c-47.9,6.9-95.9,13.9-143.9,20.9c-0.5,1.1-1,1.8-1.1,2.9c-2,30.8-4,61.6-6,92.3
		c-2.5,38.5-3.2,77.4-9.7,115.4c-3.3,19.1-6.9,38.3-10.8,57.3C605.4,645,592.2,694.5,594.3,695.7z"/>
	<path class="st74" d="M647.3,411.9c37,19.1,79.2,27.9,120.6,25.2c28.8,83.9,42.9,173.6,39.7,262.2c2.1,1.7,4.6,2.5,7.3,2.6
		c0,0,0,0,0,0c0.3-0.1,0.5-0.4,0.7-0.6c4.8-26,4.8-64.8,4.5-91.3c-0.8-75.8-13.2-152.7-31.3-226.1c-1.3-5.3-2.4-10.2-3.8-15.1
		c-8.2-2.9-17.6-3.1-26.4-2.7c-27.6,1.2-55,5.9-82.3,10.6c-9.4,1.6-19.4,3.5-26.7,9.8C642.5,392.8,638.8,407.5,647.3,411.9z"/>
	<path class="st74" d="M605.6,701.5c5.4,2.5,11,4.5,16.6,5.8c19.4-26.9,31-56.7,42.5-87.5c17.8-47.8,33.4-96.2,45-145.9
		c-6.4-6.9-13.5-16-21.2-17.5C676.8,539,646.9,628.4,605.6,701.5z"/>
	<path class="st0" d="M824.7,746.9c0.4-8.8-2-19.6-4.5-28c-1.4-4.6-3.3-9.4-4.3-14.1c-0.8-4,0.5-8,0.3-12.2
		c-4.4-4.2-10.6-4.6-16.7-4.8c-6.2-0.2-12,1-17.9,2.8c-1.7,0.5-3.5,1.1-4.7,2.4c-1.9,2.1-1.9,5.4-0.7,8c1.2,2.5,2.5,3.3,2.5,6.3
		c0,2.9-1.1,5.9-2.4,8.4c-1.9,3.7-4.4,7-6.4,10.6c-3.7,6.7-5.4,14.5-5,22.1c0,0.7,10.1,3.7,11,3.9
		C791.7,756.6,810.7,754.3,824.7,746.9z"/>
	<path class="st0" d="M539.4,741.9c-1.4-3.9,0.6-8.3,3.7-11.1c3.1-2.7,7.1-4.2,11-5.6c12.3-4.5,24.1-10.1,32.3-20.3
		c-2.5-3.2-5.6-6.4-5.9-10.4c-0.1-1.9-0.2-4.5,1.4-5.7c7.7,0.4,15.2,3.3,21.1,8.2c3.7,3,4.5,2.6,9.2,2.7c1.6,0,11,0.2,11.7,1.7
		c5.5,12.5,6.7,26.8,3.5,40C600.4,751.1,566.9,749.8,539.4,741.9z"/>
	<path class="st75" d="M621.9,209c-0.5,8.5,19.7,4.5,22.3,12.5c4.2,12.6,14.3,22.2,24.8,30.3c31.7,24.5,74.5,44.1,115,46.1
		c3.4,0.2,6.9,0.2,10.3,0.1c9.9-0.3,21-6.3,26.1-14.8c-0.5-40.7-14.8-81.2-39.8-113.3c-2.2-2.8-4.4-5.5-6.7-8.1
		c-41-11.7-84.3-5-126.2,2.4C631.9,174.3,622.6,195.9,621.9,209z"/>
	<path class="st76" d="M721.2,189.6c15.4,31.4,30.8,62.9,50.1,92.1c3.8,5.7,7.9,11.5,12.7,16.3c3.4,0.2,6.9,0.2,10.3,0.1
		c9.9-0.3,21-6.3,26.1-14.8c-0.5-40.7-14.8-81.2-39.8-113.3c-0.3-0.2-0.7-0.3-1-0.5c-9.8-4.3-21.3-1.2-30.7,3.8
		C739.4,178.5,731,185.4,721.2,189.6z"/>
	<path class="st77" d="M578.5,314.8c0.2,8.5,1,17.5,5.9,24.3c8.6,11.8,26.6,15.2,37,4.5c5-5.1,7.9-12.1,9.9-19.1
		c7.4-25.5,4-53.1-2.1-79c-4-17.1-9.3-36-20-49.9c-0.5-0.6-1-1.2-1.7-1.4c-0.9-0.2-1.8,0.4-2.3,1.2c-4.7,7.8-8.1,18-11.3,26.6
		c-3.7,9.8-6.7,19.9-9.1,30.1C580.2,272.6,578,293.7,578.5,314.8z"/>
	<path class="st77" d="M602.1,227.9c2.4,18.2,6.3,36.1,11.6,53.7c5.1,16.7,12,32.5,14.4,49.9c1.9,13.6,2.2,27.3,1.3,41
		c-0.3,4.9-0.7,9.9,0.3,14.7c2.6,11.9,15.4,21.2,25.7,26.1c22.2,10.5,47.7,13.7,71.9,9.2c0.8-0.1,1.6-0.3,2.4-0.5
		c19-4,35.6-12.9,49.8-25.5c0.8-9.7,1.2-19.4,0.8-29.4c2.8,7.3,5,14.8,6.5,22.5c1.7-1.8,3.4-3.7,5.1-5.6
		c-0.7-18.1-2.6-36.6-5.7-55.1c-7.8-48.3-23.3-96.6-45.8-138.5c-0.2-0.1-0.3-0.2-0.5-0.3c-7.9-4.1-16.3-6.6-24.9-9
		c-14.4-4-29.5-5.6-44.5-5.2c-6.8,0.1-13.5,0.7-20.1,1.6c-10.8,1.5-21.4,4-31.7,7.3c-5.5,1.8-10.1,4-13.1,9.3
		C599.7,204.5,600.6,216.7,602.1,227.9z"/>
	<path class="st77" d="M730,202c1.5,22.2,8.2,44.1,19.4,63.6c2.7,4.7,6.7,9.1,9.1,13.9c2.1,4.1,1.8,9,2.9,13.5
		c2.4,10.1,7.5,19.7,14.6,27.4c3,3.2,6.4,6.2,10.2,8.5c2.5,1.5,5.1,2.7,7.9,3.5c7.1,2,15.3,1.1,21-3.5c9.7-7.8,6.3-24.8,4.2-35.3
		c-3.1-14.8-8.7-29.2-16.6-42.2c-11.4-18.7-23.7-37-41.6-50.6c-5-3.8-14.1-9.6-21.2-10.7C733.9,189.3,729.3,191.8,730,202z"/>
	<path class="st78" d="M667.6,192.8c3.2,6.2,12.8,8.3,18.5,11.3c7.5,3.9,14.5,9,19.1,16.2c4.9,7.7,6.6,16.9,8.2,25.9
		c6.3,35.8,12.6,71.6,18.9,107.4c2.3,12.9,4.6,25.9,3.9,38.9c-0.6,10.5-3.2,21.2-8.8,30.1c0.8-0.1,1.6-0.3,2.4-0.5
		c19-4,35.6-12.9,49.8-25.5c0.8-9.7,1.2-19.4,0.8-29.4c2.8,7.3,5,14.8,6.5,22.5c1.7-1.8,3.4-3.7,5.1-5.6
		c-0.7-18.1-2.6-36.6-5.7-55.1c2.5,1.5,5.1,2.7,7.9,3.5c7.1,2,15.3,1.1,21-3.5c9.7-7.8,6.3-24.8,4.2-35.3
		c-3.1-14.8-8.7-29.2-16.6-42.2c-11.4-18.7-23.7-37-41.6-50.6c-5-3.8-14.1-9.6-21.2-10.7c-7.9-4.1-16.3-6.6-24.9-9
		c-14.4-4-29.5-5.6-44.5-5.2C666.6,181.3,664.7,187.1,667.6,192.8z M733.4,214.5c0.8-4.2,5.8-5.3,9.2-3.8c2.1,0.9,3.8,2.5,5.4,4.1
		c16.2,16.5,25.9,38,35.3,59.1c0.7,1.8,1.5,3.9,0.4,5.4c-1.2,1.8-3.9,1.5-6,1.1c-7.5-1.6-15.3-3.4-20.9-8.6
		c-4.6-4.3-6.9-10.5-9-16.4c-3.7-10-7.4-20.1-11-30.1C735.8,222.4,732.8,217.7,733.4,214.5z"/>
	<path class="st79" d="M582,328.1c0.4,5.9,0.8,9.2,4.6,14.6c3.7,5.3,10,10.8,16.4,12.8c12.7,4,17.1-14.9,17.7-23.8
		c0.6-7.8-2.7-16.9-5-24.3c-2.5-7.8-5.6-15.4-9.3-22.7c-2.5-4.9-5-12.1-10.9-13.9c-5.3-1.6-7.3,3.7-8,8.1
		c-1.8,10.6-3.2,22.9-3.8,33.7C583.3,317.4,581.7,323.5,582,328.1z"/>
	<path class="st75" d="M713.4,177.9c0.3,19.7-2.6,39.7-2.3,59.4c0.2,18.7-0.1,36.9,3.5,55.2c3.6,18.3,14.4,36.8,26.8,50.7
		c12.4,13.9,31.1,23.6,49.7,22.6c0-3.4-1.2-6.1-1.2-9.5c-10-3.5-19.9-7.2-28.9-12.6c-9.1-5.4-17.3-12.5-22.7-21.5
		c-6.2-10.3-8.5-22.4-10.2-34.3c-4.9-34.9-5.2-70.4-0.9-105.4C722.4,180.6,718.1,179.7,713.4,177.9z"/>
	<path class="st79" d="M715.2,310.9c-4.2-3.2-9.4-6.8-8.3-12c0.8-3.7-1.8-16-1.8-16s-3.5-1.5-4.6-3.2c-1.5-2.4-1.6-5.3-1.6-8
		c0-0.7,0-1.5,0.5-2.1c0.5-0.5,1.9-1.5,2.5-1.8c6.9-2.3,11.4-2.5,17.9-1.3c7.4,1.3,14.6,3.6,21.4,6.7c6.3,2.8,12.5,4.5,19.1,6.5
		c13.8,4.1,27.5,9.2,39.8,17c6.1,3.9,12,8.6,15.5,15c5.8,10.6,1.9,23.1-5.2,32c-4,5.1-10.2,8.8-16.6,8.2c-6.6-0.7-10.7-5.4-15.4-9.6
		c-4.4-4-9.3-7.5-13.6-11.8c-9.2-9.2-17.3-19.6-24.1-30.7C735.2,304.7,722.5,310,715.2,310.9z"/>
	<path class="st75" d="M629.5,363.4c0.2-4.7,1.5-10.1,0-14.5c-10-28.7-20.1-58-20.2-88.4c0-28.3,14.7-56.1,23.9-82.9
		c-4.7,2.1-12,4.1-16.7,6.2C586.4,242.5,594.2,311.1,629.5,363.4z"/>
	<path class="st80" d="M643.9,193.2c-6.1-19.4-2.3-46.8,14.7-59.5c3.9-3,9.3-5.2,13.7-3.1c5.3,2.5,6.3,9.5,6.6,15.4
		c0.9,19.4,8.4,44.8-12,56.2c-3.4,1.9-7.3,3.2-11.2,2.6C649.9,203.9,645.6,198.7,643.9,193.2z"/>
	<path class="st77" d="M735.9,312.3c0.4,2.5,1.2,4.7,2.4,6.6c2,3.2,5.1,5.6,8.1,7.9c17.6,13.6,61.4,43.9,72.6,5.9
		c5.2-17.7-10.4-35.2-24-44.3c-10.2-6.8-22.9-14.7-35.4-15.5C743.9,271.8,733.2,296.8,735.9,312.3z"/>
	<path class="st77" d="M616.3,333.7c1.6,4.4,2.5,9,2.3,14c-0.3,7.9-4.6,16.3-12.1,18.8c-6.8,2.3-14.5-0.8-19.4-6.1
		c-4.8-5.3-7.2-12.3-8.7-19.3c-3-14.5-6.2-38.9,4.8-50.9c-1.3,1.4,18,18,19.7,20.6C608.1,318.1,613.4,325.5,616.3,333.7z"/>
	<g>
		<path class="st79" d="M619.5,180.2c-7.7-4.9-12.3-13.9-15.5-21.9c-3.4-8.3-3.4-17.6-2.3-26.4c0.9-7.1,2.7-14,3.9-21
			c1.1-6.2,1.2-12.5,1.2-18.9c0-8.4,5.4-17.2,10.8-23.3c5.2-5.9,13.3-9.5,21-10.5c11.5-1.5,23.6,2,32.7,8.7
			c11.8,8.7,19.1,22.3,21.2,36.4c1.8,12.3-0.2,24.6-4.4,36.2c-1.7,4.7-2.1,9.4-4.2,14c-2.4,5.2-5.3,10.2-9.2,14.5
			c-6.2,6.8-17.1,12.2-26.1,14.9C639,185.9,627.9,185.6,619.5,180.2z"/>
		<path class="st81" d="M613.1,75.2c-1.6-0.3-2.9-1.3-3.7-2.7c-0.7-1.4-0.6-3.6,0-5c-3.7-4.3-4.1-11.1-1-15.8
			c3.1-4.8,8.9-8.3,14.3-6.7c-0.8-2.6,0.8-5.5,3.2-6.7c2.4-1.3,5.3-1.2,7.9-0.7c6.5,1.3,12.7,4.5,17.5,9.1c1.3-1.9,3.7-2.7,6-2.6
			c2.3,0.1,4.4,1,6.4,2.1c6.6,3.6,12.3,9.1,15.6,15.9c11,6.8,20.6,18.9,18.7,31.6c-1.3,9.1-2.7,18.1-4,27.2c-2.2-0.1-5.1,0.2-7.3,0
			c-3.2-0.2-4.6,3-6.5,5.6c-4.3-15.4-6.4-31.9-5.1-47.8C655.6,69.1,633.6,68.5,613.1,75.2z"/>
		<path class="st79" d="M681.6,135.8c6.1-0.2,11.1-4.8,15.3-9.3c1.6-1.7,3.1-3.5,4.2-5.6c1-2.1,1.5-4.5,0.9-6.8
			c-1.1-3.6-5-5.8-8.7-5.5c-3.7,0.3-7,2.6-9.2,5.7C680,120,679.1,129.2,681.6,135.8z"/>
		<path class="st82" d="M620,90.7c1.5,5.8,1.5,12.3-1.6,17.4c-1.7,2.7-4.1,4.9-6,7.5c-1.8,2.6-3,6.1-1.8,9c0.9,2.1,3,3.5,5.2,4.1
			c2.2,0.6,4.5,0.5,6.8,0.2c2.1-0.3,4.3-0.7,6.1-2c1.8-1.2,3-3.4,2.5-5.5c-3.7,3.4-9.4,5-14.4,4.4c-1.2-0.1-2.5-0.4-3.3-1.4
			c-0.9-1.1-0.8-2.7-0.3-4.1c1.3-3.6,4.7-5.9,6.8-9.1c1.9-3,2.4-6.7,2.2-10.2C622.1,97.5,621,94.1,620,90.7z"/>
		<path class="st83" d="M610.7,139.9c0.4,5.5,4.1,10.6,9.2,12.7c5.8,2.3,12.4,0.7,17.8-2.3c5.4-3,10-7.3,15.1-10.9
			C638.8,139.2,624.6,138.8,610.7,139.9z"/>
		<path class="st84" d="M612.5,141.7c-0.3-0.5-0.5-1-0.4-1.5c0.2-1,1.5-1.2,2.5-1.2c9.7-0.1,19.4-0.4,29.1-0.4c1,0,3.7-0.4,2.8,1
			c-0.6,0.9-2.8,1.7-3.7,2.1c-4.6,2.1-9.4,3.8-14.5,4.3C619.7,146.9,615.7,146.9,612.5,141.7z"/>
		<path class="st85" d="M615.6,140.6c0.2,2.2,0.6,3.4,1.4,5.1c7.2,0.7,15.7-0.1,22.5-2.7c-0.2-1.2-0.5-2.4-0.7-3.6
			C631.3,139.4,623.1,139.8,615.6,140.6z"/>
		<path class="st82" d="M609.5,140.3c3.5-4,9.3-5.5,14.6-5c5.3,0.4,20.6,1.6,25.5,3.6C639.6,141,619.6,141.8,609.5,140.3z"/>
		<path class="st82" d="M648.8,133.2c2.5,1,4.8,2.6,6.6,4.6c1.2,1.3,2.2,3.1,1.6,4.8c0.2-0.7-3.5-2-3.9-2.2c-2.3-1-4.2-1.5-6.8-0.7
			C649.5,138.7,648.2,135.4,648.8,133.2z"/>
		<path class="st81" d="M643.7,87.1c-4.4,1.6-9.5,0.9-13.4-1.7c-0.7-0.5-1.5-1.2-1.3-2.1c0.5-2.7,5-1.6,6.7-1.1
			C638.9,82.9,642.1,84,643.7,87.1z M610,90.4c0.1,0.1,0.2,0.1,0.4,0.2c0.4,0.1,0.7-0.1,1.1-0.2c1.9-0.8,3.6-1.7,5.3-2.8
			c0.5-0.3,1-0.7,1.4-1.2c0.4-0.5,0.5-1.2,0.4-1.7c-0.2-0.7-1-1.2-1.8-1.3c-3-0.3-5.7,2.1-6.8,4.7c-0.2,0.5-0.4,1-0.3,1.5
			C609.6,89.8,609.8,90.2,610,90.4z"/>
		<path class="st81" d="M642.6,106.7c-0.7,0.9-1.8,1.5-3,1.5c-1.8-0.1-3.3-1.8-3.5-3.6c-0.2-1.8,0.4-3.6,1.2-5.3
			c0.5-1,1.2-2.1,2.4-2.2c0.8,0,1.4,0.4,2,1C644.2,100.4,644.9,103.9,642.6,106.7z M615.3,100c-0.3-0.6-0.8-1.1-1.5-1.1
			c-0.9,0-1.3,1-1.5,1.9c-0.3,1.6-0.4,3.3-0.3,5c0.1,0.7,0.2,1.4,0.7,1.9c1.5,1.3,3.3-0.9,3.7-2.2C617,103.7,616.2,101.5,615.3,100z
			"/>
	</g>
	<path class="st79" d="M589.5,272.8c0,0,0.1-21.2,20.6-24.2c0,0,10.4,1.6,8.6,10.4c0,0,5.5,3.8,2.1,8.1c0,0,4.7,4.1,0,7.4
		c0,0-0.4,10.7-5.2,8.3c0,0,4.6,5.7-1.3,11.2c-5.8,5.5-4.2,0-4.2,0l-5.4,16.1L589.5,272.8z"/>
</g>
<path class="st86" d="M561,23.9H201c-14,0-25.4,11.4-25.4,25.4v153.4c0,14,11.4,25.4,25.4,25.4h82.4c0.6,3.8-8.3,23.1-36.6,41
	c0,0,52.8,0,59.4-41H561c14,0,25.4-11.4,25.4-25.4V49.3C586.4,35.2,575,23.9,561,23.9z"/>
<rect x="206.5" y="58.8" class="st87" width="349" height="159.2"/>
<text transform="matrix(1 0 0 1 206.46 79.1948)"><tspan x="0" y="0" class="st88 st89">jum! yo no s en este colegio </tspan><tspan x="0" y="28.3" class="st88 st89">que hacen con la plata, vea </tspan><tspan x="0" y="56.6" class="st88 st89">eso, esa pared est que se </tspan><tspan x="0" y="84.8" class="st88 st89">cae y as lleva un ao y nadie </tspan><tspan x="0" y="113.1" class="st88 st89">dice nada.</tspan></text>
</svg>
