<?xml version="1.0" encoding="utf-8"?>
<!-- Generator: Adobe Illustrator 26.2.1, SVG Export Plug-In . SVG Version: 6.00 Build 0)  -->
<svg version="1.1" id="Capa_1" xmlns="http://www.w3.org/2000/svg" xmlns:xlink="http://www.w3.org/1999/xlink" x="0px" y="0px"
	 viewBox="0 0 1000 1000" style="enable-background:new 0 0 1000 1000;" xml:space="preserve">
<style type="text/css">
	.st0{fill:#E73164;}
	.st1{fill:#FFFFFF;}
	.st2{fill:#0067B9;}
	.st3{fill:#3CB037;}
	.st4{fill:#3CB037;stroke:#23751C;stroke-width:4;stroke-miterlimit:10;}
</style>
<path class="st0" d="M253.3,608.3C192.7,692.7,136.3,780,84.2,870c-9.2,15.9-20.4,33.4-38.4,36.9c-7.5,1.5-17.1,1.3-20.1,8.3
	c-3.1,7.3,4.5,14.4,11.2,18.6c14,8.5,28.5,16,43.6,22.3c6.8,2.9,14.3,5.5,21.5,3.6c11.3-3.1,16.3-15.7,22-25.9
	c10.5-18.8,27.7-32.9,44.2-46.9c53.8-45.6,107.2-99.4,120.6-168.6"/>
<path class="st0" d="M252.4,607.8c-17.2,24-34.2,48.1-50.8,72.6c-16.6,24.4-32.8,49.1-48.7,73.9c-15.8,24.8-31.3,49.8-46.4,75
	c-7.6,12.7-15.2,25.5-22.6,38.3c-5.8,10-11.7,20.2-20.2,28.1c-3.9,3.8-8.6,6.7-13.7,8.6c-5,1.7-10.3,1.8-15.4,3.1
	c-4.5,1.1-8.9,3.4-10.5,8c-1.9,5.5,1.4,10.8,5.2,14.6c4.8,4.6,10.9,7.7,16.6,11c6.3,3.6,12.8,6.9,19.4,10.1c6.3,3,12.8,6,19.3,8.4
	c6.2,2.2,13,3.7,19.4,1.3c10.1-3.8,15-14.3,19.7-23.1c6.1-11.4,14.3-21.3,23.6-30.2s19.3-17,29.1-25.4c9.4-8.1,18.7-16.5,27.7-25.1
	c18-17.2,34.9-35.6,49.3-55.9c14.1-19.8,25.8-41.5,32.8-64.8c1.7-5.7,3.2-11.5,4.3-17.4c0.5-2.3-3.1-3.3-3.5-1
	c-4.6,23.5-13.9,45.9-26.4,66.4c-12.7,20.8-28.4,39.6-45.4,57.1c-17.1,17.7-35.6,33.8-54.4,49.8c-9.7,8.3-19.4,16.8-27.6,26.7
	c-4,4.8-7.6,9.9-10.7,15.3c-2.6,4.7-4.9,9.5-7.8,14c-2.8,4.2-6.2,8.3-11,10.4c-6.3,2.7-13.2,1-19.3-1.3
	c-13.3-5.2-26.2-11.5-38.5-18.7c-5.6-3.2-11.6-6.2-15.9-11.1c-1.8-2-3.5-4.6-3.5-7.4c0-2.6,1.3-5,3.4-6.4c4-2.8,9.4-3,14-3.7
	c5.1-0.8,10.1-2.6,14.5-5.3c9.3-5.8,16.1-14.9,21.8-24c7.2-11.4,13.6-23.2,20.5-34.8c14.7-24.9,29.8-49.7,45.2-74.2
	s31.1-48.9,47.1-73c16-24,32.3-47.8,48.9-71.4c4.1-5.8,8.2-11.5,12.3-17.3C254.9,607.7,253.2,606.7,252.4,607.8L252.4,607.8z"/>
<path class="st0" d="M746.7,608.3c60.6,84.4,117,171.7,169.1,261.7c9.2,15.9,20.4,33.4,38.4,36.9c7.5,1.5,17.1,1.3,20.1,8.3
	c3.1,7.3-4.5,14.4-11.2,18.6c-14,8.5-28.5,16-43.6,22.3c-6.8,2.9-14.3,5.5-21.5,3.6c-11.3-3.1-16.3-15.7-22-25.9
	c-10.5-18.8-27.7-32.9-44.2-46.9c-53.8-45.6-107.2-99.4-120.6-168.6"/>
<path class="st0" d="M745.8,608.8c16.8,23.6,33.4,47.3,49.5,71.3s32.1,48.2,47.7,72.7c15.5,24.3,30.6,48.9,45.5,73.6
	c7.5,12.4,14.8,24.9,22.1,37.4c5.9,10.1,11.5,20.6,19.3,29.5c7.1,8.2,15.9,14,26.7,15.6c4.6,0.7,10.1,0.9,13.9,3.8
	c5.1,3.9,2.8,10.1-0.9,14c-4.5,4.8-10.5,7.8-16.1,11c-6.2,3.5-12.6,6.9-19.1,10c-6.4,3.1-12.8,6.1-19.5,8.6
	c-6.1,2.2-13,3.8-19.2,0.9c-9.5-4.5-13.7-15.9-18.5-24.5c-6.2-11.1-14.8-20.6-24-29.3s-19.1-16.6-28.6-24.9
	c-9.3-8-18.4-16.3-27.2-24.8c-17.7-17-34.3-35.1-48.4-55.1c-13.7-19.5-24.9-40.8-31.7-63.7c-1.7-5.6-3.1-11.3-4.2-17.1
	c-0.5-2.3-4-1.3-3.5,1c4.7,24,14.5,46.5,27.2,67.3c13,21.1,29,40.2,46.2,57.9c17.5,18,36.5,34.3,55.6,50.6
	c9.9,8.5,19.8,17.3,27.9,27.6c3.8,5,7.2,10.2,10.1,15.8c2.5,4.8,5,9.6,8.3,13.9c2.9,4,6.9,7.1,11.6,8.9c6.5,2.2,13.4,0.6,19.6-1.7
	c13.4-5.2,26.3-11.4,38.7-18.6c5.7-3.2,11.8-6.3,16.5-11c3.8-3.8,6.8-9.2,4.6-14.6c-1.8-4.5-6.3-6.6-10.8-7.7
	c-5.1-1.2-10.5-1.3-15.5-3.2c-10.6-3.8-18.3-12.9-24.5-21.9c-7.5-11-13.8-22.9-20.5-34.3c-14.9-25.3-30.2-50.4-45.9-75.3
	c-15.7-24.9-31.7-49.6-48.2-74.3c-16.4-24.5-33.2-48.8-50.3-72.9c-4.2-5.9-8.3-11.7-12.5-17.5C746.8,606.7,745,607.8,745.8,608.8
	L745.8,608.8z"/>
<path class="st0" d="M292.1,58.2c-6.1,21-25.5,35.3-45.4,44.3s-41.5,14.5-60,26.1c-10.3,6.5-19.9,15.4-23.7,27
	c-1.5,4.6-2,9.8-0.4,14.3s5.9,8.4,10.8,8.5c3,0.1,6.5-2.8,5-5.3c-0.7-0.9-1.7-1.5-2.8-1.8c-9.6-3-20.2,0.5-28.7,5.9
	c-12.9,8.2-23.1,21.8-24.5,37s7.4,31.7,21.9,36.5c3.2,1.1,7,1.5,9.7-0.6s2.5-7.3-0.8-8.1c-1.4-0.2-2.9,0.1-4.1,0.9
	c-8.4,4.6-10.6,16.5-6.7,25.2s12.6,14.5,21.5,17.8c16,5.9,34,5.2,50.1-0.4s30.2-16.2,41.4-29c8.8-10,16.2-23.6,12-36.3
	c-2.4-0.2-4.1,2.9-3.3,5.1s3.1,3.7,5.5,4.4c8.9,2.9,18.6-0.7,26.4-5.9c16.9-11.3,28.2-29.4,31-49.5c-1.8,4.6,3.8,9.4,8.6,8.7
	s8.5-4.7,11.4-8.8c11.9-17.2,15.7-38.7,17.3-59.5c1.2-15.7,1.1-32.4-6.6-46.1s-25.5-22.9-39.8-16.2"/>
<path class="st0" d="M291.3,58c-5.7,17.7-20.6,30.3-36.4,38.9c-18.4,10-39,15-57.7,24.2c-9,4.4-17.7,9.7-24.8,16.9
	c-6.7,6.8-12.4,16-12.4,25.8c-0.2,4.9,1.8,9.6,5.3,13c3.2,2.9,8.2,4.8,12.3,2.3c1.8-0.9,3-2.8,3.1-4.8c-0.1-2.5-2.3-3.9-4.4-4.5
	c-4.9-1.4-10.1-1.5-15.1-0.3c-9.6,2.1-18.3,7.8-25.2,14.6c-6.7,6.5-11.6,14.7-14,23.7c-2.2,8.5-1.5,17.5,2,25.6
	c3.3,7.7,9.2,14.5,16.9,17.9c4,1.8,9.1,3.3,13.3,1.1c3.4-1.8,4.7-6,2.9-9.4c-2.5-4.4-8-2.2-11,0.3c-3,2.6-5.2,6.1-6.2,9.9
	c-2.3,8.5,0.6,17.1,6.4,23.5c6.6,7.1,16.1,11.2,25.4,13.4c20.9,4.8,42.8-0.2,60.8-11.4c8.4-5.3,16.1-11.7,22.7-19
	c6.7-7.3,12.9-16,14.8-26c0.9-4.6,0.7-9.4-0.7-13.8c-0.2-0.7-0.9-1.2-1.7-1.3c-3.3-0.1-5.5,3.2-5.1,6.3c0.4,3.6,3.9,5.7,7.1,6.7
	c7.5,2.4,15.6,0.3,22.4-3.1c12.8-6.5,23.3-18,29.7-30.7c3.7-7.1,6.1-14.9,7.2-22.8c0.2-0.9-0.4-1.8-1.3-2.1c-0.9-0.2-1.7,0.3-2,1.1
	c-2,5.8,4.1,11.1,9.6,10.9c6.6-0.3,11.2-6.1,14.5-11.1c7.5-11.4,11.7-24.8,14.1-38.2c1.2-6.7,2-13.5,2.5-20.4c0.6-7,0.8-14,0.4-21
	c-0.9-12.9-4.6-26.2-14.2-35.4c-9.3-8.8-23.1-13.5-35.2-7.8c-2.1,1-0.3,4.1,1.8,3.1c9.3-4.3,20.4-1,28.1,5
	c9.4,7.3,13.8,18.6,15.4,30.1c1.7,12.5,0.5,25.5-1,37.9s-4.5,24.8-9.9,36.2c-1.5,3.2-3.3,6.2-5.2,9.1c-1.6,2.7-3.8,5.2-6.3,7.1
	c-2.4,1.6-5.2,2.6-8,1.3c-2.2-1.1-4.1-3.3-3.3-5.9l-3.3-0.9c-1.7,12.5-6.7,24.2-14.5,34.1c-3.9,4.9-8.4,9.2-13.5,12.9
	c-5.4,3.9-11.7,7.3-18.4,8c-3.5,0.4-7.4,0.1-10.5-1.5c-1.2-0.6-2.7-1.7-2.8-3.3c0-1.1,0.6-2.3,1.8-2.2l-1.7-1.3
	c2.9,8.8-0.1,17.8-4.7,25.4c-4.8,7.9-11.3,14.6-18.2,20.6c-14.3,12.2-32.1,20.6-51.1,21.6c-9.8,0.6-19.7-1-28.8-4.6
	c-7.7-3.1-15.1-8.3-18.7-16c-2.9-6.2-2.5-14.5,2-19.9c1.2-1.4,6.4-6.3,7.8-2.9c0.4,1.2,0.2,2.5-0.5,3.5c-1.1,1.4-3.3,1.6-5,1.5
	c-3.8-0.2-7.5-2.2-10.6-4.3c-3.1-2.2-5.7-4.9-7.8-8.1c-4.3-6.4-6.4-14.1-6-21.8c0.9-17.1,13.7-32.2,28.5-39.6
	c4.1-2.2,8.6-3.5,13.2-4c2.3-0.2,4.6-0.1,6.9,0.3c1,0.2,4.4,0.6,4.3,2.1s-2.7,2.2-3.9,2.1c-1.9-0.2-3.7-0.9-5.1-2.2
	c-3.6-2.9-4.8-7.4-4.6-11.9c0.5-8.7,5.8-16.8,11.9-22.8c6.5-6.5,14.5-11.4,22.7-15.5c17.3-8.7,36.1-13.7,53.4-22.3
	c14.8-7.4,29-17.7,37.1-32.5c1.9-3.5,3.4-7.2,4.4-11.1c0.1-0.5-0.2-0.9-0.6-1C291.9,57.2,291.5,57.5,291.3,58L291.3,58z"/>
<path class="st1" d="M293.5,91.3c5.6,8,9.4,17.1,14.2,25.6s10.6,16.8,18.9,21.9s19.6,6.3,27.7,0.9l16.6,19.7
	c13.4-5.4,25.1-14.2,33.9-25.6c0.7-0.8,1.2-1.7,1.3-2.7c-0.1-1.3-0.7-2.5-1.6-3.3c-10.1-11.6-25-19.5-31.3-33.5
	c-3.2-7-4.9-14.3-8.7-21c-6.1-10.7-15.1-19.8-27.2-23.3c-22.5-6.7-57.7,8.1-46.2,36.7"/>
<path d="M292.7,91.8c7,10.5,11.2,22.6,18.2,33.1c6.2,9.3,14.9,17.5,26.3,19.3c6.1,1.2,12.5,0,17.8-3.3l-1.7-0.2l16.6,19.7
	c0.3,0.4,0.9,0.5,1.3,0.4c8.5-3.4,16.3-8.2,23.3-14.1c3.4-2.9,6.6-6.1,9.5-9.6c1.3-1.6,3.2-3.4,3.5-5.6s-1.2-3.9-2.6-5.4
	c-5.6-6.3-12.4-11.3-18.5-17c-3.1-2.8-5.9-5.9-8.3-9.3c-2.5-3.8-4.5-7.9-6-12.3c-1.6-4.7-3.5-9.3-5.7-13.8
	c-2.1-3.8-4.5-7.4-7.3-10.7c-5.3-6.5-12.3-11.4-20.3-14.2c-11.6-3.8-25.3-2.1-35.9,3.8c-5.2,2.7-9.5,6.8-12.4,11.9
	c-2.8,5.3-3.6,11.5-2.1,17.3c0.4,1.7,1,3.4,1.6,5c0.5,1.4,2.8,0.8,2.3-0.6c-2.2-5.5-2.9-11.6-0.9-17.3c1.9-5,5.4-9.2,9.9-12.1
	c9.7-6.3,21.5-8.6,32.9-6.3c16.2,3.4,27.6,17.4,33.3,32.2c1.7,4.4,3.1,8.8,5.1,13.1c1.7,3.5,3.9,6.7,6.5,9.6
	c5.2,6,11.6,10.8,17.4,16.1c1.5,1.3,3,2.7,4.4,4.2s3.1,2.8,3.8,4.5s-1.8,4.1-2.9,5.4c-1.4,1.6-2.8,3.2-4.3,4.7
	c-6.1,6.2-13.2,11.3-21,15.3c-1.9,1-3.9,1.8-5.8,2.6l1.3,0.4l-16.6-19.7c-0.4-0.4-1.1-0.5-1.7-0.2c-9.1,5.9-21.1,3.3-29.3-2.9
	c-9-6.8-14.5-17.1-19.7-26.9c-3.1-6.1-6.5-12.1-10.4-17.8C293.6,90,292.1,90.8,292.7,91.8L292.7,91.8z"/>
<path class="st1" d="M365.1,159.7c10.9-17.6,24.7-33.2,40.7-46.3c1.7-1.4,3.6-2.8,5.8-2.8c1.7,0.1,3.3,0.7,4.7,1.7
	c7.2,4.3,13.8,9.4,19.7,15.3c3.5,3.4,6.8,7.2,8,12s-0.5,10.4-4.9,12.5"/>
<path d="M365.9,160.2c4.7-6.8,9.4-13.6,14.7-20c5.3-6.3,11-12.2,17.1-17.8c3-2.8,6.2-5.5,9.4-8c1.4-1.1,3.2-2.4,5.1-2.1
	s3.8,1.8,5.5,2.9c7.1,4.5,13.7,9.9,19.4,16.1c2.7,2.9,5.3,6.6,5.5,10.7c0.1,3.4-1.2,6.9-4.2,8.6c-1.9,1.1-0.2,3.8,1.7,2.9
	c3.2-1.6,5.5-4.7,6-8.3c0.6-3.9-0.3-7.9-2.4-11.3c-2.3-3.8-5.6-7-8.8-10.1c-3.4-3.1-7-6-10.8-8.6c-1.9-1.3-3.8-2.6-5.8-3.8
	c-1.9-1.1-3.8-2.3-6-2.4c-4.3-0.2-7.9,3.8-10.9,6.4c-6.8,5.9-13.1,12.3-19,19.2c-6.7,7.6-12.6,15.9-17.7,24.6
	c-0.3,0.4-0.1,1,0.3,1.2C365.1,160.8,365.7,160.6,365.9,160.2L365.9,160.2L365.9,160.2z"/>
<path class="st2" d="M850.8,177.6c-49-0.8-107.8-13.3-167.6-37.8c-42.9-17.6-81-39.2-112.3-62.6c-12.2-9.1-28.8-9.1-41,0
	c-31.2,23.3-69.4,45-112.3,62.6c-59.8,24.5-118.5,37-167.6,37.8c-18.8,0.1-34,15.4-34.1,34.2v399.6c0,91.6,46.6,177,123.6,226.6
	l171.9,110.8c23.7,15.3,54.3,15.3,78,0l171.8-110.8c77-49.6,123.6-135,123.6-226.6V211.8C884.8,193,869.6,177.8,850.8,177.6
	L850.8,177.6z"/>
<path class="st2" d="M850.8,175.1c-37.8-0.7-75.2-7.7-111.4-18.2c-39.7-11.6-77.9-27.5-114-47.6c-16.4-9.1-32.2-19.1-47.5-30
	c-7-5-13.4-9.7-22.2-10.9c-7.7-1.1-15.5,0.3-22.4,3.9c-7.8,4.1-14.7,10.3-22,15.2c-7.6,5.1-15.3,9.9-23.2,14.6
	c-16.9,10-34.3,19.1-52.2,27.2c-38,17.4-77.8,30.3-118.8,38.5c-17.9,3.6-36.1,5.9-54.4,6.9c-7.8,0.4-15.9-0.2-23.4,2.2
	c-6.5,2-12.3,5.8-16.8,10.9c-7.9,9-9.2,19.5-9.2,30.7v366.9c0,27.7,0.1,55,5.8,82.3c13.6,63.7,49.4,120.6,101.1,160.2
	c9.9,7.5,20.3,14.1,30.7,20.8l43.6,28.1l99.6,64.2c8.8,5.6,17.5,12.1,27.1,16.2c23.6,10,49.8,6.6,71.2-7.2l81.8-52.7l85-54.8
	c45.8-29.5,82.6-70.7,104.6-120.7c13-29.4,20.7-60.9,22.7-93c0.6-8.9,0.5-17.7,0.5-26.6V274.3c0-20.4,0.1-40.9,0-61.4
	C887.5,192.4,871.2,175.6,850.8,175.1c-3.3-0.1-3.3,5-0.1,5.1c16,0.5,29.9,12.4,31.4,28.7c0.2,2,0.1,4,0.1,6v357.7
	c0,20,0.7,40.2-0.8,60.2c-5.3,65.2-34.2,126.2-81.3,171.6c-23.8,22.9-52.4,39.6-80,57.4l-102.4,66c-9.4,6.1-18.8,12.1-28.2,18.2
	c-23.6,15.2-53,16-76.8,0.9c-22.2-14.1-44.2-28.5-66.3-42.7l-94.7-61c-11.2-7.2-22.4-14.4-32.9-22.8c-25.4-20.3-46.8-45-63.3-73
	c-25-42.5-37-90.4-37-139.5v-389c0-2,0-4.1,0-6.1c-0.1-9.2,3.7-18,10.5-24.2c5.8-5.2,13.3-8.1,21.1-8.2c8.4-0.3,16.7-0.6,25.1-1.4
	c18.1-1.7,36.1-4.5,53.9-8.4c39.3-8.7,77.5-21.8,113.9-38.8c17.5-8.1,34.5-17.1,51-27.1c8-4.8,15.8-9.9,23.5-15.1
	c7.1-4.9,14-11.4,22.1-14.4c8.4-3.1,17.6-2.5,25.5,1.6c7.6,4,14.3,10,21.4,14.8c15.7,10.5,31.9,20.2,48.7,28.9
	c35.7,18.7,73.3,33.5,112.2,44.1c33.7,9.2,68.5,15.1,103.4,15.8C854,180.2,854,175.1,850.8,175.1L850.8,175.1z"/>
<path class="st1" d="M785.4,251.1c-38.4-0.6-84.3-10.4-131.1-29.6c-33.5-13.8-63.4-30.7-87.8-48.9c-9.5-7.1-22.6-7.1-32.1,0
	c-24.5,18.2-54.3,35.2-87.8,48.9c-46.8,19.2-92.7,28.9-131.1,29.6c-14.7,0.1-26.6,12.1-26.7,26.8v312.7
	c0,71.7,36.4,138.5,96.7,177.3L520,854.5c18.6,12,42.4,12,61,0l134.5-86.7c60.3-38.8,96.7-105.6,96.7-177.3V277.9
	C812.1,263.1,800.2,251.2,785.4,251.1L785.4,251.1z"/>
<path class="st3" d="M513.9,640c-9.4,0-18.3-3.7-24.9-10.3l-71.5-71.5c-14-13.6-14.3-35.9-0.7-49.9c13.6-14,35.9-14.3,49.9-0.7
	c0.2,0.2,0.5,0.5,0.7,0.7l46.5,46.5l153.8-153.8c13.8-13.8,36.1-13.8,49.9,0c13.8,13.8,13.8,36.1,0,49.9l0,0L538.9,629.7
	C532.3,636.3,523.3,640,513.9,640L513.9,640z"/>
<path class="st4" d="M513.9,637.5c-8.7,0-17-3.5-23.1-9.6l-2.5-2.5l-16-16l-22.9-22.9l-20.7-20.7c-3.1-3.1-6.2-6.1-9.2-9.2
	c-12.8-12.8-12.7-33.5,0.1-46.3c9.3-9.3,23.3-12.1,35.4-7.2c7.2,2.9,12.3,8.7,17.6,14l21.8,21.8l16.9,16.9l0.9,0.9c1,1,2.6,1,3.6,0
	l6.1-6.1l16-16l22.9-23l26.6-26.6l27.3-27.3l24.7-24.6l19.1-19.1l10.2-10.2c1.8-1.8,3.7-3.5,5.8-5c15-10.1,35.3-6.2,45.4,8.8
	c8.8,13.1,7.1,30.6-4.2,41.6l-2.3,2.3l-11.5,11.5l-19,19l-24.1,24.1l-26.8,26.8l-27.3,27.3l-25.5,25.5l-21.3,21.3L543,621.9
	c-2,2-4,4-5.9,5.9C530.9,634,522.6,637.4,513.9,637.5c-3.3,0-3.3,5.1,0,5.1c10-0.1,19.6-4,26.7-11.1l1.6-1.6l10.6-10.6l18.5-18.5
	l23.9-23.9l27-27l27.7-27.7l26-26l21.7-21.7l15.2-15.2c2.1-2.1,4.2-4.2,6.3-6.3c12.3-12.4,14.7-32.3,5.2-47.1
	c-10.6-16.7-32.4-22.4-49.8-12.9c-5,2.7-8.9,6.7-12.9,10.6L647.2,418L625,440.3l-26.5,26.5l-27.7,27.7L545.3,520l-20.1,20.1
	l-11.5,11.5l-1.5,1.5h3.6l-12.9-13L479.6,517c-4.8-4.8-9.4-10.2-14.9-14.2c-13.4-9.9-32.4-9.4-45.4,0.7
	c-13.3,10.5-18.1,28.4-11.8,44.1c2,4.8,5,9.2,8.7,12.8l4.4,4.4l18.8,18.8l23.8,23.7l19,19l4.6,4.6c4,4,8.7,7.1,14,9.2
	c4.2,1.6,8.7,2.4,13.3,2.4C517.2,642.6,517.2,637.5,513.9,637.5L513.9,637.5z"/>
<path class="st0" d="M320.5,49c3.3,9.5,1.9,20-3.7,28.4c-0.7,1.2-1.7,2.1-2.8,2.8c-1.2,0.7-2.7,0.7-3.8-0.1c-1.8-1.4-1-4.3-0.1-6.4
	c0.8,3.9-1.2,7.8-3.3,11.1c-3.1,5.1-6.7,10.1-11.4,13.8c-1.1,1-2.4,1.7-3.9,1.9c-2.1,0-4-1.1-4.9-2.9c-0.9-1.8-1.4-3.8-1.5-5.8
	c-0.6-8,1-16,3.4-23.5c2.2-6.7,5.1-13.3,10.2-18.2s12.6-7.7,19.3-5.6c1.2-2.3,3.3-3.9,5.8-4.5c2.5-0.6,5-0.6,7.5-0.2
	c15,2,28.2,10.7,36,23.6c1.3,2.2,2.4,4.5,3.1,7c0.6,2.5,1.1,5,1.2,7.6l1.8,17.2c0.1,0.6,0.1,1.1-0.1,1.7c-0.5,1.1-2,1.2-3.1,1.1
	c-4.1-0.3-8.2-1.4-11.8-3.4c-0.6-0.3-1.2-0.8-1.5-1.4c-0.2-0.6-0.2-1.3,0-1.9c0.7-4,1.3-8.7-0.3-12.6c-2.8-7-15.3-3.1-11.8,3.8
	c-2.4-0.5-2-1.4-3.6-3.2l-14.7-15.9c-2.3-2.5-4.7-5.2-5.7-8.4"/>
<path class="st0" d="M319.6,49.3c2.1,6.6,2,13.6-0.2,20.1c-1,3.1-2.6,6.5-4.9,8.9c-0.9,0.9-3.1,2-3.9,0.3c-0.5-1.2,0.2-3,0.7-4.1
	l-2.5-0.3c0.7,3.6-1.3,7.1-3.1,10c-1.8,3-3.8,5.8-6,8.4c-1.1,1.3-2.3,2.5-3.5,3.7c-1.1,1-2.5,2.4-4.1,2.8c-3.8,0.9-5.1-4-5.4-6.8
	c-0.7-7.5,0.7-15.1,2.9-22.3c1.9-6.4,4.5-12.8,9.1-17.7c4.8-5.2,12.1-8.5,19.1-6.4c0.6,0.2,1.2-0.1,1.5-0.6
	c2.6-5.2,9.5-4.5,14.3-3.6c4.6,0.9,9,2.4,13.1,4.5c8.5,4.4,15.6,11.3,20.2,19.7c2.9,5.4,3.2,11.2,3.8,17.1c0.3,3.1,0.6,6.2,1,9.3
	l0.2,2c0,0.4,0.4,1.8,0.1,2.1c-0.6,0.6-2.6,0.2-3.3,0.1c-2.8-0.3-5.5-1.1-8-2.3c-0.9-0.4-2.5-0.9-2.5-2c0-1.3,0.4-2.7,0.6-4.1
	c0.5-4.1,0.6-9.8-2.9-12.7c-2.8-2.1-6.5-2.3-9.6-0.6c-3.1,1.5-4.4,5.3-2.9,8.4c0,0,0,0.1,0.1,0.1l1.6-2.1c-0.7-0.1-1.4-0.5-1.7-1.2
	c-0.7-1.1-1.6-2.2-2.5-3.2l-7-7.6l-6.8-7.4c-2-2.2-4-4.5-5-7.3c-0.6-1.8-3.4-1-2.8,0.8c1.1,2.9,2.8,5.6,5,7.8c2.4,2.7,5,5.4,7.4,8.1
	l7.7,8.3c0.7,0.8,1.4,1.7,2,2.6c0.7,0.9,1.8,1.5,2.9,1.7c0.8,0.2,1.6-0.2,1.8-1c0.1-0.3,0.1-0.7-0.1-1c-1.2-2.6,0.9-4.6,3.3-5.2
	c1.3-0.3,2.7-0.2,3.9,0.4c1.6,0.9,2.2,2.6,2.6,4.3c0.4,2.8,0.4,5.6-0.2,8.4c-0.3,1.1-0.4,2.3-0.3,3.5c0.4,1.2,1.3,2.2,2.5,2.6
	c2.5,1.3,5.2,2.3,8,2.9c2.3,0.5,5.5,1.3,7.6,0c2.4-1.5,1.3-5.2,1.1-7.5c-0.3-3.3-0.7-6.6-1-9.8c-0.3-2.9-0.5-5.9-1-8.8
	c-0.6-3-1.6-5.8-3-8.4c-7.6-13.8-21.2-23.2-36.8-25.6c-5.7-0.8-12.9-0.7-15.9,5.2l1.5-0.6c-7.1-2-14.7,0.6-20,5.4
	c-5.7,5.1-8.9,12.4-11.2,19.5c-2.6,8.1-4.4,17-3.3,25.6c0.5,3.5,2.3,7.4,6.1,8.1s7.1-2.6,9.5-5.1c3.1-3.3,5.8-6.8,8.1-10.7
	c2.4-3.9,4.6-8.1,3.8-12.8c-0.2-0.7-1-1.2-1.7-0.9c-0.3,0.1-0.6,0.3-0.8,0.6c-1,2.5-2.1,5.9,0.2,8c2.7,2.4,6.2,0.4,8.1-2
	c4-5.5,6.1-12.2,6.1-19c0-3.8-0.7-7.6-2-11.2C321,47.8,319.3,48.2,319.6,49.3L319.6,49.3z"/>
<path d="M351.5,80.5c-0.4,0.3-0.8,0.6-1.1,1c-0.7,1.2-1,2.6-0.6,4c0.1,0.3,0.2,0.5,0.5,0.6c0.2,0.1,0.5,0.2,0.8,0.1
	c0.6-0.1,1-0.7,1-1.3c0-0.3-0.1-0.7-0.4-0.9c-0.2-0.2-0.5-0.4-0.9-0.4c-0.3,0-0.5,0.1-0.7,0.3c-0.1,0.2-0.2,0.4-0.3,0.6
	c-0.1,0.5,0.2,0.9,0.7,1.1c-0.3,0-0.5-0.2-0.6-0.5v-0.1c0-0.2,0-0.3,0-0.2s0,0,0.1-0.2s0.2-0.2,0.1-0.1c0.4-0.2,0.5-0.2,0.3-0.2
	l1.3,0.7c0-0.2-0.1-0.3-0.1-0.5c0-0.1,0,0.3,0,0.1c0,0,0-0.1,0-0.1c0-0.1,0-0.2,0-0.2c0-0.2,0-0.3,0-0.5c0-0.1,0,0.2,0,0.1
	s0-0.1,0-0.1l0.1-0.3c0-0.1,0-0.2,0.1-0.2s0.1-0.2,0.1-0.3s-0.1,0.2,0,0.1c0,0,0-0.1,0-0.1c0-0.1,0.1-0.2,0.1-0.2
	c0.2-0.3,0.3-0.6,0.5-0.9c0.2-0.3,0.1-0.7-0.1-1C352.2,80.3,351.8,80.3,351.5,80.5L351.5,80.5z"/>
<path d="M291.5,104.6c2.9-1.3,5.6-3.1,8-5.3c2.2-2.4,4.2-5.1,5.9-8c1.8-2.8,3.3-5.7,4.5-8.7c1.4-3,2.2-6.3,2.4-9.6
	c0-1.5-2.3-1.9-2.6-0.4c-0.5,3-1.2,5.9-2.3,8.8c-1.2,2.9-2.6,5.6-4.2,8.3c-1.5,2.7-3.2,5.3-5.1,7.8c-2,2.4-4.8,4-7.5,5.4
	C289.6,103.6,290.4,105.2,291.5,104.6L291.5,104.6z"/>
<path d="M317.6,80.5c1.6-3.3,2.9-6.8,3.9-10.3c1.1-3.5,1.8-7.2,2-10.9c0.1-1.7-2.4-1.6-2.6,0c-0.2,3.5-0.7,6.9-1.4,10.4
	c-0.8,3.5-1.9,6.8-3.5,10C315.6,80.7,317.1,81.5,317.6,80.5L317.6,80.5z"/>
<path d="M313.2,106.5v0.2c0-0.1,0-0.2,0-0.4c0-0.1,0-0.3-0.1-0.4v0.3c0-0.1,0-0.1,0-0.2v0.3c0-0.1,0-0.1,0-0.2l-0.1,0.3
	c0-0.1,0.1-0.1,0.1-0.2l-0.2,0.2c0.1-0.1,0.1-0.1,0.2-0.2l-0.2,0.2c0.1,0,0.1-0.1,0.2-0.1l-0.3,0.1l0.4-0.2l-0.3,0.1L313.2,106.5
	l-0.4-0.1h0.2h-0.3c0.1,0,0.2,0,0.3,0.1l-0.3-0.1c0.1,0,0.2,0.1,0.3,0.2l-0.3-0.2c0.1,0.1,0.2,0.2,0.3,0.3l-0.2-0.3
	c0.1,0.2,0.2,0.3,0.3,0.5l-0.1-0.3c0.1,0.2,0.1,0.4,0.1,0.5l0-0.4c0,0.1,0,0.2,0,0.3l0-0.4c0,0.1,0,0.1,0,0.2L313.2,106.5l-0.1,0
	l0.2-0.3l-0.1,0.1l0.3-0.2c0,0-0.1,0-0.1,0.1l0.3-0.1h-0.1h0.4h-0.1h0.4h-0.1h-0.4c-0.2,0-0.4,0-0.6,0.1l-0.2,0.1
	c-0.4,0.2-0.7,0.7-0.7,1.2c0,0.7,0.5,1.3,1.1,1.4c0.2,0,0.4,0,0.7,0c0.2,0,0.3-0.1,0.5-0.1c0.2-0.1,0.3-0.1,0.4-0.2
	c0.1-0.1,0.2-0.1,0.2-0.2c0.1-0.1,0.2-0.3,0.3-0.4c0.1-0.2,0.1-0.3,0.2-0.5c0.1-0.4,0.1-0.7,0-1.1c-0.1-0.2-0.1-0.5-0.2-0.7
	c-0.2-0.3-0.3-0.6-0.6-0.8c-0.2-0.3-0.5-0.5-0.8-0.6c-0.4-0.2-0.8-0.3-1.2-0.3c-0.5,0-1,0.2-1.3,0.5c-0.3,0.3-0.5,0.6-0.6,0.9
	c-0.1,0.2-0.1,0.4-0.1,0.6c0,0.4,0.1,0.9,0.4,1.2c0.3,0.3,0.7,0.4,1.1,0.3l0.2-0.1c0.1-0.1,0.2-0.1,0.2-0.2
	C313.1,106.9,313.2,106.7,313.2,106.5L313.2,106.5z"/>
<path d="M329.3,94.5v0.2c0-0.1,0-0.2,0-0.4c0-0.1,0-0.3-0.1-0.4v0.3c0-0.1,0-0.1,0-0.2v0.3c0-0.1,0-0.1,0-0.2l-0.1,0.3
	c0-0.1,0.1-0.1,0.1-0.2l-0.2,0.2c0.1-0.1,0.1-0.1,0.2-0.2l-0.2,0.2l0.2-0.1l-0.3,0.1l0.4-0.2l-0.3,0.1
	C329.1,94.4,329.2,94.4,329.3,94.5l-0.4-0.1h0.2h-0.4c0.1,0,0.2,0,0.3,0.1l-0.3-0.1c0.1,0,0.2,0.1,0.3,0.2l-0.3-0.2
	c0.1,0.1,0.2,0.2,0.3,0.3l-0.2-0.3c0.1,0.2,0.2,0.3,0.3,0.5l-0.1-0.3c0.1,0.2,0.1,0.4,0.1,0.5l0-0.4c0,0.1,0,0.2,0,0.3l0-0.4
	c0,0.1,0,0.1,0,0.2L329.3,94.5l-0.1,0l0.2-0.3c0,0-0.1,0.1-0.1,0.1l0.3-0.2l-0.1,0.1l0.3-0.1c0,0-0.1,0-0.1,0h0.4c0,0-0.1,0-0.1,0
	l0.4,0.1h0l-0.4-0.1c-0.2,0-0.4,0-0.6,0.1l-0.2,0.1c-0.4,0.2-0.7,0.7-0.7,1.2c0,0.7,0.5,1.3,1.1,1.4c0.2,0.1,0.5,0.1,0.7,0
	c0.2,0,0.3-0.1,0.5-0.1c0.2-0.1,0.3-0.1,0.4-0.2c0.1-0.1,0.2-0.1,0.2-0.2c0.1-0.1,0.2-0.2,0.3-0.4c0.1-0.2,0.2-0.3,0.2-0.5
	c0.1-0.4,0.1-0.7,0-1.1c-0.1-0.2-0.1-0.5-0.3-0.7c-0.1-0.3-0.3-0.6-0.6-0.8c-0.2-0.3-0.5-0.5-0.8-0.6c-0.4-0.2-0.8-0.3-1.2-0.3
	c-0.5,0-1,0.2-1.3,0.5c-0.3,0.3-0.5,0.6-0.6,0.9c-0.1,0.2-0.1,0.4-0.1,0.6c0,0.2,0,0.4,0.1,0.6c0.1,0.3,0.2,0.5,0.4,0.7
	c0.3,0.3,0.7,0.4,1.1,0.3l0.2-0.1c0.1-0.1,0.2-0.1,0.2-0.2C329.2,94.9,329.2,94.7,329.3,94.5L329.3,94.5z"/>
<path d="M324.8,114.1c0.9,0.6,1.9,0.9,3,0.8c0.5,0,1-0.2,1.5-0.3c0.6-0.2,1.1-0.6,1.5-1c0.4-0.4,0.4-0.9,0.1-1.3
	c-0.3-0.4-0.9-0.5-1.3-0.2c-0.1,0.1-0.3,0.2-0.4,0.3c-0.1,0.1,0.1-0.1,0,0l-0.1,0.1c-0.2,0.1-0.4,0.2-0.6,0.3c-0.1,0.1,0.2-0.1,0,0
	l-0.2,0.1c-0.1,0-0.2,0.1-0.3,0.1l-0.3,0.1h-0.1c-0.1,0-0.2,0-0.3,0H327h-0.3c-0.1,0,0,0,0,0h-0.1c-0.2,0-0.4-0.1-0.6-0.1l-0.3-0.1
	h-0.1h-0.1c-0.4-0.2-0.9-0.1-1.2,0.3c-0.2,0.4-0.1,0.9,0.3,1.2L324.8,114.1z"/>
<path d="M338.4,120.2c0.9-1.1,1.6-2.2,2.1-3.5c0.6-1.3,1-2.7,1.1-4.1c0-0.6-0.5-1.1-1.1-1.1c-0.5,0-0.9,0.3-1,0.8
	c-0.2,1.2-0.5,2.4-0.9,3.6c-0.4,1.1-1,2.2-1.7,3.1c-0.2,0.4-0.1,0.9,0.2,1.2C337.6,120.5,338.1,120.5,338.4,120.2z"/>
<path d="M358.5,131.5c0.2,0.7-0.5,1.6-0.8,2.1c-0.4,0.8-0.9,1.5-1.4,2.3c-0.5,0.7-1,1.3-1.6,1.8c-0.6,0.5-1.3,1-2,1.4
	c-0.5,0.3-0.7,1-0.5,1.5c0.2,0.6,0.8,0.9,1.4,0.7c2-0.9,3.7-2.4,4.8-4.3c0.5-0.9,1-1.8,1.4-2.7c0.5-1.1,1-2.3,0.3-3.5
	c-0.2-0.4-0.8-0.6-1.2-0.3C358.5,130.7,358.4,131.1,358.5,131.5L358.5,131.5z"/>
<path d="M306.9,101.2l0.1-0.2c0-0.1-0.1,0.2,0,0l0.1-0.3c0.1-0.2,0.2-0.4,0.3-0.5c0.1-0.2,0.2-0.4,0.4-0.6l0.2-0.2
	c0.1-0.1-0.1,0.2,0,0l0.1-0.1c0.3-0.3,0.5-0.6,0.9-0.9c0.1-0.1,0.3-0.3,0.5-0.4l0.1-0.1l0.2-0.1l0.2-0.2c0.4-0.4,0.4-1,0.1-1.4
	c-0.3-0.4-0.9-0.6-1.4-0.3c-0.9,0.6-1.6,1.3-2.1,2.2c-0.5,0.8-0.9,1.7-1.2,2.6c-0.1,0.5,0.1,1,0.6,1.1
	C306.3,101.9,306.8,101.6,306.9,101.2L306.9,101.2z"/>
<path d="M321.1,87.7c0.2-0.4,0.4-0.9,0.7-1.3c0.1-0.2-0.1,0.1,0,0l0.1-0.2c0.1-0.1,0.2-0.2,0.2-0.3s0.4-0.3,0.5-0.5
	c0,0,0.1-0.1,0.1-0.1c-0.2,0.2-0.1,0.1,0,0l0.3-0.2c0.2-0.1,0.4-0.2,0.6-0.4l0.3-0.2l0.2-0.1c0.2-0.1-0.3,0.1,0,0l0.6-0.2h-0.1
	l0.2-0.1c0.6-0.2,0.9-0.8,0.8-1.4c-0.2-0.6-0.8-0.9-1.4-0.8c-1.2,0.3-2.3,0.9-3.1,1.8c-0.8,0.8-1.4,1.9-1.8,3
	c-0.1,0.4,0.1,0.8,0.5,1c0.4,0.2,0.9,0,1.1-0.4L321.1,87.7z"/>
<path class="st1" d="M211.7,401.9c-7.5-14.2-15.1-28.8-17.6-44.6c-3.7-24,4.9-48.7,19.3-68.2s34.1-34.5,54.6-47.6
	c17.9-11.4,36.7-21.6,56-30.5c2.5-1.1,5.1-2.3,7.8-1.7c3,0.6,5.1,3.1,7,5.5c4.2,5.2,8.5,10.7,9.5,17.3c1.6,9.9-4.5,19.1-10.3,27.3
	c-26.8,37.6-54.1,75.8-90.7,104c-14.5,11.2-31.9,23.4-33,41.7"/>
<path d="M212.6,401.3c-7.9-15.7-16.3-31.7-17.7-49.5c-1.2-16.5,3.2-33,10.9-47.6c7.8-14.8,19-27.4,31.6-38.3
	c12.9-11.2,27.3-20.7,42-29.5c7.9-4.7,15.9-9.2,24.1-13.5c4-2.1,8.1-4.2,12.2-6.2c2.1-1,4.1-2,6.2-3c2.1-1.1,4.2-2,6.4-2.7
	c1.9-0.6,3.9-0.3,5.5,0.9c1.4,1.1,2.7,2.5,3.8,3.9c2.6,3.1,4.9,6.4,6.9,10c1.9,3.6,2.7,7.7,2.2,11.8c-0.6,4.1-2,7.9-4.1,11.5
	c-2.2,3.7-4.5,7.3-7.1,10.8c-2.5,3.4-4.9,6.9-7.4,10.3c-5,7-10,13.9-15.1,20.7c-10.2,13.7-21,26.9-32.5,39.5
	c-11.4,12.3-23.7,23.6-37,33.8c-11,8.5-23.4,17.6-28.6,31c-1.2,3.1-1.9,6.4-2.1,9.8c-0.1,2.1,3.1,2.1,3.3,0
	c1-14.8,13.2-25.4,24.1-34c6.3-5,12.7-9.7,18.8-15c6.6-5.7,12.9-11.7,19-17.9c12-12.6,23.3-25.9,33.8-39.8c5.3-7,10.6-14,15.7-21.1
	c5.1-7.1,10.4-14.1,15.2-21.4c4.6-6.9,8.8-15,7.6-23.6c-0.7-4.1-2.2-8-4.6-11.5c-2.2-3.5-4.7-6.7-7.5-9.7c-3.1-3.2-6.9-4.4-11.1-3
	c-2.2,0.8-4.3,1.7-6.4,2.8c-2.1,1-4.1,1.9-6.2,2.9c-8.5,4.1-16.9,8.5-25.1,13.2c-15.8,8.7-30.9,18.5-45.2,29.4
	c-13.4,10.4-25.8,22.4-35.2,36.6c-9.3,14-15.6,30.3-16.8,47.2c-0.6,8.6,0.2,17.2,2.5,25.5c2.5,8.7,5.9,17.1,10.1,25.1
	c2,3.9,4.1,7.8,6.2,11.7C211.4,403.6,213.2,402.5,212.6,401.3L212.6,401.3z"/>
<path class="st1" d="M329.2,211c5.5-8.8,13-16.2,22-21.5c2.6-1.5,5.4-2.9,8.4-2.9s6.2,1.6,7.1,4.4l-2.9,1.4
	c6.7-0.3,13.6-0.4,20.1,1.4c4.9,1.3,9.2,4,12.6,7.7c1.2,1.4,1,3.5-0.4,4.7c-0.5,0.4-1,0.6-1.7,0.7c-4.2,0.6-8.5,0.6-12.7,0
	c2.5,0.3,5,1.6,5.9,3.9s-1,5.5-3.4,5.1c2.8,1,4.3,4.2,3.2,7c-0.8,2.1-2.8,3.6-5.1,3.5c1.3,4.6-1.3,9.4-5.8,10.7
	c-1.8,0.5-3.6,0.5-5.3-0.2c0.1-1.6,0.9-3.1,2.2-4.1c-1.5,4.1-6.7,5.1-11,5.6l-23.2,2.4"/>
<path d="M330,211.5c4.3-6.6,9.8-12.4,16.1-17.1c3.1-2.3,6.5-4.6,10.1-5.9c3.1-1,7.8-0.9,9.1,2.8l0.6-1.6l-3,1.4
	c-0.7,0.4-0.9,1.3-0.5,1.9c0.2,0.4,0.7,0.7,1.2,0.7c8.8-0.4,18.2-0.5,26.1,4.1c1.8,1,3.4,2.3,4.8,3.8c0.9,1,1.8,2.3,0.6,3.4
	c-0.7,0.7-1.8,0.7-2.8,0.8c-1.1,0.1-2.2,0.2-3.3,0.2c-2.4,0.1-4.8,0-7.2-0.4l-0.8,2.8c1.8,0.3,4.1,1,4.8,2.9c0.6,1.4-0.4,3.4-2,3.2
	c-1.8-0.2-1.8,2.4-0.4,2.9c1.7,0.8,2.7,2.6,2.4,4.4c-0.4,1.8-2,3.1-3.9,3.1c-0.9,0-1.6,0.7-1.5,1.6c0,0.1,0,0.3,0.1,0.4
	c1,3.8-1.2,7.7-5,8.8c-1.4,0.4-2.9,0.3-4.2-0.2l1.2,1.5c0.2-1.2,0.8-2.3,1.8-3l-2.6-1.5c-1.7,4.4-8.6,4.3-12.4,4.7
	c-6.8,0.7-13.5,1.3-20.3,2c-2.1,0.2-2.1,3.5,0,3.3c7.6-0.8,15.2-1.6,22.8-2.4c5-0.5,10.9-1.6,13-6.8c0.6-1.6-1.6-2.4-2.6-1.5
	c-1.6,1.3-2.5,3.2-2.7,5.2c0,0.7,0.5,1.3,1.2,1.5c5.3,1.8,11.1-1,13-6.3c0.7-2,0.7-4.2,0.2-6.2l-1.5,2c3.9-0.1,6.9-3.3,6.8-7.2
	c-0.1-2.8-1.8-5.4-4.5-6.4l-0.4,2.9c3.3,0.3,5.6-3.3,5-6.3c-0.6-3.5-4.3-5.3-7.5-5.6c-1.8-0.2-1.8,2.6,0,2.9
	c4.3,0.6,8.8,0.6,13.1-0.1c2.6-0.5,4.3-3,3.8-5.6c-0.1-0.3-0.2-0.6-0.3-0.9c-0.9-1.5-2.1-2.9-3.5-3.9c-1.5-1.2-3-2.2-4.7-3.1
	c-3.6-1.8-7.5-3-11.5-3.5c-4.9-0.5-9.8-0.7-14.8-0.3l0.7,2.6l2.9-1.4c0.5-0.3,0.8-1,0.6-1.6c-1.1-2.8-3.5-4.8-6.5-5.3
	c-3.5-0.6-7,0.8-10,2.5c-6,3.4-11.5,7.9-16.1,13.1c-2.6,3-5,6.2-7,9.6C327.8,211.6,329.3,212.5,330,211.5L330,211.5z"/>
<g>
	<path class="st0" d="M327.4,211.5c0,6.9,0.2,13.8,2.3,20.4c1.8,5.4,5,11.4,10.3,14.1c0.9,0.5,1.9,0.3,2.5-0.5
		c0.6-0.8,0.5-1.9-0.1-2.6c-2.2-1.6-4.2-3.4-5.9-5.4c-1.6-2.1-3-4.5-3.9-7c-2.3-6.1-2.9-12.6-3.5-19
		C329,210.4,327.4,210.4,327.4,211.5L327.4,211.5z"/>
	<path class="st0" d="M299,232c1.5,13,5.7,25.5,12.5,36.7c1.2,1.9,2.4,3.8,3.7,5.6c1.2,1.9,2.5,3.6,4.1,5.2c0.4,0.4,1.1,0.4,1.5,0
		c0.3-0.3,0.4-0.8,0.2-1.2c-1.1-1.8-2.6-3.3-3.8-5s-2.4-3.4-3.5-5.2c-2.3-3.6-4.3-7.4-6-11.3c-3.5-7.9-5.8-16.2-6.8-24.7
		C300.6,230.9,298.9,230.9,299,232z"/>
	<path class="st0" d="M267,251.2c2,16.3,8.7,31.6,19.4,44c3,3.6,6.4,6.8,10,9.8c1,0.9,2.5-0.6,1.5-1.5
		c-12.4-10.2-21.5-23.8-26.3-39.1c-1.3-4.3-2.3-8.8-2.9-13.3C268.6,250,266.8,250,267,251.2L267,251.2z"/>
	<path class="st0" d="M237.1,272.5c0.4,9,2.5,17.8,6.2,26c3.9,8.5,9.6,15.9,15.5,23.1c3.5,4.2,7.1,8.5,10.9,12.5
		c1.1,1.2,2.9-0.6,1.8-1.8c-12.1-13.5-25-27.2-30.1-45.1c-1.4-4.8-2.2-9.7-2.5-14.7C238.8,271.4,237,271.3,237.1,272.5L237.1,272.5z
		"/>
	<path class="st0" d="M205.1,315.5c2,7.4,4.1,14.8,7.8,21.6s9,12.4,14.6,17.8l5,4.8c1.6,1.7,3.3,3.4,5.2,4.8
		c0.8,0.6,2.1-0.6,1.5-1.5c-1.3-1.5-2.6-2.9-4.1-4.2l-4.5-4.4c-2.7-2.6-5.4-5.1-7.9-7.9c-5.1-5.6-9.1-12.2-11.7-19.3
		c-1.5-4-2.7-8.2-3.9-12.4c-0.2-0.5-0.7-0.7-1.1-0.5C205.3,314.7,205.1,315.1,205.1,315.5L205.1,315.5z"/>
	<path class="st0" d="M206.3,383.4c2,2.4,4.6,4.3,7.5,5.6c0.5,0.3,1.1,0.1,1.4-0.4c0,0,0-0.1,0-0.1c0.2-0.5,0-1.1-0.5-1.3
		c0,0-0.1,0-0.1,0c-2.7-1.1-5.1-2.9-6.9-5.1c-0.4-0.3-0.9-0.3-1.3,0.1C206,382.6,206,383.1,206.3,383.4L206.3,383.4z"/>
</g>
<path class="st1" d="M575.6,77.2c39.3-11.2,80.3,11.6,91.6,50.9c1.6,5.5,2.5,11.2,2.8,16.9c0.7,15.8-3.6,31.4-8.3,46.6
	c-12.7,41.3-28.2,81.9-49.3,119.7c-6.1,10.9-13,21.9-23.9,28s-26.5,5.3-33.6-5c-6-8.7-3.9-20.4-1.5-30.8
	C569.3,234,585.1,164.5,601,95c-9.4-2.9-17.9-8.2-24.8-15.2"/>
<path d="M575.8,78.1c18.3-4.8,37.8-2.5,54.4,6.4c24.4,13.5,39.1,39.6,37.9,67.5c-0.5,11-3.1,21.8-6.2,32.4
	c-6,20.5-12.9,40.8-20.7,60.6c-7.7,19.9-16.5,39.2-26.5,58c-8,14.9-17.6,34.4-35.9,37.8c-7.1,1.3-15.3,0.1-20.6-5.2
	c-6.5-6.5-6.2-16.5-4.8-24.9c0.9-5,2.1-10,3.3-15l3.8-16.9l7.6-33.4l15.3-67.1l15.2-66.8c1.3-5.4,2.5-10.9,3.7-16.3
	c0.2-0.8-0.3-1.7-1.1-1.9c-9.1-2.9-17.4-8-24.1-14.8c-1.4-1.4-3.6,0.8-2.2,2.2c7.1,7.2,15.8,12.5,25.4,15.6l-1.1-1.9
	c-5.2,22.9-10.5,45.9-15.7,68.8L568,232.5l-15.8,68.8c-2.1,9.1-4.5,19.2-1.5,28.3c2.7,7.8,9.4,13.4,17.5,14.7
	c8.1,1.4,16.4-0.4,23.2-4.9c8-5.2,13.8-12.9,18.7-21c5.5-9,10.4-18.5,15-28c4.9-9.9,9.4-20,13.7-30.1c8.5-20.2,15.8-41,22.4-61.9
	c6.5-20.5,13.2-42,9.1-63.7c-7-38.6-42.5-65.3-81.5-61.3c-4.6,0.5-9.2,1.4-13.6,2.7c-0.5,0.3-0.6,0.9-0.3,1.4
	C575.2,77.9,575.5,78.1,575.8,78.1L575.8,78.1z"/>
<path class="st1" d="M585,321.9c-9.6-1.8-20.7-3.3-28,3.2c-4.5,4-6.4,10.2-7.8,16.1c-2.5,11-3.8,22.3-3.9,33.7
	c0,4.9,0.5,10.4,4.4,13.3c1,0.8,2.2,1.2,3.5,1c2.3-0.5,3.2-3.3,3.6-5.6l3.8-20c-1.2,2.6,0,5.7,2.6,6.8c2.6,1.2,5.7,0,6.8-2.6
	c0.4-1,0.6-2.1,0.3-3.2c0.3,3.3,3.2,5.7,6.4,5.4c3.3-0.3,5.7-3.2,5.4-6.4c0-0.3-0.1-0.5-0.1-0.7c0.1,4.5,6.2,6.7,10.2,4.8
	s6.3-6.2,8.3-10.2c0.8-1.5,1.5-3.3,0.9-4.9s-3.5-1.9-3.9-0.3c6.9-7.8,6.2-19.7-1.6-26.6c-1.5-1.4-3.3-2.5-5.2-3.3"/>
<path d="M585.2,321.1c-7.6-1.6-16.2-3.2-23.7-0.2c-7.9,3.1-11.5,10.7-13.4,18.5c-2.4,9.9-3.8,20-4.2,30.2c-0.2,4.2-0.4,8.6,0.6,12.8
	c0.8,3.5,3.3,7.7,7.2,8.2c5.2,0.8,6.1-5.4,6.8-9.1l3.3-17.6c0.2-0.7-0.3-1.5-1-1.7c-0.7-0.2-1.4,0.2-1.6,0.9
	c-1.2,3.6,0.7,7.4,4.2,8.7c0.3,0.1,0.7,0.2,1,0.3c4.4,0.6,8-3.8,7.3-8c-0.3-1.8-2.9-1-2.7,0.7c0.7,4,4.5,6.8,8.5,6.2
	c4-0.7,6.6-4.9,5.9-8.8c-0.3-1.5-2.8-1.2-2.8,0.4c0.3,5.9,7.5,8.2,12.2,6c3-1.4,5.2-4,6.8-6.8c0.9-1.5,1.7-3,2.4-4.6
	c0.8-1.6,1.4-3.4,0.8-5.2c-0.9-2.9-5.7-3.8-6.7-0.5c-0.2,0.8,0.3,1.5,1,1.7c0.5,0.1,1,0,1.4-0.4c7.4-8.4,6.7-21.2-1.7-28.7
	c-1.6-1.4-3.4-2.6-5.3-3.4c-1.7-0.7-3.2,1.8-1.5,2.5c5,2.2,8.8,6.5,10.3,11.8c1.4,5.6,0,11.5-3.8,15.8l2.4,1.4c0-0.1,0.3-0.1,0.6,0
	c0.4,0.1,0.7,0.5,0.7,0.9c0.2,1.5-0.9,3.2-1.6,4.5c-1.2,2.6-2.8,4.9-4.8,6.9c-1.7,1.6-4.1,2.3-6.4,1.9c-1.9-0.5-3.9-1.7-4-3.9
	l-2.8,0.4c0.3,2.5-1.4,4.9-3.9,5.3c-2.6,0.2-4.8-1.7-5.1-4.3L569,365c0.5,2.4-2,5-4.5,4.5c-2.2-0.6-3.4-2.9-2.8-5.1
	c0-0.1,0.1-0.2,0.1-0.4l-2.7-0.7l-2.7,13.9c-0.4,2.2-0.8,4.4-1.3,6.6c-0.3,1.3-0.7,3.1-1.9,3.8c-1.6,1-3.5-0.8-4.4-2
	c-0.9-1.3-1.6-2.9-1.8-4.5c-0.8-3.7-0.5-7.7-0.3-11.5c0.4-9.2,1.6-18.3,3.5-27.2c1.5-7,3.7-14.7,10.5-18.4
	c7.2-3.9,16.2-2.5,23.9-1.2C585.8,323,586.3,321.4,585.2,321.1L585.2,321.1z"/>
<g>
	<path class="st0" d="M564.5,292.1c7.6-2.6,15.7-3.1,23.5-1.3c3.8,0.9,7.5,2.2,11,4.1c1.7,0.9,3.4,2,5,3.1c1.6,1.2,3.1,2.6,4.6,3.9
		c0.4,0.4,1.1,0.4,1.5,0c0.4-0.4,0.4-1.1,0-1.5c-2.2-2.4-4.8-4.4-7.6-6c-2.7-1.7-5.6-3-8.6-4.1c-6.1-2.1-12.6-2.9-19.1-2.3
		c-3.7,0.3-7.3,1.2-10.8,2.4C563,290.8,563.4,292.4,564.5,292.1L564.5,292.1z"/>
	<path class="st0" d="M575.5,253.2c14.2-1.2,28.3,2.4,40.2,10.2c3.4,2.2,6.5,4.7,9.4,7.6c0.4,0.4,1.2,0.4,1.6,0
		c0.1-0.1,0.2-0.3,0.3-0.5l0.5-2.9c0.2-1.4-1.9-2-2.2-0.6l-0.5,2.9l1.9-0.5c-10.5-10.2-24.2-16.6-38.8-18c-4.1-0.4-8.3-0.4-12.4,0
		C574.4,251.5,574.4,253.2,575.5,253.2L575.5,253.2z"/>
	<path class="st0" d="M583,211.6c16.7-1,35,0.9,47.6,13c3.1,3,5.6,6.5,7.5,10.4c0.6,1.3,2.5,0.2,1.9-1.1c-3.5-7-8.9-12.9-15.8-16.8
		c-7.6-4.5-16.2-6.6-25-7.3c-5.4-0.4-10.8-0.4-16.2,0.1C581.9,210,581.8,211.7,583,211.6L583,211.6z"/>
	<path class="st0" d="M595.3,170.2c8.8-2.5,17.9,0.4,26.1,3.7c7.8,3.2,15.8,6.9,21.5,13.3c3.1,3.3,5.1,7.4,6,11.9
		c0.2,1.3,2.3,0.8,2-0.6c-1.5-8.4-7.7-15.1-14.7-19.6c-3.9-2.4-8-4.4-12.2-6.1c-4.4-1.9-9-3.5-13.8-4.6c-5.1-1.2-10.4-1.1-15.4,0.2
		c-0.5,0.2-0.7,0.7-0.5,1.2C594.4,170,594.9,170.3,595.3,170.2L595.3,170.2z"/>
	<path class="st0" d="M598.7,130.2c18.2-2.2,36.6,1.3,52.7,10.1c4.5,2.5,8.9,5.3,12.9,8.5c1,0.8,2.5-0.6,1.5-1.5
		c-14.5-11.8-32.4-18.6-51.1-19.6c-5.3-0.3-10.6-0.1-15.9,0.6C597.6,128.6,597.6,130.3,598.7,130.2L598.7,130.2z"/>
	<path class="st0" d="M607.9,98.6c9-2.8,18.8-2.6,27.7,0.5c1.3,0.4,1.8-1.6,0.6-2c-9.3-3.2-19.4-3.3-28.7-0.3
		C606.3,97.2,606.8,98.9,607.9,98.6L607.9,98.6z"/>
	<path class="st0" d="M600.2,86.3c2.1-2.6,5.3-4,8.7-3.8c1.2,0.1,1.2-1.8,0-1.9c-3.8-0.2-7.6,1.4-10,4.4c-0.3,0.4-0.3,0.9,0,1.3
		C599.2,86.7,599.8,86.7,600.2,86.3L600.2,86.3z"/>
</g>
</svg>
