<?xml version="1.0" encoding="utf-8"?>
<!-- Generator: Adobe Illustrator 26.2.1, SVG Export Plug-In . SVG Version: 6.00 Build 0)  -->
<svg version="1.1" id="Capa_1" xmlns="http://www.w3.org/2000/svg" xmlns:xlink="http://www.w3.org/1999/xlink" x="0px" y="0px"
	 viewBox="0 0 1000 1000" style="enable-background:new 0 0 1000 1000;" xml:space="preserve">
<style type="text/css">
	.st0{fill:#FFFFFF;}
	.st1{fill:#0067B9;}
	.st2{fill:#E73164;}
	.st3{fill:#18C4FF;}
	.st4{fill:#002F6C;stroke:#002F6C;stroke-miterlimit:10;}
	.st5{fill:#002F6C;}
	.st6{fill:#3F67AE;}
</style>
<path class="st0" d="M491.4,519.5c11.4-6.6,25.8-6.2,38.3-2.1s23.7,11.4,34.8,18.6c36.5,23.5,74.1,45.1,112.8,64.9
	c6.8,3.5,13.9,7,21.6,7.9c8.4,0.9,16.7-1.3,24.9-3.6c47.1-12.8,94.6-23.6,142.6-32.6c2.5-0.5,5.3-0.9,7.5,0.4s3.2,3.7,4.1,6
	c5.2,14.5,5.9,30.1,2,45c-0.7,2.8-1.7,5.7-3.6,7.8s-4.8,3.5-7.5,4.8c-34.5,15.6-69,31.2-104.5,44.4c-16.4,6.1-33.2,11.7-50.5,14.5
	c-37.9,6.1-77-1.7-112.7-16s-68.3-35-100.7-55.6"/>
<path class="st1" d="M877.9,579c-0.8-2.3-1.9-4.8-4.1-6s-5-0.8-7.5-0.4c-47.9,8.9-95.5,19.8-142.6,32.5c-8.1,2.2-16.5,4.5-24.9,3.6
	c-7.7-0.9-14.7-4.4-21.6-7.9c-19.3-9.9-38.3-20.2-57.1-31c-13,15.8-23.8,33.2-30.3,52.6c28.7,6.6,56.7,16.3,84.5,26l68.6,23.8
	c7.6,2.7,15.3,5.3,22.9,8.1c24.8-9.3,49.1-19.7,73.2-30.5c7.3-13.8,16-26.9,26-39c5.2-6.4,10.6-12.7,16.1-18.9
	C880.5,587.6,879.4,583.2,877.9,579L877.9,579z"/>
<path class="st1" d="M879.2,578.6c-1.2-3.3-3-6.8-6.8-7.6s-8.3,0.6-12.1,1.3c-9,1.7-18,3.5-26.9,5.3c-17.9,3.7-35.8,7.6-53.6,11.8
	c-18,4.3-35.9,8.8-53.7,13.6c-8.7,2.3-17.6,5.2-26.7,4.3c-8.6-0.8-16.4-5.2-24-9c-18.4-9.5-36.6-19.4-54.6-29.7
	c-0.5-0.3-1.2-0.2-1.7,0.2c-13.1,15.9-24,33.6-30.6,53.2c-0.2,0.7,0.2,1.5,1,1.7c0,0,0,0,0,0c22.5,5.2,44.6,12.3,66.4,19.8
	c22.3,7.6,44.5,15.4,66.7,23.1c11.2,3.9,22.5,7.8,33.7,11.7c2.7,1,5.5,2,8.2,3c0.6,0.3,1.2,0.4,1.8,0.4c0.6-0.2,1.3-0.4,1.8-0.7
	l4.2-1.6c5.5-2.1,10.9-4.2,16.3-6.4c10.6-4.3,21.2-8.7,31.7-13.3c5.4-2.3,10.7-4.7,16.1-7.1c1.1-0.5,2.8-0.9,3.7-1.7s1.4-2.5,2-3.6
	c1.3-2.3,2.6-4.7,4-7c5.7-9.4,12-18.4,18.9-27c3.6-4.4,7.2-8.8,11-13.1c1.9-2.2,3.8-4.4,5.8-6.6c1-1.1,1-1.6,0.7-3s-0.5-2.8-0.9-4.2
	c-0.6-2.6-1.4-5.3-2.3-7.8c-0.6-1.7-3.3-0.9-2.7,0.7c1.5,4.2,2.6,8.6,3.4,13l0.3-1.3c-14,15.7-27.4,32-38,50.2
	c-1.3,2.2-2.5,4.5-3.7,6.8c-0.6,1.2-1.8,1.4-3,2l-3.9,1.7c-5,2.2-10,4.4-15.1,6.6c-10.1,4.4-20.3,8.6-30.5,12.8
	c-5.1,2-10.2,4-15.3,6l-3.7,1.4c-0.5,0.3-1.1,0.4-1.7,0.3c-0.7-0.2-1.5-0.5-2.2-0.8l-7.9-2.8c-10.6-3.7-21.2-7.4-31.8-11.1
	c-21-7.3-42-14.6-63-21.9c-20.6-7.1-41.3-13.9-62.5-19.2c-2.6-0.7-5.3-1.3-8-1.9l1,1.7c6.4-19.1,17.1-36.5,29.9-52l-1.7,0.2
	c15.8,9.1,31.8,17.9,48,26.3c7.4,3.9,14.9,8.2,22.9,10.9c8.5,2.8,17,2.4,25.5,0.4c8.9-2,17.6-4.7,26.4-7s17.3-4.5,26-6.6
	c17.8-4.3,35.6-8.4,53.5-12.2c9.9-2.1,19.8-4.1,29.7-6c5-1,10.1-2,15.2-2.9c2.1-0.4,4.5-0.9,6.5,0.2s2.7,3.2,3.4,5.1
	C877.1,581,879.8,580.3,879.2,578.6L879.2,578.6z"/>
<path d="M491.6,520c11.7-6.5,25.8-5.9,38.2-1.8c13.1,4.3,24.6,12.3,36.1,19.7c24.3,15.6,49.1,30.4,74.4,44.3
	c12.7,7,25.4,13.8,38.3,20.3c5.9,3,12,5.8,18.5,6.8c6.9,1.1,13.9-0.1,20.6-1.8c14.2-3.5,28.4-7.6,42.6-11.2
	c14.4-3.6,28.9-7,43.4-10.2c14.5-3.2,29-6.3,43.6-9.2c3.6-0.7,7.2-1.4,10.8-2.1c3.6-0.8,7.2-1.5,10.9-1.9c4.1-0.3,6.3,2,7.6,5.5
	c1.2,3.3,2.2,6.6,2.9,10c1.5,6.8,2,13.8,1.6,20.8c-0.2,3.6-0.7,7.1-1.4,10.6c-0.7,3.2-1.3,6.5-3,9.4c-1.8,3.1-4.9,4.8-8,6.2
	s-6.6,3-9.9,4.5c-6.7,3-13.3,6-20,9c-26.9,12-54.1,23.7-81.9,33.7c-13.6,4.9-27.4,9.2-41.7,11.6c-13.9,2.3-28.1,2.9-42.1,1.8
	c-28.3-2.1-55.8-10.3-81.7-21.7c-25.6-11.3-49.8-25.6-73.4-40.5c-5.8-3.6-11.5-7.3-17.3-11c-1-0.7-2,1-1,1.6
	c24.3,15.5,48.7,30.9,74.5,43.7c25.6,12.7,52.6,22.8,80.8,27.4c13.9,2.3,28.1,3.1,42.2,2.3c14.3-1,28.4-3.6,42.1-7.8
	c14.3-4.3,28.3-9.6,42.2-15.1s27.7-11.3,41.4-17.3c13.9-6,27.7-12.3,41.5-18.5c5.8-2.6,11.9-4.7,14.6-10.9c2.5-6,3.4-13,3.8-19.4
	c0.4-6.9-0.2-13.8-1.6-20.5c-0.7-3.4-1.7-6.8-2.9-10.1c-0.9-2.3-2-4.7-4.1-6.1c-2.4-1.5-5.4-1.1-8.1-0.7c-3.7,0.7-7.5,1.4-11.2,2.1
	c-7.3,1.4-14.7,2.9-22,4.4c-29.8,6.1-59.5,13-89,20.7c-7.3,1.9-14.7,3.9-22,5.9c-7.3,2-14.8,3.9-22.5,3.2
	c-7.3-0.7-14.1-3.9-20.6-7.2s-13.2-6.8-19.7-10.3c-26.3-14-52.1-28.8-77.4-44.5c-12.2-7.5-24-15.9-36.6-22.6
	c-11.5-6.1-24.2-10.5-37.4-9.4c-5.9,0.5-11.6,2.2-16.8,5.1c-0.2,0.2-0.3,0.5-0.1,0.7C491.2,520,491.4,520.1,491.6,520L491.6,520z"/>
<path class="st0" d="M308.8,731.3c-0.5-35.2-1-70.8,5.6-105.4c1.5-8.1,3.4-16.2,5.5-24.2c4.7-17.7,10.6-35.3,20.6-50.5
	c8.8-13.5,20.5-24.7,32.2-35.7c7-6.6,14.1-13.3,22.8-17.4c0,0,89.9,11.6,93,11.7S538,554,546.6,611.4s1.9,120,1.9,120"/>
<path d="M546.1,611.4c2.6,21.8,3.9,43.7,3.8,65.6c0,15.4-0.6,30.7-1.7,46.1c-0.2,2.8-0.4,5.5-0.7,8.3c-0.1,1.2,1.8,1.2,1.9,0
	c0-0.2,0,0,0,0.1l0.1-0.4c0.1-0.5,0.1-1,0.2-1.5c0.2-1.6,0.3-3.3,0.4-4.9c0.5-6,0.9-12,1.2-18.1c1-19.2,1-38.5-0.1-57.7
	c-0.7-12.6-2-25.2-4.1-37.7C547,610.7,546,610.8,546.1,611.4L546.1,611.4z"/>
<path d="M309.3,731.3c-0.1-18.4-0.3-36.8,0.5-55.1c0.6-18.3,2.8-36.6,6.3-54.5c1.8-8.8,4-17.5,6.5-26.1c2.3-8.2,5-16.2,8.3-24
	c3.2-7.8,7.3-15.2,12-22.2c4.9-6.9,10.4-13.4,16.4-19.3c5.8-6,11.9-11.8,18.1-17.5c3-2.8,6.2-5.5,9.5-8c1.6-1.2,3.3-2.3,5.1-3.4
	c0.9-0.5,1.8-1,2.7-1.5c0.2-0.1,1.1-0.6,0.8-0.5c1.1,0,2.1,0.1,3.1,0.4l7.7,1l24,3.1l28.1,3.6c7.5,0.9,14.9,1.9,22.4,2.8
	c2.1,0.2,4.1,0.5,6.2,0.7c0.4,0,0.9,0.1,1.3,0.1c0.2,0-0.1,0-0.1,0c0.3,0.1,0.6,0.3,0.8,0.5c0.9,0.6,1.7,1.3,2.5,2
	c2.8,2.4,5.3,5,7.8,7.7c0.8,0.9,2.1-0.4,1.3-1.3c-2.5-2.8-5.2-5.4-8-7.9c-1.2-1-2.6-2.6-4.3-2.8c-1.2-0.2-2.4-0.2-3.6-0.4
	c-6.5-0.8-13-1.6-19.6-2.4l-27.8-3.5l-26.4-3.4l-14.9-1.9c-0.3-0.1-0.5-0.1-0.8-0.1c-0.7,0.1-1.3,0.4-1.9,0.8c-1,0.5-1.9,1-2.9,1.6
	c-1.8,1-3.4,2.2-5.1,3.4c-6.7,5-12.7,10.9-18.8,16.7c-12.3,11.8-24,24.2-32.1,39.3s-13.1,31.8-17.2,48.4
	c-4.4,17.9-7.3,36.2-8.5,54.6c-1.3,18.6-1.3,37.2-1,55.8c0.1,4.5,0.2,9.1,0.3,13.7c0.1,0.3,0.4,0.4,0.6,0.4
	C309.1,731.7,309.2,731.5,309.3,731.3L309.3,731.3z"/>
<path class="st0" d="M391.6,501.9c-8.9-5.6-20-6.9-30.5-5.5s-20.4,5.1-30.3,8.9l-61,23.1c3.7-40.2,6.5-80.5,8.6-120.8
	c0.4-6.9,0.6-14.2-2.5-20.4c-6.3-12.7-23-15.2-37.1-16.1c-8.4-0.5-17.6-0.8-24.2,4.4c-4.8,3.8-7.2,9.8-9.5,15.5
	c-24.1,61-56,121-59.3,186.5c-0.6,12.5-0.1,25.5,5.5,36.7c4.2,8.5,11.1,15.2,18.1,21.6c9,8.2,18.7,15.9,29.9,20.8
	c10.6,4.7,22.3,6.6,33.9,7.6c51.9,4.3,103.8-9.2,146.9-38.4"/>
<path d="M391.9,501.4c-13.4-8.5-30-7.1-44.5-2.8c-8.3,2.5-16.3,5.7-24.4,8.8l-25,9.5l-28.3,10.7l1,0.8c2.2-24.4,4.2-48.9,5.8-73.4
	c0.8-12.2,1.6-24.4,2.2-36.6c0.3-5.8,0.8-11.6,0.8-17.4c0-5-0.7-10.1-3-14.6c-3.8-7.1-11.1-11.1-18.7-13.2c-8.6-2.2-17.4-3.2-26.3-3
	c-4.6-0.1-9.1,0.7-13.3,2.4c-4.2,2.1-7.7,5.5-9.8,9.6c-2.4,4.4-4,9.2-5.9,13.8c-2.1,5.2-4.2,10.3-6.3,15.4
	c-8.6,20.6-17.6,41-25.6,61.8s-15.1,41.7-19.7,63.4c-2.3,10.6-4,21.4-5,32.2c-0.9,10.7-1.5,21.7,0.6,32.2c0.9,5.2,2.7,10.2,5.2,14.8
	c2.6,4.5,5.7,8.7,9.3,12.5c7.3,7.7,15.3,14.7,24,20.8c8.9,6.3,19,10.8,29.7,13.1c11,2.5,22.3,3.3,33.5,3.5
	c22.8,0.4,45.6-2.6,67.6-8.9c5.4-1.6,10.8-3.3,16.1-5.2c1-0.4,0.6-1.9-0.4-1.6c-21,7.7-43.1,12.4-65.5,13.7
	c-11.2,0.7-22.3,0.5-33.5-0.5c-11-1-22.2-2.9-32.4-7.4c-9.7-4.3-18.4-10.8-26.4-17.8c-7.7-6.7-15.5-13.8-20.5-22.8
	c-5.2-9.5-6.5-20.4-6.4-31.1c0.2-10.7,1.1-21.4,2.9-32c3.4-21.2,9.3-41.8,16.4-62c7.3-20.5,15.8-40.6,24.2-60.6
	c4.2-9.9,8.4-19.8,12.4-29.8c1.9-4.8,3.7-9.7,5.9-14.4c2.1-4.4,4.8-8.5,9.1-10.9s9.2-2.9,13.9-2.9c4.5,0,9,0.3,13.5,0.8
	c8,0.8,16.6,2.4,23.3,7.1c3.5,2.4,6.3,5.8,7.8,9.8c1.9,4.9,2,10.3,1.8,15.5c-0.5,11.7-1.2,23.4-2,35.1c-1.5,23.7-3.2,47.4-5.3,71.1
	c-0.5,5.8-1,11.6-1.5,17.4c0,0.5,0.4,0.8,0.8,0.8c0.1,0,0.1,0,0.2,0l49-18.6c8-3,15.9-6.2,24-8.9c7.6-2.5,15.5-4.6,23.5-5
	c8.6-0.4,17.4,1.2,24.8,5.7C391.9,502.7,392.4,501.7,391.9,501.4L391.9,501.4z"/>
<path class="st1" d="M400.1,489.9c1.6-18.6,1.7-37.4,0.3-56c-0.1-1.1-1.8-1.1-1.7,0c1.5,18.6,1.6,37.4,0.3,56
	C398.9,490.6,400,490.6,400.1,489.9z"/>
<path class="st1" d="M141.5,624.4v-14.3c0-2.8-2.2-5-5-5c-3.2,0-5.8-2.4-6-5.6c-0.1-3.2,2.4-5.8,5.6-5.9c0,0,0.1,0,0.1,0h63.1
	c3.2,0,5.8,2.4,6,5.6c0.1,3.2-2.4,5.8-5.6,5.9c-0.1,0-0.1,0-0.2,0c-3.2,0-5.8,2.6-5.9,5.8v14.9c0,2.4,1.5,4.6,3.7,5.4
	c26.1,10.4,44.3,34.1,44.3,61.7c0,11.8-3.4,23.4-9.7,33.3c0,3.7-28.9,6.6-64.4,6.6s-64.4-3-64.4-6.6c-6.3-10-9.7-21.5-9.7-33.3
	c0-27.1,17.7-50.5,43.1-61.2C139.6,630.6,141.5,627.7,141.5,624.4L141.5,624.4z"/>
<path class="st2" d="M167,613.8c-5.7-18.5-12.6-36.7-20.5-54.4c-1.1,3.1-3,5.9-5.5,8.1l3.2-12.3c0.8-1.9,0.4-4.1-1-5.7
	c-4.2-6.5-9-12.6-14.2-18.3l-5.1,9.7l-0.2-13.7c0.1-1.3-0.1-2.5-0.6-3.7c-0.6-1-1.3-1.9-2.3-2.5c-4.3-3.5-9.3-6-14.3-8.4
	c-25.9-12.5-53-23.7-81.5-26.8c9.9,19.5,18.8,39.4,26.8,59.8c0.8,2.2,1.8,4.4,3.5,6c1.2,0.9,2.6,1.7,4.1,2.1
	c9.4,3.4,19.2,5.1,29.2,5.3l-24.2,6c8.4,10.1,18.8,18.4,30.5,24.3c1.7,1,3.6,1.6,5.5,1.9c2.2,0.1,4.5-0.2,6.6-1
	c5.5-1.8,10.7-4.1,15.6-7.1c-3.4,3.4-6.5,7-9.4,10.8c38.7-1.4,51.3,15.7,51.6,19.2"/>
<path class="st3" d="M167.5,613.7c-5.7-18.6-12.6-36.8-20.4-54.7c-0.3-0.7-1.2-0.3-1.4,0.2c-1.2,3-3,5.7-5.3,7.8l1.3,0.8l2.9-11.1
	c0.4-1.5,0.9-3.1,0.6-4.6c-0.5-1.6-1.3-3.1-2.4-4.4c-4-6-8.4-11.7-13.3-17c-0.3-0.3-0.8-0.3-1.2,0c-0.1,0-0.1,0.1-0.1,0.2l-5.1,9.8
	l1.5,0.4c-0.1-4.4-0.1-8.8-0.2-13.2c0-1.8,0-3.6-1-5.1c-1-1.4-2.3-2.5-3.7-3.5c-3.3-2.4-6.8-4.4-10.4-6.1c-3.7-1.8-7.4-3.6-11.1-5.3
	c-14.9-6.9-30.2-13.2-46.1-17.5c-8.9-2.5-18-4.2-27.1-5.3c-0.7-0.1-1,0.8-0.8,1.3c6.6,13,12.8,26.2,18.5,39.7
	c2.8,6.7,5.6,13.4,8.2,20.2c1,2.5,2.1,5.1,4.5,6.7c2.7,1.8,6.4,2.7,9.5,3.6c7.7,2.2,15.6,3.4,23.6,3.5l-0.3-2l-24.2,6
	c-0.5,0.1-0.9,0.7-0.7,1.2c0,0.2,0.1,0.4,0.3,0.5c5.7,6.9,12.4,12.9,19.8,18c3.7,2.6,7.6,4.9,11.7,6.9c2,1.1,4.3,1.7,6.5,1.7
	c2.3-0.2,4.6-0.7,6.8-1.6c5.1-1.7,10-4,14.6-6.7l-1.3-1.6c-3.4,3.4-6.6,7.1-9.6,11c-0.3,0.5-0.2,1.1,0.2,1.4
	c0.2,0.1,0.4,0.2,0.7,0.2c11.3-0.4,23,0.6,33.7,4.8c5.6,2.2,11,5.4,14.9,10c0.6,0.7,1.1,1.4,1.5,2.2l0.3,0.5c0,0.1,0.1,0.2,0.1,0.3
	c0.1,0.2,0.2,0.6,0.1,0.4c0.1,0.2,0,0.2,0,0.1c0.1,1.2,2.1,1.2,1.9,0c0-0.2,0-0.3-0.1-0.5c0-0.3,0.1,0.1-0.1-0.3s-0.2-0.7-0.4-1
	c-0.3-0.7-0.7-1.4-1.2-2c-1.5-2-3.3-3.8-5.3-5.3c-6.7-5.2-15-8.1-23.2-9.6c-7.4-1.3-14.9-1.8-22.4-1.5l0.9,1.6
	c2.8-3.7,5.9-7.3,9.2-10.6c0.5-0.3,0.5-1,0.2-1.4c-0.3-0.5-1-0.5-1.4-0.2c-3.9,2.3-8.1,4.3-12.4,5.9c-2.1,0.9-4.3,1.5-6.5,2
	c-2.4,0.3-4.9-0.1-7-1.3c-7.7-3.7-14.8-8.5-21.1-14.2c-3.6-3.2-6.9-6.6-10-10.3l-0.4,1.7l24.2-6.1c0.6-0.1,0.9-0.6,0.9-1.1
	c-0.1-0.6-0.6-0.9-1.1-0.9c-7-0.1-14-1-20.8-2.7c-3.4-0.8-6.7-1.8-9.9-3.2c-3-1.4-4.2-4-5.3-6.9c-5.1-13-10.6-25.8-16.5-38.5
	c-3.3-7.1-6.8-14.2-10.3-21.2l-0.8,1.4c15.8,1.8,31.2,6,46.1,11.5c7.5,2.8,14.8,5.9,22.1,9.1c7.1,3.2,14.3,6.4,21.1,10.3
	c1.9,1.1,3.7,2.3,5.4,3.6c0.9,0.6,1.7,1.4,2.4,2.3c0.5,1,0.8,2.1,0.8,3.2c0.2,4.8,0.2,9.5,0.2,14.3c0,0.5,0.4,0.8,0.8,0.8
	c0.3,0,0.6-0.2,0.7-0.4l5.1-9.8l-1.3,0.2c4.5,5,8.7,10.3,12.5,15.9c1,1.3,1.8,2.6,2.5,4.1c0.7,1.7-0.1,3.5-0.6,5.2l-2.7,10.4
	c-0.1,0.4,0.2,0.9,0.6,1c0.3,0.1,0.5,0,0.7-0.2c2.5-2.4,4.5-5.3,5.6-8.5l-1.4,0.2c8,17.6,14.9,35.7,20.6,54.2
	C166.6,614.7,167.7,614.4,167.5,613.7L167.5,613.7z"/>
<path class="st0" d="M141.5,624.4v-14.3c0-2.8-2.2-5-5-5c-3.2,0-5.8-2.4-6-5.6c-0.1-3.2,2.4-5.8,5.6-5.9c0,0,0.1,0,0.1,0h63.1
	c3.2,0,5.8,2.4,6,5.6c0.1,3.2-2.4,5.8-5.6,5.9c-0.1,0-0.1,0-0.2,0c-3.2,0-5.8,2.6-5.9,5.8v14.9c0,2.4,1.5,4.6,3.7,5.4
	c26.1,10.4,44.3,34.1,44.3,61.7c0,11.8-3.4,23.4-9.7,33.3c0,3.7-28.9,6.6-64.4,6.6s-64.4-3-64.4-6.6c-6.3-10-9.7-21.5-9.7-33.3
	c0-27.1,17.7-50.5,43.1-61.2C139.6,630.6,141.5,627.7,141.5,624.4L141.5,624.4z"/>
<path class="st4" d="M206.6,682.1c-8.6-25.2-22.4-48-38.4-69.1c-4.5-6-9.1-11.8-13.9-17.6c-0.5-0.7-1.5,0.3-0.9,0.9
	c16.6,20.3,32.3,41.6,43.7,65.3c3.2,6.7,6.1,13.6,8.6,20.7C205.9,683,206.8,682.7,206.6,682.1z"/>
<path class="st1" d="M142.9,624.4v-9c0-3.2,0.6-7.3-1.9-9.8c-1-1-2.3-1.6-3.6-1.8c-1.4-0.2-2.6-0.2-3.8-1.1
	c-1.9-1.5-2.2-4.2-0.7-6.1c0.2-0.3,0.5-0.6,0.9-0.8c1.4-1,3.1-0.8,4.7-0.8h59.5c2.3,0,4.7,0.3,5.7,2.8c0.9,2.3-0.2,4.8-2.5,5.7
	c-0.4,0.2-0.8,0.2-1.2,0.3c-2.8,0.2-5.2,1.1-6.6,3.7c-1.5,2.7-0.9,6.7-0.9,9.6s-0.1,5.9,0,8.8c0.1,3.1,2,5.8,4.9,6.8
	c2.8,1.2,5.6,2.5,8.3,4c5.3,2.9,10.2,6.5,14.6,10.6c8.6,8,14.9,18.3,18.1,29.6c3.6,13.1,2.7,27-2.5,39.5c-1.4,3.2-3,6.3-4.8,9.2
	l1.2-0.7c-0.8,0-1.4,0.6-1.4,1.4c0-0.2,0.1,0,0.1-0.3c0,0.1,0.1,0,0,0c0,0-0.5,0.4-0.1,0.1c-0.2,0.1-0.3,0.2-0.5,0.3
	c-0.7,0.4-1.5,0.7-2.3,0.8c-3,0.8-6,1.4-9,1.7c-9.8,1.2-19.7,2-29.7,2.2c-13,0.5-25.9,0.5-38.9,0.2c-10.5-0.3-20.9-0.8-31.3-2
	c-3.7-0.4-7.4-1-11-1.8c-1-0.2-2-0.6-2.9-1l-0.4-0.2c-0.4-0.2,0.1,0-0.2-0.1s0-0.2-0.1-0.1s0.1,0.3,0.1,0.3c0-0.8-0.6-1.4-1.4-1.4
	l1.2,0.7c-9.3-14.8-11.9-33-7-49.8c4.3-14.5,14.1-27.1,26.5-35.6c3.7-2.5,7.5-4.7,11.6-6.5c2-0.9,3.9-1.7,5.3-3.4
	C142.1,628.7,142.8,626.6,142.9,624.4c0-1.8-2.7-1.8-2.8-0.1c0,2-0.9,3.8-2.4,5.1c-1.4,1.2-3.5,1.8-5.2,2.6
	c-3.7,1.8-7.2,3.8-10.5,6.2c-6.5,4.5-12.2,9.9-16.9,16.2c-9.7,12.8-14.2,28.8-12.7,44.7c0.5,5.3,1.7,10.6,3.6,15.6
	c0.9,2.4,1.9,4.8,3.1,7.1c0.6,1.1,1.2,2.3,1.8,3.3c0.5,0.9,1.1,2.5,2.3,2.5l-1.4-1.4c0.1,1.9,2.2,2.7,3.7,3.2
	c2.8,0.9,5.7,1.5,8.6,1.8c10.3,1.4,20.6,2.2,31,2.5c13.6,0.5,27.1,0.6,40.7,0.2c10.8-0.3,21.7-0.8,32.5-2.2c3.6-0.4,7.2-1,10.8-2
	c1.7-0.5,4.4-1.3,4.4-3.5l-1.4,1.4c1.4,0,2.3-2.5,2.9-3.6c0.9-1.6,1.7-3.3,2.5-4.9c1.5-3.3,2.7-6.8,3.7-10.3
	c1.8-7,2.4-14.2,1.8-21.4c-1.1-12.1-5.6-23.7-13-33.3c-7.6-9.9-17.6-17.7-29-22.8c-2.6-1.2-5.7-2-5.8-5.4c0-1.1,0-2.3,0-3.4v-10.9
	c-0.1-1.9,0.9-3.7,2.6-4.6c1.2-0.6,2.6-0.3,3.9-0.7c1.4-0.4,2.6-1.2,3.5-2.3c3.9-4.8,0.1-11.5-5.8-11.7c-4.2-0.1-8.4,0-12.5,0h-46
	c-1.5,0-2.9,0-4.4,0c-5,0.1-8.8,5.2-6.6,10c1.3,2.9,4,4.1,7,4.3c2,0.1,3.6,1.9,3.4,4c0,0,0,0,0,0v10.9v3c0.1,0.8,0.9,1.2,1.6,1.1
	C142.3,625.5,142.8,625,142.9,624.4L142.9,624.4z"/>
<path class="st1" d="M103.2,726.3c-6.3-10-9.7-21.5-9.7-33.3c0-8,1.6-16,4.6-23.5c12.1,0.2,24.2,3.7,36.2,2
	c7.8-1.1,15.2-4.4,23.1-4.9c9.3-0.6,18.3,2.9,27.5,4.3c17.3,2.7,35-1.8,52.3-1c3,7.3,4.5,15.2,4.5,23.1c0,11.8-3.4,23.4-9.7,33.3
	c0,3.7-28.9,6.6-64.4,6.6S103.2,730,103.2,726.3L103.2,726.3z"/>
<path class="st1" d="M103.2,724.9l1.2,0.7c-8.1-12.8-11.1-28.1-8.6-43c0.8-4.4,2-8.6,3.7-12.7l-1.3,1c9.3,0.2,18.4,2.2,27.7,2.4
	c4.5,0.1,9-0.3,13.4-1.3c4.3-1,8.5-2.3,12.8-3.2c4.5-0.9,9.1-1,13.6-0.4c4.5,0.6,8.9,1.8,13.3,2.7c9,1.8,18.1,2.4,27.2,1.7
	c10.4-0.6,20.8-2,31.2-1.5l-1.3-1c5.7,14.2,5.9,30,0.4,44.3c-1.5,3.8-3.3,7.5-5.5,11l1.2-0.7c-0.8,0-1.4,0.6-1.4,1.4
	c0-0.2,0.1,0,0.1-0.3c0,0.1,0.1,0,0,0c0,0-0.5,0.4-0.1,0.1c-0.2,0.1-0.3,0.2-0.5,0.3c-0.7,0.4-1.5,0.7-2.3,0.8c-3,0.8-6,1.4-9,1.7
	c-9.8,1.2-19.7,2-29.7,2.2c-13,0.5-25.9,0.5-38.9,0.2c-10.5-0.3-20.9-0.8-31.3-2c-3.7-0.4-7.4-1-11-1.8c-1-0.2-2-0.6-2.9-1l-0.4-0.2
	c-0.4-0.2,0.1,0-0.2-0.1s0-0.2-0.1-0.1s0.1,0.3,0.1,0.3c-0.1-1.8-2.8-1.8-2.8,0s2.2,2.7,3.7,3.2c2.8,0.9,5.7,1.5,8.6,1.8
	c10.3,1.4,20.6,2.2,31,2.5c13.6,0.5,27.1,0.6,40.7,0.2c10.8-0.3,21.7-0.8,32.5-2.2c3.6-0.4,7.2-1,10.8-2c1.7-0.5,4.4-1.3,4.4-3.5
	l-1.4,1.4c0.8,0,1.2-0.6,1.5-1.2c0.6-0.9,1.1-1.8,1.6-2.8c0.9-1.7,1.8-3.4,2.5-5.1c1.6-3.6,2.9-7.4,3.8-11.2
	c1.8-7.9,2.1-16.1,0.9-24.2c-0.7-4.7-2-9.3-3.8-13.7c-0.2-0.6-0.7-1-1.3-1c-18.4-0.8-36.9,4-55.2,0.5c-8.8-1.7-17.6-4.7-26.7-3.6
	c-8.8,1-17.1,4.8-26.1,5.2c-10.5,0.4-20.8-2.2-31.2-2.4c-0.6,0-1.2,0.4-1.3,1c-6.2,15.4-6.2,32.6,0.1,47.9c0.8,2,1.8,4,2.8,5.9
	c0.5,0.9,1,1.9,1.6,2.8s0.9,2,2,2c0.8,0,1.4-0.6,1.4-1.4C104.6,725.6,103.9,725,103.2,724.9L103.2,724.9z"/>
<path class="st5" d="M155,596.5c-9.1-11.1-18.9-21.6-29-31.8c-11.2-11.3-22.8-22.2-35-32.3c-5.7-4.8-11.7-9.4-17.8-13.6
	c-0.7-0.5-1.4,0.7-0.7,1.2c11.8,8,22.6,17.4,33.1,27c11.7,10.7,22.9,21.8,33.8,33.4c5.1,5.5,10.1,11.1,14.9,16.8
	C154.7,597.6,155.3,596.9,155,596.5L155,596.5z"/>
<g>
	<path class="st0" d="M90.4,559.7c6.5-2.7,13.7-2.4,20.7-2.2c0.7,0,0.7-1.1,0-1.1c-7.1-0.3-14.4-0.5-21,2.4
		C89.6,559.1,90,559.9,90.4,559.7L90.4,559.7z"/>
	<path class="st0" d="M104.5,566.3c3-1,6.2-1.3,9.4-0.9c0.7,0.1,0.7-1,0-1.1c-3.3-0.3-6.5,0-9.7,1.1
		C103.7,565.6,103.9,566.5,104.5,566.3z"/>
	<path class="st0" d="M113,571.7l1.8,0.3c0.1,0,0.3,0,0.4-0.1c0.1-0.1,0.2-0.2,0.2-0.4c0-0.1,0-0.3-0.1-0.4
		c-0.1-0.1-0.3-0.2-0.4-0.2l-1.8-0.2c-0.1,0-0.3,0-0.3,0.1c-0.1,0.1-0.1,0.2-0.1,0.3C112.6,571.4,112.8,571.6,113,571.7L113,571.7z"
		/>
	<path class="st0" d="M100.3,514.1c-0.8,5.4-1.2,10.9-1.1,16.3c0,0.3,0.3,0.6,0.6,0.6s0.6-0.3,0.6-0.6c-0.1-5.3,0.2-10.7,0.9-16
		C101.3,513.8,100.4,513.5,100.3,514.1L100.3,514.1z"/>
	<path class="st0" d="M107.2,517.6c-0.3,6.1-0.6,12.2-0.9,18.2c0,0.7,1.1,0.7,1.1,0c0.3-6.1,0.5-12.2,0.7-18.2
		C108.2,517,107.3,517,107.2,517.6L107.2,517.6z"/>
	<path class="st0" d="M114.9,537.7c0.3,0,0.6-0.4,0.5-0.7c0-0.3-0.3-0.5-0.5-0.5c-0.3,0-0.6,0.4-0.5,0.7
		C114.4,537.5,114.6,537.7,114.9,537.7z"/>
	<path class="st0" d="M33.8,494.1c10,6.5,19.6,13.4,28.8,20.9c0.5,0.4,1.2-0.3,0.7-0.7c-9.3-7.5-19-14.5-29-21
		C33.8,492.9,33.3,493.8,33.8,494.1L33.8,494.1z"/>
	<path class="st0" d="M68.5,517.6l0.8-0.4c0.2-0.1,0.5-0.2,0.8-0.4c0.3-0.2,0.4-0.5,0.2-0.8c-0.1-0.1-0.1-0.2-0.2-0.3
		c-0.1-0.1-0.3-0.1-0.5-0.1c-0.6,0.2-1.1,0.5-1.7,0.8c-0.1,0.1-0.2,0.2-0.3,0.4c0,0.2,0,0.3,0.1,0.5
		C67.8,517.7,68.2,517.8,68.5,517.6L68.5,517.6z"/>
	<path class="st0" d="M141.9,574.1c0.1-1.2,0.4-2.3,0.8-3.5c0.1-0.3-0.1-0.6-0.4-0.7s-0.6,0.1-0.7,0.4c-0.4,1.2-0.7,2.5-0.7,3.7
		c0,0.3,0.2,0.5,0.5,0.5S141.9,574.4,141.9,574.1L141.9,574.1z"/>
	<path class="st0" d="M145.5,579.2c0.5-4.2,1.1-8.3,1.7-12.5c0.1-0.7-0.9-1-1-0.3c-0.8,4.2-1.2,8.5-1.6,12.7
		C144.6,579.8,145.4,579.8,145.5,579.2L145.5,579.2z"/>
	<path class="st0" d="M150.3,581.9l0.8-2.6c0.1-0.3-0.1-0.5-0.3-0.6c-0.3-0.1-0.5,0.1-0.6,0.3l-0.8,2.6c-0.1,0.2,0.1,0.5,0.3,0.6
		c0,0,0,0,0,0C150,582.3,150.3,582.2,150.3,581.9L150.3,581.9z"/>
	<path class="st0" d="M123.6,583.2c2.7-1.9,6-3,9.3-3.1c0.3,0,0.5-0.3,0.5-0.6c0-0.2-0.2-0.4-0.5-0.5c-3.5,0-7,1.2-9.8,3.2
		C122.6,582.7,123.1,583.6,123.6,583.2z"/>
	<path class="st0" d="M132,584.7l1-0.2c0.1,0,0.3-0.1,0.4-0.3c0.1-0.1,0.1-0.3,0.1-0.5c0-0.1-0.1-0.3-0.3-0.3
		c-0.1-0.1-0.3-0.1-0.4-0.1l-1,0.3c-0.1,0-0.3,0.1-0.4,0.3c-0.1,0.1-0.1,0.3-0.1,0.5c0,0.1,0.1,0.3,0.3,0.3
		C131.7,584.7,131.8,584.7,132,584.7L132,584.7z"/>
</g>
<g>
	<path class="st2" d="M772.2,302.2c9.4,30.4,11.1,64.5-2.8,93.1c-10,20.5-27.2,36.6-44.9,51c-25.7,21-53.2,39.7-77.7,62
		c-24.5,22.3-46.4,48.8-56.9,80.2c28.7,6.6,56.7,16.3,84.5,26l68.6,23.9c28,9.7,56.2,19.6,81.1,35.7c-0.5-35.8,18.5-69.2,41-97
		s49.2-52.5,68.7-82.6c35.4-54.9,43.6-123.2,40.6-188.5c-71.5-7.1-146.5-21.2-216.2-38.9c2.4,6.6,10.2,24.2,12.7,30.9"/>
	<path class="st2" d="M771.6,302.4c6.9,22.5,9.7,46.8,4.8,69.9c-2.4,11.4-6.8,22.3-13.1,32.1c-6.3,9.7-13.9,18.5-22.4,26.3
		c-18,17.1-38.4,31.5-58,46.6c-19.2,14.7-38.1,29.9-54.5,47.6c-15.1,16.3-28.2,34.7-36.6,55.4c-1.1,2.6-2,5.2-2.9,7.9
		c-0.2,0.6,0.2,1.2,0.8,1.4c32.2,7.5,63.3,18.6,94.5,29.5l48,16.7c14.9,5.2,29.8,10.2,44.5,15.9c16.3,6.4,32.3,13.7,47,23.2
		c0.5,0.3,1.1,0.2,1.4-0.3c0.1-0.2,0.2-0.4,0.2-0.6c-0.3-26.8,10.2-52.1,24.6-74.2c15-23.2,34.3-43.1,52.6-63.7
		c18-20.3,34.5-41.6,46.2-66.1c11.2-23.7,18.4-49.1,22.5-74.9c4.2-26.1,5.4-52.7,4.7-79.2c-0.1-3.3-0.2-6.7-0.4-10
		c0-0.4-0.4-0.8-0.8-0.8c-28.5-2.8-56.9-6.7-85.2-11.4S833,283.5,805,277.3c-15.5-3.5-31-7.2-46.5-11.1c-0.6-0.1-1.4,0.4-1.1,1.1
		c3.9,10.4,8.8,20.4,12.6,30.9c0.4,1.1,2.2,0.6,1.8-0.5c-3.9-10.4-8.8-20.4-12.7-30.9l-1.1,1.1c27.7,7,55.6,13.3,83.7,18.9
		c28.3,5.6,56.8,10.4,85.4,14.4c15.7,2.1,31.5,4,47.3,5.6l-0.8-0.8c1.2,26.7,0.5,53.6-3.1,80.1c-3.6,26.3-10.1,52.4-20.8,76.8
		c-5.3,12.1-11.7,23.7-19,34.7c-7.9,11.5-16.6,22.5-25.9,32.9c-17.9,20.5-37.1,39.9-52.7,62.3c-14.7,21.2-26.4,45.3-28.7,71.3
		c-0.3,3.3-0.4,6.6-0.4,9.9l1.5-0.9c-26.2-16.9-55.8-27-85.1-37.2c-31.8-11-63.5-22.4-95.5-33c-17.8-5.9-35.7-11.3-53.9-15.5
		l0.8,1.4c7.4-21.9,20.3-41.4,35.5-58.6c16.2-18.2,35.1-33.8,54.4-48.7c19.6-15.2,39.9-29.6,58.1-46.4
		c16.8-15.5,31.2-33.7,37.4-56.1s4.6-46.3-1.1-68.6c-0.7-2.8-1.5-5.6-2.4-8.4C772.5,301.2,771.3,301.6,771.6,302.4L771.6,302.4z"/>
</g>
<path d="M478.2,355.2c1.3,7.4,4.3,14.5,8.9,20.5c2.3,3,4.9,5.7,7.9,8c2.7,2.2,6.2,4.7,7.1,8.3c0.8,2.9-1.2,7.9-4.9,7.1l0.5,1.1
	c0.1-0.1,0.8,0.8,0.9,0.9c0.3,0.6,0.5,1.2,0.7,1.8c0.4,1.2,0.9,2.4,1.3,3.5c0.8,2.4,1.6,4.8,2.3,7.2c1.4,4.9,2.6,9.8,3.5,14.9
	c0.9,4.7,1.8,9.6,0.1,14.3c-1.5,3.5-3.9,6.5-7.1,8.6c-3.6,2.5-7.6,4.5-11.9,5.8c-1,0.4-0.6,2,0.5,1.6c8-2.8,16.9-7.2,20.1-15.5
	c1.9-5.1,0.8-10.6-0.1-15.8c-1.1-5.8-2.5-11.5-4.3-17.1c-1-3.1-2-6.2-3.2-9.3c-0.6-1.4-2.6-3.9-4-1.8c-0.2,0.4-0.1,0.8,0.3,1.1
	c0.1,0,0.1,0.1,0.2,0.1c3.1,0.6,5.5-1.5,6.5-4.3c1.2-3.4,0-6.6-2.2-9.2c-2.6-3.1-6.2-5.3-9.1-8.2c-3.1-3.1-5.7-6.5-7.8-10.4
	c-2.4-4.3-4.1-8.9-5-13.7C479,354.3,478.1,354.6,478.2,355.2L478.2,355.2z"/>
<path d="M474.1,375.7c-0.6,0.5-0.9,1.2-1,2c0,0.8,0.4,1.5,1,1.9c0.7,0.3,1.6,0.2,2.2-0.3c0.6-0.6,0.8-1.4,0.7-2.2
	c-0.2-0.8-0.8-1.5-1.6-1.8c-0.9-0.2-1.8,0.2-2.2,1.1c-0.3,0.6-0.5,1.4-0.4,2.1c0.1,0.8,0.7,1.4,1.5,1.5c1.1,0.1,2-0.7,2.2-1.8
	c0.1-0.5,0.1-0.9-0.1-1.4c-0.2-0.5-0.6-1-1.1-1.1c-0.2,0-0.4,0-0.5,0c-0.2,0.1-0.3,0.2-0.4,0.4c-0.3,0.6-0.5,1.2-0.5,1.9
	c-0.1,0.6,0.1,1.3,0.6,1.7c0.4,0.3,0.9,0.3,1.3,0.1c0.3-0.2,0.6-0.5,0.7-0.9c0.2-0.7,0.2-1.3,0-2c-0.1-0.5-0.6-0.7-1.1-0.6
	c-0.1,0-0.2,0.1-0.3,0.2c-0.5,0.4-0.6,1.1-0.5,1.7c0.1,0.4,0.5,0.7,0.9,0.6c0.4-0.1,0.7-0.4,0.7-0.8c0-0.2,0-0.4-0.1-0.6
	c-0.1-0.3-0.4-0.6-0.8-0.6c-0.4,0-0.7,0.2-0.8,0.6c-0.1,0.2-0.1,0.4-0.1,0.6l1.7-0.2v-0.1c0,0,0,0.2,0,0.1v-0.1c0,0,0,0.2,0,0.1
	c0,0.1,0,0,0,0s0.1-0.1,0,0s0,0,0,0l-1.4-0.4l0.1,0.3c0,0,0,0.1,0,0.1c0-0.1,0-0.2,0-0.1s0,0.1,0,0.1v0.3c0,0,0,0.1,0,0.1
	s0-0.1,0-0.1s0,0.1,0,0.1s0,0.2-0.1,0.3s0.1-0.2,0,0s0.1-0.1,0.1-0.1s0.3-0.1,0.1-0.1c0.2,0,0.3,0,0.5,0.1c-0.1-0.1,0.1,0.1,0.1,0.1
	s0.1,0.1,0,0c0,0,0-0.1,0-0.1c0.1,0.1,0.1,0.2,0,0s0-0.1,0-0.1s0,0.2,0,0.1c0-0.1,0-0.2,0-0.3c0,0,0-0.1,0-0.1c0,0,0-0.1,0-0.1
	c0-0.1,0,0,0,0.1s0.1-0.5,0.1-0.6l0.1-0.3c0.1-0.2-0.1,0.2,0,0l0.1-0.1l-1,0.4h0.1c0.1,0,0,0.1-0.1,0h0.1l-0.1-0.1c0,0,0.1,0.1,0,0
	s0,0,0,0v0c0.1,0.1-0.1-0.2,0,0s0,0.1,0,0.1s0,0,0,0.1s0-0.1,0-0.1c0,0.1,0,0.1,0,0.2v0.2c0,0,0,0,0,0.1c0-0.2,0-0.1,0-0.1
	s0,0.1,0,0.2v0.1c0,0.1,0.1-0.2,0-0.1l0,0.1c0,0.1-0.1,0.1,0,0c0,0-0.1,0.1-0.1,0.1c-0.1,0.1,0.1-0.1,0,0h-0.1c-0.1,0.1,0.1,0,0.1,0
	s-0.3,0.1-0.1,0s0,0-0.1,0c0.2,0,0.2,0,0.1,0h-0.1c0,0,0.2,0.1,0.1,0h-0.1c0,0-0.1-0.1,0,0s0,0,0,0s-0.1-0.2,0,0l-0.1-0.1v-0.1
	c0-0.1,0.1,0.2,0,0.1c0-0.1,0-0.1,0-0.2c0,0,0-0.1,0-0.1s0,0.1,0,0.1V378c0-0.1,0-0.2,0-0.3c0,0,0,0,0-0.1s0,0.1,0,0.1s0-0.1,0-0.2
	s0-0.2,0.1-0.3c0,0,0-0.1,0-0.1c0-0.1-0.1,0.2,0,0.1v-0.1c0,0,0-0.1,0.1-0.1l0-0.1c0.1-0.1-0.1,0.1,0,0l0.1-0.1c0.1-0.1-0.1,0-0.1,0
	l0.1,0h0.1c0,0-0.2,0.1-0.1,0h0.1h0h0.4c0,0-0.2,0-0.1,0h0.2c0.1,0-0.1-0.1-0.1,0h0.1l0.1,0.1c0.1,0.1-0.1-0.1,0,0
	c0.1,0,0.1,0.1,0.1,0.1c0.1,0.1-0.1-0.1,0,0s0.1,0.1,0.1,0.2v0.1c0,0.1,0,0,0-0.1c0,0.1,0.1,0.2,0.1,0.4s0,0.1,0,0s0,0,0,0
	c0,0.1,0,0.1,0,0.2c0,0.1,0,0.1,0,0.2c0,0.2,0.1-0.1,0,0l-0.1,0.2c0,0.1,0.1-0.1,0-0.1v0c0,0-0.1,0.1-0.1,0.1c0,0,0.1-0.1,0,0h0
	c0,0-0.1,0-0.2,0.1h0.1h-0.1h-0.1c-0.1,0,0.2,0,0.1,0h-0.1c0,0-0.2,0-0.1,0s0,0,0,0h-0.1c-0.1,0,0,0,0,0c0,0-0.1,0-0.1,0h-0.1
	c-0.1-0.1,0.1,0.1,0,0l-0.1-0.1c0,0,0.1,0.1,0,0l-0.1-0.1c0,0,0,0,0-0.1s0,0,0,0.1s0-0.1,0-0.2v-0.1v0v-0.1c0-0.1,0-0.1,0-0.2v-0.1
	c0-0.1,0-0.1,0.1-0.2c0,0,0-0.1,0,0l0.1-0.1c0-0.1,0.1-0.1,0.1-0.2c0-0.1,0.1-0.1,0.1-0.2l0.1-0.1c0.1-0.1,0,0,0-0.1
	c0.2-0.2,0.2-0.5,0-0.7C474.6,375.6,474.3,375.6,474.1,375.7L474.1,375.7z"/>
<path d="M474.2,380.9c1.5-0.6,3-1,4.6-1.2c0.3,0,0.6-0.2,0.6-0.6c0-0.3-0.2-0.6-0.6-0.6c-0.1,0-0.1,0-0.2,0
	c-1.7,0.3-3.3,0.8-4.8,1.5C473.4,380.2,473.7,381,474.2,380.9L474.2,380.9z"/>
<path d="M470.3,361.4c-1.7,0.7-3.4,1.5-5,2.5c-0.8,0.4-1.6,1-2.1,1.8c-0.5,0.8-0.5,1.9,0.1,2.6c0.8,0.9,2.2,0.5,3.4,0.1
	c2.3-0.9,4.5-1.9,6.6-3c0.4-0.2,0.7-0.4,1-0.6c1-0.8,1.1-2.3,0.2-3.3c-0.2-0.3-0.5-0.5-0.9-0.6c-0.6-0.3-1.3-0.1-1.7,0.4"/>
<path d="M470.1,360.9c-1.2,0.5-2.5,1-3.6,1.6c-1.1,0.5-2.2,1.1-3.1,1.8c-0.8,0.6-1.4,1.6-1.4,2.7c-0.1,1.1,0.6,2.1,1.6,2.5
	c1,0.3,2.1,0.2,3.1-0.2c1.2-0.4,2.4-1,3.6-1.5s2.4-1.1,3.6-1.7c1.1-0.5,1.8-1.5,2-2.6c0.1-1.2-0.5-2.4-1.5-3c-1-0.7-2.3-0.4-3,0.5
	c-0.4,0.7,0.6,1.6,1.2,0.9c0.4-0.5,1.1-0.1,1.4,0.3c0.5,0.6,0.5,1.4,0,2c-0.7,0.6-1.4,1-2.3,1.3c-0.9,0.4-1.7,0.8-2.6,1.2
	s-1.8,0.8-2.6,1.1c-0.7,0.3-1.4,0.4-2.1,0.4c-0.6-0.2-0.9-0.8-0.7-1.3c0,0,0-0.1,0-0.1c0.3-0.7,0.8-1.3,1.4-1.6
	c1.8-1.2,3.6-2.2,5.6-3.1C471.1,361.7,470.7,360.8,470.1,360.9L470.1,360.9z"/>
<path d="M482.6,407.9c0.9,2.6,3.1,4.6,5.7,5.4c0.4,0.1,0.8-0.1,0.9-0.5c0.1-0.4-0.1-0.8-0.5-0.9c0,0,0,0,0,0c-1.1-0.3-2.1-0.9-3-1.6
	c-0.9-0.8-1.6-1.7-2.2-2.8c-0.2-0.2-0.5-0.3-0.7-0.1C482.6,407.5,482.5,407.7,482.6,407.9z"/>
<path class="st6" d="M449.1,357c0.3,4-0.9,8.1-3.4,11.3c-1.2,1.5-2.7,3-3.1,4.9c-0.2,1.1-0.2,2.2,0,3.2l1.4,11.6
	c-0.3-4.2-4.9-7.4-9.1-6.8s-7.5,4.4-8.2,8.6c-0.5,4.3,1,8.6,4,11.6c3.1,3,6.9,5.1,11,6c0.7,4.1,1.2,8.7-1.4,11.9
	c-1.2,1.3-2.6,2.4-4.2,3.2c-9.3,5.3-19,10-29,14.1c-1.8,0.9-3.8,1.3-5.7,1.4c-2.8-0.1-5.4-1.7-7.5-3.6c-8-6.9-12.5-16.7-16.8-26.3
	c-3.1-7-6.2-14.1-7.5-21.7c-2-12,1.2-24.4,7.6-34.6c5.9-9.3,17-21.6,29.3-19.9c1,0.2,2,0.3,3,0.1c0.8-0.3,1.6-0.9,2.2-1.5
	c5.5-5.1,13-7.7,20.4-9s15-1.3,22.5-1.9c6.5-0.5,13-1.5,19.4-2.8c4.9-1,10.6-2.1,14.3,1.2c3,2.8,3.3,7.5,0.5,10.6
	c-1.1,1.2-2.6,2-4.2,2.3c4,0,6,5.8,3.8,9.2s-6.9,4.3-10.9,3.7c2.8,0,6.6,1,6.5,3.8c-0.1,2.6-3.4,3.5-5.9,3.7
	c-10,0.8-20,1.2-30.1,1.5l0.9,2.6"/>
<path class="st6" d="M448.6,357c0.2,2.8-0.4,5.5-1.6,8c-1.1,2.4-3.1,4-4.4,6.2s-0.8,5-0.5,7.6c0.3,3.1,0.7,6.1,1,9.2
	c0.1,1,1.7,1,1.6,0c-0.4-3.2-2.5-5.8-5.4-7c-3.1-1.3-6.6-0.7-9.2,1.4c-6.3,4.9-5.3,13.9-0.3,19.4c3.1,3.4,7.4,5.4,11.7,6.5l-0.6-0.6
	c0.7,4.4,1.3,9.6-2.8,12.6c-2,1.4-4.1,2.6-6.4,3.7c-2.3,1.3-4.6,2.5-6.9,3.6c-4.7,2.4-9.4,4.5-14.2,6.6c-2.3,1.1-4.7,2-7.2,2.7
	c-2.5,0.5-5-0.1-7-1.6c-3.8-2.8-7-6.2-9.5-10.2c-2.5-3.8-4.7-7.8-6.6-12c-4.2-8.8-8.6-18.1-10-27.8c-1.2-9.7,0.5-19.5,4.9-28.2
	c3.6-7.6,9-14.2,15.6-19.3c3.1-2.4,6.7-4.1,10.6-4.9c2-0.3,4-0.3,6,0c2.4,0.3,3.7-0.8,5.4-2.3c7.2-6.4,17.2-8.4,26.5-9.2
	c5.3-0.5,10.6-0.6,15.9-1c5.2-0.4,10.3-1.1,15.4-2c4.3-0.8,9-2.4,13.4-1.5s7.4,5.4,5.2,9.6c-1,1.8-2.7,3.1-4.8,3.5
	c-1.1,0.2-0.8,1.8,0.3,1.9c3.3,0.2,4.5,4.6,3.2,7.1c-1.7,3.6-6.6,4.3-10.1,3.8l-0.3,2.1c1.5,0,6.7,0.8,5.1,3.4
	c-0.6,1.1-2.2,1.5-3.4,1.7c-1.9,0.3-3.8,0.4-5.7,0.5c-4.3,0.3-8.5,0.5-12.8,0.7c-4.3,0.2-8.6,0.2-12.9,0.5c-0.6,0-1.3,0.6-1,1.3
	l1,2.5c0.4,1,2.1,0.7,1.7-0.5l-0.8-2.6l-1,1.3c5.3,0.1,10.6-0.2,15.8-0.5c5-0.2,10.2-0.3,15.2-1c2.9-0.4,6.8-2,6.1-5.6
	c-0.6-3.2-4.8-4-7.5-4c-1.2,0-1.5,2-0.3,2.1c4.7,0.6,11-0.5,12.8-5.6c1.4-3.9-0.9-9.1-5.3-9.3l0.2,1.9c4.2-0.9,7.1-4.8,6.8-9
	c-0.5-4.4-3.9-7.2-8.1-7.8c-4.7-0.6-9.5,1-14.2,1.8c-5.7,1-11.5,1.7-17.4,2c-10.6,0.7-21.5,0.7-31.4,4.9c-2.3,1-4.4,2.2-6.4,3.6
	c-0.9,0.6-1.8,1.3-2.6,2c-1.2,1-2,2-3.7,1.8c-2.1-0.3-4.3-0.3-6.4-0.1c-2,0.3-4,0.9-5.9,1.8c-7.7,3.5-13.8,10.4-18.3,17.4
	c-5.6,8.4-8.8,18.3-9,28.4c-0.1,10.8,4.1,20.7,8.4,30.4c4,8.9,8.3,18,15.5,24.8c3.6,3.4,7.7,5.9,12.7,4.4c2.6-0.8,5.1-1.9,7.6-3
	c2.6-1.1,5.2-2.3,7.8-3.5c5.1-2.4,10-5,14.9-7.7c2.1-1.2,4.4-2.3,5.9-4.2c1.3-1.7,2-3.7,2.1-5.8c0.1-2.3-0.1-4.6-0.5-6.9
	c-0.1-0.3-0.3-0.5-0.6-0.6c-4.2-0.9-8-3.1-11-6.1c-2.8-3-4.4-7.5-3.4-11.5c0.9-3.5,4-6.8,7.8-7c3.5-0.2,7.2,2.4,7.6,6.1h1.6
	c-0.3-3-0.7-6-1.1-8.9c-0.3-1.5-0.4-3-0.5-4.5c0.1-1.5,0.6-2.9,1.6-4c1.6-1.8,2.8-3.9,3.8-6.1c0.9-2.4,1.2-4.9,1-7.5
	C449.5,356.4,448.6,356.3,448.6,357L448.6,357z"/>
<path d="M436.2,391.8L436.2,391.8C436.3,391.8,436.3,391.8,436.2,391.8l0.2-0.2c0.1-0.1,0,0,0,0s0.2-0.1,0.1-0.1
	c0.1,0,0.2-0.1,0.3-0.1c-0.1,0,0,0,0,0h0.5c0,0-0.1,0,0,0l0.4,0.1h0.1c0,0-0.1,0,0,0l0.2,0.1l0.1,0.1l0.1,0.1c0,0-0.1-0.1,0,0
	c0.1,0.1,0.2,0.2,0.3,0.3c0.1,0.1,0,0,0.1,0.1l0.1,0.2c0.1,0.1,0.2,0.3,0.2,0.4c0,0,0.1,0.2,0,0.1c0,0.1,0.1,0.2,0.1,0.2
	c0.1,0.3,0.2,0.6,0.3,0.9s0.1,0.3,0.1,0.5c0,0.1,0,0.1,0,0.2c0,0.2,0,0.1,0,0v0.1l0.1-0.2c0,0-0.1,0.1,0,0c0-0.1,0.1-0.1,0.2-0.1
	c-0.1,0,0,0,0.1,0c-0.1,0-0.1,0,0,0s-0.1-0.1,0,0s-0.1-0.1,0.1,0.1c0,0,0,0,0,0l0,0c0,0,0-0.1,0,0s0,0,0-0.1s0,0.1,0,0
	s0-0.1,0.1-0.1s0.1-0.1,0.2-0.2c0.2-0.3,0.1-0.8-0.3-1c-0.2-0.1-0.5-0.1-0.7,0c-0.9,0.6-1,2.3,0.2,2.7c0.5,0.2,1.1,0,1.4-0.5
	c0.2-0.5,0.2-1.1,0-1.6c-0.2-0.9-0.5-1.8-1.1-2.5c-0.5-0.6-1.3-1-2.1-1.1c-0.9-0.1-1.7,0.4-2.1,1.1c-0.1,0.2-0.1,0.5,0.2,0.7
	s0.5,0.1,0.7-0.2L436.2,391.8z"/>
<path d="M484.8,486.7c0-4.7,0.2-9.3,0.6-14c0.2-2.3,0.5-4.7,0.8-7c0.3-2.1,0.3-4.6,1.3-6.5c0.2-0.4,0-1-0.4-1.2
	c-0.4-0.2-0.8-0.1-1.1,0.3c-1.1,1.6-1.1,3.9-1.4,5.8c-0.3,2.5-0.5,5-0.7,7.6c-0.3,5-0.4,10-0.2,15c0.1,0.3,0.4,0.4,0.7,0.3
	C484.5,487,484.7,486.9,484.8,486.7L484.8,486.7z"/>
<path class="st1" d="M394.7,475.3l93.5,13.2c1.9,0.3,4,0.6,5.1,2.2s1,3.5,0.7,5.3c-1.1,8.9-3,17.6-5.6,26.2
	c-0.2,0.8-0.6,1.6-1.2,2.2c-0.9,0.5-2,0.6-3.1,0.3c-24.2-3.8-48.4-7.5-72.2-13.4c-6.7-1.6-13.3-3.6-19.8-6.1
	c-1.6-0.6-3.3-1.5-3.8-3.1c-0.2-1.1-0.1-2.2,0.2-3.2l5.5-21.4c0.8-3,2.3-6.8,5.5-6.9l0.5,16"/>
<path class="st1" d="M394.5,475.9l53.9,7.8l26.9,3.9c4.4,0.6,8.8,1.2,13.1,1.9c1.7,0.3,3.8,0.7,4.5,2.5s0.1,4.3-0.2,6.2
	c-0.6,4.3-1.4,8.5-2.4,12.7c-0.5,2.1-1,4.2-1.5,6.3c-0.3,1-0.5,2-0.8,3c-0.2,1-0.5,2-1,3c-0.7,1.1-2,0.8-3.2,0.6l-3.4-0.5l-6.5-1
	c-4.4-0.7-8.7-1.4-13.1-2.1c-17.5-2.9-35-6.1-52.2-10.5c-4.2-1.1-8.3-2.3-12.4-3.7c-1.9-0.6-3.7-1.3-5.4-2.2c-0.7-0.4-1.3-1-1.6-1.8
	c-0.4-1.2,0.2-2.5,0.5-3.6l3.3-12.9l1.7-6.7c0.3-1.6,0.9-3.1,1.6-4.6c0.6-1.4,1.8-2.3,3.2-2.6l-0.9-0.9c0.2,5.3,0.3,10.7,0.6,16
	c0,0.4,0.4,0.7,0.9,0.7c0.4,0,0.6-0.3,0.7-0.7c0-5.3-0.2-10.7-0.4-16c0-0.5-0.4-0.9-0.9-0.9c-3.2,0.2-4.9,3-5.8,5.8
	c-1.5,4.2-2.3,8.8-3.4,13.1l-1.8,7.1c-0.5,1.9-1.5,4.3-1,6.3c0.5,1.5,1.6,2.7,3,3.3c1.9,0.9,3.9,1.7,5.9,2.4
	c8.9,3.1,18.1,5.2,27.3,7.2c9.4,2.1,18.9,3.9,28.4,5.5s19,3.2,28.5,4.6c1.9,0.3,4.2,1,6.1,0.6s2.4-2.1,2.9-3.7
	c1.4-4.5,2.5-9.1,3.5-13.7c1-4.4,1.7-8.9,2.2-13.5c0.3-1.8-0.2-3.6-1.4-5.1c-1.2-1.1-2.8-1.8-4.4-2c-4.7-0.8-9.5-1.3-14.3-2l-14.6-2
	c-19.5-2.7-38.9-5.3-58.4-8l-7.2-1C394.1,474.6,393.8,475.7,394.5,475.9L394.5,475.9z"/>
<path d="M480.3,461.7c2.4-1,4.9-1.9,7.4-2.6c0.9-0.3,0.5-1.7-0.4-1.5c-2.6,0.8-5.1,1.8-7.6,3c-0.3,0.2-0.4,0.5-0.2,0.8
	C479.7,461.8,480,461.8,480.3,461.7L480.3,461.7z"/>
<path class="st1" d="M484.6,479.6c5.6,0.6,11,2.6,15.6,5.7c1.1,0.6,2,1.5,2.7,2.6c1.1,1.9,0.7,4.4,0.2,6.5
	c-1.7,7.8-3.4,15.6-5.1,23.4l-6.8-8.6c-1.4-1.7-2.6-3.5-3.5-5.6c-0.6-1.7-2.2-2-2.4-3.9C484.8,492.9,485.2,485.4,484.6,479.6"/>
<path class="st1" d="M484.5,480c1.9,0.5,3.9,0.8,5.9,1.4c1.9,0.6,3.7,1.3,5.4,2.1c1.7,0.8,3.2,1.7,4.7,2.8c1.7,1.2,2.6,3.2,2.3,5.3
	c-0.3,2.2-0.7,4.3-1.3,6.4l-1.4,6.3l-2.9,13.2l1.4-0.4c-2.5-3.2-5-6.3-7.4-9.5c-1.1-1.4-1.9-2.8-2.6-4.4c-0.5-1.2-1.6-1.8-2.1-2.9
	c-0.3-0.8-0.4-1.6-0.3-2.4c-0.1-0.9-0.1-1.8-0.1-2.7c-0.1-1.8-0.1-3.6-0.2-5.5c-0.1-3.4-0.1-6.8-0.4-10.2c-0.1-1-1.7-1-1.6,0
	c0.3,3.5,0.3,7.1,0.4,10.6c0,2,0.1,4,0.2,5.9c0.1,1.5-0.1,3.5,0.6,4.9c0.6,1.2,1.7,1.9,2.3,3.2c0.7,1.6,1.6,3.1,2.7,4.5
	c2.5,3.2,5,6.5,7.6,9.7c0.3,0.3,0.9,0.3,1.2,0c0.1-0.1,0.2-0.2,0.2-0.4l3.2-14.6c0.5-2.4,1.1-4.9,1.6-7.3c0.6-2,0.9-4.2,0.8-6.3
	c-0.5-3.9-4.7-6-7.9-7.5c-3.6-1.7-7.9-3.2-11.9-3.1c-0.3,0-0.5,0.2-0.5,0.5C484.2,479.8,484.3,479.9,484.5,480L484.5,480z"/>
<path class="st0" d="M864.5,577c-6,8.2-8.9,18.3-8,28.5c0.6,6.7,3.5,14,9.7,16.6c3.7,1.5,7.9,1.1,11.6-0.2c3.7-1.5,7.1-3.5,10.3-5.9
	c8.5-6,17.2-12.6,23.4-21c6.4-8.8,8.8-20.4,9.1-31c0.4-15.5-1.6-34.8-11.9-47.1c-1.1-1.4-2.5-2.5-4.1-3.2c-1.7-0.7-3.6-0.4-5,0.8
	c-2,1.9-1.2,5.2,0.1,7.6c-1.5-2.4-3.6-4.6-6.3-5.3s-6.1,1-6.5,3.8c-0.3,2.6,1.9,4.8,3.8,6.5c-1.4-2.2-3.8-3.7-6.4-3.9
	c-2.7-0.1-5.1,1.4-6.2,3.8c-1.3,3.2,0.6,6.8,2.4,9.7c-1.8-1.6-3.6-3.2-5.9-3.8s-5.1,0.1-6.2,2.2c-0.4,1-0.6,2.1-0.5,3.2
	c0.1,4,1.1,7.9,2.8,11.4c1.4,2.9,3.3,5.8,3.1,9c-0.2,2.2-1.3,4.1-2.4,6l-6.7,11.1"/>
<path d="M864,576.8c-4.5,5.9-7.3,12.8-8.2,20.1c-0.8,6.5-0.3,13.8,3.1,19.6c1.4,2.6,3.6,4.6,6.2,6c3.3,1.5,7,1.8,10.5,0.9
	c3.7-1,7.3-2.7,10.4-5c3.2-2.1,6.3-4.4,9.3-6.7c6.1-4.6,11.9-9.7,16.5-15.9c4.3-5.9,7.1-12.8,8.3-20c1.2-6.8,1.6-13.7,1.2-20.6
	c-0.2-6.8-1.2-13.7-2.9-20.3c-1.6-6.4-4.4-12.4-8.3-17.7c-2-2.5-4.6-5.2-8.1-4.9c-2.8,0.2-4.8,2.6-4.6,5.4c0,0.1,0,0.3,0,0.4
	c0.2,1.5,0.7,2.9,1.4,4.2l1.5-0.9c-2.5-3.8-7-7.6-11.6-5c-1.8,1-2.9,2.9-2.8,5c0.3,2.5,2.3,4.4,4.1,6c0.7,0.6,1.9-0.2,1.3-1
	c-2.5-3.8-7.7-5.8-11.7-2.9c-4.9,3.4-2.5,9.3,0,13.4l1.4-1.1c-2.5-2.3-5.5-4.7-9.1-4.2c-1.4,0.1-2.7,0.8-3.7,1.8
	c-1,1.3-1.5,3-1.3,4.7c0.1,4.1,1.1,8.2,2.9,11.9c1,1.8,1.9,3.6,2.6,5.5c0.7,2.1,0.4,4.3-0.6,6.2c-1.1,2.3-2.5,4.4-3.8,6.6l-4.2,6.9
	c-0.2,0.4-0.1,0.9,0.3,1.1c0.4,0.2,0.9,0.1,1.1-0.3l6.6-10.8c1.8-3,3.3-5.9,2.4-9.5s-3.3-6.6-4.4-10.1c-0.6-1.9-1-3.8-1.2-5.8
	c-0.2-1.7-0.4-3.9,0.9-5.2c3.2-3.1,7.6,0.5,10,2.7c0.7,0.6,1.9-0.2,1.4-1.1c-1.9-3.2-4.5-8.2-0.7-11c3.2-2.4,7.4-0.8,9.4,2.3l1.3-1
	c-1.4-1.2-3-2.5-3.5-4.3c-0.5-1.7,0.4-3.6,2.1-4.2c3.8-1.7,7.1,1.6,9,4.5c0.2,0.4,0.8,0.5,1.2,0.3s0.5-0.8,0.3-1.2l0,0
	c-1.5-2.5-2.2-7.2,2-7.4c3.4-0.2,5.8,3.3,7.5,5.8c3.4,5,5.8,10.7,7.2,16.6c1.5,6,2.3,12.2,2.5,18.4c0.4,6.2,0.1,12.5-0.8,18.7
	c-0.9,6.6-3.1,13-6.5,18.7c-3.7,5.9-8.8,10.8-14.2,15.2c-2.7,2.2-5.6,4.4-8.5,6.4c-2.9,2.2-5.9,4.1-9,5.9c-6,3.2-13.7,4.1-18.7-1.4
	c-4.6-5.1-5.4-12.8-4.9-19.4c0.6-7.7,3.2-15.2,7.7-21.5c0.3-0.5-0.5-1-0.8-0.5L864,576.8z"/>
<path d="M887.9,551.1c-1-5.8-3.5-11.2-7.3-15.7c-0.7-0.8-1.7,0.3-1.1,1.1c3.5,4.4,6.1,9.4,7.5,14.8
	C887.1,551.9,888,551.7,887.9,551.1L887.9,551.1z"/>
<path d="M899,544c0-1.7-0.3-3.4-1-5c-0.7-1.6-1.3-3.2-2-4.8c-0.7-1.6-1.4-3.2-2.3-4.7c-0.8-1.6-1.7-3-2.9-4.3
	c-0.3-0.3-0.7-0.3-0.9,0c-0.2,0.2-0.3,0.6-0.1,0.8c0.8,1.4,1.8,2.7,2.7,4.1s1.6,2.8,2.2,4.3s1.3,3,2,4.5c0.8,1.6,1.3,3.3,1.4,5.1
	c0,0.3,0.2,0.5,0.5,0.5S899.1,544.3,899,544L899,544z"/>
<path d="M907.4,540.7c0.5-3.4-0.8-6.8-2-9.9c-1.3-3.2-2.8-6.2-4.5-9.2c-0.2-0.2-0.5-0.3-0.7-0.1c-0.2,0.2-0.3,0.4-0.2,0.7
	c1.5,2.9,3,5.9,4.2,9s2.6,6.2,2.3,9.6C906.4,541.4,907.3,541.3,907.4,540.7L907.4,540.7z"/>
<path d="M265.6,561.5c1.5-5.6,2.7-11.3,3.5-17c0.4-2.7,0.7-5.4,0.9-8.1c0.4-3,0.5-5.9,0.3-8.9c0-0.4-0.4-0.6-0.7-0.6
	c-0.3,0-0.5,0.3-0.6,0.6c-0.3,2.8-0.2,5.6-0.4,8.4s-0.5,5.6-0.8,8.4c-0.7,5.7-1.7,11.3-3.1,16.9c-0.1,0.3,0.1,0.5,0.3,0.6
	C265.2,561.9,265.5,561.7,265.6,561.5L265.6,561.5z"/>
<path class="st0" d="M216.6,384.8c-9.8-11.7-14.7-26.7-13.9-42c-1.7,2-3.8,3.7-6.1,5c-1.4,0.8-3.2,1.3-4.5,0.5s-1.4-3-1.2-4.7
	c0.7-5.7,2.5-11.3,5.2-16.4c2-3.7,5.5-7.7,9.6-6.6c1.6-3.1,3.6-6.1,6.6-7.9s7-2.2,9.8-0.1c1.2-4.1,5.5-6.5,9.6-5.4
	c1.9,0.5,3.5,1.7,4.5,3.4c1.9-4.6,7.4-7,12.3-6.2s9.1,4.1,11.9,8.2s4.4,8.8,6,13.6c0.3,1.1,0.7,2.2,1.3,3.1c0.9,1.2,1.8,2.3,2.9,3.4
	c5.2,5.8,6.4,14.3,5.1,22s-4.4,15-6.8,22.4c-1.1,3.6-2.2,7.3-4.6,10.2c-3,3.5-7.7,5.2-12.4,5.4s-9.2-0.8-13.7-1.8l-21.3-4.9"/>
<path d="M217,384.5c-9.2-11.9-14.3-26.5-13.4-41.6c0-0.4-0.4-0.8-0.8-0.8c-0.2,0-0.4,0.1-0.5,0.2c-1.2,1.5-2.6,2.7-4.1,3.8
	c-1.4,0.9-3.6,2.5-5.3,1.6s-1.1-3.3-0.9-4.8c0.3-2,0.7-3.9,1.2-5.8c1-3.7,2.4-7.2,4.3-10.5c1.7-2.8,4.6-6.1,8.2-5.3
	c0.3,0.1,0.7-0.1,0.9-0.4c1.5-3,3.4-5.9,6.3-7.6c2.7-1.8,6.2-1.8,9-0.1c0.4,0.2,0.9,0.1,1.1-0.3c0-0.1,0.1-0.1,0.1-0.2
	c1.1-3.7,5-5.8,8.7-4.7c1.6,0.5,3,1.5,3.9,2.9c0.3,0.5,1.2,0.6,1.5,0c1.7-4,6-6.1,10.2-5.9c4.8,0.2,9,3.4,11.8,7
	c3.2,4.1,4.9,9.2,6.4,14.1c0.7,2.3,1.9,4.4,3.5,6.1c1.6,1.6,3,3.5,4,5.5c4.5,9.4,1.6,20.1-1.6,29.4c-0.9,2.6-1.9,5.2-2.7,7.8
	c-0.8,2.4-1.5,4.8-2.4,7.1c-0.9,2.4-2.3,4.5-4.2,6.2c-1.9,1.5-4.1,2.5-6.5,3c-6.2,1.5-12.6-0.3-18.6-1.7l-19.6-4.5
	c-1-0.2-1.4,1.2-0.4,1.5c6.3,1.4,12.6,2.9,18.9,4.3c5.9,1.4,12,3,18.1,2.3c4.8-0.6,9.5-2.6,12.3-6.7c1.4-2.2,2.5-4.7,3.2-7.2
	c0.9-2.8,1.9-5.7,2.9-8.5c3.6-10,7.2-21.1,3.4-31.6c-0.8-2.2-1.9-4.2-3.3-6c-0.8-1-1.8-1.9-2.7-2.9c-1-1.1-1.7-2.5-2.2-3.9
	c-1.8-5.2-3.5-10.6-6.9-15.1c-3.2-4.2-7.9-7.6-13.3-7.9c-4.8-0.2-9.8,2.3-11.7,6.8h1.4c-2.5-4-7.9-5.3-11.9-2.7
	c-1.8,1.1-3.1,2.9-3.7,5l1.2-0.5c-3-1.9-6.9-2-10-0.3c-3.5,1.8-5.8,5.2-7.5,8.6l0.9-0.4c-6.9-1.5-10.8,7-12.8,12.2
	c-1.4,3.7-2.4,7.5-2.9,11.4c-0.3,2.6,0.2,6.1,3.6,6.1c1.8-0.2,3.6-0.9,5-2.1c1.7-1.1,3.2-2.5,4.5-4l-1.3-0.6
	c-0.9,15.1,4.1,31,14.3,42.3C216.7,385.6,217.2,384.9,217,384.5L217,384.5z"/>
<path d="M240.4,368c-0.4-7.2,3.8-13.9,10.4-16.8l-1-1.2c-1.1,1.2-3.4-0.6-4.5-1.2c-1.4-0.9-2.6-2-3.6-3.3c-2.2-3.2-0.8-7,2-9.3
	s6.7-3.7,10.1-4.9c1.9-0.7,3.8-1.2,5.8-1.5c1-0.1,2-0.2,3-0.3h1.4l0.9,0c0.5,0.2,0.6,0.1,0.4-0.2l0.3-0.6h0.2l0.8,0.4l-0.1-0.1
	c-0.6-1-2-0.1-1.5,0.9c0.3,0.6,1.1,0.7,1.7,0.4c0.4-0.2,0.6-0.6,0.6-1.1c-0.1-1.8-3.1-1.5-4.3-1.5c-4.6,0.3-9.1,1.4-13.4,3.4
	c-3.6,1.5-7.4,3.3-9.4,6.8c-1.9,3.2-1.3,7.2,1.3,9.8c1.5,1.5,3.1,2.7,5,3.6c1.5,0.8,3.5,1.3,4.7-0.1c0.3-0.3,0.4-0.8,0.1-1.1
	s-0.8-0.4-1.1-0.1l0,0c-7,3.2-11.2,10.5-10.6,18.1C239.5,368.6,240.5,368.6,240.4,368L240.4,368z"/>
<path d="M204.8,329.6c-1.2,3.7-1.8,7.6-1.6,11.5c0.3,2.7,2.2,6,5.5,5.4c1.4-0.4,2.5-1.3,3.2-2.6c1.1-1.6,2-3.2,2.9-4.9
	c1.8-3.4,3.2-7,4.4-10.6h-1.5c0.5,3-0.9,6.2,0.4,9.1c1,2.3,3.4,3.6,5.9,3.3c6.2-0.5,9.2-8,10.8-13.1l-1.5-0.2c0,2.4,0.8,5.8,3.9,5.3
	c1.6-0.2,3-1.5,4.3-2.4c1.5-1.2,2.9-2.5,4.2-3.9c0.6-0.7-0.4-1.8-1.1-1c-1.8,1.9-3.8,3.6-5.9,5c-1,0.7-2.5,1.3-3.3,0
	c-0.4-0.9-0.6-2-0.5-3c0-0.4-0.4-0.8-0.8-0.7c-0.3,0-0.6,0.2-0.7,0.5c-1.4,4.3-4,11.5-9.3,12c-2.3,0.4-4.4-1.2-4.8-3.5
	c0-0.1,0-0.3,0-0.4c-0.2-2.4,0.5-4.8,0.1-7.3c-0.1-0.8-1.3-0.7-1.5,0c-0.9,2.9-2,5.8-3.3,8.5c-0.6,1.3-1.3,2.6-2.1,3.9
	c-0.7,1.3-1.5,2.6-2.5,3.7c-1,1.1-2.6,1.1-3.7,0.2c-0.1-0.1-0.2-0.2-0.3-0.3c-1-1.2-1.4-2.8-1.2-4.4c0.1-3.3,0.5-6.6,1.2-9.8
	c0-0.3-0.1-0.5-0.4-0.6C205.1,329.2,204.9,329.3,204.8,329.6L204.8,329.6z"/>
<path d="M217,384.5c-9.2-11.9-14.3-26.5-13.4-41.6c0-0.4-0.4-0.8-0.8-0.8c-0.2,0-0.4,0.1-0.5,0.2c-1.2,1.5-2.6,2.7-4.1,3.8
	c-1.4,0.9-3.6,2.5-5.3,1.6s-1.1-3.3-0.9-4.8c0.3-2,0.7-3.9,1.2-5.8c1-3.7,2.4-7.2,4.3-10.5c1.7-2.8,4.6-6.1,8.2-5.3
	c0.3,0.1,0.7-0.1,0.9-0.4c1.5-3,3.4-5.9,6.3-7.6c2.7-1.8,6.2-1.8,9-0.1c0.4,0.2,0.9,0.1,1.1-0.3c0-0.1,0.1-0.1,0.1-0.2
	c1.1-3.7,5-5.8,8.7-4.7c1.6,0.5,3,1.5,3.9,2.9c0.3,0.5,1.2,0.6,1.5,0c1.7-4,6-6.1,10.2-5.9c4.8,0.2,9,3.4,11.8,7
	c3.2,4.1,4.9,9.2,6.4,14.1c0.7,2.3,1.9,4.4,3.5,6.1c1.6,1.6,3,3.5,4,5.5c4.5,9.4,1.6,20.1-1.6,29.4c-0.9,2.6-1.9,5.2-2.7,7.8
	c-0.8,2.4-1.5,4.8-2.4,7.1c-0.9,2.4-2.3,4.5-4.2,6.2c-1.9,1.5-4.1,2.5-6.5,3c-6.2,1.5-12.6-0.3-18.6-1.7l-19.6-4.5
	c-1-0.2-1.4,1.2-0.4,1.5c6.3,1.4,12.6,2.9,18.9,4.3c5.9,1.4,12,3,18.1,2.3c4.8-0.6,9.5-2.6,12.3-6.7c1.4-2.2,2.5-4.7,3.2-7.2
	c0.9-2.8,1.9-5.7,2.9-8.5c3.6-10,7.2-21.1,3.4-31.6c-0.8-2.2-1.9-4.2-3.3-6c-0.8-1-1.8-1.9-2.7-2.9c-1-1.1-1.7-2.5-2.2-3.9
	c-1.8-5.2-3.5-10.6-6.9-15.1c-3.2-4.2-7.9-7.6-13.3-7.9c-4.8-0.2-9.8,2.3-11.7,6.8h1.4c-2.5-4-7.9-5.3-11.9-2.7
	c-1.8,1.1-3.1,2.9-3.7,5l1.2-0.5c-3-1.9-6.9-2-10-0.3c-3.5,1.8-5.8,5.2-7.5,8.6l0.9-0.4c-6.9-1.5-10.8,7-12.8,12.2
	c-1.4,3.7-2.4,7.5-2.9,11.4c-0.3,2.6,0.2,6.1,3.6,6.1c1.8-0.2,3.6-0.9,5-2.1c1.7-1.1,3.2-2.5,4.5-4l-1.3-0.6
	c-0.9,15.1,4.1,31,14.3,42.3C216.7,385.6,217.2,384.9,217,384.5L217,384.5z"/>
<g>
	<path class="st0" d="M800.6,332.8c4.9,2,11.3,4.4,16.3,1.3c3.4-2.1,5.7-6.5,3.6-10.4c-0.2-0.4-0.7-0.5-1.1-0.3
		c-0.1,0.1-0.2,0.1-0.3,0.3c-3.4,5-3.8,14,2.3,17.2c4.7,2.5,11.8,0.2,12.5-5.5c0.1-0.8-1-1.1-1.5-0.6c-1.6,1.7-1,4.2,0.6,5.6
		c0.7,0.7,1.7,1.1,2.8,1.1c0.8,0,2.2-0.6,1.8-1.7c-0.1-0.5-0.6-0.8-1.1-0.6c-0.1,0-0.1,0-0.2,0.1c-0.5,0.4-0.7,1-0.6,1.6
		c0.2,1,1.4,1.2,2.3,1.5c2.8,1,5.7,1.9,8.6,2.8c5.9,1.9,11.8,3.6,17.8,5.2c12,3.2,24,5.9,36.2,8c6.8,1.2,13.6,2.3,20.4,3
		c0.7,0.1,0.9-1.2,0.2-1.3c-11.2-1.6-22.4-3.4-33.5-5.7s-21.9-5.2-32.7-8.4c-3-0.9-6.1-1.9-9.1-2.9c-1.5-0.5-3-1-4.5-1.5l-2.2-0.8
		c-0.4-0.2-0.7-0.3-1.1-0.4c-0.6-0.1-0.3-0.1-0.9,0.3l-1.3-0.5l0.4-0.8c-1.8,1-4-2-2.7-3.5l-1.5-0.6c-0.5,4.6-7,6-10.4,3.8
		c-5-3.1-4.1-10.5-1.4-14.7h-1.3c2,3.4-0.7,7.5-3.8,9c-4.6,2.2-10.1,0-14.5-1.7C800.3,331.5,800,332.5,800.6,332.8L800.6,332.8z"/>
	<path class="st0" d="M917.7,379c0.8-0.1,1.3-0.7,1.3-1.5c-0.1-0.7-0.6-1.2-1.3-1.3c-0.8,0.1-1.3,0.7-1.3,1.5
		C916.5,378.4,917,378.9,917.7,379z"/>
	<path class="st0" d="M805.9,371.1c9.3,1,18.4,2.9,27.3,5.8c4.4,1.4,8.7,3.2,13,4.9c3.7,1.5,7.7,2.7,11.7,2.1c3.6-0.5,7.3-2.5,8.8-6
		c0.3-0.7-0.5-1.6-1.2-0.9c-3.3,3.3-2.7,9.5,1.3,12s9.8,0.3,11.4-4l-1.5-0.2c0.2,3.1,2.9,4.9,5.6,5.9c2,0.7,4,1.3,6.1,1.7l6.9,1.8
		c9.3,2.4,18.7,4.9,28,7.3c0.3,0.1,0.7-0.1,0.8-0.4c0.1-0.3-0.1-0.7-0.4-0.8c-8.5-2.3-17-4.6-25.5-6.9l-12.7-3.4
		c-2.7-0.7-6.9-1.9-7.2-5.2c0-0.4-0.4-0.8-0.8-0.8c-0.4,0-0.7,0.2-0.8,0.6c-1.3,3.4-6,5.2-9.1,3.1s-3.6-7-1-9.6l-1.2-0.9
		c-1.4,3.3-4.6,5.1-8.1,5.5c-4.2,0.5-8.3-1.1-12.1-2.6c-12.5-5.3-25.8-8.7-39.4-9.9C805.2,370.1,805.2,371.1,805.9,371.1
		L805.9,371.1z"/>
	<path class="st0" d="M934.7,403.5l-0.5-1c-0.1-0.2-0.2-0.3-0.4-0.3c-0.1,0-0.2,0-0.3,0c-0.1,0-0.2,0-0.2,0.1
		c-0.2,0.1-0.3,0.2-0.3,0.4v0.2c0,0.1,0,0.2,0.1,0.4l0.5,1c0,0.1,0.1,0.1,0.2,0.2c0.1,0.1,0.1,0.1,0.2,0.1c0.1,0,0.2,0,0.3,0
		c0.1,0,0.2,0,0.3-0.1c0.2-0.1,0.3-0.2,0.3-0.4v-0.2C934.8,403.7,934.8,403.6,934.7,403.5L934.7,403.5z"/>
	<path class="st0" d="M793.6,406.5c6.1,3.8,14,6,21.2,4.6c3.1-0.5,5.9-2.2,7.7-4.8c1.6-2.4,1.7-5.5,0.3-8c-0.2-0.3-0.7-0.5-1-0.3
		c-0.1,0-0.1,0.1-0.1,0.1c-4.1,4.5-4.2,11.7-0.6,16.6c1.7,2.4,4.4,4,7.3,4.4c2.9,0.3,5.9-0.6,7.4-3.2c0.2-0.4,0.1-0.9-0.3-1.1
		c-0.3-0.2-0.7-0.1-1,0.1c-2.1,1.8-1.6,5.1,0.2,7c2.5,2.6,6.6,2,9.7,1.2l-1.1-0.8c-0.4,3.5,4.3,4.4,6.8,5.1l13.1,3.8
		c8.9,2.6,17.8,5.1,26.7,7.7c5,1.5,10,3,15,4.4c0.3,0.1,0.7-0.1,0.8-0.4s-0.1-0.7-0.4-0.8c-8.2-2.6-16.5-4.9-24.8-7.3l-24.5-7.3
		l-6.9-2c-1.5-0.4-4.4-1.1-4.1-3.1c0.1-0.6-0.6-0.9-1-0.8c-2.4,0.6-5.5,1.2-7.6-0.4c-1.5-1.2-2.3-3.7-0.7-5.1l-1.3-1
		c-1.3,2.3-4,2.8-6.4,2.4c-2.5-0.5-4.7-2.1-6-4.2c-2.7-4.2-2.6-10.2,0.8-14l-1.2-0.2c1.3,2.4,1,5.3-0.8,7.4
		c-1.9,2.4-5.1,3.4-8.1,3.7c-6.5,0.5-12.9-1.1-18.4-4.5c-0.3-0.1-0.6,0-0.7,0.2C793.3,406,793.4,406.3,793.6,406.5L793.6,406.5z"/>
</g>
<path class="st0" d="M735.6,592.7c4.5,5,10.3,11,17.7,10.2c3.8-0.4,7.3-2.6,10.3-4.9c2.9-2.1,5.3-4.8,7.2-7.8
	c2.1-3.3,3.1-7.3,2.7-11.2c0-0.4-0.3-0.7-0.8-0.7c-0.1,0-0.1,0-0.2,0c-5.8,1-6.2,8.9-6.2,13.5c0,6,2,12.8,8.2,15.1
	c2.6,1,5.6,0.5,7.8-1.2c2.1-1.6,3.2-4.2,2.7-6.8c-0.2-1.1-1-2.1-2.2-2c-1.5,0.2-2.5,1.8-3.2,3c-1.7,2.5-2.9,5.5-2.3,8.6
	c0.6,2.8,2.9,5.6,6,5.3c2.7-0.2,5.1-2.6,4.6-5.4c-0.1-0.5-0.6-0.8-1.1-0.6c0,0,0,0,0,0c-4.5,1.8,2.2,7.6,3.7,9c3.5,3,8,5.7,12.7,4.2
	c0.4-0.1,0.6-0.6,0.4-0.9c-0.1-0.3-0.5-0.5-0.8-0.5c-3.6,0.7-6.8-0.8-9.7-3c-1.4-1.1-2.8-2.3-4.1-3.7c-0.2-0.2-2.9-3-1.9-3.5
	l-1.1-0.6c0.4,2-2,3.5-3.8,3.1c-2-0.4-3.1-2.6-3.3-4.4c-0.3-2.4,0.9-4.8,2.2-6.8c0.3-0.5,0.7-1,1.1-1.5c0.5-0.6,0.9-0.8,1.2,0
	c0.2,1,0.1,2-0.4,2.9c-2.2,4.3-7.5,4.2-10.7,1.3c-3.6-3.2-4.3-8.2-4.2-12.8c0.1-3.7,0.4-10,5-11l-0.9-0.5
	c1.3,8.7-6.2,16.4-13.2,20.3c-4.1,2.3-8.6,2.8-12.9,0.6c-3.8-2-6.8-5.2-9.6-8.3c-0.5-0.6-1.4,0.3-0.9,0.8L735.6,592.7z"/>
</svg>
