<?xml version="1.0" encoding="utf-8"?>
<!-- Generator: Adobe Illustrator 26.2.1, SVG Export Plug-In . SVG Version: 6.00 Build 0)  -->
<svg version="1.1" id="Capa_1" xmlns="http://www.w3.org/2000/svg" xmlns:xlink="http://www.w3.org/1999/xlink" x="0px" y="0px"
	 viewBox="0 0 1000 1000" style="enable-background:new 0 0 1000 1000;" xml:space="preserve">
<style type="text/css">
	.st0{fill:#FFFFFF;}
	.st1{fill:#002F6C;}
	.st2{fill:#E73164;}
	.st3{fill:#2B8E25;stroke:#23751C;stroke-miterlimit:10;}
	.st4{fill:#6C6463;}
	.st5{fill:#23751C;}
</style>
<path d="M682.6,564.2c8.8-5,16.6-11.6,25.2-16.9c8.8-5.4,18.5-9,27.9-13.3c16.4-7.8,31.3-18.5,43.9-31.7c3.5-3.6,6.8-7.4,9.9-11.4
	c3.2-3.9,6.1-8.1,8.7-12.5c0.2-0.5-0.1-1.1-0.7-1.3c-0.4-0.1-0.8,0-1,0.3c-2.6,3.6-5,7.3-7.7,10.9s-5.7,7.1-8.8,10.4
	c-6.1,6.6-12.8,12.6-20.1,17.9c-7.1,5.3-14.7,9.9-22.7,13.9c-9,4.5-18.6,7.9-27.4,13c-9.8,5.7-18.3,13.4-28,19.3
	c-0.4,0.2-0.5,0.7-0.3,1.1C681.7,564.3,682.2,564.4,682.6,564.2L682.6,564.2z"/>
<path class="st0" d="M608.6,195.2c52.8-44.7,109.7-84.3,170-118.1c3.3-1.8,6.7-3.7,10.4-4.2c7.1-1,13.8,3.2,19.8,7.2
	c55.7,37.8,108.1,80.3,156.3,127.3c3.4,3.3,7,6.9,8.6,11.4c1.3,3.6,1.3,7.5,1.2,11.3c-0.4,49.6-0.8,99.2-1.2,148.8
	c0,5.1-0.1,10.4-2.4,15c-2.4,5-7.1,8.5-11.6,11.7c-52.4,38.2-105.8,74.8-160.3,109.9c-4,2.6-8.2,5.2-13,5.4s-9.5-2.3-13.7-4.7
	c-62.4-35.8-118.6-81.7-166.1-135.8c-3.8-4.3-7.5-8.7-9.6-14c-2.7-6.9-2.3-14.6-1.8-22c3.2-48.2,6.4-96.5,9.5-144.7"/>
<path d="M609.2,195.8c31.2-26.2,63.9-50.7,97.8-73.3c16.8-11.2,33.8-21.9,51.2-32.1c4.4-2.6,8.8-5.1,13.2-7.6
	c4.3-2.5,8.7-5.3,13.3-7.2c10.2-4.2,19.4,3.1,27.5,8.7c33.8,23.1,66.4,48,97.5,74.7c15.4,13.2,30.5,26.7,45.2,40.7
	c3.6,3.4,7.3,6.9,10.8,10.4c3.3,3.3,6.3,6.9,7.3,11.6c1.2,5.3,0.5,11.2,0.5,16.6l-0.1,16.1l-0.5,66l-0.2,33l-0.1,16
	c0,5.3,0.2,10.7-0.3,16c-0.2,4.9-2.2,9.5-5.5,13.1c-3.3,3.5-7.5,6.2-11.4,9.1c-8.7,6.3-17.4,12.6-26.2,18.8
	c-17.4,12.4-34.9,24.6-52.5,36.7C858.9,475,841,487,823,498.8c-8.8,5.8-17.6,11.9-26.7,17.3c-4.3,2.6-8.9,4.5-14,3.1
	c-4.9-1.2-9.3-4.3-13.6-6.8c-33-19.4-64.3-41.6-93.5-66.4c-14.6-12.4-28.7-25.5-42.2-39.2c-6.7-6.8-13.3-13.8-19.7-21
	c-6.4-7.1-14-14.3-16.2-24c-1.1-5-0.9-10.1-0.6-15.1c0.3-5.4,0.7-10.8,1.1-16.2l2.2-32.6c1.5-22,2.9-44.1,4.4-66.1l2.1-32.2
	c0.1-1.8-2.6-1.8-2.7,0l-8.9,135.8c-0.7,10-2.5,21,0.9,30.6c3.2,8.9,10.7,16,17,22.9c13.1,14.5,26.9,28.4,41.3,41.7
	c28.8,26.6,59.9,50.5,93,71.5c8.3,5.3,16.8,10.4,25.3,15.3c4,2.3,8.2,4.5,12.8,4.9s8.8-1.6,12.6-3.9c9.3-5.6,18.3-11.8,27.4-17.8
	s18.2-12,27.2-18.1C889,458.1,925,432.9,960.6,407c3.6-2.6,7.2-5.3,10-8.9c2.6-3.6,4.1-7.8,4.4-12.2c0.5-5.2,0.3-10.6,0.3-15.8
	l0.1-16.9c0.2-22.6,0.3-45.2,0.5-67.7l0.3-33.9l0.1-16.5c0-5.1,0.5-10.5-0.9-15.4c-1.2-4.3-4-7.8-7-10.9c-3.5-3.6-7.3-7.1-11-10.6
	C950,191,942.4,184,934.7,177c-31-28-63.5-54.2-97.4-78.7c-8.5-6.1-17.1-12.1-25.8-18c-7.7-5.2-16.4-11.2-26.1-8
	c-4.7,1.5-9,4.4-13.3,6.9c-4.5,2.6-9,5.2-13.5,7.9c-8.8,5.2-17.6,10.6-26.3,16.1c-35,22-68.7,46.1-100.9,72.1
	c-7.9,6.4-15.7,12.9-23.4,19.4C607.2,195.4,608.4,196.5,609.2,195.8L609.2,195.8z"/>
<path class="st1" d="M784.7,521.1c4.8-0.2,9-2.8,13-5.4c54.5-35.1,107.9-71.7,160.3-109.9c4.5-3.3,9.1-6.8,11.6-11.7
	c2.2-4.6,2.3-9.9,2.4-15l1.2-148.8c0.2-3.4-0.1-6.8-0.9-10.1L807.4,329.3c-7.5,5-15.5,10.1-24.5,10.4c-13,0.4-23.7-9.3-33.1-18.2
	c-45.6-43.4-94-83.8-144.9-120.8l-1.9,0.6c-3.1,47.8-6.3,95.5-9.4,143.3c-0.5,7.4-0.9,15.1,1.8,22c2.1,5.3,5.8,9.7,9.6,14
	c47.5,54.1,103.6,100,166,135.9C775.3,518.8,779.8,521.2,784.7,521.1L784.7,521.1z"/>
<g>
	<path class="st2" d="M785.6,521h1c4.8-0.2,9-2.8,13-5.4c54.5-35.1,107.9-71.7,160.4-109.9c4.5-3.3,9.1-6.8,11.6-11.7
		c2.2-4.6,2.3-9.9,2.4-15c0.4-49.6,0.8-99.2,1.2-148.8c0.2-3.4-0.1-6.8-0.9-10.1c-54.9,36.4-109.9,72.8-164.8,109.2
		c-7.5,5-15.5,10.1-24.5,10.4c-0.6,0-1.1,0-1.7,0C783.9,400.1,784.7,460.5,785.6,521L785.6,521z"/>
	<path class="st2" d="M785.6,523.3c6,0.3,11.3-3.2,16.2-6.3c5.6-3.6,11.1-7.2,16.7-10.8c11.2-7.3,22.3-14.7,33.5-22.1
		c22.1-14.8,43.9-29.8,65.6-45.1c10.9-7.7,21.8-15.5,32.7-23.3c5.1-3.7,10.4-7.3,15.3-11.2c4.5-3.6,8.2-8,9.6-13.7
		c1.5-6.1,1-12.6,1.1-18.9c0.1-6.8,0.1-13.6,0.2-20.4c0.1-13.6,0.2-27.2,0.3-40.8c0.2-27.2,0.6-54.4,0.6-81.6c0.1-3.2-0.3-6.4-1-9.6
		c-0.4-1.2-1.6-1.9-2.9-1.6c-0.2,0.1-0.3,0.1-0.5,0.2l-74.6,49.4L823.6,317c-6.8,4.5-13.5,9.1-20.4,13.4c-6.1,3.8-12.8,7.2-20.2,6.9
		c-1.3,0-2.3,1-2.3,2.3c0.3,23.6,0.7,47.3,1,70.9c0.3,23.5,0.7,47.1,1,70.6c0.2,13.3,0.4,26.6,0.6,39.9c0,3,4.6,3,4.6,0
		c-0.3-23.6-0.7-47.3-1-70.9c-0.3-23.5-0.7-47.1-1-70.6c-0.2-13.3-0.4-26.7-0.6-40l-2.3,2.3c6.7,0.3,13.1-2.1,18.9-5.4
		c6.1-3.4,11.9-7.5,17.7-11.4l37.8-25.1l75.1-49.8l42.6-28.2l-3.4-1.4c0.7,3.1,1,6.3,0.8,9.5c0,3.3,0,6.6-0.1,9.9
		c0,6.7-0.1,13.4-0.2,20.1c-0.1,13.3-0.2,26.6-0.3,39.9c-0.2,26.7-0.3,53.3-0.6,80c-0.1,5.7-0.5,11.5-4.2,16.2
		c-3.6,4.5-8.7,7.6-13.3,11c-10.5,7.6-21,15.2-31.6,22.7c-21.3,15.1-42.7,29.9-64.3,44.5c-10.8,7.3-21.7,14.6-32.7,21.8
		c-5.4,3.5-10.8,7.1-16.2,10.6c-5.2,3.4-10.4,7.2-15.9,10c-2.4,1.3-5.1,2-7.8,2C782.6,518.6,782.6,523.2,785.6,523.3L785.6,523.3z"
		/>
	<path class="st2" d="M660.1,180.9l13,11c4.2,3.6,8.4,7.4,12.9,10.7c0.8,0.6,1.8-0.7,1.1-1.4c-4.1-3.8-8.6-7.2-12.9-10.8l-13-10.7
		C660.5,179.1,659.3,180.2,660.1,180.9L660.1,180.9z"/>
	<path class="st2" d="M650.3,189.5c4.3,3.7,8.7,7.3,13,11c4.2,3.6,8.4,7.4,12.9,10.8c0.8,0.6,1.8-0.7,1.1-1.4
		c-4.1-3.8-8.6-7.2-12.9-10.8l-13-10.7C650.6,187.7,649.4,188.8,650.3,189.5L650.3,189.5z"/>
	<path class="st2" d="M640.5,198.1c4.3,3.7,8.7,7.3,13,11c4.2,3.6,8.4,7.4,12.9,10.8c0.8,0.6,1.8-0.7,1.1-1.4
		c-4.1-3.8-8.6-7.2-12.9-10.8l-13-10.7C640.8,196.3,639.6,197.4,640.5,198.1L640.5,198.1z"/>
</g>
<path class="st0" d="M644.5,511c14.6-4.8,29.8-11.9,37.2-25.3c3.9-7.1,5.3-15.5,9.5-22.5c6.5-10.4,18.2-16.2,30.4-15
	c4,0.4,8.9,3.2,8,7.1c-0.4,1.2-1.1,2.3-2,3.2c-4.5,4.7-10,8.2-16.2,10.1c10.8,6,16.6,19.7,13.4,31.6"/>
<path d="M644.7,511.8c8.4-2.6,16.8-5.9,24.2-10.9c3.6-2.4,6.8-5.3,9.6-8.6c2.9-3.5,5.2-7.5,6.9-11.8c1.9-4.7,3.2-9.6,5.5-14.1
	c2-4,4.8-7.5,8.3-10.3c3.4-2.7,7.3-4.6,11.5-5.8c3.9-1,8.5-1.6,12.5-0.5c1.8,0.5,4.2,1.5,4.9,3.4c0.9,2.2-1.6,4.2-3,5.5
	c-4,3.8-8.9,6.6-14.1,8.3c-0.8,0.2-1.2,1.1-1,1.9c0.1,0.3,0.3,0.6,0.6,0.8c10.3,6.2,15.5,18.3,12.6,30c-0.2,0.8,0.3,1.6,1.1,1.8
	c0.8,0.2,1.5-0.3,1.8-1c3.4-12.6-2.6-27-14.1-33.3l-0.3,2.7c4.9-1.6,9.4-4,13.4-7.3c3.2-2.6,7.9-6.7,5.2-11.2
	c-2.2-3.7-7-4.7-10.9-4.9c-4.6-0.1-9.2,0.7-13.5,2.4c-4.3,1.8-8.1,4.4-11.4,7.6c-3.3,3.6-5.9,7.7-7.5,12.3c-2,5-3.4,10.3-5.8,15.1
	c-2.2,4.2-5.1,8-8.6,11.1c-8,7.2-18.2,11.5-28.2,14.9C643.3,510.5,643.7,512.1,644.7,511.8L644.7,511.8z"/>
<path class="st1" d="M668.1,65.8c-70.7-14-139.3,32-153.3,102.7c-9.5,48.2,8.8,97.6,47.4,127.9c5,3.9,10.3,7.5,15.9,10.7
	c2.8,1.6,5.8,3,8.5,4.8c2.7,1.8,5.2,4,7.4,6.4c8.9,9.9,12.6,23.3,10.1,36.3c-0.8,4-1.6,8.1-2.4,12.1l-9,45.4l-0.6,3.2
	c-0.2,0.6,0.2,1.2,0.8,1.4L604,419c0.6,0.2,1.2-0.2,1.4-0.8L612,385l4.2-21.2c0.9-4.8,1.7-9.6,3.5-14.1
	c4.4-10.9,13.1-19.5,24.2-23.7c5.5-2,11.1-2.2,16.8-3c5.7-0.8,11.3-1.9,16.8-3.5c44.5-12.3,79.2-47.2,91.3-91.8
	c0.7-2.8,1.4-5.6,1.9-8.4c0-0.1,0.1-0.2,0.1-0.2h0C784.7,148.4,738.8,79.7,668.1,65.8z M621.8,300.5
	c-58.7-11.7-96.9-68.9-85.1-127.6c11.7-58.7,68.9-96.9,127.6-85.1c58.7,11.7,96.9,68.9,85.1,127.6c-10.5,52.4-57.6,89.4-111,87.1
	C632.8,302.3,627.3,301.6,621.8,300.5z"/>
<path class="st1" d="M571.4,495.4l17.5-88.6c0.8-4.1,4.8-6.8,9-6l8,1.6c4.1,0.8,6.8,4.8,6,9L594.4,500c-0.8,4.1-4.8,6.8-9,6l-8-1.6
	C573.3,503.6,570.6,499.6,571.4,495.4z"/>
<path class="st1" d="M585.9,503.7l-5.8-1.1c-2.1-0.4-4.2-0.6-5.6-2.5s-1-3.9-0.6-6.1l3.9-19.8l6-30.2l5.3-26.7l1.5-7.8
	c0.4-2,0.7-4.1,2.5-5.5s4-1,6.2-0.6c2,0.4,3.9,0.7,5.9,1.1c2.9,0.5,4.9,3.3,4.4,6.2c0,0.3-0.1,0.6-0.2,0.9l-3.5,17.7l-5.8,29.6
	l-5.5,27.9c-0.8,4.2-1.6,8.3-2.5,12.5C591.6,502.2,588.9,504.2,585.9,503.7c-1.2-0.3-2.4,0.4-2.8,1.6c-0.3,1.2,0.4,2.5,1.6,2.8
	c5.5,1,10.8-2.6,11.8-8.1c0,0,0-0.1,0-0.1l1.2-6l5.1-25.9l6.2-31.5l4.3-22c0.6-2.1,0.8-4.2,0.6-6.3c-0.6-4.1-3.7-7.3-7.7-8.2
	c-2-0.4-4-0.8-6-1.2c-2.9-0.6-5.6-0.9-8.4,0.4c-2.8,1.3-4.8,3.9-5.4,6.9c-0.3,1.5-0.6,3-0.9,4.5l-4.7,24l-6.3,31.7l-4.7,24
	c-0.3,1.4-0.6,2.9-0.8,4.3c-0.7,3.2,0.3,6.6,2.5,9c2,2.1,4.6,2.7,7.3,3.2l5.8,1.1C587.6,508.7,588.9,504.3,585.9,503.7L585.9,503.7z
	"/>
<path class="st3" d="M689.7,532.5c-1.6-7.9-5-16-11.6-21s-14.9-6-22.8-5.3c-17.4,1.5-34.4,8.8-49.8,16.6c-16.4,8.4-32,18.3-48,27.5
	s-33.4,18-52.1,20.1c-18,2-35.5-3.5-50.8-12.7c-15.8-9.5-29-22.6-41.4-36.1c-11.9-13-23.3-26.4-36.3-38.3
	c-11.8-10.8-24.5-21.2-38.5-29.1c-4-2.4-8.3-4.3-12.7-6c-4-1.9-8-3.6-12.1-5c-8.8-3.3-17.6-6.4-26.6-9.2c-8.5-2.7-16.8-5.2-25.3-7.5
	c2.3-4.5,3.6-9.4,3.8-14.4c0-0.6-0.4-1.1-0.9-1.2c-24.5-4.5-49-9.1-73.5-13.3c-0.7-0.1-1.2,0.7-1,1.2l-70,36.3
	c-0.2-0.4-0.6-0.8-1.3-0.8c-18-1.8-35.4,4.5-51.1,12.6c-13.9,7.1-29.2,15.5-37.4,29.3c-8.7,14.5-7.4,32.6-5.1,48.6
	c2.1,15.1,6,29.8,10,44.5c4.2,15.8,8.7,31.5,11.9,47.5c1.6,7.6,2.7,15.3,3.4,23.1c0.6,7,1,14.4-0.3,21.3c-1.2,6.2-4.2,11.6-7,17.1
	c-2.4,4.5-4.5,9.4-3.9,14.7c0.9,7.1,6.2,13.1,11.4,17.5c6.2,5.2,13.4,9.3,20.5,13.1c28.2,15.1,59.1,24.8,90.9,28.6
	c31.9,3.9,64.2,2,95.4-5.5c15.4-3.7,30.5-8.9,44.9-15.5c7.3-3.3,14.3-6.9,21.2-10.9c6.8-4,13-9,14.1-17.2c1.2-8.8-2.6-17.4-3.3-26.1
	c-0.7-9.3,1.1-18.6,3.6-27.5c1.3-4.5,2.7-8.9,4.2-13.4c6,10.5,13.9,19.9,23.3,27.7c6.6,5.4,14,9.4,21,14.1c3.6,2.4,6.9,5.3,9.7,8.6
	c2.8,3.5,5.2,7.3,8.5,10.4c5.7,5.1,13,8.3,20.6,9c3.8,0.4,7.7,0.1,11.4-0.8c4.1-1,7.8-3.1,11.9-4.1c1.9-0.6,3.9-0.7,5.8-0.1
	c2.2,0.8,3.4,2.7,4.6,4.5c2,3.2,4.2,5.9,7.7,7.4c6.5,2.8,14.2,1.3,20.6-1.3c8.1-3.3,16.6-9.4,25.7-7.8c4.5,0.8,8.3,3.4,12.5,5
	c3.8,1.5,7.9,2,11.9,1.3c8.2-1.4,15.2-7.1,20.5-13s9.3-12.7,14.4-18.7s11.3-11.3,19.4-12.7c4.8-0.8,9.8-0.4,14.7-0.7
	c4.2-0.2,8.4-1,12.3-2.6c15.1-6.2,24.1-21.2,30.6-35.4c3.8-8.3,7.2-16.8,11.7-24.7c2.3-4,5-7.9,8-11.4c3-3.6,6.3-6.9,9.2-10.6
	C688.9,566.5,693,549.2,689.7,532.5z"/>
<path class="st0" d="M515.7,400.1l43.5-52.1c6.4-7.6,13.3-15.6,22.8-18.4s22,2.7,22.7,12.6c-2.5,2.6-6.4,3.1-9.5,1.3l18.9-1.6
	c4.5-0.4,9-0.8,13.3,0.6s8.2,4.9,8.5,9.3s-4.2,9-8.4,7.6c4.1-0.9,8.2,1.7,9.2,5.8c0.9,4.1-1.7,8.2-5.8,9.2c-1.1,0.2-2.1,0.3-3.2,0
	c4.4-2.1,9.2,4,7.7,8.6s-6.6,7.2-11.3,8.2c3.1-1,6.3,2.3,6.4,5.6s-2,6.2-4.3,8.5c-14.9,14.5-40.7,10.9-57,23.9
	c-10.9,8.7-15.8,23.3-26.6,32.1"/>
<path d="M516.3,400.8c12.5-14.7,25-29.4,37.4-44.1c5.4-6.4,10.6-13.4,16.9-18.9c5.2-4.6,11.8-8.1,19-7.3c6.3,0.8,13.2,4.9,13.7,11.8
	l0.4-0.9c-2.1,2.2-5.4,2.6-7.9,1.1l-0.6,2.4l12.4-1.1c4-0.4,8.1-0.8,12.1-0.9c3.7-0.1,7.4,0.4,10.5,2.4c2.5,1.6,4.7,4.5,4.4,7.5
	s-3.5,6.2-6.7,5.3v2.6c3.6-0.6,7.1,1.9,7.7,5.5c0,0.1,0,0.3,0.1,0.4c0.2,3.8-3.8,7.2-7.5,6.5l0.3,2.4c3.8-1.6,6.7,4.1,5.7,7.1
	c-1.4,4.3-6.4,6.3-10.4,7.2l0.7,2.6c1.9-0.5,3.5,0.9,4.3,2.6c0.9,2,0.2,4.2-0.9,6c-2,3.3-5.3,5.8-8.5,7.8
	c-6.5,3.9-13.9,5.8-21.2,7.6c-7.5,1.8-15,3.5-22,6.8c-7.2,3.4-12.7,8.8-17.4,15.2c-5.5,7.5-10,15.8-17.2,21.8c-1.4,1.1,0.6,3,2,2
	c6.8-5.5,11.3-13.2,16.2-20.3c2.4-3.6,5.3-7,8.4-10c3-2.7,6.4-4.9,10.1-6.5c14.6-6.6,32-6.2,45.2-16c3.7-2.7,7.7-6.3,8.3-11.1
	c0.7-4.5-3.1-9.7-8-8.4c-1.7,0.4-1,3,0.7,2.6c5.3-1.2,12-4.5,12.6-10.7c0.5-5.2-4.6-10.9-10-8.6c-0.6,0.4-0.8,1.2-0.4,1.9
	c0.2,0.3,0.4,0.5,0.8,0.6c5.4,1,11.2-3.4,10.9-9.1c-0.2-5.5-5.8-9.6-11.1-8.5c-0.7,0.2-1.1,1-0.9,1.7c0.1,0.4,0.5,0.8,0.9,0.9
	c3.5,1,6.9-0.9,8.8-3.8c1.9-3.1,1.7-7.1-0.4-10.1c-5.2-7.8-15.2-6.8-23.3-6.1l-17,1.5c-0.7,0-1.3,0.6-1.3,1.3c0,0.4,0.2,0.8,0.6,1.1
	c3.2,1.9,8.6,1.8,11.1-1.4c1-1.2,0-3.7-0.5-5c-0.6-1.6-1.5-3-2.7-4.3c-4.8-5.3-13-7.3-19.8-5.8c-8.8,2-15.8,8.9-21.5,15.6
	c-7.2,8.4-14.3,17.1-21.3,25.7c-8.2,10-16.5,20.1-24.7,30.1c-0.7,0.9,0.5,2.2,1.3,1.3L516.3,400.8z"/>
<path class="st1" d="M58.5,935.7c-8.8-44.3-17.2-86.7-12.3-131.7c1.6-14.6,4.6-28.9,7.6-43.2l8.8-42.1c0.3-1.9,0.9-3.8,1.9-5.5
	c1.5-2.2,4-3.4,6.4-4.4c41.4-17.8,87.8-19.6,132.9-21c32-1,64.4-2,95.4,5.8c6.1,1.6,12.5,3.7,16.8,8.3c3.8,4.2,5.4,10,6.9,15.4
	c21.6,75.9,70.9,145.2,100.8,218.2"/>
<path class="st1" d="M59.4,935.4c-4.6-24.9-9.6-49.8-11.9-75c-2.4-25.3-1.4-50.8,3.1-75.9c2.2-12.4,5-24.8,7.6-37.1l4-18.9
	c0.7-3.1,1.3-6.3,2-9.4c0.6-3,1.4-5.5,4.1-7.2c2.4-1.4,5-2.5,7.6-3.5c2.7-1.1,5.5-2.1,8.3-3.1c5.6-1.9,11.2-3.6,16.9-5.1
	c11.4-2.9,23-5.1,34.7-6.5c23.7-3,47.6-3.7,71.4-4.5c24.9-0.8,50.1-1.4,74.8,2.5c6.1,0.9,12.1,2.2,18,3.7c5,1.3,10.3,3.1,14.1,6.8
	s5.5,9.1,6.9,14.1c1.6,5.5,3.2,10.9,5,16.2c7.3,21.8,16.5,42.9,26.7,63.5c10.3,20.9,21.3,41.4,32.2,62c10.8,20.4,21.4,41,30.8,62.1
	c2.3,5.2,4.6,10.5,6.8,15.8c0.6,1.5,3.1,0.8,2.4-0.7c-8.9-21.7-19.3-42.7-30.1-63.5c-11-21.2-22.4-42.2-33-63.5
	c-10.6-21.2-20.6-42.8-28.8-65c-2-5.5-3.9-11-5.7-16.5c-1.7-5.4-3-10.9-4.9-16.2c-1.7-4.9-4.3-9.3-8.5-12.5s-9.3-4.7-14.3-6
	c-24.6-6.3-50.3-7-75.6-6.5c-24.6,0.5-49.2,1.1-73.7,3.4c-23.9,2.2-47.7,6.2-70.3,14.5c-2.8,1-5.6,2.1-8.4,3.3
	c-2.3,0.8-4.5,2-6.5,3.5c-2,1.7-3.3,4.1-3.8,6.7c-0.7,3.1-1.3,6.2-1.9,9.3c-2.7,12.8-5.3,25.6-8,38.5c-2.6,12.5-5.1,25.1-6.5,37.9
	c-1.4,12.8-1.8,25.8-1.3,38.7c1,25.5,5.2,50.8,10.2,75.8c1.3,6.3,2.6,12.6,3.9,18.8C58,936.9,59.6,936.5,59.4,935.4L59.4,935.4z"/>
<path d="M253.6,417.6c1.6-4.9,3.2-9.7,5-14.4c0.9-2.4,1.7-4.7,2.6-7c0.5-1.2,1-2.4,1.4-3.6c0.2-0.6,0.5-1.2,0.7-1.8
	c0.1-0.3,0.2-0.6,0.4-0.9c0.3-0.4,0.3-0.5,0-0.4c0.7,0,1.2-0.6,1.2-1.3c0-0.4-0.2-0.8-0.6-1c-2.6-1.3-3.5,2.8-4.2,4.5
	c-1.1,2.8-2.1,5.6-3.1,8.4c-2,5.6-3.7,11.4-5.3,17.1c-0.1,0.4,0.1,0.9,0.6,1C252.9,418.3,253.4,418.1,253.6,417.6L253.6,417.6
	L253.6,417.6z"/>
<path d="M195.4,343.2c-4.6,16.8-7.8,34.1-13.5,50.6c-1.5,4.5-3.4,8.8-5.2,13.2c-0.5,1.3,1.6,2.1,2.2,0.9c1.9-3.7,3.5-7.6,4.8-11.5
	c1.4-4.1,2.7-8.4,3.8-12.6c2.3-8.6,4.1-17.4,6.1-26.1c1-4.7,2.1-9.4,3.4-14.1c0.1-0.5-0.2-0.9-0.7-1
	C195.9,342.6,195.5,342.8,195.4,343.2L195.4,343.2z"/>
<path d="M273.1,284.5c1.5,0.2,3,0.2,4.6,0.2c1.6,0,3.2,0,4.8,0.1c3.2,0.2,6.4,0.6,9.6,1.3c1.4,0.3,2-1.9,0.6-2.2
	c-3.2-0.6-6.5-1-9.8-1.2c-1.6-0.1-3.2-0.1-4.8,0c-1.7,0-3.3,0.2-4.9,0.7C272.6,283.6,272.4,284.5,273.1,284.5L273.1,284.5z"/>
<path d="M285.4,297.6c0.3-0.3,0.4-0.8,0.1-1.2c-0.3-0.4-0.8-0.6-1.3-0.5c-0.3,0-0.7,0.1-0.9,0.3c-0.2,0.2-0.5,0.3-0.6,0.6
	c-0.1,0.2-0.3,0.3-0.4,0.5c-0.1,0.1-0.1,0.3-0.2,0.4c-0.2,0.4-0.3,0.9-0.2,1.4c0,0.1,0,0.2,0,0.3c0.1,0.2,0.1,0.4,0.2,0.6
	c0.1,0.2,0.2,0.3,0.4,0.5c0.1,0.2,0.3,0.3,0.5,0.4l0.2,0.1c0.2,0.1,0.4,0.2,0.6,0.2c0.2,0,0.4,0.1,0.6,0.1c0.2,0,0.4,0,0.6-0.1h0.2
	c0.2-0.1,0.4-0.1,0.6-0.2c0.2-0.1,0.3-0.2,0.5-0.4c0.1,0,0.1-0.1,0.1-0.1c0.3-0.3,0.5-0.7,0.6-1.1c0.1-0.4,0.1-0.9,0-1.4
	c-0.1-0.4-0.4-0.8-0.7-1.1c-0.2-0.1-0.3-0.3-0.5-0.4c-0.3-0.2-0.7-0.3-1.1-0.3c-0.2,0-0.5,0-0.7,0.1h-0.1c-0.2,0.1-0.4,0.1-0.5,0.2
	c-0.2,0.1-0.3,0.2-0.5,0.3l-0.1,0.1c-0.3,0.3-0.5,0.6-0.6,1c0,0,0,0.1,0,0.1c0,0.2-0.1,0.4-0.1,0.6c0,0.2,0,0.5,0.1,0.7
	c0.1,0.2,0.1,0.4,0.2,0.5c0.1,0.2,0.2,0.3,0.3,0.5l0.1,0.1c0.2,0.2,0.5,0.4,0.8,0.5h0.1l0.5,0.1c0.2,0,0.5,0,0.7-0.2
	c0.2,0,0.3-0.1,0.4-0.2c0.2-0.1,0.4-0.3,0.5-0.5l0.2-0.4l0-0.5c0-0.2,0-0.5-0.2-0.7C285.8,298.1,285.6,297.9,285.4,297.6l0.4,0.4
	C285.6,297.9,285.5,297.8,285.4,297.6L285.4,297.6l0.3,0.3c0,0-0.1-0.1-0.1-0.1l0.2,0.4c0-0.1,0-0.1,0-0.2l0.1,0.5
	c0-0.1,0-0.1,0-0.2l-0.1,0.5c0,0,0-0.1,0-0.1l-0.2,0.4l0.1-0.1l-0.3,0.4l0.1-0.1l-0.4,0.3c0,0,0.1-0.1,0.1-0.1l-0.4,0.2l0.2,0
	l-0.5,0.1c0.1,0,0.1,0,0.2,0l-0.5-0.1l0.2,0l-0.4-0.2c0.1,0,0.1,0.1,0.2,0.1l-0.4-0.3c0,0,0.1,0.1,0.1,0.1l-0.3-0.4
	c0,0.1,0.1,0.1,0.1,0.2l-0.2-0.4c0,0.1,0,0.1,0.1,0.2l-0.1-0.5c0,0.1,0,0.2,0,0.2l0.1-0.5c0,0.1,0,0.1,0,0.2l0.2-0.4
	c0,0.1-0.1,0.1-0.1,0.2l0.3-0.4c0,0.1-0.1,0.1-0.2,0.2l0.4-0.3c-0.1,0.1-0.1,0.1-0.2,0.1l0.4-0.2c-0.1,0-0.2,0.1-0.3,0.1l0.5-0.1
	c-0.1,0-0.2,0-0.3,0l0.5,0.1h-0.2l0.4,0.2c-0.1,0-0.1-0.1-0.2-0.1l0.3,0.3l-0.2-0.2l0.3,0.3c-0.1-0.1-0.1-0.1-0.1-0.2l0.2,0.4
	c-0.1-0.1-0.1-0.3-0.1-0.4l0,0.4c0-0.1,0-0.2,0-0.4l0,0.4c0-0.1,0.1-0.3,0.1-0.4l-0.1,0.4c0.1-0.2,0.2-0.4,0.3-0.5l-0.2,0.3
	c0.1-0.1,0.2-0.2,0.2-0.3C285.4,297.9,285.4,297.8,285.4,297.6c0.1,0,0.1-0.1,0.1-0.1l-0.1,0.3C285.4,297.8,285.4,297.7,285.4,297.6
	l-0.1,0.2c0.1-0.1,0.2-0.2,0.3-0.3l-0.1,0.2l-0.2,0.1L285,298h-0.2h-0.2c0.1,0,0.2,0,0.4,0c0.2,0,0.4-0.1,0.5-0.2L285.4,297.6z"/>
<path d="M277.9,301.3c3.1,0.5,6.1,1,9.2,1.4c0.5,0.1,1.1-0.2,1.2-0.8c0,0,0,0,0,0c0-0.6-0.4-1-0.9-1.1c0,0,0,0,0,0
	c-3.1-0.4-6.1-0.8-9.2-1.2C277.2,299.5,277,301.2,277.9,301.3L277.9,301.3z"/>
<path d="M299,247.2c4,11.7,3.9,24.3,2,36.4c-1.5,9.7-4,20.5,0.5,29.7c1.4,3,3.7,5,5.8,7.4c1.1,1.1,1.8,2.5,2.1,4
	c0.2,1.8-0.9,2.8-2.2,3.9c-1,0.8-2,1.7-2.7,2.7c-0.9,1.4-1.4,3-1.5,4.6c-0.2,2.8,0.3,5.7,0.4,8.5c0.5,11.2-1.6,23.2-8.2,32.5
	c-1.8,2.5-3.9,4.8-6.2,6.7c-2.4,1.9-5.2,3.2-8.2,3.7c-6.3,1.1-12.9,0-18.9-1.9c-1.8-0.6-2.5,2.1-0.8,2.8c5.6,2,11.6,2.8,17.6,2.4
	c5.8-0.3,11.2-2.9,15-7.2c8.3-8.3,11.9-20.3,12.5-31.8c0.2-2.9,0.1-5.9-0.1-8.8c-0.2-3-1.1-6.5,0.3-9.3c1.3-2.5,4.5-3.5,5.4-6.4
	c1.1-3.4-1-6.5-3.2-8.9s-4.3-4.5-5.5-7.6c-1.1-3-1.6-6.2-1.5-9.3c0-4.8,0.5-9.6,1.4-14.4c2.2-13.3,2.8-27.4-2.3-40.1
	C300.3,245.7,298.7,246.1,299,247.2L299,247.2z"/>
<path class="st4" d="M308.5,239.4c-3-6.4-8.1-12-13.3-16.7c-10.7-9.7-24.2-17-38.4-20c-6.7-1.2-13.4-1.6-20.2-1.1
	c-6.9,0.4-13.7,1.4-20.4,3c-13.3,3.1-25.9,8.9-36.8,17.2c-5.4,4.1-10.2,9-14.3,14.5c-4.2,5.6-7,11.8-9.7,18.3
	c-2.7,6.5-5.7,13.1-11.5,17.5c-6.8,5.2-14.8,8.5-22.1,13c-12.4,7.6-24,20.7-20.2,36.2c1,4.1,2.7,8.2,2.1,12.5
	c-0.6,3.4-2.1,6.5-4.4,9c-4.8,5.5-11.2,9-16.9,13.4c-5.3,4.2-10.5,9.6-11.4,16.6s3.4,13.1,6.3,19.2c1.4,3,2.5,6.3,1.9,9.6
	c-0.7,3.6-3.1,6.5-5.8,9c-2.6,2.5-5.8,4.8-8.7,7.3c-3.2,2.7-6,5.7-8.6,8.9c-4.5,6.1-7.2,13.9-5.4,21.5c1.6,7,7.3,11.2,12.2,16.1
	c2.2,2.2,4.3,4.7,5.2,7.8c1.3,4.5,0,9.3,0.2,13.9c0.4,6.9,3.8,13.1,8.6,17.8c9.9,9.7,26.1,14.7,39.6,10.3c6.6-2.2,11.4-6.7,15-12.5
	c3.3-5.4,5.8-11.6,10.7-15.9c6.2-5.4,14.9-4,22.4-5.4c7.1-1.3,13.7-4.5,19.2-9.1c5.6-4.6,9.8-10.7,12.3-17.5c1.5-4.1,2-8.5,1.5-12.9
	c-0.6-4.3-2.3-8.2-3.3-12.4c-1.7-7.1-1.1-14.6,1.8-21.4c2.8-6.6,7.4-11.5,13.1-15.7c5-3.8,10.8-7.4,14-12.9c1.7-2.8,2.5-6,2.3-9.2
	c-0.2-3.9-1.8-7.5-3-11.2c-1.2-3.4-2-6.9-1.4-10.6c0.7-3.4,1.9-6.6,3.4-9.7c2.7-5.7,6-11.7,5.5-18.2c-0.1-1.2-0.1-3.3-1.2-4
	c-0.7-0.5-1.5-0.7-2.2-1.2c-0.8-0.5-1.6-1.1-2.4-1.8c-2.4-2.2-4.2-5-5.1-8.1c-1.8-6,0.4-12.3,6.3-14.8c4.5-2,10.7-1.5,13.7,2.9
	c0.4,0.6,1,0.7,1.5,0.6l0.2,1.5c-0.2,0.1-0.3,0.3-0.4,0.4c-0.8,0.8,0.4,2.1,1.3,1.3l0,0.1c13.4-12,24.8-26.2,33.7-41.9
	c2.2-3.9,4.2-7.9,6.1-11.9c7.2,9.2,16.8,16.3,27.7,20.5c0.7,0.2,1.5-0.3,1.7-1C312.8,254.7,311.9,246.6,308.5,239.4z"/>
<path d="M241.6,296.5c-1.5-6.4-7.9-10.3-14.3-8.8c-1.1,0.3-2.2,0.7-3.3,1.3c-3.4,2-5.6,5.6-5.9,9.5c-0.2,4.4,1.2,8.7,4,12
	c1.5,1.9,3.3,3.6,5.3,5.1c1.9,1.5,3.8,2.9,6.2,3.2c1.5,0.2,1.7-2.1,0.3-2.5c-3.3-1-6.1-3.6-8.4-6.1c-2.5-2.5-4.1-5.7-4.6-9.1
	c-0.5-3.3,0.7-6.6,3.2-8.9c2.3-2,5.4-2.9,8.4-2.3c3.6,0.8,6.5,3.4,7.7,6.9c0.1,0.4,0.6,0.7,1,0.6S241.7,296.9,241.6,296.5
	L241.6,296.5z"/>
<path d="M231.3,300.2h0.4c-0.1,0-0.1,0,0,0l0.2,0c0,0,0.2,0.1,0.1,0s0.1,0,0.1,0c0.1,0.1,0.2,0.1,0.3,0.2l0.1,0.1
	c0.1,0.1,0.2,0.2,0.3,0.3c0,0,0.1,0.1,0.1,0.1c-0.1-0.1-0.1-0.1,0,0l0.2,0.3c0,0,0.1,0.2,0,0c0,0.1,0,0.1,0.1,0.2
	c0.1,0.1,0.1,0.3,0.1,0.4c0,0.1,0.1,0.3,0.1,0.4s0-0.1,0,0c0,0.1,0,0.1,0,0.2c0,0.6,0,1.2,0,1.7l1.1-1.1c0.1,0,0.2,0,0,0
	s-0.2-0.1-0.2-0.1s0.2,0.1,0,0l-0.2-0.1l0.6,1c0-0.1,0-0.1,0,0.1c0-0.1,0-0.1,0-0.2c0-0.1,0-0.1,0.1-0.1c-0.1,0.2-0.1,0.2,0,0.1
	s0.2-0.4,0.3-0.5c0.3-0.5,0.2-1.1-0.3-1.5c-0.5-0.3-1.1-0.3-1.5,0.1c-0.6,0.5-0.9,1.2-0.9,1.9c0,1.1,1.2,1.5,2.1,1.5
	c0.6,0,1.1-0.5,1.1-1.1c0.1-1.4-0.2-2.9-0.9-4.2c-0.7-1.2-2.2-1.9-3.6-1.5c-0.4,0.1-0.6,0.5-0.6,0.9
	C230.5,299.8,230.8,300.1,231.3,300.2L231.3,300.2z"/>
<path d="M274.1,340.9c0.7,1.3,1.8,2.4,3,3.3c1.1,0.9,2.5,1.5,3.9,1.8c0.6,0.2,1.3-0.2,1.5-0.8c0.2-0.6-0.2-1.3-0.8-1.5
	c-0.3-0.1-0.6-0.2-0.9-0.3l-0.5-0.2l-0.2-0.1c0.3,0.1,0,0-0.1,0c-0.6-0.3-1.1-0.6-1.6-0.9L278,342c-0.2-0.2,0.1,0.1,0,0l-0.2-0.1
	c-0.2-0.2-0.5-0.4-0.7-0.7c-0.2-0.2-0.4-0.5-0.6-0.7l-0.1-0.1l-0.1-0.2c-0.1-0.1-0.2-0.3-0.3-0.4c-0.3-0.4-1-0.5-1.4-0.2
	S273.9,340.5,274.1,340.9L274.1,340.9z"/>
<path class="st3" d="M68.2,571.8c26.3,34.4,56.8,65.4,90.6,92.4c40.6,32.3,92.7,59.8,142.6,45.6c22.9-6.5,43.3-21.4,66.9-24.7
	c19.6-2.8,43.1,1.5,56.3-13.2c8.1-9,9.4-22.8,17.8-31.6c16.9-17.7,52.9-6.6,66.1-27.2c7.7-12,3-29.3,11.8-40.5
	c6.3-8.2,18.2-10.8,24-19.4c8-11.8,0.8-28.1,5-41.7c2.1-6.8,6.9-12.4,10.4-18.7c8-14.5,8.2-32,6.3-48.4c-2.7-23.8-13.1-50.7-36.1-57
	c-19.2-5.3-38.9,6.2-54.2,18.9c-38.4,31.7-66.9,73.6-103.1,107.7s-85.1,61.2-134,51.9c-35.7-6.8-64.9-31.5-92.3-55.4"/>
<path class="st5" d="M67.5,572.2c27.6,36.5,59.9,69.1,96.1,97.2C197,695,238.4,718,282,714.6c10.6-0.9,21.1-3.4,31-7.3
	c10.2-4,20-9,30.1-13.3c9.8-4.1,19.9-7.2,30.6-8.1c9.3-0.8,18.7-0.6,28-1.9c8.4-1.2,16.8-4,22.9-10.1c6.9-6.9,9.1-16.6,13.5-25
	c4.1-7.9,10.4-12.9,18.8-15.7c7.5-2.5,15.5-3.3,23.3-4.6c7.2-1.2,14.8-2.7,21.1-6.7c6.9-4.3,10.8-11,12.4-18.8
	c2-9.2,1.2-19.5,6.3-27.8c4.8-7.9,14.3-10.8,21.1-16.6c7.6-6.5,8.8-15.8,8.5-25.3c-0.2-5.1-0.6-10.3-0.1-15.5
	c0.5-5.7,2.7-10.5,5.7-15.3c2.8-4.5,5.8-8.8,7.9-13.7c2.1-5.1,3.6-10.4,4.4-15.8c1.5-10.5,1-21.3-0.4-31.8
	c-2.3-16.6-7.9-34.6-20.6-46.2c-6.4-5.9-14.5-9.6-23.2-10.4c-10.5-0.9-21,2.6-30.1,7.6c-9.7,5.3-18.4,12.4-26.6,19.7
	c-8.4,7.5-16.4,15.5-24.1,23.6c-15.4,16.3-29.8,33.6-44.9,50.2c-29.4,32.5-63.4,63.3-106.5,75.7c-20.7,5.9-42.5,6.6-63.3,0.5
	c-20.9-6.2-39.6-18.4-56.6-31.8c-8.4-6.6-16.5-13.5-24.5-20.5c-1-0.9-2.6,0.6-1.5,1.5c31.2,27.1,65.2,55.9,108.5,57.8
	c42.3,1.8,82-20.7,112.8-47.8c33.2-29.2,59.1-65.6,90.7-96.5c7.8-7.9,16.2-15.2,25-21.9c8.8-6.5,18.7-12.3,29.6-14.4
	c9.8-2.1,19.9-0.1,28.2,5.5c7,4.8,12.1,12,15.8,19.5c3.8,8,6.4,16.6,7.7,25.3c1.9,10.5,2.3,21.2,1.2,31.8c-0.6,5.6-2,11.2-4.1,16.4
	c-2.1,5.1-5.2,9.5-8.1,14.2c-2.6,4.2-4.9,8.7-5.7,13.7c-0.6,4.8-0.8,9.7-0.4,14.6c0.5,10,0.8,20.2-7.5,27.3
	c-6.7,5.7-15.5,8.6-20.7,16c-5.4,7.7-5.3,17.5-6.7,26.4c-1.4,8.5-4.6,16.2-12.2,20.7c-6.4,3.8-14,5.2-21.2,6.3
	c-7.7,1.2-15.5,2.2-22.9,4.7s-13.5,6.8-17.8,13.4c-5.1,8.1-7,18-13,25.5c-12.1,15-34.7,11.9-51.7,13.5c-21.4,2-39.6,13-59.1,20.9
	c-19.8,8-41.5,10.1-62.4,6c-21.5-4.1-41.8-13.5-60.5-24.8c-19-11.6-36.4-25.5-53-40.3c-17.1-15.1-33.2-31.3-48.2-48.5
	c-7.2-8.2-14.2-16.7-20.9-25.4C68.3,570.5,67,571.5,67.5,572.2L67.5,572.2z"/>
<g>
	<path class="st5" d="M371.9,513.4c-12.5,11.5-26.1,21.8-40.7,30.6c-14.3,8.5-29.6,15.4-45.8,19.2c-15.9,3.9-32.5,4.2-48.6,0.9
		c-16.2-3.5-31.2-10.7-45.1-19.6c-14.1-9.1-27.2-19.8-40-30.7c-1.6-1.3-3.2-2.7-4.8-4c-1-0.9-2.6,0.6-1.5,1.5
		c6.3,5.8,12.8,11.4,19.4,16.8s13.3,10.7,20.4,15.6c13.8,9.5,28.9,17.6,45.2,22c16.2,4.2,33.1,4.6,49.6,1.4
		c16.6-3.1,32.5-9.5,47.1-17.7c15-8.5,28.9-18.7,41.5-30.5c1.5-1.4,3-2.9,4.5-4.3c0.8-0.7-0.4-1.9-1.2-1.2L371.9,513.4z"/>
	<path class="st5" d="M158.3,664.8c15.9,13.6,33.5,25.1,52.3,34.2c18.2,8.8,37.6,15.1,57.9,16c11.3,0.6,22.6-0.8,33.3-4.2
		c0.6-0.2,0.9-0.8,0.7-1.4c-0.2-0.5-0.7-0.8-1.3-0.7c-9.6,2.5-19.4,3.6-29.3,3.4c-9.8-0.2-19.6-1.6-29.1-4.1
		c-19.7-5.2-38.1-14-55.3-24.8c-9.7-6.1-19.1-12.8-28.3-19.7C158.5,662.9,157.5,664.2,158.3,664.8L158.3,664.8z"/>
	<path class="st5" d="M302.4,487.6c9.9,14.1,14.3,30.9,17.5,47.6c0.9,4.7,1.7,9.5,2.5,14.2c0.3,1.6,2.7,0.9,2.4-0.7
		c-2.9-16.8-5.9-33.9-13.5-49.4c-2.1-4.4-4.6-8.6-7.5-12.5C303.2,486,301.8,486.8,302.4,487.6z"/>
	<path class="st5" d="M406.4,684c10.4-2.2,17.5-10,23.6-18.2c6.3-8.6,11.8-18.3,20.3-25.1c11.3-9,26.1-8.3,39.4-11.8
		c6.3-1.6,12.6-4.2,17.5-8.7c5.1-4.8,7.5-11.3,8.6-18.1s1.2-13.7,3.3-20.2c1.7-5.3,4.8-10.9,10.1-13.5c1.2-0.6,2.5-1,3.9-1.2
		c1.9-0.2,1.9-3.2,0-3c-6,0.7-10.6,4.6-13.7,9.7c-3.3,5.5-4.6,11.8-5.3,18.1c-0.8,6.9-1.3,14.3-4.7,20.5c-3.2,5.9-9,9.7-15.1,11.9
		c-13.5,5-29,3.5-41.6,11.2c-9.3,5.6-15.3,15.2-21.3,23.9c-5.8,8.5-11.9,17.5-21.7,21.7c-1.2,0.5-2.4,0.9-3.7,1.2
		C405,682.8,405.4,684.3,406.4,684z"/>
</g>
</svg>
