<?xml version="1.0" encoding="utf-8"?>
<!-- Generator: Adobe Illustrator 26.3.1, SVG Export Plug-In . SVG Version: 6.00 Build 0)  -->
<svg version="1.1" id="Capa_1" xmlns="http://www.w3.org/2000/svg" xmlns:xlink="http://www.w3.org/1999/xlink" x="0px" y="0px"
	 viewBox="0 0 80 80" style="enable-background:new 0 0 80 80;" xml:space="preserve">
<style type="text/css">
	.st0{fill:#0067B8;}
	.st1{fill:#E63164;}
	.st2{fill:#A6C5EC;}
	.st3{fill:#FFFFFF;}
</style>
<path class="st0" d="M23.7,57.2c-3.6-3.3-5.1-8.9-5.7-12.9c-0.4-2.7-0.6-5.4-0.5-8.1c0-0.1,0.1-0.2,0.2-0.2s0.2,0.1,0.2,0.2
	c0,0.1-0.7,14.4,6,20.6c0,0,0.1,0.1,0.1,0.2c0,0.1-0.1,0.2-0.2,0.2C23.8,57.3,23.8,57.3,23.7,57.2z"/>
<path class="st0" d="M23.9,44.5c0-1.9,0.8-6.1-2.2-2.2s-1.6,9.3-1.6,9.3C22.9,50.5,23.9,46.4,23.9,44.5z"/>
<path class="st0" d="M13.1,44.3c-0.8-1.8-3.2-5.3,1.1-2.9s5.2,7.9,5.2,7.9C16.4,49.4,13.9,46,13.1,44.3z"/>
<circle class="st0" cx="17.8" cy="34.4" r="5.5"/>
<circle class="st1" cx="17.8" cy="34.3" r="3.3"/>
<path class="st0" d="M61.2,56.5c3.6-3.3,5.1-8.9,5.7-12.9c0.4-2.7,0.6-5.4,0.5-8.1c0-0.1-0.1-0.2-0.2-0.2S67,35.4,67,35.5
	c0,0.1,0.7,14.4-6,20.6c0,0-0.1,0.1-0.1,0.2C60.9,56.4,61,56.5,61.2,56.5C61.1,56.6,61.2,56.6,61.2,56.5z"/>
<path class="st0" d="M61.1,43.8c0-1.9-0.8-6.1,2.2-2.2c3,3.9,1.6,9.3,1.6,9.3C62,49.8,61.1,45.7,61.1,43.8z"/>
<path class="st0" d="M71.8,43.6c0.8-1.8,3.2-5.3-1.1-2.9c-4.3,2.4-5.2,7.9-5.2,7.9C68.5,48.7,71,45.3,71.8,43.6z"/>
<path class="st0" d="M61.7,33.7c0,3,2.5,5.5,5.5,5.5s5.5-2.5,5.5-5.5s-2.5-5.5-5.5-5.5C64.1,28.2,61.7,30.6,61.7,33.7z"/>
<circle class="st1" cx="67.2" cy="33.6" r="3.3"/>
<g>
	<path class="st0" d="M35.3,59.8c0,0-0.5-8.3-1.8-10.4c-1.3-2-4.5-5.8-4.5-8.2s4-2.9,4-2.9s-0.6-2.4,0.7-3.5c1.2-1,3-0.6,3.5-0.1
		c-0.6-1.7-1.2-4.4,1.2-5.5c2.4-1.2,4.3,0.6,4.9,2c0.7-3,0.9-5.2,0.9-6.8c0.2-5.2-0.6-8,1-8.7c0,0,0.6-0.2,1.1-0.1
		c0.9,0.2,4.5,3.2,2,17.4c-0.2,1.2,4.4,4.2,4.2,8.2c-0.1,0.7-0.2,1.4-0.4,2.1c-0.5,1.7-1.4,3.1-2.6,5c-1.2,2,2.3,10.1,2.3,10.1
		S43.2,65.3,35.3,59.8z"/>
	<path class="st2" d="M29.5,43.3c0,0,2.1,5.8,6,5.3c2.9-0.3-0.5-6.1-0.5-6.1s-0.2-3.6-1.8-4.2C33.2,38.4,27.2,38.4,29.5,43.3z"/>
	<path class="st2" d="M32.9,39.1c0,0,2.1,5.8,6,5.3c2.9-0.3-0.5-6.1-0.5-6.1s0.4-3-1.1-3.6C37.3,34.8,32,31.8,32.9,39.1z"/>
	<path class="st2" d="M36.6,34.4c0,0,2.1,7.4,6.9,7.2c3.6-0.2,0-7.6,0-7.6s0.8-3.7-1.1-4.6C42.4,29.5,36.1,25.3,36.6,34.4z"/>
	<path class="st2" d="M51.1,59.2c0,0-3-8.4-1.6-10.3c1.6-2.3,3.1-3.6,3.5-6.9c0.1-1.6-0.1-3.1-0.7-4.6c-0.4-1-1.1-1.8-1.8-2.6
		c-0.4-0.3-0.9-0.5-1.4-0.7c-3.2-1-10.9,6.4-9.7,8.5c0.4,0.8,1.9,0.7,2.8,0.7c2.9,0,5-2,5.2-1.7c0.1,0.1-0.5,0.6-1.3,1.7
		c-1.1,1.5-1.1,2.2-2,2.8c-0.5,0.3-0.9,0.4-1.6,0.6c-2,0.5-3.2-0.1-4,0.7c-0.1,0.1-0.2,0.3-0.3,0.5c-0.3,0.9-0.7,3.2-2.2,2.7
		c-0.8-0.3-1.6-0.8-2.2-1.2c1,2.7,0.9,10,0.9,10C42,65.5,51.1,59.2,51.1,59.2z"/>
	<path class="st3" d="M44.6,45.4C44.5,45.4,44.5,45.4,44.6,45.4c-0.2-0.1-0.3-0.2-0.2-0.3c0.9-2.4,2.5-4.4,4.6-5.7
		c0.1-0.1,0.2,0,0.3,0.1s0,0.2-0.1,0.3c-2,1.3-3.6,3.2-4.4,5.5C44.7,45.4,44.7,45.4,44.6,45.4z"/>
</g>
</svg>
