<?xml version="1.0" encoding="utf-8"?>
<!-- Generator: Adobe Illustrator 26.2.1, SVG Export Plug-In . SVG Version: 6.00 Build 0)  -->
<svg version="1.1" id="Layer_1" xmlns="http://www.w3.org/2000/svg" xmlns:xlink="http://www.w3.org/1999/xlink" x="0px" y="0px"
	 viewBox="0 0 80 80" style="enable-background:new 0 0 80 80;" xml:space="preserve">
<style type="text/css">
	.st0{fill:#A7C6ED;}
	.st1{fill:#002F6C;}
	.st2{fill:#FFFFFF;}
</style>
<g>
	<circle class="st0" cx="39.8" cy="39.9" r="35.9"/>
	<path class="st1" d="M3.9,39.9C3.6,14.2,29.8-4.1,53.8,6.4c29.5,12.9,30.1,54.7,0.2,67.4C29.8,84,3.6,65.8,3.9,39.9L3.9,39.9z
		 M4,39.9c0.3,31.2,38.6,46.6,60.7,24.8c13.6-13,14.3-36.8,0.3-50C42.9-7,4.2,8.9,4,39.9L4,39.9z"/>
</g>
<g>
	<circle class="st2" cx="33.2" cy="29.9" r="16.8"/>
	<path class="st1" d="M16.4,29.9c-0.2-9.1,7.4-18,16.8-17.6c14.9,0.3,23,19.4,12.4,29.8C34.5,53.6,16.1,45.4,16.4,29.9L16.4,29.9z
		 M16.6,29.9c0,13.8,18.2,20.9,27.8,11.3c10.5-10,3.6-27.8-11.3-27C24.6,14,16.4,21.1,16.6,29.9L16.6,29.9z"/>
</g>
<g>
	
		<rect x="51.6" y="38.2" transform="matrix(0.7071 -0.7071 0.7071 0.7071 -19.8178 52.3056)" class="st1" width="3.3" height="23.8"/>
	<path class="st1" d="M43.4,42.9c0.6-0.8,1.6-1.9,2.5-3c6.3,5.2,11.1,11.8,16.9,16.9l0.3,0.3c-0.8,0.9-1.7,1.9-2.5,2.8l-0.5,0.5
		L59.7,60C54.1,54.7,48.6,48.8,43.4,42.9L43.4,42.9z M43.6,42.9c6,5.2,11.9,10.7,17.1,16.5h-0.8c0.8-0.8,1.7-1.6,2.5-2.2v0.6
		C57.2,51.5,50.8,47,45.6,40.9h0.6C45.4,41.3,44.7,42.1,43.6,42.9L43.6,42.9z"/>
</g>
</svg>
