<?xml version="1.0" encoding="utf-8"?>
<!-- Generator: Adobe Illustrator 26.2.1, SVG Export Plug-In . SVG Version: 6.00 Build 0)  -->
<svg version="1.1" id="Layer_1" xmlns="http://www.w3.org/2000/svg" xmlns:xlink="http://www.w3.org/1999/xlink" x="0px" y="0px"
	 viewBox="0 0 80 80" style="enable-background:new 0 0 80 80;" xml:space="preserve">
<style type="text/css">
	.st0{fill:none;}
	.st1{fill:#002F6C;}
	.st2{fill:#E73164;}
	.st3{fill:#3F67AE;}
	.st4{fill:url(#SVGID_1_);}
	.st5{fill:url(#SVGID_00000008118208736379461080000010505183087164795031_);}
	.st6{fill:#FFFFFF;}
</style>
<pattern  x="-560" y="640" width="36.8" height="36.8" patternUnits="userSpaceOnUse" id="Nueva_muestra_de_motivo_2" viewBox="0 -36.8 36.8 36.8" style="overflow:visible;">
	<g>
		<rect y="-36.8" class="st0" width="36.8" height="36.8"/>
		<g>
			<rect y="-36.8" class="st0" width="36.8" height="36.8"/>
			<g>
				<rect y="-36.8" class="st0" width="36.8" height="36.8"/>
				<rect y="-36.8" class="st1" width="36.8" height="36.8"/>
			</g>
		</g>
	</g>
</pattern>
<pattern  x="-560" y="640" width="36.8" height="36.8" patternUnits="userSpaceOnUse" id="SVGID_0000005062962154835457920" viewBox="0 -36.8 36.8 36.8" style="overflow:visible;">
	<g>
		<rect y="-36.8" class="st0" width="36.8" height="36.8"/>
		<g>
			<rect y="-36.8" class="st0" width="36.8" height="36.8"/>
			<g>
				<rect y="-36.8" class="st0" width="36.8" height="36.8"/>
				<rect y="-36.8" class="st2" width="36.8" height="36.8"/>
			</g>
		</g>
	</g>
</pattern>
<circle class="st3" cx="39.8" cy="39.9" r="35.9"/>
<pattern  id="SVGID_1_" xlink:href="#Nueva_muestra_de_motivo_2" patternTransform="matrix(1 0 0 1 54.4 -732)">
</pattern>
<path class="st4" d="M3.9,39.9C3.6,14.2,29.8-4.1,53.8,6.4c29.5,12.9,30.1,54.7,0.2,67.4C29.8,84,3.6,65.8,3.9,39.9L3.9,39.9z
	 M4,39.9c0.3,31.2,38.6,46.6,60.7,24.8c13.6-13,14.3-36.8,0.3-50C42.9-7,4.2,8.9,4,39.9L4,39.9z"/>
<g>
	<g>
		
			<pattern  id="SVGID_00000137104603777605547920000014719706551406453659_" xlink:href="#SVGID_0000005062962154835457920" patternTransform="matrix(1 0 0 1 -152.35 16151)">
		</pattern>
		<path style="fill:url(#SVGID_00000137104603777605547920000014719706551406453659_);" d="M24.8,41c1.8-2.4,5-2.9,7.4-1.2
			c2.4,1.8,2.9,5,1.2,7.4s-5,2.9-7.4,1.2c-0.6-0.3-0.9-0.9-1.2-1.2v11.8h26.8c1.8,0,3.2-1.5,3.2-3.2V28.9H42.7
			c1.8-1.2,2.6-2.9,2.4-5c-0.3-2.9-2.9-5-5.9-4.7c-2.6,0.3-4.7,2.6-4.7,5.3c0,1.8,0.9,3.5,2.4,4.4H24.8V41L24.8,41z"/>
		<path class="st6" d="M24.8,40.7c2.9-4.7,10.3-2.4,10.6,3.2c0.3,5.9-7.9,8.5-11.2,3.5l1.8-0.6c0,4.1,0,7.9,0,12.1L25.1,58
			c8.5,0.3,17.4,0.6,25.9,0.6c2.6,0.3,4.4-1.5,4.1-4.1v-3.8c0-4.7-0.3-17.4-0.6-22.1l0.9,0.9c-2.6,0-13.2,0.3-15.9,0.3l2.9-2.1
			c1.5-0.9,2.1-2.9,1.8-4.7c-2.9-7.1-12.4,0-6.5,5l2.6,1.8c-5,0-10.3-0.3-15.3-0.3l0.6-0.6C25.1,32.7,25.4,37.4,24.8,40.7L24.8,40.7
			z M24.8,41L24.8,41L24.8,41c-0.3-4.1-0.6-8.5-0.6-12.7C28.3,28,32.7,28,36.8,28l-0.6,1.8C31,26.5,33.6,18,39.8,18
			c6.2-0.3,9.1,8.5,3.5,11.8l-0.6-2.1h12.1h0.9v0.9c-0.3,6.8-0.3,19.1-0.6,25.9c0.3,2.9-1.8,5.3-4.7,4.7c-3.5,0-7.7,0-11.2,0.3
			c-5.3,0.3-10.6,0.3-15.6,0.3v-0.9c0-5,0-10,0-15l1.8,2.4c2.4,3.5,8.2,1.8,8.2-2.6C34.2,39.2,27.7,37.1,24.8,41L24.8,41z"/>
	</g>
</g>
</svg>
