<?xml version="1.0" encoding="utf-8"?>
<!-- Generator: Adobe Illustrator 26.2.1, SVG Export Plug-In . SVG Version: 6.00 Build 0)  -->
<svg version="1.1" id="Layer_1" xmlns="http://www.w3.org/2000/svg" xmlns:xlink="http://www.w3.org/1999/xlink" x="0px" y="0px"
	 viewBox="0 0 80 80" style="enable-background:new 0 0 80 80;" xml:space="preserve">
<style type="text/css">
	.st0{fill:#EAC81F;}
	.st1{fill:#661D32;}
	.st2{fill:#BA0C2F;}
	.st3{fill:#E73164;}
	.st4{fill:#FFFFFF;}
</style>
<g>
	<circle class="st0" cx="39.8" cy="39.9" r="35.9"/>
	<path class="st1" d="M3.9,39.9C3.6,14.2,29.8-4.1,53.8,6.4c29.5,12.9,30.1,54.7,0.2,67.4C29.8,84,3.6,65.8,3.9,39.9L3.9,39.9z
		 M4,39.9c0.3,31.2,38.6,46.6,60.7,24.8c13.6-13,14.3-36.8,0.3-50C42.9-7,4.2,8.9,4,39.9L4,39.9z"/>
</g>
<g>
	<path class="st2" d="M61.6,46.6c0,11.3-9.7,20.5-21.6,20.5s-21.6-9.2-21.6-20.5c0-12.1,14.2-30.3,19.6-36.8
		c0.3-0.4,0.9-0.5,1.3-0.2c0.2,0.2,0.4,0.5,0.4,0.8c-0.5,5.4-0.1,17,9.5,22.7c0.4,0.3,0.9,0.2,1.2-0.2c1.2-1.8,1.9-3.9,2-6
		c0-0.5,0.5-0.9,0.9-0.9c0.3,0,0.6,0.2,0.8,0.5C58.2,33.2,61.6,40.6,61.6,46.6z"/>
	<path class="st3" d="M26.5,54.2c0,7.1,6.1,12.8,13.5,12.8s13.5-5.7,13.5-12.8s-7.8-17.6-11.6-22.2c-0.3-0.4-0.8-0.5-1.3-0.2
		c-0.3,0.2-0.4,0.5-0.4,0.8c0.1,3.6-0.5,9.7-5.7,13c-0.4,0.3-1,0.2-1.2-0.3c0,0,0,0,0,0c-0.5-0.8-0.8-1.6-0.9-2.5
		c-0.1-0.5-0.5-0.9-1-0.8c-0.3,0-0.6,0.2-0.7,0.5C28.3,46.6,26.5,50.8,26.5,54.2z"/>
	<path class="st4" d="M47.4,60c-0.1,4-3.4,7.1-7.4,7.1c0,0-0.1,0-0.1,0c-4,0.1-7.3-3-7.4-7c0,0,0-0.1,0-0.1c0-3.5,3.4-8.4,5.6-11.3
		c0.3-0.4,0.8-0.5,1.3-0.2c0.2,0.2,0.4,0.4,0.4,0.7c0,2.2,1,4.3,2.7,5.7c0.4,0.3,0.9,0.3,1.3-0.1c0.1-0.1,0.1-0.2,0.2-0.3l0,0
		c0.2-0.5,0.7-0.7,1.1-0.6c0.2,0.1,0.4,0.2,0.5,0.4C46.7,56.2,47.3,58.1,47.4,60z"/>
</g>
</svg>
