<?xml version="1.0" encoding="utf-8"?>
<!-- Generator: Adobe Illustrator 26.2.1, SVG Export Plug-In . SVG Version: 6.00 Build 0)  -->
<svg version="1.1" id="Capa_1" xmlns="http://www.w3.org/2000/svg" xmlns:xlink="http://www.w3.org/1999/xlink" x="0px" y="0px"
	 viewBox="0 0 200 200" style="enable-background:new 0 0 200 200;" xml:space="preserve">
<style type="text/css">
	.st0{fill:url(#SVGID_1_);}
	.st1{fill:#FFFFFF;}
	.st2{fill:#1D6E30;}
</style>
<radialGradient id="SVGID_1_" cx="118.5371" cy="25.4576" r="143.1864" gradientUnits="userSpaceOnUse">
	<stop  offset="0" style="stop-color:#3CB037"/>
	<stop  offset="1" style="stop-color:#1D6E30"/>
</radialGradient>
<circle class="st0" cx="100" cy="100.5" r="80.2"/>
<g>
	
		<image style="overflow:visible;opacity:0.4;" width="143" height="59" xlink:href="FE53E7DA3FDF574B.png"  transform="matrix(1 0 0 1 34 71)">
	</image>
	<g>
		<g>
			<path class="st1" d="M58.3,112.6c0,0.8-0.3,1.5-1,1.9c-0.6,0.5-1.5,0.7-2.5,0.7c-1,0-1.7-0.2-2.2-0.7s-0.7-1.1-0.7-2V93.6
				c-0.6,0.7-1.2,1.4-1.8,2.1c-0.2,0.2-0.5,0.3-0.8,0.5c-0.4,0.1-0.7,0.2-1.1,0.2c-0.9,0-1.7-0.2-2.2-0.7c-0.5-0.5-0.8-1.1-0.8-1.9
				c0-0.2,0.1-0.6,0.2-1c0.2-0.4,0.4-0.8,0.7-1.1c1.5-1.8,3.2-3.9,5-6.3c0.3-0.4,0.7-0.7,1.4-1c0.6-0.3,1.3-0.4,2-0.4
				c1.1,0,2.1,0.3,2.8,0.9c0.7,0.6,1.1,1.3,1.1,2.2L58.3,112.6z"/>
			<path class="st1" d="M70.3,112.9c-2-1.2-3.6-2.9-4.7-5.1c-1.1-2.2-1.7-4.6-1.7-7.3c0-3.1,0.6-5.8,1.7-8.3
				c1.1-2.4,2.7-4.3,4.8-5.7c2.1-1.4,4.4-2,7-2c2.7,0,5.1,0.7,7.1,2c2.1,1.3,3.7,3.2,4.8,5.6c1.1,2.4,1.7,5.2,1.7,8.3
				c0,2.7-0.6,5.2-1.8,7.3c-1.2,2.2-2.8,3.8-4.9,5.1c-2.1,1.2-4.5,1.8-7.1,1.8C74.7,114.8,72.3,114.1,70.3,112.9z M82.3,107
				c1.3-1.6,1.9-3.8,1.9-6.5c0-2-0.3-3.8-0.9-5.4c-0.6-1.6-1.4-2.9-2.4-3.8c-1-0.9-2.1-1.4-3.4-1.4c-1.2,0-2.4,0.5-3.4,1.4
				c-1,0.9-1.8,2.2-2.4,3.8c-0.6,1.6-0.9,3.4-0.9,5.4c0,1.7,0.3,3.3,0.8,4.7c0.5,1.4,1.3,2.4,2.3,3.2s2.1,1.1,3.3,1.1
				C79.3,109.5,81,108.6,82.3,107z"/>
			<path class="st1" d="M100.4,112.9c-2-1.2-3.6-2.9-4.7-5.1c-1.1-2.2-1.7-4.6-1.7-7.3c0-3.1,0.6-5.8,1.7-8.3
				c1.1-2.4,2.7-4.3,4.8-5.7c2.1-1.4,4.4-2,7-2c2.7,0,5.1,0.7,7.1,2c2.1,1.3,3.7,3.2,4.8,5.6c1.1,2.4,1.7,5.2,1.7,8.3
				c0,2.7-0.6,5.2-1.8,7.3c-1.2,2.2-2.8,3.8-4.9,5.1c-2.1,1.2-4.5,1.8-7.1,1.8C104.7,114.8,102.4,114.1,100.4,112.9z M112.4,107
				c1.3-1.6,1.9-3.8,1.9-6.5c0-2-0.3-3.8-0.9-5.4c-0.6-1.6-1.4-2.9-2.4-3.8c-1-0.9-2.1-1.4-3.4-1.4c-1.2,0-2.4,0.5-3.4,1.4
				c-1,0.9-1.8,2.2-2.4,3.8c-0.6,1.6-0.9,3.4-0.9,5.4c0,1.7,0.3,3.3,0.8,4.7c0.5,1.4,1.3,2.4,2.3,3.2c1,0.7,2.1,1.1,3.3,1.1
				C109.4,109.5,111.1,108.6,112.4,107z"/>
			<path class="st1" d="M131.1,95.5c-1.2-0.6-2.1-1.4-2.8-2.5c-0.7-1.1-1-2.2-1-3.6c0-1.3,0.3-2.4,1-3.5c0.7-1,1.6-1.9,2.8-2.5
				c1.2-0.6,2.5-0.9,3.9-0.9c1.4,0,2.7,0.3,3.9,0.9c1.2,0.6,2.1,1.4,2.7,2.5c0.7,1.1,1,2.2,1,3.6s-0.3,2.5-1,3.5
				c-0.7,1-1.6,1.9-2.7,2.5c-1.2,0.6-2.4,0.9-3.9,0.9C133.5,96.4,132.2,96.1,131.1,95.5z M136.5,91.2c0.4-0.4,0.6-0.9,0.6-1.5
				c0-0.7-0.2-1.2-0.7-1.6c-0.4-0.4-0.9-0.7-1.4-0.7c-0.6,0-1.1,0.2-1.5,0.7c-0.4,0.4-0.7,1-0.7,1.6c0,0.6,0.2,1.1,0.7,1.5
				c0.4,0.4,1,0.6,1.6,0.6C135.6,91.8,136.1,91.6,136.5,91.2z M136.9,114.8c-0.7-0.5-1-1.1-1-1.8c0-0.3,0.1-0.8,0.4-1.3L148,83.1
				c0.2-0.5,0.6-1,1.2-1.3c0.6-0.3,1.2-0.5,2-0.5c0.9,0,1.7,0.2,2.4,0.7c0.7,0.5,1,1.1,1,1.8c0,0.2-0.1,0.7-0.4,1.5l-11.5,28.4
				c-0.2,0.6-0.6,1.1-1.2,1.4c-0.6,0.3-1.3,0.5-2,0.5C138.4,115.5,137.6,115.3,136.9,114.8z M151.7,112.1c-1.2-0.6-2.1-1.4-2.8-2.5
				c-0.7-1.1-1-2.3-1-3.5s0.3-2.4,1-3.5c0.7-1,1.6-1.9,2.8-2.5c1.2-0.6,2.5-0.9,3.9-0.9c1.4,0,2.7,0.3,3.9,0.9
				c1.2,0.6,2.1,1.4,2.8,2.5c0.7,1.1,1,2.2,1,3.5c0,1.3-0.3,2.5-1,3.5c-0.7,1-1.6,1.9-2.8,2.5c-1.2,0.6-2.5,0.9-3.9,0.9
				C154.2,113,152.9,112.7,151.7,112.1z M157.2,107.7c0.3-0.4,0.5-0.9,0.5-1.6c0-0.6-0.2-1.2-0.5-1.6c-0.3-0.5-0.9-0.7-1.6-0.7
				c-0.7,0-1.2,0.2-1.6,0.6c-0.3,0.4-0.5,1-0.5,1.7c0,1.5,0.7,2.2,2.1,2.2C156.4,108.3,156.9,108.1,157.2,107.7z"/>
		</g>
	</g>
</g>
<path class="st2" d="M100,189.5c-49.1,0-89-39.9-89-89s39.9-89,89-89s89,39.9,89,89S149.1,189.5,100,189.5z M100,15.2
	c-47,0-85.2,38.2-85.2,85.2c0,47,38.2,85.2,85.2,85.2c47,0,85.2-38.2,85.2-85.2C185.2,53.5,147,15.2,100,15.2z"/>
</svg>
