<?xml version="1.0" encoding="utf-8"?>
<!-- Generator: Adobe Illustrator 26.2.1, SVG Export Plug-In . SVG Version: 6.00 Build 0)  -->
<svg version="1.1" id="Capa_1" xmlns="http://www.w3.org/2000/svg" xmlns:xlink="http://www.w3.org/1999/xlink" x="0px" y="0px"
	 viewBox="0 0 50 50" style="enable-background:new 0 0 50 50;" xml:space="preserve">
<style type="text/css">
	.st0{fill:#F2F2F2;}
	.st1{fill:#002F6C;}
</style>
<g>
	<polygon class="st0" points="27.29,25.46 22.71,20.88 6.57,20.88 6.57,30.03 22.71,30.03 	"/>
	
		<rect x="22.77" y="10.53" transform="matrix(0.7071 -0.7071 0.7071 0.7071 -3.7907 24.2224)" class="st0" width="9.15" height="12.32"/>
	<path class="st1" d="M44.58,25.44c0-0.22-0.09-0.43-0.24-0.59L26.81,7.33C26.49,7,25.96,7,25.63,7.33l-7.65,7.65
		c-0.16,0.16-0.24,0.37-0.24,0.59c0,0.22,0.09,0.43,0.24,0.59l3.06,3.06H5.74c-0.46,0-0.84,0.37-0.84,0.84v10.82
		c0,0.46,0.37,0.84,0.84,0.84h15.3l-3.06,3.06c-0.16,0.16-0.24,0.37-0.24,0.59c0,0.22,0.09,0.43,0.24,0.59l7.65,7.65
		c0.16,0.16,0.38,0.24,0.59,0.24c0.21,0,0.43-0.08,0.59-0.24l4.28-4.28c0.33-0.33,0.33-0.85,0-1.18l0,0c-0.33-0.33-0.85-0.33-1.18,0
		l-3.69,3.69l-6.47-6.47L36.1,19.01l6.47,6.47l-8.43,8.43c-0.33,0.33-0.33,0.85,0,1.18l0,0c0.33,0.33,0.85,0.33,1.18,0l9.02-9.02
		c0.16-0.16,0.24-0.37,0.24-0.59c0-0.01,0-0.01,0-0.02C44.58,25.45,44.58,25.45,44.58,25.44z M6.57,20.88h16.14l4.57,4.57
		l-4.57,4.57H6.57V20.88z M19.75,15.56l6.47-6.47l8.71,8.71l-6.47,6.47L19.75,15.56z"/>
	<path class="st0" d="M34.14,33.9l8.43-8.43l-6.47-6.47L19.75,35.35l6.47,6.47l3.69-3.69c0.33-0.33,0.85-0.33,1.18,0l3.05-3.05l0,0
		C33.81,34.75,33.81,34.23,34.14,33.9z"/>
</g>
</svg>
