<?xml version="1.0" encoding="utf-8"?>
<!-- Generator: Adobe Illustrator 26.2.1, SVG Export Plug-In . SVG Version: 6.00 Build 0)  -->
<svg version="1.1" id="Capa_1" xmlns="http://www.w3.org/2000/svg" xmlns:xlink="http://www.w3.org/1999/xlink" x="0px" y="0px"
	 viewBox="0 0 38 38" style="enable-background:new 0 0 38 38;" xml:space="preserve">
<g>
	<path d="M1.27,19.12c0-9.93,8.05-17.98,17.98-17.98s17.98,8.05,17.98,17.98S29.18,37.1,19.25,37.1S1.27,29.05,1.27,19.12z
		 M19.25,34.45c8.47,0,15.33-6.86,15.33-15.33S27.72,3.79,19.25,3.79S3.92,10.65,3.92,19.12S10.78,34.45,19.25,34.45z"/>
	<polygon points="28.58,12.98 25.39,9.79 19.25,15.93 13.11,9.79 9.92,12.98 16.06,19.12 9.92,25.26 13.11,28.45 19.25,22.3 
		25.39,28.45 28.58,25.26 22.43,19.12 	"/>
</g>
</svg>
