<?xml version="1.0" encoding="utf-8"?>
<!-- Generator: Adobe Illustrator 26.3.1, SVG Export Plug-In . SVG Version: 6.00 Build 0)  -->
<svg version="1.1" id="Capa_1" xmlns="http://www.w3.org/2000/svg" xmlns:xlink="http://www.w3.org/1999/xlink" x="0px" y="0px"
	 viewBox="0 0 527.7 754.7" style="enable-background:new 0 0 527.7 754.7;" xml:space="preserve">
<style type="text/css">
	.st0{fill:url(#SVGID_1_);}
	.st1{fill:#41455F;}
	.st2{fill:url(#SVGID_00000160154045000849357870000011473984470529739185_);}
	.st3{fill:url(#SVGID_00000057136639707937345010000007290757840437582239_);}
	.st4{fill:url(#SVGID_00000153705810989330760150000008995199430248758682_);}
	.st5{fill:url(#SVGID_00000085231510085747061200000010990697453828598958_);}
	.st6{fill:#575D6E;}
	.st7{fill:#FFFFF2;}
	.st8{fill:url(#SVGID_00000015314375697048625080000001172232136867110319_);}
	.st9{fill:url(#SVGID_00000137120761414881426560000015097916102392554408_);}
	.st10{fill:url(#SVGID_00000065788938469985507260000007350214156118025130_);}
	.st11{fill:#EA8BC2;}
	.st12{fill:url(#SVGID_00000013889470761829941870000000957551048902123442_);}
	.st13{fill:url(#SVGID_00000029726570506166475020000011782437744623257768_);}
	.st14{fill:#006837;}
	.st15{fill:url(#SVGID_00000166638155557769335650000011094623089519737991_);}
	.st16{fill:url(#SVGID_00000070109689147940290360000016670336824180036484_);}
	.st17{fill:url(#SVGID_00000177457163678265333140000005296472450426031764_);}
	.st18{opacity:0.8;fill:#C98BC2;enable-background:new    ;}
	.st19{opacity:0.5;fill:url(#SVGID_00000016754792893846935740000014825906341448996003_);enable-background:new    ;}
	.st20{opacity:0.5;fill:url(#SVGID_00000075872549871388208790000018141420178776370361_);enable-background:new    ;}
	.st21{fill:#1B1464;}
	.st22{fill:url(#SVGID_00000097498115393919871660000006375004781471284873_);}
	.st23{fill:url(#SVGID_00000102540463996250408480000014545901436339964810_);}
	.st24{fill:url(#SVGID_00000039837572819009123010000002788490075522298500_);}
	.st25{fill:url(#SVGID_00000182487757262132944230000012526481888673449866_);}
	.st26{fill:#C99DC2;}
	.st27{fill:#B25555;}
	.st28{fill:none;stroke:url(#SVGID_00000008855994785632720500000016189210690046597255_);stroke-miterlimit:10;}
	.st29{fill:url(#SVGID_00000132792380346108389620000010087186083647889332_);}
	.st30{fill:#840F20;}
	.st31{fill:#700A20;}
	.st32{fill:url(#SVGID_00000150822540390008540560000008113675800335718289_);}
	.st33{fill:url(#SVGID_00000113318990391944309460000007025030299560214151_);}
	.st34{fill:none;stroke:#1B1464;stroke-miterlimit:10;}
	.st35{fill:#C0D5E5;}
	.st36{fill:none;stroke:#6F95BC;stroke-miterlimit:10;}
	.st37{fill:#6F95BC;}
	.st38{opacity:0.6;fill:url(#SVGID_00000155138654285839478190000010865995885324867234_);enable-background:new    ;}
	.st39{fill:url(#SVGID_00000123432079555201275380000010852698619841425084_);}
	.st40{fill:url(#SVGID_00000153674189224662631420000001107537268345962144_);}
	.st41{fill:url(#SVGID_00000034809095638342904160000000728397884775057060_);}
	.st42{fill-rule:evenodd;clip-rule:evenodd;fill:url(#SVGID_00000058571441435273387250000004520062625477642121_);}
	.st43{fill-rule:evenodd;clip-rule:evenodd;fill:url(#SVGID_00000056410845164749009440000010387696583084387518_);}
	.st44{fill:url(#SVGID_00000120558982802309396960000007350003949816370616_);}
	.st45{fill:url(#SVGID_00000108996055026089534300000003696435329403252619_);}
	.st46{fill:url(#SVGID_00000060724032708654873810000002749958724407506593_);}
	.st47{fill:url(#SVGID_00000141421233594037721940000008279084944327742603_);}
	.st48{fill:url(#SVGID_00000093882328223618690510000002298620951170910118_);}
	.st49{fill:url(#SVGID_00000126294964772248899390000013216898148409570730_);}
	.st50{fill:url(#SVGID_00000070119114983875870830000006538170719643556525_);}
	.st51{fill:url(#SVGID_00000059287559930014213590000011629493553406253185_);}
	.st52{fill:url(#SVGID_00000114038861993182706130000000281095575878355105_);}
	.st53{fill:url(#SVGID_00000112615910474898430400000015850111879388325295_);}
	.st54{fill:url(#SVGID_00000084521576249640420750000017298581832768637604_);}
	.st55{fill:url(#SVGID_00000155128414418492330660000004971888345058227608_);}
	.st56{fill:url(#SVGID_00000094582877515367073440000013269028764845538740_);}
	.st57{fill:url(#SVGID_00000023985154304242119780000008039486736311388853_);}
	.st58{fill:url(#SVGID_00000168827228399424982510000014869214978814266801_);}
	.st59{fill:url(#SVGID_00000156589214270850685380000007952154985860218535_);}
	.st60{opacity:0.5;fill:url(#SVGID_00000028290238166513347760000006468632604529166236_);enable-background:new    ;}
	.st61{fill:url(#SVGID_00000053537797167362151310000016183379831427831692_);}
	.st62{fill:url(#SVGID_00000074442566890493907790000011276431676973524409_);}
	.st63{fill:url(#SVGID_00000075855001732024397830000000979180186516746679_);}
	.st64{fill:url(#SVGID_00000089569505636342600920000009506896952871844483_);}
	.st65{fill:url(#SVGID_00000056385912958683632760000001010569713588413885_);}
	.st66{fill:none;stroke:url(#SVGID_00000135648975746113201960000009491467592274581660_);stroke-miterlimit:10;}
	.st67{fill:url(#SVGID_00000110440174854634260010000014237707249234107319_);}
	.st68{fill:url(#SVGID_00000126306472765822009880000001495533750702310055_);}
	.st69{fill:url(#SVGID_00000026868304665208356540000008451395330038481052_);}
	.st70{fill:url(#SVGID_00000168834503371549131230000000132970413726533556_);}
</style>
<path d="M-1538,920.2c0-34.4,27.9-62.3,62.3-62.3s54.6,20,54.6,54.5s-22.6,68.6-56.7,63.5C-1516.2,970-1538,954.7-1538,920.2z"/>
<radialGradient id="SVGID_1_" cx="6844.1538" cy="-2770.783" r="11.2155" gradientTransform="matrix(-1 0 0 -1 5429.064 -1409.4817)" gradientUnits="userSpaceOnUse">
	<stop  offset="0" style="stop-color:#9C493C"/>
	<stop  offset="0.9823" style="stop-color:#CC6633"/>
</radialGradient>
<path class="st0" d="M-1407.2,1347.6h-15.4c0.5,8-0.5,21.1-0.5,21.1s3.6,5.9,5.1,6.4c1.5,0.4,10.7-6.4,10.7-6.4
	C-1408,1363-1407.7,1355.1-1407.2,1347.6z"/>
<path class="st1" d="M-1381.8,1206.8c-0.9-32.9-4.9-70.2-4.9-70.2l-21.9-10.1l-18.5,12.5l-5.6,3.8c0,0,1.8,21.3,0.2,33.2
	c-1.2,8.7,4.3,45.8,7.2,67.2l0,0c1.1,8,1.7,13.8,1.6,15.1c-0.6,5-7.8,19.7-8.6,31.9s5.7,36.3,5.7,36.3l0,0c0.8,3,3.1,12.4,4,18.5
	c0.1,0.8,0.3,6.1,0.4,7l14.9,0.1c0.9-11.5,2.8-26.5,2.8-26.5l0,0l0,0c0,0,3.4-32.6,7.2-41.6c3.8-9,8-14.8,9.9-19.7
	c0.2-0.4,0.3-0.9,0.5-1.6c0.1-0.2,0.2-0.5,0.2-0.7c0.2-0.8,0.5-1.7,0.7-2.7c0-0.1,0-0.2,0.1-0.2l0,0
	C-1383.8,1250.3-1381.1,1232.6-1381.8,1206.8z"/>
<g>
	
		<radialGradient id="SVGID_00000154411907818411054670000015347975189030029197_" cx="-1456.92" cy="-413.5387" r="6.9707" gradientTransform="matrix(1 0 0 -1 0 947.0226)" gradientUnits="userSpaceOnUse">
		<stop  offset="0" style="stop-color:#9C493C"/>
		<stop  offset="0.9823" style="stop-color:#CC6633"/>
	</radialGradient>
	<path style="fill:url(#SVGID_00000154411907818411054670000015347975189030029197_);" d="M-1448.6,1365.9l-13.9-3
		c0,0-0.7,2.9-2.7-7.7h16.4C-1448.9,1362.1-1449,1359.1-1448.6,1365.9z"/>
	
		<radialGradient id="SVGID_00000078731916807378201260000001542288882927101858_" cx="-1470.3356" cy="-376.0887" r="3.732491e-02" gradientTransform="matrix(1 0 0 -1 0 947.0226)" gradientUnits="userSpaceOnUse">
		<stop  offset="0" style="stop-color:#9C493C"/>
		<stop  offset="0.9823" style="stop-color:#CC6633"/>
	</radialGradient>
	<path style="fill:url(#SVGID_00000078731916807378201260000001542288882927101858_);" d="M-1470.3,1323.1
		C-1470.4,1323.1-1470.4,1323.1-1470.3,1323.1C-1470.4,1323.1-1470.4,1323.1-1470.3,1323.1L-1470.3,1323.1z"/>
	
		<radialGradient id="SVGID_00000068652135662356745120000017836642082071644346_" cx="-1470.0867" cy="-377.2887" r="0.9015" gradientTransform="matrix(1 0 0 -1 0 947.0226)" gradientUnits="userSpaceOnUse">
		<stop  offset="0" style="stop-color:#9C493C"/>
		<stop  offset="0.9823" style="stop-color:#CC6633"/>
	</radialGradient>
	<path style="fill:url(#SVGID_00000068652135662356745120000017836642082071644346_);" d="M-1469.7,1325.5c-0.2-0.8-0.4-1.6-0.7-2.5
		l0,0l0,0L-1469.7,1325.5z"/>
</g>
<path class="st1" d="M-1441.4,1262.9c-7.9,8.8-15.2,5.1-18.2-1c-2.8-5.8-6.8-25.7-7.2-27.5c1.5,11.3,2.5,20.1,2.2,23.5
	c-1.3,11.7-9.4,22.9-11.5,35.4s5.6,29.7,5.6,29.7l0,0l0,0l0.7,2.4c1.8,6.7,3.4,23.9,4.5,29.7c0,0,7.5,1.1,11.6,0.7s4.8-0.7,4.8-0.7
	c0.1-10.5,0.2-29.7,0.2-29.7s7.3-47.4,10.5-56.3s10-17.4,12.7-26C-1425.9,1243.9-1433.7,1254.4-1441.4,1262.9z M-1470.4,1323.1
	L-1470.4,1323.1C-1470.3,1323.1-1470.3,1323.1-1470.4,1323.1L-1470.4,1323.1z"/>
<g>
	
		<linearGradient id="SVGID_00000137838972049697283090000001698584052254533818_" gradientUnits="userSpaceOnUse" x1="5393.9834" y1="-3089.6692" x2="5402.5205" y2="-3007.1418" gradientTransform="matrix(-7.440000e-02 -0.9972 0.9972 -7.440000e-02 2102.9373 6314.7632)">
		<stop  offset="5.586590e-03" style="stop-color:#9C0A00"/>
		<stop  offset="1" style="stop-color:#D10F20"/>
	</linearGradient>
	<polygon style="fill:url(#SVGID_00000137838972049697283090000001698584052254533818_);" points="-1364.4,1186.2 -1301.6,1179 
		-1300.8,1176.1 -1314.6,1126.9 -1376.7,1144.4 -1377.3,1146.5 	"/>
	<polygon class="st6" points="-1314.5,1126.9 -1315.5,1129.8 -1301.6,1179 -1300.8,1176.1 	"/>
	<polygon class="st7" points="-1302.3,1177.2 -1301.8,1174.8 -1314.3,1126.9 -1300.4,1175.3 -1301.6,1179 -1361.1,1186 	"/>
</g>
<radialGradient id="SVGID_00000038389700100602753650000006128799760400701116_" cx="-1443.2513" cy="-76.2855" r="60.3418" gradientTransform="matrix(1 0 0 -1 0 947.0226)" gradientUnits="userSpaceOnUse">
	<stop  offset="0" style="stop-color:#9C493C"/>
	<stop  offset="0.9823" style="stop-color:#CC6633"/>
</radialGradient>
<path style="fill:url(#SVGID_00000038389700100602753650000006128799760400701116_);" d="M-1467.9,966.3c0,0,4.1,14.2,5.2,21.3
	c0,0,6,10.8,11.5,16c5.6,5.2,26.5,15.8,26.5,15.8s-1.7-16.3-6.6-22.4c0,0-3.8-2-8.6-6.1c-4.8-4.2-6.4-19.1-6.4-19.1
	S-1465.2,967.3-1467.9,966.3z"/>
<radialGradient id="SVGID_00000157293320680182727670000016660972882298694586_" cx="-1350.7744" cy="-196.5054" r="60.3933" gradientTransform="matrix(1 0 0 -1 0 947.0226)" gradientUnits="userSpaceOnUse">
	<stop  offset="0" style="stop-color:#9C493C"/>
	<stop  offset="0.9823" style="stop-color:#CC6633"/>
</radialGradient>
<path style="fill:url(#SVGID_00000157293320680182727670000016660972882298694586_);" d="M-1408.7,1084.1c0,0,0.8,4.2,7.2,13.5
	c6.4,9.3,27.5,25.3,29.2,30.4s-1.6,16.1-1.1,17.6c0.6,1.5,5.1,2.4,7.6,6.5s2.4,12.7,3.7,12.4c1.3-0.3,3.4-5.2,2.8-9
	c-0.5-3.5-2-3.8-2.6-5.8l0,0c-0.1-0.2-0.1-0.4-0.1-0.5c-0.6-2.7,0.5-8.6,0.9-9s1.9,0,1.9,0l18.8-5.8c0,0-13.9-7.8-20.2-13.9
	c-6.2-6.1-24.2-47.9-24.2-47.9C-1391.7,1073.4-1408.7,1084.1-1408.7,1084.1z"/>
<radialGradient id="SVGID_00000106865402845042399580000013192021643912643990_" cx="-1524.1686" cy="-220.2852" r="90.0075" gradientTransform="matrix(1 0 0 -1 0 947.0226)" gradientUnits="userSpaceOnUse">
	<stop  offset="0" style="stop-color:#9C493C"/>
	<stop  offset="0.9823" style="stop-color:#CC6633"/>
</radialGradient>
<path style="fill:url(#SVGID_00000106865402845042399580000013192021643912643990_);" d="M-1547.3,1142.2L-1547.3,1142.2
	c0.1,4.2,2.5,12.5,4.4,12.9c2,0.5,3.7,2.3,4.4,2.7s2,1,3.3,2s3.3,1.1,4.6,1.3c1.4,0.2,3.9,2.1,3.9,2.1c2.6,0.1,5.8-2.1,7.2-3.2
	c0.5-0.4,4.9-6,1.6-7.8c4.6,1.1,4.8-4.4,4.8-4.4s0.3-0.7,0.6-1.8c0.9-2.6,2.3-7.1,2.2-8.7c-0.2-2.4-4.7-12.3-4.7-12.3
	s3.7-12.8,11.2-22.4s13.3-17.3,13.3-17.3c-11.4-17.9-23.2-19.2-23.2-19.2s-3.2,7-4.5,15.2c-1.3,8.2-4.5,30.4-8.5,38
	c-4.1,7.6-20.4,18.4-20.7,22.1C-1547.3,1141.7-1547.4,1141.9-1547.3,1142.2z"/>
<path class="st11" d="M-1383.2,1076.7c0,0-10,16.1-12.6,27.5l-7-8.2l-1.1-17.2l19-6.2L-1383.2,1076.7z"/>
<linearGradient id="SVGID_00000057114694007098689390000004110914632155047062_" gradientUnits="userSpaceOnUse" x1="-1368.2753" y1="-197.0604" x2="-1444.0432" y2="-14.1456" gradientTransform="matrix(1 0 0 -1 0 947.0226)">
	<stop  offset="0" style="stop-color:#39B54A"/>
	<stop  offset="1" style="stop-color:#009245"/>
</linearGradient>
<path style="fill:url(#SVGID_00000057114694007098689390000004110914632155047062_);" d="M-1402.5,1012.4c3.5,1.9,12,38.9,13.4,41
	s3.2,4.8,3.7,6c0.5,1.1,1.3,5.7,1.3,7.8s2.2,3.5,2.4,4.3c0.2,0.8-1.9,4.1-1.9,4.1l-1.3-3c0,0-15.8,6.6-20.8,11.9
	c-5,5.3-13.8-13.5-13.8-13.5L-1402.5,1012.4z"/>
<path class="st1" d="M-1380.7,1132c0,0-12.4,19.4-19.9,24.6c-7.5,5.1-72.5-35.9-72.5-35.9l41.8-2.1l22.6-2.6L-1380.7,1132z"/>
<path class="st1" d="M-1470.3,1323.1L-1470.3,1323.1C-1470.3,1323.1-1470.4,1323.1-1470.3,1323.1
	C-1470.4,1323.1-1470.4,1323.1-1470.3,1323.1z"/>
<path class="st1" d="M-1416.7,1209.3c0,0,0,0.2-0.1,0.5c-3.2,15.8-7.2,28.6-8.6,33.3l0,0l0,0c-0.5,0.7-8.3,11.2-15.9,19.7
	c-7.9,8.8-15.2,5.1-18.2-1c-2.8-5.8-6.8-25.7-7.2-27.5v-0.1c0,0,0,0,0-0.1l0,0c-3.8-27.5-10.8-69.1-9-80c2.6-15.4,9-34.8,9-34.8
	s26.7,7.3,39.6,19.4c7.8,7.3,14.1,16.9,14.5,28.8C-1412.2,1181.8-1414.2,1196.5-1416.7,1209.3z"/>
<linearGradient id="SVGID_00000016769481743135630500000013992303645582593928_" gradientUnits="userSpaceOnUse" x1="-1520.55" y1="-328.2609" x2="-1419.6121" y2="-101.1507" gradientTransform="matrix(1 0 0 -1 0 947.0226)">
	<stop  offset="0" style="stop-color:#39B54A"/>
	<stop  offset="1" style="stop-color:#009245"/>
</linearGradient>
<path style="fill:url(#SVGID_00000016769481743135630500000013992303645582593928_);" d="M-1431.2,997c0,0,13.1,8.4,18.1,10.5
	c4.9,2,10.7,4.9,10.7,4.9s-1.2,10.9-0.7,13.5s10.5,10.2,12.9,13.9c2.4,3.7-1.3,38.3,6,59.8c0,0,6.4,32,10.9,45.5
	c0,0-8.3,11.4-26.6,6.7l-8.7-25.2c0,0,0.1,22.4-2.9,30.1c0,0-26.4,1.5-40-4.9c-13.7-6.4-28.9-3.2-28.9-3.2s3.1-38.2,8-49.1l0.3-4.8
	l1.3-4.1c0,0,2.1-5.7,1.7-24.1c0,0-1.1,4.8-5.4,4.5c0,0-0.1,1.4-0.2,2.5s-3.9,3.4-4,4.2c-0.1,0.8-1.2,2.1-1.7,3.2
	c-0.5,1.1-6.7,7.9-7.4,8s-4.3-0.9-4.3-0.9l1.9-2.5c0,0-8.5-14.6-23.2-19.2l-1,2.5c0,0-0.9-4.4-1.2-5.5s3.6-3.4,4.2-3.8
	c0.6-0.4,1.8-3.5,2.7-3.5s3.8-0.8,3.8-1.5c0-0.7,0.7-3.2,1.7-3.7s2.5-2.1,3.9-6.2c1.4-4.1,6.4-18.4,10.2-27.5
	c3.8-9.1,14-15.4,16.3-17.6s9.7-15.5,9.7-15.5l0.8,3.8c0,0,9.9,14.2,20.8,20s15.7,6.9,15.7,6.9S-1426.3,1005-1431.2,997z"/>
<polygon class="st14" points="-1410.7,1018.3 -1421.9,1014.5 -1418.3,1000.9 -1414.9,1001.5 "/>
<path class="st14" d="M-1441.3,989.2c0,0,6.2,2.9,7.4,3.6c1.2,0.7,4.7,11.7,4.7,11.7s-1.2-4.3-5.3-6.7
	C-1438.3,995.7-1439.6,991.8-1441.3,989.2z"/>
<linearGradient id="SVGID_00000085931446547694212590000017338968461666621072_" gradientUnits="userSpaceOnUse" x1="-1366.4641" y1="-196.3103" x2="-1442.2322" y2="-13.3956" gradientTransform="matrix(1 0 0 -1 0 947.0226)">
	<stop  offset="0" style="stop-color:#39B54A"/>
	<stop  offset="1" style="stop-color:#009245"/>
</linearGradient>
<path style="fill:url(#SVGID_00000085931446547694212590000017338968461666621072_);" d="M-1423.2,1021.2c0,0,2.6-13.5,8.5-18.9
	l4,16.1l-3.2-17.4c0,0-15.5-9.4-18.4-10.2s-10.6-4.2-10.6-4.2s1.1,2.1,1.8,2.8s4.2,1.9,6.8,3.8s6.5,13.9,8.2,21.2L-1423.2,1021.2z"
	/>
<path class="st1" d="M-1403,1365.9c0,0,2.6-7.4-0.2-11.3c-3-4.2-8.5-2.8-10.6,0c-1.7,2.2,1.2,11.3,1.2,11.3l-5.8-3.3
	c-3.5,0.1-6.3,2.9-6.5,6.3c-0.2,2.3-0.3,4.7-0.5,5.8c-0.4,2.6-3.8,17.9-3.8,19.2c0,0,41.7,3.3,72.4,3.3c0,0-4.9-12.5-27.4-14.6
	C-1386.6,1377.5-1399.4,1366.7-1403,1365.9z"/>
<path class="st1" d="M-1448.8,1361.8l0.4,0.8c0.9,1.8,1.3,3.8,1.3,5.8c-0.1,2.4-0.1,6.2,0.3,10.7c0.6,7.8,0.8,15.6,0.8,15.6
	s-6.1,5.2-8.7,4.7s-20.3-14.3-29.3-2.8c0,0,0.9-10.1,10.5-11.4c-0.7-5,6.1-18,8.5-19.2c0-3,0.2-9.4,5-9.9c3.3-0.4,6.4,2,5.6,5.4
	c2.4-2,4,1.2,4.5,1.9C-1448.3,1365.2-1448.8,1361.8-1448.8,1361.8z"/>
<linearGradient id="SVGID_00000147899897972250972100000011588506071227820430_" gradientUnits="userSpaceOnUse" x1="6785.3643" y1="-2807.043" x2="6859.4443" y2="-2807.043" gradientTransform="matrix(-1 0 0 -1 5429.064 -1409.4817)">
	<stop  offset="0" style="stop-color:#FFC4BA"/>
	<stop  offset="1" style="stop-color:#FFE7E5"/>
</linearGradient>
<path style="fill:url(#SVGID_00000147899897972250972100000011588506071227820430_);" d="M-1359.5,1393c0,0,3.2,3.1,3.2,5.7
	c0,1.1-0.1,2.4-0.2,3.4c-0.2,1.3-1.1,3.6-2.4,3.6h-68.8c-1.5,0-2.6-1.2-2.6-2.7c0.1-4,0.4-11.2,1.6-13.6c0,0,1.9,2.6,4.3,3.2
	c1.9,0.4,12.7,0.5,17.3,0.6c1.3,0,2.6,0.6,3.3,1.7l0.3,0.5c0,0,9.6,0.9,26.4,1.1S-1359.5,1393-1359.5,1393z"/>
<linearGradient id="SVGID_00000054948758263756577460000014138320602807259813_" gradientUnits="userSpaceOnUse" x1="6873.564" y1="-2807.229" x2="6915.1138" y2="-2807.229" gradientTransform="matrix(-1 0 0 -1 5429.064 -1409.4817)">
	<stop  offset="0" style="stop-color:#FFC4BA"/>
	<stop  offset="1" style="stop-color:#FFE7E5"/>
</linearGradient>
<path style="fill:url(#SVGID_00000054948758263756577460000014138320602807259813_);" d="M-1446,1394.7l1.5,10h-41.6
	c0,0,1-7.7,2.1-9s7.3-5.3,13.5-4.9c6.2,0.5,12.8,5.3,17.1,5.8C-1449,1397.2-1446,1394.7-1446,1394.7z"/>
<path class="st18" d="M-1445,979.2c0,0-10.3,9.2-19.7-0.8l-2.8-10.7c0,0,10.3,4.1,21.3,4.7L-1445,979.2z"/>
<linearGradient id="SVGID_00000008849270618916987920000007371589073604795048_" gradientUnits="userSpaceOnUse" x1="6930.6641" y1="-2498.2332" x2="6930.6641" y2="-2475.8547" gradientTransform="matrix(-1 0 0 -1 5429.064 -1409.4817)">
	<stop  offset="0" style="stop-color:#FFFFFF"/>
	<stop  offset="1" style="stop-color:#885286"/>
</linearGradient>
<path style="opacity:0.5;fill:url(#SVGID_00000008849270618916987920000007371589073604795048_);enable-background:new    ;" d="
	M-1504.4,1070.6c11.2,7.8,16.4,18.2,16.4,18.2l-4.3-0.9c0,0-2.7-5.2-7-9.7s-15.9-7.9-15.9-7.9l0.4-2
	C-1514.8,1068.2-1515.6,1062.8-1504.4,1070.6z"/>
<linearGradient id="SVGID_00000015324842876744594190000004076000578691073159_" gradientUnits="userSpaceOnUse" x1="-1470.3375" y1="-376.0887" x2="-1470.3374" y2="-376.0887" gradientTransform="matrix(1 0 0 -1 0 947.0226)">
	<stop  offset="0" style="stop-color:#9F3D59"/>
	<stop  offset="1" style="stop-color:#FFFFFF"/>
</linearGradient>
<path style="opacity:0.5;fill:url(#SVGID_00000015324842876744594190000004076000578691073159_);enable-background:new    ;" d="
	M-1470.3,1323.1L-1470.3,1323.1C-1470.3,1323.1-1470.4,1323.1-1470.3,1323.1C-1470.4,1323.1-1470.4,1323.1-1470.3,1323.1z"/>
<path class="st11" d="M-1470.4,1323.1L-1470.4,1323.1L-1470.4,1323.1L-1470.4,1323.1z"/>
<path class="st11" d="M-1470.3,1323.1L-1470.3,1323.1C-1470.3,1323.1-1470.4,1323.1-1470.3,1323.1
	C-1470.4,1323.1-1470.4,1323.1-1470.3,1323.1z"/>
<path class="st21" d="M-1356.3,1399.1c0,0-5.9,0.9-15,1.3s-58.7-2.6-58.7-2.6l-0.3,2.3c0,0,50.5,3.4,59.1,2.7c8.6-0.7,15-1.2,15-1.2
	L-1356.3,1399.1z"/>
<path class="st21" d="M-1445,1401.5c0,0-14.8-0.7-23.5-1.1c-8.8-0.3-16.9,0.5-16.9,0.5l-0.3,2.1c0,0,31-0.8,34.1-0.6
	c3.1,0.2,6.7-0.2,6.7-0.2L-1445,1401.5L-1445,1401.5z"/>
<path class="st11" d="M-1373.3,1145.7c0.6,1.5,5.1,2.4,7.6,6.5s2.4,12.7,3.7,12.4c1.3-0.3,3.4-5.2,2.8-9c-0.5-3.5-2-3.8-2.6-5.8l0,0
	c-0.2-0.3-1.9-2.7-4.1-4.1C-1368.4,1144.2-1373.3,1145.7-1373.3,1145.7z"/>
<radialGradient id="SVGID_00000116198304785498146250000006489982906985774242_" cx="-1466.0734" cy="-35.0817" r="73.9107" gradientTransform="matrix(1 0 0 -1 0 947.0226)" gradientUnits="userSpaceOnUse">
	<stop  offset="0" style="stop-color:#9C493C"/>
	<stop  offset="0.9823" style="stop-color:#CC6633"/>
</radialGradient>
<path style="fill:url(#SVGID_00000116198304785498146250000006489982906985774242_);" d="M-1447.9,897.8c0,0,14.9,1.3,19.9,10
	c4.9,8.8,5.8,28,7.7,31c1.9,3,5.7,2.5,5.6,11.9s-7.2,16.8-9.3,20.6c-2.1,3.8-3.6,6.2-9.2,6.8s-23.6-1.1-34.3-8
	c-10.7-6.9-15.4-24-21.9-34.8C-1496.1,924.7-1480.2,897.7-1447.9,897.8z"/>
<radialGradient id="SVGID_00000142876455570357901580000006092244950401008292_" cx="-1461.7169" cy="-18.5907" r="78.6301" gradientTransform="matrix(1 0 0 -1 0 947.0226)" gradientUnits="userSpaceOnUse">
	<stop  offset="0" style="stop-color:#9C493C"/>
	<stop  offset="0.9823" style="stop-color:#CC6633"/>
</radialGradient>
<path style="fill:url(#SVGID_00000142876455570357901580000006092244950401008292_);" d="M-1473.7,954c0,0-9.3-6.9-17.3-3.6
	c0,0-2,5.5-1.6,8.8c0.4,3.2,6.8,10.6,11.4,11.8s9.9-1.7,10.4-4.1C-1470.4,964.5-1473.7,954-1473.7,954z"/>
<linearGradient id="SVGID_00000096036317244807579960000008306729046212145805_" gradientUnits="userSpaceOnUse" x1="6855.1641" y1="-2329.2593" x2="6923.064" y2="-2329.2593" gradientTransform="matrix(-1 0 0 -1 5429.064 -1409.4817)">
	<stop  offset="0" style="stop-color:#FFB159"/>
	<stop  offset="1" style="stop-color:#FFA73B"/>
</linearGradient>
<path style="fill:url(#SVGID_00000096036317244807579960000008306729046212145805_);" d="M-1426.1,912.5c0,0-0.1-2.3-0.5-4.4
	c-6.8-6.9-14-10.8-14-10.8s-2.8-2.4-4.2-2.3c-1.4,0.1-4.5,2.7-4.5,2.7s-22.2-0.1-32.6,11.5c-10.4,11.5-12.1,23.7-12.1,23.7l0.4,1.8
	c0,0,3.9,4,3.9,7.9s4,0.7,4,0.7l-0.3-1.8c0,0,2.9-9.8,12.3-23.7s25.6-17.7,28.5-18.5C-1438.1,897.3-1426.1,912.5-1426.1,912.5z"/>
<linearGradient id="SVGID_00000183233188356901875730000014736596662375747991_" gradientUnits="userSpaceOnUse" x1="-1455.2136" y1="16.6313" x2="-1455.2136" y2="28.1313" gradientTransform="matrix(1 0 0 -1 0 947.0226)">
	<stop  offset="0" style="stop-color:#600E19"/>
	<stop  offset="0.984" style="stop-color:#741B17"/>
</linearGradient>
<path style="fill:url(#SVGID_00000183233188356901875730000014736596662375747991_);" d="M-1444.9,919c0,0-0.6,2.2-1.9,4.1
	c0.8-2,1.2-4.3,1.2-4.3c-5.2,2.8-14.5,1.4-16.2,3c-2.3,2.2-3.8,8.5-3.8,8.5s2.6-2.3,5.3-3.4c2.8-1.1,12.7-2.2,12.7-2.2
	C-1447.6,924.6-1444.3,922.8-1444.9,919z"/>
<path class="st26" d="M-1445.8,932.7c0.1,0.1,0.1,0.1,0.1,0.2C-1445.7,932.8-1445.7,932.7-1445.8,932.7L-1445.8,932.7z"/>
<path d="M-1446.3,936.5c1.5,2.8-1.5,5.6-4.2,3.7c-0.2-0.1-0.3-0.3-0.4-0.5c-1.7-2.8,1.3-5.7,4-4
	C-1446.8,935.9-1446.5,936.2-1446.3,936.5z"/>
<path d="M-1422.8,933.3c0,1.3-1.1,2.3-2.4,2.2c-1.3,0-2.3-1.1-2.2-2.4s1.1-2.3,2.4-2.2C-1423.8,931-1422.8,932.1-1422.8,933.3z"/>
<path class="st27" d="M-1446.9,951.6c-0.2,3.3-3.2,5.9-6.5,5.6s-5.9-3.2-5.6-6.5c0.2-3.3,3.2-5.9,6.5-5.6
	C-1449.1,945.4-1446.6,948.3-1446.9,951.6z"/>
<linearGradient id="SVGID_00000152976155523566629370000012511188163729789079_" gradientUnits="userSpaceOnUse" x1="-1488.4113" y1="-9.9005" x2="-1476.5107" y2="-9.9005" gradientTransform="matrix(1 0 0 -1 0 947.0226)">
	<stop  offset="0" style="stop-color:#600E19"/>
	<stop  offset="0.984" style="stop-color:#741B17"/>
</linearGradient>
<path style="fill:none;stroke:url(#SVGID_00000152976155523566629370000012511188163729789079_);stroke-miterlimit:10;" d="
	M-1487.8,959.5c0,0-1.9-9,11.1-2.3"/>
<g>
	
		<linearGradient id="SVGID_00000132785656825743204280000004924724723064949382_" gradientUnits="userSpaceOnUse" x1="-1432.1061" y1="1.4654" x2="-1425.55" y2="3.0746" gradientTransform="matrix(1 0 0 -1 0 947.0226)">
		<stop  offset="0" style="stop-color:#600E19"/>
		<stop  offset="0.984" style="stop-color:#741B17"/>
	</linearGradient>
	<path style="fill:url(#SVGID_00000132785656825743204280000004924724723064949382_);" d="M-1432.8,938.6c2.2,1.3,4,2.9,5.8,4.6
		c1,0.9,1.9,2.2,2.1,3.7c0.1,0.8,0,1.6-0.3,2.3s-0.9,1.2-1.4,1.6l0,0c-0.8,0.4-1.6,0.8-2.4,1.1c0.5-0.7,1.1-1.4,1.8-2l0,0
		c0.7-0.9,0.9-1.8,0.7-2.7c-0.3-0.9-0.8-1.8-1.6-2.6C-1430,942.8-1431.6,940.8-1432.8,938.6z"/>
</g>
<g>
	<path class="st30" d="M-1421.1,961.1c-0.5-2.2-2.6-1.5-4.1-0.6c-0.1,0.1-0.3,0.1-0.4,0.1c-2.2-0.4-4.6,0.3-6.8,0.8
		c-3.2,0.5-6.3,0.8-9.5,0.7l0.3-0.8c1.9,0.9,3.9,1.6,5.8,2.3c1.8,0.7,3.7,1.3,5.6,0.9c1.3-0.1,2.1-1.2,3.4-1.5c1-0.3,2.4,0.2,2.9,1
		c0.4,0.4,0.7,0.8,0.8,0.8c0.3,0,0.7-0.2,1-0.5c0.7-0.6,1-1.6,1.1-2.6c0-0.1,0.2-0.1,0.2,0c0.4,1.6-0.4,4-2.3,4.3
		c-1.1,0-1.8-1.3-2.7-1.3c-0.9,0-1.3,0.8-2.2,1.3c-0.6,0.3-1.2,0.5-1.8,0.6c-4.6,0.7-8.6-2.3-12.2-4.6c-0.4-0.3-0.1-0.9,0.3-0.8
		c1.3,0.3,2.7,0.3,4,0.2c1.7-0.2,3.3-0.8,4.9-1.4c2.4-1,4.9-1.5,7.6-0.8h-0.6c1.3-0.6,3.6-1.2,4.6,0.3c0.3,0.5,0.4,1,0.3,1.5
		c0,0.1-0.1,0.1-0.1,0.1C-1421.1,961.2-1421.1,961.2-1421.1,961.1L-1421.1,961.1z"/>
</g>
<g>
	<path class="st31" d="M-1442.9,961.7c3.6-0.4,6.5-1.9,9.1-4.3c2.4-2.1,7.8-7.3,10-2.2l-1.5-0.2c0.2-0.3,0.4-0.6,0.7-1
		c1.2-1.5,3.2-1.2,3.8,0.6c0.6,1.6,0.1,3.3-0.7,4.7c0.4-1.5,0.6-4.3-1.1-4.8c-0.8,0.2-0.8,0.8-1.2,1.5l-0.8,1.3
		c-0.4-0.7-0.9-2.4-1.9-2.4c-2.3,0.7-4,2.4-6.1,4C-1435.4,961.1-1439.4,962.5-1442.9,961.7L-1442.9,961.7z"/>
</g>
<linearGradient id="SVGID_00000145752038393671245880000014507894478599774122_" gradientUnits="userSpaceOnUse" x1="-1427.6307" y1="25.1013" x2="-1427.6307" y2="31.9213" gradientTransform="matrix(1 0 0 -1 0 947.0226)">
	<stop  offset="0" style="stop-color:#600E19"/>
	<stop  offset="0.984" style="stop-color:#741B17"/>
</linearGradient>
<path style="fill:url(#SVGID_00000145752038393671245880000014507894478599774122_);" d="M-1431.4,917.2c0,0-1.2,3.5,2.1,4.7
	c0,0,3.3-2.7,5.1-2c0,0,0.9-1.5,0.4-3.2s-1.6-1.6-1.6-1.6s-5.1,0.5-5.6,1.9c0,0,0,2.7,1.1,4.2
	C-1429.8,921.2-1431.1,919.7-1431.4,917.2z"/>
<path class="st14" d="M-1462.2,1009.1l3,17.4c0,0,17.7-14.2,32.1-8.8l-1-1.1l-24.1-12.6L-1462.2,1009.1z"/>
<linearGradient id="SVGID_00000010292071624738484480000005350045074594978743_" gradientUnits="userSpaceOnUse" x1="-1391.0177" y1="-206.4809" x2="-1466.7858" y2="-23.5664" gradientTransform="matrix(1 0 0 -1 0 947.0226)">
	<stop  offset="0" style="stop-color:#39B54A"/>
	<stop  offset="1" style="stop-color:#009245"/>
</linearGradient>
<path style="fill:url(#SVGID_00000010292071624738484480000005350045074594978743_);" d="M-1463.5,983.3c0,0-7.4,11.8-11.8,19.7
	c0,0,3.2,16.1,16.1,23.5c0,0,5.5-20.2,7.2-21.2s10.4,4.7,16.8,7.8s11.3,6.6,11.3,6.6l-2.3-5.3c0,0-14.3-6.6-23.9-13.5
	C-1459.5,994-1463.5,983.3-1463.5,983.3z"/>
<g>
	<path class="st14" d="M-1423.2,1021.2c3.4,3.1,6.6,6.5,9.7,9.9c3.1,3.8,6.8,7.7,8,12.6c0.4,4.4,0.3,8.7,0.3,13.1
		c-0.3,23.1-1.4,46.1-3.4,69.1c0-21.3,0.9-47.8,1.5-69.1c0.1-4.3,0.3-8.6,0-12.8c-1.1-4.5-4.4-8.5-7.2-12.2
		C-1417.1,1028.1-1420.1,1024.6-1423.2,1021.2L-1423.2,1021.2z"/>
</g>
<g>
	<path class="st14" d="M-1486.9,1012.3c6.6,2.5,12.2,7.1,16.7,12.4c4.5,5.4,6.7,12.6,6.7,19.6h-0.1c-1.4-8-3.9-16.2-9.4-22.3
		C-1477.1,1018.2-1482.5,1015.6-1486.9,1012.3L-1486.9,1012.3z"/>
</g>
<g>
	<path class="st14" d="M-1403.3,1025.2c-0.5-4.3-0.5-8.7,0.8-12.8C-1402.4,1016.7-1402.4,1021-1403.3,1025.2L-1403.3,1025.2z"/>
</g>
<path class="st34" d="M-1411.9,1366.9c0,0,14.9,8.8,18.9,16.8c0,0,1.7-3.3,8.8-0.9"/>
<path class="st34" d="M-1455.3,1362.7c0,0-2.2,1.1-2.3,3.7c0,0-6.3,6.1-7.4,17.3c0,0-3.9-2-8.5,1.5"/>
<g>
	<path class="st14" d="M-1503,1051.1c2.4-1,4.6,0.4,6.7,1.5c2.8,1.1,5.2,3.1,6.6,5.8c0,0,0,0.1-0.1,0.1c-0.6-0.4-1.1-0.8-1.6-1.2
		c-2.1-1.5-3.7-3.7-6-4.8c-1.9-0.5-3.7-0.9-5.6-1.2C-1503,1051.2-1503,1051.1-1503,1051.1L-1503,1051.1z"/>
</g>
<g>
	<path class="st14" d="M-1508.2,1056.3c2.8,0,5.4,1,7.7,2.4c4.2,1.7,8.4,4,10.7,8c0,0,0,0.1-0.1,0.1c-3.5-2.8-6.7-5.8-10.8-7.8
		c-2.6-0.8-5.1-1.5-7.6-2.6C-1508.2,1056.3-1508.2,1056.3-1508.2,1056.3L-1508.2,1056.3z"/>
</g>
<g>
	<path class="st14" d="M-1475.3,1072.9c-1.1-1-1.8-2.1-2.3-3.4c-1.5-1.8-3.5-3-4.6-5.2c0,0,0-0.1,0.1-0.1c0.9,0.4,1.6,1,2.3,1.6
		c1,1,1.6,2.3,2.4,3.4C-1476.3,1070.3-1475.3,1071.4-1475.3,1072.9C-1475.2,1072.9-1475.2,1073-1475.3,1072.9L-1475.3,1072.9z"/>
</g>
<g>
	<g>
		
			<ellipse transform="matrix(0.3782 -0.9257 0.9257 0.3782 -481.9998 399.8427)" class="st35" cx="56.6" cy="558.7" rx="19.4" ry="19.4"/>
		
			<ellipse transform="matrix(0.3827 -0.9239 0.9239 0.3827 -120.3771 713.5848)" class="st35" cx="473.8" cy="446.9" rx="12.6" ry="12.6"/>
		
			<ellipse transform="matrix(0.1233 -0.9924 0.9924 0.1233 -285.44 469.4616)" class="st35" cx="123" cy="396.3" rx="38.9" ry="38.9"/>
		<path class="st35" d="M449.8,753.7H95.1c-16-10.7-38.7-22.9-47.2-47.8c-20.1-58.9,27.3-79.8,53.1-109
			c25.8-29.2-27.6-41.3-20.5-104.1c3.7-32.3,46.9-61.8,91-46.3c44.2,15.5,50.6-3,71-40.6c23.8-43.8,125.4-67.5,184.4,11.2
			c58.9,78.7,2.1,138.3,8.7,166.5c6.7,28.1,54.1,42.6,57.5,96.8C495.2,711.8,483.6,739.9,449.8,753.7z"/>
	</g>
	<g>
		<g>
			<path class="st36" d="M406,751.1c-6.9-4.9-7.6-36,20.6-42.3c14.4-3.2,12.1-10.4,15-19.7c2.9-9.3,6.6-10,14.8-11.2
				c8.2-1.3,2.1-12.5,11.8-19c9.8-6.5,22.9-7,27.8,7.2c4.1,12-7.6,17.4-10,23c-2.4,5.6,4.6,13.2-3.9,21.6c-8.5,8.4-17.6,2.1-17.7,11
				c-0.1,8.9-4.1,25.2-12.7,28.6C441.2,754.4,411.5,755,406,751.1z"/>
			<g>
				<g>
					<path class="st37" d="M415.6,754.6c3.8-4.6,7.8-9,11.6-13.5c9.5-11.3,18.8-22.8,27.8-34.4c6.5-8.4,12.9-16.9,19.2-25.5
						c0.6-0.8-0.7-1.5-1.3-0.8c-10.6,14.5-21.6,28.7-32.8,42.7c-7.1,8.7-14.3,17.4-21.6,25.9c-1.3,1.5-2.7,3-4,4.6
						C413.9,754.3,415,755.4,415.6,754.6L415.6,754.6z"/>
				</g>
			</g>
		</g>
		<g>
			<path class="st36" d="M436.6,700.9c-0.7-6.1-1.7-12.2-2.3-17.7c-2.2-22.7,35.8-16.3,48.3-45.4c12.5-29.2-29.6-28.4-10.5-48.3
				c18.1-18.8,18-53.2-1.9-63.1c-27.7-13.7-52.6,9.5-55.9,32c-2.6,17.4,9.1,29.5-21.2,42.3c-30.3,12.7-25.6,28.6-19.4,58.8
				c6.2,30.3-14.3,19.2-30.2,44.7c-12.6,20.2,5.1,40.9,13,48.6l61.4,1.1"/>
			<g>
				<g>
					<g>
						<path class="st37" d="M369,752.7c0.7-1.5,1.3-3.1,2-4.6c1.8-4.2,3.7-8.4,5.5-12.6c2.7-6.3,5.5-12.6,8.2-18.9
							c3.4-7.9,6.9-15.7,10.3-23.6c3.9-8.8,7.7-17.6,11.6-26.4c4.1-9.2,8.2-18.5,12.3-27.7c4-9,8.1-18.1,12.1-27.1
							c3.8-8.3,7.6-16.7,11.4-25c3.2-7,6.5-14,9.8-20.9c2.5-5.2,4.9-10.3,7.6-15.4c0.5-0.9,0.9-1.8,1.4-2.7c0.5-0.9-0.8-1.6-1.3-0.8
							c-2.4,4.5-4.7,9.1-6.9,13.7c-3.2,6.5-6.2,13.1-9.3,19.7c-3.7,8-7.4,16-11,24c-4,8.9-8.1,17.9-12.1,26.8
							c-4.1,9.2-8.2,18.4-12.3,27.6c-4,9-7.9,18-11.9,27c-3.6,8.1-7.1,16.2-10.7,24.4c-3,6.8-5.9,13.5-8.9,20.3
							c-2.1,4.8-4.2,9.5-6.2,14.3c-1,2.2-2,4.5-2.9,6.7c0,0.1-0.1,0.2-0.1,0.3C367.3,752.8,368.6,753.5,369,752.7L369,752.7z"/>
					</g>
				</g>
				<g>
					<g>
						<g>
							<path class="st37" d="M425,624.8c12-0.7,24-1.3,36-2c1.7-0.1,3.4-0.2,5.2-0.3c1-0.1,1-1.6,0-1.5c-12,0.7-24,1.3-36,2
								c-1.7,0.1-3.4,0.2-5.2,0.3C424.1,623.4,424.1,624.9,425,624.8L425,624.8z"/>
						</g>
					</g>
					<g>
						<g>
							<path class="st37" d="M383.5,718.5c9.5-1.1,19-2.1,28.5-3.2c1.3-0.1,2.7-0.3,4-0.4c0.9-0.1,1-1.6,0-1.5
								c-9.5,1.1-19,2.1-28.5,3.2c-1.3,0.2-2.7,0.3-4,0.4C382.5,717.1,382.5,718.6,383.5,718.5L383.5,718.5z"/>
						</g>
					</g>
				</g>
				<g>
					<g>
						<path class="st37" d="M379.7,615.7c2.7,6.1,5.5,12.3,8.2,18.4c4.3,9.7,8.7,19.4,13,29.2c1,2.2,2,4.5,3,6.7
							c0.4,0.9,1.7,0.1,1.3-0.8c-2.7-6.1-5.5-12.3-8.2-18.4c-4.3-9.7-8.7-19.4-13-29.2c-1-2.2-2-4.5-3-6.7
							C380.6,614,379.3,614.8,379.7,615.7L379.7,615.7z"/>
					</g>
				</g>
			</g>
			<path class="st36" d="M439,553.4c-2,3-5.5,4.1-7.8,2.5c-2.3-1.6-2.6-5.2-0.5-8.2c2-3,5.5-4.1,7.8-2.5
				C440.8,546.8,441,550.4,439,553.4z"/>
			<path class="st36" d="M440.5,569.4c0,1.6-1.3,2.8-2.8,2.8c-1.6,0-2.8-1.3-2.8-2.8c0-1.6,1.3-2.8,2.8-2.8
				C439.2,566.5,440.5,567.8,440.5,569.4z"/>
		</g>
		<g>
			<path class="st36" d="M110.3,732.9c-1.3-3,7.4-15.9-2.9-20.8c-10.3-4.8-11.1-16.9-11.1-16.9c-0.5-4.6-0.8-9.2-1.4-13.4
				c-2.2-17-29-5.8-43.1-25.1c-14.1-19.2,16.8-25.8-0.6-37.1C34.9,609,29,583.7,42,573.1c18-14.8,40.1-2,46.4,13.9
				c4.8,12.3-1.6,23.2,22.7,27.3c24.4,4.2,23.6,16.6,24.2,39.8c0.6,23.2,13.7,11.6,29.7,27.6c12.7,12.7,3.2,30.8-1.3,37.8
				c0,0-2.4,6.7,3.1,13.4c5.5,6.7,17,7.5,13.4,21.4"/>
			<g>
				<g>
					<g>
						<path class="st37" d="M161.5,753.3c-3-4.9-6-9.8-9.1-14.7c-7.4-12-14.8-23.9-22.3-35.8c-9.4-15-18.9-30-28.4-45
							c-9-14.1-18.1-28.2-27.5-42.2c-6.3-9.3-12.5-18.8-19.6-27.5c-0.5-0.6-1-1.2-1.5-1.8c-0.6-0.7-1.7,0.3-1.1,1.1
							c2.7,3.1,5.1,6.4,7.5,9.8c3.6,5,7.1,10.1,10.6,15.2c9.2,13.6,18.1,27.3,27,41.1c9.6,15,19.1,30,28.5,45
							c7.8,12.5,15.6,25,23.3,37.5c2.5,4,5,8,7.4,12c1.2,1.9,2.3,3.9,3.5,5.7c0.1,0.1,0.1,0.2,0.1,0.2
							C160.7,754.9,162,754.2,161.5,753.3L161.5,753.3z"/>
					</g>
				</g>
				<g>
					<g>
						<g>
							<path class="st37" d="M92,645.5c-8.9,1.6-17.8,3.1-26.7,4.7c-1.3,0.2-2.5,0.4-3.8,0.7c-0.9,0.2-0.5,1.6,0.4,1.4
								c8.9-1.6,17.8-3.1,26.7-4.7c1.3-0.2,2.5-0.4,3.8-0.7C93.4,646.8,93,645.4,92,645.5L92,645.5z"/>
						</g>
					</g>
					<g>
						<g>
							<path class="st37" d="M128.7,701c-7.1,0.8-14.2,1.7-21.4,2.5c-1,0.1-2,0.2-3,0.4c-0.9,0.1-1,1.6,0,1.5
								c7.1-0.8,14.2-1.7,21.4-2.5c1-0.1,2-0.2,3-0.4C129.6,702.4,129.7,700.9,128.7,701L128.7,701z"/>
						</g>
					</g>
				</g>
				<g>
					<g>
						<path class="st37" d="M120.6,632.8c-1,4.9-1.9,9.9-2.9,14.8c-1.5,7.9-3,15.8-4.6,23.6c-0.3,1.8-0.7,3.6-1,5.4
							c-0.2,0.9,1.3,1.3,1.4,0.4c1-4.9,1.9-9.9,2.9-14.8c1.5-7.9,3-15.8,4.6-23.6c0.3-1.8,0.7-3.6,1-5.4
							C122.2,632.3,120.8,631.9,120.6,632.8L120.6,632.8z"/>
					</g>
				</g>
			</g>
			<path class="st36" d="M69.5,587.6c2,1.8,4.7,2,6.2,0.5c1.4-1.5,1-4.3-1-6.1c-2-1.8-4.7-2-6.2-0.5C67.1,583,67.5,585.7,69.5,587.6
				z"/>
			<path class="st36" d="M71.1,599.5c0.3,1.1,1.4,1.9,2.6,1.6c1.1-0.3,1.9-1.4,1.6-2.6c-0.3-1.1-1.4-1.9-2.6-1.6
				C71.6,597.2,70.9,598.4,71.1,599.5z"/>
		</g>
		<g>
			<g>
				<path class="st36" d="M64.6,752.9c-0.8-5.1-0.2-10.7-0.3-15.5c-0.2-10.4-15.9-3.6-24.2-15.8c-8.3-12.2,7-19.1-1.2-23.6
					c-8.2-4.5-12.3-21.1-2.3-27.7c12.3-8.1,27.4-0.2,30.5,9.7c2.4,7.6-2.9,13.9,13.6,17.5c16.6,3.6,15.1,11,13.7,25
					c-1.4,14,9,2.5,18.8,12.8c5.6,5.9,2,13.9-1.2,18.9"/>
			</g>
			<g>
				<g>
					<g>
						<path class="st37" d="M96.9,753.9c-7-10.1-13.9-20.2-21-30.3C68,712.3,60.1,701,52,689.8c-2.9-4-5.9-8.1-9.1-11.9
							c-0.6-0.7-1.7,0.3-1.1,1.1c6.7,8.2,12.8,17,18.9,25.6c8.2,11.5,16.3,23.2,24.3,34.8c3.5,5.1,7,10.2,10.5,15.2
							C96.1,755.4,97.4,754.7,96.9,753.9L96.9,753.9z"/>
					</g>
				</g>
				<g>
					<g>
						<g>
							<path class="st37" d="M65.5,709.5c-6.3,0.5-12.6,1.1-18.9,1.6c-0.9,0.1-1.8,0.2-2.7,0.2c-1,0.1-1,1.6,0,1.5
								c6.3-0.5,12.6-1.1,18.9-1.6c0.9-0.1,1.8-0.2,2.7-0.2C66.5,710.9,66.5,709.4,65.5,709.5L65.5,709.5z"/>
						</g>
					</g>
				</g>
				<g>
					<g>
						<path class="st37" d="M87.5,703c-2.7,7.6-5.4,15.2-8.2,22.8c-0.4,1.1-0.8,2.1-1.2,3.2c-0.3,0.9,1.1,1.3,1.4,0.4
							c2.7-7.6,5.4-15.2,8.2-22.8c0.4-1.1,0.8-2.1,1.2-3.2C89.3,702.5,87.8,702.1,87.5,703L87.5,703z"/>
					</g>
				</g>
			</g>
			<path class="st36" d="M54,679.6c1.2,1.2,3.1,1.4,4.2,0.6c1.1-0.9,1-2.5-0.2-3.7c-1.2-1.2-3.1-1.4-4.2-0.6
				C52.6,676.7,52.7,678.4,54,679.6z"/>
			<path class="st36" d="M47.9,721c0.2,1.4,1.6,2.3,3.2,2.1c1.6-0.2,2.7-1.5,2.5-2.9c-0.2-1.4-1.6-2.3-3.2-2.1
				C48.9,718.4,47.7,719.6,47.9,721z"/>
		</g>
	</g>
</g>
<g>
	
		<radialGradient id="SVGID_00000036235402562323772960000013695416306838067088_" cx="2440.5835" cy="-366.3289" r="7.5835" gradientTransform="matrix(0.9986 -5.320000e-02 5.320000e-02 0.9986 -2025.3533 748.2627)" gradientUnits="userSpaceOnUse">
		<stop  offset="0" style="stop-color:#9C493C"/>
		<stop  offset="0.9823" style="stop-color:#CC6633"/>
	</radialGradient>
	<path style="opacity:0.6;fill:url(#SVGID_00000036235402562323772960000013695416306838067088_);enable-background:new    ;" d="
		M384.3,245.4c0,0,10.5-0.8,15.5,5.3l-2,9.1c0,0-6.3-10.6-12.7-12.4L384.3,245.4z"/>
	<g>
		
			<linearGradient id="SVGID_00000118377176181928696880000014991228841609396925_" gradientUnits="userSpaceOnUse" x1="1902.2817" y1="-148.2122" x2="1938.2776" y2="-148.2122" gradientTransform="matrix(-1 0 0 1 2318.1685 366)">
			<stop  offset="0" style="stop-color:#600E19"/>
			<stop  offset="0.984" style="stop-color:#741B17"/>
		</linearGradient>
		<path style="fill:url(#SVGID_00000118377176181928696880000014991228841609396925_);" d="M379.8,209.7l0.5,9.9l14.5,10.9l11.3-1.5
			l4.9-2.1c0,0,4.4-7.1,4.7-8.5c0.3-1.4-0.2-4.4-0.2-4.4l-19.3-9L379.8,209.7z"/>
		
			<radialGradient id="SVGID_00000008132996721677683620000013422469431136380859_" cx="1937.5935" cy="-85.5462" r="116.4344" gradientTransform="matrix(-1 0 0 1 2318.1685 366)" gradientUnits="userSpaceOnUse">
			<stop  offset="0" style="stop-color:#9C493C"/>
			<stop  offset="0.9823" style="stop-color:#CC6633"/>
		</radialGradient>
		<path style="fill:url(#SVGID_00000008132996721677683620000013422469431136380859_);" d="M380.7,208.5c0,0,3.6-13.5,4-18
			c0.4-4.5,3.4-19.9,4.8-22.8c0,0,2.9-0.5,4.8,2.1c1.9,2.7,1,15.6-3,21.8c0,0-1.2,8.1-0.7,13.6L380.7,208.5z"/>
		
			<radialGradient id="SVGID_00000131328115133919784470000006294836037518789307_" cx="1937.5935" cy="-85.5568" r="116.4133" gradientTransform="matrix(-1 0 0 1 2318.1685 366)" gradientUnits="userSpaceOnUse">
			<stop  offset="0" style="stop-color:#9C493C"/>
			<stop  offset="0.9823" style="stop-color:#CC6633"/>
		</radialGradient>
		<path style="fill:url(#SVGID_00000131328115133919784470000006294836037518789307_);" d="M395.1,202.1c0,0,3,0.5,6.2,2.6l0.1,2.4
			c0,0,5.9,0.5,7.7,2.3l0.1,1.8c0,0,3.7,0.5,6.3,2.8c0,0-1.8,7.6-5.5,10.4c0,0-2.9,0.1-5.2-1.8l-1.5,1.7c0,0-4.8,1-5.2-2.8l1.3-5.5
			c0,0-1.9,2.4-2.7,2.8c-0.8,0.4-4.2-0.4-4.6-3S395.1,202.1,395.1,202.1z"/>
		
			<linearGradient id="SVGID_00000083088202098202831590000002623857887507916929_" gradientUnits="userSpaceOnUse" x1="1915.8016" y1="-155.5622" x2="1918.8086" y2="-155.5622" gradientTransform="matrix(-1 0 0 1 2318.1685 366)">
			<stop  offset="0" style="stop-color:#600E19"/>
			<stop  offset="0.984" style="stop-color:#741B17"/>
		</linearGradient>
		<path style="fill-rule:evenodd;clip-rule:evenodd;fill:url(#SVGID_00000083088202098202831590000002623857887507916929_);" d="
			M401.3,204.7c0,0-1,6.9-2,11.4l3-8.9l-0.9-0.1L401.3,204.7z"/>
		
			<linearGradient id="SVGID_00000003804993447699147410000018223120815640522130_" gradientUnits="userSpaceOnUse" x1="1907.7285" y1="-149.8621" x2="1913.3744" y2="-149.8621" gradientTransform="matrix(-1 0 0 1 2318.1685 366)">
			<stop  offset="0" style="stop-color:#600E19"/>
			<stop  offset="0.984" style="stop-color:#741B17"/>
		</linearGradient>
		<path style="fill-rule:evenodd;clip-rule:evenodd;fill:url(#SVGID_00000003804993447699147410000018223120815640522130_);" d="
			M409.2,209.5c0,0-2.1,7.8-4.4,13.2c0,0,3.8-6.7,5.6-11.2l-1.1-0.2L409.2,209.5z"/>
		
			<radialGradient id="SVGID_00000075865418743499103970000005162025651041063076_" cx="1945.684" cy="-89.4614" r="62.8184" gradientTransform="matrix(-1 0 0 1 2318.1685 366)" gradientUnits="userSpaceOnUse">
			<stop  offset="0" style="stop-color:#9C493C"/>
			<stop  offset="0.9823" style="stop-color:#CC6633"/>
		</radialGradient>
		<path style="fill:url(#SVGID_00000075865418743499103970000005162025651041063076_);" d="M354.9,303.6l21.1-33.9l0,0
			c3.7-6.2,9.3-16.3,9.5-20.1c0.2-5.5-9-13.2-11.2-19.2c-1.5-4.2,2.2-22.3,2.7-23.6s8.6-3.9,11.7-5c3.2-1.2,7.7-3.6,8.7-2.7
			c1,0.8-0.3,8.6-5.6,11.4c-4.9,2.6-7.8,2.5-7.8,2.5l-1.1,6.1c0,0,5.3,1,8.7,4.4c3.4,3.4,10.1,4.1,14.7,3.9c4.6-0.1,9.6-8.9,9.6-8.9
			s-3.1,18.1-8.5,25.8c0,0-4.7,5.7-7.5,6.5c0,0-5.4,28-14.2,50.3l0,0c0,0-18,65.7-31.9,50.8c0,0-19.1-8.2-23.3-17.1
			C326.3,325.9,331.7,293.6,354.9,303.6z"/>
	</g>
	<path d="M392.2,120.5c0-45-36.5-81.5-81.5-81.5s-71.4,26.2-71.4,71.2s29.6,89.7,74.1,82.9C363.8,185.5,392.2,165.5,392.2,120.5z"/>
	
		<radialGradient id="SVGID_00000151532229638547870120000004204180246988113080_" cx="3014.9795" cy="2685.9568" r="14.6296" gradientTransform="matrix(1 0 0 1 -2782.8955 -1990.5044)" gradientUnits="userSpaceOnUse">
		<stop  offset="0" style="stop-color:#9C493C"/>
		<stop  offset="0.9823" style="stop-color:#CC6633"/>
	</radialGradient>
	<path style="fill:url(#SVGID_00000151532229638547870120000004204180246988113080_);" d="M221.7,677.5h20.1
		c-0.7,10.4,0.6,27.5,0.6,27.5s-4.7,7.8-6.7,8.3c-2,0.6-14-8.3-14-8.3C222.8,697.6,222.4,687.3,221.7,677.5z"/>
	<path class="st1" d="M188.5,493.5c1.1-43,6.5-91.8,6.5-91.8l28.7-13.2l24.2,16.4l7.3,5c0,0-2.4,27.8-0.2,43.4
		c1.6,11.3-5.6,59.9-9.3,87.9l0,0c-1.4,10.4-2.3,18-2,19.7c0.8,6.5,10.3,25.7,11.3,41.7c1,15.9-7.4,47.5-7.4,47.5l0,0
		c-1,4-4.1,16.2-5.3,24.1c-0.1,1-0.5,7.9-0.5,9.2l-19.5,0.1c-1.1-15-3.7-34.7-3.7-34.7l0,0l0,0c0,0-4.4-42.7-9.4-54.4
		s-10.5-19.3-13-25.7c-0.2-0.6-0.4-1.2-0.7-2.1c-0.1-0.3-0.2-0.6-0.3-0.9c-0.3-1-0.6-2.2-0.9-3.5c0-0.1,0-0.2-0.1-0.3l0,0
		C191.2,550.3,187.7,527.3,188.5,493.5z"/>
	<g>
		
			<radialGradient id="SVGID_00000085223461095765568580000017924049601573860483_" cx="2031.4005" cy="328.4973" r="9.1052" gradientTransform="matrix(-1 0 0 1 2318.1685 366)" gradientUnits="userSpaceOnUse">
			<stop  offset="0" style="stop-color:#9C493C"/>
			<stop  offset="0.9823" style="stop-color:#CC6633"/>
		</radialGradient>
		<path style="fill:url(#SVGID_00000085223461095765568580000017924049601573860483_);" d="M275.9,701.5l18.1-3.9
			c0,0,0.8,3.8,3.5-10.1h-21.4C276.2,696.5,276.3,692.6,275.9,701.5z"/>
		
			<radialGradient id="SVGID_00000008835555126700675520000011535968511568003993_" cx="2013.8715" cy="279.5817" r="5.389721e-02" gradientTransform="matrix(-1 0 0 1 2318.1685 366)" gradientUnits="userSpaceOnUse">
			<stop  offset="0" style="stop-color:#9C493C"/>
			<stop  offset="0.9823" style="stop-color:#CC6633"/>
		</radialGradient>
		<path style="fill:url(#SVGID_00000008835555126700675520000011535968511568003993_);" d="M304.2,645.6c0.1,0,0.1-0.1,0.1-0.1
			C304.3,645.5,304.3,645.5,304.2,645.6L304.2,645.6z"/>
		
			<radialGradient id="SVGID_00000182528971533650473810000002508390075189308340_" cx="2014.1969" cy="281.1308" r="1.1797" gradientTransform="matrix(-1 0 0 1 2318.1685 366)" gradientUnits="userSpaceOnUse">
			<stop  offset="0" style="stop-color:#9C493C"/>
			<stop  offset="0.9823" style="stop-color:#CC6633"/>
		</radialGradient>
		<path style="fill:url(#SVGID_00000182528971533650473810000002508390075189308340_);" d="M303.5,648.7c0.3-1.1,0.6-2.1,0.9-3.2
			l0,0l0,0L303.5,648.7z"/>
	</g>
	<path class="st1" d="M245.6,541.1c3.5,11.2,12.4,22.3,16.6,34c4.2,11.7,13.7,73.6,13.7,73.6s0.2,25.1,0.2,38.8c0,0,0.9,0.4,6.2,0.9
		c5.4,0.6,15.2-0.9,15.2-0.9c1.4-7.5,3.5-30,5.9-38.8l0.9-3.2l0,0l0,0c0,0,10.1-22.5,7.4-38.8c-2.7-16.3-13.3-31-15-46.2
		c-0.5-4.4,0.8-16,2.8-30.7c-0.5,2.4-5.7,28.3-9.4,35.9c-3.9,7.9-13.4,12.7-23.7,1.3C256.4,555.8,246.2,542,245.6,541.1z
		 M304.2,645.6L304.2,645.6c0.1,0,0.1-0.1,0.1-0.1S304.3,645.5,304.2,645.6z"/>
	<g>
		
			<linearGradient id="SVGID_00000124856044590025032670000005059851359865273013_" gradientUnits="userSpaceOnUse" x1="5557.6963" y1="-163.1168" x2="5568.8535" y2="-270.9692" gradientTransform="matrix(7.435710e-02 -0.9972 0.9972 7.435710e-02 -65.2882 5994.1484)">
			<stop  offset="5.586590e-03" style="stop-color:#9C0A00"/>
			<stop  offset="1" style="stop-color:#D10F20"/>
		</linearGradient>
		<polygon style="fill:url(#SVGID_00000124856044590025032670000005059851359865273013_);" points="165.8,466.6 83.7,457.2 
			82.7,453.4 100.7,389.1 181.9,411.9 182.7,414.7 		"/>
		<polygon class="st6" points="100.6,389.1 102,393 83.7,457.2 82.7,453.4 		"/>
		<polygon class="st7" points="84.7,454.8 84,451.7 100.4,389.1 82.1,452.4 83.7,457.1 161.5,466.3 		"/>
	</g>
	
		<radialGradient id="SVGID_00000036232281271020641650000010893870218319460265_" cx="2049.2671" cy="-112.2442" r="78.859" gradientTransform="matrix(-1 0 0 1 2318.1685 366)" gradientUnits="userSpaceOnUse">
		<stop  offset="0" style="stop-color:#9C493C"/>
		<stop  offset="0.9823" style="stop-color:#CC6633"/>
	</radialGradient>
	<path style="fill:url(#SVGID_00000036232281271020641650000010893870218319460265_);" d="M301,179.2c0,0-5.3,18.6-6.8,27.8
		c0,0-7.8,14.1-15.1,20.9c-7.3,6.8-34.6,20.7-34.6,20.7s2.2-21.4,8.7-29.3c0,0,5-2.6,11.3-8s8.4-25,8.4-25S297.5,180.6,301,179.2z"
		/>
	
		<radialGradient id="SVGID_00000005987908352118505450000014765798646050370996_" cx="2170.1223" cy="44.8678" r="78.9263" gradientTransform="matrix(-1 0 0 1 2318.1685 366)" gradientUnits="userSpaceOnUse">
		<stop  offset="0" style="stop-color:#9C493C"/>
		<stop  offset="0.9823" style="stop-color:#CC6633"/>
	</radialGradient>
	<path style="fill:url(#SVGID_00000005987908352118505450000014765798646050370996_);" d="M223.6,333.2c0,0-1.1,5.5-9.4,17.6
		c-8.4,12.2-35.9,33.1-38.1,39.8s2.1,21,1.4,23c-0.8,2-6.6,3.2-9.9,8.5c-3.2,5.3-3.1,16.6-4.8,16.2c-1.7-0.4-4.4-6.8-3.6-11.7
		c0.7-4.6,2.6-4.9,3.4-7.6l0,0c0.1-0.2,0.1-0.5,0.2-0.7c0.8-3.5-0.6-11.2-1.1-11.7s-2.5,0-2.5,0l-24.5-7.5c0,0,18.2-10.3,26.4-18.2
		c8.2-8,31.6-62.6,31.6-62.6C201.4,319.2,223.6,333.2,223.6,333.2z"/>
	
		<linearGradient id="SVGID_00000164493290300666399740000012962154367198758586_" gradientUnits="userSpaceOnUse" x1="638.3712" y1="-27.2122" x2="665.4712" y2="-27.2122" gradientTransform="matrix(1 0 0 1 -448 366)">
		<stop  offset="0" style="stop-color:#600E19"/>
		<stop  offset="0.984" style="stop-color:#741B17"/>
	</linearGradient>
	<path style="fill:url(#SVGID_00000164493290300666399740000012962154367198758586_);" d="M190.3,323.5c0,0,13.1,21,16.5,35.9
		l9.2-10.7l1.4-22.5l-24.8-8.1L190.3,323.5z"/>
	
		<linearGradient id="SVGID_00000077305073842911185750000008412056018382661002_" gradientUnits="userSpaceOnUse" x1="2147.2341" y1="45.6002" x2="2048.2151" y2="-193.4457" gradientTransform="matrix(-1 0 0 1 2318.1685 366)">
		<stop  offset="0" style="stop-color:#39B54A"/>
		<stop  offset="1" style="stop-color:#009245"/>
	</linearGradient>
	<path style="fill:url(#SVGID_00000077305073842911185750000008412056018382661002_);" d="M215.6,239.4
		c-4.5,2.5-15.6,50.9-17.5,53.6s-4.2,6.3-4.8,7.8s-1.7,7.4-1.7,10.3s-2.9,4.6-3.1,5.6s2.5,5.3,2.5,5.3l1.7-3.9
		c0,0,20.7,8.6,27.2,15.5s18-17.6,18-17.6L215.6,239.4z"/>
	<path class="st1" d="M187.1,395.8c0,0,16.2,25.4,26,32.1s94.7-46.9,94.7-46.9l-54.7-2.7l-29.5-3.4L187.1,395.8z"/>
	<path class="st1" d="M304.3,645.5C304.2,645.6,304.2,645.6,304.3,645.5L304.3,645.5L304.3,645.5z"/>
	<path class="st1" d="M234.1,496.9c0,0,0,0.2,0.1,0.7c4.1,20.7,9.4,37.4,11.3,43.5l0,0l0,0c0.6,0.9,10.8,14.7,20.8,25.8
		c10.4,11.5,19.8,6.7,23.7-1.3c3.7-7.6,8.9-33.5,9.4-35.9v-0.1c0,0,0,0,0-0.1l0,0c5-35.9,14.2-90.3,11.8-104.6
		c-3.4-20.1-11.8-45.5-11.8-45.5s-34.9,9.6-51.8,25.4c-10.2,9.5-18.4,22.1-18.9,37.6C228.3,460.9,230.9,480.1,234.1,496.9z"/>
	
		<linearGradient id="SVGID_00000147917156964148390470000017417789532253750959_" gradientUnits="userSpaceOnUse" x1="1949.8832" y1="217.7823" x2="2081.7959" y2="-79.0217" gradientTransform="matrix(-1 0 0 1 2318.1685 366)">
		<stop  offset="0" style="stop-color:#39B54A"/>
		<stop  offset="1" style="stop-color:#009245"/>
	</linearGradient>
	<path style="fill:url(#SVGID_00000147917156964148390470000017417789532253750959_);" d="M253.2,219.3c0,0-17.2,11-23.6,13.7
		s-14,6.4-14,6.4s1.5,14.2,0.9,17.6c-0.6,3.4-13.7,13.4-16.8,18.1s1.7,50.1-7.9,78.2c0,0-8.4,41.8-14.3,59.4c0,0,10.9,14.9,34.7,8.7
		l11.4-32.9c0,0-0.1,29.3,3.8,39.4c0,0,34.5,2,52.3-6.4c17.9-8.4,37.8-4.2,37.8-4.2s-4.1-50-10.4-64.2l-0.4-6.3l-1.7-5.4
		c0,0-2.7-7.4-2.3-31.5c0,0,1.4,6.3,7.1,5.8c0,0,0.1,1.8,0.3,3.3c0.1,1.5,5.1,4.4,5.3,5.5c0.1,1.1,1.6,2.8,2.2,4.2
		c0.6,1.4,8.7,10.3,9.7,10.4s5.6-1.2,5.6-1.2l-2.5-3.3c0,0-2.4-37.9,24.5-31.1c0.7-1.8,0.9-1.5,1.3-2.2c0.1-0.2-0.4-5.4-1.5-5.4
		s-5-1-5-2c0-0.9-0.9-4.2-2.2-4.9c-1.3-0.7-3.2-2.8-5.1-8s-8.3-24-13.4-35.9c-5-11.9-18.3-20.1-21.3-23S295,201.9,295,201.9l-1,5
		c0,0-13,18.6-27.2,26.1c-14.2,7.5-20.5,9-20.5,9S246.7,229.8,253.2,219.3z"/>
	<polygon class="st14" points="226.3,247.3 241,242.2 236.3,224.5 231.8,225.2 	"/>
	<path class="st14" d="M266.3,209.2c0,0-8.1,3.8-9.7,4.8c-1.5,0.9-6.2,15.3-6.2,15.3s1.6-5.6,7-8.7
		C262.4,217.6,264.1,212.6,266.3,209.2z"/>
	
		<linearGradient id="SVGID_00000101064581470515466300000018097471395689723011_" gradientUnits="userSpaceOnUse" x1="2149.6069" y1="44.6172" x2="2050.5881" y2="-194.4286" gradientTransform="matrix(-1 0 0 1 2318.1685 366)">
		<stop  offset="0" style="stop-color:#39B54A"/>
		<stop  offset="1" style="stop-color:#009245"/>
	</linearGradient>
	<path style="fill:url(#SVGID_00000101064581470515466300000018097471395689723011_);" d="M242.7,251c0,0-3.4-17.6-11.1-24.7
		l-5.3,21l4.2-22.8c0,0,20.3-12.3,24.1-13.3c3.8-1,13.9-5.5,13.9-5.5s-1.5,2.7-2.4,3.7s-5.5,2.5-8.9,5c-3.4,2.5-8.5,18.2-10.8,27.7
		L242.7,251z"/>
	<path class="st1" d="M216.3,701.5c0,0-3.4-9.7,0.2-14.7c3.9-5.4,11.1-3.7,13.8,0c2.2,2.9-1.6,14.7-1.6,14.7l7.6-4.3
		c4.6,0.2,8.2,3.7,8.5,8.3c0.2,3.1,0.4,6.2,0.7,7.6c0.6,3.3,4.9,23.4,4.9,25.1c0,0-54.4,4.3-94.6,4.3c0,0,6.4-16.3,35.8-19
		C194.8,716.6,211.5,702.5,216.3,701.5z"/>
	<path class="st1" d="M276.1,696.2l-0.5,1.1c-1.2,2.4-1.7,5-1.7,7.6c0.1,3.2,0.1,8.1-0.4,13.9c-0.8,10.2-1.1,20.4-1.1,20.4
		s8,6.8,11.3,6.1c3.3-0.7,26.5-18.6,38.2-3.7c0,0-1.2-13.2-13.7-14.9c1-6.5-8-23.6-11.1-25.1c0-4-0.3-12.3-6.6-13
		c-4.4-0.5-8.4,2.7-7.3,7c-3.2-2.7-5.2,1.6-5.8,2.4C275.5,700.6,276.1,696.2,276.1,696.2z"/>
	
		<linearGradient id="SVGID_00000121239703471713899130000000295406180839852932_" gradientUnits="userSpaceOnUse" x1="2938.1294" y1="2733.4421" x2="3035.0295" y2="2733.4421" gradientTransform="matrix(1 0 0 1 -2782.8955 -1990.5044)">
		<stop  offset="0" style="stop-color:#FFC4BA"/>
		<stop  offset="1" style="stop-color:#FFE7E5"/>
	</linearGradient>
	<path style="fill:url(#SVGID_00000121239703471713899130000000295406180839852932_);" d="M159.4,736.9c0,0-4.2,4.1-4.2,7.4
		c0,1.5,0.1,3.1,0.3,4.5c0.2,1.7,1.5,4.7,3.2,4.7h90c1.9,0,3.4-1.6,3.4-3.5c-0.1-5.2-0.5-14.6-2.1-17.7c0,0-2.5,3.5-5.7,4.2
		c-2.5,0.6-16.5,0.7-22.6,0.7c-1.7,0-3.3,0.8-4.4,2.2l-0.4,0.6c0,0-12.5,1.2-34.5,1.4S159.4,736.9,159.4,736.9z"/>
	
		<linearGradient id="SVGID_00000017501711341434670010000017236721809280513924_" gradientUnits="userSpaceOnUse" x1="3053.395" y1="2733.6687" x2="3107.6948" y2="2733.6687" gradientTransform="matrix(1 0 0 1 -2782.8955 -1990.5044)">
		<stop  offset="0" style="stop-color:#FFC4BA"/>
		<stop  offset="1" style="stop-color:#FFE7E5"/>
	</linearGradient>
	<path style="fill:url(#SVGID_00000017501711341434670010000017236721809280513924_);" d="M272.4,739.1l-2,13.1h54.3
		c0,0-1.3-10-2.8-11.7s-9.5-7-17.6-6.4s-16.7,6.9-22.3,7.5C276.4,742.4,272.4,739.1,272.4,739.1z"/>
	
		<linearGradient id="SVGID_00000049920151029872627570000006605534585806409112_" gradientUnits="userSpaceOnUse" x1="2934.4294" y1="2397.0601" x2="2934.4294" y2="2390.6318" gradientTransform="matrix(1 0 0 1 -2782.8955 -1990.5044)">
		<stop  offset="0" style="stop-color:#933B23"/>
		<stop  offset="0.9784" style="stop-color:#8B2A24"/>
	</linearGradient>
	<path style="fill:url(#SVGID_00000049920151029872627570000006605534585806409112_);" d="M161.7,406.5c0,0-4.7-4.4-10.1-5.9
		c-5.3-1.5-10.3,0.4-10.3,0.4l17.8,5.5H161.7z"/>
	
		<linearGradient id="SVGID_00000002385071257807738290000013134416968736903328_" gradientUnits="userSpaceOnUse" x1="719.134" y1="-174.9013" x2="748.534" y2="-174.9013" gradientTransform="matrix(1 0 0 1 -448 366)">
		<stop  offset="0" style="stop-color:#600E19"/>
		<stop  offset="0.984" style="stop-color:#741B17"/>
	</linearGradient>
	<path style="fill:url(#SVGID_00000002385071257807738290000013134416968736903328_);" d="M271.1,196.1c0,0,13.5,12,25.7-1.1l3.7-14
		c0,0-13.4,5.3-27.9,6.1L271.1,196.1z"/>
	
		<linearGradient id="SVGID_00000112626244570251261200000003015498733287676322_" gradientUnits="userSpaceOnUse" x1="2013.8719" y1="279.61" x2="2013.8719" y2="279.5533" gradientTransform="matrix(-1 0 0 1 2318.1685 366)">
		<stop  offset="0" style="stop-color:#9F3D59"/>
		<stop  offset="1" style="stop-color:#FFFFFF"/>
	</linearGradient>
	<path style="opacity:0.5;fill:url(#SVGID_00000112626244570251261200000003015498733287676322_);enable-background:new    ;" d="
		M304.3,645.5C304.2,645.6,304.2,645.6,304.3,645.5L304.3,645.5L304.3,645.5z"/>
	<path class="st11" d="M304.4,645.5L304.4,645.5L304.4,645.5L304.4,645.5z"/>
	<path class="st11" d="M304.3,645.5C304.2,645.6,304.2,645.6,304.3,645.5L304.3,645.5L304.3,645.5z"/>
	<path class="st21" d="M155.2,744.9c0,0,7.7,1.2,19.7,1.7s76.8-3.4,76.8-3.4l0.4,3c0,0-66,4.5-77.2,3.6c-11.2-0.9-19.6-1.6-19.6-1.6
		L155.2,744.9z"/>
	<path class="st21" d="M271.2,747.9c-0.1,0,19.2-0.9,30.7-1.4c11.4-0.4,22.1,0.7,22.1,0.7l0.5,2.7c0,0-40.6-1-44.6-0.7
		s-8.7-0.3-8.7-0.3V747.9L271.2,747.9z"/>
	
		<radialGradient id="SVGID_00000162344330512158831710000006562504876689848767_" cx="364.2797" cy="438.5004" r="123.29" gradientTransform="matrix(-1 0 0 1 527.7 0)" gradientUnits="userSpaceOnUse">
		<stop  offset="0" style="stop-color:#9C493C"/>
		<stop  offset="0.9823" style="stop-color:#CC6633"/>
	</radialGradient>
	<path style="fill:url(#SVGID_00000162344330512158831710000006562504876689848767_);" d="M177.5,413.6c-0.8,2-6.6,3.2-9.9,8.5
		c-3.2,5.3-3.1,16.6-4.8,16.2c-1.7-0.4-4.4-6.8-3.6-11.7c0.7-4.6,2.6-4.9,3.4-7.6l0,0c0.3-0.4,2.5-3.5,5.4-5.3
		C171.1,411.7,177.5,413.6,177.5,413.6z"/>
	
		<radialGradient id="SVGID_00000033334575492930599420000016147108959649104559_" cx="2019.9006" cy="-164.6193" r="96.5918" gradientTransform="matrix(-1 0 0 1 2318.1685 366)" gradientUnits="userSpaceOnUse">
		<stop  offset="0" style="stop-color:#9C493C"/>
		<stop  offset="0.9823" style="stop-color:#CC6633"/>
	</radialGradient>
	<path style="fill:url(#SVGID_00000033334575492930599420000016147108959649104559_);" d="M274.6,91.2c0,0-19.5,1.7-26,13.1
		c-6.4,11.4-7.5,36.6-10,40.5s-7.4,3.2-7.3,15.5s9.4,21.9,12.1,26.9c2.8,5,4.7,8.1,12,8.9c7.3,0.8,30.8-1.4,44.8-10.4
		s20.1-31.4,28.7-45.4S316.7,91,274.6,91.2z"/>
	
		<radialGradient id="SVGID_00000028312519416415487160000014411487497137185192_" cx="2025.594" cy="-186.1711" r="102.7525" gradientTransform="matrix(-1 0 0 1 2318.1685 366)" gradientUnits="userSpaceOnUse">
		<stop  offset="0" style="stop-color:#9C493C"/>
		<stop  offset="0.9823" style="stop-color:#CC6633"/>
	</radialGradient>
	<path style="fill:url(#SVGID_00000028312519416415487160000014411487497137185192_);" d="M308.2,164.6c0,0,12.2-9.1,22.6-4.7
		c0,0,2.6,7.3,2.1,11.4c-0.6,4.2-8.9,13.8-14.9,15.4c-6,1.5-13-2.2-13.5-5.3C303.9,178.3,308.2,164.6,308.2,164.6z"/>
	
		<linearGradient id="SVGID_00000087386351521031102560000000511498734772070044_" gradientUnits="userSpaceOnUse" x1="3028.9294" y1="2110.4541" x2="3117.7295" y2="2110.4541" gradientTransform="matrix(1 0 0 1 -2782.8955 -1990.5044)">
		<stop  offset="0" style="stop-color:#FFB159"/>
		<stop  offset="1" style="stop-color:#FFA73B"/>
	</linearGradient>
	<path style="fill:url(#SVGID_00000087386351521031102560000000511498734772070044_);" d="M246,110.4c0,0,0.1-3.1,0.6-5.7
		c8.9-9,18.3-14.1,18.3-14.1s3.7-3.2,5.5-3.1c1.9,0.1,5.9,3.6,5.9,3.6s29-0.1,42.6,15c13.6,15.1,15.9,30.9,15.9,30.9l-0.6,2.4
		c0,0-5.1,5.2-5.1,10.4c0,5.1-5.2,0.9-5.2,0.9l0.4-2.4c0,0-3.8-12.9-16.1-31c-12.3-18.1-33.4-23-37.3-24.1
		C261.7,90.6,246,110.4,246,110.4z"/>
	
		<linearGradient id="SVGID_00000124141810966429562450000001212691208654616461_" gradientUnits="userSpaceOnUse" x1="2034.123" y1="-232.2076" x2="2034.123" y2="-247.2418" gradientTransform="matrix(-1 0 0 1 2318.1685 366)">
		<stop  offset="0" style="stop-color:#600E19"/>
		<stop  offset="0.984" style="stop-color:#741B17"/>
	</linearGradient>
	<path style="fill:url(#SVGID_00000124141810966429562450000001212691208654616461_);" d="M270.5,118.9c0,0,0.8,2.9,2.4,5.4
		c-1.1-2.5-1.5-5.6-1.5-5.6c6.8,3.7,19,1.9,21.2,4c3,2.8,5,11.1,5,11.1s-3.4-3.1-7-4.5s-16.6-2.9-16.6-2.9
		C274.1,126.3,269.8,123.8,270.5,118.9z"/>
	<path class="st26" d="M271.7,136.8c-0.1,0.1-0.1,0.2-0.2,0.2C271.6,136.9,271.6,136.8,271.7,136.8L271.7,136.8z"/>
	<path d="M274.3,140.1c-2,3.7,2,7.3,5.5,4.9c0.2-0.2,0.4-0.4,0.6-0.6c2.2-3.7-1.6-7.5-5.2-5.2C274.8,139.4,274.5,139.7,274.3,140.1z
		"/>
	<path d="M243.6,139.2c0.1,1.7,1.4,2.9,3.1,2.9c1.7-0.1,2.9-1.4,2.9-3.1c-0.1-1.7-1.4-2.9-3.1-2.9
		C244.8,136.2,243.5,137.6,243.6,139.2z"/>
	<path class="st27" d="M273.1,161.5c0.3,4.4,4.2,7.7,8.5,7.3c4.4-0.3,7.7-4.2,7.3-8.5c-0.3-4.4-4.2-7.7-8.5-7.3
		C276.1,153.3,272.8,157.2,273.1,161.5z"/>
	
		<linearGradient id="SVGID_00000132058822332979473480000014010038864077508736_" gradientUnits="userSpaceOnUse" x1="1990.8561" y1="-197.3686" x2="2006.1858" y2="-197.3686" gradientTransform="matrix(-1 0 0 1 2318.1685 366)">
		<stop  offset="0" style="stop-color:#600E19"/>
		<stop  offset="0.984" style="stop-color:#741B17"/>
	</linearGradient>
	<path style="fill:none;stroke:url(#SVGID_00000132058822332979473480000014010038864077508736_);stroke-miterlimit:10;" d="
		M326.6,171.9c0,0,2.5-11.7-14.5-3"/>
	<g>
		
			<linearGradient id="SVGID_00000020382265959620152510000001799775619066088847_" gradientUnits="userSpaceOnUse" x1="701.5794" y1="-212.4565" x2="693.6075" y2="-214.4131" gradientTransform="matrix(1 0 0 1 -448 366)">
			<stop  offset="0" style="stop-color:#600E19"/>
			<stop  offset="0.984" style="stop-color:#741B17"/>
		</linearGradient>
		<path style="fill:url(#SVGID_00000020382265959620152510000001799775619066088847_);" d="M254.7,144.5c-1.7,2.8-3.8,5.3-6,7.7
			c-1,1-1.8,2.2-2.2,3.5c-0.2,0.6-0.1,1.3,0,1.9c0.2,0.6,0.6,1.2,1,1.8l0,0c0.8,0.8,1.6,1.6,2.4,2.5c-1.1-0.5-2.1-1-3.1-1.6l0,0
			c-0.7-0.5-1.4-1.2-1.8-2.1c-0.4-0.9-0.5-1.9-0.4-2.8c0.3-1.9,1.4-3.5,2.7-4.6C249.7,148.5,252,146.3,254.7,144.5z"/>
	</g>
	<g>
		<path class="st30" d="M239.3,174c-0.2-3.8,3.9-3.5,6.3-2.3H245c5.8-1.8,10.6,2.1,16.2,2.7c1.8,0.2,3.6,0.2,5.3-0.2
			c0.2-0.1,0.5,0.1,0.5,0.3s-0.1,0.4-0.2,0.5c-4.1,2.6-8.5,5.4-13.5,5.9c-1.5,0-3.1-0.2-4.5-1c-1.2-0.6-1.8-1.7-3.1-1.7
			c-0.4,0-0.9,0.2-1.4,0.6c-0.7,0.6-1.8,1.6-2.9,1c-2-0.9-2.6-3.4-2.3-5.3c0-0.1,0.1-0.1,0.1-0.1c0.1,0,0.1,0.1,0.1,0.1
			c0.1,1.8,0.9,4,2.8,4.2c0.3,0,0.7-0.5,1.2-1.1c1.1-1.3,3.3-1.7,4.8-0.6c3.2,2.6,7.2,1.7,10.8,0.3c2.5-1,5-2,7.5-3.2l0.3,0.8
			c-4.2,0.2-8.3-0.2-12.3-1c-2.9-0.7-6-1.6-8.9-1c-0.2,0-0.3,0-0.5-0.1c-1.9-1.2-4.9-2.1-5.4,0.9C239.5,174.1,239.3,174.1,239.3,174
			L239.3,174z"/>
	</g>
	<g>
		<path class="st31" d="M268,174.7c-4.7,0.9-9.6-1-13.2-4c-2.5-2-4.7-4-7.6-5.1c-1-0.5-1.9,0.4-2.3,1.3l-0.7,1.5
			c-0.4-0.7-1.2-2-1.5-2.6c-0.2-0.4-0.7-0.7-1.2-0.7s-0.9,0.5-1.2,1c-0.9,1.6-0.7,3.7-0.2,5.5c-1.1-1.8-1.6-4-0.8-6
			c0.8-2.2,3.2-2.5,4.7-0.7c0.4,0.5,0.6,0.9,0.8,1.3l-1.5,0.1c3.7-8.2,13.4,5.3,18.1,6.8C263.5,173.9,265.7,174.4,268,174.7
			L268,174.7z"/>
	</g>
	
		<linearGradient id="SVGID_00000073706863669615600590000018328507910480016804_" gradientUnits="userSpaceOnUse" x1="2070.2024" y1="-243.2695" x2="2070.2024" y2="-252.1878" gradientTransform="matrix(-1 0 0 1 2318.1685 366)">
		<stop  offset="0" style="stop-color:#600E19"/>
		<stop  offset="0.984" style="stop-color:#741B17"/>
	</linearGradient>
	<path style="fill:url(#SVGID_00000073706863669615600590000018328507910480016804_);" d="M252.9,116.5c0,0,1.6,4.5-2.8,6.1
		c0,0-4.4-3.5-6.7-2.7c0,0-1.2-2-0.5-4.1s2-2.1,2-2.1s6.6,0.7,7.3,2.5c0,0,0,3.5-1.5,5.5C250.8,121.7,252.5,119.8,252.9,116.5z"/>
	<path class="st14" d="M293.6,235.2l-3.9,22.7c0,0-23.2-18.5-41.9-11.5l1.4-1.5l31.4-16.5L293.6,235.2z"/>
	
		<linearGradient id="SVGID_00000018925369024901860510000002604317656308548486_" gradientUnits="userSpaceOnUse" x1="2117.5491" y1="57.8965" x2="2018.53" y2="-181.1494" gradientTransform="matrix(-1 0 0 1 2318.1685 366)">
		<stop  offset="0" style="stop-color:#39B54A"/>
		<stop  offset="1" style="stop-color:#009245"/>
	</linearGradient>
	<path style="fill:url(#SVGID_00000018925369024901860510000002604317656308548486_);" d="M295.3,201.5c0,0,9.6,15.4,15.4,25.7
		c0,0-4.2,21.1-21,30.7c0,0-7.2-26.4-9.4-27.6c-2.2-1.3-13.6,6.2-22,10.3c-8.4,4.1-14.8,8.6-14.8,8.6l3-7c0,0,18.7-8.7,31.2-17.7
		C290.1,215.5,295.3,201.5,295.3,201.5z"/>
	<g>
		<path class="st14" d="M242.7,251c-4.1,4.4-8.1,8.9-11.8,13.7c-3.5,4.6-7.5,9.5-9.3,15c-0.7,5.7-0.2,12-0.2,17.8
			c0.7,28.2,2,62.2,2.3,90.3c-2.3-30.1-3.7-60.2-4.2-90.3c0.1-6.2-0.4-12,0.6-18.3c2-5.9,6.2-10.5,10.1-15.2
			C234.1,259.5,238.3,255.1,242.7,251L242.7,251z"/>
	</g>
	<g>
		<path class="st14" d="M325.9,239.5c-3.9,2.3-7.7,4.8-11.5,7.3c-2.3,1.6-4.7,3.2-6.7,5.2c-4.3,4.5-7.1,10.2-9.1,16
			c-1.6,4.2-2.4,8.9-3.3,13.2c0.1-9.1,3-18.4,8.8-25.6C309.9,248.7,317.5,242.5,325.9,239.5L325.9,239.5z"/>
	</g>
	<g>
		<path class="st14" d="M216.6,256.2c-0.9-5.6-0.9-11.2-1-16.8C217.1,244.9,217.1,250.6,216.6,256.2L216.6,256.2z"/>
	</g>
	<path class="st34" d="M227.9,702.7c0,0-19.5,11.4-24.7,21.9c0,0-2.2-4.3-11.6-1.2"/>
	<path class="st34" d="M284.6,697.3c0,0,2.9,1.4,3,4.8c0,0,8.2,8,9.6,22.6c0,0,5.1-2.6,11.1,2"/>
	<g>
		<path class="st14" d="M346.9,290.1c-6.2-4.1-9.5-1.6-14.6,2.4c-1.5,1.1-2.9,2.3-4.3,3.5c0,0-0.1,0-0.1-0.1c2.4-4.4,7-6.2,11.2-8.3
			C341.9,286.4,345.3,287.8,346.9,290.1C347,290.1,346.9,290.1,346.9,290.1L346.9,290.1z"/>
	</g>
	<g>
		<path class="st14" d="M353.7,296.9c-4.7-0.5-10.6-1.5-14.5,1.8c-1.8,1.7-3.2,3.8-4.6,5.9c-1.4,1.8-3.2,4.7-4.9,5.9
			c2.8-4.2,5-9.2,9.2-12.2c3.3-1.9,7.3-3.2,11.1-2.5C351.3,295.9,352.5,296.2,353.7,296.9C353.8,296.8,353.7,296.9,353.7,296.9
			L353.7,296.9z"/>
	</g>
	<g>
		<path class="st14" d="M310.6,318.5c0.3-1.9,1.5-3.4,2.9-4.6c1.1-1.4,1.9-3.1,3.3-4.4c0.9-0.9,1.8-1.6,2.9-2.2c0,0,0.1,0,0.1,0.1
			c-1.5,2.7-4.1,4.4-6,6.8C312.9,315.7,312,317.2,310.6,318.5C310.7,318.6,310.6,318.6,310.6,318.5L310.6,318.5z"/>
	</g>
	
		<linearGradient id="SVGID_00000037656190292311824390000005189973407165995912_" gradientUnits="userSpaceOnUse" x1="777.7217" y1="-44.1885" x2="803.1268" y2="-44.1885" gradientTransform="matrix(1 0 0 1 -448 366)">
		<stop  offset="0" style="stop-color:#600E19"/>
		<stop  offset="0.984" style="stop-color:#741B17"/>
	</linearGradient>
	<path style="fill:url(#SVGID_00000037656190292311824390000005189973407165995912_);" d="M331,335c-4.1-8.9,1.3-40.7,24.1-31.2
		c-0.5,0.1-27.5,3.9-18.7,37.7C334,339.5,332,337.3,331,335z"/>
</g>
</svg>
