<?xml version="1.0" encoding="utf-8"?>
<!-- Generator: Adobe Illustrator 26.2.1, SVG Export Plug-In . SVG Version: 6.00 Build 0)  -->
<svg version="1.1" id="Capa_1" xmlns="http://www.w3.org/2000/svg" xmlns:xlink="http://www.w3.org/1999/xlink" x="0px" y="0px"
	 viewBox="0 0 527.68 446.22" style="enable-background:new 0 0 527.68 446.22;" xml:space="preserve">
<style type="text/css">
	.st0{clip-path:url(#SVGID_00000023263277114785016290000000735682786706564015_);}
	.st1{fill:#C0D5E5;}
	.st2{fill:none;stroke:#6F95BC;stroke-miterlimit:10;}
	.st3{fill:#6F95BC;}
	.st4{fill:url(#SVGID_00000077318150101486515230000012007435501470755259_);}
	.st5{fill:#41455F;}
	.st6{fill:url(#SVGID_00000152228159285755573670000017985533195423132843_);}
	.st7{fill:url(#SVGID_00000134946264615112944710000015991286473751352968_);}
	.st8{fill:url(#SVGID_00000183958770028733596910000017441936994270386583_);}
	.st9{fill:url(#SVGID_00000060732838526137687100000007080263861397383324_);}
	.st10{fill:#575D6E;}
	.st11{fill:#FFFFF2;}
	.st12{fill:url(#SVGID_00000136391948673165720370000002108637523739956375_);}
	.st13{fill:url(#SVGID_00000090264753904175526800000010602652883078770834_);}
	.st14{fill:url(#SVGID_00000031182047355094624820000017232061911367363476_);}
	.st15{fill:#EA8BC2;}
	.st16{fill:url(#SVGID_00000072261645970945998430000010926392205479396520_);}
	.st17{fill:url(#SVGID_00000008111836270039009500000010446343762992448388_);}
	.st18{fill:#006837;}
	.st19{fill:url(#SVGID_00000031198727180766892940000010423305821861429648_);}
	.st20{fill:url(#SVGID_00000178190825945530952910000002513543156794625422_);}
	.st21{fill:url(#SVGID_00000038407265532924302850000000999771911025216952_);}
	.st22{opacity:0.8;fill:#C98BC2;}
	.st23{opacity:0.5;fill:url(#SVGID_00000061459922388126240270000002980950602179749510_);}
	.st24{opacity:0.5;fill:url(#SVGID_00000070086203998025728890000005551493493553301642_);}
	.st25{fill:#1B1464;}
	.st26{fill:url(#SVGID_00000125602057991775142690000011965533584677107618_);}
	.st27{fill:url(#SVGID_00000171709202357353519210000015178603890167868565_);}
	.st28{fill:url(#SVGID_00000034085153701727140850000005505797128891260583_);}
	.st29{fill:url(#SVGID_00000091005759865593796970000004027831925094757504_);}
	.st30{fill:#C99DC2;}
	.st31{fill:#B25555;}
	.st32{fill:none;stroke:url(#SVGID_00000029045710953910385110000016364081509994322613_);stroke-miterlimit:10;}
	.st33{fill:url(#SVGID_00000097477059635122411420000012196859630604968849_);}
	.st34{fill:#840F20;}
	.st35{fill:#700A20;}
	.st36{fill:url(#SVGID_00000057854853825508866600000011160725338100395706_);}
	.st37{fill:url(#SVGID_00000021808919368171913690000013190635278751733642_);}
	.st38{fill:none;stroke:#1B1464;stroke-miterlimit:10;}
	.st39{clip-path:url(#SVGID_00000091011889542425912910000011872205947839793809_);}
	.st40{fill:url(#SVGID_00000145778687488013578820000018251060959061331356_);}
	.st41{fill:url(#SVGID_00000160913365916780619760000000217577661510688190_);}
	.st42{fill:url(#SVGID_00000033342651390040826590000012909964199089551762_);}
	.st43{fill:url(#SVGID_00000168091247276081852600000003227467250431637382_);}
	.st44{fill:url(#SVGID_00000036232758097051778150000006549552836389290171_);}
	.st45{fill:url(#SVGID_00000106109488903320331850000001652396087759085704_);}
	.st46{fill:url(#SVGID_00000140696227806177642440000003866276851635472539_);}
	.st47{fill:url(#SVGID_00000009586967207368950930000000420421919458014388_);}
	.st48{fill:url(#SVGID_00000152263197024226337430000017744495145685282222_);}
	.st49{fill:url(#SVGID_00000142859466975122787750000018257005249389345420_);}
	.st50{fill:url(#SVGID_00000035520871003735673740000002910727663883073664_);}
	.st51{fill:url(#SVGID_00000062872071964203911660000013614045580950885250_);}
	.st52{fill:url(#SVGID_00000050663875133246827880000001832453846771257490_);}
	.st53{opacity:0.8;fill:#773D3D;}
	.st54{opacity:0.5;fill:url(#SVGID_00000083068686802484717110000001152747087880661902_);}
	.st55{opacity:0.5;fill:url(#SVGID_00000085945102509362767870000004029347092969788300_);}
	.st56{fill:url(#SVGID_00000157273323707877892410000008063828970633008570_);}
	.st57{fill:url(#SVGID_00000139253352186449020210000009330994052665261724_);}
	.st58{fill:url(#SVGID_00000105391400516966583280000013641463323121136778_);}
	.st59{fill:url(#SVGID_00000178201604416300865900000008553184500916533901_);}
	.st60{fill:none;stroke:url(#SVGID_00000065032095290145435220000012594948128602008716_);stroke-miterlimit:10;}
	.st61{fill:url(#SVGID_00000101102948195146611930000010527178107346619810_);}
	.st62{fill:url(#SVGID_00000020380774471556580190000007647626372224382646_);}
	.st63{fill:url(#SVGID_00000034047615349042138550000000301737716579706301_);}
</style>
<g>
	<defs>
		<rect id="SVGID_1_" width="525.76" height="446.22"/>
	</defs>
	<clipPath id="SVGID_00000183218325673779186570000016498770658870631356_">
		<use xlink:href="#SVGID_1_"  style="overflow:visible;"/>
	</clipPath>
	<g style="clip-path:url(#SVGID_00000183218325673779186570000016498770658870631356_);">
		<g>
			<ellipse class="st1" cx="480.55" cy="250.65" rx="19.42" ry="19.42"/>
			<ellipse class="st1" cx="63.4" cy="138.81" rx="12.55" ry="12.55"/>
			
				<ellipse transform="matrix(0.9924 -0.1233 0.1233 0.9924 -7.7205 51.744)" class="st1" cx="414.21" cy="88.25" rx="38.92" ry="38.92"/>
			<path class="st1" d="M87.4,445.65h354.69c15.98-10.66,38.7-22.93,47.21-47.79c20.15-58.86-27.3-79.8-53.14-108.97
				c-25.84-29.17,27.63-41.25,20.48-104.06c-3.68-32.31-46.86-61.84-91.02-46.31s-50.57-2.95-71.04-40.62
				c-23.8-43.79-125.45-67.54-184.37,11.16c-58.93,78.69-2.08,138.32-8.75,166.46c-6.66,28.14-54.15,42.65-57.53,96.81
				C41.97,403.7,53.56,431.79,87.4,445.65z"/>
		</g>
		<g>
			<g>
				<path class="st2" d="M131.16,443.03c6.88-4.91,7.56-36.03-20.65-42.33c-14.41-3.22-12.1-10.43-15.01-19.7
					c-2.91-9.28-6.56-9.96-14.81-11.22s-2.05-12.5-11.84-19.01s-22.93-7.01-27.82,7.22c-4.14,12.05,7.59,17.35,9.99,22.95
					c2.39,5.6-4.57,13.16,3.92,21.61c8.49,8.45,17.58,2.09,17.69,11.03s4.09,25.24,12.71,28.6
					C96.01,446.33,125.73,446.9,131.16,443.03z"/>
				<g>
					<g>
						<path class="st3" d="M122.64,445.51c-3.76-4.48-7.66-8.85-11.43-13.33c-9.37-11.14-18.53-22.46-27.47-33.95
							c-6.64-8.53-13.16-17.15-19.54-25.88c-0.56-0.77-1.87-0.02-1.3,0.76c10.6,14.49,21.57,28.7,32.84,42.66
							c7.14,8.84,14.41,17.59,21.83,26.2c1.32,1.53,2.69,3.04,3.99,4.59C122.2,447.32,123.25,446.25,122.64,445.51L122.64,445.51z"
							/>
					</g>
				</g>
			</g>
			<g>
				<path class="st2" d="M100.56,392.85c0.75-6.14,1.72-12.15,2.27-17.74c2.25-22.73-35.84-16.27-48.32-45.44
					s29.57-28.42,10.46-48.28c-18.08-18.78-18.04-53.24,1.9-63.11c27.73-13.72,52.57,9.5,55.9,32.03
					c2.57,17.38-9.08,29.51,21.24,42.25s25.64,28.56,19.41,58.81c-6.23,30.26,14.26,19.16,30.19,44.7
					c12.62,20.24-5.12,40.88-13.02,48.58l-61.38,1.05"/>
				<g>
					<g>
						<g>
							<path class="st3" d="M169.5,443.84c-0.67-1.54-1.33-3.07-2-4.6c-1.82-4.2-3.65-8.4-5.48-12.59
								c-2.74-6.3-5.49-12.59-8.24-18.88c-3.44-7.87-6.89-15.73-10.35-23.59c-3.87-8.8-7.75-17.6-11.63-26.39
								c-4.09-9.24-8.19-18.48-12.31-27.71c-4.03-9.03-8.08-18.06-12.15-27.07c-3.77-8.33-7.55-16.66-11.38-24.97
								c-3.22-7-6.47-13.98-9.79-20.93c-2.46-5.16-4.94-10.3-7.56-15.38c-0.46-0.9-0.93-1.8-1.41-2.69
								c-0.46-0.85-1.75-0.09-1.3,0.76c2.42,4.52,4.67,9.13,6.9,13.74c3.16,6.54,6.24,13.13,9.3,19.72
								c3.71,8,7.37,16.02,11.01,24.05c4.05,8.92,8.07,17.86,12.07,26.8c4.11,9.2,8.21,18.4,12.29,27.61
								c3.98,8.98,7.95,17.97,11.91,26.96c3.57,8.12,7.14,16.24,10.69,24.36c2.96,6.75,5.91,13.51,8.86,20.27
								c2.08,4.76,4.15,9.52,6.22,14.29c0.97,2.23,1.84,4.54,2.92,6.72c0.05,0.09,0.08,0.19,0.12,0.29
								C168.58,445.48,169.88,444.72,169.5,443.84L169.5,443.84z"/>
						</g>
					</g>
					<g>
						<g>
							<g>
								<path class="st3" d="M112.16,315.24c-11.99-0.66-23.98-1.33-35.98-1.99c-1.72-0.1-3.45-0.19-5.17-0.29
									c-0.96-0.05-0.96,1.45,0,1.5c11.99,0.66,23.98,1.33,35.98,1.99c1.72,0.1,3.45,0.19,5.17,0.29
									C113.13,316.8,113.13,315.3,112.16,315.24L112.16,315.24z"/>
							</g>
						</g>
						<g>
							<g>
								<path class="st3" d="M153.71,408.97c-9.48-1.07-18.97-2.13-28.45-3.2c-1.33-0.15-2.67-0.3-4-0.45
									c-0.96-0.11-0.95,1.39,0,1.5c9.48,1.07,18.97,2.13,28.45,3.2c1.33,0.15,2.67,0.3,4,0.45
									C154.67,410.58,154.66,409.07,153.71,408.97L153.71,408.97z"/>
							</g>
						</g>
					</g>
					<g>
						<g>
							<path class="st3" d="M156.16,306.86c-2.73,6.13-5.46,12.26-8.19,18.38c-4.33,9.72-8.66,19.45-12.99,29.17
								c-1,2.24-2,4.48-2.99,6.72c-0.39,0.87,0.9,1.64,1.3,0.76c2.73-6.13,5.46-12.26,8.19-18.38c4.33-9.72,8.66-19.45,12.99-29.17
								c1-2.24,2-4.48,2.99-6.72C157.85,306.75,156.56,305.98,156.16,306.86L156.16,306.86z"/>
						</g>
					</g>
				</g>
				<path class="st2" d="M98.2,245.34c2.01,2.96,5.52,4.08,7.83,2.51c2.31-1.57,2.55-5.24,0.54-8.2c-2.01-2.96-5.52-4.08-7.83-2.51
					C96.43,238.71,96.18,242.38,98.2,245.34z"/>
				<path class="st2" d="M96.72,261.32c0,1.56,1.27,2.83,2.83,2.83c1.56,0,2.83-1.27,2.83-2.83s-1.27-2.83-2.83-2.83
					C97.99,258.49,96.72,259.76,96.72,261.32z"/>
			</g>
			<g>
				<path class="st2" d="M426.9,424.86c1.33-2.96-7.36-15.94,2.9-20.77s11.06-16.95,11.06-16.95c0.5-4.62,0.81-9.19,1.36-13.38
					c2.22-17.03,29.01-5.82,43.12-25.05c14.1-19.24-16.82-25.84,0.56-37.14c16.43-10.68,22.27-35.92,9.35-46.54
					c-17.97-14.77-40.12-1.99-46.39,13.94c-4.84,12.29,1.63,23.16-22.75,27.33c-24.37,4.17-23.64,16.55-24.22,39.77
					c-0.59,23.22-13.71,11.61-29.72,27.6c-12.69,12.67-3.21,30.81,1.27,37.79c0,0,2.45,6.69-3.09,13.4s-17.05,7.51-13.41,21.36"/>
				<g>
					<g>
						<g>
							<path class="st3" d="M377.03,446.03c2.98-4.86,5.98-9.71,8.98-14.56c7.37-11.93,14.78-23.84,22.22-35.73
								c9.35-14.95,18.76-29.86,28.25-44.72c9.06-14.17,18.18-28.3,27.54-42.27c6.26-9.34,12.46-18.87,19.58-27.6
								c0.49-0.6,0.98-1.19,1.49-1.76c0.63-0.72-0.42-1.79-1.06-1.06c-2.73,3.11-5.17,6.47-7.6,9.82
								c-3.65,5.04-7.17,10.17-10.65,15.32c-9.18,13.56-18.09,27.31-26.93,41.09c-9.64,15.03-19.18,30.12-28.67,45.25
								c-7.82,12.47-15.6,24.96-23.34,37.47c-2.48,4.01-4.96,8.02-7.44,12.04c-1.16,1.89-2.46,3.75-3.51,5.71
								c-0.04,0.08-0.1,0.16-0.15,0.24C375.23,446.09,376.52,446.85,377.03,446.03L377.03,446.03z"/>
						</g>
					</g>
					<g>
						<g>
							<g>
								<path class="st3" d="M444.76,338.91c8.91,1.56,17.82,3.11,26.73,4.67c1.27,0.22,2.53,0.44,3.8,0.66
									c0.94,0.17,1.35-1.28,0.4-1.45c-8.91-1.56-17.82-3.11-26.73-4.67c-1.27-0.22-2.53-0.44-3.8-0.66
									C444.22,337.3,443.81,338.74,444.76,338.91L444.76,338.91z"/>
							</g>
						</g>
						<g>
							<g>
								<path class="st3" d="M408.5,394.48c7.12,0.83,14.24,1.66,21.36,2.5c1.01,0.12,2.02,0.24,3.03,0.35
									c0.96,0.11,0.95-1.39,0-1.5c-7.12-0.83-14.24-1.66-21.36-2.5c-1.01-0.12-2.02-0.24-3.03-0.35
									C407.54,392.86,407.55,394.37,408.5,394.48L408.5,394.48z"/>
							</g>
						</g>
					</g>
					<g>
						<g>
							<path class="st3" d="M415.15,325.18c0.95,4.94,1.91,9.89,2.86,14.83c1.52,7.88,3.04,15.75,4.56,23.63
								c0.35,1.8,0.7,3.6,1.04,5.4c0.18,0.95,1.63,0.55,1.45-0.4c-0.95-4.94-1.91-9.89-2.86-14.83c-1.52-7.88-3.04-15.75-4.56-23.63
								c-0.35-1.8-0.7-3.6-1.04-5.4C416.41,323.83,414.97,324.23,415.15,325.18L415.15,325.18z"/>
						</g>
					</g>
				</g>
				<path class="st2" d="M467.7,279.51c-1.98,1.82-4.73,2.05-6.16,0.5c-1.42-1.54-0.98-4.27,1-6.1c1.98-1.82,4.73-2.05,6.16-0.5
					C470.12,274.96,469.67,277.69,467.7,279.51z"/>
				<path class="st2" d="M466.06,291.47c-0.27,1.14-1.41,1.86-2.55,1.59c-1.14-0.27-1.86-1.41-1.59-2.55
					c0.27-1.14,1.41-1.86,2.55-1.59C465.61,289.18,466.32,290.32,466.06,291.47z"/>
			</g>
			<g>
				<g>
					<path class="st2" d="M472.6,444.88c0.83-5.14,0.25-10.7,0.34-15.49c0.21-10.35,15.91-3.59,24.17-15.8
						c8.27-12.21-7-19.11,1.22-23.57c8.22-4.46,12.29-21.14,2.33-27.71c-12.32-8.13-27.45-0.17-30.55,9.71
						c-2.39,7.61,2.94,13.88-13.62,17.46s-15.08,11.01-13.67,25.01c1.41,14.01-9,2.5-18.84,12.84c-5.58,5.86-2.02,13.9,1.19,18.9"/>
				</g>
				<g>
					<g>
						<g>
							<path class="st3" d="M441.63,446.6c6.93-10.08,13.88-20.14,20.88-30.17c7.84-11.25,15.71-22.49,23.79-33.56
								c2.95-4.04,5.89-8.1,9.08-11.96c0.61-0.74-0.45-1.81-1.06-1.06c-6.73,8.15-12.74,16.94-18.85,25.54
								c-8.26,11.64-16.41,23.35-24.53,35.09c-3.54,5.12-7.07,10.24-10.6,15.37C439.79,446.64,441.09,447.39,441.63,446.6
								L441.63,446.6z"/>
						</g>
					</g>
					<g>
						<g>
							<g>
								<path class="st3" d="M471.67,402.97c6.28,0.55,12.57,1.09,18.85,1.64c0.9,0.08,1.81,0.16,2.71,0.24
									c0.96,0.08,0.96-1.42,0-1.5c-6.28-0.55-12.57-1.09-18.85-1.64c-0.9-0.08-1.81-0.16-2.71-0.24
									C470.71,401.38,470.71,402.88,471.67,402.97L471.67,402.97z"/>
							</g>
						</g>
					</g>
					<g>
						<g>
							<path class="st3" d="M448.22,395.35c2.72,7.61,5.44,15.21,8.15,22.82c0.38,1.07,0.77,2.15,1.15,3.22
								c0.32,0.9,1.77,0.51,1.45-0.4c-2.72-7.61-5.44-15.21-8.15-22.82c-0.38-1.07-0.77-2.15-1.15-3.22
								C449.35,394.05,447.9,394.44,448.22,395.35L448.22,395.35z"/>
						</g>
					</g>
				</g>
				<path class="st2" d="M483.22,371.51c-1.23,1.18-3.12,1.44-4.23,0.57c-1.11-0.87-1.01-2.53,0.22-3.72
					c1.23-1.18,3.12-1.44,4.23-0.57C484.54,368.66,484.45,370.32,483.22,371.51z"/>
				<path class="st2" d="M489.28,412.95c-0.18,1.36-1.61,2.29-3.2,2.08c-1.58-0.21-2.71-1.49-2.53-2.85
					c0.18-1.36,1.61-2.29,3.2-2.08C488.34,410.31,489.47,411.59,489.28,412.95z"/>
			</g>
		</g>
	</g>
</g>
<path d="M-1538,852.74c0-34.42,27.9-62.33,62.33-62.33s54.64,20.05,54.64,54.48s-22.63,68.63-56.66,63.46
	C-1516.24,902.48-1538,887.16-1538,852.74z"/>
<radialGradient id="SVGID_00000106120088856537278210000014549420865215993789_" cx="5620.1523" cy="3650.2871" r="11.2047" gradientTransform="matrix(-1 0 0 1 4205.064 -2356.5044)" gradientUnits="userSpaceOnUse">
	<stop  offset="0" style="stop-color:#9C493C"/>
	<stop  offset="0.9823" style="stop-color:#CC6633"/>
</radialGradient>
<path style="fill:url(#SVGID_00000106120088856537278210000014549420865215993789_);" d="M-1407.16,1280.07h-15.37
	c0.54,7.97-0.49,21.06-0.49,21.06s3.63,5.93,5.13,6.36c1.5,0.43,10.68-6.36,10.68-6.36
	C-1407.97,1295.49-1407.73,1287.57-1407.16,1280.07z"/>
<path class="st5" d="M-1381.78,1139.26c-0.86-32.89-4.94-70.25-4.94-70.25l-21.93-10.08l-18.48,12.51l-5.61,3.8
	c0,0,1.84,21.27,0.17,33.18c-1.22,8.68,4.31,45.81,7.15,67.24c0,0,0,0,0,0.02c1.05,7.97,1.72,13.75,1.56,15.1
	c-0.63,4.97-7.85,19.7-8.64,31.88s5.7,36.34,5.7,36.34c0,0,0,0,0,0c0.78,3.03,3.13,12.43,4.02,18.47c0.11,0.77,0.35,6.07,0.42,7.01
	l14.93,0.06c0.88-11.49,2.82-26.52,2.82-26.52c0,0-0.01,0.01-0.01,0.01c0,0,0.01-0.01,0.01-0.01s3.37-32.64,7.22-41.6
	c3.84-8.98,8-14.75,9.93-19.7c0.17-0.42,0.34-0.95,0.54-1.57c0.07-0.25,0.15-0.47,0.22-0.71c0.22-0.78,0.46-1.66,0.71-2.67
	c0.03-0.1,0.03-0.19,0.05-0.22v-0.02C-1383.84,1182.76-1381.12,1165.12-1381.78,1139.26z"/>
<g>
	
		<radialGradient id="SVGID_00000180339833963941010750000009836063050914948794_" cx="-1456.9226" cy="1293.0463" r="6.9729" gradientUnits="userSpaceOnUse">
		<stop  offset="0" style="stop-color:#9C493C"/>
		<stop  offset="0.9823" style="stop-color:#CC6633"/>
	</radialGradient>
	<path style="fill:url(#SVGID_00000180339833963941010750000009836063050914948794_);" d="M-1448.64,1298.4l-13.88-2.97
		c0,0-0.65,2.94-2.68-7.74h16.38C-1448.87,1294.58-1448.98,1291.62-1448.64,1298.4z"/>
	
		<radialGradient id="SVGID_00000178887725785365560170000010373103121180137398_" cx="-1470.3356" cy="1255.6166" r="0.0412" gradientUnits="userSpaceOnUse">
		<stop  offset="0" style="stop-color:#9C493C"/>
		<stop  offset="0.9823" style="stop-color:#CC6633"/>
	</radialGradient>
	<path style="fill:url(#SVGID_00000178887725785365560170000010373103121180137398_);" d="M-1470.28,1255.64
		c-0.05-0.02-0.09-0.04-0.11-0.04c0.01,0,0.03,0.01,0.05,0.01C-1470.32,1255.63-1470.3,1255.64-1470.28,1255.64z"/>
	
		<radialGradient id="SVGID_00000139259943373548298010000015002195396249825460_" cx="-1470.0867" cy="1256.8019" r="0.9027" gradientUnits="userSpaceOnUse">
		<stop  offset="0" style="stop-color:#9C493C"/>
		<stop  offset="0.9823" style="stop-color:#CC6633"/>
	</radialGradient>
	<path style="fill:url(#SVGID_00000139259943373548298010000015002195396249825460_);" d="M-1469.74,1258.03
		c-0.23-0.82-0.45-1.63-0.69-2.46c0,0,0,0,0.01,0v0.01L-1469.74,1258.03z"/>
</g>
<path class="st5" d="M-1441.37,1195.44c-7.92,8.77-15.18,5.11-18.17-0.96c-2.85-5.8-6.82-25.66-7.2-27.49
	c1.53,11.27,2.54,20.12,2.18,23.51c-1.29,11.67-9.41,22.89-11.5,35.38c-2.12,12.5,5.63,29.69,5.63,29.69s0,0,0.01,0.01
	c-0.01,0-0.01,0-0.01,0l0.68,2.45c1.83,6.67,3.44,23.95,4.54,29.66c0,0,7.52,1.14,11.62,0.72c4.1-0.43,4.76-0.72,4.76-0.72
	c0.05-10.48,0.18-29.66,0.18-29.66s7.32-47.37,10.51-56.35c3.22-8.95,10-17.42,12.69-25.98
	C-1425.93,1176.36-1433.72,1186.95-1441.37,1195.44z M-1470.39,1255.59c0.01,0,0.03,0.01,0.05,0.01c0.01,0.02,0.03,0.03,0.05,0.03
	C-1470.34,1255.62-1470.37,1255.59-1470.39,1255.59z"/>
<g>
	
		<linearGradient id="SVGID_00000023248551662294746260000008205036927276502686_" gradientUnits="userSpaceOnUse" x1="4248.5347" y1="2906.2166" x2="4257.0718" y2="2823.6892" gradientTransform="matrix(-0.0744 -0.9972 -0.9972 0.0744 1834.8224 5118.9116)">
		<stop  offset="5.586590e-03" style="stop-color:#9C0A00"/>
		<stop  offset="1" style="stop-color:#D10F20"/>
	</linearGradient>
	<polygon style="fill:url(#SVGID_00000023248551662294746260000008205036927276502686_);" points="-1364.4,1118.72 
		-1301.57,1111.52 -1300.76,1108.6 -1314.61,1059.42 -1376.72,1076.87 -1377.31,1078.96 	"/>
	<polygon class="st10" points="-1314.49,1059.41 -1315.53,1062.35 -1301.57,1111.52 -1300.76,1108.6 	"/>
	<polygon class="st11" points="-1302.32,1109.7 -1301.77,1107.27 -1314.33,1059.4 -1300.38,1107.84 -1301.56,1111.46 
		-1361.12,1118.47 	"/>
</g>
<radialGradient id="SVGID_00000152947501429533379810000008674895502444669834_" cx="-1443.2513" cy="955.7968" r="60.3418" gradientUnits="userSpaceOnUse">
	<stop  offset="0" style="stop-color:#9C493C"/>
	<stop  offset="0.9823" style="stop-color:#CC6633"/>
</radialGradient>
<path style="fill:url(#SVGID_00000152947501429533379810000008674895502444669834_);" d="M-1467.86,898.79c0,0,4.06,14.25,5.23,21.3
	c0,0,5.98,10.79,11.54,16.02c5.55,5.23,26.49,15.81,26.49,15.81s-1.71-16.34-6.62-22.43c0,0-3.81-1.96-8.61-6.13
	c-4.81-4.17-6.39-19.1-6.39-19.1S-1465.19,899.82-1467.86,898.79z"/>
<radialGradient id="SVGID_00000180326612983156076500000016523571377727475131_" cx="-1350.7744" cy="1076.0167" r="60.3933" gradientUnits="userSpaceOnUse">
	<stop  offset="0" style="stop-color:#9C493C"/>
	<stop  offset="0.9823" style="stop-color:#CC6633"/>
</radialGradient>
<path style="fill:url(#SVGID_00000180326612983156076500000016523571377727475131_);" d="M-1408.65,1016.64
	c0,0,0.81,4.18,7.22,13.46c6.41,9.3,27.48,25.32,29.15,30.44c1.67,5.12-1.61,16.1-1.05,17.62c0.57,1.52,5.07,2.44,7.56,6.51
	c2.49,4.09,2.38,12.72,3.67,12.4c1.27-0.32,3.37-5.21,2.79-8.96c-0.51-3.48-1.98-3.75-2.64-5.83c0,0,0-0.02-0.02-0.03
	c-0.05-0.17-0.1-0.36-0.14-0.54c-0.57-2.66,0.47-8.57,0.88-8.98c0.39-0.41,1.91,0,1.91,0l18.75-5.77c0,0-13.93-7.85-20.19-13.93
	c-6.24-6.09-24.18-47.91-24.18-47.91C-1391.65,1005.92-1408.65,1016.64-1408.65,1016.64z"/>
<radialGradient id="SVGID_00000176037583075531284580000005198220983322432446_" cx="-1524.1686" cy="1099.7965" r="90.0075" gradientUnits="userSpaceOnUse">
	<stop  offset="0" style="stop-color:#9C493C"/>
	<stop  offset="0.9823" style="stop-color:#CC6633"/>
</radialGradient>
<path style="fill:url(#SVGID_00000176037583075531284580000005198220983322432446_);" d="M-1547.35,1074.73v0.03
	c0.07,4.16,2.54,12.46,4.4,12.9c2.01,0.49,3.69,2.33,4.41,2.66s1.98,0.98,3.26,2.03c1.27,1.03,3.28,1.12,4.63,1.35
	c1.37,0.24,3.92,2.08,3.92,2.08c2.64,0.12,5.8-2.08,7.24-3.2c0.49-0.39,4.86-5.99,1.57-7.79c4.55,1.14,4.83-4.38,4.83-4.38
	s0.27-0.73,0.64-1.83c0.9-2.55,2.35-7.05,2.23-8.74c-0.15-2.42-4.65-12.35-4.65-12.35s3.69-12.82,11.23-22.42
	c7.53-9.62,13.29-17.3,13.29-17.3c-11.38-17.94-23.24-19.23-23.24-19.23s-3.2,7.05-4.48,15.22s-4.48,30.44-8.54,38.02
	c-4.06,7.59-20.41,18.37-20.73,22.12C-1547.35,1074.15-1547.37,1074.44-1547.35,1074.73z"/>
<path class="st15" d="M-1383.16,1009.17c0,0-10.01,16.08-12.64,27.48l-7.03-8.15l-1.08-17.22l18.99-6.17L-1383.16,1009.17z"/>
<linearGradient id="SVGID_00000121279296545081256620000012969736387326085031_" gradientUnits="userSpaceOnUse" x1="-1368.2922" y1="1076.5787" x2="-1444.0602" y2="893.6641">
	<stop  offset="0" style="stop-color:#39B54A"/>
	<stop  offset="1" style="stop-color:#009245"/>
</linearGradient>
<path style="fill:url(#SVGID_00000121279296545081256620000012969736387326085031_);" d="M-1402.5,944.87
	c3.47,1.92,11.96,38.93,13.4,41.01c1.44,2.08,3.2,4.83,3.68,5.95c0.48,1.12,1.29,5.66,1.29,7.85c0,2.19,2.25,3.51,2.41,4.31
	c0.16,0.8-1.92,4.07-1.92,4.07l-1.28-2.95c0,0-15.83,6.57-20.81,11.86c-4.98,5.29-13.8-13.46-13.8-13.46L-1402.5,944.87z"/>
<path class="st5" d="M-1380.71,1064.49c0,0-12.38,19.44-19.92,24.57c-7.53,5.13-72.46-35.89-72.46-35.89l41.85-2.08l22.59-2.57
	L-1380.71,1064.49z"/>
<path class="st5" d="M-1470.34,1255.61c0.01,0.02,0.03,0.03,0.05,0.03c-0.05-0.02-0.09-0.04-0.11-0.04
	C-1470.38,1255.59-1470.36,1255.61-1470.34,1255.61z"/>
<path class="st5" d="M-1416.68,1141.85c0,0-0.03,0.17-0.1,0.51c-3.16,15.81-7.17,28.59-8.64,33.31c0,0,0,0,0,0.02l-0.02,0.01
	c-0.49,0.66-8.28,11.25-15.92,19.74c-7.92,8.77-15.18,5.11-18.17-0.96c-2.85-5.8-6.82-25.66-7.2-27.49c0-0.03-0.01-0.05-0.01-0.08
	c0-0.02-0.01-0.03-0.01-0.05c0-0.01,0-0.01,0-0.01c-3.81-27.5-10.85-69.13-9.02-80.01c2.58-15.37,9.01-34.8,9.01-34.8
	s26.73,7.33,39.63,19.42c7.77,7.31,14.12,16.88,14.5,28.8C-1412.21,1114.32-1414.16,1129.04-1416.68,1141.85z"/>
<linearGradient id="SVGID_00000137130902510411289500000013187207062155879319_" gradientUnits="userSpaceOnUse" x1="-1520.7362" y1="1207.6896" x2="-1419.7982" y2="980.5793">
	<stop  offset="0" style="stop-color:#39B54A"/>
	<stop  offset="1" style="stop-color:#009245"/>
</linearGradient>
<path style="fill:url(#SVGID_00000137130902510411289500000013187207062155879319_);" d="M-1431.23,929.49
	c0,0,13.14,8.44,18.05,10.47c4.91,2.03,10.68,4.91,10.68,4.91s-1.17,10.89-0.69,13.46c0.48,2.56,10.52,10.25,12.87,13.88
	c2.35,3.63-1.31,38.34,6.02,59.82c0,0,6.44,32.01,10.92,45.47c0,0-8.34,11.44-26.55,6.65l-8.7-25.21c0,0,0.08,22.44-2.91,30.13
	c0,0-26.37,1.54-40.04-4.86c-13.67-6.41-28.93-3.18-28.93-3.18s3.14-38.22,7.98-49.11l0.32-4.85l1.29-4.1c0,0,2.09-5.68,1.73-24.11
	c0,0-1.06,4.8-5.4,4.45c0,0-0.1,1.37-0.21,2.54c-0.11,1.17-3.91,3.37-4.02,4.23c-0.11,0.85-1.25,2.12-1.68,3.19
	c-0.43,1.07-6.69,7.86-7.44,7.97c-0.75,0.11-4.31-0.94-4.31-0.94l1.91-2.53c0,0-8.49-14.58-23.23-19.23l-1.02,2.51
	c0,0-0.89-4.41-1.21-5.48c-0.32-1.07,3.63-3.39,4.16-3.82c0.53-0.43,1.82-3.52,2.67-3.52s3.79-0.79,3.79-1.51
	c0-0.73,0.7-3.19,1.66-3.72c0.96-0.53,2.48-2.14,3.93-6.15s6.38-18.36,10.23-27.5c3.85-9.13,14.02-15.38,16.3-17.62
	c2.28-2.24,9.69-15.49,9.69-15.49l0.76,3.85c0,0,9.93,14.21,20.83,19.97c10.89,5.77,15.7,6.89,15.7,6.89
	S-1426.26,937.5-1431.23,929.49z"/>
<polygon class="st18" points="-1410.71,950.85 -1421.95,947.01 -1418.31,933.43 -1414.89,933.97 "/>
<path class="st18" d="M-1441.31,921.72c0,0,6.24,2.92,7.41,3.64c1.17,0.71,4.72,11.68,4.72,11.68s-1.23-4.27-5.32-6.66
	C-1438.31,928.16-1439.63,924.32-1441.31,921.72z"/>
<linearGradient id="SVGID_00000160908162518439202970000003712833470804346755_" gradientUnits="userSpaceOnUse" x1="-1366.4827" y1="1075.8292" x2="-1442.2506" y2="892.9146">
	<stop  offset="0" style="stop-color:#39B54A"/>
	<stop  offset="1" style="stop-color:#009245"/>
</linearGradient>
<path style="fill:url(#SVGID_00000160908162518439202970000003712833470804346755_);" d="M-1423.22,953.68c0,0,2.56-13.46,8.49-18.9
	l4.02,16.08l-3.22-17.42c0,0-15.54-9.39-18.42-10.19c-2.88-0.8-10.6-4.17-10.6-4.17s1.13,2.07,1.8,2.84
	c0.67,0.77,4.24,1.89,6.8,3.81c2.56,1.92,6.49,13.94,8.25,21.23L-1423.22,953.68z"/>
<path class="st5" d="M-1403.02,1298.4c0,0,2.64-7.39-0.19-11.27c-3.02-4.15-8.49-2.83-10.57,0c-1.65,2.25,1.19,11.27,1.19,11.27
	l-5.81-3.26c-3.48,0.12-6.3,2.87-6.53,6.34c-0.15,2.35-0.33,4.73-0.52,5.84c-0.43,2.56-3.76,17.89-3.76,19.17
	c0,0,41.65,3.31,72.42,3.31c0,0-4.91-12.48-27.36-14.56C-1386.59,1309.96-1399.36,1299.17-1403.02,1298.4z"/>
<path class="st5" d="M-1448.81,1294.34l0.41,0.84c0.89,1.8,1.33,3.79,1.27,5.8c-0.07,2.44-0.06,6.23,0.3,10.66
	c0.64,7.8,0.85,15.59,0.85,15.59s-6.09,5.18-8.65,4.65c-2.56-0.53-20.29-14.26-29.27-2.83c0,0,0.89-10.12,10.48-11.42
	c-0.73-4.96,6.13-18.02,8.47-19.23c0-3.04,0.21-9.42,5.02-9.95c3.35-0.37,6.39,2.04,5.61,5.37c2.44-2.03,4.01,1.25,4.47,1.87
	C-1448.34,1297.71-1448.81,1294.34-1448.81,1294.34z"/>
<linearGradient id="SVGID_00000102531299434339084290000005287970790610353554_" gradientUnits="userSpaceOnUse" x1="5561.312" y1="3686.5874" x2="5635.4038" y2="3686.5874" gradientTransform="matrix(-1 0 0 1 4205.064 -2356.5044)">
	<stop  offset="0" style="stop-color:#FFC4BA"/>
	<stop  offset="1" style="stop-color:#FFE7E5"/>
</linearGradient>
<path style="fill:url(#SVGID_00000102531299434339084290000005287970790610353554_);" d="M-1359.48,1325.51c0,0,3.23,3.12,3.23,5.67
	c0,1.13-0.11,2.37-0.22,3.41c-0.15,1.31-1.11,3.6-2.43,3.61h-68.83c-1.46,0-2.63-1.2-2.6-2.66c0.07-3.96,0.37-11.2,1.59-13.56
	c0,0,1.91,2.64,4.35,3.19c1.9,0.42,12.66,0.53,17.26,0.55c1.32,0.01,2.55,0.63,3.33,1.69l0.34,0.46c0,0,9.56,0.93,26.42,1.09
	S-1359.48,1325.51-1359.48,1325.51z"/>
<linearGradient id="SVGID_00000056413374015648116320000014814505929052518294_" gradientUnits="userSpaceOnUse" x1="5649.5381" y1="3686.8477" x2="5691.0864" y2="3686.8477" gradientTransform="matrix(-1 0 0 1 4205.064 -2356.5044)">
	<stop  offset="0" style="stop-color:#FFC4BA"/>
	<stop  offset="1" style="stop-color:#FFE7E5"/>
</linearGradient>
<path style="fill:url(#SVGID_00000056413374015648116320000014814505929052518294_);" d="M-1445.97,1327.24l1.5,10.04h-41.55
	c0,0,0.98-7.69,2.14-8.96c1.16-1.27,7.26-5.35,13.46-4.87c6.19,0.48,12.76,5.29,17.09,5.77
	C-1449.01,1329.7-1445.97,1327.24-1445.97,1327.24z"/>
<path class="st22" d="M-1444.96,911.72c0,0-10.35,9.2-19.68-0.82l-2.83-10.71c0,0,10.26,4.08,21.34,4.7L-1444.96,911.72z"/>
<linearGradient id="SVGID_00000101795659553538836190000013295451138710164390_" gradientUnits="userSpaceOnUse" x1="5706.6309" y1="3377.7405" x2="5706.6309" y2="3355.3647" gradientTransform="matrix(-1 0 0 1 4205.064 -2356.5044)">
	<stop  offset="0" style="stop-color:#FFFFFF"/>
	<stop  offset="1" style="stop-color:#885286"/>
</linearGradient>
<path style="opacity:0.5;fill:url(#SVGID_00000101795659553538836190000013295451138710164390_);" d="M-1504.37,1003.07
	c11.21,7.8,16.43,18.17,16.43,18.17l-4.31-0.94c0,0-2.66-5.25-6.98-9.74c-4.33-4.49-15.95-7.9-15.95-7.9l0.41-1.95
	C-1514.78,1000.7-1515.58,995.27-1504.37,1003.07z"/>
<linearGradient id="SVGID_00000045614683696479130840000005442809654367448461_" gradientUnits="userSpaceOnUse" x1="-1470.3356" y1="1255.6382" x2="-1470.3356" y2="1255.5948">
	<stop  offset="0" style="stop-color:#9F3D59"/>
	<stop  offset="1" style="stop-color:#FFFFFF"/>
</linearGradient>
<path style="opacity:0.5;fill:url(#SVGID_00000045614683696479130840000005442809654367448461_);" d="M-1470.34,1255.61
	c0.01,0.02,0.03,0.03,0.05,0.03c-0.05-0.02-0.09-0.04-0.11-0.04C-1470.38,1255.59-1470.36,1255.61-1470.34,1255.61z"/>
<path class="st15" d="M-1470.42,1255.57c0,0,0,0,0.01,0.01c-0.01,0-0.01,0-0.01,0V1255.57z"/>
<path class="st15" d="M-1470.34,1255.61c0.01,0.02,0.03,0.03,0.05,0.03c-0.05-0.02-0.09-0.04-0.11-0.04
	C-1470.38,1255.59-1470.36,1255.61-1470.34,1255.61z"/>
<path class="st25" d="M-1356.27,1331.63c0,0-5.89,0.92-15.04,1.32s-58.73-2.61-58.73-2.61l-0.27,2.32c0,0,50.5,3.43,59.06,2.73
	c8.56-0.7,15.03-1.23,15.03-1.23L-1356.27,1331.63z"/>
<path class="st25" d="M-1444.97,1333.97c0,0-14.78-0.71-23.54-1.05c-8.76-0.34-16.91,0.52-16.91,0.52l-0.35,2.05
	c0,0,31.04-0.78,34.14-0.57c3.1,0.21,6.66-0.21,6.66-0.21V1333.97z"/>
<path class="st15" d="M-1373.32,1078.16c0.57,1.52,5.07,2.44,7.56,6.51c2.49,4.09,2.38,12.72,3.67,12.4
	c1.27-0.32,3.37-5.21,2.79-8.96c-0.51-3.48-1.98-3.75-2.64-5.83c0,0,0-0.02-0.02-0.03c-0.2-0.29-1.93-2.67-4.13-4.08
	C-1368.43,1076.67-1373.32,1078.16-1373.32,1078.16z"/>
<radialGradient id="SVGID_00000000180492166667495580000015435187153900611007_" cx="-1466.0734" cy="914.5931" r="73.9107" gradientUnits="userSpaceOnUse">
	<stop  offset="0" style="stop-color:#9C493C"/>
	<stop  offset="0.9823" style="stop-color:#CC6633"/>
</radialGradient>
<path style="fill:url(#SVGID_00000000180492166667495580000015435187153900611007_);" d="M-1447.95,830.3
	c0,0,14.95,1.28,19.87,10.04c4.91,8.76,5.77,27.98,7.69,30.97c1.92,2.99,5.66,2.46,5.55,11.86c-0.11,9.4-7.16,16.77-9.29,20.61
	c-2.14,3.85-3.63,6.19-9.19,6.84c-5.55,0.64-23.55-1.07-34.29-7.96c-10.73-6.89-15.38-24.03-21.95-34.77
	C-1496.12,857.16-1480.21,830.19-1447.95,830.3z"/>
<radialGradient id="SVGID_00000162329363082059900510000007687835958854660756_" cx="-1461.7169" cy="898.102" r="78.6301" gradientUnits="userSpaceOnUse">
	<stop  offset="0" style="stop-color:#9C493C"/>
	<stop  offset="0.9823" style="stop-color:#CC6633"/>
</radialGradient>
<path style="fill:url(#SVGID_00000162329363082059900510000007687835958854660756_);" d="M-1473.69,886.48c0,0-9.33-6.94-17.32-3.63
	c0,0-2.01,5.55-1.58,8.76c0.43,3.2,6.84,10.57,11.43,11.75c4.59,1.18,9.93-1.71,10.36-4.06
	C-1470.38,896.95-1473.69,886.48-1473.69,886.48z"/>
<linearGradient id="SVGID_00000159432567660174660390000008394061029298340238_" gradientUnits="userSpaceOnUse" x1="5631.1479" y1="3208.8425" x2="5699.0801" y2="3208.8425" gradientTransform="matrix(-1 0 0 1 4205.064 -2356.5044)">
	<stop  offset="0" style="stop-color:#FFB159"/>
	<stop  offset="1" style="stop-color:#FFA73B"/>
</linearGradient>
<path style="fill:url(#SVGID_00000159432567660174660390000008394061029298340238_);" d="M-1426.08,845.04c0,0-0.09-2.35-0.49-4.36
	c-6.78-6.9-13.98-10.78-13.98-10.78s-2.8-2.44-4.25-2.34c-1.44,0.11-4.49,2.74-4.49,2.74s-22.17-0.08-32.59,11.46
	c-10.41,11.54-12.14,23.66-12.14,23.66l0.45,1.81c0,0,3.93,4.01,3.93,7.93c0,3.93,3.99,0.72,3.99,0.72l-0.33-1.8
	c0,0,2.89-9.84,12.29-23.73c9.4-13.88,25.57-17.69,28.53-18.52C-1438.09,829.83-1426.08,845.04-1426.08,845.04z"/>
<linearGradient id="SVGID_00000178898109844222149330000003356720370895457943_" gradientUnits="userSpaceOnUse" x1="-1455.2548" y1="862.8754" x2="-1455.2548" y2="851.3715">
	<stop  offset="0" style="stop-color:#600E19"/>
	<stop  offset="0.984" style="stop-color:#741B17"/>
</linearGradient>
<path style="fill:url(#SVGID_00000178898109844222149330000003356720370895457943_);" d="M-1444.89,851.52c0,0-0.62,2.21-1.86,4.13
	c0.83-1.95,1.15-4.27,1.15-4.27c-5.23,2.81-14.53,1.43-16.23,3.04c-2.3,2.16-3.85,8.46-3.85,8.46s2.56-2.35,5.34-3.42
	c2.78-1.07,12.71-2.24,12.71-2.24C-1447.57,857.14-1444.35,855.29-1444.89,851.52z"/>
<path class="st30" d="M-1445.77,865.18c0.05,0.07,0.08,0.12,0.12,0.19c-0.03-0.07-0.07-0.14-0.1-0.19
	C-1445.75,865.18-1445.75,865.18-1445.77,865.18z"/>
<path d="M-1446.35,868.97c1.54,2.84-1.52,5.62-4.24,3.73c-0.17-0.12-0.33-0.29-0.44-0.47c-1.71-2.84,1.26-5.71,3.99-3.99
	C-1446.75,868.42-1446.51,868.67-1446.35,868.97z"/>
<path d="M-1422.85,865.85c-0.04,1.26-1.1,2.26-2.36,2.22c-1.26-0.04-2.26-1.1-2.22-2.36c0.04-1.26,1.1-2.26,2.36-2.22
	C-1423.8,863.52-1422.8,864.58-1422.85,865.85z"/>
<path class="st31" d="M-1446.86,884.14c-0.25,3.35-3.18,5.86-6.53,5.61c-3.35-0.25-5.86-3.18-5.61-6.53
	c0.25-3.35,3.18-5.86,6.53-5.61C-1449.11,877.87-1446.6,880.79-1446.86,884.14z"/>
<linearGradient id="SVGID_00000165224568142973990800000002726598779872093119_" gradientUnits="userSpaceOnUse" x1="-1488.4154" y1="889.4576" x2="-1476.514" y2="889.4576">
	<stop  offset="0" style="stop-color:#600E19"/>
	<stop  offset="0.984" style="stop-color:#741B17"/>
</linearGradient>
<path style="fill:none;stroke:url(#SVGID_00000165224568142973990800000002726598779872093119_);stroke-miterlimit:10;" d="
	M-1487.81,892.03c0,0-1.93-8.97,11.07-2.26"/>
<g>
	
		<linearGradient id="SVGID_00000012453915620067573210000008904389693371871935_" gradientUnits="userSpaceOnUse" x1="-1432.1129" y1="878.0182" x2="-1425.5569" y2="876.4091">
		<stop  offset="0" style="stop-color:#600E19"/>
		<stop  offset="0.984" style="stop-color:#741B17"/>
	</linearGradient>
	<path style="fill:url(#SVGID_00000012453915620067573210000008904389693371871935_);" d="M-1432.79,871.06
		c2.2,1.32,4.02,2.94,5.77,4.64c1.03,0.91,1.89,2.18,2.11,3.68c0.1,0.75,0.04,1.58-0.32,2.27c-0.33,0.7-0.87,1.24-1.44,1.62
		l-0.03,0.03c-0.78,0.41-1.57,0.79-2.41,1.1c0.54-0.72,1.14-1.37,1.75-1.99l-0.03,0.03c0.7-0.9,0.93-1.8,0.66-2.72
		c-0.26-0.93-0.84-1.82-1.61-2.58C-1430,875.27-1431.59,873.32-1432.79,871.06z"/>
</g>
<g>
	<path class="st34" d="M-1421.13,893.64c-0.46-2.2-2.63-1.46-4.06-0.56c-0.13,0.08-0.28,0.1-0.41,0.07
		c-2.19-0.41-4.62,0.29-6.79,0.75c-3.17,0.55-6.29,0.78-9.5,0.73c0,0,0.29-0.84,0.29-0.84c1.88,0.88,3.86,1.59,5.76,2.34
		c1.8,0.65,3.69,1.26,5.56,0.91c1.34-0.08,2.1-1.18,3.45-1.54c1.03-0.32,2.36,0.24,2.92,0.95c0.38,0.43,0.7,0.8,0.79,0.82
		c0.35,0.05,0.71-0.24,0.99-0.45c0.68-0.58,1.01-1.62,1.1-2.64c0-0.11,0.18-0.12,0.2-0.01c0.4,1.6-0.38,4.04-2.32,4.31
		c-1.14,0.05-1.75-1.3-2.72-1.26c-0.92,0.05-1.31,0.84-2.24,1.3c-0.56,0.32-1.18,0.52-1.78,0.64c-4.55,0.67-8.61-2.29-12.22-4.61
		c-0.4-0.26-0.11-0.93,0.35-0.8c1.31,0.3,2.69,0.32,4.04,0.16c1.68-0.2,3.32-0.77,4.87-1.41c2.43-1.03,4.9-1.55,7.6-0.76
		c0,0-0.58,0.03-0.58,0.03c1.32-0.56,3.57-1.18,4.6,0.34c0.31,0.5,0.38,1.04,0.31,1.55c-0.01,0.06-0.06,0.09-0.11,0.09
		C-1421.09,893.72-1421.13,893.68-1421.13,893.64L-1421.13,893.64z"/>
</g>
<g>
	<path class="st35" d="M-1442.94,894.17c3.56-0.42,6.49-1.91,9.07-4.34c2.38-2.06,7.85-7.27,9.97-2.22c0,0-1.5-0.15-1.5-0.15
		c0.19-0.27,0.36-0.57,0.66-0.97c1.17-1.5,3.19-1.23,3.82,0.56c0.62,1.6,0.14,3.31-0.73,4.65c0.4-1.45,0.61-4.26-1.07-4.82
		c-0.78,0.15-0.83,0.82-1.25,1.5c0,0-0.78,1.31-0.78,1.31c-0.43-0.69-0.86-2.4-1.88-2.38c-2.35,0.74-4.03,2.42-6.06,3.95
		C-1435.44,893.58-1439.37,895-1442.94,894.17L-1442.94,894.17z"/>
</g>
<linearGradient id="SVGID_00000135664464521554067050000011148432089480055223_" gradientUnits="userSpaceOnUse" x1="-1427.609" y1="854.4109" x2="-1427.609" y2="847.5869">
	<stop  offset="0" style="stop-color:#600E19"/>
	<stop  offset="0.984" style="stop-color:#741B17"/>
</linearGradient>
<path style="fill:url(#SVGID_00000135664464521554067050000011148432089480055223_);" d="M-1431.4,849.71c0,0-1.23,3.47,2.13,4.7
	c0,0,3.35-2.68,5.1-2.04c0,0,0.93-1.52,0.42-3.15c-0.51-1.63-1.56-1.63-1.56-1.63s-5.07,0.54-5.61,1.9c0,0-0.03,2.65,1.14,4.19
	C-1429.79,853.67-1431.1,852.17-1431.4,849.71z"/>
<path class="st18" d="M-1462.15,941.61l2.99,17.36c0,0,17.73-14.19,32.07-8.82l-1.04-1.13l-24.05-12.64L-1462.15,941.61z"/>
<linearGradient id="SVGID_00000097495196397186977070000002971629969457757597_" gradientUnits="userSpaceOnUse" x1="-1390.9681" y1="1085.9718" x2="-1466.7362" y2="903.0571">
	<stop  offset="0" style="stop-color:#39B54A"/>
	<stop  offset="1" style="stop-color:#009245"/>
</linearGradient>
<path style="fill:url(#SVGID_00000097495196397186977070000002971629969457757597_);" d="M-1463.48,915.82
	c0,0-7.37,11.75-11.75,19.65c0,0,3.19,16.13,16.07,23.5c0,0,5.51-20.19,7.19-21.15c1.68-0.96,10.41,4.73,16.82,7.85
	c6.41,3.12,11.34,6.62,11.34,6.62l-2.29-5.34c0,0-14.34-6.63-23.87-13.52C-1459.51,926.54-1463.48,915.82-1463.48,915.82z"/>
<g>
	<path class="st18" d="M-1423.22,953.68c3.41,3.12,6.6,6.46,9.69,9.91c3.13,3.82,6.8,7.69,8.01,12.62
		c0.43,4.36,0.28,8.73,0.29,13.09c-0.34,23.06-1.45,46.1-3.41,69.09c0.01-21.28,0.95-47.75,1.52-69.12
		c0.09-4.27,0.27-8.57,0.04-12.83c-1.05-4.55-4.42-8.49-7.19-12.23C-1417.1,960.58-1420.14,957.11-1423.22,953.68L-1423.22,953.68z"
		/>
</g>
<g>
	<path class="st18" d="M-1486.87,944.82c6.61,2.45,12.19,7.06,16.68,12.41c4.47,5.43,6.72,12.62,6.67,19.61c0,0-0.1,0-0.1,0
		c-1.45-7.99-3.88-16.22-9.44-22.32C-1477.11,950.66-1482.51,948.07-1486.87,944.82L-1486.87,944.82z"/>
</g>
<g>
	<path class="st18" d="M-1403.27,957.71c-0.51-4.28-0.51-8.71,0.77-12.84C-1402.4,949.18-1402.41,953.46-1403.27,957.71
		L-1403.27,957.71z"/>
</g>
<path class="st38" d="M-1411.87,1299.36c0,0,14.93,8.75,18.87,16.78c0,0,1.66-3.32,8.85-0.89"/>
<path class="st38" d="M-1455.27,1295.2c0,0-2.19,1.06-2.28,3.66c0,0-6.3,6.12-7.38,17.28c0,0-3.92-2-8.47,1.49"/>
<g>
	<path class="st18" d="M-1502.99,983.56c2.36-1.03,4.63,0.37,6.65,1.49c2.81,1.09,5.24,3.13,6.59,5.84c0.02,0.05-0.03,0.1-0.08,0.06
		c-0.56-0.38-1.06-0.8-1.55-1.23c-2.05-1.53-3.67-3.69-5.99-4.83c-1.86-0.54-3.66-0.91-5.61-1.23
		C-1503.02,983.66-1503.04,983.58-1502.99,983.56L-1502.99,983.56z"/>
</g>
<g>
	<path class="st18" d="M-1508.16,988.75c2.77-0.05,5.37,1,7.71,2.38c4.17,1.71,8.4,3.95,10.69,8.03c0.03,0.05-0.03,0.1-0.08,0.06
		c-3.49-2.77-6.74-5.84-10.75-7.8c-2.56-0.83-5.08-1.52-7.6-2.57C-1508.22,988.83-1508.21,988.75-1508.16,988.75L-1508.16,988.75z"
		/>
</g>
<g>
	<path class="st18" d="M-1475.27,1005.44c-1.13-0.96-1.75-2.13-2.35-3.41c-1.52-1.76-3.53-2.99-4.57-5.19
		c-0.02-0.04,0.02-0.09,0.07-0.07c0.89,0.4,1.64,0.98,2.32,1.63c1.04,0.97,1.57,2.33,2.44,3.43c1.08,0.94,2.03,2.04,2.18,3.56
		C-1475.18,1005.44-1475.24,1005.47-1475.27,1005.44L-1475.27,1005.44z"/>
</g>
<g>
	<defs>
		<rect id="SVGID_00000008112584692609050420000001874557588615000241_" width="525.76" height="446.22"/>
	</defs>
	<clipPath id="SVGID_00000099662828996847834440000012067397663553864071_">
		<use xlink:href="#SVGID_00000008112584692609050420000001874557588615000241_"  style="overflow:visible;"/>
	</clipPath>
	<g style="clip-path:url(#SVGID_00000099662828996847834440000012067397663553864071_);">
		<path d="M160.77,161.82c0-38.2,30.97-69.17,69.17-69.17s60.64,22.26,60.64,60.46s-25.12,76.17-62.89,70.43
			C184.92,217.03,160.77,200.03,160.77,161.82z"/>
		
			<radialGradient id="SVGID_00000119079218559173677940000004575956627749567119_" cx="3907.8796" cy="3007.8259" r="12.4357" gradientTransform="matrix(-1 0 0 1 4205.064 -2356.5044)" gradientUnits="userSpaceOnUse">
			<stop  offset="0" style="stop-color:#9C493C"/>
			<stop  offset="0.9823" style="stop-color:#CC6633"/>
		</radialGradient>
		<path style="fill:url(#SVGID_00000119079218559173677940000004575956627749567119_);" d="M305.99,636.1h-17.06
			c0.6,8.85-0.54,23.37-0.54,23.37s4.03,6.58,5.69,7.06c1.66,0.47,11.85-7.06,11.85-7.06C305.08,653.21,305.35,644.43,305.99,636.1z
			"/>
		<path class="st5" d="M334.16,479.82c-0.96-36.51-5.48-77.97-5.48-77.97l-24.34-11.19l-20.51,13.89l-6.23,4.22
			c0,0,2.05,23.61,0.19,36.82c-1.35,9.63,4.79,50.85,7.94,74.63c0,0,0,0,0,0.02c1.16,8.84,1.91,15.26,1.73,16.76
			c-0.69,5.52-8.71,21.87-9.59,35.38c-0.88,13.51,6.33,40.33,6.33,40.33c0,0,0,0,0,0c0.86,3.36,3.48,13.8,4.46,20.5
			c0.13,0.85,0.39,6.73,0.46,7.78l16.57,0.06c0.97-12.75,3.13-29.43,3.13-29.43c0,0-0.01,0.01-0.01,0.01c0,0,0.01-0.01,0.01-0.01
			s3.73-36.22,8.01-46.17c4.26-9.97,8.88-16.37,11.02-21.87c0.19-0.47,0.38-1.05,0.6-1.75c0.08-0.28,0.17-0.53,0.24-0.79
			c0.24-0.86,0.51-1.84,0.79-2.97c0.04-0.11,0.04-0.21,0.06-0.24v-0.02C331.87,528.1,334.89,508.52,334.16,479.82z"/>
		<g>
			
				<radialGradient id="SVGID_00000181800419753983522380000017677930291995487153_" cx="250.7539" cy="650.5041" r="7.739" gradientUnits="userSpaceOnUse">
				<stop  offset="0" style="stop-color:#9C493C"/>
				<stop  offset="0.9823" style="stop-color:#CC6633"/>
			</radialGradient>
			<path style="fill:url(#SVGID_00000181800419753983522380000017677930291995487153_);" d="M259.95,656.45l-15.4-3.29
				c0,0-0.72,3.27-2.98-8.59h18.18C259.69,652.2,259.57,648.92,259.95,656.45z"/>
			
				<radialGradient id="SVGID_00000063594594715398940950000010682282311096925574_" cx="235.8674" cy="608.9624" r="0.0458" gradientUnits="userSpaceOnUse">
				<stop  offset="0" style="stop-color:#9C493C"/>
				<stop  offset="0.9823" style="stop-color:#CC6633"/>
			</radialGradient>
			<path style="fill:url(#SVGID_00000063594594715398940950000010682282311096925574_);" d="M235.93,608.99
				c-0.06-0.02-0.1-0.05-0.12-0.05c0.01,0,0.04,0.01,0.06,0.01C235.88,608.97,235.9,608.99,235.93,608.99z"/>
			
				<radialGradient id="SVGID_00000068675666416796569940000000654933043299401135_" cx="236.1437" cy="610.278" r="1.0019" gradientUnits="userSpaceOnUse">
				<stop  offset="0" style="stop-color:#9C493C"/>
				<stop  offset="0.9823" style="stop-color:#CC6633"/>
			</radialGradient>
			<path style="fill:url(#SVGID_00000068675666416796569940000000654933043299401135_);" d="M236.53,611.64
				c-0.25-0.91-0.5-1.81-0.77-2.73c0,0,0,0,0.01,0v0.01L236.53,611.64z"/>
		</g>
		<path class="st5" d="M268.02,542.17c-8.79,9.73-16.84,5.67-20.16-1.07c-3.16-6.44-7.57-28.48-7.99-30.51
			c1.69,12.51,2.82,22.34,2.42,26.1c-1.43,12.95-10.44,25.4-12.76,39.26c-2.35,13.88,6.25,32.96,6.25,32.96s0,0,0.01,0.01
			c-0.01,0-0.01,0-0.01,0l0.76,2.72c2.03,7.4,3.82,26.58,5.03,32.92c0,0,8.35,1.27,12.9,0.8c4.55-0.47,5.28-0.8,5.28-0.8
			c0.06-11.63,0.2-32.92,0.2-32.92s8.12-52.58,11.67-62.54c3.57-9.94,11.1-19.33,14.08-28.84C285.15,521,276.5,532.75,268.02,542.17
			z M235.81,608.94c0.01,0,0.04,0.01,0.06,0.01c0.01,0.02,0.04,0.04,0.06,0.04C235.87,608.96,235.83,608.94,235.81,608.94z"/>
		<g>
			
				<linearGradient id="SVGID_00000092438543422105773750000017539095439521815471_" gradientUnits="userSpaceOnUse" x1="4783.0278" y1="1145.3899" x2="4792.5029" y2="1053.7963" gradientTransform="matrix(-0.0744 -0.9972 -0.9972 0.0744 1834.8224 5118.9116)">
				<stop  offset="5.586590e-03" style="stop-color:#9C0A00"/>
				<stop  offset="1" style="stop-color:#D10F20"/>
			</linearGradient>
			<polygon style="fill:url(#SVGID_00000092438543422105773750000017539095439521815471_);" points="353.45,457.02 423.17,449.03 
				424.07,445.79 408.7,391.21 339.77,410.58 339.11,412.9 			"/>
			<polygon class="st10" points="408.83,391.2 407.68,394.46 423.17,449.03 424.07,445.79 			"/>
			<polygon class="st11" points="422.34,447.01 422.95,444.32 409.01,391.19 424.5,444.95 423.18,448.97 357.08,456.75 			"/>
		</g>
		
			<radialGradient id="SVGID_00000117660654033300046120000011863609146770436748_" cx="265.9271" cy="276.2049" r="66.9709" gradientUnits="userSpaceOnUse">
			<stop  offset="0" style="stop-color:#9C493C"/>
			<stop  offset="0.9823" style="stop-color:#CC6633"/>
		</radialGradient>
		<path style="fill:url(#SVGID_00000117660654033300046120000011863609146770436748_);" d="M238.61,212.94c0,0,4.5,15.81,5.81,23.63
			c0,0,6.64,11.97,12.8,17.78c6.16,5.81,29.4,17.54,29.4,17.54s-1.9-18.14-7.35-24.89c0,0-4.22-2.18-9.56-6.8
			c-5.33-4.62-7.1-21.19-7.1-21.19S241.57,214.08,238.61,212.94z"/>
		
			<radialGradient id="SVGID_00000176763928062031682750000012391283818446084231_" cx="368.5634" cy="409.632" r="67.028" gradientUnits="userSpaceOnUse">
			<stop  offset="0" style="stop-color:#9C493C"/>
			<stop  offset="0.9823" style="stop-color:#CC6633"/>
		</radialGradient>
		<path style="fill:url(#SVGID_00000176763928062031682750000012391283818446084231_);" d="M304.33,343.73c0,0,0.9,4.64,8.01,14.94
			c7.11,10.32,30.5,28.1,32.36,33.78c1.86,5.69-1.78,17.87-1.16,19.56c0.64,1.69,5.63,2.7,8.39,7.23
			c2.76,4.54,2.65,14.11,4.07,13.76c1.41-0.36,3.73-5.78,3.1-9.95c-0.56-3.87-2.2-4.17-2.93-6.48c0,0,0-0.02-0.02-0.04
			c-0.06-0.19-0.11-0.39-0.15-0.6c-0.64-2.95,0.53-9.52,0.98-9.97c0.43-0.45,2.12,0,2.12,0l20.81-6.4c0,0-15.47-8.71-22.41-15.47
			c-6.93-6.76-26.84-53.17-26.84-53.17C323.19,331.83,304.33,343.73,304.33,343.73z"/>
		
			<radialGradient id="SVGID_00000176011405511959293700000015278372159207188148_" cx="176.1204" cy="436.0242" r="99.8957" gradientUnits="userSpaceOnUse">
			<stop  offset="0" style="stop-color:#9C493C"/>
			<stop  offset="0.9823" style="stop-color:#CC6633"/>
		</radialGradient>
		<path style="fill:url(#SVGID_00000176011405511959293700000015278372159207188148_);" d="M150.39,408.2v0.04
			c0.08,4.62,2.82,13.83,4.88,14.32c2.23,0.54,4.09,2.59,4.9,2.95c0.81,0.36,2.2,1.09,3.62,2.25c1.41,1.14,3.64,1.24,5.14,1.5
			c1.52,0.26,4.35,2.31,4.35,2.31c2.93,0.13,6.44-2.31,8.03-3.55c0.54-0.43,5.4-6.65,1.74-8.65c5.05,1.27,5.36-4.86,5.36-4.86
			s0.3-0.81,0.71-2.03c0.99-2.83,2.61-7.83,2.48-9.7c-0.17-2.68-5.16-13.7-5.16-13.7s4.09-14.23,12.46-24.89
			c8.35-10.68,14.75-19.2,14.75-19.2c-12.63-19.91-25.79-21.34-25.79-21.34s-3.55,7.83-4.97,16.89c-1.43,9.07-4.97,33.78-9.48,42.19
			c-4.5,8.43-22.65,20.38-23.01,24.55C150.39,407.56,150.37,407.88,150.39,408.2z"/>
		<path class="st15" d="M332.62,335.44c0,0-11.1,17.85-14.03,30.5l-7.8-9.05l-1.2-19.11l21.07-6.85L332.62,335.44z"/>
		
			<linearGradient id="SVGID_00000094586773523600786360000016895245022174697914_" gradientUnits="userSpaceOnUse" x1="349.1212" y1="410.2558" x2="265.0294" y2="207.2464">
			<stop  offset="0" style="stop-color:#39B54A"/>
			<stop  offset="1" style="stop-color:#009245"/>
		</linearGradient>
		<path style="fill:url(#SVGID_00000094586773523600786360000016895245022174697914_);" d="M311.16,264.08
			c3.85,2.13,13.28,43.21,14.88,45.52c1.6,2.31,3.55,5.36,4.08,6.6c0.53,1.24,1.43,6.28,1.43,8.71c0,2.43,2.49,3.89,2.67,4.78
			c0.18,0.89-2.13,4.52-2.13,4.52l-1.42-3.28c0,0-17.56,7.29-23.1,13.16c-5.53,5.87-15.31-14.94-15.31-14.94L311.16,264.08z"/>
		<path class="st5" d="M335.34,396.84c0,0-13.74,21.57-22.1,27.26c-8.36,5.69-80.42-39.83-80.42-39.83l46.45-2.31l25.07-2.85
			L335.34,396.84z"/>
		<path class="st5" d="M235.87,608.95c0.01,0.02,0.04,0.04,0.06,0.04c-0.06-0.02-0.1-0.05-0.12-0.05
			C235.82,608.94,235.84,608.95,235.87,608.95z"/>
		<path class="st5" d="M295.41,482.7c0,0-0.04,0.19-0.11,0.56c-3.51,17.54-7.95,31.73-9.59,36.97c0,0,0,0,0,0.02l-0.02,0.01
			c-0.54,0.73-9.19,12.48-17.67,21.9c-8.79,9.73-16.84,5.67-20.16-1.07c-3.16-6.44-7.57-28.48-7.99-30.51
			c0-0.04-0.01-0.06-0.01-0.08c0-0.02-0.01-0.04-0.01-0.06c0-0.01,0-0.01,0-0.01c-4.23-30.52-12.04-76.73-10.01-88.8
			c2.86-17.06,10-38.63,10-38.63s29.66,8.13,43.99,21.55c8.63,8.11,15.67,18.73,16.09,31.96
			C300.38,452.14,298.21,468.48,295.41,482.7z"/>
		
			<linearGradient id="SVGID_00000124854391014759630590000010086021092602292640_" gradientUnits="userSpaceOnUse" x1="179.9299" y1="555.7703" x2="291.9567" y2="303.71">
			<stop  offset="0" style="stop-color:#39B54A"/>
			<stop  offset="1" style="stop-color:#009245"/>
		</linearGradient>
		<path style="fill:url(#SVGID_00000124854391014759630590000010086021092602292640_);" d="M279.27,247.01
			c0,0,14.58,9.36,20.03,11.62c5.45,2.25,11.85,5.45,11.85,5.45s-1.3,12.09-0.77,14.94c0.53,2.85,11.68,11.38,14.28,15.41
			c2.61,4.03-1.46,42.56,6.68,66.39c0,0,7.14,35.53,12.12,50.47c0,0-9.26,12.69-29.47,7.38l-9.66-27.98c0,0,0.09,24.91-3.23,33.44
			c0,0-29.27,1.71-44.44-5.4c-15.17-7.11-32.11-3.53-32.11-3.53s3.49-42.42,8.86-54.5l0.36-5.39l1.44-4.55c0,0,2.32-6.31,1.91-26.75
			c0,0-1.18,5.32-5.99,4.94c0,0-0.11,1.52-0.23,2.82c-0.12,1.3-4.34,3.74-4.46,4.69c-0.12,0.95-1.39,2.35-1.87,3.54
			c-0.47,1.19-7.42,8.73-8.25,8.84c-0.83,0.12-4.79-1.04-4.79-1.04l2.12-2.81c0,0-9.42-16.18-25.78-21.34l-1.14,2.79
			c0,0-0.99-4.89-1.35-6.08c-0.36-1.19,4.03-3.76,4.62-4.24c0.59-0.47,2.02-3.91,2.96-3.91c0.95,0,4.2-0.87,4.2-1.68
			c0-0.81,0.77-3.54,1.84-4.13c1.07-0.59,2.76-2.38,4.36-6.82c1.6-4.45,7.08-20.38,11.35-30.52c4.27-10.14,15.56-17.07,18.09-19.56
			c2.53-2.49,10.76-17.19,10.76-17.19l0.84,4.27c0,0,11.02,15.77,23.12,22.17c12.09,6.4,17.43,7.65,17.43,7.65
			S284.78,255.9,279.27,247.01z"/>
		<polygon class="st18" points="302.05,270.72 289.57,266.45 293.61,251.39 297.41,251.99 		"/>
		<path class="st18" d="M268.08,238.38c0,0,6.92,3.24,8.22,4.04c1.3,0.79,5.23,12.96,5.23,12.96s-1.36-4.74-5.91-7.39
			C271.41,245.54,269.94,241.27,268.08,238.38z"/>
		
			<linearGradient id="SVGID_00000027597352739971704050000012669851714569009311_" gradientUnits="userSpaceOnUse" x1="351.1295" y1="409.4239" x2="267.0377" y2="206.4145">
			<stop  offset="0" style="stop-color:#39B54A"/>
			<stop  offset="1" style="stop-color:#009245"/>
		</linearGradient>
		<path style="fill:url(#SVGID_00000027597352739971704050000012669851714569009311_);" d="M288.16,273.86
			c0,0,2.85-14.94,9.42-20.98l4.47,17.84l-3.58-19.33c0,0-17.25-10.42-20.45-11.31c-3.2-0.89-11.77-4.63-11.77-4.63s1.25,2.3,2,3.15
			c0.75,0.86,4.7,2.1,7.55,4.23c2.85,2.13,7.2,15.47,9.16,23.56L288.16,273.86z"/>
		<path class="st5" d="M310.58,656.45c0,0,2.93-8.2-0.21-12.51c-3.35-4.61-9.42-3.14-11.73,0c-1.83,2.5,1.32,12.51,1.32,12.51
			l-6.45-3.62c-3.86,0.14-7,3.18-7.24,7.04c-0.17,2.61-0.37,5.25-0.58,6.48c-0.47,2.84-4.17,19.85-4.17,21.28
			c0,0,46.23,3.67,80.37,3.67c0,0-5.45-13.85-30.37-16.16C328.82,669.28,314.64,657.3,310.58,656.45z"/>
		<path class="st5" d="M259.76,651.94l0.46,0.93c0.98,2,1.47,4.21,1.41,6.44c-0.07,2.71-0.07,6.91,0.33,11.83
			c0.71,8.65,0.95,17.31,0.95,17.31s-6.76,5.75-9.6,5.16c-2.84-0.59-22.52-15.83-32.48-3.14c0,0,0.99-11.23,11.64-12.68
			c-0.81-5.5,6.81-20,9.41-21.34c0-3.38,0.24-10.45,5.57-11.04c3.72-0.41,7.09,2.26,6.23,5.95c2.71-2.26,4.46,1.39,4.96,2.07
			C260.28,655.68,259.76,651.94,259.76,651.94z"/>
		
			<linearGradient id="SVGID_00000142856636338500361160000006298138374287227019_" gradientUnits="userSpaceOnUse" x1="3842.5754" y1="3048.114" x2="3924.8071" y2="3048.114" gradientTransform="matrix(-1 0 0 1 4205.064 -2356.5044)">
			<stop  offset="0" style="stop-color:#FFC4BA"/>
			<stop  offset="1" style="stop-color:#FFE7E5"/>
		</linearGradient>
		<path style="fill:url(#SVGID_00000142856636338500361160000006298138374287227019_);" d="M358.91,686.53c0,0,3.58,3.46,3.58,6.29
			c0,1.25-0.12,2.64-0.25,3.79c-0.16,1.46-1.23,3.99-2.7,4h-76.4c-1.62,0-2.92-1.33-2.89-2.95c0.08-4.4,0.41-12.43,1.76-15.05
			c0,0,2.12,2.93,4.83,3.54c2.11,0.47,14.05,0.58,19.15,0.61c1.46,0.01,2.83,0.7,3.7,1.87l0.38,0.51c0,0,10.61,1.03,29.32,1.21
			S358.91,686.53,358.91,686.53z"/>
		
			<linearGradient id="SVGID_00000074407162180749544320000002002858864642217628_" gradientUnits="userSpaceOnUse" x1="3940.4941" y1="3048.4028" x2="3986.6064" y2="3048.4028" gradientTransform="matrix(-1 0 0 1 4205.064 -2356.5044)">
			<stop  offset="0" style="stop-color:#FFC4BA"/>
			<stop  offset="1" style="stop-color:#FFE7E5"/>
		</linearGradient>
		<path style="fill:url(#SVGID_00000074407162180749544320000002002858864642217628_);" d="M262.91,688.45l1.66,11.14h-46.11
			c0,0,1.09-8.53,2.37-9.94c1.28-1.41,8.06-5.94,14.94-5.41c6.88,0.53,14.17,5.87,18.97,6.4
			C259.53,691.18,262.91,688.45,262.91,688.45z"/>
		<path class="st53" d="M264.03,227.28c0,0-11.49,10.21-21.84-0.91l-3.14-11.88c0,0,11.38,4.53,23.69,5.22L264.03,227.28z"/>
		
			<linearGradient id="SVGID_00000025436839257171034010000015179575072491044770_" gradientUnits="userSpaceOnUse" x1="4003.8586" y1="2705.3376" x2="4003.8586" y2="2680.5037" gradientTransform="matrix(-1 0 0 1 4205.064 -2356.5044)">
			<stop  offset="0" style="stop-color:#FFFFFF"/>
			<stop  offset="1" style="stop-color:#885286"/>
		</linearGradient>
		<path style="opacity:0.5;fill:url(#SVGID_00000025436839257171034010000015179575072491044770_);" d="M198.09,328.67
			c12.44,8.65,18.23,20.17,18.23,20.17l-4.79-1.04c0,0-2.95-5.83-7.75-10.81c-4.8-4.98-17.7-8.77-17.7-8.77l0.45-2.16
			C186.54,326.04,185.65,320.01,198.09,328.67z"/>
		
			<linearGradient id="SVGID_00000021099381979828151500000017941320172971671467_" gradientUnits="userSpaceOnUse" x1="235.8674" y1="608.9865" x2="235.8674" y2="608.9384">
			<stop  offset="0" style="stop-color:#9F3D59"/>
			<stop  offset="1" style="stop-color:#FFFFFF"/>
		</linearGradient>
		<path style="opacity:0.5;fill:url(#SVGID_00000021099381979828151500000017941320172971671467_);" d="M235.87,608.95
			c0.01,0.02,0.04,0.04,0.06,0.04c-0.06-0.02-0.1-0.05-0.12-0.05C235.82,608.94,235.84,608.95,235.87,608.95z"/>
		<path class="st15" d="M235.77,608.91c0,0,0,0,0.01,0.01c-0.01,0-0.01,0-0.01,0V608.91z"/>
		<path class="st15" d="M235.87,608.95c0.01,0.02,0.04,0.04,0.06,0.04c-0.06-0.02-0.1-0.05-0.12-0.05
			C235.82,608.94,235.84,608.95,235.87,608.95z"/>
		<path class="st25" d="M362.46,693.33c0,0-6.54,1.03-16.7,1.47c-10.16,0.44-65.18-2.9-65.18-2.9l-0.3,2.57
			c0,0,56.05,3.81,65.55,3.03c9.5-0.78,16.68-1.37,16.68-1.37L362.46,693.33z"/>
		<path class="st25" d="M264.02,695.92c0,0-16.4-0.78-26.12-1.16c-9.72-0.38-18.77,0.58-18.77,0.58l-0.39,2.28
			c0,0,34.45-0.87,37.89-0.63c3.44,0.24,7.4-0.24,7.4-0.24V695.92z"/>
		<path class="st15" d="M343.54,412.01c0.64,1.69,5.63,2.7,8.39,7.23c2.76,4.54,2.65,14.11,4.07,13.76c1.41-0.36,3.73-5.78,3.1-9.95
			c-0.56-3.87-2.2-4.17-2.93-6.48c0,0,0-0.02-0.02-0.04c-0.23-0.32-2.14-2.97-4.58-4.52C348.96,410.36,343.54,412.01,343.54,412.01z
			"/>
		
			<radialGradient id="SVGID_00000052826204602173152960000010785620373022761902_" cx="240.5979" cy="230.4746" r="82.0304" gradientUnits="userSpaceOnUse">
			<stop  offset="0" style="stop-color:#9C493C"/>
			<stop  offset="0.9823" style="stop-color:#CC6633"/>
		</radialGradient>
		<path style="fill:url(#SVGID_00000052826204602173152960000010785620373022761902_);" d="M260.71,136.92
			c0,0,16.6,1.42,22.05,11.14c5.45,9.72,6.4,31.06,8.53,34.38c2.13,3.32,6.28,2.73,6.16,13.16c-0.12,10.43-7.94,18.61-10.31,22.88
			c-2.37,4.27-4.03,6.88-10.19,7.59c-6.16,0.71-26.14-1.19-38.05-8.83c-11.91-7.65-17.07-26.67-24.36-38.59
			C207.25,166.73,224.91,136.8,260.71,136.92z"/>
		
			<radialGradient id="SVGID_00000036939851741912032930000002028064574931799724_" cx="245.433" cy="212.1718" r="87.2682" gradientUnits="userSpaceOnUse">
			<stop  offset="0" style="stop-color:#9C493C"/>
			<stop  offset="0.9823" style="stop-color:#CC6633"/>
		</radialGradient>
		<path style="fill:url(#SVGID_00000036939851741912032930000002028064574931799724_);" d="M232.14,199.27
			c0,0-10.35-7.71-19.22-4.03c0,0-2.23,6.16-1.76,9.72c0.47,3.56,7.59,11.74,12.68,13.04c5.1,1.3,11.02-1.9,11.5-4.5
			C235.82,210.89,232.14,199.27,232.14,199.27z"/>
		
			<linearGradient id="SVGID_00000043453806017578854770000011699114699322980781_" gradientUnits="userSpaceOnUse" x1="3920.0835" y1="2517.8845" x2="3995.4788" y2="2517.8845" gradientTransform="matrix(-1 0 0 1 4205.064 -2356.5044)">
			<stop  offset="0" style="stop-color:#FFB159"/>
			<stop  offset="1" style="stop-color:#FFA73B"/>
		</linearGradient>
		<path style="fill:url(#SVGID_00000043453806017578854770000011699114699322980781_);" d="M284.98,153.28c0,0-0.1-2.6-0.54-4.84
			c-7.53-7.65-15.51-11.96-15.51-11.96s-3.11-2.71-4.71-2.59c-1.6,0.12-4.98,3.04-4.98,3.04s-24.61-0.08-36.17,12.72
			c-11.56,12.8-13.48,26.26-13.48,26.26l0.5,2.01c0,0,4.36,4.45,4.36,8.8c0,4.36,4.42,0.8,4.42,0.8l-0.37-2
			c0,0,3.21-10.92,13.64-26.33c10.43-15.41,28.38-19.63,31.66-20.56C271.65,136.4,284.98,153.28,284.98,153.28z"/>
		
			<linearGradient id="SVGID_00000133491675324246393160000010958470926360823431_" gradientUnits="userSpaceOnUse" x1="252.605" y1="173.0753" x2="252.605" y2="160.3075">
			<stop  offset="0" style="stop-color:#600E19"/>
			<stop  offset="0.984" style="stop-color:#741B17"/>
		</linearGradient>
		<path style="fill:url(#SVGID_00000133491675324246393160000010958470926360823431_);" d="M264.11,160.47c0,0-0.69,2.46-2.06,4.58
			c0.92-2.16,1.27-4.74,1.27-4.74c-5.81,3.12-16.13,1.59-18.02,3.37c-2.55,2.4-4.27,9.39-4.27,9.39s2.85-2.61,5.93-3.79
			c3.08-1.19,14.11-2.49,14.11-2.49C261.13,166.71,264.71,164.66,264.11,160.47z"/>
		<path class="st30" d="M263.14,175.63c0.06,0.08,0.09,0.13,0.13,0.21c-0.04-0.08-0.08-0.15-0.11-0.21
			C263.15,175.63,263.15,175.63,263.14,175.63z"/>
		<path d="M262.49,179.84c1.7,3.15-1.68,6.23-4.71,4.14c-0.19-0.13-0.36-0.32-0.49-0.52c-1.9-3.15,1.4-6.33,4.43-4.43
			C262.04,179.23,262.31,179.51,262.49,179.84z"/>
		<path d="M288.57,176.37c-0.05,1.4-1.22,2.5-2.62,2.46c-1.4-0.04-2.51-1.22-2.46-2.62c0.05-1.4,1.22-2.5,2.62-2.46
			C287.52,173.8,288.62,174.97,288.57,176.37z"/>
		<path class="st31" d="M261.92,196.68c-0.28,3.72-3.53,6.51-7.25,6.22c-3.72-0.28-6.51-3.53-6.22-7.25
			c0.28-3.72,3.53-6.51,7.25-6.22C259.42,189.72,262.21,192.96,261.92,196.68z"/>
		
			<linearGradient id="SVGID_00000119827167658440117000000011464642866852743048_" gradientUnits="userSpaceOnUse" x1="215.8564" y1="202.5995" x2="228.9851" y2="202.5995">
			<stop  offset="0" style="stop-color:#600E19"/>
			<stop  offset="0.984" style="stop-color:#741B17"/>
		</linearGradient>
		<path style="fill:none;stroke:url(#SVGID_00000119827167658440117000000011464642866852743048_);stroke-miterlimit:10;" d="
			M216.47,205.44c0,0-2.14-9.96,12.29-2.51"/>
		<g>
			
				<linearGradient id="SVGID_00000032648957459304987570000001248828273370474661_" gradientUnits="userSpaceOnUse" x1="278.3959" y1="189.8555" x2="285.4588" y2="188.1219">
				<stop  offset="0" style="stop-color:#600E19"/>
				<stop  offset="0.984" style="stop-color:#741B17"/>
			</linearGradient>
			<path style="fill:url(#SVGID_00000032648957459304987570000001248828273370474661_);" d="M277.54,182.16
				c2.39,1.52,4.39,3.34,6.33,5.23c1.12,1.01,2.07,2.39,2.31,4.02c0.11,0.81,0.04,1.71-0.34,2.47c-0.36,0.77-0.94,1.36-1.56,1.79
				l-0.03,0.03c-0.85,0.46-1.72,0.9-2.64,1.27c0.62-0.78,1.29-1.48,1.98-2.16l-0.03,0.03c0.8-0.98,1.09-2.02,0.8-3.08
				c-0.29-1.07-0.94-2.08-1.81-2.93C280.7,186.76,278.93,184.61,277.54,182.16z"/>
		</g>
		<g>
			<path class="st34" d="M290.49,207.22c-0.5-2.5-2.92-1.69-4.55-0.7c-0.14,0.08-0.29,0.1-0.43,0.07c-2.44-0.47-5.14,0.3-7.56,0.84
				c-3.49,0.65-6.96,0.93-10.52,0.84c0,0,0.29-0.84,0.29-0.84c2.09,0.99,4.27,1.81,6.38,2.64c2.97,1.16,6.32,1.94,9-0.25
				c1.3-0.9,3.3-0.6,4.22,0.58c0.42,0.47,0.78,0.89,0.93,0.91c1.56-0.18,2.23-1.99,2.32-3.48c0-0.06,0.05-0.11,0.11-0.1
				c0.68,1.64-0.38,4.54-2.47,4.79c-1.25,0.03-1.92-1.47-3.01-1.44c-1.05,0.04-1.51,0.92-2.55,1.44c-0.61,0.35-1.29,0.57-1.94,0.69
				c-4.99,0.73-9.46-2.49-13.45-5c-0.24-0.13-0.33-0.43-0.18-0.65c0.1-0.16,0.29-0.23,0.47-0.19c2.95,0.65,6.09,0.09,8.89-0.96
				c3.03-1.27,6.06-2.24,9.41-1.24c0,0-0.58,0.03-0.58,0.03c1.45-0.62,3.9-1.33,5.04,0.33c0.34,0.54,0.43,1.13,0.36,1.7
				c-0.01,0.06-0.06,0.09-0.11,0.09C290.53,207.3,290.49,207.26,290.49,207.22L290.49,207.22z"/>
		</g>
		<g>
			<path class="st35" d="M266.27,207.81c1.96-0.25,3.85-0.7,5.53-1.51c4.03-1.35,12.21-12.88,15.51-5.73c0,0-1.5-0.15-1.5-0.15
				c0.22-0.3,0.4-0.64,0.72-1.07c1.28-1.63,3.41-1.33,4.12,0.59c0.7,1.76,0.18,3.64-0.76,5.14c0.48-1.74,0.7-4.2-0.88-5.35
				c-0.43-0.23-1,0.14-1.2,0.52c-0.26,0.55-1,1.82-1.37,2.41c-0.49-0.89-1.09-3.03-2.48-2.46c-2.43,0.97-4.26,2.65-6.4,4.31
				C274.54,207.08,270.24,208.66,266.27,207.81L266.27,207.81z"/>
		</g>
		
			<linearGradient id="SVGID_00000016057969683711375100000010455506201460581010_" gradientUnits="userSpaceOnUse" x1="283.2879" y1="163.6809" x2="283.2879" y2="156.1071">
			<stop  offset="0" style="stop-color:#600E19"/>
			<stop  offset="0.984" style="stop-color:#741B17"/>
		</linearGradient>
		<path style="fill:url(#SVGID_00000016057969683711375100000010455506201460581010_);" d="M279.08,158.46c0,0-1.36,3.85,2.36,5.22
			c0,0,3.72-2.98,5.66-2.26c0,0,1.03-1.69,0.46-3.5c-0.57-1.81-1.73-1.81-1.73-1.81s-5.63,0.6-6.23,2.11c0,0-0.04,2.95,1.26,4.65
			C280.87,162.86,279.41,161.19,279.08,158.46z"/>
		<path class="st18" d="M244.95,260.46l3.31,19.27c0,0,19.68-15.75,35.6-9.79l-1.15-1.25l-26.69-14.03L244.95,260.46z"/>
		
			<linearGradient id="SVGID_00000112624067884342641580000004948968595439687870_" gradientUnits="userSpaceOnUse" x1="323.954" y1="420.6807" x2="239.8623" y2="217.6713">
			<stop  offset="0" style="stop-color:#39B54A"/>
			<stop  offset="1" style="stop-color:#009245"/>
		</linearGradient>
		<path style="fill:url(#SVGID_00000112624067884342641580000004948968595439687870_);" d="M243.47,231.83
			c0,0-8.18,13.04-13.04,21.81c0,0,3.54,17.9,17.83,26.08c0,0,6.11-22.4,7.98-23.47c1.87-1.07,11.56,5.25,18.67,8.71
			c7.11,3.47,12.58,7.35,12.58,7.35l-2.54-5.92c0,0-15.91-7.36-26.49-15C247.89,243.74,243.47,231.83,243.47,231.83z"/>
		<g>
			<path class="st18" d="M288.16,273.86c3.76,3.48,7.3,7.19,10.71,11.03c3.45,4.24,7.51,8.53,8.84,13.98
				c0.46,4.83,0.3,9.68,0.3,14.52c-0.39,25.59-1.62,51.16-3.68,76.68c0.11-23.61,1.17-53,1.79-76.71c0.1-4.75,0.3-9.52,0.02-14.25
				c-1.18-5.07-4.93-9.43-8.02-13.6C294.98,281.49,291.6,277.65,288.16,273.86L288.16,273.86z"/>
		</g>
		<g>
			<path class="st18" d="M217.52,264.03c7.29,2.79,13.52,7.83,18.49,13.79c4.93,6.05,7.41,14,7.42,21.75c0,0-0.1,0-0.1,0
				c-1.43-8.44-4-17.02-9.51-23.71c-1.84-2.24-4.25-3.9-6.65-5.49C224.11,268.16,220.47,266.18,217.52,264.03L217.52,264.03z"/>
		</g>
		<g>
			<path class="st18" d="M310.3,278.33c-0.49-4.75-0.49-9.65,0.85-14.26C311.19,268.8,311.18,273.68,310.3,278.33L310.3,278.33z"/>
		</g>
		<path class="st38" d="M300.76,657.51c0,0,16.57,9.71,20.95,18.62c0,0,1.84-3.68,9.82-0.99"/>
		<path class="st38" d="M252.58,652.89c0,0-2.44,1.17-2.53,4.06c0,0-6.99,6.79-8.19,19.18c0,0-4.35-2.22-9.41,1.66"/>
		<g>
			<path class="st18" d="M199.62,307.02c2.61-1.07,5.14,0.43,7.37,1.66c3.09,1.25,5.76,3.51,7.32,6.47c0.03,0.05-0.03,0.1-0.08,0.06
				c-0.61-0.44-1.15-0.91-1.69-1.39c-2.25-1.74-4.09-4.08-6.67-5.35c-2.05-0.63-4.07-1.06-6.23-1.36
				C199.59,307.12,199.57,307.04,199.62,307.02L199.62,307.02z"/>
		</g>
		<g>
			<path class="st18" d="M193.89,312.78c3.06,0,5.94,1.16,8.55,2.65c4.62,1.91,9.26,4.44,11.87,8.9c0.03,0.05-0.03,0.1-0.08,0.06
				c-2.29-1.96-4.49-3.8-6.89-5.56c-1.44-0.98-3.4-2.49-5.03-3.11C200.61,315.05,194.96,313.59,193.89,312.78L193.89,312.78z"/>
		</g>
		<g>
			<path class="st18" d="M230.39,331.3c-1.2-1.1-1.9-2.39-2.59-3.79c-1.67-1.96-3.86-3.38-5.08-5.75c-0.03-0.04,0.02-0.1,0.07-0.07
				c0.96,0.47,1.79,1.12,2.53,1.85c1.15,1.08,1.78,2.56,2.74,3.78c1.17,1.06,2.21,2.29,2.43,3.95
				C230.49,331.3,230.43,331.33,230.39,331.3L230.39,331.3z"/>
		</g>
	</g>
</g>
</svg>
