<?xml version="1.0" encoding="utf-8"?>
<!-- Generator: Adobe Illustrator 26.3.1, SVG Export Plug-In . SVG Version: 6.00 Build 0)  -->
<svg version="1.1" id="Capa_1" xmlns="http://www.w3.org/2000/svg" xmlns:xlink="http://www.w3.org/1999/xlink" x="0px" y="0px"
	 viewBox="0 0 527.7 754.7" style="enable-background:new 0 0 527.7 754.7;" xml:space="preserve">
<style type="text/css">
	.st0{fill:url(#SVGID_1_);}
	.st1{fill:#41455F;}
	.st2{fill:url(#SVGID_00000121972810671735924670000002306766179569177535_);}
	.st3{fill:url(#SVGID_00000034781751938869388300000010344112065922107525_);}
	.st4{fill:url(#SVGID_00000009571784699371373090000009741164994637261991_);}
	.st5{fill:url(#SVGID_00000152960553794645548960000002614925888126564252_);}
	.st6{fill:#575D6E;}
	.st7{fill:#FFFFF2;}
	.st8{fill:url(#SVGID_00000036253445253926995720000011056517119956438420_);}
	.st9{fill:url(#SVGID_00000134952433867143236020000001943169374569742760_);}
	.st10{fill:url(#SVGID_00000178191814485640873050000007216849336953387198_);}
	.st11{fill:#EA8BC2;}
	.st12{fill:url(#SVGID_00000098202745258575886980000000976496814680801975_);}
	.st13{fill:url(#SVGID_00000108302973388081255630000002623423772701275546_);}
	.st14{fill:#006837;}
	.st15{fill:url(#SVGID_00000152974994829262881260000005782443202872844434_);}
	.st16{fill:url(#SVGID_00000127756077877861780720000011374550960633358774_);}
	.st17{fill:url(#SVGID_00000155858057640360092990000018136627006146396073_);}
	.st18{opacity:0.8;fill:#C98BC2;enable-background:new    ;}
	.st19{opacity:0.5;fill:url(#SVGID_00000146486672975560364800000009038888979286881179_);enable-background:new    ;}
	.st20{opacity:0.5;fill:url(#SVGID_00000135655058079013415940000014921881453585696909_);enable-background:new    ;}
	.st21{fill:#1B1464;}
	.st22{fill:url(#SVGID_00000077317333110994568530000003255103136467733159_);}
	.st23{fill:url(#SVGID_00000129885197244923807450000004683640626356330148_);}
	.st24{fill:url(#SVGID_00000127011238466364558170000007693059546622848686_);}
	.st25{fill:url(#SVGID_00000021115433954348662220000015463457727987260846_);}
	.st26{fill:#C99DC2;}
	.st27{fill:#B25555;}
	.st28{fill:none;stroke:url(#SVGID_00000028291231721693507600000013963137804763510965_);stroke-miterlimit:10;}
	.st29{fill:url(#SVGID_00000015313563410079050610000011061302882646482325_);}
	.st30{fill:#840F20;}
	.st31{fill:#700A20;}
	.st32{fill:url(#SVGID_00000160159860580150542640000014657370611745040263_);}
	.st33{fill:url(#SVGID_00000007404594552842238220000016321576596350111151_);}
	.st34{fill:none;stroke:#1B1464;stroke-miterlimit:10;}
	.st35{fill:#C0D5E5;}
	.st36{fill:none;stroke:#6F95BC;stroke-miterlimit:10;}
	.st37{fill:#6F95BC;}
	.st38{opacity:0.6;fill:url(#SVGID_00000008119590156339521810000016079470726509211057_);enable-background:new    ;}
	.st39{fill:url(#SVGID_00000090986955995302030620000013977531189875234489_);}
	.st40{fill:url(#SVGID_00000000180555154706800790000018243282817984859567_);}
	.st41{fill:url(#SVGID_00000111900419689722602850000005131446940840840107_);}
	.st42{fill-rule:evenodd;clip-rule:evenodd;fill:url(#SVGID_00000071522461067486121390000010270305364927747514_);}
	.st43{fill-rule:evenodd;clip-rule:evenodd;fill:url(#SVGID_00000059290984764219005130000003200642607050476697_);}
	.st44{fill:url(#SVGID_00000008829807385419332650000006024177646676501673_);}
	.st45{fill:url(#SVGID_00000122719276925648550530000015150459381229529006_);}
	.st46{fill:url(#SVGID_00000070085259257053324230000016357260265824519581_);}
	.st47{fill:url(#SVGID_00000132069448413209193380000010744015634771440019_);}
	.st48{fill:url(#SVGID_00000131353199175222829270000004762099695521660589_);}
	.st49{fill:url(#SVGID_00000149354388211529993650000016984713467843293355_);}
	.st50{fill:url(#SVGID_00000053542537262107081570000017901165641237710257_);}
	.st51{fill:url(#SVGID_00000064315401995006752760000014522528099804452543_);}
	.st52{fill:url(#SVGID_00000118397637154992561880000018042952379947056780_);}
	.st53{fill:url(#SVGID_00000123411835188979847180000006503862965623862954_);}
	.st54{fill:url(#SVGID_00000037671138294766082660000007870751641601065659_);}
	.st55{fill:url(#SVGID_00000141440344249785267270000005795786167507189128_);}
	.st56{fill:url(#SVGID_00000016796337161302892690000011549938807531705478_);}
	.st57{fill:url(#SVGID_00000163075246209511517850000013718947426584020610_);}
	.st58{fill:url(#SVGID_00000030456232375954519350000014751845058192134557_);}
	.st59{fill:url(#SVGID_00000064353826554704466870000002143809735990065059_);}
	.st60{opacity:0.5;fill:url(#SVGID_00000073711073912843718240000004376476904863607711_);enable-background:new    ;}
	.st61{fill:url(#SVGID_00000037688571915246000690000001687373293148970882_);}
	.st62{fill:url(#SVGID_00000152942714074522988620000004255162064794471348_);}
	.st63{fill:url(#SVGID_00000064334961200125536870000012442599353322633602_);}
	.st64{fill:url(#SVGID_00000018951400687123439530000006646294001956132280_);}
	.st65{fill:url(#SVGID_00000032619754802643257880000009149083600933085373_);}
	.st66{fill:none;stroke:url(#SVGID_00000007396498157450155470000014168089379293981096_);stroke-miterlimit:10;}
	.st67{fill:url(#SVGID_00000166643753284726042200000012702827451687669181_);}
	.st68{fill:url(#SVGID_00000021081689472020596280000001461735885617453442_);}
	.st69{fill:url(#SVGID_00000178172121943770017810000003523633198669762220_);}
	.st70{fill:url(#SVGID_00000008859376390968617820000008711492002017937557_);}
</style>
<path d="M-1538,920.2c0-34.4,27.9-62.3,62.3-62.3s54.6,20,54.6,54.5s-22.6,68.6-56.7,63.5C-1516.2,970-1538,954.7-1538,920.2z"/>
<radialGradient id="SVGID_1_" cx="6844.1538" cy="-2770.783" r="11.2155" gradientTransform="matrix(-1 0 0 -1 5429.064 -1409.4817)" gradientUnits="userSpaceOnUse">
	<stop  offset="0" style="stop-color:#9C493C"/>
	<stop  offset="0.9823" style="stop-color:#CC6633"/>
</radialGradient>
<path class="st0" d="M-1407.2,1347.6h-15.4c0.5,8-0.5,21.1-0.5,21.1s3.6,5.9,5.1,6.4c1.5,0.4,10.7-6.4,10.7-6.4
	C-1408,1363-1407.7,1355.1-1407.2,1347.6z"/>
<path class="st1" d="M-1381.8,1206.8c-0.9-32.9-4.9-70.2-4.9-70.2l-21.9-10.1l-18.5,12.5l-5.6,3.8c0,0,1.8,21.3,0.2,33.2
	c-1.2,8.7,4.3,45.8,7.2,67.2l0,0c1.1,8,1.7,13.8,1.6,15.1c-0.6,5-7.8,19.7-8.6,31.9s5.7,36.3,5.7,36.3l0,0c0.8,3,3.1,12.4,4,18.5
	c0.1,0.8,0.3,6.1,0.4,7l14.9,0.1c0.9-11.5,2.8-26.5,2.8-26.5l0,0l0,0c0,0,3.4-32.6,7.2-41.6c3.8-9,8-14.8,9.9-19.7
	c0.2-0.4,0.3-0.9,0.5-1.6c0.1-0.2,0.2-0.5,0.2-0.7c0.2-0.8,0.5-1.7,0.7-2.7c0-0.1,0-0.2,0.1-0.2l0,0
	C-1383.8,1250.3-1381.1,1232.6-1381.8,1206.8z"/>
<g>
	
		<radialGradient id="SVGID_00000088815601167371749890000006726228003679079562_" cx="-1456.92" cy="-413.5387" r="6.9707" gradientTransform="matrix(1 0 0 -1 0 947.0226)" gradientUnits="userSpaceOnUse">
		<stop  offset="0" style="stop-color:#9C493C"/>
		<stop  offset="0.9823" style="stop-color:#CC6633"/>
	</radialGradient>
	<path style="fill:url(#SVGID_00000088815601167371749890000006726228003679079562_);" d="M-1448.6,1365.9l-13.9-3
		c0,0-0.7,2.9-2.7-7.7h16.4C-1448.9,1362.1-1449,1359.1-1448.6,1365.9z"/>
	
		<radialGradient id="SVGID_00000126325741079991935130000018403490403846147459_" cx="-1470.3356" cy="-376.0887" r="3.732491e-02" gradientTransform="matrix(1 0 0 -1 0 947.0226)" gradientUnits="userSpaceOnUse">
		<stop  offset="0" style="stop-color:#9C493C"/>
		<stop  offset="0.9823" style="stop-color:#CC6633"/>
	</radialGradient>
	<path style="fill:url(#SVGID_00000126325741079991935130000018403490403846147459_);" d="M-1470.3,1323.1
		C-1470.4,1323.1-1470.4,1323.1-1470.3,1323.1C-1470.4,1323.1-1470.4,1323.1-1470.3,1323.1L-1470.3,1323.1z"/>
	
		<radialGradient id="SVGID_00000141450008819339285480000002586391267473441209_" cx="-1470.0867" cy="-377.2887" r="0.9015" gradientTransform="matrix(1 0 0 -1 0 947.0226)" gradientUnits="userSpaceOnUse">
		<stop  offset="0" style="stop-color:#9C493C"/>
		<stop  offset="0.9823" style="stop-color:#CC6633"/>
	</radialGradient>
	<path style="fill:url(#SVGID_00000141450008819339285480000002586391267473441209_);" d="M-1469.7,1325.5c-0.2-0.8-0.4-1.6-0.7-2.5
		l0,0l0,0L-1469.7,1325.5z"/>
</g>
<path class="st1" d="M-1441.4,1262.9c-7.9,8.8-15.2,5.1-18.2-1c-2.8-5.8-6.8-25.7-7.2-27.5c1.5,11.3,2.5,20.1,2.2,23.5
	c-1.3,11.7-9.4,22.9-11.5,35.4s5.6,29.7,5.6,29.7l0,0l0,0l0.7,2.4c1.8,6.7,3.4,23.9,4.5,29.7c0,0,7.5,1.1,11.6,0.7s4.8-0.7,4.8-0.7
	c0.1-10.5,0.2-29.7,0.2-29.7s7.3-47.4,10.5-56.3s10-17.4,12.7-26C-1425.9,1243.9-1433.7,1254.4-1441.4,1262.9z M-1470.4,1323.1
	L-1470.4,1323.1C-1470.3,1323.1-1470.3,1323.1-1470.4,1323.1L-1470.4,1323.1z"/>
<g>
	
		<linearGradient id="SVGID_00000093177779992769088370000008936463555567118505_" gradientUnits="userSpaceOnUse" x1="5393.9834" y1="-3089.6692" x2="5402.5205" y2="-3007.1418" gradientTransform="matrix(-7.440000e-02 -0.9972 0.9972 -7.440000e-02 2102.9373 6314.7632)">
		<stop  offset="5.586590e-03" style="stop-color:#9C0A00"/>
		<stop  offset="1" style="stop-color:#D10F20"/>
	</linearGradient>
	<polygon style="fill:url(#SVGID_00000093177779992769088370000008936463555567118505_);" points="-1364.4,1186.2 -1301.6,1179 
		-1300.8,1176.1 -1314.6,1126.9 -1376.7,1144.4 -1377.3,1146.5 	"/>
	<polygon class="st6" points="-1314.5,1126.9 -1315.5,1129.8 -1301.6,1179 -1300.8,1176.1 	"/>
	<polygon class="st7" points="-1302.3,1177.2 -1301.8,1174.8 -1314.3,1126.9 -1300.4,1175.3 -1301.6,1179 -1361.1,1186 	"/>
</g>
<radialGradient id="SVGID_00000044164838999449584150000001721320142949300121_" cx="-1443.2513" cy="-76.2855" r="60.3418" gradientTransform="matrix(1 0 0 -1 0 947.0226)" gradientUnits="userSpaceOnUse">
	<stop  offset="0" style="stop-color:#9C493C"/>
	<stop  offset="0.9823" style="stop-color:#CC6633"/>
</radialGradient>
<path style="fill:url(#SVGID_00000044164838999449584150000001721320142949300121_);" d="M-1467.9,966.3c0,0,4.1,14.2,5.2,21.3
	c0,0,6,10.8,11.5,16c5.6,5.2,26.5,15.8,26.5,15.8s-1.7-16.3-6.6-22.4c0,0-3.8-2-8.6-6.1c-4.8-4.2-6.4-19.1-6.4-19.1
	S-1465.2,967.3-1467.9,966.3z"/>
<radialGradient id="SVGID_00000156553198419519896760000009078976454116609974_" cx="-1350.7744" cy="-196.5054" r="60.3933" gradientTransform="matrix(1 0 0 -1 0 947.0226)" gradientUnits="userSpaceOnUse">
	<stop  offset="0" style="stop-color:#9C493C"/>
	<stop  offset="0.9823" style="stop-color:#CC6633"/>
</radialGradient>
<path style="fill:url(#SVGID_00000156553198419519896760000009078976454116609974_);" d="M-1408.7,1084.1c0,0,0.8,4.2,7.2,13.5
	c6.4,9.3,27.5,25.3,29.2,30.4s-1.6,16.1-1.1,17.6c0.6,1.5,5.1,2.4,7.6,6.5s2.4,12.7,3.7,12.4c1.3-0.3,3.4-5.2,2.8-9
	c-0.5-3.5-2-3.8-2.6-5.8l0,0c-0.1-0.2-0.1-0.4-0.1-0.5c-0.6-2.7,0.5-8.6,0.9-9s1.9,0,1.9,0l18.8-5.8c0,0-13.9-7.8-20.2-13.9
	c-6.2-6.1-24.2-47.9-24.2-47.9C-1391.7,1073.4-1408.7,1084.1-1408.7,1084.1z"/>
<radialGradient id="SVGID_00000098214912528553289650000002594360796169853085_" cx="-1524.1686" cy="-220.2852" r="90.0075" gradientTransform="matrix(1 0 0 -1 0 947.0226)" gradientUnits="userSpaceOnUse">
	<stop  offset="0" style="stop-color:#9C493C"/>
	<stop  offset="0.9823" style="stop-color:#CC6633"/>
</radialGradient>
<path style="fill:url(#SVGID_00000098214912528553289650000002594360796169853085_);" d="M-1547.3,1142.2L-1547.3,1142.2
	c0.1,4.2,2.5,12.5,4.4,12.9c2,0.5,3.7,2.3,4.4,2.7s2,1,3.3,2s3.3,1.1,4.6,1.3c1.4,0.2,3.9,2.1,3.9,2.1c2.6,0.1,5.8-2.1,7.2-3.2
	c0.5-0.4,4.9-6,1.6-7.8c4.6,1.1,4.8-4.4,4.8-4.4s0.3-0.7,0.6-1.8c0.9-2.6,2.3-7.1,2.2-8.7c-0.2-2.4-4.7-12.3-4.7-12.3
	s3.7-12.8,11.2-22.4s13.3-17.3,13.3-17.3c-11.4-17.9-23.2-19.2-23.2-19.2s-3.2,7-4.5,15.2c-1.3,8.2-4.5,30.4-8.5,38
	c-4.1,7.6-20.4,18.4-20.7,22.1C-1547.3,1141.7-1547.4,1141.9-1547.3,1142.2z"/>
<path class="st11" d="M-1383.2,1076.7c0,0-10,16.1-12.6,27.5l-7-8.2l-1.1-17.2l19-6.2L-1383.2,1076.7z"/>
<linearGradient id="SVGID_00000168816287031041030170000015805582149189352104_" gradientUnits="userSpaceOnUse" x1="-1368.2753" y1="-197.0604" x2="-1444.0432" y2="-14.1456" gradientTransform="matrix(1 0 0 -1 0 947.0226)">
	<stop  offset="0" style="stop-color:#39B54A"/>
	<stop  offset="1" style="stop-color:#009245"/>
</linearGradient>
<path style="fill:url(#SVGID_00000168816287031041030170000015805582149189352104_);" d="M-1402.5,1012.4c3.5,1.9,12,38.9,13.4,41
	s3.2,4.8,3.7,6c0.5,1.1,1.3,5.7,1.3,7.8s2.2,3.5,2.4,4.3c0.2,0.8-1.9,4.1-1.9,4.1l-1.3-3c0,0-15.8,6.6-20.8,11.9
	c-5,5.3-13.8-13.5-13.8-13.5L-1402.5,1012.4z"/>
<path class="st1" d="M-1380.7,1132c0,0-12.4,19.4-19.9,24.6c-7.5,5.1-72.5-35.9-72.5-35.9l41.8-2.1l22.6-2.6L-1380.7,1132z"/>
<path class="st1" d="M-1470.3,1323.1L-1470.3,1323.1C-1470.3,1323.1-1470.4,1323.1-1470.3,1323.1
	C-1470.4,1323.1-1470.4,1323.1-1470.3,1323.1z"/>
<path class="st1" d="M-1416.7,1209.3c0,0,0,0.2-0.1,0.5c-3.2,15.8-7.2,28.6-8.6,33.3l0,0l0,0c-0.5,0.7-8.3,11.2-15.9,19.7
	c-7.9,8.8-15.2,5.1-18.2-1c-2.8-5.8-6.8-25.7-7.2-27.5v-0.1c0,0,0,0,0-0.1l0,0c-3.8-27.5-10.8-69.1-9-80c2.6-15.4,9-34.8,9-34.8
	s26.7,7.3,39.6,19.4c7.8,7.3,14.1,16.9,14.5,28.8C-1412.2,1181.8-1414.2,1196.5-1416.7,1209.3z"/>
<linearGradient id="SVGID_00000034774643631739196730000014683377809842216579_" gradientUnits="userSpaceOnUse" x1="-1520.55" y1="-328.2609" x2="-1419.6121" y2="-101.1507" gradientTransform="matrix(1 0 0 -1 0 947.0226)">
	<stop  offset="0" style="stop-color:#39B54A"/>
	<stop  offset="1" style="stop-color:#009245"/>
</linearGradient>
<path style="fill:url(#SVGID_00000034774643631739196730000014683377809842216579_);" d="M-1431.2,997c0,0,13.1,8.4,18.1,10.5
	c4.9,2,10.7,4.9,10.7,4.9s-1.2,10.9-0.7,13.5s10.5,10.2,12.9,13.9c2.4,3.7-1.3,38.3,6,59.8c0,0,6.4,32,10.9,45.5
	c0,0-8.3,11.4-26.6,6.7l-8.7-25.2c0,0,0.1,22.4-2.9,30.1c0,0-26.4,1.5-40-4.9c-13.7-6.4-28.9-3.2-28.9-3.2s3.1-38.2,8-49.1l0.3-4.8
	l1.3-4.1c0,0,2.1-5.7,1.7-24.1c0,0-1.1,4.8-5.4,4.5c0,0-0.1,1.4-0.2,2.5s-3.9,3.4-4,4.2c-0.1,0.8-1.2,2.1-1.7,3.2
	c-0.5,1.1-6.7,7.9-7.4,8s-4.3-0.9-4.3-0.9l1.9-2.5c0,0-8.5-14.6-23.2-19.2l-1,2.5c0,0-0.9-4.4-1.2-5.5s3.6-3.4,4.2-3.8
	c0.6-0.4,1.8-3.5,2.7-3.5s3.8-0.8,3.8-1.5c0-0.7,0.7-3.2,1.7-3.7s2.5-2.1,3.9-6.2c1.4-4.1,6.4-18.4,10.2-27.5
	c3.8-9.1,14-15.4,16.3-17.6s9.7-15.5,9.7-15.5l0.8,3.8c0,0,9.9,14.2,20.8,20s15.7,6.9,15.7,6.9S-1426.3,1005-1431.2,997z"/>
<polygon class="st14" points="-1410.7,1018.3 -1421.9,1014.5 -1418.3,1000.9 -1414.9,1001.5 "/>
<path class="st14" d="M-1441.3,989.2c0,0,6.2,2.9,7.4,3.6c1.2,0.7,4.7,11.7,4.7,11.7s-1.2-4.3-5.3-6.7
	C-1438.3,995.7-1439.6,991.8-1441.3,989.2z"/>
<linearGradient id="SVGID_00000157271176043888511250000005563428695767974797_" gradientUnits="userSpaceOnUse" x1="-1366.4641" y1="-196.3103" x2="-1442.2322" y2="-13.3956" gradientTransform="matrix(1 0 0 -1 0 947.0226)">
	<stop  offset="0" style="stop-color:#39B54A"/>
	<stop  offset="1" style="stop-color:#009245"/>
</linearGradient>
<path style="fill:url(#SVGID_00000157271176043888511250000005563428695767974797_);" d="M-1423.2,1021.2c0,0,2.6-13.5,8.5-18.9
	l4,16.1l-3.2-17.4c0,0-15.5-9.4-18.4-10.2s-10.6-4.2-10.6-4.2s1.1,2.1,1.8,2.8s4.2,1.9,6.8,3.8s6.5,13.9,8.2,21.2L-1423.2,1021.2z"
	/>
<path class="st1" d="M-1403,1365.9c0,0,2.6-7.4-0.2-11.3c-3-4.2-8.5-2.8-10.6,0c-1.7,2.2,1.2,11.3,1.2,11.3l-5.8-3.3
	c-3.5,0.1-6.3,2.9-6.5,6.3c-0.2,2.3-0.3,4.7-0.5,5.8c-0.4,2.6-3.8,17.9-3.8,19.2c0,0,41.7,3.3,72.4,3.3c0,0-4.9-12.5-27.4-14.6
	C-1386.6,1377.5-1399.4,1366.7-1403,1365.9z"/>
<path class="st1" d="M-1448.8,1361.8l0.4,0.8c0.9,1.8,1.3,3.8,1.3,5.8c-0.1,2.4-0.1,6.2,0.3,10.7c0.6,7.8,0.8,15.6,0.8,15.6
	s-6.1,5.2-8.7,4.7s-20.3-14.3-29.3-2.8c0,0,0.9-10.1,10.5-11.4c-0.7-5,6.1-18,8.5-19.2c0-3,0.2-9.4,5-9.9c3.3-0.4,6.4,2,5.6,5.4
	c2.4-2,4,1.2,4.5,1.9C-1448.3,1365.2-1448.8,1361.8-1448.8,1361.8z"/>
<linearGradient id="SVGID_00000101805864983606611640000005444030189056678797_" gradientUnits="userSpaceOnUse" x1="6785.3643" y1="-2807.043" x2="6859.4443" y2="-2807.043" gradientTransform="matrix(-1 0 0 -1 5429.064 -1409.4817)">
	<stop  offset="0" style="stop-color:#FFC4BA"/>
	<stop  offset="1" style="stop-color:#FFE7E5"/>
</linearGradient>
<path style="fill:url(#SVGID_00000101805864983606611640000005444030189056678797_);" d="M-1359.5,1393c0,0,3.2,3.1,3.2,5.7
	c0,1.1-0.1,2.4-0.2,3.4c-0.2,1.3-1.1,3.6-2.4,3.6h-68.8c-1.5,0-2.6-1.2-2.6-2.7c0.1-4,0.4-11.2,1.6-13.6c0,0,1.9,2.6,4.3,3.2
	c1.9,0.4,12.7,0.5,17.3,0.6c1.3,0,2.6,0.6,3.3,1.7l0.3,0.5c0,0,9.6,0.9,26.4,1.1S-1359.5,1393-1359.5,1393z"/>
<linearGradient id="SVGID_00000123416349117863126320000015760279934301980601_" gradientUnits="userSpaceOnUse" x1="6873.564" y1="-2807.229" x2="6915.1138" y2="-2807.229" gradientTransform="matrix(-1 0 0 -1 5429.064 -1409.4817)">
	<stop  offset="0" style="stop-color:#FFC4BA"/>
	<stop  offset="1" style="stop-color:#FFE7E5"/>
</linearGradient>
<path style="fill:url(#SVGID_00000123416349117863126320000015760279934301980601_);" d="M-1446,1394.7l1.5,10h-41.6
	c0,0,1-7.7,2.1-9s7.3-5.3,13.5-4.9c6.2,0.5,12.8,5.3,17.1,5.8C-1449,1397.2-1446,1394.7-1446,1394.7z"/>
<path class="st18" d="M-1445,979.2c0,0-10.3,9.2-19.7-0.8l-2.8-10.7c0,0,10.3,4.1,21.3,4.7L-1445,979.2z"/>
<linearGradient id="SVGID_00000029755471820475639400000010532415178740285350_" gradientUnits="userSpaceOnUse" x1="6930.6641" y1="-2498.2332" x2="6930.6641" y2="-2475.8547" gradientTransform="matrix(-1 0 0 -1 5429.064 -1409.4817)">
	<stop  offset="0" style="stop-color:#FFFFFF"/>
	<stop  offset="1" style="stop-color:#885286"/>
</linearGradient>
<path style="opacity:0.5;fill:url(#SVGID_00000029755471820475639400000010532415178740285350_);enable-background:new    ;" d="
	M-1504.4,1070.6c11.2,7.8,16.4,18.2,16.4,18.2l-4.3-0.9c0,0-2.7-5.2-7-9.7s-15.9-7.9-15.9-7.9l0.4-2
	C-1514.8,1068.2-1515.6,1062.8-1504.4,1070.6z"/>
<linearGradient id="SVGID_00000089549109270410202700000001086600138012440209_" gradientUnits="userSpaceOnUse" x1="-1470.3375" y1="-376.0887" x2="-1470.3374" y2="-376.0887" gradientTransform="matrix(1 0 0 -1 0 947.0226)">
	<stop  offset="0" style="stop-color:#9F3D59"/>
	<stop  offset="1" style="stop-color:#FFFFFF"/>
</linearGradient>
<path style="opacity:0.5;fill:url(#SVGID_00000089549109270410202700000001086600138012440209_);enable-background:new    ;" d="
	M-1470.3,1323.1L-1470.3,1323.1C-1470.3,1323.1-1470.4,1323.1-1470.3,1323.1C-1470.4,1323.1-1470.4,1323.1-1470.3,1323.1z"/>
<path class="st11" d="M-1470.4,1323.1L-1470.4,1323.1L-1470.4,1323.1L-1470.4,1323.1z"/>
<path class="st11" d="M-1470.3,1323.1L-1470.3,1323.1C-1470.3,1323.1-1470.4,1323.1-1470.3,1323.1
	C-1470.4,1323.1-1470.4,1323.1-1470.3,1323.1z"/>
<path class="st21" d="M-1356.3,1399.1c0,0-5.9,0.9-15,1.3s-58.7-2.6-58.7-2.6l-0.3,2.3c0,0,50.5,3.4,59.1,2.7c8.6-0.7,15-1.2,15-1.2
	L-1356.3,1399.1z"/>
<path class="st21" d="M-1445,1401.5c0,0-14.8-0.7-23.5-1.1c-8.8-0.3-16.9,0.5-16.9,0.5l-0.3,2.1c0,0,31-0.8,34.1-0.6
	c3.1,0.2,6.7-0.2,6.7-0.2L-1445,1401.5L-1445,1401.5z"/>
<path class="st11" d="M-1373.3,1145.7c0.6,1.5,5.1,2.4,7.6,6.5s2.4,12.7,3.7,12.4c1.3-0.3,3.4-5.2,2.8-9c-0.5-3.5-2-3.8-2.6-5.8l0,0
	c-0.2-0.3-1.9-2.7-4.1-4.1C-1368.4,1144.2-1373.3,1145.7-1373.3,1145.7z"/>
<radialGradient id="SVGID_00000019675562909248114850000017628286218711012006_" cx="-1466.0734" cy="-35.0817" r="73.9107" gradientTransform="matrix(1 0 0 -1 0 947.0226)" gradientUnits="userSpaceOnUse">
	<stop  offset="0" style="stop-color:#9C493C"/>
	<stop  offset="0.9823" style="stop-color:#CC6633"/>
</radialGradient>
<path style="fill:url(#SVGID_00000019675562909248114850000017628286218711012006_);" d="M-1447.9,897.8c0,0,14.9,1.3,19.9,10
	c4.9,8.8,5.8,28,7.7,31c1.9,3,5.7,2.5,5.6,11.9s-7.2,16.8-9.3,20.6c-2.1,3.8-3.6,6.2-9.2,6.8s-23.6-1.1-34.3-8
	c-10.7-6.9-15.4-24-21.9-34.8C-1496.1,924.7-1480.2,897.7-1447.9,897.8z"/>
<radialGradient id="SVGID_00000007414271296610349570000011566619616507932571_" cx="-1461.7169" cy="-18.5907" r="78.6301" gradientTransform="matrix(1 0 0 -1 0 947.0226)" gradientUnits="userSpaceOnUse">
	<stop  offset="0" style="stop-color:#9C493C"/>
	<stop  offset="0.9823" style="stop-color:#CC6633"/>
</radialGradient>
<path style="fill:url(#SVGID_00000007414271296610349570000011566619616507932571_);" d="M-1473.7,954c0,0-9.3-6.9-17.3-3.6
	c0,0-2,5.5-1.6,8.8c0.4,3.2,6.8,10.6,11.4,11.8s9.9-1.7,10.4-4.1C-1470.4,964.5-1473.7,954-1473.7,954z"/>
<linearGradient id="SVGID_00000005962149400113182990000007333546877369443206_" gradientUnits="userSpaceOnUse" x1="6855.1641" y1="-2329.2593" x2="6923.064" y2="-2329.2593" gradientTransform="matrix(-1 0 0 -1 5429.064 -1409.4817)">
	<stop  offset="0" style="stop-color:#FFB159"/>
	<stop  offset="1" style="stop-color:#FFA73B"/>
</linearGradient>
<path style="fill:url(#SVGID_00000005962149400113182990000007333546877369443206_);" d="M-1426.1,912.5c0,0-0.1-2.3-0.5-4.4
	c-6.8-6.9-14-10.8-14-10.8s-2.8-2.4-4.2-2.3c-1.4,0.1-4.5,2.7-4.5,2.7s-22.2-0.1-32.6,11.5c-10.4,11.5-12.1,23.7-12.1,23.7l0.4,1.8
	c0,0,3.9,4,3.9,7.9s4,0.7,4,0.7l-0.3-1.8c0,0,2.9-9.8,12.3-23.7s25.6-17.7,28.5-18.5C-1438.1,897.3-1426.1,912.5-1426.1,912.5z"/>
<linearGradient id="SVGID_00000059288675357338620650000008899591221366107785_" gradientUnits="userSpaceOnUse" x1="-1455.2136" y1="16.6313" x2="-1455.2136" y2="28.1313" gradientTransform="matrix(1 0 0 -1 0 947.0226)">
	<stop  offset="0" style="stop-color:#600E19"/>
	<stop  offset="0.984" style="stop-color:#741B17"/>
</linearGradient>
<path style="fill:url(#SVGID_00000059288675357338620650000008899591221366107785_);" d="M-1444.9,919c0,0-0.6,2.2-1.9,4.1
	c0.8-2,1.2-4.3,1.2-4.3c-5.2,2.8-14.5,1.4-16.2,3c-2.3,2.2-3.8,8.5-3.8,8.5s2.6-2.3,5.3-3.4c2.8-1.1,12.7-2.2,12.7-2.2
	C-1447.6,924.6-1444.3,922.8-1444.9,919z"/>
<path class="st26" d="M-1445.8,932.7c0.1,0.1,0.1,0.1,0.1,0.2C-1445.7,932.8-1445.7,932.7-1445.8,932.7L-1445.8,932.7z"/>
<path d="M-1446.3,936.5c1.5,2.8-1.5,5.6-4.2,3.7c-0.2-0.1-0.3-0.3-0.4-0.5c-1.7-2.8,1.3-5.7,4-4
	C-1446.8,935.9-1446.5,936.2-1446.3,936.5z"/>
<path d="M-1422.8,933.3c0,1.3-1.1,2.3-2.4,2.2c-1.3,0-2.3-1.1-2.2-2.4s1.1-2.3,2.4-2.2C-1423.8,931-1422.8,932.1-1422.8,933.3z"/>
<path class="st27" d="M-1446.9,951.6c-0.2,3.3-3.2,5.9-6.5,5.6s-5.9-3.2-5.6-6.5c0.2-3.3,3.2-5.9,6.5-5.6
	C-1449.1,945.4-1446.6,948.3-1446.9,951.6z"/>
<linearGradient id="SVGID_00000088817390913715863140000006345485140923146380_" gradientUnits="userSpaceOnUse" x1="-1488.4113" y1="-9.9005" x2="-1476.5107" y2="-9.9005" gradientTransform="matrix(1 0 0 -1 0 947.0226)">
	<stop  offset="0" style="stop-color:#600E19"/>
	<stop  offset="0.984" style="stop-color:#741B17"/>
</linearGradient>
<path style="fill:none;stroke:url(#SVGID_00000088817390913715863140000006345485140923146380_);stroke-miterlimit:10;" d="
	M-1487.8,959.5c0,0-1.9-9,11.1-2.3"/>
<g>
	
		<linearGradient id="SVGID_00000091720440155224580070000014763641314458815161_" gradientUnits="userSpaceOnUse" x1="-1432.1061" y1="1.4654" x2="-1425.55" y2="3.0746" gradientTransform="matrix(1 0 0 -1 0 947.0226)">
		<stop  offset="0" style="stop-color:#600E19"/>
		<stop  offset="0.984" style="stop-color:#741B17"/>
	</linearGradient>
	<path style="fill:url(#SVGID_00000091720440155224580070000014763641314458815161_);" d="M-1432.8,938.6c2.2,1.3,4,2.9,5.8,4.6
		c1,0.9,1.9,2.2,2.1,3.7c0.1,0.8,0,1.6-0.3,2.3s-0.9,1.2-1.4,1.6l0,0c-0.8,0.4-1.6,0.8-2.4,1.1c0.5-0.7,1.1-1.4,1.8-2l0,0
		c0.7-0.9,0.9-1.8,0.7-2.7c-0.3-0.9-0.8-1.8-1.6-2.6C-1430,942.8-1431.6,940.8-1432.8,938.6z"/>
</g>
<g>
	<path class="st30" d="M-1421.1,961.1c-0.5-2.2-2.6-1.5-4.1-0.6c-0.1,0.1-0.3,0.1-0.4,0.1c-2.2-0.4-4.6,0.3-6.8,0.8
		c-3.2,0.5-6.3,0.8-9.5,0.7l0.3-0.8c1.9,0.9,3.9,1.6,5.8,2.3c1.8,0.7,3.7,1.3,5.6,0.9c1.3-0.1,2.1-1.2,3.4-1.5c1-0.3,2.4,0.2,2.9,1
		c0.4,0.4,0.7,0.8,0.8,0.8c0.3,0,0.7-0.2,1-0.5c0.7-0.6,1-1.6,1.1-2.6c0-0.1,0.2-0.1,0.2,0c0.4,1.6-0.4,4-2.3,4.3
		c-1.1,0-1.8-1.3-2.7-1.3c-0.9,0-1.3,0.8-2.2,1.3c-0.6,0.3-1.2,0.5-1.8,0.6c-4.6,0.7-8.6-2.3-12.2-4.6c-0.4-0.3-0.1-0.9,0.3-0.8
		c1.3,0.3,2.7,0.3,4,0.2c1.7-0.2,3.3-0.8,4.9-1.4c2.4-1,4.9-1.5,7.6-0.8h-0.6c1.3-0.6,3.6-1.2,4.6,0.3c0.3,0.5,0.4,1,0.3,1.5
		c0,0.1-0.1,0.1-0.1,0.1C-1421.1,961.2-1421.1,961.2-1421.1,961.1L-1421.1,961.1z"/>
</g>
<g>
	<path class="st31" d="M-1442.9,961.7c3.6-0.4,6.5-1.9,9.1-4.3c2.4-2.1,7.8-7.3,10-2.2l-1.5-0.2c0.2-0.3,0.4-0.6,0.7-1
		c1.2-1.5,3.2-1.2,3.8,0.6c0.6,1.6,0.1,3.3-0.7,4.7c0.4-1.5,0.6-4.3-1.1-4.8c-0.8,0.2-0.8,0.8-1.2,1.5l-0.8,1.3
		c-0.4-0.7-0.9-2.4-1.9-2.4c-2.3,0.7-4,2.4-6.1,4C-1435.4,961.1-1439.4,962.5-1442.9,961.7L-1442.9,961.7z"/>
</g>
<linearGradient id="SVGID_00000124122124829447546360000000343776558168677286_" gradientUnits="userSpaceOnUse" x1="-1427.6307" y1="25.1013" x2="-1427.6307" y2="31.9213" gradientTransform="matrix(1 0 0 -1 0 947.0226)">
	<stop  offset="0" style="stop-color:#600E19"/>
	<stop  offset="0.984" style="stop-color:#741B17"/>
</linearGradient>
<path style="fill:url(#SVGID_00000124122124829447546360000000343776558168677286_);" d="M-1431.4,917.2c0,0-1.2,3.5,2.1,4.7
	c0,0,3.3-2.7,5.1-2c0,0,0.9-1.5,0.4-3.2s-1.6-1.6-1.6-1.6s-5.1,0.5-5.6,1.9c0,0,0,2.7,1.1,4.2
	C-1429.8,921.2-1431.1,919.7-1431.4,917.2z"/>
<path class="st14" d="M-1462.2,1009.1l3,17.4c0,0,17.7-14.2,32.1-8.8l-1-1.1l-24.1-12.6L-1462.2,1009.1z"/>
<linearGradient id="SVGID_00000086692950524254315120000003344457424101976711_" gradientUnits="userSpaceOnUse" x1="-1391.0177" y1="-206.4809" x2="-1466.7858" y2="-23.5664" gradientTransform="matrix(1 0 0 -1 0 947.0226)">
	<stop  offset="0" style="stop-color:#39B54A"/>
	<stop  offset="1" style="stop-color:#009245"/>
</linearGradient>
<path style="fill:url(#SVGID_00000086692950524254315120000003344457424101976711_);" d="M-1463.5,983.3c0,0-7.4,11.8-11.8,19.7
	c0,0,3.2,16.1,16.1,23.5c0,0,5.5-20.2,7.2-21.2s10.4,4.7,16.8,7.8s11.3,6.6,11.3,6.6l-2.3-5.3c0,0-14.3-6.6-23.9-13.5
	C-1459.5,994-1463.5,983.3-1463.5,983.3z"/>
<g>
	<path class="st14" d="M-1423.2,1021.2c3.4,3.1,6.6,6.5,9.7,9.9c3.1,3.8,6.8,7.7,8,12.6c0.4,4.4,0.3,8.7,0.3,13.1
		c-0.3,23.1-1.4,46.1-3.4,69.1c0-21.3,0.9-47.8,1.5-69.1c0.1-4.3,0.3-8.6,0-12.8c-1.1-4.5-4.4-8.5-7.2-12.2
		C-1417.1,1028.1-1420.1,1024.6-1423.2,1021.2L-1423.2,1021.2z"/>
</g>
<g>
	<path class="st14" d="M-1486.9,1012.3c6.6,2.5,12.2,7.1,16.7,12.4c4.5,5.4,6.7,12.6,6.7,19.6h-0.1c-1.4-8-3.9-16.2-9.4-22.3
		C-1477.1,1018.2-1482.5,1015.6-1486.9,1012.3L-1486.9,1012.3z"/>
</g>
<g>
	<path class="st14" d="M-1403.3,1025.2c-0.5-4.3-0.5-8.7,0.8-12.8C-1402.4,1016.7-1402.4,1021-1403.3,1025.2L-1403.3,1025.2z"/>
</g>
<path class="st34" d="M-1411.9,1366.9c0,0,14.9,8.8,18.9,16.8c0,0,1.7-3.3,8.8-0.9"/>
<path class="st34" d="M-1455.3,1362.7c0,0-2.2,1.1-2.3,3.7c0,0-6.3,6.1-7.4,17.3c0,0-3.9-2-8.5,1.5"/>
<g>
	<path class="st14" d="M-1503,1051.1c2.4-1,4.6,0.4,6.7,1.5c2.8,1.1,5.2,3.1,6.6,5.8c0,0,0,0.1-0.1,0.1c-0.6-0.4-1.1-0.8-1.6-1.2
		c-2.1-1.5-3.7-3.7-6-4.8c-1.9-0.5-3.7-0.9-5.6-1.2C-1503,1051.2-1503,1051.1-1503,1051.1L-1503,1051.1z"/>
</g>
<g>
	<path class="st14" d="M-1508.2,1056.3c2.8,0,5.4,1,7.7,2.4c4.2,1.7,8.4,4,10.7,8c0,0,0,0.1-0.1,0.1c-3.5-2.8-6.7-5.8-10.8-7.8
		c-2.6-0.8-5.1-1.5-7.6-2.6C-1508.2,1056.3-1508.2,1056.3-1508.2,1056.3L-1508.2,1056.3z"/>
</g>
<g>
	<path class="st14" d="M-1475.3,1072.9c-1.1-1-1.8-2.1-2.3-3.4c-1.5-1.8-3.5-3-4.6-5.2c0,0,0-0.1,0.1-0.1c0.9,0.4,1.6,1,2.3,1.6
		c1,1,1.6,2.3,2.4,3.4C-1476.3,1070.3-1475.3,1071.4-1475.3,1072.9C-1475.2,1072.9-1475.2,1073-1475.3,1072.9L-1475.3,1072.9z"/>
</g>
<g>
	<g>
		
			<ellipse transform="matrix(0.9257 -0.3782 0.3782 0.9257 -176.313 219.6487)" class="st35" cx="471.1" cy="558.7" rx="19.4" ry="19.4"/>
		
			<ellipse transform="matrix(0.9239 -0.3827 0.3827 0.9239 -166.9061 54.6469)" class="st35" cx="53.9" cy="446.9" rx="12.6" ry="12.6"/>
		
			<ellipse transform="matrix(0.9924 -0.1233 0.1233 0.9924 -45.7888 52.9436)" class="st35" cx="404.7" cy="396.3" rx="38.9" ry="38.9"/>
		<path class="st35" d="M77.9,753.7h354.7c16-10.7,38.7-22.9,47.2-47.8c20.1-58.9-27.3-79.8-53.1-109
			c-25.8-29.2,27.6-41.3,20.5-104.1c-3.7-32.3-46.9-61.8-91-46.3c-44.2,15.5-50.6-3-71-40.6c-23.8-43.8-125.4-67.5-184.4,11.2
			c-58.9,78.7-2.1,138.3-8.7,166.5c-6.7,28.1-54.1,42.6-57.5,96.8C32.5,711.8,44.1,739.9,77.9,753.7z"/>
	</g>
	<g>
		<g>
			<path class="st36" d="M121.7,751.1c6.9-4.9,7.6-36-20.6-42.3c-14.4-3.2-12.1-10.4-15-19.7c-2.9-9.3-6.6-10-14.8-11.2
				c-8.2-1.3-2.1-12.5-11.8-19c-9.8-6.5-22.9-7-27.8,7.2c-4.1,12,7.6,17.4,10,23c2.4,5.6-4.6,13.2,3.9,21.6
				c8.5,8.4,17.6,2.1,17.7,11c0.1,8.9,4.1,25.2,12.7,28.6C86.5,754.4,116.2,755,121.7,751.1z"/>
			<g>
				<g>
					<path class="st37" d="M113.1,753.6c-3.8-4.5-7.7-8.8-11.4-13.3c-9.4-11.1-18.5-22.5-27.5-34c-6.6-8.5-13.2-17.2-19.5-25.9
						c-0.6-0.8-1.9,0-1.3,0.8C64,695.7,75,709.9,86.3,723.8c7.1,8.8,14.4,17.6,21.8,26.2c1.3,1.5,2.7,3,4,4.6
						C112.7,755.4,113.8,754.3,113.1,753.6L113.1,753.6z"/>
				</g>
			</g>
		</g>
		<g>
			<path class="st36" d="M91.1,700.9c0.7-6.1,1.7-12.2,2.3-17.7c2.2-22.7-35.8-16.3-48.3-45.4c-12.5-29.2,29.6-28.4,10.5-48.3
				c-18.1-18.8-18-53.2,1.9-63.1c27.7-13.7,52.6,9.5,55.9,32c2.6,17.4-9.1,29.5,21.2,42.3c30.3,12.7,25.6,28.6,19.4,58.8
				c-6.2,30.3,14.3,19.2,30.2,44.7c12.6,20.2-5.1,40.9-13,48.6l-61.4,1.1"/>
			<g>
				<g>
					<g>
						<path class="st37" d="M160,751.9c-0.7-1.5-1.3-3.1-2-4.6c-1.8-4.2-3.7-8.4-5.5-12.6c-2.7-6.3-5.5-12.6-8.2-18.9
							c-3.4-7.9-6.9-15.7-10.3-23.6c-3.9-8.8-7.7-17.6-11.6-26.4c-4.1-9.2-8.2-18.5-12.3-27.7c-4-9-8.1-18.1-12.1-27.1
							c-3.8-8.3-7.6-16.7-11.4-25c-3.2-7-6.5-14-9.8-20.9c-2.5-5.2-4.9-10.3-7.6-15.4c-0.5-0.9-0.9-1.8-1.4-2.7
							c-0.5-0.9-1.8-0.1-1.3,0.8c2.4,4.5,4.7,9.1,6.9,13.7c3.2,6.5,6.2,13.1,9.3,19.7c3.7,8,7.4,16,11,24c4,8.9,8.1,17.9,12.1,26.8
							c4.1,9.2,8.2,18.4,12.3,27.6c4,9,7.9,18,11.9,27c3.6,8.1,7.1,16.2,10.7,24.4c3,6.8,5.9,13.5,8.9,20.3
							c2.1,4.8,4.2,9.5,6.2,14.3c1,2.2,1.8,4.5,2.9,6.7c0,0.1,0.1,0.2,0.1,0.3C159.1,753.5,160.4,752.8,160,751.9L160,751.9z"/>
					</g>
				</g>
				<g>
					<g>
						<g>
							<path class="st37" d="M102.7,623.3c-12-0.7-24-1.3-36-2c-1.7-0.1-3.4-0.2-5.2-0.3c-1-0.1-1,1.4,0,1.5c12,0.7,24,1.3,36,2
								c1.7,0.1,3.4,0.2,5.2,0.3C103.6,624.9,103.6,623.4,102.7,623.3L102.7,623.3z"/>
						</g>
					</g>
					<g>
						<g>
							<path class="st37" d="M144.2,717c-9.5-1.1-19-2.1-28.5-3.2c-1.3-0.1-2.7-0.3-4-0.4c-1-0.1-1,1.4,0,1.5
								c9.5,1.1,19,2.1,28.5,3.2c1.3,0.2,2.7,0.3,4,0.4C145.2,718.6,145.2,717.1,144.2,717L144.2,717z"/>
						</g>
					</g>
				</g>
				<g>
					<g>
						<path class="st37" d="M146.7,614.9c-2.7,6.1-5.5,12.3-8.2,18.4c-4.3,9.7-8.7,19.4-13,29.2c-1,2.2-2,4.5-3,6.7
							c-0.4,0.9,0.9,1.6,1.3,0.8c2.7-6.1,5.5-12.3,8.2-18.4c4.3-9.7,8.7-19.4,13-29.2c1-2.2,2-4.5,3-6.7
							C148.4,614.8,147.1,614,146.7,614.9L146.7,614.9z"/>
					</g>
				</g>
			</g>
			<path class="st36" d="M88.7,553.4c2,3,5.5,4.1,7.8,2.5c2.3-1.6,2.6-5.2,0.5-8.2c-2-3-5.5-4.1-7.8-2.5
				C86.9,546.8,86.7,550.4,88.7,553.4z"/>
			<path class="st36" d="M87.2,569.4c0,1.6,1.3,2.8,2.8,2.8c1.6,0,2.8-1.3,2.8-2.8c0-1.6-1.3-2.8-2.8-2.8
				C88.5,566.5,87.2,567.8,87.2,569.4z"/>
		</g>
		<g>
			<path class="st36" d="M417.4,732.9c1.3-3-7.4-15.9,2.9-20.8c10.3-4.8,11.1-16.9,11.1-16.9c0.5-4.6,0.8-9.2,1.4-13.4
				c2.2-17,29-5.8,43.1-25.1c14.1-19.2-16.8-25.8,0.6-37.1c16.4-10.7,22.3-35.9,9.3-46.5c-18-14.8-40.1-2-46.4,13.9
				c-4.8,12.3,1.6,23.2-22.7,27.3c-24.4,4.2-23.6,16.6-24.2,39.8c-0.6,23.2-13.7,11.6-29.7,27.6c-12.7,12.7-3.2,30.8,1.3,37.8
				c0,0,2.4,6.7-3.1,13.4c-5.5,6.7-17,7.5-13.4,21.4"/>
			<g>
				<g>
					<g>
						<path class="st37" d="M367.5,754.1c3-4.9,6-9.7,9-14.6c7.4-11.9,14.8-23.8,22.2-35.7c9.4-14.9,18.8-29.9,28.3-44.7
							c9.1-14.2,18.2-28.3,27.5-42.3c6.3-9.3,12.5-18.9,19.6-27.6c0.5-0.6,1-1.2,1.5-1.8c0.6-0.7-0.4-1.8-1.1-1.1
							c-2.7,3.1-5.2,6.5-7.6,9.8c-3.6,5-7.2,10.2-10.7,15.3c-9.2,13.6-18.1,27.3-26.9,41.1c-9.6,15-19.2,30.1-28.7,45.3
							c-7.8,12.5-15.6,25-23.3,37.5c-2.5,4-5,8-7.4,12c-1.2,1.9-2.5,3.8-3.5,5.7c0,0.1-0.1,0.2-0.1,0.2
							C365.7,754.2,367,754.9,367.5,754.1L367.5,754.1z"/>
					</g>
				</g>
				<g>
					<g>
						<g>
							<path class="st37" d="M435.3,647c8.9,1.6,17.8,3.1,26.7,4.7c1.3,0.2,2.5,0.4,3.8,0.7c0.9,0.2,1.3-1.3,0.4-1.4
								c-8.9-1.6-17.8-3.1-26.7-4.7c-1.3-0.2-2.5-0.4-3.8-0.7C434.7,645.4,434.3,646.8,435.3,647L435.3,647z"/>
						</g>
					</g>
					<g>
						<g>
							<path class="st37" d="M399,702.5c7.1,0.8,14.2,1.7,21.4,2.5c1,0.1,2,0.2,3,0.4c1,0.1,0.9-1.4,0-1.5
								c-7.1-0.8-14.2-1.7-21.4-2.5c-1-0.1-2-0.2-3-0.4C398,700.9,398.1,702.4,399,702.5L399,702.5z"/>
						</g>
					</g>
				</g>
				<g>
					<g>
						<path class="st37" d="M405.7,633.2c1,4.9,1.9,9.9,2.9,14.8c1.5,7.9,3,15.8,4.6,23.6c0.3,1.8,0.7,3.6,1,5.4
							c0.2,0.9,1.6,0.5,1.4-0.4c-1-4.9-1.9-9.9-2.9-14.8c-1.5-7.9-3-15.8-4.6-23.6c-0.3-1.8-0.7-3.6-1-5.4
							C406.9,631.9,405.5,632.3,405.7,633.2L405.7,633.2z"/>
					</g>
				</g>
			</g>
			<path class="st36" d="M458.2,587.6c-2,1.8-4.7,2-6.2,0.5c-1.4-1.5-1-4.3,1-6.1c2-1.8,4.7-2,6.2-0.5
				C460.6,583,460.2,585.7,458.2,587.6z"/>
			<path class="st36" d="M456.6,599.5c-0.3,1.1-1.4,1.9-2.6,1.6c-1.1-0.3-1.9-1.4-1.6-2.6c0.3-1.1,1.4-1.9,2.6-1.6
				C456.1,597.2,456.8,598.4,456.6,599.5z"/>
		</g>
		<g>
			<g>
				<path class="st36" d="M463.1,752.9c0.8-5.1,0.2-10.7,0.3-15.5c0.2-10.4,15.9-3.6,24.2-15.8c8.3-12.2-7-19.1,1.2-23.6
					c8.2-4.5,12.3-21.1,2.3-27.7c-12.3-8.1-27.4-0.2-30.5,9.7c-2.4,7.6,2.9,13.9-13.6,17.5c-16.6,3.6-15.1,11-13.7,25
					c1.4,14-9,2.5-18.8,12.8c-5.6,5.9-2,13.9,1.2,18.9"/>
			</g>
			<g>
				<g>
					<g>
						<path class="st37" d="M432.1,754.7c6.9-10.1,13.9-20.1,20.9-30.2c7.8-11.2,15.7-22.5,23.8-33.6c2.9-4,5.9-8.1,9.1-12
							c0.6-0.7-0.4-1.8-1.1-1.1c-6.7,8.1-12.7,16.9-18.8,25.5c-8.3,11.6-16.4,23.4-24.5,35.1c-3.5,5.1-7.1,10.2-10.6,15.4
							C430.3,754.7,431.6,755.5,432.1,754.7L432.1,754.7z"/>
					</g>
				</g>
				<g>
					<g>
						<g>
							<path class="st37" d="M462.2,711c6.3,0.5,12.6,1.1,18.9,1.6c0.9,0.1,1.8,0.2,2.7,0.2c1,0.1,1-1.4,0-1.5
								c-6.3-0.5-12.6-1.1-18.9-1.6c-0.9-0.1-1.8-0.2-2.7-0.2C461.2,709.4,461.2,710.9,462.2,711L462.2,711z"/>
						</g>
					</g>
				</g>
				<g>
					<g>
						<path class="st37" d="M438.7,703.4c2.7,7.6,5.4,15.2,8.2,22.8c0.4,1.1,0.8,2.1,1.2,3.2c0.3,0.9,1.8,0.5,1.4-0.4
							c-2.7-7.6-5.4-15.2-8.2-22.8c-0.4-1.1-0.8-2.1-1.2-3.2C439.9,702.1,438.4,702.5,438.7,703.4L438.7,703.4z"/>
					</g>
				</g>
			</g>
			<path class="st36" d="M473.7,679.6c-1.2,1.2-3.1,1.4-4.2,0.6c-1.1-0.9-1-2.5,0.2-3.7c1.2-1.2,3.1-1.4,4.2-0.6
				C475.1,676.7,475,678.4,473.7,679.6z"/>
			<path class="st36" d="M479.8,721c-0.2,1.4-1.6,2.3-3.2,2.1c-1.6-0.2-2.7-1.5-2.5-2.9c0.2-1.4,1.6-2.3,3.2-2.1
				S480,719.6,479.8,721z"/>
		</g>
	</g>
</g>
<g>
	
		<radialGradient id="SVGID_00000062878960041249649880000012781947209344309895_" cx="2440.5835" cy="-366.3289" r="7.5835" gradientTransform="matrix(-0.9986 -5.320000e-02 -5.320000e-02 0.9986 2553.0532 748.2627)" gradientUnits="userSpaceOnUse">
		<stop  offset="0" style="stop-color:#9C493C"/>
		<stop  offset="0.9823" style="stop-color:#CC6633"/>
	</radialGradient>
	<path style="opacity:0.6;fill:url(#SVGID_00000062878960041249649880000012781947209344309895_);enable-background:new    ;" d="
		M142.6,247.4c-6.4,1.8-12.7,12.4-12.7,12.4l-2-9.1c5-6.1,15.5-5.3,15.5-5.3L142.6,247.4z"/>
	<g>
		
			<linearGradient id="SVGID_00000044176956434278211600000014313116556604117159_" gradientUnits="userSpaceOnUse" x1="1902.2817" y1="-148.2122" x2="1938.2776" y2="-148.2122" gradientTransform="matrix(1 0 0 1 -1790.4685 366)">
			<stop  offset="0" style="stop-color:#600E19"/>
			<stop  offset="0.984" style="stop-color:#741B17"/>
		</linearGradient>
		<path style="fill:url(#SVGID_00000044176956434278211600000014313116556604117159_);" d="M131.5,205l-19.3,9c0,0-0.5,3-0.2,4.4
			s4.7,8.5,4.7,8.5l4.9,2.1l11.3,1.5l14.5-10.9l0.5-9.9L131.5,205z"/>
		
			<radialGradient id="SVGID_00000137845506462704331230000001553638328951500216_" cx="1937.5935" cy="-85.5462" r="116.4344" gradientTransform="matrix(1 0 0 1 -1790.4685 366)" gradientUnits="userSpaceOnUse">
			<stop  offset="0" style="stop-color:#9C493C"/>
			<stop  offset="0.9823" style="stop-color:#CC6633"/>
		</radialGradient>
		<path style="fill:url(#SVGID_00000137845506462704331230000001553638328951500216_);" d="M137.1,205.2c0.5-5.5-0.7-13.6-0.7-13.6
			c-4-6.2-4.9-19.1-3-21.8c1.9-2.6,4.8-2.1,4.8-2.1c1.4,2.9,4.4,18.3,4.8,22.8s4,18,4,18L137.1,205.2z"/>
		
			<radialGradient id="SVGID_00000123423784662861692740000010348691826439911066_" cx="1937.5935" cy="-85.5568" r="116.4133" gradientTransform="matrix(1 0 0 1 -1790.4685 366)" gradientUnits="userSpaceOnUse">
			<stop  offset="0" style="stop-color:#9C493C"/>
			<stop  offset="0.9823" style="stop-color:#CC6633"/>
		</radialGradient>
		<path style="fill:url(#SVGID_00000123423784662861692740000010348691826439911066_);" d="M135.6,215.8c-0.4,2.6-3.8,3.4-4.6,3
			s-2.7-2.8-2.7-2.8l1.3,5.5c-0.4,3.8-5.2,2.8-5.2,2.8l-1.5-1.7c-2.3,1.9-5.2,1.8-5.2,1.8c-3.7-2.8-5.5-10.4-5.5-10.4
			c2.6-2.3,6.3-2.8,6.3-2.8l0.1-1.8c1.8-1.8,7.7-2.3,7.7-2.3l0.1-2.4c3.2-2.1,6.2-2.6,6.2-2.6S136,213.2,135.6,215.8z"/>
		
			<linearGradient id="SVGID_00000127002928450465410370000015457910842488404662_" gradientUnits="userSpaceOnUse" x1="1915.8016" y1="-155.5622" x2="1918.8086" y2="-155.5622" gradientTransform="matrix(1 0 0 1 -1790.4685 366)">
			<stop  offset="0" style="stop-color:#600E19"/>
			<stop  offset="0.984" style="stop-color:#741B17"/>
		</linearGradient>
		<path style="fill-rule:evenodd;clip-rule:evenodd;fill:url(#SVGID_00000127002928450465410370000015457910842488404662_);" d="
			M126.3,207.1l-0.9,0.1l3,8.9c-1-4.5-2-11.4-2-11.4L126.3,207.1z"/>
		
			<linearGradient id="SVGID_00000021083429096076801050000001371323102309022128_" gradientUnits="userSpaceOnUse" x1="1907.7285" y1="-149.8621" x2="1913.3744" y2="-149.8621" gradientTransform="matrix(1 0 0 1 -1790.4685 366)">
			<stop  offset="0" style="stop-color:#600E19"/>
			<stop  offset="0.984" style="stop-color:#741B17"/>
		</linearGradient>
		<path style="fill-rule:evenodd;clip-rule:evenodd;fill:url(#SVGID_00000021083429096076801050000001371323102309022128_);" d="
			M118.4,211.3l-1.1,0.2c1.8,4.5,5.6,11.2,5.6,11.2c-2.3-5.4-4.4-13.2-4.4-13.2L118.4,211.3z"/>
		
			<radialGradient id="SVGID_00000102516948496716226580000008111672543708633753_" cx="1945.684" cy="-89.4614" r="62.8184" gradientTransform="matrix(1 0 0 1 -1790.4685 366)" gradientUnits="userSpaceOnUse">
			<stop  offset="0" style="stop-color:#9C493C"/>
			<stop  offset="0.9823" style="stop-color:#CC6633"/>
		</radialGradient>
		<path style="fill:url(#SVGID_00000102516948496716226580000008111672543708633753_);" d="M197.2,334.8
			c-4.2,8.9-23.3,17.1-23.3,17.1C160,366.8,142,301.1,142,301.1l0,0c-8.8-22.3-14.2-50.3-14.2-50.3c-2.8-0.8-7.5-6.5-7.5-6.5
			c-5.4-7.7-8.5-25.8-8.5-25.8s5,8.8,9.6,8.9c4.6,0.2,11.3-0.5,14.7-3.9c3.4-3.4,8.7-4.4,8.7-4.4l-1.1-6.1c0,0-2.9,0.1-7.8-2.5
			c-5.3-2.8-6.6-10.6-5.6-11.4c1-0.9,5.5,1.5,8.7,2.7c3.1,1.1,11.2,3.7,11.7,5s4.2,19.4,2.7,23.6c-2.2,6-11.4,13.7-11.2,19.2
			c0.2,3.8,5.8,13.9,9.5,20.1l0,0l21.1,33.9C196,293.6,201.4,325.9,197.2,334.8z"/>
	</g>
	<path d="M214.3,193.1c44.5,6.8,74.1-37.9,74.1-82.9S262,39,217,39s-81.5,36.5-81.5,81.5S163.9,185.5,214.3,193.1z"/>
	
		<radialGradient id="SVGID_00000037690928492782496420000007299449709825335175_" cx="3014.9795" cy="2685.9568" r="14.6296" gradientTransform="matrix(-1 0 0 1 3310.5955 -1990.5044)" gradientUnits="userSpaceOnUse">
		<stop  offset="0" style="stop-color:#9C493C"/>
		<stop  offset="0.9823" style="stop-color:#CC6633"/>
	</radialGradient>
	<path style="fill:url(#SVGID_00000037690928492782496420000007299449709825335175_);" d="M306,705c0,0-12,8.9-14,8.3
		c-2-0.5-6.7-8.3-6.7-8.3s1.3-17.1,0.6-27.5H306C305.3,687.3,304.9,697.6,306,705z"/>
	<path class="st1" d="M333.5,561.9L333.5,561.9c-0.1,0.1-0.1,0.2-0.1,0.3c-0.3,1.3-0.6,2.5-0.9,3.5c-0.1,0.3-0.2,0.6-0.3,0.9
		c-0.3,0.9-0.5,1.5-0.7,2.1c-2.5,6.4-8,14-13,25.7s-9.4,54.4-9.4,54.4l0,0l0,0c0,0-2.6,19.7-3.7,34.7l-19.5-0.1
		c0-1.3-0.4-8.2-0.5-9.2c-1.2-7.9-4.3-20.1-5.3-24.1l0,0c0,0-8.4-31.6-7.4-47.5c1-16,10.5-35.2,11.3-41.7c0.3-1.7-0.6-9.3-2-19.7
		l0,0c-3.7-28-10.9-76.6-9.3-87.9c2.2-15.6-0.2-43.4-0.2-43.4l7.3-5l24.2-16.4l28.7,13.2c0,0,5.4,48.8,6.5,91.8
		C340,527.3,336.5,550.3,333.5,561.9z"/>
	<g>
		
			<radialGradient id="SVGID_00000122711246344446662470000003308441729974040223_" cx="2031.4005" cy="328.4973" r="9.1052" gradientTransform="matrix(1 0 0 1 -1790.4685 366)" gradientUnits="userSpaceOnUse">
			<stop  offset="0" style="stop-color:#9C493C"/>
			<stop  offset="0.9823" style="stop-color:#CC6633"/>
		</radialGradient>
		<path style="fill:url(#SVGID_00000122711246344446662470000003308441729974040223_);" d="M251.6,687.5h-21.4
			c2.7,13.9,3.5,10.1,3.5,10.1l18.1,3.9C251.4,692.6,251.5,696.5,251.6,687.5z"/>
		
			<radialGradient id="SVGID_00000048472882290282022920000013748766128815023792_" cx="2013.8715" cy="279.5817" r="5.389721e-02" gradientTransform="matrix(1 0 0 1 -1790.4685 366)" gradientUnits="userSpaceOnUse">
			<stop  offset="0" style="stop-color:#9C493C"/>
			<stop  offset="0.9823" style="stop-color:#CC6633"/>
		</radialGradient>
		<path style="fill:url(#SVGID_00000048472882290282022920000013748766128815023792_);" d="M223.5,645.6c-0.1-0.1-0.1-0.1-0.1-0.1
			C223.4,645.5,223.4,645.6,223.5,645.6L223.5,645.6z"/>
		
			<radialGradient id="SVGID_00000177460932633620786660000006566218873962362539_" cx="2014.1969" cy="281.1308" r="1.1797" gradientTransform="matrix(1 0 0 1 -1790.4685 366)" gradientUnits="userSpaceOnUse">
			<stop  offset="0" style="stop-color:#9C493C"/>
			<stop  offset="0.9823" style="stop-color:#CC6633"/>
		</radialGradient>
		<path style="fill:url(#SVGID_00000177460932633620786660000006566218873962362539_);" d="M223.3,645.5L223.3,645.5L223.3,645.5
			c0.3,1.1,0.6,2.1,0.9,3.2L223.3,645.5z"/>
	</g>
	<path class="st1" d="M261.3,567c-10.3,11.4-19.8,6.6-23.7-1.3c-3.7-7.6-8.9-33.5-9.4-35.9c2,14.7,3.3,26.3,2.8,30.7
		c-1.7,15.2-12.3,29.9-15,46.2s7.4,38.8,7.4,38.8l0,0l0,0l0.9,3.2c2.4,8.8,4.5,31.3,5.9,38.8c0,0,9.8,1.5,15.2,0.9
		c5.3-0.5,6.2-0.9,6.2-0.9c0-13.7,0.2-38.8,0.2-38.8s9.5-61.9,13.7-73.6c4.2-11.7,13.1-22.8,16.6-34
		C281.5,542,271.3,555.8,261.3,567z M223.4,645.5c0,0,0,0.1,0.1,0.1l0,0C223.4,645.5,223.4,645.5,223.4,645.5z"/>
	<g>
		
			<linearGradient id="SVGID_00000009558459028660727310000003170015887715998655_" gradientUnits="userSpaceOnUse" x1="5557.6963" y1="-163.1168" x2="5568.8535" y2="-270.9692" gradientTransform="matrix(-7.435710e-02 -0.9972 -0.9972 7.435710e-02 592.9882 5994.1484)">
			<stop  offset="5.586590e-03" style="stop-color:#9C0A00"/>
			<stop  offset="1" style="stop-color:#D10F20"/>
		</linearGradient>
		<polygon style="fill:url(#SVGID_00000009558459028660727310000003170015887715998655_);" points="345,414.7 345.8,411.9 
			427,389.1 445,453.4 444,457.2 361.9,466.6 		"/>
		<polygon class="st6" points="445,453.4 444,457.2 425.7,393 427.1,389.1 		"/>
		<polygon class="st7" points="366.2,466.3 444,457.1 445.6,452.4 427.3,389.1 443.7,451.7 443,454.8 		"/>
	</g>
	
		<radialGradient id="SVGID_00000170238090959014377820000015713681763581221034_" cx="2049.2671" cy="-112.2442" r="78.859" gradientTransform="matrix(1 0 0 1 -1790.4685 366)" gradientUnits="userSpaceOnUse">
		<stop  offset="0" style="stop-color:#9C493C"/>
		<stop  offset="0.9823" style="stop-color:#CC6633"/>
	</radialGradient>
	<path style="fill:url(#SVGID_00000170238090959014377820000015713681763581221034_);" d="M254.8,186.3c0,0,2.1,19.6,8.4,25
		s11.3,8,11.3,8c6.5,7.9,8.7,29.3,8.7,29.3s-27.3-13.9-34.6-20.7c-7.3-6.8-15.1-20.9-15.1-20.9c-1.5-9.2-6.8-27.8-6.8-27.8
		C230.2,180.6,254.8,186.3,254.8,186.3z"/>
	
		<radialGradient id="SVGID_00000108271963281863445340000015415623722092832703_" cx="2170.1223" cy="44.8678" r="78.9263" gradientTransform="matrix(1 0 0 1 -1790.4685 366)" gradientUnits="userSpaceOnUse">
		<stop  offset="0" style="stop-color:#9C493C"/>
		<stop  offset="0.9823" style="stop-color:#CC6633"/>
	</radialGradient>
	<path style="fill:url(#SVGID_00000108271963281863445340000015415623722092832703_);" d="M335,318.3c0,0,23.4,54.6,31.6,62.6
		c8.2,7.9,26.4,18.2,26.4,18.2l-24.5,7.5c0,0-2-0.5-2.5,0s-1.9,8.2-1.1,11.7c0.1,0.2,0.1,0.5,0.2,0.7l0,0c0.8,2.7,2.7,3,3.4,7.6
		c0.8,4.9-1.9,11.3-3.6,11.7c-1.7,0.4-1.6-10.9-4.8-16.2c-3.3-5.3-9.1-6.5-9.9-8.5c-0.7-2,3.6-16.3,1.4-23s-29.7-27.6-38.1-39.8
		c-8.3-12.1-9.4-17.6-9.4-17.6S326.3,319.2,335,318.3z"/>
	
		<linearGradient id="SVGID_00000170265471061652444480000014431088858913223858_" gradientUnits="userSpaceOnUse" x1="638.3712" y1="-27.2122" x2="665.4712" y2="-27.2122" gradientTransform="matrix(-1 0 0 1 975.7 366)">
		<stop  offset="0" style="stop-color:#600E19"/>
		<stop  offset="0.984" style="stop-color:#741B17"/>
	</linearGradient>
	<path style="fill:url(#SVGID_00000170265471061652444480000014431088858913223858_);" d="M335.1,318.1l-24.8,8.1l1.4,22.5l9.2,10.7
		c3.4-14.9,16.5-35.9,16.5-35.9L335.1,318.1z"/>
	
		<linearGradient id="SVGID_00000144299273606217198660000012054174467963318461_" gradientUnits="userSpaceOnUse" x1="2147.2341" y1="45.6002" x2="2048.2151" y2="-193.4457" gradientTransform="matrix(1 0 0 1 -1790.4685 366)">
		<stop  offset="0" style="stop-color:#39B54A"/>
		<stop  offset="1" style="stop-color:#009245"/>
	</linearGradient>
	<path style="fill:url(#SVGID_00000144299273606217198660000012054174467963318461_);" d="M289.8,316c0,0,11.5,24.5,18,17.6
		s27.2-15.5,27.2-15.5l1.7,3.9c0,0,2.7-4.3,2.5-5.3s-3.1-2.7-3.1-5.6s-1.1-8.8-1.7-10.3s-2.9-5.1-4.8-7.8s-13-51.1-17.5-53.6
		L289.8,316z"/>
	<path class="st1" d="M304.1,374.9l-29.5,3.4l-54.7,2.7c0,0,84.9,53.6,94.7,46.9s26-32.1,26-32.1L304.1,374.9z"/>
	<path class="st1" d="M223.4,645.5L223.4,645.5C223.5,645.6,223.5,645.6,223.4,645.5L223.4,645.5z"/>
	<path class="st1" d="M299,442.4c-0.5-15.5-8.7-28.1-18.9-37.6c-16.9-15.8-51.8-25.4-51.8-25.4s-8.4,25.4-11.8,45.5
		c-2.4,14.3,6.8,68.7,11.8,104.6l0,0c0,0.1,0,0.1,0,0.1v0.1c0.5,2.4,5.7,28.3,9.4,35.9c3.9,8,13.3,12.8,23.7,1.3
		c10-11.1,20.2-24.9,20.8-25.8l0,0l0,0c1.9-6.1,7.2-22.8,11.3-43.5c0.1-0.5,0.1-0.7,0.1-0.7C296.8,480.1,299.4,460.9,299,442.4z"/>
	
		<linearGradient id="SVGID_00000034055270076811851820000009813410212703004299_" gradientUnits="userSpaceOnUse" x1="1949.8832" y1="217.7823" x2="2081.7959" y2="-79.0217" gradientTransform="matrix(1 0 0 1 -1790.4685 366)">
		<stop  offset="0" style="stop-color:#39B54A"/>
		<stop  offset="1" style="stop-color:#009245"/>
	</linearGradient>
	<path style="fill:url(#SVGID_00000034055270076811851820000009813410212703004299_);" d="M281.4,242c0,0-6.3-1.5-20.5-9
		c-14.2-7.5-27.2-26.1-27.2-26.1l-1-5c0,0-9.7,17.3-12.7,20.2s-16.3,11.1-21.3,23c-5.1,11.9-11.5,30.7-13.4,35.9s-3.8,7.3-5.1,8
		s-2.2,4-2.2,4.9c0,1-3.9,2-5,2s-1.6,5.2-1.5,5.4c0.4,0.7,0.6,0.4,1.3,2.2c26.9-6.8,24.5,31.1,24.5,31.1l-2.5,3.3
		c0,0,4.6,1.3,5.6,1.2s9.1-9,9.7-10.4c0.6-1.4,2.1-3.1,2.2-4.2c0.2-1.1,5.2-4,5.3-5.5c0.2-1.5,0.3-3.3,0.3-3.3
		c5.7,0.5,7.1-5.8,7.1-5.8c0.4,24.1-2.3,31.5-2.3,31.5l-1.7,5.4l-0.4,6.3c-6.3,14.2-10.4,64.2-10.4,64.2s19.9-4.2,37.8,4.2
		c17.8,8.4,52.3,6.4,52.3,6.4c3.9-10.1,3.8-39.4,3.8-39.4l11.4,32.9c23.8,6.2,34.7-8.7,34.7-8.7c-5.9-17.6-14.3-59.4-14.3-59.4
		c-9.6-28.1-4.8-73.5-7.9-78.2s-16.2-14.7-16.8-18.1c-0.6-3.4,0.9-17.6,0.9-17.6s-7.6-3.7-14-6.4s-23.6-13.7-23.6-13.7
		C281,229.8,281.4,242,281.4,242z"/>
	<polygon class="st14" points="295.9,225.2 291.4,224.5 286.7,242.2 301.4,247.3 	"/>
	<path class="st14" d="M270.3,220.6c5.4,3.1,7,8.7,7,8.7s-4.7-14.4-6.2-15.3c-1.6-1-9.7-4.8-9.7-4.8
		C263.6,212.6,265.3,217.6,270.3,220.6z"/>
	
		<linearGradient id="SVGID_00000123439423100824846160000016649664408194099625_" gradientUnits="userSpaceOnUse" x1="2149.6069" y1="44.6172" x2="2050.5881" y2="-194.4286" gradientTransform="matrix(1 0 0 1 -1790.4685 366)">
		<stop  offset="0" style="stop-color:#39B54A"/>
		<stop  offset="1" style="stop-color:#009245"/>
	</linearGradient>
	<path style="fill:url(#SVGID_00000123439423100824846160000016649664408194099625_);" d="M281.3,242.1c-2.3-9.5-7.4-25.2-10.8-27.7
		s-8-4-8.9-5s-2.4-3.7-2.4-3.7s10.1,4.5,13.9,5.5s24.1,13.3,24.1,13.3l4.2,22.8l-5.3-21C288.4,233.4,285,251,285,251L281.3,242.1z"
		/>
	<path class="st1" d="M336.1,723.5c29.4,2.7,35.8,19,35.8,19c-40.2,0-94.6-4.3-94.6-4.3c0-1.7,4.3-21.8,4.9-25.1
		c0.3-1.4,0.5-4.5,0.7-7.6c0.3-4.6,3.9-8.1,8.5-8.3l7.6,4.3c0,0-3.8-11.8-1.6-14.7c2.7-3.7,9.9-5.4,13.8,0c3.6,5,0.2,14.7,0.2,14.7
		C316.2,702.5,332.9,716.6,336.1,723.5z"/>
	<path class="st1" d="M250.3,698c-0.6-0.8-2.6-5.1-5.8-2.4c1.1-4.3-2.9-7.5-7.3-7c-6.3,0.7-6.6,9-6.6,13
		c-3.1,1.5-12.1,18.6-11.1,25.1c-12.5,1.7-13.7,14.9-13.7,14.9c11.7-14.9,34.9,3,38.2,3.7s11.3-6.1,11.3-6.1s-0.3-10.2-1.1-20.4
		c-0.5-5.8-0.5-10.7-0.4-13.9c0-2.6-0.5-5.2-1.7-7.6l-0.5-1.1C251.6,696.2,252.2,700.6,250.3,698z"/>
	
		<linearGradient id="SVGID_00000023246455967605923960000005327115068368729517_" gradientUnits="userSpaceOnUse" x1="2938.1294" y1="2733.4421" x2="3035.0295" y2="2733.4421" gradientTransform="matrix(-1 0 0 1 3310.5955 -1990.5044)">
		<stop  offset="0" style="stop-color:#FFC4BA"/>
		<stop  offset="1" style="stop-color:#FFE7E5"/>
	</linearGradient>
	<path style="fill:url(#SVGID_00000023246455967605923960000005327115068368729517_);" d="M345.3,741.4c-22-0.2-34.5-1.4-34.5-1.4
		l-0.4-0.6c-1.1-1.4-2.7-2.2-4.4-2.2c-6.1,0-20.1-0.1-22.6-0.7c-3.2-0.7-5.7-4.2-5.7-4.2c-1.6,3.1-2,12.5-2.1,17.7
		c0,1.9,1.5,3.5,3.4,3.5h90c1.7,0,3-3,3.2-4.7c0.2-1.4,0.3-3,0.3-4.5c0-3.3-4.2-7.4-4.2-7.4S367.3,741.6,345.3,741.4z"/>
	
		<linearGradient id="SVGID_00000076565990926637487780000008963040713889997191_" gradientUnits="userSpaceOnUse" x1="3053.395" y1="2733.6687" x2="3107.6948" y2="2733.6687" gradientTransform="matrix(-1 0 0 1 3310.5955 -1990.5044)">
		<stop  offset="0" style="stop-color:#FFC4BA"/>
		<stop  offset="1" style="stop-color:#FFE7E5"/>
	</linearGradient>
	<path style="fill:url(#SVGID_00000076565990926637487780000008963040713889997191_);" d="M245.7,741.6c-5.6-0.6-14.2-6.9-22.3-7.5
		s-16.1,4.7-17.6,6.4s-2.8,11.7-2.8,11.7h54.3l-2-13.1C255.3,739.1,251.3,742.4,245.7,741.6z"/>
	
		<linearGradient id="SVGID_00000126316143672202590210000012047076002873635486_" gradientUnits="userSpaceOnUse" x1="2934.4294" y1="2397.0601" x2="2934.4294" y2="2390.6318" gradientTransform="matrix(-1 0 0 1 3310.5955 -1990.5044)">
		<stop  offset="0" style="stop-color:#933B23"/>
		<stop  offset="0.9784" style="stop-color:#8B2A24"/>
	</linearGradient>
	<path style="fill:url(#SVGID_00000126316143672202590210000012047076002873635486_);" d="M368.6,406.5l17.8-5.5c0,0-5-1.9-10.3-0.4
		c-5.4,1.5-10.1,5.9-10.1,5.9H368.6z"/>
	
		<linearGradient id="SVGID_00000080894430383027456030000017121936477980788127_" gradientUnits="userSpaceOnUse" x1="719.134" y1="-174.9013" x2="748.534" y2="-174.9013" gradientTransform="matrix(-1 0 0 1 975.7 366)">
		<stop  offset="0" style="stop-color:#600E19"/>
		<stop  offset="0.984" style="stop-color:#741B17"/>
	</linearGradient>
	<path style="fill:url(#SVGID_00000080894430383027456030000017121936477980788127_);" d="M255.1,187.1c-14.5-0.8-27.9-6.1-27.9-6.1
		l3.7,14c12.2,13.1,25.7,1.1,25.7,1.1L255.1,187.1z"/>
	
		<linearGradient id="SVGID_00000067924032087652458650000013302635831361236921_" gradientUnits="userSpaceOnUse" x1="2013.8719" y1="279.61" x2="2013.8719" y2="279.5533" gradientTransform="matrix(1 0 0 1 -1790.4685 366)">
		<stop  offset="0" style="stop-color:#9F3D59"/>
		<stop  offset="1" style="stop-color:#FFFFFF"/>
	</linearGradient>
	<path style="opacity:0.5;fill:url(#SVGID_00000067924032087652458650000013302635831361236921_);enable-background:new    ;" d="
		M223.4,645.5L223.4,645.5C223.5,645.6,223.5,645.6,223.4,645.5L223.4,645.5z"/>
	<path class="st11" d="M223.3,645.5L223.3,645.5L223.3,645.5L223.3,645.5z"/>
	<path class="st11" d="M223.4,645.5L223.4,645.5C223.5,645.6,223.5,645.6,223.4,645.5L223.4,645.5z"/>
	<path class="st21" d="M372.4,748.2c0,0-8.4,0.7-19.6,1.6c-11.2,0.9-77.2-3.6-77.2-3.6l0.4-3c0,0,64.8,3.9,76.8,3.4
		s19.7-1.7,19.7-1.7L372.4,748.2z"/>
	<path class="st21" d="M256.5,747.9v1c0,0-4.7,0.6-8.7,0.3s-44.6,0.7-44.6,0.7l0.5-2.7c0,0,10.7-1.1,22.1-0.7
		C237.3,747,256.6,747.9,256.5,747.9L256.5,747.9z"/>
	
		<radialGradient id="SVGID_00000119798929309599709360000014908709079381974423_" cx="364.2797" cy="438.5004" r="123.29" gradientUnits="userSpaceOnUse">
		<stop  offset="0" style="stop-color:#9C493C"/>
		<stop  offset="0.9823" style="stop-color:#CC6633"/>
	</radialGradient>
	<path style="fill:url(#SVGID_00000119798929309599709360000014908709079381974423_);" d="M359.7,413.7c2.9,1.8,5.1,4.9,5.4,5.3l0,0
		c0.8,2.7,2.7,3,3.4,7.6c0.8,4.9-1.9,11.3-3.6,11.7c-1.7,0.4-1.6-10.9-4.8-16.2c-3.3-5.3-9.1-6.5-9.9-8.5
		C350.2,413.6,356.6,411.7,359.7,413.7z"/>
	
		<radialGradient id="SVGID_00000160912741749465949310000017924307468949727402_" cx="2019.9006" cy="-164.6193" r="96.5918" gradientTransform="matrix(1 0 0 1 -1790.4685 366)" gradientUnits="userSpaceOnUse">
		<stop  offset="0" style="stop-color:#9C493C"/>
		<stop  offset="0.9823" style="stop-color:#CC6633"/>
	</radialGradient>
	<path style="fill:url(#SVGID_00000160912741749465949310000017924307468949727402_);" d="M198.8,140.3c8.6,14,14.7,36.4,28.7,45.4
		s37.5,11.2,44.8,10.4c7.3-0.8,9.2-3.9,12-8.9c2.7-5,12-14.6,12.1-26.9s-4.8-11.6-7.3-15.5s-3.6-29.1-10-40.5
		c-6.5-11.4-26-13.1-26-13.1C211,91,190.2,126.3,198.8,140.3z"/>
	
		<radialGradient id="SVGID_00000077323804174366452310000005290089025374023049_" cx="2025.594" cy="-186.1711" r="102.7525" gradientTransform="matrix(1 0 0 1 -1790.4685 366)" gradientUnits="userSpaceOnUse">
		<stop  offset="0" style="stop-color:#9C493C"/>
		<stop  offset="0.9823" style="stop-color:#CC6633"/>
	</radialGradient>
	<path style="fill:url(#SVGID_00000077323804174366452310000005290089025374023049_);" d="M223.2,181.4c-0.5,3.1-7.5,6.8-13.5,5.3
		c-6-1.6-14.3-11.2-14.9-15.4c-0.5-4.1,2.1-11.4,2.1-11.4c10.4-4.4,22.6,4.7,22.6,4.7S223.8,178.3,223.2,181.4z"/>
	
		<linearGradient id="SVGID_00000122001026042179096010000017335393499357854648_" gradientUnits="userSpaceOnUse" x1="3028.9294" y1="2110.4541" x2="3117.7295" y2="2110.4541" gradientTransform="matrix(-1 0 0 1 3310.5955 -1990.5044)">
		<stop  offset="0" style="stop-color:#FFB159"/>
		<stop  offset="1" style="stop-color:#FFA73B"/>
	</linearGradient>
	<path style="fill:url(#SVGID_00000122001026042179096010000017335393499357854648_);" d="M256.8,93.2c-3.9,1.1-25,6-37.3,24.1
		s-16.1,31-16.1,31l0.4,2.4c0,0-5.2,4.2-5.2-0.9c0-5.2-5.1-10.4-5.1-10.4l-0.6-2.4c0,0,2.3-15.8,15.9-30.9s42.6-15,42.6-15
		s4-3.5,5.9-3.6c1.8-0.1,5.5,3.1,5.5,3.1s9.4,5.1,18.3,14.1c0.5,2.6,0.6,5.7,0.6,5.7S266,90.6,256.8,93.2z"/>
	
		<linearGradient id="SVGID_00000175291009392136115210000001878471999330574476_" gradientUnits="userSpaceOnUse" x1="2034.123" y1="-232.2076" x2="2034.123" y2="-247.2418" gradientTransform="matrix(1 0 0 1 -1790.4685 366)">
		<stop  offset="0" style="stop-color:#600E19"/>
		<stop  offset="0.984" style="stop-color:#741B17"/>
	</linearGradient>
	<path style="fill:url(#SVGID_00000175291009392136115210000001878471999330574476_);" d="M253.7,126.4c0,0-13,1.5-16.6,2.9
		s-7,4.5-7,4.5s2-8.3,5-11.1c2.2-2.1,14.4-0.3,21.2-4c0,0-0.4,3.1-1.5,5.6c1.6-2.5,2.4-5.4,2.4-5.4
		C257.9,123.8,253.6,126.3,253.7,126.4z"/>
	<path class="st26" d="M256,136.8c0.1,0,0.1,0.1,0.2,0.2C256.1,137,256.1,136.9,256,136.8L256,136.8z"/>
	<path d="M252.5,139.2c-3.6-2.3-7.4,1.5-5.2,5.2c0.2,0.2,0.4,0.4,0.6,0.6c3.5,2.4,7.5-1.2,5.5-4.9
		C253.2,139.7,252.9,139.4,252.5,139.2z"/>
	<path d="M281.2,136.1c-1.7,0-3,1.2-3.1,2.9c0,1.7,1.2,3,2.9,3.1c1.7,0,3-1.2,3.1-2.9C284.2,137.6,282.9,136.2,281.2,136.1z"/>
	<path class="st27" d="M247.3,153c-4.3-0.4-8.2,2.9-8.5,7.3c-0.4,4.3,2.9,8.2,7.3,8.5c4.3,0.4,8.2-2.9,8.5-7.3
		C254.9,157.2,251.6,153.3,247.3,153z"/>
	
		<linearGradient id="SVGID_00000122678954669871569740000004286487326657692297_" gradientUnits="userSpaceOnUse" x1="1990.8561" y1="-197.3686" x2="2006.1858" y2="-197.3686" gradientTransform="matrix(1 0 0 1 -1790.4685 366)">
		<stop  offset="0" style="stop-color:#600E19"/>
		<stop  offset="0.984" style="stop-color:#741B17"/>
	</linearGradient>
	<path style="fill:none;stroke:url(#SVGID_00000122678954669871569740000004286487326657692297_);stroke-miterlimit:10;" d="
		M215.6,168.9c-17-8.7-14.5,3-14.5,3"/>
	<g>
		
			<linearGradient id="SVGID_00000127012420184686324630000005878346058189083308_" gradientUnits="userSpaceOnUse" x1="701.5794" y1="-212.4565" x2="693.6075" y2="-214.4131" gradientTransform="matrix(-1 0 0 1 975.7 366)">
			<stop  offset="0" style="stop-color:#600E19"/>
			<stop  offset="0.984" style="stop-color:#741B17"/>
		</linearGradient>
		<path style="fill:url(#SVGID_00000127012420184686324630000005878346058189083308_);" d="M280.4,150.8c1.3,1.1,2.4,2.7,2.7,4.6
			c0.1,0.9,0,1.9-0.4,2.8c-0.4,0.9-1.1,1.6-1.8,2.1l0,0c-1,0.6-2,1.1-3.1,1.6c0.8-0.9,1.6-1.7,2.4-2.5l0,0c0.4-0.6,0.8-1.2,1-1.8
			c0.1-0.6,0.2-1.3,0-1.9c-0.4-1.3-1.2-2.5-2.2-3.5c-2.2-2.4-4.3-4.9-6-7.7C275.7,146.3,278,148.5,280.4,150.8z"/>
	</g>
	<g>
		<path class="st30" d="M288.4,174c0,0.1-0.2,0.1-0.3-0.3c-0.5-3-3.5-2.1-5.4-0.9c-0.2,0.1-0.3,0.1-0.5,0.1c-2.9-0.6-6,0.3-8.9,1
			c-4,0.8-8.1,1.2-12.3,1l0.3-0.8c2.5,1.2,5,2.2,7.5,3.2c3.6,1.4,7.6,2.3,10.8-0.3c1.5-1.1,3.7-0.7,4.8,0.6c0.5,0.6,0.9,1.1,1.2,1.1
			c1.9-0.2,2.7-2.4,2.8-4.2c0,0,0-0.1,0.1-0.1c0,0,0.1,0,0.1,0.1c0.3,1.9-0.3,4.4-2.3,5.3c-1.1,0.6-2.2-0.4-2.9-1
			c-0.5-0.4-1-0.6-1.4-0.6c-1.3,0-1.9,1.1-3.1,1.7c-1.4,0.8-3,1-4.5,1c-5-0.5-9.4-3.3-13.5-5.9c-0.1-0.1-0.2-0.3-0.2-0.5
			s0.3-0.4,0.5-0.3c1.7,0.4,3.5,0.4,5.3,0.2c5.6-0.6,10.4-4.5,16.2-2.7h-0.6C284.5,170.5,288.6,170.2,288.4,174L288.4,174z"/>
	</g>
	<g>
		<path class="st31" d="M259.7,174.7c2.3-0.3,4.5-0.8,6.6-1.6c4.7-1.5,14.4-15,18.1-6.8l-1.5-0.1c0.2-0.4,0.4-0.8,0.8-1.3
			c1.5-1.8,3.9-1.5,4.7,0.7c0.8,2,0.3,4.2-0.8,6c0.5-1.8,0.7-3.9-0.2-5.5c-0.3-0.5-0.7-1-1.2-1s-1,0.3-1.2,0.7
			c-0.3,0.6-1.1,1.9-1.5,2.6l-0.7-1.5c-0.4-0.9-1.3-1.8-2.3-1.3c-2.9,1.1-5.1,3.1-7.6,5.1C269.3,173.7,264.4,175.6,259.7,174.7
			L259.7,174.7z"/>
	</g>
	
		<linearGradient id="SVGID_00000043428058868866982610000006728373297813823664_" gradientUnits="userSpaceOnUse" x1="2070.2024" y1="-243.2695" x2="2070.2024" y2="-252.1878" gradientTransform="matrix(1 0 0 1 -1790.4685 366)">
		<stop  offset="0" style="stop-color:#600E19"/>
		<stop  offset="0.984" style="stop-color:#741B17"/>
	</linearGradient>
	<path style="fill:url(#SVGID_00000043428058868866982610000006728373297813823664_);" d="M277,121.7c-1.5-2-1.5-5.5-1.5-5.5
		c0.7-1.8,7.3-2.5,7.3-2.5s1.3,0,2,2.1s-0.5,4.1-0.5,4.1c-2.3-0.8-6.7,2.7-6.7,2.7c-4.4-1.6-2.8-6.1-2.8-6.1
		C275.2,119.8,276.9,121.7,277,121.7z"/>
	<path class="st14" d="M247.1,228.4l31.4,16.5l1.4,1.5c-18.7-7-41.9,11.5-41.9,11.5l-3.9-22.7L247.1,228.4z"/>
	
		<linearGradient id="SVGID_00000165920801404507775300000000761703253901093511_" gradientUnits="userSpaceOnUse" x1="2117.5491" y1="57.8965" x2="2018.53" y2="-181.1494" gradientTransform="matrix(1 0 0 1 -1790.4685 366)">
		<stop  offset="0" style="stop-color:#39B54A"/>
		<stop  offset="1" style="stop-color:#009245"/>
	</linearGradient>
	<path style="fill:url(#SVGID_00000165920801404507775300000000761703253901093511_);" d="M250,224.5c12.5,9,31.2,17.7,31.2,17.7
		l3,7c0,0-6.4-4.5-14.8-8.6s-19.8-11.6-22-10.3c-2.2,1.2-9.4,27.6-9.4,27.6c-16.8-9.6-21-30.7-21-30.7c5.8-10.3,15.4-25.7,15.4-25.7
		S237.6,215.5,250,224.5z"/>
	<g>
		<path class="st14" d="M285,251c4.4,4.1,8.6,8.5,12.5,13c3.9,4.7,8.1,9.3,10.1,15.2c1,6.3,0.5,12.1,0.6,18.3
			c-0.5,30.1-1.9,60.2-4.2,90.3c0.3-28.1,1.6-62.1,2.3-90.3c0-5.8,0.5-12.1-0.2-17.8c-1.8-5.5-5.8-10.4-9.3-15
			C293.1,259.9,289.1,255.4,285,251L285,251z"/>
	</g>
	<g>
		<path class="st14" d="M201.8,239.5c8.4,3,16,9.2,21.8,16.1c5.8,7.2,8.7,16.5,8.8,25.6c-0.9-4.3-1.7-9-3.3-13.2
			c-2-5.8-4.8-11.5-9.1-16c-2-2-4.4-3.6-6.7-5.2C209.5,244.3,205.7,241.8,201.8,239.5L201.8,239.5z"/>
	</g>
	<g>
		<path class="st14" d="M311.1,256.2c-0.5-5.6-0.5-11.3,1-16.8C312,245,312,250.6,311.1,256.2L311.1,256.2z"/>
	</g>
	<path class="st34" d="M336.1,723.4c-9.4-3.1-11.6,1.2-11.6,1.2c-5.2-10.5-24.7-21.9-24.7-21.9"/>
	<path class="st34" d="M219.4,726.7c6-4.6,11.1-2,11.1-2c1.4-14.6,9.6-22.6,9.6-22.6c0.1-3.4,3-4.8,3-4.8"/>
	<g>
		<path class="st14" d="M180.8,290.1C180.8,290.1,180.7,290.1,180.8,290.1c1.6-2.3,5-3.7,7.8-2.5c4.2,2.1,8.8,3.9,11.2,8.3
			c0,0.1-0.1,0.1-0.1,0.1c-1.4-1.2-2.8-2.4-4.3-3.5C190.3,288.5,187,286,180.8,290.1L180.8,290.1z"/>
	</g>
	<g>
		<path class="st14" d="M174,296.9C174,296.9,173.9,296.8,174,296.9c1.2-0.7,2.4-1,3.7-1.1c3.8-0.7,7.8,0.6,11.1,2.5
			c4.2,3,6.4,8,9.2,12.2c-1.7-1.2-3.5-4.1-4.9-5.9c-1.4-2.1-2.8-4.2-4.6-5.9C184.6,295.4,178.7,296.4,174,296.9L174,296.9z"/>
	</g>
	<g>
		<path class="st14" d="M217.1,318.5C217.1,318.6,217,318.6,217.1,318.5c-1.4-1.3-2.3-2.8-3.2-4.3c-1.9-2.4-4.5-4.1-6-6.8
			c0-0.1,0.1-0.1,0.1-0.1c1.1,0.6,2,1.3,2.9,2.2c1.4,1.3,2.2,3,3.3,4.4C215.6,315.1,216.8,316.6,217.1,318.5L217.1,318.5z"/>
	</g>
	
		<linearGradient id="SVGID_00000050664199647650901040000016559033049085809808_" gradientUnits="userSpaceOnUse" x1="777.7217" y1="-44.1885" x2="803.1268" y2="-44.1885" gradientTransform="matrix(-1 0 0 1 975.7 366)">
		<stop  offset="0" style="stop-color:#600E19"/>
		<stop  offset="0.984" style="stop-color:#741B17"/>
	</linearGradient>
	<path style="fill:url(#SVGID_00000050664199647650901040000016559033049085809808_);" d="M191.3,341.5
		c8.8-33.8-18.2-37.6-18.7-37.7c22.8-9.5,28.2,22.3,24.1,31.2C195.7,337.3,193.7,339.5,191.3,341.5z"/>
</g>
</svg>
