<?xml version="1.0" encoding="utf-8"?>
<!-- Generator: Adobe Illustrator 26.2.1, SVG Export Plug-In . SVG Version: 6.00 Build 0)  -->
<svg version="1.1" id="Capa_1" xmlns="http://www.w3.org/2000/svg" xmlns:xlink="http://www.w3.org/1999/xlink" x="0px" y="0px"
	 viewBox="0 0 527.7 446.2" style="enable-background:new 0 0 527.7 446.2;" xml:space="preserve">
<style type="text/css">
	.st0{fill:url(#SVGID_1_);}
	.st1{fill:#41455F;}
	.st2{fill:url(#SVGID_00000042738408196514890360000004381440956502099861_);}
	.st3{fill:url(#SVGID_00000016067153343765813300000010908650557738991798_);}
	.st4{fill:url(#SVGID_00000167373167096875549460000000976395211718566320_);}
	.st5{fill:url(#SVGID_00000133530803744920471520000006677870431281940143_);}
	.st6{fill:#575D6E;}
	.st7{fill:#FFFFF2;}
	.st8{fill:url(#SVGID_00000039106856923642874710000000795067558336811183_);}
	.st9{fill:url(#SVGID_00000115508611243227061640000010071959599358035074_);}
	.st10{fill:url(#SVGID_00000072985764165726311970000006111793431059035830_);}
	.st11{fill:#EA8BC2;}
	.st12{fill:url(#SVGID_00000181794800977446389370000003151981287541589908_);}
	.st13{fill:url(#SVGID_00000075869691839184136590000015609510211375911332_);}
	.st14{fill:#006837;}
	.st15{fill:url(#SVGID_00000168081089485276172790000012752344278243614336_);}
	.st16{fill:url(#SVGID_00000005961851213540042060000015652032110293413558_);}
	.st17{fill:url(#SVGID_00000072959645514285776480000016914209551891145150_);}
	.st18{opacity:0.8;fill:#C98BC2;enable-background:new    ;}
	.st19{opacity:0.5;fill:url(#SVGID_00000125596295785228722930000014984372122876715162_);enable-background:new    ;}
	.st20{opacity:0.5;fill:url(#SVGID_00000103952767520227185540000007059944663429934747_);enable-background:new    ;}
	.st21{fill:#1B1464;}
	.st22{fill:url(#SVGID_00000004540465644753862480000008052991892069418908_);}
	.st23{fill:url(#SVGID_00000098182376900008028700000007153746359370245518_);}
	.st24{fill:url(#SVGID_00000158744875730221277030000008392674128098210484_);}
	.st25{fill:url(#SVGID_00000035494446122285221060000016952593568448016514_);}
	.st26{fill:#C99DC2;}
	.st27{fill:#B25555;}
	.st28{fill:none;stroke:url(#SVGID_00000116234836457900850350000010525993848884663717_);stroke-miterlimit:10;}
	.st29{fill:url(#SVGID_00000033346507693381672690000017106701433690348932_);}
	.st30{fill:#840F20;}
	.st31{fill:#700A20;}
	.st32{fill:url(#SVGID_00000131369766571076204640000003262385053669458329_);}
	.st33{fill:url(#SVGID_00000078007949476514579640000011981228177557876364_);}
	.st34{fill:none;stroke:#1B1464;stroke-miterlimit:10;}
	.st35{clip-path:url(#SVGID_00000022521020010750088430000009856771505353602196_);}
	.st36{clip-path:url(#SVGID_00000057134145048611177120000017576164193723068598_);}
	.st37{fill:#C0D5E5;}
	.st38{fill:none;stroke:#6F95BC;stroke-miterlimit:10;}
	.st39{fill:#6F95BC;}
	.st40{clip-path:url(#SVGID_00000022521020010750088430000009856771505353602196_);fill:none;}
	.st41{opacity:0.6;fill:url(#SVGID_00000160153234900540432090000013783929214162879126_);}
	.st42{fill:url(#SVGID_00000059276779220181673410000017953157046604342958_);}
	.st43{fill:url(#SVGID_00000150091061225697945810000017950159458085443485_);}
	.st44{fill:url(#SVGID_00000049199533900816821530000012896321098555908488_);}
	.st45{fill-rule:evenodd;clip-rule:evenodd;fill:url(#SVGID_00000119819771054927649190000006432368485350182811_);}
	.st46{fill-rule:evenodd;clip-rule:evenodd;fill:url(#SVGID_00000163046370931052740230000006250302185873274004_);}
	.st47{fill:url(#SVGID_00000075125472674528783340000009704489656511256749_);}
	.st48{fill:url(#SVGID_00000090998067398463463820000005048333018717191298_);}
	.st49{fill:url(#SVGID_00000124866493698253261090000012138236285000098704_);}
	.st50{fill:url(#SVGID_00000003092119498047631160000011224620114564682942_);}
	.st51{fill:url(#SVGID_00000121275918095452526510000005114967964142201531_);}
	.st52{fill:url(#SVGID_00000116232994419612207890000017349755792582086025_);}
	.st53{fill:url(#SVGID_00000009577142608271001340000018035529324863066776_);}
	.st54{fill:url(#SVGID_00000000909530720213485760000002012485741099177127_);}
	.st55{fill:url(#SVGID_00000054953247533531982050000012076449170134974345_);}
	.st56{fill:url(#SVGID_00000163071221011883904140000014763672056784073402_);}
	.st57{fill:url(#SVGID_00000083058621064832129730000004512593843232229535_);}
	.st58{fill:url(#SVGID_00000126306421730443378840000008420302328127339965_);}
	.st59{fill:url(#SVGID_00000111894720683558036190000017229752873876470416_);}
	.st60{fill:url(#SVGID_00000122701264873029687640000015756622461561131948_);}
	.st61{fill:url(#SVGID_00000176035109576117856880000017135031998210417587_);}
	.st62{fill:url(#SVGID_00000108287100520868163830000009409285328771629225_);}
	.st63{opacity:0.5;fill:url(#SVGID_00000008858896799756380660000000326850028079806395_);}
	.st64{fill:url(#SVGID_00000026138482455506601170000001070158949955105188_);}
	.st65{fill:url(#SVGID_00000041254831339184254710000012767788983752158093_);}
	.st66{fill:url(#SVGID_00000134935993062790959110000007449194847107894675_);}
	.st67{fill:url(#SVGID_00000060711643342937320070000004415308717929182618_);}
	.st68{fill:none;stroke:url(#SVGID_00000119094413073691799330000002423071250527133318_);stroke-miterlimit:10;}
	.st69{fill:url(#SVGID_00000066479492843113063430000010316742762387676039_);}
	.st70{fill:url(#SVGID_00000118382053007775618430000005716358238333353351_);}
	.st71{fill:url(#SVGID_00000183248377490688651420000004046896539728383408_);}
	.st72{fill:url(#SVGID_00000029760962732310018970000011288899852279019681_);}
</style>
<path d="M-1538,852.7c0-34.4,27.9-62.3,62.3-62.3s54.6,20,54.6,54.5s-22.6,68.6-56.7,63.5C-1516.2,902.5-1538,887.2-1538,852.7z"/>
<radialGradient id="SVGID_1_" cx="5948.1538" cy="-3204.2942" r="11.2053" gradientTransform="matrix(-1 0 0 -1 4533.064 -1910.5044)" gradientUnits="userSpaceOnUse">
	<stop  offset="0" style="stop-color:#9C493C"/>
	<stop  offset="0.9823" style="stop-color:#CC6633"/>
</radialGradient>
<path class="st0" d="M-1407.2,1280.1h-15.4c0.5,8-0.5,21.1-0.5,21.1s3.6,5.9,5.1,6.4c1.5,0.4,10.7-6.4,10.7-6.4
	C-1408,1295.5-1407.7,1287.6-1407.2,1280.1z"/>
<path class="st1" d="M-1381.8,1139.3c-0.9-32.9-4.9-70.2-4.9-70.2l-21.9-10.1l-18.5,12.5l-5.6,3.8c0,0,1.8,21.3,0.2,33.2
	c-1.2,8.7,4.3,45.8,7.2,67.2c0,0,0,0,0,0c1.1,8,1.7,13.8,1.6,15.1c-0.6,5-7.8,19.7-8.6,31.9s5.7,36.3,5.7,36.3l0,0
	c0.8,3,3.1,12.4,4,18.5c0.1,0.8,0.3,6.1,0.4,7l14.9,0.1c0.9-11.5,2.8-26.5,2.8-26.5l0,0l0,0c0,0,3.4-32.6,7.2-41.6
	c3.8-9,8-14.8,9.9-19.7c0.2-0.4,0.3-0.9,0.5-1.6c0.1-0.2,0.2-0.5,0.2-0.7c0.2-0.8,0.5-1.7,0.7-2.7c0-0.1,0-0.2,0.1-0.2v0
	C-1383.8,1182.8-1381.1,1165.1-1381.8,1139.3z"/>
<g>
	
		<radialGradient id="SVGID_00000108285379267537925480000000954569599339484037_" cx="-1456.92" cy="-847.045" r="6.9726" gradientTransform="matrix(1 0 0 -1 0 446)" gradientUnits="userSpaceOnUse">
		<stop  offset="0" style="stop-color:#9C493C"/>
		<stop  offset="0.9823" style="stop-color:#CC6633"/>
	</radialGradient>
	<path style="fill:url(#SVGID_00000108285379267537925480000000954569599339484037_);" d="M-1448.6,1298.4l-13.9-3
		c0,0-0.7,2.9-2.7-7.7h16.4C-1448.9,1294.6-1449,1291.6-1448.6,1298.4z"/>
	
		<radialGradient id="SVGID_00000150797176873253471060000015264360800897096338_" cx="-1470.3356" cy="-809.6166" r="4.120000e-02" gradientTransform="matrix(1 0 0 -1 0 446)" gradientUnits="userSpaceOnUse">
		<stop  offset="0" style="stop-color:#9C493C"/>
		<stop  offset="0.9823" style="stop-color:#CC6633"/>
	</radialGradient>
	<path style="fill:url(#SVGID_00000150797176873253471060000015264360800897096338_);" d="M-1470.3,1255.6c-0.1,0-0.1,0-0.1,0
		C-1470.4,1255.6-1470.4,1255.6-1470.3,1255.6C-1470.3,1255.6-1470.3,1255.6-1470.3,1255.6z"/>
	
		<radialGradient id="SVGID_00000085944286289644019050000015528498883158122153_" cx="-1470.0867" cy="-810.8" r="0.9015" gradientTransform="matrix(1 0 0 -1 0 446)" gradientUnits="userSpaceOnUse">
		<stop  offset="0" style="stop-color:#9C493C"/>
		<stop  offset="0.9823" style="stop-color:#CC6633"/>
	</radialGradient>
	<path style="fill:url(#SVGID_00000085944286289644019050000015528498883158122153_);" d="M-1469.7,1258c-0.2-0.8-0.4-1.6-0.7-2.5
		c0,0,0,0,0,0v0L-1469.7,1258z"/>
</g>
<path class="st1" d="M-1441.4,1195.4c-7.9,8.8-15.2,5.1-18.2-1c-2.8-5.8-6.8-25.7-7.2-27.5c1.5,11.3,2.5,20.1,2.2,23.5
	c-1.3,11.7-9.4,22.9-11.5,35.4c-2.1,12.5,5.6,29.7,5.6,29.7s0,0,0,0c0,0,0,0,0,0l0.7,2.4c1.8,6.7,3.4,23.9,4.5,29.7
	c0,0,7.5,1.1,11.6,0.7c4.1-0.4,4.8-0.7,4.8-0.7c0.1-10.5,0.2-29.7,0.2-29.7s7.3-47.4,10.5-56.3c3.2-8.9,10-17.4,12.7-26
	C-1425.9,1176.4-1433.7,1186.9-1441.4,1195.4z M-1470.4,1255.6C-1470.4,1255.6-1470.4,1255.6-1470.4,1255.6c0.1,0,0.1,0,0.1,0
	C-1470.3,1255.6-1470.4,1255.6-1470.4,1255.6z"/>
<g>
	
		<linearGradient id="SVGID_00000170969036882513713020000008081715371957290624_" gradientUnits="userSpaceOnUse" x1="4547.6333" y1="-2737.6392" x2="4556.1704" y2="-2655.1118" gradientTransform="matrix(-7.440000e-02 -0.9972 0.9972 -7.440000e-02 1688.9283 5429.4834)">
		<stop  offset="5.586590e-03" style="stop-color:#9C0A00"/>
		<stop  offset="1" style="stop-color:#D10F20"/>
	</linearGradient>
	<polygon style="fill:url(#SVGID_00000170969036882513713020000008081715371957290624_);" points="-1364.4,1118.7 -1301.6,1111.5 
		-1300.8,1108.6 -1314.6,1059.4 -1376.7,1076.9 -1377.3,1079 	"/>
	<polygon class="st6" points="-1314.5,1059.4 -1315.5,1062.3 -1301.6,1111.5 -1300.8,1108.6 	"/>
	<polygon class="st7" points="-1302.3,1109.7 -1301.8,1107.3 -1314.3,1059.4 -1300.4,1107.8 -1301.6,1111.5 -1361.1,1118.5 	"/>
</g>
<radialGradient id="SVGID_00000015344444578192972550000012216201140658021533_" cx="-1443.2513" cy="-509.7968" r="60.3418" gradientTransform="matrix(1 0 0 -1 0 446)" gradientUnits="userSpaceOnUse">
	<stop  offset="0" style="stop-color:#9C493C"/>
	<stop  offset="0.9823" style="stop-color:#CC6633"/>
</radialGradient>
<path style="fill:url(#SVGID_00000015344444578192972550000012216201140658021533_);" d="M-1467.9,898.8c0,0,4.1,14.2,5.2,21.3
	c0,0,6,10.8,11.5,16c5.6,5.2,26.5,15.8,26.5,15.8s-1.7-16.3-6.6-22.4c0,0-3.8-2-8.6-6.1c-4.8-4.2-6.4-19.1-6.4-19.1
	S-1465.2,899.8-1467.9,898.8z"/>
<radialGradient id="SVGID_00000098932411501667280820000005179029246421416353_" cx="-1350.7744" cy="-630.0167" r="60.3933" gradientTransform="matrix(1 0 0 -1 0 446)" gradientUnits="userSpaceOnUse">
	<stop  offset="0" style="stop-color:#9C493C"/>
	<stop  offset="0.9823" style="stop-color:#CC6633"/>
</radialGradient>
<path style="fill:url(#SVGID_00000098932411501667280820000005179029246421416353_);" d="M-1408.7,1016.6c0,0,0.8,4.2,7.2,13.5
	c6.4,9.3,27.5,25.3,29.2,30.4s-1.6,16.1-1.1,17.6c0.6,1.5,5.1,2.4,7.6,6.5c2.5,4.1,2.4,12.7,3.7,12.4c1.3-0.3,3.4-5.2,2.8-9
	c-0.5-3.5-2-3.8-2.6-5.8c0,0,0,0,0,0c-0.1-0.2-0.1-0.4-0.1-0.5c-0.6-2.7,0.5-8.6,0.9-9c0.4-0.4,1.9,0,1.9,0l18.8-5.8
	c0,0-13.9-7.8-20.2-13.9c-6.2-6.1-24.2-47.9-24.2-47.9C-1391.7,1005.9-1408.7,1016.6-1408.7,1016.6z"/>
<radialGradient id="SVGID_00000106131175027087755790000012572278044530760109_" cx="-1524.1686" cy="-653.7965" r="90.0075" gradientTransform="matrix(1 0 0 -1 0 446)" gradientUnits="userSpaceOnUse">
	<stop  offset="0" style="stop-color:#9C493C"/>
	<stop  offset="0.9823" style="stop-color:#CC6633"/>
</radialGradient>
<path style="fill:url(#SVGID_00000106131175027087755790000012572278044530760109_);" d="M-1547.3,1074.7L-1547.3,1074.7
	c0.1,4.2,2.5,12.5,4.4,12.9c2,0.5,3.7,2.3,4.4,2.7s2,1,3.3,2c1.3,1,3.3,1.1,4.6,1.3c1.4,0.2,3.9,2.1,3.9,2.1
	c2.6,0.1,5.8-2.1,7.2-3.2c0.5-0.4,4.9-6,1.6-7.8c4.6,1.1,4.8-4.4,4.8-4.4s0.3-0.7,0.6-1.8c0.9-2.6,2.3-7.1,2.2-8.7
	c-0.2-2.4-4.7-12.3-4.7-12.3s3.7-12.8,11.2-22.4c7.5-9.6,13.3-17.3,13.3-17.3c-11.4-17.9-23.2-19.2-23.2-19.2s-3.2,7-4.5,15.2
	s-4.5,30.4-8.5,38c-4.1,7.6-20.4,18.4-20.7,22.1C-1547.3,1074.2-1547.4,1074.4-1547.3,1074.7z"/>
<path class="st11" d="M-1383.2,1009.2c0,0-10,16.1-12.6,27.5l-7-8.2l-1.1-17.2l19-6.2L-1383.2,1009.2z"/>
<linearGradient id="SVGID_00000135692593954413622540000015798087219497263763_" gradientUnits="userSpaceOnUse" x1="-1368.2916" y1="-630.5785" x2="-1444.0596" y2="-447.6638" gradientTransform="matrix(1 0 0 -1 0 446)">
	<stop  offset="0" style="stop-color:#39B54A"/>
	<stop  offset="1" style="stop-color:#009245"/>
</linearGradient>
<path style="fill:url(#SVGID_00000135692593954413622540000015798087219497263763_);" d="M-1402.5,944.9c3.5,1.9,12,38.9,13.4,41
	c1.4,2.1,3.2,4.8,3.7,6c0.5,1.1,1.3,5.7,1.3,7.8s2.2,3.5,2.4,4.3s-1.9,4.1-1.9,4.1l-1.3-3c0,0-15.8,6.6-20.8,11.9
	c-5,5.3-13.8-13.5-13.8-13.5L-1402.5,944.9z"/>
<path class="st1" d="M-1380.7,1064.5c0,0-12.4,19.4-19.9,24.6c-7.5,5.1-72.5-35.9-72.5-35.9l41.8-2.1l22.6-2.6L-1380.7,1064.5z"/>
<path class="st1" d="M-1470.3,1255.6C-1470.3,1255.6-1470.3,1255.6-1470.3,1255.6C-1470.3,1255.6-1470.4,1255.6-1470.3,1255.6
	C-1470.4,1255.6-1470.4,1255.6-1470.3,1255.6z"/>
<path class="st1" d="M-1416.7,1141.8c0,0,0,0.2-0.1,0.5c-3.2,15.8-7.2,28.6-8.6,33.3c0,0,0,0,0,0l0,0c-0.5,0.7-8.3,11.2-15.9,19.7
	c-7.9,8.8-15.2,5.1-18.2-1c-2.8-5.8-6.8-25.7-7.2-27.5c0,0,0-0.1,0-0.1c0,0,0,0,0-0.1c0,0,0,0,0,0c-3.8-27.5-10.8-69.1-9-80
	c2.6-15.4,9-34.8,9-34.8s26.7,7.3,39.6,19.4c7.8,7.3,14.1,16.9,14.5,28.8C-1412.2,1114.3-1414.2,1129-1416.7,1141.8z"/>
<linearGradient id="SVGID_00000151540845378870937330000016594231670301932164_" gradientUnits="userSpaceOnUse" x1="-1520.7285" y1="-761.693" x2="-1419.7905" y2="-534.5827" gradientTransform="matrix(1 0 0 -1 0 446)">
	<stop  offset="0" style="stop-color:#39B54A"/>
	<stop  offset="1" style="stop-color:#009245"/>
</linearGradient>
<path style="fill:url(#SVGID_00000151540845378870937330000016594231670301932164_);" d="M-1431.2,929.5c0,0,13.1,8.4,18.1,10.5
	c4.9,2,10.7,4.9,10.7,4.9s-1.2,10.9-0.7,13.5c0.5,2.6,10.5,10.2,12.9,13.9s-1.3,38.3,6,59.8c0,0,6.4,32,10.9,45.5
	c0,0-8.3,11.4-26.6,6.7l-8.7-25.2c0,0,0.1,22.4-2.9,30.1c0,0-26.4,1.5-40-4.9c-13.7-6.4-28.9-3.2-28.9-3.2s3.1-38.2,8-49.1l0.3-4.8
	l1.3-4.1c0,0,2.1-5.7,1.7-24.1c0,0-1.1,4.8-5.4,4.5c0,0-0.1,1.4-0.2,2.5s-3.9,3.4-4,4.2c-0.1,0.8-1.2,2.1-1.7,3.2s-6.7,7.9-7.4,8
	s-4.3-0.9-4.3-0.9l1.9-2.5c0,0-8.5-14.6-23.2-19.2l-1,2.5c0,0-0.9-4.4-1.2-5.5s3.6-3.4,4.2-3.8s1.8-3.5,2.7-3.5s3.8-0.8,3.8-1.5
	c0-0.7,0.7-3.2,1.7-3.7c1-0.5,2.5-2.1,3.9-6.2s6.4-18.4,10.2-27.5c3.8-9.1,14-15.4,16.3-17.6s9.7-15.5,9.7-15.5l0.8,3.8
	c0,0,9.9,14.2,20.8,20c10.9,5.8,15.7,6.9,15.7,6.9S-1426.3,937.5-1431.2,929.5z"/>
<polygon class="st14" points="-1410.7,950.8 -1421.9,947 -1418.3,933.4 -1414.9,934 "/>
<path class="st14" d="M-1441.3,921.7c0,0,6.2,2.9,7.4,3.6c1.2,0.7,4.7,11.7,4.7,11.7s-1.2-4.3-5.3-6.7
	C-1438.3,928.2-1439.6,924.3-1441.3,921.7z"/>
<linearGradient id="SVGID_00000084495629685430968640000003009384124594549120_" gradientUnits="userSpaceOnUse" x1="-1366.4843" y1="-629.8299" x2="-1442.2522" y2="-446.9153" gradientTransform="matrix(1 0 0 -1 0 446)">
	<stop  offset="0" style="stop-color:#39B54A"/>
	<stop  offset="1" style="stop-color:#009245"/>
</linearGradient>
<path style="fill:url(#SVGID_00000084495629685430968640000003009384124594549120_);" d="M-1423.2,953.7c0,0,2.6-13.5,8.5-18.9
	l4,16.1l-3.2-17.4c0,0-15.5-9.4-18.4-10.2s-10.6-4.2-10.6-4.2s1.1,2.1,1.8,2.8s4.2,1.9,6.8,3.8s6.5,13.9,8.2,21.2L-1423.2,953.7z"/>
<path class="st1" d="M-1403,1298.4c0,0,2.6-7.4-0.2-11.3c-3-4.2-8.5-2.8-10.6,0c-1.7,2.2,1.2,11.3,1.2,11.3l-5.8-3.3
	c-3.5,0.1-6.3,2.9-6.5,6.3c-0.2,2.3-0.3,4.7-0.5,5.8c-0.4,2.6-3.8,17.9-3.8,19.2c0,0,41.7,3.3,72.4,3.3c0,0-4.9-12.5-27.4-14.6
	C-1386.6,1310-1399.4,1299.2-1403,1298.4z"/>
<path class="st1" d="M-1448.8,1294.3l0.4,0.8c0.9,1.8,1.3,3.8,1.3,5.8c-0.1,2.4-0.1,6.2,0.3,10.7c0.6,7.8,0.8,15.6,0.8,15.6
	s-6.1,5.2-8.7,4.7s-20.3-14.3-29.3-2.8c0,0,0.9-10.1,10.5-11.4c-0.7-5,6.1-18,8.5-19.2c0-3,0.2-9.4,5-9.9c3.3-0.4,6.4,2,5.6,5.4
	c2.4-2,4,1.2,4.5,1.9C-1448.3,1297.7-1448.8,1294.3-1448.8,1294.3z"/>
<linearGradient id="SVGID_00000160157744029307896090000002364709853845744014_" gradientUnits="userSpaceOnUse" x1="5889.314" y1="-3240.5945" x2="5963.3945" y2="-3240.5945" gradientTransform="matrix(-1 0 0 -1 4533.064 -1910.5044)">
	<stop  offset="0" style="stop-color:#FFC4BA"/>
	<stop  offset="1" style="stop-color:#FFE7E5"/>
</linearGradient>
<path style="fill:url(#SVGID_00000160157744029307896090000002364709853845744014_);" d="M-1359.5,1325.5c0,0,3.2,3.1,3.2,5.7
	c0,1.1-0.1,2.4-0.2,3.4c-0.2,1.3-1.1,3.6-2.4,3.6h-68.8c-1.5,0-2.6-1.2-2.6-2.7c0.1-4,0.4-11.2,1.6-13.6c0,0,1.9,2.6,4.3,3.2
	c1.9,0.4,12.7,0.5,17.3,0.6c1.3,0,2.6,0.6,3.3,1.7l0.3,0.5c0,0,9.6,0.9,26.4,1.1S-1359.5,1325.5-1359.5,1325.5z"/>
<linearGradient id="SVGID_00000031908280380132396200000007911114358405481875_" gradientUnits="userSpaceOnUse" x1="5977.5342" y1="-3240.8499" x2="6019.084" y2="-3240.8499" gradientTransform="matrix(-1 0 0 -1 4533.064 -1910.5044)">
	<stop  offset="0" style="stop-color:#FFC4BA"/>
	<stop  offset="1" style="stop-color:#FFE7E5"/>
</linearGradient>
<path style="fill:url(#SVGID_00000031908280380132396200000007911114358405481875_);" d="M-1446,1327.2l1.5,10h-41.6
	c0,0,1-7.7,2.1-9s7.3-5.3,13.5-4.9c6.2,0.5,12.8,5.3,17.1,5.8C-1449,1329.7-1446,1327.2-1446,1327.2z"/>
<path class="st18" d="M-1445,911.7c0,0-10.3,9.2-19.7-0.8l-2.8-10.7c0,0,10.3,4.1,21.3,4.7L-1445,911.7z"/>
<linearGradient id="SVGID_00000049206598472805230460000005056161253052953752_" gradientUnits="userSpaceOnUse" x1="6034.624" y1="-2931.7444" x2="6034.624" y2="-2909.366" gradientTransform="matrix(-1 0 0 -1 4533.064 -1910.5044)">
	<stop  offset="0" style="stop-color:#FFFFFF"/>
	<stop  offset="1" style="stop-color:#885286"/>
</linearGradient>
<path style="opacity:0.5;fill:url(#SVGID_00000049206598472805230460000005056161253052953752_);enable-background:new    ;" d="
	M-1504.4,1003.1c11.2,7.8,16.4,18.2,16.4,18.2l-4.3-0.9c0,0-2.7-5.2-7-9.7c-4.3-4.5-15.9-7.9-15.9-7.9l0.4-2
	C-1514.8,1000.7-1515.6,995.3-1504.4,1003.1z"/>
<linearGradient id="SVGID_00000033371282015086242640000005434517590373808290_" gradientUnits="userSpaceOnUse" x1="-1470.345" y1="-809.6382" x2="-1470.345" y2="-809.5948" gradientTransform="matrix(1 0 0 -1 0 446)">
	<stop  offset="0" style="stop-color:#9F3D59"/>
	<stop  offset="1" style="stop-color:#FFFFFF"/>
</linearGradient>
<path style="opacity:0.5;fill:url(#SVGID_00000033371282015086242640000005434517590373808290_);enable-background:new    ;" d="
	M-1470.3,1255.6C-1470.3,1255.6-1470.3,1255.6-1470.3,1255.6C-1470.3,1255.6-1470.4,1255.6-1470.3,1255.6
	C-1470.4,1255.6-1470.4,1255.6-1470.3,1255.6z"/>
<path class="st11" d="M-1470.4,1255.6C-1470.4,1255.6-1470.4,1255.6-1470.4,1255.6C-1470.4,1255.6-1470.4,1255.6-1470.4,1255.6
	L-1470.4,1255.6z"/>
<path class="st11" d="M-1470.3,1255.6C-1470.3,1255.6-1470.3,1255.6-1470.3,1255.6C-1470.3,1255.6-1470.4,1255.6-1470.3,1255.6
	C-1470.4,1255.6-1470.4,1255.6-1470.3,1255.6z"/>
<path class="st21" d="M-1356.3,1331.6c0,0-5.9,0.9-15,1.3s-58.7-2.6-58.7-2.6l-0.3,2.3c0,0,50.5,3.4,59.1,2.7c8.6-0.7,15-1.2,15-1.2
	L-1356.3,1331.6z"/>
<path class="st21" d="M-1445,1334c0,0-14.8-0.7-23.5-1.1c-8.8-0.3-16.9,0.5-16.9,0.5l-0.3,2.1c0,0,31-0.8,34.1-0.6
	c3.1,0.2,6.7-0.2,6.7-0.2V1334z"/>
<path class="st11" d="M-1373.3,1078.2c0.6,1.5,5.1,2.4,7.6,6.5c2.5,4.1,2.4,12.7,3.7,12.4c1.3-0.3,3.4-5.2,2.8-9
	c-0.5-3.5-2-3.8-2.6-5.8c0,0,0,0,0,0c-0.2-0.3-1.9-2.7-4.1-4.1C-1368.4,1076.7-1373.3,1078.2-1373.3,1078.2z"/>
<radialGradient id="SVGID_00000153666094500279306200000015610806694839831171_" cx="-1466.0734" cy="-468.5931" r="73.9107" gradientTransform="matrix(1 0 0 -1 0 446)" gradientUnits="userSpaceOnUse">
	<stop  offset="0" style="stop-color:#9C493C"/>
	<stop  offset="0.9823" style="stop-color:#CC6633"/>
</radialGradient>
<path style="fill:url(#SVGID_00000153666094500279306200000015610806694839831171_);" d="M-1447.9,830.3c0,0,14.9,1.3,19.9,10
	c4.9,8.8,5.8,28,7.7,31c1.9,3,5.7,2.5,5.6,11.9c-0.1,9.4-7.2,16.8-9.3,20.6c-2.1,3.8-3.6,6.2-9.2,6.8c-5.6,0.6-23.6-1.1-34.3-8
	c-10.7-6.9-15.4-24-21.9-34.8C-1496.1,857.2-1480.2,830.2-1447.9,830.3z"/>
<radialGradient id="SVGID_00000154395494053472152390000009356248791082729405_" cx="-1461.7169" cy="-452.102" r="78.6301" gradientTransform="matrix(1 0 0 -1 0 446)" gradientUnits="userSpaceOnUse">
	<stop  offset="0" style="stop-color:#9C493C"/>
	<stop  offset="0.9823" style="stop-color:#CC6633"/>
</radialGradient>
<path style="fill:url(#SVGID_00000154395494053472152390000009356248791082729405_);" d="M-1473.7,886.5c0,0-9.3-6.9-17.3-3.6
	c0,0-2,5.5-1.6,8.8c0.4,3.2,6.8,10.6,11.4,11.8c4.6,1.2,9.9-1.7,10.4-4.1C-1470.4,897-1473.7,886.5-1473.7,886.5z"/>
<linearGradient id="SVGID_00000070103334344702730840000007254741152660357505_" gradientUnits="userSpaceOnUse" x1="5959.144" y1="-2762.8403" x2="6027.084" y2="-2762.8403" gradientTransform="matrix(-1 0 0 -1 4533.064 -1910.5044)">
	<stop  offset="0" style="stop-color:#FFB159"/>
	<stop  offset="1" style="stop-color:#FFA73B"/>
</linearGradient>
<path style="fill:url(#SVGID_00000070103334344702730840000007254741152660357505_);" d="M-1426.1,845c0,0-0.1-2.3-0.5-4.4
	c-6.8-6.9-14-10.8-14-10.8s-2.8-2.4-4.2-2.3c-1.4,0.1-4.5,2.7-4.5,2.7s-22.2-0.1-32.6,11.5c-10.4,11.5-12.1,23.7-12.1,23.7l0.4,1.8
	c0,0,3.9,4,3.9,7.9c0,3.9,4,0.7,4,0.7l-0.3-1.8c0,0,2.9-9.8,12.3-23.7c9.4-13.9,25.6-17.7,28.5-18.5
	C-1438.1,829.8-1426.1,845-1426.1,845z"/>
<linearGradient id="SVGID_00000137842728710323430190000005204549128331050146_" gradientUnits="userSpaceOnUse" x1="-1455.2545" y1="-416.88" x2="-1455.2545" y2="-405.38" gradientTransform="matrix(1 0 0 -1 0 446)">
	<stop  offset="0" style="stop-color:#600E19"/>
	<stop  offset="0.984" style="stop-color:#741B17"/>
</linearGradient>
<path style="fill:url(#SVGID_00000137842728710323430190000005204549128331050146_);" d="M-1444.9,851.5c0,0-0.6,2.2-1.9,4.1
	c0.8-2,1.2-4.3,1.2-4.3c-5.2,2.8-14.5,1.4-16.2,3c-2.3,2.2-3.8,8.5-3.8,8.5s2.6-2.3,5.3-3.4c2.8-1.1,12.7-2.2,12.7-2.2
	C-1447.6,857.1-1444.3,855.3-1444.9,851.5z"/>
<path class="st26" d="M-1445.8,865.2c0.1,0.1,0.1,0.1,0.1,0.2C-1445.7,865.3-1445.7,865.2-1445.8,865.2
	C-1445.8,865.2-1445.8,865.2-1445.8,865.2z"/>
<path d="M-1446.3,869c1.5,2.8-1.5,5.6-4.2,3.7c-0.2-0.1-0.3-0.3-0.4-0.5c-1.7-2.8,1.3-5.7,4-4
	C-1446.8,868.4-1446.5,868.7-1446.3,869z"/>
<path d="M-1422.8,865.8c0,1.3-1.1,2.3-2.4,2.2c-1.3,0-2.3-1.1-2.2-2.4s1.1-2.3,2.4-2.2C-1423.8,863.5-1422.8,864.6-1422.8,865.8z"/>
<path class="st27" d="M-1446.9,884.1c-0.2,3.3-3.2,5.9-6.5,5.6s-5.9-3.2-5.6-6.5c0.2-3.3,3.2-5.9,6.5-5.6
	C-1449.1,877.9-1446.6,880.8-1446.9,884.1z"/>
<linearGradient id="SVGID_00000110451710060374314360000007388233115236214422_" gradientUnits="userSpaceOnUse" x1="-1488.4113" y1="-443.457" x2="-1476.5107" y2="-443.457" gradientTransform="matrix(1 0 0 -1 0 446)">
	<stop  offset="0" style="stop-color:#600E19"/>
	<stop  offset="0.984" style="stop-color:#741B17"/>
</linearGradient>
<path style="fill:none;stroke:url(#SVGID_00000110451710060374314360000007388233115236214422_);stroke-miterlimit:10;" d="
	M-1487.8,892c0,0-1.9-9,11.1-2.3"/>
<g>
	
		<linearGradient id="SVGID_00000148646120354557325320000005713449515126521749_" gradientUnits="userSpaceOnUse" x1="-1432.1135" y1="-432.0156" x2="-1425.5575" y2="-430.4065" gradientTransform="matrix(1 0 0 -1 0 446)">
		<stop  offset="0" style="stop-color:#600E19"/>
		<stop  offset="0.984" style="stop-color:#741B17"/>
	</linearGradient>
	<path style="fill:url(#SVGID_00000148646120354557325320000005713449515126521749_);" d="M-1432.8,871.1c2.2,1.3,4,2.9,5.8,4.6
		c1,0.9,1.9,2.2,2.1,3.7c0.1,0.8,0,1.6-0.3,2.3c-0.3,0.7-0.9,1.2-1.4,1.6l0,0c-0.8,0.4-1.6,0.8-2.4,1.1c0.5-0.7,1.1-1.4,1.8-2l0,0
		c0.7-0.9,0.9-1.8,0.7-2.7c-0.3-0.9-0.8-1.8-1.6-2.6C-1430,875.3-1431.6,873.3-1432.8,871.1z"/>
</g>
<g>
	<path class="st30" d="M-1421.1,893.6c-0.5-2.2-2.6-1.5-4.1-0.6c-0.1,0.1-0.3,0.1-0.4,0.1c-2.2-0.4-4.6,0.3-6.8,0.8
		c-3.2,0.5-6.3,0.8-9.5,0.7l0.3-0.8c1.9,0.9,3.9,1.6,5.8,2.3c1.8,0.7,3.7,1.3,5.6,0.9c1.3-0.1,2.1-1.2,3.4-1.5c1-0.3,2.4,0.2,2.9,1
		c0.4,0.4,0.7,0.8,0.8,0.8c0.3,0,0.7-0.2,1-0.5c0.7-0.6,1-1.6,1.1-2.6c0-0.1,0.2-0.1,0.2,0c0.4,1.6-0.4,4-2.3,4.3
		c-1.1,0-1.8-1.3-2.7-1.3c-0.9,0-1.3,0.8-2.2,1.3c-0.6,0.3-1.2,0.5-1.8,0.6c-4.6,0.7-8.6-2.3-12.2-4.6c-0.4-0.3-0.1-0.9,0.3-0.8
		c1.3,0.3,2.7,0.3,4,0.2c1.7-0.2,3.3-0.8,4.9-1.4c2.4-1,4.9-1.5,7.6-0.8l-0.6,0c1.3-0.6,3.6-1.2,4.6,0.3c0.3,0.5,0.4,1,0.3,1.5
		c0,0.1-0.1,0.1-0.1,0.1C-1421.1,893.7-1421.1,893.7-1421.1,893.6L-1421.1,893.6z"/>
</g>
<g>
	<path class="st31" d="M-1442.9,894.2c3.6-0.4,6.5-1.9,9.1-4.3c2.4-2.1,7.8-7.3,10-2.2l-1.5-0.2c0.2-0.3,0.4-0.6,0.7-1
		c1.2-1.5,3.2-1.2,3.8,0.6c0.6,1.6,0.1,3.3-0.7,4.7c0.4-1.5,0.6-4.3-1.1-4.8c-0.8,0.2-0.8,0.8-1.2,1.5l-0.8,1.3
		c-0.4-0.7-0.9-2.4-1.9-2.4c-2.3,0.7-4,2.4-6.1,4C-1435.4,893.6-1439.4,895-1442.9,894.2L-1442.9,894.2z"/>
</g>
<linearGradient id="SVGID_00000148655075544656897860000001738213836034837909_" gradientUnits="userSpaceOnUse" x1="-1427.6085" y1="-408.41" x2="-1427.6085" y2="-401.59" gradientTransform="matrix(1 0 0 -1 0 446)">
	<stop  offset="0" style="stop-color:#600E19"/>
	<stop  offset="0.984" style="stop-color:#741B17"/>
</linearGradient>
<path style="fill:url(#SVGID_00000148655075544656897860000001738213836034837909_);" d="M-1431.4,849.7c0,0-1.2,3.5,2.1,4.7
	c0,0,3.3-2.7,5.1-2c0,0,0.9-1.5,0.4-3.2s-1.6-1.6-1.6-1.6s-5.1,0.5-5.6,1.9c0,0,0,2.7,1.1,4.2
	C-1429.8,853.7-1431.1,852.2-1431.4,849.7z"/>
<path class="st14" d="M-1462.2,941.6l3,17.4c0,0,17.7-14.2,32.1-8.8l-1-1.1l-24.1-12.6L-1462.2,941.6z"/>
<linearGradient id="SVGID_00000070839035289808288390000002947321821233083067_" gradientUnits="userSpaceOnUse" x1="-1390.9639" y1="-639.97" x2="-1466.7319" y2="-457.0554" gradientTransform="matrix(1 0 0 -1 0 446)">
	<stop  offset="0" style="stop-color:#39B54A"/>
	<stop  offset="1" style="stop-color:#009245"/>
</linearGradient>
<path style="fill:url(#SVGID_00000070839035289808288390000002947321821233083067_);" d="M-1463.5,915.8c0,0-7.4,11.8-11.8,19.7
	c0,0,3.2,16.1,16.1,23.5c0,0,5.5-20.2,7.2-21.2c1.7-1,10.4,4.7,16.8,7.8c6.4,3.1,11.3,6.6,11.3,6.6l-2.3-5.3c0,0-14.3-6.6-23.9-13.5
	C-1459.5,926.5-1463.5,915.8-1463.5,915.8z"/>
<g>
	<path class="st14" d="M-1423.2,953.7c3.4,3.1,6.6,6.5,9.7,9.9c3.1,3.8,6.8,7.7,8,12.6c0.4,4.4,0.3,8.7,0.3,13.1
		c-0.3,23.1-1.4,46.1-3.4,69.1c0-21.3,0.9-47.8,1.5-69.1c0.1-4.3,0.3-8.6,0-12.8c-1.1-4.5-4.4-8.5-7.2-12.2
		C-1417.1,960.6-1420.1,957.1-1423.2,953.7L-1423.2,953.7z"/>
</g>
<g>
	<path class="st14" d="M-1486.9,944.8c6.6,2.5,12.2,7.1,16.7,12.4c4.5,5.4,6.7,12.6,6.7,19.6h-0.1c-1.4-8-3.9-16.2-9.4-22.3
		C-1477.1,950.7-1482.5,948.1-1486.9,944.8L-1486.9,944.8z"/>
</g>
<g>
	<path class="st14" d="M-1403.3,957.7c-0.5-4.3-0.5-8.7,0.8-12.8C-1402.4,949.2-1402.4,953.5-1403.3,957.7L-1403.3,957.7z"/>
</g>
<path class="st34" d="M-1411.9,1299.4c0,0,14.9,8.8,18.9,16.8c0,0,1.7-3.3,8.8-0.9"/>
<path class="st34" d="M-1455.3,1295.2c0,0-2.2,1.1-2.3,3.7c0,0-6.3,6.1-7.4,17.3c0,0-3.9-2-8.5,1.5"/>
<g>
	<path class="st14" d="M-1503,983.6c2.4-1,4.6,0.4,6.7,1.5c2.8,1.1,5.2,3.1,6.6,5.8c0,0,0,0.1-0.1,0.1c-0.6-0.4-1.1-0.8-1.6-1.2
		c-2.1-1.5-3.7-3.7-6-4.8c-1.9-0.5-3.7-0.9-5.6-1.2C-1503,983.7-1503,983.6-1503,983.6L-1503,983.6z"/>
</g>
<g>
	<path class="st14" d="M-1508.2,988.8c2.8,0,5.4,1,7.7,2.4c4.2,1.7,8.4,4,10.7,8c0,0,0,0.1-0.1,0.1c-3.5-2.8-6.7-5.8-10.8-7.8
		c-2.6-0.8-5.1-1.5-7.6-2.6C-1508.2,988.8-1508.2,988.8-1508.2,988.8L-1508.2,988.8z"/>
</g>
<g>
	<path class="st14" d="M-1475.3,1005.4c-1.1-1-1.8-2.1-2.3-3.4c-1.5-1.8-3.5-3-4.6-5.2c0,0,0-0.1,0.1-0.1c0.9,0.4,1.6,1,2.3,1.6
		c1,1,1.6,2.3,2.4,3.4C-1476.3,1002.8-1475.3,1003.9-1475.3,1005.4C-1475.2,1005.4-1475.2,1005.5-1475.3,1005.4L-1475.3,1005.4z"/>
</g>
<g>
	<defs>
		<rect id="SVGID_00000105394392853324040640000004028784663765552800_" width="527.7" height="446.2"/>
	</defs>
	<clipPath id="SVGID_00000061467769135013513990000009420683623588448140_">
		<use xlink:href="#SVGID_00000105394392853324040640000004028784663765552800_"  style="overflow:visible;"/>
	</clipPath>
	<g style="clip-path:url(#SVGID_00000061467769135013513990000009420683623588448140_);">
		<g>
			<defs>
				<rect id="SVGID_00000031904226728679844870000013758435505782278067_" width="525.8" height="446.2"/>
			</defs>
			<clipPath id="SVGID_00000093868499725669198200000009299497000914719899_">
				<use xlink:href="#SVGID_00000031904226728679844870000013758435505782278067_"  style="overflow:visible;"/>
			</clipPath>
			<g style="clip-path:url(#SVGID_00000093868499725669198200000009299497000914719899_);">
				<g>
					<ellipse class="st37" cx="480.5" cy="250.6" rx="19.4" ry="19.4"/>
					<ellipse class="st37" cx="63.4" cy="138.8" rx="12.6" ry="12.6"/>
					
						<ellipse transform="matrix(0.9924 -0.1233 0.1233 0.9924 -7.7205 51.7455)" class="st37" cx="414.2" cy="88.3" rx="38.9" ry="38.9"/>
					<path class="st37" d="M87.4,445.6h354.7c16-10.7,38.7-22.9,47.2-47.8c20.1-58.9-27.3-79.8-53.1-109
						c-25.8-29.2,27.6-41.2,20.5-104.1c-3.7-32.3-46.9-61.8-91-46.3s-50.6-2.9-71-40.6c-23.8-43.8-125.4-67.5-184.4,11.2
						c-58.9,78.7-2.1,138.3-8.8,166.5c-6.7,28.1-54.2,42.6-57.5,96.8C42,403.7,53.6,431.8,87.4,445.6z"/>
				</g>
				<g>
					<g>
						<path class="st38" d="M131.2,443c6.9-4.9,7.6-36-20.7-42.3c-14.4-3.2-12.1-10.4-15-19.7c-2.9-9.3-6.6-10-14.8-11.2
							s-2.1-12.5-11.8-19s-22.9-7-27.8,7.2c-4.1,12,7.6,17.4,10,23c2.4,5.6-4.6,13.2,3.9,21.6c8.5,8.5,17.6,2.1,17.7,11
							s4.1,25.2,12.7,28.6C96,446.3,125.7,446.9,131.2,443z"/>
						<g>
							<g>
								<path class="st39" d="M122.6,445.5c-3.8-4.5-7.7-8.9-11.4-13.3c-9.4-11.1-18.5-22.5-27.5-34c-6.6-8.5-13.2-17.1-19.5-25.9
									c-0.6-0.8-1.9,0-1.3,0.8c10.6,14.5,21.6,28.7,32.8,42.7c7.1,8.8,14.4,17.6,21.8,26.2c1.3,1.5,2.7,3,4,4.6
									C122.2,447.3,123.2,446.2,122.6,445.5L122.6,445.5z"/>
							</g>
						</g>
					</g>
					<g>
						<path class="st38" d="M100.6,392.9c0.8-6.1,1.7-12.1,2.3-17.7c2.2-22.7-35.8-16.3-48.3-45.4s29.6-28.4,10.5-48.3
							c-18.1-18.8-18-53.2,1.9-63.1c27.7-13.7,52.6,9.5,55.9,32c2.6,17.4-9.1,29.5,21.2,42.2s25.6,28.6,19.4,58.8
							c-6.2,30.3,14.3,19.2,30.2,44.7c12.6,20.2-5.1,40.9-13,48.6l-61.4,1"/>
						<g>
							<g>
								<g>
									<path class="st39" d="M169.5,443.8c-0.7-1.5-1.3-3.1-2-4.6c-1.8-4.2-3.6-8.4-5.5-12.6c-2.7-6.3-5.5-12.6-8.2-18.9
										c-3.4-7.9-6.9-15.7-10.4-23.6c-3.9-8.8-7.8-17.6-11.6-26.4c-4.1-9.2-8.2-18.5-12.3-27.7c-4-9-8.1-18.1-12.2-27.1
										c-3.8-8.3-7.6-16.7-11.4-25c-3.2-7-6.5-14-9.8-20.9c-2.5-5.2-4.9-10.3-7.6-15.4c-0.5-0.9-0.9-1.8-1.4-2.7
										c-0.5-0.9-1.8-0.1-1.3,0.8c2.4,4.5,4.7,9.1,6.9,13.7c3.2,6.5,6.2,13.1,9.3,19.7c3.7,8,7.4,16,11,24
										c4.1,8.9,8.1,17.9,12.1,26.8c4.1,9.2,8.2,18.4,12.3,27.6c4,9,8,18,11.9,27c3.6,8.1,7.1,16.2,10.7,24.4
										c3,6.8,5.9,13.5,8.9,20.3c2.1,4.8,4.1,9.5,6.2,14.3c1,2.2,1.8,4.5,2.9,6.7c0.1,0.1,0.1,0.2,0.1,0.3
										C168.6,445.5,169.9,444.7,169.5,443.8L169.5,443.8z"/>
								</g>
							</g>
							<g>
								<g>
									<g>
										<path class="st39" d="M112.2,315.2c-12-0.7-24-1.3-36-2c-1.7-0.1-3.4-0.2-5.2-0.3c-1,0-1,1.5,0,1.5c12,0.7,24,1.3,36,2
											c1.7,0.1,3.4,0.2,5.2,0.3C113.1,316.8,113.1,315.3,112.2,315.2L112.2,315.2z"/>
									</g>
								</g>
								<g>
									<g>
										<path class="st39" d="M153.7,409c-9.5-1.1-19-2.1-28.4-3.2c-1.3-0.1-2.7-0.3-4-0.5c-1-0.1-0.9,1.4,0,1.5
											c9.5,1.1,19,2.1,28.4,3.2c1.3,0.1,2.7,0.3,4,0.5C154.7,410.6,154.7,409.1,153.7,409L153.7,409z"/>
									</g>
								</g>
							</g>
							<g>
								<g>
									<path class="st39" d="M156.2,306.9c-2.7,6.1-5.5,12.3-8.2,18.4c-4.3,9.7-8.7,19.5-13,29.2c-1,2.2-2,4.5-3,6.7
										c-0.4,0.9,0.9,1.6,1.3,0.8c2.7-6.1,5.5-12.3,8.2-18.4c4.3-9.7,8.7-19.5,13-29.2c1-2.2,2-4.5,3-6.7
										C157.9,306.8,156.6,306,156.2,306.9L156.2,306.9z"/>
								</g>
							</g>
						</g>
						<path class="st38" d="M98.2,245.3c2,3,5.5,4.1,7.8,2.5c2.3-1.6,2.6-5.2,0.5-8.2c-2-3-5.5-4.1-7.8-2.5
							C96.4,238.7,96.2,242.4,98.2,245.3z"/>
						<path class="st38" d="M96.7,261.3c0,1.6,1.3,2.8,2.8,2.8c1.6,0,2.8-1.3,2.8-2.8s-1.3-2.8-2.8-2.8
							C98,258.5,96.7,259.8,96.7,261.3z"/>
					</g>
					<g>
						<path class="st38" d="M426.9,424.9c1.3-3-7.4-15.9,2.9-20.8s11.1-17,11.1-17c0.5-4.6,0.8-9.2,1.4-13.4c2.2-17,29-5.8,43.1-25
							c14.1-19.2-16.8-25.8,0.6-37.1c16.4-10.7,22.3-35.9,9.4-46.5c-18-14.8-40.1-2-46.4,13.9c-4.8,12.3,1.6,23.2-22.8,27.3
							c-24.4,4.2-23.6,16.5-24.2,39.8c-0.6,23.2-13.7,11.6-29.7,27.6c-12.7,12.7-3.2,30.8,1.3,37.8c0,0,2.5,6.7-3.1,13.4
							s-17,7.5-13.4,21.4"/>
						<g>
							<g>
								<g>
									<path class="st39" d="M377,446c3-4.9,6-9.7,9-14.6c7.4-11.9,14.8-23.8,22.2-35.7c9.4-15,18.8-29.9,28.2-44.7
										c9.1-14.2,18.2-28.3,27.5-42.3c6.3-9.3,12.5-18.9,19.6-27.6c0.5-0.6,1-1.2,1.5-1.8c0.6-0.7-0.4-1.8-1.1-1.1
										c-2.7,3.1-5.2,6.5-7.6,9.8c-3.6,5-7.2,10.2-10.6,15.3c-9.2,13.6-18.1,27.3-26.9,41.1c-9.6,15-19.2,30.1-28.7,45.2
										c-7.8,12.5-15.6,25-23.3,37.5c-2.5,4-5,8-7.4,12c-1.2,1.9-2.5,3.8-3.5,5.7c0,0.1-0.1,0.2-0.1,0.2
										C375.2,446.1,376.5,446.9,377,446L377,446z"/>
								</g>
							</g>
							<g>
								<g>
									<g>
										<path class="st39" d="M444.8,338.9c8.9,1.6,17.8,3.1,26.7,4.7c1.3,0.2,2.5,0.4,3.8,0.7c0.9,0.2,1.4-1.3,0.4-1.5
											c-8.9-1.6-17.8-3.1-26.7-4.7c-1.3-0.2-2.5-0.4-3.8-0.7C444.2,337.3,443.8,338.7,444.8,338.9L444.8,338.9z"/>
									</g>
								</g>
								<g>
									<g>
										<path class="st39" d="M408.5,394.5c7.1,0.8,14.2,1.7,21.4,2.5c1,0.1,2,0.2,3,0.4c1,0.1,1-1.4,0-1.5
											c-7.1-0.8-14.2-1.7-21.4-2.5c-1-0.1-2-0.2-3-0.4C407.5,392.9,407.5,394.4,408.5,394.5L408.5,394.5z"/>
									</g>
								</g>
							</g>
							<g>
								<g>
									<path class="st39" d="M415.1,325.2c1,4.9,1.9,9.9,2.9,14.8c1.5,7.9,3,15.8,4.6,23.6c0.4,1.8,0.7,3.6,1,5.4
										c0.2,1,1.6,0.5,1.5-0.4c-1-4.9-1.9-9.9-2.9-14.8c-1.5-7.9-3-15.8-4.6-23.6c-0.4-1.8-0.7-3.6-1-5.4
										C416.4,323.8,415,324.2,415.1,325.2L415.1,325.2z"/>
								</g>
							</g>
						</g>
						<path class="st38" d="M467.7,279.5c-2,1.8-4.7,2-6.2,0.5c-1.4-1.5-1-4.3,1-6.1c2-1.8,4.7-2,6.2-0.5
							C470.1,275,469.7,277.7,467.7,279.5z"/>
						<path class="st38" d="M466.1,291.5c-0.3,1.1-1.4,1.9-2.5,1.6c-1.1-0.3-1.9-1.4-1.6-2.5c0.3-1.1,1.4-1.9,2.5-1.6
							C465.6,289.2,466.3,290.3,466.1,291.5z"/>
					</g>
					<g>
						<g>
							<path class="st38" d="M472.6,444.9c0.8-5.1,0.2-10.7,0.3-15.5c0.2-10.4,15.9-3.6,24.2-15.8c8.3-12.2-7-19.1,1.2-23.6
								c8.2-4.5,12.3-21.1,2.3-27.7c-12.3-8.1-27.5-0.2-30.5,9.7c-2.4,7.6,2.9,13.9-13.6,17.5s-15.1,11-13.7,25
								c1.4,14-9,2.5-18.8,12.8c-5.6,5.9-2,13.9,1.2,18.9"/>
						</g>
						<g>
							<g>
								<g>
									<path class="st39" d="M441.6,446.6c6.9-10.1,13.9-20.1,20.9-30.2c7.8-11.2,15.7-22.5,23.8-33.6c3-4,5.9-8.1,9.1-12
										c0.6-0.7-0.5-1.8-1.1-1.1c-6.7,8.1-12.7,16.9-18.9,25.5c-8.3,11.6-16.4,23.4-24.5,35.1c-3.5,5.1-7.1,10.2-10.6,15.4
										C439.8,446.6,441.1,447.4,441.6,446.6L441.6,446.6z"/>
								</g>
							</g>
							<g>
								<g>
									<g>
										<path class="st39" d="M471.7,403c6.3,0.5,12.6,1.1,18.9,1.6c0.9,0.1,1.8,0.2,2.7,0.2c1,0.1,1-1.4,0-1.5
											c-6.3-0.5-12.6-1.1-18.9-1.6c-0.9-0.1-1.8-0.2-2.7-0.2C470.7,401.4,470.7,402.9,471.7,403L471.7,403z"/>
									</g>
								</g>
							</g>
							<g>
								<g>
									<path class="st39" d="M448.2,395.4c2.7,7.6,5.4,15.2,8.1,22.8c0.4,1.1,0.8,2.1,1.1,3.2c0.3,0.9,1.8,0.5,1.5-0.4
										c-2.7-7.6-5.4-15.2-8.1-22.8c-0.4-1.1-0.8-2.1-1.1-3.2C449.4,394,447.9,394.4,448.2,395.4L448.2,395.4z"/>
								</g>
							</g>
						</g>
						<path class="st38" d="M483.2,371.5c-1.2,1.2-3.1,1.4-4.2,0.6c-1.1-0.9-1-2.5,0.2-3.7c1.2-1.2,3.1-1.4,4.2-0.6
							C484.5,368.7,484.5,370.3,483.2,371.5z"/>
						<path class="st38" d="M489.3,413c-0.2,1.4-1.6,2.3-3.2,2.1c-1.6-0.2-2.7-1.5-2.5-2.9c0.2-1.4,1.6-2.3,3.2-2.1
							C488.3,410.3,489.5,411.6,489.3,413z"/>
					</g>
				</g>
			</g>
		</g>
	</g>
	
		<rect style="clip-path:url(#SVGID_00000061467769135013513990000009420683623588448140_);fill:none;" width="525.8" height="446.2"/>
	<g style="clip-path:url(#SVGID_00000061467769135013513990000009420683623588448140_);">
		
			<radialGradient id="SVGID_00000125568386486667658100000007489851905050674571_" cx="1963.1083" cy="64.5621" r="7.576" gradientTransform="matrix(0.9986 -5.320000e-02 5.320000e-02 0.9986 -1574.3889 358.3346)" gradientUnits="userSpaceOnUse">
			<stop  offset="0" style="stop-color:#9C493C"/>
			<stop  offset="0.9823" style="stop-color:#CC6633"/>
		</radialGradient>
		<path style="opacity:0.6;fill:url(#SVGID_00000125568386486667658100000007489851905050674571_);" d="M381.4,311.2
			c0,0,10.5-0.8,15.5,5.3l-2,9.1c0,0-6.3-10.6-12.7-12.4L381.4,311.2z"/>
		<g>
			
				<linearGradient id="SVGID_00000103962228411583502970000014464489839809584037_" gradientUnits="userSpaceOnUse" x1="1457.2157" y1="283.5543" x2="1493.2427" y2="283.5543" gradientTransform="matrix(-1 0 0 1 1870.1685 0)">
				<stop  offset="0" style="stop-color:#600E19"/>
				<stop  offset="0.984" style="stop-color:#741B17"/>
			</linearGradient>
			<path style="fill:url(#SVGID_00000103962228411583502970000014464489839809584037_);" d="M376.9,275.5l0.5,9.9l14.5,10.9
				l11.3-1.5l4.9-2.1c0,0,4.4-7.1,4.7-8.5c0.3-1.4-0.2-4.4-0.2-4.4l-19.3-9L376.9,275.5z"/>
			
				<radialGradient id="SVGID_00000147923276752892328890000008990493272568435861_" cx="1492.5275" cy="346.216" r="116.4344" gradientTransform="matrix(-1 0 0 1 1870.1685 0)" gradientUnits="userSpaceOnUse">
				<stop  offset="0" style="stop-color:#9C493C"/>
				<stop  offset="0.9823" style="stop-color:#CC6633"/>
			</radialGradient>
			<path style="fill:url(#SVGID_00000147923276752892328890000008990493272568435861_);" d="M377.8,274.3c0,0,3.6-13.5,4-18
				c0.4-4.5,3.4-19.9,4.8-22.8c0,0,2.9-0.5,4.8,2.1c1.9,2.7,1,15.6-3,21.8c0,0-1.2,8.1-0.7,13.6L377.8,274.3z"/>
			
				<radialGradient id="SVGID_00000085971901860075544770000017523180355236717460_" cx="1492.5275" cy="346.2054" r="116.4133" gradientTransform="matrix(-1 0 0 1 1870.1685 0)" gradientUnits="userSpaceOnUse">
				<stop  offset="0" style="stop-color:#9C493C"/>
				<stop  offset="0.9823" style="stop-color:#CC6633"/>
			</radialGradient>
			<path style="fill:url(#SVGID_00000085971901860075544770000017523180355236717460_);" d="M392.2,267.9c0,0,3,0.5,6.2,2.6l0.1,2.4
				c0,0,5.9,0.5,7.7,2.3l0.1,1.8c0,0,3.7,0.5,6.3,2.8c0,0-1.8,7.6-5.5,10.4c0,0-2.9,0.1-5.2-1.8l-1.5,1.7c0,0-4.8,1-5.2-2.8l1.3-5.5
				c0,0-1.9,2.4-2.7,2.8c-0.8,0.4-4.2-0.4-4.6-3C388.8,279,392.2,267.9,392.2,267.9z"/>
			
				<linearGradient id="SVGID_00000175308603510529199950000006027921612592339084_" gradientUnits="userSpaceOnUse" x1="1470.7356" y1="276.2137" x2="1473.7426" y2="276.2137" gradientTransform="matrix(-1 0 0 1 1870.1685 0)">
				<stop  offset="0" style="stop-color:#600E19"/>
				<stop  offset="0.984" style="stop-color:#741B17"/>
			</linearGradient>
			<path style="fill-rule:evenodd;clip-rule:evenodd;fill:url(#SVGID_00000175308603510529199950000006027921612592339084_);" d="
				M398.4,270.5c0,0-1,6.9-2,11.4l3-8.9l-0.9-0.1L398.4,270.5z"/>
			
				<linearGradient id="SVGID_00000096775751338218144480000016236539164557206695_" gradientUnits="userSpaceOnUse" x1="1462.6625" y1="281.8651" x2="1468.3083" y2="281.8651" gradientTransform="matrix(-1 0 0 1 1870.1685 0)">
				<stop  offset="0" style="stop-color:#600E19"/>
				<stop  offset="0.984" style="stop-color:#741B17"/>
			</linearGradient>
			<path style="fill-rule:evenodd;clip-rule:evenodd;fill:url(#SVGID_00000096775751338218144480000016236539164557206695_);" d="
				M406.3,275.3c0,0-2.1,7.8-4.4,13.2c0,0,3.8-6.7,5.6-11.2l-1.1-0.2L406.3,275.3z"/>
			
				<radialGradient id="SVGID_00000036934304948793917420000016856217627899599022_" cx="1500.6179" cy="342.2626" r="62.8219" gradientTransform="matrix(-1 0 0 1 1870.1685 0)" gradientUnits="userSpaceOnUse">
				<stop  offset="0" style="stop-color:#9C493C"/>
				<stop  offset="0.9823" style="stop-color:#CC6633"/>
			</radialGradient>
			<path style="fill:url(#SVGID_00000036934304948793917420000016856217627899599022_);" d="M352,369.4l21.1-33.9v0
				c3.7-6.2,9.3-16.3,9.5-20.1c0.2-5.5-9-13.2-11.2-19.2c-1.5-4.2,2.2-22.3,2.7-23.6c0.5-1.3,8.6-3.9,11.7-5
				c3.2-1.2,7.7-3.6,8.7-2.7c1,0.8-0.3,8.6-5.6,11.4c-4.9,2.6-7.8,2.5-7.8,2.5l-1.1,6.1c0,0,5.3,1,8.7,4.4
				c3.4,3.4,10.1,4.1,14.7,3.9c4.6-0.1,9.6-8.9,9.6-8.9s-3.1,18.1-8.5,25.8c0,0-4.7,5.7-7.5,6.5c0,0-5.4,28-14.2,50.3l0,0
				c0,0-18,65.7-31.9,50.8c0,0-19.1-8.2-23.3-17.1S328.8,359.4,352,369.4z"/>
		</g>
		<path d="M389.3,186.3c0-45-36.5-81.5-81.5-81.5s-71.4,26.2-71.4,71.2s29.6,89.7,74.1,82.9C360.9,251.3,389.3,231.3,389.3,186.3z"
			/>
		
			<radialGradient id="SVGID_00000122000548004522951530000001356391262402123907_" cx="2564.0571" cy="3117.7263" r="14.6431" gradientTransform="matrix(1 0 0 1 -2334.8955 -2356.5044)" gradientUnits="userSpaceOnUse">
			<stop  offset="0" style="stop-color:#9C493C"/>
			<stop  offset="0.9823" style="stop-color:#CC6633"/>
		</radialGradient>
		<path style="fill:url(#SVGID_00000122000548004522951530000001356391262402123907_);" d="M218.8,743.3h20.1
			c-0.7,10.4,0.6,27.5,0.6,27.5s-4.7,7.8-6.7,8.3c-2,0.6-14-8.3-14-8.3C219.9,763.4,219.5,753.1,218.8,743.3z"/>
		<path class="st1" d="M185.6,559.3c1.1-43,6.5-91.8,6.5-91.8l28.7-13.2l24.2,16.4l7.3,5c0,0-2.4,27.8-0.2,43.4
			c1.6,11.3-5.6,59.9-9.3,87.9c0,0,0,0,0,0c-1.4,10.4-2.3,18-2,19.7c0.8,6.5,10.3,25.7,11.3,41.7c1,15.9-7.4,47.5-7.4,47.5
			c0,0,0,0,0,0c-1,4-4.1,16.2-5.3,24.1c-0.1,1-0.5,7.9-0.5,9.2l-19.5,0.1c-1.1-15-3.7-34.7-3.7-34.7c0,0,0,0,0,0c0,0,0,0,0,0
			s-4.4-42.7-9.4-54.4c-5-11.7-10.5-19.3-13-25.7c-0.2-0.6-0.4-1.2-0.7-2.1c-0.1-0.3-0.2-0.6-0.3-0.9c-0.3-1-0.6-2.2-0.9-3.5
			c0-0.1,0-0.2-0.1-0.3v0C188.3,616.1,184.8,593.1,185.6,559.3z"/>
		<g>
			
				<radialGradient id="SVGID_00000147923250168587160650000013525877609177730436_" cx="1586.3345" cy="760.2595" r="9.1127" gradientTransform="matrix(-1 0 0 1 1870.1685 0)" gradientUnits="userSpaceOnUse">
				<stop  offset="0" style="stop-color:#9C493C"/>
				<stop  offset="0.9823" style="stop-color:#CC6633"/>
			</radialGradient>
			<path style="fill:url(#SVGID_00000147923250168587160650000013525877609177730436_);" d="M273,767.3l18.1-3.9
				c0,0,0.8,3.8,3.5-10.1h-21.4C273.3,762.3,273.4,758.4,273,767.3z"/>
			
				<radialGradient id="SVGID_00000035522057257623447750000002560834672342982801_" cx="1568.8054" cy="711.3438" r="5.389721e-02" gradientTransform="matrix(-1 0 0 1 1870.1685 0)" gradientUnits="userSpaceOnUse">
				<stop  offset="0" style="stop-color:#9C493C"/>
				<stop  offset="0.9823" style="stop-color:#CC6633"/>
			</radialGradient>
			<path style="fill:url(#SVGID_00000035522057257623447750000002560834672342982801_);" d="M301.3,711.4c0.1,0,0.1-0.1,0.1-0.1
				C301.4,711.3,301.4,711.3,301.3,711.4C301.3,711.4,301.3,711.4,301.3,711.4z"/>
			
				<radialGradient id="SVGID_00000013187801825104079340000004362059056348531607_" cx="1569.1309" cy="712.8929" r="1.1797" gradientTransform="matrix(-1 0 0 1 1870.1685 0)" gradientUnits="userSpaceOnUse">
				<stop  offset="0" style="stop-color:#9C493C"/>
				<stop  offset="0.9823" style="stop-color:#CC6633"/>
			</radialGradient>
			<path style="fill:url(#SVGID_00000013187801825104079340000004362059056348531607_);" d="M300.6,714.5c0.3-1.1,0.6-2.1,0.9-3.2
				c0,0,0,0,0,0v0L300.6,714.5z"/>
		</g>
		<path class="st1" d="M242.7,606.9c3.5,11.2,12.4,22.3,16.6,34c4.2,11.7,13.7,73.6,13.7,73.6s0.2,25.1,0.2,38.8
			c0,0,0.9,0.4,6.2,0.9c5.4,0.6,15.2-0.9,15.2-0.9c1.4-7.5,3.5-30,5.9-38.8l0.9-3.2c0,0,0,0,0,0c0,0,0,0,0,0s10.1-22.5,7.4-38.8
			c-2.7-16.3-13.3-31-15-46.2c-0.5-4.4,0.8-16,2.8-30.7c-0.5,2.4-5.7,28.3-9.4,35.9c-3.9,7.9-13.4,12.7-23.7,1.3
			C253.5,621.6,243.3,607.8,242.7,606.9z M301.3,711.4C301.3,711.4,301.3,711.4,301.3,711.4c0.1,0,0.1-0.1,0.1-0.1
			C301.4,711.3,301.4,711.3,301.3,711.4z"/>
		<g>
			
				<linearGradient id="SVGID_00000021829023027170992140000009199779610886893962_" gradientUnits="userSpaceOnUse" x1="4611.4023" y1="-196.4448" x2="4622.5596" y2="-304.2972" gradientTransform="matrix(7.435710e-02 -0.9972 0.9972 7.435710e-02 35.3461 5118.9116)">
				<stop  offset="5.586590e-03" style="stop-color:#9C0A00"/>
				<stop  offset="1" style="stop-color:#D10F20"/>
			</linearGradient>
			<polygon style="fill:url(#SVGID_00000021829023027170992140000009199779610886893962_);" points="162.9,532.4 80.8,523 
				79.8,519.2 97.8,454.9 179,477.7 179.8,480.5 			"/>
			<polygon class="st6" points="97.7,454.9 99.1,458.8 80.8,523 79.8,519.2 			"/>
			<polygon class="st7" points="81.8,520.6 81.1,517.5 97.5,454.9 79.2,518.2 80.8,522.9 158.6,532.1 			"/>
		</g>
		
			<radialGradient id="SVGID_00000034085427323789336450000005823655291918288830_" cx="1604.201" cy="319.518" r="78.859" gradientTransform="matrix(-1 0 0 1 1870.1685 0)" gradientUnits="userSpaceOnUse">
			<stop  offset="0" style="stop-color:#9C493C"/>
			<stop  offset="0.9823" style="stop-color:#CC6633"/>
		</radialGradient>
		<path style="fill:url(#SVGID_00000034085427323789336450000005823655291918288830_);" d="M298.1,245c0,0-5.3,18.6-6.8,27.8
			c0,0-7.8,14.1-15.1,20.9c-7.3,6.8-34.6,20.7-34.6,20.7s2.2-21.4,8.7-29.3c0,0,5-2.6,11.3-8c6.3-5.4,8.4-25,8.4-25
			S294.6,246.4,298.1,245z"/>
		
			<radialGradient id="SVGID_00000177481192266589580940000004246888652992460198_" cx="1725.0564" cy="476.63" r="78.9263" gradientTransform="matrix(-1 0 0 1 1870.1685 0)" gradientUnits="userSpaceOnUse">
			<stop  offset="0" style="stop-color:#9C493C"/>
			<stop  offset="0.9823" style="stop-color:#CC6633"/>
		</radialGradient>
		<path style="fill:url(#SVGID_00000177481192266589580940000004246888652992460198_);" d="M220.7,399c0,0-1.1,5.5-9.4,17.6
			c-8.4,12.2-35.9,33.1-38.1,39.8c-2.2,6.7,2.1,21,1.4,23c-0.8,2-6.6,3.2-9.9,8.5c-3.2,5.3-3.1,16.6-4.8,16.2
			c-1.7-0.4-4.4-6.8-3.6-11.7c0.7-4.6,2.6-4.9,3.4-7.6c0,0,0,0,0,0c0.1-0.2,0.1-0.5,0.2-0.7c0.8-3.5-0.6-11.2-1.1-11.7
			c-0.5-0.5-2.5,0-2.5,0l-24.5-7.5c0,0,18.2-10.3,26.4-18.2c8.2-8,31.6-62.6,31.6-62.6C198.5,385,220.7,399,220.7,399z"/>
		
			<linearGradient id="SVGID_00000154399135660835705570000011905847441424132495_" gradientUnits="userSpaceOnUse" x1="187.4372" y1="404.5696" x2="214.5587" y2="404.5696">
			<stop  offset="0" style="stop-color:#600E19"/>
			<stop  offset="0.984" style="stop-color:#741B17"/>
		</linearGradient>
		<path style="fill:url(#SVGID_00000154399135660835705570000011905847441424132495_);" d="M187.4,389.3c0,0,13.1,21,16.5,35.9
			l9.2-10.7l1.4-22.5l-24.8-8.1L187.4,389.3z"/>
		
			<linearGradient id="SVGID_00000018939752184598541650000018268922989962867132_" gradientUnits="userSpaceOnUse" x1="1702.1631" y1="477.3644" x2="1603.144" y2="238.3186" gradientTransform="matrix(-1 0 0 1 1870.1685 0)">
			<stop  offset="0" style="stop-color:#39B54A"/>
			<stop  offset="1" style="stop-color:#009245"/>
		</linearGradient>
		<path style="fill:url(#SVGID_00000018939752184598541650000018268922989962867132_);" d="M212.7,305.2
			c-4.5,2.5-15.6,50.9-17.5,53.6c-1.9,2.7-4.2,6.3-4.8,7.8c-0.6,1.5-1.7,7.4-1.7,10.3c0,2.9-2.9,4.6-3.1,5.6c-0.2,1,2.5,5.3,2.5,5.3
			l1.7-3.9c0,0,20.7,8.6,27.2,15.5c6.5,6.9,18-17.6,18-17.6L212.7,305.2z"/>
		<path class="st1" d="M184.2,461.6c0,0,16.2,25.4,26,32.1c9.8,6.7,94.7-46.9,94.7-46.9l-54.7-2.7l-29.5-3.4L184.2,461.6z"/>
		<path class="st1" d="M301.4,711.3C301.3,711.4,301.3,711.4,301.4,711.3C301.4,711.3,301.4,711.3,301.4,711.3
			C301.4,711.3,301.4,711.3,301.4,711.3z"/>
		<path class="st1" d="M231.2,562.7c0,0,0,0.2,0.1,0.7c4.1,20.7,9.4,37.4,11.3,43.5c0,0,0,0,0,0l0,0c0.6,0.9,10.8,14.7,20.8,25.8
			c10.4,11.5,19.8,6.7,23.7-1.3c3.7-7.6,8.9-33.5,9.4-35.9c0,0,0-0.1,0-0.1s0,0,0-0.1c0,0,0,0,0,0c5-35.9,14.2-90.3,11.8-104.6
			c-3.4-20.1-11.8-45.5-11.8-45.5s-34.9,9.6-51.8,25.4c-10.2,9.5-18.4,22.1-18.9,37.6C225.4,526.7,228,545.9,231.2,562.7z"/>
		
			<linearGradient id="SVGID_00000167369434882840357500000006112134138347420594_" gradientUnits="userSpaceOnUse" x1="1504.8051" y1="649.5391" x2="1636.7179" y2="352.7352" gradientTransform="matrix(-1 0 0 1 1870.1685 0)">
			<stop  offset="0" style="stop-color:#39B54A"/>
			<stop  offset="1" style="stop-color:#009245"/>
		</linearGradient>
		<path style="fill:url(#SVGID_00000167369434882840357500000006112134138347420594_);" d="M250.3,285.1c0,0-17.2,11-23.6,13.7
			c-6.4,2.7-14,6.4-14,6.4s1.5,14.2,0.9,17.6c-0.6,3.4-13.7,13.4-16.8,18.1c-3.1,4.7,1.7,50.1-7.9,78.2c0,0-8.4,41.8-14.3,59.4
			c0,0,10.9,14.9,34.7,8.7l11.4-32.9c0,0-0.1,29.3,3.8,39.4c0,0,34.5,2,52.3-6.4c17.9-8.4,37.8-4.2,37.8-4.2s-4.1-50-10.4-64.2
			l-0.4-6.3l-1.7-5.4c0,0-2.7-7.4-2.3-31.5c0,0,1.4,6.3,7.1,5.8c0,0,0.1,1.8,0.3,3.3c0.1,1.5,5.1,4.4,5.3,5.5
			c0.1,1.1,1.6,2.8,2.2,4.2c0.6,1.4,8.7,10.3,9.7,10.4c1,0.1,5.6-1.2,5.6-1.2l-2.5-3.3c0,0-2.4-37.9,24.5-31.1
			c0.7-1.8,0.9-1.5,1.3-2.2c0.1-0.2-0.4-5.4-1.5-5.4c-1.1,0-5-1-5-2c0-0.9-0.9-4.2-2.2-4.9c-1.3-0.7-3.2-2.8-5.1-8
			c-1.9-5.2-8.3-24-13.4-35.9c-5-11.9-18.3-20.1-21.3-23c-3-2.9-12.7-20.2-12.7-20.2l-1,5c0,0-13,18.6-27.2,26.1
			c-14.2,7.5-20.5,9-20.5,9S243.8,295.6,250.3,285.1z"/>
		<polygon class="st14" points="223.4,313.1 238.1,308 233.4,290.3 228.9,291 		"/>
		<path class="st14" d="M263.4,275c0,0-8.1,3.8-9.7,4.8c-1.5,0.9-6.2,15.3-6.2,15.3s1.6-5.6,7-8.7
			C259.5,283.4,261.2,278.4,263.4,275z"/>
		
			<linearGradient id="SVGID_00000009555307556442533210000003889854618116896181_" gradientUnits="userSpaceOnUse" x1="1704.5278" y1="476.3849" x2="1605.5089" y2="237.339" gradientTransform="matrix(-1 0 0 1 1870.1685 0)">
			<stop  offset="0" style="stop-color:#39B54A"/>
			<stop  offset="1" style="stop-color:#009245"/>
		</linearGradient>
		<path style="fill:url(#SVGID_00000009555307556442533210000003889854618116896181_);" d="M239.8,316.8c0,0-3.4-17.6-11.1-24.7
			l-5.3,21l4.2-22.8c0,0,20.3-12.3,24.1-13.3c3.8-1,13.9-5.5,13.9-5.5s-1.5,2.7-2.4,3.7c-0.9,1-5.5,2.5-8.9,5
			c-3.4,2.5-8.5,18.2-10.8,27.7L239.8,316.8z"/>
		<path class="st1" d="M213.4,767.3c0,0-3.4-9.7,0.2-14.7c3.9-5.4,11.1-3.7,13.8,0c2.2,2.9-1.6,14.7-1.6,14.7l7.6-4.3
			c4.6,0.2,8.2,3.7,8.5,8.3c0.2,3.1,0.4,6.2,0.7,7.6c0.6,3.3,4.9,23.4,4.9,25.1c0,0-54.4,4.3-94.6,4.3c0,0,6.4-16.3,35.8-19
			C191.9,782.4,208.6,768.3,213.4,767.3z"/>
		<path class="st1" d="M273.2,762l-0.5,1.1c-1.2,2.4-1.7,5-1.7,7.6c0.1,3.2,0.1,8.1-0.4,13.9c-0.8,10.2-1.1,20.4-1.1,20.4
			s8,6.8,11.3,6.1c3.3-0.7,26.5-18.6,38.2-3.7c0,0-1.2-13.2-13.7-14.9c1-6.5-8-23.6-11.1-25.1c0-4-0.3-12.3-6.6-13
			c-4.4-0.5-8.4,2.7-7.3,7c-3.2-2.7-5.2,1.6-5.8,2.4C272.6,766.4,273.2,762,273.2,762z"/>
		
			<linearGradient id="SVGID_00000147205893377810898960000012111216541175442109_" gradientUnits="userSpaceOnUse" x1="2487.1606" y1="3165.1663" x2="2583.9895" y2="3165.1663" gradientTransform="matrix(1 0 0 1 -2334.8955 -2356.5044)">
			<stop  offset="0" style="stop-color:#FFC4BA"/>
			<stop  offset="1" style="stop-color:#FFE7E5"/>
		</linearGradient>
		<path style="fill:url(#SVGID_00000147205893377810898960000012111216541175442109_);" d="M156.5,802.7c0,0-4.2,4.1-4.2,7.4
			c0,1.5,0.1,3.1,0.3,4.5c0.2,1.7,1.5,4.7,3.2,4.7h90c1.9,0,3.4-1.6,3.4-3.5c-0.1-5.2-0.5-14.6-2.1-17.7c0,0-2.5,3.5-5.7,4.2
			c-2.5,0.6-16.5,0.7-22.6,0.7c-1.7,0-3.3,0.8-4.4,2.2l-0.4,0.6c0,0-12.5,1.2-34.5,1.4S156.5,802.7,156.5,802.7z"/>
		
			<linearGradient id="SVGID_00000096050458056578744460000006670589075120904370_" gradientUnits="userSpaceOnUse" x1="2602.4609" y1="3165.5063" x2="2656.759" y2="3165.5063" gradientTransform="matrix(1 0 0 1 -2334.8955 -2356.5044)">
			<stop  offset="0" style="stop-color:#FFC4BA"/>
			<stop  offset="1" style="stop-color:#FFE7E5"/>
		</linearGradient>
		<path style="fill:url(#SVGID_00000096050458056578744460000006670589075120904370_);" d="M269.5,804.9l-2,13.1h54.3
			c0,0-1.3-10-2.8-11.7c-1.5-1.7-9.5-7-17.6-6.4c-8.1,0.6-16.7,6.9-22.3,7.5C273.5,808.2,269.5,804.9,269.5,804.9z"/>
		
			<linearGradient id="SVGID_00000149372702673647882070000009916812220050215563_" gradientUnits="userSpaceOnUse" x1="2483.4912" y1="2828.8223" x2="2483.4912" y2="2822.394" gradientTransform="matrix(1 0 0 1 -2334.8955 -2356.5044)">
			<stop  offset="0" style="stop-color:#933B23"/>
			<stop  offset="0.9784" style="stop-color:#8B2A24"/>
		</linearGradient>
		<path style="fill:url(#SVGID_00000149372702673647882070000009916812220050215563_);" d="M158.8,472.3c0,0-4.7-4.4-10.1-5.9
			c-5.3-1.5-10.3,0.4-10.3,0.4l17.8,5.5H158.8z"/>
		
			<linearGradient id="SVGID_00000111888281868366791320000006869261948205101445_" gradientUnits="userSpaceOnUse" x1="268.2057" y1="256.8984" x2="297.6217" y2="256.8984">
			<stop  offset="0" style="stop-color:#600E19"/>
			<stop  offset="0.984" style="stop-color:#741B17"/>
		</linearGradient>
		<path style="fill:url(#SVGID_00000111888281868366791320000006869261948205101445_);" d="M268.2,261.9c0,0,13.5,12,25.7-1.1
			l3.7-14c0,0-13.4,5.3-27.9,6.1L268.2,261.9z"/>
		
			<linearGradient id="SVGID_00000054264587088197584030000014285635193005743782_" gradientUnits="userSpaceOnUse" x1="1568.8054" y1="711.3721" x2="1568.8054" y2="711.3154" gradientTransform="matrix(-1 0 0 1 1870.1685 0)">
			<stop  offset="0" style="stop-color:#9F3D59"/>
			<stop  offset="1" style="stop-color:#FFFFFF"/>
		</linearGradient>
		<path style="opacity:0.5;fill:url(#SVGID_00000054264587088197584030000014285635193005743782_);" d="M301.4,711.3
			C301.3,711.4,301.3,711.4,301.4,711.3C301.4,711.3,301.4,711.3,301.4,711.3C301.4,711.3,301.4,711.3,301.4,711.3z"/>
		<path class="st11" d="M301.5,711.3C301.5,711.3,301.5,711.3,301.5,711.3C301.5,711.3,301.5,711.3,301.5,711.3L301.5,711.3z"/>
		<path class="st11" d="M301.4,711.3C301.3,711.4,301.3,711.4,301.4,711.3C301.4,711.3,301.4,711.3,301.4,711.3
			C301.4,711.3,301.4,711.3,301.4,711.3z"/>
		<path class="st21" d="M152.3,810.7c0,0,7.7,1.2,19.7,1.7c12,0.5,76.8-3.4,76.8-3.4l0.4,3c0,0-66,4.5-77.2,3.6s-19.6-1.6-19.6-1.6
			L152.3,810.7z"/>
		<path class="st21" d="M268.2,813.7c0,0,19.3-0.9,30.8-1.4c11.4-0.4,22.1,0.7,22.1,0.7l0.5,2.7c0,0-40.6-1-44.6-0.7
			c-4,0.3-8.7-0.3-8.7-0.3V813.7z"/>
		<path class="st11" d="M174.6,479.4c-0.8,2-6.6,3.2-9.9,8.5c-3.2,5.3-3.1,16.6-4.8,16.2c-1.7-0.4-4.4-6.8-3.6-11.7
			c0.7-4.6,2.6-4.9,3.4-7.6c0,0,0,0,0,0c0.3-0.4,2.5-3.5,5.4-5.3C168.2,477.5,174.6,479.4,174.6,479.4z"/>
		
			<radialGradient id="SVGID_00000011006587838879022540000017379317988486333606_" cx="1574.8346" cy="267.1429" r="96.5918" gradientTransform="matrix(-1 0 0 1 1870.1685 0)" gradientUnits="userSpaceOnUse">
			<stop  offset="0" style="stop-color:#9C493C"/>
			<stop  offset="0.9823" style="stop-color:#CC6633"/>
		</radialGradient>
		<path style="fill:url(#SVGID_00000011006587838879022540000017379317988486333606_);" d="M271.7,157c0,0-19.5,1.7-26,13.1
			c-6.4,11.4-7.5,36.6-10,40.5c-2.5,3.9-7.4,3.2-7.3,15.5c0.1,12.3,9.4,21.9,12.1,26.9c2.8,5,4.7,8.1,12,8.9
			c7.3,0.8,30.8-1.4,44.8-10.4c14-9,20.1-31.4,28.7-45.4C334.6,192.1,313.8,156.8,271.7,157z"/>
		
			<radialGradient id="SVGID_00000115505703431948475440000004790744764692871572_" cx="1580.528" cy="245.5911" r="102.7593" gradientTransform="matrix(-1 0 0 1 1870.1685 0)" gradientUnits="userSpaceOnUse">
			<stop  offset="0" style="stop-color:#9C493C"/>
			<stop  offset="0.9823" style="stop-color:#CC6633"/>
		</radialGradient>
		<path style="fill:url(#SVGID_00000115505703431948475440000004790744764692871572_);" d="M305.3,230.4c0,0,12.2-9.1,22.6-4.7
			c0,0,2.6,7.3,2.1,11.4c-0.6,4.2-8.9,13.8-14.9,15.4c-6,1.5-13-2.2-13.5-5.3C301,244.1,305.3,230.4,305.3,230.4z"/>
		
			<linearGradient id="SVGID_00000029752755680859250870000007496770786185292223_" gradientUnits="userSpaceOnUse" x1="2577.9685" y1="2542.2878" x2="2666.7471" y2="2542.2878" gradientTransform="matrix(1 0 0 1 -2334.8955 -2356.5044)">
			<stop  offset="0" style="stop-color:#FFB159"/>
			<stop  offset="1" style="stop-color:#FFA73B"/>
		</linearGradient>
		<path style="fill:url(#SVGID_00000029752755680859250870000007496770786185292223_);" d="M243.1,176.2c0,0,0.1-3.1,0.6-5.7
			c8.9-9,18.3-14.1,18.3-14.1s3.7-3.2,5.5-3.1c1.9,0.1,5.9,3.6,5.9,3.6s29-0.1,42.6,15c13.6,15.1,15.9,30.9,15.9,30.9l-0.6,2.4
			c0,0-5.1,5.2-5.1,10.4c0,5.1-5.2,0.9-5.2,0.9l0.4-2.4c0,0-3.8-12.9-16.1-31C293,165,271.9,160.1,268,159
			C258.8,156.4,243.1,176.2,243.1,176.2z"/>
		
			<linearGradient id="SVGID_00000070078075594628031130000001275672788754317723_" gradientUnits="userSpaceOnUse" x1="1588.9731" y1="199.5546" x2="1588.9731" y2="184.5204" gradientTransform="matrix(-1 0 0 1 1870.1685 0)">
			<stop  offset="0" style="stop-color:#600E19"/>
			<stop  offset="0.984" style="stop-color:#741B17"/>
		</linearGradient>
		<path style="fill:url(#SVGID_00000070078075594628031130000001275672788754317723_);" d="M267.6,184.7c0,0,0.8,2.9,2.4,5.4
			c-1.1-2.5-1.5-5.6-1.5-5.6c6.8,3.7,19,1.9,21.2,4c3,2.8,5,11.1,5,11.1s-3.4-3.1-7-4.5c-3.6-1.4-16.6-2.9-16.6-2.9
			C271.2,192.1,266.9,189.6,267.6,184.7z"/>
		<path class="st26" d="M268.8,202.6c-0.1,0.1-0.1,0.2-0.2,0.2C268.7,202.7,268.7,202.6,268.8,202.6
			C268.8,202.6,268.8,202.6,268.8,202.6z"/>
		<path d="M271.4,205.9c-2,3.7,2,7.3,5.5,4.9c0.2-0.2,0.4-0.4,0.6-0.6c2.2-3.7-1.6-7.5-5.2-5.2C271.9,205.2,271.6,205.5,271.4,205.9
			z"/>
		<path d="M240.7,205c0.1,1.7,1.4,2.9,3.1,2.9c1.7-0.1,2.9-1.4,2.9-3.1c-0.1-1.7-1.4-2.9-3.1-2.9C241.9,202,240.6,203.4,240.7,205z"
			/>
		<path class="st27" d="M270.2,227.3c0.3,4.4,4.2,7.7,8.5,7.3c4.4-0.3,7.7-4.2,7.3-8.5c-0.3-4.4-4.2-7.7-8.5-7.3
			C273.2,219.1,269.9,223,270.2,227.3z"/>
		
			<linearGradient id="SVGID_00000129168475091334857950000012271500628099656891_" gradientUnits="userSpaceOnUse" x1="1545.79" y1="234.3547" x2="1561.1198" y2="234.3547" gradientTransform="matrix(-1 0 0 1 1870.1685 0)">
			<stop  offset="0" style="stop-color:#600E19"/>
			<stop  offset="0.984" style="stop-color:#741B17"/>
		</linearGradient>
		<path style="fill:none;stroke:url(#SVGID_00000129168475091334857950000012271500628099656891_);stroke-miterlimit:10;" d="
			M323.7,237.7c0,0,2.5-11.7-14.5-3"/>
		<g>
			
				<linearGradient id="SVGID_00000016757446110262535320000004856141862000393627_" gradientUnits="userSpaceOnUse" x1="250.6539" y1="219.2711" x2="242.682" y2="217.3145">
				<stop  offset="0" style="stop-color:#600E19"/>
				<stop  offset="0.984" style="stop-color:#741B17"/>
			</linearGradient>
			<path style="fill:url(#SVGID_00000016757446110262535320000004856141862000393627_);" d="M251.8,210.3c-1.7,2.8-3.8,5.3-6,7.7
				c-1,1-1.8,2.2-2.2,3.5c-0.2,0.6-0.1,1.3,0,1.9c0.2,0.6,0.6,1.2,1,1.8l0,0c0.8,0.8,1.6,1.6,2.4,2.5c-1.1-0.5-2.1-1-3.1-1.6l0,0
				c-0.7-0.5-1.4-1.2-1.8-2.1c-0.4-0.9-0.5-1.9-0.4-2.8c0.3-1.9,1.4-3.5,2.7-4.6C246.8,214.3,249.1,212.1,251.8,210.3z"/>
		</g>
		<g>
			<path class="st30" d="M236.4,239.8c-0.2-3.8,3.9-3.5,6.3-2.3c0,0-0.6,0-0.6,0c5.8-1.8,10.6,2.1,16.2,2.7c1.8,0.2,3.6,0.2,5.3-0.2
				c0.2-0.1,0.5,0.1,0.5,0.3c0,0.2-0.1,0.4-0.2,0.5c-4.1,2.6-8.5,5.4-13.5,5.9c-1.5,0-3.1-0.2-4.5-1c-1.2-0.6-1.8-1.7-3.1-1.7
				c-0.4,0-0.9,0.2-1.4,0.6c-0.7,0.6-1.8,1.6-2.9,1c-2-0.9-2.6-3.4-2.3-5.3c0-0.1,0.1-0.1,0.1-0.1c0.1,0,0.1,0.1,0.1,0.1
				c0.1,1.8,0.9,4,2.8,4.2c0.3,0,0.7-0.5,1.2-1.1c1.1-1.3,3.3-1.7,4.8-0.6c3.2,2.6,7.2,1.7,10.8,0.3c2.5-1,5-2,7.5-3.2l0.3,0.8
				c-4.2,0.2-8.3-0.2-12.3-1c-2.9-0.7-6-1.6-8.9-1c-0.2,0-0.3,0-0.5-0.1c-1.9-1.2-4.9-2.1-5.4,0.9
				C236.6,239.9,236.4,239.9,236.4,239.8L236.4,239.8z"/>
		</g>
		<g>
			<path class="st31" d="M265.1,240.5c-4.7,0.9-9.6-1-13.2-4c-2.5-2-4.7-4-7.6-5.1c-1-0.5-1.9,0.4-2.3,1.3c0,0-0.7,1.5-0.7,1.5
				c-0.4-0.7-1.2-2-1.5-2.6c-0.2-0.4-0.7-0.7-1.2-0.7c-0.5,0-0.9,0.5-1.2,1c-0.9,1.6-0.7,3.7-0.2,5.5c-1.1-1.8-1.6-4-0.8-6
				c0.8-2.2,3.2-2.5,4.7-0.7c0.4,0.5,0.6,0.9,0.8,1.3l-1.5,0.1c3.7-8.2,13.4,5.3,18.1,6.8C260.6,239.7,262.8,240.2,265.1,240.5
				L265.1,240.5z"/>
		</g>
		
			<linearGradient id="SVGID_00000016785566013844285810000011486709713882011833_" gradientUnits="userSpaceOnUse" x1="1625.1027" y1="188.4926" x2="1625.1027" y2="179.5744" gradientTransform="matrix(-1 0 0 1 1870.1685 0)">
			<stop  offset="0" style="stop-color:#600E19"/>
			<stop  offset="0.984" style="stop-color:#741B17"/>
		</linearGradient>
		<path style="fill:url(#SVGID_00000016785566013844285810000011486709713882011833_);" d="M250,182.3c0,0,1.6,4.5-2.8,6.1
			c0,0-4.4-3.5-6.7-2.7c0,0-1.2-2-0.5-4.1c0.7-2.1,2-2.1,2-2.1s6.6,0.7,7.3,2.5c0,0,0,3.5-1.5,5.5
			C247.9,187.5,249.6,185.6,250,182.3z"/>
		<path class="st14" d="M290.7,301l-3.9,22.7c0,0-23.2-18.5-41.9-11.5l1.4-1.5l31.4-16.5L290.7,301z"/>
		
			<linearGradient id="SVGID_00000148628351622217509020000004112033588233662639_" gradientUnits="userSpaceOnUse" x1="1672.5284" y1="489.6399" x2="1573.5094" y2="250.594" gradientTransform="matrix(-1 0 0 1 1870.1685 0)">
			<stop  offset="0" style="stop-color:#39B54A"/>
			<stop  offset="1" style="stop-color:#009245"/>
		</linearGradient>
		<path style="fill:url(#SVGID_00000148628351622217509020000004112033588233662639_);" d="M292.4,267.3c0,0,9.6,15.4,15.4,25.7
			c0,0-4.2,21.1-21,30.7c0,0-7.2-26.4-9.4-27.6c-2.2-1.3-13.6,6.2-22,10.3c-8.4,4.1-14.8,8.6-14.8,8.6l3-7c0,0,18.7-8.7,31.2-17.7
			C287.2,281.3,292.4,267.3,292.4,267.3z"/>
		<g>
			<path class="st14" d="M239.8,316.8c-4.1,4.4-8.1,8.9-11.8,13.7c-3.5,4.6-7.5,9.5-9.3,15c-0.7,5.7-0.2,12-0.2,17.8
				c0.7,28.2,2,62.2,2.3,90.3c-2.3-30.1-3.7-60.2-4.2-90.3c0.1-6.2-0.4-12,0.6-18.3c2-5.9,6.2-10.5,10.1-15.2
				C231.2,325.3,235.4,320.9,239.8,316.8L239.8,316.8z"/>
		</g>
		<g>
			<path class="st14" d="M323,305.3c-3.9,2.3-7.7,4.8-11.5,7.3c-2.3,1.6-4.7,3.2-6.7,5.2c-4.3,4.5-7.1,10.2-9.1,16
				c-1.6,4.2-2.4,8.9-3.3,13.2c0.1-9.1,3-18.4,8.8-25.6C307,314.5,314.6,308.3,323,305.3L323,305.3z"/>
		</g>
		<g>
			<path class="st14" d="M213.7,322c-0.9-5.6-0.9-11.2-1-16.8C214.2,310.7,214.2,316.4,213.7,322L213.7,322z"/>
		</g>
		<path class="st34" d="M225,768.5c0,0-19.5,11.4-24.7,21.9c0,0-2.2-4.3-11.6-1.2"/>
		<path class="st34" d="M281.7,763.1c0,0,2.9,1.4,3,4.8c0,0,8.2,8,9.6,22.6c0,0,5.1-2.6,11.1,2"/>
		<g>
			<path class="st14" d="M344,355.9c-6.2-4.1-9.5-1.6-14.6,2.4c-1.5,1.1-2.9,2.3-4.3,3.5c0,0-0.1,0-0.1-0.1c2.4-4.4,7-6.2,11.2-8.3
				C339,352.2,342.4,353.6,344,355.9C344.1,355.9,344,355.9,344,355.9L344,355.9z"/>
		</g>
		<g>
			<path class="st14" d="M350.8,362.7c-4.7-0.5-10.6-1.5-14.5,1.8c-1.8,1.7-3.2,3.8-4.6,5.9c-1.4,1.8-3.2,4.7-4.9,5.9
				c2.8-4.2,5-9.2,9.2-12.2c3.3-1.9,7.3-3.2,11.1-2.5C348.4,361.7,349.6,362,350.8,362.7C350.9,362.6,350.8,362.7,350.8,362.7
				L350.8,362.7z"/>
		</g>
		<g>
			<path class="st14" d="M307.7,384.3c0.3-1.9,1.5-3.4,2.9-4.6c1.1-1.4,1.9-3.1,3.3-4.4c0.9-0.9,1.8-1.6,2.9-2.2c0,0,0.1,0,0.1,0.1
				c-1.5,2.7-4.1,4.4-6,6.8C310,381.5,309.1,383,307.7,384.3C307.8,384.4,307.7,384.4,307.7,384.3L307.7,384.3z"/>
		</g>
		
			<linearGradient id="SVGID_00000021819705382171680030000003844839497247116191_" gradientUnits="userSpaceOnUse" x1="326.7877" y1="387.5847" x2="352.1928" y2="387.5847">
			<stop  offset="0" style="stop-color:#600E19"/>
			<stop  offset="0.984" style="stop-color:#741B17"/>
		</linearGradient>
		<path style="fill:url(#SVGID_00000021819705382171680030000003844839497247116191_);" d="M328.1,400.8
			c-4.1-8.9,1.3-40.7,24.1-31.2c-0.5,0.1-27.5,3.9-18.7,37.7C331.1,405.3,329.1,403.1,328.1,400.8z"/>
	</g>
</g>
</svg>
