<?xml version="1.0" encoding="utf-8"?>
<!-- Generator: Adobe Illustrator 26.2.1, SVG Export Plug-In . SVG Version: 6.00 Build 0)  -->
<svg version="1.1" id="Layer_2" xmlns="http://www.w3.org/2000/svg" xmlns:xlink="http://www.w3.org/1999/xlink" x="0px" y="0px"
	 viewBox="0 0 50 50" style="enable-background:new 0 0 50 50;" xml:space="preserve">
<style type="text/css">
	.st0{fill:#EACAD6;}
	.st1{fill:#BA0C2F;}
	.st2{fill:#E73164;}
	.st3{fill:#FFFFFF;}
	.st4{fill:#661D32;}
</style>
<g>
	<circle class="st0" cx="24.8" cy="24.9" r="18.8"/>
	<path class="st1" d="M6.1,24.9C5.9,7.6,26.3-0.5,38.4,11.3c7.4,7.2,7.4,20,0,27.1C26.2,50.4,5.9,42.2,6.1,24.9L6.1,24.9z M6.1,24.9
		c0.4,16.1,20.1,24.5,31.7,13c7.1-6.8,7.1-19,0-25.9C26.2,0.4,6.5,8.8,6.1,24.9L6.1,24.9z"/>
</g>
<g>
	<g>
		<path class="st2" d="M37,16.2h-7.2c-0.3,0-0.6,0.2-0.6,0.5l-3.1,14.6v0.1v-1.2h-2.4v1.2v-0.1l-1.8-14.6c0-0.3-0.3-0.6-0.6-0.6
			h-8.7c-0.3,0-0.6,0.3-0.6,0.6v15.4c0,0.3,0.3,0.6,0.6,0.6l0,0h11l0,0H26l0,0h11c0.3,0,0.6-0.3,0.6-0.6l0,0V16.8
			C37.7,16.5,37.5,16.2,37,16.2z"/>
		<path class="st2" d="M37,16.2l-5.8,0.1h-1.4c-0.3,0-0.4,0.1-0.5,0.3c-0.9,4.6-1.9,10.2-2.9,14.8h-0.8v-1.2l0.3,0.3h-2.4l0.3-0.3
			v1.2h-0.7c-0.3-4.8-0.8-9.8-1.4-14.7c-0.1-0.5-0.9-0.3-1.3-0.4h-3.3c-0.6,0-3.6,0-4.1,0h-0.4c-0.1,0-0.2,0-0.3,0.1
			c-0.3,0.2-0.1,1-0.2,1.4c0.1,4.6,0.2,9.4,0.2,14c0,0.2-0.1,0.6,0.2,0.6c0,0,0.1,0,0.2,0c2.7,0,8.2,0,11-0.1h0.4v0.4l-0.4-0.4h2.4
			l-0.4,0.4v-0.4h0.4h7.1l3.5,0.1c0.3,0,0.4,0.1,0.6-0.1c0.2-0.1,0.1-0.5,0.1-0.6c0.1-3.4,0.3-9.1,0.3-12.5v-1.8
			C37.6,17.1,37.8,16.3,37,16.2L37,16.2z M37,16.1c0.8,0,0.7,0.9,0.7,1.4c0,1.8,0,3.6,0.1,5.3c0,1.7,0.2,7.8,0.3,9.4
			c0,0.8-0.7,1-1.3,1l-3.5,0.1h-7.1l0.4-0.4v0.4c-0.3,0-2.5,0-2.9,0h-0.4v-0.4l0.4,0.4c-2.2,0-7.8,0-9.9,0H13c-0.3,0-0.8,0-1.1-0.3
			s-0.3-0.8-0.3-1.1c0-5,0.1-9.9,0.2-14.8C11.7,16.6,12,16,12.6,16c0.3,0,1,0,1.3,0c2,0,5.4,0,7.4,0c0.3,0,0.7,0.3,0.8,0.6
			c0.6,5,1.3,9.8,2,14.7h-0.7v-1.2v-0.3h0.3c0.3,0,2.6,0,2.8,0c0,0.3,0,1.3,0,1.5h-0.8c0-0.3,0.1-0.3,0.1-0.4
			c1-4.5,2.1-9.3,3.2-13.7c0.1-0.5,0.3-1.2,0.9-1.1h1.4H37L37,16.1z"/>
	</g>
	<path class="st1" d="M29.3,16.2l-3.2,15.2v-1.1h-2.4v1.1l-1.9-15.2H13v16.3l0.6-0.3c3.5-1.4,7.2-1.4,10.7-0.1l0.4,0.2l0.4-0.2
		c3.6-1.3,7.4-1.3,10.9,0.1l0.6,0.3V16.2H29.3z"/>
	<g>
		<path class="st3" d="M24.8,31.8L24.8,31.8c-3.6-1.5-7.7-1.5-11.3,0l0,0V14.9l0,0c3.6-1.5,7.7-1.5,11.3,0l0,0V31.8z"/>
		<path class="st1" d="M24.9,31.8c-3.9-1.3-8.1-1.2-11.7,0.5v-0.6c0.1-5.6,0.4-11.5,0.2-17c3.7-1.8,8.2-1.8,12-0.2
			C25.3,19.7,25.1,26.7,24.9,31.8L24.9,31.8z M24.8,31.8c-0.2-4.9-0.5-12-0.4-16.9l0.3,0.4c-3.5-1.5-7.5-1.5-11-0.2l0.2-0.3
			c-0.1,2.8-0.2,5.6-0.1,8.4c0.1,2.5,0.2,6,0.3,8.4l-0.5-0.3C17,30,21.4,30,24.8,31.8L24.8,31.8z"/>
	</g>
	<path class="st4" d="M33.6,34.3l-0.8-0.7L32,34.3c-0.3,0.3-0.7,0-0.7-0.3v-4.4h2.9V34C34.2,34.3,33.8,34.4,33.6,34.3z"/>
	<path class="st4" d="M31.3,31.1c0.9,0.1,1.9,0.2,2.9,0.4v-2h-2.9C31.3,29.5,31.3,31.1,31.3,31.1z"/>
	<g>
		<path class="st3" d="M24.8,31.8L24.8,31.8c3.6-1.5,7.7-1.5,11.3,0l0,0V14.9l0,0c-3.6-1.5-7.7-1.5-11.3,0l0,0V31.8z"/>
		<path class="st1" d="M24.9,31.8c3.5-1.8,7.8-1.8,11.5-0.3l-0.5,0.3c0-2.4,0.1-6,0.3-8.4c0.1-2.8,0-5.6-0.1-8.4l0.2,0.3
			c-3.5-1.3-7.6-1.3-11,0.2l0.3-0.4C25.3,19.7,25.1,26.9,24.9,31.8L24.9,31.8z M24.8,31.8c-0.2-5.1-0.5-12.1-0.4-17.3
			c3.8-1.6,8.3-1.6,12,0.2c-0.3,5.6,0.1,11.5,0.2,17v0.6C32.9,30.7,28.7,30.5,24.8,31.8L24.8,31.8z"/>
	</g>
	<path class="st4" d="M34.3,18.6L34.3,18.6c-2.4-0.8-5-0.8-7.3,0c-0.2,0.1-0.3,0-0.3-0.2c-0.1-0.2,0-0.3,0.2-0.3l0,0
		c2.4-0.9,5.1-0.9,7.6,0c0.2,0.1,0.3,0.3,0.2,0.3C34.4,18.5,34.4,18.6,34.3,18.6z"/>
	<path class="st4" d="M34.3,21.7L34.3,21.7c-2.4-0.8-5-0.8-7.3,0c-0.2,0.1-0.3,0-0.4-0.2s0-0.3,0.2-0.4l0,0c2.4-0.9,5.1-0.9,7.6,0
		c0.2,0.1,0.3,0.3,0.2,0.3C34.4,21.6,34.4,21.7,34.3,21.7z"/>
	<path class="st4" d="M34.3,24.8L34.3,24.8c-2.4-0.8-5-0.8-7.3,0c-0.2,0.1-0.3,0-0.4-0.2s0-0.3,0.2-0.4l0,0c2.4-0.9,5.1-0.9,7.6,0
		c0.2,0.1,0.3,0.3,0.2,0.4C34.4,24.7,34.4,24.8,34.3,24.8z"/>
	<path class="st4" d="M34.3,28L34.3,28c-2.4-0.8-5-0.8-7.3,0c-0.2,0.1-0.3,0-0.3-0.2c-0.1-0.2,0-0.3,0.2-0.3c2.4-0.9,5.1-0.9,7.6,0
		c0.2,0.1,0.3,0.3,0.2,0.3C34.4,27.9,34.4,28,34.3,28L34.3,28z"/>
	<path class="st4" d="M15.5,18.6c-0.2,0-0.3-0.2-0.3-0.3s0.1-0.3,0.2-0.3c2.4-0.9,5.1-0.9,7.6,0c0.2,0.1,0.3,0.3,0.2,0.3
		c-0.1,0.2-0.3,0.3-0.3,0.2C20.4,17.7,17.8,17.7,15.5,18.6C15.6,18.6,15.5,18.6,15.5,18.6z"/>
	<path class="st4" d="M15.5,21.7c-0.2,0-0.3-0.2-0.3-0.3c0-0.1,0.1-0.3,0.2-0.3c2.4-0.9,5.1-0.9,7.6,0c0.2,0.1,0.3,0.3,0.2,0.3
		c-0.1,0.1-0.3,0.3-0.3,0.2l0,0C20.4,20.9,17.8,20.9,15.5,21.7C15.6,21.7,15.6,21.7,15.5,21.7z"/>
	<path class="st4" d="M15.5,24.8c-0.2,0-0.3-0.2-0.3-0.3c0-0.1,0.1-0.3,0.2-0.3c2.4-0.9,5.1-0.9,7.6,0c0.2,0.1,0.3,0.3,0.2,0.3
		s-0.3,0.3-0.3,0.2l0,0C20.5,23.9,17.9,23.9,15.5,24.8C15.6,24.8,15.5,24.8,15.5,24.8z"/>
	<path class="st4" d="M15.5,28c-0.2,0-0.3-0.2-0.3-0.3c0-0.1,0.1-0.3,0.2-0.3c2.4-0.9,5.1-0.9,7.6,0c0.2,0.1,0.3,0.3,0.2,0.3
		c-0.1,0.1-0.3,0.3-0.3,0.2C20.4,27.2,17.8,27.2,15.5,28C15.6,27.9,15.5,28,15.5,28z"/>
</g>
</svg>
