<?xml version="1.0" encoding="utf-8"?>
<!-- Generator: Adobe Illustrator 26.2.1, SVG Export Plug-In . SVG Version: 6.00 Build 0)  -->
<svg version="1.1" id="Capa_1" xmlns="http://www.w3.org/2000/svg" xmlns:xlink="http://www.w3.org/1999/xlink" x="0px" y="0px"
	 viewBox="0 0 50 50" style="enable-background:new 0 0 50 50;" xml:space="preserve">
<style type="text/css">
	.st0{fill:#002F6C;}
	.st1{fill:#E73164;}
</style>
<path class="st0" d="M41,24H26v-5c0-0.55-0.45-1-1-1s-1,0.45-1,1v5H9c-0.55,0-1,0.45-1,1v6c0,0.55,0.45,1,1,1s1-0.45,1-1v-5h14v5
	c0,0.55,0.45,1,1,1s1-0.45,1-1v-5h14v5c0,0.55,0.45,1,1,1s1-0.45,1-1v-6C42,24.45,41.55,24,41,24z"/>
<circle class="st1" cx="25" cy="9" r="5"/>
<circle class="st1" cx="9" cy="41" r="5"/>
<circle class="st1" cx="25" cy="41" r="5"/>
<circle class="st1" cx="41" cy="41" r="5"/>
</svg>
