<?xml version="1.0" encoding="utf-8"?>
<!-- Generator: Adobe Illustrator 26.2.1, SVG Export Plug-In . SVG Version: 6.00 Build 0)  -->
<svg version="1.1" id="Capa_1" xmlns="http://www.w3.org/2000/svg" xmlns:xlink="http://www.w3.org/1999/xlink" x="0px" y="0px"
	 viewBox="0 0 50 50" style="enable-background:new 0 0 50 50;" xml:space="preserve">
<style type="text/css">
	.st0{fill:#E73164;}
	.st1{fill:#661D32;}
	.st2{fill:#FFFFFF;}
</style>
<g>
	<circle class="st0" cx="25.32" cy="24.74" r="22.68"/>
	<path class="st1" d="M2.58,24.74C2.43,8.46,18.98-3.11,34.1,3.53C52.7,11.7,53.12,38.1,34.2,46.18
		C19.01,52.57,2.42,41.07,2.58,24.74L2.58,24.74z M2.68,24.74c0.18,19.7,24.38,29.48,38.34,15.71c8.67-8.27,9-23.27,0.21-31.62
		C27.27-4.91,2.78,5.08,2.68,24.74L2.68,24.74z"/>
</g>
<g>
	<path class="st2" d="M37.04,10.07v13.37c0,1.2-0.97,2.17-2.17,2.17h-7.38L25.3,27.8l-2.19-2.19h-7.35c-1.2,0-2.17-0.97-2.17-2.17
		V10.07c0-1.2,0.97-2.17,2.17-2.17h19.1C36.07,7.9,37.04,8.87,37.04,10.07z"/>
	<path class="st1" d="M37.09,10.07c0,3.49,0.17,8.54,0.31,12.08c0.35,2.92-0.95,4.18-3.87,3.9c-2.01,0-4.03-0.05-6.04-0.12
		c0,0,0.23-0.09,0.23-0.09l-2.25,2.13l-0.17,0.16c0,0-0.15-0.16-0.15-0.16c-0.7-0.76-1.43-1.49-2.15-2.23l0.12,0.05
		c-2.64-0.09-5.22,0.09-7.87-0.01c-1.16-0.2-2.03-1.38-1.96-2.53c0,0-0.04-1.56-0.04-1.56c-0.04-3.27-0.18-8.53-0.16-11.76
		c0.04-1.71,1.7-2.77,3.3-2.55c0,0,3.13,0.01,3.13,0.01c2.09-0.01,4.17,0.04,6.26,0.1l6.26,0.23c1.05,0.05,2.08,0.06,3.14,0.12
		C36.25,7.98,37.12,8.98,37.09,10.07L37.09,10.07z M36.99,10.07c-0.18-2.74-3.06-1.99-4.97-1.99c0,0-6.26,0.23-6.26,0.23
		c-2.09,0.06-4.17,0.1-6.26,0.1l-3.13,0.01c-1.07-0.14-2.21,0.4-2.27,1.56c-0.05,3.17-0.09,8.48-0.17,11.7
		c0.05,0.81-0.28,2.21,0.29,2.88c0.58,0.9,1.64,0.85,2.63,0.86c2.11,0.01,4.22,0.06,6.33,0.01c0.76,0.74,1.51,1.49,2.28,2.2
		c0,0-0.32,0-0.32,0l2.12-2.26c0.1-0.12,0.09-0.09,0.23-0.09c2.01-0.07,4.03-0.11,6.04-0.12c0,0,1.47-0.02,1.47-0.02
		c0.82-0.04,1.52-0.73,1.63-1.54C36.75,19.51,37.01,14.16,36.99,10.07L36.99,10.07z"/>
</g>
<g>
	<path class="st0" d="M25.79,10.25c-0.07,0.04-0.15,0.06-0.22,0.11c-0.12,0.09-0.24,0.2-0.35,0.3c-0.12,0.12-0.25,0.19-0.42,0.22
		c-0.43,0.09-0.68,0.18-1.08,0.35c-0.88,0.37-1.47,1.07-1.89,1.92c-0.37,0.75-0.38,1.56-0.35,2.38c0.06,1.69,1.07,2.92,1.6,4.21
		h0.14c-0.21,0-0.4,0.14-0.4,0.32v0.63c0,0.18,0.19,0.41,0.4,0.41h-0.3c-0.27,0-0.55,0.21-0.55,0.47v0.86
		c0,0.26,0.28,0.47,0.55,0.47h4.37c0.27,0,0.51-0.21,0.51-0.47v-0.86c0-0.26-0.24-0.47-0.51-0.47H27c0.21,0,0.36-0.23,0.36-0.41
		v-0.63c0-0.18-0.15-0.32-0.36-0.32h0.06c0.14-0.13,0.13-0.35,0.25-0.48c0.55-0.58,0.65-1.4,0.26-2.11
		c-0.19-0.34-0.45-0.62-0.76-0.86c-0.34-0.27-0.7-0.52-1.05-0.79c-0.1-0.08-0.09-0.16-0.22-0.28c0.33,0.07,0.49,0.15,0.75,0.17
		c0.45,0.02,0.85,0.22,1.21,0.48c0.14,0.1,0.3,0.18,0.47,0.24c0.21,0.07,0.32,0.02,0.45-0.17c0.03-0.05,0.05-0.11,0.09-0.18
		c0.25,0.01,0.39-0.19,0.46-0.42c0.02-0.08,0.06-0.15,0.09-0.23c0.2-0.52,0.1-0.98-0.28-1.39c-0.08-0.09-0.18-0.17-0.27-0.26
		c-0.29-0.29-0.59-0.59-0.88-0.89c-0.21-0.22-0.4-0.46-0.61-0.67c-0.1-0.11-0.19-0.21-0.24-0.36c-0.07-0.21-0.21-0.38-0.41-0.49
		c-0.07-0.04-0.32-0.09-0.37-0.12C25.92,10.7,26.12,10.4,25.79,10.25z"/>
	<path class="st1" d="M25.79,10.3c-0.19,0.11-0.34,0.31-0.52,0.49c-0.21,0.23-0.53,0.27-0.72,0.38c-2.46,0.67-3.15,3.53-2.34,5.72
		c0.31,0.88,0.83,1.74,1.19,2.74l-0.31-0.21c0,0,0.14,0.01,0.14,0.01l0,0.65c-0.07-0.02-0.1,0.04-0.1,0c0,0.19-0.04,0.49-0.03,0.67
		c0.02,0.07,0.1,0.13,0.13,0.14l0,0.45c-0.29-0.04-0.72-0.05-0.67,0.38c0,0-0.01,0.61-0.01,0.61c-0.02,0.21,0.03,0.28,0.18,0.38
		c0.16,0.12,0.9,0.03,1.14,0.05c0.61,0,1.85-0.04,2.46-0.07c0,0,0.61-0.03,0.61-0.03c0.29-0.03,0.47,0.04,0.55-0.15
		c0.01-0.04-0.03-0.69-0.03-0.76c0.02-0.33-0.15-0.22-0.45-0.23c0,0,0-0.81,0-0.81c-0.09,0.01-0.07,0.03-0.07-0.01
		c0,0.06-0.02-0.43-0.02-0.5c0,0,0-0.11,0-0.11c0-0.04,0,0.02,0,0.02c0.02,0.08,0.1,0.1,0.09,0.1l0-0.92l0.06,0l-0.31,0.12
		c-0.05,0.05-0.01,0.01,0.03-0.14c0.02-0.1,0.16-0.31,0.27-0.42c0.83-1.16-0.42-2.09-1.33-2.71c-0.17-0.11-0.49-0.38-0.52-0.51
		c0-0.01-0.76-1.19-0.76-1.2c0,0,1.22,0.27,1.22,0.27c0.31,0.06,0.45,0.16,0.75,0.18c0.66,0.05,1.13,0.43,1.66,0.74
		c0.16,0.1,0.06,0.01-0.05,0.09c-0.05,0.07,0.05-0.07,0.08-0.14l0.43-0.26c-0.17,0.26,0.33-0.56,0.23-0.81
		c-0.33-1.03-1.89-1.94-2.22-3.07c-0.14-0.25-0.28-0.26-0.59-0.4c0,0-0.04-0.02-0.04-0.02s-0.01-0.04-0.01-0.04
		C25.82,10.7,26.02,10.48,25.79,10.3L25.79,10.3z M25.79,10.2c0.35,0.07,0.27,0.49,0.33,0.7c0,0-0.05-0.06-0.05-0.06
		c0.46,0.03,0.79,0.34,0.97,0.75c0.64,0.67,1.33,1.29,2.03,1.9c0.49,0.4,0.63,1.36,0.36,1.88c-0.07,0.36-0.42,0.9-0.93,0.86
		c0,0,0.43-0.26,0.43-0.26c-0.4,1.07-1.29,0.6-2.01,0.13c-0.46-0.24-1-0.18-1.48-0.35c0,0,0.47-0.92,0.47-0.92
		c0.08,0.07,0.17,0.18,0.21,0.26c0.05,0.1,0.02,0.02-0.03-0.01c0.18,0.12,0.66,0.5,0.84,0.64c1.27,0.76,1.92,2.7,0.72,3.86
		c-0.02,0.01-0.06,0.28-0.29,0.5c0,0-0.13,0.13-0.13,0.13c-0.05,0-0.2-0.01-0.24,0c0,0,0-0.92,0-0.92c0.28-0.01,0.66,0.18,0.77,0.55
		c0.06,0.21,0.02,0.38,0.02,0.57c-0.02,0.19,0.02,0.36-0.08,0.59c-0.1,0.23-0.33,0.5-0.72,0.51l0-0.81
		c0.65-0.06,1.27,0.32,1.17,1.04c-0.04,0.3,0.03,0.76-0.14,1.06c-0.22,0.41-0.72,0.43-1.1,0.38c-0.39-0.01-1.44-0.07-1.84-0.08
		c-0.4-0.02-1.45-0.01-1.84-0.03c-0.21-0.01-0.49,0.02-0.68-0.1c-0.47-0.21-0.33-0.86-0.36-1.26c-0.08-0.6,0.49-0.86,1.02-0.83
		c0,0,0,0.45,0,0.45c-0.28,0-0.46-0.17-0.58-0.36c-0.11-0.18-0.08-0.39-0.1-0.56c0.01-0.08-0.02-0.26-0.02-0.34
		c-0.02-0.38,0.38-0.66,0.69-0.65c0,0,0,0.65,0,0.65l-0.14,0.01l-0.2,0.01c0,0-0.11-0.22-0.11-0.22c-1.74-2.55-2.93-6.42,0.18-8.54
		c0.64-0.47,1.51-0.43,2.15-0.74C25.3,10.46,25.5,10.27,25.79,10.2L25.79,10.2z"/>
</g>
<g>
	<g>
		<path class="st2" d="M32.19,40.8H17.02c-1.02,0-1.85-0.83-1.85-1.85v-6.57c0-1.02,0.83-1.85,1.85-1.85h15.17
			c1.02,0,1.85,0.83,1.85,1.85v6.57C34.04,39.97,33.22,40.8,32.19,40.8z"/>
		<path class="st1" d="M32.19,40.85c-4.59,0-9.18,0.56-13.77,0.37c-0.55-0.05-1.2,0-1.78-0.1c-0.67-0.14-1.25-0.61-1.52-1.21
			c-0.28-0.51-0.17-1.26-0.15-1.82c0.06-1.67,0.06-3.5,0.03-5.16c-0.19-1.26,0.59-2.64,2.02-2.66C21.61,30.07,26.21,30,30.8,30
			l0.86,0.01c1.43-0.17,2.9,0.82,2.83,2.37c-0.02,1.6-0.24,4.4-0.31,6.03C34.3,39.6,33.5,40.89,32.19,40.85L32.19,40.85z
			 M32.19,40.75c1.23,0,1.94-1.19,1.71-2.34c0,0-0.19-3.44-0.19-3.44c-0.03-0.57-0.07-1.15-0.09-1.72l-0.03-0.86
			c-0.02-0.65-0.54-1.22-1.17-1.32c-5.12,0-10.28-0.04-15.4-0.26c-1.13-0.06-1.82,1.05-1.67,2.12c-0.02,1.15-0.03,2.3-0.01,3.44
			c0,0,0.04,1.72,0.04,1.72c0.05,0.44-0.03,1.18,0.24,1.57c0.41,0.74,1.15,0.85,1.94,0.76C22.44,40.14,27.32,40.73,32.19,40.75
			L32.19,40.75z"/>
	</g>
	<g>
		<path class="st2" d="M16.41,30.63c0,0,3.79-3.22,8.2,0V40.8c0,0-3.91-3.97-8.2-1.42V30.63z"/>
		<path class="st1" d="M16.36,30.61c2.24-2.29,6.07-2.31,8.51-0.32c0.11,0.08,0.17,0.21,0.16,0.34c-0.06,1.7-0.24,3.39-0.27,5.09
			c-0.03,1.7,0.05,3.39,0.15,5.09c0.02,0.28-0.35,0.43-0.53,0.22C15.91,34.43,15.04,47.86,16.36,30.61L16.36,30.61z M16.46,30.65
			c0.29,3.04,0.42,5.88,0.48,8.73l-0.79-0.45c1.38-0.84,3.12-1.14,4.69-0.72c1.55,0.39,2.91,1.22,4,2.37c0,0-0.53,0.22-0.53,0.22
			c0.29-3.4,0.1-6.78-0.12-10.17c0,0,0.18,0.35,0.18,0.35C22.05,29.26,18.9,29.13,16.46,30.65L16.46,30.65z"/>
	</g>
	<g>
		<line class="st2" x1="15.41" y1="40.62" x2="16.41" y2="39.38"/>
		<path class="st1" d="M15.37,40.58c-0.18-0.32-0.18-0.49-0.03-0.54c0.2,0,0.46,0.1,0.36-0.22c-0.13-0.52,0.13-0.63,0.68-0.48
			c0.23,0.2,0.25,0.58,0.2,0.68c-0.09,0.1-0.21,0.17-0.45,0.15c-0.11,0-0.2,0.01-0.21,0.08c-0.02,0.07,0.07,0.22,0.07,0.31
			C15.99,40.73,15.61,40.78,15.37,40.58L15.37,40.58z"/>
	</g>
	<g>
		<path class="st2" d="M32.82,30.63c0,0-3.79-3.22-8.2,0V40.8c0,0,3.91-3.97,8.2-1.42V30.63z"/>
		<path class="st1" d="M32.77,30.65c-2.44-1.51-5.59-1.39-7.9,0.32c0,0,0.18-0.35,0.18-0.35c-0.22,3.39-0.4,6.78-0.12,10.17
			c0,0-0.53-0.22-0.53-0.22c1.09-1.15,2.46-1.99,4-2.37c1.57-0.42,3.31-0.12,4.69,0.72c0,0-0.79,0.45-0.79,0.45
			C32.35,36.53,32.48,33.69,32.77,30.65L32.77,30.65z M32.86,30.61c1.32,17.25,0.46,3.83-8.02,10.41c-0.19,0.21-0.56,0.06-0.53-0.22
			c0.29-3.4,0.1-6.78-0.12-10.17c0-0.14,0.07-0.27,0.18-0.35C26.8,28.29,30.62,28.32,32.86,30.61L32.86,30.61z"/>
	</g>
	<g>
		<line class="st2" x1="33.82" y1="40.62" x2="32.82" y2="39.38"/>
		<path class="st1" d="M33.78,40.65c-0.35,0.11-0.51,0.07-0.54-0.08c0.04-0.19,0.19-0.43-0.14-0.4c-0.54,0.02-0.59-0.26-0.33-0.76
			c0.24-0.19,0.62-0.13,0.7-0.06c0.08,0.11,0.12,0.24,0.05,0.47c-0.03,0.11-0.03,0.2,0.04,0.22c0.07,0.03,0.23-0.02,0.32-0.01
			C34.06,40.07,34.03,40.45,33.78,40.65L33.78,40.65z"/>
	</g>
</g>
</svg>
