<?xml version="1.0" encoding="utf-8"?>
<!-- Generator: Adobe Illustrator 26.1.0, SVG Export Plug-In . SVG Version: 6.00 Build 0)  -->
<svg version="1.1" id="Capa_1" xmlns="http://www.w3.org/2000/svg" xmlns:xlink="http://www.w3.org/1999/xlink" x="0px" y="0px"
	 viewBox="0 0 462 594" style="enable-background:new 0 0 462 594;" xml:space="preserve">
<style type="text/css">
	.st0{fill:#002F6C;}
	.st1{fill:#3CB037;}
	.st2{fill:#299123;}
</style>
<path class="st0" d="M35.6,481.89V341.05h48.39c10.37,0,19.77,1.4,28.19,4.21s15.15,7.52,20.2,14.14c5.04,6.63,7.56,15.62,7.56,27
	c0,10.95-2.52,19.95-7.56,27c-5.04,7.06-11.74,12.28-20.09,15.66c-8.36,3.39-17.5,5.07-27.43,5.07h-17.5v47.74L35.6,481.89
	L35.6,481.89z M67.35,408.88h15.56c17.28,0,25.92-7.48,25.92-22.47c0-7.34-2.31-12.53-6.91-15.56c-4.61-3.02-11.23-4.53-19.87-4.53
	H67.35V408.88z"/>
<path class="st1" d="M236.93,484.48c-12.82,0-24.45-2.73-34.88-8.21c-10.44-5.47-18.72-13.57-24.84-24.3
	c-6.12-10.73-9.18-23.94-9.18-39.63c0-15.56,3.13-28.84,9.39-39.86c6.26-11.02,14.58-19.44,24.95-25.27
	c10.37-5.83,21.82-8.75,34.34-8.75c10.22,0,19.01,1.88,26.35,5.61c7.34,3.75,13.32,7.99,17.93,12.75l-16.64,20.31
	c-3.6-3.16-7.42-5.83-11.44-7.99c-4.04-2.16-9.07-3.24-15.12-3.24c-10.95,0-19.87,4.04-26.78,12.09
	c-6.91,8.06-10.37,19.15-10.37,33.26c0,14.4,3.31,25.64,9.93,33.7c6.62,8.06,16.49,12.09,29.59,12.09c2.88,0,5.69-0.36,8.43-1.08
	c2.73-0.71,4.97-1.8,6.69-3.24v-24.19h-23.33v-25.92h51.41v64.81c-4.9,4.75-11.41,8.79-19.55,12.09
	C255.69,482.82,246.72,484.48,236.93,484.48z"/>
<path class="st0" d="M334.61,481.89V341.05h88.14v26.78h-56.38v28.3h47.96v26.57h-47.96v32.4h58.54v26.78L334.61,481.89
	L334.61,481.89z"/>
<path class="st0" d="M382.13,206.11l-29.47-58.88c-0.74-69.65-57.8-125.55-127.51-124.84c-1.9,0.04-3.8,0.09-5.69,0.22
	c-66.39,4.4-118.29,59.01-119.3,125.56c0,44.48,23.28,85.78,61.37,108.76c6.16,3.7,9.44,10.83,8.32,17.93l-3.5,23.24
	c-0.48,3.27,1.78,6.33,5.05,6.81c0.3,0.04,0.61,0.09,0.91,0.09h102.21c3.32,0,6.03-2.72,6.03-6.03v-1.9
	c0.04-9.36,7.2-17.15,16.51-17.97l28.07-2.36c15.52-1.34,27.46-14.3,27.55-29.92v-31.99h24.05c3.32,0,6.03-2.66,6.08-5.99
	C382.78,207.87,382.55,206.92,382.13,206.11z M160.39,144.81c35.47,2.66,63.63,30.82,66.3,66.3
	C191.25,208.39,163.12,180.24,160.39,144.81z M210.96,156.49c-3.02-28.46,4.48-57.03,21.08-80.34
	c16.59,23.31,24.09,51.9,21.08,80.34c-9.4,8.75-16.64,19.58-21.08,31.64C227.59,176.06,220.36,165.24,210.96,156.49z M237.38,211.1
	c2.66-35.47,30.82-63.63,66.3-66.3C300.96,180.24,272.81,208.39,237.38,211.1z"/>
<rect x="33.49" y="494.29" class="st0" width="393.54" height="5.69"/>
<rect x="33.49" y="322.98" class="st0" width="393.54" height="5.69"/>
<g>
	<path class="st2" d="M36.7,525.76v-16.41h9.46v1.75h-7.38v5.56h6.25v1.75h-6.25v7.36L36.7,525.76L36.7,525.76z"/>
	<path class="st2" d="M53.24,526.06c-0.99,0-1.9-0.25-2.77-0.75c-0.86-0.5-1.55-1.23-2.08-2.18c-0.52-0.96-0.79-2.09-0.79-3.43
		c0-1.37,0.27-2.52,0.79-3.48c0.52-0.95,1.22-1.68,2.08-2.18c0.86-0.5,1.78-0.75,2.77-0.75c1,0,1.93,0.25,2.77,0.75
		s1.54,1.23,2.07,2.18c0.52,0.95,0.79,2.11,0.79,3.48c0,1.34-0.27,2.47-0.79,3.43c-0.52,0.95-1.21,1.68-2.07,2.18
		C55.17,525.81,54.24,526.06,53.24,526.06z M53.24,524.36c1.05,0,1.89-0.43,2.54-1.29c0.64-0.86,0.96-1.98,0.96-3.36
		c0-1.4-0.32-2.53-0.96-3.41c-0.64-0.86-1.49-1.3-2.54-1.3c-1.04,0-1.88,0.43-2.52,1.3c-0.65,0.87-0.97,2-0.97,3.41
		c0,1.39,0.32,2.51,0.97,3.36S52.2,524.36,53.24,524.36z"/>
	<path class="st2" d="M62.07,525.76V513.6h1.7l0.17,2.2h0.07c0.42-0.76,0.92-1.38,1.53-1.83c0.6-0.45,1.25-0.67,1.93-0.67
		c0.48,0,0.91,0.08,1.3,0.25l-0.4,1.8c-0.2-0.07-0.38-0.12-0.55-0.15c-0.17-0.03-0.37-0.05-0.62-0.05c-0.51,0-1.05,0.21-1.61,0.62
		c-0.56,0.42-1.05,1.15-1.46,2.18v7.81L62.07,525.76L62.07,525.76L62.07,525.76z"/>
	<path class="st2" d="M70.75,525.76V513.6h1.7l0.17,1.75h0.07c0.53-0.58,1.12-1.07,1.75-1.46c0.63-0.39,1.31-0.59,2.03-0.59
		c0.93,0,1.66,0.21,2.19,0.61c0.52,0.41,0.91,0.98,1.16,1.71c0.63-0.68,1.28-1.25,1.93-1.68c0.65-0.43,1.35-0.65,2.08-0.65
		c1.25,0,2.18,0.41,2.79,1.21c0.61,0.81,0.91,1.99,0.91,3.54v7.71h-2.05v-7.43c0-1.14-0.18-1.96-0.55-2.47s-0.93-0.77-1.7-0.77
		c-0.9,0-1.92,0.62-3.06,1.88v8.8h-2.05v-7.43c0-1.14-0.18-1.96-0.55-2.47s-0.94-0.77-1.73-0.77c-0.9,0-1.92,0.62-3.06,1.88v8.8
		L70.75,525.76L70.75,525.76z"/>
	<path class="st2" d="M94.29,526.06c-1.02,0-1.86-0.31-2.54-0.91c-0.67-0.61-1.01-1.45-1.01-2.54c0-1.34,0.6-2.36,1.79-3.06
		c1.2-0.71,3.08-1.2,5.66-1.49c0-0.51-0.07-1-0.22-1.48c-0.14-0.47-0.39-0.85-0.75-1.14c-0.36-0.29-0.87-0.44-1.54-0.44
		c-0.7,0-1.36,0.13-1.98,0.4c-0.61,0.27-1.17,0.56-1.65,0.9l-0.8-1.43c0.56-0.37,1.26-0.72,2.09-1.06c0.82-0.34,1.72-0.51,2.69-0.51
		c1.49,0,2.56,0.46,3.23,1.36c0.66,0.91,1,2.13,1,3.64v7.46h-1.7l-0.17-1.45h-0.07c-0.56,0.47-1.19,0.87-1.87,1.23
		C95.78,525.88,95.07,526.06,94.29,526.06z M94.9,524.41c0.58,0,1.14-0.14,1.65-0.42c0.51-0.28,1.07-0.68,1.65-1.2v-3.38
		c-2.02,0.25-3.43,0.62-4.24,1.13c-0.81,0.5-1.21,1.15-1.21,1.93c0,0.68,0.21,1.18,0.62,1.49C93.79,524.25,94.29,524.41,94.9,524.41
		z"/>
	<path class="st2" d="M108.91,526.06c-1.07,0-2.03-0.25-2.91-0.75c-0.87-0.5-1.55-1.23-2.05-2.18c-0.5-0.96-0.75-2.09-0.75-3.43
		c0-1.37,0.27-2.52,0.81-3.48c0.54-0.95,1.26-1.68,2.15-2.18c0.89-0.5,1.85-0.75,2.89-0.75c0.8,0,1.49,0.14,2.06,0.42
		c0.57,0.28,1.07,0.61,1.49,1l-1.05,1.35c-0.35-0.32-0.72-0.57-1.11-0.77c-0.39-0.2-0.83-0.3-1.31-0.3c-0.73,0-1.39,0.2-1.97,0.59
		c-0.57,0.39-1.03,0.94-1.35,1.65c-0.32,0.71-0.49,1.53-0.49,2.47c0,1.39,0.35,2.51,1.04,3.36c0.69,0.86,1.59,1.29,2.72,1.29
		c0.56,0,1.09-0.12,1.58-0.37c0.48-0.24,0.91-0.53,1.28-0.86l0.9,1.38c-0.55,0.48-1.16,0.86-1.83,1.14
		C110.34,525.92,109.64,526.06,108.91,526.06z"/>
	<path class="st2" d="M116.56,511.1c-0.4,0-0.73-0.12-0.99-0.37c-0.26-0.24-0.39-0.57-0.39-0.99c0-0.4,0.13-0.72,0.39-0.97
		c0.26-0.25,0.59-0.37,0.99-0.37s0.73,0.12,0.99,0.37c0.26,0.25,0.39,0.57,0.39,0.97c0,0.42-0.13,0.75-0.39,0.99
		C117.29,510.97,116.97,511.1,116.56,511.1z M115.51,525.76V513.6h2.05v12.16L115.51,525.76L115.51,525.76z"/>
	<path class="st2" d="M126.39,526.06c-0.98,0-1.9-0.25-2.77-0.75c-0.86-0.5-1.55-1.23-2.08-2.18c-0.52-0.96-0.79-2.09-0.79-3.43
		c0-1.37,0.27-2.52,0.79-3.48c0.52-0.96,1.22-1.68,2.08-2.18s1.78-0.75,2.77-0.75c1,0,1.93,0.25,2.77,0.75
		c0.85,0.5,1.54,1.23,2.07,2.18c0.53,0.95,0.79,2.11,0.79,3.48c0,1.34-0.27,2.47-0.79,3.43c-0.52,0.95-1.21,1.68-2.07,2.18
		C128.31,525.81,127.4,526.06,126.39,526.06z M126.39,524.36c1.05,0,1.9-0.43,2.54-1.29s0.96-1.98,0.96-3.36
		c0-1.4-0.32-2.53-0.96-3.41c-0.64-0.86-1.49-1.3-2.54-1.3c-1.04,0-1.88,0.43-2.52,1.3c-0.65,0.86-0.97,2-0.97,3.41
		c0,1.39,0.32,2.51,0.97,3.36C124.52,523.93,125.36,524.36,126.39,524.36z M126.05,511.42l-1.05-1.03l3.53-4.18l1.45,1.38
		L126.05,511.42z"/>
	<path class="st2" d="M135.23,525.76V513.6h1.7l0.17,1.75h0.07c0.58-0.58,1.2-1.07,1.85-1.46c0.65-0.39,1.4-0.59,2.23-0.59
		c1.29,0,2.23,0.41,2.82,1.21c0.59,0.81,0.89,1.99,0.89,3.54v7.71h-2.05v-7.43c0-1.14-0.18-1.96-0.55-2.47
		c-0.37-0.51-0.95-0.77-1.75-0.77c-0.61,0-1.17,0.16-1.66,0.47c-0.49,0.32-1.05,0.78-1.66,1.4v8.8L135.23,525.76L135.23,525.76
		L135.23,525.76z"/>
	<path class="st2" d="M165.77,526.06c-1.09,0-2.07-0.26-2.95-0.76c-0.89-0.51-1.59-1.24-2.1-2.19c-0.51-0.95-0.77-2.08-0.77-3.41
		c0-1.34,0.27-2.48,0.79-3.43c0.52-0.96,1.2-1.69,2.04-2.2c0.83-0.51,1.71-0.77,2.62-0.77c1.55,0,2.75,0.51,3.59,1.55
		c0.84,1.04,1.26,2.42,1.26,4.15c0,0.22,0,0.43-0.01,0.64s-0.03,0.39-0.07,0.54h-8.21c0.08,1.29,0.49,2.31,1.21,3.08
		c0.72,0.76,1.67,1.15,2.84,1.15c0.58,0,1.12-0.09,1.61-0.27c0.49-0.17,0.96-0.41,1.41-0.69l0.72,1.35
		c-0.51,0.33-1.1,0.62-1.76,0.87C167.35,525.94,166.6,526.06,165.77,526.06z M161.94,518.7h6.5c0-1.24-0.27-2.18-0.79-2.82
		s-1.26-0.96-2.22-0.96c-0.85,0-1.61,0.33-2.29,0.99C162.48,516.57,162.07,517.5,161.94,518.7z"/>
	<path class="st2" d="M173.25,525.76V513.6h1.7l0.17,1.75h0.07c0.58-0.58,1.2-1.07,1.85-1.46s1.4-0.59,2.23-0.59
		c1.29,0,2.23,0.41,2.82,1.21c0.59,0.81,0.89,1.99,0.89,3.54v7.71h-2.05v-7.43c0-1.14-0.18-1.96-0.55-2.47
		c-0.37-0.51-0.95-0.77-1.75-0.77c-0.61,0-1.17,0.16-1.66,0.47c-0.49,0.32-1.05,0.78-1.66,1.4v8.8L173.25,525.76L173.25,525.76
		L173.25,525.76z"/>
	<path class="st2" d="M198.86,530.89V513.6h1.7l0.17,1.4h0.07c0.55-0.47,1.15-0.86,1.81-1.2c0.66-0.33,1.35-0.5,2.07-0.5
		c1.57,0,2.76,0.56,3.58,1.69s1.23,2.63,1.23,4.52c0,1.37-0.25,2.54-0.74,3.53s-1.14,1.74-1.93,2.25c-0.79,0.51-1.65,0.77-2.59,0.77
		c-0.56,0-1.13-0.12-1.69-0.37c-0.56-0.25-1.12-0.59-1.69-1.02l0.05,2.13v4.1L198.86,530.89L198.86,530.89z M203.89,524.33
		c1,0,1.83-0.43,2.49-1.29c0.66-0.86,0.99-2.04,0.99-3.54c0-1.34-0.25-2.42-0.74-3.24c-0.49-0.82-1.31-1.24-2.47-1.24
		c-0.51,0-1.04,0.14-1.56,0.42c-0.52,0.28-1.09,0.69-1.69,1.23v6.38c0.55,0.47,1.09,0.8,1.6,0.99
		C203.03,524.23,203.49,524.33,203.89,524.33z"/>
	<path class="st2" d="M214.92,526.06c-0.76,0-1.32-0.24-1.66-0.71s-0.51-1.15-0.51-2.04v-15.36h2.05v15.51
		c0,0.32,0.06,0.55,0.17,0.69c0.12,0.14,0.25,0.22,0.4,0.22c0.07,0,0.13,0,0.19-0.01c0.06-0.01,0.15-0.02,0.27-0.03l0.27,1.55
		c-0.13,0.07-0.29,0.12-0.47,0.15C215.44,526.05,215.2,526.06,214.92,526.06z"/>
	<path class="st2" d="M221.93,526.06c-1.02,0-1.86-0.31-2.54-0.91c-0.67-0.61-1.01-1.45-1.01-2.54c0-1.34,0.6-2.36,1.79-3.06
		c1.2-0.71,3.08-1.2,5.66-1.49c0-0.51-0.07-1-0.22-1.48c-0.14-0.47-0.39-0.85-0.75-1.14c-0.36-0.29-0.87-0.44-1.54-0.44
		c-0.7,0-1.36,0.13-1.98,0.4c-0.61,0.27-1.17,0.56-1.65,0.9l-0.8-1.43c0.56-0.37,1.26-0.72,2.09-1.06c0.82-0.34,1.72-0.51,2.69-0.51
		c1.49,0,2.56,0.46,3.23,1.36c0.66,0.91,1,2.13,1,3.64v7.46h-1.7l-0.17-1.45h-0.07c-0.56,0.47-1.19,0.87-1.87,1.23
		C223.42,525.88,222.7,526.06,221.93,526.06z M222.53,524.41c0.58,0,1.14-0.14,1.65-0.42c0.51-0.28,1.07-0.68,1.65-1.2v-3.38
		c-2.02,0.25-3.43,0.62-4.24,1.13c-0.81,0.5-1.21,1.15-1.21,1.93c0,0.68,0.21,1.18,0.62,1.49
		C221.42,524.25,221.93,524.41,222.53,524.41z"/>
	<path class="st2" d="M231.74,525.76V513.6h1.7l0.17,1.75h0.07c0.58-0.58,1.2-1.07,1.85-1.46s1.4-0.59,2.23-0.59
		c1.29,0,2.23,0.41,2.82,1.21c0.59,0.81,0.89,1.99,0.89,3.54v7.71h-2.05v-7.43c0-1.14-0.18-1.96-0.55-2.47
		c-0.37-0.51-0.95-0.77-1.75-0.77c-0.61,0-1.17,0.16-1.66,0.47c-0.49,0.32-1.05,0.78-1.66,1.4v8.8L231.74,525.76L231.74,525.76
		L231.74,525.76z"/>
	<path class="st2" d="M250.35,526.06c-1.09,0-2.07-0.26-2.95-0.76c-0.89-0.51-1.59-1.24-2.1-2.19c-0.51-0.95-0.77-2.08-0.77-3.41
		c0-1.34,0.27-2.48,0.79-3.43c0.52-0.96,1.2-1.69,2.04-2.2c0.83-0.51,1.71-0.77,2.62-0.77c1.55,0,2.75,0.51,3.59,1.55
		c0.84,1.04,1.26,2.42,1.26,4.15c0,0.22,0,0.43-0.01,0.64s-0.03,0.39-0.07,0.54h-8.21c0.08,1.29,0.49,2.31,1.21,3.08
		c0.72,0.76,1.67,1.15,2.84,1.15c0.58,0,1.12-0.09,1.61-0.27c0.49-0.17,0.96-0.41,1.41-0.69l0.72,1.35
		c-0.51,0.33-1.1,0.62-1.76,0.87C251.93,525.94,251.18,526.06,250.35,526.06z M246.52,518.7h6.5c0-1.24-0.27-2.18-0.79-2.82
		s-1.26-0.96-2.22-0.96c-0.85,0-1.61,0.33-2.29,0.99C247.06,516.57,246.66,517.5,246.52,518.7z"/>
	<path class="st2" d="M260.29,526.06c-1.02,0-1.86-0.31-2.54-0.91c-0.67-0.61-1.01-1.45-1.01-2.54c0-1.34,0.6-2.36,1.79-3.06
		c1.2-0.71,3.08-1.2,5.66-1.49c0-0.51-0.07-1-0.22-1.48c-0.14-0.47-0.39-0.85-0.75-1.14c-0.36-0.29-0.87-0.44-1.54-0.44
		c-0.7,0-1.36,0.13-1.98,0.4c-0.61,0.27-1.17,0.56-1.65,0.9l-0.8-1.43c0.56-0.37,1.26-0.72,2.09-1.06c0.82-0.34,1.72-0.51,2.69-0.51
		c1.49,0,2.56,0.46,3.23,1.36c0.66,0.91,1,2.13,1,3.64v7.46h-1.7l-0.17-1.45h-0.07c-0.56,0.47-1.19,0.87-1.87,1.23
		C261.77,525.88,261.06,526.06,260.29,526.06z M260.88,524.41c0.58,0,1.14-0.14,1.65-0.42c0.51-0.28,1.07-0.68,1.65-1.2v-3.38
		c-2.02,0.25-3.43,0.62-4.24,1.13c-0.81,0.5-1.21,1.15-1.21,1.93c0,0.68,0.21,1.18,0.62,1.49
		C259.78,524.25,260.29,524.41,260.88,524.41z"/>
	<path class="st2" d="M274.9,526.06c-1.07,0-2.03-0.25-2.91-0.75c-0.87-0.5-1.55-1.23-2.05-2.18c-0.5-0.96-0.75-2.09-0.75-3.43
		c0-1.37,0.27-2.52,0.81-3.48c0.54-0.95,1.26-1.68,2.15-2.18c0.89-0.5,1.85-0.75,2.89-0.75c0.8,0,1.49,0.14,2.07,0.42
		c0.57,0.28,1.07,0.61,1.49,1l-1.05,1.35c-0.35-0.32-0.72-0.57-1.11-0.77s-0.83-0.3-1.31-0.3c-0.73,0-1.39,0.2-1.97,0.59
		c-0.57,0.39-1.03,0.94-1.35,1.65c-0.32,0.71-0.49,1.53-0.49,2.47c0,1.39,0.35,2.51,1.04,3.36c0.69,0.86,1.59,1.29,2.72,1.29
		c0.56,0,1.1-0.12,1.58-0.37c0.48-0.24,0.91-0.53,1.28-0.86l0.9,1.38c-0.55,0.48-1.16,0.86-1.83,1.14
		C276.33,525.92,275.63,526.06,274.9,526.06z"/>
	<path class="st2" d="M282.55,511.1c-0.4,0-0.73-0.12-0.99-0.37s-0.39-0.57-0.39-0.99c0-0.4,0.13-0.72,0.39-0.97
		c0.26-0.25,0.59-0.37,0.99-0.37s0.73,0.12,0.99,0.37c0.26,0.25,0.39,0.57,0.39,0.97c0,0.42-0.13,0.75-0.39,0.99
		C283.28,510.97,282.96,511.1,282.55,511.1z M281.51,525.76V513.6h2.05v12.16L281.51,525.76L281.51,525.76z"/>
	<path class="st2" d="M292.39,526.06c-0.98,0-1.9-0.25-2.77-0.75c-0.86-0.5-1.55-1.23-2.08-2.18c-0.52-0.96-0.79-2.09-0.79-3.43
		c0-1.37,0.27-2.52,0.79-3.48c0.52-0.96,1.22-1.68,2.08-2.18c0.86-0.5,1.78-0.75,2.77-0.75c1,0,1.93,0.25,2.77,0.75
		s1.54,1.23,2.07,2.18c0.53,0.95,0.79,2.11,0.79,3.48c0,1.34-0.27,2.47-0.79,3.43c-0.52,0.95-1.21,1.68-2.07,2.18
		C294.3,525.81,293.39,526.06,292.39,526.06z M292.39,524.36c1.05,0,1.9-0.43,2.54-1.29s0.96-1.98,0.96-3.36
		c0-1.4-0.32-2.53-0.96-3.41c-0.64-0.86-1.49-1.3-2.54-1.3c-1.04,0-1.88,0.43-2.52,1.3c-0.65,0.86-0.97,2-0.97,3.41
		c0,1.39,0.32,2.51,0.97,3.36S291.36,524.36,292.39,524.36z M292.04,511.42l-1.05-1.03l3.53-4.18l1.45,1.38L292.04,511.42z"/>
	<path class="st2" d="M301.22,525.76V513.6h1.7l0.17,1.75h0.07c0.58-0.58,1.2-1.07,1.85-1.46s1.4-0.59,2.23-0.59
		c1.29,0,2.23,0.41,2.82,1.21c0.59,0.81,0.89,1.99,0.89,3.54v7.71h-2.05v-7.43c0-1.14-0.18-1.96-0.55-2.47
		c-0.37-0.51-0.95-0.77-1.75-0.77c-0.61,0-1.17,0.16-1.66,0.47s-1.05,0.78-1.66,1.4v8.8L301.22,525.76L301.22,525.76L301.22,525.76z
		"/>
	<path class="st2" d="M327.03,530.99c-0.27,0-0.52-0.02-0.76-0.07c-0.24-0.05-0.47-0.11-0.66-0.17l0.4-1.63
		c0.13,0.03,0.28,0.07,0.45,0.12c0.17,0.04,0.32,0.07,0.47,0.07c0.68,0,1.25-0.25,1.7-0.74c0.45-0.49,0.8-1.11,1.05-1.87l0.27-0.9
		l-4.88-12.18h2.13l2.48,6.73c0.18,0.51,0.38,1.07,0.59,1.68c0.21,0.6,0.41,1.19,0.59,1.75h0.1c0.18-0.55,0.36-1.13,0.52-1.73
		c0.17-0.6,0.33-1.17,0.5-1.7l2.18-6.73h2l-4.58,13.16c-0.28,0.8-0.62,1.52-1.01,2.15c-0.39,0.63-0.87,1.14-1.45,1.51
		C328.55,530.8,327.85,530.99,327.03,530.99z"/>
	<path class="st2" d="M354.54,531.36c-1.49,0-2.69-0.28-3.63-0.85c-0.93-0.56-1.4-1.38-1.4-2.43c0-0.51,0.16-1.01,0.47-1.49
		c0.32-0.47,0.75-0.9,1.3-1.26v-0.1c-0.3-0.18-0.56-0.44-0.76-0.77s-0.32-0.73-0.32-1.2c0-0.51,0.14-0.97,0.42-1.35
		c0.28-0.38,0.58-0.68,0.9-0.9v-0.1c-0.4-0.33-0.76-0.78-1.09-1.35c-0.32-0.56-0.49-1.21-0.49-1.93c0-0.88,0.21-1.65,0.62-2.3
		c0.42-0.65,0.97-1.15,1.68-1.5c0.7-0.35,1.46-0.52,2.28-0.52c0.33,0,0.65,0.03,0.95,0.09c0.3,0.06,0.56,0.13,0.77,0.22h4.23v1.58
		h-2.5c0.28,0.27,0.52,0.62,0.71,1.06s0.29,0.92,0.29,1.44c0,0.86-0.2,1.62-0.6,2.25c-0.4,0.63-0.93,1.12-1.6,1.46
		c-0.66,0.34-1.42,0.51-2.25,0.51c-0.65,0-1.26-0.14-1.83-0.42c-0.22,0.18-0.4,0.39-0.55,0.61c-0.15,0.22-0.22,0.51-0.22,0.84
		c0,0.38,0.16,0.7,0.47,0.95c0.31,0.25,0.87,0.37,1.69,0.37h2.35c1.42,0,2.48,0.23,3.19,0.69s1.06,1.2,1.06,2.22
		c0,0.75-0.25,1.45-0.75,2.08s-1.21,1.15-2.13,1.54C356.89,531.18,355.81,531.36,354.54,531.36z M354.84,529.94
		c1.17,0,2.1-0.26,2.8-0.76c0.7-0.51,1.05-1.08,1.05-1.71c0-0.56-0.22-0.96-0.64-1.18s-1.03-0.32-1.81-0.32h-2.1
		c-0.23,0-0.49-0.02-0.76-0.05c-0.27-0.03-0.55-0.08-0.81-0.15c-0.43,0.32-0.75,0.65-0.95,1c-0.2,0.35-0.3,0.7-0.3,1.05
		c0,0.65,0.32,1.17,0.94,1.55C352.88,529.75,353.74,529.94,354.84,529.94z M354.54,520.53c0.7,0,1.3-0.27,1.81-0.79
		c0.51-0.52,0.76-1.23,0.76-2.12c0-0.89-0.25-1.58-0.75-2.08c-0.5-0.5-1.11-0.75-1.83-0.75c-0.71,0-1.33,0.25-1.83,0.75
		c-0.5,0.5-0.75,1.2-0.75,2.08s0.26,1.59,0.76,2.12C353.24,520.26,353.84,520.53,354.54,520.53z"/>
	<path class="st2" d="M367.62,526.06c-1.09,0-2.07-0.26-2.95-0.76c-0.89-0.51-1.59-1.24-2.1-2.19c-0.51-0.95-0.77-2.08-0.77-3.41
		c0-1.34,0.27-2.48,0.79-3.43c0.52-0.96,1.2-1.69,2.04-2.2c0.83-0.51,1.71-0.77,2.62-0.77c1.55,0,2.75,0.51,3.59,1.55
		c0.84,1.04,1.26,2.42,1.26,4.15c0,0.22,0,0.43-0.01,0.64c-0.01,0.21-0.03,0.39-0.07,0.54h-8.21c0.08,1.29,0.49,2.31,1.21,3.08
		c0.72,0.76,1.67,1.15,2.84,1.15c0.58,0,1.12-0.09,1.61-0.27c0.49-0.17,0.96-0.41,1.41-0.69l0.72,1.35
		c-0.51,0.33-1.1,0.62-1.76,0.87C369.21,525.94,368.46,526.06,367.62,526.06z M363.8,518.7h6.5c0-1.24-0.27-2.18-0.79-2.82
		s-1.26-0.96-2.22-0.96c-0.85,0-1.61,0.33-2.29,0.99C364.34,516.57,363.94,517.5,363.8,518.7z"/>
	<path class="st2" d="M378.29,526.06c-0.86,0-1.69-0.17-2.48-0.49s-1.47-0.72-2.05-1.19l1.03-1.38c0.53,0.42,1.08,0.76,1.65,1.04
		c0.56,0.27,1.21,0.42,1.93,0.42c0.8,0,1.4-0.19,1.8-0.56c0.4-0.37,0.6-0.82,0.6-1.34c0-0.42-0.14-0.76-0.42-1.05
		c-0.27-0.28-0.62-0.52-1.05-0.71c-0.42-0.19-0.86-0.37-1.31-0.54c-0.56-0.22-1.13-0.47-1.68-0.74c-0.55-0.27-1-0.63-1.35-1.08
		c-0.35-0.44-0.52-1-0.52-1.69c0-0.98,0.37-1.8,1.11-2.47c0.74-0.66,1.77-0.99,3.09-0.99c0.75,0,1.45,0.13,2.1,0.4
		c0.65,0.27,1.21,0.59,1.68,0.97l-1,1.3c-0.42-0.32-0.85-0.57-1.3-0.77c-0.45-0.2-0.94-0.3-1.48-0.3c-0.76,0-1.33,0.17-1.69,0.52
		c-0.36,0.35-0.54,0.76-0.54,1.23c0,0.38,0.12,0.7,0.37,0.94c0.25,0.24,0.57,0.45,0.97,0.62c0.4,0.17,0.82,0.36,1.28,0.54
		c0.58,0.22,1.16,0.47,1.73,0.74c0.56,0.27,1.04,0.64,1.41,1.1c0.37,0.46,0.56,1.07,0.56,1.84c0,0.65-0.17,1.25-0.51,1.8
		c-0.34,0.55-0.84,1-1.5,1.33C380.07,525.9,379.25,526.06,378.29,526.06z"/>
	<path class="st2" d="M388.92,526.06c-1.3,0-2.21-0.37-2.72-1.13c-0.51-0.75-0.76-1.73-0.76-2.92v-6.73h-1.8v-1.55l1.9-0.12
		l0.25-3.41h1.73v3.41h3.28v1.68h-3.28v6.75c0,0.75,0.14,1.33,0.42,1.74c0.27,0.41,0.76,0.61,1.46,0.61c0.22,0,0.45-0.03,0.7-0.12
		c0.25-0.07,0.47-0.14,0.67-0.22l0.4,1.55c-0.33,0.12-0.7,0.22-1.09,0.32C389.69,526.01,389.3,526.06,388.92,526.06z"/>
	<path class="st2" d="M394.6,511.1c-0.4,0-0.73-0.12-0.99-0.37c-0.26-0.24-0.39-0.57-0.39-0.99c0-0.4,0.13-0.72,0.39-0.97
		c0.26-0.25,0.59-0.37,0.99-0.37c0.4,0,0.73,0.12,0.99,0.37c0.26,0.25,0.39,0.57,0.39,0.97c0,0.42-0.13,0.75-0.39,0.99
		C395.33,510.97,395,511.1,394.6,511.1z M393.55,525.76V513.6h2.05v12.16L393.55,525.76L393.55,525.76z"/>
	<path class="st2" d="M404.43,526.06c-0.98,0-1.9-0.25-2.77-0.75c-0.86-0.5-1.55-1.23-2.08-2.18c-0.52-0.96-0.79-2.09-0.79-3.43
		c0-1.37,0.27-2.52,0.79-3.48c0.52-0.96,1.22-1.68,2.08-2.18c0.86-0.5,1.78-0.75,2.77-0.75c1,0,1.93,0.25,2.77,0.75
		s1.54,1.23,2.07,2.18c0.53,0.95,0.79,2.11,0.79,3.48c0,1.34-0.27,2.47-0.79,3.43c-0.52,0.95-1.21,1.68-2.07,2.18
		C406.35,525.81,405.43,526.06,404.43,526.06z M404.43,524.36c1.05,0,1.9-0.43,2.54-1.29s0.96-1.98,0.96-3.36
		c0-1.4-0.32-2.53-0.96-3.41c-0.64-0.86-1.49-1.3-2.54-1.3c-1.04,0-1.88,0.43-2.52,1.3c-0.65,0.86-0.97,2-0.97,3.41
		c0,1.39,0.32,2.51,0.97,3.36C402.56,523.93,403.4,524.36,404.43,524.36z M404.09,511.42l-1.05-1.03l3.53-4.18l1.45,1.38
		L404.09,511.42z"/>
	<path class="st2" d="M413.26,525.76V513.6h1.7l0.17,1.75h0.07c0.58-0.58,1.2-1.07,1.85-1.46s1.4-0.59,2.23-0.59
		c1.29,0,2.23,0.41,2.82,1.21c0.59,0.81,0.89,1.99,0.89,3.54v7.71h-2.05v-7.43c0-1.14-0.18-1.96-0.55-2.47s-0.95-0.77-1.75-0.77
		c-0.61,0-1.17,0.16-1.66,0.47s-1.05,0.78-1.66,1.4v8.8L413.26,525.76L413.26,525.76L413.26,525.76z"/>
	<path class="st2" d="M41.43,556.09c-1.09,0-2.07-0.26-2.95-0.76c-0.88-0.51-1.59-1.24-2.1-2.19c-0.51-0.95-0.77-2.08-0.77-3.41
		c0-1.34,0.27-2.47,0.79-3.43c0.52-0.95,1.2-1.69,2.04-2.2c0.83-0.51,1.71-0.77,2.62-0.77c1.55,0,2.75,0.51,3.59,1.55
		c0.84,1.04,1.26,2.42,1.26,4.15c0,0.22-0.01,0.43-0.02,0.64c-0.01,0.21-0.03,0.39-0.07,0.54h-8.21c0.08,1.29,0.49,2.31,1.21,3.08
		c0.72,0.76,1.67,1.15,2.84,1.15c0.58,0,1.12-0.09,1.61-0.27c0.49-0.17,0.96-0.41,1.41-0.69l0.72,1.35
		c-0.51,0.33-1.1,0.62-1.76,0.87C43.01,555.96,42.26,556.09,41.43,556.09z M37.6,548.73h6.5c0-1.24-0.27-2.18-0.79-2.82
		c-0.52-0.64-1.26-0.96-2.22-0.96c-0.85,0-1.61,0.33-2.29,0.99C38.13,546.6,37.73,547.53,37.6,548.73z"/>
	<path class="st2" d="M52.09,556.09c-0.86,0-1.69-0.17-2.48-0.49s-1.47-0.72-2.05-1.19l1.02-1.38c0.53,0.42,1.09,0.76,1.65,1.04
		c0.56,0.27,1.21,0.42,1.93,0.42c0.8,0,1.4-0.19,1.8-0.56c0.4-0.37,0.6-0.82,0.6-1.34c0-0.42-0.14-0.76-0.42-1.05
		c-0.27-0.28-0.62-0.52-1.05-0.71c-0.42-0.19-0.86-0.37-1.31-0.54c-0.56-0.22-1.13-0.47-1.68-0.74c-0.55-0.27-1-0.63-1.35-1.08
		c-0.35-0.44-0.52-1-0.52-1.69c0-0.98,0.37-1.8,1.11-2.47c0.74-0.66,1.77-0.99,3.09-0.99c0.75,0,1.45,0.13,2.1,0.4
		c0.65,0.27,1.21,0.59,1.68,0.97l-1,1.3c-0.42-0.32-0.85-0.57-1.3-0.77c-0.45-0.2-0.94-0.3-1.48-0.3c-0.76,0-1.33,0.17-1.69,0.52
		c-0.36,0.35-0.54,0.76-0.54,1.23c0,0.38,0.12,0.7,0.37,0.94s0.57,0.45,0.98,0.62c0.4,0.17,0.82,0.36,1.28,0.54
		c0.58,0.22,1.16,0.47,1.73,0.74c0.56,0.27,1.04,0.64,1.41,1.1c0.37,0.46,0.56,1.07,0.56,1.84c0,0.65-0.17,1.25-0.51,1.8
		c-0.34,0.55-0.84,1-1.5,1.33C53.86,555.92,53.05,556.09,52.09,556.09z"/>
	<path class="st2" d="M62.72,556.09c-1.3,0-2.21-0.37-2.72-1.13c-0.51-0.75-0.76-1.73-0.76-2.92v-6.73h-1.8v-1.55l1.9-0.12
		l0.25-3.41h1.73v3.41h3.28v1.68h-3.28v6.75c0,0.75,0.14,1.33,0.42,1.74c0.27,0.41,0.76,0.61,1.46,0.61c0.22,0,0.45-0.03,0.7-0.12
		c0.25-0.07,0.47-0.14,0.67-0.22l0.4,1.55c-0.33,0.12-0.7,0.22-1.09,0.32C63.49,556.04,63.1,556.09,62.72,556.09z"/>
	<path class="st2" d="M67.35,555.79v-12.16h1.7l0.17,2.2h0.07c0.42-0.76,0.92-1.38,1.53-1.83c0.6-0.45,1.25-0.67,1.93-0.67
		c0.48,0,0.91,0.08,1.3,0.25l-0.4,1.8c-0.2-0.07-0.38-0.12-0.55-0.15c-0.17-0.03-0.37-0.05-0.62-0.05c-0.51,0-1.05,0.21-1.61,0.62
		s-1.05,1.15-1.46,2.18v7.81H67.35L67.35,555.79z"/>
	<path class="st2" d="M78.23,556.09c-1.02,0-1.86-0.31-2.54-0.91c-0.67-0.61-1.01-1.45-1.01-2.54c0-1.34,0.6-2.36,1.79-3.06
		c1.2-0.71,3.08-1.2,5.66-1.49c0-0.51-0.07-1-0.22-1.48c-0.14-0.47-0.39-0.85-0.75-1.14s-0.87-0.44-1.54-0.44
		c-0.7,0-1.36,0.13-1.98,0.4c-0.61,0.27-1.17,0.56-1.65,0.9l-0.8-1.43c0.56-0.37,1.26-0.72,2.09-1.06c0.82-0.34,1.72-0.51,2.69-0.51
		c1.49,0,2.56,0.46,3.23,1.36c0.66,0.91,1,2.13,1,3.64v7.46h-1.7l-0.17-1.45h-0.07c-0.56,0.47-1.19,0.87-1.86,1.23
		C79.73,555.9,79,556.09,78.23,556.09z M78.83,554.43c0.58,0,1.14-0.14,1.65-0.42c0.51-0.28,1.07-0.68,1.65-1.2v-3.38
		c-2.02,0.25-3.43,0.62-4.24,1.13c-0.81,0.5-1.21,1.15-1.21,1.93c0,0.68,0.21,1.18,0.62,1.49
		C77.72,554.28,78.23,554.43,78.83,554.43z"/>
	<path class="st2" d="M91.52,556.09c-1.3,0-2.21-0.37-2.72-1.13c-0.51-0.75-0.76-1.73-0.76-2.92v-6.73h-1.8v-1.55l1.9-0.12
		l0.25-3.41h1.73v3.41h3.28v1.68h-3.28v6.75c0,0.75,0.14,1.33,0.42,1.74c0.27,0.41,0.76,0.61,1.46,0.61c0.22,0,0.45-0.03,0.7-0.12
		c0.25-0.07,0.47-0.14,0.67-0.22l0.4,1.55c-0.33,0.12-0.7,0.22-1.09,0.32C92.29,556.04,91.9,556.09,91.52,556.09z"/>
	<path class="st2" d="M100.73,556.09c-1.09,0-2.07-0.26-2.95-0.76c-0.89-0.51-1.59-1.24-2.1-2.19c-0.51-0.95-0.77-2.08-0.77-3.41
		c0-1.34,0.27-2.47,0.79-3.43c0.52-0.96,1.2-1.69,2.04-2.2c0.83-0.51,1.71-0.77,2.62-0.77c1.55,0,2.75,0.51,3.59,1.55
		c0.84,1.04,1.26,2.42,1.26,4.15c0,0.22,0,0.43-0.01,0.64c-0.01,0.21-0.03,0.39-0.07,0.54h-8.21c0.08,1.29,0.49,2.31,1.21,3.08
		c0.72,0.76,1.67,1.15,2.84,1.15c0.58,0,1.12-0.09,1.61-0.27s0.96-0.41,1.41-0.69l0.72,1.35c-0.51,0.33-1.1,0.62-1.76,0.87
		C102.31,555.96,101.56,556.09,100.73,556.09z M96.9,548.73h6.5c0-1.24-0.27-2.18-0.79-2.82c-0.52-0.64-1.26-0.96-2.22-0.96
		c-0.85,0-1.61,0.33-2.29,0.99C97.43,546.6,97.03,547.53,96.9,548.73z M100,541.45l-1.05-1.03l3.53-4.18l1.45,1.38L100,541.45z"/>
	<path class="st2" d="M112.06,561.39c-1.49,0-2.69-0.28-3.63-0.85c-0.93-0.56-1.4-1.38-1.4-2.43c0-0.51,0.16-1.01,0.47-1.49
		c0.32-0.47,0.75-0.9,1.3-1.26v-0.1c-0.3-0.18-0.56-0.44-0.76-0.77s-0.32-0.73-0.32-1.2c0-0.51,0.14-0.97,0.42-1.35
		c0.28-0.38,0.58-0.68,0.9-0.9v-0.1c-0.4-0.33-0.76-0.78-1.09-1.35c-0.32-0.56-0.49-1.21-0.49-1.93c0-0.88,0.21-1.65,0.62-2.3
		c0.42-0.65,0.97-1.15,1.68-1.5c0.7-0.35,1.46-0.52,2.28-0.52c0.33,0,0.65,0.03,0.95,0.09c0.3,0.06,0.56,0.13,0.77,0.22h4.23v1.58
		h-2.5c0.28,0.27,0.52,0.62,0.71,1.06c0.19,0.44,0.29,0.92,0.29,1.44c0,0.86-0.2,1.62-0.6,2.25c-0.4,0.63-0.93,1.12-1.6,1.46
		c-0.66,0.34-1.42,0.51-2.25,0.51c-0.65,0-1.26-0.14-1.83-0.42c-0.22,0.18-0.4,0.39-0.55,0.61c-0.15,0.22-0.22,0.51-0.22,0.84
		c0,0.38,0.16,0.7,0.47,0.95c0.31,0.25,0.87,0.37,1.69,0.37h2.35c1.42,0,2.48,0.23,3.19,0.69c0.71,0.46,1.06,1.2,1.06,2.22
		c0,0.75-0.25,1.45-0.75,2.08s-1.21,1.15-2.13,1.54C114.41,561.21,113.33,561.39,112.06,561.39z M112.36,559.96
		c1.17,0,2.1-0.26,2.8-0.76c0.7-0.51,1.05-1.08,1.05-1.71c0-0.56-0.22-0.96-0.64-1.18c-0.42-0.22-1.03-0.32-1.81-0.32h-2.1
		c-0.23,0-0.49-0.02-0.76-0.05c-0.27-0.03-0.55-0.08-0.81-0.15c-0.43,0.32-0.75,0.65-0.95,1c-0.2,0.35-0.3,0.7-0.3,1.05
		c0,0.65,0.32,1.17,0.94,1.55C110.4,559.77,111.26,559.96,112.36,559.96z M112.06,550.55c0.7,0,1.3-0.27,1.81-0.79
		c0.51-0.52,0.76-1.23,0.76-2.12s-0.25-1.58-0.75-2.08s-1.11-0.75-1.83-0.75c-0.71,0-1.33,0.25-1.83,0.75s-0.75,1.2-0.75,2.08
		s0.26,1.59,0.76,2.12C110.76,550.29,111.36,550.55,112.06,550.55z"/>
	<path class="st2" d="M121.62,541.12c-0.4,0-0.73-0.12-0.99-0.37c-0.26-0.24-0.39-0.57-0.39-0.99c0-0.4,0.13-0.72,0.39-0.97
		c0.26-0.25,0.59-0.37,0.99-0.37s0.73,0.12,0.99,0.37c0.26,0.25,0.39,0.57,0.39,0.97c0,0.42-0.13,0.75-0.39,0.99
		C122.35,540.99,122.02,541.12,121.62,541.12z M120.57,555.79v-12.16h2.05v12.16H120.57z"/>
	<path class="st2" d="M131.53,556.09c-1.07,0-2.03-0.25-2.91-0.75c-0.87-0.5-1.55-1.23-2.05-2.18c-0.5-0.96-0.75-2.09-0.75-3.43
		c0-1.37,0.27-2.52,0.81-3.48c0.54-0.95,1.26-1.68,2.15-2.18c0.89-0.5,1.85-0.75,2.89-0.75c0.8,0,1.49,0.14,2.07,0.42
		c0.57,0.28,1.07,0.61,1.49,1l-1.05,1.35c-0.35-0.32-0.72-0.57-1.11-0.77c-0.39-0.2-0.83-0.3-1.31-0.3c-0.73,0-1.39,0.2-1.97,0.59
		c-0.57,0.39-1.03,0.94-1.35,1.65c-0.32,0.71-0.49,1.53-0.49,2.47c0,1.39,0.35,2.51,1.04,3.36c0.69,0.86,1.59,1.29,2.72,1.29
		c0.56,0,1.1-0.12,1.58-0.37s0.91-0.53,1.28-0.86l0.9,1.38c-0.55,0.48-1.16,0.86-1.83,1.14
		C132.96,555.94,132.26,556.09,131.53,556.09z"/>
	<path class="st2" d="M140.69,556.09c-1.02,0-1.86-0.31-2.54-0.91c-0.67-0.61-1.01-1.45-1.01-2.54c0-1.34,0.6-2.36,1.79-3.06
		c1.2-0.71,3.08-1.2,5.66-1.49c0-0.51-0.07-1-0.22-1.48c-0.14-0.47-0.39-0.85-0.75-1.14c-0.36-0.29-0.87-0.44-1.54-0.44
		c-0.7,0-1.36,0.13-1.98,0.4c-0.61,0.27-1.17,0.56-1.65,0.9l-0.8-1.43c0.56-0.37,1.26-0.72,2.09-1.06c0.82-0.34,1.72-0.51,2.69-0.51
		c1.49,0,2.56,0.46,3.23,1.36c0.66,0.91,1,2.13,1,3.64v7.46h-1.7l-0.17-1.45h-0.07c-0.56,0.47-1.19,0.87-1.87,1.23
		C142.17,555.9,141.45,556.09,140.69,556.09z M141.29,554.43c0.58,0,1.14-0.14,1.65-0.42c0.51-0.28,1.07-0.68,1.65-1.2v-3.38
		c-2.02,0.25-3.43,0.62-4.24,1.13c-0.81,0.5-1.21,1.15-1.21,1.93c0,0.68,0.21,1.18,0.62,1.49
		C140.17,554.28,140.69,554.43,141.29,554.43z"/>
	<path class="st2" d="M161.13,560.91v-17.29h1.7l0.17,1.4h0.07c0.55-0.47,1.15-0.86,1.81-1.2c0.66-0.33,1.35-0.5,2.07-0.5
		c1.57,0,2.76,0.56,3.58,1.69c0.82,1.12,1.23,2.63,1.23,4.52c0,1.37-0.25,2.54-0.74,3.53c-0.49,0.99-1.14,1.74-1.93,2.25
		c-0.79,0.51-1.65,0.77-2.59,0.77c-0.56,0-1.13-0.12-1.69-0.37c-0.56-0.25-1.12-0.59-1.69-1.02l0.05,2.13v4.1L161.13,560.91
		L161.13,560.91z M166.16,554.36c1,0,1.83-0.43,2.49-1.29c0.66-0.86,0.99-2.04,0.99-3.54c0-1.34-0.25-2.42-0.74-3.24
		c-0.49-0.82-1.31-1.24-2.47-1.24c-0.51,0-1.04,0.14-1.56,0.42c-0.52,0.28-1.09,0.69-1.69,1.23v6.38c0.55,0.47,1.09,0.8,1.6,0.99
		C165.3,554.27,165.75,554.36,166.16,554.36z"/>
	<path class="st2" d="M177.46,556.09c-1.02,0-1.86-0.31-2.54-0.91c-0.67-0.61-1.01-1.45-1.01-2.54c0-1.34,0.6-2.36,1.79-3.06
		c1.2-0.71,3.08-1.2,5.66-1.49c0-0.51-0.07-1-0.22-1.48c-0.14-0.47-0.39-0.85-0.75-1.14c-0.36-0.29-0.87-0.44-1.54-0.44
		c-0.7,0-1.36,0.13-1.98,0.4c-0.61,0.27-1.17,0.56-1.65,0.9l-0.8-1.43c0.56-0.37,1.26-0.72,2.09-1.06c0.82-0.34,1.72-0.51,2.69-0.51
		c1.49,0,2.56,0.46,3.23,1.36c0.66,0.91,1,2.13,1,3.64v7.46h-1.7l-0.17-1.45h-0.07c-0.56,0.47-1.19,0.87-1.87,1.23
		C178.95,555.9,178.24,556.09,177.46,556.09z M178.07,554.43c0.58,0,1.14-0.14,1.65-0.42c0.51-0.28,1.07-0.68,1.65-1.2v-3.38
		c-2.02,0.25-3.43,0.62-4.24,1.13c-0.81,0.5-1.21,1.15-1.21,1.93c0,0.68,0.21,1.18,0.62,1.49
		C176.96,554.28,177.46,554.43,178.07,554.43z"/>
	<path class="st2" d="M187.27,555.79v-12.16h1.7l0.17,2.2h0.07c0.42-0.76,0.92-1.38,1.53-1.83c0.6-0.45,1.25-0.67,1.93-0.67
		c0.48,0,0.91,0.08,1.3,0.25l-0.4,1.8c-0.2-0.07-0.38-0.12-0.55-0.15c-0.17-0.03-0.37-0.05-0.62-0.05c-0.51,0-1.05,0.21-1.61,0.62
		c-0.56,0.42-1.05,1.15-1.46,2.18v7.81L187.27,555.79L187.27,555.79z"/>
	<path class="st2" d="M198.16,556.09c-1.02,0-1.86-0.31-2.54-0.91c-0.67-0.61-1.01-1.45-1.01-2.54c0-1.34,0.6-2.36,1.79-3.06
		c1.2-0.71,3.08-1.2,5.66-1.49c0-0.51-0.07-1-0.22-1.48c-0.14-0.47-0.39-0.85-0.75-1.14c-0.36-0.29-0.87-0.44-1.54-0.44
		c-0.7,0-1.36,0.13-1.98,0.4c-0.61,0.27-1.17,0.56-1.65,0.9l-0.8-1.43c0.56-0.37,1.26-0.72,2.09-1.06c0.82-0.34,1.72-0.51,2.69-0.51
		c1.49,0,2.56,0.46,3.23,1.36c0.66,0.91,1,2.13,1,3.64v7.46h-1.71l-0.17-1.45h-0.07c-0.56,0.47-1.19,0.87-1.87,1.23
		C199.64,555.9,198.93,556.09,198.16,556.09z M198.76,554.43c0.58,0,1.14-0.14,1.65-0.42c0.51-0.28,1.07-0.68,1.65-1.2v-3.38
		c-2.02,0.25-3.43,0.62-4.24,1.13c-0.81,0.5-1.21,1.15-1.21,1.93c0,0.68,0.21,1.18,0.62,1.49
		C197.65,554.28,198.16,554.43,198.76,554.43z"/>
	<path class="st2" d="M222.75,556.09c-1.52,0-2.73-0.56-3.65-1.66c-0.92-1.11-1.38-2.67-1.38-4.69c0-1.32,0.25-2.46,0.74-3.41
		s1.15-1.69,1.95-2.22c0.81-0.51,1.67-0.77,2.59-0.77c0.7,0,1.31,0.12,1.83,0.37c0.51,0.25,1.04,0.59,1.58,1.03l-0.1-2.08v-4.68
		h2.08v17.82h-1.7l-0.17-1.43h-0.07c-0.47,0.47-1.02,0.87-1.65,1.21C224.15,555.91,223.48,556.09,222.75,556.09z M223.2,554.36
		c1.07,0,2.1-0.56,3.11-1.68v-6.35c-0.51-0.47-1.01-0.8-1.49-0.99c-0.47-0.19-0.96-0.29-1.46-0.29c-0.65,0-1.24,0.2-1.76,0.59
		c-0.52,0.39-0.95,0.93-1.26,1.63c-0.32,0.69-0.47,1.5-0.47,2.44c0,1.45,0.29,2.59,0.87,3.41
		C221.31,553.94,222.14,554.36,223.2,554.36z"/>
	<path class="st2" d="M233.54,541.12c-0.4,0-0.73-0.12-0.99-0.37c-0.26-0.24-0.39-0.57-0.39-0.99c0-0.4,0.13-0.72,0.39-0.97
		c0.26-0.25,0.59-0.37,0.99-0.37c0.4,0,0.73,0.12,0.99,0.37c0.26,0.25,0.39,0.57,0.39,0.97c0,0.42-0.13,0.75-0.39,0.99
		C234.27,540.99,233.94,541.12,233.54,541.12z M232.49,555.79v-12.16h2.05v12.16H232.49z"/>
	<path class="st2" d="M238.64,555.79v-12.16h1.7l0.17,2.2h0.07c0.42-0.76,0.92-1.38,1.53-1.83c0.6-0.45,1.25-0.67,1.93-0.67
		c0.48,0,0.91,0.08,1.3,0.25l-0.4,1.8c-0.2-0.07-0.38-0.12-0.55-0.15c-0.17-0.03-0.37-0.05-0.62-0.05c-0.51,0-1.05,0.21-1.61,0.62
		c-0.56,0.42-1.05,1.15-1.46,2.18v7.81L238.64,555.79L238.64,555.79z"/>
	<path class="st2" d="M252.01,556.09c-1.09,0-2.07-0.26-2.95-0.76c-0.89-0.51-1.59-1.24-2.1-2.19c-0.51-0.95-0.77-2.08-0.77-3.41
		c0-1.34,0.27-2.47,0.79-3.43s1.2-1.69,2.04-2.2c0.83-0.51,1.71-0.77,2.62-0.77c1.55,0,2.75,0.51,3.59,1.55
		c0.84,1.04,1.26,2.42,1.26,4.15c0,0.22,0,0.43-0.01,0.64c-0.01,0.21-0.03,0.39-0.07,0.54h-8.21c0.08,1.29,0.49,2.31,1.21,3.08
		c0.72,0.76,1.67,1.15,2.84,1.15c0.58,0,1.12-0.09,1.61-0.27s0.96-0.41,1.41-0.69l0.72,1.35c-0.51,0.33-1.1,0.62-1.76,0.87
		C253.58,555.96,252.84,556.09,252.01,556.09z M248.18,548.73h6.5c0-1.24-0.27-2.18-0.79-2.82s-1.26-0.96-2.22-0.96
		c-0.85,0-1.61,0.33-2.29,0.99C248.72,546.6,248.31,547.53,248.18,548.73z"/>
	<path class="st2" d="M264.29,556.09c-1.07,0-2.03-0.25-2.91-0.75c-0.87-0.5-1.55-1.23-2.05-2.18c-0.5-0.96-0.75-2.09-0.75-3.43
		c0-1.37,0.27-2.52,0.81-3.48c0.54-0.95,1.26-1.68,2.15-2.18c0.89-0.5,1.85-0.75,2.89-0.75c0.8,0,1.49,0.14,2.07,0.42
		c0.57,0.28,1.07,0.61,1.49,1l-1.05,1.35c-0.35-0.32-0.72-0.57-1.11-0.77c-0.39-0.2-0.83-0.3-1.31-0.3c-0.73,0-1.39,0.2-1.97,0.59
		c-0.57,0.39-1.03,0.94-1.35,1.65c-0.32,0.71-0.49,1.53-0.49,2.47c0,1.39,0.35,2.51,1.04,3.36s1.59,1.29,2.72,1.29
		c0.56,0,1.1-0.12,1.58-0.37s0.91-0.53,1.28-0.86l0.9,1.38c-0.55,0.48-1.16,0.86-1.83,1.14
		C265.73,555.94,265.02,556.09,264.29,556.09z"/>
	<path class="st2" d="M274.47,556.09c-1.3,0-2.21-0.37-2.72-1.13c-0.51-0.75-0.76-1.73-0.76-2.92v-6.73h-1.8v-1.55l1.9-0.12
		l0.25-3.41h1.73v3.41h3.28v1.68h-3.28v6.75c0,0.75,0.14,1.33,0.42,1.74c0.27,0.41,0.76,0.61,1.46,0.61c0.22,0,0.45-0.03,0.7-0.12
		c0.25-0.07,0.47-0.14,0.67-0.22l0.4,1.55c-0.33,0.12-0.7,0.22-1.09,0.32C275.24,556.04,274.85,556.09,274.47,556.09z"/>
	<path class="st2" d="M280.15,541.12c-0.4,0-0.73-0.12-0.99-0.37c-0.26-0.24-0.39-0.57-0.39-0.99c0-0.4,0.13-0.72,0.39-0.97
		c0.26-0.25,0.59-0.37,0.99-0.37c0.4,0,0.73,0.12,0.99,0.37c0.26,0.25,0.39,0.57,0.39,0.97c0,0.42-0.13,0.75-0.39,0.99
		C280.88,540.99,280.55,541.12,280.15,541.12z M279.1,555.79v-12.16h2.05v12.16H279.1z"/>
	<path class="st2" d="M287.88,555.79l-4.38-12.16h2.13l2.3,6.91c0.18,0.6,0.37,1.2,0.56,1.8c0.19,0.6,0.38,1.2,0.56,1.78h0.1
		c0.18-0.58,0.37-1.18,0.56-1.78c0.19-0.6,0.37-1.2,0.54-1.8l2.3-6.91h2.03l-4.3,12.16H287.88L287.88,555.79z"/>
	<path class="st2" d="M301.57,556.09c-0.98,0-1.9-0.25-2.77-0.75c-0.86-0.5-1.55-1.23-2.08-2.18c-0.52-0.96-0.79-2.09-0.79-3.43
		c0-1.37,0.27-2.52,0.79-3.48c0.52-0.96,1.22-1.68,2.08-2.18c0.86-0.5,1.78-0.75,2.77-0.75c1,0,1.93,0.25,2.77,0.75
		c0.85,0.5,1.54,1.23,2.07,2.18c0.53,0.95,0.79,2.11,0.79,3.48c0,1.34-0.27,2.48-0.79,3.43c-0.52,0.95-1.21,1.68-2.07,2.18
		C303.49,555.84,302.57,556.09,301.57,556.09z M301.57,554.38c1.05,0,1.9-0.43,2.54-1.29c0.64-0.86,0.96-1.98,0.96-3.36
		c0-1.4-0.32-2.53-0.96-3.41c-0.64-0.86-1.49-1.3-2.54-1.3c-1.04,0-1.88,0.43-2.52,1.3c-0.65,0.86-0.97,2-0.97,3.41
		c0,1.39,0.32,2.51,0.97,3.36C299.69,553.95,300.53,554.38,301.57,554.38z"/>
	<path class="st2" d="M313.58,556.09c-0.86,0-1.69-0.17-2.48-0.49s-1.47-0.72-2.05-1.19l1.03-1.38c0.53,0.42,1.08,0.76,1.65,1.04
		c0.56,0.27,1.21,0.42,1.93,0.42c0.8,0,1.4-0.19,1.8-0.56c0.4-0.37,0.6-0.82,0.6-1.34c0-0.42-0.14-0.76-0.42-1.05
		c-0.27-0.28-0.62-0.52-1.05-0.71c-0.42-0.19-0.86-0.37-1.31-0.54c-0.56-0.22-1.13-0.47-1.68-0.74c-0.55-0.27-1-0.63-1.35-1.08
		c-0.35-0.44-0.52-1-0.52-1.69c0-0.98,0.37-1.8,1.11-2.47c0.74-0.66,1.77-0.99,3.09-0.99c0.75,0,1.45,0.13,2.1,0.4
		c0.65,0.27,1.21,0.59,1.68,0.97l-1,1.3c-0.42-0.32-0.85-0.57-1.3-0.77c-0.45-0.2-0.94-0.3-1.48-0.3c-0.76,0-1.33,0.17-1.69,0.52
		c-0.36,0.35-0.54,0.76-0.54,1.23c0,0.38,0.12,0.7,0.37,0.94c0.25,0.24,0.57,0.45,0.97,0.62c0.4,0.17,0.82,0.36,1.28,0.54
		c0.58,0.22,1.16,0.47,1.73,0.74c0.56,0.27,1.04,0.64,1.41,1.1c0.37,0.46,0.56,1.07,0.56,1.84c0,0.65-0.17,1.25-0.51,1.8
		c-0.34,0.55-0.84,1-1.5,1.33C315.36,555.92,314.55,556.09,313.58,556.09z"/>
	<path class="st2" d="M335.67,556.09c-1.52,0-2.73-0.56-3.65-1.66c-0.92-1.11-1.38-2.67-1.38-4.69c0-1.32,0.25-2.46,0.74-3.41
		c0.49-0.96,1.15-1.69,1.95-2.22c0.81-0.51,1.67-0.77,2.59-0.77c0.7,0,1.31,0.12,1.83,0.37c0.51,0.25,1.04,0.59,1.58,1.03l-0.1-2.08
		v-4.68h2.08v17.82h-1.7l-0.17-1.43h-0.07c-0.47,0.47-1.02,0.87-1.65,1.21C337.07,555.91,336.4,556.09,335.67,556.09z
		 M336.12,554.36c1.07,0,2.1-0.56,3.11-1.68v-6.35c-0.51-0.47-1.01-0.8-1.49-0.99s-0.96-0.29-1.46-0.29c-0.65,0-1.24,0.2-1.76,0.59
		c-0.52,0.39-0.95,0.93-1.26,1.63c-0.32,0.69-0.47,1.5-0.47,2.44c0,1.45,0.29,2.59,0.87,3.41
		C334.23,553.94,335.06,554.36,336.12,554.36z"/>
	<path class="st2" d="M350.13,556.09c-0.98,0-1.9-0.25-2.77-0.75c-0.86-0.5-1.55-1.23-2.08-2.18c-0.52-0.96-0.79-2.09-0.79-3.43
		c0-1.37,0.27-2.52,0.79-3.48c0.52-0.96,1.22-1.68,2.08-2.18c0.86-0.5,1.78-0.75,2.77-0.75c1,0,1.93,0.25,2.77,0.75
		c0.85,0.5,1.54,1.23,2.07,2.18c0.53,0.95,0.79,2.11,0.79,3.48c0,1.34-0.27,2.48-0.79,3.43c-0.52,0.95-1.21,1.68-2.07,2.18
		C352.05,555.84,351.14,556.09,350.13,556.09z M350.13,554.38c1.05,0,1.9-0.43,2.54-1.29c0.64-0.86,0.96-1.98,0.96-3.36
		c0-1.4-0.32-2.53-0.96-3.41c-0.64-0.86-1.49-1.3-2.54-1.3c-1.04,0-1.88,0.43-2.52,1.3c-0.65,0.86-0.97,2-0.97,3.41
		c0,1.39,0.32,2.51,0.97,3.36C348.26,553.95,349.1,554.38,350.13,554.38z"/>
	<path class="st2" d="M363.77,556.09c-1.07,0-2.03-0.25-2.91-0.75c-0.87-0.5-1.55-1.23-2.05-2.18c-0.5-0.96-0.75-2.09-0.75-3.43
		c0-1.37,0.27-2.52,0.81-3.48c0.54-0.95,1.26-1.68,2.15-2.18c0.89-0.5,1.85-0.75,2.89-0.75c0.8,0,1.49,0.14,2.07,0.42
		c0.57,0.28,1.07,0.61,1.49,1l-1.05,1.35c-0.35-0.32-0.72-0.57-1.11-0.77c-0.39-0.2-0.83-0.3-1.31-0.3c-0.73,0-1.39,0.2-1.97,0.59
		c-0.57,0.39-1.03,0.94-1.35,1.65c-0.32,0.71-0.49,1.53-0.49,2.47c0,1.39,0.35,2.51,1.04,3.36s1.59,1.29,2.72,1.29
		c0.56,0,1.1-0.12,1.58-0.37s0.91-0.53,1.28-0.86l0.9,1.38c-0.55,0.48-1.16,0.86-1.83,1.14
		C365.21,555.94,364.51,556.09,363.77,556.09z"/>
	<path class="st2" d="M374.78,556.09c-1.09,0-2.07-0.26-2.95-0.76c-0.89-0.51-1.59-1.24-2.1-2.19c-0.51-0.95-0.77-2.08-0.77-3.41
		c0-1.34,0.27-2.47,0.79-3.43s1.2-1.69,2.04-2.2c0.83-0.51,1.71-0.77,2.62-0.77c1.55,0,2.75,0.51,3.59,1.55
		c0.84,1.04,1.26,2.42,1.26,4.15c0,0.22,0,0.43-0.01,0.64c-0.01,0.21-0.03,0.39-0.07,0.54h-8.21c0.08,1.29,0.49,2.31,1.21,3.08
		c0.72,0.76,1.67,1.15,2.84,1.15c0.58,0,1.12-0.09,1.61-0.27c0.49-0.17,0.96-0.41,1.41-0.69l0.72,1.35
		c-0.51,0.33-1.1,0.62-1.76,0.87C376.36,555.96,375.61,556.09,374.78,556.09z M370.96,548.73h6.5c0-1.24-0.27-2.18-0.79-2.82
		s-1.26-0.96-2.22-0.96c-0.85,0-1.61,0.33-2.29,0.99C371.5,546.6,371.09,547.53,370.96,548.73z"/>
	<path class="st2" d="M382.27,555.79v-12.16h1.7l0.17,1.75h0.07c0.58-0.58,1.2-1.07,1.85-1.46c0.65-0.39,1.4-0.59,2.23-0.59
		c1.29,0,2.23,0.41,2.82,1.21c0.59,0.81,0.89,1.99,0.89,3.54v7.71h-2.05v-7.43c0-1.14-0.18-1.96-0.55-2.48s-0.95-0.77-1.75-0.77
		c-0.61,0-1.17,0.16-1.66,0.47c-0.49,0.32-1.05,0.78-1.66,1.4v8.8L382.27,555.79L382.27,555.79z"/>
	<path class="st2" d="M399.78,556.09c-1.3,0-2.21-0.37-2.72-1.13c-0.51-0.75-0.76-1.73-0.76-2.92v-6.73h-1.8v-1.55l1.9-0.12
		l0.25-3.41h1.73v3.41h3.28v1.68h-3.28v6.75c0,0.75,0.14,1.33,0.42,1.74c0.27,0.41,0.76,0.61,1.46,0.61c0.22,0,0.45-0.03,0.7-0.12
		c0.25-0.07,0.47-0.14,0.67-0.22l0.4,1.55c-0.33,0.12-0.7,0.22-1.09,0.32C400.55,556.04,400.17,556.09,399.78,556.09z"/>
	<path class="st2" d="M408.99,556.09c-1.09,0-2.07-0.26-2.95-0.76c-0.89-0.51-1.59-1.24-2.1-2.19c-0.51-0.95-0.77-2.08-0.77-3.41
		c0-1.34,0.27-2.47,0.79-3.43s1.2-1.69,2.04-2.2c0.83-0.51,1.71-0.77,2.62-0.77c1.55,0,2.75,0.51,3.59,1.55
		c0.84,1.04,1.26,2.42,1.26,4.15c0,0.22,0,0.43-0.01,0.64c-0.01,0.21-0.03,0.39-0.07,0.54h-8.21c0.08,1.29,0.49,2.31,1.21,3.08
		c0.72,0.76,1.67,1.15,2.84,1.15c0.58,0,1.12-0.09,1.61-0.27c0.49-0.17,0.96-0.41,1.41-0.69l0.72,1.35
		c-0.51,0.33-1.1,0.62-1.76,0.87C410.56,555.96,409.82,556.09,408.99,556.09z M405.16,548.73h6.5c0-1.24-0.27-2.18-0.79-2.82
		c-0.52-0.64-1.26-0.96-2.22-0.96c-0.85,0-1.61,0.33-2.29,0.99C405.7,546.6,405.29,547.53,405.16,548.73z"/>
	<path class="st2" d="M419.64,556.09c-0.86,0-1.69-0.17-2.47-0.49s-1.47-0.72-2.05-1.19l1.03-1.38c0.53,0.42,1.08,0.76,1.65,1.04
		c0.56,0.27,1.21,0.42,1.93,0.42c0.8,0,1.4-0.19,1.8-0.56c0.4-0.37,0.6-0.82,0.6-1.34c0-0.42-0.14-0.76-0.42-1.05
		c-0.27-0.28-0.62-0.52-1.05-0.71c-0.42-0.19-0.86-0.37-1.31-0.54c-0.56-0.22-1.13-0.47-1.68-0.74c-0.55-0.27-1-0.63-1.35-1.08
		c-0.35-0.44-0.52-1-0.52-1.69c0-0.98,0.37-1.8,1.11-2.47c0.74-0.66,1.77-0.99,3.09-0.99c0.75,0,1.45,0.13,2.1,0.4
		c0.65,0.27,1.21,0.59,1.68,0.97l-1,1.3c-0.42-0.32-0.85-0.57-1.3-0.77c-0.45-0.2-0.94-0.3-1.48-0.3c-0.76,0-1.33,0.17-1.69,0.52
		c-0.36,0.35-0.54,0.76-0.54,1.23c0,0.38,0.12,0.7,0.37,0.94c0.25,0.24,0.57,0.45,0.97,0.62c0.4,0.17,0.82,0.36,1.28,0.54
		c0.58,0.22,1.16,0.47,1.73,0.74c0.56,0.27,1.04,0.64,1.41,1.1c0.37,0.46,0.56,1.07,0.56,1.84c0,0.65-0.17,1.25-0.51,1.8
		c-0.34,0.55-0.84,1-1.5,1.33C421.43,555.92,420.61,556.09,419.64,556.09z"/>
</g>
</svg>
