<?xml version="1.0" encoding="utf-8"?>
<!-- Generator: Adobe Illustrator 26.2.1, SVG Export Plug-In . SVG Version: 6.00 Build 0)  -->
<svg version="1.1" id="Capa_1" xmlns="http://www.w3.org/2000/svg" xmlns:xlink="http://www.w3.org/1999/xlink" x="0px" y="0px"
	 viewBox="0 0 60 60" style="enable-background:new 0 0 60 60;" xml:space="preserve">
<style type="text/css">
	.st0{fill-rule:evenodd;clip-rule:evenodd;fill:#BA0C2F;}
	.st1{fill-rule:evenodd;clip-rule:evenodd;fill:#661D32;}
	.st2{fill-rule:evenodd;clip-rule:evenodd;fill:#002F6C;}
</style>
<path class="st0" d="M57.8,26.9c-1.1,6.1-7.9,6.4-10.8,5.9C46.7,34,44.3,45.1,44,46c-1,0.7-13.3,5.6-14.2,5.9
	c-1.7-0.6-20-9.4-22.4-11.1C7,38.8,6.3,31,6.2,28.3c0-0.6-0.1-0.5,0.6-0.9c0.5-0.3,1.1-0.5,1.6-0.7c0.2-0.1,0.3,0.2,0.1,0.3
	c-0.4,0.2-0.8,0.4-1.2,0.7c-0.6,0.4-0.6,0.5,0,0.8c5.5,2.3,22.8,9.2,23.2,9.1c0.4-0.1,15.1-4.7,16-5.1c0.5-0.5,5-12.4,5.8-18.2
	C54.8,15.5,59.1,19.8,57.8,26.9z"/>
<path class="st1" d="M25.3,30.8c0-0.1-0.1-0.1-0.2-0.1c0,0-0.1,0-0.1,0.1c-0.1,0.2-0.3,1.1-0.4,1.4c-0.1,0.4,0,0.8,0,1.3
	c0,0.3,0.1,0.5,0.2,0.8c0,0.1,0.1,0.1,0.2,0.1c0.1,0,0.1-0.1,0.1-0.1c0-0.3-0.1-0.5-0.1-0.8c-0.1-0.4-0.1-0.8,0-1.1
	C25,31.9,25.3,31,25.3,30.8L25.3,30.8z"/>
<path class="st1" d="M25,30.1c-0.3-0.3-1-0.7-1.4-1c-0.1-0.1-0.2,0-0.2,0c-0.1,0.1,0,0.2,0,0.2c0.3,0.3,1.1,0.9,1.5,1.1
	c0.1,0,0.2,0,0.2-0.1C25.1,30.2,25,30.1,25,30.1L25,30.1z"/>
<path class="st1" d="M22.8,28.7c-0.5,0.6-0.9,1.2-1.4,1.8c-0.1,0.1,0,0.2,0,0.2c0.1,0.1,0.2,0,0.2,0c0.5-0.6,1-1.2,1.5-1.8
	c0.1-0.1,2.3-0.6,2.5-0.7c0.6,0.4,1.3,0.8,1.9,1.2c-0.6,0.3-1.4,0.5-2,0.8c-0.1,0-0.1,0.1-0.1,0.2c0,0.1,0.1,0.1,0.2,0.1
	c0.1,0,2.2-0.7,2.2-0.8c0.3,0.5,0.5,1,0.8,1.5c-1.1,0.5-2.2,0.9-3.3,1.2c-0.2,0.1-0.1,0.3,0.1,0.3c1-0.3,2.1-0.6,3.1-1
	c-0.4,0.8-0.8,1.5-1.2,2.2c0,0.1,0,0.2,0.1,0.2c0.1,0,0.1,0,0.2,0c0.4-0.6,0.8-1.3,1.2-1.9c0.3-0.4,0.5-0.8,0.3-1.3
	c-0.2-0.4-0.4-0.8-0.6-1.2c-0.2-0.3-0.4-0.5-0.7-0.7c-0.6-0.4-1.1-0.8-1.7-1.1c-0.2-0.1-0.4-0.1-0.6-0.1c-0.8,0.2-1.5,0.4-2.2,0.6
	C22.9,28.5,22.9,28.5,22.8,28.7L22.8,28.7z"/>
<path class="st1" d="M23.9,32.1c-0.7-0.4-1.5-0.8-2.2-1.2c-0.2-0.1-0.3,0.1-0.2,0.3c0.1,0.3,0.9,2,1.2,2.2c0.1,0.1,0.4,0,0.3-0.2
	c-0.4-0.6-0.7-1.2-1-1.8c0.6,0.4,1.2,0.7,1.8,1C23.9,32.4,24.1,32.2,23.9,32.1L23.9,32.1z"/>
<path class="st1" d="M35,30.8c0,0.3,0.3,0.4,0.4,0c0.1-1.1-0.4-2.3-0.4-3.3c0.1-1,0.3-2,0.8-2.9c0.1,0.6,0.6,1,1,1.4
	c1.3,1.1,3,1.7,4.7,1.5c0.2,0,0.2-0.3,0-0.3c-1.8,0.1-3.6-0.6-4.8-1.9c-0.8-0.9-0.5-1.7,0.7-1.8c1.8-0.1,3.6,0.8,4.7,2.2
	c0.1,0.2,0.4,0,0.3-0.2c-1.1-1.6-3.1-2.5-5-2.4c-1.2,0.1-1.6,0.7-2,1.7c-0.3,0.7-0.5,1.5-0.6,2.3C34.5,28.3,35.1,29.6,35,30.8
	L35,30.8z"/>
<path class="st1" d="M41.9,27.6c-0.5,1.2-1.4,2-2.7,2.6c-0.7,0.3-1.4,0.5-2.1,0.9c-0.6,0.3-1,0.9-1.1,1.5c0,0.1,0,0.2,0.1,0.2
	c0.1,0,0.2,0,0.2-0.1c0.2-0.7,0.9-1.2,1.5-1.6c0.7-0.4,1.1-0.4,1.8-0.7c1.2-0.5,2.1-1.5,2.5-2.8c0-0.1,0-0.2-0.1-0.2
	C42,27.5,41.9,27.5,41.9,27.6L41.9,27.6z"/>
<path class="st1" d="M11.9,22.9c0.5,0.6,0.9,1.2,1.3,1.8c0.4,0.6,0.7,1.3,1,1.9c0.1,0.2,0.3,0.1,0.3-0.1c-0.1-0.6-0.7-1.7-0.9-2
	c-0.4-0.6-0.9-1.2-1.4-1.8C12,22.6,11.8,22.8,11.9,22.9z"/>
<path class="st1" d="M13.7,23.1c1.4,0.5,1.8-0.3,1.7-1.6c0-0.6-0.2-1.2-0.4-1.8c-0.1-0.2-0.3,0-0.3,0.1c0.1,0.5,0.2,1,0.3,1.5
	c0.1,1,0.1,1.8-1.2,1.3c-0.4-0.2-0.9-0.4-1.2-0.8c-0.1-0.1-0.2-0.1-0.2,0c-0.1,0.1-0.1,0.2,0,0.2C12.7,22.6,13.2,22.9,13.7,23.1z"/>
<path class="st1" d="M15.5,19.6c0.1,0.6,0.4,1.3,0.7,1.8c0.8,1.3,1.7,1.8,2.8,0.4c0.4-0.5,0.6-1.1,0.7-1.7c0-0.2-0.3-0.2-0.3,0
	c-0.1,0.5-0.3,1-0.6,1.4c-1,1.3-1.7,0.6-2.4-0.5c-0.3-0.5-0.5-1-0.6-1.5C15.7,19.3,15.4,19.4,15.5,19.6z"/>
<path class="st1" d="M20.2,20.2c-0.5,1.5-0.7,3.5-0.4,5.1c0,0.1,0.1,0.1,0.2,0.1c0.1,0,0.1-0.1,0.1-0.2c-0.1-1.9,0-3.1,0.4-4.9
	C20.5,20.1,20.2,20,20.2,20.2z"/>
<path class="st1" d="M20.7,18.3c-0.2-0.2-0.6-0.4-0.9-0.2c-0.1,0.1-0.1,0.2,0,0.2c0,0,0.1,0.1,0.1,0.1c0.2-0.1,0.4,0,0.5,0.2
	c0.3,0.5-0.1,1.2-0.7,0.7c-0.2-0.1-0.2-0.3-0.1-0.5c0-0.1,0-0.2-0.1-0.2c-0.1,0-0.1,0-0.2,0c-0.2,0.3-0.2,0.6,0.1,0.8
	C20.3,20.4,21.4,19.2,20.7,18.3z"/>
<path class="st1" d="M15.4,19.1c0.2-0.2,0.2-0.6,0.1-0.8c-0.1-0.3-0.3-0.5-0.6-0.5c-0.3,0-0.7,0.1-0.8,0.4c0,0.1,0,0.2,0.1,0.2
	c0.1,0,0.1,0,0.2,0c0.1-0.2,0.4-0.3,0.6-0.2c0.4,0.2,0.3,0.6,0.1,0.8c-0.3,0.3-0.7,0.1-0.7-0.2c0-0.2-0.3-0.3-0.3-0.1
	C13.9,19.3,14.8,19.8,15.4,19.1z"/>
<path class="st1" d="M10.6,21.6c0.2-0.2,0.4-0.4,0.6-0.3c0.3,0.1,0.4,0.3,0.3,0.6c0,0.1-0.1,0.1-0.1,0.2c-0.1,0.1-0.4,0.1-0.5,0
	c-0.3-0.3-0.5,0-0.2,0.2c0.3,0.3,0.7,0.3,1,0c0.1-0.1,0.1-0.2,0.2-0.3c0.2-0.4-0.1-0.9-0.5-1.1c0,0,0,0,0,0c-0.4-0.1-0.9,0.1-1,0.5
	c0,0.1,0.1,0.2,0.2,0.2C10.6,21.7,10.6,21.6,10.6,21.6z"/>
<path class="st1" d="M20,29.4c0.4,0,0.8,0.1,1.2,0.4c0.2,0.1,0.3-0.2,0.2-0.3c-0.4-0.3-1-0.5-1.5-0.5c-0.9,0-2.4,0.6-2.2,1.7
	c0.1,0.5,0.6,0.7,1.1,0.9c0.1,0,0.2,0,0.2-0.1c0-0.1,0-0.2-0.1-0.2c-0.3-0.1-0.8-0.3-0.8-0.7C17.9,29.8,19.4,29.3,20,29.4z"/>
<path class="st1" d="M23.3,27.7c0.3-0.1,0.5-0.5,0.3-0.8c0,0,0-0.1-0.1-0.1c-0.4-0.7-2-0.9-2.7-0.6c-0.4,0.2-0.7,0.6-0.8,1
	c0,0.5,0.3,0.9,0.7,1c0.1,0,0.2,0,0.2-0.1c0-0.1,0-0.2-0.1-0.2c-0.3-0.1-0.5-0.5-0.4-0.8c0,0,0,0,0,0c0.2-0.4,0.5-0.7,1-0.7
	c0.8-0.1,1.5,0.2,1.7,0.6c0.1,0.1,0,0.3-0.1,0.4C23,27.5,23.1,27.8,23.3,27.7L23.3,27.7z"/>
<path class="st1" d="M22,25.5c0.1,0,0.1-0.1,0.1-0.2c0-0.1-0.1-0.1-0.1-0.1c-0.5-0.1-0.5-0.7-0.2-1c0.6-0.6,2-0.4,2.7,0
	c0.3,0.2,0.7,0.7,0.3,0.9c-0.2,0.1-0.1,0.3,0.1,0.3c0.4-0.1,0.6-0.6,0.4-1c-0.4-0.9-2.1-1.1-2.9-0.9C20.8,23.9,21,25.5,22,25.5z"/>
<path class="st1" d="M26.5,26.2c-0.2-0.3-0.1-0.7,0.2-1c0.3-0.2,0.7-0.3,1.1-0.3c0.7,0.1,1.7,0.6,1.8,1.5c0,0.1,0.1,0.2,0.2,0.2
	c0.1,0,0.1-0.1,0.2-0.1c0.1-0.5-0.3-1-0.7-1.3c-0.5-0.3-1-0.5-1.6-0.6c-0.5,0-1,0.1-1.3,0.5c-0.3,0.4-0.3,0.9,0,1.3
	C26.4,26.6,26.6,26.4,26.5,26.2L26.5,26.2z"/>
<path class="st1" d="M29.1,28.8c0.1,0.6,0.5,1.1,1.2,1.2c0.1,0,0.2-0.1,0.2-0.2c0-0.1-0.1-0.2-0.1-0.2c-0.5-0.1-0.9-0.6-0.8-1.1
	c0,0,0-0.1,0-0.1c0.3-1,2.4-1.1,3.1-0.6c0.5,0.3,0.7,0.9,0.4,1.5c-0.1,0.2,0.2,0.3,0.3,0.1c0.3-0.5,0.3-1.1,0-1.5
	C32.4,26.5,29,27,29.1,28.8L29.1,28.8z"/>
<path class="st1" d="M30.8,36.3c-0.2,0.1-0.1,0.4,0.1,0.3c0.6-0.2,1.3-0.6,1.5-1.2c0.5-1.6-1.7-2.1-3-1.7c-0.6,0.2-1.4,0.5-1.6,1.1
	c-0.4,0.8,0.3,1.3,0.9,1.6c0.2,0.1,0.3-0.2,0.1-0.3c-0.7-0.3-1.2-0.8-0.5-1.4c0.9-0.8,3.3-1.1,3.6,0.3C32.3,35.6,31.4,36,30.8,36.3
	L30.8,36.3z"/>
<path class="st1" d="M33.5,34.3c-0.2,0-0.1,0.3,0.1,0.3c0.6,0,1.1-0.3,1.5-0.8c1.3-1.6-0.7-3-2.5-2.8c-0.6,0.1-1.2,0.4-1.4,1
	c0,0.2,0.3,0.3,0.3,0.1c0.2-0.6,0.9-0.7,1.5-0.7c1.1,0,2.5,0.7,2,1.9C34.6,33.9,34,34.1,33.5,34.3L33.5,34.3z"/>
<path class="st1" d="M40.4,33.1c-0.5,0.1-1.1,0.1-1.6,0c-0.4-0.1-1-0.3-1.2-0.7c-0.1-0.2-0.4-0.1-0.3,0.1c0.2,0.4,0.6,0.7,1,0.8
	c0.5,0.2,1.1,0.2,1.6,0.2c1-0.1,2.2-0.6,1.5-1.8c-0.3-0.4-0.9-0.7-1.4-0.6c-0.1,0-0.2,0.1-0.1,0.2c0,0.1,0.1,0.1,0.1,0.1
	c0.4,0.1,1,0.2,1.1,0.6C41.3,32.7,40.9,33,40.4,33.1L40.4,33.1z"/>
<path class="st1" d="M16.9,26.1c0.5-0.2,1-0.3,1.5-0.2c0.6,0.1,0.7,0.3,1,0.7c0.1,0.1,0.2,0.1,0.2,0c0,0,0-0.1,0-0.1
	c0-0.4-0.5-0.7-0.9-0.9c-0.7-0.3-2.2,0-2.7,0.6c-0.3,0.4-0.3,0.8-0.1,1.2c0.2,0.4,0.7,0.7,1.2,0.7c0.2,0,0.2-0.3,0-0.3
	c-0.4,0-0.8-0.3-0.9-0.7C16.2,26.6,16.5,26.3,16.9,26.1z"/>
<path class="st1" d="M14.8,30.4c-0.1,0-0.2,0-0.2,0.1c0,0.1,0,0.2,0.1,0.2c1.4,0.3,2.5-0.6,1.6-1.8c-0.7-0.9-2.4-1.4-3.3-0.6
	c-0.5,0.4-0.7,1.1-0.3,1.7c0.1,0.1,0.2,0.1,0.2,0c0.1-0.1,0.1-0.2,0-0.2c-0.3-0.5,0-1.1,0.5-1.3c0.7-0.4,2,0,2.5,0.7
	C16.9,30.2,15.7,30.5,14.8,30.4z"/>
<path class="st1" d="M11.6,28.4c0.2,0,0.2-0.4,0-0.3c-0.6,0.2-1.7,0.2-1.7-0.6c-0.1-0.8,1.3-1.3,1.9-1.3c0.4,0,1.2,0.2,1,0.7
	c0,0.1,0,0.2,0.1,0.2c0.1,0,0.1,0,0.2-0.1c0.2-0.5-0.2-0.9-0.7-1.1c-1.5-0.5-3.8,1-2.6,2.2C10.2,28.7,11,28.6,11.6,28.4z"/>
<path class="st1" d="M7.4,23.3c0.1,0,0.2-0.1,0.1-0.2c0-0.1-0.1-0.2-0.2-0.1l0,0C6.8,23,6,23,5.4,23.1c-0.1,0-0.1,0.1-0.1,0.2
	c0,0.1,0.1,0.1,0.1,0.1C6.1,23.4,6.8,23.3,7.4,23.3z"/>
<path class="st1" d="M7.1,18.7C7.7,19,8.3,19.3,9,19.6c0.2,0.1,0.3-0.2,0.1-0.3c-0.6-0.3-1.2-0.6-1.9-0.9C7,18.4,6.9,18.6,7.1,18.7z
	"/>
<path class="st1" d="M13.1,16.4c0.1,0.1,0.2,0.1,0.2,0c0,0,0.1-0.1,0-0.2c-0.2-0.4-0.4-0.8-0.7-1.3c0-0.1-0.1-0.1-0.2-0.1
	c-0.1,0-0.1,0.1-0.1,0.2C12.6,15.5,12.8,16,13.1,16.4z"/>
<path class="st1" d="M18.4,16.4c0-0.6,0-1.2-0.1-1.8c0-0.1-0.1-0.1-0.2-0.1c-0.1,0-0.1,0.1-0.1,0.2c0,0.6,0,1.2,0,1.8
	C18.1,16.6,18.4,16.6,18.4,16.4L18.4,16.4z"/>
<path class="st1" d="M21.5,16.6c0.2-0.6,0.5-1.2,0.6-1.8c0-0.1,0-0.2-0.1-0.2c-0.1,0-0.2,0-0.2,0.1c-0.2,0.6-0.4,1.2-0.6,1.8
	C21.1,16.7,21.4,16.8,21.5,16.6z"/>
<path class="st1" d="M15.3,48.6c-0.2,0-0.3,0.2-0.1,0.3c0.4,0.2,1.2,0.5,0.9,1c-0.3,0.6-1.6,0.7-2.3,0.6c-0.6-0.1-1.7-0.5-1-1.3
	c0.4-0.5,1.2-0.5,1.8-0.5c0.2,0,0.2-0.3,0-0.3c-0.7-0.1-1.5-0.1-2,0.5c-0.9,0.9,0,1.9,1.1,2c0.8,0.1,2.3-0.1,2.7-0.8
	C16.8,49.4,15.9,48.8,15.3,48.6z"/>
<path class="st1" d="M12.8,46c-0.7-0.4-1.6-0.3-2.3,0c-0.2,0.1-0.1,0.4,0.1,0.4c0.6-0.1,1.1-0.3,1.7-0.1c1.1,0.4,1.1,1.5-0.4,1.8
	c-0.5,0.1-1.1,0.1-1.6,0c-0.7-0.2-0.7-0.8-0.3-1.3c0.1-0.2-0.1-0.3-0.2-0.2c-0.4,0.4-0.6,1.2-0.1,1.6c0.5,0.4,1.4,0.4,2,0.3
	C13.5,48.3,14.2,46.8,12.8,46L12.8,46z"/>
<path class="st1" d="M7.3,48.8c-0.1,0-0.1,0.1-0.1,0.2c0,0.1,0.1,0.1,0.2,0.1c0.5,0,1.2-0.2,1.6,0.3c0.3,0.5,0,1-0.4,1.3
	c-0.7,0.5-2.5,0.8-2.8-0.2c-0.2-0.6,0.5-1.1,1-1.3c0.2-0.1,0-0.4-0.2-0.3c-0.6,0.3-1.2,0.7-1.2,1.5c0,1.4,2.3,1.4,3.3,0.7
	c0.5-0.4,0.9-1,0.7-1.7C9.1,48.7,8,48.6,7.3,48.8L7.3,48.8z"/>
<path class="st2" d="M16.6,34.7c0.1-0.8,1.1-0.9,1.3-0.1c0.1,0.4,0,0.9-0.4,1.1c0,0.3,0,0.5-0.1,0.8c-0.1,0.1-0.3,0.2-0.4,0.1
	c0,0-0.1-0.1-0.1-0.1c0-0.2,0-0.5,0-0.8C16.7,35.6,16.6,35.2,16.6,34.7z M30.5,38.8c-0.3,4.1-0.5,8.2-0.7,12.2c0,0.2,0.3,0.3,0.3,0
	c0.3-4.1,0.5-8.2,0.6-12.2C30.8,38.6,30.5,38.5,30.5,38.8L30.5,38.8z M8.2,30.7c2.1,1.1,4,1.8,6.3,2.7c0.2,0.1,0.3-0.2,0.1-0.3
	c-2.4-1-4.3-1.6-6.5-2.8c-0.1,0-0.2,0-0.2,0.1c0,0,0,0,0,0.1c0,1.6,0,3.1,0.1,4.7c0.1,1.4,0.3,2.8,0.5,4.2c0,0.2,0.3,0.1,0.3-0.1
	c-0.2-1.7-0.4-2.5-0.5-4.2C8.2,33.4,8.2,32.2,8.2,30.7z M28.7,38.8c-3.1-1.1-6.2-2.2-9.2-3.5c-0.1-0.1-0.3,0-0.3,0.1
	c0,0,0,0.1,0,0.1c0,0.9-0.1,2.3-0.2,2.8c-1.2-0.4-2.4-1-3.6-1.5c0-1.1,0-2,0-3.1c0-0.2-0.3-0.3-0.3,0C15,35,15,35.8,15,36.6
	c0,0.2,0,0.4,0.2,0.6c1.2,0.7,2.5,1.2,3.8,1.6c0.1,0,0.2,0,0.3-0.1c0.1-0.7,0.1-2,0.2-3c3,1.2,6,2.4,9,3.4c-0.1,1.8-0.2,3.5-0.3,5.2
	c-0.1,1.7-0.2,2.9-0.3,4.6c-3.8-1.6-7.7-3.4-11.4-5.3c-2.5-1.2-4.9-2.5-7.3-3.8C9,39.8,8.8,40,9,40.1c2.4,1.4,4.5,2.4,7,3.6
	c4,2,8,3.8,12,5.5c0.1,0,0.2,0,0.2-0.1c0,0,0,0,0-0.1c0.1-1.8,0.2-3.1,0.3-4.9c0.1-1.6,0.2-3.3,0.3-5C28.8,39.2,28.9,38.9,28.7,38.8
	L28.7,38.8z M44.6,34.7c-3.7,1.5-8,2.9-11.9,4.1c-0.1,0-0.1,0.2-0.1,0.3c-0.3,3.4-0.6,6.4-0.9,9.8c0,0.1,0.1,0.2,0.2,0.2
	c1.9-0.6,3.7-1.4,5.5-2.1c1.8-0.7,3.5-1.3,5.3-2c0.1,0,0.1-0.1,0.1-0.2c0-0.1-0.1-0.1-0.2-0.1c-1.9,0.7-3.4,1.3-5.3,2
	c-1.8,0.7-3.5,1.3-5.3,2c0.3-3.4,0.6-6.3,0.9-9.6c3.8-1,7.9-2.5,11.5-4c-0.5,3.2-0.8,5.8-1.6,9c0,0.2,0.2,0.2,0.3,0
	c0.9-3.3,1.2-5.9,1.7-9.3C44.8,34.7,44.7,34.6,44.6,34.7z M53.4,17.3c-0.2-0.2-0.4,0.1-0.2,0.3c2.3,2.3,3.6,5.7,2.5,9
	c-1,2.9-3.7,4.9-6.7,4.4c1.6-4,2.9-8.2,4.1-12.4c0-0.1,0-0.2-0.1-0.2c-0.1,0-0.2,0-0.2,0.1c-1.2,4.2-2.5,8.4-4.1,12.5
	c0,0.1-0.1,0.3,0.1,0.3c2.5,0.5,5-0.7,6.4-2.8C57.6,24.8,56.3,20.3,53.4,17.3z M51.9,14.1c-0.6,4-5.3,17.7-5.8,17.8
	c-0.6,0.2-4.2-1.2-5.1-1.6c1.6-1.5,3.8-4.9,0-6.9c-3.7-2-6.6-1-6.9,3.4c-1-1.3-2.6-1-3.3-0.7c-0.1-1.9-3.3-2.8-4.6-1.9
	c-1.3-1.8-4-1.7-5.1-0.9c0.5-2.1,4.5-15,4.8-15.2C26.2,7.9,51.2,13.7,51.9,14.1z M24.2,21.1c-0.2-0.5-0.3-0.9-0.6-1.4
	c0-0.1-0.1-0.1-0.2-0.1c-0.1,0-0.1,0.1-0.1,0.2c0.2,0.5,0.3,0.9,0.6,1.4C23.9,21.4,24.2,21.3,24.2,21.1z M26.3,19.4
	c0-0.2-0.2-0.2-0.3-0.1c-0.2,0.5-0.3,1.1-0.4,1.7c0,0.2,0.3,0.2,0.3,0.1C26,20.6,26.2,20,26.3,19.4z M28,21
	c-0.2,0.3-0.5,0.6-0.9,0.8c-0.2,0.1,0,0.4,0.1,0.3c0.4-0.2,0.8-0.5,1-0.9c0-0.1,0-0.2,0-0.2S28.1,20.9,28,21L28,21z M32.1,14.8
	c-0.8-2.5-2.6-4.6-5.1-5.6c-0.1,0-0.2,0-0.2,0.1c0,0.1,0,0.2,0.1,0.2c2.6,1.2,4.4,3.5,5,6.3c0.5,2.6-0.1,5.8-2.4,7.3
	c-0.2,0.1,0,0.4,0.2,0.3C32.5,21.8,33,17.6,32.1,14.8z M34,23c-0.3-0.4-0.7-0.8-1.1-1.1c-0.1-0.1-0.3,0.1-0.2,0.2
	c0.3,0.4,0.7,0.8,1.1,1.1C34,23.3,34.2,23.1,34,23z M36.4,21.4c-0.1-0.5-0.3-1.2-0.5-1.7c0-0.1-0.1-0.1-0.2-0.1
	c-0.1,0-0.1,0.1-0.1,0.2c0.1,0.6,0.3,1.2,0.5,1.7C36.2,21.7,36.5,21.6,36.4,21.4L36.4,21.4z M40.2,19.5c0-0.2-0.3-0.2-0.3-0.1
	c-0.2,0.7-0.3,1.3-0.4,2c0,0.2,0.3,0.2,0.3,0.1C40,20.8,40.1,20.2,40.2,19.5L40.2,19.5z M44,21.5c0.1-0.1-0.1-0.3-0.2-0.2
	c-0.4,0.4-0.8,0.8-1.2,1.2c-0.1,0.1-0.1,0.2,0,0.2c0.1,0.1,0.2,0.1,0.2,0C43.1,22.4,43.6,21.9,44,21.5z M45.4,29
	c-0.5-0.1-0.9-0.2-1.4-0.4c-0.2-0.1-0.3,0.2-0.1,0.3c0.5,0.2,1,0.3,1.5,0.4c0.1,0,0.2,0,0.2-0.1C45.6,29.1,45.5,29,45.4,29
	C45.5,29,45.4,29,45.4,29z M45.9,24.9c-0.5,0-1,0.1-1.5,0.2c-0.1,0-0.2,0.1-0.2,0.2c0,0.1,0.1,0.2,0.2,0.2c0.5,0,1-0.1,1.6-0.2
	c0.1,0,0.1-0.1,0.1-0.2C46,25,46,24.9,45.9,24.9L45.9,24.9z"/>
</svg>
