<?xml version="1.0" encoding="utf-8"?>
<!-- Generator: Adobe Illustrator 26.2.1, SVG Export Plug-In . SVG Version: 6.00 Build 0)  -->
<svg version="1.1" id="Layer_1" xmlns="http://www.w3.org/2000/svg" xmlns:xlink="http://www.w3.org/1999/xlink" x="0px" y="0px"
	 viewBox="0 0 50 50" style="enable-background:new 0 0 50 50;" xml:space="preserve">
<style type="text/css">
	.st0{fill:#A7C6ED;}
	.st1{fill:#002F6C;}
	.st2{fill:#FFFFFF;}
</style>
<g>
	<circle class="st0" cx="25" cy="25" r="22.9"/>
	<path class="st1" d="M2.1,25C1.9,8.6,18.6-3.1,33.9,3.6c18.8,8.2,19.2,34.9,0.1,43C18.6,53.1,1.9,41.5,2.1,25L2.1,25z M2.2,25
		c0.2,19.9,24.6,29.7,38.7,15.8c8.7-8.3,9.1-23.5,0.2-31.9C27-4.9,2.3,5.2,2.2,25L2.2,25z"/>
</g>
<g>
	<circle class="st2" cx="20.8" cy="18.6" r="10.7"/>
	<path class="st1" d="M10.1,18.6C10,12.8,14.8,7.1,20.8,7.4c9.5,0.2,14.7,12.4,7.9,19C21.6,33.7,9.9,28.5,10.1,18.6L10.1,18.6z
		 M10.2,18.6c0,8.8,11.6,13.3,17.7,7.2c6.7-6.4,2.3-17.7-7.2-17.2C15.3,8.5,10.1,13,10.2,18.6L10.2,18.6z"/>
</g>
<g>
	
		<rect x="32.5" y="23.9" transform="matrix(0.7071 -0.7071 0.7071 0.7071 -12.429 32.9317)" class="st1" width="2.1" height="15.2"/>
	<path class="st1" d="M27.3,26.9c0.4-0.5,1-1.2,1.6-1.9c4,3.3,7.1,7.5,10.8,10.8l0.2,0.2c-0.5,0.6-1.1,1.2-1.6,1.8l-0.3,0.3
		l-0.3-0.3C34.1,34.4,30.6,30.7,27.3,26.9L27.3,26.9z M27.4,26.9c3.8,3.3,7.6,6.8,10.9,10.5h-0.5c0.5-0.5,1.1-1,1.6-1.4v0.4
		c-3.3-4-7.4-6.9-10.7-10.8h0.4C28.6,25.9,28.1,26.4,27.4,26.9L27.4,26.9z"/>
</g>
</svg>
