<?xml version="1.0" encoding="utf-8"?>
<!-- Generator: Adobe Illustrator 26.2.1, SVG Export Plug-In . SVG Version: 6.00 Build 0)  -->
<svg version="1.1"
	 id="svg2" inkscape:version="0.48.4 r9939" sodipodi:docname="hand-down.svg" xmlns:cc="http://creativecommons.org/ns#" xmlns:dc="http://purl.org/dc/elements/1.1/" xmlns:inkscape="http://www.inkscape.org/namespaces/inkscape" xmlns:rdf="http://www.w3.org/1999/02/22-rdf-syntax-ns#" xmlns:sodipodi="http://sodipodi.sourceforge.net/DTD/sodipodi-0.dtd" xmlns:svg="http://www.w3.org/2000/svg"
	 xmlns="http://www.w3.org/2000/svg" xmlns:xlink="http://www.w3.org/1999/xlink" x="0px" y="0px" viewBox="0 0 50 50"
	 style="enable-background:new 0 0 50 50;" xml:space="preserve">
<style type="text/css">
	.st0{fill:#3F67AE;}
</style>
<sodipodi:namedview  bordercolor="#666666" borderopacity="1" gridtolerance="10" guidetolerance="10" id="namedview30" inkscape:current-layer="svg2" inkscape:cx="218.55817" inkscape:cy="410.25706" inkscape:pageopacity="0" inkscape:pageshadow="2" inkscape:window-height="876" inkscape:window-maximized="1" inkscape:window-width="1535" inkscape:window-x="65" inkscape:window-y="24" inkscape:zoom="0.37249375" objecttolerance="10" pagecolor="#ffffff" showgrid="false">
	</sodipodi:namedview>
<path id="path11026" inkscape:connector-curvature="0" class="st0" d="M14.5,8h11.8c1.2,0.1,2.1,1.1,2.2,2.2v5.3
	c1.2,1.5,2.8,2.6,3.9,4c0.4,0.5,0.9,0.9,1.4,1.2c1.8,0.9,3.9,0.4,5.3,1.7c1.1,2.6-0.4,5.7-2.9,6.6c-2,0.7-4,0.2-5.8-0.6
	c0,3.1,0,6.2,0,9.3C30.1,40.2,28.4,42,26,42c-2.4,0-4.2-2.1-4.3-4.4V34c-0.7-0.1-1.4-0.4-2-0.7c-1.5,0.2-3-0.3-4-1.2
	c-8.7-0.5-3.5-11.9-3.4-16.1v-5.8C12.3,8.9,13.3,8,14.5,8z M14.5,15.9c-0.1,3.4-5.2,15.1,2.2,14c0.7,1.2,2.4,1.7,3.6,1
	c1.1,1.1,2.6,1.5,3.7,0.4c0,1.1,0,2.2,0,3.3c0,1.1,0,2.2,0,3.3c0,1.3,0.9,2.1,2.1,2.1c1.3,0,2.1-1,2.1-2.1c0-4.3,0-8.5,0-12.4
	c2.9,0.4,6.7,3.8,9,0.3c0.3-0.6,0.4-1,0.3-1.6c0-0.1-0.1-0.2-0.1-0.2c0,0-0.1,0-0.2-0.1c-2.3-0.4-4.5-0.7-6-2.5
	c-1.5-1.9-3.8-3.1-4.8-5.3v-0.1L14.5,15.9z"/>
</svg>
