<?xml version="1.0" encoding="utf-8"?>
<!-- Generator: Adobe Illustrator 26.2.1, SVG Export Plug-In . SVG Version: 6.00 Build 0)  -->
<svg version="1.1" id="Layer_1" xmlns="http://www.w3.org/2000/svg" xmlns:xlink="http://www.w3.org/1999/xlink" x="0px" y="0px"
	 viewBox="0 0 50 50" style="enable-background:new 0 0 50 50;" xml:space="preserve">
<style type="text/css">
	.st0{fill:none;}
	.st1{fill:#002F6C;}
	.st2{fill:#BA0C2F;}
	.st3{fill:#E73164;}
	.st4{fill:#0067B9;}
	.st5{fill:url(#Nueva_muestra_de_motivo_2);}
	.st6{fill:url(#Nueva_muestra_de_motivo_4);}
	.st7{fill:url(#Nueva_muestra_de_motivo_3);}
	.st8{fill:#3F67AE;}
	.st9{fill:#212721;}
	.st10{fill:#A7C6ED;}
	.st11{fill:#205493;}
	.st12{fill:#661D32;}
	.st13{fill:#6C6463;}
	.st14{fill:#8C8985;}
	.st15{fill:#CFCDC9;}
	.st16{fill:#EAC81F;}
</style>
<pattern  x="-225" y="275" width="36.75" height="36.75" patternUnits="userSpaceOnUse" id="Nueva_muestra_de_motivo_2" viewBox="0 -36.75 36.75 36.75" style="overflow:visible;">
	<g>
		<rect y="-36.75" class="st0" width="36.75" height="36.75"/>
		<rect x="0" y="-36.75" class="st1" width="36.75" height="36.75"/>
	</g>
</pattern>
<pattern  x="-225" y="275" width="36.75" height="36.75" patternUnits="userSpaceOnUse" id="Nueva_muestra_de_motivo_3" viewBox="0 -36.75 36.75 36.75" style="overflow:visible;">
	<g>
		<rect y="-36.75" class="st0" width="36.75" height="36.75"/>
		<rect x="0" y="-36.75" class="st2" width="36.75" height="36.75"/>
	</g>
</pattern>
<pattern  x="-225" y="275" width="36.75" height="36.75" patternUnits="userSpaceOnUse" id="Nueva_muestra_de_motivo_4" viewBox="0 -36.75 36.75 36.75" style="overflow:visible;">
	<g>
		<rect x="0" y="-36.75" class="st0" width="36.75" height="36.75"/>
		<rect x="0" y="-36.75" class="st3" width="36.75" height="36.75"/>
	</g>
</pattern>
<g>
	<path class="st4" d="M21.19,36.82c0.76-1.07,2.09-1.57,3.36-1.26c1.7,0.4,2.76,2.11,2.36,3.81c-0.34,1.44-1.64,2.46-3.12,2.44
		c-1.03,0-2.01-0.5-2.6-1.35v7.13h16c1.06,0,1.91-0.86,1.91-1.91V29.69h-7.16c1.44-0.99,1.82-2.96,0.83-4.4s-2.96-1.82-4.4-0.83
		c-1.44,0.99-1.82,2.96-0.83,4.4c0.22,0.33,0.5,0.61,0.83,0.83h-7.17L21.19,36.82z"/>
	<path class="st5" d="M21.19,36.82c1.72-2.62,5.96-1.34,5.97,1.83c0.1,3.29-4.33,4.68-6.21,1.99c0,0,0.53-0.17,0.53-0.17l0.08,7.13
		c0,0-0.37-0.37-0.37-0.37c4.21-0.06,8.89-0.07,13.12-0.08c0,0,2.19-0.01,2.19-0.01c0.95,0.08,1.87-0.15,2.09-1.14
		c0.07-4.38,0-11.83,0.05-16.3c0,0,0.46,0.46,0.46,0.46c-1.07-0.01-7.72-0.03-8.61-0.03c0,0,1.2-0.79,1.2-0.79
		c0.98-0.64,1.43-1.95,1.09-3.07c-0.74-2.6-4.55-2.63-5.35-0.03c-0.39,1.15,0.06,2.53,1.09,3.23l0.76,0.52l-0.91-0.02l-7.17-0.12
		c0,0,0.15-0.15,0.15-0.15C21.3,32.01,21.2,34.37,21.19,36.82L21.19,36.82z M21.19,36.82c-0.02-2.35-0.12-4.8-0.16-7.28
		c0,0,0.16,0,0.16,0l7.17-0.12l-0.15,0.5c-1.23-0.8-1.84-2.45-1.39-3.87c0.4-1.43,1.82-2.51,3.33-2.51
		c3.46-0.06,4.92,4.57,2.03,6.51c0,0-0.24-0.79-0.24-0.79l7.16-0.03c0,0,0.46,0,0.46,0l0,0.46c0.01,2.9,0.04,10.31,0.03,13.12
		c0,0-0.01,2.19-0.01,2.19c0.05,0.74-0.05,1.8-0.71,2.37c-0.58,0.65-1.62,0.74-2.37,0.69c0,0-2.19-0.01-2.19-0.01l-4.37-0.02
		c-3.04-0.01-6.08-0.03-9.13-0.07c0,0,0-0.37,0-0.37c0.01-0.56,0.09-7.81,0.09-8.08c0,0,0.52,0.79,0.52,0.79
		c1.53,2.32,5.41,1.17,5.39-1.65C26.91,35.68,22.93,34.41,21.19,36.82L21.19,36.82z"/>
</g>
<g>
	<path class="st6" d="M14.05,29.69c1.43,1.01,1.77,2.98,0.77,4.41s-2.98,1.77-4.41,0.77c-1.43-1.01-1.77-2.98-0.77-4.41
		c0.21-0.3,0.47-0.56,0.77-0.77H3.28v15.99c0,1.06,0.86,1.91,1.91,1.91h16v-7.17c0.66,0.98,1.81,1.5,2.98,1.36
		c1.74-0.18,3.01-1.73,2.83-3.47c-0.17-1.64-1.56-2.87-3.2-2.85c-1.05,0-2.02,0.52-2.61,1.38v-7.16H14.05z"/>
	<path class="st7" d="M14.1,29.7c2.75,1.68,1.34,6.05-1.87,6.05c-3.41,0.12-4.87-4.46-2.06-6.41c0,0,0.24,0.77,0.24,0.77
		s-3.56,0.03-3.56,0.03l-3.56-0.03l0.42-0.42C3.63,34.78,3.43,39.9,3.43,45c-0.02,0.71-0.01,1.41,0.53,1.92
		c0.52,0.53,1.21,0.52,1.92,0.49c0,0,2.19-0.03,2.19-0.03c2.77-0.06,10.25-0.19,13.12-0.24c0,0-0.46,0.46-0.46,0.46l-0.06-7.17
		l-0.01-1.69l0.96,1.4c0.64,0.94,1.89,1.37,2.99,1.03c1.09-0.3,1.91-1.39,1.9-2.53c0.05-2.59-3.52-3.69-4.96-1.55
		c0,0-0.8,1.17-0.8,1.17c0.03-2.85,0.08-5.73,0.16-8.57c0,0,0.28,0.28,0.28,0.28C18.84,29.92,16.49,29.73,14.1,29.7L14.1,29.7z
		 M14,29.67c2.45-0.04,4.96-0.24,7.46-0.27c0,0,0.01,0.29,0.01,0.29c0.07,2.39,0.12,4.78,0.14,7.16l-0.78-0.24
		c1.92-2.97,6.73-1.54,6.69,2.02c0.05,3.58-4.8,5.09-6.77,2.08c0,0,0.94-0.29,0.94-0.29l-0.06,7.17c0,0,0,0.46,0,0.46
		s-0.45-0.01-0.45-0.01c-2.9-0.05-10.32-0.17-13.12-0.24c0,0-2.19-0.03-2.19-0.03c-1.14,0.14-2.49-0.39-2.71-1.65
		c-0.1-5.6-0.2-11.24-0.32-16.85c0.11,0.01,3.77-0.04,3.99-0.03c0.99,0.01,4.01,0.03,4.94,0.04c0,0-1.13,0.76-1.13,0.76
		c-2.22,1.46-1.08,5.1,1.58,5.1C15.14,35.19,16.26,31.45,14,29.67L14,29.67z"/>
</g>
<g>
	<path class="st6" d="M37.18,21.16c-1.42-1-1.77-2.97-0.77-4.39s2.97-1.77,4.39-0.77s1.77,2.97,0.77,4.39
		c-0.21,0.3-0.47,0.56-0.77,0.77h7.09V5.35c0-1.1-0.89-1.99-1.99-1.99H30.09v7.12c-0.66-0.97-1.8-1.49-2.97-1.35
		c-1.73,0.2-2.97,1.77-2.76,3.5c0.19,1.59,1.54,2.79,3.14,2.79c1.04,0,2.01-0.52,2.59-1.38v7.13H37.18z"/>
	<path class="st7" d="M37.14,21.15c-2.74-1.64-1.33-6.05,1.86-6.02c3.4-0.12,4.85,4.45,2.06,6.38c0,0-0.24-0.77-0.24-0.77
		c2.06-0.02,5-0.03,7.09,0c0,0-0.42,0.42-0.42,0.42c0.05-4.34,0.23-8.69,0.25-13.03c-0.03-0.7,0.1-2.57-0.04-3.22
		c-0.26-1.09-1.35-1.5-2.39-1.37C41.37,3.6,34.07,3.77,30.09,3.82c0,0,0.46-0.46,0.46-0.46l0.06,7.12l0.01,1.69l-0.96-1.4
		c-0.63-0.93-1.87-1.37-2.95-1.02c-1.08,0.31-1.87,1.39-1.86,2.51c-0.06,2.55,3.45,3.67,4.89,1.54c0,0,0.8-1.17,0.8-1.17
		c-0.03,2.83-0.08,5.7-0.16,8.53c0,0-0.28-0.28-0.28-0.28C32.43,20.93,34.76,21.12,37.14,21.15L37.14,21.15z M37.23,21.18
		c-2.44,0.04-4.94,0.24-7.42,0.27c0,0-0.01-0.29-0.01-0.29c-0.07-2.38-0.12-4.75-0.14-7.13l0.78,0.24
		c-1.93,2.96-6.63,1.53-6.62-2.02c-0.05-3.55,4.74-5.06,6.69-2.07c0,0-0.94,0.29-0.94,0.29l0.06-7.12c0,0,0-0.46,0-0.46
		s0.45,0.01,0.45,0.01c2.89,0.05,10.25,0.17,13.03,0.24c0,0,2.17,0.04,2.17,0.04c0.72-0.04,1.6,0.05,2.14,0.64
		c0.59,0.54,0.67,1.41,0.62,2.13c0.02,2.11,0.03,4.42,0.08,6.52c0.07,3.04,0.17,6.07,0.19,9.11c0,0-0.42,0-0.42,0
		c-2.64,0.03-5.86,0.03-8.47-0.01c0,0,1.14-0.76,1.14-0.76c2.21-1.45,1.08-5.07-1.57-5.08C36.1,15.69,34.99,19.41,37.23,21.18
		L37.23,21.18z"/>
</g>
<g>
	<path class="st4" d="M21.19,22.56c-0.76,1.07-2.09,1.57-3.36,1.26c-1.7-0.4-2.76-2.11-2.36-3.81c0.34-1.44,1.64-2.46,3.12-2.44
		c1.03,0,2.01,0.5,2.6,1.35v-7.13h-16c-1.06,0-1.91,0.86-1.91,1.91v15.99h7.17c-1.44,0.99-1.82,2.96-0.83,4.4
		c0.99,1.44,2.96,1.82,4.4,0.83c1.44-0.99,1.82-2.96,0.83-4.4c-0.22-0.33-0.5-0.61-0.83-0.83h7.17V22.56z"/>
	<path class="st5" d="M21.19,22.56c-1.72,2.62-5.96,1.34-5.97-1.83c-0.1-3.29,4.33-4.68,6.21-1.99c0,0-0.53,0.17-0.53,0.17
		l-0.08-7.13l0.37,0.37c-4.21,0.06-8.89,0.07-13.12,0.08c0,0-2.19,0.01-2.19,0.01c-0.95-0.08-1.87,0.15-2.09,1.14
		c-0.07,4.38,0,11.83-0.05,16.3c0,0-0.46-0.46-0.46-0.46c1.07,0.01,7.72,0.03,8.61,0.03c0,0-1.2,0.79-1.2,0.79
		C9.71,30.69,9.26,32,9.6,33.12c0.74,2.6,4.55,2.63,5.35,0.03c0.39-1.15-0.06-2.53-1.09-3.23L13.1,29.4c0,0,0.91,0.02,0.91,0.02
		l7.17,0.12l-0.15,0.15C21.07,27.37,21.17,25.01,21.19,22.56L21.19,22.56z M21.19,22.56c0.02,2.35,0.12,4.8,0.16,7.28
		c0,0-0.16,0-0.16,0s-7.17,0.12-7.17,0.12l0.15-0.5c1.24,0.8,1.84,2.45,1.39,3.87c-0.4,1.43-1.82,2.51-3.33,2.51
		c-3.46,0.06-4.92-4.57-2.03-6.51c0,0,0.24,0.79,0.24,0.79l-7.17,0.03l-0.46,0l0-0.46c-0.01-2.9-0.04-10.31-0.03-13.12
		c0,0,0.01-2.19,0.01-2.19c-0.05-0.74,0.05-1.8,0.71-2.37c0.58-0.65,1.62-0.74,2.37-0.69c0,0,2.19,0.01,2.19,0.01l4.37,0.02
		c3.04,0.01,6.08,0.03,9.13,0.07c0,0,0,0.37,0,0.37c-0.01,0.56-0.09,7.81-0.09,8.08c0,0-0.52-0.79-0.52-0.79
		c-1.53-2.32-5.41-1.17-5.39,1.65C15.47,23.7,19.45,24.96,21.19,22.56L21.19,22.56z"/>
</g>
<rect x="-628.08" y="-335.98" class="st1" width="36.75" height="36.75"/>
<rect x="-628.08" y="-294.43" class="st2" width="36.75" height="36.75"/>
<rect x="-565.35" y="-335.98" class="st8" width="36.75" height="36.75"/>
<rect x="-565.35" y="-294.43" class="st3" width="36.75" height="36.75"/>
<rect x="-628.08" y="-211.05" class="st9" width="36.75" height="36.75"/>
<rect x="-565.35" y="-211.14" class="st9" width="36.75" height="36.75"/>
<rect x="-628.08" y="-169.5" class="st4" width="36.75" height="36.75"/>
<rect x="-565.35" y="-169.32" class="st4" width="36.75" height="36.75"/>
<rect x="-628.08" y="-127.95" class="st10" width="36.75" height="36.75"/>
<rect x="-628.08" y="-86.4" class="st11" width="36.75" height="36.75"/>
<rect x="-628.08" y="-44.85" class="st12" width="36.75" height="36.75"/>
<rect x="-572.32" y="-45.12" class="st12" width="36.75" height="36.75"/>
<rect x="-628.08" y="-3.3" class="st13" width="36.75" height="36.75"/>
<rect x="-572.32" y="-3.3" class="st13" width="36.75" height="36.75"/>
<rect x="-628.08" y="38.52" class="st14" width="36.75" height="36.75"/>
<rect x="-628.08" y="82.25" class="st15" width="36.75" height="36.75"/>
<rect x="-752.6" y="-414.9" class="st16" width="36.75" height="36.75"/>
</svg>
