<?xml version="1.0" encoding="utf-8"?>
<!-- Generator: Adobe Illustrator 26.2.1, SVG Export Plug-In . SVG Version: 6.00 Build 0)  -->
<svg version="1.1" id="Capa_1" xmlns="http://www.w3.org/2000/svg" xmlns:xlink="http://www.w3.org/1999/xlink" x="0px" y="0px"
	 viewBox="0 0 120 120" style="enable-background:new 0 0 120 120;" xml:space="preserve">
<style type="text/css">
	.st0{fill:#002F6C;}
	.st1{fill:#BA0C2F;}
</style>
<g>
	<g>
		<g id="Cogwheel">
			<g>
				<g>
					<path class="st0" d="M55,35.1l-4.4-0.1c-0.8-2-2-3.9-3.4-5.5l1.9-3.7c0.7-1.4,0.3-3.1-1-4.1l-0.8-0.6c-1.3-0.9-3-0.8-4.2,0.3
						l-3,2.9c-2-0.9-4.1-1.4-6.3-1.6l-1.4-4.2c-0.5-1.5-2-2.5-3.6-2.2l-1,0.2c-1.6,0.2-2.8,1.6-2.8,3.2l-0.1,4.4
						c-2,0.8-3.9,2-5.5,3.4L16,25.7c-1.4-0.7-3.1-0.3-4.1,1l-0.6,0.8c-0.9,1.3-0.8,3,0.3,4.2l2.9,3c-0.9,2-1.4,4.1-1.6,6.3l-4.2,1.4
						c-1.5,0.5-2.5,2-2.2,3.6l0.2,1c0.2,1.6,1.6,2.8,3.2,2.8l4.4,0.1c0.8,2,2,3.9,3.4,5.5l-1.9,3.7c-0.7,1.4-0.3,3.1,1,4.1l0.8,0.6
						c1.3,0.9,3,0.8,4.2-0.3l3-2.9c2,0.9,4.1,1.4,6.3,1.6l1.4,4.2c0.5,1.5,2,2.5,3.6,2.2l1-0.2c1.6-0.2,2.8-1.6,2.8-3.2l0.1-4.4
						c2-0.8,3.9-2,5.5-3.4L49,59c1.4,0.7,3.1,0.3,4.1-1l0.6-0.8c0.9-1.3,0.8-3-0.3-4.2l-2.9-3c0.9-2,1.4-4.1,1.6-6.3l4.2-1.4
						c1.5-0.5,2.5-2,2.2-3.6l-0.2-1C58,36.3,56.6,35.2,55,35.1z M33.9,52c-5.3,0.8-10.3-2.9-11.2-8.2s2.9-10.3,8.2-11.2
						c5.3-0.8,10.3,2.9,11.2,8.2C43,46.2,39.3,51.2,33.9,52z"/>
					<g>
						<path class="st0" d="M55,35.2c0,0-4.4,0-4.4,0c-0.1,0,0,0-0.1,0c-0.8-2-2-3.9-3.4-5.5c0.7-1.4,1.4-2.8,2-4.2
							c0.8-2.2-1.4-4.3-3.5-4.5c-0.7,0-1.4,0.2-2,0.6c-1.1,1-2.3,2.3-3.4,3.4c-2.1-0.9-4.4-1.5-6.7-1.6c-0.5-1.6-1.1-3.2-1.6-4.7
							c-0.3-0.6-0.8-1.1-1.4-1.4c-0.7-0.3-1.3-0.3-2.1-0.2c-1.5,0.1-2.7,1.1-2.9,2.5c0,0-0.1,4.7-0.1,4.7s0,0.3,0,0.3
							s-0.2,0.1-0.2,0.1c-2,0.8-4,1.9-5.6,3.4c0,0-0.2-0.1-0.2-0.1c-2.5-1.2-5.7-4-7.8-0.7c-2.6,3.1,1,5.2,2.9,7.4
							c-0.9,2-1.4,4.1-1.6,6.3c0,0,0,0.1,0,0.1S13,41,13,41c-2,0.9-5,0.9-6,3.1c-0.7,2,0.2,5,2.6,5.2c1.6,0,3.3,0,4.9,0
							c0,0,0.1,0.2,0.1,0.2c0.8,2,2,3.9,3.5,5.6c-0.4,0.8-1.3,2.5-1.6,3.3c-1.4,2.2-0.2,4,1.8,5c0.9,0.4,2,0.3,2.8-0.3
							c0.4-0.3,1.2-1.1,1.6-1.5c0,0,1.6-1.6,1.6-1.6s0.2-0.2,0.2-0.2l0.3,0.1c2,0.9,4.2,1.4,6.5,1.5c0.5,1.6,1.1,3.3,1.6,4.8
							c0.4,0.9,1.3,1.6,2.3,1.6c1,0,2.2-0.1,3-0.8c0.5-0.4,0.8-1.1,0.9-1.7c0.1-1.6,0.1-3.4,0.1-5c2.1-0.8,4-1.9,5.7-3.4
							c0,0,0.3-0.2,0.3-0.2l0.3,0.2c0.6,0.3,2.5,1.3,3.1,1.6c2.2,1.4,4,0.3,5-1.8c1.2-2.7-2-4.5-3.5-6.4c0.9-2,1.5-4.2,1.7-6.4
							c0,0,0.1,0,0.1,0s3.5-1.1,3.5-1.1c0.6-0.2,1.2-0.3,1.6-0.7C59.4,40.2,58.3,35.2,55,35.2L55,35.2z M55,35.1
							c3.4-0.1,4.6,5.2,2.1,7c-0.5,0.4-1.1,0.6-1.7,0.8c0,0-3.4,1.2-3.4,1.2l0.1-0.1c-0.1,2.2-0.6,4.3-1.5,6.4L50.6,50
							c1.1,1.1,2.2,2.1,3.3,3.3c1.4,1.8,0.5,4.2-1,5.6c-1.3,1.2-3.3,1.2-4.7,0.3c-0.6-0.3-2.4-1.2-3.1-1.5c0,0,0.5-0.1,0.5-0.1
							C43.9,59,42,60.2,39.9,61c0,0,0.3-0.5,0.3-0.5c-0.2,2.3,0.7,5.4-1.3,7.2c-1,0.9-2.4,1.1-3.7,1.1c-1.9-0.1-3.3-1.7-3.6-3.4
							c-0.2-0.7-0.9-2.7-1.1-3.4c0,0,0.4,0.4,0.4,0.4c-2.2-0.2-4.4-0.7-6.4-1.6l0.5-0.1c0,0-1.7,1.6-1.7,1.6L22.5,63
							c-1.4,1.7-4,2.1-5.7,0.5c-1.9-1.1-2.4-3.7-1.1-5.5c0,0,0.5-1,0.5-1l1.1-2l0,0.4c-1.4-1.7-2.6-3.6-3.4-5.6c0,0,0.3,0.2,0.3,0.2
							c-3.1-0.2-7.5,0.8-7.9-3.6c-0.4-1.6,0.4-3.5,2-4.2c1.5-0.5,3-1,4.5-1.5c0,0-0.1,0.1-0.1,0.1c0.2-2.2,0.7-4.3,1.6-6.3
							c0,0,0,0.2,0,0.2c-1.1-1.1-2.2-2.1-3.2-3.3c-1-1.3-0.8-3.3,0.3-4.4c2.3-3.6,5.6-0.9,8.3,0.4c0,0-0.3,0-0.3,0
							c1.6-1.5,3.5-2.6,5.6-3.5c0,0-0.2,0.3-0.2,0.3c0.2-2.3-0.7-5.3,1.3-7.1c2-1.6,5.7-1.6,6.8,1.1c0.6,1.6,1,3,1.5,4.5L34,22.4
							c2.2,0.2,4.4,0.7,6.4,1.6c0,0-0.4,0.1-0.4,0.1c1.1-1.1,2.2-2.1,3.4-3.2c2.1-1.6,5.1,0,6.1,2.2c0.3,0.8,0.3,1.6,0,2.4
							c-0.7,1.4-1.4,2.7-2.1,4.1c0,0,0-0.1,0-0.1c1.3,1.6,2.8,3.8,3.3,5.5C50.7,35,55,35.1,55,35.1L55,35.1z"/>
						<path class="st0" d="M34,52.1c-5.2,1-11-2.7-11.6-8.2c-0.7-5.4,3.4-10.6,8.6-11.5c5.4-1.1,11,2.9,11.7,8.4
							C43.6,46.2,39.3,51.4,34,52.1L34,52.1z M33.9,52C42,50.7,44.5,39.6,38,34.8c-3.9-3.1-10.4-2.5-13.3,1.8
							C20,43.1,25.9,53.3,33.9,52L33.9,52z"/>
					</g>
				</g>
			</g>
		</g>
	</g>
</g>
<g>
	<g>
		<path class="st1" d="M76.5,108.4l-9.3-1.6c-1.4-0.2-2.4-1.6-2.2-3.1l1-6.1c-2-0.9-3.9-2.1-5.6-3.6l-5.1,3.6
			c-1.2,0.8-2.9,0.5-3.7-0.6l-5.5-7.7c-0.4-0.6-0.6-1.3-0.5-2c0.1-0.7,0.5-1.3,1.1-1.7L52,82c-0.7-2.1-1.2-4.2-1.4-6.4l-6.4-1.1
			c-1.4-0.2-2.4-1.6-2.2-3l1.6-9.3c0.2-1.4,1.6-2.4,3-2.2l6.6,1.1c0.9-1.9,2.1-3.7,3.4-5.3l-3.9-5.5c-0.4-0.6-0.6-1.3-0.5-2
			c0.1-0.7,0.5-1.3,1.1-1.7l7.7-5.5c1.2-0.8,2.9-0.5,3.7,0.6l4,5.7c1.9-0.7,3.9-1.1,6-1.3l1.2-6.9c0.2-1.4,1.6-2.4,3-2.2l9.3,1.6
			c1.4,0.2,2.4,1.6,2.2,3l-1.2,7c1.8,0.9,3.5,1.9,5.1,3.2l5.8-4.1c1.1-0.8,2.9-0.5,3.7,0.6l5.5,7.7c0.8,1.2,0.6,2.8-0.6,3.7l-5.7,4
			c0.7,1.9,1.2,4,1.4,6l6.8,1.1c1.4,0.2,2.4,1.6,2.2,3.1l-1.6,9.3c-0.2,1.4-1.6,2.4-3.1,2.2l-6.5-1.1c-0.9,2-2,3.8-3.3,5.5l3.8,5.3
			c0.8,1.2,0.6,2.8-0.6,3.7l-7.7,5.5c-1.1,0.8-2.9,0.5-3.7-0.6L87,98.5c-2.1,0.8-4.2,1.3-6.4,1.5l-1.1,6.2
			C79.3,107.6,77.9,108.6,76.5,108.4z M60.6,91.2l0.7,0.6c1.9,1.7,4.1,3.1,6.5,4.1l0.8,0.3l-1.3,7.8c0,0.2,0.1,0.5,0.4,0.5l9.3,1.6
			c0.2,0,0.5-0.1,0.5-0.4l1.3-7.9l0.9-0.1c2.6-0.2,5.1-0.8,7.4-1.8l0.8-0.3l4.7,6.6c0.1,0.1,0.2,0.2,0.3,0.2c0.1,0,0.2,0,0.3-0.1
			l7.7-5.5c0.2-0.1,0.2-0.4,0.1-0.6l-4.8-6.7l0.5-0.7c1.6-1.9,2.9-4.1,3.9-6.4l0.3-0.8l8.3,1.4c0.2,0,0.5-0.1,0.5-0.4l1.6-9.3
			c0-0.2-0.1-0.5-0.4-0.5l-8.4-1.4l-0.1-0.8c-0.2-2.4-0.8-4.8-1.7-7l-0.3-0.8l7.1-5c0.2-0.1,0.2-0.4,0.1-0.6l-5.5-7.7
			c-0.1-0.1-0.2-0.2-0.3-0.2c-0.1,0-0.2,0-0.3,0.1l-7.1,5.1l-0.7-0.6c-1.8-1.5-3.9-2.8-6-3.8L86.8,50l1.5-8.6c0-0.2-0.1-0.5-0.4-0.5
			l-9.3-1.6c-0.2,0-0.5,0.1-0.5,0.4l-1.5,8.6l-0.9,0.1c-2.4,0.2-4.7,0.7-7,1.5L68,50.1l-5-7.1c-0.1-0.1-0.2-0.2-0.3-0.2
			c-0.1,0-0.2,0-0.3,0.1l-7.7,5.5c-0.1,0.1-0.2,0.2-0.2,0.3c0,0.1,0,0.2,0.1,0.3l4.9,6.9L59,56.6c-1.6,1.9-3,3.9-4,6.2l-0.4,0.8
			l-8.2-1.4c-0.2,0-0.5,0.1-0.5,0.4l-1.6,9.3c0,0.2,0.1,0.5,0.4,0.5l8.1,1.4l0.1,0.9c0.1,2.5,0.7,5,1.6,7.4l0.3,0.8l-6.6,4.7
			c-0.1,0.1-0.2,0.2-0.2,0.3c0,0.1,0,0.2,0.1,0.3l5.5,7.7c0.1,0.1,0.2,0.2,0.3,0.2c0.1,0,0.2,0,0.3-0.1L60.6,91.2z M75.1,88.7
			c-8.8-1.5-14.8-9.9-13.3-18.7c1.5-8.8,9.9-14.8,18.7-13.3c8.8,1.5,14.8,9.9,13.3,18.7C92.3,84.2,83.9,90.2,75.1,88.7z M80.1,58.9
			c-7.6-1.3-14.8,3.8-16.1,11.5c-1.3,7.6,3.8,14.8,11.5,16.1c7.6,1.3,14.8-3.8,16.1-11.5C92.9,67.5,87.7,60.2,80.1,58.9z"/>
	</g>
</g>
</svg>
