<?xml version="1.0" encoding="utf-8"?>
<!-- Generator: Adobe Illustrator 26.2.1, SVG Export Plug-In . SVG Version: 6.00 Build 0)  -->
<svg version="1.1" id="Layer_1" xmlns="http://www.w3.org/2000/svg" xmlns:xlink="http://www.w3.org/1999/xlink" x="0px" y="0px"
	 viewBox="0 0 50 50" style="enable-background:new 0 0 50 50;" xml:space="preserve">
<style type="text/css">
	.st0{fill:#A7C6ED;}
	.st1{fill:#002F6C;}
	.st2{fill:#FFFFFF;}
</style>
<g>
	<circle class="st0" cx="25" cy="25" r="22.9"/>
	<path class="st1" d="M2.1,25C1.9,8.6,18.6-3.1,33.9,3.6c18.8,8.2,19.2,34.9,0.1,43C18.6,53.1,1.9,41.5,2.1,25L2.1,25z M2.2,25
		c0.2,19.9,24.6,29.7,38.7,15.8c8.7-8.3,9.1-23.5,0.2-31.9C27-4.9,2.3,5.2,2.2,25L2.2,25z"/>
</g>
<g>
	<circle class="st2" cx="20.8" cy="18.6" r="8.8"/>
	<path class="st1" d="M12,18.6c-0.1-4.8,3.9-9.5,8.8-9.2c7.8,0.2,12.1,10.2,6.5,15.7C21.5,31.1,11.8,26.8,12,18.6L12,18.6z
		 M12.1,18.6c0,7.3,9.6,11,14.6,5.9c5.5-5.3,1.9-14.6-5.9-14.2C16.3,10.3,12,14,12.1,18.6L12.1,18.6z"/>
</g>
<g>
	
		<rect x="31.8" y="22.4" transform="matrix(0.7071 -0.7071 0.7071 0.7071 -12.2327 32.3984)" class="st1" width="2.4" height="17.2"/>
	<path class="st1" d="M26,25.8c0.5-0.6,1.1-1.4,1.8-2.1c4.5,3.7,8,8.5,12.3,12.3c0,0,0.2,0.2,0.2,0.2c-0.6,0.7-1.2,1.4-1.8,2
		c0,0-0.3,0.3-0.3,0.3l-0.3-0.3C33.7,34.3,29.7,30.1,26,25.8L26,25.8z M26.1,25.8c4.3,3.7,8.6,7.7,12.4,11.9c0,0-0.6,0-0.6,0
		c0.6-0.6,1.2-1.1,1.8-1.6c0,0,0,0.4,0,0.4C36,32,31.3,28.7,27.6,24.2c0,0,0.4,0,0.4,0C27.4,24.7,26.8,25.2,26.1,25.8L26.1,25.8z"/>
</g>
<g>
	<polygon class="st1" points="25.1,18.1 21.3,18.1 21.3,14.3 20.2,14.3 20.2,18.1 16.4,18.1 16.4,19.2 20.2,19.2 20.2,23 21.3,23 
		21.3,19.2 25.1,19.2 	"/>
	<path class="st1" d="M25.1,18.1c-1.5,0.1-2.8,0.3-4.1,0.3c-0.1-1.4-0.1-2.8-0.1-4.2c0,0,0.4,0.4,0.4,0.4c-0.4,0-0.7,0-1.1,0
		l0.4-0.4c-0.1,1.3-0.2,2.7-0.2,4c-1.3-0.1-2.6,0-4,0c0,0,0.2-0.2,0.2-0.2l0.1,1.1l-0.3-0.3c1.4-0.1,2.8-0.2,4.2-0.2
		c0,1.4,0.1,2.8,0.1,4.3c0,0-0.5-0.5-0.5-0.5s1.1,0,1.1,0S20.8,23,20.8,23c0-1.4,0.1-2.8,0.1-4.2c1.4,0,2.8,0.1,4.2,0.3
		c0,0-0.2,0.2-0.2,0.2S25.1,18.1,25.1,18.1L25.1,18.1z M25.2,18.1c0,0.4,0.1,0.8,0.1,1.3c0,0-0.2,0-0.2,0c-1.3,0.1-2.5,0.2-3.8,0.3
		c0,0,0.4-0.4,0.4-0.4c0.1,1.4,0.1,2.9,0.1,4.3c-0.3,0-1.3,0-1.6,0c0,0-0.5,0-0.5,0s0-0.5,0-0.5c0-1.3,0.1-2.5,0.1-3.8l0.5,0.5
		c-1.4,0-2.7-0.1-4.1-0.2c0,0,0-0.3,0-0.3c0-0.2,0.1-1.2,0.1-1.3c1.3,0.1,2.7,0.1,4,0c0,0-0.2,0.2-0.2,0.2c-0.1-1.4-0.2-2.8-0.3-4.2
		c0.6,0,1.3-0.1,2,0c0,1.4,0,2.8-0.1,4.2c0,0-0.4-0.4-0.4-0.4C22.7,17.8,24,17.9,25.2,18.1L25.2,18.1z"/>
</g>
</svg>
