<?xml version="1.0" encoding="utf-8"?>
<!-- Generator: Adobe Illustrator 26.2.1, SVG Export Plug-In . SVG Version: 6.00 Build 0)  -->
<svg version="1.1" id="Capa_1" xmlns="http://www.w3.org/2000/svg" xmlns:xlink="http://www.w3.org/1999/xlink" x="0px" y="0px"
	 viewBox="0 0 50 50" style="enable-background:new 0 0 50 50;" xml:space="preserve">
<style type="text/css">
	.st0{fill:#A7C6ED;}
	.st1{fill:#205493;}
	.st2{fill-rule:evenodd;clip-rule:evenodd;fill:#205493;}
	.st3{fill:#FFFFFF;}
</style>
<g>
	<circle class="st0" cx="25.32" cy="24.74" r="22.68"/>
	<path class="st1" d="M2.58,24.74C2.43,8.46,18.98-3.11,34.1,3.53C52.7,11.7,53.12,38.1,34.2,46.18
		C19.01,52.57,2.42,41.07,2.58,24.74L2.58,24.74z M2.68,24.74c0.18,19.7,24.38,29.48,38.34,15.71c8.67-8.27,9-23.27,0.21-31.62
		C27.27-4.91,2.78,5.08,2.68,24.74L2.68,24.74z"/>
</g>
<g>
	<path class="st2" d="M42.88,17.38c0,3.17-2.38,5.76-5.4,5.98l-2.96,3.05c0.83,1.45,1.2,3.36,1.39,5.5c0.19,2.17,0.19,4.7,0.19,7.42
		v1.03h-1.94v-1c0-2.76,0-5.21-0.18-7.28c-0.16-1.81-0.44-3.23-0.91-4.25c-1.16-0.16-2.22-0.76-3.13-1.5
		c-1.07-0.87-2.02-2.01-2.81-3.11c-0.79-1.11-1.43-2.2-1.87-3.02c-0.06-0.11-0.12-0.22-0.17-0.32c-1.3,0.93-3.06,1.5-4.99,1.5
		c-4.02,0-7.27-2.46-7.27-5.5c0-2.79,2.75-5.1,6.32-5.45c1.24-2.35,4.67-4.04,8.71-4.04c4.56,0,8.35,2.16,9.08,5
		c0.04,0,0.08,0,0.13,0C40.28,11.39,42.88,14.07,42.88,17.38z M31.27,17.95c-1.06,0.28-2.21,0.43-3.42,0.43
		c-0.42,0-0.84-0.02-1.24-0.05c-0.02,0.04-0.05,0.07-0.07,0.11c0.1,0.21,0.24,0.48,0.41,0.79c0.42,0.77,1.02,1.8,1.74,2.82
		c0.04,0.05,0.07,0.1,0.11,0.15l0-0.15c1.07,0,2.2-0.6,3.13-1.31c0.07-0.05,0.14-0.11,0.21-0.16C31.67,19.8,31.36,18.91,31.27,17.95
		z M33.43,22.07c0.49,0.4,1.04,0.73,1.64,0.95l-2.54,2.62c-0.45-0.19-0.92-0.48-1.4-0.87c-0.33-0.27-0.66-0.58-0.97-0.91
		c1.15-0.31,2.16-0.94,2.91-1.51C33.2,22.25,33.32,22.16,33.43,22.07z"/>
	<g>
		<path class="st1" d="M42.93,17.38c0.18,3.05-2.77,6.13-5.32,6.11c0,0-2.87,3.13-2.87,3.13l0.05-0.36
			c2.34,4.44,1.59,9.71,1.72,14.53c-0.22,0-2.08-0.04-2.35-0.04c0,0-0.38-0.01-0.38-0.01s0.01-0.37,0.01-0.37
			c0.1-3.96,0.32-9.06-0.74-12.37c-4.02-0.82-6.16-4.8-8.18-8c0,0,0.38,0.09,0.38,0.09c-3.45,2.46-8.8,2.24-11.69-1.06
			c-3.43-4.2,1.05-8.92,5.54-9.13c0,0-0.41,0.28-0.41,0.28c3.08-4.84,10.2-5.26,14.94-2.88c1.59,0.84,3.07,2.2,3.52,4.03
			c0,0-0.21-0.16-0.21-0.16C40.22,11.15,43.04,14.13,42.93,17.38L42.93,17.38z M42.83,17.38c0.05-3.14-2.72-6.02-5.89-5.79
			c0,0-0.16,0.01-0.16,0.01s-0.05-0.16-0.05-0.16C34.78,6.56,27.7,6.1,23.37,7.69c-1.65,0.63-3.16,1.7-3.9,3.23
			c0,0-0.28,0.03-0.28,0.03c-7.89,0.93-7.7,9.13,0.11,10.01c2.04,0.22,4.2-0.24,5.88-1.46c1.44,2.57,2.9,5.3,5.33,7.07
			c0.79,0.58,1.7,1.01,2.66,1.11c1.58,4,1.14,8.47,1.36,12.68c0,0-0.38-0.38-0.38-0.38s1.94-0.04,1.94-0.04l-0.41,0.41
			c-0.21-4.59,0.49-9.52-1.42-13.81c0,0-0.11-0.21-0.11-0.21l0.16-0.15l3.04-2.97c0,0,0.05-0.05,0.05-0.05
			C40.41,23.15,42.87,20.35,42.83,17.38L42.83,17.38z"/>
		<path class="st1" d="M31.24,18c-1.34,0.83-3.13,1-4.66,0.65c0,0,0.29-0.14,0.29-0.14l-0.09,0.1l0.02-0.3
			c0.38,1.43,1.45,2.51,2.34,3.63c0,0-0.77,0.25-0.77,0.25s-0.01-0.15-0.01-0.15l-0.03-0.4c1.3,0.01,2.44-0.73,3.51-1.43
			c0,0-0.11,0.61-0.11,0.61C31.32,19.97,31.04,18.91,31.24,18L31.24,18z M31.3,17.91c0.36,1.01,0.81,1.89,1.46,2.72
			c-0.58,0.56-1.19,1.08-1.95,1.42c-0.61,0.27-1.3,0.46-2.01,0.42l0.44-0.44c0,0.04-0.1,1.41-0.11,1.49c0,0-0.68-1.09-0.68-1.09
			c-0.67-1.37-1.27-2.78-2.25-3.97c0.06-0.12,0.14-0.31,0.2-0.43c0,0,0.24-0.02,0.24-0.02C28.18,17.87,29.74,17.91,31.3,17.91
			L31.3,17.91z"/>
		<path class="st1" d="M33.43,22.02c0.74,0.27,1.65,0.59,2.41,0.77c0,0-0.46,0.52-0.46,0.52c-0.74,1-1.98,1.44-2.71,2.45
			c-0.09,0.12-0.06,0.07-0.2,0.04c-1.34-0.29-2.35-1.33-3.37-2.17C30.54,23.24,32.04,22.59,33.43,22.02L33.43,22.02z M33.43,22.12
			c-0.71,1.12-1.83,1.92-3.13,2.25c0,0,0.25-0.87,0.25-0.87c0.66,0.67,1.25,1.47,2.06,1.97c0,0-0.2,0.04-0.2,0.04
			c0.99-0.76,1.39-2.01,2.37-2.78c0,0,0.16,0.69,0.16,0.69C34.35,23.13,33.71,22.7,33.43,22.12L33.43,22.12z"/>
	</g>
</g>
<g>
	<path class="st3" d="M20.05,28.02c1.12,0,2.02-0.94,2.02-2.09c0-1.15-0.91-2.08-2.02-2.08c-1.12,0-2.02,0.94-2.02,2.09
		C18.03,27.09,18.94,28.02,20.05,28.02z"/>
	<path class="st1" d="M20.05,27.97c1.08,0,1.46-1.18,1.6-2.04c0.07-0.42,0.05-0.96-0.28-1.35c-0.32-0.39-0.86-0.55-1.32-0.46
		C18.05,24.46,18.08,27.79,20.05,27.97L20.05,27.97z M20.05,28.07c-3.54,0.15-3.25-4.73,0-4.49C23,24.12,23.54,28.07,20.05,28.07
		L20.05,28.07z"/>
</g>
<g>
	<path class="st3" d="M14.39,31.36c1.12,0,2.02-0.94,2.02-2.09c0-1.15-0.91-2.08-2.02-2.08c-1.12,0-2.02,0.94-2.02,2.09
		C12.37,30.42,13.27,31.36,14.39,31.36z"/>
	<path class="st1" d="M14.39,31.31c1.08,0,1.46-1.18,1.6-2.04c0.07-0.42,0.05-0.96-0.28-1.35c-0.32-0.39-0.86-0.55-1.32-0.46
		C12.39,27.8,12.42,31.12,14.39,31.31L14.39,31.31z M14.39,31.41c-3.54,0.15-3.25-4.73,0-4.49C17.34,27.45,17.88,31.41,14.39,31.41
		L14.39,31.41z"/>
</g>
<g>
	<path class="st3" d="M30.17,29.27c0,1.15-0.9,2.09-2.02,2.09c-1.12,0-2.02-0.93-2.02-2.08c0-1.15,0.9-2.09,2.02-2.09
		S30.16,28.12,30.17,29.27z"/>
	<path class="st1" d="M30.22,29.27c0.05,3.57-3.84,3.05-4.37,0C25.57,25.97,30.41,25.62,30.22,29.27L30.22,29.27z M30.12,29.27
		c-0.19-2-3.35-2.12-3.72,0c-0.23,1.05,0.76,1.91,1.75,1.67C28.99,30.8,30.12,30.33,30.12,29.27L30.12,29.27z"/>
</g>
<g>
	<path class="st3" d="M19.65,28.85c0.89,0,1.62,0.75,1.62,1.67v1.67h1.62c0.89,0,1.62,0.75,1.62,1.67c0,0.92-0.72,1.67-1.62,1.67
		h-3.24c-0.89,0-1.62-0.75-1.62-1.67v-3.34C18.03,29.6,18.75,28.85,19.65,28.85z"/>
	<path class="st1" d="M19.65,28.8c0.73,0,1.46,0.46,1.77,1.21c0.23,0.69,0.25,1.46,0.29,2.18c0,0-0.44-0.44-0.44-0.44
		c0.61-0.02,1.14-0.01,1.76,0.06c1.19,0.14,1.89,1.5,1.57,2.51c-0.46,1.83-2.73,1.48-4.19,1.65c-1.5,0.25-2.97-0.54-2.91-2.24
		c0,0,0.03-1.16,0.03-1.16C17.59,31.11,17.68,28.79,19.65,28.8L19.65,28.8z M19.65,28.9c-2.05,0.21-1.08,2.31-1.12,3.67
		c0.06,0.5-0.08,1.55,0.23,1.95c0.37,0.6,0.93,0.53,1.64,0.56c1.29-0.1,3.4,0.91,3.89-0.84c0.19-0.7-0.29-1.43-0.88-1.6
		c-0.57-0.14-1.79,0.08-2.6-0.04c-0.03-0.8,0.18-1.72,0.18-2.48C20.94,29.46,20.33,28.89,19.65,28.9L19.65,28.9z"/>
</g>
<g>
	<path class="st3" d="M15.6,33.86c0-0.92-0.72-1.67-1.62-1.67c-0.89,0-1.62,0.75-1.62,1.67v4.17c0,0.92,0.72,1.67,1.62,1.67h3.24
		c0.89,0,1.62-0.75,1.62-1.67c0-0.92-0.72-1.67-1.62-1.67H15.6V33.86z"/>
	<path class="st1" d="M15.55,33.86c-0.01-1.72-2.4-1.93-2.71-0.27c-0.05,1.11-0.14,2.22-0.25,3.33c-0.07,0.84-0.23,1.87,0.61,2.35
		c0.56,0.37,1.9,0.03,2.58,0.03c0.73-0.12,1.7,0.16,2.23-0.45c0.54-0.61,0.3-1.69-0.49-1.96c-0.67-0.15-1.51-0.19-2.21-0.3
		C15.45,35.68,15.55,34.76,15.55,33.86L15.55,33.86z M15.65,33.86c0,0.83,0.09,1.67,0.21,2.5L15.6,36.1
		c0.99-0.09,2.12-0.49,2.98,0.25c0.97,0.75,1.06,2.35,0.17,3.19c-0.79,0.85-1.96,0.59-2.97,0.55c-0.83-0.13-2.09,0.03-2.79-0.53
		c-0.89-0.6-0.77-1.74-0.85-2.65c-0.07-1.17-0.33-2.35-0.18-3.52C12.54,31.13,15.67,31.69,15.65,33.86L15.65,33.86z"/>
</g>
<g>
	<path class="st3" d="M28.55,32.19c-0.89,0-1.62,0.75-1.62,1.67v2.5h-1.62c-0.89,0-1.62,0.75-1.62,1.67c0,0.92,0.72,1.67,1.62,1.67
		h3.24c0.89,0,1.62-0.75,1.62-1.67v-4.17C30.16,32.94,29.44,32.19,28.55,32.19z"/>
	<path class="st1" d="M28.55,32.24c-0.83-0.02-1.5,0.8-1.37,1.58c0.13,0.98,0.22,1.99,0.19,2.98c-0.54,0-1.11,0-1.65-0.04
		c-0.44-0.04-0.71-0.09-1.03,0.05c-0.64,0.23-1.03,1.09-0.73,1.78c0.31,0.77,1.05,0.96,1.83,0.82c0.81-0.07,1.61-0.14,2.42-0.17
		c0.74,0.03,1.18-0.24,1.38-0.87c0.1-0.6,0.03-1.63,0.09-2.26C29.62,34.74,30.67,32.44,28.55,32.24L28.55,32.24z M28.55,32.14
		c2.48,0.08,1.99,3.46,2.15,5.18c0.23,3.42-2.51,2.88-4.91,2.66c-2.03,0.17-3.14-2.41-1.38-3.68c0.82-0.49,1.66-0.33,2.53-0.39
		c0,0-0.45,0.45-0.45,0.45C26.52,34.8,26.43,32.15,28.55,32.14L28.55,32.14z"/>
</g>
</svg>
