<?xml version="1.0" encoding="utf-8"?>
<!-- Generator: Adobe Illustrator 26.3.1, SVG Export Plug-In . SVG Version: 6.00 Build 0)  -->
<svg version="1.1" id="Layer_1" xmlns="http://www.w3.org/2000/svg" xmlns:xlink="http://www.w3.org/1999/xlink" x="0px" y="0px"
	 viewBox="0 0 140 140" style="enable-background:new 0 0 140 140;" xml:space="preserve">
<style type="text/css">
	.st0{fill:#205492;}
	.st1{fill:#FFFFFF;}
	.st2{fill:#E63164;}
	.st3{fill:#3CAF37;}
	.st4{fill:#3F67AD;}
	.st5{fill:#002F6C;}
	.st6{fill:#23751C;}
	.st7{fill:#A6C5EC;}
</style>
<g>
	<g>
		<g>
			<circle class="st0" cx="70" cy="70" r="64"/>
		</g>
	</g>
</g>
<g>
	<g>
		<g>
			<path class="st1" d="M134,70c0,15.6-5.6,29.8-14.8,40.9l-97.1,1.6c-6.5-7.3-11.3-16.1-14-25.8c0.9-1,2.1-1.9,4.1-2.9
				c6.7-3.3,8.5,0.3,15.2-3c6.7-3.3,4.9-6.9,11.7-10.2c6.7-3.3,8.5,0.3,15.2-3c6.7-3.3,5-6.9,11.7-10.2s8.5,0.3,15.2-3
				s4.9-6.9,11.7-10.2s8.5,0.3,15.2-3c6.7-3.3,4.9-6.9,11.7-10.2c0.3-0.1,0.6-0.3,0.8-0.4C129,41.5,134,55.2,134,70z"/>
		</g>
	</g>
</g>
<g>
	<g>
		<g>
			<path class="st2" d="M134,71c-0.5,34.9-29,63-64,63c-26.2,0-48.8-15.8-58.7-38.4c9-0.4,42.2-3,69-17.3C99.8,68,120.9,68.8,134,71
				z"/>
		</g>
	</g>
</g>
<g>
	<g>
		<g>
			<g>
				<g>
					<g>
						<g>
							<g>
								<g>
									<g>
										<path class="st3" d="M112.6,55.2c-0.8,3.8-2.9,7-3.8,10.4c-1,3.8-0.8,7.9-1.9,11.1c-1.4,3.9-3.9,6.5-5.3,9.2
											c-2.3,4.5-2,16.7-3.8,16.3s-4.1-13-4.5-18c-0.2-3-1.6-6.3-1.3-10.5c0.2-3.4,2-7.1,2.5-10.9c0.5-3.5-0.2-7.3,0.5-11.1
											c0.8-3.8,2.9-7,3.8-10.4c1-3.8,0.8-7.9,1.9-11.1c1.4-3.9,3.9-6.5,5.3-9.2c2.3-4.5,4.2-8.4,6-8c1.8,0.4,2,4.7,2.4,9.7
											c0.2,3,1.6,6.4,1.3,10.5c-0.2,3.4-2,7.1-2.5,10.9C112.6,47.6,113.4,51.5,112.6,55.2z"/>
									</g>
								</g>
							</g>
						</g>
					</g>
				</g>
			</g>
		</g>
	</g>
	<g>
		<g>
			<g>
				<g>
					<g>
						<g>
							<g>
								<g>
									<g>
										<path class="st3" d="M125.5,77.8c-1.4,2.6-4.4,4.1-5.9,6.3c-1.7,2.5-2,5.7-3.8,7.7c-2.1,2.4-5.5,3.2-7.5,4.6
											c-3.3,2.4-6.1,4.6-8.1,3.4s-1.7-4.6-1.4-8.7c0.1-2.4-1-5.7-0.1-8.8c0.7-2.5,3.3-4.5,4.5-7.3c1.1-2.5,0.7-5.8,2.1-8.4
											c1.4-2.6,4.4-4.1,5.9-6.3c1.7-2.5,2-5.7,3.8-7.7c2.1-2.4,5.5-3.2,7.5-4.6c3.3-2.4,6.1-4.5,8.1-3.4c2,1.1,1.7,4.6,1.4,8.7
											c-0.1,2.4,1,5.7,0.1,8.8c-0.7,2.5-3.3,4.5-4.5,7.3C126.6,71.9,126.9,75.2,125.5,77.8z"/>
									</g>
								</g>
							</g>
						</g>
					</g>
				</g>
			</g>
		</g>
	</g>
</g>
<g>
	<g>
		<g>
			<g>
				<g>
					<g>
						<g>
							<g>
								<g>
									<g>
										<path class="st3" d="M33.4,63.8c0.6,3.1,2.8,5.7,3.6,8.5c0.9,3.1,0.4,6.6,1.5,9.1c1.3,3.2,4,5.2,5.4,7.4
											c2.3,3.6,1.3,13.8,3.3,13.4c2-0.4,5.3-11.1,6.1-15.3c0.4-2.5,2.1-5.4,2.1-8.9c0-2.8-1.8-5.8-2.2-9
											c-0.3-2.9,0.7-6.1,0.1-9.2c-0.6-3.1-2.8-5.7-3.6-8.5c-0.9-3.1-0.4-6.5-1.5-9.1c-1.3-3.2-4-5.2-5.4-7.4
											c-2.3-3.6-4.2-6.8-6.2-6.4s-2.5,4.1-3.2,8.3c-0.4,2.5-2.1,5.4-2.1,8.9c0,2.8,1.8,5.8,2.2,9C33.8,57.5,32.8,60.7,33.4,63.8
											z"/>
									</g>
								</g>
							</g>
						</g>
					</g>
				</g>
			</g>
		</g>
	</g>
	<g>
		<g>
			<g>
				<g>
					<g>
						<g>
							<g>
								<g>
									<g>
										<path class="st3" d="M22,80.4c0.5,2.4,2.5,4.3,3.1,6.4c0.7,2.4,0.2,5,1.1,7c1.1,2.4,3.6,3.8,4.8,5.4
											c2,2.7,3.7,5.1,5.6,4.7c1.9-0.4,2.4-3.2,3.2-6.5c0.5-2,2.2-4.2,2.2-6.9c0-2.2-1.5-4.4-1.8-6.8c-0.2-2.2,0.8-4.7,0.3-7.1
											s-2.5-4.3-3.1-6.4c-0.7-2.4-0.2-5-1.1-7c-1.1-2.4-3.6-3.8-4.8-5.4c-2-2.7-3.7-5.1-5.6-4.7c-1.9,0.4-2.4,3.2-3.2,6.5
											c-0.5,2-2.2,4.2-2.2,6.9c0,2.2,1.5,4.4,1.8,6.8C22.6,75.5,21.5,78,22,80.4z"/>
									</g>
								</g>
							</g>
						</g>
					</g>
				</g>
			</g>
		</g>
	</g>
</g>
<g>
	<g>
		<g>
			<path class="st4" d="M124.6,103.3C113.4,121.7,93.1,134,70,134s-43.4-12.3-54.6-30.7H124.6z"/>
		</g>
	</g>
</g>
<g>
	<g>
		<g>
			<g>
				<polygon class="st5" points="112.4,103.3 104.3,52.7 95.3,103.3 				"/>
			</g>
		</g>
	</g>
	<g>
		<g>
			<g>
				<polygon class="st1" points="104.3,52.7 45.8,53.5 36.2,103.3 95.3,103.3 95.3,103.1 				"/>
			</g>
		</g>
	</g>
</g>
<g>
	<g>
		<g>
			<polygon class="st3" points="56.3,74.3 49.4,74.4 50.5,68.5 57.4,68.4 			"/>
		</g>
	</g>
</g>
<g>
	<g>
		<g>
			<polygon class="st3" points="68.2,74.1 61.3,74.2 62.4,68.3 69.2,68.2 			"/>
		</g>
	</g>
</g>
<g>
	<g>
		<g>
			<polygon class="st3" points="80,73.9 73.1,74 74.2,68.2 81.1,68.1 			"/>
		</g>
	</g>
</g>
<g>
	<g>
		<g>
			<polygon class="st3" points="91.9,73.8 85,73.9 86.1,68 92.9,67.9 			"/>
		</g>
	</g>
</g>
<g>
	<g>
		<g>
			<polygon class="st3" points="54.5,84.3 47.6,84.4 48.7,78.5 55.5,78.4 			"/>
		</g>
	</g>
</g>
<g>
	<g>
		<g>
			<polygon class="st3" points="66.3,84.1 59.5,84.2 60.5,78.3 67.4,78.3 			"/>
		</g>
	</g>
</g>
<g>
	<g>
		<g>
			<polygon class="st6" points="78.2,84 71.3,84.1 72.4,78.2 79.3,78.1 			"/>
		</g>
	</g>
</g>
<g>
	<g>
		<g>
			<polygon class="st3" points="90,83.8 83.2,83.9 84.2,78 91.1,77.9 			"/>
		</g>
	</g>
</g>
<g>
	<g>
		<g>
			<polygon class="st3" points="52.7,94.3 45.8,94.4 46.9,88.5 53.7,88.4 			"/>
		</g>
	</g>
</g>
<g>
	<g>
		<g>
			<polygon class="st3" points="64.5,94.2 57.6,94.3 58.7,88.4 65.6,88.3 			"/>
		</g>
	</g>
</g>
<g>
	<g>
		<g>
			<polygon class="st3" points="76.4,94 69.5,94.1 70.6,88.2 77.4,88.1 			"/>
		</g>
	</g>
</g>
<g>
	<g>
		<g>
			<polygon class="st3" points="88.2,93.8 81.4,93.9 82.4,88 89.3,87.9 			"/>
		</g>
	</g>
</g>
<g>
	<g>
		<g>
			<polygon class="st7" points="45.8,53.5 104.3,52.7 102.9,60.5 44.3,61.4 			"/>
		</g>
	</g>
</g>
</svg>
