<?xml version="1.0" encoding="utf-8"?>
<!-- Generator: Adobe Illustrator 26.3.1, SVG Export Plug-In . SVG Version: 6.00 Build 0)  -->
<svg version="1.1" id="Capa_1" xmlns="http://www.w3.org/2000/svg" xmlns:xlink="http://www.w3.org/1999/xlink" x="0px" y="0px"
	 viewBox="0 0 80 80" style="enable-background:new 0 0 80 80;" xml:space="preserve">
<style type="text/css">
	.st0{fill:#A6C5EC;}
	.st1{fill:#E63164;}
	.st2{fill-rule:evenodd;clip-rule:evenodd;fill:#E63164;}
	.st3{fill:#FFFFFF;}
	.st4{fill:#205492;}
	.st5{fill:#3F67AD;}
</style>
<g>
	<circle class="st0" cx="40" cy="39.5" r="34.6"/>
	<g>
		<path class="st1" d="M5.3,39.5C5.5,7.7,42-7.9,64.7,14.8c17.6,17.8,12.2,47.8-11.1,57.6C30.1,82.2,5.2,64.6,5.3,39.5L5.3,39.5z
			 M5.5,39.5C5.8,69.3,42.7,84,63.8,63.3c21.5-21.5,7-58-23.8-57.6C21.9,5.7,5.3,21,5.5,39.5L5.5,39.5z"/>
	</g>
</g>
<g>
	<g id="Legs">
		<g>
			<g>
				<path class="st2" d="M45.2,42.1v6.2v4.1l3.1,3.1l2.1,8.3l3.1-1V48.3L45.2,42.1z M34.8,42.1l-8.3,6.2v14.5l3.1,1l2.1-8.3l3.1-3.1
					v-4.1V42.1z"/>
				<g>
					<path class="st3" d="M45.2,42.1c0.1,3.6,0.3,6.8,0.3,10.3c0,0-0.1-0.2-0.1-0.2l3.2,3c0.1,0.1,0.1,0.1,0.1,0.2
						c0,0,2.1,8.3,2.1,8.3s-0.6-0.3-0.6-0.3c1-0.3,2.1-0.7,3.1-1l-0.3,0.5c0-4.3,0-10.3,0.2-14.5c0,0,0.1,0.3,0.1,0.3
						C50.5,46.4,47.9,44.2,45.2,42.1L45.2,42.1z M45.2,42.1c2.8,2,5.8,4,8.6,6c0.1,4.3,0.1,10.3,0.2,14.6c0,0,0,0.4,0,0.4
						c-1.3,0.5-2.6,0.9-3.9,1.3c0,0-0.1-0.5-0.1-0.5l-2-8.3c0,0,0.1,0.2,0.1,0.2l-3-3.2l-0.1-0.1l0-0.1C44.9,49,45.1,45.4,45.2,42.1
						L45.2,42.1z"/>
					<path class="st3" d="M34.8,42.1c-2.8,2.2-5.4,4.4-8.1,6.5c0,0,0.1-0.3,0.1-0.3c0.1,4.2,0.1,10.2,0.2,14.5c0,0-0.3-0.5-0.3-0.5
						c1,0.3,2.1,0.7,3.1,1c0,0-0.6,0.3-0.6,0.3l2.1-8.3c0-0.1,0-0.1,0.1-0.2c0,0,3.2-3,3.2-3s-0.1,0.2-0.1,0.2
						C34.5,48.9,34.7,45.6,34.8,42.1L34.8,42.1z M34.8,42.1c0.1,3.3,0.3,7,0.3,10.3c0,0.2,0,0.1-0.1,0.2c0,0-3,3.2-3,3.2
						s0.1-0.2,0.1-0.2l-2,8.3L30,64.4c-1.3-0.4-2.6-0.8-3.9-1.3c0,0,0-0.3,0-0.3c0-4.3,0-10.4,0.2-14.6C29.1,46,32,44.1,34.8,42.1
						L34.8,42.1z"/>
				</g>
			</g>
		</g>
	</g>
	<g id="Body_2_">
		<g>
			<path class="st4" d="M37.9,12.1c-3,3.5-8.3,9.4-8.3,22.7c0,9.8,2.8,21.2,5.5,27.9h9.7c2.7-6.7,5.5-18.1,5.5-27.9
				c0-13.2-5.3-19.2-8.3-22.7C40.7,10.5,39.2,10.6,37.9,12.1z"/>
		</g>
	</g>
	<g id="Body_3_">
		<g>
			<g>
				<path class="st5" d="M37.9,12.1c-3,3.5-8.3,9.4-8.3,22.7c0,8,1.9,17,4,23.8h12.7c2.1-6.7,4-15.7,4-23.8
					c0-13.2-5.3-19.2-8.3-22.7C40.7,10.5,39.2,10.6,37.9,12.1z"/>
				<path class="st3" d="M37.9,12.1C26,24.5,29.6,43.5,34.1,58.5c0,0-0.4-0.3-0.4-0.3c4.2,0,8.4-0.1,12.7,0c0,0-0.5,0.3-0.5,0.3
					C48.5,50,50.3,41,50,32.1c-0.2-6.7-2.4-13.4-6.8-18.6C41.7,11.6,40.2,9.7,37.9,12.1L37.9,12.1z M37.9,12.1
					c2.2-2.4,3.8-0.5,5.4,1.4c4.4,5.2,6.7,11.8,7.2,18.6c0.6,9-1,18.1-3.7,26.7c0,0-0.1,0.3-0.1,0.3l-0.4,0c-4.2,0-8.4,0-12.7,0
					c0,0-0.3,0-0.3,0l-0.1-0.3C28.8,43.6,26,24.5,37.9,12.1L37.9,12.1z"/>
			</g>
		</g>
	</g>
	<g id="Glass">
		<g>
			<g>
				<circle class="st1" cx="40" cy="26.5" r="5.8"/>
				<path class="st1" d="M35.8,22.4c3.9-4,10.4-1.6,10.2,4.2c0,5.5-6.6,8.5-10.5,4.5C33,28.7,33.5,24.6,35.8,22.4L35.8,22.4z
					 M35.9,22.4c-4.6,5.3,2.7,12.7,8,8C49.4,25.4,41,17.7,35.9,22.4L35.9,22.4z"/>
			</g>
		</g>
	</g>
	<g id="Glass_1_">
		<g>
			<circle class="st3" cx="40" cy="26.5" r="2.9"/>
		</g>
	</g>
</g>
</svg>
