<?xml version="1.0" encoding="utf-8"?>
<!-- Generator: Adobe Illustrator 26.3.1, SVG Export Plug-In . SVG Version: 6.00 Build 0)  -->
<svg version="1.1" id="Capa_1" xmlns="http://www.w3.org/2000/svg" xmlns:xlink="http://www.w3.org/1999/xlink" x="0px" y="0px"
	 viewBox="0 0 80 80" style="enable-background:new 0 0 80 80;" xml:space="preserve">
<style type="text/css">
	.st0{fill:#A6C5EC;}
	.st1{fill:#E63164;}
	.st2{fill:#002F6C;}
	.st3{fill:#FFFFFF;}
</style>
<g>
	<circle class="st0" cx="40" cy="39.5" r="34.6"/>
	<g>
		<path class="st1" d="M5.3,39.5C5.5,7.7,42-7.9,64.7,14.8c17.6,17.8,12.2,47.8-11.1,57.6C30.1,82.2,5.2,64.6,5.3,39.5L5.3,39.5z
			 M5.5,39.5C5.8,69.3,42.7,84,63.8,63.3c21.5-21.5,7-58-23.8-57.6C21.9,5.7,5.3,21,5.5,39.5L5.5,39.5z"/>
	</g>
</g>
<g>
	<path class="st2" d="M38.2,45l-0.1-0.7l0,0c1-1.1,2.1-2.3,2.1-2.3l-4.6-4.6L22,50.6c-1,1-1.4,2.3-1.3,3.8c0.1,1.4,0.8,2.7,1.9,3.8
		c1.2,1.2,2.7,1.8,4.2,1.8c1.2,0,2.4-0.4,3.3-1.3L41,48.3L38.2,45z"/>
	<path class="st3" d="M38.2,45c0,0-0.3-0.9-0.2-0.7c-0.1-0.1-0.1,0,0-0.1c0.7-0.8,1.3-1.6,2-2.4c0,0,0,0.4,0,0.4
		c-1.4-1.3-3.3-3.2-4.7-4.5c0,0,0.6,0,0.6,0c-4.2,4.4-9.6,8.8-13.9,13.2c-3,3.3,0.4,8.6,4.4,8.7c1.5,0.1,2.8-0.6,3.8-1.7
		c0,0,1.1-1.1,1.1-1.1c3.1-2.9,6.2-5.8,9.4-8.6l0,0.4C39.9,47.3,39,46.1,38.2,45L38.2,45z M38.3,45c1,1.1,2.1,2.2,3,3.3
		c0,0-0.2,0.2-0.2,0.2c-2.9,3.1-5.9,6.1-9,9c0,0-1.1,1.1-1.1,1.1c-1.1,1.3-2.9,2.1-4.6,1.9c-4.6-0.2-8.1-6.4-4.6-10
		c4.6-4.2,9.3-9.6,13.9-13.8c1.5,1.5,3.4,3.6,4.9,5.2c-0.8,0.8-1.6,1.6-2.4,2.3c0,0,0-0.1,0-0.1c0,0,0,0,0,0.1
		C38.2,44.3,38.3,45,38.3,45L38.3,45z"/>
</g>
<g>
	<path class="st2" d="M60.9,25.9L60.1,24L55,29.2c-0.9,0.9-1.6,1.3-2.3,1.3c-0.5,0-1-0.3-1.6-0.8l-0.1-0.1c-0.8-0.8-1.5-1.8,0.5-3.8
		l5.1-5.1l-1.9-0.8c-3.9-1.6-8-2.7-11.5,0.8l-3.2,3.2c-3.2,3.2-4.3,6.9-3.3,10.5l5.5,5.6l2.5-2.5c0,0,1.7,0.6,2.3,1.3l5,5.1
		c1.7-0.5,3.3-1.7,4.8-3.2l3.2-3.2C63.6,33.9,62.6,29.8,60.9,25.9"/>
	<path class="st3" d="M60.9,25.9L60,24.1c0,0,0.2,0,0.2,0c-1.3,1.4-2.7,2.9-4.1,4.3c-1.4,1.6-3.3,3.7-5.3,1.5
		c-2.3-1.9-0.1-4,1.4-5.4c0,0,4.2-4.2,4.2-4.2s0.1,0.7,0.1,0.7c-3.4-1.5-7.1-3.5-10.8-1.9c-1.2,0.5-2.1,1.3-3,2.2
		c-3.7,3.5-7.3,7.5-5.6,12.9c0,0-0.1-0.2-0.1-0.2l5.6,5.5l-0.7,0l2.5-2.5c0,0,0.2-0.2,0.2-0.2c0.5,0.2,1.1,0.4,1.6,0.6
		c0.3,0.1,1.1,0.7,1.2,0.9c0,0,5,5.2,5,5.2S52,43.3,52,43.3c1.7-0.5,3.2-1.7,4.5-2.9l2-2C62.9,34.9,62.9,30.9,60.9,25.9
		C60.9,25.9,61,25.9,60.9,25.9c0.9,1.7,1.6,3.5,1.8,5.4c0.4,3-1.4,5.7-3.5,7.6c-2,2-4,4.4-6.8,5.3c0,0-0.3,0.1-0.3,0.1l-0.2-0.2
		L46.7,39c-0.4-0.5-1.4-0.9-2-1.2c0,0,0.5-0.1,0.5-0.1l-2.5,2.5c0,0-0.3,0.3-0.3,0.3S42,40.2,42,40.2l-5.4-5.6c0,0-0.1-0.1-0.1-0.1
		c-1.7-5.7,2.3-9.9,6.1-13.4c0.9-0.9,1.9-1.8,3.1-2.3c3.9-1.8,8.1,0.3,11.8,1.7c-0.1,0.1-4.3,4.4-4.6,4.7c-1.2,1.2-3.3,2.7-1.5,4.2
		c1.5,1.8,3.1-0.2,4.3-1.3c1.5-1.4,3-2.8,4.5-4.2c0,0,0.1,0.2,0.1,0.2C60.3,24,61,25.9,60.9,25.9L60.9,25.9L60.9,25.9z"/>
</g>
<g>
	<path class="st1" d="M59.7,51.5L47.1,38.7c-0.4-0.4-0.9-0.8-1.6-1l-0.7-0.3l-2.3,2.3L30.6,27.7l1.1-1.1c0.3-0.3,0.4-0.7,0.4-1.1
		c0-0.4-0.3-0.8-0.6-1L25,20.2c-0.6-0.4-1.3-0.3-1.7,0.2l-2.2,2.2c-0.5,0.5-0.5,1.2-0.2,1.7l4.2,6.5c0.2,0.4,0.6,0.6,1,0.6
		c0,0,0.1,0,0.1,0c0.4,0,0.7-0.1,1-0.4l1-1L40.2,42L38,44.2l0.3,0.7c0.2,0.6,0.6,1.1,1,1.5l12.6,12.8c0.8,0.8,2,1.3,3.2,1.3h0
		c1.5,0,3-0.6,4.1-1.8l0.1-0.1c1-1,1.6-2.3,1.8-3.6C61.1,53.7,60.7,52.4,59.7,51.5z"/>
	<path class="st3" d="M59.7,51.5c-4.1-4.2-8.7-8.6-12.9-12.6c-0.6-0.6-1.3-0.8-2.1-1.1l0.4-0.1L42.8,40c0,0-0.3,0.3-0.3,0.3
		c-2.1-2.1-4.2-4.2-6.3-6.3c0,0-5.9-6.1-5.9-6.1s-0.2-0.2-0.2-0.2c0.4-0.4,1.1-1,1.5-1.5c0.3-0.4,0.2-1.1-0.2-1.5
		c-1-0.7-2.1-1.4-3.1-2.1c-0.5-0.2-3.4-2.4-3.9-2.5c-0.9-0.2-1.5,0.9-2.1,1.4c-0.8,0.8-2.1,1.7-1.2,2.9c0,0,2.1,3.1,2.1,3.1l2.1,3.1
		c0.3,0.4,0.9,0.5,1.3,0.3c0.2-0.1,0.5-0.4,0.6-0.5c0,0,0.7-0.7,0.7-0.7s0.3-0.3,0.3-0.3l0.3,0.3l12,11.8L41,42l-0.4,0.4l-2.3,2.3
		c0,0,0.1-0.6,0.1-0.6c0.4,1.6,1.4,2.4,2.5,3.5c3.7,3.7,7.6,7.8,11.2,11.6C56.7,63.3,63.9,56,59.7,51.5L59.7,51.5z M59.8,51.4
		c4.5,4.7-3.1,12.5-8,8.3C48,56.1,44,52.1,40.2,48.3c-0.6-0.6-1.1-1.1-1.6-1.7c-0.7-0.8-0.9-1.7-1.3-2.5c0,0,0.2-0.2,0.2-0.2
		l2.3-2.3c0,0,0,0.7,0,0.7S28,30.3,28,30.3s0.5,0,0.5,0c-0.2,0.2-0.8,0.8-1,1c-0.7,0.7-2,0.6-2.6-0.2c-1-1.6-3.1-4.8-4.1-6.4
		c-1.1-1.4,0.3-2.4,1.3-3.4c0.4-0.4,0.9-1,1.4-1.3c0.6-0.4,1.4-0.1,1.9,0.3c0,0,3.2,2.1,3.2,2.1c1.2,1.1,4.6,2,3.5,4.1
		c-0.4,0.5-0.9,1-1.3,1.4c0,0,0-0.4,0-0.4l6.1,5.9c2,2,4,3.9,6,6l-0.6,0l2.3-2.2c0,0,0.2-0.2,0.2-0.2c0.9,0.3,1.9,0.6,2.6,1.4
		C51.3,42.6,55.7,47.2,59.8,51.4L59.8,51.4z"/>
</g>
</svg>
