<?xml version="1.0" encoding="utf-8"?>
<!-- Generator: Adobe Illustrator 26.2.1, SVG Export Plug-In . SVG Version: 6.00 Build 0)  -->
<svg version="1.1" id="Capa_1" xmlns="http://www.w3.org/2000/svg" xmlns:xlink="http://www.w3.org/1999/xlink" x="0px" y="0px"
	 viewBox="0 0 1000 1000" style="enable-background:new 0 0 1000 1000;" xml:space="preserve">
<style type="text/css">
	.st0{fill:#0067B9;}
	.st1{fill:#BA0C2F;}
	.st2{fill:#FFFFFF;}
	.st3{fill:#002F6C;}
	.st4{fill:#E73164;}
</style>
<path class="st0" d="M77.2,254.6c17.7-9.1,39-8.9,59.2-8c17.3,0.8,36.3,2.7,47.8,14.5c14.1,14.5,11.9,39.4,28.6,51.4
	c2.4,1.7,5,3.1,7,5.2c1.9,2.1,2.9,5.3,1.3,7.6c-2.3,3.3-8.4,3-10.3,6.5c-2.7,4.8,4.9,12,0.3,15.2c-1.5,1.1-3.5,0.9-5.4,1
	c-5.1,0.1-10.4,2-13.2,5.9s-2.1,10,2.2,12.4c3.2,1.8,7.8,1.6,10.1,4.3c0.9,1.2,1.4,2.5,1.5,3.9c2.6,15.2-9.8,31.3-26.2,34.1
	c-6,1-12.2,0.5-18.3,1.1c-21,2-37.8,16.4-52.7,30.2l10.4-27.2c-11.6,6.6-24.7,5.5-37.6,4.5s-24.9-6.5-32.7-16
	c-10.2-12.4-13-29.7-13.9-44.9c-1.7-26.1-1.7-56,13.8-79c3.3-4.8,7.3-9.2,11.8-13C65.9,260.5,71.4,257.1,77.2,254.6"/>
<path class="st0" d="M398.7,552.1c1.8,6.7,3.4,14.4-0.5,20.2c-2,2.9-5.1,4.8-7.4,7.5c-3.9,4.4-5.3,10.4-6.5,16.1
	c-11,53.5-15,108.3-11.9,162.8c0,2.2,0.4,4.4,1.3,6.5c1.3,2.5,3.7,4,6.1,5.4c31.2,18.5,70,22,105.3,13.7c2.2-0.3,4.2-1.3,5.9-2.7
	c1.3-1.8,2.1-3.9,2.2-6.1c4.1-28.4,6.5-57.1,7.1-85.8c-0.1-2.5,0.3-5,1.2-7.4c0.9-1.5,1.9-3,2.9-4.4c3.1-4.9,3.1-11,2.9-16.8
	c-1-36.6-2-73.2-3-109.8"/>
<path d="M397.7,552.3c1.1,4.2,2.1,8.5,1.7,12.8c-0.4,4.8-3.1,7.8-6.6,10.8c-3.2,2.6-5.7,6-7.2,9.8c-1.5,4.2-2.6,8.5-3.3,12.9
	c-3.9,19.5-6.9,39.2-9,59.1c-2.1,19.9-3.2,39.8-3.4,59.9c-0.1,10.1,0.1,20.2,0.5,30.3c0,4.8,0.3,9.7,0.9,14.5c0.8,4.3,3.7,7,7.3,9.3
	c29.6,18,66.4,22,100,15.6c2.2-0.4,4.3-0.9,6.5-1.3c2-0.3,3.9-1,5.6-2.1c3.7-2.5,3.9-7.2,4.5-11.2c1.4-10,2.6-20.1,3.5-30.2
	c0.9-9.9,1.7-19.9,2.2-29.8c0.3-5.1,0.5-10.2,0.7-15.3c0.1-2.5,0.1-5.1,0.2-7.7c-0.1-2.3,0.2-4.5,1-6.6c1-1.7,2.1-3.3,3.2-4.8
	c1.1-2,1.9-4.1,2.3-6.3c0.6-4.4,0.8-8.9,0.5-13.3l-0.8-30.4l-1.7-62c-0.1-5-0.3-9.9-0.5-14.9c0-0.8-0.6-1.4-1.4-1.4
	c-0.8,0-1.4,0.6-1.4,1.4c0.3,20.3,1,40.5,1.6,60.7l0.8,29.7l0.4,15.2c0.1,4.5,0.5,9.2-0.2,13.6c-0.3,2-0.9,3.9-1.8,5.7
	c-1,1.9-2.6,3.4-3.5,5.3c-1.9,3.8-1.4,8.5-1.5,12.6c-0.3,10-0.7,20-1.5,30s-1.6,19.7-2.8,29.5c-0.6,5-1.2,10.1-1.9,15.1
	c-0.3,2.3-0.6,4.6-1,6.8c-0.3,2.1-0.7,4.3-2.5,5.6c-1.7,1-3.5,1.6-5.4,1.9c-2.1,0.5-4.3,0.9-6.5,1.3c-4.3,0.8-8.7,1.4-13.2,1.9
	c-8.4,0.8-16.8,1-25.2,0.4c-17-1-33.7-5.2-49.1-12.5c-3.9-1.8-7.7-3.9-11.4-6.3c-1.8-1.1-3.1-2.7-3.8-4.7c-0.6-2.3-0.8-4.7-0.8-7.1
	c-0.5-9.9-0.8-19.8-0.9-29.7c-0.1-19.6,0.6-39.2,2.4-58.7c1.7-19.5,4.4-39,7.9-58.4c0.9-4.7,1.8-9.4,2.8-14.1
	c0.7-4.3,2.1-8.4,4.2-12.2c2.2-3.6,5.9-5.7,8.4-9c2.2-3,3.3-6.7,3.2-10.4c-0.2-4-0.8-7.9-2-11.8c-0.2-0.5-0.8-0.8-1.3-0.6
	c-0.5,0.2-0.7,0.6-0.6,1.1L397.7,552.3z"/>
<path class="st0" d="M588.2,552.1c-1.8,6.7-3.4,14.4,0.5,20.2c2,2.9,5.1,4.8,7.4,7.5c3.9,4.4,5.2,10.4,6.5,16.1
	c11,53.5,15,108.3,11.8,162.8c0,2.2-0.4,4.4-1.3,6.5c-1.3,2.5-3.7,4-6.1,5.4c-31.2,18.5-70,22-105.3,13.7c-2.2-0.3-4.2-1.3-5.9-2.7
	c-1.5-1.6-1.9-3.9-2.2-6.1c-4.1-28.4-6.5-57.1-7.1-85.8c0.1-2.5-0.3-5-1.2-7.4c-0.9-1.5-1.9-3-2.9-4.4c-3.1-4.9-3.1-11-2.9-16.8
	c1-36.6,2-73.2,3-109.8"/>
<path d="M587.2,551.8c-1.6,5.8-3.3,12.7-1,18.6c1.3,2.8,3.2,5.3,5.7,7.3c2.5,2.1,4.6,4.7,6.1,7.7c1.3,3,2.3,6.1,2.8,9.3
	c0.8,3.8,1.6,7.7,2.3,11.5c1.4,7.6,2.7,15.1,3.9,22.7c4.7,30.8,7,61.9,7,93.1c0,7.8-0.2,15.6-0.5,23.4c-0.1,3.8-0.3,7.6-0.5,11.4
	c-0.2,3.6-0.2,7.2-3,9.8c-2.6,2.1-5.4,3.9-8.5,5.3c-2.9,1.5-5.8,3-8.8,4.3c-6.2,2.7-12.6,4.8-19.2,6.5c-13.1,3.3-26.7,4.7-40.2,4.3
	c-6.8-0.2-13.6-0.8-20.4-1.9c-3.2-0.5-6.5-1.2-9.7-1.9s-6.6-1.5-7.5-5.3c-0.8-3.7-1.4-7.5-1.7-11.2c-0.5-3.8-1-7.6-1.4-11.4
	c-0.9-7.8-1.7-15.6-2.3-23.5c-0.6-7.9-1.1-15.7-1.5-23.6c-0.2-3.9-0.4-7.8-0.5-11.8c0.1-3.6-0.1-7.3-0.4-10.9
	c-0.5-3.4-2.3-5.6-4.2-8.3c-1-1.5-3.4-0.1-2.5,1.4c0.9,1.3,1.9,2.6,2.6,3.9c0.8,1.7,1.2,3.6,1.2,5.5c0.2,3.9,0.2,7.9,0.3,11.8
	c0.3,8.1,0.7,16.1,1.3,24.2c1.1,15.8,2.8,31.6,4.9,47.3c0.5,3.3,0.5,7.2,2.3,10.1s4.9,3.6,7.9,4.3c6.6,1.5,13.4,2.7,20.1,3.3
	c13.7,1.5,27.5,1.1,41.1-1.1c13.4-2.2,26.4-6.5,38.5-12.6c5.6-2.9,12.8-6,14-13c0.5-3.8,0.7-7.5,0.8-11.3c0.2-4,0.3-8,0.4-12
	c0.8-31.7-0.9-63.4-4.8-94.9c-2-15.7-4.5-31.3-7.7-46.8c-1.3-6.5-2.6-13.5-7.2-18.6c-2.2-2.5-5.1-4.2-7.1-6.9
	c-1.9-2.8-2.9-6.2-2.6-9.6c0.2-3.4,0.8-6.7,1.7-9.9c0.1-0.5-0.2-1.1-0.8-1.2C587.9,551,587.4,551.3,587.2,551.8L587.2,551.8z"/>
<path class="st1" d="M467.5,360.1c-39.5,2.6-77.5,19.6-84.6,62c-3.5,21.1-0.2,42.4-1,63.6c-0.6,14.9-1.9,30.3,0.8,45
	c1.9,10.6,6.5,21.1,14.5,28.3c14.8,13.4,37.3,13.5,56,15.6c26,2.9,52.3,1.8,77.9-3.2c24.5-4.9,57.2-5.7,68-32.8
	c3.7-9.3,4.5-19.5,5.2-29.4c1.1-18.1,1.7-36.2,1.7-54.4c0-16.6,1.4-33.2-6.2-48.4c-10.5-21-30.3-31.9-51.4-40.1
	c-12.8-5-26.3-9.7-40-8.5"/>
<path d="M467.5,359.2c-19.3,1-38.9,5.3-55.4,15.9c-7.8,4.9-14.5,11.4-19.7,18.9c-5.6,8.2-9.3,17.5-10.9,27.2
	c-2.4,14.1-1.8,28.5-1.3,42.8c0.2,7.2,0.4,14.5,0.2,21.8c-0.3,7-0.7,14-0.8,21c-0.2,13,0.6,26.3,5.9,38.3
	c4.6,10.6,13.1,18.9,23.7,23.4c10.3,4.4,21.6,5.6,32.6,6.7c13,1.2,25.9,2.6,38.9,2.6c14.1,0.1,28.2-1,42.2-3.3c5.5-0.9,11-2,16.5-3
	c4.6-0.8,9.1-1.5,13.7-2.3c17.6-3.3,36.9-9.1,45.7-26.2c6-11.7,6.5-25.3,7.2-38.2c0.9-14.6,1.3-29.2,1.4-43.8
	c0.1-13.2,1-26.9-1.4-40c-2.3-11.7-7.9-22.5-16.2-31c-7.7-7.7-16.7-14-26.6-18.7c-5-2.5-10.1-4.6-15.3-6.6c-6.5-2.6-13.2-4.8-20-6.5
	c-6.4-1.6-13-2.2-19.6-1.7c-1.9,0.2-2,3.2,0,3c13.5-1,26.6,3.4,39,8.3c10.1,3.7,19.7,8.6,28.6,14.5c8.9,6,16.2,14,21.4,23.4
	c6.2,11.4,7.1,24.3,7,37.1c0,13.7-0.1,27.4-0.5,41.1c-0.2,7-0.5,14.1-0.9,21.1c-0.2,6.8-0.9,13.5-1.8,20.2
	c-1.7,10.4-5.5,20.4-13.6,27.4c-6.6,5.7-14.9,9-23.2,11.2c-8.7,2.3-17.7,3.6-26.6,5.1c-5.4,0.9-10.7,2-16,2.9
	c-6.9,1.1-13.8,1.9-20.8,2.4c-13.7,1-27.6,0.9-41.3-0.3c-5.7-0.5-11.5-1.1-17.2-1.6c-5.4-0.5-10.8-1.1-16.2-2
	c-10.4-1.9-21-5.3-28.8-12.7c-8.7-8.3-12.7-20.3-14.1-32c-1.6-13.5-0.4-27.2,0-40.8c0.4-13.9-0.8-27.8-0.7-41.6
	c0.1-11.9,1.3-24,5.7-35.2c3.4-8.5,8.6-16.1,15.2-22.4c13.5-12.7,31.7-19.3,49.7-22.4c4.7-0.8,9.4-1.5,14.1-1.8
	C468.6,361,468.7,359.1,467.5,359.2L467.5,359.2z"/>
<path class="st2" d="M536.1,372.7c-2.8-4.2-8.3-5.6-11.6-9.5c-3.3-3.8-3.8-9.4-3.9-14.5c-0.4-14.4,0.1-28.8,1.8-43.1l-28.8,2.3
	l-28.8-2.3c1.6,14.3,2.2,28.7,1.8,43c-0.2,5.1-0.6,10.6-3.9,14.5c-3.3,3.9-8.8,5.3-11.6,9.5c-2.4,3.6-2.3,8.4-0.7,12.5
	c8.2,20.4,32.9,40.9,55.5,31.4c13-5.4,25.6-18.4,30.8-31.4C538.4,381.2,538.6,376.3,536.1,372.7L536.1,372.7z"/>
<path d="M521.6,324.7c0.1-1,0.2-2,0.3-3l-11.7-3.5l-16.6,1.3l-28.8-2.3c1.4,12.3,2,24.6,1.9,37c1.6,0.4,3.2,0.5,4.8,0.5
	c8.6,0,16.6-4.1,23.9-8.8C504.9,339.8,513.7,332.7,521.6,324.7z"/>
<path d="M537.2,372.1c-3-4.2-8.1-5.7-11.5-9.4c-4-4.3-3.8-11-3.9-16.5c-0.3-13.5,0.3-27.1,1.8-40.5c0-0.7-0.6-1.3-1.3-1.3l-25.2,2
	c-6.8,0.5-13.7-0.5-20.5-1.1l-11.8-0.9c-0.7,0-1.3,0.6-1.3,1.3c1,8.8,1.6,17.7,1.8,26.6c0.1,4.4,0.1,8.9,0,13.3
	c0.1,3.9-0.2,7.7-1,11.5c-0.9,3.5-3.2,6.5-6.3,8.3c-2.7,1.8-5.6,3.4-7.6,6c-4.4,5.6-2.2,12.8,0.7,18.5c5.9,11.7,16.1,22.1,28.3,27.2
	c5.9,2.6,12.3,3.6,18.7,2.9c6.9-0.9,13.2-4.1,18.7-8.2c6.7-4.9,12.4-11,16.9-18C537.6,387.5,541.7,379.1,537.2,372.1
	c-1-1.3-3.2-0.1-2.3,1.3c4,6.2,0,13.7-3.4,19.2c-3.8,6.1-8.7,11.5-14.4,16c-5.2,4.1-11.3,7.6-17.9,8.8c-6,1-12.2,0.2-17.9-2.1
	c-11.7-4.6-21.4-14.3-27.2-25.3c-3-5.6-5.8-13-0.4-18.2c2.2-2.1,5.1-3.4,7.5-5.3c2.5-1.9,4.4-4.6,5.4-7.6c1-3.7,1.5-7.5,1.4-11.3
	c0.1-4.6,0.1-9.3,0-13.9c-0.2-9.3-0.8-18.6-1.9-27.8l-1.3,1.3l25.2,2c6.8,0.5,13.7-0.5,20.5-1.1l11.8-0.9l-1.3-1.3
	c-1.2,10.8-1.9,21.7-1.9,32.6c-0.1,5,0,10.1,0.4,15.1c0.5,4.1,1.6,8.2,4.5,11.2c3.2,3.4,8.2,4.8,10.9,8.7
	C536,374.7,538.2,373.4,537.2,372.1L537.2,372.1z"/>
<path class="st2" d="M535.8,279c0.3-2,2.1-3.4,4.1-3.1c0.3,0,0.5,0.1,0.8,0.2c1.5,0.8,2.5,2.3,2.8,3.9c1.6,6.3-0.8,12.9-6.1,16.7
	c-0.9,0.7-2,1.1-3.1,1.2c-1.2,0.1-2.2-0.7-2.6-1.8"/>
<path d="M536.8,279.3c0.2-1.2,1.2-2,2.4-2.1c1.1,0,2.1,0.7,2.5,1.8c1,2.3,1.3,4.9,0.8,7.4c-0.5,2.5-1.6,4.9-3.2,6.8
	c-0.8,1-1.7,1.8-2.8,2.5c-0.7,0.5-2.7,1.5-3.2,0.1c-0.6-1.8-3.5-1.1-2.9,0.8c0.4,1.4,1.6,2.5,3.1,2.8c1.7,0.2,3.5-0.2,4.8-1.3
	c2.5-1.7,4.4-4.1,5.7-6.8c1.2-2.7,1.8-5.7,1.6-8.6c-0.2-2.9-1.2-6.4-4-7.8c-2.4-1-5.2,0.2-6.1,2.6c-0.2,0.5-0.3,1-0.3,1.6
	C535,280,536.7,280.3,536.8,279.3L536.8,279.3z"/>
<path class="st2" d="M451.4,279c-0.3-2-2.1-3.4-4.1-3.2c-0.3,0-0.5,0.1-0.8,0.2c-1.5,0.8-2.5,2.2-2.8,3.9
	c-1.6,6.3,0.8,12.9,6.1,16.7c0.9,0.7,2,1.1,3.1,1.2c1.2,0.1,2.2-0.7,2.6-1.8"/>
<path d="M452.3,279c-0.1-2.6-2.3-4.7-5-4.6c-0.1,0-0.3,0-0.4,0c-3.2,0.5-4.6,4-5,6.8c-0.9,6,1.4,12.1,6,16c1.4,1.3,3.2,2.1,5.1,2.2
	c1.8,0,3.3-1.2,3.9-2.9c0.6-1.9-2.3-2.6-2.9-0.8c-0.4,1.3-2.5,0.3-3.2-0.1c-1-0.7-2-1.5-2.8-2.5c-1.6-2-2.7-4.3-3.2-6.8
	c-0.5-2.5-0.3-5.1,0.7-7.4c0.4-1.3,1.8-2.1,3.1-1.7c0.9,0.3,1.6,1,1.7,2C450.6,280.3,452.3,280.1,452.3,279L452.3,279z"/>
<path class="st2" d="M537.2,257.5c-1.6-12.7-10.1-23.4-21.5-28.9c-9.8-4.4-20.7-5.7-31.3-3.7c-8.4,1.3-16.2,4.8-22.8,10.2
	c-18.6,16-10.7,43.6-7.6,64.6c1.2,8,2.4,16.2,6.8,23c5.1,7.8,13.7,12.5,21.9,16.9c3,1.6,6.2,3.3,9.6,3.5c4.8,0.4,9.3-1.9,13.5-4.2
	c6.3-3.4,12.7-6.8,17.4-12.1c4.9-5.5,7.6-12.7,9.1-19.9s2-14.6,2.9-21.9C536.4,275.9,538.3,266.5,537.2,257.5L537.2,257.5z"/>
<path d="M538.4,257.5c-1.4-10.1-6.7-19.2-14.7-25.3c-9.2-7.1-21-10-32.4-9.3s-23.3,4.5-31.7,12.5c-6.9,6.5-10.1,15.5-10.9,24.7
	c-0.8,9.6,0.7,19.3,2.3,28.8c0.8,4.8,1.6,9.7,2.3,14.5c0.7,5.8,2.2,11.4,4.6,16.7c5,10.3,15.3,16,25,21.1c2.7,1.6,5.6,2.6,8.6,3.2
	c2.9,0.3,5.8-0.1,8.4-1.2c5.5-2.2,10.7-5,15.6-8.3c4.8-3,8.9-7,12-11.7c3-5,5-10.5,6.1-16.2c1.3-6.6,1.8-13.4,2.6-20.1
	s2-13.1,2.4-19.7C538.8,264,538.8,260.7,538.4,257.5c-0.2-1.6-2.8-1.6-2.6,0c0.5,6.2,0.3,12.5-0.7,18.7c-0.9,6.1-1.6,12.2-2.3,18.4
	c-1.2,11.3-3.1,23.7-11.3,32.3c-3.9,3.8-8.4,7-13.2,9.4c-4.9,2.7-10.5,6.3-16.3,5.7c-2.9-0.5-5.8-1.6-8.3-3.2
	c-2.3-1.2-4.6-2.5-6.9-3.8c-4.6-2.5-8.8-5.7-12.4-9.6c-7.2-8.2-8.1-19.3-9.7-29.6c-1.4-8.9-3.2-17.8-3.6-26.8
	c-0.4-8.7,0.5-17.7,5.1-25.3c5.4-9,15.2-14.3,25.1-16.7c11.2-2.7,23.5-2.2,34,2.9c8.7,4.2,15.5,11.5,18.9,20.6
	c0.8,2.3,1.4,4.7,1.7,7.1C536.1,259.1,538.6,259.1,538.4,257.5L538.4,257.5z"/>
<path d="M537.4,266l-6.2,1.3c-1.1,6.6-0.5,13.4,1.7,19.7c0.4,1.2,1,2.4,1.7,3.4c0.2-1.8,0.4-3.6,0.6-5.4
	C536,278.8,537.2,272.3,537.4,266z"/>
<path d="M452.5,290.5c0.8-1.1,1.4-2.3,1.8-3.5c2.2-6.3,2.8-13.1,1.7-19.7l-6.3-1.3C450,274.2,450.9,282.5,452.5,290.5z"/>
<path d="M477.4,285.8c-0.3-0.2-0.6-0.3-0.9-0.3c-0.4-0.1-0.7,0-1.1,0.1c-0.3,0.1-0.6,0.3-0.8,0.5c-0.1,0.1-0.1,0.2-0.2,0.2
	s-0.1,0.2-0.2,0.3c-0.1,0.2-0.1,0.3-0.2,0.5c0,0,0,0.1,0,0.1c-0.1,0.3-0.1,0.7,0,1c0,0,0,0.1,0,0.1c0.1,0.2,0.1,0.3,0.2,0.5
	c0.1,0.2,0.2,0.3,0.3,0.4c0.1,0.1,0.2,0.2,0.3,0.2c0.2,0.2,0.5,0.3,0.8,0.4c0.4,0.1,0.8,0.1,1.1,0c0.1,0,0.2-0.1,0.3-0.1l0.3-0.1
	c0.1-0.1,0.2-0.1,0.3-0.2c0.1-0.1,0.2-0.1,0.3-0.2c0.2-0.2,0.3-0.4,0.5-0.6c0.1-0.2,0.2-0.4,0.3-0.7c0-0.1,0.1-0.2,0.1-0.2
	c0.1-0.2,0.1-0.5,0.1-0.7c0-0.2,0-0.5-0.1-0.7c0,0,0-0.1,0-0.1c-0.1-0.2-0.1-0.4-0.2-0.5c-0.2-0.3-0.5-0.6-0.8-0.8
	c-0.3-0.2-0.7-0.3-1.1-0.3c-0.2,0-0.4,0-0.6,0h-0.1c-0.4,0.1-0.7,0.3-1,0.6l-0.1,0.1c-0.1,0.2-0.3,0.3-0.4,0.5
	c-0.1,0.2-0.2,0.5-0.3,0.7c-0.1,0.4-0.2,0.8-0.2,1.2c0,0.3,0,0.6,0.1,0.8c0,0.1,0.1,0.2,0.1,0.3c0,0.1,0.1,0.2,0.1,0.3l0.3,0.4
	c0.6,0.6,1.5,0.8,2.3,0.6l0.3-0.1l0.3-0.1c0.2-0.1,0.3-0.2,0.5-0.4c0.1-0.2,0.3-0.3,0.4-0.5c0,0,0.1,0,0.1,0
	c0.1-0.2,0.2-0.5,0.3-0.7c0.1-0.3,0.1-0.6,0.1-0.9c0-0.1,0-0.3,0-0.4c0-0.3-0.1-0.6-0.1-0.9c-0.1-0.3-0.2-0.5-0.3-0.7
	c-0.1-0.1-0.2-0.3-0.3-0.4l-0.4-0.3l-0.3-0.1l-0.3-0.1c-0.3-0.1-0.6-0.1-0.9,0h-0.3l-0.5,0.2c-0.2,0.1-0.3,0.2-0.4,0.3
	c-0.1,0.1-0.3,0.3-0.4,0.5l-0.1,0.1c-0.1,0.2-0.2,0.4-0.2,0.6c0,0.1-0.1,0.2-0.1,0.4c-0.1,0.4-0.1,0.8-0.1,1.2
	c0,0.3,0.1,0.5,0.1,0.8c0.1,0.2,0.2,0.4,0.2,0.6c0,0,0,0.1,0.1,0.1c0.1,0.1,0.1,0.2,0.2,0.3l0.2,0.3c0.1,0.1,0.3,0.2,0.5,0.4
	l0.1,0.1c0.4,0.2,0.8,0.3,1.2,0.3c0.4,0,0.8-0.1,1.2-0.3c0.2-0.1,0.4-0.3,0.6-0.4c0.1-0.1,0.3-0.3,0.4-0.5c0,0,0.1-0.1,0.1-0.1
	c0.1-0.2,0.2-0.5,0.3-0.7c0.1-0.3,0.1-0.5,0.1-0.8v-0.3c0-0.3-0.1-0.6-0.1-0.8c0-0.1-0.1-0.2-0.1-0.3c-0.1-0.3-0.2-0.5-0.3-0.7
	c-0.3-0.5-0.6-0.8-1.1-1.1c-0.4-0.2-0.8-0.3-1.2-0.3c-0.2,0-0.4,0-0.6,0h-0.2l-0.5,0.2c-0.2,0.1-0.3,0.2-0.5,0.4l-0.1,0.1
	c-0.1,0.2-0.3,0.3-0.4,0.5l-0.2,0.3c-0.1,0.2-0.2,0.5-0.3,0.7c-0.1,0.3-0.1,0.5-0.1,0.8c0,0.1,0,0.2,0,0.3c0,0.3,0.1,0.6,0.1,0.8
	c0.1,0.5,0.4,0.9,0.7,1.3l0.1,0.1c0.1,0.1,0.3,0.3,0.5,0.4c0.4,0.2,0.8,0.3,1.2,0.3c0.8,0,1.6-0.4,2-1.2c0,0,0-0.1,0-0.1
	c0.1-0.2,0.2-0.4,0.2-0.6c0.1-0.3,0.1-0.5,0.1-0.8c0-0.2,0-0.5,0-0.7c0-0.3,0-0.6-0.1-0.9c-0.1-0.3-0.2-0.5-0.3-0.8
	c-0.1-0.2-0.3-0.4-0.5-0.6c-0.2-0.2-0.4-0.3-0.7-0.4c-0.5-0.1-1.1-0.1-1.5,0.2c-0.2,0.1-0.4,0.3-0.6,0.6c-0.1,0.1-0.1,0.1-0.2,0.2
	l-0.2,0.5l0,0c0,0-0.1,0.4-0.1,0.5c0,0,0,0.1,0,0.1c0,0.4,0.1,0.7,0.3,1l0.3,0.4l0.4,0.3l0.4,0.2c0.2,0.1,0.5,0.1,0.7,0
	c0.2,0,0.3,0,0.4-0.1c0.2,0,0.3-0.1,0.4-0.2c0.1-0.1,0.2-0.2,0.3-0.3c0.2-0.2,0.3-0.4,0.3-0.6l-0.2,0.4l0,0l-0.3,0.4l-0.4,0.3h0.1
	l-0.5,0.2h0.1h-0.5h-0.5l-1.4-1.9c0,0.3,0.1,0.5,0.1,0.8v0.3l-0.1-0.5c0,0.3,0,0.6,0,0.8l0.1-0.5c0,0.1,0,0.2-0.1,0.3l0.2-0.5
	c0,0.1,0,0.1-0.1,0.1l0.3-0.4c0,0-0.1,0.1-0.1,0.1l0.4-0.3h-0.1l0.5-0.2h-0.1l0.5-0.1h-0.1l0.5,0.1h-0.1l0.5,0.2l-0.1-0.1l0.4,0.3
	l-0.2-0.2l0.3,0.4c-0.1-0.1-0.1-0.2-0.1-0.2l0.2,0.5c0-0.1-0.1-0.3-0.1-0.4l0.1,0.5c0-0.2,0-0.4,0-0.5l-0.1,0.5
	c0-0.2,0.1-0.3,0.1-0.5l-0.2,0.5c0.1-0.1,0.1-0.2,0.2-0.3l-0.3,0.4l0.1-0.1l-0.4,0.3h0.1l-0.5,0.2h0.1H476h-0.5c0,0,0.1,0,0.1,0
	l-0.5-0.2c0.1,0,0.1,0.1,0.2,0.1l-0.4-0.3c0.1,0,0.1,0.1,0.2,0.2l-0.3-0.4c0.1,0.1,0.2,0.2,0.2,0.4l-0.2-0.5
	c0.1,0.2,0.1,0.3,0.1,0.5l-0.1-0.5c0,0.2,0,0.4,0,0.5l0.1-0.5c0,0.1-0.1,0.2-0.1,0.4l0.2-0.5l-0.1,0.2l0.3-0.4l-0.1,0.1l0.4-0.3
	h-0.1l0.5-0.2h-0.1h0.5h-0.1h0.5h-0.1l0.5,0.2h-0.1l0.4,0.3l-0.1-0.1l0.3,0.4c-0.1-0.1-0.1-0.2-0.2-0.3l0.2,0.5
	c0-0.1-0.1-0.2-0.1-0.4l0.1,0.5c0-0.2,0-0.4,0-0.6l-0.1,0.5c0-0.2,0.1-0.4,0.1-0.5l-0.2,0.5l0.1-0.1l-0.3,0.4l-0.4,0.3l-0.5,0.2
	l-0.5,0.1l-0.5-0.1h0.1l-0.5-0.2h0.1l-0.4-0.3l0.1,0.1l-0.3-0.4c0,0,0.1,0.1,0.1,0.2l-0.2-0.5c0,0.1,0.1,0.2,0.1,0.3l-0.1-0.5
	c0,0.2,0,0.5,0,0.7l0.1-0.5c0,0.1-0.1,0.3-0.1,0.4l0.2-0.5c0,0.1-0.1,0.1-0.1,0.2l0.3-0.4c0,0-0.1,0.1-0.1,0.1l0.4-0.3l-0.1,0.1
	l0.9-0.2h-0.1l0.5-0.1h-0.1l0.5,0.1h-0.1l0.5,0.2l0.4,0.3l0.3,0.4v-0.1l0.2,0.5c0,0,0,0,0-0.1l0.1,0.5c0-0.2,0-0.4,0-0.6l-0.1,0.5
	c0-0.2,0.1-0.4,0.1-0.5l-0.2,0.5c0-0.1,0.1-0.2,0.1-0.3l-0.3,0.4c0-0.1,0.1-0.1,0.1-0.1l-0.4,0.3h0.1l-0.5,0.2h0.1l-0.5,0.1h0.1
	l-0.5-0.1h0.1l-0.5-0.2h0.1l-0.4-0.3l0.1,0.1l-0.3-0.4l0.1,0.1l-0.2-0.5c0,0.1,0.1,0.2,0.1,0.3l-0.1-0.5c0,0.1,0,0.2,0,0.3l0.1-0.5
	c0,0.1-0.1,0.2-0.1,0.4l0.2-0.4c0,0.1-0.1,0.2-0.2,0.3l0.3-0.4l-0.2,0.2l0.4-0.3l-0.2,0.1l0.4-0.2h-0.1h0.5H476h0.4h-0.1l0.4,0.2
	l-0.1-0.1l0.3,0.3l-0.1-0.1l0.2,0.3L477,287l0.2,0.4c0-0.1,0-0.1,0-0.2v0.4c0-0.1,0-0.1,0-0.2v0.4c0-0.1,0-0.1,0-0.2l-0.1,0.4
	c0.1-0.2,0.1-0.3,0.2-0.4l-0.2,0.3l0.2-0.2l-0.2,0.2c0.1-0.1,0.2-0.1,0.3-0.2l-0.3,0.1c0.1,0,0.2-0.1,0.3-0.1l0.2-0.1l0.2-0.2
	c0.4-0.4,0.4-1,0-1.4c-0.1-0.1-0.1-0.1-0.2-0.2L477.4,285.8z"/>
<path d="M470.2,278.5c3.3-0.7,6.7-1,10.2-0.9c-0.1-0.8-1.1-1.2-1.9-1.3c-2.9-0.4-6,0.2-8.5,1.7c0.1,0.1,0.2,0.2,0.3,0.1"/>
<path d="M470.2,279.5c1.6-0.2,3.3-0.3,5-0.3h2.4c0.4,0,0.8,0,1.2,0.1c0.2,0,0.5,0,0.7,0.1c0,0,0.7,0.1,0.4,0c1,0.3,2.1-0.4,2.3-1.4
	c0.1-0.3,0.1-0.6,0-0.9c-0.3-1.3-1.4-2.3-2.7-2.6c-1.2-0.3-2.4-0.4-3.6-0.3c-1.2,0-2.5,0.3-3.6,0.6c-1.3,0.4-2.4,1.2-3.4,2.1
	c-0.6,0.6-0.6,1.6,0,2.1c0.1,0.1,0.2,0.2,0.3,0.2c0.5,0.3,1.2,0.3,1.8,0c0.6-0.4,0.9-1.2,0.5-1.9c-0.2-0.3-0.5-0.5-0.8-0.6h-0.1
	l0.6,0.4l-0.1-0.1l0.4,0.6v-0.1l-1.1,1.9c0.9-0.3,1.8-0.6,2.7-0.8c0.5-0.1,0.9-0.3,1.4-0.4l0.7-0.1h0.3c0.9-0.1,1.8-0.1,2.7,0
	c0.2,0,0.2,0,0,0h0.3c0.2,0,0.4,0.1,0.5,0.2c-0.3-0.1-0.3-0.1-0.1,0c0.2,0.1,0.2,0.1-0.1-0.1c0.1,0.2,0.1,0.1-0.1-0.1
	c-0.2-0.2-0.1-0.3,0-0.1l1.8-2.4c-3.5,0.3-7,0.9-10.4,1.9c-1,0.3-0.9,2.1,0.3,1.9L470.2,279.5z"/>
<path d="M510,287.6c0.1,0,0.2,0,0.3,0.1L510,287.6c0.1,0,0.2,0.1,0.3,0.1L510,287.6c0.1,0,0.2,0.1,0.3,0.1l-0.2-0.3
	c0.1,0.1,0.2,0.3,0.2,0.4l-0.2-0.4c0,0.1,0,0.1,0,0.2v-0.4v0.2v-0.4c0,0.1,0,0.1,0,0.2l0.2-0.4l-0.1,0.1l0.3-0.3l-0.1,0.1l0.3-0.3
	l-0.1,0.1l0.4-0.2h-0.1h0.5h-0.2h0.5c0,0-0.1,0-0.1,0l0.4,0.2c-0.1,0-0.1-0.1-0.2-0.1l0.4,0.3c-0.1,0-0.1-0.1-0.2-0.2l0.3,0.4
	c-0.1-0.1-0.1-0.2-0.2-0.3l0.2,0.4c0-0.1-0.1-0.2-0.1-0.4v0.5c0-0.1,0-0.2,0-0.3v0.5c0-0.1,0-0.2,0-0.3l-0.2,0.5
	c0-0.1,0-0.1,0.1-0.1l-0.3,0.4l0.1-0.1l-0.4,0.3h0.1l-0.5,0.2h0.1l-0.5,0.1h0.1l-0.5-0.1h0.1l-0.5-0.2h0.1l-0.4-0.3l0.1,0.1
	l-0.3-0.4c0.1,0.1,0.1,0.2,0.1,0.3l-0.2-0.5c0.1,0.2,0.1,0.4,0.1,0.5v-0.5c0,0.2,0,0.4,0,0.6v-0.5c0,0,0,0.1,0,0.1l0.2-0.5
	c0,0,0,0.1,0,0.1l0.3-0.4l0.4-0.3l0.5-0.2h-0.1l0.5-0.1h-0.1l0.5,0.1h-0.1l0.5,0.2l-0.1-0.1l0.4,0.3l-0.1-0.1l0.3,0.4
	c0-0.1-0.1-0.1-0.1-0.2l0.2,0.5c-0.1-0.1-0.1-0.3-0.1-0.4v0.5c0-0.2,0-0.5,0-0.7v0.5c0-0.1,0-0.2,0.1-0.3l-0.2,0.5
	c0-0.1,0.1-0.1,0.1-0.2l-0.3,0.4c0,0,0,0,0-0.1l-0.4,0.3h0.1l-0.5,0.2l-0.5,0.1l-0.5-0.1h0.2l-0.5-0.2l-0.4-0.3l-0.3-0.4l0.1,0.1
	l-0.2-0.5c0.1,0.2,0.1,0.4,0.2,0.5l-0.1-0.5c0,0.2,0,0.4,0,0.6l0.1-0.5c0,0.1-0.1,0.2-0.1,0.4l0.2-0.5c0,0.1-0.1,0.2-0.2,0.3
	l0.3-0.4c0,0-0.1,0.1-0.1,0.1l0.4-0.3h-0.1l0.5-0.2h-0.1h0.5h-0.1h0.5H511l0.5,0.2h-0.1l0.4,0.3l-0.1-0.1l0.3,0.4
	c0-0.1-0.1-0.1-0.1-0.2l0.2,0.5c0-0.1-0.1-0.2-0.1-0.4v0.5c0-0.2,0-0.4,0-0.5v0.5c0-0.2,0.1-0.4,0.1-0.5l-0.2,0.6
	c0.1-0.1,0.1-0.3,0.2-0.4l-0.2,0.4c0-0.1,0.1-0.1,0.2-0.2l-0.4,0.3l0.2-0.1l-0.5,0.2c0,0,0.1,0,0.1,0H511h-0.5h0.1L510,287.6
	l0.2,0.1l-0.4-0.3l0.1,0.1l-0.3-0.4c0.1,0.1,0.1,0.2,0.2,0.3l-0.2-0.5c0.1,0.2,0.1,0.3,0.1,0.5l-0.1-0.5c0,0.2,0,0.4,0,0.5l0.1-0.5
	c0,0.1-0.1,0.3-0.1,0.4l0.2-0.5c0,0.1-0.1,0.2-0.1,0.2l0.3-0.4c0,0.1-0.1,0.1-0.2,0.2l0.4-0.3l-0.1,0.1l0.5-0.2h-0.1l0.5-0.1h-0.1
	l0.5,0.1h-0.1l0.5,0.2h-0.1l0.4,0.3l-0.1-0.1l0.3,0.4l-0.1-0.1l0.2,0.5c0-0.1-0.1-0.2-0.1-0.3l0.1,0.5c0-0.3,0-0.6,0-0.8l-0.1,0.5
	c0-0.1,0-0.2,0-0.3c0.1-0.3,0.1-0.5,0.1-0.8l-1.4,1.9h-0.5h0.1h-0.5l-0.5-0.2h0.1l-0.4-0.3l0,0l-0.3-0.4l-0.2-0.4l0.2,0.4l0.3,0.4
	l0.4,0.3c0.2,0.1,0.4,0.2,0.7,0.2c0.2,0.1,0.3,0.1,0.5,0c0.2,0,0.3,0,0.4-0.1c0.2,0,0.3-0.1,0.4-0.2c0.2-0.1,0.4-0.3,0.5-0.5
	c0.1-0.2,0.2-0.5,0.2-0.8c0.1-0.3,0.1-0.6,0-0.8c-0.1-0.2-0.1-0.4-0.2-0.5l-0.3-0.4c-0.1-0.1-0.3-0.2-0.4-0.3
	c-0.5-0.2-1-0.3-1.5-0.2c-0.5,0.1-0.9,0.5-1.2,0.9c-0.1,0.2-0.2,0.5-0.3,0.8c0,0.3-0.1,0.6-0.1,0.9c0,0.2,0,0.5,0,0.7
	c0,0.5,0.2,1,0.4,1.4c0.2,0.3,0.5,0.6,0.8,0.8c0.2,0.1,0.4,0.2,0.6,0.2h0.3c0.1,0,0.2,0,0.3,0c0.2,0,0.4,0,0.6-0.1
	c0.2-0.1,0.3-0.1,0.5-0.2h0.1c0.2-0.1,0.4-0.3,0.6-0.5c0.2-0.1,0.5-0.2,0.7-0.4c0.1-0.2,0.2-0.5,0.3-0.8c0.1-0.3,0.1-0.5,0.1-0.8
	c0-0.1,0-0.2,0-0.4c0-0.3-0.1-0.5-0.1-0.8c-0.1-0.3-0.2-0.5-0.3-0.7l-0.2-0.3c-0.1-0.2-0.2-0.3-0.4-0.5c-0.1-0.1-0.2-0.2-0.3-0.2
	c-0.2-0.2-0.5-0.3-0.8-0.4c-0.2-0.1-0.4-0.1-0.6-0.1h-0.1c-0.2,0-0.4,0-0.5,0.1l-0.3,0.1c-0.1,0-0.2,0.1-0.3,0.1l-0.1,0.1
	c-0.2,0.1-0.3,0.2-0.5,0.4c-0.1,0.1-0.2,0.2-0.2,0.3l-0.2,0.3c-0.1,0.2-0.2,0.5-0.3,0.7c0,0.1-0.1,0.2-0.1,0.3
	c-0.1,0.3-0.1,0.5-0.1,0.8c0,0.1,0,0.2,0,0.4c0,0.5,0.2,1,0.4,1.5c0.1,0.2,0.3,0.4,0.4,0.6c0.1,0.1,0.2,0.2,0.3,0.2
	c0.1,0.1,0.2,0.2,0.3,0.2c0.2,0.1,0.4,0.2,0.6,0.2c0.2,0,0.4,0.1,0.6,0.1h0.1c0.2,0,0.4,0,0.6-0.1c0.2-0.1,0.4-0.1,0.6-0.2h0.1
	c0.2-0.1,0.3-0.2,0.5-0.4c0.2-0.2,0.4-0.4,0.5-0.6c0.1-0.2,0.2-0.4,0.3-0.7c0.1-0.3,0.1-0.5,0.1-0.8c0-0.4,0-0.8-0.1-1.2
	c0-0.1-0.1-0.2-0.1-0.4c-0.1-0.2-0.1-0.4-0.2-0.6c-0.1-0.1-0.1-0.2-0.2-0.3c-0.2-0.2-0.4-0.4-0.6-0.6c-0.2-0.2-0.5-0.3-0.8-0.3h-0.3
	c-0.2,0-0.4,0-0.6,0.1c-0.2,0.1-0.4,0.1-0.6,0.2c-0.3,0.2-0.6,0.5-0.8,0.9c-0.1,0.1-0.1,0.2-0.2,0.3c0,0.1-0.1,0.2-0.1,0.4
	c-0.1,0.4-0.1,0.8-0.1,1.2c0,0.3,0,0.6,0.1,0.9c0.1,0.3,0.2,0.5,0.3,0.8c0.1,0.2,0.3,0.5,0.5,0.6c0.3,0.3,0.7,0.5,1.1,0.6
	c0.2,0,0.4,0.1,0.6,0.1h0.1l0.5-0.1c0.4-0.1,0.8-0.3,1.1-0.6c0.3-0.3,0.5-0.7,0.6-1.1c0.1-0.3,0.1-0.6,0.1-0.8
	c0-0.4-0.1-0.8-0.2-1.2c-0.2-0.5-0.4-0.9-0.8-1.3c-0.5-0.5-1.1-0.7-1.8-0.7c-0.4,0-0.7,0.1-1.1,0.3h-0.1c-0.2,0.1-0.3,0.2-0.5,0.4
	l0,0c-0.1,0.1-0.2,0.3-0.3,0.4c-0.1,0.2-0.2,0.4-0.3,0.6c0,0.2-0.1,0.4-0.1,0.6c0,0.1,0,0.1,0,0.2c0,0.8,0.3,1.6,0.9,2.2
	c0.2,0.2,0.3,0.3,0.5,0.4h0.1c0.2,0.1,0.3,0.2,0.5,0.2c0.3,0.1,0.6,0.1,0.9,0c0.1,0,0.2,0,0.3,0c0.3-0.1,0.6-0.3,0.8-0.5l0.1-0.1
	c0.1-0.1,0.2-0.3,0.3-0.4c0.1-0.2,0.2-0.4,0.2-0.6c0.1-0.3,0.1-0.7,0-1c0-0.2-0.1-0.4-0.2-0.6c-0.1-0.2-0.2-0.3-0.4-0.5
	c-0.2-0.2-0.5-0.4-0.8-0.5c-0.2-0.1-0.4-0.1-0.6-0.1c-0.2,0-0.4,0-0.6,0c-0.3,0.1-0.5,0.2-0.8,0.3c-0.3,0.2-0.5,0.6-0.5,1
	c0,0.2,0.1,0.3,0.2,0.5C509.7,287.3,509.8,287.4,510,287.6L510,287.6z"/>
<path d="M517,278.5c-3.3-0.7-6.7-1-10.2-0.9c0.1-0.8,1.1-1.2,1.9-1.3c2.9-0.4,5.9,0.2,8.5,1.7c-0.1,0.1-0.2,0.2-0.3,0.1"/>
<path d="M517.3,277.6c-3.4-1-6.9-1.6-10.4-1.9l1.8,2.4c0-0.2,0-0.2,0,0.1c0,0.3-0.2,0.3-0.1,0.1c-0.2,0.2-0.3,0.2-0.1,0.1
	c0.2-0.1,0.2-0.1-0.1,0c0.2-0.1,0.3-0.1,0.5-0.2h0.3c-0.3,0-0.3,0,0,0c0.9-0.1,1.8-0.1,2.7,0c0.1,0,0.7,0.1,0.3,0l0.7,0.1
	c0.5,0.1,0.9,0.2,1.4,0.4c0.9,0.2,1.8,0.5,2.6,0.8l-1.1-1.9v0.1l0.4-0.6l-0.1,0.1l0.6-0.4h-0.1c-0.7,0.2-1.1,1-0.9,1.7
	c0.1,0.3,0.3,0.6,0.6,0.8c0.5,0.3,1.2,0.3,1.8,0c0.7-0.4,0.9-1.4,0.5-2.1c-0.1-0.1-0.1-0.2-0.2-0.3c-0.9-0.9-2-1.6-3.3-2.1
	c-1.2-0.4-2.5-0.6-3.7-0.7c-1.2-0.1-2.4,0-3.5,0.3c-1.3,0.3-2.4,1.3-2.8,2.6c-0.3,1,0.4,2.1,1.4,2.3c0.3,0.1,0.6,0.1,0.9,0h0.3
	l0.7-0.1l1.2-0.1c0.9,0,1.7,0,2.5,0c1.7,0,3.3,0.1,5,0.3c1.1,0.1,1.3-1.6,0.3-1.9L517.3,277.6z"/>
<path d="M488.5,301.7c-0.7,0.4-1.1,1.2-0.8,1.9c0.3,0.7,0.7,1.3,1.4,1.6c1.4,0.9,3,1.4,4.6,1.5c1.6,0.1,3.1-0.2,4.5-0.9
	c1.5-0.7,2.8-2.7,1.4-4.2c-0.6-0.6-1.5-0.6-2.1,0c-0.2,0.2-0.3,0.4-0.4,0.6c0,0.2,0,0.4,0,0.6c0,0.2,0,0.3,0,0c-0.1,0.3,0.2-0.3,0,0
	c0.2-0.4,0.1-0.1,0,0c0.5-0.4-0.2,0.1-0.2,0.1s0.4-0.1,0,0l-0.3,0.1l-0.6,0.1h-0.2c-0.3,0,0,0,0.1,0c-0.6,0-1.3,0.1-1.9,0.2
	c-0.7,0-1.3,0-2-0.1h-0.4c0.2,0-0.3,0-0.3,0l-0.6-0.1l-0.5-0.2l-0.3-0.1c-0.1,0-0.3-0.2,0,0l-0.2-0.1c-0.2-0.1,0.2,0.2,0,0
	s0.1,0.2,0.1,0.2c0,0.1,0,0.2,0,0.3c0-0.1,0-0.1,0,0c0.3-0.4,0.2-1-0.2-1.3c-0.3-0.2-0.7-0.2-1,0L488.5,301.7z"/>
<path d="M488.5,316.1c0.5,0,1.1-0.1,1.6-0.2c0.4-0.1,0.9-0.1,1.3-0.2c0.9,0,1.7,0,2.6,0.1c0.9,0.1,1.9,0.3,2.8,0.5l1.5,0.4
	c0.6,0.3,1.3,0.4,2,0.5c0.9,0,1.8-0.5,2.1-1.4c0.3-0.9,0-1.8-0.8-2.4c-1.3-0.5-2.7-0.9-4.1-0.9c-1.1-0.2-2.3-0.3-3.4-0.2
	c-1.1,0-2.2,0.2-3.2,0.4c-1,0.3-2.6,0.6-3.2,1.6c-0.4,0.6-0.2,1.3,0.4,1.7C488.1,316,488.3,316.1,488.5,316.1z"/>
<path d="M494,321.1l0.4,0l0.1,0c0,0,0.2,0,0.2,0l0.8,0c0.6,0,1.1,0,1.7,0.1c0.5,0,1-0.4,1-0.9c0-0.5-0.4-1-0.9-1
	c-1.2,0-2.4,0-3.6,0.2c-0.5,0.1-0.8,0.6-0.7,1.1c0,0,0,0,0,0C493.1,320.9,493.6,321.2,494,321.1L494,321.1z"/>
<path d="M515.4,223.1c-8.1-2.1-16.5-3.9-24.8-3.3c-16.4,1.1-30.9,11.3-42.3,23.2c-2.3,2.4-4.5,4.9-5.3,8.1c-0.8,3.2,0.4,7.1,3.5,8.3
	c-1.2,0.9-1.8,2.5-1.5,4c0.3,1.5,1.5,2.7,2.9,3.1c-1.3,1.9,0.4,4.4,1.9,6.1c0.6,0.6,1.3,1.3,2.1,1.1c1.2-0.4,1-2.1,1.6-3.2
	c0.4-0.8,1.3-1.2,1.9-1.8c0.6-0.6,1-1.7,0.4-2.3c6.4,1.7,13.2,0.9,19.6-0.5c14.4-3.2,27.8-9.4,39.6-18.3c-1,2.6-0.3,5.6,1.9,7.4
	c2.2,1.6,6,0.8,6.9-1.8c-0.7,3.8,0,7.7,2.1,11c2.1,3.2,4.5,6.1,7.4,8.7c0.3,0.4,0.7,0.7,1.2,0.9c1.8,0.7,3.3-1.5,3.9-3.3
	c2.6-7.6,4.7-15.7,3.2-23.6s-7.4-15.4-15.4-16.3c-0.6-0.1-1.3,0-1.8,0.2c-0.5,0.3-0.7,1-0.4,1.6c0,0,0,0,0,0.1
	c0.5,0.6,1.5,0.2,1.8-0.5c0.2-0.7,0.2-1.5-0.1-2.2c-1.4-4.9-4.7-9.7-9.6-11c-0.6-0.2-1.1-0.2-1.7,0c-1.1,0.5-1.7,1.8-1.4,3
	c0.4,1.2,1,2.2,1.9,3.1"/>
<path d="M515.5,222.5c-7.2-1.9-14.6-3.6-22.2-3.5c-6.4,0.1-12.7,1.4-18.6,3.9c-5.7,2.4-11.1,5.6-15.9,9.4
	c-5.2,3.8-9.9,8.3-13.9,13.3c-2,2.3-3,5.2-3,8.2c0.1,2.7,1.6,5.2,4.1,6.5l-0.2-1.3c-2.1,1.7-2.3,4.8-0.6,6.9
	c0.6,0.8,1.5,1.3,2.4,1.6l-0.5-1.3c-0.8,1.7-0.6,3.8,0.6,5.3c0.9,1.4,2.6,3.7,4.5,3c1.9-0.7,1.3-3,2.6-4.2c1.3-1.2,3-2.5,1.8-4.4
	l-1,1.3c10.5,2.7,22.1-0.3,32-3.9c10-3.5,19.4-8.6,27.9-15l-1.4-1c-1,3.2-0.2,7.4,3.1,8.9c2.8,1.3,6.1,0.1,7.4-2.6
	c0-0.1,0-0.1,0.1-0.2l-1.8-0.5c-0.8,4.5,0.2,9.2,2.9,12.9c1.4,2,3,3.9,4.7,5.7c1.2,1.3,2.6,3.4,4.6,3.3c1.7,0,2.9-1.6,3.6-3
	c1-2.3,1.8-4.6,2.3-7c1.5-5,2.1-10.2,1.8-15.4c-0.7-7.9-5.2-15.9-12.8-18.9c-1.6-0.6-3.9-1.4-5.6-0.9c-1.1,0.3-1.8,1.4-1.6,2.5
	c0.1,0.2,0.2,0.5,0.3,0.7c0.8,0.8,2.1,0.8,2.9,0c0.1-0.1,0.2-0.3,0.3-0.4c1-1.6-0.1-3.9-0.8-5.4c-1.7-3.9-4.5-7.6-8.7-9.1
	c-1.9-0.6-4-0.4-4.8,1.7c-0.8,2.1,0.6,4.1,2.1,5.7c0.8,0.9,2-0.4,1.3-1.3c-0.7-0.9-2.8-3.4-1-4.5c1.2-0.8,3.9,0.9,4.8,1.6
	c2.2,1.8,3.8,4.1,4.7,6.7c0.3,0.6,0.5,1.2,0.7,1.9c0.3,1.1,0.7,1.6,1.8,1.7c1.5,0.2,2.9,0.6,4.2,1.3c2.4,1.2,4.4,3,6,5.2
	c3.4,4.9,5,10.9,4.3,16.9c-0.3,3.4-0.9,6.8-1.9,10.1c-0.4,1.6-2,9.4-4.7,7.6c-1.4-1.2-2.7-2.5-3.7-3.9c-1.3-1.4-2.5-2.9-3.5-4.5
	c-2.1-3.1-3-7-2.3-10.7c0.1-0.5-0.3-1-0.8-1.1c-0.4-0.1-0.9,0.2-1,0.6c-0.8,2.1-3.7,2.5-5.4,1.3c-2.1-1.4-2.3-4.2-1.6-6.4
	c0.2-0.7-0.7-1.5-1.3-1c-8.2,6.2-17.2,11.1-26.9,14.6c-9.8,3.5-21.2,6.7-31.6,4.1c-0.5-0.1-1,0.2-1.1,0.7c-0.1,0.2,0,0.4,0.1,0.6
	c0.6,1-1.5,2.2-2,2.8c-0.4,0.6-0.7,1.4-0.9,2.1c-0.2,0.8-0.2,1.3-1.4,0.6c-0.5-0.4-0.9-0.9-1.2-1.4c-0.8-1.2-1.7-2.6-0.9-4
	c0.3-0.4,0.1-0.9-0.3-1.2c-0.1,0-0.2-0.1-0.2-0.1c-1.7-0.5-2.7-2.2-2.2-3.9c0.2-0.7,0.6-1.2,1.1-1.7c0.3-0.4,0.3-0.9-0.1-1.2
	c0,0-0.1,0-0.1-0.1c-2.3-1.2-3.6-3.7-3.2-6.3c0.3-3,2.2-5.5,4.2-7.7c3.9-4.3,8.2-8.3,12.9-11.8c9.1-6.9,19.9-12,31.4-12.5
	c7.8-0.3,15.6,1.3,23.1,3.2c0.3,0.1,0.6-0.2,0.7-0.5C516,222.9,515.9,222.6,515.5,222.5L515.5,222.5z"/>
<g>
	<path class="st2" d="M417.4,583.1c-4.9,8.4-11.4,15.7-19,21.8c-1.3,1-2.6,2-3.9,2.9s-2.9,1.7-4.2,2.7c-0.7,0.4-0.8,1.3-0.4,2
		c0.4,0.6,1.2,0.8,1.9,0.5c2.9-1.5,5.7-3.4,8.2-5.6c7.9-6.3,14.5-14.2,19.2-23.2c0.2-0.5,0-1.1-0.5-1.3
		C418.2,582.6,417.8,582.7,417.4,583.1L417.4,583.1z"/>
	<path class="st2" d="M564.8,578.1c3.6,6,6.9,12.5,11.3,17.9c2,2.4,4.3,4.5,6.9,6.4c1.3,1,2.7,1.9,4,2.8c1.3,1,2.6,1.8,4.1,2.4
		c1.2,0.4,2.1-1.3,1.2-2.1c-1.2-1-2.4-1.8-3.7-2.5c-1.3-0.8-2.5-1.6-3.7-2.5c-2.6-1.8-5-3.9-7.1-6.3c-2.1-2.6-4-5.3-5.7-8.1
		c-1.9-3-3.9-6-5.8-9c-0.3-0.4-0.8-0.6-1.3-0.3C564.6,577.1,564.5,577.7,564.8,578.1z"/>
	<path class="st2" d="M411.2,577.3c8.4,6.1,18.8,8.1,29,9.1c11.2,1.1,22.6,1.5,33.8,1.6c22.9,0.4,45.7-1.8,68.2-6.4
		c12.7-2.7,25.1-6.5,37.2-11.4c1.2-0.5,0.7-2.4-0.5-1.9c-21.1,8.3-43.2,13.6-65.7,15.8c-22.4,2.2-45,2.4-67.5,0.8
		c-11.6-0.8-23.8-2.1-33.5-9.1C411.3,575.1,410.4,576.6,411.2,577.3L411.2,577.3z"/>
</g>
<path class="st1" d="M451.7,365.7c1.3,4.2,5,7.3,9.2,8.9c4.1,1.5,8.6,1.8,13,2c21.1,1,43,1.9,62.6-6c1.1-0.6,2.4-0.8,3.7-0.6
	c0.8,0.3,1.4,0.8,1.9,1.5c8.2,9.5,6,24.5-0.5,35.2c-4.8,8-11.5,14.7-18.5,21c-9.9,8.8-20.8,17.1-33.4,21c-12,3.6-24.8,3-36.4-1.6
	c-5.6-2.2-11.1-5.6-14.2-10.8c-2-3.7-3.2-7.8-3.5-12c-0.9-6.9-0.9-14,0-20.9"/>
<path class="st1" d="M527.1,360.7c23.2-2.1,46.4,2.9,66.6,14.4c20.8,11.9,37.2,30.1,53.2,47.9c1.7,1.9,3.4,3.9,3.7,6.5
	c0.3,2.8-1.4,5.4-3,7.7c-8.9,12.8-18.1,25.8-30.6,35.2c-5.8,4.3-12.5,7.8-19.7,8c-9.9,0.2-18.7-5.9-26.3-12.2
	c-6.8-5.6-13.3-11.6-19.5-17.8"/>
<path d="M604.8,479.8c9.4-2.5,10.1-3.2,17-9.1c7-6.2,13.3-13.1,18.7-20.8c2.8-3.7,5.4-7.6,8.1-11.4c2.5-3.6,4.7-7.5,2.8-11.9
	c-1-2-2.3-3.7-3.9-5.3l-4.7-5.2c-3.2-3.5-6.3-7-9.6-10.4c-13-13.6-27.2-26.5-44.2-34.9c-16.9-8.4-36.3-13-55.1-11.7
	c-2.4,0.1-4.7,0.4-7.1,0.6c-1.2,0.1-1.2,2,0,1.9l0.1-0.1c18.1-1.4,36.2,1.5,52.9,8.5c16.6,6.9,30.9,18.1,43.6,30.7
	c6.4,6.3,12.5,13,18.5,19.7c1.3,1.5,2.7,3,4,4.5c1.3,1.5,2.8,3.5,2.5,5.7c-0.5,2-1.4,3.9-2.8,5.5c-1.3,1.8-2.6,3.7-3.9,5.5
	c-5.1,7.4-10.7,14.4-16.9,20.9c-6,6.1-13.2,12.2-21.5,14.7L604.8,479.8z"/>
<path d="M750.7,299.5c2.7,11.5-5,21.8-10,31.4c-2.5,4.7-4.2,9.8-5.2,15.1c-0.9,5.5-1.2,11-1.1,16.6c0.1,11.6,0.5,23-0.4,34.6
	c-1,11.9-3,23.6-5.9,35.2c-5.1,19.8-13.4,39.8-28.6,53.9c-7.2,6.9-16,12-25.5,14.9c-9.4,2.8-19.5,2.9-28.9,0.2
	c-9.6-2.8-18.3-8-26.1-14c-4.1-3.1-8-6.5-11.7-10c-3.7-3.5-7.8-6.9-10.5-11.1c-1.4-2-2-4.4-1.7-6.8c0.4-2.2-2.9-3.2-3.5-0.9
	c-1.3,5.4,1.8,10.1,5.3,13.9c3.6,3.8,7.4,7.5,11.4,10.9c7.9,7,16.4,13.4,25.9,17.9c9.3,4.5,19.6,6.5,29.9,5.7
	c10.2-1.1,20-4.7,28.5-10.5c18-12,29-31.4,35.6-51.6c7.4-23,10.7-47.2,9.8-71.4c-0.4-11.7-1.3-23.7,2.7-34.9
	c3.8-10.6,11.7-19.6,12.7-31.1c0.2-2.8,0-5.5-0.7-8.2c-0.2-0.5-0.7-0.7-1.2-0.6c-0.4,0.2-0.7,0.6-0.6,1.1L750.7,299.5z"/>
<path d="M741.8,288.9c0.2,3,0,6.1-0.7,9.1c-0.2,0.6,0.2,1.1,0.7,1.3c0.5,0.1,1.1-0.2,1.2-0.7c0.7-3.2,0.8-6.4,0.5-9.6
	c0-0.5-0.4-0.9-0.9-0.9C742.2,288,741.8,288.4,741.8,288.9L741.8,288.9z"/>
<path d="M732.9,282.4c0.6,3.1,0.4,6.4-0.4,9.5c-0.2,0.5,0.2,1.1,0.7,1.3s1.1-0.2,1.3-0.7c0.9-3.4,0.9-7,0.2-10.5
	c-0.1-0.5-0.6-0.8-1.1-0.6C733.1,281.4,732.8,281.9,732.9,282.4z"/>
<path d="M720.1,275.1c0.4,4.5,0.2,9-0.7,13.4c-0.4,2.1-1,4.2-1.7,6.2c-0.7,2.2-1.8,4.1-2.7,6.2c-0.3,0.5,0,1.2,0.5,1.5
	c0.5,0.2,1.1,0.1,1.4-0.4c2.4-4,3.9-8.4,4.6-13c0.8-4.6,1-9.3,0.5-14C721.9,273.9,720,273.8,720.1,275.1L720.1,275.1z"/>
<path d="M721.5,319.6c0-2.7-0.5-5.3-1.4-7.8c-0.4-1.1-1-2.2-1.6-3.3c-0.7-1.1-1.6-2-2.3-3c-0.7-1.1-0.3-3.1-0.4-4.5
	c-0.1-1.4-0.3-2.9-0.7-4.3c-0.6-2.3-1.7-5-3.9-6.3c-2.2-1.3-4,0.3-5.3,2.1c-1.7,2.3-3.1,4.7-4.2,7.3c-2.3,5.2-3.4,10.8-3.3,16.5
	c0,3.2,0.4,6.3,1.2,9.4c0.6,3.3,1.9,6.4,3.7,9.2c0.8,1,2.7,0.5,2.2-0.9c-0.8-2.3-1.9-4.5-2.7-6.8c-0.7-2.3-1.2-4.7-1.5-7.1
	c-0.5-4.9-0.1-9.9,1.3-14.7c0.7-2.3,1.5-4.5,2.6-6.6c0.5-1.1,1.1-2.1,1.7-3.1c0.5-0.7,1.4-2.7,2.2-3c2.2-0.7,3.5,4.9,3.8,6.2
	c0.2,1.2,0.4,2.4,0.4,3.6c-0.1,1.1-0.1,2.2,0.2,3.3c0.5,1,1.2,1.9,2,2.6c0.8,1,1.5,2,2.1,3.2c1.3,2.5,2,5.3,2,8.1
	c0.1,0.5,0.5,0.9,1.1,0.8C721.2,320.4,721.5,320.1,721.5,319.6L721.5,319.6z"/>
<path d="M702.5,333.3c-1.9,17.8-6,35.3-12.1,52.1c-6.3,17-15.1,32.6-25.1,47.6c-3,4.3-5.7,8.8-8.1,13.4c-2.3,4.8-4.2,9.9-5.6,15
	c0,0.7,0.7,1.3,1.4,1.2c0.4,0,0.8-0.2,1-0.6c1.5-4.7,3.2-9.3,5.3-13.8c2.2-4.3,4.7-8.4,7.5-12.4c5.3-7.4,10.1-15,14.5-23
	c8.6-15.8,15-32.6,19.1-50.1c2.2-9.7,3.7-19.6,4.4-29.5C704.7,331.9,702.6,331.9,702.5,333.3L702.5,333.3z"/>
<path d="M660.5,440.9c-1.2-1.2-2.5-2.3-3.9-3.4c-1.3-1.1-2.7-2.3-4-3.4c0,0-2-2-3.1-1.9c-0.8,0-1.4,0.6-1.4,1.4
	c0.1,1.1,1.2,1.6,2.6,2.7s2.8,2.1,4.2,3.2c1.4,1.1,2.9,2.2,4.5,3c0.5,0.3,1,0.1,1.3-0.4C660.8,441.7,660.8,441.2,660.5,440.9
	L660.5,440.9z"/>
<path class="st1" d="M459.8,360.7c-23.1-2.1-46.4,2.9-66.6,14.4C372.5,387,356.1,405.2,340,423c-1.7,1.9-3.4,3.9-3.7,6.5
	c-0.3,2.8,1.4,5.4,3,7.7c8.9,12.8,18.1,25.8,30.6,35.2c5.8,4.3,12.5,7.8,19.7,8c9.9,0.2,18.7-5.9,26.3-12.2
	c6.8-5.6,13.3-11.6,19.5-17.8"/>
<path d="M459.8,359.7c-19-2-38.2,0.8-55.9,8.3c-17.5,7.4-32.3,19.5-45.6,32.7c-6.6,6.7-13,13.6-19.2,20.6c-2.9,3.2-5.6,6.8-4.2,11.4
	c0.8,2.1,1.8,4,3.2,5.8l4,5.7c5.3,7.7,11.2,15,17.7,21.7c6.5,6.4,6.8,8.8,15.7,11.3c8.9,2.5,15.3-2.5,6.7-2.7
	c-9.1-0.1-9.8-2-16.2-7.8c-6.5-5.9-12.3-12.5-17.4-19.6c-2.6-3.6-5.2-7.3-7.8-10.9c-1.3-1.5-2.2-3.3-2.7-5.2c-0.4-2.3,1-4.3,2.4-6
	c5.7-6.6,11.7-13.1,17.8-19.5c12.4-12.8,25.9-24.7,42.1-32.6c18.4-9,38.8-13,59.3-11.4C461,361.7,461,359.8,459.8,359.7L459.8,359.7
	z"/>
<path d="M382,475.4c-3.6,3.6-4.2,4-8,7.3c-7.6,6.5-15.9,12.5-25.1,16.3c-9,4-19,5.3-28.8,3.9c-9.8-1.7-19-5.7-26.8-11.8
	c-16.6-12.4-26.4-31.8-32.2-51.3c-6.5-22.4-9.5-45.6-8.6-68.9c0.3-10.9,0.8-22.3-3-32.8c-3.7-10.5-11.6-19-13.4-30.1
	c-0.5-2.8-0.4-5.7,0.2-8.5c0.1-0.5-0.3-1-0.8-1.1c-0.5-0.1-0.9,0.2-1.1,0.6l0-0.1c-3.2,11.4,3.4,21.8,8.4,31.5
	c2.8,5.1,4.7,10.6,5.7,16.3c0.8,5.9,1.1,11.9,0.8,17.8c-0.3,12.2-0.6,24.3,0.6,36.6c1.2,12.1,3.4,24.1,6.6,35.8
	c5.6,20.5,15.1,41,31.8,54.7c7.9,6.7,17.2,11.4,27.2,13.8c10,2.3,20.5,1.7,30.2-1.6c9.9-3.4,18.8-9.1,27-15.6
	c4.1-3.3,8.1-7.4,11.9-11.1L382,475.4z"/>
<path d="M243.3,288.9c-0.4,3.2-0.2,6.5,0.5,9.6c0.2,0.5,0.7,0.8,1.2,0.7c0.6-0.2,0.9-0.7,0.7-1.3c0,0,0,0,0,0c-0.7-3-0.9-6-0.7-9.1
	c0-0.5-0.4-0.9-0.9-0.9C243.7,287.9,243.3,288.3,243.3,288.9L243.3,288.9z"/>
<path d="M252.2,281.9c-0.7,3.5-0.6,7.1,0.2,10.5c0.2,0.5,0.8,0.8,1.3,0.6c0.5-0.2,0.8-0.7,0.7-1.2c-0.8-3.1-1-6.3-0.4-9.5
	c0.1-0.5-0.2-1-0.6-1.1C252.9,281.1,252.4,281.4,252.2,281.9z"/>
<path d="M264.8,275.1c-0.5,4.7-0.4,9.4,0.5,14c0.7,4.6,2.3,9,4.6,13c0.3,0.5,1,0.6,1.5,0.3c0.4-0.3,0.6-0.9,0.4-1.4
	c-0.9-2-1.9-3.9-2.6-6c-0.7-2.1-1.3-4.3-1.8-6.5c-0.9-4.4-1.1-8.9-0.7-13.4C266.9,273.8,265,273.9,264.8,275.1L264.8,275.1z"/>
<path d="M267.3,319.6c0.2-4.7,2-9.1,5.3-12.5c1.5-1.8,0.9-3.9,1.1-6.1c0.1-2.6,0.9-5.1,2.3-7.3c0.4-0.5,0.8-1,1.4-1
	c0.6,0,1,0.6,1.4,1.2c0.7,0.9,1.3,1.9,1.9,2.9c1.2,2.1,2.2,4.3,3,6.6c1.6,4.6,2.3,9.4,2.1,14.3c-0.1,2.8-0.6,5.6-1.3,8.4
	c-0.8,2.8-2.1,5.2-3,7.9c-0.5,1.4,1.5,2,2.2,0.9c1.5-2.4,2.6-5,3.3-7.8c0.8-2.8,1.3-5.6,1.5-8.5c0.4-5.7-0.4-11.5-2.5-16.9
	c-1-2.6-2.2-5.1-3.7-7.4c-1.1-1.8-2.6-4.5-5.1-4.3c-2.5,0.2-3.8,2.7-4.6,4.6c-1.1,2.7-1.6,5.5-1.5,8.4c0.2,0.9,0,1.7-0.4,2.5
	c-0.4,0.5-0.9,1-1.3,1.5c-0.9,1.2-1.6,2.4-2.2,3.8c-1.2,2.7-1.8,5.7-1.8,8.7c0.1,0.5,0.5,0.9,1.1,0.8
	C266.9,320.4,267.2,320.1,267.3,319.6L267.3,319.6z"/>
<path d="M282.3,333.3c2.3,36,15.6,70.7,36.2,100.2c3.1,4.2,5.9,8.6,8.4,13.2c2.5,5,4.5,10.1,6.2,15.4c0.4,0.6,1.2,0.8,1.8,0.5
	c0.4-0.2,0.6-0.7,0.6-1.1c-2.5-9-6.5-17.6-11.7-25.5c-5-7.6-10.1-15.1-14.5-23.1c-8.6-15.7-15.2-32.4-19.5-49.8
	c-2.4-9.8-4.2-19.8-5.3-29.8C284.3,331.9,282.2,331.8,282.3,333.3L282.3,333.3z"/>
<path d="M327.6,442.5c1.5-0.9,3-1.9,4.4-3c1.4-1.1,2.9-2.2,4.3-3.3c1.4-1.1,2.7-2.1,4-3.2c0.7-0.6,1.4-1.1,2-1.7
	c0.7-0.6,1.6-1.2,1.7-2.4c0-0.8-0.6-1.4-1.4-1.4c-1-0.1-1.7,0.8-2.4,1.4c-0.7,0.6-1.3,1.1-1.9,1.7l-4,3.5c-1.3,1.1-2.6,2.2-3.9,3.3
	c-1.4,1.1-2.7,2.2-4,3.5c-0.4,0.4-0.4,1,0,1.4C326.8,442.6,327.2,442.7,327.6,442.5L327.6,442.5z"/>
<path class="st3" d="M902.5,197l-39.6-0.8c-14.3-0.3-28.9-0.5-42.5,3.8s-26.4,14-30.5,27.7c-2.4,8-1.7,16.6-2.1,24.9
	c-0.4,8.3-2.3,17.3-8.6,22.9c-2.7,2.4-6.3,4.7-6.1,8.2c0.3,4.4,6.2,5.8,9.1,9.1c4.4,4.8,1.9,13.4,6.3,18.2
	c4.8,5.3,13.9,2.5,20.1,6.1c6.1,3.6,6.4,14,0.4,17.9c-4.9,3.2-12.4,2.4-15.5,7.4c-0.8,1.5-1.2,3.2-1.2,4.9
	c0.2,9.8,10.8,15.7,20.3,18.1c28.8,7.3,60.5,0.9,88.1,12.2c9.1,3.8,17.5,9.4,26.7,13.2c-6.3-6.2-11.9-13.1-16.8-20.5
	c10.9-0.4,22.4-0.9,31.6-6.7c13.8-8.7,18.4-26.5,20.1-42.7c3-27.4,1.1-55.2-4.5-82.2c-2.2-10.8-5.4-22-13.4-29.5
	C936.8,202,913.3,198.2,902.5,197"/>
<path d="M902.5,196.3l-26.8-0.6c-8.8-0.2-17.5-0.5-26.3-0.5c-15.3,0.1-31.1,2.1-44.1,10.9c-5.5,3.7-10.2,8.6-13.5,14.3
	c-3.8,6.8-4.7,14.3-4.9,21.9c-0.2,7.6,0.1,15.2-2.3,22.4c-1,3.3-2.8,6.4-5.2,8.9c-2.2,2.2-5.2,3.9-6.6,6.7c-1.3,2.5-0.8,5.5,1.2,7.4
	c1.9,2,4.6,3.1,6.7,4.9c4.8,4.2,2.9,11.7,5.7,16.9c3.2,5.9,10.1,5.7,15.9,6.6c2.8,0.4,5.8,1.2,7.7,3.4c1.6,2,2.5,4.5,2.3,7.1
	c-0.1,2.6-1.2,5-3.1,6.7c-2.2,1.9-5.3,2.4-8,3.2c-2.7,0.7-5.5,1.6-7.5,3.7c-2.4,2.5-2.8,6.1-2.2,9.3c1.1,6,6.1,10.4,11.2,13.2
	c6.2,3.3,13.2,4.7,20.1,5.8c15.9,2.4,32,2,47.9,3.5c7.9,0.7,15.7,2.1,23.3,4.4c7.9,2.4,15,6.4,22.2,10.2c3.6,1.9,7.1,3.7,10.8,5.2
	c1.2,0.5,2-1.3,1.2-2.1c-6.2-6.1-11.8-12.9-16.6-20.3l-1.1,1.8c8.5-0.3,17.4-0.6,25.4-3.6c7.1-2.7,13.2-7.5,17.4-13.9
	c4.1-6.1,6.5-13.2,8.1-20.4c1.7-8.3,2.7-16.8,3.1-25.3c1-19.6-0.2-39.3-3.5-58.6c-1.5-8.7-3-17.5-6.1-25.7
	c-2.5-6.6-6.3-13.6-12.3-17.5c-5.2-3.3-11.4-5.1-17.3-6.5c-6.3-1.5-12.7-2.7-19.2-3.5c-1.2-0.2-2.4-0.3-3.7-0.4s-1.3,1.9,0,2.1
	c5.8,0.6,11.5,1.5,17.2,2.7c6.2,1.3,12.6,2.9,18.3,5.6c2.4,1,4.5,2.5,6.4,4.2c2.7,2.7,4.9,5.9,6.6,9.4c3.6,7.3,5.2,15.4,6.7,23.4
	c3.6,18.7,5.2,37.8,4.8,56.8c-0.1,8.9-0.8,17.7-2.1,26.5c-1.1,7.1-2.8,14.2-6,20.7c-3.1,6.3-7.5,12-13.6,15.5
	c-7.2,4.3-15.7,5.3-23.9,5.8c-2.1,0.1-4.1,0.2-6.2,0.2c-0.7,0-1.2,0.6-1.2,1.3c0,0.2,0.1,0.4,0.1,0.5c4.9,7.5,10.6,14.5,17,20.7
	l1.2-2.1c-7.5-3.1-14.4-7.5-21.8-11c-7-3.3-14.5-5.7-22.2-7.1c-15.5-2.9-31.3-2.6-46.9-3.7c-7.8-0.5-15.6-1.6-23.3-3.4
	c-5.9-1.4-11.9-3.9-16.2-8.4c-3.9-4.1-6.2-12.1-0.1-15.5c4.9-2.7,11.3-2.1,14.9-7c3.1-4.4,3.1-10.2,0.1-14.6
	c-3.7-5.1-10.2-4.8-15.8-5.6c-2.8-0.4-5.8-1.2-7.6-3.6c-1.8-2.4-2.1-5.7-2.6-8.6s-1-5.9-2.8-8.3c-1.7-2.2-4.3-3.5-6.5-5.1
	c-2.2-1.6-3.8-3.8-2.2-6.4c1.6-2.6,4.7-4.3,6.8-6.6c4.5-5.1,6.2-11.9,6.9-18.4c0.8-8-0.1-16.1,1.3-24c1.2-6.8,4.4-13,9.1-18
	c10.1-10.7,24.7-15.2,39.1-16.6c8.3-0.6,16.6-0.8,25-0.5l26.4,0.4l13,0.2c0.4,0,0.7-0.4,0.6-0.8C903,196.7,902.8,196.4,902.5,196.3
	L902.5,196.3z"/>
<path class="st3" d="M137.8,684.9c8.9-9.4,12-26.3,8.4-38.7c-2.2-7.3-6.5-13.7-10.1-20.3c-6.5-11.8-10.9-25.2-8.9-38.5
	c2.2-14.9,12.1-27.2,21.7-38.9c8.5-10.2,17.2-20.5,27.8-28.5c3.6-2.8,7.6-5.3,12.1-6c7.9-1.3,15.5,3.2,23.3,5.2
	c8,2,16.5,1.3,24.1-1.9c4.8-2.1,11.6-4.6,14.3-0.1c3.2,5.2-4.4,12.6-0.7,17.3c1.9,2.4,6.4,3.5,5.9,6.5c-0.3,1.1-1,2.1-1.9,2.8
	c-5.1,4.8-9.1,11.5-8.3,18.5c0.8,7,7.6,13.4,14.4,11.6c4.1-1.1,7.2-4.6,11.2-5.9c5.9-1.8,12.3,2,15.4,7.3c3.2,5.3,3.7,11.6,4.1,17.7
	c0.4,6.7,0.5,13.5-1.4,19.9c-1.9,6.4-5.9,12.2-10.2,17.4c-12,14.9-27.6,26.5-45.3,33.7c-17.7,7-37.6,8.8-56,4
	c-5.8-1.5-12-3.7-17.7-1.8c-3.7,1.3-6.7,4-9.5,6.7L137.8,684.9"/>
<path d="M138.5,685.5c5.6-6,8.7-14.1,9.8-22.2c1.3-8.7-0.1-17.6-4.1-25.5c-2.3-4.6-5-9-7.4-13.5c-2.5-4.7-4.5-9.5-6.1-14.6
	c-3-9.9-3.6-20.2-0.1-30.1c3.2-9.4,9.2-17.6,15.4-25.2c6.4-8.2,13.3-16,20.5-23.5c3.7-3.8,7.6-7.2,11.8-10.4c4-3,8.5-5.5,13.7-5.4
	c5.2,0.1,9.9,2.2,14.7,3.9c4.8,1.8,9.8,2.7,14.9,2.7c5.1-0.1,10.2-1.1,14.9-3.1c3-1.3,7.6-3.6,10.9-2.2c3.3,1.4,1.9,6,1,8.6
	c-1,3.1-2.2,6.7-0.4,9.7c1,1.4,2.3,2.5,3.8,3.4c1.4,0.9,3,1.9,1.6,3.6s-3.3,3.3-4.7,5.2c-1.4,1.9-2.6,3.9-3.5,6.1
	c-1.8,4.1-2.1,8.7-0.6,13c1.4,3.8,4.3,7,8.1,8.7c3.8,1.6,8.2,1.2,11.7-1.1c3.8-2.3,7.2-5.3,11.9-4.1c10.5,2.5,12.1,14.7,12.7,23.6
	c0.5,5.5,0.3,11-0.6,16.5c-1.2,5.1-3.3,9.9-6.4,14.1c-5.7,8-12.4,15.2-19.9,21.4c-15.4,13-34.5,21.8-54.7,23.7
	c-10.5,1-21.1,0-31.3-2.8c-4.9-1.3-10.1-2.8-15.2-1.6c-4.7,1.1-8.3,4.5-11.7,7.8c-4.1,4-8.2,7.9-12.2,11.9c-1.2,1.1,0.6,2.9,1.8,1.8
	c4.3-4,8.6-8.1,12.9-12.1c4-3.7,8-6.9,13.7-6.7c5.4,0.1,10.7,2.3,15.9,3.5c5.2,1.1,10.4,1.7,15.7,1.8c20.8,0.5,41.1-6.2,58.2-17.8
	c8.1-5.6,15.5-12.1,22.1-19.5c6.9-7.8,13.2-16.4,14.7-26.9c0.6-5.4,0.7-10.9,0.2-16.4c-0.1-5.1-1.1-10.1-3-14.8
	c-3.6-8.1-12.8-13.8-21.3-9.3c-3.8,2-7.3,5.7-11.9,4.7c-4.2-1.1-7.4-4.4-8.5-8.5c-1.3-4.8,0.5-9.8,3.2-13.8c1.4-2,3-3.8,4.7-5.5
	c1.4-1.4,2.6-3.2,1.9-5.3c-1-3.3-5.7-3.7-6.6-6.9c-0.3-1.6-0.1-3.2,0.5-4.7c0.6-1.7,1.1-3.4,1.5-5.2c0.7-3.4-0.1-7.1-3.5-8.7
	s-7.8-0.3-11.1,1c-4.8,1.9-9.3,3.5-14.5,3.8c-5.4,0.2-10.7-0.7-15.8-2.5c-4.8-1.7-9.6-3.6-14.7-3.9c-4.9-0.1-9.8,1.3-13.8,4.2
	c-8.8,5.7-16.3,13.6-23.1,21.5c-6.9,7.7-13.4,15.7-19.4,24.1c-5.6,8.1-10,17.2-11.1,27.1c-1.1,10.5,1.6,21,6,30.5
	c4.3,9.5,11.1,17.9,13.9,28c2.2,8.6,1.6,17.6-1.6,25.9c-1.5,4-3.7,7.6-6.5,10.8C136.3,685.1,137.7,686.4,138.5,685.5L138.5,685.5z"
	/>
<g>
	<path class="st4" d="M865.6,660.6c-19-9.7-26.3-32.9-29.6-54s-4.9-44-18.6-60.4c-7.4-8.8-17.5-14.8-27.4-20.6
		c-12.1-7.1-26.6-14.4-39.5-8.9c-5.8,2.5-10.3,7.2-15.3,11c-8.6,6.4-19,9.9-29.7,10.2c-2.9,0.1-6.4,0.2-7.9,2.6
		c-3,4.8,5.6,9.8,5.1,15.4c-0.7,8-17.3,7.8-15.9,15.6c0.4,1.6,1.3,3.1,2.5,4.2c3.7,4.1,7.6,8.2,9.4,13.4c1.8,5.2,0.6,11.9-4.2,14.7
		c-7.7,4.5-17.7-3.9-26-0.7c-6.3,2.5-8.3,10.8-7.1,17.5c2.1,11.3,10.5,20.3,19.3,27.7c17.9,15.1,39,26.7,61.9,32
		c22.8,5.3,47.4,4,69-5c9-3.8,17.5-8.9,26.8-11.9c9.3-3,20-3.8,28.6,0.9"/>
	<path d="M866,659.9c-17.5-9.2-24.4-29.5-27.8-47.7c-3.8-20.5-4-42.6-15.3-60.8c-5.9-9.5-14.6-16.3-24-22.1
		c-9.6-6-19.9-12.5-31.1-15c-5.3-1.3-11-1.1-16.2,0.6c-5.2,1.9-9.4,5.5-13.6,8.9c-8.9,7.4-19.5,12.1-31.2,12.6
		c-4,0.2-9.9,0-10.9,5.1c-0.8,3.7,2.4,6.9,4.2,9.8c0.9,1.5,1.8,3.2,1.4,4.9c-0.3,1.3-1.1,2.4-2.2,3.1c-2.5,2-5.6,3-8.3,4.5
		c-2.5,1.3-5,3.2-5.4,6.2c-0.1,2.1,0.6,4.2,2.1,5.7c1.7,2.1,3.7,4.1,5.4,6.3c3.2,3.9,5.8,8.7,5.1,13.9c-0.6,4.6-3.9,7.9-8.6,8
		c-4.5,0.1-8.9-1.9-13.3-2.5c-4.5-0.6-8.9,0-12.1,3.4c-6.7,7.1-4.4,18.5-0.3,26.2c5.1,9.6,13.8,16.9,22.3,23.5
		c9,7,18.8,13,29.1,17.9c21.1,9.9,44.7,14.6,68,11.9c11.8-1.4,23.2-4.6,33.9-9.7c10.7-5,21.4-11.3,33.5-12.2c5.5-0.5,11,0.5,16,3
		c1.4,0.7,2.6-1.3,1.2-2.1c-9.9-5.4-21.7-4.1-31.9-0.3c-11.2,4.1-21.3,10.4-32.7,14c-22.4,7.1-46.8,6.4-69.3-0.5
		c-10.6-3.3-20.8-7.9-30.4-13.6c-9.7-5.6-18.7-12.4-26.8-20c-7.1-6.8-14.4-16.1-14.2-26.5c0.1-4.1,1.4-8.9,5.2-11.2
		c3.7-2.2,8.7-1.1,12.8-0.1c4.1,1,8.8,2.4,13,0.8c4.1-1.6,6.9-5.3,7.3-9.7c0.7-4.8-1-9.4-3.7-13.3c-1.6-2.2-3.3-4.4-5.2-6.4
		c-1.5-1.6-3.9-3.6-3.7-6c0.1-2.6,3.3-4,5.2-5c2.8-1.4,5.7-2.5,8.1-4.6c2.4-2.1,3.3-5.4,2.1-8.4c-0.8-1.8-1.8-3.5-2.9-5.1
		c-0.9-1.3-2.1-2.9-2.2-4.5c-0.2-2.1,1.8-3.2,3.6-3.5c2.5-0.5,5.2-0.2,7.8-0.5c5.5-0.6,10.9-2,15.9-4.2c5.1-2.3,9.8-5.3,14-8.9
		c4.3-3.5,8.5-7.3,13.9-8.9c11.1-3.3,22.7,2.3,32.2,7.6c9.5,5.3,19.7,11.1,27.5,19c15.3,15.4,17.8,38.2,20.8,58.6
		c2.7,18.1,6.9,38,20.4,51.4c3.1,3.1,6.7,5.7,10.6,7.7C866.2,661.8,867,660.4,866,659.9L866,659.9z"/>
</g>
<path d="M544.1,371.7c-0.6-1.1-2.6-3.3-4.8-3.3c-2.4,0-4.9,1.5-7.2,2.2c-4.9,1.7-9.9,2.9-14.9,3.7c-10.2,1.4-20.6,2-30.9,1.5
	c-5.2-0.1-10.5-0.3-15.7-0.6c-5-0.3-10.3-1.1-14.3-4.4c-1.7-1.4-3-3.2-3.7-5.3c-0.4-1.2-2.2-0.7-1.9,0.5V366
	c2.6,8.7,12.1,11.1,20.1,11.7c9.9,0.8,19.9,1.1,29.8,0.9c9.7-0.1,19.3-1.5,28.6-4c2.3-0.7,4.6-1.5,6.9-2.3c1-0.4,2.5-1.2,3.5-0.7
	c0.9,0.6,1.7,1.2,2.2,2.4C542.6,375.1,544.7,372.8,544.1,371.7z"/>
</svg>
