<?xml version="1.0" encoding="utf-8"?>
<!-- Generator: Adobe Illustrator 26.2.1, SVG Export Plug-In . SVG Version: 6.00 Build 0)  -->
<svg version="1.1" id="Capa_1" xmlns="http://www.w3.org/2000/svg" xmlns:xlink="http://www.w3.org/1999/xlink" x="0px" y="0px"
	 viewBox="0 0 1000 1000" style="enable-background:new 0 0 1000 1000;" xml:space="preserve">
<style type="text/css">
	.st0{fill:#3F67AE;}
	.st1{fill:#E73164;}
	.st2{fill:#FFFFFF;}
	.st3{fill:#002F6C;}
	.st4{fill:#BA0C2F;}
	.st5{fill:#205493;}
</style>
<path class="st0" d="M191,378.7c15.2,5.7,31.1,9.5,47.3,11.4c5.7,0.7,11.6,1,17.1-0.6c6.6-2,11.9-6.8,16.6-11.9
	c15.6-16.9,25.7-37.9,35.6-58.6c1.5-3.1,3-6.6,1.6-9.7c-0.9-2.2-3.1-3.6-5.1-4.9l-7.8-5c-1.4-1-3-1.7-4.7-2c-4.1-0.5-7.3,3.5-9.6,7
	c-3.7,5.4-7.8,10.5-12.2,15.4c-4.2,4.6-8.8,9-14.4,11.7c-6.4,3-13.6,3.7-20.7,3.8c-12.7,0.1-25.4-1.4-37.6-4.7"/>
<path class="st0" d="M190.8,379.5c9.8,3.8,19.9,6.8,30.1,8.9c5.1,1.1,10.3,1.9,15.5,2.6c5,0.6,10.2,1.2,15.2,0.5
	c9.5-1.3,16.7-7.9,22.8-14.8c6.3-7.3,12-15.1,16.9-23.5c5-8.4,9.4-17.1,13.7-25.9c1.1-2.2,2.1-4.3,3.1-6.5c1.1-2.1,2-4.3,2.6-6.5
	c0.6-2.1,0.3-4.4-0.7-6.3c-1.2-1.8-2.7-3.2-4.6-4.3c-2.2-1.4-4.4-2.8-6.6-4.2c-2-1.3-4-2.9-6.4-3.3c-4.1-0.8-7.4,2.1-9.8,5.1
	c-3.1,4-5.8,8.1-9,12c-3.1,3.9-6.5,7.5-10.2,10.9c-3.5,3.3-7.6,5.8-12.1,7.4c-4.7,1.4-9.6,2.2-14.5,2.2c-10.7,0.3-21.3-0.7-31.7-2.9
	c-2.6-0.5-5.2-1.1-7.8-1.8c-0.7-0.2-1.5,0.3-1.6,1c-0.2,0.7,0.2,1.4,0.9,1.6c9.9,2.7,20.1,4.2,30.3,4.6c9.5,0.4,19.6,0.4,28.4-3.6
	c8.4-3.8,14.9-11.3,20.6-18.4c3-3.7,5.6-7.6,8.5-11.4c1.1-1.6,2.6-3,4.3-3.9c2.1-1,4.1-0.3,6,0.8c2.2,1.3,4.3,2.7,6.5,4.1
	c2,1.1,3.8,2.4,5.5,3.9c3.7,3.7,0.6,8.9-1.3,12.7c-4.1,8.5-8.2,17-12.8,25.3c-4.5,8.2-9.6,16.1-15.3,23.5
	c-5.4,6.9-11.7,14.4-19.9,18c-4.6,2-9.6,2.3-14.5,2c-5.1-0.4-10.1-1-15.1-1.9c-10-1.7-19.8-4-29.4-7.1c-2.4-0.8-4.8-1.6-7.1-2.5
	C190.3,377.6,189.8,379.2,190.8,379.5L190.8,379.5z"/>
<path d="M39.8,738.5C37.3,756.7,35,775,33,793.3s-4,36.5-5.8,54.7c-0.9,9.2-1.7,18.3-2.5,27.5c-0.2,2.2-0.4,4.5-0.6,6.7
	c-0.3,1.9-0.3,3.9-0.1,5.8c0.6,2.9,2.5,5.4,5.2,6.8c2.2,1.1,4.5,1,6.9,1l9.8,0.1l26.3,0.2l9,0.1c2.6,0,5.3,0.2,7.6-1
	c2.7-1.6,3.7-5.1,2.1-7.8c0,0,0,0,0,0c-0.9-1.6-2-3-3.2-4.3c-1.2-1.4-2.6-2.8-4-4.1c-2.7-2.5-5.8-4.6-9.1-6.3
	c-1.6-0.9-3.4-1.5-4.9-2.5c-1.8-1.2-2.1-3-1.7-5c0.5-1.9,1.1-3.7,1.9-5.5c0.8-2,1.5-4.1,2.3-6.2c1.5-4.1,2.9-8.1,4.2-12.2
	c2.8-8.2,5.3-16.5,7.6-24.9c4.6-16.7,8.5-33.6,11.4-50.6c3-17.1,5.1-34.3,6.3-51.6c0.3-4.2,0.5-8.5,0.7-12.7c0.1-1.5-2.3-1.5-2.3,0
	c-0.8,17-2.4,34-4.9,50.9s-5.8,33.5-9.9,50s-9,32.6-14.7,48.5c-1.4,3.9-3,7.8-4.3,11.7c-1.1,3.2-1.4,6.9,1.6,9.2
	c1.5,1,3.2,1.8,4.8,2.5c1.6,0.8,3.2,1.8,4.7,2.8c3.1,2.1,5.9,4.6,8.3,7.4c1.7,2,5.8,6.3,2.2,8.6c-1.5,0.9-3.4,0.9-5.1,0.9
	c-1.9,0-3.8,0-5.7-0.1l-24.6-0.2l-18.8-0.2c-4.3,0-7.9-3.2-7.6-7.7c0.5-9,1.6-18,2.4-26.9c1.7-17.8,3.4-35.7,5.2-53.5
	s3.9-35.8,6-53.6l1.6-13.1C41.6,737.4,39.9,737.5,39.8,738.5L39.8,738.5z"/>
<path d="M229.5,773.2c7.6,25.6,15.2,51.1,22.7,76.7l11.4,38.3c0.7,2.3,1.2,5.3,3.5,6.6s5.6,1,8.2,1.1c6.6,0.2,13.2,0.3,19.8,0.2
	c6.6-0.1,13.2-0.4,19.8-0.8c2.2-0.2,5.1-0.1,6.8-1.8s0.8-4.5-0.1-6.5c-3.5-8.1-11.4-13-17.8-18.5c-3.4-2.7-6.2-6.1-8.4-9.9
	c-2.8-5.4-3.2-11.9-4-17.8c-1.6-12.6-2.5-25.2-3.2-37.8c-1.4-25.1-2.4-50.4-7.8-75.1c-0.7-3.1-1.4-6.1-2.3-9.2
	c-0.2-0.6-0.7-0.9-1.3-0.7c-0.6,0.2-0.9,0.7-0.7,1.3c6.2,23.9,7.8,48.5,9.1,73c0.7,12.2,1.3,24.5,2.5,36.7
	c0.6,6.1,1.3,12.2,2.2,18.2c0.8,5.3,1.9,10.5,4.9,15c4.8,7.1,12.4,11.5,18.5,17.3c2.9,2.8,5.8,6.3,6.9,10.4c0.8,3.2-3.8,2.9-5.8,3
	c-3.1,0.2-6.3,0.4-9.4,0.5c-6.4,0.3-12.9,0.4-19.3,0.3c-3.2,0-6.4-0.1-9.7-0.2c-1.6,0-3.1-0.1-4.7-0.2c-1.3-0.1-2.7-0.1-3.6-1.1
	c-0.7-1-1.2-2.1-1.4-3.3l-1.4-4.8l-2.8-9.5l-5.6-18.4c-7.5-24.8-15-49.6-22.6-74.4l-2.8-9.1c-0.1-0.4-0.6-0.7-1-0.5
	C229.7,772.4,229.4,772.8,229.5,773.2L229.5,773.2z"/>
<path class="st1" d="M84.6,422.1C75.1,445.2,65.9,469,65.3,494c-0.4,14.8,2.3,29.5,1.5,44.2C66,553.8,61.2,568.9,57,584
	c-14.4,50.5-24.5,102-30.2,154.2c-0.4,3.6-0.8,7.4,0.4,10.8c1.5,4.3,5.1,7.4,8.7,10.1c32,24.3,72.5,35.7,112.7,36.4
	s79.9-8.6,117.5-22.6c9.7-3.6,20.3-8.7,23.3-18.5c1.7-5.7,0.5-11.9-0.9-17.7c-7-31.3-13.9-62.5-20.9-93.8
	c-4.3-19.2-8.5-38.4-13.5-57.4c-14.4-55-34.5-108.3-60.1-159"/>
<path class="st2" d="M211.8,220.3c2.9,6.1,7.2,11.4,12.6,15.5c1.8,1.4,4,3.5,2.8,5.5c-0.4,0.5-0.8,1-1.3,1.4c-1.9,2.1-0.9,5.4,0,8
	c2,5.6,3.4,12.2,0.4,17.4s-9.3,7-15.2,7.6c-16.1,1.6-33.7-4.9-41.8-19c-3.8-6.6-5.2-14.3-5.2-21.8c0-5.6,0.9-11.4,3.8-16.3
	c5.1-8.8,16.2-13,26.3-12C201.1,207.3,209.5,213.7,211.8,220.3"/>
<path d="M170,256.4c-3-6-4.6-12.6-4.7-19.3c-0.2-6.3,0.5-13,3.9-18.5c3-4.5,7.4-7.8,12.6-9.4c4.9-1.6,10.8-2.4,15.7-0.6
	c6,2.1,10.9,6.5,13.6,12.2c0.4,0.9,1.9,0.3,1.6-0.7c-1.8-5.7-7-10.4-12.2-12.8s-11.4-2.4-17-1c-5.7,1.3-10.8,4.4-14.6,8.9
	c-4.3,5.3-5.8,12.2-5.9,18.9c-0.3,8.1,1.7,16.1,5.7,23.1c0.2,0.3,0.7,0.4,1.1,0.2C170.1,257.1,170.2,256.7,170,256.4L170,256.4z"/>
<path d="M211.1,220.7c1.9,4.5,4.6,8.5,7.9,12c1.7,1.7,3.6,3.1,5.4,4.6c0.7,0.6,1.9,1.6,1.9,2.7s-1.4,1.8-1.9,2.7
	c-2.4,3.9,0.7,9.1,1.7,12.9c1.1,4.6,1.3,9.9-2.1,13.7s-8.5,4.8-13.1,5.6c-1,0.2-0.7,1.7,0.2,1.7c4.5-0.1,9.3-1.4,12.9-4.2
	c4-3.1,5.6-7.9,5.2-12.8c-0.2-2.6-0.8-5.2-1.6-7.6c-0.7-2.2-2-4.8-1.4-7.1c0.3-1.3,1.4-1.8,2-2.9c0.6-0.9,0.7-2.1,0.4-3.1
	c-0.7-2.3-3-3.7-4.7-5.1c-4.6-3.9-8.5-8.6-11.3-13.9C212,219,210.7,219.8,211.1,220.7L211.1,220.7z"/>
<path d="M213.1,232.1c-0.2,0.2-0.5,0.5-0.6,0.7c-0.2,0.3-0.3,0.7-0.4,1.1c0,0.4,0.1,0.8,0.2,1.1c0,0.1,0.1,0.2,0.2,0.2
	c0.1,0.1,0.1,0.1,0.2,0.2c0.2,0.2,0.4,0.3,0.7,0.4c0.2,0,0.4,0,0.6,0c0.2-0.1,0.4-0.2,0.5-0.3c0.1-0.1,0.2-0.2,0.3-0.3
	c0,0,0.1-0.1,0.1-0.1c0.1-0.3,0.2-0.5,0.2-0.8c0,0,0-0.1,0-0.1c0-0.1,0-0.3-0.1-0.4c0-0.2-0.1-0.4-0.2-0.5c-0.1-0.2-0.3-0.3-0.4-0.4
	l-0.3-0.1c-0.3-0.1-0.7,0-1,0.2c-0.3,0.2-0.4,0.5-0.4,0.8c0,0.4,0.1,0.7,0.3,1l-0.2-0.2c0,0,0.1,0.1,0.1,0.1l-0.1-0.3
	c0,0.1,0,0.1,0.1,0.2v-0.3c0,0.1,0,0.1,0,0.2v-0.3c0,0.1,0,0.1-0.1,0.2l0.1-0.3c0,0.1-0.1,0.1-0.1,0.1l0.2-0.2l1.1-0.3h-0.1l0.3,0.1
	c-0.1,0-0.1-0.1-0.1-0.1l0.2,0.2c-0.1,0-0.1-0.1-0.1-0.2l0.2,0.2c-0.1-0.1-0.1-0.2-0.2-0.3l0.1,0.3c0-0.1-0.1-0.2-0.1-0.3v0.3
	c0-0.1,0-0.2,0-0.4v0.3c0.1-0.3,0.1-0.6,0.3-0.9c0.1-0.2,0.1-0.3,0-0.5c-0.1-0.2-0.2-0.3-0.3-0.4
	C213.8,231.8,213.4,231.9,213.1,232.1L213.1,232.1z"/>
<path d="M208.2,231.5h0.1h-0.5c0.6,0.2,1.1-0.3,1.6-0.5l0.6-0.3c0.2-0.1-0.2,0.1,0,0l0.3-0.1c0.7-0.3,1.5-0.5,2.3-0.6l-0.4,0.1
	c0.3,0,0.5,0,0.8-0.1l-0.4,0.1l-0.4-0.1l-0.4-0.2c0.7,0.4,1.7,0.2,2.1-0.6c0.1-0.1,0.1-0.2,0.1-0.3c0.2-0.8-0.1-1.5-0.8-1.9
	c-0.6-0.3-1.4-0.3-2,0.1c-0.5,0.2-1,0.5-1.4,0.8c-0.3,0.2-0.6,0.4-0.8,0.6l-0.1,0.1c0.2-0.1,0.2-0.1,0,0l-0.2,0.2l-0.3,0.3
	c-0.2,0.2-0.4,0.4-0.6,0.6c-0.1,0.1-0.2,0.2-0.3,0.3c-0.1,0.1-0.2,0.3-0.3,0.4v0.2c0-0.1,0-0.2,0-0.1c-0.1,0.3,0,0.6,0.2,0.8
	C207.6,231.5,207.9,231.6,208.2,231.5L208.2,231.5z"/>
<path class="st3" d="M205.8,210.6c0.8,5.3-0.6,10.7-3.8,14.9c-1.7,2.3-3.9,4.1-5.5,6.5s-2.3,5.6-0.8,8c-0.5-1.2-1.3-2.4-2.2-3.4
	c-1-1-2.3-1.5-3.7-1.3c-0.7,0.2-1.3,0.5-1.8,1c-2.3,2-2.6,5.6-1.3,8.3c1.5,2.7,3.8,4.8,6.6,5.9c-1,4.1-2.4,8.2-4.2,12
	c-1.8,3.9-4.8,7.1-8.5,9.2c-0.9,0.5-1.8,0.8-2.8,0.8c-0.8-0.1-1.5-0.3-2.2-0.6c-18.1-7.7-32.2-27-21.3-46.4
	c5.7-10.2,16.4-17.8,27.8-20.4c3.4-0.8,7-1.1,10.5-0.8c5.1,0.6,10,1.9,14.7,3.9c3.4,1.2,6.6,3,9.3,5.3c0.2,0.2,0.4,0.4,0.5,0.7
	c0.2,0.7-0.6,1.3-1.3,1.5c-2.4,0.7-4.9,0.3-6.9-1.3c-0.8-0.6-1.9-1.5-2.8-1"/>
<path class="st3" d="M205,210.9c0.8,6-1.5,11.5-5.5,15.9c-3.4,3.7-7.8,8.7-4.8,14c0.7,1.3,2.6,0.1,2-1.2c-1.2-2.4-3-5.1-6-5.2
	c-2.8-0.2-4.9,2.2-5.6,4.7c-1.6,5.7,2.9,10.4,7.6,12.7l-0.5-1.3c-1.6,5.7-3.2,11.8-7.2,16.4c-1.6,1.9-4.2,4.4-6.8,4.6
	c-1.3,0.1-2.6-0.7-3.7-1.2s-2.4-1.2-3.6-1.9c-8.3-4.8-15.6-12.4-18.2-21.9c-6-21.6,17.6-41.1,37.7-40.9c6.9,0.1,14,2.5,20.2,5.5
	c1.5,0.7,2.8,1.5,4.1,2.5c0.3,0.3,0.6,0.6,1,0.8c0.2,0.2,0.3,0.3,0.1,0.1s-0.2-0.2-0.4,0c-0.8,0-1.5,0.4-2.3,0.3
	c-1.4-0.1-2.8-0.7-3.9-1.6c-1.1-0.9-2.4-1.4-3.7-0.7c-1.2,0.6-0.3,2.6,0.9,2.1c0.6-0.3,1.3,0.6,1.8,1c0.5,0.4,1.1,0.7,1.6,1
	c1.4,0.6,2.9,0.9,4.4,0.8c1.3,0,2.6-0.5,3.5-1.4c0.9-1,0.8-2.5-0.2-3.3c0,0,0,0-0.1-0.1c-2.2-2.3-5.4-3.8-8.3-5
	c-3.2-1.4-6.5-2.5-9.9-3.4c-6.7-1.7-13.8-1.6-20.5,0.5c-5.6,1.8-10.9,4.6-15.5,8.3c-8.9,7.2-15.4,18.3-13.9,30
	c1.4,11,9,20.1,18.1,26c2.6,1.7,5.3,3.1,8.2,4.3c3.4,1.3,6.6-0.7,9.1-2.9c5.7-5,7.8-12.5,9.7-19.5c0.1-0.5-0.1-1-0.5-1.3
	c-3.4-1.6-7-4.5-6.8-8.7c0.1-1.8,1.1-4.1,3-4.4c2.4-0.4,3.8,2.4,4.6,4.1l2-1.2c-1.4-2.5-0.3-5.4,1.2-7.6c1.6-2.3,3.8-4.2,5.4-6.5
	c2.9-4.4,4-9.8,3.1-15C206.4,209.4,204.9,209.9,205,210.9L205,210.9z"/>
<path d="M190.7,242.2L190.7,242.2C190.7,242.2,190.6,242.3,190.7,242.2h0.2H190.7h0.2H190.7c0.1,0,0.2,0,0.2,0.1c0.1,0-0.2-0.1,0,0
	l0.1,0.1c0.1,0,0,0-0.1,0c0,0,0,0.1,0.1,0.1l0.2,0.2c0.1,0.1-0.1-0.1,0,0l0.1,0.1l0.1,0.2c0.1,0.2,0.2,0.3,0.2,0.5l-0.1-0.2
	c0.1,0.2,0.2,0.5,0.2,0.7v-0.2c0,0.2,0,0.3,0,0.5V244c0,0,0,0.1,0,0.1l1-0.6l0.2,0.1l-0.1-0.1l0.2,0.1l-0.1-0.1l0.1,0.2
	c0,0-0.1-0.1-0.1-0.1l0.1,0.2c0-0.1,0-0.1,0-0.2v0.2c0,0,0-0.1,0-0.1v0.2c0,0,0-0.1,0-0.1L193,244c0,0,0-0.1,0.1-0.1l-0.1,0.2
	c0.3-0.3,0.3-0.9,0-1.2c-0.2-0.2-0.5-0.3-0.7-0.2c-0.3,0-0.5,0.2-0.6,0.4c-0.2,0.4-0.3,0.8-0.2,1.2c0.1,0.5,0.5,0.8,0.9,0.9
	c0.4,0.1,0.9-0.1,1-0.6c0.1-0.5,0-1-0.1-1.5c-0.2-0.4-0.4-0.8-0.6-1.2c-0.3-0.4-0.7-0.8-1.2-1c-0.5-0.2-1-0.1-1.5,0.1
	c-0.3,0.2-0.5,0.6-0.3,1C189.9,242.4,190.3,242.5,190.7,242.2L190.7,242.2z"/>
<path d="M196,238.7l11.5-4.4l5.5-2.1c1-0.4,2-0.8,3-1.1c0.4-0.2,0.8-0.3,1.2-0.3c0.5,0.1,0.6,0.7,0.8,1.1c1,2.9,1.5,7.4-2.4,8.4
	c-4,1.1-5.4-3.2-6-6.1c-0.3-1.6-2.8-0.9-2.4,0.7c0.6,3.2,1.8,6.6,5.2,7.7c3.2,1,6.7-0.6,8-3.6c0.6-1.5,0.8-3.2,0.4-4.9
	c-0.2-1.5-0.6-3.4-1.6-4.6c-1.3-1.4-2.9-0.8-4.4-0.2l-5.9,2.5l-13.4,5.7C194.6,237.6,195.2,239,196,238.7L196,238.7z"/>
<path d="M221.4,230c-0.1-0.1-0.2-0.1-0.3-0.1c-0.1,0-0.2-0.1-0.3-0.1c-0.2,0-0.4,0-0.7,0c-0.3,0-0.6,0.1-0.9,0.2
	c-0.3,0.2-0.5,0.4-0.7,0.7c-0.1,0.1-0.1,0.2-0.1,0.4c0,0.1,0,0.3,0,0.4c0.1,0.3,0.2,0.5,0.5,0.6c0.2,0.1,0.5,0.2,0.8,0.1
	c0.3-0.1,0.5-0.2,0.6-0.5l0.1-0.1l-0.2,0.2c0.1-0.1,0.1-0.1,0.2-0.2l-0.2,0.1l0.3-0.2l-0.2,0.1l0.3-0.2l-0.2,0.1
	c0.1,0,0.2-0.1,0.3-0.1h-0.2c0.1,0,0.2,0,0.3,0h-0.2h0.2c0.4,0.1,0.8-0.1,0.9-0.5c0.1-0.2,0.1-0.4,0-0.5
	C221.6,230.3,221.5,230.1,221.4,230L221.4,230z"/>
<path class="st3" d="M153.5,227.3c3.6-8.7,6.3-19,1.7-27.3c-2.7-4.6-7-8-12-9.6c-5-1.6-10.3-2.2-15.5-1.7
	c-8.5,0.6-17.2,3.2-23.2,9.2c-3.3,3.4-5.7,7.7-8.8,11.3c-2.9,3.4-6.5,6.1-10.6,8c-3.6,1.7-7.6,2.7-11.2,4.4s-7.1,4.4-8.5,8.1
	c-2.2,6,1.6,12.7,6.5,16.8c8.4,6.8,20,8.8,30.7,6.7s20.2-7.9,28.3-14.9c2.4-2.3,5-4.4,7.8-6.4c3.6-2.3,7.8-3.7,12.1-4.1"/>
<path class="st3" d="M154.2,227.7c3.3-7.4,6-15.8,4-23.9c-2-7.8-8.6-13.1-16.1-15.3c-8.1-2.3-17.4-1.8-25.4,0.7
	c-3.8,1.1-7.4,2.9-10.6,5.3c-3.3,2.6-5.8,5.9-8.2,9.3c-2.4,3.6-5.3,6.7-8.8,9.2c-3.6,2.6-7.7,3.9-11.8,5.5
	c-3.8,1.4-7.6,3.1-10.5,6.1c-2.7,2.7-4,6.5-3.6,10.3c0.9,7.9,7.5,13.9,14.4,17.1c7.2,3.3,15.3,4.4,23.1,3.2c8.2-1.3,16-4.5,22.8-9.2
	c3.5-2.4,6.9-5,10.1-7.9c3.3-3,6.7-5.8,10.9-7.3c2-0.7,4.2-1.2,6.3-1.4c1.9-0.2,1.9-3,0-2.9c-4,0.2-7.9,1.3-11.4,3.3
	c-3.7,2-6.7,5-9.9,7.8c-5.9,5.2-12.6,9.3-19.9,12.1c-7.1,2.7-14.7,3.5-22.2,2.2c-6.9-1.3-14.2-4.7-18.3-10.6
	c-1.9-2.8-3.3-6.4-2.4-9.8s3.7-5.9,6.7-7.6c3.7-2,7.8-3.1,11.7-4.7c3.6-1.6,6.9-3.8,9.7-6.5c2.9-2.8,5.1-6.2,7.4-9.4
	c2.2-3.1,4.9-5.8,8.1-7.8c6.6-4,14.6-5.3,22.1-5.2s15.9,2.6,20.5,9.1s3.5,14.9,1.4,22.2c-0.5,1.9-1.2,3.8-1.9,5.6
	C152.4,228,153.8,228.6,154.2,227.7L154.2,227.7z"/>
<path class="st4" d="M156,218.9c-1.4,1.4-2.8,2.9-3.9,4.5c-0.6,0.8-1.1,1.5-1.5,2.4c-0.2,0.4-0.4,0.9-0.6,1.3
	c-0.3,0.6-0.5,1.2-0.5,1.9c0,0.7,0.6,1.3,1.4,1.3c0.3,0,0.6-0.1,0.9-0.4c0.4-0.4,0.7-0.9,0.9-1.5c0.1-0.2,0.3-0.7,0.5-1.1
	c0.4-0.9,0.8-1.7,1.2-2.6c0.8-1.6,1.8-3.2,3-4.6c0.3-0.3,0.3-0.8-0.1-1.1C156.8,218.6,156.3,218.6,156,218.9L156,218.9z"/>
<path d="M210.8,274.7c-2.4,3.1-4.6,6.4-6.5,9.8c-2,3.3-3.8,6.8-5.2,10.5c-0.2,0.7,0.2,1.3,0.9,1.5c0.5,0.1,1.1-0.1,1.3-0.5
	c1.7-3.5,3.2-7.1,5-10.5s3.8-6.8,5.9-10C212.7,274.6,211.4,273.8,210.8,274.7L210.8,274.7z"/>
<path d="M166.8,286.3c2.4-2.5,4.8-5.1,7.2-7.6c1.2-1.3,2.3-2.5,3.5-3.8c1-1.1,2.5-2.5,2.5-4.1c0-0.6-0.5-1.1-1.1-1.1
	c-0.3,0-0.5,0.1-0.7,0.3c-0.5,0.6-0.9,1.2-1.3,1.8c-0.5,0.6-1,1.2-1.5,1.8c-1.1,1.3-2.1,2.6-3.2,3.9c-2.1,2.6-4.3,5.2-6.4,7.7
	C165,285.9,166,287,166.8,286.3L166.8,286.3z"/>
<path class="st0" d="M204.5,292.7c-9.9-4.1-20.4-6.7-31.1-7.7c-11.6-1.1-22.2,1.1-31,9.3c-14.2,13.2-23.5,33.9-28.4,52.3
	c-1.9,7.1-3.2,14.5-6.7,21.1c-3.8,7.2-10.1,12.8-16.2,18.2l-34.4,30.7c-0.7,0.6-1.3,1.3-1.7,2.2c-0.5,1.4,0.1,2.9,0.7,4.1
	c7.4,15.7,21.6,27.7,37.9,33.8s34.3,6.7,51.3,3.1c1.2-0.2,2.3-0.6,3.3-1.2c1.2-1.1,2.1-2.6,2.5-4.2c2.2-6,4.2-12,6.2-18.1
	c0.4,6.3,1.3,12.6,2.7,18.7c0.3,1.3,0.7,2.7,1.9,3.4c1,0.4,2.1,0.5,3.2,0.2c15.9-2.6,31.8-5.5,47.6-8.8c-2-15.1-13.8-28.1-13.7-43.4
	c0.1-7.7,3.2-15,6.1-22.2c5.3-13.3,9.8-26.9,13.4-40.8c2.1-7.9,3.9-16.1,2.9-24.3c-1.3-9.2-6.1-17.6-13.5-23.3"/>
<path class="st0" d="M204.9,292c-5.9-2.5-12.1-4.5-18.4-6c-6-1.5-12.2-2.3-18.4-2.5c-5.3-0.1-10.5,0.7-15.4,2.6
	c-5,2.1-9.5,5.1-13.2,9c-7.9,7.9-13.8,17.6-18.5,27.7c-2.3,5-4.3,10.2-6.1,15.5c-1.8,5.5-3.1,11.2-4.6,16.8
	c-1.6,6-3.7,11.6-7.5,16.6c-3.5,4.6-7.8,8.6-12.2,12.4c-10.3,9.2-20.7,18.4-31,27.6l-3.8,3.4c-1.2,0.9-2.1,2.1-2.6,3.5
	c-0.7,2.6,1.2,5.5,2.4,7.8c2.5,4.6,5.6,8.9,9.2,12.8c7.3,7.9,16.3,14.1,26.3,18.1c11.6,4.6,24,6.6,36.4,6c3.2-0.1,6.3-0.4,9.5-0.8
	c3.1-0.3,6.1-0.9,9.2-1.6c2.9-0.8,4.4-2.8,5.5-5.5c1.2-3.1,2.2-6.2,3.3-9.3s2.1-6.4,3.2-9.6l-3.1-0.4c0.4,5.1,1,10.3,2,15.3
	c0.4,2.1,0.6,4.5,1.7,6.4s3.1,2.5,5.2,2.2c5.2-0.6,10.3-1.7,15.4-2.6s10.4-1.9,15.6-2.9c5.8-1.1,11.6-2.3,17.4-3.5
	c0.8-0.2,1.3-1.1,1.1-1.9c-1.3-9.9-6.6-18.6-10.2-27.7c-1.9-4.5-3.1-9.3-3.4-14.1c-0.2-5.7,1.4-11.2,3.4-16.5
	c2-5.5,4.3-10.8,6.3-16.3s3.9-11.1,5.6-16.8s3.4-11.3,4.8-17c1.6-5.7,2.4-11.6,2.5-17.5c-0.2-11.3-5.6-21.8-14.7-28.6
	c-1.2-0.9-2.4,1.1-1.2,2.1c7.7,6.1,12.4,15.3,12.9,25.1c0.3,6-0.8,11.9-2.2,17.7s-3,11.3-4.7,16.8c-3.4,11.1-7.6,21.8-11.7,32.6
	c-2,5.2-3.7,10.6-3.9,16.2c-0.1,4.8,0.7,9.6,2.4,14.1c3.6,10.3,9.8,19.7,11.3,30.6l1.1-1.9c-9.4,2-18.9,3.8-28.4,5.5
	c-4.7,0.8-9.4,1.7-14.1,2.4l-3.4,0.6c-1.1,0.3-2.2,0.4-3.3,0.4c-1.6-0.4-1.8-3.7-2.1-5c-1.1-5.3-1.8-10.6-2.2-15.9
	c0-0.9-0.7-1.5-1.6-1.5c-0.7,0-1.2,0.5-1.4,1.1c-2,6.2-4.1,12.4-6.3,18.5c-0.3,1.2-1,2.3-2,3.1c-1.2,0.6-2.6,1-3.9,1.1
	c-3,0.6-6,1-9,1.3c-12,1.3-24.2,0.2-35.8-3.3c-10-3.1-19.2-8.3-27-15.4c-3.8-3.4-7.1-7.3-10-11.5c-1.4-2.1-2.6-4.2-3.7-6.4
	c-0.5-1.1-1.5-2.5-1.2-3.8s2.2-2.6,3.2-3.4l29.4-26.3c8.6-7.7,17.6-15.2,21.9-26.3c2.1-5.5,3.3-11.3,4.8-17c1.3-5.1,3-10.1,4.9-14.9
	c3.8-10.2,9.1-19.7,15.7-28.3c3.2-4.3,6.9-8,11.2-11.2c4.1-2.9,8.9-4.8,13.8-5.6c5.4-0.8,10.9-0.8,16.3,0c6.2,0.8,12.2,2.1,18.2,3.9
	c3,0.9,5.9,2,8.8,3.1C205.1,293.8,205.7,292.3,204.9,292L204.9,292z"/>
<path d="M374.7,280.6l5.3-4c1.5-1.1,3.1-2.9,5.1-2.5c5,1.3,9,5.1,10.6,10c0.4,1,0.5,2.1,0.2,3.2c-0.4,1-0.8,2-1.4,2.9
	c-1.9,4-4.1,8.1-5.7,12.3c-0.4,1.1,1.3,1.8,1.9,0.8c2.1-3.6,3.6-7.5,5.4-11.2c0.8-1.6,1.9-3.4,2.1-5.1c0.1-1.6-0.3-3.3-1-4.8
	c-1.2-2.8-3.1-5.2-5.5-7c-1.2-0.9-2.4-1.6-3.8-2.2c-1.4-0.7-3-1-4.6-0.9c-1.7,0.3-3.1,1.9-4.5,3l-5.4,4.3
	C373.1,279.9,374,281.1,374.7,280.6L374.7,280.6z"/>
<path d="M393.3,248.8c-2-1-3.6,1.4-4.7,2.7c-1.5,1.8-2.8,3.8-3.8,6c-0.9,2.3-1.4,4.8-1.3,7.3c0,1.3,0.2,2.5,0.4,3.8
	c0.2,1.4,0.5,2.9,0.9,4.2c0.4,1.1,2.2,1,2.2-0.3c-0.1-2.1-0.7-4.3-0.9-6.4c-0.2-2.1-0.1-4.2,0.4-6.2c0.5-1.8,1.3-3.5,2.3-5.1
	c0.5-0.8,1-1.5,1.5-2.2c0.3-0.5,1.6-2.6,2.3-2.3c0.4,0.1,0.9-0.1,1-0.6C393.7,249.4,393.6,249,393.3,248.8L393.3,248.8z"/>
<path d="M401.9,243.1c-2.3,1.2-4.4,2.7-6.2,4.4c-0.9,0.9-1.8,1.9-2.6,2.9c-0.8,1-1.5,2.1-2,3.4c-0.3,0.9,1,1.8,1.7,1
	c0.8-0.9,1.3-2.1,2-3.1c0.7-1,1.5-1.9,2.3-2.8c1.6-1.8,3.5-3.3,5.6-4.4c0.4-0.2,0.5-0.7,0.3-1.1C402.8,243,402.3,242.9,401.9,243.1
	L401.9,243.1z"/>
<path d="M403.4,254.4l0.4-0.1h0.2l0.5-0.1h0.2h0.7h0.2c0.1,0,0.1,0,0,0l0.4,0.1c0.2,0,0.4,0.1,0.6,0.2l0.1,0.1l0.3,0.2
	c0.2,0.1,0.4,0.2,0.6,0.4l0.3,0.2l0.1,0.1l0.1,0.1c0.4,0.4,1,0.3,1.3,0c0.3-0.4,0.4-0.9,0-1.3c-0.8-0.8-1.9-1.4-3-1.6
	c-0.6-0.1-1.1-0.1-1.7-0.1c-0.6,0.1-1.2,0.3-1.8,0.6c-0.4,0.2-0.5,0.7-0.3,1C402.8,254.4,403.1,254.6,403.4,254.4L403.4,254.4z"/>
<path d="M409,260.5C408.9,260.6,408.9,260.6,409,260.5c0,0,0.1,0,0.1,0c0.1,0,0.1,0,0,0h0.2c0.1,0,0.4,0.1,0.5,0.1l0.6,0.2l0.3,0.1
	l0.2,0.1l0.7,0.3l1.3,0.6c0.5,0.2,1,0.1,1.3-0.3c0.3-0.4,0.1-1-0.3-1.3c-1-0.6-2.1-1-3.2-1.4c-1-0.5-2.1-0.2-2.8,0.7
	c-0.2,0.4-0.1,0.9,0.3,1.1c0.4,0.2,0.9,0.1,1.1-0.3L409,260.5z"/>
<path d="M413.4,266.4c1.5,0.8,1,3,0.4,4.2c-0.4,0.8-1,1.5-1.7,2c-0.2,0.1-0.8,0.6-1,0.5s-0.1-1.2-0.1-1.5c0-0.6-0.5-1.1-1.2-1.1
	c-0.4,0-0.8,0.2-1,0.6c-1.3,2.7-3,5.1-5.1,7.2c-1,1-2.1,2-3.3,2.8c-1.2,0.9-2.7,1.5-3.8,2.5c-1,0.9,0.1,2.3,1.2,2.1
	c1.5-0.5,2.9-1.3,4.1-2.4c1.3-1,2.5-2.1,3.6-3.2c2.2-2.3,4-5,5.3-7.9l-2.1-0.6c-0.1,1.6,0.4,3.8,2.4,3.8c1.6,0,3.2-1.6,4-2.9
	c1.5-2.3,2-6.3-1.1-7.5C413.2,264.7,412.7,266,413.4,266.4L413.4,266.4z"/>
<path class="st0" d="M193.8,289.4l82.8,28.6c9.7,3.4,20,6.7,30,4.4c4.8-1.1,9.2-3.6,13.4-6.1c15.2-9,29.4-19.6,42.5-31.5
	c2.7-2.5,5.4-5,8.6-6.7s7.2-2.4,10.5-1c1.7,0.8,3.3,2,4.6,3.4c4.5,4.5,7.8,10.9,6.6,17.2c-0.7,3.9-3.1,7.3-5.4,10.5
	c-11,15.4-22.2,31-36.2,43.8s-31.3,22.7-50.2,24.7c-5.4,0.5-10.9,0.6-16.3,0.3c-17.2-0.6-67.9-6.3-84.5-10.6s0.6-7.4-12.4-18.6"/>
<path class="st0" d="M193.6,290.1c19,6.7,38.1,13.4,57.1,20.1c9.4,3.3,18.8,6.6,28.3,9.8c8.8,3,18.2,5.6,27.5,3.6
	c4.3-1.1,8.4-2.8,12.2-5.2c4-2.3,8-4.8,11.8-7.3c7.7-5,15.1-10.4,22.2-16.2c3.6-2.9,7.1-6,10.6-9.1c3.3-3,6.6-6.3,11-7.6
	c2.1-0.7,4.3-0.7,6.4-0.1c2,0.8,3.7,2,5.1,3.7c3,3,5.1,6.8,6,11c0.8,4.5-0.9,8.4-3.3,12.1s-5.2,7.3-7.8,10.9
	c-5.4,7.5-11,14.9-17,21.8c-11.3,13.1-24.6,24.7-40.5,31.9c-7.9,3.6-16.3,5.7-24.9,6.3c-6.7,0.3-13.5,0.2-20.2-0.4
	c-12.1-0.8-24.3-2.1-36.4-3.6c-11.8-1.5-23.8-2.9-35.4-5.4c-2.1-0.5-4.2-0.9-6.2-1.5c-1.5-0.4-2.9-0.9-4.3-1.5
	c-0.7-0.3-1.3-0.7-1.7-1.3c-0.1-0.2-0.1-0.1-0.2-0.5c0,0.3,0,0,0-0.1c0-0.2,0-0.4,0-0.5c0,0.3,0-0.1,0-0.2l0.1-0.4
	c0.1-0.4,0.2-0.7,0.2-1.1c0.5-1.8,0.4-3.7-0.1-5.5c-1.1-2.8-2.9-5.2-5.2-7.1c-1.4-1.3-3.6,0.8-2.1,2.1c2.1,1.8,4.3,4,4.8,6.8
	c0.1,1.4,0,2.9-0.4,4.2c-0.4,1.5-0.1,3.2,0.9,4.4c1.7,1.9,4.6,2.6,7,3.3c4.6,1.2,9.3,2,14,2.8c6.2,1,12.4,1.9,18.7,2.8
	c13,1.7,26.1,3.2,39.2,4.3c14.1,1.2,28.6,2.2,42.4-1.7c16.8-4.8,31.4-15,43.6-27.2c6.5-6.6,12.6-13.7,18.2-21.1
	c2.9-3.7,5.6-7.5,8.4-11.3s5.5-7.4,7.9-11.3c2.4-3.6,3.4-7.8,2.9-12.1c-0.7-4.1-2.6-8-5.3-11.1c-2.7-3.2-6-6.1-10.3-6.4
	s-8.5,1.7-11.9,4.3c-3.6,2.8-6.9,6.1-10.4,9.1s-7.3,6.1-11,9c-7.5,5.8-15.3,11.2-23.4,16.1c-3.9,2.6-8.1,4.8-12.5,6.5
	c-4.5,1.6-9.4,2.1-14.1,1.5c-4.9-0.6-9.7-1.8-14.3-3.4c-4.8-1.6-9.6-3.3-14.4-4.9c-19.6-6.7-39.1-13.4-58.7-20l-14.1-4.8
	C193.1,288.3,192.7,289.8,193.6,290.1L193.6,290.1z"/>
<path d="M31.1,883.1c7.8,0.9,15.7,0.8,23.4-0.4c1.9-0.3,3.8-0.6,5.6-1c1.5-0.3,3-0.6,4-1.9c0.8-1.3,1.6-2.5,2.5-3.6
	c0.5-0.6,1.1-1.1,1.7-1.5c0.4-0.3,0.7-0.5,1.1-0.7c0.4-0.2,1-0.2,0.7-0.6l-0.4-0.9v0.1l0.9-1.2h-0.1c-1.3,0.4-1.1,2.5,0.3,2.4h0.1
	c0.6,0,1-0.4,1.2-0.9c0.2-1.5-1.2-2.3-2.5-1.8c-1.6,0.6-3.1,1.5-4.3,2.8c-1.1,1.3-2.1,2.7-2.8,4.2c-1,1.7-3.3,1.8-5.1,2.2
	c-8.7,1.7-17.6,2.1-26.4,1.2C30.1,881.4,30.1,883,31.1,883.1L31.1,883.1z"/>
<path d="M273.9,883.7c3.4,0.1,6.7,0,10.1-0.2c3.2-0.2,6.4-0.6,9.5-1.4c2.5-0.7,3.6-3.1,4.9-5.2s2.8-4.5,5.3-5.6
	c0.5-0.3,0.7-1,0.4-1.5c0-0.1-0.1-0.1-0.2-0.2c-0.6-0.6-1.5-0.6-2.1,0c-0.9,0.7,0.3,2.3,1.3,1.7h-0.1l-0.8-0.3l0.1,0.2l0.2-1.7
	c-2.1,1.1-3.8,2.7-5,4.7c-0.7,1-1.3,2.1-1.9,3.1s-1.4,2.4-2.8,2.9c-3,0.8-6.1,1.3-9.2,1.5c-3.3,0.3-6.6,0.5-9.8,0.4
	c-0.4,0-0.8,0.5-0.7,0.9C273.2,883.3,273.5,883.6,273.9,883.7L273.9,883.7z"/>
<path d="M289.7,299.1l3.5-3.8c0.9-1,2-2.6,3.4-3.1s3.4,0.6,4.7,1.2c1.3,0.6,2.5,1.3,3.7,2.2c1.2,0.9,2.3,1.8,3.3,2.9
	c0.9,0.9,2.5,2.4,2.2,3.8c-0.5,1.6-1.1,3.2-1.9,4.7c-0.7,1.6-1.5,3.2-2.3,4.9c-0.5,1.2,1.2,2.3,1.8,1.1c1-1.9,1.9-3.9,2.7-5.9
	c0.7-1.7,2-3.8,1.8-5.7c-0.2-1.5-1.4-2.7-2.4-3.8c-1.2-1.3-2.5-2.5-3.9-3.5c-1.4-1.1-3-2-4.7-2.7c-1.5-0.8-3.2-1.2-4.9-1.2
	c-1.8,0.3-2.9,1.6-4,2.9c-1.4,1.6-2.8,3.3-4.2,4.9C287.9,298.8,289,299.9,289.7,299.1L289.7,299.1z"/>
<path d="M296.3,289c-0.1-1.6-0.4-3.2-0.8-4.7c-0.3-1.6-0.1-3.2,0.6-4.6c0.5-1.5,1.3-2.8,2.4-3.9c1.2-0.8,2.6-1.4,4-1.7
	c1.5-0.4,3.1-0.8,4.6-1c1-0.1,2.9-0.5,3.2,0.8s-0.9,2.3-1.8,2.9c-1.4,1-2.8,1.9-4.2,2.9c-0.6,0.2-0.8,0.9-0.6,1.4s0.9,0.8,1.4,0.6
	c0.9-0.1,1.2,1.4,1.4,2s0.3,1.2-0.2,1.6c-0.8,0.6,0.1,1.8,0.9,1.6c1.8-0.4,1.6-2.6,1.2-4c-0.5-1.9-1.8-3.5-3.9-3.2l0.8,2
	c1.3-0.9,2.7-1.8,4-2.7c1.2-0.7,2.1-1.8,2.8-3c0.5-1.1,0.4-2.4-0.2-3.5c-0.8-1-2-1.6-3.3-1.5c-1.4,0.1-2.9,0.3-4.3,0.6
	c-1.5,0.3-3,0.7-4.5,1.2c-1.4,0.5-2.6,1.3-3.5,2.4c-0.8,1.1-1.5,2.4-2,3.7c-0.7,1.6-1,3.3-0.8,5c0.2,1.8,1,3.5,1.1,5.3
	c0,1,1.6,1,1.5,0L296.3,289z"/>
<path d="M317.4,291c0,1.9-0.6,3.7-1.7,5.2c-0.5,0.7-1.1,1.3-1.8,1.8c-0.4,0.3-0.8,0.5-1.2,0.7c-0.5,0.2-1,0.4-1.4,0.7
	c-0.4,0.3-0.5,1-0.1,1.4c0.2,0.3,0.5,0.4,0.9,0.4c1.2-0.2,2.2-0.8,3.1-1.7c0.8-0.7,1.5-1.5,2.1-2.4c1.2-1.8,1.8-4,1.6-6.1
	c0-0.4-0.4-0.7-0.8-0.6C317.7,290.4,317.4,290.7,317.4,291L317.4,291z"/>
<path class="st3" d="M402.6,242.7c-0.9-19.6,5.5-38.7,14.2-56c4.3-8.5,9-16.8,14.3-24.7c5-7.5,10.7-14.7,17.9-20.1
	c8-5.9,18.3-8.3,25.5-15.3c0.5-0.5,0.4-1.2,0-1.7c-0.1-0.1-0.1-0.1-0.2-0.2c-15.7-11.7-34.8-20-54.5-20.8c-4.8-0.2-9.7,0.1-14.5,0.8
	c-5,0.9-9.9,2.3-14.7,4.1c-5,1.8-10.2,3.7-15.6,3.6s-10.3-2-15.4-3.2c-4.7-1-9.5-1.4-14.1,0.3c-3.9,1.6-7.4,4-10.2,7.2
	c-6.3,7-10.3,15.9-14.1,24.4c-17.5,39-24.8,81.9-21.3,124.5c0.2,2.7,0.5,5.3,0.8,8c0.2,1.6,2.7,1.6,2.5,0c-4.8-41.7,0.9-84,16.7-123
	c2-4.9,4.1-9.8,6.5-14.6c1.9-4.2,4.1-8.2,6.6-12.1c4.7-7.1,11.4-13.6,20.5-13.3c5.2,0.2,10.1,2.1,15.1,3.2c4.9,1.1,10.1,1,15-0.2
	c5.1-1.3,9.9-3.5,15-4.9c4.6-1.3,9.3-2.1,14-2.4c19.4-1.2,38.6,5.7,54.7,16.2c2,1.3,4,2.7,5.9,4.1l-0.2-1.9
	c-6.5,6.4-15.9,8.7-23.4,13.8s-13.4,12-18.5,19.4c-5.4,7.9-10.3,16.1-14.6,24.7c-4.6,8.8-8.4,18-11.3,27.5
	c-3.2,10.5-4.5,21.5-4,32.4C401.1,243.7,402.6,243.7,402.6,242.7L402.6,242.7z"/>
<path class="st3" d="M309,378.8c6.2,23.9,14.2,48.1,29.5,67.8c13.9,17.8,33.4,30.2,54.6,37.7c50.3,17.8,104,8,155.7,3.9
	c14.5-1.3,29.2-1.8,43.8-1.4c12.5,0.4,25.9,2.3,35,11.8c15.6,16.2,13.2,41.8,1.2,59.2c-15,21.7-40.6,32.2-64.6,40.7
	c-12.8,4.5-25.5,8.9-37.9,14.4c-12.2,5.4-24,11.6-35.4,18.6c-40.5,24.9-83.5,62.2-90.4,112c-3.1,22.5,1.5,46.2,16,64.1
	c14.4,17.6,36.2,27.2,57.8,32.5c26.3,6.5,54.6,9,81.5,5.3c24.4-3.4,47.5-12.8,68.5-25.5c42.4-25.6,75.8-62.6,112.5-95.3
	s80.1-64,130.8-67.5c25.1-1.7,50.4,5.2,65.6,26.5c7,9.8,11.6,21.1,15.5,32.5c4.4,13,8.2,26.2,12.1,39.2l12.8,42l1.3-1.7
	c-53.6,2.5-107.3,5-160.9,7.4c-15.2,0.7-30.5,1.5-45.7,2l1.4,1.4c-1-17-2-35.4-11.5-50.1c-7.8-12.1-21.5-21.2-36.4-19.3
	c-1.5,0.2-1.5,2.5,0,2.3c14.7-1.9,28,7.9,35,20.1c8.2,14.1,9.1,31.1,10,47c0,0.8,0.6,1.4,1.4,1.4c53.6-3,107.3-5,160.9-7.4
	c15.2-0.7,30.4-1.4,45.7-2c0.8,0,1.4-0.7,1.4-1.4c0-0.1,0-0.2,0-0.3l-13.1-43.3c-4-13.2-7.7-26.5-12.2-39.5
	c-7.4-21.4-18.4-42.5-39.8-52.6c-21.7-10.2-47.3-8.7-70-3c-23.4,6-45.2,17.3-65,30.9c-41,28.1-74,65.7-112,97.4
	c-19,15.9-39.4,30.5-61.9,41c-24.3,11.3-51,16.6-77.8,15.5c-46.3-1.6-107.3-15-119-67.7c-11.4-51.6,26.1-95.9,64.5-124.8
	c21.7-16.3,45.5-29.6,70.8-39.5c24.7-9.6,51.4-16,72.9-32.3c17.1-13,30.5-32.4,28.7-54.7c-0.8-9.6-4.1-19.1-10.4-26.5
	c-7.4-8.8-18.1-12.7-29.2-14c-14-1.7-28.5-0.9-42.5,0c-14.7,0.9-29.2,2.5-43.8,4.1c-27,2.8-54.2,5.5-81.2,2.8
	c-23.1-2.3-46.5-8.3-66.5-20.3c-21.9-13.1-36.9-33.4-46.6-56.8c-4.6-11.4-8.4-23.1-11.5-35c-0.1-0.5-0.6-0.7-1.1-0.6
	C309.2,377.9,308.9,378.3,309,378.8L309,378.8L309,378.8z"/>
<path class="st5" d="M710.8,746.4c43.3-41.2,91.7-83.7,151-90.5c20.9-2.4,43.4,0.4,60,13.3c18.3,14.3,26,37.9,32.7,60.1l20.5,67.4
	l-206.6,9.4c-0.9-15.6-1.9-31.7-9-45.5s-22-25-37.4-22.8"/>
<path d="M711.4,747c18-16.7,36.2-33.2,56-47.7c19.3-14.1,40.1-26.3,62.8-34.1c22.1-7.5,47.3-11.4,70.1-4.6
	c11.2,3.3,21.2,9.7,28.8,18.4c7.4,8.6,12.5,19,16.5,29.6c4.5,11.9,7.9,24.2,11.6,36.3c4.2,13.9,8.5,27.8,12.8,41.7l3.2,10.6l1.8-2.2
	c-26.9,1.3-53.7,2.6-80.6,3.8c-26.9,1.2-53.8,2.6-80.6,3.9c-15.1,0.7-30.2,1.5-45.3,2.2l1.3,1.3c-0.8-13.6-1.6-27.6-6.6-40.4
	c-4.3-11.1-12-21-22.9-26.2c-5.8-2.8-12.2-3.8-18.5-2.8c-1.5,0.2-0.8,2.4,0.6,2.2c10.9-1.5,21.7,4.5,28.9,12.3
	c8.4,9.1,12.1,21,14,33c1.1,7.2,1.5,14.6,2,21.9c0,0.7,0.6,1.3,1.3,1.3c26.9-1.2,53.8-2.3,80.6-3.5s53.8-2.3,80.6-3.5
	c15.1-0.7,30.2-1.3,45.3-2c1,0,1.8-0.8,1.8-1.9c0-0.2,0-0.3-0.1-0.5c-4.3-14.4-8.7-28.9-13-43.3c-3.9-12.9-7.6-26-11.9-38.8
	c-3.8-11.1-8.3-22.1-15-31.8c-6.6-9.8-15.9-17.7-26.7-22.5c-22.5-9.9-48.7-7.8-71.8-1.5c-23.5,6.4-45.2,18.3-64.9,32.5
	c-20.3,14.5-38.9,31.3-56.8,48.6l-6.5,6.3C709.3,746.6,710.6,747.8,711.4,747L711.4,747z"/>
<path class="st3" d="M493.2,492c-4.5,18.2-21.7,28.8-37.1,37.1c-19.5,10.5-39.2,20.5-58.4,31.5s-37.8,23-54.7,37.3
	c-15.2,12.7-28.5,27.4-39.5,43.8c-10.9,16.4-18.8,34.6-22.3,54c-0.4,2.3-0.7,4.7-0.9,7c-0.1,1.2,2,1.5,2.2,0.3
	c0.9-4.8,1.8-9.6,3-14.3c1.3-4.8,2.7-9.5,4.5-14.1c3.4-9.1,7.7-17.9,12.9-26.2c10.5-16.8,23.4-32,38.4-45
	c16.3-14.5,34.5-26.6,53.3-37.7c19.2-11.3,39-21.5,58.6-32c15.4-8.3,33.2-17.9,40-35.1c0.8-2,1.4-4,1.7-6.1
	C495,491.5,493.4,491,493.2,492L493.2,492z"/>
<path d="M290.5,827.3c16.5,9.2,34.7,14.7,53.2,18.5c18.7,3.9,37.7,6,56.7,7.6c21.5,1.9,43.1,2.7,64.7,2.4c22.3-0.4,44.5-2,66.6-4.8
	c20.8-2.7,41.7-7.3,61.1-15.5c2.4-1,4.8-2.1,7.1-3.2c1.2-0.5,0.3-2.6-0.9-2.1c-19.5,7.3-39.7,12.6-60.3,16
	c-21.7,3.3-43.6,5.3-65.5,6c-21.9,0.7-43.8,0.2-65.6-1.4c-18.8-1.4-37.6-2.8-56.1-5.8s-37.1-7.8-54.1-16c-2.1-1-4.1-2-6.1-3.1
	C290.4,825.4,289.6,826.8,290.5,827.3L290.5,827.3z"/>
<path class="st3" d="M405.6,278.9c0.7,20.8,3.7,41.4,9.1,61.5c5.4,20.1,13,39.6,22.6,58c4.8,9.2,10.2,18.1,16,26.7
	c5.7,8.6,12.5,16.6,20.2,23.6c13.9,12.3,30.8,20.3,48.4,25.6c18.1,5.5,37,8.4,55.8,10.8l6.9,0.8c0.9,0,1.6-0.7,1.6-1.6
	c0-0.9-0.7-1.5-1.6-1.6c-18.4-2.4-36.9-4.8-54.9-9.5c-17.5-4.6-34.7-11.5-49.1-22.7c-16-12.5-27.4-30-37.3-47.5
	c-10.1-17.8-18.2-36.7-24.1-56.4c-5.9-19.6-9.7-39.9-11.4-60.3c-0.2-2.5-0.4-5-0.5-7.4C407.1,277.8,405.5,277.8,405.6,278.9
	L405.6,278.9z"/>
<path class="st3" d="M413,787.4c35.5,9.3,68.8-11.9,95.3-33.1c14.3-11.5,28.3-23.3,43.7-33.3c15-9.6,30.7-18,47.1-25
	c16.7-7.1,33.8-13.2,51.3-18c13.9-4,27.9-7.1,42.2-9.4c28.5-4.3,57.4-6,86.1-7.6c27.9-1.5,55.9-2.1,83.8-3.9
	c2.7-0.2,5.4-0.5,8.1-0.6c1.5-0.1,1.5-2.4,0-2.3c-12.2,0.7-24.4,0.7-36.6,1.2c-14.6,0.6-29.1,1.1-43.7,1.8c-29.4,1.4-58.8,3-88,6.8
	c-30.6,4-60.5,11.7-89.3,22.9c-16.4,6.3-32.3,13.8-47.5,22.5c-15.4,9-30,19.3-43.7,30.8c-27.2,22.4-57.4,49.5-95.1,47.9
	c-4.5-0.2-8.9-0.8-13.2-2c-0.4-0.1-0.8,0.2-0.9,0.6C412.5,786.9,412.7,787.3,413,787.4L413,787.4z"/>
<g>
	<path class="st3" d="M332.8,158.8c5.3-0.6,10.5-1.7,15.6-3.4c3-1,9.6-2.9,7.6-7.4c-0.7-1.5-2.5-2.2-4-1.5c-0.1,0-0.2,0.1-0.3,0.2
		c-1.8,1.1-3.3,2.8-4,4.8c-1.4,3.2-1.6,8.5,2.2,10.3c2.3,1.1,4.9-0.1,7-1.2c2.4-1.3,4.5-3,6.3-5.1l-1.8-1.1c-0.8,2.1-0.2,4.5,1.5,6
		c1.8,1.5,4.4,1.6,6.4,0.4c1.5-0.9,2.8-0.4,4.4-0.1s3,0.4,4.6,0.6c3.3,0.3,6.5,0.2,9.8-0.1c1.4-0.1,1.4-2.4,0-2.2
		c-5.3,0.4-10.7,0.1-16-0.8c-1-0.2-2-0.1-2.9,0.2c-1,0.4-1.8,1.1-2.9,1.1c-1.8-0.1-3.1-1.6-3-3.3c0-0.4,0.1-0.8,0.3-1.1
		c0.2-0.6-0.2-1.2-0.8-1.3c-0.4-0.1-0.8,0-1,0.3c-1.5,1.7-3.2,3.2-5.1,4.4c-1.6,1-4.3,2.6-6.1,1.3c-1.5-1.1-1.7-3.4-1.4-5
		c0.3-2.1,1.3-4,2.8-5.5c0.7-0.7,2.2-1.5,2.6-0.1c0.2,0.8-0.2,1.7-0.9,2.2c-1.6,1.4-4.2,2-6.2,2.7c-4.7,1.6-9.5,2.7-14.4,3.3
		C331.8,157.4,331.8,159,332.8,158.8L332.8,158.8z"/>
	<path class="st3" d="M333.9,186.3c9.8,0.3,19.7,0.8,29.5,1.7c2.5,0.2,4.9,0.5,7.3,1c1.8,0.4,3.8,1.3,5.7,0.6
		c0.7-0.3,1.3-0.8,1.8-1.3c0.6-0.5,0.7-0.9,1.4-0.2c0.2,0.3,0.5,0.6,0.8,0.9c1.3,0.9,3,0.8,4.2-0.2c0.8-0.6-0.3-2.1-1.1-1.4
		c-1.9,1.4-2.5-1.6-4.3-1.6c-1.7,0-2.4,2-4,2.2c-1,0-2-0.1-2.9-0.5c-1.1-0.2-2.2-0.4-3.3-0.6c-2.2-0.3-4.4-0.5-6.7-0.7
		c-9.4-0.7-18.9-1.2-28.3-1.5c-0.4,0-0.8,0.5-0.7,0.9C333.2,186,333.5,186.3,333.9,186.3L333.9,186.3z"/>
	<path class="st3" d="M390.6,190.5c0.5,0,0.8-0.4,0.8-0.8s-0.4-0.8-0.8-0.8s-0.8,0.4-0.8,0.8S390.1,190.5,390.6,190.5L390.6,190.5z"
		/>
	<path class="st3" d="M328.1,216.6l13,1.5c1.7,0.2,3.6,0.6,5.2-0.1c1.4-0.5,2.2-1.8,2.2-3.3c0-0.6-0.9-1.2-1.4-0.6
		c-1.2,1.5-1.1,3.6,0.2,4.9c1.6,1.6,4.1,1.5,5.9,0.4c0.5-0.4,1.2-0.6,1.8-0.6c0.7,0.2,1.3,0.4,1.9,0.7c1.3,0.4,2.6,0.7,3.9,0.9
		c2.8,0.3,5.6,0.1,8.3-0.8c1.1-0.4,0.6-2.2-0.5-1.8c-2.2,0.7-4.4,1-6.7,0.9c-2.1-0.3-4.1-0.8-6.1-1.5c-0.7-0.3-1.5-0.3-2.3,0
		c-0.8,0.3-1.4,0.9-2.2,1.2c-2,0.7-4.5-1.2-3-3.3l-1.5-0.2c0.4,3.2-7.4,1.4-8.9,1.3l-9.9-1C327.2,215.2,327.2,216.6,328.1,216.6
		L328.1,216.6z"/>
	<path class="st3" d="M383.2,222.3l0.2,0.1l0.2,0.1h0h0.2h0.2h0.3h0c0.1,0,0.2-0.1,0.3-0.1l0.1-0.1l0.2-0.2l0,0
		c0.1-0.1,0.1-0.1,0.2-0.2c0-0.1,0.1-0.2,0.1-0.2v-0.1v-0.2v-0.1c0-0.1,0-0.2,0-0.3c0-0.1-0.1-0.1-0.1-0.2l0,0
		c0-0.1-0.1-0.1-0.2-0.2l-0.2-0.2l-0.1-0.1c-0.1,0-0.1,0-0.2-0.1H384h0h-0.3h0l-0.2,0.1c-0.1,0-0.2,0.1-0.2,0.2l-0.1,0.2
		c-0.1,0.1-0.1,0.2-0.1,0.3c0,0.1,0,0.2,0,0.4c0,0.1,0.1,0.2,0.2,0.3c0.1,0.1,0.1,0.2,0.2,0.2l0.2,0.1c0.2,0,0.3,0,0.5,0l0.2-0.1
		c0.1-0.1,0.2-0.2,0.3-0.3l-0.1,0.2l0-0.1l-0.2,0.1h0.1l-0.2,0.1h0.1h-0.2h0.1h-0.2h0.1l-0.2-0.1h0.1l-0.2-0.1l0.1,0.1l-0.1-0.2
		c0,0,0,0,0,0.1l-0.1-0.2c0,0,0,0,0,0.1v-0.2v0.1v-0.2c0,0,0,0,0,0.1l0.1-0.2c0,0,0,0,0,0.1l0.1-0.2c0,0,0,0-0.1,0.1l0.2-0.1
		c0,0-0.1,0-0.1,0.1l0.2-0.1c0,0-0.1,0-0.1,0h0.2H384h0.2h-0.1l0.2,0.1h-0.1l0.2,0.1c-0.2-0.2-0.4-0.3-0.6-0.3c-0.1,0-0.2,0-0.4,0.1
		c-0.1,0-0.2,0.1-0.3,0.2l-0.1,0.2c-0.1,0.1-0.1,0.3-0.1,0.5v0.2c0,0.1,0.1,0.3,0.2,0.4L383.2,222.3z"/>
	<path class="st3" d="M327.2,248.2c3.6-0.6,7.2,0.7,10.7,1.5c3,0.9,6.2,0.9,9.2,0.1c5.4-1.7,9.5-6.3,10.4-11.9c0-0.6-0.4-1-0.9-1.1
		c-0.4,0-0.8,0.2-1,0.5c-1.4,3.9-2.5,9.3,1.9,11.8c1.5,0.9,3.4,0.8,4.9-0.2c1.6-1,2.6-2.9,4.4-3.5l-1.2-1.6c-0.8,1.5-0.2,3.3,1.3,4
		c0.7,0.4,1.5,0.4,2.3,0.2c1-0.4,1.2-0.6,1.8,0.4c0.3,0.6,0.7,1.2,1.1,1.7c0.9,1.1,2.4,1.8,3.6,0.9c0.5-0.3,0.7-0.9,0.4-1.4
		c-0.3-0.5-0.9-0.7-1.4-0.4c-0.7,0.3-1.5-1.5-1.8-1.9c-0.4-0.7-1-1.3-1.7-1.7c-0.8-0.3-1.6-0.3-2.3,0.1c-0.5,0.2-0.7,0.5-1.2,0.1
		c-0.3-0.2-0.4-0.7-0.2-1c0.3-0.5,0.1-1.2-0.4-1.5c-0.2-0.1-0.5-0.2-0.8-0.1c-1.3,0.5-2.4,1.3-3.3,2.3c-1,1-2.2,2.3-3.7,1.9
		c-1.6-0.6-2.8-2.1-2.9-3.8c-0.1-2,0.3-4.1,1.1-5.9l-1.9-0.3c-0.9,5.5-5.1,9.8-10.5,10.9c-3.1,0.6-6.2-0.3-9.3-1
		c-2.9-0.9-6-1.1-9-0.7C325.9,247,326.3,248.4,327.2,248.2L327.2,248.2z"/>
	<path class="st3" d="M342.8,268.9l7.9-1c0.5,0,0.9-0.4,0.9-0.9c0-0.4-0.4-1-0.9-0.9l-7.9,1c-0.5,0-0.9,0.4-0.9,0.9
		C341.9,268.4,342.3,268.9,342.8,268.9z"/>
	<path class="st3" d="M340.9,387.5c7,1.5,14.2,1.5,21.2,0c4.8-1.1,11.8-3.4,11.5-9.5c0-2.2-1.2-4.3-3.2-5.3c-2.4-1-5,0.3-6.5,2.3
		c-1.9,2.5-1.8,6-1.6,9c0.2,2.4,0.8,5.1,2.9,6.5c2.9,1.9,7.1,0.2,10.1-0.9c3.6-1.3,6.9-3.1,10-5.3l-1.6-1.2
		c-0.4,1.6,0.2,3.2,1.5,4.2c1.5,1.2,3.5,1.2,5.3,0.9c4.7-0.7,9.4-1.9,14-2.8c1.2-0.2,0.7-2-0.5-1.8c-3.5,0.6-7,1.3-10.4,1.9
		c-1.7,0.5-3.3,0.7-5.1,0.8c-1.4-0.1-3.2-0.9-2.7-2.6c0.2-0.8-0.8-1.8-1.6-1.2c-4.3,3.1-9.1,5.3-14.2,6.5c-1.2,0.3-2.6,0.5-3.7-0.3
		c-0.9-0.7-1.5-1.8-1.6-2.9c-0.6-2.4-0.6-4.8-0.2-7.2c0.5-2.1,2.3-4.9,4.9-4.2c1.8,0.5,2.5,2.7,2.4,4.4c-0.5,4.9-7.1,6.4-11,7.2
		c-6.4,1.3-13,1.3-19.4-0.1C340.3,385.7,339.9,387.2,340.9,387.5L340.9,387.5z"/>
	<path class="st3" d="M354.1,415.5c15.7,0.4,31.5-0.3,47.1-2.1c1.1-0.1,1.1-1.8,0-1.7c-15.6,1.9-31.3,2.6-47.1,2.2
		c-0.4,0-0.7,0.4-0.7,0.9C353.4,415.1,353.7,415.4,354.1,415.5z"/>
	<path class="st3" d="M367,437.7c15.6,1,31.3-0.5,46.5-4.4c0.4-0.2,0.6-0.6,0.5-1.1c-0.1-0.4-0.5-0.6-0.9-0.5
		c-15,3.9-30.5,5.4-46,4.5C366,436.1,366.1,437.6,367,437.7L367,437.7z"/>
	<path class="st3" d="M401.9,460.5h16.2c0.5-0.1,0.8-0.5,0.7-0.9c0-0.4-0.3-0.7-0.7-0.7h-16.2c-0.4,0-0.8,0.4-0.7,0.9
		C401.2,460.1,401.5,460.4,401.9,460.5L401.9,460.5z"/>
	<path class="st3" d="M492.1,533.1c4.5-1.9,9-3.8,13.9-4.5c3.5-0.5,10.4-0.9,11.7,3.6c0.5,1.7-0.4,3.6-2.4,3.2
		c-2.3-0.5-0.8-2.7,0.3-3.5c1.7-1.3,3.8-2.1,5.9-2.4c1.9-0.2,4.1,0.5,4.8,2.5l1.9-0.8c-0.4-0.7,0.9-1.1,1.4-1.3
		c1-0.2,2.1-0.3,3.2-0.2c2.5,0,5,0.1,7.5,0.3c4.9,0.3,9.8,0.8,14.6,1.6c9.7,1.6,19.2,4.1,28.5,7.5c1.2,0.4,1.7-1.4,0.5-1.9
		c-16.3-6.2-33.6-9.5-51-9.7c-1.9,0-3.8,0-5.4,1.2c-1.2,0.9-1.8,2.3-0.9,3.6c0.6,0.9,2.3,0.4,1.9-0.8c-0.6-1.8-2.1-3.2-4-3.8
		c-2.2-0.5-4.6-0.2-6.6,0.8c-1.9,0.8-4.1,1.9-5.2,3.8c-0.9,1.5-0.6,3.4,0.8,4.5c1.3,0.9,3.1,1,4.5,0.2c1.5-1,2.2-2.9,1.8-4.7
		c-0.9-4.9-6.8-5.8-10.9-5.6c-6.1,0.2-11.9,2.7-17.4,5.1C490.4,532.1,491.2,533.5,492.1,533.1L492.1,533.1z"/>
	<path class="st3" d="M450.5,555.3c20.6-1.4,41.2,1.9,60.4,9.7c5.4,2.2,10.7,4.8,15.8,7.7c0.4,0.2,0.9,0,1.1-0.4
		c0.2-0.4,0.1-0.8-0.3-1c-18.2-10.3-38.4-16.3-59.2-17.6c-5.9-0.4-11.9-0.4-17.8,0.1C449.5,553.8,449.5,555.4,450.5,555.3
		L450.5,555.3z"/>
	<path class="st3" d="M530.3,584.8l-3.2-0.8c-0.5-0.1-0.9,0.1-1,0.6c-0.1,0.5,0.1,0.9,0.6,1l0,0l3.2,0.8c0.4,0.2,0.9,0,1.1-0.5
		c0.2-0.4,0-0.9-0.5-1.1C530.5,584.8,530.4,584.8,530.3,584.8L530.3,584.8z"/>
	<path class="st3" d="M406.1,579.5c13.3,2,28,4.5,37.8,14.6l0.4-1.4c-2,0.8-4.3,0.4-5.8-1.2l-0.2,1.5c3.9-2.4,8.2,1,11.3,3.2
		s7,4.4,10.9,3l-1.2-0.7c0.2,1.3,0.5,2.6,0.7,3.9s2,0.7,1.8-0.5s-0.4-2.6-0.6-3.9c-0.2-0.5-0.7-0.8-1.2-0.7
		c-4.4,1.7-8.3-2.2-11.7-4.4c-3.1-2-7.4-3.7-10.8-1.5c-0.4,0.3-0.6,0.8-0.3,1.3c0,0.1,0.1,0.1,0.1,0.2c2,2,5.1,2.5,7.7,1.4
		c0.4-0.2,0.5-0.7,0.3-1.1c0-0.1-0.1-0.1-0.1-0.2c-10-10.3-24.9-12.8-38.5-14.8C405.6,578,405.2,579.4,406.1,579.5L406.1,579.5z"/>
	<path class="st3" d="M463.1,622c0.5-0.1,0.9-0.5,0.8-1c0-0.4-0.4-0.8-0.8-0.8c-0.5,0.1-0.9,0.5-0.8,1
		C462.3,621.6,462.7,622,463.1,622z"/>
	<path class="st3" d="M374,610.7c6.8,3,13.3,6.8,19.3,11.1c1.2,0.9,2.4,1.9,4,2.1s3-0.6,4.5-1.2l11.2-5l-1.4-1l-3.4,13.9
		c-0.1,0.5,0.2,1.1,0.7,1.2c0.2,0,0.3,0,0.5,0c3.2-0.5,6.2-2,8.7-4.2l-1.7-0.4c0.6,1.1,1,2.4,1,3.7c-0.1,1-0.9,2.2-2,1.9
		c-0.6-0.2-1.1,0.2-1.3,0.7c-0.2,0.6,0.2,1.1,0.7,1.3c4.4,1.5,8.6,3.5,12.5,5.9c0.5,0.2,1.1-0.1,1.3-0.6c0.1-0.4,0-0.8-0.3-1.1
		c-4.1-2.6-8.4-4.6-13-6.2l-0.5,2c1.7,0.4,3.4-0.5,4.1-2c1.1-2,0.3-4.3-0.5-6.2c-0.1-0.5-0.7-0.9-1.2-0.7c-0.2,0-0.3,0.1-0.5,0.3
		c-2.2,2-4.9,3.3-7.8,3.7l1.2,1.2l3.3-13.9c0.1-0.5-0.2-1-0.7-1.1c-0.2-0.1-0.5,0-0.7,0.1l-10.1,4.5c-1.6,0.8-3.6,2.1-5.4,1.3
		c-1.4-0.8-2.6-1.6-3.9-2.6c-5.7-3.8-11.7-7.1-17.9-9.9C373.9,609.1,373.2,610.3,374,610.7L374,610.7z"/>
	<path class="st3" d="M335,641.5c15.8,7.5,32.1,13.9,48.8,19.1c4.7,1.5,9.5,2.9,14.3,4.2c0.4,0.1,0.9-0.1,1-0.6
		c0.1-0.4-0.1-0.9-0.6-1l0,0c-16.7-4.6-33.2-10.3-49.2-17c-4.6-1.9-9.1-3.9-13.7-6C334.9,639.9,334.1,641.1,335,641.5L335,641.5z"/>
	<path class="st3" d="M316.4,679.5c5.4,4.3,11,8.7,17.8,10.3c5.4,1.3,11.1,0.1,15.5-3.3c2.3-1.9,3.9-4.5,4.4-7.4
		c0.1-0.7-0.6-1.5-1.3-1c-4.7,3.2-6.4,9.2-4.2,14.4c1.3,2.8,3.9,4.1,6.8,2.8s4.7-4.7,8-5.3l-1.3-1c-0.6,8,5.3,14.9,13.3,15.6
		c1.5,0.1,2.9,0,4.4-0.3c1.2-0.3,0.7-2.1-0.5-1.9c-6.8,1.4-13.5-2.9-14.9-9.8c-0.2-1.2-0.3-2.4-0.2-3.6c0-0.6-0.4-1-1-1
		c-0.1,0-0.2,0-0.3,0c-2.5,0.4-4.1,2.3-5.9,3.9c-0.9,0.9-2.1,1.6-3.4,1.9c-1.5,0.2-2.5-0.7-3.2-2c-1.9-4.3-0.6-9.4,3.2-12.2
		l-1.3-0.8c-0.9,6.5-8,9.9-14,9.9c-8-0.1-14.9-5.6-20.9-10.3C316.7,677.8,315.6,678.9,316.4,679.5L316.4,679.5z"/>
	<path class="st3" d="M304.3,737.3c17.8,6.9,36.5,10.9,55.5,11.8c1.1,0,1.1-1.6,0-1.7c-18.9-0.9-37.5-4.9-55.1-11.6
		C303.8,735.5,303.5,736.9,304.3,737.3L304.3,737.3z"/>
	<path class="st3" d="M315.5,775.6c4.1,1.5,8.5,2.3,12.8,2.4c0.5,0,0.8-0.5,0.7-0.9c0-0.4-0.3-0.7-0.7-0.7
		c-4.2-0.1-8.4-0.9-12.4-2.3C314.9,773.7,314.5,775.2,315.5,775.6L315.5,775.6z"/>
</g>
<path d="M215.3,257.1C215.3,257.1,215.4,256.9,215.3,257.1c0-0.1,0-0.1,0.1-0.1c0-0.1,0.1-0.2,0.2-0.3l0.2-0.3l0.1-0.1
	c-0.1,0.2,0,0,0,0c0.2-0.2,0.3-0.4,0.5-0.5l0.1-0.1l0.1-0.1c-0.1,0.1,0,0,0.1-0.1l0.2-0.1c0.2-0.1,0.4-0.2,0.6-0.4l0.1-0.1
	c0.1-0.1,0.1,0,0,0c0.1,0,0.2-0.1,0.4-0.1s0.4-0.1,0.7-0.2c0.1,0,0.2-0.1,0.4-0.1c0.1,0,0.1,0,0.2,0c0.5,0,0.9-0.4,0.9-0.9
	s-0.4-0.9-0.9-0.9c-0.6-0.1-1.2,0-1.8,0.2c-0.6,0.2-1.2,0.6-1.7,1c-0.9,0.8-1.6,1.8-1.9,3c-0.1,0.4,0.1,0.9,0.6,1c0,0,0,0,0,0
	c0.4,0.1,0.9-0.1,1-0.6L215.3,257.1z"/>
</svg>
