<?xml version="1.0" encoding="utf-8"?>
<!-- Generator: Adobe Illustrator 26.2.1, SVG Export Plug-In . SVG Version: 6.00 Build 0)  -->
<svg version="1.1" id="Capa_1" xmlns="http://www.w3.org/2000/svg" xmlns:xlink="http://www.w3.org/1999/xlink" x="0px" y="0px"
	 viewBox="0 0 527.68 446.22" style="enable-background:new 0 0 527.68 446.22;" xml:space="preserve">
<style type="text/css">
	.st0{clip-path:url(#SVGID_00000024706827198858869360000017958024051392041624_);}
	.st1{fill:#C0D5E5;}
	.st2{fill:none;stroke:#6F95BC;stroke-miterlimit:10;}
	.st3{fill:#6F95BC;}
	.st4{fill:url(#SVGID_00000128481721043496738820000007316884121586960261_);}
	.st5{fill:url(#SVGID_00000025415048331915507840000005774373316002432658_);}
	.st6{fill:url(#SVGID_00000174569052534911803540000010916775955355335837_);}
	.st7{fill:url(#SVGID_00000055702825769524699340000014145157172265249720_);}
	.st8{fill:url(#SVGID_00000098922970708636921310000005996300783800595871_);}
	.st9{fill:url(#SVGID_00000111185750837494585240000000477369814000734644_);}
	.st10{fill:url(#SVGID_00000119840147408800086360000000365234954515999423_);}
	.st11{fill:url(#SVGID_00000150803891827955126510000008111263339734867358_);}
	.st12{fill:#41455F;}
	.st13{fill:url(#SVGID_00000109750373169193472110000005589925500314550404_);}
	.st14{fill:url(#SVGID_00000020366308102845495500000013880648290648351123_);}
	.st15{opacity:0.5;fill:url(#SVGID_00000116947313725605715120000011969081701697477259_);}
	.st16{fill:url(#SVGID_00000057863485178377330220000008711160387163450267_);}
	.st17{fill:url(#SVGID_00000070831772631662686980000016860245886450481029_);}
	.st18{fill:#1B1464;}
	.st19{fill:none;stroke:#1B1464;stroke-miterlimit:10;}
	.st20{fill:url(#SVGID_00000105385804589848117660000009203765504078094001_);}
	.st21{fill:url(#SVGID_00000116937565379186113370000010786256604148081817_);}
	.st22{fill:url(#SVGID_00000003077448737396794410000016943868926743750322_);}
	.st23{fill:url(#SVGID_00000072969529649278920180000014611675992697279897_);}
	.st24{fill:url(#SVGID_00000032649502991321319100000000238612738409598603_);}
	.st25{fill:url(#SVGID_00000158743200469611609750000009579744071473251773_);}
	.st26{fill:url(#SVGID_00000170966484780880577050000000225969508215963322_);}
	.st27{fill:url(#SVGID_00000086681442124813891350000006169449432163175305_);}
	.st28{fill:url(#SVGID_00000031168264974592867580000007939342340482526375_);}
	.st29{fill:#840F20;}
	.st30{fill:#700A20;}
	.st31{fill:#00514B;}
	.st32{fill:url(#SVGID_00000011735429953784540770000012519103070505627797_);}
	.st33{fill:url(#SVGID_00000106110722373597870180000004576115197721871268_);}
	.st34{fill:url(#SVGID_00000142145344827899239970000003185183895373935523_);}
	.st35{fill:url(#SVGID_00000033332249281811814080000013141138242810728579_);}
	.st36{fill:url(#SVGID_00000036954270507108607950000008173898207897558191_);}
	.st37{fill:url(#SVGID_00000088816024742868820700000011157077958961239949_);}
	.st38{fill:url(#SVGID_00000072995057302441416000000004264850915667989137_);}
	.st39{fill:url(#SVGID_00000166667661497799480330000007687404795540920225_);}
	.st40{fill:url(#SVGID_00000170256262188540474660000007917358696377892749_);}
	.st41{fill:url(#SVGID_00000179607921394718796190000013125679179001473671_);}
	.st42{fill:url(#SVGID_00000127760612724642913500000010758950368612584071_);}
	.st43{fill:url(#SVGID_00000167365311377911737090000011705516961383308726_);}
	.st44{fill:url(#SVGID_00000013151534706295984680000003489103512832504198_);}
	.st45{fill:#FFFFFF;}
	.st46{font-family:'Poppins-Medium';}
	.st47{font-size:8.2507px;}
	.st48{opacity:0.2;fill:url(#SVGID_00000163773954538217482210000001563351858346426555_);}
	.st49{fill:url(#SVGID_00000183956748560998357520000002907758767536481171_);}
</style>
<g>
	<defs>
		<rect id="SVGID_1_" width="525.76" height="446.22"/>
	</defs>
	<clipPath id="SVGID_00000106868661322692286970000000187410987185718973_">
		<use xlink:href="#SVGID_1_"  style="overflow:visible;"/>
	</clipPath>
	<g style="clip-path:url(#SVGID_00000106868661322692286970000000187410987185718973_);">
		<g>
			
				<ellipse transform="matrix(0.9257 -0.3782 0.3782 0.9257 -59.1037 200.3588)" class="st1" cx="480.56" cy="250.66" rx="19.42" ry="19.42"/>
			
				<ellipse transform="matrix(0.9239 -0.3827 0.3827 0.9239 -48.2952 34.8303)" class="st1" cx="63.4" cy="138.81" rx="12.55" ry="12.55"/>
			
				<ellipse transform="matrix(0.9924 -0.1233 0.1233 0.9924 -7.7198 51.7622)" class="st1" cx="414.2" cy="88.23" rx="38.92" ry="38.92"/>
			<path class="st1" d="M87.4,445.65h354.69c15.98-10.66,38.7-22.93,47.21-47.79c20.15-58.86-27.3-79.8-53.14-108.97
				c-25.84-29.17,27.63-41.25,20.48-104.06c-3.68-32.31-46.86-61.84-91.02-46.31c-44.16,15.53-50.57-2.95-71.04-40.62
				c-23.8-43.79-125.45-67.54-184.37,11.16c-58.93,78.69-2.08,138.32-8.75,166.46c-6.66,28.14-54.15,42.65-57.53,96.81
				C41.97,403.7,53.56,431.79,87.4,445.65z"/>
		</g>
		<g>
			<g>
				<path class="st2" d="M131.16,443.03c6.88-4.91,7.56-36.03-20.65-42.33c-14.41-3.22-12.1-10.43-15.01-19.7
					c-2.91-9.28-6.56-9.96-14.81-11.22c-8.25-1.26-2.05-12.5-11.84-19.01c-9.79-6.51-22.93-7.01-27.82,7.22
					c-4.14,12.05,7.59,17.35,9.99,22.95c2.39,5.6-4.57,13.16,3.92,21.61c8.49,8.45,17.58,2.09,17.69,11.03
					c0.11,8.94,4.09,25.24,12.71,28.6C96.01,446.33,125.73,446.9,131.16,443.03z"/>
				<g>
					<g>
						<path class="st3" d="M122.64,445.51c-3.76-4.48-7.66-8.85-11.43-13.33c-9.37-11.14-18.53-22.46-27.47-33.95
							c-6.64-8.53-13.16-17.15-19.54-25.88c-0.56-0.77-1.87-0.02-1.3,0.76c10.6,14.49,21.57,28.7,32.84,42.66
							c7.14,8.84,14.41,17.59,21.83,26.2c1.32,1.53,2.69,3.04,3.99,4.59C122.2,447.32,123.25,446.25,122.64,445.51L122.64,445.51z"
							/>
					</g>
				</g>
			</g>
			<g>
				<path class="st2" d="M100.56,392.85c0.75-6.14,1.72-12.15,2.27-17.74c2.25-22.73-35.84-16.27-48.32-45.44
					c-12.48-29.17,29.57-28.42,10.46-48.28c-18.08-18.78-18.04-53.24,1.9-63.11c27.73-13.72,52.57,9.5,55.9,32.03
					c2.57,17.38-9.08,29.51,21.24,42.25c30.32,12.74,25.64,28.56,19.41,58.81c-6.23,30.26,14.26,19.16,30.19,44.7
					c12.62,20.24-5.12,40.88-13.02,48.58l-61.38,1.05"/>
				<g>
					<g>
						<g>
							<path class="st3" d="M169.5,443.84c-0.67-1.54-1.33-3.07-2-4.6c-1.82-4.2-3.65-8.4-5.48-12.59
								c-2.74-6.3-5.49-12.59-8.24-18.88c-3.44-7.87-6.89-15.73-10.35-23.59c-3.87-8.8-7.75-17.6-11.63-26.39
								c-4.09-9.24-8.19-18.48-12.31-27.71c-4.03-9.03-8.08-18.06-12.15-27.07c-3.77-8.33-7.55-16.66-11.38-24.97
								c-3.22-7-6.47-13.98-9.79-20.93c-2.46-5.16-4.94-10.3-7.56-15.38c-0.46-0.9-0.93-1.8-1.41-2.69
								c-0.46-0.85-1.75-0.09-1.3,0.76c2.42,4.52,4.67,9.13,6.9,13.74c3.16,6.54,6.24,13.13,9.3,19.72
								c3.71,8,7.37,16.02,11.01,24.05c4.05,8.92,8.07,17.86,12.07,26.8c4.11,9.2,8.21,18.4,12.29,27.61
								c3.98,8.98,7.95,17.97,11.91,26.96c3.57,8.12,7.14,16.24,10.69,24.36c2.96,6.75,5.91,13.51,8.86,20.27
								c2.08,4.76,4.15,9.52,6.22,14.29c0.97,2.23,1.84,4.54,2.92,6.72c0.05,0.09,0.08,0.19,0.12,0.29
								C168.58,445.48,169.88,444.72,169.5,443.84L169.5,443.84z"/>
						</g>
					</g>
					<g>
						<g>
							<g>
								<path class="st3" d="M112.16,315.24c-11.99-0.66-23.98-1.33-35.98-1.99c-1.72-0.1-3.45-0.19-5.17-0.29
									c-0.96-0.05-0.96,1.45,0,1.5c11.99,0.66,23.98,1.33,35.98,1.99c1.72,0.1,3.45,0.19,5.17,0.29
									C113.13,316.8,113.13,315.3,112.16,315.24L112.16,315.24z"/>
							</g>
						</g>
						<g>
							<g>
								<path class="st3" d="M153.71,408.97c-9.48-1.07-18.97-2.13-28.45-3.2c-1.33-0.15-2.67-0.3-4-0.45
									c-0.96-0.11-0.95,1.39,0,1.5c9.48,1.07,18.97,2.13,28.45,3.2c1.33,0.15,2.67,0.3,4,0.45
									C154.67,410.58,154.66,409.07,153.71,408.97L153.71,408.97z"/>
							</g>
						</g>
					</g>
					<g>
						<g>
							<path class="st3" d="M156.16,306.86c-2.73,6.13-5.46,12.26-8.19,18.38c-4.33,9.72-8.66,19.45-12.99,29.17
								c-1,2.24-2,4.48-2.99,6.72c-0.39,0.87,0.9,1.64,1.3,0.76c2.73-6.13,5.46-12.26,8.19-18.38c4.33-9.72,8.66-19.45,12.99-29.17
								c1-2.24,2-4.48,2.99-6.72C157.85,306.75,156.56,305.98,156.16,306.86L156.16,306.86z"/>
						</g>
					</g>
				</g>
				<path class="st2" d="M98.2,245.34c2.01,2.96,5.52,4.08,7.83,2.51c2.31-1.57,2.55-5.24,0.54-8.2c-2.01-2.96-5.52-4.08-7.83-2.51
					C96.43,238.71,96.18,242.38,98.2,245.34z"/>
				<path class="st2" d="M96.72,261.32c0,1.56,1.27,2.83,2.83,2.83c1.56,0,2.83-1.27,2.83-2.83s-1.27-2.83-2.83-2.83
					C97.99,258.49,96.72,259.76,96.72,261.32z"/>
			</g>
			<g>
				<path class="st2" d="M426.9,424.86c1.33-2.96-7.36-15.94,2.9-20.77s11.06-16.95,11.06-16.95c0.5-4.62,0.81-9.19,1.36-13.38
					c2.22-17.03,29.01-5.82,43.12-25.05c14.1-19.24-16.82-25.84,0.56-37.14c16.43-10.68,22.27-35.92,9.35-46.54
					c-17.97-14.77-40.12-1.99-46.39,13.94c-4.84,12.29,1.63,23.16-22.75,27.33c-24.37,4.17-23.64,16.55-24.22,39.77
					c-0.59,23.22-13.71,11.61-29.72,27.6c-12.69,12.67-3.21,30.81,1.27,37.79c0,0,2.45,6.69-3.09,13.4
					c-5.54,6.71-17.05,7.51-13.41,21.36"/>
				<g>
					<g>
						<g>
							<path class="st3" d="M377.03,446.03c2.98-4.86,5.98-9.71,8.98-14.56c7.37-11.93,14.78-23.84,22.22-35.73
								c9.35-14.95,18.76-29.86,28.25-44.72c9.06-14.17,18.18-28.3,27.54-42.27c6.26-9.34,12.46-18.87,19.58-27.6
								c0.49-0.6,0.98-1.19,1.49-1.76c0.63-0.72-0.42-1.79-1.06-1.06c-2.73,3.11-5.17,6.47-7.6,9.82
								c-3.65,5.04-7.17,10.17-10.65,15.32c-9.18,13.56-18.09,27.31-26.93,41.09c-9.64,15.03-19.18,30.12-28.67,45.25
								c-7.82,12.47-15.6,24.96-23.34,37.47c-2.48,4.01-4.96,8.02-7.44,12.04c-1.16,1.89-2.46,3.75-3.51,5.71
								c-0.04,0.08-0.1,0.16-0.15,0.24C375.23,446.09,376.52,446.85,377.03,446.03L377.03,446.03z"/>
						</g>
					</g>
					<g>
						<g>
							<g>
								<path class="st3" d="M444.76,338.91c8.91,1.56,17.82,3.11,26.73,4.67c1.27,0.22,2.53,0.44,3.8,0.66
									c0.94,0.17,1.35-1.28,0.4-1.45c-8.91-1.56-17.82-3.11-26.73-4.67c-1.27-0.22-2.53-0.44-3.8-0.66
									C444.22,337.3,443.81,338.74,444.76,338.91L444.76,338.91z"/>
							</g>
						</g>
						<g>
							<g>
								<path class="st3" d="M408.5,394.48c7.12,0.83,14.24,1.66,21.36,2.5c1.01,0.12,2.02,0.24,3.03,0.35
									c0.96,0.11,0.95-1.39,0-1.5c-7.12-0.83-14.24-1.66-21.36-2.5c-1.01-0.12-2.02-0.24-3.03-0.35
									C407.54,392.86,407.55,394.37,408.5,394.48L408.5,394.48z"/>
							</g>
						</g>
					</g>
					<g>
						<g>
							<path class="st3" d="M415.15,325.18c0.95,4.94,1.91,9.89,2.86,14.83c1.52,7.88,3.04,15.75,4.56,23.63
								c0.35,1.8,0.7,3.6,1.04,5.4c0.18,0.95,1.63,0.55,1.45-0.4c-0.95-4.94-1.91-9.89-2.86-14.83c-1.52-7.88-3.04-15.75-4.56-23.63
								c-0.35-1.8-0.7-3.6-1.04-5.4C416.41,323.83,414.97,324.23,415.15,325.18L415.15,325.18z"/>
						</g>
					</g>
				</g>
				<path class="st2" d="M467.7,279.51c-1.98,1.82-4.73,2.05-6.16,0.5c-1.42-1.54-0.98-4.27,1-6.1c1.98-1.82,4.73-2.05,6.16-0.5
					C470.12,274.96,469.67,277.69,467.7,279.51z"/>
				<path class="st2" d="M466.06,291.47c-0.27,1.14-1.41,1.86-2.55,1.59c-1.14-0.27-1.86-1.41-1.59-2.55
					c0.27-1.14,1.41-1.86,2.55-1.59C465.61,289.18,466.32,290.32,466.06,291.47z"/>
			</g>
			<g>
				<g>
					<path class="st2" d="M472.6,444.88c0.83-5.14,0.25-10.7,0.34-15.49c0.21-10.35,15.91-3.59,24.17-15.8
						c8.27-12.21-7-19.11,1.22-23.57c8.22-4.46,12.29-21.14,2.33-27.71c-12.32-8.13-27.45-0.17-30.55,9.71
						c-2.39,7.61,2.94,13.88-13.62,17.46c-16.56,3.58-15.08,11.01-13.67,25.01c1.41,14.01-9,2.5-18.84,12.84
						c-5.58,5.86-2.02,13.9,1.19,18.9"/>
				</g>
				<g>
					<g>
						<g>
							<path class="st3" d="M441.63,446.6c6.93-10.08,13.88-20.14,20.88-30.17c7.84-11.25,15.71-22.49,23.79-33.56
								c2.95-4.04,5.89-8.1,9.08-11.96c0.61-0.74-0.45-1.81-1.06-1.06c-6.73,8.15-12.74,16.94-18.85,25.54
								c-8.26,11.64-16.41,23.35-24.53,35.09c-3.54,5.12-7.07,10.24-10.6,15.37C439.79,446.64,441.09,447.39,441.63,446.6
								L441.63,446.6z"/>
						</g>
					</g>
					<g>
						<g>
							<g>
								<path class="st3" d="M471.67,402.97c6.28,0.55,12.57,1.09,18.85,1.64c0.9,0.08,1.81,0.16,2.71,0.24
									c0.96,0.08,0.96-1.42,0-1.5c-6.28-0.55-12.57-1.09-18.85-1.64c-0.9-0.08-1.81-0.16-2.71-0.24
									C470.71,401.38,470.71,402.88,471.67,402.97L471.67,402.97z"/>
							</g>
						</g>
					</g>
					<g>
						<g>
							<path class="st3" d="M448.22,395.35c2.72,7.61,5.44,15.21,8.15,22.82c0.38,1.07,0.77,2.15,1.15,3.22
								c0.32,0.9,1.77,0.51,1.45-0.4c-2.72-7.61-5.44-15.21-8.15-22.82c-0.38-1.07-0.77-2.15-1.15-3.22
								C449.35,394.05,447.9,394.44,448.22,395.35L448.22,395.35z"/>
						</g>
					</g>
				</g>
				<path class="st2" d="M483.22,371.51c-1.23,1.18-3.12,1.44-4.23,0.57c-1.11-0.87-1.01-2.53,0.22-3.72
					c1.23-1.18,3.12-1.44,4.23-0.57C484.54,368.66,484.45,370.32,483.22,371.51z"/>
				<path class="st2" d="M489.28,412.95c-0.18,1.36-1.61,2.29-3.2,2.08c-1.58-0.21-2.71-1.49-2.53-2.85
					c0.18-1.36,1.61-2.29,3.2-2.08C488.34,410.31,489.47,411.59,489.28,412.95z"/>
			</g>
		</g>
	</g>
	<g style="clip-path:url(#SVGID_00000106868661322692286970000000187410987185718973_);">
		<path d="M169.29,218.18c0.06,0.79,0.13,1.57,0.2,2.33c-0.72,0.55-1.61,1.44-2.27,3.19c-1.28,3.42,1.78,3.89,3.4,4.93
			c0.11,0.61,0.25,1.19,0.37,1.79c-1.21,0.71-4.06,1.04-2.83,3.35c0.42,0.79,1.11,1.37,1.89,1.79c-0.03,0.1-0.07,0.2-0.09,0.31
			c-0.54,2.26,1.47,2.99,3.47,3.44c0.5,1.44,1.05,2.83,1.63,4.18c-0.24,0.55-0.44,1.23-0.56,2.07c-0.43,3.09,1.76,3.39,3.54,3.82
			c0.43,0.73,0.89,1.43,1.35,2.13c-1.15,0.89-3.36,1.83-1.78,3.67c1.09,1.27,2.95,1.63,4.51,1.62c-0.22,0.87,0.27,2.25,2.58,2.39
			c2.89,0.18,1,2.37,0.61,3.02c-0.25,0.42,1.21-0.12,2.32-1.21c0.09,0.08,0.18,0.17,0.28,0.25c-0.37,0.77-0.24,2.03,1.58,2.96
			c2.58,1.32-0.03,2.57-0.65,3.01c-0.62,0.44,3.49,0.41,4.59-1.78c0.01-0.01,0.01-0.02,0.01-0.04c1.01,0.65,2.06,1.27,3.12,1.85
			c-0.23,0.15-0.44,0.29-0.55,0.39c-0.66,0.62-0.6,2.76,2.29,2.95c2.89,0.18,1,2.37,0.61,3.02c-0.39,0.65,3.37-1.01,3.5-3.46
			c0-0.04,0-0.07,0-0.11c1.71,0.7,3.48,1.33,5.29,1.9c-0.35,0.77-0.19,2.01,1.6,2.93c2.58,1.32-0.03,2.57-0.65,3.01
			c-0.62,0.44,3.49,0.41,4.59-1.78c0.04-0.08,0.06-0.15,0.09-0.22c0.03,0.21,0.09,0.44,0.22,0.71c1.43,2.9,6.85,2.96,6.04,2.38
			s-4.24-2.25-0.83-3.97c0.21-0.1,0.39-0.21,0.57-0.32c8.2,1.36,17.15,1.81,26.67,1.6c20.21-0.45,39.12-3.51,52.78-14.56
			c1.82,1.25,4.13,1.6,3.66,1.1c-0.45-0.47-1.89-1.6-1.86-2.63c0.5-0.45,0.99-0.91,1.48-1.38c0.1-0.04,0.2-0.07,0.31-0.11
			c2.5-0.72,3.08-2.21,2.88-3.31c1-1.18,1.96-2.42,2.87-3.74c1.11,1.41-1.39,2.64-2.07,3.12c-0.83,0.59,4.67,0.55,6.14-2.38
			c1.06-2.11-1.43-2.39-2.6-2.99c0.47-0.76,0.93-1.54,1.37-2.34c1.37-0.7,2.78-1.53,1.93-3.83c0.55-1.2,1.07-2.43,1.56-3.71
			c1.29-0.31,2.65-0.95,3.34-2.15c0.94-1.65-0.48-2.24-1.67-2.75c0.26-0.87,0.51-1.75,0.74-2.65c1.42-0.64,2.9-1.42,2.06-3.86
			c-0.24-0.69-0.51-1.23-0.8-1.67c0.26-1.36,0.5-2.76,0.71-4.19c1.72-0.76,3.39-1.76,2.51-3.71c-0.47-1.03-1.14-1.67-1.81-2.12
			c0.1-1.03,0.18-2.07,0.25-3.13c0.59-0.43,1.1-0.97,1.39-1.66c0.58-1.38-0.21-1.92-1.17-2.27c0.04-1.07,0.07-2.17,0.09-3.28
			c1.15-0.75,2.1-1.73,1.11-3.78c-0.36-0.75-0.76-1.31-1.15-1.74c-0.05-1.23-0.12-2.48-0.22-3.73c1.79-1.01,3.88-2.27,2.64-4.32
			c-0.97-1.6-2.35-2.07-3.41-2.44c-0.21-1.44-0.46-2.89-0.73-4.34c0.34-0.5,0.58-1.06,0.65-1.66c0.16-1.29-0.52-1.69-1.37-1.82
			c-0.27-1.21-0.56-2.41-0.86-3.62c0.71-0.95,1.04-2.05-0.28-3.54c-0.32-0.36-0.64-0.66-0.94-0.91c-0.44-1.5-0.91-2.99-1.4-4.47
			c1.3-1.36,2.46-2.94,0.9-4.39c-1-0.93-2.05-1.22-2.97-1.34c-0.25-0.65-0.51-1.29-0.77-1.94c0.54-0.76,0.93-1.64,0.89-2.57
			c-0.08-1.72-1.41-1.54-2.57-1.35c-0.33-0.74-0.67-1.47-1.02-2.2c0.85-1.28,1.86-2.71-0.15-4.32c-1.07-0.86-1.99-1.18-2.72-1.31
			c-0.37-0.69-0.75-1.37-1.14-2.04c1.13-1.67,3.13-3.99,0.97-5.41c-1.89-1.24-3.6-0.6-4.69-0.62c-0.51-0.76-1.02-1.5-1.55-2.24
			c-0.28-1.08-0.56-1.94-1.47-2.01c-0.21-0.28-0.41-0.55-0.62-0.82c0.2-0.82,0.24-1.68-0.08-2.46c-0.56-1.38-1.52-1.11-2.45-0.65
			c-0.64-0.75-1.29-1.48-1.95-2.19c0.29-1.3,0.35-2.63-1.72-3.36c-0.8-0.28-1.48-0.39-2.06-0.4c-0.82-0.75-1.66-1.48-2.5-2.17
			c0.53-1.88,1.18-4.2-1.05-4.75c-2.03-0.51-3.38,0.45-4.4,0.87c-0.75-0.46-1.52-0.89-2.29-1.29c-0.72-1.07-1.3-1.99-2.33-1.61
			c-1.06,0.39-1.47-1.27-3.65-0.91c-6.62-2.11-13.62-2.1-20.82,0.75c-15.49-7.21-33.33-3.17-48.49,9.02
			c-0.13-0.25-0.29-0.52-0.48-0.8c0,0-8.54,2.56-7.94,8.73c-1.14,1.24-2.24,2.53-3.33,3.87c-0.5-0.36-0.84-0.65-0.84-0.65
			s-3.87-0.05-2.85,5.54c-1.02,1.45-2,2.94-2.96,4.48c-0.39-0.19-0.73-0.37-0.95-0.43c-1.21-0.36-3.71,1.16-2.11,4.69
			c-0.85,0.69-2.05,1.79-2.96,3.17c-0.08-0.01-0.16-0.01-0.22-0.01c-0.22,0-0.19,0.14,0.01,0.35c-0.96,1.59-1.49,3.51-0.7,5.57
			c-0.62,1.45-1.22,2.93-1.79,4.43c-0.66-0.23-1.14-0.44-1.14-0.44s-3.74,1.02-0.87,6.26c-0.11,0.33-0.21,0.67-0.31,1
			c-1.62,1.24-1.14,2.52-1.56,3.24c-0.37-0.07-0.7-0.13-0.9-0.13c-1.21-0.02-3.15,2.09-0.54,4.96c0.29,0.32,0.5,0.61,0.64,0.87
			c-0.87,0.74-3.07,0.84-4.3,3.18c-1.13,2.14,1.14,3.26,2.99,4.16c-0.21,1.39-0.4,2.79-0.56,4.21c-0.21,0.34-0.42,0.73-0.6,1.19
			c-0.54,1.33-0.33,2.18,0.2,2.79c-0.31,3.78-0.46,7.64-0.43,11.59c0,0.09,0.01,0.17,0.01,0.25c-1.13,0.59-2.97,1.08-4.02,3.24
			C163.54,216.05,167.2,217.16,169.29,218.18z M211.07,272.92c1.42,0.38,2.87,0.73,4.35,1.04c-0.8,0.29-1.72,0.6-2.02,1.27
			c-0.25-1.21-2.98-1.07-2.48-2.09C210.96,273.06,211.01,272.99,211.07,272.92z M199.14,268.59c0.21,0.1,0.43,0.19,0.64,0.29
			C199.47,268.86,199.23,268.8,199.14,268.59z"/>
		<g>
			
				<radialGradient id="SVGID_00000139976457182527732390000012252861002826621058_" cx="1955.1504" cy="3078.8274" r="13.8141" gradientTransform="matrix(-1 0 0 1 2215.7012 -2356.5044)" gradientUnits="userSpaceOnUse">
				<stop  offset="0" style="stop-color:#9C493C"/>
				<stop  offset="0.9823" style="stop-color:#CC6633"/>
			</radialGradient>
			<path style="fill:url(#SVGID_00000139976457182527732390000012252861002826621058_);" d="M270.33,705.41h-18.95
				c0.67,9.83-0.61,25.96-0.61,25.96s4.48,7.31,6.32,7.84c1.84,0.53,13.17-7.84,13.17-7.84
				C269.32,724.42,269.62,714.67,270.33,705.41z"/>
			
				<radialGradient id="SVGID_00000029765895125362727190000010777403565491272118_" cx="-4487.1929" cy="437.7929" r="310.4319" gradientTransform="matrix(-1 0 0 1 -4236.1235 0)" gradientUnits="userSpaceOnUse">
				<stop  offset="0" style="stop-color:#41455F"/>
				<stop  offset="1" style="stop-color:#2C3147"/>
			</radialGradient>
			<path style="fill:url(#SVGID_00000029765895125362727190000010777403565491272118_);" d="M301.62,531.82
				c-1.06-40.55-6.09-86.61-6.09-86.61l-27.04-12.43l-22.79,15.43l-6.92,4.69c0,0,2.27,26.23,0.21,40.91
				c-1.5,10.7,5.32,56.48,8.82,82.9c0,0,0,0,0,0.02c1.29,9.82,2.13,16.95,1.92,18.62c-0.77,6.13-9.67,24.29-10.65,39.3
				c-0.98,15.01,7.03,44.81,7.03,44.81c0,0,0,0,0,0c0.96,3.74,3.86,15.33,4.95,22.77c0.14,0.95,0.43,7.48,0.51,8.64l18.4,0.07
				c1.08-14.17,3.47-32.69,3.47-32.69c-0.01,0-0.01,0.01-0.02,0.01c0,0,0.01-0.01,0.01-0.01s4.15-40.24,8.9-51.29
				c4.73-11.07,9.86-18.18,12.24-24.29c0.21-0.52,0.42-1.17,0.67-1.94c0.08-0.31,0.19-0.58,0.27-0.88c0.27-0.96,0.56-2.04,0.88-3.29
				c0.04-0.12,0.04-0.23,0.06-0.27v-0.02C299.08,585.44,302.43,563.7,301.62,531.82z"/>
			<g>
				
					<radialGradient id="SVGID_00000118380842767347928160000000409737950175429809_" cx="-4487.1929" cy="437.7929" r="310.4319" gradientTransform="matrix(-1 0 0 1 -4236.1235 0)" gradientUnits="userSpaceOnUse">
					<stop  offset="0" style="stop-color:#9C493C"/>
					<stop  offset="0.9823" style="stop-color:#CC6633"/>
				</radialGradient>
				<path style="fill:url(#SVGID_00000118380842767347928160000000409737950175429809_);" d="M219.18,728.01l-17.11-3.66
					c0,0-0.8,3.63-3.31-9.54h20.19C218.9,723.3,218.77,719.66,219.18,728.01z"/>
				
					<radialGradient id="SVGID_00000181784203753670756940000007336909242044483988_" cx="-4428.5605" cy="675.2687" r="0.0508" gradientTransform="matrix(-1 0 0 1 -4236.1235 0)" gradientUnits="userSpaceOnUse">
					<stop  offset="0" style="stop-color:#41455F"/>
					<stop  offset="1" style="stop-color:#2C3147"/>
				</radialGradient>
				<path style="fill:url(#SVGID_00000181784203753670756940000007336909242044483988_);" d="M192.5,675.3
					c-0.07-0.03-0.11-0.05-0.13-0.05c0.01,0,0.04,0.01,0.07,0.01C192.45,675.28,192.48,675.3,192.5,675.3z"/>
				
					<radialGradient id="SVGID_00000095338918489844897290000007158379194765706377_" cx="-4487.1929" cy="437.7929" r="310.4319" gradientTransform="matrix(-1 0 0 1 -4236.1235 0)" gradientUnits="userSpaceOnUse">
					<stop  offset="0" style="stop-color:#41455F"/>
					<stop  offset="1" style="stop-color:#2C3147"/>
				</radialGradient>
				<path style="fill:url(#SVGID_00000095338918489844897290000007158379194765706377_);" d="M193.17,678.24
					c-0.28-1.01-0.56-2.02-0.85-3.03c0,0,0,0,0.01,0v0.01L193.17,678.24z"/>
			</g>
			
				<radialGradient id="SVGID_00000145016608668352993100000002913111798986725813_" cx="-4487.1929" cy="437.7929" r="310.4319" gradientTransform="matrix(-1 0 0 1 -4236.1235 0)" gradientUnits="userSpaceOnUse">
				<stop  offset="0" style="stop-color:#41455F"/>
				<stop  offset="1" style="stop-color:#2C3147"/>
			</radialGradient>
			<path style="fill:url(#SVGID_00000145016608668352993100000002913111798986725813_);" d="M228.15,601.07
				c-9.77,10.81-18.71,6.3-22.4-1.19c-3.51-7.15-8.41-31.63-8.88-33.89c1.88,13.89,3.14,24.81,2.68,28.99
				c-1.59,14.39-11.6,28.21-14.17,43.62c-2.62,15.42,6.94,36.61,6.94,36.61s0,0,0.01,0.01c-0.01,0-0.01,0-0.01,0l0.84,3.02
				c2.26,8.22,4.24,29.52,5.59,36.57c0,0,9.27,1.41,14.33,0.89s5.87-0.89,5.87-0.89c0.07-12.92,0.23-36.57,0.23-36.57
				s9.02-58.41,12.96-69.47c3.96-11.04,12.33-21.47,15.64-32.03C247.19,577.56,237.58,590.61,228.15,601.07z M192.37,675.24
				c0.01,0,0.04,0.01,0.07,0.01c0.01,0.03,0.04,0.04,0.07,0.04C192.44,675.27,192.4,675.24,192.37,675.24z"/>
			
				<radialGradient id="SVGID_00000001646978904961648660000004272136397323198890_" cx="-4428.5605" cy="675.2687" r="0.0508" gradientTransform="matrix(-1 0 0 1 -4236.1235 0)" gradientUnits="userSpaceOnUse">
				<stop  offset="0" style="stop-color:#41455F"/>
				<stop  offset="1" style="stop-color:#2C3147"/>
			</radialGradient>
			<path style="fill:url(#SVGID_00000001646978904961648660000004272136397323198890_);" d="M192.44,675.26
				c0.01,0.03,0.04,0.04,0.07,0.04c-0.07-0.03-0.11-0.05-0.13-0.05C192.38,675.24,192.41,675.26,192.44,675.26z"/>
			
				<radialGradient id="SVGID_00000146477272089768814300000002375554136871068350_" cx="-4487.1929" cy="437.7929" r="310.4319" gradientTransform="matrix(-1 0 0 1 -4236.1235 0)" gradientUnits="userSpaceOnUse">
				<stop  offset="0" style="stop-color:#41455F"/>
				<stop  offset="1" style="stop-color:#2C3147"/>
			</radialGradient>
			<path style="fill:url(#SVGID_00000146477272089768814300000002375554136871068350_);" d="M258.58,535.01c0,0-0.04,0.21-0.12,0.63
				c-3.9,19.49-8.84,35.25-10.65,41.07c0,0,0,0,0,0.03l-0.03,0.01c-0.6,0.81-10.21,13.87-19.63,24.33
				c-9.77,10.81-18.71,6.3-22.4-1.19c-3.51-7.15-8.41-31.63-8.88-33.89c0-0.04-0.01-0.07-0.01-0.09s-0.01-0.04-0.01-0.07
				c0-0.01,0-0.01,0-0.01c-4.7-33.9-13.37-85.23-11.12-98.65c3.18-18.95,11.1-42.91,11.1-42.91s32.95,9.04,48.86,23.94
				c9.58,9.01,17.4,20.81,17.87,35.5C264.1,501.07,261.69,519.22,258.58,535.01z"/>
			<path class="st12" d="M275.43,728.02c0,0,3.25-9.11-0.23-13.9c-3.72-5.12-10.47-3.49-13.03,0c-2.03,2.77,1.47,13.9,1.47,13.9
				l-7.17-4.02c-4.29,0.15-7.77,3.53-8.05,7.82c-0.19,2.9-0.41,5.84-0.64,7.2c-0.53,3.16-4.64,22.06-4.64,23.64
				c0,0,51.36,4.08,89.28,4.08c0,0-6.05-15.39-33.73-17.95C295.69,742.27,279.94,728.96,275.43,728.02z"/>
			<path class="st12" d="M218.98,723.02l0.51,1.03c1.09,2.23,1.63,4.68,1.57,7.16c-0.08,3.01-0.08,7.68,0.37,13.14
				c0.79,9.61,1.05,19.23,1.05,19.23s-7.51,6.39-10.67,5.73c-3.16-0.66-25.02-17.58-36.08-3.49c0,0,1.1-12.48,12.93-14.08
				c-0.9-6.11,7.56-22.22,10.45-23.71c0-3.75,0.26-11.61,6.19-12.27c4.13-0.46,7.88,2.51,6.92,6.61c3.01-2.51,4.95,1.55,5.51,2.3
				C219.56,727.17,218.98,723.02,218.98,723.02z"/>
			
				<linearGradient id="SVGID_00000178184691733839086800000009008503639179555202_" gradientUnits="userSpaceOnUse" x1="1882.6075" y1="3123.5813" x2="1973.9541" y2="3123.5813" gradientTransform="matrix(-1 0 0 1 2215.7012 -2356.5044)">
				<stop  offset="0" style="stop-color:#FFC4BA"/>
				<stop  offset="1" style="stop-color:#FFE7E5"/>
			</linearGradient>
			<path style="fill:url(#SVGID_00000178184691733839086800000009008503639179555202_);" d="M329.11,761.43c0,0,3.98,3.84,3.98,6.99
				c0,1.39-0.13,2.93-0.27,4.21c-0.18,1.62-1.37,4.44-3,4.44h-84.86c-1.8,0-3.24-1.48-3.21-3.27c0.09-4.88,0.45-13.81,1.96-16.72
				c0,0,2.36,3.26,5.36,3.93c2.35,0.52,15.61,0.65,21.28,0.68c1.62,0.01,3.14,0.78,4.11,2.08l0.42,0.56c0,0,11.79,1.15,32.57,1.35
				C328.24,765.88,329.11,761.43,329.11,761.43z"/>
			
				<linearGradient id="SVGID_00000178186657111378125030000008023065154252887485_" gradientUnits="userSpaceOnUse" x1="1991.3798" y1="3123.9021" x2="2042.6036" y2="3123.9021" gradientTransform="matrix(-1 0 0 1 2215.7012 -2356.5044)">
				<stop  offset="0" style="stop-color:#FFC4BA"/>
				<stop  offset="1" style="stop-color:#FFE7E5"/>
			</linearGradient>
			<path style="fill:url(#SVGID_00000178186657111378125030000008023065154252887485_);" d="M222.48,763.57l1.84,12.38H173.1
				c0,0,1.21-9.48,2.63-11.05c1.42-1.57,8.95-6.6,16.59-6.01c7.64,0.59,15.74,6.52,21.07,7.11
				C218.72,766.6,222.48,763.57,222.48,763.57z"/>
			
				<radialGradient id="SVGID_00000158722682539655271880000011708670661419242638_" cx="-4428.5605" cy="675.2687" r="0.0508" gradientTransform="matrix(-1 0 0 1 -4236.1235 0)" gradientUnits="userSpaceOnUse">
				<stop  offset="0" style="stop-color:#41455F"/>
				<stop  offset="1" style="stop-color:#2C3147"/>
			</radialGradient>
			<path style="opacity:0.5;fill:url(#SVGID_00000158722682539655271880000011708670661419242638_);" d="M192.44,675.26
				c0.01,0.03,0.04,0.04,0.07,0.04c-0.07-0.03-0.11-0.05-0.13-0.05C192.38,675.24,192.41,675.26,192.44,675.26z"/>
			
				<radialGradient id="SVGID_00000178205865343743795510000006476671435002528393_" cx="-4428.4604" cy="675.2219" r="6.659546e-03" gradientTransform="matrix(-1 0 0 1 -4236.1235 0)" gradientUnits="userSpaceOnUse">
				<stop  offset="0" style="stop-color:#41455F"/>
				<stop  offset="1" style="stop-color:#2C3147"/>
			</radialGradient>
			<path style="fill:url(#SVGID_00000178205865343743795510000006476671435002528393_);" d="M192.33,675.22c0,0,0,0,0.01,0.01
				c-0.01,0-0.01,0-0.01,0V675.22z"/>
			
				<radialGradient id="SVGID_00000145761853797935410710000017732104213481887667_" cx="-4428.5605" cy="675.2687" r="0.0508" gradientTransform="matrix(-1 0 0 1 -4236.1235 0)" gradientUnits="userSpaceOnUse">
				<stop  offset="0" style="stop-color:#41455F"/>
				<stop  offset="1" style="stop-color:#2C3147"/>
			</radialGradient>
			<path style="fill:url(#SVGID_00000145761853797935410710000017732104213481887667_);" d="M192.44,675.26
				c0.01,0.03,0.04,0.04,0.07,0.04c-0.07-0.03-0.11-0.05-0.13-0.05C192.38,675.24,192.41,675.26,192.44,675.26z"/>
			<path class="st18" d="M333.07,768.99c0,0-7.26,1.14-18.55,1.63c-11.29,0.49-72.41-3.22-72.41-3.22l-0.34,2.86
				c0,0,62.26,4.23,72.82,3.36c10.55-0.86,18.53-1.52,18.53-1.52L333.07,768.99z"/>
			<path class="st18" d="M223.71,771.87c0,0-18.22-0.87-29.02-1.29c-10.8-0.42-20.85,0.65-20.85,0.65l-0.43,2.53
				c0,0,38.27-0.97,42.09-0.7c3.82,0.26,8.21-0.26,8.21-0.26V771.87z"/>
			<path class="st19" d="M264.52,729.2c0,0,18.4,10.79,23.27,20.68c0,0,2.04-4.09,10.9-1.1"/>
			<path class="st19" d="M211.01,724.07c0,0-2.71,1.3-2.81,4.51c0,0-7.77,7.54-9.1,21.31c0,0-4.84-2.47-10.45,1.84"/>
		</g>
		
			<linearGradient id="SVGID_00000111881925507277610170000014374467399643681168_" gradientUnits="userSpaceOnUse" x1="-4516.3457" y1="-47.8793" x2="-4370.519" y2="-244.7459" gradientTransform="matrix(-0.9898 -0.1428 -0.1428 0.9898 -4081.7056 -164.7697)">
			<stop  offset="0" style="stop-color:#00BD91"/>
			<stop  offset="1" style="stop-color:#009993"/>
		</linearGradient>
		<path style="fill:url(#SVGID_00000111881925507277610170000014374467399643681168_);" d="M333.75,287.94
			c-17.01-3.59-38.57-12.99-38.57-12.99l-10.59,33.22l12.19,18.51c0,0,31.77,1.03,38.07-0.03l2.96,2.94l17.64,0.78l4.15-2.85
			c0,0,2.18-1.7,0.17-3.71c-2.29,0.86-2.31,2.63-7.07,1.47c-3.13-0.76-6.33-9.73-4.81-20.25s6.75-12.91,6.75-12.91
			s3.34-0.75,7.53,1.47c2.54-2.16-2.14-4.42-2.14-4.42s-21.35-3.48-23.41-2.73C335.23,288,334.9,287.55,333.75,287.94z"/>
		
			<radialGradient id="SVGID_00000177472364466097779670000010897641734040871337_" cx="-4341.437" cy="-215.1982" r="70.0813" gradientTransform="matrix(-0.9898 -0.1428 -0.1428 0.9898 -4081.7056 -164.7697)" gradientUnits="userSpaceOnUse">
			<stop  offset="0" style="stop-color:#9C493C"/>
			<stop  offset="0.9823" style="stop-color:#CC6633"/>
		</radialGradient>
		<path style="fill:url(#SVGID_00000177472364466097779670000010897641734040871337_);" d="M247.81,237.01
			c0,0-2.82,17.85,4.07,27.36l6.48,8.97l7.76,11.34l-14.62,20.41l-29.86-30.54l3.06-9.98c3.93-13.54,5.3-12.03,4.64-34.66
			L247.81,237.01z"/>
		
			<radialGradient id="SVGID_00000060032788586704339270000000024350940592818097_" cx="1690.8209" cy="-677.9578" r="87.9189" gradientTransform="matrix(0.9546 0.2978 -0.2978 0.9546 -1594.9044 396.1108)" gradientUnits="userSpaceOnUse">
			<stop  offset="0" style="stop-color:#9C493C"/>
			<stop  offset="0.9823" style="stop-color:#CC6633"/>
		</radialGradient>
		<path style="fill:url(#SVGID_00000060032788586704339270000000024350940592818097_);" d="M268.82,159.49
			c0,0,12.85,13.55,21.72,18.62c2.57,12.11-0.02,32.43,1.18,37.97c1.22,5.63,2.13,11.01-1.42,18.06
			c-5.31,10.56-10.93,12.17-17.7,18.77c-3.88,3.79-8.66,7.57-16.18,5.66c-6.68-1.7-25.17-9.57-35.27-21.62
			c-10.1-12.05-8.97-35.77-10.27-51.23c7.14-2.97,46.47-12.31,56.68-26.21C268.04,158.86,268.14,159.27,268.82,159.49z"/>
		
			<linearGradient id="SVGID_00000056416919674013857090000011169964534449109903_" gradientUnits="userSpaceOnUse" x1="-4350.2412" y1="66.8542" x2="-4341.792" y2="-170.1192" gradientTransform="matrix(-0.9898 -0.1428 -0.1428 0.9898 -4081.7056 -164.7697)">
			<stop  offset="0" style="stop-color:#00956B"/>
			<stop  offset="0.9966" style="stop-color:#009993"/>
		</linearGradient>
		<path style="fill:url(#SVGID_00000056416919674013857090000011169964534449109903_);" d="M260.16,270.88
			c0,0,12.64-2.97,21.18-1.54c10.56,1.77,13.84,5.61,13.84,5.61s-3.27,30.4-3.13,33.61c0.14,3.21,11.03,14.36,13.26,19.21
			c2.23,4.84-7.36,54.75-2.2,82.24c0,0,2.22,40.2,5.33,57.41c0,0-12.19,12.49-33.57,3.44l-6.19-32.29c0,0-3.85,27.4-8.85,36.25
			c0,0-32.45-2.76-48-12.98s-34.75-8.97-34.75-8.97s10.56-46.09,18.38-58.52l1.25-5.86l2.3-4.77c0,0,8.65-25.34,11.44-47.88
			c0,0-5.53,6.1-8.7,8c0,0,0.46,0.9,0.23,2.34c-0.23,1.44-3.12,2.73-3.18,3.79c-0.06,1.06,0.57,4.79,0.13,6.14
			c-0.44,1.35-3.3,6.25-4.21,6.45c-0.91,0.19-2.77,0.99-2.77,0.99l-4.51-2.66c0,0-19.28-3.91-37.79-8.42l-2.5,2.55
			c0,0-1.46-5.35-1.94-6.64c-0.48-1.29,4.19-4.47,4.81-5.04c0.62-0.57,1.95-4.48,3-4.55c1.05-0.07,4.6-1.28,4.54-2.17
			c-0.06-0.89,0.6-3.98,1.74-4.71c1.14-0.74,2.88-2.84,4.33-7.88c1.45-5.04,17.08-28.27,23.38-38.73
			c6.3-10.47,23.27-9.23,26.45-11.57c3.18-2.34,13.65-16.31,13.65-16.31l-1.81,4.81c0,0-6.68,14.84,12.55,28.95
			c12.25,8.99,14.17,9.85,14.17,9.85S264.81,281.53,260.16,270.88z"/>
		
			<linearGradient id="SVGID_00000138538756040770576660000015618786909435666340_" gradientUnits="userSpaceOnUse" x1="1924.0659" y1="-139.7593" x2="1924.0659" y2="-153.9423" gradientTransform="matrix(0.9933 0.1414 -0.1573 1.1051 -1689.8362 82.144)">
			<stop  offset="0" style="stop-color:#600E19"/>
			<stop  offset="0.984" style="stop-color:#741B17"/>
		</linearGradient>
		<path style="fill:url(#SVGID_00000138538756040770576660000015618786909435666340_);" d="M258.31,186.05c0,0-1.19,2.91-3.08,5.3
			c1.39-2.51,2.23-5.62,2.23-5.62c-6.95,2.91-18.07-0.58-20.47,1.31c-3.23,2.55-6.35,10.86-6.35,10.86s3.6-2.75,7.2-3.73
			c3.61-0.97,16-0.84,16-0.84C253.93,193.24,258.24,191.28,258.31,186.05z"/>
		
			<linearGradient id="SVGID_00000075873968738390596600000015113726480812399771_" gradientUnits="userSpaceOnUse" x1="-4460.7607" y1="378.5361" x2="-4460.7607" y2="369.1034" gradientTransform="matrix(-0.9984 0.0568 0.0568 0.9984 -4190.7329 71.3933)">
			<stop  offset="0" style="stop-color:#600E19"/>
			<stop  offset="0.984" style="stop-color:#741B17"/>
		</linearGradient>
		<path style="fill:url(#SVGID_00000075873968738390596600000015113726480812399771_);" d="M274.61,187.03c0,0,0.92,2.68,2.58,4.95
			c-1.16-2.34-1.71-5.18-1.71-5.18c6.75,2.3,13.39-0.75,16.42,1.79c2.98,2.5,1.14,8.26-2.02,6.4c-4.05-2.39-11.5-1.14-11.5-1.14
			C278.31,193.76,274.21,191.71,274.61,187.03z"/>
		<path d="M240.56,201.56c-1.64,3.63,2.37,6.77,5.56,4.21c0.2-0.16,0.38-0.38,0.5-0.61c1.86-3.64-2.06-6.9-5.28-4.55
			C241.01,200.85,240.74,201.18,240.56,201.56z"/>
		<path d="M277.49,204.14c-1.64,3.63,2.37,6.77,5.56,4.21c0.2-0.16,0.38-0.38,0.5-0.61c1.86-3.64-2.06-6.9-5.28-4.55
			C277.93,203.43,277.67,203.76,277.49,204.14z"/>
		
			<radialGradient id="SVGID_00000036966106982033429290000010449595246533525155_" cx="2257.8906" cy="419.8619" r="107.815" gradientTransform="matrix(0.9974 -0.0719 0.0719 0.9974 -2018.2063 -75.5451)" gradientUnits="userSpaceOnUse">
			<stop  offset="0" style="stop-color:#9C493C"/>
			<stop  offset="0.9823" style="stop-color:#CC6633"/>
		</radialGradient>
		<path style="fill:url(#SVGID_00000036966106982033429290000010449595246533525155_);" d="M215.69,204.57
			c0,0-12.08-7.71-21.62-2.93c0,0-1.98,7.01-1.17,10.91c0.81,3.9,9.34,12.4,15.09,13.43c5.75,1.04,12.06-2.98,12.38-5.91
			C220.68,217.15,215.69,204.57,215.69,204.57z"/>
		<g>
			
				<linearGradient id="SVGID_00000168835059585752191030000014153694250252512957_" gradientUnits="userSpaceOnUse" x1="197.9606" y1="209.534" x2="212.4261" y2="208.4912">
				<stop  offset="0" style="stop-color:#600E19"/>
				<stop  offset="0.984" style="stop-color:#741B17"/>
			</linearGradient>
			<path style="fill:url(#SVGID_00000168835059585752191030000014153694250252512957_);" d="M198.81,212.65
				c-0.54-1.43-0.77-3.17,0.12-4.69c0.43-0.75,1.19-1.29,1.98-1.59c0.8-0.3,1.63-0.37,2.44-0.38c1.62,0.04,3.17,0.41,4.65,0.93
				c1.48,0.51,2.88,1.2,4.23,1.97c-1.5-0.42-2.97-0.85-4.45-1.22c-1.48-0.36-2.97-0.66-4.43-0.68c-1.45-0.04-2.93,0.29-3.76,1.41
				C198.76,209.51,198.64,211.14,198.81,212.65z"/>
		</g>
		<g>
			
				<linearGradient id="SVGID_00000084528782622793123500000010422024072327408286_" gradientUnits="userSpaceOnUse" x1="267.2538" y1="218.8844" x2="275.109" y2="219.0538">
				<stop  offset="0" style="stop-color:#600E19"/>
				<stop  offset="0.984" style="stop-color:#741B17"/>
			</linearGradient>
			<path style="fill:url(#SVGID_00000084528782622793123500000010422024072327408286_);" d="M268.44,210.38
				c2.06,2.35,3.67,4.89,5.2,7.5c0.91,1.39,1.51,3.12,1.31,4.92c-0.11,0.89-0.43,1.82-1.04,2.51c-0.59,0.71-1.36,1.17-2.15,1.46
				l-0.04,0.02c-1.04,0.26-2.09,0.5-3.18,0.65c0.9-0.63,1.83-1.17,2.77-1.69l-0.04,0.02c0.57-0.41,1.05-0.87,1.35-1.39
				c0.29-0.53,0.46-1.1,0.46-1.73c0.01-1.26-0.41-2.55-1.11-3.73C270.59,216.18,269.29,213.37,268.44,210.38z"/>
		</g>
		<g>
			<g>
				<path class="st29" d="M276.52,237.98c-2.03,2.99-5.41,6.35-9.09,3.73c0,0-0.19-0.09-0.19-0.09c0.04,0.05,0.32,0.04,0.35,0
					c0.08-0.05-0.08,0.09-0.19,0.23c-0.13,0.14-0.29,0.3-0.5,0.44c-0.77,0.55-1.78,0.28-2.54,0.08c-0.69-0.18-1.33-0.4-2.02-0.74
					l0.81,0.01c-6.28,3.55-13.26-0.6-18.38-4.4c0,0,0.64-0.64,0.64-0.64c1.16,1.14,2.39,2.24,3.63,3.29c2.66,2.15,5.36,4.9,8.66,5.8
					c2.05,0.14,3.51-0.14,5.48-0.97c1-0.29,1.98-0.3,2.97,0.03c0.8,0.23,1.38,0.88,2.07,1.04c3.95-0.53,6.47-4.46,8.12-7.91
					c0.02-0.05,0.08-0.08,0.13-0.06c-0.23,1.57-1.26,3.19-2.12,4.6c-1.4,2.11-3.51,4.14-6.14,4.57c-0.97,0.08-1.72-0.51-2.52-0.66
					c-0.6-0.09-1.33-0.04-1.89,0.2c-1.73,1-4.4,1.57-6.47,1.25c-2.24-0.49-4.06-2.04-5.7-3.35c-2.61-2.17-4.8-4.69-6.92-7.26
					c-0.36-0.43,0.28-1.02,0.67-0.6c4.3,4.45,11.31,6.4,16.99,3.51c0.26-0.13,0.57-0.12,0.81,0.01c0.7,0.37,1.73,0.85,2.5,1.07
					c0.35,0.07,0.5-0.01,0.75-0.25c0.12-0.1,0.18-0.23,0.54-0.45c0.17-0.13,0.64-0.14,0.83-0.01c0.75,0.41,1.45,1.11,2.26,1.2
					c1.11,0.17,2.35-0.41,3.39-1.15c1.06-0.74,2.04-1.66,2.91-2.65C276.43,237.77,276.59,237.88,276.52,237.98L276.52,237.98z"/>
			</g>
			<g>
				<path class="st30" d="M245.08,236.91c2.75,0.6,5.39,1.41,8.13,1c1.75-0.29,3.36-1.09,4.97-1.9c0.95-0.44,1.62-0.92,2.7-1.33
					c2.45-0.49,4.35,0.6,6.09,2.1c0,0-1.28,0.04-1.28,0.04c1.05-1.34,3.45-1.96,4.76-0.62c0.95,1.02,1.78,1.79,3.25,1.86
					c0.88,0.08,1.81-0.01,2.74-0.14c-0.85,0.38-1.75,0.7-2.73,0.81c-1.44,0.28-3.06-0.54-4.11-1.49c-0.88-0.67-1.97-0.17-2.6,0.65
					c-0.31,0.43-0.93,0.42-1.28,0.04c-1.08-0.93-3.14-1.82-4.29-1.42c-0.2,0.05-0.68,0.36-1.09,0.57
					C254.79,240.46,250.53,240.53,245.08,236.91L245.08,236.91z"/>
			</g>
		</g>
		<g>
			<path class="st31" d="M272.84,284.87c0,0,5.13,16.24,6.33,19.73c-10.31-12.28-25.58,0.78-25.58,0.78s-28.46-13.34-38.66,5.92
				c1.79-6.55,5.52-24.03,13.24-26.26l25.19,19.5L272.84,284.87z"/>
			
				<linearGradient id="SVGID_00000094619115492062746560000013105338025657387666_" gradientUnits="userSpaceOnUse" x1="-4344.6943" y1="-239.6863" x2="-4348.7661" y2="-50.3434" gradientTransform="matrix(-0.9898 -0.1428 -0.1428 0.9898 -4081.7056 -164.7697)">
				<stop  offset="0" style="stop-color:#FFC4BA"/>
				<stop  offset="1" style="stop-color:#FFD9D6"/>
			</linearGradient>
			<path style="fill:url(#SVGID_00000094619115492062746560000013105338025657387666_);" d="M209.6,278.69
				c6.73-8.87,17.8-21.91,17.8-21.91s-7.19,14.91,3.23,24.99c10.42,10.08,21.41,19.25,21.41,19.25c6.91-9.25,9.1-24.88,6.31-27.68
				c-2.79-2.8-4.09-4.13-4.78-5.19c-0.68-1.06-1.7-3.78-1.7-3.78s8.83,5.47,12.21,6.96c3.38,1.48,10.46,14.22,10.46,14.22
				l4.62,19.07l-5.84-17.57c-8.19,5.6-19.75,18.36-19.75,18.36s-5.41-2.85-12.22-8.42c-9.5-7.77-11.73-11.08-13.95-10.21
				c-2.22,0.88-12.5,24.54-12.5,24.54C200.5,300.05,209.6,278.69,209.6,278.69z"/>
		</g>
		<g>
			<path class="st31" d="M253.59,305.89c5.6,5.77,11.08,11.91,14.34,19.37c1.15,2.49,1.13,5.44,1.12,8.13
				c0.11,10.68,0.16,21.37,0.14,32.05c-0.05,21.37-0.25,42.74-1.01,64.1c-0.75-21.37-0.94-42.73-0.97-64.09
				c-0.01-10.68,0.05-21.36,0.16-32.04c0.04-2.65,0.25-5.13-0.78-7.64C263.68,318.39,258.59,312.03,253.59,305.89L253.59,305.89z"/>
		</g>
		<g>
			<path class="st31" d="M292.84,298.03c-0.48-7.8-0.11-15.57,0.48-23.35C294.11,282.45,293.73,290.28,292.84,298.03L292.84,298.03z
				"/>
		</g>
		<g>
			<path class="st31" d="M206.33,319.53c-1.04-5.84-2.38-14-3.77-19.66c-1.44-6.02-3.62-12.04-7.9-16.63
				c-0.25-0.32-0.57-0.67-0.6-1.1c0.09,0.42,0.44,0.69,0.72,0.98c4.87,4.17,7.35,10.41,8.73,16.51
				C205.01,306.18,205.86,312.84,206.33,319.53L206.33,319.53z"/>
		</g>
		
			<radialGradient id="SVGID_00000160908987062894723110000007723672824270300583_" cx="-4524.75" cy="-116.0208" r="154.355" gradientTransform="matrix(-0.9898 -0.1428 -0.1428 0.9898 -4081.7056 -164.7697)" gradientUnits="userSpaceOnUse">
			<stop  offset="0" style="stop-color:#9C493C"/>
			<stop  offset="0.9823" style="stop-color:#CC6633"/>
		</radialGradient>
		<path style="fill:url(#SVGID_00000160908987062894723110000007723672824270300583_);" d="M354.37,290.75
			c10.26-7.24,37.45-7.96,54.64-25.93c-0.66-2.58-1.71-7.08-1.86-12.01c1.18-5.18,2.17-5.7,2.29-10.3
			c0.15-5.57-1.37-10.03-2.83-13.15c-0.49-1.04,0.41-2.19,1.54-1.97c1.32,0.25,2.96,0.88,4.42,2.37c3.09,3.15,2.85,8.66,3.63,10.68
			c0.62,3.88,4.58,5.13,5.92,4.65c2.13-0.41,6.17-5.18,6.17-5.18l5.96-11.7l5.12-10.04c0.56-1.3,1.95-2.11,3.33-1.81
			c1.86,0.41,2.8,2.36,2.09,4.02l-5.58,10.6l-0.39,0.29l0.05,0.61l-4.43,9.7c-0.31,0.73-0.42,1.84,0.27,2.23
			c0.01,0,0.01,0.01,0.02,0.01c0.59,0.33,1.33,0.24,1.82-0.23l19.73-18.95c1.17-1.13,3.01-1.36,4.33-0.43
			c1.78,1.26,1.91,3.75,0.41,5.18c0,0-19.78,18.78-20.17,19.08c-0.39,0.3-0.25,0.89-0.03,1.21c0.23,0.32,0.25,0.35,0.25,0.35
			c0.45,0.75,1.2,0.79,2,0.44l23.46-10.19c1.44-0.63,3.21-0.24,4.08,1.08c1.12,1.7,0.4,3.91-1.38,4.69l-24.18,10.5
			c-0.78,0.34-1.09,1.25-0.73,2.01c0,0.01,0.01,0.01,0.01,0.02c0.27,0.57,0.83,0.94,1.45,0.9l20.87-1.35
			c1.42-0.19,2.85,0.66,3.18,2.06c0.38,1.6-0.71,3.14-2.3,3.35l-23.84,3.16c-0.38,0.42-0.86,0.74-1.43,0.92
			c0,0-10.93,6.18-16.22,7.58c-1.42,0.38-2.84,0.4-3.97,0.32c-0.98-0.07-2.43,0.33-3.25,0.88c-17.67,11.9-31.4,37.82-42.04,44.51
			c-12.72,8-17.86,8.03-24.09,4.39c-6.23-3.65-8.87-5.75-7-18.71C347.58,293.63,351.67,292.65,354.37,290.75z"/>
		<g>
			
				<linearGradient id="SVGID_00000072990463508102831890000006049243322074508218_" gradientUnits="userSpaceOnUse" x1="422.7515" y1="248.1093" x2="436.9128" y2="265.057">
				<stop  offset="0" style="stop-color:#600E19"/>
				<stop  offset="0.984" style="stop-color:#741B17"/>
			</linearGradient>
			<path style="fill:url(#SVGID_00000072990463508102831890000006049243322074508218_);" d="M423.62,247.58
				c1.65,0.92,3.13,2.13,4.46,3.5c1.33,1.35,2.51,2.87,3.49,4.5c0.98,1.63,1.82,3.36,2.38,5.18c0.63,1.8,0.91,3.69,1.07,5.56
				c-0.54-1.81-1.07-3.59-1.8-5.29c-0.69-1.72-1.54-3.36-2.5-4.93c-0.94-1.59-2.03-3.08-3.22-4.5
				C426.3,250.18,425.04,248.81,423.62,247.58z"/>
		</g>
		<g>
			
				<linearGradient id="SVGID_00000127040425408623234990000014350367164062759087_" gradientUnits="userSpaceOnUse" x1="-4349.1763" y1="-92.9117" x2="-4282.5771" y2="-92.9117" gradientTransform="matrix(-0.9898 -0.1428 -0.1428 0.9898 -4081.7056 -164.7697)">
				<stop  offset="0" style="stop-color:#FBB03B"/>
				<stop  offset="1" style="stop-color:#FBB03B"/>
			</linearGradient>
			<path style="fill:url(#SVGID_00000127040425408623234990000014350367164062759087_);" d="M245.49,297.87L174.97,431.2
				c0,0-8,1.51-11.21-1.17c-3.21-2.68-3.46-6.26-3.46-6.26l38.03-70.28l30.54-65.15c0,0,8.23-3.69,13.61,1.08
				C247.85,294.19,245.49,297.87,245.49,297.87z"/>
			
				<linearGradient id="SVGID_00000047748437048057714960000000736010412118688140_" gradientUnits="userSpaceOnUse" x1="-4329.8975" y1="-138.5899" x2="-4339.9751" y2="-160.8835" gradientTransform="matrix(-0.9898 -0.1428 -0.1428 0.9898 -4081.7056 -164.7697)">
				<stop  offset="0" style="stop-color:#FBB03B"/>
				<stop  offset="1" style="stop-color:#F7931E"/>
			</linearGradient>
			<path style="fill:url(#SVGID_00000047748437048057714960000000736010412118688140_);" d="M245.19,296.82c0,0-2.09,2.12-9.42-1.36
				c-7.33-3.48-5.76-6.5-5.76-6.5L220,309.5c0,0,2.17,5.23,6.02,7.14s7.61,1.1,7.61,1.1l11.5-20.49L245.19,296.82z"/>
			
				<linearGradient id="SVGID_00000039098995221355128000000015714680274207141039_" gradientUnits="userSpaceOnUse" x1="-4338.4434" y1="-159.3798" x2="-4339.9448" y2="-162.561" gradientTransform="matrix(-0.9898 -0.1428 -0.1428 0.9898 -4081.7056 -164.7697)">
				<stop  offset="0" style="stop-color:#FBB03B"/>
				<stop  offset="1" style="stop-color:#F7931E"/>
			</linearGradient>
			<path style="fill:url(#SVGID_00000039098995221355128000000015714680274207141039_);" d="M244.75,295.34
				c-8.89-0.43-13.54-6.33-13.54-6.33l-0.91,1.05c0,0-0.77,1.56,5.56,4.85c5.83,3.03,8.54,1.8,8.54,1.8L244.75,295.34z"/>
			
				<linearGradient id="SVGID_00000000904371567127602330000006936596163179377598_" gradientUnits="userSpaceOnUse" x1="-4338.8887" y1="-161.6777" x2="-4340.5435" y2="-165.1834" gradientTransform="matrix(-0.9898 -0.1428 -0.1428 0.9898 -4081.7056 -164.7697)">
				<stop  offset="0" style="stop-color:#FBB03B"/>
				<stop  offset="1" style="stop-color:#F7931E"/>
			</linearGradient>
			<path style="fill:url(#SVGID_00000000904371567127602330000006936596163179377598_);" d="M243.58,294.41
				c0.72-0.03,1.16-0.78,0.85-1.43c-0.55-1.13-1.77-2.81-4.4-4.22c-2.81-1.51-5.66-1.37-7.37-1.07c-0.8,0.14-1.09,1.13-0.5,1.7
				c0.8,0.78,2.15,1.87,4.34,3.16C239.41,294.25,242.07,294.47,243.58,294.41z"/>
		</g>
		<g>
			
				<radialGradient id="SVGID_00000079447945096355180550000004474812971818601114_" cx="-4356.8467" cy="-144.9558" r="145.164" gradientTransform="matrix(0.6742 -0.7385 -0.064 -0.0584 3179.3115 -2912.4795)" gradientUnits="userSpaceOnUse">
				<stop  offset="0" style="stop-color:#29ABE2"/>
				<stop  offset="1" style="stop-color:#0071BC"/>
			</radialGradient>
			<path style="fill:url(#SVGID_00000079447945096355180550000004474812971818601114_);" d="M261.64,318.39L163.13,432.6
				c0,0-8.14-0.32-10.67-3.65c-2.53-3.33-1.98-6.87-1.98-6.87l52.76-60.01l44.32-56.68c0,0,8.85-1.76,13.02,4.09
				C264.77,315.33,261.64,318.39,261.64,318.39z"/>
			
				<linearGradient id="SVGID_00000005954212869519734430000002699054072739399045_" gradientUnits="userSpaceOnUse" x1="-4021.1335" y1="-800.17" x2="-4031.2114" y2="-822.4636" gradientTransform="matrix(-0.9329 -0.3602 -0.3602 0.9329 -3803.1562 -370.806)">
				<stop  offset="0" style="stop-color:#00A99D;stop-opacity:0"/>
				<stop  offset="1" style="stop-color:#0071BC"/>
			</linearGradient>
			<path style="fill:url(#SVGID_00000005954212869519734430000002699054072739399045_);" d="M261.59,317.3c0,0-2.51,1.6-8.88-3.43
				c-6.37-5.03-4.16-7.62-4.16-7.62l-14.35,17.78c0,0,0.94,5.58,4.28,8.3c3.33,2.72,7.17,2.77,7.17,2.77l15.79-17.41L261.59,317.3z"
				/>
			
				<linearGradient id="SVGID_00000140714607187036108090000006942824472333115826_" gradientUnits="userSpaceOnUse" x1="-4029.6794" y1="-820.9599" x2="-4031.1812" y2="-824.1411" gradientTransform="matrix(-0.9329 -0.3602 -0.3602 0.9329 -3803.1562 -370.806)">
				<stop  offset="0" style="stop-color:#29ABE2;stop-opacity:0"/>
				<stop  offset="1" style="stop-color:#0071BC"/>
			</linearGradient>
			<path style="fill:url(#SVGID_00000140714607187036108090000006942824472333115826_);" d="M261.49,315.75
				c-8.57-2.41-11.78-9.2-11.78-9.2l-1.12,0.82c0,0-1.1,1.35,4.33,5.97c5.01,4.26,7.92,3.66,7.92,3.66L261.49,315.75z"/>
			
				<linearGradient id="SVGID_00000041253017054659471310000013549461238217993877_" gradientUnits="userSpaceOnUse" x1="-4030.1248" y1="-823.2578" x2="-4031.7795" y2="-826.7635" gradientTransform="matrix(-0.9329 -0.3602 -0.3602 0.9329 -3803.1562 -370.806)">
				<stop  offset="0" style="stop-color:#29ABE2;stop-opacity:0"/>
				<stop  offset="1" style="stop-color:#0071BC"/>
			</linearGradient>
			<path style="fill:url(#SVGID_00000041253017054659471310000013549461238217993877_);" d="M260.56,314.59
				c0.7,0.13,1.31-0.5,1.15-1.2c-0.29-1.22-1.09-3.13-3.35-5.1c-2.41-2.1-5.21-2.6-6.94-2.69c-0.81-0.04-1.31,0.86-0.87,1.54
				c0.61,0.94,1.68,2.31,3.53,4.05C256.53,313.5,259.08,314.31,260.56,314.59z"/>
		</g>
		<g>
			
				<linearGradient id="SVGID_00000008150920628144392490000003045407240790391701_" gradientUnits="userSpaceOnUse" x1="-4367.4116" y1="-134.8948" x2="-4334.8804" y2="-41.6206" gradientTransform="matrix(-0.9898 -0.1428 -0.1428 0.9898 -4081.7056 -164.7697)">
				<stop  offset="0" style="stop-color:#F15A24"/>
				<stop  offset="0.9944" style="stop-color:#C1272D"/>
			</linearGradient>
			<polygon style="fill:url(#SVGID_00000008150920628144392490000003045407240790391701_);" points="169.02,405.57 221.3,327.63 
				225.71,328.55 281.12,380.3 215.8,450.32 212.64,449.67 			"/>
			
				<linearGradient id="SVGID_00000041266714463290726300000001318438589839167418_" gradientUnits="userSpaceOnUse" x1="-4396.019" y1="-105.2014" x2="-4329.2314" y2="-105.2014" gradientTransform="matrix(-0.9898 -0.1428 -0.1428 0.9898 -4081.7056 -164.7697)">
				<stop  offset="0" style="stop-color:#F15A24"/>
				<stop  offset="0.9944" style="stop-color:#C1272D"/>
			</linearGradient>
			<polygon style="fill:url(#SVGID_00000041266714463290726300000001318438589839167418_);" points="281.21,380.16 276.63,379.53 
				221.3,327.63 225.71,328.55 			"/>
			<polygon class="st45" points="223.19,329.85 226.77,330.79 281.34,379.95 226.97,328.56 221.39,327.66 171.57,401.42 			"/>
		</g>
		<text transform="matrix(-0.7529 -0.6581 -0.6581 0.7529 252.2163 382.6497)" class="st45 st46 st47">Los Laureles</text>
		<path d="M229.01,175.21c0,0,0.05,8.13-7.21,9.17s0.67,4.43,0.67,4.43s1.92,3.66-4.52,5.02s-1.43,3.82-0.6,4.7s0.61,3.73-3.27,3.77
			s-1.5,3.09-1.03,3.99c0.48,0.89-4.42-1.6-4.43-4.87c0-3.28,4.53-0.33,4.54-2.15c0.01-1.82-4.01-3.75-0.95-6.46
			c3.06-2.71,5.1-0.94,4.69-2.53c-0.41-1.59-4.92-4.91-2.06-6.99c2.86-2.08,5.5,0.15,6.11-1.71c0.61-1.86,0.45-3.88,2.01-3.93
			S223.61,174.55,229.01,175.21z"/>
		<path d="M224.87,179.88c5.59,3.77,8.04,2.02,8.14-0.48c-0.36-2-0.39-4.03,0.71-5.89c1.94-3.29,4.74,2.35,5.83,0.53
			c1.09-1.82-1.8-6.14,2.87-7.05c4.67-0.91,5.67,2.08,6.2,0.24c0.53-1.84-2.03-7.84,2.07-8.24c4.1-0.39,6.41,5.69,8.12,4.18
			c1.71-1.5,1.78-5.91,3.37-5.02c1.6,0.88,1.19-4.73,6.21-0.87c0,0-2.5,12.49-10.4,9.23c-7.9-3.26-3.71,1.2-3.78,3
			c-0.06,1.81,0.61,4.37-6.66,1.92c-7.28-2.45-3.7,2.99-3.38,4.36c0.32,1.37-1.6,4.1-5.51,1.84c-2.64-1.52-3.91,0.86-4.08,2.32
			c-0.17,1.46-0.09,0.8-0.09,0.8C233.91,189.44,221.33,177.5,224.87,179.88z"/>
		<path d="M280.99,252.74c0,0,1.5,5.11-2.89,7.07c-4.38,1.96,1.22,2.67,1.22,2.67s1.87,1.95-1.94,3.97
			c-3.81,2.02-0.21,2.66,0.47,3.06c0.68,0.4,1.05,2.24-1.38,2.96s-0.39,2.22,0.07,2.69c0.46,0.48-3.07-0.21-3.66-2.27
			c-0.59-2.06,2.79-1.02,2.47-2.17s-3.2-1.64-1.76-3.9c1.44-2.26,3.04-1.51,2.49-2.43c-0.55-0.93-3.98-2.21-2.56-4.03
			c1.43-1.82,3.49-0.9,3.54-2.18c0.05-1.28-0.42-2.52,0.56-2.83C278.6,255.05,277.48,253.3,280.99,252.74z"/>
		<path d="M273.4,258.05c0,0,0.88,2.99-1.69,4.13c-2.56,1.14,0.71,1.56,0.71,1.56s1.09,1.14-1.14,2.32s-0.13,1.56,0.27,1.79
			c0.4,0.23,0.62,1.31-0.81,1.73c-1.42,0.42-0.23,1.3,0.04,1.57c0.27,0.28-1.8-0.12-2.14-1.33s1.63-0.6,1.44-1.27
			c-0.19-0.67-1.87-0.96-1.03-2.28c0.84-1.32,1.78-0.88,1.46-1.42c-0.32-0.54-2.33-1.29-1.49-2.36c0.83-1.07,2.04-0.53,2.07-1.27
			c0.03-0.75-0.24-1.48,0.33-1.66S271.34,258.38,273.4,258.05z"/>
		<path d="M215.83,184.49c0,0,3.59,7.17-2.38,11.24s2.52,3.63,2.52,3.63s3.29,2.39-1.81,6.41c-5.11,4.01,0.4,4,1.52,4.41
			c1.12,0.41,2.16,3.03-1.25,4.75c-3.41,1.72,0.02,3.39,0.83,3.97c0.81,0.58-4.6,0.52-6.04-2.38c-1.43-2.9,3.86-2.26,3.08-3.88
			c-0.78-1.62-5.18-1.57-3.66-5.3c1.53-3.73,4.1-3.05,3.04-4.27c-1.06-1.23-6.49-2.2-4.87-5.28c1.62-3.08,4.93-2.27,4.66-4.18
			c-0.27-1.91-1.29-3.63,0.07-4.35C212.9,188.54,210.77,186.25,215.83,184.49z"/>
		<path d="M271.95,161.38c0,0,1.36,8.02,8.69,7.78s0.11,4.48,0.11,4.48s-1.26,3.93,5.33,4.15c6.59,0.22,2.08,3.51,1.41,4.52
			c-0.67,1.01,0.05,3.78,3.88,3.14c3.82-0.64,2.02,2.78,1.71,3.75c-0.31,0.96,4.08-2.34,3.51-5.57c-0.57-3.23-4.52,0.46-4.85-1.33
			c-0.33-1.8,3.3-4.4-0.19-6.53c-3.48-2.14-5.19-0.03-5.05-1.67c0.13-1.64,3.99-5.69,0.81-7.24c-3.18-1.55-5.39,1.1-6.32-0.62
			c-0.92-1.72-1.12-3.74-2.67-3.51C276.78,162.95,277.15,159.79,271.95,161.38z"/>
		<path d="M189.51,185.01c0,0-3.44,7.37,2.74,11.34c6.17,3.96-2.45,3.75-2.45,3.75s-3.27,2.52,2.02,6.45
			c5.29,3.92-0.29,4.07-1.41,4.52s-2.1,3.14,1.41,4.79s0.08,3.44-0.73,4.05s4.69,0.39,6.05-2.59c1.37-2.98-3.98-2.19-3.23-3.85
			c0.75-1.66,5.21-1.74,3.56-5.48s-4.25-2.98-3.21-4.25c1.04-1.27,6.52-2.42,4.79-5.5c-1.73-3.08-5.07-2.16-4.84-4.1
			c0.22-1.94,1.21-3.72-0.2-4.41S194.69,186.66,189.51,185.01z"/>
		<path d="M282.98,251.47c0,0-2.9,4.52,0.79,7.66c3.69,3.14-1.94,2.24-1.94,2.24s-2.36,1.36,0.75,4.4c3.12,3.04-0.55,2.64-1.33,2.83
			c-0.78,0.19-1.66,1.87,0.5,3.26c2.15,1.39-0.25,2.26-0.83,2.59c-0.58,0.33,3.03,0.67,4.19-1.16s-2.41-1.78-1.77-2.81
			c0.64-1.02,3.57-0.68,2.82-3.27c-0.75-2.59-2.52-2.32-1.72-3.07c0.79-0.74,4.48-1,3.62-3.17s-3.12-1.86-2.81-3.12
			c0.32-1.25,1.12-2.32,0.26-2.9S286.22,253,282.98,251.47z"/>
		
			<linearGradient id="SVGID_00000124135399917140806320000009106270523452329104_" gradientUnits="userSpaceOnUse" x1="-4374.5244" y1="-63.6797" x2="-4304.1914" y2="-63.6797" gradientTransform="matrix(-0.9898 -0.1428 -0.1428 0.9898 -4081.7056 -164.7697)">
			<stop  offset="0" style="stop-color:#600E19"/>
			<stop  offset="0.984" style="stop-color:#741B17"/>
		</linearGradient>
		<path style="opacity:0.2;fill:url(#SVGID_00000124135399917140806320000009106270523452329104_);" d="M195.81,367.24
			c4.48,9.17,7.82,22.37,27.8,36.94l7.1-1.72c2.41-1.02,5.08-1.46,7.75-1.29l6.63,0.44c1.05-0.01,2.08-0.18,3.06-0.5l3.02-1
			c1.36-0.45,2.89-0.44,4.2,0.16c0.23,0.11,0.42,0.21,0.51,0.31c0.54,0.54,0.63,1.34,0.24,1.96l-2.19,3.41
			c-1.29,2.01-3.61,3.25-6.15,3.3l-3.52,0.05l-1.63,0.93c0.02,0.01,0.03,0.02,0.05,0.02l4.9,1.68c1.46,0.5,3.08,0.14,4.1-0.91
			c0,0-1.06,8.99-21.03,0.88c-5.25-2.13-10.53-3.73-10.53-3.73c-16.41-8.46-26.48-22.5-30.95-33.11
			C192.79,369.83,192.85,370.14,195.81,367.24z"/>
		
			<radialGradient id="SVGID_00000163072794904574387540000011439134053639611299_" cx="-4282.7383" cy="40.4509" r="138.5283" gradientTransform="matrix(-0.9898 -0.1428 -0.1428 0.9898 -4081.7056 -164.7697)" gradientUnits="userSpaceOnUse">
			<stop  offset="0" style="stop-color:#9C493C"/>
			<stop  offset="0.9823" style="stop-color:#CC6633"/>
		</radialGradient>
		<path style="fill:url(#SVGID_00000163072794904574387540000011439134053639611299_);" d="M146.42,354.74
			c4-7.84,31.53-2.17,41.65,4.63c14.93,10.03,1.25,30.17,35.3,48.01l13.18-4.27c1.77-0.73,3.72-1.04,5.67-0.9l4.85,0.35
			c0.76,0,1.52-0.12,2.24-0.35l2.22-0.72c1-0.32,2.12-0.31,3.07,0.14c0.17,0.08,0.3,0.16,0.37,0.23c0.39,0.4,0.46,0.98,0.16,1.43
			l-1.62,2.48c-0.95,1.46-2.66,2.36-4.52,2.38l-4.98,0.06l-1.61,0.9c-1.25,0.7-1.84,1.99-1.66,3.24c0.1,0.7,0.63,1.3,1.34,1.55
			l3.57,1.25c1.06,0.37,2.25,0.12,3-0.64l2.13-2.15l1.89,5.26l0.03,0.01l0.53,1.24c0.14,0.33,0.22,0.66,0.25,1l0.06,0.17l-0.05,0.01
			c0.03,1.02-0.44,2.02-1.34,2.67l-0.09,0.07L251.2,427c0,0.01,0,0.02-0.01,0.03l-0.01,0.06l0,0c-0.16,0.81-0.64,1.56-1.39,2.06
			l-0.91,0.61c-0.58,0.39-0.92,1.02-0.91,1.7l0.01,0.55c0.03,1.86-1.46,3.4-3.45,3.57l-0.61,0.05c-0.56,0.05-1.06,0.35-1.33,0.81
			l0,0c-0.87,1.51-2.83,2.37-4.57,1.71c-0.62-0.24-1.91-0.66-2.4-0.25l-0.13,0.11c-1.05,0.89-2.57,1.16-3.93,0.69l-1.27-0.44
			l-13.13-12.79c-0.41-0.43-0.91-0.78-1.47-1.02l-2.12-0.94c-1.49-0.66-2.72-1.68-3.94-2.72c-36.69-31.26-35.94-30.43-48.64-41.68
			C152.47,371.54,144.52,358.48,146.42,354.74z"/>
	</g>
</g>
</svg>
