<?xml version="1.0" encoding="utf-8"?>
<!-- Generator: Adobe Illustrator 26.2.1, SVG Export Plug-In . SVG Version: 6.00 Build 0)  -->
<svg version="1.1" id="Layer_1" xmlns="http://www.w3.org/2000/svg" xmlns:xlink="http://www.w3.org/1999/xlink" x="0px" y="0px"
	 viewBox="0 0 80 80" style="enable-background:new 0 0 80 80;" xml:space="preserve">
<style type="text/css">
	.st0{fill:#3CB037;stroke:#23751C;stroke-miterlimit:10;}
	.st1{fill:#0067B9;}
	.st2{fill:#FFFFFF;}
	.st3{fill:#002F6C;}
</style>
<circle class="st0" cx="40" cy="39.2" r="36.8"/>
<g>
	<g>
		<rect x="47.6" y="22.7" class="st1" width="6.6" height="37.7"/>
		<path class="st2" d="M54.3,60.5c-2.2,0.1-4.6,0.2-7,0.3c0,0,0-0.3,0-0.3c-0.3-9.4,0-18.8,0.1-28.3c0-3.2,0-6.5-0.1-9.7
			c0,0,0.3,0,0.3,0c2.3-0.1,4.7-0.1,7-0.1c0,0,0,0.4,0,0.4C54.9,34.9,54.6,48.2,54.3,60.5L54.3,60.5z M54.2,60.4
			c-0.4-12.2-0.6-25.5-0.4-37.7c0,0,0.4,0.4,0.4,0.4c-2.2,0-4.4-0.1-6.6-0.1c0,0,0.3-0.3,0.3-0.3c-0.4,12.6,0.5,25.1,0,37.7
			c0,0-0.3-0.3-0.3-0.3C49.7,60.2,51.9,60.3,54.2,60.4L54.2,60.4z"/>
	</g>
	<g>
		<rect x="35.5" y="34.1" class="st1" width="6.6" height="26.4"/>
		<path class="st2" d="M42.2,60.5c-2.2,0.1-4.6,0.3-7,0.3c-0.1-4.4-0.2-9.1,0-13.5c0.2-4.5,0.2-9,0-13.4c2.5-0.1,4.9-0.2,7.4-0.2
			c0,0,0,0.5,0,0.5C42.8,42.5,42.5,52,42.2,60.5L42.2,60.5z M42.1,60.4c-0.3-8.4-0.6-17.9-0.4-26.3c0,0,0.5,0.5,0.5,0.5
			c-2.2,0-4.4-0.1-6.6-0.2c0,0,0.3-0.3,0.3-0.3c-0.2,5.4-0.1,11,0.1,16.5c0.1,3.2,0,6.7-0.1,9.9c0,0-0.3-0.3-0.3-0.3
			C37.6,60.1,39.8,60.3,42.1,60.4L42.1,60.4z"/>
	</g>
	<g>
		<rect x="23.4" y="45.4" class="st1" width="6.6" height="15"/>
		<path class="st2" d="M30.1,60.5c-2.3,0.2-4.7,0.4-7.1,0.4c-0.2-5.1,0.5-10.3,0.1-15.4c0,0,0-0.3,0-0.3c2.5-0.1,4.9-0.2,7.4-0.2
			C30.7,50.1,30.4,55.4,30.1,60.5L30.1,60.5z M30,60.4c-0.3-5.1-0.6-9.9-0.5-14.9c0,0,0.5,0.5,0.5,0.5c-2.2,0-4.4-0.1-6.6-0.2
			l0.3-0.3c-0.3,3.7,0,7.5,0.2,11.2c0,1.2,0,2.5,0,3.7c0,0-0.4-0.4-0.4-0.4C25.2,60,28.1,60.2,30,60.4L30,60.4z"/>
	</g>
	<rect x="21.5" y="25.6" transform="matrix(0.7066 -0.7076 0.7076 0.7066 -7.4816 35.1156)" class="st2" width="34.3" height="2"/>
	<circle class="st3" cx="50.7" cy="14.5" r="1.9"/>
	<circle class="st3" cx="38.6" cy="26.6" r="1.9"/>
	<circle class="st3" cx="26.5" cy="38.7" r="1.9"/>
	<path class="st2" d="M58.3,59.4L58.3,59.4c0,0.5-0.4,1-1,1H20.2c-0.5,0-1-0.4-1-1l0,0c0-0.5,0.4-1,1-1h37.1
		C57.8,58.5,58.3,58.9,58.3,59.4z"/>
</g>
</svg>
