<?xml version="1.0" encoding="utf-8"?>
<!-- Generator: Adobe Illustrator 26.2.1, SVG Export Plug-In . SVG Version: 6.00 Build 0)  -->
<svg version="1.1" id="Layer_1" xmlns="http://www.w3.org/2000/svg" xmlns:xlink="http://www.w3.org/1999/xlink" x="0px" y="0px"
	 viewBox="0 0 80 80" style="enable-background:new 0 0 80 80;" xml:space="preserve">
<style type="text/css">
	.st0{fill:#A7C6ED;}
	.st1{fill:#002F6C;}
	.st2{fill:#EAC81F;}
	.st3{fill:#002F6C;stroke:#002F6C;stroke-miterlimit:10;}
	.st4{fill:none;stroke:#002F6C;stroke-miterlimit:10;}
</style>
<g>
	<circle class="st0" cx="40" cy="40" r="36.8"/>
	<path class="st1" d="M3.2,40C3.1,13.7,29.7-4.7,54.2,5.8c30.2,13.1,30.6,55.7,0.1,68.7C29.8,84.7,3.1,66.4,3.2,40L3.2,40z M3.3,40
		c0.3,32.3,39.5,48.3,62.4,25.7C79.9,52,80.1,27.9,65.9,14.1C43-8.4,3.5,7.8,3.3,40L3.3,40z"/>
</g>
<g>
	<g>
		<path class="st2" d="M53,38.8c0-6.9-5.6-12.5-12.5-12.5S28.1,31.8,28,38.7c0,3.3,1.2,6.3,3.3,8.6c2.4,2.6,3.7,6,3.7,9.5l0,0h11.1
			v-0.1c0-3.5,1.3-6.9,3.7-9.5C51.8,45,53,42,53,38.8z"/>
		<path class="st1" d="M53,38.8c0-11-13.5-16.5-21.1-8.5c-4.9,5-4.3,12.7,0.6,17.6c1.9,2.5,3,5.7,2.9,8.9L35,56.4l11.1,0.2l-0.2,0.2
			c0-3.3,1.3-6.6,3.4-9.1C51.6,45.3,53,42.1,53,38.8L53,38.8z M53,38.8c0.1,3.3-1.3,6.6-3.6,8.9c-2.1,2.5-3.2,5.8-3.1,9.1V57h-0.2
			L35,57.1h-0.4c0-2.5-0.6-5-1.9-7.2c-1.2-2.1-3.3-3.7-4.2-6.1c-2-4.7-0.9-10.6,2.8-14.1C39.3,21.9,53.1,27.6,53,38.8L53,38.8z"/>
	</g>
	<path class="st3" d="M44.2,55h-7.3c-1,0-1.9,0.8-1.9,1.9v5c0,1,0.8,1.9,1.8,1.9c0.7,1.4,2.1,2.3,3.7,2.3c1.6,0,3-0.9,3.7-2.3
		c1,0,1.8-0.9,1.8-1.9v-5C46,55.8,45.2,55,44.2,55z"/>
	<g>
		<path class="st1" d="M13.8,38.1c2.5-0.7,5-0.7,7.6,0C18.9,38.8,16.3,38.8,13.8,38.1L13.8,38.1z"/>
	</g>
	<g>
		<path class="st1" d="M58.6,38.1c2.5-0.7,5-0.7,7.6,0C63.7,38.8,61.1,38.8,58.6,38.1L58.6,38.1z"/>
	</g>
	<g>
		<path class="st1" d="M21.5,21.2c2.3,1.3,4.1,3.1,5.3,5.3C24.6,25.2,22.8,23.4,21.5,21.2L21.5,21.2z"/>
	</g>
	<g>
		<path class="st1" d="M40.9,12.7c0.7,2.5,0.7,5,0,7.6C40.3,17.7,40.3,15.2,40.9,12.7L40.9,12.7z"/>
	</g>
	<g>
		<path class="st1" d="M53.2,52.9c2.3,1.3,4.1,3.1,5.3,5.3C56.2,56.9,54.5,55.1,53.2,52.9L53.2,52.9z"/>
	</g>
	<g>
		<path class="st1" d="M60.3,21.2c-1.3,2.3-3.1,4.1-5.3,5.3C56.2,24.3,58,22.5,60.3,21.2L60.3,21.2z"/>
	</g>
	<g>
		<path class="st1" d="M28.6,52.9c-1.3,2.3-3.1,4.1-5.3,5.3C24.6,55.9,26.4,54.1,28.6,52.9L28.6,52.9z"/>
	</g>
	<path class="st4" d="M38.4,57c0,0,0.8-15.5-4-15.5c-1.6,0-1.3,5.2,6.6,5.2s7-5.8,5.9-6.3C45.8,40,43,42.2,43,57H38.4z"/>
</g>
</svg>
