<svg width="47" height="46" viewBox="0 0 47 46" fill="none" xmlns="http://www.w3.org/2000/svg">
<g clip-path="url(#clip0)">
<path d="M23.016 46.0001C35.7274 46.0001 46.0321 35.7026 46.0321 23C46.0321 10.2975 35.7274 0 23.016 0C10.3046 0 0 10.2975 0 23C0 35.7026 10.3046 46.0001 23.016 46.0001Z" fill="#E24C4B"/>
<path d="M46.032 22.9999C46.032 35.65 35.6748 46 23.0159 46C15.6796 46 9.20637 42.6937 5.03467 37.375C8.91862 40.5375 13.9534 42.4063 19.4196 42.4063C32.0785 42.4063 42.4357 32.0563 42.4357 19.4062C42.4357 13.9438 40.5656 8.9125 37.4009 5.03125C42.7234 9.19985 46.032 15.6686 46.032 22.9999Z" fill="#D1403F"/>
<path d="M33.517 33.4937C32.654 34.3562 31.2154 34.3562 30.3523 33.4937L23.016 26.1625L15.6797 33.4937C14.8166 34.3562 13.378 34.3562 12.515 33.4937C11.6519 32.6312 11.6519 31.1936 12.515 30.3312L19.8513 23L12.515 15.6687C11.6519 14.8063 11.6519 13.3687 12.515 12.5062C13.378 11.6438 14.8166 11.6438 15.6797 12.5062L23.016 19.8374L30.3523 12.5062C31.2154 11.6438 32.654 11.6438 33.517 12.5062C34.3801 13.3687 34.3801 14.8063 33.517 15.6687L26.1807 23L33.517 30.3312C34.3801 31.1936 34.3801 32.6311 33.517 33.4937Z" fill="white"/>
</g>
<defs>
<clipPath id="clip0">
<rect width="46.032" height="46" fill="white"/>
</clipPath>
</defs>
</svg>
