<?xml version="1.0" encoding="utf-8"?>
<!-- Generator: Adobe Illustrator 26.2.1, SVG Export Plug-In . SVG Version: 6.00 Build 0)  -->
<svg version="1.1" id="Capa_1" xmlns="http://www.w3.org/2000/svg" xmlns:xlink="http://www.w3.org/1999/xlink" x="0px" y="0px"
	 viewBox="0 0 80.59 83" style="enable-background:new 0 0 80.59 83;" xml:space="preserve">
<style type="text/css">
	.st0{fill:#3F67AE;}
	.st1{fill:#002F6C;}
	.st2{fill:#FFFFFF;}
</style>
<g>
	<g>
		<circle class="st0" cx="39.9" cy="39.08" r="34.75"/>
		<path class="st1" d="M5,39.08C4.94,13.58,29.54-4.53,53.52,6.2c28.5,13.17,29.79,53.58,0.28,66.42C29.68,82.67,4.86,64.69,5,39.08
			L5,39.08z M5.3,39.08c0.31,29.5,37.36,44.02,58.17,23.57C76.67,50,77.54,27.71,64.13,14.85C43.29-5.42,5.35,9.71,5.3,39.08
			L5.3,39.08z"/>
	</g>
	<g>
		<g>
			<rect x="24.21" y="33.51" class="st2" width="31.21" height="20.07"/>
			<path class="st1" d="M55.45,53.61c-10.24,0.3-20.9,0.55-31.24,0.26c0,0-0.31-0.01-0.31-0.01s0.01-0.29,0.01-0.29
				c0.19-6.69,0.18-13.38,0.02-20.07c0,0-0.01-0.27-0.01-0.27l0.28-0.01c5.2-0.12,10.4-0.18,15.6-0.22c5.37-0.07,10.74-0.01,16.1,0
				C55.88,39.1,55.61,47.47,55.45,53.61L55.45,53.61z M55.38,53.54c-0.2-5.87-0.37-14.27-0.46-20.04c0,0,0.49,0.49,0.49,0.49
				c-5.2,0.02-10.4,0.06-15.6,0c-5.2-0.03-10.4-0.09-15.6-0.22l0.27-0.27c-0.15,6.69-0.16,13.38,0.02,20.07c0,0-0.3-0.3-0.3-0.3
				C34.67,52.99,44.82,53.25,55.38,53.54L55.38,53.54z"/>
		</g>
		<g>
			<rect x="26.67" y="36.96" class="st0" width="8.47" height="4.08"/>
			<path class="st1" d="M35.14,36.96c-2.9,0.18-5.64,0.38-8.47,0.45c0,0,0.45-0.45,0.45-0.45c0.04,1.36,0.03,2.72,0.05,4.08
				l-0.5-0.5c2.83,0,5.65,0.07,8.47,0.21c0,0-0.29,0.29-0.29,0.29C34.91,39.75,35.06,38.41,35.14,36.96L35.14,36.96z M35.14,36.96
				c0.09,1.33,0.25,2.86,0.3,4.35c-2.92,0.15-5.84,0.22-8.77,0.22c0,0-0.51,0-0.51,0s0.01-0.5,0.01-0.5
				c0.01-1.51,0.01-3.02,0.06-4.53C29.19,36.54,32.26,36.75,35.14,36.96L35.14,36.96z"/>
		</g>
		<g>
			<rect x="44.66" y="36.96" class="st0" width="8.47" height="4.08"/>
			<path class="st1" d="M53.13,36.96c-2.9,0.18-5.64,0.38-8.47,0.45c0,0,0.45-0.45,0.45-0.45c0.04,1.36,0.03,2.72,0.05,4.08
				l-0.5-0.5c2.83,0,5.65,0.07,8.47,0.21c0,0-0.29,0.29-0.29,0.29C52.9,39.75,53.05,38.41,53.13,36.96L53.13,36.96z M53.13,36.96
				c0.09,1.33,0.25,2.86,0.3,4.35c-2.92,0.15-5.84,0.22-8.77,0.22c0,0-0.51,0-0.51,0s0.01-0.5,0.01-0.5
				c0.01-1.51,0.01-3.02,0.06-4.53C47.19,36.54,50.25,36.75,53.13,36.96L53.13,36.96z"/>
		</g>
		<g>
			<polygon class="st1" points="48.59,16.93 31.22,16.93 39.9,12.64 			"/>
			<path class="st1" d="M48.63,16.94c-2.58,0.09-5.87,0.3-8.46,0.33c-3.32-0.06-6.58-0.32-9.88-0.07c0,0,0.83-0.46,0.83-0.46
				c2.88-1.65,5.8-3.22,8.78-4.69C42.89,13.47,45.76,15.39,48.63,16.94L48.63,16.94z M48.54,16.92c-2.88-1.35-6.06-2.4-8.87-3.8
				c0,0,0.47,0,0.47,0c-2.9,1.43-5.84,2.75-8.82,4.01c0,0-0.1-0.42-0.1-0.42c2.81,0.19,5.64-0.07,8.41-0.12
				C42.57,16.64,45.49,16.85,48.54,16.92L48.54,16.92z"/>
		</g>
		<g>
			<rect x="34.16" y="16.93" class="st2" width="11.49" height="9.66"/>
			<path class="st1" d="M34.12,16.9c3.92-0.29,7.95-0.55,11.91-0.31c-0.21,3.34-0.32,6.67-0.11,10.01c0,0,0.01,0.26,0.01,0.26
				l-0.28,0.02c-4,0.2-8,0.31-12.01,0.23C33.63,24.02,33.92,19.99,34.12,16.9L34.12,16.9z M34.19,16.97
				c0.19,2.79,0.45,6.89,0.48,9.63c0,0-0.52-0.52-0.52-0.52c3.83-0.05,7.66,0.05,11.49,0.25c0,0-0.27,0.27-0.27,0.27
				c0.2-3.22,0.12-6.44-0.1-9.66c0,0,0.37,0.37,0.37,0.37C41.82,17.51,38.04,17.21,34.19,16.97L34.19,16.97z"/>
		</g>
		<path class="st0" d="M42.98,23.41c0,0-1.13-1.22-1.13-3.09s-1.94-1.94-1.94-1.94s-1.94,0.07-1.94,1.94s-1.13,3.09-1.13,3.09h2.69
			c-0.21,0.31-0.43,0.68-0.43,0.92c0,0.45,0.36,0.81,0.81,0.81c0.45,0,0.81-0.36,0.81-0.81c0-0.23-0.22-0.61-0.43-0.92H42.98z"/>
		<g>
			<polygon class="st1" points="49.27,52.21 49.27,50.85 48.15,50.85 48.15,44.55 32.08,44.55 32.08,50.85 30.54,50.85 30.54,52.21 
				28.72,52.21 28.72,53.58 51.09,53.58 51.09,52.21 			"/>
			<path class="st1" d="M49.27,52.21c0,0-0.05-1.36-0.05-1.36l0.05,0.05l-1.12,0.04c-0.13,0.01-0.08,0-0.09-0.09
				c0,0-0.17-6.3-0.17-6.3l0.26,0.26c-4.74,0.11-11.4,0.19-16.07,0.2c0,0,0.46-0.46,0.46-0.46s0.04,6.3,0.04,6.3l0,0.5
				c0,0-0.5,0-0.5,0l-1.54,0l0.49-0.49c0,0.35-0.01,1.52-0.01,1.85c-0.37,0-1.92-0.01-2.31-0.01c0,0,0.47-0.47,0.47-0.47
				s-0.01,1.36-0.01,1.36s-0.47-0.47-0.47-0.47c3.73,0.03,7.46,0.02,11.19,0.11c3.73,0.06,7.46,0.13,11.19,0.25l-0.11,0.11
				c0,0,0.04-1.36,0.04-1.36s0.07,0.07,0.07,0.07S49.27,52.21,49.27,52.21L49.27,52.21z M49.27,52.21l1.82-0.07c0,0,0.07,0,0.07,0
				s0,0.07,0,0.07s0.04,1.36,0.04,1.36l0,0.11c-3.77,0.13-7.53,0.19-11.3,0.25c-3.88,0.09-7.77,0.08-11.65,0.11
				c0-0.3-0.01-1.51-0.01-1.83c0,0,0-0.47,0-0.47c0.27,0,1.99-0.01,2.3-0.01c0,0-0.49,0.49-0.49,0.49c0-0.36-0.01-1.52-0.01-1.85
				c0,0,0.5,0,0.5,0l1.54,0l-0.5,0.5c0,0,0.04-6.3,0.04-6.3s0-0.47,0-0.47l0.46,0c4.76-0.01,11.52,0.12,16.34,0.2
				c0,0-0.01,0.26-0.01,0.26l-0.17,6.3c0,0-0.09-0.09-0.09-0.09l1.12,0.04l0.05,0l0,0.05L49.27,52.21L49.27,52.21z"/>
		</g>
		<g>
			<polygon class="st1" points="59.77,33.51 45.65,26.59 45.65,26.6 34.16,26.6 34.16,26.59 20.03,33.51 31.87,33.51 31.87,35.59 
				47.94,35.59 47.94,33.51 			"/>
			<path class="st1" d="M59.73,33.49c-4.85-2.29-9.54-4.21-14.27-6.51c0,0,0.63-0.4,0.62-0.39c0,0,0,0.43,0,0.43l-0.44,0.01
				c-3.83,0.05-7.66-0.05-11.49-0.16c0,0-0.28-0.01-0.28-0.01s0.01-0.27,0.01-0.27c0-0.01,0.4,0.25,0.4,0.25
				c-1.19,0.55-2.39,1.08-3.57,1.65c-3.44,1.63-7.21,3.49-10.56,5.25c0,0-0.12-0.5-0.12-0.5c3.94-0.1,7.89-0.19,11.83-0.21l0.47,0
				c0,0,0,0.48,0,0.48l0.02,2.08c0,0-0.49-0.49-0.49-0.49c5.36-0.06,10.71-0.04,16.07,0.05c0,0-0.44,0.44-0.44,0.44
				c0.02-0.31,0.03-2.24,0.04-2.5C51.6,33.13,55.59,33.46,59.73,33.49L59.73,33.49z M59.82,33.52c-3.89,0.05-7.92,0.36-11.88,0.4
				c0,0,0.41-0.41,0.41-0.41c0.01,0.3,0.04,2.26,0.04,2.52c-5.51,0.1-11.01,0.12-16.52,0.06c0,0-0.5-0.01-0.5-0.01l0-0.49l0.02-2.08
				l0.47,0.47c-3.94-0.03-7.89-0.11-11.83-0.21c0,0-1.15-0.03-1.15-0.03l1.03-0.47c4.83-2.2,9.81-4.65,14.51-7.12
				c0,0,0.01,0.45,0.01,0.45c0,0-0.28-0.28-0.28-0.28c1.91-0.05,3.83-0.11,5.74-0.14c1.91-0.01,3.83-0.05,5.74-0.02l-0.43,0.43
				c0,0,0.01-0.7,0.01-0.7C50.12,28.29,55.06,31.07,59.82,33.52L59.82,33.52z"/>
		</g>
	</g>
	<g>
		<g>
			<circle class="st2" cx="40.3" cy="67.9" r="12.29"/>
			<path class="st1" d="M27.95,67.9c-0.15-8.89,8.86-15.44,17.16-11.61c7.93,3.41,10.5,14.43,4.21,20.64
				C41.28,85.06,27.83,79.24,27.95,67.9L27.95,67.9z M28.05,67.9c0.03,10.42,13.34,15.64,20.61,8.36
				c4.64-4.35,4.96-12.49,0.21-16.93C41.62,52.09,27.97,57.55,28.05,67.9L28.05,67.9z"/>
		</g>
		<g>
			<path class="st1" d="M43.41,76.11c0,0.52-0.21,0.93-0.61,1.23c-0.41,0.31-0.94,0.46-1.59,0.46c-0.63,0-1.11-0.15-1.43-0.44
				c-0.32-0.3-0.47-0.71-0.47-1.25v-12c-0.36,0.46-0.73,0.89-1.13,1.31c-0.12,0.12-0.29,0.22-0.52,0.3
				c-0.23,0.08-0.46,0.12-0.7,0.12c-0.59,0-1.06-0.15-1.4-0.45c-0.34-0.29-0.5-0.69-0.5-1.19c0-0.16,0.05-0.36,0.15-0.61
				c0.1-0.25,0.25-0.48,0.44-0.7c0.97-1.17,2.02-2.5,3.15-4.01c0.18-0.26,0.46-0.47,0.86-0.64c0.4-0.17,0.81-0.25,1.25-0.25
				c0.71,0,1.3,0.18,1.77,0.55c0.47,0.37,0.7,0.84,0.7,1.41L43.41,76.11z"/>
		</g>
	</g>
</g>
</svg>
