<?xml version="1.0" encoding="utf-8"?>
<!-- Generator: Adobe Illustrator 26.2.1, SVG Export Plug-In . SVG Version: 6.00 Build 0)  -->
<svg version="1.1" id="Capa_1" xmlns="http://www.w3.org/2000/svg" xmlns:xlink="http://www.w3.org/1999/xlink" x="0px" y="0px"
	 viewBox="0 0 50 50" style="enable-background:new 0 0 50 50;" xml:space="preserve">
<style type="text/css">
	.st0{fill:none;}
	.st1{fill:#BA0C2F;}
	.st2{fill:url(#Nueva_muestra_de_motivo_1);}
	.st3{fill:#661D32;}
	.st4{fill:#EAF5FF;}
	.st5{fill:#FFFFFF;}
	.st6{fill:#808080;}
	.st7{fill:#C9D4FF;}
	.st8{font-family:'SourceSansPro-Bold';}
	.st9{font-size:6.5704px;}
</style>
<pattern  width="22.37" height="22.37" patternUnits="userSpaceOnUse" id="Nueva_muestra_de_motivo_1" viewBox="0 -22.37 22.37 22.37" style="overflow:visible;">
	<g>
		<rect y="-22.37" class="st0" width="22.37" height="22.37"/>
		<rect y="-22.37" class="st1" width="22.37" height="22.37"/>
	</g>
</pattern>
<g>
	<circle class="st2" cx="24.09" cy="23.47" r="20.88"/>
	<path class="st3" d="M3.17,23.47C3.02,8.47,18.25-2.22,32.19,3.93c17.1,7.5,17.53,31.91,0.09,39.31
		C18.26,49.14,3.01,38.52,3.17,23.47L3.17,23.47z M3.27,23.47C3.44,41.57,25.7,50.55,38.52,37.9c7.97-7.59,8.3-21.39,0.21-29.07
		C25.95-3.77,3.32,5.45,3.27,23.47L3.27,23.47z"/>
</g>
<g>
	<polygon class="st4" points="31.29,31.16 31.29,33.54 18.03,33.54 16.89,33.54 16.26,32.22 18.07,30.59 31.29,30.59 	"/>
	<path class="st5" d="M18.11,29.92l-2.41,2.3V14.49c0.01-1.39,0.94-2.65,2.41-2.81V29.92z"/>
	<path class="st5" d="M18.06,34.65c-1.31,0-2.37-1.06-2.37-2.37c0-0.02,0-0.04,0-0.07c0.04-1.29,1.03-2.3,2.42-2.3h14.65v0.65
		c0,0.33-0.26,0.59-0.59,0.59h0H18.09c-1.59,0.04-1.63,2.31-0.03,2.38h14.11c0.33,0,0.59,0.26,0.59,0.59c0,0,0,0,0,0v0.53
		L18.06,34.65z"/>
	<path class="st5" d="M18.11,29.92V11.69h13.02c0.9,0,1.62,0.73,1.62,1.62l0,0v16.61L18.11,29.92z"/>
	<path class="st6" d="M31.26,32.04H18.43c-0.14,0.01-0.24,0.13-0.24,0.26c0.01,0.13,0.11,0.23,0.24,0.24h12.84V32.04z"/>
	<rect x="18.82" y="32.04" class="st7" width="2.39" height="1.5"/>
	<polygon class="st5" points="19.55,32.04 19.55,36.07 21.21,35.3 22.87,36.07 22.87,32.04 	"/>
	<text transform="matrix(1 0 0 1 19.873 19.909)" class="st3 st8 st9">PDF</text>
	<path class="st3" d="M31.13,11.38H18.11c-0.01,0-0.01,0-0.01,0c-0.01,0-0.01,0-0.02,0c-0.6,0.06-1.16,0.3-1.61,0.7
		c-0.7,0.61-1.09,1.49-1.08,2.42v17.71c0,0,0,0,0,0c0,0,0,0,0,0v0.01c0,0,0,0,0,0c-0.02,0.72,0.25,1.41,0.76,1.93
		c0.88,0.93,1.97,0.82,3.1,0.81v0.67h-1.1l3.01,2.99l3.13-2.99h-1.1v-3.34c0-0.17-0.14-0.31-0.31-0.31h-3.33
		c-0.17,0-0.31,0.14-0.31,0.31v0.94h-1.18c-0.24,0-0.47-0.1-0.64-0.27c-0.54-0.56-0.11-1.49,0.67-1.49h13.02
		c-0.13,0.42-0.25,1.08-0.03,1.76h-6.96c-0.41,0.01-0.4,0.61,0,0.62h8.05c0.15,0,0.28,0.13,0.28,0.28v0.22h-8.33
		c-0.17,0-0.31,0.14-0.31,0.31c0,0.17,0.14,0.31,0.31,0.31h8.64c0.17,0,0.31-0.14,0.31-0.31v-0.53c0-0.49-0.4-0.9-0.9-0.9h-0.41
		c-0.32-0.7-0.12-1.44,0.01-1.76h0.41c0.49,0,0.9-0.4,0.9-0.9v-0.65c0,0,0,0,0,0V13.31C33.06,12.24,32.2,11.38,31.13,11.38z
		 M32.44,30.57c0,0.15-0.13,0.28-0.28,0.28H18.09c-1.32-0.02-2.03,1.59-1.12,2.53c0.28,0.3,0.67,0.46,1.08,0.46h1.18v0.5h-1.18
		c-0.56,0-1.09-0.22-1.48-0.62c-1.28-1.3-0.3-3.5,1.53-3.49h14.34V30.57z M32.44,29.61H18.11c-0.85,0-1.6,0.4-2.11,1.01V14.49
		c-0.01-1.12,0.73-2.17,1.8-2.44v16.39c0.01,0.41,0.61,0.4,0.62,0V11.99h12.71c0.73,0,1.32,0.59,1.32,1.32V29.61z"/>
	<polygon class="st5" points="19.74,32.54 19.74,36.01 19.25,36.01 21.23,37.95 23.17,36.01 22.67,36.01 22.67,32.54 	"/>
</g>
</svg>
