<?xml version="1.0" encoding="utf-8"?>
<!-- Generator: Adobe Illustrator 26.2.1, SVG Export Plug-In . SVG Version: 6.00 Build 0)  -->
<svg version="1.1" id="Capa_1" xmlns="http://www.w3.org/2000/svg" xmlns:xlink="http://www.w3.org/1999/xlink" x="0px" y="0px"
	 viewBox="0 0 50 50" style="enable-background:new 0 0 50 50;" xml:space="preserve">
<style type="text/css">
	.st0{fill:#E6E6E6;stroke:#FFFFFF;stroke-miterlimit:10;}
	.st1{fill:#BA0C2F;}
	.st2{fill:#CFCDC9;}
	.st3{fill:#002F6C;}
</style>
<g>
	<circle class="st0" cx="26.09" cy="25.73" r="14.9"/>
	<g>
		<path class="st1" d="M26.09,43.42c-9.75,0-17.69-7.94-17.69-17.69S16.34,8.04,26.09,8.04s17.69,7.94,17.69,17.69
			S35.84,43.42,26.09,43.42z M26.09,11.77c-7.7,0-13.97,6.26-13.97,13.97S18.39,39.7,26.09,39.7s13.97-6.26,13.97-13.97
			S33.79,11.77,26.09,11.77z"/>
		<g>
			<path class="st1" d="M26.09,43.47C13.4,43.64,4.19,30.67,9.49,18.86c6.43-14.49,27.08-14.92,33.41-0.09
				C47.97,30.65,38.83,43.65,26.09,43.47L26.09,43.47z M26.09,43.37c15.22-0.13,22.84-19.05,12.17-29.81
				c-6.4-6.74-18.06-7.07-24.55-0.21C3.09,24.13,10.9,43.31,26.09,43.37L26.09,43.37z"/>
			<path class="st1" d="M26.09,11.82c-11.85-0.04-18.04,15.34-9.75,23.66c5.06,5.4,14.31,5.08,19.29-0.21
				C43.97,26.89,37.99,11.91,26.09,11.82L26.09,11.82z M26.09,11.72c12.83-0.09,19.38,15.09,10.2,24.22
				c-7.08,7.13-19.46,4.28-23.36-4.75C8.66,21.77,16.01,11.6,26.09,11.72L26.09,11.72z"/>
		</g>
	</g>
	<path class="st1" d="M26.09,36.91c-6.16,0-11.17-5.01-11.17-11.17s5.01-11.17,11.17-11.17s11.17,5.01,11.17,11.17
		S32.25,36.91,26.09,36.91z M26.09,18.29c-4.11,0-7.45,3.34-7.45,7.45s3.34,7.45,7.45,7.45s7.45-3.34,7.45-7.45
		S30.2,18.29,26.09,18.29z"/>
	<circle class="st1" cx="26.09" cy="25.73" r="3.72"/>
	<path class="st2" d="M40.37,16.04c-0.04-0.18-0.17-0.32-0.34-0.38l-2.9-0.97l-0.97-2.9c-0.06-0.17-0.2-0.3-0.38-0.35
		c-0.18-0.04-0.36,0.01-0.49,0.14l-3.15,3.15c-0.14,0.14-0.19,0.35-0.13,0.54l1.05,3.15c0.05,0.14,0.18,0.28,0.33,0.33l3.15,1.05
		c0.05,0.02,0.11,0.03,0.17,0.03c0.14,0,0.27-0.05,0.37-0.15l3.15-3.15C40.36,16.41,40.41,16.22,40.37,16.04z"/>
	<path class="st3" d="M25.68,26.66c-0.13,0-0.27-0.05-0.37-0.15c-0.21-0.21-0.21-0.54,0-0.74l13.13-13.13
		c0.21-0.21,0.54-0.21,0.74,0c0.21,0.21,0.21,0.54,0,0.74L26.05,26.51C25.95,26.61,25.82,26.66,25.68,26.66z"/>
</g>
</svg>
