<?xml version="1.0" encoding="utf-8"?>
<!-- Generator: Adobe Illustrator 26.1.0, SVG Export Plug-In . SVG Version: 6.00 Build 0)  -->
<svg version="1.1" id="Capa_1" xmlns="http://www.w3.org/2000/svg" xmlns:xlink="http://www.w3.org/1999/xlink" x="0px" y="0px"
	 viewBox="0 0 964 362.36" style="enable-background:new 0 0 964 362.36;" xml:space="preserve">
<style type="text/css">
	.st0{fill:#002F6C;}
	.st1{fill:#3CB037;}
</style>
<path class="st0" d="M367.36,290.95V82.21h71.71c15.36,0,29.3,2.08,41.78,6.24c12.48,4.16,22.45,11.15,29.94,20.96
	c7.47,9.82,11.2,23.15,11.2,40.02c0,16.22-3.73,29.57-11.2,40.02c-7.47,10.46-17.39,18.19-29.78,23.21s-25.94,7.52-40.66,7.52
	h-25.94v70.75h-47.06V290.95z M414.42,182.74h23.05c25.62,0,38.42-11.09,38.42-33.3c0-10.88-3.42-18.57-10.24-23.05
	c-6.83-4.48-16.64-6.72-29.46-6.72h-21.77V182.74z"/>
<path class="st1" d="M646.71,294.79c-19.01,0-36.24-4.05-51.7-12.16c-15.47-8.11-27.74-20.11-36.82-36.02s-13.6-35.47-13.6-58.74
	c0-23.05,4.64-42.74,13.92-59.07s21.6-28.82,36.98-37.46c15.36-8.64,32.34-12.96,50.9-12.96c15.15,0,28.18,2.78,39.06,8.32
	c10.88,5.55,19.74,11.84,26.58,18.89l-24.66,30.1c-5.34-4.69-10.99-8.64-16.96-11.84c-5.98-3.2-13.44-4.8-22.41-4.8
	c-16.22,0-29.46,5.98-39.7,17.92c-10.24,11.95-15.36,28.38-15.36,49.3c0,21.34,4.91,38,14.72,49.94
	c9.81,11.95,24.43,17.92,43.86,17.92c4.27,0,8.43-0.53,12.49-1.6c4.05-1.06,7.36-2.67,9.92-4.8v-35.86h-34.58v-38.42h76.19v96.05
	c-7.26,7.04-16.91,13.02-28.98,17.92C674.52,292.32,661.22,294.79,646.71,294.79z"/>
<path class="st0" d="M759.74,290.95V82.21h130.62v39.7h-83.55v41.94h71.07v39.38h-71.07v48.02h86.75v39.7H759.74V290.95z"/>
<path class="st0" d="M323.69,217.31l-25.64-51.21c-0.64-60.59-50.28-109.21-110.9-108.58c-1.66,0.03-3.3,0.08-4.95,0.19
	C124.44,61.53,79.3,109.03,78.41,166.92c0,38.69,20.25,74.61,53.39,94.6c5.36,3.22,8.21,9.41,7.24,15.6L136,297.32
	c-0.42,2.85,1.54,5.51,4.39,5.92c0.26,0.03,0.53,0.08,0.79,0.08h88.9c2.88,0,5.25-2.36,5.25-5.25v-1.66
	c0.03-8.14,6.26-14.92,14.36-15.63l24.41-2.06c13.5-1.16,23.88-12.44,23.96-26.02v-27.82h20.92c2.88,0,5.25-2.32,5.28-5.21
	C324.25,218.84,324.06,218.02,323.69,217.31z M130.82,163.99c30.85,2.32,55.34,26.81,57.66,57.66
	C157.66,219.29,133.18,194.81,130.82,163.99z M174.8,174.15c-2.62-24.75,3.9-49.6,18.33-69.88c14.44,20.28,20.96,45.14,18.33,69.88
	c-8.18,7.61-14.47,17.03-18.33,27.52C189.27,191.17,182.97,181.76,174.8,174.15z M197.78,221.65c2.32-30.85,26.81-55.34,57.66-57.66
	C253.08,194.81,228.6,219.29,197.78,221.65z"/>
</svg>
